M48
;Layer_Color=9474304
;FILE_FORMAT=2:5
INCH,LZ
;TYPE=PLATED
T1F00S00C0.01400
T2F00S00C0.03500
T3F00S00C0.03543
T4F00S00C0.04016
T5F00S00C0.04331
T6F00S00C0.05512
T7F00S00C0.06200
T8F00S00C0.06299
T9F00S00C0.12598
T10F00S00C0.12800
T11F00S00C0.15000
%
T01
X0107658Y0111594
X010625Y01175
X0107658Y0123406
X0111594Y0127342
X01175Y012875
X0123406Y0127342
X0127342Y0123406
X012875Y01175
X0127342Y0111594
X0123406Y0107658
X01175Y010625
X0111594Y0107658
X0238Y01295
X02485Y013
X02765Y0117
X0325Y01235
X03475Y0123
X0363
X0384Y0124
X03975Y01235
X0423Y0129
X04355Y01085
X0462657Y0111594
X046125Y01175
X0462657Y0123406
X0466595Y0127342
Y0107658
X04725Y010625
X0478406Y0107658
X0482342Y0111594
X048375Y01175
X0482342Y0123406
X0478406Y0127342
X04725Y012875
X0421Y02385
X0384Y0238
X03465Y0236
X0324Y0266
X0315
X03815Y0285
X03865Y0288
X03055Y02655
X02965
X03055Y02355
X0201Y01685
X01465Y02005
Y0226
X01115
X01055Y02445
X0106Y02645
Y02845
X01055Y03045
X01115Y0201
X0111594Y0372657
X01175Y037125
X0123406Y0372657
X0127342Y0376594
X012875Y03825
X0127342Y0388405
X0123406Y0392342
X01175Y039375
X0111594Y0392342
X0107658Y0388405
X010625Y03825
X0107658Y0376594
X01765Y0382
X046125Y03825
X0462657Y0376594
X0466595Y0372657
Y0392342
X0462657Y0388405
X04725Y039375
X0478406Y0392342
X0482342Y0388405
X048375Y03825
X0482342Y0376594
X0478406Y0372657
X04725Y037125
T02
X03195Y031
X03295
X03395
X03495
X03815
X03915
X04015
X04115
X04165Y032
X04065
X03965
X03865
X03815Y03345
X03915
X04015
X04115
X04065Y03445
X03965
X03865
X04165
X03545
X03445
X03345
X03245
X03195Y03345
X03295
X03395
X03495
X03545Y032
X03445
X03345
X03245
T03
X0194173Y0345158
X0203071Y0345
X0212047
X0221024
X023
X0225512Y0355
X0216535
X0207559
X0198583
X0189606
X0194095Y0365
X0203071
X0212047
X0221024
X023
T04
X0316Y02065
Y02165
X0336
Y02065
X0356
Y02165
X0376
Y02065
X0396
Y02165
X0416
Y02065
T05
X0458677Y0203323
T06
X0471Y0191
Y0215646
X0446354
Y0191
T07
X0305Y0316
Y0349
X0431
Y0316
T08
X0162Y012
Y014
X02795Y01425
X0465Y01535
X0416Y01715
X0396
X0376
X0356
X0336
X0316
X04585Y02595
Y029
X02635Y02845
Y02645
Y02445
Y02245
Y02045
Y01845
X02795Y01605
X0162Y016
X01905Y02245
Y02445
Y02645
Y02845
Y03045
X02635
T09
X0161929Y0355
X0260315
T10
X0312Y0377
X0424
T11
X01175Y01175
X04725
X01175Y03825
X04725
M30
