G04*
G04 #@! TF.GenerationSoftware,Altium Limited,Altium Designer,19.1.8 (144)*
G04*
G04 Layer_Color=65535*
%FSLAX25Y25*%
%MOIN*%
G70*
G01*
G75*
%ADD10C,0.01000*%
%ADD11C,0.00984*%
%ADD12C,0.01200*%
%ADD13C,0.01500*%
%ADD14C,0.00787*%
%ADD15C,0.03000*%
G36*
X483000Y359000D02*
Y299000D01*
X469814D01*
X458000D01*
Y359000D01*
X469814D01*
D01*
X483000D01*
D02*
G37*
%LPC*%
G36*
X463259Y353598D02*
X462867D01*
X463184D01*
X463142Y353582D01*
X463067Y353557D01*
X463026Y353523D01*
X463009Y353515D01*
Y353507D01*
X462959Y353449D01*
X462925Y353382D01*
X462900Y353315D01*
X462884Y353240D01*
X462876Y353174D01*
X462867Y353124D01*
Y351782D01*
X462884Y351716D01*
X462892Y351658D01*
X462909Y351608D01*
X462925Y351574D01*
X462942Y351549D01*
X462951Y351533D01*
X462959Y351524D01*
X462992Y351483D01*
X463034Y351458D01*
X463126Y351424D01*
X463159Y351416D01*
X463192Y351408D01*
X463217D01*
X463225D01*
X463309Y351416D01*
X463367Y351433D01*
X463409Y351449D01*
X463425Y351458D01*
X463475Y351508D01*
X463517Y351574D01*
X463550Y351624D01*
X463559Y351633D01*
Y351641D01*
X463617Y351733D01*
X463675Y351816D01*
X463725Y351874D01*
X463784Y351933D01*
X463825Y351966D01*
X463867Y351999D01*
X463892Y352008D01*
X463900Y352016D01*
X463975Y352049D01*
X464067Y352082D01*
X464167Y352099D01*
X464258Y352107D01*
X464342Y352116D01*
X464408Y352124D01*
X464450D01*
X464458D01*
X464467D01*
X465841D01*
X466774Y352849D01*
X464467D01*
X464350Y352857D01*
X464250Y352866D01*
X464150Y352882D01*
X464075Y352899D01*
X464008Y352915D01*
X463958Y352924D01*
X463925Y352940D01*
X463917D01*
X463850Y352982D01*
X463784Y353040D01*
X463725Y353107D01*
X463675Y353174D01*
X463634Y353232D01*
X463600Y353282D01*
X463584Y353315D01*
X463575Y353324D01*
X463534Y353415D01*
X463484Y353473D01*
X463450Y353515D01*
X463442Y353523D01*
X463375Y353565D01*
X463309Y353590D01*
X463259Y353598D01*
D02*
G37*
G36*
X469681D02*
Y352849D01*
X467432D01*
X462867Y350225D01*
Y347326D01*
Y347901D01*
X462876Y347801D01*
X462884Y347709D01*
X462892Y347651D01*
X462900Y347601D01*
X462909Y347576D01*
X462917Y347559D01*
Y347551D01*
X462951Y347484D01*
X462992Y347434D01*
X463034Y347401D01*
X463042Y347393D01*
X463051D01*
X463126Y347359D01*
X463192Y347343D01*
X463242Y347334D01*
X463250D01*
X463259D01*
X463334Y347343D01*
X463400Y347368D01*
X463442Y347384D01*
X463450Y347393D01*
X463459D01*
X463509Y347434D01*
X463542Y347484D01*
X463559Y347518D01*
X463567Y347526D01*
X463634Y347709D01*
X463667Y347784D01*
X463700Y347834D01*
X463725Y347867D01*
X463733Y347876D01*
X463759Y347901D01*
X463792Y347926D01*
X463875Y347976D01*
X463908Y348001D01*
X463942Y348017D01*
X463958Y348034D01*
X463967D01*
X469681Y351358D01*
Y349084D01*
X469664Y349167D01*
X469656Y349234D01*
X469639Y349284D01*
X469623Y349317D01*
X469615Y349350D01*
X469598Y349359D01*
Y349367D01*
X469556Y349417D01*
X469515Y349450D01*
X469473Y349475D01*
X469431Y349492D01*
X469398Y349500D01*
X469365Y349509D01*
X469348D01*
X469340D01*
X469265Y349500D01*
X469206Y349483D01*
X469156Y349450D01*
X469106Y349417D01*
X469073Y349383D01*
X469048Y349350D01*
X469040Y349334D01*
X469031Y349325D01*
X468957Y349175D01*
X468906Y349100D01*
X468856Y349034D01*
X468798Y348984D01*
X468748Y348934D01*
X468707Y348900D01*
X468673Y348875D01*
X468648Y348867D01*
X468640Y348859D01*
X468557Y348825D01*
X468473Y348800D01*
X468390Y348784D01*
X468307Y348775D01*
X468232Y348767D01*
X468173Y348759D01*
X468140D01*
X468123D01*
X465508D01*
X464575Y348034D01*
X468123D01*
X468232Y348026D01*
X468340Y348017D01*
X468432Y347992D01*
X468515Y347967D01*
X468665Y347901D01*
X468782Y347826D01*
X468865Y347751D01*
X468923Y347684D01*
X468965Y347634D01*
X468973Y347626D01*
Y347618D01*
X469006Y347559D01*
X469040Y347509D01*
X469065Y347468D01*
X469090Y347443D01*
X469123Y347401D01*
X469140Y347384D01*
X469198Y347351D01*
X469256Y347334D01*
X469306Y347326D01*
X469681D01*
Y353598D01*
D02*
G37*
G36*
X469806Y346801D02*
D01*
Y343836D01*
X469781Y344061D01*
X469748Y344277D01*
X469698Y344477D01*
X469639Y344669D01*
X469581Y344844D01*
X469506Y345002D01*
X469440Y345152D01*
X469365Y345293D01*
X469290Y345410D01*
X469223Y345518D01*
X469156Y345610D01*
X469098Y345685D01*
X469048Y345743D01*
X469015Y345785D01*
X468990Y345810D01*
X468981Y345818D01*
X468790Y345993D01*
X468582Y346143D01*
X468373Y346276D01*
X468148Y346385D01*
X467923Y346485D01*
X467699Y346560D01*
X467482Y346626D01*
X467266Y346676D01*
X467065Y346718D01*
X466882Y346751D01*
X466716Y346768D01*
X466566Y346784D01*
X466449Y346793D01*
X466358Y346801D01*
X462742D01*
Y340695D01*
Y343653D01*
Y343836D01*
X463434D01*
X463459Y343902D01*
X463484Y343961D01*
X463509Y344011D01*
X463525Y344044D01*
X463542Y344069D01*
X463550Y344086D01*
X463559Y344102D01*
X463592Y344144D01*
X463634Y344186D01*
X463667Y344202D01*
X463684Y344211D01*
X463733Y344236D01*
X463792Y344261D01*
X463908Y344286D01*
X463967Y344294D01*
X464000D01*
X464033D01*
X464042D01*
X468373D01*
X468507Y344286D01*
X468615Y344277D01*
X468715Y344261D01*
X468790Y344236D01*
X468848Y344211D01*
X468890Y344194D01*
X468915Y344186D01*
X468923Y344177D01*
X468965Y344136D01*
X468998Y344102D01*
X469023Y344077D01*
X469031Y344069D01*
X469048Y344044D01*
X469056Y344011D01*
X469081Y343936D01*
X469090Y343894D01*
X469098Y343869D01*
X469106Y343844D01*
Y343836D01*
X469806D01*
Y343653D01*
X469106D01*
X469081Y343561D01*
X469048Y343478D01*
X469023Y343419D01*
X468998Y343378D01*
X468973Y343344D01*
X468957Y343328D01*
X468940Y343311D01*
X468865Y343278D01*
X468782Y343253D01*
X468590Y343219D01*
X468507Y343211D01*
X468440Y343203D01*
X468390D01*
X468382D01*
X468373D01*
X464042D01*
X463950D01*
X463875Y343219D01*
X463808Y343228D01*
X463750Y343244D01*
X463709Y343261D01*
X463684Y343269D01*
X463667Y343286D01*
X463659D01*
X463617Y343328D01*
X463567Y343378D01*
X463500Y343502D01*
X463475Y343561D01*
X463450Y343611D01*
X463442Y343644D01*
X463434Y343653D01*
X462742D01*
X462759Y343419D01*
X462784Y343203D01*
X462826Y343011D01*
X462867Y342853D01*
X462884Y342786D01*
X462900Y342720D01*
X462917Y342670D01*
X462934Y342628D01*
X462951Y342595D01*
X462959Y342570D01*
X462967Y342553D01*
Y342545D01*
X463042Y342378D01*
X463134Y342228D01*
X463234Y342086D01*
X463325Y341962D01*
X463409Y341853D01*
X463475Y341778D01*
X463517Y341728D01*
X463525Y341720D01*
X463534Y341712D01*
X463725Y341537D01*
X463925Y341378D01*
X464125Y341245D01*
X464317Y341137D01*
X464400Y341095D01*
X464475Y341054D01*
X464550Y341020D01*
X464608Y340995D01*
X464658Y340970D01*
X464691Y340953D01*
X464716Y340945D01*
X464725D01*
X464991Y340862D01*
X465266Y340804D01*
X465524Y340754D01*
X465766Y340729D01*
X465874Y340720D01*
X465974Y340712D01*
X466066Y340704D01*
X466141D01*
X466199Y340695D01*
X466283D01*
X466599Y340704D01*
X466891Y340737D01*
X467174Y340787D01*
X467432Y340845D01*
X467674Y340920D01*
X467890Y341003D01*
X468098Y341087D01*
X468282Y341178D01*
X468440Y341270D01*
X468582Y341353D01*
X468707Y341437D01*
X468798Y341512D01*
X468882Y341570D01*
X468940Y341620D01*
X468973Y341653D01*
X468981Y341662D01*
X469115Y341811D01*
X469223Y341962D01*
X469331Y342128D01*
X469423Y342295D01*
X469498Y342461D01*
X469564Y342628D01*
X469623Y342786D01*
X469664Y342944D01*
X469706Y343086D01*
X469739Y343219D01*
X469765Y343344D01*
X469781Y343444D01*
X469790Y343536D01*
X469798Y343594D01*
X469806Y343636D01*
Y341662D01*
Y346801D01*
D02*
G37*
G36*
X478124Y345393D02*
X471311D01*
D01*
X473401D01*
X473151Y345377D01*
X472927Y345335D01*
X472727Y345285D01*
X472552Y345218D01*
X472477Y345185D01*
X472410Y345152D01*
X472352Y345127D01*
X472302Y345102D01*
X472268Y345077D01*
X472243Y345060D01*
X472227Y345052D01*
X472219Y345044D01*
X472052Y344910D01*
X471910Y344760D01*
X471785Y344610D01*
X471685Y344461D01*
X471610Y344327D01*
X471577Y344269D01*
X471552Y344227D01*
X471535Y344186D01*
X471519Y344152D01*
X471510Y344136D01*
Y344127D01*
X471477Y344027D01*
X471444Y343919D01*
X471419Y343794D01*
X471394Y343669D01*
X471360Y343403D01*
X471336Y343136D01*
X471327Y343011D01*
X471319Y342903D01*
Y342794D01*
X471311Y342703D01*
Y342320D01*
Y342520D01*
X472027D01*
X472044Y342619D01*
X472069Y342703D01*
X472085Y342770D01*
X472110Y342819D01*
X472127Y342861D01*
X472144Y342886D01*
X472152Y342894D01*
X472160Y342903D01*
X472227Y342969D01*
X472294Y343011D01*
X472335Y343028D01*
X472343Y343036D01*
X472352D01*
X472393Y343044D01*
X472435Y343053D01*
X472535Y343069D01*
X472577D01*
X472618D01*
X472643D01*
X472652D01*
X474201D01*
X474309Y343061D01*
X474401Y343053D01*
X474484Y343036D01*
X474559Y343019D01*
X474617Y342994D01*
X474659Y342978D01*
X474684Y342969D01*
X474692Y342961D01*
X474734Y342928D01*
X474767Y342894D01*
X474784Y342869D01*
X474792Y342853D01*
X474809Y342819D01*
X474826Y342778D01*
X474859Y342670D01*
X474876Y342611D01*
X474892Y342570D01*
X474901Y342536D01*
Y342528D01*
X475600D01*
Y342720D01*
X475592Y342886D01*
X475584Y343044D01*
X475575Y343186D01*
X475559Y343319D01*
X475542Y343428D01*
X475526Y343536D01*
X475509Y343619D01*
X475492Y343702D01*
X475476Y343769D01*
X475459Y343819D01*
X475442Y343861D01*
X475434Y343894D01*
X475425Y343919D01*
X475417Y343936D01*
X475367Y344077D01*
X475317Y344202D01*
X475259Y344319D01*
X475201Y344427D01*
X475142Y344527D01*
X475076Y344619D01*
X475017Y344702D01*
X474959Y344777D01*
X474901Y344835D01*
X474851Y344894D01*
X474809Y344944D01*
X474767Y344977D01*
X474734Y345010D01*
X474709Y345027D01*
X474692Y345044D01*
X474684D01*
X474484Y345160D01*
X474268Y345244D01*
X474051Y345310D01*
X473851Y345352D01*
X473760Y345368D01*
X473676Y345377D01*
X473593Y345385D01*
X473526D01*
X473476Y345393D01*
X478124D01*
D02*
G37*
G36*
X477800Y342919D02*
X477775D01*
X477766D01*
X477716D01*
X477666Y342903D01*
X477583Y342861D01*
X477525Y342803D01*
X477475Y342736D01*
X477441Y342670D01*
X477416Y342611D01*
X477400Y342570D01*
Y342553D01*
X477391Y342511D01*
X477375Y342478D01*
X477366Y342436D01*
X477358Y342420D01*
Y342411D01*
X477350Y342395D01*
X477333Y342370D01*
X477316Y342361D01*
X477308Y342353D01*
X477291Y342345D01*
X477258Y342336D01*
X477191Y342328D01*
X477158Y342320D01*
X477133D01*
X477116D01*
X477108D01*
X471311D01*
Y339854D01*
X471327Y339787D01*
X471336Y339729D01*
X471352Y339687D01*
X471369Y339646D01*
X471385Y339621D01*
X471394Y339604D01*
X471402Y339596D01*
X471444Y339554D01*
X471485Y339521D01*
X471527Y339504D01*
X471569Y339488D01*
X471610Y339479D01*
X471644Y339471D01*
X471669D01*
X471760Y339479D01*
X471835Y339512D01*
X471902Y339554D01*
X471944Y339604D01*
X471985Y339646D01*
X472010Y339687D01*
X472019Y339721D01*
X472027Y339729D01*
X472044Y339779D01*
X472060Y339821D01*
X472069Y339846D01*
X472077Y339862D01*
X472085Y339887D01*
Y339904D01*
X472093Y339912D01*
X472102Y339921D01*
X472110D01*
X472135Y339937D01*
X472160Y339946D01*
X472227Y339954D01*
X472277Y339962D01*
X472294D01*
X472302D01*
X477150D01*
X477233Y339954D01*
X477291Y339946D01*
X477325Y339929D01*
X477333Y339921D01*
X477358Y339896D01*
X477366Y339887D01*
X477375Y339879D01*
Y339862D01*
X477400Y339804D01*
X477416Y339754D01*
X477425Y339737D01*
Y339729D01*
X477466Y339646D01*
X477516Y339579D01*
X477575Y339537D01*
X477633Y339504D01*
X477683Y339488D01*
X477733Y339479D01*
X477766Y339471D01*
X477775D01*
X477833Y339479D01*
X477891Y339488D01*
X477975Y339537D01*
X477999Y339554D01*
X478024Y339579D01*
X478033Y339587D01*
X478041Y339596D01*
X478091Y339704D01*
X478116Y339812D01*
Y339854D01*
X478124Y339896D01*
Y342461D01*
X478116Y342536D01*
X478099Y342603D01*
X478091Y342653D01*
X478075Y342686D01*
X478066Y342720D01*
X478058Y342728D01*
Y342736D01*
X478016Y342794D01*
X477966Y342845D01*
X477916Y342878D01*
X477875Y342894D01*
X477833Y342911D01*
X477800Y342919D01*
D02*
G37*
G36*
X464908Y339987D02*
X464891D01*
X464883D01*
X463284D01*
X463200D01*
X463126Y339971D01*
X463067Y339962D01*
X463009Y339946D01*
X462976Y339929D01*
X462942Y339912D01*
X462925Y339904D01*
X462917Y339896D01*
X462876Y339862D01*
X462842Y339821D01*
X462817Y339771D01*
X462801Y339729D01*
X462792Y339687D01*
X462784Y339654D01*
Y339621D01*
X462792Y339562D01*
X462809Y339512D01*
X462867Y339421D01*
X462900Y339387D01*
X462925Y339371D01*
X462942Y339354D01*
X462951Y339346D01*
X463059Y339263D01*
X463084Y339238D01*
X463092Y339221D01*
X463100Y339204D01*
Y339196D01*
X463092Y339163D01*
X463084Y339121D01*
X463075Y339088D01*
Y339071D01*
X463017Y338929D01*
X462967Y338813D01*
X462934Y338704D01*
X462900Y338613D01*
X462876Y338546D01*
X462859Y338496D01*
X462851Y338463D01*
Y338455D01*
X462826Y338363D01*
X462809Y338263D01*
X462792Y338163D01*
X462784Y338063D01*
X462776Y337971D01*
X462767Y337896D01*
Y337830D01*
X463475D01*
X463534Y338030D01*
X463592Y338205D01*
X463650Y338355D01*
X463709Y338479D01*
X463759Y338580D01*
X463800Y338646D01*
X463825Y338688D01*
X463834Y338704D01*
X463958Y338771D01*
X464067Y338838D01*
X464167Y338888D01*
X464250Y338929D01*
X464325Y338963D01*
X464375Y338988D01*
X464408Y339004D01*
X464417Y339013D01*
X464592Y339096D01*
X464675Y339129D01*
X464742Y339154D01*
X464808Y339171D01*
X464850Y339188D01*
X464883Y339196D01*
X464891D01*
X464983Y339213D01*
X465041Y339238D01*
X465083Y339246D01*
X465100Y339254D01*
X465150Y339288D01*
X465183Y339321D01*
X465216Y339346D01*
X465225Y339354D01*
X465266Y339429D01*
X465291Y339512D01*
Y339537D01*
X465300Y339562D01*
Y339587D01*
X465291Y339654D01*
X465283Y339704D01*
X465241Y339796D01*
X465216Y339829D01*
X465200Y339854D01*
X465191Y339862D01*
X465183Y339871D01*
X465133Y339912D01*
X465083Y339937D01*
X464983Y339971D01*
X464941Y339979D01*
X464908Y339987D01*
D02*
G37*
G36*
X469806Y340220D02*
Y337563D01*
X469798Y337713D01*
X469790Y337855D01*
X469773Y337988D01*
X469756Y338096D01*
X469739Y338196D01*
X469731Y338271D01*
X469714Y338313D01*
Y338330D01*
X469681Y338463D01*
X469639Y338588D01*
X469598Y338704D01*
X469564Y338804D01*
X469531Y338879D01*
X469498Y338946D01*
X469481Y338979D01*
X469473Y338996D01*
X469348Y339196D01*
X469206Y339371D01*
X469065Y339529D01*
X468931Y339654D01*
X468807Y339754D01*
X468715Y339829D01*
X468673Y339854D01*
X468648Y339871D01*
X468632Y339887D01*
X468623D01*
X468415Y339996D01*
X468207Y340079D01*
X467999Y340137D01*
X467815Y340179D01*
X467732Y340195D01*
X467657Y340204D01*
X467590Y340212D01*
X467532D01*
X467490Y340220D01*
X462742D01*
Y337588D01*
Y337655D01*
Y340220D01*
X467424D01*
X467266Y340212D01*
X467107Y340187D01*
X466957Y340154D01*
X466816Y340112D01*
X466682Y340062D01*
X466557Y340004D01*
X466441Y339937D01*
X466332Y339879D01*
X466241Y339812D01*
X466149Y339746D01*
X466074Y339687D01*
X466016Y339637D01*
X465966Y339596D01*
X465933Y339562D01*
X465908Y339537D01*
X465899Y339529D01*
X465824Y339471D01*
X465758Y339412D01*
X465691Y339346D01*
X465641Y339288D01*
X465599Y339229D01*
X465566Y339188D01*
X465550Y339154D01*
X465541Y339146D01*
X465483Y339046D01*
X465416Y338938D01*
X465358Y338821D01*
X465300Y338704D01*
X465258Y338604D01*
X465216Y338521D01*
X465200Y338488D01*
X465191Y338463D01*
X465183Y338455D01*
Y338446D01*
X465125Y338321D01*
X465075Y338205D01*
X465033Y338105D01*
X464983Y338013D01*
X464950Y337930D01*
X464916Y337855D01*
X464883Y337788D01*
X464858Y337730D01*
X464808Y337638D01*
X464783Y337580D01*
X464767Y337547D01*
X464758Y337538D01*
X464700Y337447D01*
X464650Y337363D01*
X464592Y337297D01*
X464550Y337238D01*
X464508Y337197D01*
X464475Y337172D01*
X464458Y337155D01*
X464450Y337147D01*
X464392Y337113D01*
X464325Y337088D01*
X464200Y337055D01*
X464150Y337047D01*
X464108Y337038D01*
X464083D01*
X464075D01*
X464000Y337047D01*
X463925Y337063D01*
X463867Y337080D01*
X463817Y337105D01*
X463775Y337130D01*
X463742Y337155D01*
X463725Y337163D01*
X463717Y337172D01*
X463667Y337230D01*
X463617Y337305D01*
X463542Y337463D01*
X463509Y337538D01*
X463492Y337597D01*
X463475Y337638D01*
Y337655D01*
X462742D01*
X462751Y337472D01*
X462776Y337305D01*
X462801Y337147D01*
X462834Y336997D01*
X462867Y336855D01*
X462909Y336722D01*
X462942Y336605D01*
X462984Y336497D01*
X463026Y336405D01*
X463067Y336322D01*
X463100Y336247D01*
X463134Y336189D01*
X463159Y336139D01*
X463184Y336105D01*
X463192Y336089D01*
X463200Y336081D01*
X463317Y335931D01*
X463450Y335797D01*
X463584Y335681D01*
X463709Y335589D01*
X463817Y335514D01*
X463908Y335456D01*
X463942Y335439D01*
X463967Y335422D01*
X463983Y335414D01*
X463992D01*
X464175Y335339D01*
X464358Y335281D01*
X464542Y335239D01*
X464708Y335214D01*
X464850Y335197D01*
X464908Y335189D01*
X464958Y335181D01*
X462742D01*
X469240D01*
X469331Y335189D01*
X469406Y335197D01*
X469473Y335214D01*
X469531Y335239D01*
X469581Y335264D01*
X469623Y335297D01*
X469681Y335364D01*
X469723Y335431D01*
X469739Y335489D01*
X469748Y335531D01*
Y335547D01*
X469739Y335606D01*
X469723Y335656D01*
X469673Y335747D01*
X469648Y335781D01*
X469623Y335806D01*
X469606Y335822D01*
X469598Y335831D01*
X469539Y335889D01*
X469498Y335922D01*
X469481Y335939D01*
Y335947D01*
X469465Y335972D01*
X469456Y336005D01*
Y336072D01*
X469465Y336105D01*
X469473Y336130D01*
X469481Y336139D01*
X469490Y336172D01*
X469506Y336206D01*
X469548Y336305D01*
X469564Y336347D01*
X469573Y336389D01*
X469590Y336414D01*
Y336422D01*
X469664Y336597D01*
X469714Y336764D01*
X469756Y336930D01*
X469781Y337080D01*
X469798Y337213D01*
Y337272D01*
X469806Y337313D01*
Y335181D01*
D01*
D01*
Y340220D01*
D02*
G37*
G36*
X478249Y338813D02*
X471311D01*
D01*
X471660D01*
X471594Y338804D01*
X471535Y338771D01*
X471485Y338729D01*
X471444Y338688D01*
X471411Y338638D01*
X471377Y338596D01*
X471369Y338563D01*
X471360Y338555D01*
X471344Y338546D01*
X471336Y338529D01*
X471327Y338505D01*
Y338496D01*
X471319Y338471D01*
Y338430D01*
X471311Y338363D01*
Y337005D01*
X471319Y336930D01*
X471336Y336863D01*
X471344Y336813D01*
X471360Y336772D01*
X471377Y336747D01*
X471385Y336730D01*
Y336722D01*
X471419Y336680D01*
X471460Y336647D01*
X471502Y336630D01*
X471544Y336614D01*
X471585Y336605D01*
X471610Y336597D01*
X471635D01*
X471644D01*
X471744Y336605D01*
X471810Y336630D01*
X471852Y336647D01*
X471869Y336655D01*
X471894Y336689D01*
X471927Y336722D01*
X471977Y336797D01*
X472002Y336830D01*
X472019Y336863D01*
X472027Y336880D01*
X472035Y336889D01*
X472085Y336972D01*
X472135Y337038D01*
X472202Y337105D01*
X472260Y337155D01*
X472402Y337238D01*
X472535Y337288D01*
X472668Y337322D01*
X472718Y337330D01*
X472768Y337338D01*
X472810Y337347D01*
X472843D01*
X472860D01*
X472868D01*
X476025D01*
X476150D01*
X476275Y337330D01*
X476500Y337288D01*
X476708Y337230D01*
X476883Y337163D01*
X476958Y337122D01*
X477025Y337088D01*
X477083Y337055D01*
X477133Y337030D01*
X477175Y337005D01*
X477200Y336988D01*
X477216Y336980D01*
X477225Y336972D01*
X477275Y336863D01*
X477316Y336739D01*
X477358Y336605D01*
X477383Y336472D01*
X477408Y336355D01*
X477425Y336264D01*
X477433Y336222D01*
X477441Y336197D01*
Y336172D01*
X478249D01*
Y335922D01*
X477450D01*
X477416Y335831D01*
X477391Y335756D01*
X477375Y335697D01*
X477358Y335656D01*
X477341Y335622D01*
X477333Y335606D01*
X477325Y335589D01*
X477283Y335547D01*
X477242Y335506D01*
X477200Y335481D01*
X477183Y335472D01*
X477100Y335439D01*
X477017Y335414D01*
X476975Y335406D01*
X476950Y335397D01*
X476933D01*
X476925D01*
X476858Y335389D01*
X476775D01*
X476683D01*
X476583Y335381D01*
X476500D01*
X476425D01*
X476375D01*
X476367D01*
X476359D01*
X472302D01*
X472252D01*
X472210Y335389D01*
X472152Y335397D01*
X472119Y335406D01*
X472110Y335414D01*
X472093Y335422D01*
X472085Y335431D01*
Y335439D01*
X472077Y335447D01*
X472069Y335472D01*
X472052Y335522D01*
X472035Y335572D01*
X472027Y335589D01*
Y335597D01*
X471985Y335689D01*
X471935Y335756D01*
X471877Y335806D01*
X471810Y335839D01*
X471760Y335856D01*
X471710Y335872D01*
X471677D01*
X471669D01*
X471585Y335864D01*
X471527Y335839D01*
X471485Y335806D01*
X471469Y335797D01*
X471411Y335731D01*
X471369Y335672D01*
X471344Y335622D01*
X471336Y335606D01*
Y335597D01*
X471311Y335397D01*
Y332915D01*
X471327Y332849D01*
X471336Y332790D01*
X471352Y332749D01*
X471369Y332707D01*
X471385Y332682D01*
X471394Y332665D01*
X471402Y332657D01*
X471444Y332615D01*
X471485Y332582D01*
X471527Y332565D01*
X471569Y332549D01*
X471610Y332540D01*
X471644Y332532D01*
X471669D01*
X471760Y332540D01*
X471835Y332574D01*
X471902Y332615D01*
X471944Y332665D01*
X471985Y332707D01*
X472010Y332749D01*
X472019Y332782D01*
X472027Y332790D01*
X472044Y332840D01*
X472060Y332882D01*
X472069Y332907D01*
X472077Y332923D01*
X472085Y332948D01*
Y332965D01*
X472093Y332973D01*
X472102Y332982D01*
X472110D01*
X472135Y332998D01*
X472160Y333007D01*
X472227Y333015D01*
X472277Y333023D01*
X472294D01*
X472302D01*
X476100D01*
X476334Y333032D01*
X476542Y333048D01*
X476717Y333073D01*
X476858Y333107D01*
X476975Y333140D01*
X477058Y333165D01*
X477108Y333182D01*
X477116Y333190D01*
X477125D01*
X477250Y333265D01*
X477366Y333348D01*
X477475Y333440D01*
X477566Y333531D01*
X477641Y333607D01*
X477691Y333682D01*
X477733Y333723D01*
X477741Y333740D01*
X477833Y333890D01*
X477916Y334048D01*
X477983Y334198D01*
X478033Y334339D01*
X478083Y334456D01*
X478108Y334556D01*
X478116Y334589D01*
X478124Y334614D01*
X478133Y334631D01*
Y334639D01*
X478174Y334806D01*
X478199Y334989D01*
X478224Y335164D01*
X478233Y335331D01*
X478241Y335481D01*
X478249Y335547D01*
Y332682D01*
Y338813D01*
D02*
G37*
G36*
X469814Y334739D02*
D01*
Y333273D01*
X469806Y333382D01*
X469790Y333482D01*
X469773Y333565D01*
X469765Y333631D01*
X469748Y333690D01*
X469739Y333723D01*
Y333731D01*
X469706Y333823D01*
X469673Y333906D01*
X469631Y333990D01*
X469590Y334056D01*
X469556Y334115D01*
X469523Y334165D01*
X469506Y334190D01*
X469498Y334198D01*
X469431Y334281D01*
X469356Y334356D01*
X469281Y334415D01*
X469223Y334473D01*
X469165Y334523D01*
X469123Y334556D01*
X469090Y334573D01*
X469081Y334581D01*
X468990Y334631D01*
X468915Y334673D01*
X468840Y334698D01*
X468782Y334723D01*
X468731Y334731D01*
X468698Y334739D01*
X469814D01*
X462867D01*
X468665D01*
X468615Y334731D01*
X468573Y334723D01*
X468498Y334681D01*
X468465Y334656D01*
X468440Y334639D01*
X468432Y334631D01*
X468423Y334623D01*
X468382Y334581D01*
X468348Y334539D01*
X468332Y334498D01*
X468315Y334456D01*
X468307Y334431D01*
X468298Y334406D01*
Y334381D01*
X468307Y334314D01*
X468323Y334265D01*
X468382Y334165D01*
X468415Y334131D01*
X468448Y334106D01*
X468465Y334090D01*
X468473Y334081D01*
X468523Y334040D01*
X468557Y334023D01*
X468573Y334006D01*
Y333998D01*
X468565Y334006D01*
X468548D01*
X468532D01*
X468523D01*
X467515D01*
X467424Y333998D01*
X467332Y333990D01*
X467257Y333965D01*
X467182Y333948D01*
X467124Y333923D01*
X467082Y333898D01*
X467049Y333890D01*
X467040Y333881D01*
X466957Y333831D01*
X466882Y333781D01*
X466807Y333723D01*
X466749Y333665D01*
X466707Y333615D01*
X466674Y333573D01*
X466649Y333540D01*
X466641Y333531D01*
X466541Y333373D01*
X466499Y333298D01*
X466466Y333232D01*
X466441Y333165D01*
X466424Y333115D01*
X466407Y333082D01*
Y333073D01*
X466374Y332973D01*
X466358Y332874D01*
X466341Y332765D01*
X466324Y332674D01*
Y332590D01*
X466316Y332515D01*
Y332457D01*
X466307Y332607D01*
X466283Y332740D01*
X466266Y332857D01*
X466241Y332957D01*
X466216Y333032D01*
X466191Y333090D01*
X466183Y333123D01*
X466174Y333132D01*
X466124Y333223D01*
X466074Y333307D01*
X466016Y333382D01*
X465966Y333448D01*
X465924Y333498D01*
X465891Y333540D01*
X465866Y333565D01*
X465858Y333573D01*
X465766Y333657D01*
X465666Y333731D01*
X465575Y333790D01*
X465475Y333840D01*
X465275Y333923D01*
X465083Y333981D01*
X465000Y333998D01*
X464916Y334015D01*
X464850Y334023D01*
X464783Y334031D01*
X464733Y334040D01*
X464700D01*
X464675D01*
X464667D01*
X464508Y334031D01*
X464350Y334015D01*
X464208Y333973D01*
X464083Y333931D01*
X463958Y333881D01*
X463842Y333823D01*
X463742Y333765D01*
X463650Y333698D01*
X463567Y333631D01*
X463500Y333573D01*
X463442Y333515D01*
X463392Y333465D01*
X463350Y333423D01*
X463325Y333390D01*
X463309Y333365D01*
X463300Y333357D01*
X463184Y333173D01*
X463100Y332998D01*
X463034Y332815D01*
X462976Y332657D01*
X462942Y332507D01*
X462934Y332449D01*
X462925Y332399D01*
X462917Y332357D01*
X462909Y332324D01*
Y332299D01*
X462892Y332149D01*
X462884Y331991D01*
X462876Y331832D01*
Y331691D01*
X462867Y331566D01*
Y331149D01*
X463584D01*
X463625Y331266D01*
X463659Y331366D01*
X463700Y331449D01*
X463733Y331507D01*
X463767Y331549D01*
X463784Y331582D01*
X463800Y331591D01*
X463808Y331599D01*
X463859Y331632D01*
X463925Y331657D01*
X464050Y331691D01*
X464108D01*
X464158Y331699D01*
X464192D01*
X464200D01*
X465491D01*
X465558D01*
X465624Y331691D01*
X465674D01*
X465708Y331682D01*
X465741Y331674D01*
X465766D01*
X465774Y331666D01*
X465783D01*
X465841Y331641D01*
X465883Y331624D01*
X465908Y331616D01*
X465916Y331607D01*
X465949Y331549D01*
X465983Y331474D01*
X466024Y331332D01*
X466041Y331266D01*
X466058Y331207D01*
X466066Y331174D01*
Y331157D01*
X466757D01*
X466774Y331266D01*
X466799Y331349D01*
X466824Y331424D01*
X466857Y331474D01*
X466882Y331516D01*
X466907Y331549D01*
X466916Y331557D01*
X466924Y331566D01*
X467024Y331624D01*
X467115Y331666D01*
X467157Y331674D01*
X467191Y331682D01*
X467207Y331691D01*
X467215D01*
X467240D01*
X467282Y331699D01*
X467332D01*
X467382D01*
X467432D01*
X467474D01*
X467507D01*
X467515D01*
X468332D01*
X468457Y331707D01*
X468582Y331716D01*
X468798Y331757D01*
X468981Y331824D01*
X469140Y331891D01*
X469206Y331924D01*
X469265Y331957D01*
X469315Y331991D01*
X469348Y332024D01*
X469381Y332049D01*
X469406Y332065D01*
X469415Y332082D01*
X469423D01*
X469490Y332157D01*
X469548Y332240D01*
X469648Y332407D01*
X469714Y332590D01*
X469765Y332757D01*
X469790Y332915D01*
X469806Y332982D01*
Y333040D01*
X469814Y333082D01*
Y328125D01*
D01*
Y334739D01*
D02*
G37*
G36*
X478249Y332090D02*
X471186D01*
D01*
X474726D01*
X474409Y332082D01*
X474101Y332049D01*
X473826Y331999D01*
X473560Y331932D01*
X473310Y331857D01*
X473085Y331766D01*
X472885Y331674D01*
X472693Y331582D01*
X472527Y331482D01*
X472385Y331391D01*
X472260Y331307D01*
X472160Y331224D01*
X472077Y331157D01*
X472027Y331107D01*
X471985Y331074D01*
X471977Y331066D01*
X471844Y330916D01*
X471727Y330766D01*
X471635Y330624D01*
X471552Y330499D01*
X471494Y330391D01*
X471444Y330299D01*
X471427Y330266D01*
X471419Y330241D01*
X471411Y330233D01*
Y330224D01*
X471344Y330050D01*
X471294Y329866D01*
X471252Y329683D01*
X471219Y329508D01*
X471202Y329358D01*
X471194Y329292D01*
Y329233D01*
X471186Y329192D01*
Y329125D01*
X471877D01*
X471902Y329192D01*
X471927Y329250D01*
X471952Y329300D01*
X471969Y329333D01*
X471985Y329358D01*
X471994Y329375D01*
X472002Y329392D01*
X472035Y329433D01*
X472077Y329475D01*
X472110Y329491D01*
X472127Y329500D01*
X472177Y329525D01*
X472235Y329550D01*
X472352Y329575D01*
X472410Y329583D01*
X472443D01*
X472477D01*
X472485D01*
X476817D01*
X476950Y329575D01*
X477058Y329566D01*
X477158Y329550D01*
X477233Y329525D01*
X477291Y329500D01*
X477333Y329483D01*
X477358Y329475D01*
X477366Y329467D01*
X477408Y329425D01*
X477441Y329392D01*
X477466Y329366D01*
X477475Y329358D01*
X477491Y329333D01*
X477500Y329300D01*
X477525Y329225D01*
X477533Y329183D01*
X477541Y329158D01*
X477550Y329133D01*
Y329125D01*
X478249D01*
Y328942D01*
X477550D01*
X477525Y328850D01*
X477491Y328767D01*
X477466Y328708D01*
X477441Y328667D01*
X477416Y328633D01*
X477400Y328617D01*
X477383Y328600D01*
X477308Y328567D01*
X477225Y328542D01*
X477033Y328508D01*
X476950Y328500D01*
X476883Y328492D01*
X476833D01*
X476825D01*
X476817D01*
X472485D01*
X472393D01*
X472318Y328508D01*
X472252Y328517D01*
X472193Y328534D01*
X472152Y328550D01*
X472127Y328558D01*
X472110Y328575D01*
X472102D01*
X472060Y328617D01*
X472010Y328667D01*
X471944Y328792D01*
X471919Y328850D01*
X471894Y328900D01*
X471885Y328933D01*
X471877Y328942D01*
X471186D01*
X471202Y328708D01*
X471227Y328492D01*
X471269Y328300D01*
X471311Y328142D01*
X471327Y328075D01*
X471344Y328009D01*
X471360Y327959D01*
X471377Y327917D01*
X471394Y327884D01*
X471402Y327859D01*
X471411Y327842D01*
Y327834D01*
X471485Y327667D01*
X471577Y327517D01*
X471677Y327376D01*
X471769Y327251D01*
X471852Y327142D01*
X471919Y327067D01*
X471960Y327017D01*
X471969Y327009D01*
X471977Y327001D01*
X472168Y326826D01*
X472368Y326668D01*
X472568Y326534D01*
X472760Y326426D01*
X472843Y326384D01*
X472918Y326343D01*
X472993Y326309D01*
X473052Y326284D01*
X473102Y326259D01*
X473135Y326243D01*
X473160Y326234D01*
X473168D01*
X473435Y326151D01*
X473710Y326093D01*
X473968Y326043D01*
X474209Y326018D01*
X474318Y326009D01*
X474418Y326001D01*
X474509Y325993D01*
X474584D01*
X474643Y325985D01*
X474726D01*
X475042Y325993D01*
X475334Y326026D01*
X475617Y326076D01*
X475875Y326134D01*
X476117Y326209D01*
X476334Y326293D01*
X476542Y326376D01*
X476725Y326468D01*
X476883Y326559D01*
X477025Y326643D01*
X477150Y326726D01*
X477242Y326801D01*
X477325Y326859D01*
X477383Y326909D01*
X477416Y326942D01*
X477425Y326951D01*
X477558Y327101D01*
X477666Y327251D01*
X477775Y327417D01*
X477866Y327584D01*
X477941Y327750D01*
X478008Y327917D01*
X478066Y328075D01*
X478108Y328234D01*
X478149Y328375D01*
X478183Y328508D01*
X478208Y328633D01*
X478224Y328733D01*
X478233Y328825D01*
X478241Y328883D01*
X478249Y328925D01*
Y326968D01*
Y332090D01*
D02*
G37*
G36*
X469356Y331574D02*
X469331D01*
X469323D01*
X469273D01*
X469223Y331557D01*
X469140Y331516D01*
X469081Y331457D01*
X469031Y331391D01*
X468998Y331324D01*
X468973Y331266D01*
X468957Y331224D01*
Y331207D01*
X468948Y331166D01*
X468931Y331133D01*
X468923Y331091D01*
X468915Y331074D01*
Y331066D01*
X468906Y331049D01*
X468890Y331024D01*
X468873Y331016D01*
X468865Y331008D01*
X468848Y330999D01*
X468815Y330991D01*
X468748Y330982D01*
X468715Y330974D01*
X468690D01*
X468673D01*
X468665D01*
X462867D01*
Y328508D01*
X462884Y328442D01*
X462892Y328384D01*
X462909Y328342D01*
X462925Y328300D01*
X462942Y328275D01*
X462951Y328259D01*
X462959Y328250D01*
X463000Y328209D01*
X463042Y328175D01*
X463084Y328159D01*
X463126Y328142D01*
X463167Y328134D01*
X463200Y328125D01*
X462867D01*
X463719D01*
X463225D01*
X463317Y328134D01*
X463392Y328167D01*
X463459Y328209D01*
X463500Y328259D01*
X463542Y328300D01*
X463567Y328342D01*
X463575Y328375D01*
X463584Y328384D01*
X463600Y328434D01*
X463617Y328475D01*
X463625Y328500D01*
X463634Y328517D01*
X463642Y328542D01*
Y328558D01*
X463650Y328567D01*
X463659Y328575D01*
X463667D01*
X463692Y328592D01*
X463717Y328600D01*
X463784Y328608D01*
X463834Y328617D01*
X463850D01*
X463859D01*
X468707D01*
X468790Y328608D01*
X468848Y328600D01*
X468882Y328584D01*
X468890Y328575D01*
X468915Y328550D01*
X468923Y328542D01*
X468931Y328534D01*
Y328517D01*
X468957Y328459D01*
X468973Y328409D01*
X468981Y328392D01*
Y328384D01*
X469023Y328300D01*
X469073Y328234D01*
X469131Y328192D01*
X469190Y328159D01*
X469240Y328142D01*
X469290Y328134D01*
X469323Y328125D01*
X469331D01*
X469390Y328134D01*
X469448Y328142D01*
X469531Y328192D01*
X469556Y328209D01*
X469581Y328234D01*
X469590Y328242D01*
X469598Y328250D01*
X469648Y328359D01*
X469673Y328467D01*
Y328508D01*
X469681Y328550D01*
Y331116D01*
X469673Y331191D01*
X469656Y331257D01*
X469648Y331307D01*
X469631Y331341D01*
X469623Y331374D01*
X469615Y331382D01*
Y331391D01*
X469573Y331449D01*
X469523Y331499D01*
X469473Y331532D01*
X469431Y331549D01*
X469390Y331566D01*
X469356Y331574D01*
D02*
G37*
G36*
X471186Y329125D02*
D01*
Y328942D01*
Y325985D01*
Y329125D01*
D02*
G37*
G36*
X464725Y327409D02*
X464700D01*
X464691D01*
X462867D01*
Y325252D01*
X463634D01*
X463667Y325468D01*
X463709Y325660D01*
X463767Y325826D01*
X463825Y325959D01*
X463883Y326060D01*
X463934Y326143D01*
X463958Y326185D01*
X463975Y326201D01*
X464092Y326318D01*
X464217Y326418D01*
X464350Y326509D01*
X464483Y326584D01*
X464600Y326634D01*
X464691Y326676D01*
X464733Y326693D01*
X464758Y326701D01*
X464775Y326709D01*
X464783D01*
X464841Y326734D01*
X464883Y326751D01*
X464958Y326793D01*
X464991Y326826D01*
X465008Y326834D01*
X465041Y326901D01*
X465058Y326968D01*
X465066Y327001D01*
Y327051D01*
X465058Y327117D01*
X465050Y327167D01*
X465033Y327217D01*
X465016Y327251D01*
X465000Y327284D01*
X464991Y327301D01*
X464975Y327317D01*
X464933Y327351D01*
X464891Y327367D01*
X464791Y327401D01*
X464758D01*
X464725Y327409D01*
D02*
G37*
G36*
X467232Y326576D02*
X467191D01*
X467157D01*
X467149D01*
X465300D01*
X465216D01*
X465141Y326568D01*
X465091Y326559D01*
X465041Y326551D01*
X465008Y326543D01*
X464983Y326534D01*
X464966Y326526D01*
X464908Y326493D01*
X464858Y326443D01*
X464825Y326393D01*
X464808Y326343D01*
X464791Y326293D01*
X464783Y326251D01*
Y326160D01*
X464800Y326110D01*
X464833Y326034D01*
X464866Y325985D01*
X464875Y325976D01*
X464883Y325968D01*
X464925Y325943D01*
X464966Y325910D01*
X465066Y325876D01*
X465108Y325860D01*
X465141Y325851D01*
X465166Y325843D01*
X465175D01*
X465266Y325818D01*
X465350Y325793D01*
X465424Y325760D01*
X465475Y325726D01*
X465524Y325701D01*
X465558Y325676D01*
X465575Y325668D01*
X465583Y325660D01*
X465633Y325610D01*
X465691Y325543D01*
X465783Y325401D01*
X465816Y325335D01*
X465849Y325276D01*
X465866Y325243D01*
X465874Y325226D01*
X466582D01*
X466607Y325326D01*
X466649Y325410D01*
X466682Y325485D01*
X466716Y325543D01*
X466757Y325585D01*
X466782Y325618D01*
X466799Y325635D01*
X466807Y325643D01*
X466874Y325693D01*
X466949Y325735D01*
X467099Y325801D01*
X467166Y325818D01*
X467224Y325835D01*
X467257Y325851D01*
X467274D01*
X467340Y325868D01*
X467390Y325885D01*
X467440Y325910D01*
X467482Y325926D01*
X467507Y325951D01*
X467532Y325959D01*
X467540Y325976D01*
X467549D01*
X467582Y326009D01*
X467599Y326051D01*
X467632Y326134D01*
Y326168D01*
X467640Y326201D01*
Y326226D01*
X467632Y326293D01*
X467624Y326351D01*
X467607Y326401D01*
X467582Y326443D01*
X467557Y326468D01*
X467540Y326484D01*
X467532Y326501D01*
X467524D01*
X467474Y326526D01*
X467415Y326543D01*
X467290Y326568D01*
X467232Y326576D01*
D02*
G37*
G36*
X469681Y327476D02*
X467790D01*
X467724Y327459D01*
X467665Y327451D01*
X467615Y327434D01*
X467582Y327417D01*
X467557Y327409D01*
X467540Y327392D01*
X467532D01*
X467490Y327359D01*
X467465Y327317D01*
X467432Y327226D01*
X467424Y327184D01*
X467415Y327151D01*
Y327117D01*
X467432Y327026D01*
X467457Y326951D01*
X467482Y326909D01*
X467499Y326892D01*
X467532Y326868D01*
X467574Y326842D01*
X467657Y326793D01*
X467699Y326776D01*
X467724Y326759D01*
X467749Y326751D01*
X467757D01*
X467865Y326709D01*
X467957Y326668D01*
X468040Y326634D01*
X468107Y326601D01*
X468165Y326568D01*
X468207Y326543D01*
X468232Y326534D01*
X468240Y326526D01*
X468307Y326484D01*
X468365Y326434D01*
X468482Y326334D01*
X468523Y326284D01*
X468557Y326251D01*
X468582Y326226D01*
X468590Y326218D01*
X468698Y326076D01*
X468740Y326009D01*
X468773Y325951D01*
X468807Y325901D01*
X468823Y325860D01*
X468831Y325835D01*
X468840Y325826D01*
X468865Y325743D01*
X468890Y325660D01*
X468915Y325560D01*
X468940Y325468D01*
X468957Y325385D01*
X468973Y325318D01*
X468981Y325268D01*
Y325252D01*
X469681D01*
Y325168D01*
Y327476D01*
D02*
G37*
G36*
X478258Y325710D02*
X471311D01*
D01*
X477108D01*
X477058Y325701D01*
X477017Y325693D01*
X476942Y325651D01*
X476908Y325626D01*
X476883Y325610D01*
X476875Y325601D01*
X476867Y325593D01*
X476825Y325551D01*
X476792Y325510D01*
X476775Y325468D01*
X476758Y325426D01*
X476750Y325401D01*
X476742Y325377D01*
Y325352D01*
X476750Y325285D01*
X476767Y325235D01*
X476825Y325135D01*
X476858Y325102D01*
X476892Y325077D01*
X476908Y325060D01*
X476917Y325052D01*
X476967Y325010D01*
X477000Y324993D01*
X477017Y324977D01*
Y324968D01*
X477008Y324977D01*
X476992D01*
X476975D01*
X476967D01*
X475959D01*
X475867Y324968D01*
X475775Y324960D01*
X475700Y324935D01*
X475626Y324918D01*
X475567Y324893D01*
X475526Y324868D01*
X475492Y324860D01*
X475484Y324852D01*
X475400Y324802D01*
X475326Y324752D01*
X475251Y324693D01*
X475192Y324635D01*
X475151Y324585D01*
X475117Y324543D01*
X475092Y324510D01*
X475084Y324502D01*
X474984Y324343D01*
X474942Y324269D01*
X474909Y324202D01*
X474884Y324135D01*
X474867Y324085D01*
X474851Y324052D01*
Y324044D01*
X474817Y323944D01*
X474801Y323844D01*
X474784Y323735D01*
X474767Y323644D01*
Y323561D01*
X474759Y323485D01*
Y323427D01*
X474751Y323577D01*
X474726Y323710D01*
X474709Y323827D01*
X474684Y323927D01*
X474659Y324002D01*
X474634Y324060D01*
X474626Y324094D01*
X474617Y324102D01*
X474568Y324194D01*
X474518Y324277D01*
X474459Y324352D01*
X474409Y324418D01*
X474368Y324468D01*
X474334Y324510D01*
X474309Y324535D01*
X474301Y324543D01*
X474209Y324627D01*
X474109Y324702D01*
X474018Y324760D01*
X473918Y324810D01*
X473718Y324893D01*
X473526Y324952D01*
X473443Y324968D01*
X473360Y324985D01*
X473293Y324993D01*
X473226Y325002D01*
X473176Y325010D01*
X473143D01*
X473118D01*
X473110D01*
X472952Y325002D01*
X472793Y324985D01*
X472652Y324943D01*
X472527Y324902D01*
X472402Y324852D01*
X472285Y324793D01*
X472185Y324735D01*
X472093Y324668D01*
X472010Y324602D01*
X471944Y324543D01*
X471885Y324485D01*
X471835Y324435D01*
X471794Y324394D01*
X471769Y324360D01*
X471752Y324335D01*
X471744Y324327D01*
X471627Y324144D01*
X471544Y323969D01*
X471477Y323785D01*
X471419Y323627D01*
X471385Y323477D01*
X471377Y323419D01*
X471369Y323369D01*
X471360Y323327D01*
X471352Y323294D01*
Y323269D01*
X471336Y323119D01*
X471327Y322961D01*
X471319Y322802D01*
Y322661D01*
X471311Y322536D01*
Y322119D01*
X472027D01*
X472069Y322236D01*
X472102Y322336D01*
X472144Y322419D01*
X472177Y322478D01*
X472210Y322519D01*
X472227Y322553D01*
X472243Y322561D01*
X472252Y322569D01*
X472302Y322603D01*
X472368Y322628D01*
X472493Y322661D01*
X472552D01*
X472602Y322669D01*
X472635D01*
X472643D01*
X473935D01*
X474001D01*
X474068Y322661D01*
X474118D01*
X474151Y322653D01*
X474184Y322644D01*
X474209D01*
X474218Y322636D01*
X474226D01*
X474284Y322611D01*
X474326Y322594D01*
X474351Y322586D01*
X474359Y322578D01*
X474393Y322519D01*
X474426Y322444D01*
X474468Y322303D01*
X474484Y322236D01*
X474501Y322178D01*
X474509Y322144D01*
Y322128D01*
X475201D01*
X475217Y322236D01*
X475242Y322319D01*
X475267Y322394D01*
X475301Y322444D01*
X475326Y322486D01*
X475351Y322519D01*
X475359Y322528D01*
X475367Y322536D01*
X475467Y322594D01*
X475559Y322636D01*
X475600Y322644D01*
X475634Y322653D01*
X475650Y322661D01*
X475659D01*
X475684D01*
X475725Y322669D01*
X475775D01*
X475825D01*
X475875D01*
X475917D01*
X475950D01*
X475959D01*
X476775D01*
X476900Y322677D01*
X477025Y322686D01*
X477242Y322727D01*
X477425Y322794D01*
X477583Y322861D01*
X477650Y322894D01*
X477708Y322927D01*
X477758Y322961D01*
X477791Y322994D01*
X477825Y323019D01*
X477850Y323036D01*
X477858Y323052D01*
X477866D01*
X477933Y323127D01*
X477991Y323211D01*
X478091Y323377D01*
X478158Y323561D01*
X478208Y323727D01*
X478233Y323885D01*
X478249Y323952D01*
Y324010D01*
X478258Y324052D01*
Y319096D01*
D01*
Y325710D01*
D02*
G37*
G36*
X469681Y325027D02*
X462867D01*
Y322561D01*
X462884Y322494D01*
X462892Y322436D01*
X462909Y322394D01*
X462925Y322353D01*
X462942Y322328D01*
X462951Y322311D01*
X462959Y322303D01*
X463000Y322261D01*
X463042Y322228D01*
X463084Y322211D01*
X463126Y322194D01*
X463167Y322186D01*
X463200Y322178D01*
X462867D01*
X466274D01*
X463225D01*
X463317Y322186D01*
X463392Y322219D01*
X463459Y322261D01*
X463500Y322311D01*
X463542Y322353D01*
X463567Y322394D01*
X463575Y322428D01*
X463584Y322436D01*
X463600Y322486D01*
X463617Y322528D01*
X463625Y322553D01*
X463634Y322569D01*
X463642Y322594D01*
Y322611D01*
X463650Y322619D01*
X463659Y322628D01*
X463667D01*
X463692Y322644D01*
X463717Y322653D01*
X463784Y322661D01*
X463834Y322669D01*
X463850D01*
X463859D01*
X468707D01*
X468790Y322661D01*
X468848Y322653D01*
X468882Y322636D01*
X468890Y322628D01*
X468915Y322603D01*
X468923Y322594D01*
X468931Y322586D01*
Y322569D01*
X468957Y322511D01*
X468973Y322461D01*
X468981Y322444D01*
Y322436D01*
X469023Y322353D01*
X469073Y322286D01*
X469131Y322244D01*
X469190Y322211D01*
X469240Y322194D01*
X469290Y322186D01*
X469323Y322178D01*
X469331D01*
X469390Y322186D01*
X469448Y322194D01*
X469531Y322244D01*
X469556Y322261D01*
X469581Y322286D01*
X469590Y322294D01*
X469598Y322303D01*
X469648Y322411D01*
X469673Y322519D01*
Y322561D01*
X469681Y322603D01*
Y325027D01*
D02*
G37*
G36*
X463242Y321795D02*
X463225D01*
X463159Y321786D01*
X463100Y321770D01*
X463051Y321736D01*
X463009Y321711D01*
X462976Y321678D01*
X462951Y321645D01*
X462942Y321628D01*
X462934Y321620D01*
X462909Y321578D01*
X462892Y321528D01*
X462876Y321411D01*
X462867Y321353D01*
Y320004D01*
X462884Y319937D01*
X462900Y319870D01*
X462917Y319820D01*
X462934Y319779D01*
X462951Y319745D01*
X462959Y319729D01*
X462967Y319720D01*
X463009Y319679D01*
X463051Y319645D01*
X463092Y319620D01*
X463142Y319604D01*
X463175Y319595D01*
X463209Y319587D01*
X463234D01*
X463242D01*
X463334Y319595D01*
X463400Y319620D01*
X463467Y319662D01*
X463509Y319704D01*
X463542Y319745D01*
X463567Y319787D01*
X463575Y319812D01*
X463584Y319820D01*
X463634Y319970D01*
X463684Y320070D01*
X463742Y320137D01*
X463792Y320179D01*
X463808Y320187D01*
X463817D01*
X463892Y320212D01*
X463950Y320229D01*
X463983D01*
X464000D01*
X464017Y320220D01*
X464050D01*
X464125Y320195D01*
X464158Y320187D01*
X464192Y320179D01*
X464217Y320170D01*
X464225D01*
X466291Y319604D01*
X467299Y319970D01*
X464458Y320828D01*
X464342Y320862D01*
X464233Y320903D01*
X464142Y320937D01*
X464067Y320978D01*
X464008Y321003D01*
X463967Y321028D01*
X463942Y321045D01*
X463934Y321053D01*
X463867Y321103D01*
X463808Y321153D01*
X463767Y321195D01*
X463725Y321236D01*
X463700Y321261D01*
X463684Y321286D01*
X463675Y321303D01*
Y321311D01*
X463567Y321520D01*
X463542Y321578D01*
X463517Y321628D01*
X463492Y321661D01*
X463467Y321695D01*
X463434Y321728D01*
X463425Y321736D01*
X463359Y321770D01*
X463292Y321786D01*
X463242Y321795D01*
D02*
G37*
G36*
X477800Y322544D02*
X477775D01*
X477766D01*
X477716D01*
X477666Y322528D01*
X477583Y322486D01*
X477525Y322428D01*
X477475Y322361D01*
X477441Y322294D01*
X477416Y322236D01*
X477400Y322194D01*
Y322178D01*
X477391Y322136D01*
X477375Y322103D01*
X477366Y322061D01*
X477358Y322044D01*
Y322036D01*
X477350Y322020D01*
X477333Y321994D01*
X477316Y321986D01*
X477308Y321978D01*
X477291Y321970D01*
X477258Y321961D01*
X477191Y321953D01*
X477158Y321944D01*
X477133D01*
X477116D01*
X477108D01*
X471311D01*
Y319479D01*
X471327Y319412D01*
X471336Y319354D01*
X471352Y319312D01*
X471369Y319271D01*
X471385Y319246D01*
X471394Y319229D01*
X471402Y319221D01*
X471444Y319179D01*
X471485Y319146D01*
X471527Y319129D01*
X471569Y319112D01*
X471610Y319104D01*
X471644Y319096D01*
X471669D01*
X471760Y319104D01*
X471835Y319137D01*
X471902Y319179D01*
X471944Y319229D01*
X471985Y319271D01*
X472010Y319312D01*
X472019Y319345D01*
X472027Y319354D01*
X472044Y319404D01*
X472060Y319445D01*
X472069Y319471D01*
X472077Y319487D01*
X472085Y319512D01*
Y319529D01*
X472093Y319537D01*
X472102Y319545D01*
X472110D01*
X472135Y319562D01*
X472160Y319570D01*
X472227Y319579D01*
X472277Y319587D01*
X472294D01*
X472302D01*
X477150D01*
X477233Y319579D01*
X477291Y319570D01*
X477325Y319554D01*
X477333Y319545D01*
X477358Y319520D01*
X477366Y319512D01*
X477375Y319504D01*
Y319487D01*
X477400Y319429D01*
X477416Y319379D01*
X477425Y319362D01*
Y319354D01*
X477466Y319271D01*
X477516Y319204D01*
X477575Y319162D01*
X477633Y319129D01*
X477683Y319112D01*
X477733Y319104D01*
X477766Y319096D01*
X477775D01*
X477833Y319104D01*
X477891Y319112D01*
X477975Y319162D01*
X477999Y319179D01*
X478024Y319204D01*
X478033Y319212D01*
X478041Y319221D01*
X478091Y319329D01*
X478116Y319437D01*
Y319479D01*
X478124Y319520D01*
Y322086D01*
X478116Y322161D01*
X478099Y322228D01*
X478091Y322278D01*
X478075Y322311D01*
X478066Y322344D01*
X478058Y322353D01*
Y322361D01*
X478016Y322419D01*
X477966Y322469D01*
X477916Y322503D01*
X477875Y322519D01*
X477833Y322536D01*
X477800Y322544D01*
D02*
G37*
G36*
X467890Y319887D02*
X463942Y318762D01*
X463892Y318754D01*
X463850D01*
X463817D01*
X463808D01*
X463750Y318762D01*
X463709Y318771D01*
X463684Y318779D01*
X463675D01*
X463642Y318812D01*
X463617Y318862D01*
X463592Y318896D01*
X463584Y318912D01*
X463542Y318987D01*
X463484Y319046D01*
X463425Y319087D01*
X463367Y319121D01*
X463317Y319137D01*
X463275Y319146D01*
X463242D01*
X463234D01*
X463175Y319137D01*
X463126Y319121D01*
X463092Y319104D01*
X463075Y319096D01*
X463017Y319062D01*
X462976Y319021D01*
X462942Y318987D01*
X462934Y318971D01*
X462909Y318921D01*
X462892Y318871D01*
X462884Y318829D01*
Y318812D01*
X462876Y318771D01*
Y318729D01*
X462867Y318629D01*
Y316263D01*
X462884Y316189D01*
X462892Y316122D01*
X462909Y316063D01*
X462925Y316022D01*
X462934Y315997D01*
X462951Y315980D01*
Y315972D01*
X462992Y315914D01*
X463042Y315872D01*
X463092Y315839D01*
X463142Y315822D01*
X463192Y315805D01*
X463225Y315797D01*
X462867D01*
X469681D01*
X463259D01*
X463359Y315805D01*
X463425Y315830D01*
X463467Y315855D01*
X463484Y315864D01*
X463509Y315897D01*
X463534Y315930D01*
X463584Y316005D01*
X463600Y316038D01*
X463617Y316072D01*
X463625Y316089D01*
Y316097D01*
X463650Y316130D01*
X463667Y316155D01*
X463675Y316172D01*
X463684D01*
X463700Y316180D01*
X463717Y316189D01*
X463767Y316205D01*
X463808Y316222D01*
X463817Y316230D01*
X463825D01*
X469681Y317971D01*
Y319404D01*
X467890Y319887D01*
D02*
G37*
G36*
X473510Y318213D02*
X473501D01*
X473493D01*
X471610D01*
X471535D01*
X471469Y318196D01*
X471419Y318188D01*
X471377Y318171D01*
X471336Y318154D01*
X471311Y318146D01*
X471302Y318129D01*
X471294D01*
X471252Y318096D01*
X471227Y318054D01*
X471194Y317963D01*
X471186Y317921D01*
X471177Y317888D01*
Y317921D01*
Y317888D01*
D01*
Y317854D01*
X471186Y317788D01*
X471210Y317729D01*
X471252Y317671D01*
X471294Y317630D01*
X471336Y317588D01*
X471377Y317563D01*
X471402Y317546D01*
X471411Y317538D01*
X471469Y317480D01*
X471502Y317438D01*
X471519Y317421D01*
X471527Y317413D01*
X471544Y317371D01*
Y317346D01*
X471535Y317296D01*
X471519Y317246D01*
X471510Y317213D01*
X471502Y317205D01*
Y317196D01*
X471460Y317088D01*
X471419Y316971D01*
X471352Y316730D01*
X471302Y316488D01*
X471252Y316247D01*
X471236Y316139D01*
X471227Y316038D01*
X471210Y315955D01*
X471202Y315872D01*
X471194Y315814D01*
X471186Y315764D01*
Y315722D01*
X471910D01*
X471919Y315872D01*
X471935Y316005D01*
X471960Y316122D01*
X471977Y316222D01*
X472002Y316288D01*
X472019Y316347D01*
X472027Y316380D01*
X472035Y316388D01*
X472085Y316480D01*
X472135Y316563D01*
X472202Y316638D01*
X472260Y316713D01*
X472310Y316772D01*
X472360Y316822D01*
X472393Y316855D01*
X472402Y316863D01*
X472477Y316905D01*
X472560Y316955D01*
X472727Y317046D01*
X472810Y317088D01*
X472868Y317121D01*
X472910Y317146D01*
X472927Y317155D01*
X473052Y317221D01*
X473168Y317271D01*
X473268Y317313D01*
X473360Y317346D01*
X473435Y317371D01*
X473485Y317388D01*
X473526Y317405D01*
X473535D01*
X473618Y317430D01*
X473685Y317455D01*
X473743Y317480D01*
X473784Y317505D01*
X473826Y317521D01*
X473851Y317538D01*
X473860Y317555D01*
X473868D01*
X473901Y317596D01*
X473918Y317638D01*
X473951Y317729D01*
Y317763D01*
X473959Y317796D01*
Y317829D01*
X473951Y317896D01*
X473943Y317954D01*
X473884Y318054D01*
X473809Y318121D01*
X473726Y318163D01*
X473643Y318196D01*
X473568Y318204D01*
X473510Y318213D01*
D02*
G37*
G36*
X478249Y318438D02*
X471177D01*
D01*
X474951D01*
X474884Y318429D01*
X474826Y318421D01*
X474776Y318396D01*
X474734Y318371D01*
X474701Y318346D01*
X474684Y318329D01*
X474668Y318313D01*
Y318304D01*
X474634Y318254D01*
X474617Y318196D01*
X474584Y318071D01*
Y318013D01*
X474576Y317971D01*
Y315914D01*
X474592Y315830D01*
X474601Y315764D01*
X474617Y315714D01*
X474634Y315664D01*
X474651Y315630D01*
X474659Y315614D01*
X474668Y315605D01*
X474709Y315555D01*
X474751Y315522D01*
X474792Y315497D01*
X474842Y315480D01*
X474876Y315472D01*
X474909Y315464D01*
X474934D01*
X474942D01*
X475042Y315472D01*
X475126Y315505D01*
X475184Y315555D01*
X475234Y315605D01*
X475267Y315655D01*
X475292Y315705D01*
X475309Y315739D01*
Y315747D01*
X475326Y315814D01*
X475334Y315872D01*
X475342Y315914D01*
X475351Y315939D01*
Y315955D01*
X475359Y315964D01*
Y315972D01*
X475376Y315997D01*
X475384Y316005D01*
X475392D01*
X475417Y316022D01*
X475451Y316038D01*
X475517Y316055D01*
X475551Y316063D01*
X475575D01*
X475592D01*
X475600D01*
X477008D01*
X477083D01*
X477150Y316055D01*
X477208Y316038D01*
X477258Y316030D01*
X477300Y316014D01*
X477325Y315997D01*
X477341Y315988D01*
X477350D01*
X477391Y315964D01*
X477425Y315930D01*
X477441Y315905D01*
X477450Y315897D01*
X477466Y315872D01*
X477475Y315839D01*
X477500Y315755D01*
X477516Y315714D01*
X477525Y315680D01*
X477533Y315655D01*
Y315647D01*
X478249D01*
Y315447D01*
X477550D01*
X477516Y315372D01*
X477483Y315305D01*
X477458Y315264D01*
X477441Y315230D01*
X477425Y315206D01*
X477416Y315189D01*
X477408Y315180D01*
X477275Y315139D01*
X477150Y315122D01*
X477092Y315114D01*
X477050D01*
X477017D01*
X477008D01*
X472502D01*
X472410Y315122D01*
X472335Y315130D01*
X472260Y315156D01*
X472193Y315180D01*
X472093Y315247D01*
X472010Y315331D01*
X471960Y315405D01*
X471927Y315472D01*
X471910Y315522D01*
X471902Y315530D01*
Y315539D01*
X471186D01*
Y315405D01*
X471194Y315289D01*
X471202Y315189D01*
X471210Y315106D01*
X471219Y315039D01*
X471227Y314997D01*
X471236Y314964D01*
Y314956D01*
X471285Y314781D01*
X471344Y314614D01*
X471411Y314464D01*
X471477Y314339D01*
X471535Y314231D01*
X471585Y314148D01*
X471610Y314114D01*
X471619Y314089D01*
X471635Y314081D01*
Y314073D01*
X471727Y313939D01*
X471827Y313823D01*
X472035Y313598D01*
X472252Y313415D01*
X472352Y313331D01*
X472452Y313256D01*
X472552Y313198D01*
X472643Y313140D01*
X472718Y313090D01*
X472793Y313048D01*
X472843Y313023D01*
X472893Y312998D01*
X472918Y312990D01*
X472927Y312981D01*
X473085Y312915D01*
X473243Y312857D01*
X473560Y312765D01*
X473876Y312698D01*
X474026Y312673D01*
X474168Y312656D01*
X474301Y312640D01*
X474426Y312623D01*
X474534Y312615D01*
X474626D01*
X474701Y312607D01*
X474801D01*
X475001Y312615D01*
X475201Y312632D01*
X475384Y312648D01*
X475567Y312682D01*
X475734Y312715D01*
X475900Y312756D01*
X476050Y312807D01*
X476184Y312848D01*
X476308Y312890D01*
X476417Y312940D01*
X476517Y312981D01*
X476600Y313015D01*
X476667Y313048D01*
X476708Y313073D01*
X476742Y313081D01*
X476750Y313090D01*
X476917Y313173D01*
X477075Y313273D01*
X477216Y313381D01*
X477341Y313481D01*
X477441Y313581D01*
X477516Y313656D01*
X477566Y313706D01*
X477575Y313714D01*
X477583Y313723D01*
X477708Y313889D01*
X477825Y314056D01*
X477916Y314214D01*
X477991Y314364D01*
X478050Y314489D01*
X478075Y314547D01*
X478091Y314589D01*
X478108Y314631D01*
X478116Y314656D01*
X478124Y314672D01*
Y314681D01*
X478149Y314756D01*
X478174Y314831D01*
X478191Y314889D01*
X478199Y314939D01*
X478216Y314981D01*
Y315006D01*
X478224Y315022D01*
Y315031D01*
X478233Y315089D01*
X478241Y315156D01*
X478249Y315289D01*
Y312607D01*
D01*
Y318438D01*
D02*
G37*
G36*
X464725Y315347D02*
X464700D01*
X464691D01*
X462867D01*
Y313190D01*
X463634D01*
X463667Y313406D01*
X463709Y313598D01*
X463767Y313764D01*
X463825Y313898D01*
X463883Y313998D01*
X463934Y314081D01*
X463958Y314123D01*
X463975Y314139D01*
X464092Y314256D01*
X464217Y314356D01*
X464350Y314447D01*
X464483Y314523D01*
X464600Y314572D01*
X464691Y314614D01*
X464733Y314631D01*
X464758Y314639D01*
X464775Y314647D01*
X464783D01*
X464841Y314672D01*
X464883Y314689D01*
X464958Y314731D01*
X464991Y314764D01*
X465008Y314772D01*
X465041Y314839D01*
X465058Y314906D01*
X465066Y314939D01*
Y314989D01*
X465058Y315056D01*
X465050Y315106D01*
X465033Y315156D01*
X465016Y315189D01*
X465000Y315222D01*
X464991Y315239D01*
X464975Y315255D01*
X464933Y315289D01*
X464891Y315305D01*
X464791Y315339D01*
X464758D01*
X464725Y315347D01*
D02*
G37*
G36*
X467232Y314514D02*
X467191D01*
X467157D01*
X467149D01*
X465300D01*
X465216D01*
X465141Y314506D01*
X465091Y314497D01*
X465041Y314489D01*
X465008Y314481D01*
X464983Y314473D01*
X464966Y314464D01*
X464908Y314431D01*
X464858Y314381D01*
X464825Y314331D01*
X464808Y314281D01*
X464791Y314231D01*
X464783Y314189D01*
Y314098D01*
X464800Y314048D01*
X464833Y313973D01*
X464866Y313923D01*
X464875Y313914D01*
X464883Y313906D01*
X464925Y313881D01*
X464966Y313848D01*
X465066Y313814D01*
X465108Y313798D01*
X465141Y313789D01*
X465166Y313781D01*
X465175D01*
X465266Y313756D01*
X465350Y313731D01*
X465424Y313698D01*
X465475Y313665D01*
X465524Y313639D01*
X465558Y313615D01*
X465575Y313606D01*
X465583Y313598D01*
X465633Y313548D01*
X465691Y313481D01*
X465783Y313340D01*
X465816Y313273D01*
X465849Y313215D01*
X465866Y313181D01*
X465874Y313165D01*
X466582D01*
X466607Y313265D01*
X466649Y313348D01*
X466682Y313423D01*
X466716Y313481D01*
X466757Y313523D01*
X466782Y313556D01*
X466799Y313573D01*
X466807Y313581D01*
X466874Y313631D01*
X466949Y313673D01*
X467099Y313739D01*
X467166Y313756D01*
X467224Y313773D01*
X467257Y313789D01*
X467274D01*
X467340Y313806D01*
X467390Y313823D01*
X467440Y313848D01*
X467482Y313864D01*
X467507Y313889D01*
X467532Y313898D01*
X467540Y313914D01*
X467549D01*
X467582Y313948D01*
X467599Y313989D01*
X467632Y314073D01*
Y314106D01*
X467640Y314139D01*
Y314164D01*
X467632Y314231D01*
X467624Y314289D01*
X467607Y314339D01*
X467582Y314381D01*
X467557Y314406D01*
X467540Y314422D01*
X467532Y314439D01*
X467524D01*
X467474Y314464D01*
X467415Y314481D01*
X467290Y314506D01*
X467232Y314514D01*
D02*
G37*
G36*
X469681Y315414D02*
X467790D01*
X467724Y315397D01*
X467665Y315389D01*
X467615Y315372D01*
X467582Y315355D01*
X467557Y315347D01*
X467540Y315331D01*
X467532D01*
X467490Y315297D01*
X467465Y315255D01*
X467432Y315164D01*
X467424Y315122D01*
X467415Y315089D01*
Y315056D01*
X467432Y314964D01*
X467457Y314889D01*
X467482Y314847D01*
X467499Y314831D01*
X467532Y314806D01*
X467574Y314781D01*
X467657Y314731D01*
X467699Y314714D01*
X467724Y314697D01*
X467749Y314689D01*
X467757D01*
X467865Y314647D01*
X467957Y314606D01*
X468040Y314572D01*
X468107Y314539D01*
X468165Y314506D01*
X468207Y314481D01*
X468232Y314473D01*
X468240Y314464D01*
X468307Y314422D01*
X468365Y314372D01*
X468482Y314273D01*
X468523Y314223D01*
X468557Y314189D01*
X468582Y314164D01*
X468590Y314156D01*
X468698Y314014D01*
X468740Y313948D01*
X468773Y313889D01*
X468807Y313839D01*
X468823Y313798D01*
X468831Y313773D01*
X468840Y313764D01*
X468865Y313681D01*
X468890Y313598D01*
X468915Y313498D01*
X468940Y313406D01*
X468957Y313323D01*
X468973Y313256D01*
X468981Y313206D01*
Y313190D01*
X469681D01*
Y312965D01*
X462867D01*
Y310499D01*
X462884Y310432D01*
X462892Y310374D01*
X462909Y310332D01*
X462925Y310291D01*
X462942Y310266D01*
X462951Y310249D01*
X462959Y310241D01*
X463000Y310199D01*
X463042Y310166D01*
X463084Y310149D01*
X463126Y310133D01*
X463167Y310124D01*
X463200Y310116D01*
X462867D01*
X466274D01*
X463225D01*
X463317Y310124D01*
X463392Y310157D01*
X463459Y310199D01*
X463500Y310249D01*
X463542Y310291D01*
X463567Y310332D01*
X463575Y310366D01*
X463584Y310374D01*
X463600Y310424D01*
X463617Y310466D01*
X463625Y310491D01*
X463634Y310507D01*
X463642Y310532D01*
Y310549D01*
X463650Y310557D01*
X463659Y310566D01*
X463667D01*
X463692Y310582D01*
X463717Y310591D01*
X463784Y310599D01*
X463834Y310607D01*
X463850D01*
X463859D01*
X468707D01*
X468790Y310599D01*
X468848Y310591D01*
X468882Y310574D01*
X468890Y310566D01*
X468915Y310541D01*
X468923Y310532D01*
X468931Y310524D01*
Y310507D01*
X468957Y310449D01*
X468973Y310399D01*
X468981Y310383D01*
Y310374D01*
X469023Y310291D01*
X469073Y310224D01*
X469131Y310182D01*
X469190Y310149D01*
X469240Y310133D01*
X469290Y310124D01*
X469323Y310116D01*
X469331D01*
X469390Y310124D01*
X469448Y310133D01*
X469531Y310182D01*
X469556Y310199D01*
X469581Y310224D01*
X469590Y310232D01*
X469598Y310241D01*
X469648Y310349D01*
X469673Y310457D01*
Y310499D01*
X469681Y310541D01*
Y310116D01*
D01*
Y315414D01*
D02*
G37*
G36*
X464908Y309208D02*
X464891D01*
X464883D01*
X463284D01*
X463200D01*
X463126Y309191D01*
X463067Y309183D01*
X463009Y309166D01*
X462976Y309150D01*
X462942Y309133D01*
X462925Y309125D01*
X462917Y309116D01*
X462876Y309083D01*
X462842Y309041D01*
X462817Y308991D01*
X462801Y308950D01*
X462792Y308908D01*
X462784Y308875D01*
Y308841D01*
X462792Y308783D01*
X462809Y308733D01*
X462867Y308642D01*
X462900Y308608D01*
X462925Y308592D01*
X462942Y308575D01*
X462951Y308566D01*
X463059Y308483D01*
X463084Y308458D01*
X463092Y308442D01*
X463100Y308425D01*
Y308417D01*
X463092Y308383D01*
X463084Y308342D01*
X463075Y308308D01*
Y308292D01*
X463017Y308150D01*
X462967Y308033D01*
X462934Y307925D01*
X462900Y307834D01*
X462876Y307767D01*
X462859Y307717D01*
X462851Y307683D01*
Y307675D01*
X462826Y307584D01*
X462809Y307484D01*
X462792Y307384D01*
X462784Y307284D01*
X462776Y307192D01*
X462767Y307117D01*
Y307050D01*
X463475D01*
X463534Y307250D01*
X463592Y307425D01*
X463650Y307575D01*
X463709Y307700D01*
X463759Y307800D01*
X463800Y307867D01*
X463825Y307908D01*
X463834Y307925D01*
X463958Y307992D01*
X464067Y308058D01*
X464167Y308108D01*
X464250Y308150D01*
X464325Y308183D01*
X464375Y308208D01*
X464408Y308225D01*
X464417Y308233D01*
X464592Y308317D01*
X464675Y308350D01*
X464742Y308375D01*
X464808Y308392D01*
X464850Y308408D01*
X464883Y308417D01*
X464891D01*
X464983Y308433D01*
X465041Y308458D01*
X465083Y308467D01*
X465100Y308475D01*
X465150Y308508D01*
X465183Y308541D01*
X465216Y308566D01*
X465225Y308575D01*
X465266Y308650D01*
X465291Y308733D01*
Y308758D01*
X465300Y308783D01*
Y308808D01*
X465291Y308875D01*
X465283Y308925D01*
X465241Y309016D01*
X465216Y309050D01*
X465200Y309075D01*
X465191Y309083D01*
X465183Y309091D01*
X465133Y309133D01*
X465083Y309158D01*
X464983Y309191D01*
X464941Y309200D01*
X464908Y309208D01*
D02*
G37*
G36*
X462742Y309441D02*
Y306809D01*
Y306875D01*
Y309441D01*
D02*
G37*
G36*
X469806D02*
Y306784D01*
X469798Y306934D01*
X469790Y307075D01*
X469773Y307209D01*
X469756Y307317D01*
X469739Y307417D01*
X469731Y307492D01*
X469714Y307534D01*
Y307550D01*
X469681Y307683D01*
X469639Y307808D01*
X469598Y307925D01*
X469564Y308025D01*
X469531Y308100D01*
X469498Y308167D01*
X469481Y308200D01*
X469473Y308217D01*
X469348Y308417D01*
X469206Y308592D01*
X469065Y308750D01*
X468931Y308875D01*
X468807Y308975D01*
X468715Y309050D01*
X468673Y309075D01*
X468648Y309091D01*
X468632Y309108D01*
X468623D01*
X468415Y309216D01*
X468207Y309299D01*
X467999Y309358D01*
X467815Y309400D01*
X467732Y309416D01*
X467657Y309424D01*
X467590Y309433D01*
X467532D01*
X467490Y309441D01*
X467424D01*
D01*
D01*
D01*
X462742D01*
X467424D01*
X467266Y309433D01*
X467107Y309408D01*
X466957Y309374D01*
X466816Y309333D01*
X466682Y309283D01*
X466557Y309225D01*
X466441Y309158D01*
X466332Y309100D01*
X466241Y309033D01*
X466149Y308966D01*
X466074Y308908D01*
X466016Y308858D01*
X465966Y308816D01*
X465933Y308783D01*
X465908Y308758D01*
X465899Y308750D01*
X465824Y308692D01*
X465758Y308633D01*
X465691Y308566D01*
X465641Y308508D01*
X465599Y308450D01*
X465566Y308408D01*
X465550Y308375D01*
X465541Y308367D01*
X465483Y308267D01*
X465416Y308158D01*
X465358Y308042D01*
X465300Y307925D01*
X465258Y307825D01*
X465216Y307742D01*
X465200Y307709D01*
X465191Y307683D01*
X465183Y307675D01*
Y307667D01*
X465125Y307542D01*
X465075Y307425D01*
X465033Y307325D01*
X464983Y307234D01*
X464950Y307150D01*
X464916Y307075D01*
X464883Y307009D01*
X464858Y306950D01*
X464808Y306859D01*
X464783Y306801D01*
X464767Y306767D01*
X464758Y306759D01*
X464700Y306667D01*
X464650Y306584D01*
X464592Y306517D01*
X464550Y306459D01*
X464508Y306417D01*
X464475Y306392D01*
X464458Y306376D01*
X464450Y306367D01*
X464392Y306334D01*
X464325Y306309D01*
X464200Y306276D01*
X464150Y306267D01*
X464108Y306259D01*
X464083D01*
X464075D01*
X464000Y306267D01*
X463925Y306284D01*
X463867Y306301D01*
X463817Y306326D01*
X463775Y306351D01*
X463742Y306376D01*
X463725Y306384D01*
X463717Y306392D01*
X463667Y306451D01*
X463617Y306526D01*
X463542Y306684D01*
X463509Y306759D01*
X463492Y306817D01*
X463475Y306859D01*
Y306875D01*
X462742D01*
X462751Y306692D01*
X462776Y306526D01*
X462801Y306367D01*
X462834Y306218D01*
X462867Y306076D01*
X462909Y305943D01*
X462942Y305826D01*
X462984Y305718D01*
X463026Y305626D01*
X463067Y305543D01*
X463100Y305468D01*
X463134Y305409D01*
X463159Y305360D01*
X463184Y305326D01*
X463192Y305310D01*
X463200Y305301D01*
X463317Y305151D01*
X463450Y305018D01*
X463584Y304901D01*
X463709Y304810D01*
X463817Y304735D01*
X463908Y304676D01*
X463942Y304660D01*
X463967Y304643D01*
X463983Y304635D01*
X463992D01*
X464175Y304560D01*
X464358Y304502D01*
X464542Y304460D01*
X464708Y304435D01*
X464850Y304418D01*
X464908Y304410D01*
X464958Y304401D01*
X462742D01*
X469240D01*
X469331Y304410D01*
X469406Y304418D01*
X469473Y304435D01*
X469531Y304460D01*
X469581Y304485D01*
X469623Y304518D01*
X469681Y304585D01*
X469723Y304651D01*
X469739Y304710D01*
X469748Y304751D01*
Y304768D01*
X469739Y304826D01*
X469723Y304876D01*
X469673Y304968D01*
X469648Y305001D01*
X469623Y305026D01*
X469606Y305043D01*
X469598Y305051D01*
X469539Y305110D01*
X469498Y305143D01*
X469481Y305159D01*
Y305168D01*
X469465Y305193D01*
X469456Y305226D01*
Y305293D01*
X469465Y305326D01*
X469473Y305351D01*
X469481Y305360D01*
X469490Y305393D01*
X469506Y305426D01*
X469548Y305526D01*
X469564Y305568D01*
X469573Y305609D01*
X469590Y305634D01*
Y305643D01*
X469664Y305818D01*
X469714Y305984D01*
X469756Y306151D01*
X469781Y306301D01*
X469798Y306434D01*
Y306492D01*
X469806Y306534D01*
Y304401D01*
D01*
D01*
Y309441D01*
D02*
G37*
%LPD*%
G36*
X469681Y347326D02*
X469331D01*
X469390Y347334D01*
X469448Y347351D01*
X469490Y347376D01*
X469531Y347409D01*
X469598Y347493D01*
X469639Y347593D01*
X469664Y347692D01*
X469673Y347776D01*
X469681Y347809D01*
Y347326D01*
D02*
G37*
G36*
X465966Y346793D02*
X465658Y346760D01*
X465383Y346710D01*
X465116Y346643D01*
X464866Y346568D01*
X464642Y346476D01*
X464442Y346385D01*
X464250Y346293D01*
X464083Y346193D01*
X463942Y346101D01*
X463817Y346018D01*
X463717Y345935D01*
X463634Y345868D01*
X463584Y345818D01*
X463542Y345785D01*
X463534Y345777D01*
X463400Y345627D01*
X463284Y345477D01*
X463192Y345335D01*
X463109Y345210D01*
X463051Y345102D01*
X463000Y345010D01*
X462984Y344977D01*
X462976Y344952D01*
X462967Y344944D01*
Y344935D01*
X462900Y344760D01*
X462851Y344577D01*
X462809Y344394D01*
X462776Y344219D01*
X462759Y344069D01*
X462751Y344002D01*
Y343944D01*
X462742Y343902D01*
Y346801D01*
X466283D01*
X465966Y346793D01*
D02*
G37*
G36*
X468482Y338355D02*
X468565Y338338D01*
X468640Y338313D01*
X468698Y338280D01*
X468748Y338246D01*
X468782Y338221D01*
X468807Y338205D01*
X468815Y338196D01*
X468873Y338121D01*
X468923Y338030D01*
X468973Y337930D01*
X469015Y337822D01*
X469048Y337721D01*
X469065Y337638D01*
X469081Y337605D01*
Y337588D01*
X469090Y337572D01*
Y337563D01*
X469806D01*
Y337405D01*
X469081D01*
X469048Y337255D01*
X469006Y337122D01*
X468965Y337005D01*
X468923Y336913D01*
X468890Y336839D01*
X468856Y336780D01*
X468840Y336747D01*
X468831Y336739D01*
X468715Y336630D01*
X468598Y336530D01*
X468490Y336447D01*
X468390Y336372D01*
X468298Y336314D01*
X468232Y336272D01*
X468190Y336239D01*
X468173Y336230D01*
X468040Y336164D01*
X467899Y336097D01*
X467774Y336047D01*
X467657Y336005D01*
X467557Y335964D01*
X467474Y335939D01*
X467424Y335931D01*
X467415Y335922D01*
X467407D01*
X467340Y335906D01*
X467290Y335881D01*
X467240Y335856D01*
X467199Y335831D01*
X467174Y335814D01*
X467149Y335797D01*
X467132Y335789D01*
Y335781D01*
X467099Y335747D01*
X467082Y335706D01*
X467057Y335631D01*
X467049Y335597D01*
Y335547D01*
X467057Y335489D01*
X467065Y335439D01*
X467107Y335356D01*
X467132Y335322D01*
X467157Y335297D01*
X467166Y335289D01*
X467174Y335281D01*
X467224Y335247D01*
X467274Y335223D01*
X467374Y335197D01*
X467415Y335189D01*
X467440Y335181D01*
X465058D01*
X465266Y335189D01*
X465458Y335223D01*
X465649Y335273D01*
X465824Y335339D01*
X465983Y335414D01*
X466133Y335497D01*
X466274Y335589D01*
X466391Y335689D01*
X466507Y335781D01*
X466607Y335872D01*
X466691Y335956D01*
X466757Y336031D01*
X466807Y336097D01*
X466849Y336147D01*
X466874Y336180D01*
X466882Y336189D01*
X466982Y336314D01*
X467065Y336430D01*
X467099Y336480D01*
X467124Y336522D01*
X467132Y336547D01*
X467140Y336555D01*
X467166Y336605D01*
X467191Y336655D01*
X467240Y336780D01*
X467307Y336922D01*
X467365Y337055D01*
X467424Y337188D01*
X467449Y337238D01*
X467474Y337288D01*
X467490Y337330D01*
X467507Y337363D01*
X467515Y337380D01*
Y337388D01*
X467599Y337572D01*
X467674Y337730D01*
X467740Y337855D01*
X467799Y337955D01*
X467840Y338021D01*
X467873Y338071D01*
X467899Y338105D01*
X467907Y338113D01*
X467990Y338196D01*
X468074Y338255D01*
X468148Y338305D01*
X468223Y338330D01*
X468290Y338346D01*
X468340Y338363D01*
X468382D01*
X468390D01*
X468482Y338355D01*
D02*
G37*
G36*
X478249Y336172D02*
X478224Y336339D01*
X478199Y336480D01*
X478174Y336605D01*
X478149Y336714D01*
X478124Y336789D01*
X478099Y336847D01*
X478091Y336889D01*
X478083Y336897D01*
X477983Y337080D01*
X477866Y337238D01*
X477750Y337380D01*
X477633Y337497D01*
X477525Y337588D01*
X477441Y337655D01*
X477408Y337671D01*
X477383Y337688D01*
X477375Y337705D01*
X477366D01*
X477267Y337772D01*
X477167Y337830D01*
X476950Y337913D01*
X476725Y337980D01*
X476517Y338030D01*
X476417Y338038D01*
X476325Y338055D01*
X476242Y338063D01*
X476175D01*
X476117Y338071D01*
X476067D01*
X476042D01*
X476034D01*
X472868D01*
X472768Y338080D01*
X472668Y338088D01*
X472585Y338105D01*
X472518Y338130D01*
X472460Y338146D01*
X472410Y338163D01*
X472385Y338171D01*
X472377Y338180D01*
X472302Y338221D01*
X472235Y338271D01*
X472177Y338321D01*
X472135Y338371D01*
X472093Y338413D01*
X472069Y338446D01*
X472060Y338471D01*
X472052Y338479D01*
X472019Y338546D01*
X471985Y338596D01*
X471960Y338630D01*
X471944Y338663D01*
X471927Y338680D01*
X471919Y338688D01*
X471910Y338696D01*
X471869Y338738D01*
X471827Y338763D01*
X471744Y338796D01*
X471710Y338804D01*
X471685Y338813D01*
X478249D01*
Y336172D01*
D02*
G37*
G36*
Y329125D02*
X478224Y329350D01*
X478191Y329566D01*
X478141Y329766D01*
X478083Y329958D01*
X478024Y330133D01*
X477949Y330291D01*
X477883Y330441D01*
X477808Y330583D01*
X477733Y330699D01*
X477666Y330808D01*
X477600Y330899D01*
X477541Y330974D01*
X477491Y331032D01*
X477458Y331074D01*
X477433Y331099D01*
X477425Y331107D01*
X477233Y331282D01*
X477025Y331432D01*
X476817Y331566D01*
X476592Y331674D01*
X476367Y331774D01*
X476142Y331849D01*
X475925Y331915D01*
X475709Y331965D01*
X475509Y332007D01*
X475326Y332041D01*
X475159Y332057D01*
X475009Y332074D01*
X474892Y332082D01*
X474801Y332090D01*
X478249D01*
Y329125D01*
D02*
G37*
G36*
X478258Y324244D02*
X478249Y324352D01*
X478233Y324452D01*
X478216Y324535D01*
X478208Y324602D01*
X478191Y324660D01*
X478183Y324693D01*
Y324702D01*
X478149Y324793D01*
X478116Y324877D01*
X478075Y324960D01*
X478033Y325027D01*
X477999Y325085D01*
X477966Y325135D01*
X477949Y325160D01*
X477941Y325168D01*
X477875Y325252D01*
X477800Y325326D01*
X477725Y325385D01*
X477666Y325443D01*
X477608Y325493D01*
X477566Y325526D01*
X477533Y325543D01*
X477525Y325551D01*
X477433Y325601D01*
X477358Y325643D01*
X477283Y325668D01*
X477225Y325693D01*
X477175Y325701D01*
X477142Y325710D01*
X478258D01*
Y324244D01*
D02*
G37*
G36*
X478249Y315780D02*
X478241Y315905D01*
X478224Y316022D01*
X478216Y316122D01*
X478199Y316205D01*
X478191Y316272D01*
X478183Y316313D01*
Y316330D01*
X478158Y316447D01*
X478133Y316563D01*
X478099Y316672D01*
X478075Y316772D01*
X478050Y316846D01*
X478024Y316913D01*
X478016Y316947D01*
X478008Y316963D01*
X477966Y317063D01*
X477916Y317163D01*
X477866Y317263D01*
X477816Y317355D01*
X477775Y317438D01*
X477733Y317496D01*
X477708Y317538D01*
X477700Y317555D01*
X477625Y317671D01*
X477541Y317788D01*
X477466Y317879D01*
X477400Y317963D01*
X477341Y318029D01*
X477300Y318079D01*
X477267Y318113D01*
X477258Y318121D01*
X475567D01*
X475526D01*
X475484D01*
X475434Y318129D01*
X475409D01*
X475400D01*
X475367Y318146D01*
X475342Y318179D01*
X475326Y318204D01*
X475317Y318213D01*
X475259Y318296D01*
X475201Y318346D01*
X475167Y318379D01*
X475151Y318388D01*
X475084Y318421D01*
X475017Y318429D01*
X474967Y318438D01*
X478249D01*
Y315780D01*
D02*
G37*
G36*
X468482Y307575D02*
X468565Y307559D01*
X468640Y307534D01*
X468698Y307500D01*
X468748Y307467D01*
X468782Y307442D01*
X468807Y307425D01*
X468815Y307417D01*
X468873Y307342D01*
X468923Y307250D01*
X468973Y307150D01*
X469015Y307042D01*
X469048Y306942D01*
X469065Y306859D01*
X469081Y306825D01*
Y306809D01*
X469090Y306792D01*
Y306784D01*
X469806D01*
Y306626D01*
X469081D01*
X469048Y306476D01*
X469006Y306342D01*
X468965Y306226D01*
X468923Y306134D01*
X468890Y306059D01*
X468856Y306001D01*
X468840Y305967D01*
X468831Y305959D01*
X468715Y305851D01*
X468598Y305751D01*
X468490Y305668D01*
X468390Y305593D01*
X468298Y305534D01*
X468232Y305493D01*
X468190Y305459D01*
X468173Y305451D01*
X468040Y305384D01*
X467899Y305318D01*
X467774Y305268D01*
X467657Y305226D01*
X467557Y305185D01*
X467474Y305159D01*
X467424Y305151D01*
X467415Y305143D01*
X467407D01*
X467340Y305126D01*
X467290Y305101D01*
X467240Y305076D01*
X467199Y305051D01*
X467174Y305035D01*
X467149Y305018D01*
X467132Y305010D01*
Y305001D01*
X467099Y304968D01*
X467082Y304926D01*
X467057Y304851D01*
X467049Y304818D01*
Y304768D01*
X467057Y304710D01*
X467065Y304660D01*
X467107Y304576D01*
X467132Y304543D01*
X467157Y304518D01*
X467166Y304510D01*
X467174Y304502D01*
X467224Y304468D01*
X467274Y304443D01*
X467374Y304418D01*
X467415Y304410D01*
X467440Y304401D01*
X465058D01*
X465266Y304410D01*
X465458Y304443D01*
X465649Y304493D01*
X465824Y304560D01*
X465983Y304635D01*
X466133Y304718D01*
X466274Y304810D01*
X466391Y304910D01*
X466507Y305001D01*
X466607Y305093D01*
X466691Y305176D01*
X466757Y305251D01*
X466807Y305318D01*
X466849Y305368D01*
X466874Y305401D01*
X466882Y305409D01*
X466982Y305534D01*
X467065Y305651D01*
X467099Y305701D01*
X467124Y305743D01*
X467132Y305768D01*
X467140Y305776D01*
X467166Y305826D01*
X467191Y305876D01*
X467240Y306001D01*
X467307Y306142D01*
X467365Y306276D01*
X467424Y306409D01*
X467449Y306459D01*
X467474Y306509D01*
X467490Y306551D01*
X467507Y306584D01*
X467515Y306601D01*
Y306609D01*
X467599Y306792D01*
X467674Y306950D01*
X467740Y307075D01*
X467799Y307175D01*
X467840Y307242D01*
X467873Y307292D01*
X467899Y307325D01*
X467907Y307334D01*
X467990Y307417D01*
X468074Y307475D01*
X468148Y307525D01*
X468223Y307550D01*
X468290Y307567D01*
X468340Y307584D01*
X468382D01*
X468390D01*
X468482Y307575D01*
D02*
G37*
D10*
X285200Y160500D02*
G03*
X285200Y160500I-5700J0D01*
G01*
X464200Y290000D02*
G03*
X464200Y290000I-5700J0D01*
G01*
X470700Y153500D02*
G03*
X470700Y153500I-5700J0D01*
G01*
X421700Y171500D02*
G03*
X421700Y171500I-5700J0D01*
G01*
X401700D02*
G03*
X401700Y171500I-5700J0D01*
G01*
X381700D02*
G03*
X381700Y171500I-5700J0D01*
G01*
X361700D02*
G03*
X361700Y171500I-5700J0D01*
G01*
X341700D02*
G03*
X341700Y171500I-5700J0D01*
G01*
X321700D02*
G03*
X321700Y171500I-5700J0D01*
G01*
X464200Y259500D02*
G03*
X464200Y259500I-5700J0D01*
G01*
X285200Y142500D02*
G03*
X285200Y142500I-5700J0D01*
G01*
X196200Y224500D02*
G03*
X196200Y224500I-5700J0D01*
G01*
X269200Y184500D02*
G03*
X269200Y184500I-5700J0D01*
G01*
X167700Y160000D02*
G03*
X167700Y160000I-5700J0D01*
G01*
Y140000D02*
G03*
X167700Y140000I-5700J0D01*
G01*
Y120000D02*
G03*
X167700Y120000I-5700J0D01*
G01*
X196200Y244500D02*
G03*
X196200Y244500I-5700J0D01*
G01*
Y264500D02*
G03*
X196200Y264500I-5700J0D01*
G01*
Y284500D02*
G03*
X196200Y284500I-5700J0D01*
G01*
Y304500D02*
G03*
X196200Y304500I-5700J0D01*
G01*
X269200Y204500D02*
G03*
X269200Y204500I-5700J0D01*
G01*
Y224500D02*
G03*
X269200Y224500I-5700J0D01*
G01*
Y244500D02*
G03*
X269200Y244500I-5700J0D01*
G01*
Y264500D02*
G03*
X269200Y264500I-5700J0D01*
G01*
Y284500D02*
G03*
X269200Y284500I-5700J0D01*
G01*
Y304500D02*
G03*
X269200Y304500I-5700J0D01*
G01*
X469504Y222075D02*
G03*
X447850Y222075I-10827J-18753D01*
G01*
X439925Y214150D02*
G03*
X439925Y192496I18753J-10827D01*
G01*
X447850Y184570D02*
G03*
X469504Y184570I10827J18753D01*
G01*
X477430Y192496D02*
G03*
X477430Y214150I-18753J10827D01*
G01*
X309000Y209000D02*
X311000Y211000D01*
X309000Y213000D02*
X311000Y211000D01*
X303000D02*
X311000D01*
X165500Y196500D02*
Y212500D01*
X154500D02*
X165500D01*
X191000Y139500D02*
X200500D01*
X198000Y142000D02*
X200500Y139500D01*
X198000Y137000D02*
X200500Y139500D01*
X191000Y160000D02*
X200500D01*
X198000Y162500D02*
X200500Y160000D01*
X198000Y157500D02*
X200500Y160000D01*
X216500Y140000D02*
Y141500D01*
Y138500D02*
Y140000D01*
X154500Y212500D02*
X157500Y215500D01*
X154500Y212500D02*
X157500Y209500D01*
X142000Y222000D02*
Y226000D01*
X116000D02*
X142000D01*
X116000Y222000D02*
Y226000D01*
X142000Y200000D02*
Y204000D01*
X116000Y200000D02*
X142000D01*
X116000D02*
Y204000D01*
X411000Y109250D02*
X416000D01*
X411000Y115750D02*
X428500D01*
X411000Y106000D02*
X416000D01*
X411000Y112500D02*
X416000D01*
X411000Y119000D02*
X428500D01*
X143000Y244500D02*
X150500D01*
X143000D02*
X145500Y247000D01*
X143000Y244500D02*
X145500Y242000D01*
X143000Y264500D02*
X150500D01*
X143000D02*
X145500Y267000D01*
X143000Y264500D02*
X145500Y262000D01*
X143000Y284500D02*
X150500D01*
X143000D02*
X145500Y287000D01*
X143000Y284500D02*
X145500Y282000D01*
X143000Y304500D02*
X145500Y302000D01*
X143000Y304500D02*
X145500Y307000D01*
X143000Y304500D02*
X150500D01*
X305000Y324000D02*
Y342000D01*
Y356000D02*
Y369000D01*
Y400000D02*
X431000D01*
X305000Y384000D02*
Y400000D01*
X431000Y384000D02*
Y400000D01*
Y356000D02*
Y369000D01*
Y324000D02*
Y342000D01*
Y287000D02*
Y309000D01*
X305000Y287000D02*
X431000D01*
X305000D02*
Y309000D01*
X150098Y339252D02*
Y399488D01*
X272146D01*
Y339252D02*
Y399488D01*
X150098Y339252D02*
X272146D01*
X216500Y160000D02*
Y161500D01*
Y158500D02*
Y160000D01*
X129000Y303000D02*
Y304500D01*
Y306000D01*
Y283000D02*
Y284500D01*
Y286000D01*
Y263000D02*
Y264500D01*
Y266000D01*
Y243000D02*
Y244500D01*
Y246000D01*
X394001Y180000D02*
X396666D01*
X397999Y181333D01*
X396666Y182666D01*
X394001D01*
Y185998D02*
Y184665D01*
X394667Y183999D01*
X397333D01*
X397999Y184665D01*
Y185998D01*
X397333Y186664D01*
X394667D01*
X394001Y185998D01*
Y187997D02*
X397333D01*
X397999Y188664D01*
Y189997D01*
X397333Y190663D01*
X394001D01*
Y191996D02*
Y194662D01*
Y193329D01*
X397999D01*
X394001Y198661D02*
Y195995D01*
X396000D01*
X395334Y197328D01*
Y197994D01*
X396000Y198661D01*
X397333D01*
X397999Y197994D01*
Y196661D01*
X397333Y195995D01*
X374001Y180000D02*
X376666D01*
X377999Y181333D01*
X376666Y182666D01*
X374001D01*
Y185998D02*
Y184665D01*
X374667Y183999D01*
X377333D01*
X377999Y184665D01*
Y185998D01*
X377333Y186664D01*
X374667D01*
X374001Y185998D01*
Y187997D02*
X377333D01*
X377999Y188664D01*
Y189997D01*
X377333Y190663D01*
X374001D01*
Y191996D02*
Y194662D01*
Y193329D01*
X377999D01*
Y197994D02*
X374001D01*
X376000Y195995D01*
Y198661D01*
X453000Y300000D02*
X449001D01*
Y301999D01*
X449668Y302666D01*
X451001D01*
X451667Y301999D01*
Y300000D01*
Y301333D02*
X453000Y302666D01*
X449001Y306664D02*
Y303999D01*
X453000D01*
Y306664D01*
X451001Y303999D02*
Y305332D01*
X449001Y307997D02*
X451667D01*
X453000Y309330D01*
X451667Y310663D01*
X449001D01*
X453000Y314662D02*
Y311996D01*
X450334Y314662D01*
X449668D01*
X449001Y313996D01*
Y312663D01*
X449668Y311996D01*
Y315995D02*
X449001Y316661D01*
Y317994D01*
X449668Y318661D01*
X452334D01*
X453000Y317994D01*
Y316661D01*
X452334Y315995D01*
X449668D01*
X453000Y322659D02*
Y319994D01*
X450334Y322659D01*
X449668D01*
X449001Y321993D01*
Y320660D01*
X449668Y319994D01*
Y323992D02*
X449001Y324659D01*
Y325992D01*
X449668Y326658D01*
X452334D01*
X453000Y325992D01*
Y324659D01*
X452334Y323992D01*
X449668D01*
Y327991D02*
X449001Y328657D01*
Y329990D01*
X449668Y330657D01*
X452334D01*
X453000Y329990D01*
Y328657D01*
X452334Y327991D01*
X449668D01*
X449001Y334655D02*
X449668Y333323D01*
X451001Y331990D01*
X452334D01*
X453000Y332656D01*
Y333989D01*
X452334Y334655D01*
X451667D01*
X451001Y333989D01*
Y331990D01*
X453000Y338654D02*
Y335988D01*
X450334Y338654D01*
X449668D01*
X449001Y337988D01*
Y336655D01*
X449668Y335988D01*
Y339987D02*
X449001Y340653D01*
Y341986D01*
X449668Y342653D01*
X452334D01*
X453000Y341986D01*
Y340653D01*
X452334Y339987D01*
X449668D01*
X453000Y343986D02*
X450334D01*
X449001Y345319D01*
X450334Y346652D01*
X453000D01*
X451001D01*
Y343986D01*
X334001Y180000D02*
X336666D01*
X337999Y181333D01*
X336666Y182666D01*
X334001D01*
Y185998D02*
Y184665D01*
X334667Y183999D01*
X337333D01*
X337999Y184665D01*
Y185998D01*
X337333Y186664D01*
X334667D01*
X334001Y185998D01*
Y187997D02*
X337333D01*
X337999Y188664D01*
Y189997D01*
X337333Y190663D01*
X334001D01*
Y191996D02*
Y194662D01*
Y193329D01*
X337999D01*
Y198661D02*
Y195995D01*
X335334Y198661D01*
X334667D01*
X334001Y197994D01*
Y196661D01*
X334667Y195995D01*
X313000Y237081D02*
X314666D01*
X313833D01*
Y232083D01*
X313000D01*
X314666D01*
X317165D02*
Y235415D01*
X319665D01*
X320498Y234582D01*
Y232083D01*
X322164D02*
X324663D01*
X325496Y232916D01*
X324663Y233749D01*
X322997D01*
X322164Y234582D01*
X322997Y235415D01*
X325496D01*
X327995Y236248D02*
Y235415D01*
X327162D01*
X328828D01*
X327995D01*
Y232916D01*
X328828Y232083D01*
X332160Y235415D02*
X333827D01*
X334660Y234582D01*
Y232083D01*
X332160D01*
X331327Y232916D01*
X332160Y233749D01*
X334660D01*
X336326Y232083D02*
X337992D01*
X337159D01*
Y237081D01*
X336326D01*
X340491Y232083D02*
X342157D01*
X341324D01*
Y237081D01*
X340491D01*
X350488Y232083D02*
X352154D01*
X352987Y232916D01*
Y234582D01*
X352154Y235415D01*
X350488D01*
X349655Y234582D01*
Y232916D01*
X350488Y232083D01*
X354653D02*
Y235415D01*
X357152D01*
X357985Y234582D01*
Y232083D01*
X362151D02*
X360485D01*
X359652Y232916D01*
Y234582D01*
X360485Y235415D01*
X362151D01*
X362984Y234582D01*
Y233749D01*
X359652D01*
X369648Y230416D02*
X370481D01*
X371314Y231250D01*
Y235415D01*
X374647D02*
Y232916D01*
X375480Y232083D01*
X377979D01*
Y235415D01*
X379645Y232083D02*
Y235415D01*
X380478D01*
X381311Y234582D01*
Y232083D01*
Y234582D01*
X382144Y235415D01*
X382977Y234582D01*
Y232083D01*
X384644Y230416D02*
Y235415D01*
X387143D01*
X387976Y234582D01*
Y232916D01*
X387143Y232083D01*
X384644D01*
X392141D02*
X390475D01*
X389642Y232916D01*
Y234582D01*
X390475Y235415D01*
X392141D01*
X392974Y234582D01*
Y233749D01*
X389642D01*
X394640Y235415D02*
Y232083D01*
Y233749D01*
X395473Y234582D01*
X396306Y235415D01*
X397139D01*
X405470Y232083D02*
X407136D01*
X407969Y232916D01*
Y234582D01*
X407136Y235415D01*
X405470D01*
X404637Y234582D01*
Y232916D01*
X405470Y232083D01*
X409635D02*
Y235415D01*
X412135D01*
X412968Y234582D01*
Y232083D01*
X414634D02*
X416300D01*
X415467D01*
Y237081D01*
X414634D01*
X418799Y235415D02*
Y232916D01*
X419632Y232083D01*
X422131D01*
Y231250D01*
X421298Y230416D01*
X420465D01*
X422131Y232083D02*
Y235415D01*
X354001Y180000D02*
X356666D01*
X357999Y181333D01*
X356666Y182666D01*
X354001D01*
Y185998D02*
Y184665D01*
X354667Y183999D01*
X357333D01*
X357999Y184665D01*
Y185998D01*
X357333Y186664D01*
X354667D01*
X354001Y185998D01*
Y187997D02*
X357333D01*
X357999Y188664D01*
Y189997D01*
X357333Y190663D01*
X354001D01*
Y191996D02*
Y194662D01*
Y193329D01*
X357999D01*
X354667Y195995D02*
X354001Y196661D01*
Y197994D01*
X354667Y198661D01*
X355334D01*
X356000Y197994D01*
Y197328D01*
Y197994D01*
X356666Y198661D01*
X357333D01*
X357999Y197994D01*
Y196661D01*
X357333Y195995D01*
X426286Y237999D02*
X426000Y237427D01*
X426286Y234000D01*
X426571Y237427D01*
X426286Y237999D01*
Y237427D02*
Y235714D01*
Y232571D02*
X426000Y232286D01*
X426286Y232000D01*
X426571Y232286D01*
X426286Y232571D01*
X414001Y180000D02*
X416666D01*
X417999Y181333D01*
X416666Y182666D01*
X414001D01*
Y185998D02*
Y184665D01*
X414667Y183999D01*
X417333D01*
X417999Y184665D01*
Y185998D01*
X417333Y186664D01*
X414667D01*
X414001Y185998D01*
Y187997D02*
X417333D01*
X417999Y188664D01*
Y189997D01*
X417333Y190663D01*
X414001D01*
Y191996D02*
Y194662D01*
Y193329D01*
X417999D01*
X414001Y198661D02*
X414667Y197328D01*
X416000Y195995D01*
X417333D01*
X417999Y196661D01*
Y197994D01*
X417333Y198661D01*
X416666D01*
X416000Y197994D01*
Y195995D01*
X314001Y180000D02*
X316666D01*
X317999Y181333D01*
X316666Y182666D01*
X314001D01*
Y185998D02*
Y184665D01*
X314667Y183999D01*
X317333D01*
X317999Y184665D01*
Y185998D01*
X317333Y186664D01*
X314667D01*
X314001Y185998D01*
Y187997D02*
X317333D01*
X317999Y188664D01*
Y189997D01*
X317333Y190663D01*
X314001D01*
Y191996D02*
Y194662D01*
Y193329D01*
X317999D01*
Y195995D02*
Y197328D01*
Y196661D01*
X314001D01*
X314667Y195995D01*
X288000Y161999D02*
X290666D01*
X289333D01*
Y158000D01*
X291999D02*
Y161999D01*
X293998D01*
X294665Y161332D01*
Y159999D01*
X293998Y159333D01*
X291999D01*
X295997Y158000D02*
X297330D01*
X296664D01*
Y161999D01*
X295997Y161332D01*
X301329Y158000D02*
Y161999D01*
X299330Y159999D01*
X301995D01*
X236668Y108166D02*
X236001Y107499D01*
Y106167D01*
X236668Y105500D01*
X239334D01*
X240000Y106167D01*
Y107499D01*
X239334Y108166D01*
X240000Y112164D02*
Y109499D01*
X237334Y112164D01*
X236668D01*
X236001Y111498D01*
Y110165D01*
X236668Y109499D01*
X135186Y233332D02*
X134519Y233999D01*
X133186D01*
X132520Y233332D01*
Y232666D01*
X133186Y231999D01*
X134519D01*
X135186Y231333D01*
Y230666D01*
X134519Y230000D01*
X133186D01*
X132520Y230666D01*
X136518Y233999D02*
Y230000D01*
X137851Y231333D01*
X139184Y230000D01*
Y233999D01*
X140517Y230000D02*
X141850D01*
X141184D01*
Y233999D01*
X140517Y233332D01*
X220000Y113000D02*
Y116999D01*
X221999D01*
X222666Y116332D01*
Y114999D01*
X221999Y114333D01*
X220000D01*
X221333D02*
X222666Y113000D01*
X223999Y116332D02*
X224665Y116999D01*
X225998D01*
X226664Y116332D01*
Y115666D01*
X225998Y114999D01*
X226664Y114333D01*
Y113666D01*
X225998Y113000D01*
X224665D01*
X223999Y113666D01*
Y114333D01*
X224665Y114999D01*
X223999Y115666D01*
Y116332D01*
X224665Y114999D02*
X225998D01*
X220000Y121500D02*
Y125499D01*
X221999D01*
X222666Y124832D01*
Y123499D01*
X221999Y122833D01*
X220000D01*
X221333D02*
X222666Y121500D01*
X226664Y125499D02*
X225332Y124832D01*
X223999Y123499D01*
Y122167D01*
X224665Y121500D01*
X225998D01*
X226664Y122167D01*
Y122833D01*
X225998Y123499D01*
X223999D01*
X220000Y129500D02*
Y133499D01*
X221999D01*
X222666Y132832D01*
Y131499D01*
X221999Y130833D01*
X220000D01*
X221333D02*
X222666Y129500D01*
X225998D02*
Y133499D01*
X223999Y131499D01*
X226664D01*
X220000Y141999D02*
Y138000D01*
X222666D01*
X226664Y141999D02*
X223999D01*
Y138000D01*
X226664D01*
X223999Y139999D02*
X225332D01*
X227997Y141999D02*
Y138000D01*
X229997D01*
X230663Y138666D01*
Y141332D01*
X229997Y141999D01*
X227997D01*
X231996Y141332D02*
X232663Y141999D01*
X233996D01*
X234662Y141332D01*
Y140666D01*
X233996Y139999D01*
X233329D01*
X233996D01*
X234662Y139333D01*
Y138666D01*
X233996Y138000D01*
X232663D01*
X231996Y138666D01*
X273244Y126879D02*
Y123546D01*
X273911Y122880D01*
X275243D01*
X275910Y123546D01*
Y126879D01*
X277243Y122880D02*
X278576D01*
X277909D01*
Y126879D01*
X277243Y126212D01*
X411000Y162999D02*
X413666D01*
X412333D01*
Y159000D01*
X414999D02*
Y162999D01*
X416998D01*
X417664Y162332D01*
Y160999D01*
X416998Y160333D01*
X414999D01*
X421663Y159000D02*
X418997D01*
X421663Y161666D01*
Y162332D01*
X420997Y162999D01*
X419664D01*
X418997Y162332D01*
X422996Y159000D02*
X424329D01*
X423663D01*
Y162999D01*
X422996Y162332D01*
X391000Y162999D02*
X393666D01*
X392333D01*
Y159000D01*
X394999D02*
Y162999D01*
X396998D01*
X397664Y162332D01*
Y160999D01*
X396998Y160333D01*
X394999D01*
X401663Y159000D02*
X398997D01*
X401663Y161666D01*
Y162332D01*
X400997Y162999D01*
X399664D01*
X398997Y162332D01*
X402996D02*
X403663Y162999D01*
X404995D01*
X405662Y162332D01*
Y159667D01*
X404995Y159000D01*
X403663D01*
X402996Y159667D01*
Y162332D01*
X371000Y162999D02*
X373666D01*
X372333D01*
Y159000D01*
X374999D02*
Y162999D01*
X376998D01*
X377664Y162332D01*
Y160999D01*
X376998Y160333D01*
X374999D01*
X378997Y159000D02*
X380330D01*
X379664D01*
Y162999D01*
X378997Y162332D01*
X382330Y159667D02*
X382996Y159000D01*
X384329D01*
X384996Y159667D01*
Y162332D01*
X384329Y162999D01*
X382996D01*
X382330Y162332D01*
Y161666D01*
X382996Y160999D01*
X384996D01*
X351000Y162999D02*
X353666D01*
X352333D01*
Y159000D01*
X354999D02*
Y162999D01*
X356998D01*
X357664Y162332D01*
Y160999D01*
X356998Y160333D01*
X354999D01*
X358997Y159000D02*
X360330D01*
X359664D01*
Y162999D01*
X358997Y162332D01*
X362330D02*
X362996Y162999D01*
X364329D01*
X364996Y162332D01*
Y161666D01*
X364329Y160999D01*
X364996Y160333D01*
Y159667D01*
X364329Y159000D01*
X362996D01*
X362330Y159667D01*
Y160333D01*
X362996Y160999D01*
X362330Y161666D01*
Y162332D01*
X362996Y160999D02*
X364329D01*
X331000Y162999D02*
X333666D01*
X332333D01*
Y159000D01*
X334999D02*
Y162999D01*
X336998D01*
X337665Y162332D01*
Y160999D01*
X336998Y160333D01*
X334999D01*
X338997Y159000D02*
X340330D01*
X339664D01*
Y162999D01*
X338997Y162332D01*
X342330Y162999D02*
X344995D01*
Y162332D01*
X342330Y159667D01*
Y159000D01*
X311000Y162999D02*
X313666D01*
X312333D01*
Y159000D01*
X314999D02*
Y162999D01*
X316998D01*
X317665Y162332D01*
Y160999D01*
X316998Y160333D01*
X314999D01*
X318997Y159000D02*
X320330D01*
X319664D01*
Y162999D01*
X318997Y162332D01*
X324995Y162999D02*
X323663Y162332D01*
X322330Y160999D01*
Y159667D01*
X322996Y159000D01*
X324329D01*
X324995Y159667D01*
Y160333D01*
X324329Y160999D01*
X322330D01*
X292166Y143332D02*
X291499Y143999D01*
X290166D01*
X289500Y143332D01*
Y140666D01*
X290166Y140000D01*
X291499D01*
X292166Y140666D01*
Y141999D01*
X290833D01*
X293499Y140000D02*
Y143999D01*
X295498D01*
X296164Y143332D01*
Y141999D01*
X295498Y141333D01*
X293499D01*
X300163Y143999D02*
X297497D01*
Y141999D01*
X298830Y142666D01*
X299497D01*
X300163Y141999D01*
Y140666D01*
X299497Y140000D01*
X298164D01*
X297497Y140666D01*
X471166Y290832D02*
X470499Y291499D01*
X469166D01*
X468500Y290832D01*
Y288166D01*
X469166Y287500D01*
X470499D01*
X471166Y288166D01*
Y289499D01*
X469833D01*
X472499Y287500D02*
Y291499D01*
X474498D01*
X475165Y290832D01*
Y289499D01*
X474498Y288833D01*
X472499D01*
X478497Y287500D02*
Y291499D01*
X476497Y289499D01*
X479163D01*
X477666Y154332D02*
X476999Y154999D01*
X475666D01*
X475000Y154332D01*
Y151666D01*
X475666Y151000D01*
X476999D01*
X477666Y151666D01*
Y152999D01*
X476333D01*
X478999Y151000D02*
Y154999D01*
X480998D01*
X481665Y154332D01*
Y152999D01*
X480998Y152333D01*
X478999D01*
X482997Y154332D02*
X483664Y154999D01*
X484997D01*
X485663Y154332D01*
Y153666D01*
X484997Y152999D01*
X484330D01*
X484997D01*
X485663Y152333D01*
Y151666D01*
X484997Y151000D01*
X483664D01*
X482997Y151666D01*
X203166Y225332D02*
X202499Y225999D01*
X201167D01*
X200500Y225332D01*
Y222666D01*
X201167Y222000D01*
X202499D01*
X203166Y222666D01*
Y223999D01*
X201833D01*
X204499Y222000D02*
Y225999D01*
X206498D01*
X207165Y225332D01*
Y223999D01*
X206498Y223333D01*
X204499D01*
X211163Y222000D02*
X208497D01*
X211163Y224666D01*
Y225332D01*
X210497Y225999D01*
X209164D01*
X208497Y225332D01*
X276166Y185832D02*
X275499Y186499D01*
X274166D01*
X273500Y185832D01*
Y183167D01*
X274166Y182500D01*
X275499D01*
X276166Y183167D01*
Y184499D01*
X274833D01*
X277499Y182500D02*
Y186499D01*
X279498D01*
X280165Y185832D01*
Y184499D01*
X279498Y183833D01*
X277499D01*
X281497Y182500D02*
X282830D01*
X282164D01*
Y186499D01*
X281497Y185832D01*
X139500Y121499D02*
X142166D01*
X140833D01*
Y117500D01*
X143499D02*
Y121499D01*
X145498D01*
X146165Y120832D01*
Y119499D01*
X145498Y118833D01*
X143499D01*
X147497Y117500D02*
X148830D01*
X148164D01*
Y121499D01*
X147497Y120832D01*
X153496Y121499D02*
X150830D01*
Y119499D01*
X152163Y120166D01*
X152829D01*
X153496Y119499D01*
Y118166D01*
X152829Y117500D01*
X151496D01*
X150830Y118166D01*
X139500Y161499D02*
X142166D01*
X140833D01*
Y157500D01*
X143499D02*
Y161499D01*
X145498D01*
X146165Y160832D01*
Y159499D01*
X145498Y158833D01*
X143499D01*
X147497Y157500D02*
X148830D01*
X148164D01*
Y161499D01*
X147497Y160832D01*
X150830D02*
X151496Y161499D01*
X152829D01*
X153496Y160832D01*
Y160166D01*
X152829Y159499D01*
X152163D01*
X152829D01*
X153496Y158833D01*
Y158167D01*
X152829Y157500D01*
X151496D01*
X150830Y158167D01*
X139500Y141499D02*
X142166D01*
X140833D01*
Y137500D01*
X143499D02*
Y141499D01*
X145498D01*
X146165Y140832D01*
Y139499D01*
X145498Y138833D01*
X143499D01*
X147497Y137500D02*
X148830D01*
X148164D01*
Y141499D01*
X147497Y140832D01*
X153496Y137500D02*
X150830D01*
X153496Y140166D01*
Y140832D01*
X152829Y141499D01*
X151496D01*
X150830Y140832D01*
X200500Y245999D02*
X203166D01*
X201833D01*
Y242000D01*
X204499D02*
Y245999D01*
X206498D01*
X207165Y245332D01*
Y243999D01*
X206498Y243333D01*
X204499D01*
X208497Y242000D02*
X209830D01*
X209164D01*
Y245999D01*
X208497Y245332D01*
X211830Y242000D02*
X213163D01*
X212496D01*
Y245999D01*
X211830Y245332D01*
X200500Y265999D02*
X203166D01*
X201833D01*
Y262000D01*
X204499D02*
Y265999D01*
X206498D01*
X207165Y265332D01*
Y263999D01*
X206498Y263333D01*
X204499D01*
X208497Y262000D02*
X209830D01*
X209164D01*
Y265999D01*
X208497Y265332D01*
X211830D02*
X212496Y265999D01*
X213829D01*
X214495Y265332D01*
Y262666D01*
X213829Y262000D01*
X212496D01*
X211830Y262666D01*
Y265332D01*
X200500Y285999D02*
X203166D01*
X201833D01*
Y282000D01*
X204499D02*
Y285999D01*
X206498D01*
X207165Y285332D01*
Y283999D01*
X206498Y283333D01*
X204499D01*
X208497Y282666D02*
X209164Y282000D01*
X210497D01*
X211163Y282666D01*
Y285332D01*
X210497Y285999D01*
X209164D01*
X208497Y285332D01*
Y284666D01*
X209164Y283999D01*
X211163D01*
X200500Y305999D02*
X203166D01*
X201833D01*
Y302000D01*
X204499D02*
Y305999D01*
X206498D01*
X207165Y305332D01*
Y303999D01*
X206498Y303333D01*
X204499D01*
X208497Y305332D02*
X209164Y305999D01*
X210497D01*
X211163Y305332D01*
Y304666D01*
X210497Y303999D01*
X211163Y303333D01*
Y302666D01*
X210497Y302000D01*
X209164D01*
X208497Y302666D01*
Y303333D01*
X209164Y303999D01*
X208497Y304666D01*
Y305332D01*
X209164Y303999D02*
X210497D01*
X273500Y206999D02*
X276166D01*
X274833D01*
Y203000D01*
X277499D02*
Y206999D01*
X279498D01*
X280165Y206332D01*
Y204999D01*
X279498Y204333D01*
X277499D01*
X281497Y206999D02*
X284163D01*
Y206332D01*
X281497Y203666D01*
Y203000D01*
X273500Y227499D02*
X276166D01*
X274833D01*
Y223500D01*
X277499D02*
Y227499D01*
X279498D01*
X280165Y226832D01*
Y225499D01*
X279498Y224833D01*
X277499D01*
X284163Y227499D02*
X282830Y226832D01*
X281497Y225499D01*
Y224166D01*
X282164Y223500D01*
X283497D01*
X284163Y224166D01*
Y224833D01*
X283497Y225499D01*
X281497D01*
X273500Y245999D02*
X276166D01*
X274833D01*
Y242000D01*
X277499D02*
Y245999D01*
X279498D01*
X280165Y245332D01*
Y243999D01*
X279498Y243333D01*
X277499D01*
X284163Y245999D02*
X281497D01*
Y243999D01*
X282830Y244666D01*
X283497D01*
X284163Y243999D01*
Y242666D01*
X283497Y242000D01*
X282164D01*
X281497Y242666D01*
X273500Y265999D02*
X276166D01*
X274833D01*
Y262000D01*
X277499D02*
Y265999D01*
X279498D01*
X280165Y265332D01*
Y263999D01*
X279498Y263333D01*
X277499D01*
X283497Y262000D02*
Y265999D01*
X281497Y263999D01*
X284163D01*
X273500Y285999D02*
X276166D01*
X274833D01*
Y282000D01*
X277499D02*
Y285999D01*
X279498D01*
X280165Y285332D01*
Y283999D01*
X279498Y283333D01*
X277499D01*
X281497Y285332D02*
X282164Y285999D01*
X283497D01*
X284163Y285332D01*
Y284666D01*
X283497Y283999D01*
X282830D01*
X283497D01*
X284163Y283333D01*
Y282666D01*
X283497Y282000D01*
X282164D01*
X281497Y282666D01*
X273500Y305999D02*
X276166D01*
X274833D01*
Y302000D01*
X277499D02*
Y305999D01*
X279498D01*
X280165Y305332D01*
Y303999D01*
X279498Y303333D01*
X277499D01*
X284163Y302000D02*
X281497D01*
X284163Y304666D01*
Y305332D01*
X283497Y305999D01*
X282164D01*
X281497Y305332D01*
X468000Y260999D02*
X470666D01*
X469333D01*
Y257000D01*
X471999D02*
Y260999D01*
X473998D01*
X474664Y260332D01*
Y258999D01*
X473998Y258333D01*
X471999D01*
X475997Y257000D02*
X477330D01*
X476664D01*
Y260999D01*
X475997Y260332D01*
X408880Y142287D02*
X404881D01*
Y144287D01*
X405547Y144953D01*
X406880D01*
X407547Y144287D01*
Y142287D01*
Y143620D02*
X408880Y144953D01*
X405547Y146286D02*
X404881Y146953D01*
Y148285D01*
X405547Y148952D01*
X406214D01*
X406880Y148285D01*
Y147619D01*
Y148285D01*
X407547Y148952D01*
X408213D01*
X408880Y148285D01*
Y146953D01*
X408213Y146286D01*
X405547Y150285D02*
X404881Y150951D01*
Y152284D01*
X405547Y152951D01*
X408213D01*
X408880Y152284D01*
Y150951D01*
X408213Y150285D01*
X405547D01*
X390789Y142287D02*
X386790D01*
Y144287D01*
X387456Y144953D01*
X388789D01*
X389456Y144287D01*
Y142287D01*
Y143620D02*
X390789Y144953D01*
Y148952D02*
Y146286D01*
X388123Y148952D01*
X387456D01*
X386790Y148285D01*
Y146953D01*
X387456Y146286D01*
X390122Y150285D02*
X390789Y150951D01*
Y152284D01*
X390122Y152951D01*
X387456D01*
X386790Y152284D01*
Y150951D01*
X387456Y150285D01*
X388123D01*
X388789Y150951D01*
Y152951D01*
X372698Y142287D02*
X368699D01*
Y144287D01*
X369366Y144953D01*
X370698D01*
X371365Y144287D01*
Y142287D01*
Y143620D02*
X372698Y144953D01*
Y148952D02*
Y146286D01*
X370032Y148952D01*
X369366D01*
X368699Y148285D01*
Y146953D01*
X369366Y146286D01*
Y150285D02*
X368699Y150951D01*
Y152284D01*
X369366Y152951D01*
X370032D01*
X370698Y152284D01*
X371365Y152951D01*
X372031D01*
X372698Y152284D01*
Y150951D01*
X372031Y150285D01*
X371365D01*
X370698Y150951D01*
X370032Y150285D01*
X369366D01*
X370698Y150951D02*
Y152284D01*
X354607Y142287D02*
X350608D01*
Y144287D01*
X351275Y144953D01*
X352608D01*
X353274Y144287D01*
Y142287D01*
Y143620D02*
X354607Y144953D01*
Y148952D02*
Y146286D01*
X351941Y148952D01*
X351275D01*
X350608Y148285D01*
Y146953D01*
X351275Y146286D01*
X350608Y150285D02*
Y152951D01*
X351275D01*
X353941Y150285D01*
X354607D01*
X336516Y142287D02*
X332517D01*
Y144287D01*
X333184Y144953D01*
X334517D01*
X335183Y144287D01*
Y142287D01*
Y143620D02*
X336516Y144953D01*
Y148952D02*
Y146286D01*
X333850Y148952D01*
X333184D01*
X332517Y148285D01*
Y146953D01*
X333184Y146286D01*
X332517Y152951D02*
X333184Y151618D01*
X334517Y150285D01*
X335850D01*
X336516Y150951D01*
Y152284D01*
X335850Y152951D01*
X335183D01*
X334517Y152284D01*
Y150285D01*
X318425Y142287D02*
X314426D01*
Y144287D01*
X315093Y144953D01*
X316426D01*
X317092Y144287D01*
Y142287D01*
Y143620D02*
X318425Y144953D01*
Y148952D02*
Y146286D01*
X315759Y148952D01*
X315093D01*
X314426Y148285D01*
Y146953D01*
X315093Y146286D01*
X314426Y152951D02*
Y150285D01*
X316426D01*
X315759Y151618D01*
Y152284D01*
X316426Y152951D01*
X317759D01*
X318425Y152284D01*
Y150951D01*
X317759Y150285D01*
X437500Y252500D02*
X433501D01*
Y254499D01*
X434168Y255166D01*
X435501D01*
X436167Y254499D01*
Y252500D01*
Y253833D02*
X437500Y255166D01*
Y259165D02*
Y256499D01*
X434834Y259165D01*
X434168D01*
X433501Y258498D01*
Y257165D01*
X434168Y256499D01*
X437500Y262497D02*
X433501D01*
X435501Y260497D01*
Y263163D01*
X363633Y252500D02*
X359635D01*
Y254499D01*
X360301Y255166D01*
X361634D01*
X362300Y254499D01*
Y252500D01*
Y253833D02*
X363633Y255166D01*
Y259165D02*
Y256499D01*
X360967Y259165D01*
X360301D01*
X359635Y258498D01*
Y257165D01*
X360301Y256499D01*
Y260497D02*
X359635Y261164D01*
Y262497D01*
X360301Y263163D01*
X360967D01*
X361634Y262497D01*
Y261830D01*
Y262497D01*
X362300Y263163D01*
X362967D01*
X363633Y262497D01*
Y261164D01*
X362967Y260497D01*
X428267Y252500D02*
X424268D01*
Y254499D01*
X424934Y255166D01*
X426267D01*
X426934Y254499D01*
Y252500D01*
Y253833D02*
X428267Y255166D01*
Y259165D02*
Y256499D01*
X425601Y259165D01*
X424934D01*
X424268Y258498D01*
Y257165D01*
X424934Y256499D01*
X428267Y263163D02*
Y260497D01*
X425601Y263163D01*
X424934D01*
X424268Y262497D01*
Y261164D01*
X424934Y260497D01*
X354400Y252500D02*
X350401D01*
Y254499D01*
X351068Y255166D01*
X352401D01*
X353067Y254499D01*
Y252500D01*
Y253833D02*
X354400Y255166D01*
Y259165D02*
Y256499D01*
X351734Y259165D01*
X351068D01*
X350401Y258498D01*
Y257165D01*
X351068Y256499D01*
X354400Y260497D02*
Y261830D01*
Y261164D01*
X350401D01*
X351068Y260497D01*
X419033Y252500D02*
X415035D01*
Y254499D01*
X415701Y255166D01*
X417034D01*
X417700Y254499D01*
Y252500D01*
Y253833D02*
X419033Y255166D01*
Y259165D02*
Y256499D01*
X416367Y259165D01*
X415701D01*
X415035Y258498D01*
Y257165D01*
X415701Y256499D01*
Y260497D02*
X415035Y261164D01*
Y262497D01*
X415701Y263163D01*
X418367D01*
X419033Y262497D01*
Y261164D01*
X418367Y260497D01*
X415701D01*
X345167Y252500D02*
X341168D01*
Y254499D01*
X341834Y255166D01*
X343167D01*
X343834Y254499D01*
Y252500D01*
Y253833D02*
X345167Y255166D01*
Y256499D02*
Y257832D01*
Y257165D01*
X341168D01*
X341834Y256499D01*
X344500Y259831D02*
X345167Y260497D01*
Y261830D01*
X344500Y262497D01*
X341834D01*
X341168Y261830D01*
Y260497D01*
X341834Y259831D01*
X342501D01*
X343167Y260497D01*
Y262497D01*
X409800Y252500D02*
X405801D01*
Y254499D01*
X406468Y255166D01*
X407801D01*
X408467Y254499D01*
Y252500D01*
Y253833D02*
X409800Y255166D01*
Y256499D02*
Y257832D01*
Y257165D01*
X405801D01*
X406468Y256499D01*
Y259831D02*
X405801Y260497D01*
Y261830D01*
X406468Y262497D01*
X407134D01*
X407801Y261830D01*
X408467Y262497D01*
X409133D01*
X409800Y261830D01*
Y260497D01*
X409133Y259831D01*
X408467D01*
X407801Y260497D01*
X407134Y259831D01*
X406468D01*
X407801Y260497D02*
Y261830D01*
X335933Y252500D02*
X331935D01*
Y254499D01*
X332601Y255166D01*
X333934D01*
X334600Y254499D01*
Y252500D01*
Y253833D02*
X335933Y255166D01*
Y256499D02*
Y257832D01*
Y257165D01*
X331935D01*
X332601Y256499D01*
X331935Y259831D02*
Y262497D01*
X332601D01*
X335267Y259831D01*
X335933D01*
X400567Y252500D02*
X396568D01*
Y254499D01*
X397234Y255166D01*
X398567D01*
X399234Y254499D01*
Y252500D01*
Y253833D02*
X400567Y255166D01*
Y256499D02*
Y257832D01*
Y257165D01*
X396568D01*
X397234Y256499D01*
X396568Y262497D02*
X397234Y261164D01*
X398567Y259831D01*
X399900D01*
X400567Y260497D01*
Y261830D01*
X399900Y262497D01*
X399234D01*
X398567Y261830D01*
Y259831D01*
X326700Y252500D02*
X322701D01*
Y254499D01*
X323368Y255166D01*
X324701D01*
X325367Y254499D01*
Y252500D01*
Y253833D02*
X326700Y255166D01*
Y256499D02*
Y257832D01*
Y257165D01*
X322701D01*
X323368Y256499D01*
X322701Y262497D02*
Y259831D01*
X324701D01*
X324034Y261164D01*
Y261830D01*
X324701Y262497D01*
X326033D01*
X326700Y261830D01*
Y260497D01*
X326033Y259831D01*
X391333Y252500D02*
X387335D01*
Y254499D01*
X388001Y255166D01*
X389334D01*
X390000Y254499D01*
Y252500D01*
Y253833D02*
X391333Y255166D01*
Y256499D02*
Y257832D01*
Y257165D01*
X387335D01*
X388001Y256499D01*
X391333Y261830D02*
X387335D01*
X389334Y259831D01*
Y262497D01*
X317467Y252500D02*
X313468D01*
Y254499D01*
X314134Y255166D01*
X315467D01*
X316134Y254499D01*
Y252500D01*
Y253833D02*
X317467Y255166D01*
Y256499D02*
Y257832D01*
Y257165D01*
X313468D01*
X314134Y256499D01*
Y259831D02*
X313468Y260497D01*
Y261830D01*
X314134Y262497D01*
X314801D01*
X315467Y261830D01*
Y261164D01*
Y261830D01*
X316134Y262497D01*
X316800D01*
X317467Y261830D01*
Y260497D01*
X316800Y259831D01*
X382100Y252500D02*
X378101D01*
Y254499D01*
X378768Y255166D01*
X380101D01*
X380767Y254499D01*
Y252500D01*
Y253833D02*
X382100Y255166D01*
Y256499D02*
Y257832D01*
Y257165D01*
X378101D01*
X378768Y256499D01*
X382100Y262497D02*
Y259831D01*
X379434Y262497D01*
X378768D01*
X378101Y261830D01*
Y260497D01*
X378768Y259831D01*
X308233Y252500D02*
X304235D01*
Y254499D01*
X304901Y255166D01*
X306234D01*
X306900Y254499D01*
Y252500D01*
Y253833D02*
X308233Y255166D01*
Y256499D02*
Y257832D01*
Y257165D01*
X304235D01*
X304901Y256499D01*
X308233Y259831D02*
Y261164D01*
Y260497D01*
X304235D01*
X304901Y259831D01*
X372867Y252500D02*
X368868D01*
Y254499D01*
X369534Y255166D01*
X370867D01*
X371534Y254499D01*
Y252500D01*
Y253833D02*
X372867Y255166D01*
Y256499D02*
Y257832D01*
Y257165D01*
X368868D01*
X369534Y256499D01*
Y259831D02*
X368868Y260497D01*
Y261830D01*
X369534Y262497D01*
X372200D01*
X372867Y261830D01*
Y260497D01*
X372200Y259831D01*
X369534D01*
X299000Y252500D02*
X295001D01*
Y254499D01*
X295668Y255166D01*
X297001D01*
X297667Y254499D01*
Y252500D01*
Y253833D02*
X299000Y255166D01*
X298334Y256499D02*
X299000Y257165D01*
Y258498D01*
X298334Y259165D01*
X295668D01*
X295001Y258498D01*
Y257165D01*
X295668Y256499D01*
X296334D01*
X297001Y257165D01*
Y259165D01*
X110900Y249800D02*
Y253799D01*
X112899D01*
X113566Y253132D01*
Y251799D01*
X112899Y251133D01*
X110900D01*
X112233D02*
X113566Y249800D01*
X114899Y253799D02*
X117564D01*
Y253132D01*
X114899Y250466D01*
Y249800D01*
X110900Y269800D02*
Y273799D01*
X112899D01*
X113566Y273132D01*
Y271799D01*
X112899Y271133D01*
X110900D01*
X112233D02*
X113566Y269800D01*
X117564Y273799D02*
X114899D01*
Y271799D01*
X116232Y272466D01*
X116898D01*
X117564Y271799D01*
Y270466D01*
X116898Y269800D01*
X115565D01*
X114899Y270466D01*
X220000Y166500D02*
Y170499D01*
X221999D01*
X222666Y169832D01*
Y168499D01*
X221999Y167833D01*
X220000D01*
X221333D02*
X222666Y166500D01*
X223999Y169832D02*
X224665Y170499D01*
X225998D01*
X226664Y169832D01*
Y169166D01*
X225998Y168499D01*
X225332D01*
X225998D01*
X226664Y167833D01*
Y167166D01*
X225998Y166500D01*
X224665D01*
X223999Y167166D01*
X110850Y289750D02*
Y293749D01*
X112849D01*
X113516Y293082D01*
Y291749D01*
X112849Y291083D01*
X110850D01*
X112183D02*
X113516Y289750D01*
X117515D02*
X114849D01*
X117515Y292416D01*
Y293082D01*
X116848Y293749D01*
X115515D01*
X114849Y293082D01*
X110850Y309750D02*
Y313749D01*
X112849D01*
X113516Y313082D01*
Y311749D01*
X112849Y311083D01*
X110850D01*
X112183D02*
X113516Y309750D01*
X114849D02*
X116182D01*
X115515D01*
Y313749D01*
X114849Y313082D01*
X440193Y229139D02*
Y231805D01*
X439527Y232471D01*
X438194D01*
X437527Y231805D01*
Y229139D01*
X438194Y228473D01*
X439527D01*
X438860Y229806D02*
X440193Y228473D01*
X439527D02*
X440193Y229139D01*
X441526Y228473D02*
X442859D01*
X442192D01*
Y232471D01*
X441526Y231805D01*
X129500Y254699D02*
Y250700D01*
X132166D01*
X136164Y254699D02*
X133499D01*
Y250700D01*
X136164D01*
X133499Y252699D02*
X134832D01*
X137497Y254699D02*
Y250700D01*
X139497D01*
X140163Y251366D01*
Y254032D01*
X139497Y254699D01*
X137497D01*
X144162D02*
X142829Y254032D01*
X141496Y252699D01*
Y251366D01*
X142163Y250700D01*
X143496D01*
X144162Y251366D01*
Y252033D01*
X143496Y252699D01*
X141496D01*
X129500Y274699D02*
Y270700D01*
X132166D01*
X136164Y274699D02*
X133499D01*
Y270700D01*
X136164D01*
X133499Y272699D02*
X134832D01*
X137497Y274699D02*
Y270700D01*
X139497D01*
X140163Y271366D01*
Y274032D01*
X139497Y274699D01*
X137497D01*
X144162D02*
X141496D01*
Y272699D01*
X142829Y273366D01*
X143496D01*
X144162Y272699D01*
Y271366D01*
X143496Y270700D01*
X142163D01*
X141496Y271366D01*
X129500Y294699D02*
Y290700D01*
X132166D01*
X136164Y294699D02*
X133499D01*
Y290700D01*
X136164D01*
X133499Y292699D02*
X134832D01*
X137497Y294699D02*
Y290700D01*
X139497D01*
X140163Y291366D01*
Y294032D01*
X139497Y294699D01*
X137497D01*
X143496Y290700D02*
Y294699D01*
X141496Y292699D01*
X144162D01*
X220000Y161999D02*
Y158000D01*
X222666D01*
X226664Y161999D02*
X223999D01*
Y158000D01*
X226664D01*
X223999Y159999D02*
X225332D01*
X227997Y161999D02*
Y158000D01*
X229997D01*
X230663Y158667D01*
Y161332D01*
X229997Y161999D01*
X227997D01*
X234662Y158000D02*
X231996D01*
X234662Y160666D01*
Y161332D01*
X233996Y161999D01*
X232663D01*
X231996Y161332D01*
X129500Y314699D02*
Y310700D01*
X132166D01*
X136164Y314699D02*
X133499D01*
Y310700D01*
X136164D01*
X133499Y312699D02*
X134832D01*
X137497Y314699D02*
Y310700D01*
X139497D01*
X140163Y311366D01*
Y314032D01*
X139497Y314699D01*
X137497D01*
X141496Y310700D02*
X142829D01*
X142163D01*
Y314699D01*
X141496Y314032D01*
X416266Y226899D02*
X414933D01*
X415599D01*
Y223566D01*
X414933Y222900D01*
X414266D01*
X413600Y223566D01*
X417599Y222900D02*
Y226899D01*
X419598D01*
X420264Y226232D01*
Y224899D01*
X419598Y224233D01*
X417599D01*
X424263Y226899D02*
X422930Y226232D01*
X421597Y224899D01*
Y223566D01*
X422264Y222900D01*
X423597D01*
X424263Y223566D01*
Y224233D01*
X423597Y224899D01*
X421597D01*
X396266Y226899D02*
X394933D01*
X395599D01*
Y223566D01*
X394933Y222900D01*
X394266D01*
X393600Y223566D01*
X397599Y222900D02*
Y226899D01*
X399598D01*
X400265Y226232D01*
Y224899D01*
X399598Y224233D01*
X397599D01*
X404263Y226899D02*
X401597D01*
Y224899D01*
X402930Y225566D01*
X403597D01*
X404263Y224899D01*
Y223566D01*
X403597Y222900D01*
X402264D01*
X401597Y223566D01*
X376266Y226899D02*
X374933D01*
X375599D01*
Y223566D01*
X374933Y222900D01*
X374266D01*
X373600Y223566D01*
X377599Y222900D02*
Y226899D01*
X379598D01*
X380264Y226232D01*
Y224899D01*
X379598Y224233D01*
X377599D01*
X383597Y222900D02*
Y226899D01*
X381597Y224899D01*
X384263D01*
X356266Y226899D02*
X354933D01*
X355599D01*
Y223566D01*
X354933Y222900D01*
X354266D01*
X353600Y223566D01*
X357599Y222900D02*
Y226899D01*
X359598D01*
X360264Y226232D01*
Y224899D01*
X359598Y224233D01*
X357599D01*
X361597Y226232D02*
X362264Y226899D01*
X363597D01*
X364263Y226232D01*
Y225566D01*
X363597Y224899D01*
X362930D01*
X363597D01*
X364263Y224233D01*
Y223566D01*
X363597Y222900D01*
X362264D01*
X361597Y223566D01*
X336266Y226899D02*
X334933D01*
X335599D01*
Y223566D01*
X334933Y222900D01*
X334266D01*
X333600Y223566D01*
X337599Y222900D02*
Y226899D01*
X339598D01*
X340265Y226232D01*
Y224899D01*
X339598Y224233D01*
X337599D01*
X344263Y222900D02*
X341597D01*
X344263Y225566D01*
Y226232D01*
X343597Y226899D01*
X342264D01*
X341597Y226232D01*
X316266Y226899D02*
X314933D01*
X315599D01*
Y223566D01*
X314933Y222900D01*
X314266D01*
X313600Y223566D01*
X317599Y222900D02*
Y226899D01*
X319598D01*
X320265Y226232D01*
Y224899D01*
X319598Y224233D01*
X317599D01*
X321597Y222900D02*
X322930D01*
X322264D01*
Y226899D01*
X321597Y226232D01*
X152666Y335332D02*
X151999Y335999D01*
X150666D01*
X150000Y335332D01*
Y332666D01*
X150666Y332000D01*
X151999D01*
X152666Y332666D01*
X155998Y335999D02*
X154665D01*
X153999Y335332D01*
Y332666D01*
X154665Y332000D01*
X155998D01*
X156665Y332666D01*
Y335332D01*
X155998Y335999D01*
X157997Y332000D02*
Y335999D01*
X160663Y332000D01*
Y335999D01*
X164662Y332000D02*
X161996D01*
X164662Y334666D01*
Y335332D01*
X163996Y335999D01*
X162663D01*
X161996Y335332D01*
X307666Y283332D02*
X306999Y283999D01*
X305666D01*
X305000Y283332D01*
Y280666D01*
X305666Y280000D01*
X306999D01*
X307666Y280666D01*
X310998Y283999D02*
X309665D01*
X308999Y283332D01*
Y280666D01*
X309665Y280000D01*
X310998D01*
X311665Y280666D01*
Y283332D01*
X310998Y283999D01*
X312997Y280000D02*
Y283999D01*
X315663Y280000D01*
Y283999D01*
X316996Y280000D02*
X318329D01*
X317663D01*
Y283999D01*
X316996Y283332D01*
X414593Y144953D02*
X413926Y144287D01*
Y142954D01*
X414593Y142287D01*
X417259D01*
X417925Y142954D01*
Y144287D01*
X417259Y144953D01*
X414593Y146286D02*
X413926Y146953D01*
Y148285D01*
X414593Y148952D01*
X415259D01*
X415926Y148285D01*
X416592Y148952D01*
X417259D01*
X417925Y148285D01*
Y146953D01*
X417259Y146286D01*
X416592D01*
X415926Y146953D01*
X415259Y146286D01*
X414593D01*
X415926Y146953D02*
Y148285D01*
X396502Y144953D02*
X395835Y144287D01*
Y142954D01*
X396502Y142287D01*
X399168D01*
X399834Y142954D01*
Y144287D01*
X399168Y144953D01*
X395835Y146286D02*
Y148952D01*
X396502D01*
X399168Y146286D01*
X399834D01*
X378411Y144953D02*
X377745Y144287D01*
Y142954D01*
X378411Y142287D01*
X381077D01*
X381743Y142954D01*
Y144287D01*
X381077Y144953D01*
X377745Y148952D02*
X378411Y147619D01*
X379744Y146286D01*
X381077D01*
X381743Y146953D01*
Y148285D01*
X381077Y148952D01*
X380410D01*
X379744Y148285D01*
Y146286D01*
X360320Y144953D02*
X359654Y144287D01*
Y142954D01*
X360320Y142287D01*
X362986D01*
X363652Y142954D01*
Y144287D01*
X362986Y144953D01*
X359654Y148952D02*
Y146286D01*
X361653D01*
X360987Y147619D01*
Y148285D01*
X361653Y148952D01*
X362986D01*
X363652Y148285D01*
Y146953D01*
X362986Y146286D01*
X342229Y144953D02*
X341563Y144287D01*
Y142954D01*
X342229Y142287D01*
X344895D01*
X345562Y142954D01*
Y144287D01*
X344895Y144953D01*
X345562Y148285D02*
X341563D01*
X343562Y146286D01*
Y148952D01*
X324138Y144953D02*
X323472Y144287D01*
Y142954D01*
X324138Y142287D01*
X326804D01*
X327471Y142954D01*
Y144287D01*
X326804Y144953D01*
X324138Y146286D02*
X323472Y146953D01*
Y148285D01*
X324138Y148952D01*
X324805D01*
X325471Y148285D01*
Y147619D01*
Y148285D01*
X326138Y148952D01*
X326804D01*
X327471Y148285D01*
Y146953D01*
X326804Y146286D01*
X247168Y109166D02*
X246501Y108499D01*
Y107167D01*
X247168Y106500D01*
X249834D01*
X250500Y107167D01*
Y108499D01*
X249834Y109166D01*
X250500Y110499D02*
Y111832D01*
Y111165D01*
X246501D01*
X247168Y110499D01*
D11*
X260012Y127565D02*
G03*
X260012Y127565I-492J0D01*
G01*
D12*
X236500Y120500D02*
X239500D01*
X210000Y113500D02*
Y116500D01*
Y122000D02*
Y125000D01*
Y130000D02*
Y133000D01*
Y138500D02*
Y140000D01*
Y141500D01*
X433500Y245000D02*
X436500D01*
X424267D02*
X427267D01*
X415033D02*
X418033D01*
X405800D02*
X408800D01*
X396567D02*
X399567D01*
X387333D02*
X390333D01*
X378100D02*
X381100D01*
X368867D02*
X371867D01*
X350400D02*
X353400D01*
X341167D02*
X344167D01*
X331933D02*
X334933D01*
X322700D02*
X325700D01*
X313467D02*
X316467D01*
X295000D02*
X298000D01*
X304233D02*
X307233D01*
X359633D02*
X362633D01*
X246744Y120380D02*
X249744D01*
X210000Y167000D02*
Y170000D01*
Y158500D02*
Y160000D01*
Y161500D01*
X404880Y132287D02*
X407880D01*
X386789D02*
X389789D01*
X368698D02*
X371698D01*
X350607D02*
X353607D01*
X413925D02*
X416925D01*
X395834D02*
X398834D01*
X377743D02*
X380743D01*
X359652D02*
X362652D01*
X341562D02*
X344562D01*
X332516D02*
X335516D01*
X323471D02*
X326471D01*
X314425D02*
X317425D01*
X135500Y304500D02*
Y306000D01*
Y303000D02*
Y304500D01*
X115500Y303000D02*
Y306000D01*
X135500Y284500D02*
Y286000D01*
Y283000D02*
Y284500D01*
X115500Y283000D02*
Y286000D01*
X135500Y264500D02*
Y266000D01*
Y263000D02*
Y264500D01*
X115500Y263000D02*
Y266000D01*
X135500Y244500D02*
Y246000D01*
Y243000D02*
Y244500D01*
X115500Y243000D02*
Y246000D01*
D13*
X422250Y107250D02*
X427250Y112250D01*
X419750Y109750D02*
X422250Y107250D01*
X408500Y103000D02*
Y122500D01*
Y103000D02*
X431000D01*
Y122500D01*
X408500D02*
X431000D01*
X442999Y155499D02*
X441999Y156499D01*
X440000D01*
X439000Y155499D01*
Y151501D01*
X440000Y150501D01*
X441999D01*
X442999Y151501D01*
Y153500D01*
X440999D01*
X444998Y150501D02*
Y156499D01*
X448997Y150501D01*
Y156499D01*
X450996D02*
Y150501D01*
X453995D01*
X454995Y151501D01*
Y155499D01*
X453995Y156499D01*
X450996D01*
X171000Y117001D02*
Y122999D01*
X173999D01*
X174999Y121999D01*
Y120000D01*
X173999Y119000D01*
X171000D01*
X180997Y121999D02*
X179997Y122999D01*
X177998D01*
X176998Y121999D01*
Y121000D01*
X177998Y120000D01*
X179997D01*
X180997Y119000D01*
Y118001D01*
X179997Y117001D01*
X177998D01*
X176998Y118001D01*
X186995Y121999D02*
X185995Y122999D01*
X183996D01*
X182996Y121999D01*
Y118001D01*
X183996Y117001D01*
X185995D01*
X186995Y118001D01*
Y120000D01*
X184995D01*
X188994Y117001D02*
Y122999D01*
X192993Y117001D01*
Y122999D01*
X194992D02*
Y117001D01*
X197991D01*
X198991Y118001D01*
Y121999D01*
X197991Y122999D01*
X194992D01*
X457499Y278499D02*
X456499Y279499D01*
X454500D01*
X453500Y278499D01*
Y274501D01*
X454500Y273501D01*
X456499D01*
X457499Y274501D01*
Y276500D01*
X455499D01*
X459498Y273501D02*
Y279499D01*
X463497Y273501D01*
Y279499D01*
X465496D02*
Y273501D01*
X468495D01*
X469495Y274501D01*
Y278499D01*
X468495Y279499D01*
X465496D01*
X158499Y246499D02*
X157499Y247499D01*
X155500D01*
X154500Y246499D01*
Y245500D01*
X155500Y244500D01*
X157499D01*
X158499Y243500D01*
Y242501D01*
X157499Y241501D01*
X155500D01*
X154500Y242501D01*
X160498Y247499D02*
X164497D01*
X162497D01*
Y241501D01*
X170495Y246499D02*
X169495Y247499D01*
X167496D01*
X166496Y246499D01*
Y245500D01*
X167496Y244500D01*
X169495D01*
X170495Y243500D01*
Y242501D01*
X169495Y241501D01*
X167496D01*
X166496Y242501D01*
X172494Y247499D02*
Y241501D01*
X175493D01*
X176493Y242501D01*
Y246499D01*
X175493Y247499D01*
X172494D01*
X368500Y122498D02*
X373165D01*
X370833D01*
Y115500D01*
X378997D02*
X376664D01*
X375498Y116666D01*
Y118999D01*
X376664Y120165D01*
X378997D01*
X380163Y118999D01*
Y117833D01*
X375498D01*
X382495Y115500D02*
X385994D01*
X387161Y116666D01*
X385994Y117833D01*
X383662D01*
X382495Y118999D01*
X383662Y120165D01*
X387161D01*
X390659Y121331D02*
Y120165D01*
X389493D01*
X391826D01*
X390659D01*
Y116666D01*
X391826Y115500D01*
X171000Y162999D02*
Y159000D01*
X172999Y157001D01*
X174999Y159000D01*
Y162999D01*
X176998D02*
Y157001D01*
X179997D01*
X180997Y158001D01*
Y161999D01*
X179997Y162999D01*
X176998D01*
X182996D02*
Y157001D01*
X185995D01*
X186995Y158001D01*
Y161999D01*
X185995Y162999D01*
X182996D01*
X400500Y110998D02*
Y104000D01*
X397001D01*
X395835Y105166D01*
Y107499D01*
X397001Y108665D01*
X400500D01*
X453500Y248499D02*
Y242501D01*
X456499D01*
X457499Y243501D01*
Y244500D01*
X456499Y245500D01*
X453500D01*
X456499D01*
X457499Y246500D01*
Y247499D01*
X456499Y248499D01*
X453500D01*
X459498Y242501D02*
Y248499D01*
X463497Y242501D01*
Y248499D01*
X469495Y247499D02*
X468495Y248499D01*
X466496D01*
X465496Y247499D01*
Y243501D01*
X466496Y242501D01*
X468495D01*
X469495Y243501D01*
X227500Y261501D02*
Y267499D01*
X230499D01*
X231499Y266499D01*
Y264500D01*
X230499Y263500D01*
X227500D01*
X233498Y267499D02*
Y261501D01*
X235497Y263500D01*
X237497Y261501D01*
Y267499D01*
X239496Y261501D02*
Y267499D01*
X241495Y265500D01*
X243495Y267499D01*
Y261501D01*
X245494Y266499D02*
X246494Y267499D01*
X248493D01*
X249493Y266499D01*
Y265500D01*
X248493Y264500D01*
X247494D01*
X248493D01*
X249493Y263500D01*
Y262501D01*
X248493Y261501D01*
X246494D01*
X245494Y262501D01*
X292502Y174519D02*
X298500D01*
Y177518D01*
X297500Y178517D01*
X296501D01*
X295501Y177518D01*
Y174519D01*
Y177518D01*
X294501Y178517D01*
X293502D01*
X292502Y177518D01*
Y174519D01*
X298500Y180517D02*
X292502D01*
X298500Y184516D01*
X292502D01*
X293502Y190514D02*
X292502Y189514D01*
Y187515D01*
X293502Y186515D01*
X297500D01*
X298500Y187515D01*
Y189514D01*
X297500Y190514D01*
X293502Y202510D02*
X292502Y201510D01*
Y199511D01*
X293502Y198511D01*
X294501D01*
X295501Y199511D01*
Y201510D01*
X296501Y202510D01*
X297500D01*
X298500Y201510D01*
Y199511D01*
X297500Y198511D01*
X292502Y208508D02*
Y204509D01*
X298500D01*
Y208508D01*
X295501Y204509D02*
Y206508D01*
X292502Y210507D02*
X298500D01*
Y214506D01*
X292502Y220504D02*
Y216505D01*
X298500D01*
Y220504D01*
X295501Y216505D02*
Y218505D01*
X293502Y226502D02*
X292502Y225502D01*
Y223503D01*
X293502Y222503D01*
X297500D01*
X298500Y223503D01*
Y225502D01*
X297500Y226502D01*
X292502Y228501D02*
Y232500D01*
Y230501D01*
X298500D01*
X164499Y226499D02*
X163499Y227499D01*
X161500D01*
X160500Y226499D01*
Y222501D01*
X161500Y221501D01*
X163499D01*
X164499Y222501D01*
Y224500D01*
X162499D01*
X166498Y221501D02*
Y227499D01*
X170497Y221501D01*
Y227499D01*
X172496D02*
Y221501D01*
X175495D01*
X176495Y222501D01*
Y226499D01*
X175495Y227499D01*
X172496D01*
X227500Y201501D02*
Y207499D01*
X230499D01*
X231499Y206499D01*
Y204500D01*
X230499Y203500D01*
X227500D01*
X233498Y207499D02*
Y201501D01*
X235497Y203500D01*
X237497Y201501D01*
Y207499D01*
X239496Y201501D02*
Y207499D01*
X241495Y205500D01*
X243495Y207499D01*
Y201501D01*
X249493Y207499D02*
X247494Y206499D01*
X245494Y204500D01*
Y202501D01*
X246494Y201501D01*
X248493D01*
X249493Y202501D01*
Y203500D01*
X248493Y204500D01*
X245494D01*
X227500Y301501D02*
Y307499D01*
X230499D01*
X231499Y306499D01*
Y304500D01*
X230499Y303500D01*
X227500D01*
X233498Y307499D02*
Y301501D01*
X235497Y303500D01*
X237497Y301501D01*
Y307499D01*
X239496Y301501D02*
Y307499D01*
X241495Y305500D01*
X243495Y307499D01*
Y301501D01*
X245494D02*
X247494D01*
X246494D01*
Y307499D01*
X245494Y306499D01*
X227500Y241501D02*
Y247499D01*
X230499D01*
X231499Y246499D01*
Y244500D01*
X230499Y243500D01*
X227500D01*
X233498Y247499D02*
Y241501D01*
X235497Y243500D01*
X237497Y241501D01*
Y247499D01*
X239496Y241501D02*
Y247499D01*
X241495Y245500D01*
X243495Y247499D01*
Y241501D01*
X248493D02*
Y247499D01*
X245494Y244500D01*
X249493D01*
X369008Y110998D02*
Y104000D01*
X372507D01*
X373673Y105166D01*
Y106333D01*
X372507Y107499D01*
X369008D01*
X372507D01*
X373673Y108665D01*
Y109831D01*
X372507Y110998D01*
X369008D01*
X377172Y104000D02*
X379504D01*
X380671Y105166D01*
Y107499D01*
X379504Y108665D01*
X377172D01*
X376006Y107499D01*
Y105166D01*
X377172Y104000D01*
X384170Y108665D02*
X386502D01*
X387669Y107499D01*
Y104000D01*
X384170D01*
X383003Y105166D01*
X384170Y106333D01*
X387669D01*
X390001Y108665D02*
Y104000D01*
Y106333D01*
X391167Y107499D01*
X392334Y108665D01*
X393500D01*
X113499Y190498D02*
X112499Y191498D01*
X110500D01*
X109500Y190498D01*
Y189499D01*
X110500Y188499D01*
X112499D01*
X113499Y187499D01*
Y186500D01*
X112499Y185500D01*
X110500D01*
X109500Y186500D01*
X115498Y191498D02*
X119497D01*
X117497D01*
Y185500D01*
X121496D02*
Y189499D01*
X123495Y191498D01*
X125495Y189499D01*
Y185500D01*
Y188499D01*
X121496D01*
X127494Y191498D02*
X131493D01*
X129493D01*
Y185500D01*
X133492Y191498D02*
Y186500D01*
X134492Y185500D01*
X136491D01*
X137491Y186500D01*
Y191498D01*
X143489Y190498D02*
X142489Y191498D01*
X140490D01*
X139490Y190498D01*
Y189499D01*
X140490Y188499D01*
X142489D01*
X143489Y187499D01*
Y186500D01*
X142489Y185500D01*
X140490D01*
X139490Y186500D01*
X158499Y306499D02*
X157499Y307499D01*
X155500D01*
X154500Y306499D01*
Y305500D01*
X155500Y304500D01*
X157499D01*
X158499Y303500D01*
Y302501D01*
X157499Y301501D01*
X155500D01*
X154500Y302501D01*
X160498Y307499D02*
X164497D01*
X162497D01*
Y301501D01*
X170495Y306499D02*
X169495Y307499D01*
X167496D01*
X166496Y306499D01*
Y305500D01*
X167496Y304500D01*
X169495D01*
X170495Y303500D01*
Y302501D01*
X169495Y301501D01*
X167496D01*
X166496Y302501D01*
X172494Y301501D02*
Y305500D01*
X174494Y307499D01*
X176493Y305500D01*
Y301501D01*
Y304500D01*
X172494D01*
X171000Y142999D02*
Y139000D01*
X172999Y137001D01*
X174999Y139000D01*
Y142999D01*
X176998Y137001D02*
Y142999D01*
X179997D01*
X180997Y141999D01*
Y140000D01*
X179997Y139000D01*
X176998D01*
X186995Y141999D02*
X185995Y142999D01*
X183996D01*
X182996Y141999D01*
Y141000D01*
X183996Y140000D01*
X185995D01*
X186995Y139000D01*
Y138001D01*
X185995Y137001D01*
X183996D01*
X182996Y138001D01*
X227500Y281501D02*
Y287499D01*
X230499D01*
X231499Y286499D01*
Y284500D01*
X230499Y283500D01*
X227500D01*
X233498Y287499D02*
Y281501D01*
X235497Y283500D01*
X237497Y281501D01*
Y287499D01*
X239496Y281501D02*
Y287499D01*
X241495Y285500D01*
X243495Y287499D01*
Y281501D01*
X249493D02*
X245494D01*
X249493Y285500D01*
Y286499D01*
X248493Y287499D01*
X246494D01*
X245494Y286499D01*
X227500Y221501D02*
Y227499D01*
X230499D01*
X231499Y226499D01*
Y224500D01*
X230499Y223500D01*
X227500D01*
X233498Y227499D02*
Y221501D01*
X235497Y223500D01*
X237497Y221501D01*
Y227499D01*
X239496Y221501D02*
Y227499D01*
X241495Y225500D01*
X243495Y227499D01*
Y221501D01*
X249493Y227499D02*
X245494D01*
Y224500D01*
X247494Y225500D01*
X248493D01*
X249493Y224500D01*
Y222501D01*
X248493Y221501D01*
X246494D01*
X245494Y222501D01*
X237499Y186499D02*
X236499Y187499D01*
X234500D01*
X233500Y186499D01*
Y182501D01*
X234500Y181501D01*
X236499D01*
X237499Y182501D01*
Y184500D01*
X235499D01*
X239498Y181501D02*
Y187499D01*
X243497Y181501D01*
Y187499D01*
X245496D02*
Y181501D01*
X248495D01*
X249495Y182501D01*
Y186499D01*
X248495Y187499D01*
X245496D01*
X254999Y144499D02*
X253999Y145499D01*
X252000D01*
X251000Y144499D01*
Y140501D01*
X252000Y139501D01*
X253999D01*
X254999Y140501D01*
Y142500D01*
X252999D01*
X256998Y139501D02*
Y145499D01*
X260997Y139501D01*
Y145499D01*
X262996D02*
Y139501D01*
X265995D01*
X266995Y140501D01*
Y144499D01*
X265995Y145499D01*
X262996D01*
X246000Y160000D02*
X249999D01*
X247999Y161999D02*
Y158001D01*
X251998Y157001D02*
X253997D01*
X252998D01*
Y162999D01*
X251998Y161999D01*
X256996D02*
X257996Y162999D01*
X259996D01*
X260995Y161999D01*
Y158001D01*
X259996Y157001D01*
X257996D01*
X256996Y158001D01*
Y161999D01*
X262995Y162999D02*
Y159000D01*
X264994Y157001D01*
X266993Y159000D01*
Y162999D01*
X176500Y191498D02*
Y185500D01*
X179499D01*
X180499Y186500D01*
Y187499D01*
X179499Y188499D01*
X176500D01*
X179499D01*
X180499Y189499D01*
Y190498D01*
X179499Y191498D01*
X176500D01*
X182498Y185500D02*
Y189499D01*
X184497Y191498D01*
X186497Y189499D01*
Y185500D01*
Y188499D01*
X182498D01*
X192495Y190498D02*
X191495Y191498D01*
X189496D01*
X188496Y190498D01*
Y186500D01*
X189496Y185500D01*
X191495D01*
X192495Y186500D01*
X194494Y191498D02*
Y185500D01*
Y187499D01*
X198493Y191498D01*
X195494Y188499D01*
X198493Y185500D01*
X158499Y286499D02*
X157499Y287499D01*
X155500D01*
X154500Y286499D01*
Y285500D01*
X155500Y284500D01*
X157499D01*
X158499Y283500D01*
Y282501D01*
X157499Y281501D01*
X155500D01*
X154500Y282501D01*
X160498Y287499D02*
X164497D01*
X162497D01*
Y281501D01*
X170495Y286499D02*
X169495Y287499D01*
X167496D01*
X166496Y286499D01*
Y285500D01*
X167496Y284500D01*
X169495D01*
X170495Y283500D01*
Y282501D01*
X169495Y281501D01*
X167496D01*
X166496Y282501D01*
X172494Y287499D02*
Y281501D01*
X175493D01*
X176493Y282501D01*
Y283500D01*
X175493Y284500D01*
X172494D01*
X175493D01*
X176493Y285500D01*
Y286499D01*
X175493Y287499D01*
X172494D01*
X366520Y274899D02*
Y278898D01*
X368520Y280897D01*
X370519Y278898D01*
Y274899D01*
Y277898D01*
X366520D01*
X372518Y274899D02*
Y280897D01*
X376517Y274899D01*
Y280897D01*
X378517Y274899D02*
Y278898D01*
X380516Y280897D01*
X382515Y278898D01*
Y274899D01*
Y277898D01*
X378517D01*
X384515Y280897D02*
Y274899D01*
X388513D01*
X393512Y280897D02*
X391512D01*
X390513Y279897D01*
Y275899D01*
X391512Y274899D01*
X393512D01*
X394511Y275899D01*
Y279897D01*
X393512Y280897D01*
X400509Y279897D02*
X399510Y280897D01*
X397510D01*
X396511Y279897D01*
Y275899D01*
X397510Y274899D01*
X399510D01*
X400509Y275899D01*
Y277898D01*
X398510D01*
X408507Y280897D02*
Y274899D01*
X412505D01*
X414505Y280897D02*
X416504D01*
X415505D01*
Y274899D01*
X414505D01*
X416504D01*
X419503D02*
Y280897D01*
X423502Y274899D01*
Y280897D01*
X425501D02*
Y274899D01*
Y276898D01*
X429500Y280897D01*
X426501Y277898D01*
X429500Y274899D01*
X196524Y333897D02*
X198523D01*
X197524D01*
Y327899D01*
X196524D01*
X198523D01*
X201522D02*
Y333897D01*
X205521Y327899D01*
Y333897D01*
X207520D02*
Y329898D01*
X209520Y327899D01*
X211519Y329898D01*
Y333897D01*
X217517D02*
X213518D01*
Y327899D01*
X217517D01*
X213518Y330898D02*
X215518D01*
X219516Y327899D02*
Y333897D01*
X222516D01*
X223515Y332897D01*
Y330898D01*
X222516Y329898D01*
X219516D01*
X221516D02*
X223515Y327899D01*
X225515Y333897D02*
X229513D01*
X227514D01*
Y327899D01*
X235511Y333897D02*
X231513D01*
Y327899D01*
X235511D01*
X231513Y330898D02*
X233512D01*
X237511Y327899D02*
Y333897D01*
X240510D01*
X241509Y332897D01*
Y330898D01*
X240510Y329898D01*
X237511D01*
X239510D02*
X241509Y327899D01*
X249507Y333897D02*
Y327899D01*
X253505D01*
X255505Y333897D02*
X257504D01*
X256505D01*
Y327899D01*
X255505D01*
X257504D01*
X260503D02*
Y333897D01*
X264502Y327899D01*
Y333897D01*
X266501D02*
Y327899D01*
Y329898D01*
X270500Y333897D01*
X267501Y330898D01*
X270500Y327899D01*
X158499Y266499D02*
X157499Y267499D01*
X155500D01*
X154500Y266499D01*
Y265500D01*
X155500Y264500D01*
X157499D01*
X158499Y263500D01*
Y262501D01*
X157499Y261501D01*
X155500D01*
X154500Y262501D01*
X160498Y267499D02*
X164497D01*
X162497D01*
Y261501D01*
X170495Y266499D02*
X169495Y267499D01*
X167496D01*
X166496Y266499D01*
Y265500D01*
X167496Y264500D01*
X169495D01*
X170495Y263500D01*
Y262501D01*
X169495Y261501D01*
X167496D01*
X166496Y262501D01*
X176493Y266499D02*
X175493Y267499D01*
X173494D01*
X172494Y266499D01*
Y262501D01*
X173494Y261501D01*
X175493D01*
X176493Y262501D01*
X149500Y191498D02*
Y185500D01*
X153499D01*
X158497Y191498D02*
X156498D01*
X155498Y190498D01*
Y186500D01*
X156498Y185500D01*
X158497D01*
X159497Y186500D01*
Y190498D01*
X158497Y191498D01*
X164495D02*
X162496D01*
X161496Y190498D01*
Y186500D01*
X162496Y185500D01*
X164495D01*
X165495Y186500D01*
Y190498D01*
X164495Y191498D01*
X167494Y185500D02*
Y191498D01*
X170493D01*
X171493Y190498D01*
Y188499D01*
X170493Y187499D01*
X167494D01*
D14*
X267000Y114474D02*
Y117526D01*
X263063Y114474D02*
X267000D01*
Y123234D02*
Y126285D01*
X263063D02*
X267000D01*
D15*
X305000Y106000D02*
Y115997D01*
X309998Y120995D01*
X314997Y115997D01*
Y106000D01*
Y113498D01*
X305000D01*
X319995Y106000D02*
Y120995D01*
X324993Y115997D01*
X329992Y120995D01*
Y106000D01*
X334990Y120995D02*
Y106000D01*
X342488D01*
X344987Y108499D01*
Y118496D01*
X342488Y120995D01*
X334990D01*
X359982Y118496D02*
X357483Y120995D01*
X352485D01*
X349985Y118496D01*
Y108499D01*
X352485Y106000D01*
X357483D01*
X359982Y108499D01*
M02*
