G04*
G04 #@! TF.GenerationSoftware,Altium Limited,Altium Designer,19.1.8 (144)*
G04*
G04 Layer_Color=16711935*
%FSLAX25Y25*%
%MOIN*%
G70*
G01*
G75*
%ADD20C,0.09068*%
%ADD21C,0.13595*%
%ADD22C,0.09658*%
%ADD23C,0.06800*%
%ADD24R,0.06800X0.06800*%
%ADD25C,0.06706*%
%ADD26R,0.06706X0.06706*%
%ADD27C,0.20485*%
%ADD28C,0.03800*%
%ADD29C,0.30800*%
%ADD30R,0.08674X0.08674*%
%ADD31C,0.10249*%
%ADD32R,0.06800X0.06800*%
D20*
X279500Y160500D02*
D03*
X458500Y290000D02*
D03*
X465000Y153500D02*
D03*
X416000Y171500D02*
D03*
X396000D02*
D03*
X376000D02*
D03*
X356000D02*
D03*
X336000D02*
D03*
X316000D02*
D03*
X458500Y259500D02*
D03*
X279500Y142500D02*
D03*
X190500Y224500D02*
D03*
X263500Y184500D02*
D03*
X162000Y160000D02*
D03*
Y140000D02*
D03*
Y120000D02*
D03*
X190500Y244500D02*
D03*
Y264500D02*
D03*
Y284500D02*
D03*
Y304500D02*
D03*
X263500Y204500D02*
D03*
Y224500D02*
D03*
Y244500D02*
D03*
Y264500D02*
D03*
Y284500D02*
D03*
Y304500D02*
D03*
D21*
X312000Y377000D02*
D03*
X424000D02*
D03*
D22*
X431000Y316000D02*
D03*
Y349000D02*
D03*
X305000D02*
D03*
Y316000D02*
D03*
D23*
X329500Y310000D02*
D03*
X339500D02*
D03*
X349500D02*
D03*
X354500Y320000D02*
D03*
X344500D02*
D03*
X334500D02*
D03*
X324500D02*
D03*
Y344500D02*
D03*
X334500D02*
D03*
X344500D02*
D03*
X319500Y334500D02*
D03*
X349500D02*
D03*
X339500D02*
D03*
X329500D02*
D03*
X391500Y310000D02*
D03*
X401500D02*
D03*
X411500D02*
D03*
X416500Y320000D02*
D03*
X406500D02*
D03*
X396500D02*
D03*
X386500D02*
D03*
Y344500D02*
D03*
X396500D02*
D03*
X406500D02*
D03*
X411500Y334500D02*
D03*
X401500D02*
D03*
X381500D02*
D03*
X391500D02*
D03*
X336000Y206500D02*
D03*
X316000D02*
D03*
X376000D02*
D03*
X356000D02*
D03*
X416000D02*
D03*
X396000D02*
D03*
D24*
X319500Y310000D02*
D03*
X354500Y344500D02*
D03*
X381500Y310000D02*
D03*
X416500Y344500D02*
D03*
D25*
X194095Y365000D02*
D03*
X203071D02*
D03*
X212047D02*
D03*
X221024D02*
D03*
X230000D02*
D03*
X203071Y345000D02*
D03*
X212047D02*
D03*
X221024D02*
D03*
X230000D02*
D03*
X225512Y355000D02*
D03*
X216535D02*
D03*
X207559D02*
D03*
X198583D02*
D03*
X189606D02*
D03*
D26*
X194173Y345158D02*
D03*
D27*
X161929Y355000D02*
D03*
X260315D02*
D03*
D28*
X482342Y388405D02*
D03*
X478406Y372657D02*
D03*
X462657Y376594D02*
D03*
X478406Y392342D02*
D03*
X482342Y376594D02*
D03*
X466595Y372657D02*
D03*
Y392342D02*
D03*
X462657Y388405D02*
D03*
X461250Y382500D02*
D03*
X472500Y371250D02*
D03*
X483750Y382500D02*
D03*
X472500Y393750D02*
D03*
X127342Y388405D02*
D03*
X123406Y372657D02*
D03*
X107658Y376594D02*
D03*
X123406Y392342D02*
D03*
X127342Y376594D02*
D03*
X111594Y372657D02*
D03*
Y392342D02*
D03*
X107658Y388405D02*
D03*
X106250Y382500D02*
D03*
X117500Y371250D02*
D03*
X128750Y382500D02*
D03*
X117500Y393750D02*
D03*
X482342Y123406D02*
D03*
X478406Y107658D02*
D03*
X462657Y111594D02*
D03*
X478406Y127342D02*
D03*
X482342Y111594D02*
D03*
X466595Y107658D02*
D03*
Y127342D02*
D03*
X462657Y123406D02*
D03*
X461250Y117500D02*
D03*
X472500Y106250D02*
D03*
X483750Y117500D02*
D03*
X472500Y128750D02*
D03*
X127342Y123406D02*
D03*
X123406Y107658D02*
D03*
X107658Y111594D02*
D03*
X123406Y127342D02*
D03*
X127342Y111594D02*
D03*
X111594Y107658D02*
D03*
Y127342D02*
D03*
X107658Y123406D02*
D03*
X106250Y117500D02*
D03*
X117500Y106250D02*
D03*
X128750Y117500D02*
D03*
X117500Y128750D02*
D03*
D29*
X472500Y382500D02*
D03*
X117500D02*
D03*
X472500Y117500D02*
D03*
X117500D02*
D03*
D30*
X458677Y203323D02*
D03*
D31*
X446354Y215646D02*
D03*
X471000D02*
D03*
Y191000D02*
D03*
X446354D02*
D03*
D32*
X336000Y216500D02*
D03*
X316000D02*
D03*
X376000D02*
D03*
X356000D02*
D03*
X416000D02*
D03*
X396000D02*
D03*
M02*
