G04*
G04 #@! TF.GenerationSoftware,Altium Limited,Altium Designer,22.9.1 (49)*
G04*
G04 Layer_Color=2752767*
%FSLAX25Y25*%
%MOIN*%
G70*
G04*
G04 #@! TF.SameCoordinates,30CEAF04-E3BD-4145-9B8D-8DB9266C66AB*
G04*
G04*
G04 #@! TF.FilePolarity,Positive*
G04*
G01*
G75*
%ADD12C,0.01000*%
%ADD49C,0.00200*%
%ADD50C,0.00267*%
D12*
X120000Y240000D02*
G03*
X100000Y220000I0J-20000D01*
G01*
X350000D02*
G03*
X330000Y240000I-20000J0D01*
G01*
Y0D02*
G03*
X350000Y20000I0J20000D01*
G01*
X100000D02*
G03*
X120000Y0I20000J0D01*
G01*
Y240000D02*
X330000D01*
X350000Y20000D02*
Y220000D01*
X120000Y0D02*
X330000D01*
X100000Y20000D02*
Y220000D01*
D49*
X315000Y136149D02*
X314200Y137749D01*
X315800D01*
X315000Y136149D01*
Y127172D02*
X314200Y128772D01*
X315800D01*
X315000Y127172D01*
Y118196D02*
X314200Y119796D01*
X315800D01*
X315000Y118196D01*
Y109220D02*
X314200Y110820D01*
X315800D01*
X315000Y109220D01*
Y100243D02*
X314200Y101843D01*
X315800D01*
X315000Y100243D01*
X295000D02*
X294200Y101843D01*
X295800D01*
X295000Y100243D01*
X305000Y113708D02*
X304200Y115308D01*
X305800D01*
X305000Y113708D01*
X295000Y109220D02*
X294200Y110820D01*
X295800D01*
X295000Y109220D01*
X305000Y122684D02*
X304200Y124284D01*
X305800D01*
X305000Y122684D01*
X295000Y118196D02*
X294200Y119796D01*
X295800D01*
X295000Y118196D01*
X305000Y131661D02*
X304200Y133261D01*
X305800D01*
X305000Y131661D01*
X295000Y127172D02*
X294200Y128772D01*
X295800D01*
X295000Y127172D01*
X305000Y104732D02*
X304200Y106332D01*
X305800D01*
X305000Y104732D01*
Y140637D02*
X304200Y142237D01*
X305800D01*
X305000Y140637D01*
X295000Y136149D02*
X294200Y137749D01*
X295800D01*
X295000Y136149D01*
X305000Y168393D02*
X305400Y168793D01*
X305800D01*
X305400Y169193D01*
X305800Y169593D01*
X305400D01*
X305000Y169993D01*
X304600Y169593D01*
X304200D01*
X304600Y169193D01*
X304200Y168793D01*
X304600D01*
X305000Y168393D01*
Y70007D02*
X305400Y70407D01*
X305800D01*
X305400Y70807D01*
X305800Y71207D01*
X305400D01*
X305000Y71607D01*
X304600Y71207D01*
X304200D01*
X304600Y70807D01*
X304200Y70407D01*
X304600D01*
X305000Y70007D01*
X137200Y119200D02*
Y120800D01*
X138800D01*
Y119200D01*
X137200D01*
Y124200D02*
Y125800D01*
X138800D01*
Y124200D01*
X137200D01*
Y129200D02*
Y130800D01*
X138800D01*
Y129200D01*
X137200D01*
Y114200D02*
Y115800D01*
X138800D01*
Y114200D01*
X137200D01*
Y109200D02*
Y110800D01*
X138800D01*
Y109200D01*
X137200D01*
X127200Y121700D02*
Y123300D01*
X128800D01*
Y121700D01*
X127200D01*
Y126700D02*
Y128300D01*
X128800D01*
Y126700D01*
X127200D01*
Y111700D02*
Y113300D01*
X128800D01*
Y111700D01*
X127200D01*
Y116700D02*
Y118300D01*
X128800D01*
Y116700D01*
X127200D01*
X274015Y39700D02*
X274415D01*
X274815Y40100D01*
X275215Y39700D01*
X275615D01*
Y40100D01*
X275215Y40500D01*
X275615Y40900D01*
Y41300D01*
X275215D01*
X274815Y40900D01*
X274415Y41300D01*
X274015D01*
Y40900D01*
X274415Y40500D01*
X274015Y40100D01*
Y39700D01*
X293700D02*
X294100D01*
X294500Y40100D01*
X294900Y39700D01*
X295300D01*
Y40100D01*
X294900Y40500D01*
X295300Y40900D01*
Y41300D01*
X294900D01*
X294500Y40900D01*
X294100Y41300D01*
X293700D01*
Y40900D01*
X294100Y40500D01*
X293700Y40100D01*
Y39700D01*
X313385D02*
X313785D01*
X314185Y40100D01*
X314585Y39700D01*
X314985D01*
Y40100D01*
X314585Y40500D01*
X314985Y40900D01*
Y41300D01*
X314585D01*
X314185Y40900D01*
X313785Y41300D01*
X313385D01*
Y40900D01*
X313785Y40500D01*
X313385Y40100D01*
Y39700D01*
X333070D02*
X333470D01*
X333870Y40100D01*
X334270Y39700D01*
X334670D01*
Y40100D01*
X334270Y40500D01*
X334670Y40900D01*
Y41300D01*
X334270D01*
X333870Y40900D01*
X333470Y41300D01*
X333070D01*
Y40900D01*
X333470Y40500D01*
X333070Y40100D01*
Y39700D01*
X274015Y20015D02*
X274415D01*
X274815Y20415D01*
X275215Y20015D01*
X275615D01*
Y20415D01*
X275215Y20815D01*
X275615Y21215D01*
Y21615D01*
X275215D01*
X274815Y21215D01*
X274415Y21615D01*
X274015D01*
Y21215D01*
X274415Y20815D01*
X274015Y20415D01*
Y20015D01*
X293700D02*
X294100D01*
X294500Y20415D01*
X294900Y20015D01*
X295300D01*
Y20415D01*
X294900Y20815D01*
X295300Y21215D01*
Y21615D01*
X294900D01*
X294500Y21215D01*
X294100Y21615D01*
X293700D01*
Y21215D01*
X294100Y20815D01*
X293700Y20415D01*
Y20015D01*
X313385D02*
X313785D01*
X314185Y20415D01*
X314585Y20015D01*
X314985D01*
Y20415D01*
X314585Y20815D01*
X314985Y21215D01*
Y21615D01*
X314585D01*
X314185Y21215D01*
X313785Y21615D01*
X313385D01*
Y21215D01*
X313785Y20815D01*
X313385Y20415D01*
Y20015D01*
X333070D02*
X333470D01*
X333870Y20415D01*
X334270Y20015D01*
X334670D01*
Y20415D01*
X334270Y20815D01*
X334670Y21215D01*
Y21615D01*
X334270D01*
X333870Y21215D01*
X333470Y21615D01*
X333070D01*
Y21215D01*
X333470Y20815D01*
X333070Y20415D01*
Y20015D01*
X119200Y19200D02*
X119600Y20000D01*
X119200Y20800D01*
X120000Y20400D01*
X120800Y20800D01*
X120400Y20000D01*
X120800Y19200D01*
X120000Y19600D01*
X119200Y19200D01*
X129443Y25506D02*
Y25106D01*
X130243D01*
Y25506D01*
X130642D01*
Y26305D01*
X130243D01*
Y26706D01*
X129443D01*
Y26305D01*
X129042D01*
Y25506D01*
X129443D01*
X125505Y9758D02*
Y9358D01*
X126305D01*
Y9758D01*
X126706D01*
Y10558D01*
X126305D01*
Y10958D01*
X125505D01*
Y10558D01*
X125106D01*
Y9758D01*
X125505D01*
X109757Y13694D02*
Y13295D01*
X110557D01*
Y13694D01*
X110958D01*
Y14494D01*
X110557D01*
Y14895D01*
X109757D01*
Y14494D01*
X109358D01*
Y13694D01*
X109757D01*
X125505Y29443D02*
Y29043D01*
X126305D01*
Y29443D01*
X126706D01*
Y30242D01*
X126305D01*
Y30643D01*
X125505D01*
Y30242D01*
X125106D01*
Y29443D01*
X125505D01*
X129443Y13694D02*
Y13295D01*
X130243D01*
Y13694D01*
X130642D01*
Y14494D01*
X130243D01*
Y14895D01*
X129443D01*
Y14494D01*
X129042D01*
Y13694D01*
X129443D01*
X113695Y9758D02*
Y9358D01*
X114495D01*
Y9758D01*
X114894D01*
Y10558D01*
X114495D01*
Y10958D01*
X113695D01*
Y10558D01*
X113294D01*
Y9758D01*
X113695D01*
Y29443D02*
Y29043D01*
X114495D01*
Y29443D01*
X114894D01*
Y30242D01*
X114495D01*
Y30643D01*
X113695D01*
Y30242D01*
X113294D01*
Y29443D01*
X113695D01*
X108350Y19600D02*
Y19200D01*
X109150D01*
Y19600D01*
X109550D01*
Y20400D01*
X109150D01*
Y20800D01*
X108350D01*
Y20400D01*
X107950D01*
Y19600D01*
X108350D01*
X119600Y8350D02*
Y7950D01*
X120400D01*
Y8350D01*
X120800D01*
Y9150D01*
X120400D01*
Y9550D01*
X119600D01*
Y9150D01*
X119200D01*
Y8350D01*
X119600D01*
X130850Y19600D02*
Y19200D01*
X131650D01*
Y19600D01*
X132050D01*
Y20400D01*
X131650D01*
Y20800D01*
X130850D01*
Y20400D01*
X130450D01*
Y19600D01*
X130850D01*
X119600Y30850D02*
Y30450D01*
X120400D01*
Y30850D01*
X120800D01*
Y31650D01*
X120400D01*
Y32050D01*
X119600D01*
Y31650D01*
X119200D01*
Y30850D01*
X119600D01*
X109757Y25506D02*
Y25106D01*
X110557D01*
Y25506D01*
X110958D01*
Y26305D01*
X110557D01*
Y26706D01*
X109757D01*
Y26305D01*
X109358D01*
Y25506D01*
X109757D01*
X119200Y219200D02*
X119600Y220000D01*
X119200Y220800D01*
X120000Y220400D01*
X120800Y220800D01*
X120400Y220000D01*
X120800Y219200D01*
X120000Y219600D01*
X119200Y219200D01*
X129443Y225505D02*
Y225106D01*
X130243D01*
Y225505D01*
X130642D01*
Y226306D01*
X130243D01*
Y226706D01*
X129443D01*
Y226306D01*
X129042D01*
Y225505D01*
X129443D01*
X125505Y209757D02*
Y209358D01*
X126305D01*
Y209757D01*
X126706D01*
Y210558D01*
X126305D01*
Y210958D01*
X125505D01*
Y210558D01*
X125106D01*
Y209757D01*
X125505D01*
X109757Y213695D02*
Y213295D01*
X110557D01*
Y213695D01*
X110958D01*
Y214494D01*
X110557D01*
Y214895D01*
X109757D01*
Y214494D01*
X109358D01*
Y213695D01*
X109757D01*
X125505Y229443D02*
Y229043D01*
X126305D01*
Y229443D01*
X126706D01*
Y230242D01*
X126305D01*
Y230643D01*
X125505D01*
Y230242D01*
X125106D01*
Y229443D01*
X125505D01*
X129443Y213695D02*
Y213295D01*
X130243D01*
Y213695D01*
X130642D01*
Y214494D01*
X130243D01*
Y214895D01*
X129443D01*
Y214494D01*
X129042D01*
Y213695D01*
X129443D01*
X113695Y209757D02*
Y209358D01*
X114495D01*
Y209757D01*
X114894D01*
Y210558D01*
X114495D01*
Y210958D01*
X113695D01*
Y210558D01*
X113294D01*
Y209757D01*
X113695D01*
Y229443D02*
Y229043D01*
X114495D01*
Y229443D01*
X114894D01*
Y230242D01*
X114495D01*
Y230643D01*
X113695D01*
Y230242D01*
X113294D01*
Y229443D01*
X113695D01*
X108350Y219600D02*
Y219200D01*
X109150D01*
Y219600D01*
X109550D01*
Y220400D01*
X109150D01*
Y220800D01*
X108350D01*
Y220400D01*
X107950D01*
Y219600D01*
X108350D01*
X119600Y208350D02*
Y207950D01*
X120400D01*
Y208350D01*
X120800D01*
Y209150D01*
X120400D01*
Y209550D01*
X119600D01*
Y209150D01*
X119200D01*
Y208350D01*
X119600D01*
X130850Y219600D02*
Y219200D01*
X131650D01*
Y219600D01*
X132050D01*
Y220400D01*
X131650D01*
Y220800D01*
X130850D01*
Y220400D01*
X130450D01*
Y219600D01*
X130850D01*
X119600Y230850D02*
Y230450D01*
X120400D01*
Y230850D01*
X120800D01*
Y231650D01*
X120400D01*
Y232050D01*
X119600D01*
Y231650D01*
X119200D01*
Y230850D01*
X119600D01*
X109757Y225505D02*
Y225106D01*
X110557D01*
Y225505D01*
X110958D01*
Y226306D01*
X110557D01*
Y226706D01*
X109757D01*
Y226306D01*
X109358D01*
Y225505D01*
X109757D01*
X331100Y185382D02*
Y184982D01*
X331900D01*
Y185382D01*
X332300D01*
Y186182D01*
X331900D01*
Y186582D01*
X331100D01*
Y186182D01*
X330700D01*
Y185382D01*
X331100D01*
X335447Y185100D02*
Y184700D01*
X336246D01*
Y185100D01*
X336647D01*
Y185900D01*
X336246D01*
Y186300D01*
X335447D01*
Y185900D01*
X335047D01*
Y185100D01*
X335447D01*
X324600Y185600D02*
Y185200D01*
X325400D01*
Y185600D01*
X325800D01*
Y186400D01*
X325400D01*
Y186800D01*
X324600D01*
Y186400D01*
X324200D01*
Y185600D01*
X324600D01*
X319600D02*
Y185200D01*
X320400D01*
Y185600D01*
X320800D01*
Y186400D01*
X320400D01*
Y186800D01*
X319600D01*
Y186400D01*
X319200D01*
Y185600D01*
X319600D01*
X246100Y11100D02*
Y10700D01*
X246900D01*
Y11100D01*
X247300D01*
Y11900D01*
X246900D01*
Y12300D01*
X246100D01*
Y11900D01*
X245700D01*
Y11100D01*
X246100D01*
Y21100D02*
Y20700D01*
X246900D01*
Y21100D01*
X247300D01*
Y21900D01*
X246900D01*
Y22300D01*
X246100D01*
Y21900D01*
X245700D01*
Y21100D01*
X246100D01*
Y31100D02*
Y30700D01*
X246900D01*
Y31100D01*
X247300D01*
Y31900D01*
X246900D01*
Y32300D01*
X246100D01*
Y31900D01*
X245700D01*
Y31100D01*
X246100D01*
Y41100D02*
Y40700D01*
X246900D01*
Y41100D01*
X247300D01*
Y41900D01*
X246900D01*
Y42300D01*
X246100D01*
Y41900D01*
X245700D01*
Y41100D01*
X246100D01*
X335447Y196600D02*
Y196200D01*
X336246D01*
Y196600D01*
X336647D01*
Y197400D01*
X336246D01*
Y197800D01*
X335447D01*
Y197400D01*
X335047D01*
Y196600D01*
X335447D01*
X324600Y213600D02*
Y213200D01*
X325400D01*
Y213600D01*
X325800D01*
Y214400D01*
X325400D01*
Y214800D01*
X324600D01*
Y214400D01*
X324200D01*
Y213600D01*
X324600D01*
X188600Y156100D02*
Y155700D01*
X189400D01*
Y156100D01*
X189800D01*
Y156900D01*
X189400D01*
Y157300D01*
X188600D01*
Y156900D01*
X188200D01*
Y156100D01*
X188600D01*
X183600Y123100D02*
Y122700D01*
X184400D01*
Y123100D01*
X184800D01*
Y123900D01*
X184400D01*
Y124300D01*
X183600D01*
Y123900D01*
X183200D01*
Y123100D01*
X183600D01*
X188575Y83533D02*
Y83133D01*
X189375D01*
Y83533D01*
X189775D01*
Y84333D01*
X189375D01*
Y84733D01*
X188575D01*
Y84333D01*
X188175D01*
Y83533D01*
X188575D01*
X171100Y190100D02*
Y189700D01*
X171900D01*
Y190100D01*
X172300D01*
Y190900D01*
X171900D01*
Y191300D01*
X171100D01*
Y190900D01*
X170700D01*
Y190100D01*
X171100D01*
X166100Y198600D02*
Y198200D01*
X166900D01*
Y198600D01*
X167300D01*
Y199400D01*
X166900D01*
Y199800D01*
X166100D01*
Y199400D01*
X165700D01*
Y198600D01*
X166100D01*
X163600Y51519D02*
Y51119D01*
X164400D01*
Y51519D01*
X164800D01*
Y52319D01*
X164400D01*
Y52719D01*
X163600D01*
Y52319D01*
X163200D01*
Y51519D01*
X163600D01*
X150100Y141100D02*
Y140700D01*
X150900D01*
Y141100D01*
X151300D01*
Y141900D01*
X150900D01*
Y142300D01*
X150100D01*
Y141900D01*
X149700D01*
Y141100D01*
X150100D01*
X162100D02*
Y140700D01*
X162900D01*
Y141100D01*
X163300D01*
Y141900D01*
X162900D01*
Y142300D01*
X162100D01*
Y141900D01*
X161700D01*
Y141100D01*
X162100D01*
X159600Y73100D02*
Y72700D01*
X160400D01*
Y73100D01*
X160800D01*
Y73900D01*
X160400D01*
Y74300D01*
X159600D01*
Y73900D01*
X159200D01*
Y73100D01*
X159600D01*
X151600Y87100D02*
Y86700D01*
X152400D01*
Y87100D01*
X152800D01*
Y87900D01*
X152400D01*
Y88300D01*
X151600D01*
Y87900D01*
X151200D01*
Y87100D01*
X151600D01*
X192600Y112100D02*
Y111700D01*
X193400D01*
Y112100D01*
X193800D01*
Y112900D01*
X193400D01*
Y113300D01*
X192600D01*
Y112900D01*
X192200D01*
Y112100D01*
X192600D01*
X177600D02*
Y111700D01*
X178400D01*
Y112100D01*
X178800D01*
Y112900D01*
X178400D01*
Y113300D01*
X177600D01*
Y112900D01*
X177200D01*
Y112100D01*
X177600D01*
X198600Y127100D02*
Y126700D01*
X199400D01*
Y127100D01*
X199800D01*
Y127900D01*
X199400D01*
Y128300D01*
X198600D01*
Y127900D01*
X198200D01*
Y127100D01*
X198600D01*
X224100Y155600D02*
Y155200D01*
X224900D01*
Y155600D01*
X225300D01*
Y156400D01*
X224900D01*
Y156800D01*
X224100D01*
Y156400D01*
X223700D01*
Y155600D01*
X224100D01*
X249100Y92100D02*
Y91700D01*
X249900D01*
Y92100D01*
X250300D01*
Y92900D01*
X249900D01*
Y93300D01*
X249100D01*
Y92900D01*
X248700D01*
Y92100D01*
X249100D01*
X215100Y146600D02*
Y146200D01*
X215900D01*
Y146600D01*
X216300D01*
Y147400D01*
X215900D01*
Y147800D01*
X215100D01*
Y147400D01*
X214700D01*
Y146600D01*
X215100D01*
X159600Y150250D02*
Y149850D01*
X160400D01*
Y150250D01*
X160800D01*
Y151050D01*
X160400D01*
Y151450D01*
X159600D01*
Y151050D01*
X159200D01*
Y150250D01*
X159600D01*
X172100Y146600D02*
Y146200D01*
X172900D01*
Y146600D01*
X173300D01*
Y147400D01*
X172900D01*
Y147800D01*
X172100D01*
Y147400D01*
X171700D01*
Y146600D01*
X172100D01*
X207600Y92100D02*
Y91700D01*
X208400D01*
Y92100D01*
X208800D01*
Y92900D01*
X208400D01*
Y93300D01*
X207600D01*
Y92900D01*
X207200D01*
Y92100D01*
X207600D01*
X163600Y30600D02*
Y30200D01*
X164400D01*
Y30600D01*
X164800D01*
Y31400D01*
X164400D01*
Y31800D01*
X163600D01*
Y31400D01*
X163200D01*
Y30600D01*
X163600D01*
X253600Y176100D02*
Y175700D01*
X254400D01*
Y176100D01*
X254800D01*
Y176900D01*
X254400D01*
Y177300D01*
X253600D01*
Y176900D01*
X253200D01*
Y176100D01*
X253600D01*
X260100Y159100D02*
Y158700D01*
X260900D01*
Y159100D01*
X261300D01*
Y159900D01*
X260900D01*
Y160300D01*
X260100D01*
Y159900D01*
X259700D01*
Y159100D01*
X260100D01*
X188600Y184600D02*
Y184200D01*
X189400D01*
Y184600D01*
X189800D01*
Y185400D01*
X189400D01*
Y185800D01*
X188600D01*
Y185400D01*
X188200D01*
Y184600D01*
X188600D01*
X230600Y60100D02*
Y59700D01*
X231400D01*
Y60100D01*
X231800D01*
Y60900D01*
X231400D01*
Y61300D01*
X230600D01*
Y60900D01*
X230200D01*
Y60100D01*
X230600D01*
Y55100D02*
Y54700D01*
X231400D01*
Y55100D01*
X231800D01*
Y55900D01*
X231400D01*
Y56300D01*
X230600D01*
Y55900D01*
X230200D01*
Y55100D01*
X230600D01*
X260100Y87100D02*
Y86700D01*
X260900D01*
Y87100D01*
X261300D01*
Y87900D01*
X260900D01*
Y88300D01*
X260100D01*
Y87900D01*
X259700D01*
Y87100D01*
X260100D01*
Y104600D02*
Y104200D01*
X260900D01*
Y104600D01*
X261300D01*
Y105400D01*
X260900D01*
Y105800D01*
X260100D01*
Y105400D01*
X259700D01*
Y104600D01*
X260100D01*
X180600Y26600D02*
Y26200D01*
X181400D01*
Y26600D01*
X181800D01*
Y27400D01*
X181400D01*
Y27800D01*
X180600D01*
Y27400D01*
X180200D01*
Y26600D01*
X180600D01*
X199600Y50100D02*
Y49700D01*
X200400D01*
Y50100D01*
X200800D01*
Y50900D01*
X200400D01*
Y51300D01*
X199600D01*
Y50900D01*
X199200D01*
Y50100D01*
X199600D01*
X159600Y111100D02*
Y110700D01*
X160400D01*
Y111100D01*
X160800D01*
Y111900D01*
X160400D01*
Y112300D01*
X159600D01*
Y111900D01*
X159200D01*
Y111100D01*
X159600D01*
Y128100D02*
Y127700D01*
X160400D01*
Y128100D01*
X160800D01*
Y128900D01*
X160400D01*
Y129300D01*
X159600D01*
Y128900D01*
X159200D01*
Y128100D01*
X159600D01*
X260600Y141600D02*
Y141200D01*
X261400D01*
Y141600D01*
X261800D01*
Y142400D01*
X261400D01*
Y142800D01*
X260600D01*
Y142400D01*
X260200D01*
Y141600D01*
X260600D01*
X200600Y226600D02*
Y226200D01*
X201400D01*
Y226600D01*
X201800D01*
Y227400D01*
X201400D01*
Y227800D01*
X200600D01*
Y227400D01*
X200200D01*
Y226600D01*
X200600D01*
X188600Y206100D02*
Y205700D01*
X189400D01*
Y206100D01*
X189800D01*
Y206900D01*
X189400D01*
Y207300D01*
X188600D01*
Y206900D01*
X188200D01*
Y206100D01*
X188600D01*
X166600Y218600D02*
Y218200D01*
X167400D01*
Y218600D01*
X167800D01*
Y219400D01*
X167400D01*
Y219800D01*
X166600D01*
Y219400D01*
X166200D01*
Y218600D01*
X166600D01*
Y214600D02*
Y214200D01*
X167400D01*
Y214600D01*
X167800D01*
Y215400D01*
X167400D01*
Y215800D01*
X166600D01*
Y215400D01*
X166200D01*
Y214600D01*
X166600D01*
X128600Y189600D02*
Y189200D01*
X129400D01*
Y189600D01*
X129800D01*
Y190400D01*
X129400D01*
Y190800D01*
X128600D01*
Y190400D01*
X128200D01*
Y189600D01*
X128600D01*
X114100D02*
Y189200D01*
X114900D01*
Y189600D01*
X115300D01*
Y190400D01*
X114900D01*
Y190800D01*
X114100D01*
Y190400D01*
X113700D01*
Y189600D01*
X114100D01*
X331100Y203600D02*
Y203200D01*
X331900D01*
Y203600D01*
X332300D01*
Y204400D01*
X331900D01*
Y204800D01*
X331100D01*
Y204400D01*
X330700D01*
Y203600D01*
X331100D01*
X319600Y223100D02*
Y222700D01*
X320400D01*
Y223100D01*
X320800D01*
Y223900D01*
X320400D01*
Y224300D01*
X319600D01*
Y223900D01*
X319200D01*
Y223100D01*
X319600D01*
D50*
X123800Y148248D02*
G03*
X123800Y148248I-800J0D01*
G01*
Y91752D02*
G03*
X123800Y91752I-800J0D01*
G01*
M02*
