G04*
G04 #@! TF.GenerationSoftware,Altium Limited,Altium Designer,22.9.1 (49)*
G04*
G04 Layer_Physical_Order=1*
G04 Layer_Color=255*
%FSLAX25Y25*%
%MOIN*%
G70*
G04*
G04 #@! TF.SameCoordinates,30CEAF04-E3BD-4145-9B8D-8DB9266C66AB*
G04*
G04*
G04 #@! TF.FilePolarity,Positive*
G04*
G01*
G75*
%ADD12C,0.01000*%
%ADD30R,0.03740X0.03740*%
%ADD31R,0.03740X0.03740*%
%ADD32R,0.06299X0.03937*%
%ADD33R,0.04331X0.02362*%
%ADD34O,0.05709X0.02362*%
%ADD35R,0.03937X0.06299*%
%ADD36R,0.06102X0.03937*%
%ADD37O,0.03150X0.01772*%
%ADD38C,0.00600*%
%ADD39C,0.02000*%
%ADD40C,0.02500*%
%ADD41C,0.05906*%
%ADD42C,0.19685*%
%ADD43C,0.03740*%
%ADD44C,0.15748*%
%ADD45C,0.07874*%
%ADD46C,0.30000*%
%ADD47C,0.03000*%
%ADD48C,0.02800*%
G36*
X120778Y240458D02*
X330000Y240040D01*
X330000Y240040D01*
X330000Y240040D01*
X331312Y240037D01*
X333912Y239690D01*
X336445Y239007D01*
X338868Y237999D01*
X341138Y236684D01*
X343218Y235085D01*
X345071Y233228D01*
X346667Y231145D01*
X347977Y228872D01*
X348980Y226448D01*
X349658Y223913D01*
X350000Y221312D01*
X350000Y220000D01*
X350000Y20000D01*
X350000Y20000D01*
Y18689D01*
X349658Y16090D01*
X348979Y13557D01*
X347976Y11135D01*
X346665Y8865D01*
X345069Y6785D01*
X343215Y4931D01*
X341135Y3335D01*
X338865Y2024D01*
X336443Y1021D01*
X333910Y342D01*
X331311Y0D01*
X118689D01*
X116090Y342D01*
X113557Y1021D01*
X111135Y2024D01*
X108865Y3335D01*
X106785Y4931D01*
X104931Y6785D01*
X103335Y8865D01*
X102024Y11135D01*
X101021Y13557D01*
X100342Y16090D01*
X100000Y18689D01*
X100000Y20000D01*
Y219722D01*
X100000Y221083D01*
X100356Y223781D01*
X101061Y226410D01*
X102104Y228924D01*
X103466Y231280D01*
X105125Y233438D01*
X107051Y235361D01*
X109213Y237015D01*
X111572Y238373D01*
X114088Y239411D01*
X116718Y240111D01*
X119417Y240461D01*
X120778Y240458D01*
D02*
G37*
%LPC*%
G36*
X210563Y224870D02*
X208193D01*
Y222500D01*
X210563D01*
Y224870D01*
D02*
G37*
G36*
X238750Y226569D02*
X231250D01*
Y223018D01*
X224524Y216292D01*
X224402Y216316D01*
X221055D01*
X220360Y216178D01*
X219771Y215784D01*
X219377Y215195D01*
X219239Y214500D01*
X219377Y213805D01*
X219771Y213216D01*
X220360Y212822D01*
X221055Y212684D01*
X224402D01*
X225097Y212822D01*
X225686Y213216D01*
X226079Y213805D01*
X226218Y214500D01*
X226166Y214761D01*
X232837Y221431D01*
X238750D01*
Y222378D01*
X318300D01*
X318304Y222367D01*
X318867Y221804D01*
X319602Y221500D01*
X320398D01*
X321133Y221804D01*
X321695Y222367D01*
X322000Y223102D01*
Y223898D01*
X321695Y224633D01*
X321133Y225196D01*
X320398Y225500D01*
X319602D01*
X318867Y225196D01*
X318304Y224633D01*
X318300Y224622D01*
X238750D01*
Y226569D01*
D02*
G37*
G36*
X174616Y224521D02*
X169085D01*
Y223658D01*
X155240D01*
X154889Y223588D01*
X154591Y223389D01*
X151851Y220649D01*
X151652Y220351D01*
X151582Y220000D01*
Y179500D01*
X151652Y179149D01*
X151851Y178851D01*
X154851Y175851D01*
X155149Y175652D01*
X155500Y175582D01*
X252215D01*
X252305Y175367D01*
X252867Y174804D01*
X253602Y174500D01*
X254398D01*
X255133Y174804D01*
X255696Y175367D01*
X256000Y176102D01*
Y176898D01*
X255696Y177633D01*
X255133Y178196D01*
X254398Y178500D01*
X253602D01*
X252867Y178196D01*
X252305Y177633D01*
X252215Y177418D01*
X155880D01*
X153418Y179880D01*
Y219620D01*
X155620Y221823D01*
X168731D01*
X169085Y221469D01*
X169085Y220959D01*
X168615Y220886D01*
X167673D01*
X167398Y221000D01*
X166602D01*
X165867Y220695D01*
X165305Y220133D01*
X165000Y219398D01*
Y218602D01*
X165305Y217867D01*
X165867Y217304D01*
X165999Y217250D01*
Y216750D01*
X165867Y216695D01*
X165305Y216133D01*
X165000Y215398D01*
Y214602D01*
X165114Y214328D01*
Y211470D01*
X164530D01*
Y211284D01*
X164441Y211224D01*
X163177D01*
Y211870D01*
X160807D01*
Y209000D01*
Y206130D01*
X163177D01*
Y206776D01*
X164441D01*
X164530Y206716D01*
Y206530D01*
X169470D01*
Y211470D01*
X168886D01*
Y213305D01*
X171782D01*
X172503Y213448D01*
X172549Y213479D01*
X174616D01*
Y217041D01*
X174616D01*
Y217219D01*
X174616D01*
Y220459D01*
X174616Y220781D01*
X174616Y221281D01*
Y224521D01*
D02*
G37*
G36*
X121259Y236000D02*
X120500D01*
Y220500D01*
X136000D01*
Y221259D01*
X135606Y223747D01*
X134828Y226142D01*
X133684Y228386D01*
X132204Y230423D01*
X130423Y232204D01*
X128386Y233684D01*
X126142Y234828D01*
X123747Y235606D01*
X121259Y236000D01*
D02*
G37*
G36*
X119500D02*
X118741D01*
X116253Y235606D01*
X113858Y234828D01*
X111614Y233684D01*
X109577Y232204D01*
X107796Y230423D01*
X106316Y228386D01*
X105172Y226142D01*
X104394Y223747D01*
X104000Y221259D01*
Y220500D01*
X119500D01*
Y236000D01*
D02*
G37*
G36*
X210563Y221500D02*
X208193D01*
Y219130D01*
X210563D01*
Y221500D01*
D02*
G37*
G36*
X201398Y229000D02*
X200602D01*
X199867Y228696D01*
X199304Y228133D01*
X199000Y227398D01*
Y226602D01*
X199114Y226327D01*
Y224470D01*
X198530D01*
Y219530D01*
X199114D01*
Y216220D01*
X198904Y216178D01*
X198314Y215784D01*
X197921Y215195D01*
X197782Y214500D01*
X197921Y213805D01*
X198314Y213216D01*
X198904Y212822D01*
X199598Y212684D01*
X200716D01*
X201069Y212614D01*
X201272D01*
X201625Y212684D01*
X202945D01*
X203640Y212822D01*
X204229Y213216D01*
X204623Y213805D01*
X204761Y214500D01*
X204623Y215195D01*
X204229Y215784D01*
X203640Y216178D01*
X202945Y216316D01*
X202886D01*
Y219530D01*
X203470D01*
Y219716D01*
X203559Y219776D01*
X204823D01*
Y219130D01*
X207193D01*
Y222000D01*
Y224870D01*
X204823D01*
Y224224D01*
X203559D01*
X203470Y224284D01*
Y224470D01*
X202886D01*
Y226327D01*
X203000Y226602D01*
Y227398D01*
X202695Y228133D01*
X202133Y228696D01*
X201398Y229000D01*
D02*
G37*
G36*
X191839Y220870D02*
X189469D01*
Y218500D01*
X191839D01*
Y220870D01*
D02*
G37*
G36*
X188469D02*
X186098D01*
Y218500D01*
X188469D01*
Y220870D01*
D02*
G37*
G36*
X238750Y216568D02*
X231250D01*
Y215122D01*
X230000D01*
X230000Y215122D01*
X229571Y215036D01*
X229207Y214793D01*
X225393Y210979D01*
X225097Y211178D01*
X224402Y211316D01*
X221055D01*
X220360Y211178D01*
X219771Y210784D01*
X219377Y210195D01*
X219239Y209500D01*
X219377Y208805D01*
X219771Y208216D01*
X220360Y207822D01*
X221055Y207684D01*
X224402D01*
X225097Y207822D01*
X225686Y208216D01*
X226000Y208687D01*
X226190Y208724D01*
X226554Y208968D01*
X230465Y212878D01*
X231250D01*
Y211432D01*
X238750D01*
Y212878D01*
X323300D01*
X323305Y212867D01*
X323867Y212304D01*
X324602Y212000D01*
X325398D01*
X326133Y212304D01*
X326695Y212867D01*
X327000Y213602D01*
Y214398D01*
X326695Y215133D01*
X326133Y215696D01*
X325398Y216000D01*
X324602D01*
X323867Y215696D01*
X323305Y215133D01*
X323300Y215122D01*
X238750D01*
Y216568D01*
D02*
G37*
G36*
X159807Y211870D02*
X157437D01*
Y209500D01*
X159807D01*
Y211870D01*
D02*
G37*
G36*
X184852Y224521D02*
X179321D01*
Y221181D01*
X178921D01*
Y219500D01*
X182087D01*
X185252D01*
Y221181D01*
X184852D01*
Y221823D01*
X194380D01*
X194582Y221620D01*
Y210500D01*
X194652Y210149D01*
X194851Y209851D01*
X195851Y208851D01*
X196149Y208652D01*
X196500Y208582D01*
X198070D01*
X198314Y208216D01*
X198904Y207822D01*
X199598Y207684D01*
X202945D01*
X203640Y207822D01*
X204229Y208216D01*
X204623Y208805D01*
X204761Y209500D01*
X204623Y210195D01*
X204229Y210784D01*
X203640Y211178D01*
X202945Y211316D01*
X199598D01*
X198904Y211178D01*
X198314Y210784D01*
X198070Y210418D01*
X196880D01*
X196418Y210880D01*
Y222000D01*
X196348Y222351D01*
X196149Y222649D01*
X195647Y223151D01*
X195647Y223151D01*
X195409Y223389D01*
X195111Y223588D01*
X194760Y223658D01*
X184852D01*
Y224521D01*
D02*
G37*
G36*
X159807Y208500D02*
X157437D01*
Y206130D01*
X159807D01*
Y208500D01*
D02*
G37*
G36*
X238750Y206569D02*
X231250D01*
Y205622D01*
X225794D01*
X225686Y205784D01*
X225097Y206178D01*
X224402Y206316D01*
X221055D01*
X220360Y206178D01*
X219771Y205784D01*
X219377Y205195D01*
X219239Y204500D01*
X219377Y203805D01*
X219771Y203216D01*
X220360Y202822D01*
X221055Y202684D01*
X224402D01*
X225097Y202822D01*
X225686Y203216D01*
X225794Y203378D01*
X231250D01*
Y201431D01*
X238750D01*
Y202878D01*
X329800D01*
X329804Y202867D01*
X330367Y202305D01*
X331102Y202000D01*
X331898D01*
X332633Y202305D01*
X333195Y202867D01*
X333500Y203602D01*
Y204398D01*
X333195Y205133D01*
X332633Y205696D01*
X331898Y206000D01*
X331102D01*
X330367Y205696D01*
X329804Y205133D01*
X329800Y205121D01*
X238750D01*
Y206569D01*
D02*
G37*
G36*
X185252Y218500D02*
X182087D01*
X178921D01*
Y216819D01*
X179321D01*
Y213479D01*
X181116D01*
Y213149D01*
X181259Y212428D01*
X181668Y211816D01*
X183202Y210282D01*
X183814Y209874D01*
X184535Y209730D01*
X186498D01*
Y208837D01*
X187098D01*
Y207134D01*
X187000Y206898D01*
Y206102D01*
X187304Y205367D01*
X187867Y204804D01*
X188602Y204500D01*
X189398D01*
X190133Y204804D01*
X190696Y205367D01*
X191000Y206102D01*
Y206898D01*
X190870Y207210D01*
Y208837D01*
X191439D01*
Y213777D01*
X191252D01*
X191193Y213866D01*
Y215130D01*
X191839D01*
Y217500D01*
X188969D01*
X186098D01*
Y215130D01*
X186744D01*
Y213866D01*
X186661Y213777D01*
X186498D01*
Y213604D01*
X186403Y213502D01*
X185317D01*
X184888Y213931D01*
Y215000D01*
X184852Y215182D01*
Y216819D01*
X185252D01*
Y218500D01*
D02*
G37*
G36*
X136000Y219500D02*
X120500D01*
Y204000D01*
X121259D01*
X123747Y204394D01*
X126142Y205172D01*
X128386Y206316D01*
X130423Y207796D01*
X132204Y209577D01*
X133684Y211614D01*
X134828Y213858D01*
X135606Y216253D01*
X136000Y218741D01*
Y219500D01*
D02*
G37*
G36*
X119500D02*
X104000D01*
Y218741D01*
X104394Y216253D01*
X105172Y213858D01*
X106316Y211614D01*
X107796Y209577D01*
X109577Y207796D01*
X111614Y206316D01*
X113858Y205172D01*
X116253Y204394D01*
X118741Y204000D01*
X119500D01*
Y219500D01*
D02*
G37*
G36*
X202945Y206316D02*
X199598D01*
X198904Y206178D01*
X198314Y205784D01*
X198070Y205418D01*
X195625D01*
X195274Y205348D01*
X194977Y205149D01*
X193745Y203918D01*
X184852D01*
Y204521D01*
X179321D01*
Y201181D01*
X178921D01*
Y199500D01*
X182087D01*
X185252D01*
Y201181D01*
X184852D01*
Y202082D01*
X194125D01*
X194477Y202152D01*
X194774Y202351D01*
X196006Y203582D01*
X198070D01*
X198314Y203216D01*
X198904Y202822D01*
X199598Y202684D01*
X202945D01*
X203640Y202822D01*
X204229Y203216D01*
X204623Y203805D01*
X204761Y204500D01*
X204623Y205195D01*
X204229Y205784D01*
X203640Y206178D01*
X202945Y206316D01*
D02*
G37*
G36*
X174616Y204521D02*
X169085D01*
Y203658D01*
X157240D01*
X156889Y203588D01*
X156591Y203389D01*
X154851Y201649D01*
X154652Y201351D01*
X154582Y201000D01*
Y183500D01*
X154652Y183149D01*
X154851Y182851D01*
X156351Y181351D01*
X156649Y181152D01*
X157000Y181082D01*
X256620D01*
X259582Y178120D01*
Y161285D01*
X259367Y161196D01*
X258804Y160633D01*
X258588Y160110D01*
X254970D01*
Y161663D01*
X250030D01*
Y156723D01*
X250216D01*
X250276Y156634D01*
Y155059D01*
X250216Y154970D01*
X250030D01*
Y153418D01*
X247470D01*
Y154970D01*
X247284D01*
X247224Y155059D01*
Y156323D01*
X247870D01*
Y158693D01*
X245000D01*
X242130D01*
Y156323D01*
X242776D01*
Y155059D01*
X242716Y154970D01*
X242530D01*
Y153418D01*
X239970D01*
Y154970D01*
X239784D01*
X239724Y155059D01*
Y156323D01*
X240370D01*
Y158693D01*
X237500D01*
X234630D01*
Y156323D01*
X235276D01*
Y155059D01*
X235216Y154970D01*
X235030D01*
Y152874D01*
X233956D01*
X233605Y152804D01*
X233307Y152605D01*
X231311Y150609D01*
X231091Y150630D01*
X230599Y150959D01*
X230248Y151029D01*
Y167431D01*
X233250D01*
Y172569D01*
X225750D01*
Y167431D01*
X228413D01*
Y151029D01*
X228062Y150959D01*
X227571Y150630D01*
X227242Y150139D01*
X227127Y149559D01*
X227242Y148979D01*
X227541Y148532D01*
X227282Y148360D01*
X226865Y147736D01*
X226818Y147500D01*
X229331D01*
X231843D01*
X231796Y147736D01*
X231525Y148141D01*
X231533Y148256D01*
X231736Y148677D01*
X231910Y148711D01*
X232208Y148910D01*
X234336Y151038D01*
X235030D01*
Y150030D01*
X239970D01*
Y151582D01*
X242530D01*
Y150030D01*
X247470D01*
Y151582D01*
X250030D01*
Y150030D01*
X254970D01*
Y154970D01*
X254784D01*
X254724Y155059D01*
Y156634D01*
X254784Y156723D01*
X254970D01*
Y158275D01*
X258896D01*
X259367Y157805D01*
X260102Y157500D01*
X260898D01*
X261633Y157805D01*
X262104Y158275D01*
X262931D01*
Y157750D01*
X268069D01*
Y165250D01*
X262931D01*
Y160110D01*
X262412D01*
X262195Y160633D01*
X261633Y161196D01*
X261418Y161285D01*
Y178500D01*
X261348Y178851D01*
X261149Y179149D01*
X257649Y182649D01*
X257351Y182848D01*
X257000Y182918D01*
X190406D01*
X190246Y183418D01*
X190696Y183867D01*
X191000Y184602D01*
Y185398D01*
X190870Y185711D01*
Y188837D01*
X191439D01*
Y193777D01*
X191252D01*
X191193Y193866D01*
Y195130D01*
X191839D01*
Y197500D01*
X188969D01*
X186098D01*
Y195559D01*
X186098Y195354D01*
X185598Y195147D01*
X184852Y195893D01*
Y196819D01*
X185252D01*
Y198500D01*
X182087D01*
X178921D01*
Y196819D01*
X179321D01*
Y193479D01*
X181558D01*
X182024Y193386D01*
X185128Y190282D01*
X185740Y189874D01*
X186462Y189730D01*
X186498D01*
Y188837D01*
X187098D01*
Y185634D01*
X187000Y185398D01*
Y184602D01*
X187304Y183867D01*
X187754Y183418D01*
X187594Y182918D01*
X157380D01*
X156418Y183880D01*
Y200620D01*
X157620Y201822D01*
X168731D01*
X169085Y201469D01*
X169085Y200959D01*
X168615Y200886D01*
X167173D01*
X166898Y201000D01*
X166102D01*
X165367Y200695D01*
X164804Y200133D01*
X164500Y199398D01*
Y198602D01*
X164804Y197867D01*
X165367Y197304D01*
X166102Y197000D01*
X166898D01*
X167173Y197114D01*
X168615D01*
X169085Y197041D01*
Y193972D01*
X169085Y193937D01*
X169085Y193921D01*
X168972Y193477D01*
X168589Y193470D01*
X168567Y193470D01*
X164030D01*
Y193284D01*
X163941Y193224D01*
X162677D01*
Y193870D01*
X160307D01*
Y191000D01*
Y188130D01*
X162677D01*
Y188776D01*
X163941D01*
X164030Y188716D01*
Y188530D01*
X168970D01*
Y188671D01*
X170689D01*
X171102Y188500D01*
X171898D01*
X172633Y188804D01*
X173196Y189367D01*
X173466Y190019D01*
X173593Y190210D01*
X173737Y190932D01*
Y193479D01*
X174616D01*
Y197041D01*
X174616D01*
Y197219D01*
X174616D01*
Y200459D01*
X174616Y200781D01*
X174616Y201281D01*
Y204521D01*
D02*
G37*
G36*
X202945Y201724D02*
X201772D01*
Y200000D01*
X205069D01*
X204999Y200351D01*
X204517Y201073D01*
X203796Y201554D01*
X202945Y201724D01*
D02*
G37*
G36*
X200772D02*
X199598D01*
X198747Y201554D01*
X198026Y201073D01*
X197544Y200351D01*
X197474Y200000D01*
X200772D01*
Y201724D01*
D02*
G37*
G36*
X191839Y200870D02*
X189469D01*
Y198500D01*
X191839D01*
Y200870D01*
D02*
G37*
G36*
X188469D02*
X186098D01*
Y198500D01*
X188469D01*
Y200870D01*
D02*
G37*
G36*
X205069Y199000D02*
X201772D01*
Y197276D01*
X202945D01*
X203796Y197445D01*
X204517Y197927D01*
X204999Y198649D01*
X205069Y199000D01*
D02*
G37*
G36*
X200772D02*
X197474D01*
X197544Y198649D01*
X198026Y197927D01*
X198747Y197445D01*
X199598Y197276D01*
X200772D01*
Y199000D01*
D02*
G37*
G36*
X224402Y201316D02*
X221055D01*
X220360Y201178D01*
X219771Y200784D01*
X219377Y200195D01*
X219239Y199500D01*
X219377Y198805D01*
X219771Y198216D01*
X220360Y197822D01*
X221055Y197684D01*
X224402D01*
X225097Y197822D01*
X225539Y198118D01*
X227796D01*
X230207Y195707D01*
X230571Y195464D01*
X231000Y195378D01*
X231000Y195378D01*
X231722D01*
Y193931D01*
X239221D01*
Y195878D01*
X334146D01*
X334151Y195867D01*
X334714Y195305D01*
X335449Y195000D01*
X336244D01*
X336979Y195305D01*
X337542Y195867D01*
X337846Y196602D01*
Y197398D01*
X337542Y198133D01*
X336979Y198696D01*
X336244Y199000D01*
X335449D01*
X334714Y198696D01*
X334151Y198133D01*
X334146Y198122D01*
X239221D01*
Y199068D01*
X231722D01*
Y198071D01*
X231222Y197864D01*
X229054Y200032D01*
X228690Y200275D01*
X228261Y200361D01*
X228261Y200361D01*
X225968D01*
X225686Y200784D01*
X225097Y201178D01*
X224402Y201316D01*
D02*
G37*
G36*
X159307Y193870D02*
X156937D01*
Y191500D01*
X159307D01*
Y193870D01*
D02*
G37*
G36*
X141150Y192968D02*
X137500D01*
Y190500D01*
X141150D01*
Y192968D01*
D02*
G37*
G36*
X136500D02*
X132850D01*
Y190500D01*
X136500D01*
Y192968D01*
D02*
G37*
G36*
X159307Y190500D02*
X156937D01*
Y188130D01*
X159307D01*
Y190500D01*
D02*
G37*
G36*
X110750Y192569D02*
X103250D01*
Y187432D01*
X105114D01*
Y180816D01*
X104530D01*
Y175876D01*
X104716D01*
X104776Y175787D01*
Y174524D01*
X104130D01*
Y172153D01*
X107000D01*
X109870D01*
Y172571D01*
X110370Y172620D01*
X110395Y172494D01*
X110804Y171882D01*
X112691Y169995D01*
X113303Y169586D01*
X114025Y169442D01*
X116535D01*
X116882Y169374D01*
X117411Y169479D01*
X119647D01*
Y172819D01*
X120047D01*
Y174500D01*
X116882D01*
Y175500D01*
X120047D01*
Y177181D01*
X119647D01*
Y180521D01*
X117411D01*
X116882Y180626D01*
X109470D01*
Y180816D01*
X108886D01*
Y187432D01*
X110750D01*
Y188114D01*
X113828D01*
X114102Y188000D01*
X114898D01*
X115633Y188304D01*
X116195Y188867D01*
X116500Y189602D01*
Y190398D01*
X116195Y191133D01*
X115633Y191695D01*
X114898Y192000D01*
X114102D01*
X113828Y191886D01*
X110750D01*
Y192569D01*
D02*
G37*
G36*
X141150Y189500D02*
X137500D01*
Y187031D01*
X141150D01*
Y189500D01*
D02*
G37*
G36*
X136500D02*
X132850D01*
Y187031D01*
X136500D01*
Y189500D01*
D02*
G37*
G36*
X287870Y179063D02*
X285500D01*
Y176693D01*
X287870D01*
Y179063D01*
D02*
G37*
G36*
X284500D02*
X282130D01*
Y176693D01*
X284500D01*
Y179063D01*
D02*
G37*
G36*
X125750Y192569D02*
X118250D01*
Y187432D01*
X125750D01*
Y188114D01*
X127155D01*
Y181105D01*
X127143Y180949D01*
X126727Y180549D01*
X126590Y180521D01*
X124353D01*
Y176959D01*
X126420D01*
X126465Y176929D01*
X127187Y176785D01*
X134530D01*
Y175876D01*
X134716D01*
X134776Y175787D01*
Y174524D01*
X134130D01*
Y172153D01*
X137000D01*
X139870D01*
Y174524D01*
X139224D01*
Y175787D01*
X139284Y175876D01*
X139470D01*
Y180816D01*
X134530D01*
Y180558D01*
X132112D01*
X130928Y181742D01*
Y189428D01*
X131000Y189602D01*
Y190398D01*
X130695Y191133D01*
X130133Y191695D01*
X129398Y192000D01*
X128602D01*
X128328Y191886D01*
X125750D01*
Y192569D01*
D02*
G37*
G36*
X305822Y179635D02*
X304178D01*
X302555Y179378D01*
X300992Y178870D01*
X299527Y178124D01*
X298197Y177158D01*
X297035Y175996D01*
X296069Y174666D01*
X295322Y173202D01*
X294815Y171638D01*
X294750Y171233D01*
X287470D01*
Y171970D01*
X287284D01*
X287224Y172059D01*
Y173323D01*
X287870D01*
Y175693D01*
X285000D01*
X282130D01*
Y173323D01*
X282776D01*
Y172059D01*
X282716Y171970D01*
X282530D01*
Y167030D01*
X287470D01*
Y167460D01*
X294702D01*
X294815Y166748D01*
X295322Y165184D01*
X296069Y163720D01*
X297035Y162390D01*
X298197Y161228D01*
X299527Y160262D01*
X300992Y159516D01*
X302555Y159008D01*
X304178Y158750D01*
X305822D01*
X307445Y159008D01*
X309009Y159516D01*
X310473Y160262D01*
X311803Y161228D01*
X312965Y162390D01*
X313931Y163720D01*
X314678Y165184D01*
X315185Y166748D01*
X315442Y168371D01*
Y170015D01*
X315185Y171638D01*
X314678Y173202D01*
X313931Y174666D01*
X312965Y175996D01*
X311803Y177158D01*
X310473Y178124D01*
X309009Y178870D01*
X307445Y179378D01*
X305822Y179635D01*
D02*
G37*
G36*
X129884Y173041D02*
X124353D01*
Y169479D01*
X129884D01*
Y173041D01*
D02*
G37*
G36*
X139870Y171153D02*
X137500D01*
Y168783D01*
X139870D01*
Y171153D01*
D02*
G37*
G36*
X136500D02*
X134130D01*
Y168783D01*
X136500D01*
Y171153D01*
D02*
G37*
G36*
X109870D02*
X107500D01*
Y168783D01*
X109870D01*
Y171153D01*
D02*
G37*
G36*
X106500D02*
X104130D01*
Y168783D01*
X106500D01*
Y171153D01*
D02*
G37*
G36*
X199051Y163342D02*
X195500D01*
Y160874D01*
X199051D01*
Y163342D01*
D02*
G37*
G36*
X194500D02*
X190949D01*
Y160874D01*
X194500D01*
Y163342D01*
D02*
G37*
G36*
X247870Y162063D02*
X245500D01*
Y159693D01*
X247870D01*
Y162063D01*
D02*
G37*
G36*
X240370D02*
X238000D01*
Y159693D01*
X240370D01*
Y162063D01*
D02*
G37*
G36*
X207870D02*
X205500D01*
Y159693D01*
X207870D01*
Y162063D01*
D02*
G37*
G36*
X172870D02*
X170500D01*
Y159693D01*
X172870D01*
Y162063D01*
D02*
G37*
G36*
X244500D02*
X242130D01*
Y159693D01*
X244500D01*
Y162063D01*
D02*
G37*
G36*
X237000D02*
X234630D01*
Y159693D01*
X237000D01*
Y162063D01*
D02*
G37*
G36*
X204500D02*
X202130D01*
Y159693D01*
X204500D01*
Y162063D01*
D02*
G37*
G36*
X169500D02*
X167130D01*
Y159693D01*
X169500D01*
Y162063D01*
D02*
G37*
G36*
X194500Y159874D02*
X190949D01*
Y158599D01*
X190487Y158407D01*
X190359Y158535D01*
X189500Y158891D01*
Y157000D01*
X191402D01*
X191673Y157405D01*
X194500D01*
Y159874D01*
D02*
G37*
G36*
X199051D02*
X195500D01*
Y157405D01*
X199051D01*
Y159874D01*
D02*
G37*
G36*
X225000Y158391D02*
Y156500D01*
X226891D01*
X226535Y157360D01*
X225859Y158035D01*
X225000Y158391D01*
D02*
G37*
G36*
X224000D02*
X223141Y158035D01*
X222465Y157360D01*
X222109Y156500D01*
X224000D01*
Y158391D01*
D02*
G37*
G36*
X226891Y155500D02*
X225000D01*
Y153609D01*
X225859Y153965D01*
X226535Y154640D01*
X226891Y155500D01*
D02*
G37*
G36*
X224000D02*
X222109D01*
X222465Y154640D01*
X223141Y153965D01*
X224000Y153609D01*
Y155500D01*
D02*
G37*
G36*
X190250Y172569D02*
X182750D01*
Y167431D01*
X185413D01*
Y151029D01*
X185062Y150959D01*
X184571Y150630D01*
X184242Y150139D01*
X184127Y149559D01*
X184242Y148979D01*
X184541Y148532D01*
X184282Y148360D01*
X183865Y147736D01*
X183818Y147500D01*
X186331D01*
X188843D01*
X188796Y147736D01*
X188429Y148285D01*
X188513Y148576D01*
X188642Y148785D01*
X188703D01*
X189054Y148855D01*
X189352Y149054D01*
X190887Y150589D01*
X191349Y150398D01*
Y149932D01*
X198651D01*
Y151582D01*
X202530D01*
Y150030D01*
X207470D01*
Y151582D01*
X210030D01*
Y150030D01*
X214970D01*
Y154970D01*
X214970D01*
X214724Y155446D01*
Y156634D01*
X214799Y156723D01*
X214970D01*
Y156925D01*
X215047Y157016D01*
X215686D01*
X216082Y156620D01*
Y151000D01*
X216152Y150649D01*
X216351Y150351D01*
X217571Y149131D01*
X217364Y148631D01*
X216697D01*
X216633Y148696D01*
X215898Y149000D01*
X215102D01*
X214367Y148696D01*
X213805Y148133D01*
X213500Y147398D01*
Y146602D01*
X213805Y145867D01*
X214367Y145305D01*
X215102Y145000D01*
X215898D01*
X216633Y145305D01*
X216897Y145228D01*
X217062Y144695D01*
X215470Y143103D01*
X214970Y143310D01*
Y144163D01*
X210030D01*
Y139223D01*
X210216D01*
X210276Y139134D01*
Y137559D01*
X210216Y137470D01*
X210030D01*
Y135918D01*
X207470D01*
Y137470D01*
X207284D01*
X207224Y137559D01*
Y138823D01*
X207870D01*
Y141193D01*
X205000D01*
X202130D01*
Y138823D01*
X202776D01*
Y137559D01*
X202716Y137470D01*
X202530D01*
Y135918D01*
X198651D01*
Y137568D01*
X191349D01*
Y137568D01*
X190918Y137735D01*
Y139418D01*
X190949Y139906D01*
X191418Y139906D01*
X194500D01*
Y142874D01*
Y145843D01*
X190949D01*
Y144439D01*
X190449Y144232D01*
X189591Y145090D01*
X189294Y145289D01*
X188943Y145359D01*
X188789D01*
X188525Y145859D01*
X188796Y146264D01*
X188843Y146500D01*
X186331D01*
X183818D01*
X183865Y146264D01*
X184282Y145640D01*
X184541Y145468D01*
X184242Y145021D01*
X184127Y144441D01*
X184242Y143861D01*
X184571Y143370D01*
X185062Y143041D01*
X185642Y142926D01*
X187020D01*
X187599Y143041D01*
X188091Y143370D01*
X188113Y143402D01*
X188648Y143438D01*
X189082Y143003D01*
Y136000D01*
X189152Y135649D01*
X189351Y135351D01*
X190351Y134351D01*
X190649Y134152D01*
X191000Y134082D01*
X191349D01*
Y132431D01*
X198651D01*
Y134082D01*
X202530D01*
Y132530D01*
X207470D01*
Y134082D01*
X210030D01*
Y132530D01*
X211582D01*
Y126568D01*
X208750D01*
Y121432D01*
X216250D01*
Y126568D01*
X213418D01*
Y132530D01*
X214970D01*
Y137470D01*
X214784D01*
X214724Y137559D01*
Y139134D01*
X214784Y139223D01*
X214970D01*
Y140775D01*
X215358D01*
X215709Y140845D01*
X216007Y141044D01*
X218360Y143398D01*
X218909Y143370D01*
X219401Y143041D01*
X219980Y142926D01*
X221358D01*
X221938Y143041D01*
X222429Y143370D01*
X222509Y143489D01*
X223083Y143578D01*
X223369Y143338D01*
Y141316D01*
X222530D01*
Y136376D01*
X222716D01*
X222776Y136287D01*
Y135024D01*
X222130D01*
Y132653D01*
X225000D01*
X227870D01*
Y135024D01*
X227224D01*
Y136287D01*
X227284Y136376D01*
X227470D01*
Y141316D01*
X226631D01*
Y144315D01*
X226507Y144939D01*
X226153Y145468D01*
X223541Y148080D01*
X223012Y148434D01*
X222907Y148455D01*
X222743Y148852D01*
X222761Y148994D01*
X222873Y149559D01*
X222758Y150139D01*
X222429Y150630D01*
X221938Y150959D01*
X221358Y151074D01*
X219980D01*
X219401Y150959D01*
X218909Y150630D01*
X218689Y150609D01*
X217918Y151380D01*
Y157000D01*
X217848Y157351D01*
X217649Y157649D01*
X216715Y158583D01*
X216417Y158782D01*
X216066Y158852D01*
X214970D01*
Y161663D01*
X210030D01*
Y156723D01*
X210216D01*
X210276Y156634D01*
Y155059D01*
X210216Y154970D01*
X210030D01*
Y153418D01*
X207470D01*
Y154970D01*
X207284D01*
X207224Y155059D01*
Y156323D01*
X207870D01*
Y158693D01*
X205000D01*
X202130D01*
Y156323D01*
X202776D01*
Y155059D01*
X202716Y154970D01*
X202530D01*
Y153418D01*
X198651D01*
Y155069D01*
X191716D01*
X191546Y155069D01*
X191367Y155281D01*
X191367Y155281D01*
Y155281D01*
X191297Y155774D01*
X191391Y156000D01*
X189000D01*
Y156500D01*
X188500D01*
Y158891D01*
X187748Y158579D01*
X187248Y158796D01*
Y167431D01*
X190250D01*
Y172569D01*
D02*
G37*
G36*
X199051Y145843D02*
X195500D01*
Y143374D01*
X199051D01*
Y145843D01*
D02*
G37*
G36*
X247870Y144563D02*
X245500D01*
Y142193D01*
X247870D01*
Y144563D01*
D02*
G37*
G36*
X240370D02*
X238000D01*
Y142193D01*
X240370D01*
Y144563D01*
D02*
G37*
G36*
X207870D02*
X205500D01*
Y142193D01*
X207870D01*
Y144563D01*
D02*
G37*
G36*
X244500D02*
X242130D01*
Y142193D01*
X244500D01*
Y144563D01*
D02*
G37*
G36*
X237000D02*
X234630D01*
Y142193D01*
X237000D01*
Y144563D01*
D02*
G37*
G36*
X204500D02*
X202130D01*
Y142193D01*
X204500D01*
Y144563D01*
D02*
G37*
G36*
X151000Y143891D02*
Y142000D01*
X152891D01*
X152535Y142859D01*
X151859Y143535D01*
X151000Y143891D01*
D02*
G37*
G36*
X150000D02*
X149141Y143535D01*
X148465Y142859D01*
X148109Y142000D01*
X150000D01*
Y143891D01*
D02*
G37*
G36*
X199051Y142374D02*
X195500D01*
Y139906D01*
X199051D01*
Y142374D01*
D02*
G37*
G36*
X123835Y156722D02*
X122165D01*
X120528Y156396D01*
X118986Y155758D01*
X117598Y154830D01*
X116418Y153650D01*
X115490Y152262D01*
X114852Y150720D01*
X114526Y149083D01*
Y147413D01*
X114852Y145776D01*
X115490Y144234D01*
X116418Y142846D01*
X117598Y141666D01*
X118986Y140738D01*
X120528Y140100D01*
X122165Y139774D01*
X123835D01*
X125472Y140100D01*
X127014Y140738D01*
X128402Y141666D01*
X129582Y142846D01*
X130510Y144234D01*
X131148Y145776D01*
X131474Y147413D01*
Y149083D01*
X131148Y150720D01*
X130510Y152262D01*
X129582Y153650D01*
X128402Y154830D01*
X127014Y155758D01*
X125472Y156396D01*
X123835Y156722D01*
D02*
G37*
G36*
X150000Y141000D02*
X148109D01*
X148465Y140140D01*
X149141Y139465D01*
X150000Y139109D01*
Y141000D01*
D02*
G37*
G36*
X320398Y188000D02*
X319602D01*
X318867Y187696D01*
X318304Y187133D01*
X318000Y186398D01*
Y185602D01*
X318304Y184867D01*
X318867Y184304D01*
X318879Y184300D01*
Y139137D01*
X318378Y139003D01*
X318163Y139376D01*
X317427Y140112D01*
X316526Y140632D01*
X315520Y140902D01*
X315500D01*
Y136949D01*
Y132996D01*
X315520D01*
X316526Y133265D01*
X317427Y133786D01*
X318163Y134522D01*
X318378Y134895D01*
X318879Y134761D01*
Y133437D01*
X316595Y131154D01*
X316371Y131283D01*
X315468Y131525D01*
X314532D01*
X313629Y131283D01*
X312819Y130815D01*
X312157Y130154D01*
X311689Y129344D01*
X311447Y128440D01*
Y127505D01*
X311689Y126601D01*
X312157Y125791D01*
X312819Y125129D01*
X313629Y124662D01*
X314532Y124420D01*
X315468D01*
X316371Y124662D01*
X317181Y125129D01*
X317843Y125791D01*
X318311Y126601D01*
X318553Y127505D01*
Y128440D01*
X318311Y129344D01*
X318181Y129568D01*
X320793Y132179D01*
X320793Y132179D01*
X321036Y132543D01*
X321122Y132972D01*
X321122Y132973D01*
Y184300D01*
X321133Y184304D01*
X321695Y184867D01*
X322000Y185602D01*
Y186398D01*
X321695Y187133D01*
X321133Y187696D01*
X320398Y188000D01*
D02*
G37*
G36*
X305468Y144990D02*
X304532D01*
X303629Y144748D01*
X302819Y144280D01*
X302157Y143619D01*
X301689Y142808D01*
X301447Y141905D01*
Y140969D01*
X301689Y140066D01*
X302157Y139256D01*
X302819Y138594D01*
X303629Y138126D01*
X304532Y137884D01*
X305468D01*
X306371Y138126D01*
X307181Y138594D01*
X307843Y139256D01*
X308311Y140066D01*
X308553Y140969D01*
Y141905D01*
X308311Y142808D01*
X307843Y143619D01*
X307181Y144280D01*
X306371Y144748D01*
X305468Y144990D01*
D02*
G37*
G36*
X314500Y140902D02*
X314480D01*
X313474Y140632D01*
X312573Y140112D01*
X311837Y139376D01*
X311317Y138475D01*
X311047Y137469D01*
Y137449D01*
X314500D01*
Y140902D01*
D02*
G37*
G36*
X295468Y140502D02*
X294532D01*
X293629Y140260D01*
X292819Y139792D01*
X292157Y139130D01*
X291689Y138320D01*
X291447Y137417D01*
Y136481D01*
X291689Y135577D01*
X292157Y134767D01*
X292819Y134106D01*
X293629Y133638D01*
X294532Y133396D01*
X295468D01*
X296371Y133638D01*
X297181Y134106D01*
X297843Y134767D01*
X298311Y135577D01*
X298553Y136481D01*
Y137417D01*
X298311Y138320D01*
X297843Y139130D01*
X297181Y139792D01*
X296371Y140260D01*
X295468Y140502D01*
D02*
G37*
G36*
X314500Y136449D02*
X311047D01*
Y136428D01*
X311317Y135423D01*
X311837Y134522D01*
X312573Y133786D01*
X313474Y133265D01*
X314480Y132996D01*
X314500D01*
Y136449D01*
D02*
G37*
G36*
X162568Y163750D02*
X157431D01*
Y156250D01*
X159082D01*
Y152435D01*
X158867Y152346D01*
X158305Y151783D01*
X158000Y151048D01*
Y150252D01*
X158305Y149517D01*
X158867Y148954D01*
X159082Y148865D01*
Y146477D01*
X153309Y140704D01*
X152885Y140987D01*
X152891Y141000D01*
X151000D01*
Y139109D01*
X151013Y139115D01*
X151296Y138691D01*
X139549Y126944D01*
X139399Y127094D01*
X139072Y127229D01*
Y127771D01*
X139399Y127906D01*
X140094Y128601D01*
X140470Y129509D01*
Y130491D01*
X140094Y131399D01*
X139399Y132094D01*
X138491Y132470D01*
X137809D01*
X137226Y133052D01*
X136615Y133461D01*
X135893Y133605D01*
X109465D01*
X108743Y133461D01*
X108131Y133052D01*
X106666Y131588D01*
X106257Y130976D01*
X106114Y130254D01*
Y61000D01*
X106257Y60278D01*
X106666Y59666D01*
X161166Y5166D01*
X161778Y4757D01*
X162500Y4614D01*
X273351D01*
X274072Y4757D01*
X274684Y5166D01*
X276149Y6631D01*
X276558Y7243D01*
X276701Y7965D01*
Y16665D01*
X277601Y17185D01*
X278446Y18029D01*
X279043Y19064D01*
X279352Y20218D01*
Y21412D01*
X279043Y22566D01*
X278446Y23601D01*
X277601Y24445D01*
X276701Y24965D01*
Y36350D01*
X277601Y36869D01*
X278446Y37714D01*
X279043Y38749D01*
X279352Y39903D01*
Y41097D01*
X279043Y42251D01*
X278446Y43286D01*
X277601Y44131D01*
X276566Y44728D01*
X275412Y45037D01*
X274218D01*
X273064Y44728D01*
X272029Y44131D01*
X271184Y43286D01*
X270587Y42251D01*
X270278Y41097D01*
Y39903D01*
X270587Y38749D01*
X271184Y37714D01*
X272029Y36869D01*
X272929Y36350D01*
Y24965D01*
X272029Y24445D01*
X271184Y23601D01*
X270587Y22566D01*
X270278Y21412D01*
Y20218D01*
X270587Y19064D01*
X271184Y18029D01*
X272029Y17185D01*
X272929Y16665D01*
Y8746D01*
X272569Y8386D01*
X163281D01*
X109886Y61781D01*
Y129473D01*
X110246Y129832D01*
X126132D01*
X126339Y129332D01*
X125906Y128899D01*
X125530Y127991D01*
Y127009D01*
X125906Y126101D01*
X126601Y125406D01*
X126928Y125271D01*
Y124729D01*
X126601Y124594D01*
X125906Y123899D01*
X125530Y122991D01*
Y122009D01*
X125906Y121101D01*
X126601Y120406D01*
X126928Y120271D01*
Y119729D01*
X126601Y119594D01*
X125906Y118899D01*
X125530Y117991D01*
Y117009D01*
X125906Y116101D01*
X126488Y115519D01*
X126497Y115057D01*
X126458Y114924D01*
X126238Y114797D01*
X125703Y114262D01*
X125326Y113608D01*
X125163Y113000D01*
X128000D01*
Y112500D01*
X128500D01*
Y109663D01*
X129108Y109826D01*
X129762Y110203D01*
X130297Y110738D01*
X130675Y111392D01*
X130870Y112122D01*
Y112625D01*
X131370Y112832D01*
X131856Y112346D01*
Y99226D01*
X131926Y98875D01*
X132125Y98577D01*
X151351Y79351D01*
X151649Y79152D01*
X152000Y79082D01*
X157431D01*
Y76250D01*
X159082D01*
Y75285D01*
X158867Y75195D01*
X158305Y74633D01*
X158000Y73898D01*
Y73102D01*
X158305Y72367D01*
X158867Y71804D01*
X159602Y71500D01*
X160398D01*
X161133Y71804D01*
X161696Y72367D01*
X162000Y73102D01*
Y73898D01*
X161696Y74633D01*
X161133Y75195D01*
X160918Y75285D01*
Y76250D01*
X162568D01*
Y79082D01*
X167530D01*
Y78337D01*
X172470D01*
Y83277D01*
X172284D01*
X172224Y83366D01*
Y84941D01*
X172284Y85030D01*
X172470D01*
Y86582D01*
X175030D01*
Y85030D01*
X175216D01*
X175276Y84941D01*
Y83677D01*
X174630D01*
Y81307D01*
X177500D01*
X180370D01*
Y83677D01*
X179724D01*
Y84941D01*
X179784Y85030D01*
X179970D01*
Y86582D01*
X182530D01*
Y85030D01*
X182716D01*
X182776Y84941D01*
Y83677D01*
X182130D01*
Y81307D01*
X185000D01*
X187870D01*
Y81343D01*
X188286Y81621D01*
X188475Y81542D01*
Y83933D01*
X188975D01*
Y84433D01*
X191365D01*
X191009Y85292D01*
X190334Y85967D01*
X189452Y86333D01*
X188938D01*
X188786Y86833D01*
X188814Y86851D01*
X190860Y88898D01*
X191409Y88870D01*
X191901Y88541D01*
X192252Y88472D01*
Y72569D01*
X189250D01*
Y67431D01*
X196750D01*
Y72569D01*
X194087D01*
Y88472D01*
X194438Y88541D01*
X194930Y88870D01*
X195258Y89361D01*
X195373Y89941D01*
X195258Y90521D01*
X194959Y90968D01*
X195218Y91140D01*
X195635Y91764D01*
X195682Y92000D01*
X193169D01*
X190657D01*
X190704Y91764D01*
X190975Y91359D01*
X190711Y90859D01*
X190606D01*
X190255Y90789D01*
X189957Y90590D01*
X187970Y88603D01*
X187470Y88810D01*
Y89970D01*
X182530D01*
Y88418D01*
X179970D01*
Y89970D01*
X175030D01*
Y88418D01*
X172470D01*
Y89970D01*
X167530D01*
Y85030D01*
X167716D01*
X167776Y84941D01*
Y83366D01*
X167716Y83277D01*
X167530D01*
Y80918D01*
X162568D01*
Y83750D01*
X157431D01*
Y80918D01*
X152380D01*
X133691Y99606D01*
Y112726D01*
X133622Y113077D01*
X133423Y113375D01*
X130271Y116527D01*
X130470Y117009D01*
Y117991D01*
X130205Y118631D01*
X130409Y118942D01*
X130559Y119082D01*
X135706D01*
X135906Y118601D01*
X136601Y117906D01*
X136928Y117771D01*
Y117229D01*
X136601Y117094D01*
X135906Y116399D01*
X135530Y115491D01*
Y114509D01*
X135906Y113601D01*
X136488Y113019D01*
X136497Y112557D01*
X136458Y112424D01*
X136238Y112297D01*
X135703Y111762D01*
X135326Y111108D01*
X135163Y110500D01*
X138000D01*
X140837D01*
X140674Y111108D01*
X140297Y111762D01*
X139762Y112297D01*
X139542Y112424D01*
X139503Y112557D01*
X139512Y113019D01*
X140094Y113601D01*
X140294Y114082D01*
X156120D01*
X158089Y112113D01*
X158000Y111898D01*
Y111102D01*
X158305Y110367D01*
X158867Y109804D01*
X159082Y109715D01*
Y108750D01*
X157431D01*
Y101250D01*
X161580D01*
X161669Y101233D01*
X162748D01*
X166322Y97658D01*
X166620Y97459D01*
X166971Y97389D01*
X167530D01*
Y95837D01*
X172470D01*
Y100777D01*
X172284D01*
X172224Y100866D01*
Y102441D01*
X172284Y102530D01*
X172470D01*
Y104082D01*
X175030D01*
Y102530D01*
X175216D01*
X175276Y102441D01*
Y101177D01*
X174630D01*
Y98807D01*
X177500D01*
X180370D01*
Y101177D01*
X179724D01*
Y102441D01*
X179784Y102530D01*
X179970D01*
Y104082D01*
X182530D01*
Y102530D01*
X182716D01*
X182776Y102441D01*
Y101177D01*
X182130D01*
Y98807D01*
X185000D01*
Y98307D01*
X185500D01*
Y95437D01*
X187870D01*
X187870Y95437D01*
X188303Y95275D01*
X188351Y95203D01*
X189144Y94410D01*
X189441Y94211D01*
X189792Y94141D01*
X190711D01*
X190975Y93641D01*
X190704Y93236D01*
X190657Y93000D01*
X193169D01*
X195682D01*
X195635Y93236D01*
X195218Y93860D01*
X194959Y94032D01*
X195258Y94479D01*
X195373Y95059D01*
X195258Y95639D01*
X194930Y96130D01*
X194438Y96459D01*
X193858Y96574D01*
X192480D01*
X191901Y96459D01*
X191409Y96130D01*
X191306Y95977D01*
X190173D01*
X189918Y96232D01*
Y103000D01*
X189848Y103351D01*
X189649Y103649D01*
X188908Y104390D01*
X188610Y104589D01*
X188259Y104659D01*
X187470D01*
Y107470D01*
X182530D01*
Y105918D01*
X179970D01*
Y107470D01*
X175030D01*
Y105918D01*
X172470D01*
Y107470D01*
X170918D01*
Y112932D01*
X173750D01*
Y118069D01*
X166250D01*
Y112932D01*
X169082D01*
Y107470D01*
X167530D01*
Y102530D01*
X167716D01*
X167776Y102441D01*
Y100866D01*
X167716Y100777D01*
X167530D01*
Y99753D01*
X167030Y99546D01*
X163776Y102799D01*
X163479Y102998D01*
X163128Y103068D01*
X162568D01*
Y108750D01*
X160918D01*
Y109715D01*
X161133Y109804D01*
X161696Y110367D01*
X162000Y111102D01*
Y111898D01*
X161696Y112633D01*
X161133Y113196D01*
X160398Y113500D01*
X159602D01*
X159387Y113411D01*
X157149Y115649D01*
X156851Y115848D01*
X156500Y115918D01*
X140294D01*
X140094Y116399D01*
X139399Y117094D01*
X139072Y117229D01*
Y117771D01*
X139399Y117906D01*
X140094Y118601D01*
X140294Y119082D01*
X155000D01*
X155351Y119152D01*
X155649Y119351D01*
X160649Y124351D01*
X160848Y124649D01*
X160918Y125000D01*
Y126715D01*
X161133Y126804D01*
X161696Y127367D01*
X162000Y128102D01*
Y128898D01*
X161696Y129633D01*
X161133Y130195D01*
X160918Y130285D01*
Y131250D01*
X162568D01*
Y134082D01*
X167530D01*
Y132530D01*
X172470D01*
Y134082D01*
X173000D01*
X173351Y134152D01*
X173649Y134351D01*
X174649Y135351D01*
X174848Y135649D01*
X174918Y136000D01*
Y142620D01*
X175689Y143391D01*
X175909Y143370D01*
X176401Y143041D01*
X176980Y142926D01*
X178358D01*
X178938Y143041D01*
X179429Y143370D01*
X179509Y143489D01*
X180083Y143578D01*
X180369Y143338D01*
Y141316D01*
X179530D01*
Y136376D01*
X179716D01*
X179776Y136287D01*
Y135024D01*
X179130D01*
Y132653D01*
X182000D01*
X184870D01*
Y135024D01*
X184224D01*
Y136287D01*
X184284Y136376D01*
X184470D01*
Y141316D01*
X183631D01*
Y144315D01*
X183507Y144939D01*
X183153Y145468D01*
X180542Y148080D01*
X180012Y148434D01*
X179907Y148455D01*
X179743Y148852D01*
X179761Y148994D01*
X179873Y149559D01*
X179758Y150139D01*
X179429Y150630D01*
X178938Y150959D01*
X178358Y151074D01*
X176980D01*
X176401Y150959D01*
X175909Y150630D01*
X175689Y150609D01*
X173149Y153149D01*
X172851Y153348D01*
X172500Y153418D01*
X172470D01*
Y154970D01*
X172284D01*
X172224Y155059D01*
Y156323D01*
X172870D01*
Y158693D01*
X170000D01*
X167130D01*
Y156323D01*
X167776D01*
Y155059D01*
X167716Y154970D01*
X167530D01*
Y154475D01*
X167030Y154268D01*
X163498Y157799D01*
X163201Y157998D01*
X162850Y158068D01*
X162568D01*
Y163750D01*
D02*
G37*
G36*
X227870Y131653D02*
X225500D01*
Y129283D01*
X227870D01*
Y131653D01*
D02*
G37*
G36*
X224500D02*
X222130D01*
Y129283D01*
X224500D01*
Y131653D01*
D02*
G37*
G36*
X184870D02*
X182500D01*
Y129283D01*
X184870D01*
Y131653D01*
D02*
G37*
G36*
X181500D02*
X179130D01*
Y129283D01*
X181500D01*
Y131653D01*
D02*
G37*
G36*
X231843Y146500D02*
X229331D01*
X226818D01*
X226865Y146264D01*
X227282Y145640D01*
X227541Y145468D01*
X227242Y145021D01*
X227127Y144441D01*
X227242Y143861D01*
X227571Y143370D01*
X228062Y143041D01*
X228642Y142926D01*
X230020D01*
X230599Y143041D01*
X231091Y143370D01*
X231233Y143582D01*
X232082D01*
Y136000D01*
X232152Y135649D01*
X232351Y135351D01*
X233351Y134351D01*
X233649Y134152D01*
X234000Y134082D01*
X235030D01*
Y132530D01*
X239970D01*
Y134082D01*
X242530D01*
Y132530D01*
X247470D01*
Y134082D01*
X250030D01*
Y132530D01*
X251582D01*
Y127068D01*
X248750D01*
Y121932D01*
X256250D01*
Y127068D01*
X253418D01*
Y132530D01*
X254970D01*
Y137470D01*
X254784D01*
X254724Y137559D01*
Y139134D01*
X254784Y139223D01*
X254970D01*
Y140775D01*
X259396D01*
X259867Y140305D01*
X260602Y140000D01*
X261398D01*
X262133Y140305D01*
X262604Y140775D01*
X263927D01*
X264582Y140120D01*
Y136750D01*
X262931D01*
Y129250D01*
X268069D01*
Y136750D01*
X266418D01*
Y140500D01*
X266348Y140851D01*
X266149Y141149D01*
X264956Y142342D01*
X264658Y142541D01*
X264307Y142611D01*
X262912D01*
X262696Y143133D01*
X262133Y143695D01*
X261398Y144000D01*
X260602D01*
X259867Y143695D01*
X259304Y143133D01*
X259088Y142611D01*
X254970D01*
Y144163D01*
X250030D01*
Y139223D01*
X250216D01*
X250276Y139134D01*
Y137559D01*
X250216Y137470D01*
X250030D01*
Y135918D01*
X247470D01*
Y137470D01*
X247284D01*
X247224Y137559D01*
Y138823D01*
X247870D01*
Y141193D01*
X245000D01*
X242130D01*
Y138823D01*
X242776D01*
Y137559D01*
X242716Y137470D01*
X242530D01*
Y135918D01*
X239970D01*
Y137470D01*
X239784D01*
X239724Y137559D01*
Y138823D01*
X240370D01*
Y141193D01*
X237500D01*
X234630D01*
Y138823D01*
X235276D01*
Y137559D01*
X235216Y137470D01*
X235030D01*
Y135918D01*
X234380D01*
X233918Y136380D01*
Y144000D01*
X233848Y144351D01*
X233649Y144649D01*
X233149Y145149D01*
X232851Y145348D01*
X232500Y145418D01*
X231832D01*
X231564Y145918D01*
X231796Y146264D01*
X231843Y146500D01*
D02*
G37*
G36*
X305468Y136013D02*
X304532D01*
X303629Y135771D01*
X302819Y135303D01*
X302157Y134642D01*
X301689Y133832D01*
X301447Y132928D01*
Y131993D01*
X301689Y131089D01*
X302157Y130279D01*
X302819Y129618D01*
X303629Y129150D01*
X304532Y128908D01*
X305468D01*
X306371Y129150D01*
X307181Y129618D01*
X307843Y130279D01*
X308311Y131089D01*
X308553Y131993D01*
Y132928D01*
X308311Y133832D01*
X307843Y134642D01*
X307181Y135303D01*
X306371Y135771D01*
X305468Y136013D01*
D02*
G37*
G36*
X199500Y129891D02*
Y128000D01*
X201391D01*
X201035Y128859D01*
X200360Y129535D01*
X199500Y129891D01*
D02*
G37*
G36*
X198500D02*
X197641Y129535D01*
X196965Y128859D01*
X196609Y128000D01*
X198500D01*
Y129891D01*
D02*
G37*
G36*
X201391Y127000D02*
X199500D01*
Y125109D01*
X200360Y125465D01*
X201035Y126140D01*
X201391Y127000D01*
D02*
G37*
G36*
X198500D02*
X196609D01*
X196965Y126140D01*
X197641Y125465D01*
X198500Y125109D01*
Y127000D01*
D02*
G37*
G36*
X295468Y131525D02*
X294532D01*
X293629Y131283D01*
X292819Y130815D01*
X292157Y130154D01*
X291689Y129344D01*
X291447Y128440D01*
Y127505D01*
X291689Y126601D01*
X292157Y125791D01*
X292819Y125129D01*
X293629Y124662D01*
X294532Y124420D01*
X295468D01*
X296371Y124662D01*
X297181Y125129D01*
X297843Y125791D01*
X298311Y126601D01*
X298553Y127505D01*
Y128440D01*
X298311Y129344D01*
X297843Y130154D01*
X297181Y130815D01*
X296371Y131283D01*
X295468Y131525D01*
D02*
G37*
G36*
X184500Y125891D02*
Y124000D01*
X186391D01*
X186035Y124859D01*
X185360Y125535D01*
X184500Y125891D01*
D02*
G37*
G36*
X183500D02*
X182641Y125535D01*
X181965Y124859D01*
X181609Y124000D01*
X183500D01*
Y125891D01*
D02*
G37*
G36*
X325398Y188000D02*
X324602D01*
X323867Y187696D01*
X323305Y187133D01*
X323000Y186398D01*
Y185602D01*
X323305Y184867D01*
X323867Y184304D01*
X323879Y184300D01*
Y129461D01*
X316595Y122177D01*
X316371Y122307D01*
X315468Y122549D01*
X314532D01*
X313629Y122307D01*
X312819Y121839D01*
X312157Y121177D01*
X311689Y120367D01*
X311447Y119464D01*
Y118528D01*
X311689Y117625D01*
X312157Y116815D01*
X312819Y116153D01*
X313629Y115685D01*
X314532Y115443D01*
X315468D01*
X316371Y115685D01*
X317181Y116153D01*
X317843Y116815D01*
X318311Y117625D01*
X318553Y118528D01*
Y119464D01*
X318311Y120367D01*
X318181Y120591D01*
X325793Y128203D01*
X325793Y128203D01*
X326036Y128567D01*
X326122Y128996D01*
X326121Y128996D01*
Y184300D01*
X326133Y184304D01*
X326695Y184867D01*
X327000Y185602D01*
Y186398D01*
X326695Y187133D01*
X326133Y187696D01*
X325398Y188000D01*
D02*
G37*
G36*
X186391Y123000D02*
X184500D01*
Y121109D01*
X185360Y121465D01*
X186035Y122141D01*
X186391Y123000D01*
D02*
G37*
G36*
X183500D02*
X181609D01*
X181965Y122141D01*
X182641Y121465D01*
X183500Y121109D01*
Y123000D01*
D02*
G37*
G36*
X305468Y127037D02*
X304532D01*
X303629Y126795D01*
X302819Y126327D01*
X302157Y125666D01*
X301689Y124856D01*
X301447Y123952D01*
Y123017D01*
X301689Y122113D01*
X302157Y121303D01*
X302819Y120641D01*
X303629Y120174D01*
X304532Y119931D01*
X305468D01*
X306371Y120174D01*
X307181Y120641D01*
X307843Y121303D01*
X308311Y122113D01*
X308553Y123017D01*
Y123952D01*
X308311Y124856D01*
X307843Y125666D01*
X307181Y126327D01*
X306371Y126795D01*
X305468Y127037D01*
D02*
G37*
G36*
X295468Y122549D02*
X294532D01*
X293629Y122307D01*
X292819Y121839D01*
X292157Y121177D01*
X291689Y120367D01*
X291447Y119464D01*
Y118528D01*
X291689Y117625D01*
X292157Y116815D01*
X292819Y116153D01*
X293629Y115685D01*
X294532Y115443D01*
X295468D01*
X296371Y115685D01*
X297181Y116153D01*
X297843Y116815D01*
X298311Y117625D01*
X298553Y118528D01*
Y119464D01*
X298311Y120367D01*
X297843Y121177D01*
X297181Y121839D01*
X296371Y122307D01*
X295468Y122549D01*
D02*
G37*
G36*
X193500Y114891D02*
Y113000D01*
X195391D01*
X195035Y113859D01*
X194360Y114535D01*
X193500Y114891D01*
D02*
G37*
G36*
X192500D02*
X191640Y114535D01*
X190965Y113859D01*
X190609Y113000D01*
X192500D01*
Y114891D01*
D02*
G37*
G36*
X178500D02*
Y113000D01*
X180391D01*
X180035Y113859D01*
X179359Y114535D01*
X178500Y114891D01*
D02*
G37*
G36*
X177500D02*
X176640Y114535D01*
X175965Y113859D01*
X175609Y113000D01*
X177500D01*
Y114891D01*
D02*
G37*
G36*
X305468Y118061D02*
X304532D01*
X303629Y117818D01*
X302819Y117351D01*
X302157Y116689D01*
X301689Y115879D01*
X301447Y114976D01*
Y114040D01*
X301689Y113137D01*
X302157Y112326D01*
X302819Y111665D01*
X303629Y111197D01*
X304532Y110955D01*
X305468D01*
X306371Y111197D01*
X307181Y111665D01*
X307843Y112326D01*
X308311Y113137D01*
X308553Y114040D01*
Y114976D01*
X308311Y115879D01*
X307843Y116689D01*
X307181Y117351D01*
X306371Y117818D01*
X305468Y118061D01*
D02*
G37*
G36*
X195391Y112000D02*
X193500D01*
Y110109D01*
X194360Y110465D01*
X195035Y111141D01*
X195391Y112000D01*
D02*
G37*
G36*
X192500D02*
X190609D01*
X190965Y111141D01*
X191640Y110465D01*
X192500Y110109D01*
Y112000D01*
D02*
G37*
G36*
X180391D02*
X178500D01*
Y110109D01*
X179359Y110465D01*
X180035Y111141D01*
X180391Y112000D01*
D02*
G37*
G36*
X177500D02*
X175609D01*
X175965Y111141D01*
X176640Y110465D01*
X177500Y110109D01*
Y112000D01*
D02*
G37*
G36*
X127500D02*
X125163D01*
X125326Y111392D01*
X125703Y110738D01*
X126238Y110203D01*
X126892Y109826D01*
X127500Y109663D01*
Y112000D01*
D02*
G37*
G36*
X140837Y109500D02*
X138500D01*
Y107163D01*
X139108Y107325D01*
X139762Y107703D01*
X140297Y108238D01*
X140674Y108892D01*
X140837Y109500D01*
D02*
G37*
G36*
X137500D02*
X135163D01*
X135326Y108892D01*
X135703Y108238D01*
X136238Y107703D01*
X136892Y107325D01*
X137500Y107163D01*
Y109500D01*
D02*
G37*
G36*
X295468Y113572D02*
X294532D01*
X293629Y113330D01*
X292819Y112863D01*
X292157Y112201D01*
X291689Y111391D01*
X291447Y110487D01*
Y109552D01*
X291689Y108648D01*
X292157Y107838D01*
X292819Y107177D01*
X293629Y106709D01*
X294532Y106467D01*
X295468D01*
X296371Y106709D01*
X297181Y107177D01*
X297843Y107838D01*
X298311Y108648D01*
X298553Y109552D01*
Y110487D01*
X298311Y111391D01*
X297843Y112201D01*
X297181Y112863D01*
X296371Y113330D01*
X295468Y113572D01*
D02*
G37*
G36*
X268069Y110250D02*
X262931D01*
Y105918D01*
X262285D01*
X262195Y106133D01*
X261633Y106695D01*
X260898Y107000D01*
X260102D01*
X259367Y106695D01*
X258804Y106133D01*
X258715Y105918D01*
X254970D01*
Y107470D01*
X250030D01*
Y105918D01*
X249500D01*
X249149Y105848D01*
X248851Y105649D01*
X247851Y104649D01*
X247652Y104351D01*
X247582Y104000D01*
Y96497D01*
X247148Y96062D01*
X246613Y96098D01*
X246591Y96130D01*
X246099Y96459D01*
X245520Y96574D01*
X244142D01*
X243562Y96459D01*
X243071Y96130D01*
X242742Y95639D01*
X242627Y95059D01*
X242739Y94494D01*
X242757Y94352D01*
X242593Y93955D01*
X242488Y93934D01*
X241958Y93580D01*
X239347Y90968D01*
X238993Y90439D01*
X238869Y89815D01*
Y86817D01*
X238030D01*
Y81876D01*
X238216D01*
X238276Y81787D01*
Y80524D01*
X237630D01*
Y78154D01*
X240500D01*
X243370D01*
Y80524D01*
X242724D01*
Y81787D01*
X242784Y81876D01*
X242970D01*
Y86817D01*
X242131D01*
Y88838D01*
X242417Y89078D01*
X242991Y88989D01*
X243071Y88870D01*
X243562Y88541D01*
X244142Y88426D01*
X245520D01*
X246099Y88541D01*
X246591Y88870D01*
X246811Y88891D01*
X248432Y87270D01*
X248730Y87071D01*
X249081Y87001D01*
X250030D01*
Y85030D01*
X250216D01*
X250276Y84941D01*
Y83677D01*
X249630D01*
Y81307D01*
X252500D01*
X255370D01*
Y83677D01*
X254724D01*
Y84941D01*
X254784Y85030D01*
X254970D01*
Y86582D01*
X258715D01*
X258804Y86367D01*
X259367Y85804D01*
X260102Y85500D01*
X260898D01*
X261633Y85804D01*
X262195Y86367D01*
X262285Y86582D01*
X264120D01*
X264582Y86120D01*
Y81750D01*
X262931D01*
Y74250D01*
X268069D01*
Y81750D01*
X266418D01*
Y86500D01*
X266348Y86851D01*
X266149Y87149D01*
X265149Y88149D01*
X264851Y88348D01*
X264500Y88418D01*
X262285D01*
X262195Y88633D01*
X261633Y89196D01*
X260898Y89500D01*
X260102D01*
X259367Y89196D01*
X258804Y88633D01*
X258715Y88418D01*
X254970D01*
Y89970D01*
X250030D01*
Y88836D01*
X249462D01*
X248221Y90077D01*
X248272Y90727D01*
X248367Y90804D01*
X249102Y90500D01*
X249898D01*
X250633Y90804D01*
X251196Y91367D01*
X251500Y92102D01*
Y92898D01*
X251196Y93633D01*
X250633Y94195D01*
X249898Y94500D01*
X249102D01*
X248737Y94349D01*
X248454Y94773D01*
X249130Y95449D01*
X249630Y95437D01*
X249630Y95437D01*
X252000D01*
Y98307D01*
X252500D01*
Y98807D01*
X255370D01*
Y101177D01*
X254724D01*
Y102441D01*
X254784Y102530D01*
X254970D01*
Y104082D01*
X258715D01*
X258804Y103867D01*
X259367Y103305D01*
X260102Y103000D01*
X260898D01*
X261633Y103305D01*
X262195Y103867D01*
X262285Y104082D01*
X262931D01*
Y102750D01*
X268069D01*
Y110250D01*
D02*
G37*
G36*
X331898Y187782D02*
X331102D01*
X330367Y187478D01*
X329804Y186915D01*
X329500Y186180D01*
Y185384D01*
X329804Y184649D01*
X330367Y184087D01*
X330379Y184082D01*
Y126984D01*
X316595Y113201D01*
X316371Y113330D01*
X315468Y113572D01*
X314532D01*
X313629Y113330D01*
X312819Y112863D01*
X312157Y112201D01*
X311689Y111391D01*
X311447Y110487D01*
Y109552D01*
X311689Y108648D01*
X312157Y107838D01*
X312819Y107177D01*
X313629Y106709D01*
X314532Y106467D01*
X315468D01*
X316371Y106709D01*
X317181Y107177D01*
X317843Y107838D01*
X318311Y108648D01*
X318553Y109552D01*
Y110487D01*
X318311Y111391D01*
X318181Y111615D01*
X332293Y125727D01*
X332293Y125727D01*
X332536Y126091D01*
X332622Y126520D01*
Y184082D01*
X332633Y184087D01*
X333195Y184649D01*
X333365Y185058D01*
X333544Y185074D01*
X333885Y185008D01*
X334151Y184367D01*
X334379Y184140D01*
Y122008D01*
X316595Y104225D01*
X316371Y104354D01*
X315468Y104596D01*
X314532D01*
X313629Y104354D01*
X312819Y103886D01*
X312157Y103225D01*
X311689Y102415D01*
X311447Y101511D01*
Y100576D01*
X311689Y99672D01*
X312157Y98862D01*
X312819Y98200D01*
X313629Y97733D01*
X314532Y97491D01*
X315468D01*
X316371Y97733D01*
X317181Y98200D01*
X317843Y98862D01*
X318311Y99672D01*
X318553Y100576D01*
Y101511D01*
X318311Y102415D01*
X318181Y102639D01*
X336293Y120750D01*
X336293Y120750D01*
X336536Y121114D01*
X336622Y121543D01*
X336621Y121543D01*
Y183656D01*
X336979Y183805D01*
X337542Y184367D01*
X337846Y185102D01*
Y185898D01*
X337542Y186633D01*
X336979Y187196D01*
X336244Y187500D01*
X335449D01*
X334714Y187196D01*
X334151Y186633D01*
X333982Y186224D01*
X333802Y186208D01*
X333461Y186274D01*
X333195Y186915D01*
X332633Y187478D01*
X331898Y187782D01*
D02*
G37*
G36*
X305468Y109084D02*
X304532D01*
X303629Y108842D01*
X302819Y108374D01*
X302157Y107713D01*
X301689Y106903D01*
X301447Y105999D01*
Y105064D01*
X301689Y104160D01*
X302157Y103350D01*
X302819Y102689D01*
X303629Y102221D01*
X304532Y101979D01*
X305468D01*
X306371Y102221D01*
X307181Y102689D01*
X307843Y103350D01*
X308311Y104160D01*
X308553Y105064D01*
Y105999D01*
X308311Y106903D01*
X307843Y107713D01*
X307181Y108374D01*
X306371Y108842D01*
X305468Y109084D01*
D02*
G37*
G36*
X227000Y100094D02*
X223449D01*
Y97626D01*
X227000D01*
Y100094D01*
D02*
G37*
G36*
X295468Y104596D02*
X294532D01*
X293629Y104354D01*
X292819Y103886D01*
X292157Y103225D01*
X291689Y102415D01*
X291447Y101511D01*
Y100576D01*
X291689Y99672D01*
X292157Y98862D01*
X292819Y98200D01*
X293629Y97733D01*
X294532Y97491D01*
X295468D01*
X296371Y97733D01*
X297181Y98200D01*
X297843Y98862D01*
X298311Y99672D01*
X298553Y100576D01*
Y101511D01*
X298311Y102415D01*
X297843Y103225D01*
X297181Y103886D01*
X296371Y104354D01*
X295468Y104596D01*
D02*
G37*
G36*
X255370Y97807D02*
X253000D01*
Y95437D01*
X255370D01*
Y97807D01*
D02*
G37*
G36*
X220370D02*
X218000D01*
Y95437D01*
X220370D01*
Y97807D01*
D02*
G37*
G36*
X217000D02*
X214630D01*
Y95437D01*
X217000D01*
Y97807D01*
D02*
G37*
G36*
X184500D02*
X182130D01*
Y95437D01*
X184500D01*
Y97807D01*
D02*
G37*
G36*
X180370D02*
X178000D01*
Y95437D01*
X180370D01*
Y97807D01*
D02*
G37*
G36*
X177000D02*
X174630D01*
Y95437D01*
X177000D01*
Y97807D01*
D02*
G37*
G36*
X227000Y96626D02*
X223449D01*
Y94157D01*
X227000D01*
Y96626D01*
D02*
G37*
G36*
X213750Y117569D02*
X206250D01*
Y112432D01*
X209082D01*
Y107470D01*
X207530D01*
Y102530D01*
X207716D01*
X207776Y102441D01*
Y100866D01*
X207716Y100777D01*
X207530D01*
Y99225D01*
X207316D01*
X206965Y99155D01*
X206667Y98956D01*
X203819Y96108D01*
X203591Y96130D01*
X203099Y96459D01*
X202520Y96574D01*
X201142D01*
X200562Y96459D01*
X200071Y96130D01*
X199742Y95639D01*
X199627Y95059D01*
X199712Y94631D01*
X199707Y94569D01*
X199509Y94200D01*
X199408Y94079D01*
X199047Y94007D01*
X198518Y93654D01*
X196346Y91482D01*
X195993Y90953D01*
X195869Y90328D01*
Y86663D01*
X195030D01*
Y81723D01*
X195216D01*
X195276Y81634D01*
Y80370D01*
X194630D01*
Y78000D01*
X197500D01*
X200370D01*
Y80370D01*
X199724D01*
Y81634D01*
X199784Y81723D01*
X199970D01*
Y86663D01*
X199131D01*
Y89177D01*
X199251Y89266D01*
X199325Y89280D01*
X199900Y89125D01*
X200071Y88870D01*
X200562Y88541D01*
X201142Y88426D01*
X202520D01*
X203099Y88541D01*
X203591Y88870D01*
X203700Y89032D01*
X204670D01*
X205082Y88620D01*
Y81859D01*
X205152Y81508D01*
X205351Y81210D01*
X206403Y80158D01*
X206701Y79959D01*
X207052Y79889D01*
X207530D01*
Y78337D01*
X212470D01*
Y83277D01*
X212284D01*
X212224Y83366D01*
Y84941D01*
X212284Y85030D01*
X212470D01*
Y86582D01*
X215030D01*
Y85030D01*
X215216D01*
X215276Y84941D01*
Y83677D01*
X214630D01*
Y81307D01*
X217500D01*
X220370D01*
Y83677D01*
X219724D01*
Y84941D01*
X219784Y85030D01*
X219970D01*
Y86582D01*
X223849D01*
Y84931D01*
X231151D01*
Y86582D01*
X231500D01*
X231851Y86652D01*
X232149Y86851D01*
X234189Y88891D01*
X234409Y88870D01*
X234901Y88541D01*
X235252Y88472D01*
Y72569D01*
X232250D01*
Y67431D01*
X239750D01*
Y72569D01*
X237087D01*
Y88472D01*
X237438Y88541D01*
X237930Y88870D01*
X238258Y89361D01*
X238373Y89941D01*
X238258Y90521D01*
X237959Y90968D01*
X238218Y91140D01*
X238635Y91764D01*
X238682Y92000D01*
X236169D01*
X233657D01*
X233704Y91764D01*
X233975Y91359D01*
X233967Y91244D01*
X233764Y90823D01*
X233590Y90789D01*
X233292Y90590D01*
X231613Y88911D01*
X231151Y89102D01*
Y90069D01*
X223849D01*
Y88418D01*
X219970D01*
Y89970D01*
X215030D01*
Y88418D01*
X212470D01*
Y89970D01*
X207530D01*
Y85030D01*
X207716D01*
X207776Y84941D01*
Y83366D01*
X207716Y83277D01*
X207530D01*
Y82814D01*
X207030Y82547D01*
X206918Y82622D01*
Y89000D01*
X206848Y89351D01*
X206649Y89649D01*
X205929Y90369D01*
X206136Y90869D01*
X206803D01*
X206867Y90804D01*
X207602Y90500D01*
X208398D01*
X209133Y90804D01*
X209696Y91367D01*
X210000Y92102D01*
Y92898D01*
X209696Y93633D01*
X209133Y94195D01*
X208398Y94500D01*
X207602D01*
X206867Y94195D01*
X206803Y94131D01*
X205145D01*
X204938Y94631D01*
X207068Y96761D01*
X207530Y96570D01*
Y95837D01*
X212470D01*
Y100777D01*
X212284D01*
X212224Y100866D01*
Y102441D01*
X212284Y102530D01*
X212470D01*
Y104082D01*
X215030D01*
Y102530D01*
X215216D01*
X215276Y102441D01*
Y101177D01*
X214630D01*
Y98807D01*
X217500D01*
X220370D01*
Y101177D01*
X219724D01*
Y102441D01*
X219784Y102530D01*
X219970D01*
Y104082D01*
X223849D01*
Y102431D01*
X231082D01*
Y100094D01*
X228000D01*
Y97126D01*
Y94157D01*
X231551D01*
Y94498D01*
X232013Y94689D01*
X232351Y94351D01*
X232649Y94152D01*
X233000Y94082D01*
X233668D01*
X233935Y93582D01*
X233704Y93236D01*
X233657Y93000D01*
X236169D01*
X238682D01*
X238635Y93236D01*
X238218Y93860D01*
X237959Y94032D01*
X238258Y94479D01*
X238373Y95059D01*
X238258Y95639D01*
X237930Y96130D01*
X237438Y96459D01*
X236858Y96574D01*
X235480D01*
X234901Y96459D01*
X234409Y96130D01*
X234267Y95918D01*
X233380D01*
X232918Y96380D01*
Y104000D01*
X232848Y104351D01*
X232649Y104649D01*
X231749Y105549D01*
X231451Y105748D01*
X231151Y105808D01*
Y107569D01*
X223849D01*
Y105918D01*
X219970D01*
Y107470D01*
X215030D01*
Y105918D01*
X212470D01*
Y107470D01*
X210918D01*
Y112432D01*
X213750D01*
Y117569D01*
D02*
G37*
G36*
X152500Y89891D02*
Y88000D01*
X154391D01*
X154035Y88859D01*
X153359Y89535D01*
X152500Y89891D01*
D02*
G37*
G36*
X151500D02*
X150640Y89535D01*
X149965Y88859D01*
X149609Y88000D01*
X151500D01*
Y89891D01*
D02*
G37*
G36*
X154391Y87000D02*
X152500D01*
Y85109D01*
X153359Y85465D01*
X154035Y86141D01*
X154391Y87000D01*
D02*
G37*
G36*
X151500D02*
X149609D01*
X149965Y86141D01*
X150640Y85465D01*
X151500Y85109D01*
Y87000D01*
D02*
G37*
G36*
X191365Y83433D02*
X189475D01*
Y81542D01*
X190334Y81898D01*
X191009Y82573D01*
X191365Y83433D01*
D02*
G37*
G36*
X231551Y82595D02*
X228000D01*
Y80126D01*
X231551D01*
Y82595D01*
D02*
G37*
G36*
X227000D02*
X223449D01*
Y80126D01*
X227000D01*
Y82595D01*
D02*
G37*
G36*
X255370Y80307D02*
X253000D01*
Y77937D01*
X255370D01*
Y80307D01*
D02*
G37*
G36*
X252000D02*
X249630D01*
Y77937D01*
X252000D01*
Y80307D01*
D02*
G37*
G36*
X220370D02*
X218000D01*
Y77937D01*
X220370D01*
Y80307D01*
D02*
G37*
G36*
X217000D02*
X214630D01*
Y77937D01*
X217000D01*
Y80307D01*
D02*
G37*
G36*
X187870D02*
X185500D01*
Y77937D01*
X187870D01*
Y80307D01*
D02*
G37*
G36*
X184500D02*
X182130D01*
Y77937D01*
X184500D01*
Y80307D01*
D02*
G37*
G36*
X180370D02*
X178000D01*
Y77937D01*
X180370D01*
Y80307D01*
D02*
G37*
G36*
X177000D02*
X174630D01*
Y77937D01*
X177000D01*
Y80307D01*
D02*
G37*
G36*
X231551Y79126D02*
X228000D01*
Y76657D01*
X231551D01*
Y79126D01*
D02*
G37*
G36*
X227000D02*
X223449D01*
Y76657D01*
X227000D01*
Y79126D01*
D02*
G37*
G36*
X133217Y78870D02*
X130847D01*
Y76500D01*
X133217D01*
Y78870D01*
D02*
G37*
G36*
X243370Y77153D02*
X241000D01*
Y74783D01*
X243370D01*
Y77153D01*
D02*
G37*
G36*
X240000D02*
X237630D01*
Y74783D01*
X240000D01*
Y77153D01*
D02*
G37*
G36*
X200370Y77000D02*
X198000D01*
Y74630D01*
X200370D01*
Y77000D01*
D02*
G37*
G36*
X197000D02*
X194630D01*
Y74630D01*
X197000D01*
Y77000D01*
D02*
G37*
G36*
X133217Y75500D02*
X130847D01*
Y73130D01*
X133217D01*
Y75500D01*
D02*
G37*
G36*
X123835Y100226D02*
X122165D01*
X120528Y99900D01*
X118986Y99261D01*
X117598Y98334D01*
X116418Y97154D01*
X115490Y95766D01*
X114852Y94224D01*
X114526Y92587D01*
Y90917D01*
X114852Y89280D01*
X115490Y87738D01*
X116418Y86350D01*
X117598Y85170D01*
X118986Y84242D01*
X120528Y83604D01*
X121114Y83487D01*
Y75500D01*
X121184Y75150D01*
Y73530D01*
X126124D01*
Y73716D01*
X126213Y73776D01*
X127476D01*
Y73130D01*
X129847D01*
Y76000D01*
Y78870D01*
X127476D01*
Y78224D01*
X126213D01*
X126124Y78284D01*
Y78470D01*
X124886D01*
Y83487D01*
X125472Y83604D01*
X127014Y84242D01*
X128402Y85170D01*
X129582Y86350D01*
X130510Y87738D01*
X131148Y89280D01*
X131474Y90917D01*
Y92587D01*
X131148Y94224D01*
X130510Y95766D01*
X129582Y97154D01*
X128402Y98334D01*
X127014Y99261D01*
X125472Y99900D01*
X123835Y100226D01*
D02*
G37*
G36*
X305822Y81250D02*
X304178D01*
X302555Y80993D01*
X300992Y80485D01*
X299527Y79738D01*
X298197Y78772D01*
X297035Y77610D01*
X296069Y76280D01*
X295322Y74816D01*
X294815Y73252D01*
X294557Y71629D01*
Y69985D01*
X294815Y68362D01*
X295322Y66799D01*
X296069Y65334D01*
X297035Y64004D01*
X298197Y62842D01*
X299527Y61876D01*
X300992Y61130D01*
X302555Y60622D01*
X304178Y60365D01*
X305822D01*
X307445Y60622D01*
X309009Y61130D01*
X310473Y61876D01*
X311803Y62842D01*
X312965Y64004D01*
X313931Y65334D01*
X314678Y66799D01*
X315185Y68362D01*
X315442Y69985D01*
Y71629D01*
X315185Y73252D01*
X314678Y74816D01*
X313931Y76280D01*
X312965Y77610D01*
X311803Y78772D01*
X310473Y79738D01*
X309009Y80485D01*
X307445Y80993D01*
X305822Y81250D01*
D02*
G37*
G36*
X231398Y62500D02*
X230602D01*
X229867Y62195D01*
X229305Y61633D01*
X229215Y61418D01*
X157500D01*
X157149Y61348D01*
X156851Y61149D01*
X154351Y58649D01*
X154152Y58351D01*
X154082Y58000D01*
Y19000D01*
X154152Y18649D01*
X154351Y18351D01*
X158591Y14111D01*
X158889Y13912D01*
X159240Y13842D01*
X168116D01*
Y12979D01*
X173647D01*
Y16319D01*
X174047D01*
Y18000D01*
X170882D01*
X167717D01*
Y16319D01*
X168116D01*
Y15677D01*
X159620D01*
X155918Y19380D01*
Y57620D01*
X157880Y59582D01*
X229215D01*
X229305Y59367D01*
X229867Y58805D01*
X230602Y58500D01*
X231398D01*
X232133Y58805D01*
X232696Y59367D01*
X233000Y60102D01*
Y60898D01*
X232696Y61633D01*
X232133Y62195D01*
X231398Y62500D01*
D02*
G37*
G36*
Y57500D02*
X230602D01*
X229867Y57196D01*
X229305Y56633D01*
X229215Y56418D01*
X161000D01*
X160649Y56348D01*
X160351Y56149D01*
X158351Y54149D01*
X158152Y53851D01*
X158082Y53500D01*
Y36000D01*
X158152Y35649D01*
X158351Y35351D01*
X159851Y33851D01*
X160149Y33652D01*
X160500Y33582D01*
X168235D01*
Y32719D01*
X173765D01*
Y36059D01*
X174165D01*
Y38282D01*
X174627Y38474D01*
X176126Y36975D01*
X176738Y36566D01*
X177460Y36423D01*
X178030D01*
X178471Y36281D01*
X178471Y35923D01*
Y32719D01*
X184002D01*
Y33082D01*
X197865D01*
X197921Y32805D01*
X198314Y32216D01*
X198904Y31822D01*
X199598Y31684D01*
X202945D01*
X203640Y31822D01*
X204229Y32216D01*
X204623Y32805D01*
X204761Y33500D01*
X204623Y34195D01*
X204229Y34784D01*
X203640Y35178D01*
X202945Y35316D01*
X199598D01*
X198904Y35178D01*
X198514Y34918D01*
X184355D01*
X184002Y35271D01*
X184002Y36281D01*
X184002Y36781D01*
Y40021D01*
X184443Y40163D01*
X185530D01*
Y40030D01*
X190470D01*
Y40114D01*
X191500D01*
X192222Y40257D01*
X192834Y40666D01*
X195661Y43494D01*
X198114D01*
Y39484D01*
X197921Y39195D01*
X197782Y38500D01*
X197921Y37805D01*
X198314Y37216D01*
X198904Y36822D01*
X199598Y36684D01*
X199716D01*
X200069Y36614D01*
X201272D01*
X201625Y36684D01*
X202945D01*
X203640Y36822D01*
X204229Y37216D01*
X204623Y37805D01*
X204761Y38500D01*
X204623Y39195D01*
X204229Y39784D01*
X203640Y40178D01*
X202945Y40316D01*
X201886D01*
Y43530D01*
X202470D01*
Y43716D01*
X202559Y43776D01*
X203823D01*
Y43130D01*
X206193D01*
Y46000D01*
Y48870D01*
X203823D01*
Y48224D01*
X202559D01*
X202470Y48284D01*
Y48470D01*
X201886D01*
Y49828D01*
X202000Y50102D01*
Y50898D01*
X201695Y51633D01*
X201133Y52196D01*
X200398Y52500D01*
X199602D01*
X198867Y52196D01*
X198304Y51633D01*
X198000Y50898D01*
Y50102D01*
X198114Y49828D01*
Y48470D01*
X197530D01*
Y47266D01*
X194880D01*
X194158Y47123D01*
X193546Y46714D01*
X190970Y44138D01*
X190470Y44345D01*
Y44970D01*
X190284D01*
X190224Y45059D01*
Y46323D01*
X190870D01*
Y48693D01*
X188000D01*
X185130D01*
Y46323D01*
X185776D01*
Y45059D01*
X185716Y44970D01*
X185530D01*
Y43935D01*
X181305D01*
X180583Y43792D01*
X180538Y43761D01*
X178471D01*
Y40672D01*
X177971Y40465D01*
X175191Y43245D01*
X174579Y43654D01*
X173857Y43798D01*
X171346D01*
X171239Y43819D01*
X167841Y47218D01*
X167229Y47627D01*
X166507Y47770D01*
X166470D01*
Y48663D01*
X165886D01*
Y51246D01*
X166000Y51521D01*
Y52317D01*
X165696Y53052D01*
X165133Y53614D01*
X164398Y53919D01*
X163602D01*
X162867Y53614D01*
X162304Y53052D01*
X162000Y52317D01*
Y51521D01*
X162114Y51246D01*
Y48663D01*
X161530D01*
Y43723D01*
X161716D01*
X161776Y43634D01*
Y42370D01*
X161130D01*
Y40000D01*
X164000D01*
X166870D01*
Y41941D01*
X166870Y42146D01*
X167370Y42353D01*
X168235Y41489D01*
Y40421D01*
X167835D01*
Y38740D01*
X171000D01*
Y37740D01*
X167835D01*
Y36059D01*
X168235D01*
Y35418D01*
X160880D01*
X159918Y36380D01*
Y53120D01*
X161380Y54582D01*
X229215D01*
X229305Y54367D01*
X229867Y53804D01*
X230602Y53500D01*
X231398D01*
X232133Y53804D01*
X232696Y54367D01*
X233000Y55102D01*
Y55898D01*
X232696Y56633D01*
X232133Y57196D01*
X231398Y57500D01*
D02*
G37*
G36*
X190870Y52063D02*
X188500D01*
Y49693D01*
X190870D01*
Y52063D01*
D02*
G37*
G36*
X187500D02*
X185130D01*
Y49693D01*
X187500D01*
Y52063D01*
D02*
G37*
G36*
X209563Y48870D02*
X207193D01*
Y46500D01*
X209563D01*
Y48870D01*
D02*
G37*
G36*
Y45500D02*
X207193D01*
Y43130D01*
X209563D01*
Y45500D01*
D02*
G37*
G36*
X334520Y45437D02*
X334370D01*
Y41000D01*
X338807D01*
Y41150D01*
X338471Y42406D01*
X337821Y43531D01*
X336901Y44451D01*
X335776Y45101D01*
X334520Y45437D01*
D02*
G37*
G36*
X333370D02*
X333220D01*
X331964Y45101D01*
X330839Y44451D01*
X329920Y43531D01*
X329270Y42406D01*
X328933Y41150D01*
Y41000D01*
X333370D01*
Y45437D01*
D02*
G37*
G36*
X314835D02*
X314685D01*
Y41000D01*
X319122D01*
Y41150D01*
X318786Y42406D01*
X318136Y43531D01*
X317216Y44451D01*
X316091Y45101D01*
X314835Y45437D01*
D02*
G37*
G36*
X313685D02*
X313535D01*
X312279Y45101D01*
X311154Y44451D01*
X310234Y43531D01*
X309584Y42406D01*
X309248Y41150D01*
Y41000D01*
X313685D01*
Y45437D01*
D02*
G37*
G36*
X295150D02*
X295000D01*
Y41000D01*
X299437D01*
Y41150D01*
X299101Y42406D01*
X298451Y43531D01*
X297531Y44451D01*
X296406Y45101D01*
X295150Y45437D01*
D02*
G37*
G36*
X294000D02*
X293850D01*
X292594Y45101D01*
X291469Y44451D01*
X290549Y43531D01*
X289899Y42406D01*
X289563Y41150D01*
Y41000D01*
X294000D01*
Y45437D01*
D02*
G37*
G36*
X238750Y47569D02*
X231250D01*
Y44018D01*
X226854Y39622D01*
X225794D01*
X225686Y39784D01*
X225097Y40178D01*
X224402Y40316D01*
X221055D01*
X220360Y40178D01*
X219771Y39784D01*
X219377Y39195D01*
X219239Y38500D01*
X219377Y37805D01*
X219771Y37216D01*
X220360Y36822D01*
X221055Y36684D01*
X224402D01*
X225097Y36822D01*
X225686Y37216D01*
X225794Y37378D01*
X227319D01*
X227319Y37378D01*
X227748Y37464D01*
X228112Y37707D01*
X232837Y42432D01*
X238750D01*
Y43878D01*
X242535D01*
X244505Y41909D01*
X244500Y41898D01*
Y41102D01*
X244805Y40367D01*
X245367Y39805D01*
X246102Y39500D01*
X246898D01*
X247633Y39805D01*
X248196Y40367D01*
X248500Y41102D01*
Y41898D01*
X248196Y42633D01*
X247633Y43196D01*
X246898Y43500D01*
X246102D01*
X246091Y43495D01*
X243793Y45793D01*
X243429Y46036D01*
X243000Y46122D01*
X243000Y46122D01*
X238750D01*
Y47569D01*
D02*
G37*
G36*
X166870Y39000D02*
X164500D01*
Y36630D01*
X166870D01*
Y39000D01*
D02*
G37*
G36*
X163500D02*
X161130D01*
Y36630D01*
X163500D01*
Y39000D01*
D02*
G37*
G36*
X338807Y40000D02*
X334370D01*
Y35563D01*
X334520D01*
X335776Y35899D01*
X336901Y36549D01*
X337821Y37469D01*
X338471Y38594D01*
X338807Y39850D01*
Y40000D01*
D02*
G37*
G36*
X333370D02*
X328933D01*
Y39850D01*
X329270Y38594D01*
X329920Y37469D01*
X330839Y36549D01*
X331964Y35899D01*
X333220Y35563D01*
X333370D01*
Y40000D01*
D02*
G37*
G36*
X319122D02*
X314685D01*
Y35563D01*
X314835D01*
X316091Y35899D01*
X317216Y36549D01*
X318136Y37469D01*
X318786Y38594D01*
X319122Y39850D01*
Y40000D01*
D02*
G37*
G36*
X313685D02*
X309248D01*
Y39850D01*
X309584Y38594D01*
X310234Y37469D01*
X311154Y36549D01*
X312279Y35899D01*
X313535Y35563D01*
X313685D01*
Y40000D01*
D02*
G37*
G36*
X299437D02*
X295000D01*
Y35563D01*
X295150D01*
X296406Y35899D01*
X297531Y36549D01*
X298451Y37469D01*
X299101Y38594D01*
X299437Y39850D01*
Y40000D01*
D02*
G37*
G36*
X294000D02*
X289563D01*
Y39850D01*
X289899Y38594D01*
X290549Y37469D01*
X291469Y36549D01*
X292594Y35899D01*
X293850Y35563D01*
X294000D01*
Y40000D01*
D02*
G37*
G36*
X238750Y37569D02*
X231250D01*
Y34622D01*
X225794D01*
X225686Y34784D01*
X225097Y35178D01*
X224402Y35316D01*
X221055D01*
X220360Y35178D01*
X219771Y34784D01*
X219377Y34195D01*
X219239Y33500D01*
X219377Y32805D01*
X219771Y32216D01*
X220360Y31822D01*
X221055Y31684D01*
X224402D01*
X225097Y31822D01*
X225686Y32216D01*
X225794Y32378D01*
X232319D01*
X232319Y32378D01*
X232586Y32432D01*
X238750D01*
Y33878D01*
X242535D01*
X244505Y31909D01*
X244500Y31898D01*
Y31102D01*
X244805Y30367D01*
X245367Y29805D01*
X246102Y29500D01*
X246898D01*
X247633Y29805D01*
X248196Y30367D01*
X248500Y31102D01*
Y31898D01*
X248196Y32633D01*
X247633Y33195D01*
X246898Y33500D01*
X246102D01*
X246091Y33495D01*
X243793Y35793D01*
X243429Y36036D01*
X243000Y36122D01*
X243000Y36122D01*
X238750D01*
Y37569D01*
D02*
G37*
G36*
X190870Y32563D02*
X188500D01*
Y30193D01*
X190870D01*
Y32563D01*
D02*
G37*
G36*
X187500D02*
X185130D01*
Y30193D01*
X187500D01*
Y32563D01*
D02*
G37*
G36*
X164398Y33000D02*
X163602D01*
X162867Y32695D01*
X162304Y32133D01*
X162000Y31398D01*
Y30602D01*
X162114Y30327D01*
Y28663D01*
X161530D01*
Y23723D01*
X161716D01*
X161776Y23634D01*
Y22370D01*
X161130D01*
Y20000D01*
X164000D01*
X166870D01*
Y21941D01*
X166870Y22146D01*
X167370Y22353D01*
X168116Y21607D01*
Y20681D01*
X167717D01*
Y19000D01*
X170882D01*
X174047D01*
Y19462D01*
X174509Y19653D01*
X176927Y17235D01*
X177539Y16826D01*
X177938Y16747D01*
X178283Y16576D01*
X178353Y16230D01*
Y12979D01*
X183884D01*
Y14082D01*
X194000D01*
X194351Y14152D01*
X194649Y14351D01*
X195649Y15351D01*
X195848Y15649D01*
X195918Y16000D01*
Y26620D01*
X196880Y27582D01*
X198070D01*
X198314Y27216D01*
X198904Y26822D01*
X199598Y26684D01*
X202945D01*
X203640Y26822D01*
X204229Y27216D01*
X204623Y27805D01*
X204761Y28500D01*
X204623Y29195D01*
X204229Y29784D01*
X203640Y30178D01*
X202945Y30316D01*
X199598D01*
X198904Y30178D01*
X198314Y29784D01*
X198069Y29418D01*
X196500D01*
X196149Y29348D01*
X195851Y29149D01*
X194351Y27649D01*
X194152Y27351D01*
X194082Y27000D01*
Y16380D01*
X193620Y15918D01*
X184237D01*
X183884Y16271D01*
Y16541D01*
X183884Y17041D01*
Y20281D01*
X184353Y20354D01*
X187240D01*
X187962Y20497D01*
X188011Y20530D01*
X190470D01*
Y25470D01*
X190284D01*
X190224Y25559D01*
Y26823D01*
X190870D01*
Y29193D01*
X188000D01*
X185130D01*
Y26823D01*
X185776D01*
Y25559D01*
X185716Y25470D01*
X185530D01*
Y24126D01*
X183004D01*
Y26801D01*
X183000Y26823D01*
Y27398D01*
X182695Y28133D01*
X182133Y28695D01*
X181398Y29000D01*
X180602D01*
X179867Y28695D01*
X179305Y28133D01*
X179000Y27398D01*
Y26602D01*
X179232Y26042D01*
Y24021D01*
X178353D01*
Y21798D01*
X177891Y21607D01*
X175992Y23505D01*
X175380Y23914D01*
X174659Y24058D01*
X171228D01*
X170944Y24114D01*
X167841Y27218D01*
X167229Y27626D01*
X166507Y27770D01*
X166470D01*
Y28663D01*
X165886D01*
Y30327D01*
X166000Y30602D01*
Y31398D01*
X165696Y32133D01*
X165133Y32695D01*
X164398Y33000D01*
D02*
G37*
G36*
X202945Y25724D02*
X201772D01*
Y24000D01*
X205069D01*
X204999Y24351D01*
X204517Y25073D01*
X203796Y25555D01*
X202945Y25724D01*
D02*
G37*
G36*
X200772D02*
X199598D01*
X198747Y25555D01*
X198026Y25073D01*
X197544Y24351D01*
X197474Y24000D01*
X200772D01*
Y25724D01*
D02*
G37*
G36*
X334520Y25752D02*
X334370D01*
Y21315D01*
X338807D01*
Y21465D01*
X338471Y22721D01*
X337821Y23846D01*
X336901Y24766D01*
X335776Y25416D01*
X334520Y25752D01*
D02*
G37*
G36*
X333370D02*
X333220D01*
X331964Y25416D01*
X330839Y24766D01*
X329920Y23846D01*
X329270Y22721D01*
X328933Y21465D01*
Y21315D01*
X333370D01*
Y25752D01*
D02*
G37*
G36*
X314835D02*
X314685D01*
Y21315D01*
X319122D01*
Y21465D01*
X318786Y22721D01*
X318136Y23846D01*
X317216Y24766D01*
X316091Y25416D01*
X314835Y25752D01*
D02*
G37*
G36*
X313685D02*
X313535D01*
X312279Y25416D01*
X311154Y24766D01*
X310234Y23846D01*
X309584Y22721D01*
X309248Y21465D01*
Y21315D01*
X313685D01*
Y25752D01*
D02*
G37*
G36*
X295150D02*
X295000D01*
Y21315D01*
X299437D01*
Y21465D01*
X299101Y22721D01*
X298451Y23846D01*
X297531Y24766D01*
X296406Y25416D01*
X295150Y25752D01*
D02*
G37*
G36*
X294000D02*
X293850D01*
X292594Y25416D01*
X291469Y24766D01*
X290549Y23846D01*
X289899Y22721D01*
X289563Y21465D01*
Y21315D01*
X294000D01*
Y25752D01*
D02*
G37*
G36*
X205069Y23000D02*
X201772D01*
Y21276D01*
X202945D01*
X203796Y21445D01*
X204517Y21927D01*
X204999Y22649D01*
X205069Y23000D01*
D02*
G37*
G36*
X200772D02*
X197474D01*
X197544Y22649D01*
X198026Y21927D01*
X198747Y21445D01*
X199598Y21276D01*
X200772D01*
Y23000D01*
D02*
G37*
G36*
X121259Y36000D02*
X120500D01*
Y20500D01*
X136000D01*
Y21259D01*
X135606Y23747D01*
X134828Y26142D01*
X133684Y28386D01*
X132204Y30423D01*
X130423Y32204D01*
X128386Y33684D01*
X126142Y34828D01*
X123747Y35606D01*
X121259Y36000D01*
D02*
G37*
G36*
X119500D02*
X118741D01*
X116253Y35606D01*
X113858Y34828D01*
X111614Y33684D01*
X109577Y32204D01*
X107796Y30423D01*
X106316Y28386D01*
X105172Y26142D01*
X104394Y23747D01*
X104000Y21259D01*
Y20500D01*
X119500D01*
Y36000D01*
D02*
G37*
G36*
X224402Y30316D02*
X221055D01*
X220360Y30178D01*
X219771Y29784D01*
X219377Y29195D01*
X219239Y28500D01*
X219377Y27805D01*
X219771Y27216D01*
X220360Y26822D01*
X221055Y26684D01*
X224402D01*
X224593Y26722D01*
X227109Y24207D01*
X227109Y24207D01*
X227472Y23964D01*
X227902Y23878D01*
X227902Y23878D01*
X231250D01*
Y22432D01*
X238750D01*
Y23878D01*
X242535D01*
X244505Y21909D01*
X244500Y21898D01*
Y21102D01*
X244805Y20367D01*
X245367Y19805D01*
X246102Y19500D01*
X246898D01*
X247633Y19805D01*
X248196Y20367D01*
X248500Y21102D01*
Y21898D01*
X248196Y22633D01*
X247633Y23196D01*
X246898Y23500D01*
X246102D01*
X246091Y23495D01*
X243793Y25793D01*
X243429Y26036D01*
X243000Y26122D01*
X243000Y26122D01*
X238750D01*
Y27569D01*
X231250D01*
Y26122D01*
X228366D01*
X226179Y28308D01*
X226218Y28500D01*
X226079Y29195D01*
X225686Y29784D01*
X225097Y30178D01*
X224402Y30316D01*
D02*
G37*
G36*
X166870Y19000D02*
X164500D01*
Y16630D01*
X166870D01*
Y19000D01*
D02*
G37*
G36*
X163500D02*
X161130D01*
Y16630D01*
X163500D01*
Y19000D01*
D02*
G37*
G36*
X338807Y20315D02*
X334370D01*
Y15878D01*
X334520D01*
X335776Y16214D01*
X336901Y16864D01*
X337821Y17784D01*
X338471Y18909D01*
X338807Y20165D01*
Y20315D01*
D02*
G37*
G36*
X333370D02*
X328933D01*
Y20165D01*
X329270Y18909D01*
X329920Y17784D01*
X330839Y16864D01*
X331964Y16214D01*
X333220Y15878D01*
X333370D01*
Y20315D01*
D02*
G37*
G36*
X319122D02*
X314685D01*
Y15878D01*
X314835D01*
X316091Y16214D01*
X317216Y16864D01*
X318136Y17784D01*
X318786Y18909D01*
X319122Y20165D01*
Y20315D01*
D02*
G37*
G36*
X313685D02*
X309248D01*
Y20165D01*
X309584Y18909D01*
X310234Y17784D01*
X311154Y16864D01*
X312279Y16214D01*
X313535Y15878D01*
X313685D01*
Y20315D01*
D02*
G37*
G36*
X299437D02*
X295000D01*
Y15878D01*
X295150D01*
X296406Y16214D01*
X297531Y16864D01*
X298451Y17784D01*
X299101Y18909D01*
X299437Y20165D01*
Y20315D01*
D02*
G37*
G36*
X294000D02*
X289563D01*
Y20165D01*
X289899Y18909D01*
X290549Y17784D01*
X291469Y16864D01*
X292594Y16214D01*
X293850Y15878D01*
X294000D01*
Y20315D01*
D02*
G37*
G36*
X224402Y25316D02*
X221055D01*
X220360Y25178D01*
X219771Y24784D01*
X219377Y24195D01*
X219239Y23500D01*
X219377Y22805D01*
X219771Y22216D01*
X220360Y21822D01*
X221055Y21684D01*
X222780D01*
Y20598D01*
X222780Y20598D01*
X222865Y20169D01*
X223109Y19805D01*
X228707Y14207D01*
X228707Y14207D01*
X229071Y13964D01*
X229500Y13878D01*
X229500Y13879D01*
X231250D01*
Y12432D01*
X238750D01*
Y13879D01*
X242535D01*
X244505Y11909D01*
X244500Y11898D01*
Y11102D01*
X244805Y10367D01*
X245367Y9804D01*
X246102Y9500D01*
X246898D01*
X247633Y9804D01*
X248196Y10367D01*
X248500Y11102D01*
Y11898D01*
X248196Y12633D01*
X247633Y13195D01*
X246898Y13500D01*
X246102D01*
X246091Y13495D01*
X243793Y15793D01*
X243429Y16036D01*
X243000Y16122D01*
X243000Y16122D01*
X238750D01*
Y17569D01*
X231250D01*
Y16122D01*
X229965D01*
X225023Y21063D01*
Y21808D01*
X225097Y21822D01*
X225686Y22216D01*
X226079Y22805D01*
X226218Y23500D01*
X226079Y24195D01*
X225686Y24784D01*
X225097Y25178D01*
X224402Y25316D01*
D02*
G37*
G36*
X136000Y19500D02*
X120500D01*
Y4000D01*
X121259D01*
X123747Y4394D01*
X126142Y5172D01*
X128386Y6316D01*
X130423Y7796D01*
X132204Y9577D01*
X133684Y11614D01*
X134828Y13858D01*
X135606Y16253D01*
X136000Y18741D01*
Y19500D01*
D02*
G37*
G36*
X119500D02*
X104000D01*
Y18741D01*
X104394Y16253D01*
X105172Y13858D01*
X106316Y11614D01*
X107796Y9577D01*
X109577Y7796D01*
X111614Y6316D01*
X113858Y5172D01*
X116253Y4394D01*
X118741Y4000D01*
X119500D01*
Y19500D01*
D02*
G37*
%LPD*%
G36*
X161669Y156233D02*
X162469D01*
X166429Y152274D01*
X166726Y152075D01*
X167077Y152005D01*
X167530D01*
Y150030D01*
X172470D01*
Y150579D01*
X172932Y150770D01*
X174571Y149131D01*
X174364Y148631D01*
X173697D01*
X173633Y148696D01*
X172898Y149000D01*
X172102D01*
X171367Y148696D01*
X170805Y148133D01*
X170500Y147398D01*
Y146602D01*
X170805Y145867D01*
X171367Y145305D01*
X171950Y145063D01*
X171851Y144563D01*
X170500D01*
Y141693D01*
X169500D01*
Y144563D01*
X167130D01*
Y143579D01*
X163752D01*
X163000Y143891D01*
Y141500D01*
X162500D01*
Y141000D01*
X160109D01*
X160465Y140140D01*
X161141Y139465D01*
X161661Y139250D01*
X161562Y138750D01*
X157431D01*
Y131250D01*
X159082D01*
Y130285D01*
X158867Y130195D01*
X158305Y129633D01*
X158000Y128898D01*
Y128102D01*
X158305Y127367D01*
X158867Y126804D01*
X159082Y126715D01*
Y125380D01*
X154620Y120918D01*
X140294D01*
X140094Y121399D01*
X139399Y122094D01*
X139072Y122229D01*
Y122771D01*
X139399Y122906D01*
X140094Y123601D01*
X140470Y124509D01*
Y125269D01*
X140529Y125328D01*
X140529Y125328D01*
X160649Y145448D01*
X160848Y145746D01*
X160918Y146097D01*
Y148865D01*
X161133Y148954D01*
X161696Y149517D01*
X162000Y150252D01*
Y151048D01*
X161696Y151783D01*
X161133Y152346D01*
X160918Y152435D01*
Y156250D01*
X161580D01*
X161669Y156233D01*
D02*
G37*
%LPC*%
G36*
X162000Y143891D02*
X161141Y143535D01*
X160465Y142859D01*
X160109Y142000D01*
X162000D01*
Y143891D01*
D02*
G37*
%LPD*%
D12*
X331500Y126520D02*
Y185782D01*
X315000Y101043D02*
X335500Y121543D01*
Y185500D01*
X315000Y110020D02*
X331500Y126520D01*
X320000Y132972D02*
Y186000D01*
X325000Y128996D02*
Y186000D01*
X235000Y15000D02*
X243000D01*
X246500Y11500D01*
X235000Y25000D02*
X243000D01*
X246500Y21500D01*
X235000Y35000D02*
X243000D01*
X246500Y31500D01*
X235000Y45000D02*
X243000D01*
X246500Y41500D01*
X229500Y15000D02*
X235000D01*
X222728Y23500D02*
X223272D01*
X223902Y22871D01*
Y20598D02*
Y22871D01*
Y20598D02*
X229500Y15000D01*
X227902Y25000D02*
X235000D01*
X222728Y28500D02*
X224402D01*
X227902Y25000D01*
X232319Y33500D02*
X233819Y35000D01*
X235000D01*
X222728Y33500D02*
X232319D01*
X222728Y38500D02*
X227319D01*
X233819Y45000D01*
X235000D01*
X315000Y127972D02*
X320000Y132972D01*
X315000Y118996D02*
X325000Y128996D01*
X231000Y196500D02*
X235472D01*
X235971Y197000D01*
X335500D01*
X222989Y199239D02*
X228261D01*
X231000Y196500D01*
X235000Y214000D02*
X325000D01*
X230000D02*
X235000D01*
X222728Y199500D02*
X222989Y199239D01*
Y209761D02*
X225761D01*
X230000Y214000D01*
X222728Y209500D02*
X222989Y209761D01*
X235000Y204000D02*
X331500D01*
X235500Y223500D02*
X320000D01*
X235000Y224000D02*
X235500Y223500D01*
X233819Y224000D02*
X235000D01*
X224319Y214500D02*
X233819Y224000D01*
X222728Y214500D02*
X224319D01*
X222728Y204500D02*
X234500D01*
X235000Y204000D01*
X120000Y240000D02*
G03*
X100000Y220000I0J-20000D01*
G01*
X350000D02*
G03*
X330000Y240000I-20000J0D01*
G01*
Y0D02*
G03*
X350000Y20000I0J20000D01*
G01*
X100000D02*
G03*
X120000Y0I20000J0D01*
G01*
Y240000D02*
X330000D01*
X350000Y20000D02*
Y220000D01*
X120000Y0D02*
X330000D01*
X100000Y20000D02*
Y220000D01*
D30*
X225000Y132153D02*
D03*
Y138847D02*
D03*
X182000Y132153D02*
D03*
Y138847D02*
D03*
X197500Y77500D02*
D03*
Y84193D02*
D03*
X240500Y77653D02*
D03*
Y84346D02*
D03*
X188000Y29693D02*
D03*
Y23000D02*
D03*
Y49193D02*
D03*
Y42500D02*
D03*
X188969Y191307D02*
D03*
Y198000D02*
D03*
Y211307D02*
D03*
Y218000D02*
D03*
X252500Y87500D02*
D03*
Y80807D02*
D03*
X217500D02*
D03*
Y87500D02*
D03*
X210000D02*
D03*
Y80807D02*
D03*
X185000Y87500D02*
D03*
Y80807D02*
D03*
X177500D02*
D03*
Y87500D02*
D03*
X170000Y80807D02*
D03*
Y87500D02*
D03*
X252500Y105000D02*
D03*
Y98307D02*
D03*
X217500D02*
D03*
Y105000D02*
D03*
X210000D02*
D03*
Y98307D02*
D03*
X185000Y105000D02*
D03*
Y98307D02*
D03*
X177500D02*
D03*
Y105000D02*
D03*
X170000D02*
D03*
Y98307D02*
D03*
X252500Y159193D02*
D03*
Y152500D02*
D03*
X245000Y159193D02*
D03*
Y152500D02*
D03*
X252500Y135000D02*
D03*
Y141693D02*
D03*
X245000D02*
D03*
Y135000D02*
D03*
X237500D02*
D03*
Y141693D02*
D03*
Y152500D02*
D03*
Y159193D02*
D03*
X205000D02*
D03*
Y152500D02*
D03*
X212500D02*
D03*
Y159193D02*
D03*
Y135000D02*
D03*
Y141693D02*
D03*
X205000D02*
D03*
Y135000D02*
D03*
X170000Y152500D02*
D03*
Y159193D02*
D03*
Y135000D02*
D03*
Y141693D02*
D03*
X164000Y39500D02*
D03*
Y46193D02*
D03*
Y19500D02*
D03*
Y26193D02*
D03*
X137000Y171653D02*
D03*
Y178347D02*
D03*
X107000Y171653D02*
D03*
Y178347D02*
D03*
X285000Y176193D02*
D03*
Y169500D02*
D03*
D31*
X160307Y209000D02*
D03*
X167000D02*
D03*
X159807Y191000D02*
D03*
X166500D02*
D03*
X201000Y222000D02*
D03*
X207693D02*
D03*
X206693Y46000D02*
D03*
X200000D02*
D03*
X130347Y76000D02*
D03*
X123653D02*
D03*
D32*
X212500Y124000D02*
D03*
X252500Y124500D02*
D03*
X186500Y170000D02*
D03*
X229500D02*
D03*
X210000Y115000D02*
D03*
X170000Y115500D02*
D03*
X236000Y70000D02*
D03*
X193000D02*
D03*
X235000Y224000D02*
D03*
Y214000D02*
D03*
Y204000D02*
D03*
X235472Y196500D02*
D03*
X107000Y190000D02*
D03*
X122000D02*
D03*
X137000D02*
D03*
X235000Y45000D02*
D03*
Y35000D02*
D03*
Y25000D02*
D03*
Y15000D02*
D03*
D33*
X171850Y215260D02*
D03*
Y219000D02*
D03*
Y222740D02*
D03*
X182087D02*
D03*
Y219000D02*
D03*
Y215260D02*
D03*
X171850Y195260D02*
D03*
Y199000D02*
D03*
Y202740D02*
D03*
X182087D02*
D03*
Y199000D02*
D03*
Y195260D02*
D03*
X171000Y41980D02*
D03*
Y38240D02*
D03*
Y34500D02*
D03*
X181236D02*
D03*
Y38240D02*
D03*
Y41980D02*
D03*
X170882Y22240D02*
D03*
Y18500D02*
D03*
Y14760D02*
D03*
X181118D02*
D03*
Y18500D02*
D03*
Y22240D02*
D03*
X127118Y178740D02*
D03*
Y171260D02*
D03*
X116882D02*
D03*
Y175000D02*
D03*
Y178740D02*
D03*
D34*
X222728Y199500D02*
D03*
Y204500D02*
D03*
Y209500D02*
D03*
Y214500D02*
D03*
X201272Y199500D02*
D03*
Y204500D02*
D03*
Y209500D02*
D03*
Y214500D02*
D03*
Y38500D02*
D03*
Y33500D02*
D03*
Y28500D02*
D03*
Y23500D02*
D03*
X222728Y38500D02*
D03*
Y33500D02*
D03*
Y28500D02*
D03*
Y23500D02*
D03*
D35*
X160000Y160000D02*
D03*
Y105000D02*
D03*
Y80000D02*
D03*
Y135000D02*
D03*
X265500Y133000D02*
D03*
Y161500D02*
D03*
Y106500D02*
D03*
Y78000D02*
D03*
D36*
X227500Y87500D02*
D03*
Y79626D02*
D03*
Y105000D02*
D03*
Y97126D02*
D03*
X195000Y152500D02*
D03*
Y160374D02*
D03*
Y135000D02*
D03*
Y142874D02*
D03*
D37*
X236169Y95059D02*
D03*
Y92500D02*
D03*
Y89941D02*
D03*
X244831Y95059D02*
D03*
Y92500D02*
D03*
Y89941D02*
D03*
X193169Y95059D02*
D03*
Y92500D02*
D03*
Y89941D02*
D03*
X201831Y95059D02*
D03*
Y92500D02*
D03*
Y89941D02*
D03*
X186331Y144441D02*
D03*
Y147000D02*
D03*
Y149559D02*
D03*
X177669Y144441D02*
D03*
Y147000D02*
D03*
Y149559D02*
D03*
X229331Y144441D02*
D03*
Y147000D02*
D03*
Y149559D02*
D03*
X220669Y144441D02*
D03*
Y147000D02*
D03*
Y149559D02*
D03*
D38*
X186331D02*
Y169831D01*
X186500Y170000D01*
X229331Y149559D02*
Y169831D01*
X229500Y170000D01*
X252500Y124500D02*
Y135000D01*
X212500Y124000D02*
Y135000D01*
X236169Y70169D02*
Y89941D01*
X236000Y70000D02*
X236169Y70169D01*
X193000Y70000D02*
X193169Y70169D01*
Y89941D01*
X159240Y14760D02*
X170882D01*
X157500Y60500D02*
X231000D01*
X155000Y58000D02*
X157500Y60500D01*
X210000Y105000D02*
Y115000D01*
X170000Y105000D02*
Y115500D01*
X155500Y183500D02*
Y201000D01*
Y183500D02*
X157000Y182000D01*
X257000D01*
X155500Y201000D02*
X157240Y202740D01*
X171850D01*
X152500Y179500D02*
X155500Y176500D01*
X254000D01*
X152500Y179500D02*
Y220000D01*
X155240Y222740D02*
X171850D01*
X152500Y220000D02*
X155240Y222740D01*
X160500Y34500D02*
X171000D01*
X159000Y36000D02*
Y53500D01*
X161000Y55500D01*
X231000D01*
X159000Y36000D02*
X160500Y34500D01*
X181118Y14760D02*
X181358Y15000D01*
X194000D01*
X181736Y34000D02*
X200850D01*
X155000Y19000D02*
Y58000D01*
Y19000D02*
X159240Y14760D01*
X162850Y157150D02*
X167077Y152923D01*
X169577D01*
X161669Y157150D02*
X162850D01*
X138903Y125000D02*
X139880Y125977D01*
X139880D02*
X160000Y146097D01*
X139880Y125977D02*
X139880D01*
X160000Y146097D02*
Y150000D01*
Y73500D02*
Y80000D01*
X217000Y151000D02*
Y157000D01*
X216066Y157934D02*
X217000Y157000D01*
Y151000D02*
X218441Y149559D01*
X213759Y157934D02*
X216066D01*
X244831Y89941D02*
X244840Y89950D01*
X247050D01*
X249081Y87919D01*
X201831Y95059D02*
X201840Y95050D01*
X204059D01*
X201831Y89941D02*
X201840Y89950D01*
X205050D02*
X206000Y89000D01*
X201840Y89950D02*
X205050D01*
X204059Y95050D02*
X207316Y98307D01*
X257000Y182000D02*
X260500Y178500D01*
Y159500D02*
Y178500D01*
X252500Y141693D02*
X264307D01*
X252500Y159193D02*
X263831D01*
X260500Y87500D02*
X264500D01*
X252500D02*
X260500D01*
Y105000D02*
X264000D01*
X252500D02*
X260500D01*
X156500Y115000D02*
X160000Y111500D01*
X138000Y115000D02*
X156500D01*
X160000Y103819D02*
Y111500D01*
X130500Y120000D02*
X138000D01*
X155000D01*
X160000Y125000D01*
Y128500D01*
Y135000D01*
X188703Y149703D02*
X191400Y152400D01*
X186475Y149703D02*
X188703D01*
X186331Y149559D02*
X186475Y149703D01*
X191400Y152400D02*
X194900D01*
X172500Y152500D02*
X175441Y149559D01*
X177669D01*
X170000Y152500D02*
X172500D01*
X160000Y150000D02*
Y158819D01*
X188943Y144441D02*
X190000Y143383D01*
X186331Y144441D02*
X188943D01*
X194000Y15000D02*
X195000Y16000D01*
Y27000D01*
X196500Y28500D01*
X203500D01*
X201350Y33500D02*
X203500D01*
X181236Y34500D02*
X181736Y34000D01*
X200850D02*
X201350Y33500D01*
X194125Y203000D02*
X195625Y204500D01*
X182346Y203000D02*
X194125D01*
X195625Y204500D02*
X201272D01*
X182087Y202740D02*
X182346Y203000D01*
X169577Y152923D02*
X170000Y152500D01*
X194900Y152400D02*
X195000Y152500D01*
X205000D01*
X191000Y135000D02*
X195000D01*
X190000Y136000D02*
Y143383D01*
Y136000D02*
X191000Y135000D01*
X195000D02*
X205000D01*
X175441Y144441D02*
X177669D01*
X174000Y143000D02*
X175441Y144441D01*
X174000Y136000D02*
Y143000D01*
X160000Y135000D02*
X170000D01*
X173000D01*
X174000Y136000D01*
X265500Y133000D02*
Y140500D01*
X264307Y141693D02*
X265500Y140500D01*
X218106Y144441D02*
X220669D01*
X212500Y141693D02*
X215358D01*
X218106Y144441D01*
X229331D02*
X229390Y144500D01*
X232500D01*
X233000Y144000D01*
Y136000D02*
Y144000D01*
Y136000D02*
X234000Y135000D01*
X237500D02*
X245000D01*
X234000D02*
X237500D01*
X231559Y149559D02*
X233956Y151956D01*
X229331Y149559D02*
X231559D01*
X233956Y151956D02*
X236956D01*
X237500Y152500D01*
X218441Y149559D02*
X220669D01*
X265500Y78000D02*
Y86500D01*
X264500Y87500D02*
X265500Y86500D01*
X249081Y87919D02*
X252081D01*
X252500Y87500D01*
X232000Y96000D02*
Y104000D01*
X227500Y105000D02*
X227600Y104900D01*
X231100D01*
X232000Y104000D01*
Y96000D02*
X233000Y95000D01*
X236110D01*
X236169Y95059D01*
X227500Y87500D02*
X231500D01*
X233941Y89941D02*
X236169D01*
X231500Y87500D02*
X233941Y89941D01*
X207316Y98307D02*
X210000D01*
X207052Y80807D02*
X210000D01*
X206000Y81859D02*
X207052Y80807D01*
X206000Y81859D02*
Y89000D01*
X188165Y87500D02*
X190606Y89941D01*
X193169D01*
X185000Y87500D02*
X188165D01*
X263831Y159193D02*
X265500Y160861D01*
Y161500D01*
X195500Y210500D02*
X196500Y209500D01*
X201272D01*
X195500Y210500D02*
Y222000D01*
X194760Y222740D02*
X194998Y222502D01*
X195500Y222000D01*
X182087Y222740D02*
X194760D01*
X245000Y152500D02*
X252500D01*
X237500D02*
X245000D01*
X212500Y159193D02*
X213759Y157934D01*
X205000Y152500D02*
X212500D01*
X160000Y158819D02*
Y160000D01*
Y158819D02*
X161669Y157150D01*
X245000Y135000D02*
X252500D01*
X205000D02*
X212500D01*
X217500Y87500D02*
X227500D01*
X210000D02*
X217500D01*
X177500D02*
X185000D01*
X170000D02*
X177500D01*
X169193Y80000D02*
X170000Y80807D01*
X160000Y80000D02*
X169193D01*
X264000Y105000D02*
X265500Y106500D01*
X249500Y105000D02*
X252500D01*
X248500Y104000D02*
X249500Y105000D01*
X248500Y96117D02*
Y104000D01*
X247443Y95059D02*
X248500Y96117D01*
X244831Y95059D02*
X247443D01*
X217500Y105000D02*
X227500D01*
X210000D02*
X217500D01*
X189000Y95851D02*
Y103000D01*
X188259Y103741D02*
X189000Y103000D01*
X186259Y103741D02*
X188259D01*
X189792Y95059D02*
X193169D01*
X189000Y95851D02*
X189792Y95059D01*
X185000Y105000D02*
X186259Y103741D01*
X177500Y105000D02*
X185000D01*
X170000D02*
X177500D01*
X160000Y103819D02*
X161669Y102150D01*
X163128D01*
X166971Y98307D02*
X170000D01*
X163128Y102150D02*
X166971Y98307D01*
X130500Y125000D02*
X138903D01*
X152000Y80000D02*
X160000D01*
X132774Y99226D02*
X152000Y80000D01*
X132774Y99226D02*
Y112726D01*
X128000Y122500D02*
X130500Y120000D01*
X128000Y127500D02*
X130500Y125000D01*
X128000Y117500D02*
X132774Y112726D01*
D39*
X220669Y147000D02*
X220743Y146927D01*
X222388D01*
X225000Y144315D01*
Y138847D02*
Y144315D01*
X177743Y146927D02*
X179388D01*
X182000Y144315D01*
X177669Y147000D02*
X177743Y146927D01*
X182000Y138847D02*
Y144315D01*
X240500Y89815D02*
X243112Y92427D01*
X240500Y84346D02*
Y89815D01*
X244758Y92427D02*
X244831Y92500D01*
X243112Y92427D02*
X244758D01*
X197500Y84193D02*
Y90328D01*
X199672Y92500D02*
X201831D01*
X197500Y90328D02*
X199672Y92500D01*
X244831D02*
X249500D01*
X215500Y147000D02*
X220669D01*
X172500D02*
X177669D01*
X201831Y92500D02*
X208000D01*
D40*
X167000Y209000D02*
Y215000D01*
X166943Y190557D02*
X171443D01*
X166500Y191000D02*
X166943Y190557D01*
X171443D02*
X171500Y190500D01*
X171850Y190932D02*
Y195260D01*
X171500Y190500D02*
Y190581D01*
X171850Y190932D01*
X166500Y199000D02*
X171850D01*
X164000Y46193D02*
Y51919D01*
X187240Y22240D02*
X188000Y23000D01*
X181118Y22240D02*
X187240D01*
X191500Y42000D02*
X194880Y45380D01*
X199380D01*
X188500Y42000D02*
X191500D01*
X188000Y42500D02*
X188500Y42000D01*
X181305Y42049D02*
X187549D01*
X181236Y41980D02*
X181305Y42049D01*
X187549D02*
X188000Y42500D01*
X199380Y45380D02*
X200000Y46000D01*
X162500Y6500D02*
X273351D01*
X108000Y61000D02*
X162500Y6500D01*
X108000Y61000D02*
Y130254D01*
X162500Y141500D02*
X162581D01*
X162774Y141693D02*
X170000D01*
X162581Y141500D02*
X162774Y141693D01*
X129042Y180960D02*
X131331Y178671D01*
X164000Y26193D02*
Y31000D01*
X188969Y191307D02*
X188984Y191291D01*
Y185016D02*
X189000Y185000D01*
X188984Y185016D02*
Y191291D01*
X188659Y191616D02*
X188969Y191307D01*
X183002Y195076D02*
X186462Y191616D01*
X188659D01*
X182933Y195260D02*
X183002Y195191D01*
Y195076D02*
Y195191D01*
X164309Y25884D02*
X166507D01*
X170035Y22240D02*
X170882D01*
X164000Y26193D02*
X164309Y25884D01*
X166507D02*
X169966Y22424D01*
Y22309D02*
Y22424D01*
Y22309D02*
X170035Y22240D01*
X173857Y41911D02*
X177460Y38309D01*
X181167D01*
X171000Y41980D02*
X171069Y41911D01*
X173857D01*
X181167Y38309D02*
X181236Y38240D01*
X174659Y22171D02*
X178261Y18569D01*
X181049D02*
X181118Y18500D01*
X178261Y18569D02*
X181049D01*
X170951Y22171D02*
X174659D01*
X170882Y22240D02*
X170951Y22171D01*
X181000Y26919D02*
X181118Y26801D01*
Y22240D02*
Y26801D01*
X181000Y26919D02*
Y27000D01*
X200000Y46000D02*
Y50500D01*
X200069Y38500D02*
X201272D01*
X200000Y38569D02*
Y46000D01*
Y38569D02*
X200069Y38500D01*
X181236Y41980D02*
X182083D01*
X166507Y45884D02*
X170085Y42306D01*
Y42049D02*
Y42306D01*
Y42049D02*
X170153Y41980D01*
X164000Y46193D02*
X164309Y45884D01*
X166507D01*
X170153Y41980D02*
X171000D01*
X109465Y131719D02*
X135893D01*
X108000Y130254D02*
X109465Y131719D01*
X135893D02*
X137611Y130000D01*
X138000D01*
X274815Y7965D02*
Y20815D01*
X273351Y6500D02*
X274815Y7965D01*
Y20815D02*
Y40500D01*
X201000Y222000D02*
Y227000D01*
Y214569D02*
Y222000D01*
Y214569D02*
X201069Y214500D01*
X201272D01*
X188969Y211307D02*
X188984Y211291D01*
Y206516D02*
Y211291D01*
Y206516D02*
X189000Y206500D01*
X167000Y219000D02*
X171850D01*
X167272Y215191D02*
X171782D01*
X167000Y215000D02*
X167081D01*
X171782Y215191D02*
X171850Y215260D01*
X167081Y215000D02*
X167272Y215191D01*
X184535Y211616D02*
X188659D01*
X183002Y213149D02*
Y215000D01*
Y213149D02*
X184535Y211616D01*
X188659D02*
X188969Y211307D01*
X182087Y195260D02*
X182933D01*
X129042Y180960D02*
Y189958D01*
X131331Y178671D02*
Y178671D01*
X129000Y190000D02*
X129042Y189958D01*
X127187Y178671D02*
X131331D01*
X136675D01*
X137000Y178347D01*
X127118Y178740D02*
X127187Y178671D01*
X112138Y178740D02*
X116882D01*
X107394D02*
X112138D01*
Y173216D02*
Y178740D01*
X116813Y171329D02*
X116882Y171260D01*
X114025Y171329D02*
X116813D01*
X112138Y173216D02*
X114025Y171329D01*
X107000Y178347D02*
Y190000D01*
Y178347D02*
X107394Y178740D01*
X122000Y190000D02*
X129000D01*
X107000D02*
X114500D01*
X285154Y169346D02*
X304847D01*
X285000Y169500D02*
X285154Y169346D01*
X304847D02*
X305000Y169193D01*
X123000Y76309D02*
Y91752D01*
Y75500D02*
Y91752D01*
X123653Y76000D02*
X123963Y76309D01*
D41*
X315000Y136949D02*
D03*
Y127972D02*
D03*
Y118996D02*
D03*
Y110020D02*
D03*
Y101043D02*
D03*
X295000D02*
D03*
X305000Y114508D02*
D03*
X295000Y110020D02*
D03*
X305000Y123484D02*
D03*
X295000Y118996D02*
D03*
X305000Y132461D02*
D03*
X295000Y127972D02*
D03*
X305000Y105532D02*
D03*
Y141437D02*
D03*
X295000Y136949D02*
D03*
D42*
X305000Y169193D02*
D03*
Y70807D02*
D03*
D43*
X138000Y120000D02*
D03*
Y125000D02*
D03*
Y130000D02*
D03*
Y115000D02*
D03*
Y110000D02*
D03*
X128000Y122500D02*
D03*
Y127500D02*
D03*
Y112500D02*
D03*
Y117500D02*
D03*
D44*
X123000Y148248D02*
D03*
Y91752D02*
D03*
D45*
X274815Y40500D02*
D03*
X294500D02*
D03*
X314185D02*
D03*
X333870D02*
D03*
X274815Y20815D02*
D03*
X294500D02*
D03*
X314185D02*
D03*
X333870D02*
D03*
D46*
X120000Y20000D02*
D03*
Y220000D02*
D03*
D47*
X129842Y25905D02*
D03*
X125906Y10158D02*
D03*
X110158Y14095D02*
D03*
X125906Y29842D02*
D03*
X129842Y14095D02*
D03*
X114094Y10158D02*
D03*
Y29842D02*
D03*
X108750Y20000D02*
D03*
X120000Y8750D02*
D03*
X131250Y20000D02*
D03*
X120000Y31250D02*
D03*
X110158Y25905D02*
D03*
X129842Y225905D02*
D03*
X125906Y210157D02*
D03*
X110158Y214094D02*
D03*
X125906Y229842D02*
D03*
X129842Y214094D02*
D03*
X114094Y210157D02*
D03*
Y229842D02*
D03*
X108750Y220000D02*
D03*
X120000Y208750D02*
D03*
X131250Y220000D02*
D03*
X120000Y231250D02*
D03*
X110158Y225905D02*
D03*
D48*
X331500Y185782D02*
D03*
X335846Y185500D02*
D03*
X325000Y186000D02*
D03*
X320000D02*
D03*
X246500Y11500D02*
D03*
Y21500D02*
D03*
Y31500D02*
D03*
Y41500D02*
D03*
X335846Y197000D02*
D03*
X325000Y214000D02*
D03*
X189000Y156500D02*
D03*
X184000Y123500D02*
D03*
X188975Y83933D02*
D03*
X171500Y190500D02*
D03*
X166500Y199000D02*
D03*
X164000Y51919D02*
D03*
X150500Y141500D02*
D03*
X162500D02*
D03*
X160000Y73500D02*
D03*
X152000Y87500D02*
D03*
X193000Y112500D02*
D03*
X178000D02*
D03*
X199000Y127500D02*
D03*
X224500Y156000D02*
D03*
X249500Y92500D02*
D03*
X215500Y147000D02*
D03*
X160000Y150650D02*
D03*
X172500Y147000D02*
D03*
X208000Y92500D02*
D03*
X164000Y31000D02*
D03*
X254000Y176500D02*
D03*
X260500Y159500D02*
D03*
X189000Y185000D02*
D03*
X231000Y60500D02*
D03*
Y55500D02*
D03*
X260500Y87500D02*
D03*
Y105000D02*
D03*
X181000Y27000D02*
D03*
X200000Y50500D02*
D03*
X160000Y111500D02*
D03*
Y128500D02*
D03*
X261000Y142000D02*
D03*
X201000Y227000D02*
D03*
X189000Y206500D02*
D03*
X167000Y219000D02*
D03*
Y215000D02*
D03*
X129000Y190000D02*
D03*
X114500D02*
D03*
X331500Y204000D02*
D03*
X320000Y223500D02*
D03*
M02*
