G04*
G04 #@! TF.GenerationSoftware,Altium Limited,Altium Designer,22.9.1 (49)*
G04*
G04 Layer_Color=128*
%FSLAX25Y25*%
%MOIN*%
G70*
G04*
G04 #@! TF.SameCoordinates,30CEAF04-E3BD-4145-9B8D-8DB9266C66AB*
G04*
G04*
G04 #@! TF.FilePolarity,Positive*
G04*
G01*
G75*
%ADD12C,0.01000*%
%ADD49C,0.00200*%
D12*
X120000Y240000D02*
G03*
X100000Y220000I0J-20000D01*
G01*
X350000D02*
G03*
X330000Y240000I-20000J0D01*
G01*
Y0D02*
G03*
X350000Y20000I0J20000D01*
G01*
X100000D02*
G03*
X120000Y0I20000J0D01*
G01*
Y240000D02*
X330000D01*
X350000Y20000D02*
Y220000D01*
X120000Y0D02*
X330000D01*
X100000Y20000D02*
Y220000D01*
D49*
X313228Y136949D02*
X316772D01*
X315000Y135177D02*
Y138721D01*
X313228Y127972D02*
X316772D01*
X315000Y126201D02*
Y129744D01*
X313228Y118996D02*
X316772D01*
X315000Y117224D02*
Y120768D01*
X313228Y110020D02*
X316772D01*
X315000Y108248D02*
Y111791D01*
X313228Y101043D02*
X316772D01*
X315000Y99272D02*
Y102815D01*
X293228Y101043D02*
X296772D01*
X295000Y99272D02*
Y102815D01*
X303228Y114508D02*
X306772D01*
X305000Y112736D02*
Y116279D01*
X293228Y110020D02*
X296772D01*
X295000Y108248D02*
Y111791D01*
X303228Y123484D02*
X306772D01*
X305000Y121713D02*
Y125256D01*
X293228Y118996D02*
X296772D01*
X295000Y117224D02*
Y120768D01*
X303228Y132461D02*
X306772D01*
X305000Y130689D02*
Y134232D01*
X293228Y127972D02*
X296772D01*
X295000Y126201D02*
Y129744D01*
X303228Y105532D02*
X306772D01*
X305000Y103760D02*
Y107303D01*
X303228Y141437D02*
X306772D01*
X305000Y139665D02*
Y143209D01*
X293228Y136949D02*
X296772D01*
X295000Y135177D02*
Y138721D01*
X298701Y169193D02*
X311299D01*
X305000Y162894D02*
Y175492D01*
X298701Y70807D02*
X311299D01*
X305000Y64508D02*
Y77106D01*
X136622Y120000D02*
X139378D01*
X138000Y118622D02*
Y121378D01*
X136622Y125000D02*
X139378D01*
X138000Y123622D02*
Y126378D01*
X136622Y130000D02*
X139378D01*
X138000Y128622D02*
Y131378D01*
X136622Y115000D02*
X139378D01*
X138000Y113622D02*
Y116378D01*
X136622Y110000D02*
X139378D01*
X138000Y108622D02*
Y111378D01*
X126622Y122500D02*
X129378D01*
X128000Y121122D02*
Y123878D01*
X126622Y127500D02*
X129378D01*
X128000Y126122D02*
Y128878D01*
X117705Y148248D02*
X128295D01*
X123000Y142953D02*
Y153543D01*
X126622Y112500D02*
X129378D01*
X128000Y111122D02*
Y113878D01*
X117705Y91752D02*
X128295D01*
X123000Y86457D02*
Y97047D01*
X126622Y117500D02*
X129378D01*
X128000Y116122D02*
Y118878D01*
X272650Y40500D02*
X276980D01*
X274815Y38335D02*
Y42665D01*
X292335Y40500D02*
X296665D01*
X294500Y38335D02*
Y42665D01*
X312020Y40500D02*
X316350D01*
X314185Y38335D02*
Y42665D01*
X331705Y40500D02*
X336035D01*
X333870Y38335D02*
Y42665D01*
X272650Y20815D02*
X276980D01*
X274815Y18650D02*
Y22980D01*
X292335Y20815D02*
X296665D01*
X294500Y18650D02*
Y22980D01*
X312020Y20815D02*
X316350D01*
X314185Y18650D02*
Y22980D01*
X331705Y20815D02*
X336035D01*
X333870Y18650D02*
Y22980D01*
X112500Y20000D02*
X127500D01*
X120000Y12500D02*
Y27500D01*
X129142Y25905D02*
X130543D01*
X129842Y25205D02*
Y26605D01*
X125206Y10158D02*
X126605D01*
X125906Y9458D02*
Y10858D01*
X109458Y14095D02*
X110857D01*
X110158Y13395D02*
Y14795D01*
X125206Y29842D02*
X126605D01*
X125906Y29142D02*
Y30542D01*
X129142Y14095D02*
X130543D01*
X129842Y13395D02*
Y14795D01*
X113394Y10158D02*
X114795D01*
X114094Y9458D02*
Y10858D01*
X113394Y29842D02*
X114795D01*
X114094Y29142D02*
Y30542D01*
X108050Y20000D02*
X109450D01*
X108750Y19300D02*
Y20700D01*
X119300Y8750D02*
X120700D01*
X120000Y8050D02*
Y9450D01*
X130550Y20000D02*
X131950D01*
X131250Y19300D02*
Y20700D01*
X119300Y31250D02*
X120700D01*
X120000Y30550D02*
Y31950D01*
X109458Y25905D02*
X110857D01*
X110158Y25205D02*
Y26605D01*
X112500Y220000D02*
X127500D01*
X120000Y212500D02*
Y227500D01*
X129142Y225905D02*
X130543D01*
X129842Y225205D02*
Y226606D01*
X125206Y210157D02*
X126605D01*
X125906Y209457D02*
Y210858D01*
X109458Y214094D02*
X110857D01*
X110158Y213394D02*
Y214794D01*
X125206Y229842D02*
X126605D01*
X125906Y229142D02*
Y230542D01*
X129142Y214094D02*
X130543D01*
X129842Y213394D02*
Y214794D01*
X113394Y210157D02*
X114795D01*
X114094Y209457D02*
Y210858D01*
X113394Y229842D02*
X114795D01*
X114094Y229142D02*
Y230542D01*
X108050Y220000D02*
X109450D01*
X108750Y219300D02*
Y220700D01*
X119300Y208750D02*
X120700D01*
X120000Y208050D02*
Y209450D01*
X130550Y220000D02*
X131950D01*
X131250Y219300D02*
Y220700D01*
X119300Y231250D02*
X120700D01*
X120000Y230550D02*
Y231950D01*
X109458Y225905D02*
X110857D01*
X110158Y225205D02*
Y226606D01*
X330800Y185782D02*
X332200D01*
X331500Y185082D02*
Y186482D01*
X335146Y185500D02*
X336546D01*
X335846Y184800D02*
Y186200D01*
X324300Y186000D02*
X325700D01*
X325000Y185300D02*
Y186700D01*
X319300Y186000D02*
X320700D01*
X320000Y185300D02*
Y186700D01*
X245800Y11500D02*
X247200D01*
X246500Y10800D02*
Y12200D01*
X245800Y21500D02*
X247200D01*
X246500Y20800D02*
Y22200D01*
X245800Y31500D02*
X247200D01*
X246500Y30800D02*
Y32200D01*
X245800Y41500D02*
X247200D01*
X246500Y40800D02*
Y42200D01*
X335146Y197000D02*
X336546D01*
X335846Y196300D02*
Y197700D01*
X324300Y214000D02*
X325700D01*
X325000Y213300D02*
Y214700D01*
X188300Y156500D02*
X189700D01*
X189000Y155800D02*
Y157200D01*
X183300Y123500D02*
X184700D01*
X184000Y122800D02*
Y124200D01*
X188275Y83933D02*
X189675D01*
X188975Y83233D02*
Y84633D01*
X170800Y190500D02*
X172200D01*
X171500Y189800D02*
Y191200D01*
X165800Y199000D02*
X167200D01*
X166500Y198300D02*
Y199700D01*
X163300Y51919D02*
X164700D01*
X164000Y51219D02*
Y52619D01*
X149800Y141500D02*
X151200D01*
X150500Y140800D02*
Y142200D01*
X161800Y141500D02*
X163200D01*
X162500Y140800D02*
Y142200D01*
X159300Y73500D02*
X160700D01*
X160000Y72800D02*
Y74200D01*
X151300Y87500D02*
X152700D01*
X152000Y86800D02*
Y88200D01*
X192300Y112500D02*
X193700D01*
X193000Y111800D02*
Y113200D01*
X177300Y112500D02*
X178700D01*
X178000Y111800D02*
Y113200D01*
X198300Y127500D02*
X199700D01*
X199000Y126800D02*
Y128200D01*
X223800Y156000D02*
X225200D01*
X224500Y155300D02*
Y156700D01*
X248800Y92500D02*
X250200D01*
X249500Y91800D02*
Y93200D01*
X214800Y147000D02*
X216200D01*
X215500Y146300D02*
Y147700D01*
X159300Y150650D02*
X160700D01*
X160000Y149950D02*
Y151350D01*
X171800Y147000D02*
X173200D01*
X172500Y146300D02*
Y147700D01*
X207300Y92500D02*
X208700D01*
X208000Y91800D02*
Y93200D01*
X163300Y31000D02*
X164700D01*
X164000Y30300D02*
Y31700D01*
X253300Y176500D02*
X254700D01*
X254000Y175800D02*
Y177200D01*
X259800Y159500D02*
X261200D01*
X260500Y158800D02*
Y160200D01*
X188300Y185000D02*
X189700D01*
X189000Y184300D02*
Y185700D01*
X230300Y60500D02*
X231700D01*
X231000Y59800D02*
Y61200D01*
X230300Y55500D02*
X231700D01*
X231000Y54800D02*
Y56200D01*
X259800Y87500D02*
X261200D01*
X260500Y86800D02*
Y88200D01*
X259800Y105000D02*
X261200D01*
X260500Y104300D02*
Y105700D01*
X180300Y27000D02*
X181700D01*
X181000Y26300D02*
Y27700D01*
X199300Y50500D02*
X200700D01*
X200000Y49800D02*
Y51200D01*
X159300Y111500D02*
X160700D01*
X160000Y110800D02*
Y112200D01*
X159300Y128500D02*
X160700D01*
X160000Y127800D02*
Y129200D01*
X260300Y142000D02*
X261700D01*
X261000Y141300D02*
Y142700D01*
X200300Y227000D02*
X201700D01*
X201000Y226300D02*
Y227700D01*
X188300Y206500D02*
X189700D01*
X189000Y205800D02*
Y207200D01*
X166300Y219000D02*
X167700D01*
X167000Y218300D02*
Y219700D01*
X166300Y215000D02*
X167700D01*
X167000Y214300D02*
Y215700D01*
X128300Y190000D02*
X129700D01*
X129000Y189300D02*
Y190700D01*
X113800Y190000D02*
X115200D01*
X114500Y189300D02*
Y190700D01*
X330800Y204000D02*
X332200D01*
X331500Y203300D02*
Y204700D01*
X319300Y223500D02*
X320700D01*
X320000Y222800D02*
Y224200D01*
M02*
