G04*
G04 #@! TF.GenerationSoftware,Altium Limited,Altium Designer,18.1.6 (161)*
G04*
G04 Layer_Color=255*
%FSLAX25Y25*%
%MOIN*%
G70*
G01*
G75*
%ADD29R,0.03740X0.03740*%
%ADD30R,0.03740X0.03740*%
%ADD32R,0.07500X0.13500*%
%ADD35R,0.01654X0.03500*%
%ADD45O,0.02362X0.08661*%
%ADD53R,0.01181X0.06299*%
%ADD95C,0.03000*%
%ADD97C,0.30000*%
%ADD98C,0.06700*%
%ADD99C,0.16000*%
%ADD100C,0.07874*%
%ADD101C,0.07000*%
%ADD102C,0.05000*%
%ADD103C,0.08200*%
%ADD104C,0.06000*%
%ADD105C,0.15748*%
%ADD106C,0.04598*%
%ADD107C,0.17000*%
%ADD108C,0.03937*%
%ADD109C,0.08858*%
%ADD113R,0.01968X0.01575*%
%ADD114R,0.01575X0.01968*%
%ADD115R,0.04200X0.09000*%
%ADD116R,0.42000X0.35000*%
%ADD117R,0.06496X0.01181*%
%ADD118R,0.03347X0.01575*%
%ADD119R,0.09055X0.09055*%
%ADD120O,0.03740X0.01181*%
%ADD121O,0.01181X0.03740*%
%ADD122O,0.01181X0.06890*%
D29*
X1675347Y189500D02*
D03*
X1668653D02*
D03*
X1675347Y290500D02*
D03*
X1668653D02*
D03*
X1675347Y203500D02*
D03*
X1668653D02*
D03*
X1675347Y304500D02*
D03*
X1668653D02*
D03*
X1622654Y203500D02*
D03*
X1629346D02*
D03*
X1622654Y304500D02*
D03*
X1629346D02*
D03*
X1622654Y189500D02*
D03*
X1629346D02*
D03*
X1622654Y290500D02*
D03*
X1629346D02*
D03*
X844847Y71500D02*
D03*
X838153D02*
D03*
X844847Y79000D02*
D03*
X838153D02*
D03*
X1475663Y320500D02*
D03*
X1468970D02*
D03*
X1566663D02*
D03*
X1559970D02*
D03*
X1475663Y263000D02*
D03*
X1468970D02*
D03*
X1566663D02*
D03*
X1559970D02*
D03*
X1475663Y205500D02*
D03*
X1468970D02*
D03*
X1566663D02*
D03*
X1559970D02*
D03*
X1475663Y148000D02*
D03*
X1468970D02*
D03*
X1566663D02*
D03*
X1559970D02*
D03*
X1468970Y313500D02*
D03*
X1475663D02*
D03*
X1559970D02*
D03*
X1566663D02*
D03*
X1468970Y256000D02*
D03*
X1475663D02*
D03*
X1559970D02*
D03*
X1566663D02*
D03*
X1468970Y198500D02*
D03*
X1475663D02*
D03*
X1559970D02*
D03*
X1566663D02*
D03*
X1468970Y141000D02*
D03*
X1475663D02*
D03*
X1559970D02*
D03*
X1566663D02*
D03*
X1450663Y299500D02*
D03*
X1443970D02*
D03*
X1541663D02*
D03*
X1534970D02*
D03*
X1450663Y242000D02*
D03*
X1443970D02*
D03*
X1541663D02*
D03*
X1534970D02*
D03*
X1450663Y184500D02*
D03*
X1443970D02*
D03*
X1541663D02*
D03*
X1534970D02*
D03*
X1450663Y127000D02*
D03*
X1443970D02*
D03*
X1541663D02*
D03*
X1534970D02*
D03*
X1450663Y337000D02*
D03*
X1443970D02*
D03*
X1541663D02*
D03*
X1534970D02*
D03*
X1450663Y279500D02*
D03*
X1443970D02*
D03*
X1541663D02*
D03*
X1534970D02*
D03*
X1450663Y222000D02*
D03*
X1443970D02*
D03*
X1541663D02*
D03*
X1534970D02*
D03*
X1450663Y164500D02*
D03*
X1443970D02*
D03*
X1541663D02*
D03*
X1534970D02*
D03*
X1417970Y320500D02*
D03*
X1424663D02*
D03*
X1508970D02*
D03*
X1515663D02*
D03*
X1417970Y263000D02*
D03*
X1424663D02*
D03*
X1508970D02*
D03*
X1515663D02*
D03*
X1417970Y205500D02*
D03*
X1424663D02*
D03*
X1508970D02*
D03*
X1515663D02*
D03*
X1417970Y148000D02*
D03*
X1424663D02*
D03*
X1508970D02*
D03*
X1515663D02*
D03*
X1424663Y313500D02*
D03*
X1417970D02*
D03*
X1515663D02*
D03*
X1508970D02*
D03*
X1424663Y256000D02*
D03*
X1417970D02*
D03*
X1515663D02*
D03*
X1508970D02*
D03*
X1424663Y198500D02*
D03*
X1417970D02*
D03*
X1515663D02*
D03*
X1508970D02*
D03*
X1424663Y141000D02*
D03*
X1417970D02*
D03*
X1515663D02*
D03*
X1508970D02*
D03*
X1475663Y327500D02*
D03*
X1468970D02*
D03*
X1566663D02*
D03*
X1559970D02*
D03*
X1475663Y270000D02*
D03*
X1468970D02*
D03*
X1566663D02*
D03*
X1559970D02*
D03*
X1475663Y212500D02*
D03*
X1468970D02*
D03*
X1566663D02*
D03*
X1559970D02*
D03*
X1475663Y155000D02*
D03*
X1468970D02*
D03*
X1566663D02*
D03*
X1559970D02*
D03*
X1417970Y327500D02*
D03*
X1424663D02*
D03*
X1508970D02*
D03*
X1515663D02*
D03*
X1417970Y270000D02*
D03*
X1424663D02*
D03*
X1508970D02*
D03*
X1515663D02*
D03*
X1417970Y212500D02*
D03*
X1424663D02*
D03*
X1508970D02*
D03*
X1515663D02*
D03*
X1417970Y155000D02*
D03*
X1424663D02*
D03*
X1508970D02*
D03*
X1515663D02*
D03*
X1675347Y196500D02*
D03*
X1668653D02*
D03*
X1675347Y297500D02*
D03*
X1668653D02*
D03*
X1622654Y196500D02*
D03*
X1629346D02*
D03*
X1622654Y297500D02*
D03*
X1629346D02*
D03*
X1675347Y182500D02*
D03*
X1668653D02*
D03*
X1675347Y283500D02*
D03*
X1668653D02*
D03*
Y210500D02*
D03*
X1675347D02*
D03*
X1668653Y311500D02*
D03*
X1675347D02*
D03*
X1622654Y210500D02*
D03*
X1629346D02*
D03*
X1622654Y311500D02*
D03*
X1629346D02*
D03*
Y182500D02*
D03*
X1622654D02*
D03*
X1629346Y283500D02*
D03*
X1622654D02*
D03*
X71786Y94102D02*
D03*
X78479D02*
D03*
X185593D02*
D03*
X192286D02*
D03*
X299900D02*
D03*
X306593D02*
D03*
X414207D02*
D03*
X420900D02*
D03*
X528014D02*
D03*
X534707D02*
D03*
X642321D02*
D03*
X649014D02*
D03*
X7286Y94000D02*
D03*
X13979D02*
D03*
X121093D02*
D03*
X127786D02*
D03*
X235400D02*
D03*
X242093D02*
D03*
X349707D02*
D03*
X356400D02*
D03*
X463514D02*
D03*
X470207D02*
D03*
X577821D02*
D03*
X584514D02*
D03*
X71786Y101102D02*
D03*
X78479D02*
D03*
X185593D02*
D03*
X192286D02*
D03*
X299900D02*
D03*
X306593D02*
D03*
X414207D02*
D03*
X420900D02*
D03*
X528014D02*
D03*
X534707D02*
D03*
X642321D02*
D03*
X649014D02*
D03*
X7286Y101000D02*
D03*
X13979D02*
D03*
X121093D02*
D03*
X127786D02*
D03*
X235400D02*
D03*
X242093D02*
D03*
X349707D02*
D03*
X356400D02*
D03*
X463514D02*
D03*
X470207D02*
D03*
X577821D02*
D03*
X584514D02*
D03*
X71786Y108102D02*
D03*
X78479D02*
D03*
X185593D02*
D03*
X192286D02*
D03*
X299900D02*
D03*
X306593D02*
D03*
X414207D02*
D03*
X420900D02*
D03*
X528014D02*
D03*
X534707D02*
D03*
X642321D02*
D03*
X649014D02*
D03*
X7286Y108000D02*
D03*
X13979D02*
D03*
X121093D02*
D03*
X127786D02*
D03*
X235400D02*
D03*
X242093D02*
D03*
X349707D02*
D03*
X356400D02*
D03*
X463514D02*
D03*
X470207D02*
D03*
X577821D02*
D03*
X584514D02*
D03*
X37786Y168000D02*
D03*
X44479D02*
D03*
X151593D02*
D03*
X158286D02*
D03*
X265900D02*
D03*
X272593D02*
D03*
X380207D02*
D03*
X386900D02*
D03*
X494014D02*
D03*
X500707D02*
D03*
X608321D02*
D03*
X615014D02*
D03*
X37786Y161000D02*
D03*
X44479D02*
D03*
X151593D02*
D03*
X158286D02*
D03*
X265900D02*
D03*
X272593D02*
D03*
X380207D02*
D03*
X386900D02*
D03*
X494014D02*
D03*
X500707D02*
D03*
X608321D02*
D03*
X615014D02*
D03*
X917965Y377153D02*
D03*
X924658D02*
D03*
X938657D02*
D03*
X931965D02*
D03*
X1443970Y343500D02*
D03*
X1450663D02*
D03*
X1534970D02*
D03*
X1541663D02*
D03*
X1443970Y286000D02*
D03*
X1450663D02*
D03*
X1534970D02*
D03*
X1541663D02*
D03*
X1443970Y228500D02*
D03*
X1450663D02*
D03*
X1534970D02*
D03*
X1541663D02*
D03*
X1443970Y171000D02*
D03*
X1450663D02*
D03*
X1534970D02*
D03*
X1541663D02*
D03*
D30*
X829000Y103847D02*
D03*
Y97154D02*
D03*
X501400Y486654D02*
D03*
Y493347D02*
D03*
X535685Y486307D02*
D03*
Y493000D02*
D03*
X1461663Y299654D02*
D03*
Y306347D02*
D03*
X1552663Y299654D02*
D03*
Y306347D02*
D03*
X1461663Y242154D02*
D03*
Y248847D02*
D03*
X1552663Y242154D02*
D03*
Y248847D02*
D03*
X1461663Y184653D02*
D03*
Y191347D02*
D03*
X1552663Y184653D02*
D03*
Y191347D02*
D03*
X1461663Y127154D02*
D03*
Y133846D02*
D03*
X1552663Y127154D02*
D03*
Y133846D02*
D03*
X1424663Y299654D02*
D03*
Y306347D02*
D03*
X1515663Y299654D02*
D03*
Y306347D02*
D03*
X1424663Y242154D02*
D03*
Y248847D02*
D03*
X1515663Y242154D02*
D03*
Y248847D02*
D03*
X1424663Y184653D02*
D03*
Y191347D02*
D03*
X1515663Y184653D02*
D03*
Y191347D02*
D03*
X1424663Y127154D02*
D03*
Y133846D02*
D03*
X1515663Y127154D02*
D03*
Y133846D02*
D03*
X1678500Y121153D02*
D03*
Y127847D02*
D03*
Y222153D02*
D03*
Y228847D02*
D03*
Y171693D02*
D03*
Y165000D02*
D03*
Y272693D02*
D03*
Y266000D02*
D03*
X1619500Y120653D02*
D03*
Y127347D02*
D03*
Y221654D02*
D03*
Y228346D02*
D03*
Y171846D02*
D03*
Y165154D02*
D03*
Y272847D02*
D03*
Y266154D02*
D03*
X822000Y97154D02*
D03*
Y103847D02*
D03*
X795000Y76153D02*
D03*
Y82846D02*
D03*
X802500Y76153D02*
D03*
Y82846D02*
D03*
X991788Y348807D02*
D03*
Y355500D02*
D03*
X298141Y265154D02*
D03*
Y271847D02*
D03*
X964988Y348807D02*
D03*
Y355500D02*
D03*
X271341Y265154D02*
D03*
Y271847D02*
D03*
X316700Y264653D02*
D03*
Y271346D02*
D03*
X343500Y264653D02*
D03*
Y271346D02*
D03*
X876602Y349153D02*
D03*
Y355847D02*
D03*
X361197Y265307D02*
D03*
Y272000D02*
D03*
X903402Y349153D02*
D03*
Y355847D02*
D03*
X388000Y265307D02*
D03*
Y272000D02*
D03*
X1252000Y122153D02*
D03*
Y128847D02*
D03*
X1260000Y115847D02*
D03*
Y109153D02*
D03*
Y122153D02*
D03*
Y128847D02*
D03*
X1252000Y115347D02*
D03*
Y108653D02*
D03*
X1208500Y122653D02*
D03*
Y129347D02*
D03*
Y115847D02*
D03*
Y109153D02*
D03*
X1215500Y122653D02*
D03*
Y129347D02*
D03*
Y115847D02*
D03*
Y109153D02*
D03*
X1144000Y123653D02*
D03*
Y130347D02*
D03*
Y114347D02*
D03*
Y107653D02*
D03*
X1151500Y123653D02*
D03*
Y130347D02*
D03*
Y114347D02*
D03*
Y107653D02*
D03*
X737500Y69890D02*
D03*
Y63197D02*
D03*
X725500Y69890D02*
D03*
Y63197D02*
D03*
X701500Y69890D02*
D03*
Y63197D02*
D03*
X689500Y69890D02*
D03*
Y63197D02*
D03*
X509400Y493347D02*
D03*
Y486654D02*
D03*
X1468970Y306347D02*
D03*
Y299654D02*
D03*
X1559970Y306347D02*
D03*
Y299654D02*
D03*
X1468970Y248847D02*
D03*
Y242154D02*
D03*
X1559970Y248847D02*
D03*
Y242154D02*
D03*
X1468970Y191347D02*
D03*
Y184653D02*
D03*
X1559970Y191347D02*
D03*
Y184653D02*
D03*
X1468970Y133846D02*
D03*
Y127154D02*
D03*
X1559970Y133846D02*
D03*
Y127154D02*
D03*
X1431663Y306347D02*
D03*
Y299654D02*
D03*
X1522663Y306347D02*
D03*
Y299654D02*
D03*
X1431663Y248847D02*
D03*
Y242154D02*
D03*
X1522663Y248847D02*
D03*
Y242154D02*
D03*
X1431663Y191347D02*
D03*
Y184653D02*
D03*
X1522663Y191347D02*
D03*
Y184653D02*
D03*
X1431663Y133846D02*
D03*
Y127154D02*
D03*
X1522663Y133846D02*
D03*
Y127154D02*
D03*
D32*
X767500Y71500D02*
D03*
X752004D02*
D03*
D35*
X1266500Y127287D02*
D03*
Y110711D02*
D03*
X1269059D02*
D03*
X1271618D02*
D03*
X1274177D02*
D03*
X1269059Y127287D02*
D03*
X1271618D02*
D03*
X1274177D02*
D03*
X1222000D02*
D03*
Y110711D02*
D03*
X1224559D02*
D03*
X1227118D02*
D03*
X1229677D02*
D03*
X1224559Y127287D02*
D03*
X1227118D02*
D03*
X1229677D02*
D03*
D45*
X1634500Y238102D02*
D03*
X1629500D02*
D03*
X1624500D02*
D03*
X1619500D02*
D03*
X1614500D02*
D03*
X1609500D02*
D03*
X1604500D02*
D03*
X1634500Y257000D02*
D03*
X1629500D02*
D03*
X1624500D02*
D03*
X1619500D02*
D03*
X1614500D02*
D03*
X1609500D02*
D03*
X1604500D02*
D03*
X1634500Y137102D02*
D03*
X1629500D02*
D03*
X1624500D02*
D03*
X1619500D02*
D03*
X1614500D02*
D03*
X1609500D02*
D03*
X1604500D02*
D03*
X1634500Y156000D02*
D03*
X1629500D02*
D03*
X1624500D02*
D03*
X1619500D02*
D03*
X1614500D02*
D03*
X1609500D02*
D03*
X1604500D02*
D03*
X1693500Y238102D02*
D03*
X1688500D02*
D03*
X1683500D02*
D03*
X1678500D02*
D03*
X1673500D02*
D03*
X1668500D02*
D03*
X1663500D02*
D03*
X1693500Y257000D02*
D03*
X1688500D02*
D03*
X1683500D02*
D03*
X1678500D02*
D03*
X1673500D02*
D03*
X1668500D02*
D03*
X1663500D02*
D03*
X1693500Y137102D02*
D03*
X1688500D02*
D03*
X1683500D02*
D03*
X1678500D02*
D03*
X1673500D02*
D03*
X1668500D02*
D03*
X1663500D02*
D03*
X1693500Y156000D02*
D03*
X1688500D02*
D03*
X1683500D02*
D03*
X1678500D02*
D03*
X1673500D02*
D03*
X1668500D02*
D03*
X1663500D02*
D03*
X11632Y135949D02*
D03*
X16632D02*
D03*
X21632D02*
D03*
X26632D02*
D03*
X31632D02*
D03*
X36632D02*
D03*
X41632D02*
D03*
X46632D02*
D03*
X11632Y117051D02*
D03*
X16632D02*
D03*
X21632D02*
D03*
X26632D02*
D03*
X31632D02*
D03*
X36632D02*
D03*
X41632D02*
D03*
X46632D02*
D03*
X111132Y117205D02*
D03*
X106132D02*
D03*
X101132D02*
D03*
X96132D02*
D03*
X91132D02*
D03*
X86132D02*
D03*
X81132D02*
D03*
X76132D02*
D03*
X111132Y136102D02*
D03*
X106132D02*
D03*
X101132D02*
D03*
X96132D02*
D03*
X91132D02*
D03*
X86132D02*
D03*
X81132D02*
D03*
X76132D02*
D03*
X160439Y117051D02*
D03*
X155439D02*
D03*
X150439D02*
D03*
X145439D02*
D03*
X140439D02*
D03*
X135439D02*
D03*
X130439D02*
D03*
X125439D02*
D03*
X160439Y135949D02*
D03*
X155439D02*
D03*
X150439D02*
D03*
X145439D02*
D03*
X140439D02*
D03*
X135439D02*
D03*
X130439D02*
D03*
X125439D02*
D03*
X502861Y117051D02*
D03*
X497861D02*
D03*
X492861D02*
D03*
X487861D02*
D03*
X482861D02*
D03*
X477861D02*
D03*
X472861D02*
D03*
X467861D02*
D03*
X502861Y135949D02*
D03*
X497861D02*
D03*
X492861D02*
D03*
X487861D02*
D03*
X482861D02*
D03*
X477861D02*
D03*
X472861D02*
D03*
X467861D02*
D03*
X224939Y117205D02*
D03*
X219939D02*
D03*
X214939D02*
D03*
X209939D02*
D03*
X204939D02*
D03*
X199939D02*
D03*
X194939D02*
D03*
X189939D02*
D03*
X224939Y136102D02*
D03*
X219939D02*
D03*
X214939D02*
D03*
X209939D02*
D03*
X204939D02*
D03*
X199939D02*
D03*
X194939D02*
D03*
X189939D02*
D03*
X274746Y117051D02*
D03*
X269746D02*
D03*
X264746D02*
D03*
X259747D02*
D03*
X254747D02*
D03*
X249746D02*
D03*
X244746D02*
D03*
X239746D02*
D03*
X274746Y135949D02*
D03*
X269746D02*
D03*
X264746D02*
D03*
X259747D02*
D03*
X254747D02*
D03*
X249746D02*
D03*
X244746D02*
D03*
X239746D02*
D03*
X339247Y117205D02*
D03*
X334246D02*
D03*
X329246D02*
D03*
X324247D02*
D03*
X319247D02*
D03*
X314247D02*
D03*
X309246D02*
D03*
X304246D02*
D03*
X339247Y136102D02*
D03*
X334246D02*
D03*
X329246D02*
D03*
X324247D02*
D03*
X319247D02*
D03*
X314247D02*
D03*
X309246D02*
D03*
X304246D02*
D03*
X389054Y117051D02*
D03*
X384053D02*
D03*
X379053D02*
D03*
X374054D02*
D03*
X369054D02*
D03*
X364054D02*
D03*
X359053D02*
D03*
X354053D02*
D03*
X389054Y135949D02*
D03*
X384053D02*
D03*
X379053D02*
D03*
X374054D02*
D03*
X369054D02*
D03*
X364054D02*
D03*
X359053D02*
D03*
X354053D02*
D03*
X453553Y117205D02*
D03*
X448554D02*
D03*
X443553D02*
D03*
X438553D02*
D03*
X433554D02*
D03*
X428553D02*
D03*
X423554D02*
D03*
X418553D02*
D03*
X453553Y136102D02*
D03*
X448554D02*
D03*
X443553D02*
D03*
X438553D02*
D03*
X433554D02*
D03*
X428553D02*
D03*
X423554D02*
D03*
X418553D02*
D03*
X567361Y117205D02*
D03*
X562361D02*
D03*
X557361D02*
D03*
X552361D02*
D03*
X547361D02*
D03*
X542361D02*
D03*
X537361D02*
D03*
X532361D02*
D03*
X567361Y136102D02*
D03*
X562361D02*
D03*
X557361D02*
D03*
X552361D02*
D03*
X547361D02*
D03*
X542361D02*
D03*
X537361D02*
D03*
X532361D02*
D03*
X617168Y117051D02*
D03*
X612168D02*
D03*
X607168D02*
D03*
X602168D02*
D03*
X597168D02*
D03*
X592168D02*
D03*
X587168D02*
D03*
X582168D02*
D03*
X617168Y135949D02*
D03*
X612168D02*
D03*
X607168D02*
D03*
X602168D02*
D03*
X597168D02*
D03*
X592168D02*
D03*
X587168D02*
D03*
X582168D02*
D03*
X681668Y117205D02*
D03*
X676668D02*
D03*
X671668D02*
D03*
X666668D02*
D03*
X661668D02*
D03*
X656668D02*
D03*
X651668D02*
D03*
X646668D02*
D03*
X681668Y136102D02*
D03*
X676668D02*
D03*
X671668D02*
D03*
X666668D02*
D03*
X661668D02*
D03*
X656668D02*
D03*
X651668D02*
D03*
X646668D02*
D03*
D53*
X1159425Y130024D02*
D03*
X1161984D02*
D03*
X1164543D02*
D03*
X1167102D02*
D03*
X1169661D02*
D03*
X1172221D02*
D03*
X1174780D02*
D03*
X1177339D02*
D03*
X1179898D02*
D03*
X1182457D02*
D03*
X1185016D02*
D03*
X1187575D02*
D03*
X1159425Y107976D02*
D03*
X1161984D02*
D03*
X1164543D02*
D03*
X1167102D02*
D03*
X1169661D02*
D03*
X1172221D02*
D03*
X1174780D02*
D03*
X1177339D02*
D03*
X1179898D02*
D03*
X1182457D02*
D03*
X1185016D02*
D03*
X1187575D02*
D03*
D95*
X690831Y284789D02*
D03*
X762831Y459339D02*
D03*
Y284339D02*
D03*
D97*
X921000Y184400D02*
D03*
X654000Y28311D02*
D03*
X23000Y497000D02*
D03*
X1429500D02*
D03*
X23000Y192500D02*
D03*
X593500Y446638D02*
D03*
Y286500D02*
D03*
X1169500Y221500D02*
D03*
D98*
X519700Y43900D02*
D03*
X530600D02*
D03*
X552400D02*
D03*
X541500D02*
D03*
X585100D02*
D03*
X596000D02*
D03*
X574200D02*
D03*
X563300D02*
D03*
X525150Y32700D02*
D03*
X536050D02*
D03*
X557850D02*
D03*
X546950D02*
D03*
X590550D02*
D03*
X579650D02*
D03*
X568750D02*
D03*
X546950Y59300D02*
D03*
X536050D02*
D03*
X525150D02*
D03*
X568750D02*
D03*
X557850D02*
D03*
X579650D02*
D03*
X590550D02*
D03*
X563300Y70500D02*
D03*
X574200D02*
D03*
X596000D02*
D03*
X585100D02*
D03*
X541500D02*
D03*
X552400D02*
D03*
X530600D02*
D03*
X519700D02*
D03*
X359967Y43900D02*
D03*
X370867D02*
D03*
X392667D02*
D03*
X381767D02*
D03*
X425367D02*
D03*
X436267D02*
D03*
X414467D02*
D03*
X403567D02*
D03*
X365417Y32700D02*
D03*
X376317D02*
D03*
X398117D02*
D03*
X387217D02*
D03*
X430817D02*
D03*
X419917D02*
D03*
X409017D02*
D03*
X387217Y59300D02*
D03*
X376317D02*
D03*
X365417D02*
D03*
X409017D02*
D03*
X398117D02*
D03*
X419917D02*
D03*
X430817D02*
D03*
X403567Y70500D02*
D03*
X414467D02*
D03*
X436267D02*
D03*
X425367D02*
D03*
X381767D02*
D03*
X392667D02*
D03*
X370867D02*
D03*
X359967D02*
D03*
X200233Y43900D02*
D03*
X211133D02*
D03*
X232933D02*
D03*
X222033D02*
D03*
X265633D02*
D03*
X276533D02*
D03*
X254733D02*
D03*
X243833D02*
D03*
X205683Y32700D02*
D03*
X216583D02*
D03*
X238383D02*
D03*
X227483D02*
D03*
X271083D02*
D03*
X260183D02*
D03*
X249283D02*
D03*
X227483Y59300D02*
D03*
X216583D02*
D03*
X205683D02*
D03*
X249283D02*
D03*
X238383D02*
D03*
X260183D02*
D03*
X271083D02*
D03*
X243833Y70500D02*
D03*
X254733D02*
D03*
X276533D02*
D03*
X265633D02*
D03*
X222033D02*
D03*
X232933D02*
D03*
X211133D02*
D03*
X200233D02*
D03*
X40500Y43900D02*
D03*
X51400D02*
D03*
X73200D02*
D03*
X62300D02*
D03*
X105900D02*
D03*
X116800D02*
D03*
X95000D02*
D03*
X84100D02*
D03*
X45950Y32700D02*
D03*
X56850D02*
D03*
X78650D02*
D03*
X67750D02*
D03*
X111350D02*
D03*
X100450D02*
D03*
X89550D02*
D03*
X67750Y59300D02*
D03*
X56850D02*
D03*
X45950D02*
D03*
X89550D02*
D03*
X78650D02*
D03*
X100450D02*
D03*
X111350D02*
D03*
X84100Y70500D02*
D03*
X95000D02*
D03*
X116800D02*
D03*
X105900D02*
D03*
X62300D02*
D03*
X73200D02*
D03*
X51400D02*
D03*
X40500D02*
D03*
X1188800Y44000D02*
D03*
X1199700D02*
D03*
X1221500D02*
D03*
X1210600D02*
D03*
X1254200D02*
D03*
X1265100D02*
D03*
X1243300D02*
D03*
X1232400D02*
D03*
X1194250Y32800D02*
D03*
X1205150D02*
D03*
X1226950D02*
D03*
X1216050D02*
D03*
X1259650D02*
D03*
X1248750D02*
D03*
X1237850D02*
D03*
X1216050Y59400D02*
D03*
X1205150D02*
D03*
X1194250D02*
D03*
X1237850D02*
D03*
X1226950D02*
D03*
X1248750D02*
D03*
X1259650D02*
D03*
X1232400Y70600D02*
D03*
X1243300D02*
D03*
X1265100D02*
D03*
X1254200D02*
D03*
X1210600D02*
D03*
X1221500D02*
D03*
X1199700D02*
D03*
X1188800D02*
D03*
D99*
X492250Y32700D02*
D03*
Y64200D02*
D03*
X623450D02*
D03*
Y32700D02*
D03*
X332517D02*
D03*
Y64200D02*
D03*
X463717D02*
D03*
Y32700D02*
D03*
X172783D02*
D03*
Y64200D02*
D03*
X303983D02*
D03*
Y32700D02*
D03*
X13050D02*
D03*
Y64200D02*
D03*
X144250D02*
D03*
Y32700D02*
D03*
X1161350Y32800D02*
D03*
Y64300D02*
D03*
X1292550D02*
D03*
Y32800D02*
D03*
D100*
X299760Y473842D02*
D03*
X330075D02*
D03*
X299760Y454157D02*
D03*
X330075D02*
D03*
X91760Y473842D02*
D03*
X122075D02*
D03*
X91760Y454157D02*
D03*
X122075D02*
D03*
X304500Y400999D02*
D03*
X324500D02*
D03*
X364500D02*
D03*
Y220999D02*
D03*
X384500D02*
D03*
X334500D02*
D03*
X314500D02*
D03*
X284500D02*
D03*
X254500D02*
D03*
X97571Y400999D02*
D03*
X117571D02*
D03*
X157571D02*
D03*
Y220999D02*
D03*
X177571D02*
D03*
X127571D02*
D03*
X107571D02*
D03*
X77571D02*
D03*
X47571D02*
D03*
X897433Y22303D02*
D03*
X869835D02*
D03*
X979441Y22563D02*
D03*
X951842D02*
D03*
D101*
X683900Y39303D02*
D03*
Y29303D02*
D03*
Y19303D02*
D03*
X743100Y29303D02*
D03*
Y19303D02*
D03*
X516000Y509000D02*
D03*
X535685D02*
D03*
X430158D02*
D03*
X449843D02*
D03*
X492842D02*
D03*
X473158D02*
D03*
D102*
X733500Y80303D02*
D03*
X725508D02*
D03*
X717508D02*
D03*
X693508D02*
D03*
X701508D02*
D03*
X709500D02*
D03*
X729500Y90303D02*
D03*
X721500D02*
D03*
X737500D02*
D03*
X705500D02*
D03*
X697500D02*
D03*
X689500D02*
D03*
D103*
X748100Y54303D02*
D03*
X678900D02*
D03*
D104*
X1365547Y31909D02*
D03*
X1354642D02*
D03*
X1376453D02*
D03*
X1387358D02*
D03*
X1392811Y43091D02*
D03*
X1381905D02*
D03*
X1371000D02*
D03*
X1349189D02*
D03*
X1360095D02*
D03*
X1085000Y441000D02*
D03*
Y431000D02*
D03*
Y421000D02*
D03*
X1075000D02*
D03*
Y431000D02*
D03*
Y441000D02*
D03*
X461500Y191499D02*
D03*
X451500D02*
D03*
X441500D02*
D03*
X451500Y201499D02*
D03*
X1310500Y187500D02*
D03*
Y197500D02*
D03*
Y207500D02*
D03*
Y217500D02*
D03*
X1300500D02*
D03*
Y207500D02*
D03*
Y197500D02*
D03*
Y187500D02*
D03*
X1492516Y63059D02*
D03*
X1482516D02*
D03*
X1472516D02*
D03*
X1502516D02*
D03*
X1467516Y53059D02*
D03*
X1477516D02*
D03*
X1487516D02*
D03*
X1497516D02*
D03*
Y79043D02*
D03*
X1487516D02*
D03*
X1477516D02*
D03*
X1467516D02*
D03*
X1502516Y89043D02*
D03*
X1472516D02*
D03*
X1482516D02*
D03*
X1492516D02*
D03*
X1547516Y63059D02*
D03*
X1537516D02*
D03*
X1527516D02*
D03*
X1557516D02*
D03*
X1522516Y53059D02*
D03*
X1532516D02*
D03*
X1542516D02*
D03*
X1552516D02*
D03*
Y79043D02*
D03*
X1542516D02*
D03*
X1532516D02*
D03*
X1522516D02*
D03*
X1557516Y89043D02*
D03*
X1527516D02*
D03*
X1537516D02*
D03*
X1547516D02*
D03*
X1602516Y63059D02*
D03*
X1592516D02*
D03*
X1582516D02*
D03*
X1612516D02*
D03*
X1577516Y53059D02*
D03*
X1587516D02*
D03*
X1597516D02*
D03*
X1607516D02*
D03*
Y79043D02*
D03*
X1597516D02*
D03*
X1587516D02*
D03*
X1577516D02*
D03*
X1612516Y89043D02*
D03*
X1582516D02*
D03*
X1592516D02*
D03*
X1602516D02*
D03*
X1657516D02*
D03*
X1647516D02*
D03*
X1637516D02*
D03*
X1667516D02*
D03*
X1632516Y79043D02*
D03*
X1642516D02*
D03*
X1652516D02*
D03*
X1662516D02*
D03*
Y53059D02*
D03*
X1652516D02*
D03*
X1642516D02*
D03*
X1632516D02*
D03*
X1667516Y63059D02*
D03*
X1637516D02*
D03*
X1647516D02*
D03*
X1657516D02*
D03*
X567000Y172000D02*
D03*
X557000D02*
D03*
X547000D02*
D03*
X566983Y185000D02*
D03*
X556983D02*
D03*
X546983D02*
D03*
X1310500Y308000D02*
D03*
Y298000D02*
D03*
Y288000D02*
D03*
Y278000D02*
D03*
X1300500D02*
D03*
Y288000D02*
D03*
Y298000D02*
D03*
Y308000D02*
D03*
X1310500Y263000D02*
D03*
Y253000D02*
D03*
Y243000D02*
D03*
Y233000D02*
D03*
X1300500D02*
D03*
Y243000D02*
D03*
Y253000D02*
D03*
Y263000D02*
D03*
X485000Y404000D02*
D03*
Y394000D02*
D03*
Y384000D02*
D03*
X475000D02*
D03*
Y394000D02*
D03*
Y404000D02*
D03*
X326000Y196599D02*
D03*
X316000D02*
D03*
X177571Y198000D02*
D03*
X167571D02*
D03*
X95571D02*
D03*
X105571D02*
D03*
X211000Y474000D02*
D03*
Y464000D02*
D03*
Y454000D02*
D03*
X451500Y174000D02*
D03*
X441500Y164000D02*
D03*
X451500D02*
D03*
X461500D02*
D03*
X793000Y64000D02*
D03*
Y54000D02*
D03*
Y44000D02*
D03*
X767000Y46000D02*
D03*
X757000D02*
D03*
X1131500Y130289D02*
D03*
Y140289D02*
D03*
X1092500Y120000D02*
D03*
X1102500D02*
D03*
X1082500D02*
D03*
X1072500D02*
D03*
X1112500D02*
D03*
X1122500D02*
D03*
X1062500D02*
D03*
Y110000D02*
D03*
X1072500D02*
D03*
X1082500D02*
D03*
X1092500D02*
D03*
X1102500D02*
D03*
X1112500D02*
D03*
X1122500D02*
D03*
X1210000Y171500D02*
D03*
X1200000D02*
D03*
X1190000D02*
D03*
X1238500Y158500D02*
D03*
X1248500D02*
D03*
X1258500D02*
D03*
X1210000D02*
D03*
X1200000D02*
D03*
X1190000D02*
D03*
X1238500Y171500D02*
D03*
X1248500D02*
D03*
X1258500D02*
D03*
X1417500Y58000D02*
D03*
Y68000D02*
D03*
X892492Y12500D02*
D03*
X874776D02*
D03*
X974500Y12760D02*
D03*
X956783D02*
D03*
D105*
X1321807Y37500D02*
D03*
X1420193D02*
D03*
D106*
X690831Y458789D02*
D03*
X936831Y459339D02*
D03*
Y284339D02*
D03*
D107*
X1034831Y469289D02*
D03*
X664831Y274289D02*
D03*
Y469289D02*
D03*
X1034831Y274289D02*
D03*
D108*
X991500Y21000D02*
D03*
X1001500D02*
D03*
X991500Y6000D02*
D03*
X1001500D02*
D03*
X1011500D02*
D03*
Y21000D02*
D03*
D109*
X1683500Y10067D02*
D03*
Y73059D02*
D03*
X1680409Y51051D02*
D03*
X1622516Y96051D02*
D03*
X1567516D02*
D03*
X1512516D02*
D03*
X1454524Y64043D02*
D03*
X1451433Y89043D02*
D03*
Y10067D02*
D03*
D113*
X825260Y36059D02*
D03*
Y30941D02*
D03*
X832740Y36059D02*
D03*
Y33500D02*
D03*
Y30941D02*
D03*
X784760Y37559D02*
D03*
Y32441D02*
D03*
X792240Y37559D02*
D03*
Y35000D02*
D03*
Y32441D02*
D03*
D114*
X1093859Y132260D02*
D03*
X1098977D02*
D03*
X1093859Y139740D02*
D03*
X1096418D02*
D03*
X1098977D02*
D03*
X520959Y493740D02*
D03*
X515841D02*
D03*
X520959Y486260D02*
D03*
X518400D02*
D03*
X515841D02*
D03*
D115*
X330100Y283565D02*
D03*
X323400D02*
D03*
X316700D02*
D03*
X336800D02*
D03*
X343500D02*
D03*
X991788Y367653D02*
D03*
X985088D02*
D03*
X964988D02*
D03*
X971688D02*
D03*
X978388D02*
D03*
X298141Y284000D02*
D03*
X291441D02*
D03*
X271341D02*
D03*
X278041D02*
D03*
X284741D02*
D03*
X903402Y367653D02*
D03*
X896702D02*
D03*
X876602D02*
D03*
X883302D02*
D03*
X890002D02*
D03*
X388000Y283565D02*
D03*
X381300D02*
D03*
X361200D02*
D03*
X367900D02*
D03*
X374600D02*
D03*
D116*
X330100Y318065D02*
D03*
X978388Y402153D02*
D03*
X284741Y318500D02*
D03*
X890002Y402153D02*
D03*
X374600Y318065D02*
D03*
D117*
X1436392Y313358D02*
D03*
Y315917D02*
D03*
Y318476D02*
D03*
Y321035D02*
D03*
Y323594D02*
D03*
Y326153D02*
D03*
Y328712D02*
D03*
X1458242Y313358D02*
D03*
Y315917D02*
D03*
Y318476D02*
D03*
Y321035D02*
D03*
Y323594D02*
D03*
Y326153D02*
D03*
Y328712D02*
D03*
X1436392Y255858D02*
D03*
Y258417D02*
D03*
Y260976D02*
D03*
Y263535D02*
D03*
Y266094D02*
D03*
Y268653D02*
D03*
Y271212D02*
D03*
X1458242Y255858D02*
D03*
Y258417D02*
D03*
Y260976D02*
D03*
Y263535D02*
D03*
Y266094D02*
D03*
Y268653D02*
D03*
Y271212D02*
D03*
X1436392Y198358D02*
D03*
Y200917D02*
D03*
Y203476D02*
D03*
Y206035D02*
D03*
Y208594D02*
D03*
Y211153D02*
D03*
Y213712D02*
D03*
X1458242Y198358D02*
D03*
Y200917D02*
D03*
Y203476D02*
D03*
Y206035D02*
D03*
Y208594D02*
D03*
Y211153D02*
D03*
Y213712D02*
D03*
X1436392Y140858D02*
D03*
Y143417D02*
D03*
Y145976D02*
D03*
Y148535D02*
D03*
Y151094D02*
D03*
Y153653D02*
D03*
Y156212D02*
D03*
X1458242Y140858D02*
D03*
Y143417D02*
D03*
Y145976D02*
D03*
Y148535D02*
D03*
Y151094D02*
D03*
Y153653D02*
D03*
Y156212D02*
D03*
X1527392Y313358D02*
D03*
Y315917D02*
D03*
Y318476D02*
D03*
Y321035D02*
D03*
Y323594D02*
D03*
Y326153D02*
D03*
Y328712D02*
D03*
X1549242Y313358D02*
D03*
Y315917D02*
D03*
Y318476D02*
D03*
Y321035D02*
D03*
Y323594D02*
D03*
Y326153D02*
D03*
Y328712D02*
D03*
X1527392Y255858D02*
D03*
Y258417D02*
D03*
Y260976D02*
D03*
Y263535D02*
D03*
Y266094D02*
D03*
Y268653D02*
D03*
Y271212D02*
D03*
X1549242Y255858D02*
D03*
Y258417D02*
D03*
Y260976D02*
D03*
Y263535D02*
D03*
Y266094D02*
D03*
Y268653D02*
D03*
Y271212D02*
D03*
X1527392Y198358D02*
D03*
Y200917D02*
D03*
Y203476D02*
D03*
Y206035D02*
D03*
Y208594D02*
D03*
Y211153D02*
D03*
Y213712D02*
D03*
X1549242Y198358D02*
D03*
Y200917D02*
D03*
Y203476D02*
D03*
Y206035D02*
D03*
Y208594D02*
D03*
Y211153D02*
D03*
Y213712D02*
D03*
X1527392Y140858D02*
D03*
Y143417D02*
D03*
Y145976D02*
D03*
Y148535D02*
D03*
Y151094D02*
D03*
Y153653D02*
D03*
Y156212D02*
D03*
X1549242Y140858D02*
D03*
Y143417D02*
D03*
Y145976D02*
D03*
Y148535D02*
D03*
Y151094D02*
D03*
Y153653D02*
D03*
Y156212D02*
D03*
X1638075Y289874D02*
D03*
Y292433D02*
D03*
Y294992D02*
D03*
Y297551D02*
D03*
Y300110D02*
D03*
Y302669D02*
D03*
Y305228D02*
D03*
X1659925Y289874D02*
D03*
Y292433D02*
D03*
Y294992D02*
D03*
Y297551D02*
D03*
Y300110D02*
D03*
Y302669D02*
D03*
Y305228D02*
D03*
X1638075Y188874D02*
D03*
Y191433D02*
D03*
Y193992D02*
D03*
Y196551D02*
D03*
Y199110D02*
D03*
Y201669D02*
D03*
Y204228D02*
D03*
X1659925Y188874D02*
D03*
Y191433D02*
D03*
Y193992D02*
D03*
Y196551D02*
D03*
Y199110D02*
D03*
Y201669D02*
D03*
Y204228D02*
D03*
D118*
X924571Y369213D02*
D03*
Y366653D02*
D03*
Y364094D02*
D03*
X932051D02*
D03*
Y366653D02*
D03*
Y369213D02*
D03*
D119*
X822000Y80000D02*
D03*
D120*
X829185Y76063D02*
D03*
Y78031D02*
D03*
Y80000D02*
D03*
Y81968D02*
D03*
Y83937D02*
D03*
X814815D02*
D03*
Y81968D02*
D03*
Y80000D02*
D03*
Y78031D02*
D03*
Y76063D02*
D03*
D121*
X825937Y87185D02*
D03*
X823969D02*
D03*
X822000D02*
D03*
X820032D02*
D03*
X818063D02*
D03*
Y72815D02*
D03*
X820032D02*
D03*
X822000D02*
D03*
X823969D02*
D03*
X825937D02*
D03*
D122*
X394695Y175425D02*
D03*
X396664D02*
D03*
X398632D02*
D03*
X400601D02*
D03*
X402569D02*
D03*
X404538D02*
D03*
X406506D02*
D03*
X408475D02*
D03*
X410443D02*
D03*
X412412D02*
D03*
X394695Y153575D02*
D03*
X396664D02*
D03*
X398632D02*
D03*
X400601D02*
D03*
X402569D02*
D03*
X404538D02*
D03*
X406506D02*
D03*
X408475D02*
D03*
X410443D02*
D03*
X412412D02*
D03*
X622809Y175425D02*
D03*
X624778D02*
D03*
X626746D02*
D03*
X628715D02*
D03*
X630683D02*
D03*
X632652D02*
D03*
X634620D02*
D03*
X636589D02*
D03*
X638557D02*
D03*
X640526D02*
D03*
X622809Y153575D02*
D03*
X624778D02*
D03*
X626746D02*
D03*
X628715D02*
D03*
X630683D02*
D03*
X632652D02*
D03*
X634620D02*
D03*
X636589D02*
D03*
X638557D02*
D03*
X640526D02*
D03*
X508502Y175425D02*
D03*
X510471D02*
D03*
X512439D02*
D03*
X514408D02*
D03*
X516376D02*
D03*
X518345D02*
D03*
X520313D02*
D03*
X522282D02*
D03*
X524250D02*
D03*
X526219D02*
D03*
X508502Y153575D02*
D03*
X510471D02*
D03*
X512439D02*
D03*
X514408D02*
D03*
X516376D02*
D03*
X518345D02*
D03*
X520313D02*
D03*
X522282D02*
D03*
X524250D02*
D03*
X526219D02*
D03*
X280388Y175425D02*
D03*
X282357D02*
D03*
X284325D02*
D03*
X286294D02*
D03*
X288262D02*
D03*
X290231D02*
D03*
X292199D02*
D03*
X294168D02*
D03*
X296136D02*
D03*
X298105D02*
D03*
X280388Y153575D02*
D03*
X282357D02*
D03*
X284325D02*
D03*
X286294D02*
D03*
X288262D02*
D03*
X290231D02*
D03*
X292199D02*
D03*
X294168D02*
D03*
X296136D02*
D03*
X298105D02*
D03*
X52274Y175425D02*
D03*
X54242D02*
D03*
X56211D02*
D03*
X58179D02*
D03*
X60148D02*
D03*
X62116D02*
D03*
X64085D02*
D03*
X66054D02*
D03*
X68022D02*
D03*
X69991D02*
D03*
X52274Y153575D02*
D03*
X54242D02*
D03*
X56211D02*
D03*
X58179D02*
D03*
X60148D02*
D03*
X62116D02*
D03*
X64085D02*
D03*
X66054D02*
D03*
X68022D02*
D03*
X69991D02*
D03*
X166081Y175425D02*
D03*
X168050D02*
D03*
X170018D02*
D03*
X171987D02*
D03*
X173955D02*
D03*
X175924D02*
D03*
X177892D02*
D03*
X179861D02*
D03*
X181829D02*
D03*
X183798D02*
D03*
X166081Y153575D02*
D03*
X168050D02*
D03*
X170018D02*
D03*
X171987D02*
D03*
X173955D02*
D03*
X175924D02*
D03*
X177892D02*
D03*
X179861D02*
D03*
X181829D02*
D03*
X183798D02*
D03*
M02*
