G04*
G04 #@! TF.GenerationSoftware,Altium Limited,Altium Designer,18.1.6 (161)*
G04*
G04 Layer_Physical_Order=4*
G04 Layer_Color=16711680*
%FSLAX25Y25*%
%MOIN*%
G70*
G01*
G75*
%ADD11C,0.02000*%
%ADD17C,0.01000*%
%ADD18C,0.01500*%
%ADD29R,0.03740X0.03740*%
%ADD30R,0.03740X0.03740*%
%ADD32R,0.07500X0.13500*%
%ADD35R,0.01654X0.03500*%
%ADD45O,0.02362X0.08661*%
%ADD53R,0.01181X0.06299*%
%ADD55C,0.04000*%
%ADD96C,0.06700*%
%ADD97C,0.16000*%
%ADD98C,0.07874*%
%ADD99C,0.07000*%
%ADD100C,0.05000*%
%ADD101C,0.08200*%
%ADD102C,0.06000*%
%ADD103C,0.15748*%
%ADD104C,0.04598*%
%ADD105C,0.03000*%
%ADD106C,0.17000*%
%ADD107C,0.03937*%
%ADD108C,0.08858*%
%ADD109C,0.04000*%
%ADD110C,0.02000*%
%ADD111C,0.02598*%
%ADD112R,0.01968X0.01575*%
%ADD113R,0.01575X0.01968*%
%ADD114R,0.04200X0.09000*%
%ADD115R,0.42000X0.35000*%
%ADD116R,0.06496X0.01181*%
%ADD117R,0.03347X0.01575*%
%ADD118R,0.09055X0.09055*%
%ADD119O,0.03740X0.01181*%
%ADD120O,0.01181X0.03740*%
%ADD121O,0.01181X0.06890*%
D11*
X1362600Y105400D02*
Y130024D01*
Y105400D02*
X1363000Y105000D01*
X1365200Y107586D02*
Y184738D01*
Y107586D02*
X1367786Y105000D01*
X1367800Y109771D02*
Y183661D01*
Y109771D02*
X1372571Y105000D01*
X1371500Y125610D02*
X1377357Y119753D01*
Y105000D02*
Y119753D01*
X1380200Y106943D02*
Y130500D01*
Y106943D02*
X1382143Y105000D01*
X1382800Y109128D02*
Y173139D01*
Y109128D02*
X1386928Y105000D01*
X1385400Y111314D02*
Y174216D01*
Y111314D02*
X1391714Y105000D01*
X1390600Y110900D02*
Y193900D01*
Y110900D02*
X1396500Y105000D01*
X390600Y164500D02*
X390700Y164600D01*
X996307Y348807D02*
X998500Y351000D01*
X991788Y348807D02*
X996307D01*
X959000Y351000D02*
X961193Y348807D01*
X964988D01*
X906653Y349153D02*
X909500Y352000D01*
X903402Y349153D02*
X906653D01*
X881456D02*
X883302Y351000D01*
X876602Y349153D02*
X881456D01*
X264500Y267900D02*
Y271346D01*
Y267900D02*
X267247Y265154D01*
X271341D01*
X394500Y267500D02*
Y272000D01*
X392307Y265307D02*
X394500Y267500D01*
X388000Y265307D02*
X392307D01*
X355500Y267500D02*
Y272000D01*
Y267500D02*
X357693Y265307D01*
X361197D01*
X350000Y267000D02*
Y272000D01*
X347654Y264653D02*
X350000Y267000D01*
X343500Y264653D02*
X347654D01*
X310000Y267500D02*
Y272000D01*
Y267500D02*
X312846Y264653D01*
X316700D01*
X304500Y267500D02*
Y272000D01*
X302153Y265154D02*
X304500Y267500D01*
X298141Y265154D02*
X302153D01*
X367900Y283565D02*
Y293000D01*
X291441Y284000D02*
Y293000D01*
X323400Y283565D02*
Y293000D01*
X381600Y265500D02*
Y270045D01*
X383554Y272000D01*
X388000D02*
Y283565D01*
X381300Y274254D02*
X383554Y272000D01*
X388000D01*
X381300Y274254D02*
Y283565D01*
X367900Y274946D02*
Y283565D01*
X364953Y272000D02*
X367900Y274946D01*
X361197Y272000D02*
X364953D01*
X361197Y283562D02*
X361200Y283565D01*
X361197Y272000D02*
Y283562D01*
X278000Y265500D02*
Y269693D01*
X336800Y265500D02*
Y269146D01*
X339000Y271346D01*
X343500D02*
Y283565D01*
X339000Y271346D02*
X343500D01*
X336800Y273547D02*
X339000Y271346D01*
X336800Y273547D02*
Y283565D01*
X323400Y273900D02*
Y283565D01*
X320847Y271346D02*
X323400Y273900D01*
X316700Y271346D02*
X320847D01*
X316700D02*
Y283565D01*
X275847Y271847D02*
X278000Y269693D01*
X883302Y367653D02*
Y377067D01*
X871500Y355847D02*
X876602D01*
X896702Y357861D02*
Y360000D01*
Y367653D01*
X897002Y347000D02*
Y354132D01*
X898717Y355847D01*
X896702Y357861D02*
X898717Y355847D01*
X903402D01*
X883302Y357802D02*
Y367653D01*
X881347Y355847D02*
X883302Y357802D01*
X876602Y355847D02*
X881347D01*
X876602D02*
Y367653D01*
X971688Y357694D02*
Y360000D01*
Y367653D01*
Y350000D02*
Y353306D01*
Y348166D02*
Y350000D01*
X969494Y355500D02*
X971688Y353306D01*
X1668408Y417408D02*
X1674438D01*
X1668000Y417000D02*
X1668408Y417408D01*
X1674438D02*
X1676500Y415346D01*
Y403500D02*
Y415346D01*
X1611000Y412000D02*
X1616000Y417000D01*
X1611000Y410307D02*
Y412000D01*
X1247130Y249630D02*
Y258630D01*
X1247000Y249500D02*
X1247130Y249630D01*
X881000Y192116D02*
Y193000D01*
X1200500Y181000D02*
X1210000Y171500D01*
X1200500Y181000D02*
Y188700D01*
X876384Y187500D02*
X881000Y192116D01*
X875500Y187500D02*
X876384D01*
X390700Y164600D02*
X398500D01*
X390500D02*
X390600Y164500D01*
X1472500Y395000D02*
Y404859D01*
X884100Y191539D02*
Y194284D01*
X882284Y196100D02*
X884100Y194284D01*
X879009Y196100D02*
X882284D01*
X878000Y195091D02*
X879009Y196100D01*
X875561Y183000D02*
X884100Y191539D01*
X875500Y183000D02*
X875561D01*
X818500Y126000D02*
X875500Y183000D01*
X794000Y126000D02*
X818500D01*
X794000Y107000D02*
Y126000D01*
X985088Y341288D02*
X989177Y337200D01*
X981000D02*
X985088Y341288D01*
Y353287D01*
X987301Y355500D01*
X964988D02*
Y367653D01*
X969494Y355500D02*
X971688Y357694D01*
X964988Y355500D02*
X969494D01*
X985088Y357713D02*
X987301Y355500D01*
X991788D02*
Y367653D01*
X985088Y357713D02*
Y367653D01*
X987301Y355500D02*
X991788D01*
X978388Y358653D02*
Y367653D01*
X890002Y358653D02*
Y367653D01*
X374600Y274565D02*
Y283565D01*
X330100Y274565D02*
Y283565D01*
X278041Y274041D02*
Y284000D01*
X275847Y271847D02*
X278041Y274041D01*
X271341Y271847D02*
X275847D01*
X271341D02*
Y284000D01*
X291441Y274059D02*
Y284000D01*
Y274059D02*
X293653Y271847D01*
X298141D01*
Y284000D01*
X284741Y275000D02*
Y284000D01*
X301500Y164000D02*
Y177000D01*
X1565807Y456193D02*
X1575653D01*
X1545100Y476900D02*
X1565807Y456193D01*
X1523216Y476900D02*
X1545100D01*
X1522416Y477700D02*
X1523216Y476900D01*
X1476467Y477700D02*
X1522416D01*
X1079600Y445600D02*
X1444367D01*
X1476467Y477700D01*
X1075000Y441000D02*
X1079600Y445600D01*
X989177Y337200D02*
X1004500D01*
X1075000Y407700D01*
Y421000D01*
X611900Y152400D02*
X615000Y155500D01*
X600753Y152400D02*
X611900D01*
X581153Y172000D02*
X600753Y152400D01*
X567000Y172000D02*
X581153D01*
X566983Y172017D02*
X567000Y172000D01*
X566983Y172017D02*
Y185000D01*
X546983Y172017D02*
X547000Y172000D01*
X546983Y172017D02*
Y185000D01*
X869500Y183500D02*
Y184000D01*
X865000Y179000D02*
X869500Y183500D01*
X875116Y191500D02*
X876000D01*
X869500Y185884D02*
X875116Y191500D01*
X869500Y184000D02*
Y185884D01*
X888000Y194000D02*
Y194061D01*
X883361Y198700D02*
X888000Y194061D01*
X876816Y198700D02*
X883361D01*
X874900Y196784D02*
X876816Y198700D01*
X874900Y192600D02*
Y196784D01*
Y192600D02*
X876000Y191500D01*
X1190000Y184000D02*
X1196000Y190000D01*
X1190000Y171500D02*
Y184000D01*
X446500Y196499D02*
X451500Y201499D01*
X446500Y179000D02*
Y196499D01*
Y179000D02*
X451500Y174000D01*
X461500Y164000D02*
Y191499D01*
X862500Y343500D02*
X868800Y337200D01*
X981000D01*
X1342500Y345000D02*
X1351500Y336000D01*
Y141124D02*
X1362600Y130024D01*
X1351500Y141124D02*
Y336000D01*
X1583500Y343500D02*
Y351000D01*
X1596000Y193000D02*
X1614500D01*
X1377000Y345000D02*
X1386500D01*
X1367800Y335800D02*
X1377000Y345000D01*
X1367800Y187338D02*
Y335800D01*
X1365200Y184738D02*
X1367800Y187338D01*
X1468970Y217307D02*
X1469163Y217500D01*
Y225500D01*
X1382500Y177116D02*
X1385400Y174216D01*
X1382500Y177116D02*
Y198000D01*
X1457500Y222000D02*
X1464500D01*
X1386500Y198000D02*
X1390600Y193900D01*
X1392500Y207100D02*
Y241000D01*
X1386500Y247000D02*
X1392500Y241000D01*
X1386500Y201100D02*
X1392500Y207100D01*
X1381216Y201100D02*
X1386500D01*
X1379400Y199284D02*
X1381216Y201100D01*
X1379900Y176039D02*
X1382800Y173139D01*
X1379400Y196716D02*
X1379900Y196216D01*
X1379400Y196716D02*
Y199284D01*
X1379900Y176039D02*
Y196216D01*
X1469163Y340063D02*
X1469200Y340100D01*
X1469163Y332500D02*
Y340063D01*
X1468970Y332307D02*
X1469000Y332337D01*
X1386500Y222400D02*
X1389900Y219000D01*
X1386216Y222400D02*
X1386500D01*
X1385423Y203700D02*
X1389900Y208177D01*
Y219000D01*
X1379500Y229116D02*
X1386216Y222400D01*
X1379500Y229116D02*
Y247000D01*
X1380139Y203700D02*
X1385423D01*
X1375000Y135700D02*
X1380200Y130500D01*
X1376800Y200361D02*
X1380139Y203700D01*
X1376800Y195639D02*
X1377300Y195139D01*
X1376800Y195639D02*
Y200361D01*
X1375000Y173739D02*
X1377300Y176039D01*
Y195139D01*
X1375000Y135700D02*
Y173739D01*
X1388000Y255777D02*
Y261750D01*
X1384923Y252700D02*
X1388000Y255777D01*
X1383400Y302900D02*
X1383500Y303000D01*
X1383400Y266350D02*
X1388000Y261750D01*
X1383400Y266350D02*
Y302900D01*
X1377139Y252700D02*
X1384923D01*
X1373800Y249361D02*
X1377139Y252700D01*
X1373800Y244639D02*
Y249361D01*
Y244639D02*
X1374300Y244139D01*
X1370400Y231584D02*
X1374300Y235484D01*
Y244139D01*
X1371600Y187461D02*
Y201500D01*
X1370400Y202700D02*
X1371600Y201500D01*
X1370400Y202700D02*
Y231584D01*
X1367800Y183661D02*
X1371600Y187461D01*
X1614000Y294500D02*
X1614500Y294000D01*
X1510500Y294500D02*
X1614000D01*
X1481016Y293000D02*
X1482516Y294500D01*
X1460500Y293000D02*
X1481016D01*
X1440000Y64500D02*
X1457500Y47000D01*
X1481457D01*
X1487516Y53059D01*
X1386500Y296000D02*
X1390600Y291900D01*
Y254700D02*
Y291900D01*
X1386000Y250100D02*
X1390600Y254700D01*
X1378216Y250100D02*
X1386000D01*
X1376400Y248284D02*
X1378216Y250100D01*
X1376400Y245716D02*
X1376900Y245216D01*
X1376400Y245716D02*
Y248284D01*
X1376900Y224400D02*
Y245216D01*
X1374200Y221700D02*
X1376900Y224400D01*
X1374200Y194562D02*
X1374700Y194062D01*
X1374200Y194562D02*
Y221700D01*
X1374700Y186884D02*
Y194062D01*
X1370400Y182584D02*
X1374700Y186884D01*
X1372400Y129900D02*
Y138500D01*
X1370400Y140500D02*
X1372400Y138500D01*
X1370400Y140500D02*
Y182584D01*
X1371500Y129000D02*
X1372400Y129900D01*
X1371500Y125610D02*
Y129000D01*
X194553Y123500D02*
X197554Y126500D01*
X176000Y123500D02*
X194553D01*
X133054Y125554D02*
Y126500D01*
X131000Y123500D02*
X133054Y125554D01*
X120571Y123500D02*
X131000D01*
X117571Y126500D02*
X120571Y123500D01*
X52500Y130289D02*
X72000D01*
D17*
X526372Y169358D02*
Y175425D01*
X508656Y170142D02*
Y175425D01*
Y153575D02*
Y158858D01*
X280349Y153575D02*
Y158858D01*
X166195Y153575D02*
Y158858D01*
X52042Y153575D02*
Y158858D01*
X922000Y342500D02*
X932051Y352551D01*
Y364094D01*
X1636000Y403500D02*
Y424000D01*
X539307Y486307D02*
X541500Y488500D01*
X535685Y486307D02*
X539307D01*
X392361Y161000D02*
X394695Y158665D01*
Y153575D02*
Y158665D01*
X386900Y161000D02*
X390500Y164600D01*
X278207Y161000D02*
X280349Y158858D01*
X272593Y161000D02*
X278207D01*
X386900D02*
X392361D01*
X272593Y156093D02*
Y161000D01*
X164053D02*
X166195Y158858D01*
X272500Y156000D02*
X272593Y156093D01*
X158286Y155714D02*
Y161000D01*
X49900D02*
X52042Y158858D01*
X158400Y161000D02*
X164053D01*
X44479Y156021D02*
Y161000D01*
X49900D01*
X44479Y156021D02*
X44500Y156000D01*
X158286Y155714D02*
X158500Y155500D01*
X924658Y386500D02*
X926311Y388154D01*
X924658Y377153D02*
Y386500D01*
X924571Y377067D02*
X924658Y377153D01*
X924571Y369213D02*
Y377067D01*
X640526Y169358D02*
Y175425D01*
X622809Y170142D02*
Y175425D01*
X615000Y174000D02*
X615014Y173986D01*
X622809Y170142D02*
X624951Y168000D01*
X620668D02*
X622809Y170142D01*
X639168Y168000D02*
X640526Y169358D01*
X624951Y168000D02*
X639168D01*
X615014D02*
Y173986D01*
Y168000D02*
X620668D01*
X525014D02*
X526372Y169358D01*
X1251000Y129847D02*
Y135000D01*
X1208500Y129347D02*
Y134500D01*
X1208000Y135000D02*
X1208500Y134500D01*
X1261559Y127287D02*
X1266500D01*
X1260000Y128847D02*
X1261559Y127287D01*
X1208500Y129347D02*
X1215500D01*
X1151500Y130347D02*
X1159102D01*
X1144000D02*
X1151500D01*
X1159102D02*
X1159425Y130024D01*
X1251000Y129847D02*
X1252000Y128847D01*
X1260000D01*
X1215500Y129347D02*
X1217559Y127287D01*
X1222000D01*
X1139153Y130347D02*
X1144000D01*
X1139000Y130500D02*
X1139153Y130347D01*
X500500Y173500D02*
X500707Y173293D01*
X412412Y169551D02*
Y175425D01*
X394695Y169949D02*
Y175425D01*
X298105Y169398D02*
Y175425D01*
X506514Y168000D02*
X508656Y170142D01*
X510798Y168000D01*
X525014D01*
X500861D02*
X506514D01*
X500707D02*
Y173293D01*
X394695Y169949D02*
X396644Y168000D01*
X410861D02*
X412412Y169551D01*
X396644Y168000D02*
X410861D01*
X389900Y171000D02*
X391500D01*
X392746Y168000D02*
X394695Y169949D01*
X386900Y168000D02*
X392746D01*
X386900D02*
X389900Y171000D01*
X280388Y170102D02*
X282490Y168000D01*
X296707D02*
X298105Y169398D01*
X282490Y168000D02*
X296707D01*
X280388Y170102D02*
Y175425D01*
X272500Y173000D02*
X272593Y172907D01*
X183798Y169244D02*
Y175425D01*
X166081Y170256D02*
Y175425D01*
X272593Y168000D02*
Y172907D01*
X278286Y168000D02*
X280388Y170102D01*
X272593Y168000D02*
X278286D01*
X182554D02*
X183798Y169244D01*
X166081Y170256D02*
X168337Y168000D01*
X182554D01*
X164053D02*
Y168228D01*
X69991Y169591D02*
Y175425D01*
X164053Y168228D02*
X166081Y170256D01*
X68400Y168000D02*
X69991Y169591D01*
X54184Y168000D02*
X68400D01*
X52274Y169909D02*
Y175425D01*
X44479Y173479D02*
X44500Y173500D01*
X52274Y169909D02*
X54184Y168000D01*
X50365D02*
X52274Y169909D01*
X158286Y168000D02*
X161286Y165000D01*
X44479Y168000D02*
Y173479D01*
Y168000D02*
X50365D01*
X158400D02*
X164053D01*
X161286Y165000D02*
X162605D01*
X930311Y388154D02*
X931965Y386500D01*
Y377153D02*
X932051Y377067D01*
Y369213D02*
Y377067D01*
X929870Y369213D02*
X932051D01*
X931965Y377153D02*
Y386500D01*
X927311Y366653D02*
X929870Y369213D01*
X924571Y366653D02*
X927311D01*
X903402Y367653D02*
X912000D01*
X915559Y364094D01*
X924571D01*
X917965Y372342D02*
X918000Y372307D01*
X917965Y372342D02*
Y377153D01*
X752004Y71500D02*
Y86193D01*
X752000Y86197D02*
X752004Y86193D01*
X757000Y46000D02*
X759500Y48500D01*
Y70000D01*
X758000Y71500D02*
X759500Y70000D01*
X752004Y71500D02*
X758000D01*
X767500Y61500D02*
Y71500D01*
X183798Y159298D02*
X185500Y161000D01*
X183798Y153575D02*
Y159298D01*
X1160500Y100425D02*
Y102500D01*
X1160000Y136500D02*
X1161984Y134516D01*
Y130024D02*
Y134516D01*
X1208500Y109153D02*
X1215500D01*
X1205153D02*
X1208500D01*
X537514Y110756D02*
Y117205D01*
X532514Y110449D02*
Y117205D01*
Y110449D02*
X534861Y108102D01*
Y101102D02*
Y108102D01*
X473014Y110653D02*
Y117051D01*
X423361Y110756D02*
Y117205D01*
X468014Y110346D02*
Y117051D01*
Y110346D02*
X470361Y108000D01*
X420707Y108102D02*
X423361Y110756D01*
X418361Y110449D02*
Y117205D01*
X358861Y110653D02*
Y117051D01*
X420707Y101102D02*
Y108102D01*
X356207Y101000D02*
Y108000D01*
X470361Y101000D02*
Y108000D01*
X309207Y110756D02*
Y117205D01*
X353861Y110346D02*
Y117051D01*
X356207Y108000D02*
X358861Y110653D01*
X304207Y110449D02*
Y117205D01*
X306554Y108102D02*
X309207Y110756D01*
X195054D02*
Y117205D01*
X239707Y110346D02*
Y117051D01*
X244707Y110653D02*
Y117051D01*
X242054Y108000D02*
X244707Y110653D01*
X306554Y101102D02*
Y108102D01*
X190053Y110449D02*
X192400Y108102D01*
X242054Y101000D02*
Y108000D01*
X192400Y101102D02*
Y108102D01*
X190053Y110449D02*
Y117205D01*
X13863Y108116D02*
X16632Y110886D01*
X13747Y108000D02*
X13863Y108116D01*
X13747Y101000D02*
Y108000D01*
X13979Y88500D02*
Y94000D01*
X689000Y360815D02*
X691083D01*
X716463Y335435D01*
X509400Y493347D02*
X509794Y493740D01*
X1679500Y146500D02*
X1683500Y142500D01*
X1677500Y146500D02*
X1678500D01*
X1679500D01*
X1673500Y142500D02*
X1677500Y146500D01*
X1619500D02*
X1620500D01*
X1614500Y142500D02*
X1618500Y146500D01*
X1619500D01*
X1683500Y137102D02*
Y142500D01*
X1673500Y137102D02*
Y142500D01*
X1620500Y146500D02*
X1624500Y142500D01*
Y137102D02*
Y142500D01*
X1614500Y137102D02*
Y142500D01*
X1679500Y247500D02*
X1683500Y243500D01*
X1677500Y247500D02*
X1678500D01*
X1679500D01*
X1673500Y243500D02*
X1677500Y247500D01*
X1620500D02*
X1624500Y243500D01*
X1614500D02*
X1618500Y247500D01*
X1619500D02*
X1620500D01*
X1618500D02*
X1619500D01*
X1673500Y238102D02*
Y243500D01*
X1683500Y238102D02*
Y243500D01*
X1624500Y238102D02*
Y243500D01*
X1614500Y238102D02*
Y243500D01*
X1556163Y320500D02*
X1559970D01*
X1555163Y319500D02*
X1556163Y320500D01*
X1555163Y317000D02*
Y319500D01*
X1556163Y263000D02*
X1559970D01*
X1465163Y320500D02*
X1468970D01*
X1464163Y319500D02*
X1465163Y320500D01*
Y263000D02*
X1468970D01*
X1464163Y317000D02*
Y319500D01*
X1555163Y262000D02*
X1556163Y263000D01*
X1555163Y259500D02*
Y262000D01*
X1464163D02*
X1465163Y263000D01*
X1464163Y259500D02*
Y262000D01*
X1556163Y205500D02*
X1559970D01*
X1555163Y204500D02*
X1556163Y205500D01*
X1555163Y202000D02*
Y204500D01*
X1556163Y148000D02*
X1559970D01*
X1465163Y205500D02*
X1468970D01*
X1464163Y204500D02*
X1465163Y205500D01*
Y148000D02*
X1468970D01*
X1464163Y202000D02*
Y204500D01*
X1555163Y147000D02*
X1556163Y148000D01*
X1555163Y144500D02*
Y147000D01*
X1464163D02*
X1465163Y148000D01*
X1464163Y144500D02*
Y147000D01*
X1659976Y196500D02*
X1668653D01*
X1672153Y193000D01*
X1659925Y196551D02*
X1659976Y196500D01*
X1678500Y127847D02*
Y137102D01*
X1683347Y127847D02*
X1683500Y128000D01*
X1672153Y193000D02*
X1684000D01*
X1678500Y127847D02*
X1683347D01*
X1619500Y127347D02*
Y137102D01*
X1614500Y127500D02*
X1614654Y127347D01*
X1619500D01*
X1638024Y196500D02*
X1638075Y196551D01*
X1629346Y193846D02*
Y196500D01*
X1638024D01*
X1628500Y193000D02*
X1629346Y193846D01*
X1614500Y193000D02*
X1628500D01*
X1614153Y165154D02*
X1619500D01*
X1678500Y165000D02*
X1684000D01*
X1678500Y156000D02*
Y165000D01*
X1614000D02*
X1614153Y165154D01*
X1619500Y156000D02*
Y165154D01*
X1559970Y217307D02*
X1560163Y217500D01*
X1559970Y212500D02*
Y217307D01*
X1555663Y212500D02*
X1559970D01*
X1554663Y211500D02*
X1555663Y212500D01*
X1554663Y207000D02*
Y211500D01*
X1553698Y206035D02*
X1554663Y207000D01*
X1549242Y206035D02*
X1553698D01*
X1468970Y212500D02*
Y217307D01*
Y159807D02*
X1469163Y160000D01*
X1464663Y212500D02*
X1468970D01*
X1463663Y211500D02*
X1464663Y212500D01*
X1463663Y207000D02*
Y211500D01*
X1559970Y159807D02*
X1560163Y160000D01*
X1559970Y155000D02*
Y159807D01*
X1555663Y155000D02*
X1559970D01*
X1554663Y154000D02*
X1555663Y155000D01*
X1553698Y148535D02*
X1554663Y149500D01*
Y154000D01*
X1549242Y148535D02*
X1553698D01*
X1468970Y155000D02*
Y159807D01*
X1464663Y155000D02*
X1468970D01*
X1463663Y154000D02*
X1464663Y155000D01*
X1462698Y148535D02*
X1463663Y149500D01*
Y154000D01*
X1462698Y206035D02*
X1463663Y207000D01*
X1458242Y206035D02*
X1462698D01*
X1458242Y148535D02*
X1462698D01*
X1520663Y212500D02*
X1521663Y211500D01*
X1515663Y212500D02*
X1520663D01*
X1522628Y206035D02*
X1527392D01*
X1521663Y207000D02*
Y211500D01*
Y207000D02*
X1522628Y206035D01*
X1515663Y212500D02*
Y217000D01*
X1431628Y206035D02*
X1436392D01*
X1430663Y207000D02*
Y211500D01*
X1429663Y212500D02*
X1430663Y211500D01*
Y207000D02*
X1431628Y206035D01*
X1521663Y149500D02*
Y154000D01*
X1520663Y155000D02*
X1521663Y154000D01*
Y149500D02*
X1522628Y148535D01*
X1515663Y155000D02*
X1520663D01*
X1515663D02*
Y159500D01*
X1522628Y148535D02*
X1527392D01*
X1430663Y149500D02*
X1431628Y148535D01*
X1430663Y149500D02*
Y154000D01*
X1424663Y155000D02*
X1429663D01*
X1430663Y154000D01*
X1431628Y148535D02*
X1436392D01*
X1424663Y212500D02*
Y217000D01*
Y212500D02*
X1429663D01*
X1424663Y155000D02*
Y159500D01*
X1520663Y327500D02*
X1521663Y326500D01*
X1515663Y327500D02*
X1520663D01*
X1522628Y321035D02*
X1527392D01*
X1521663Y322000D02*
X1522628Y321035D01*
X1521663Y322000D02*
Y326500D01*
X1515663Y270000D02*
X1520663D01*
X1515663Y327500D02*
Y332000D01*
X1429663Y327500D02*
X1430663Y326500D01*
X1424663Y327500D02*
Y332000D01*
Y327500D02*
X1429663D01*
X1431628Y321035D02*
X1436392D01*
X1515663Y270000D02*
Y274500D01*
X1430663Y322000D02*
X1431628Y321035D01*
X1430663Y322000D02*
Y326500D01*
X1424663Y270000D02*
Y274500D01*
X1520663Y270000D02*
X1521663Y269000D01*
Y264500D02*
Y269000D01*
X1429663Y270000D02*
X1430663Y269000D01*
X1424663Y270000D02*
X1429663D01*
X1430663Y264500D02*
Y269000D01*
X1522628Y263535D02*
X1527392D01*
X1521663Y264500D02*
X1522628Y263535D01*
X1430663Y264500D02*
X1431628Y263535D01*
X1436392D01*
X1559970Y332307D02*
X1560163Y332500D01*
X1559970Y327500D02*
Y332307D01*
X1555663Y327500D02*
X1559970D01*
X1554663Y326500D02*
X1555663Y327500D01*
X1559970Y274807D02*
X1560163Y275000D01*
X1554663Y322000D02*
Y326500D01*
X1553698Y321035D02*
X1554663Y322000D01*
X1549242Y321035D02*
X1553698D01*
X1468970Y327500D02*
Y332307D01*
X1464663Y327500D02*
X1468970D01*
X1463663Y326500D02*
X1464663Y327500D01*
X1468970Y274807D02*
X1469163Y275000D01*
X1463663Y322000D02*
Y326500D01*
X1462698Y321035D02*
X1463663Y322000D01*
X1458242Y321035D02*
X1462698D01*
X1559970Y270000D02*
Y274807D01*
X1555663Y270000D02*
X1559970D01*
X1554663Y269000D02*
X1555663Y270000D01*
X1468970D02*
Y274807D01*
X1554663Y264500D02*
Y269000D01*
X1464663Y270000D02*
X1468970D01*
X1463663Y269000D02*
X1464663Y270000D01*
X1463663Y264500D02*
Y269000D01*
X1553698Y263535D02*
X1554663Y264500D01*
X1549242Y263535D02*
X1553698D01*
X1462698D02*
X1463663Y264500D01*
X1458242Y263535D02*
X1462698D01*
X1668653Y297500D02*
X1672153Y294000D01*
X1683347Y228847D02*
X1683500Y229000D01*
X1672153Y294000D02*
X1684000D01*
X1678500Y228847D02*
Y238102D01*
X1659976Y297500D02*
X1668653D01*
X1659925Y297551D02*
X1659976Y297500D01*
X1619500Y228346D02*
Y238102D01*
X1678500Y228847D02*
X1683347D01*
X1614654Y228346D02*
X1619500D01*
X1614500Y228500D02*
X1614654Y228346D01*
X1638024Y297500D02*
X1638075Y297551D01*
X1629346Y294847D02*
Y297500D01*
X1638024D01*
X1628500Y294000D02*
X1629346Y294847D01*
X1614500Y294000D02*
X1628500D01*
X1614153Y266154D02*
X1619500D01*
X1678500Y266000D02*
X1684000D01*
X1678500Y257000D02*
Y266000D01*
X1619500Y257000D02*
Y266154D01*
X1614000Y266000D02*
X1614153Y266154D01*
X915500Y96051D02*
X920714D01*
X785000Y306000D02*
X922000D01*
X782565Y303565D02*
X785000Y306000D01*
X782565Y300500D02*
Y303565D01*
Y300500D02*
X785264Y297802D01*
Y283154D02*
Y297802D01*
X767000Y264000D02*
X782000Y279000D01*
Y286500D01*
X562514Y117205D02*
Y124500D01*
X547514Y126500D02*
Y136102D01*
X493014Y126500D02*
Y135949D01*
X483014Y126500D02*
Y135949D01*
X443361Y126500D02*
Y136102D01*
X433361Y126500D02*
Y136102D01*
X423361Y129000D02*
Y136102D01*
X383861Y117051D02*
Y124500D01*
X368861Y126500D02*
Y135949D01*
X358861Y129000D02*
Y135949D01*
X329207Y126500D02*
Y136102D01*
X319207Y126500D02*
Y136102D01*
X269707Y117051D02*
Y124500D01*
X264707Y126500D02*
Y135949D01*
X254707Y126500D02*
Y135949D01*
X220054Y117205D02*
Y124500D01*
X205053Y126500D02*
Y136102D01*
X155553Y117051D02*
Y124500D01*
X150554Y126500D02*
Y135949D01*
X140553Y126500D02*
Y135949D01*
X100900Y126500D02*
Y136102D01*
X90900Y126500D02*
Y136102D01*
X80900Y129000D02*
Y136102D01*
X713863Y333137D02*
Y334358D01*
X690831Y357390D02*
X713863Y334358D01*
X716409Y330591D02*
X716463Y330646D01*
Y335435D01*
X1085300Y248168D02*
Y288882D01*
Y248168D02*
X1184868Y148600D01*
X1069591Y304591D02*
X1085300Y288882D01*
X1213760Y150700D02*
X1255800D01*
X1211660Y148600D02*
X1213760Y150700D01*
X1255800D02*
X1260000Y146500D01*
X1184868Y148600D02*
X1211660D01*
X1072137Y307137D02*
X1086900Y292373D01*
X1213098Y152300D02*
X1263200D01*
X1086900Y248831D02*
Y292373D01*
X1280500Y120000D02*
Y135000D01*
X1263200Y152300D02*
X1280500Y135000D01*
X1274177Y113677D02*
X1280500Y120000D01*
X1210998Y150200D02*
X1213098Y152300D01*
X1086900Y248831D02*
X1185530Y150200D01*
X1274177Y110711D02*
Y113677D01*
X1185530Y150200D02*
X1210998D01*
X1235400Y149100D02*
X1238000Y146500D01*
Y122500D02*
Y135000D01*
X1229677Y114177D02*
X1238000Y122500D01*
X1229677Y110711D02*
Y114177D01*
X1212323Y147000D02*
X1214423Y149100D01*
X1235400D01*
X1184205Y147000D02*
X1212323D01*
X1214400Y145400D02*
X1215500Y146500D01*
X1183542Y145400D02*
X1214400D01*
X1067046Y302046D02*
X1083700Y285391D01*
Y247505D02*
Y285391D01*
X1064500Y299500D02*
X1082100Y281900D01*
X1083700Y247505D02*
X1184205Y147000D01*
X1082100Y246842D02*
Y281900D01*
Y246842D02*
X1183542Y145400D01*
X948730Y413000D02*
Y428000D01*
X941530Y413000D02*
Y428000D01*
X945130Y413000D02*
Y428000D01*
X827800Y357861D02*
Y441000D01*
X829583Y442783D01*
Y443237D01*
X821400Y355210D02*
Y432837D01*
X811000Y443237D02*
X821400Y432837D01*
X823000Y355873D02*
Y435172D01*
X816535Y441637D02*
X823000Y435172D01*
X816535Y441637D02*
Y443237D01*
X824600Y356535D02*
Y438772D01*
X820135Y443237D02*
X824600Y438772D01*
X839000Y362500D02*
Y421968D01*
X857669Y440637D01*
X864554D01*
X867153Y443237D01*
X837400Y361837D02*
Y422631D01*
X857930Y443160D01*
Y443237D01*
X835800Y361175D02*
Y424708D01*
X854330Y443237D01*
X834200Y360512D02*
Y428879D01*
X848481Y443160D01*
Y443237D01*
X832600Y430956D02*
X844881Y443237D01*
X831000Y435000D02*
X839032Y443032D01*
Y443237D01*
X829400Y437205D02*
X835432Y443237D01*
X825983D02*
X826200Y443021D01*
X1080500Y246180D02*
Y278790D01*
X1182880Y143800D02*
X1262116D01*
X1024190Y335100D02*
X1080500Y278790D01*
X1271618Y127287D02*
Y134298D01*
X1080500Y246180D02*
X1182880Y143800D01*
X1262116D02*
X1271618Y134298D01*
X839000Y362500D02*
X866400Y335100D01*
X1024190D01*
X1078900Y245517D02*
Y278127D01*
X1182217Y142200D02*
X1261453D01*
X865737Y333500D02*
X1023527D01*
X1078900Y278127D01*
X1269059Y127287D02*
Y134594D01*
X1078900Y245517D02*
X1182217Y142200D01*
X1261453D02*
X1269059Y134594D01*
X837400Y361837D02*
X865737Y333500D01*
X1077300Y244854D02*
Y277465D01*
X1181554Y140600D02*
X1220520D01*
X865075Y331900D02*
X1022865D01*
X1077300Y277465D01*
X1227118Y127287D02*
Y134002D01*
X1077300Y244854D02*
X1181554Y140600D01*
X1220520D02*
X1227118Y134002D01*
X835800Y361175D02*
X865075Y331900D01*
X1075700Y244191D02*
Y276802D01*
X1180891Y139000D02*
X1219857D01*
X864412Y330300D02*
X1022202D01*
X1075700Y276802D01*
X1224559Y127287D02*
Y134298D01*
X1075700Y244191D02*
X1180891Y139000D01*
X1219857D02*
X1224559Y134298D01*
X834200Y360512D02*
X864412Y330300D01*
X1021539Y328700D02*
X1074100Y276139D01*
Y243529D02*
Y276139D01*
X863749Y328700D02*
X1021539D01*
X1182457Y130024D02*
Y135172D01*
X1074100Y243529D02*
X1182457Y135172D01*
X832600Y359849D02*
Y430956D01*
Y359849D02*
X863749Y328700D01*
X1020876Y327100D02*
X1072500Y275476D01*
Y242866D02*
Y275476D01*
X863086Y327100D02*
X1020876D01*
X1179898Y130024D02*
Y135468D01*
X1072500Y242866D02*
X1179898Y135468D01*
X831000Y359186D02*
Y435000D01*
Y359186D02*
X863086Y327100D01*
X1016900Y317500D02*
X1062900Y271500D01*
Y238889D02*
Y271500D01*
X859110Y317500D02*
X1016900D01*
X1164543Y130024D02*
Y137246D01*
X1062900Y238889D02*
X1164543Y137246D01*
X821400Y355210D02*
X859110Y317500D01*
X1017563Y319100D02*
X1064500Y272163D01*
Y239552D02*
Y272163D01*
X859773Y319100D02*
X1017563D01*
X1167102Y130024D02*
Y136950D01*
X1064500Y239552D02*
X1167102Y136950D01*
X823000Y355873D02*
X859773Y319100D01*
X1018225Y320700D02*
X1066100Y272826D01*
Y240215D02*
Y272826D01*
X860435Y320700D02*
X1018225D01*
X1169661Y130024D02*
Y136653D01*
X1066100Y240215D02*
X1169661Y136653D01*
X824600Y356535D02*
X860435Y320700D01*
X1018888Y322300D02*
X1067700Y273488D01*
Y240878D02*
Y273488D01*
X861098Y322300D02*
X1018888D01*
X1172221Y130024D02*
Y136357D01*
X1067700Y240878D02*
X1172221Y136357D01*
X826200Y357198D02*
Y443021D01*
Y357198D02*
X861098Y322300D01*
X1019551Y323900D02*
X1069300Y274151D01*
Y241540D02*
Y274151D01*
X861761Y323900D02*
X1019551D01*
X1174780Y130024D02*
Y136061D01*
X1069300Y241540D02*
X1174780Y136061D01*
X827800Y357861D02*
X861761Y323900D01*
X1020214Y325500D02*
X1070900Y274814D01*
Y242203D02*
Y274814D01*
X862424Y325500D02*
X1020214D01*
X1177339Y130024D02*
Y135765D01*
X1070900Y242203D02*
X1177339Y135765D01*
X829400Y358524D02*
Y437205D01*
Y358524D02*
X862424Y325500D01*
X842961Y181000D02*
X907600Y245639D01*
Y266423D01*
X908600Y267423D01*
Y270211D01*
X907873Y270938D02*
X908600Y270211D01*
X907873Y270938D02*
Y301500D01*
X842298Y182600D02*
X906000Y246302D01*
Y268500D01*
X636589Y179826D02*
X639363Y182600D01*
X636589Y175425D02*
Y179826D01*
X638557Y179532D02*
X640026Y181000D01*
X638557Y175425D02*
Y179532D01*
X640026Y181000D02*
X842961D01*
X639363Y182600D02*
X842298D01*
X897000Y239564D02*
Y243000D01*
X895411Y237975D02*
X897000Y239564D01*
X892582Y237975D02*
X895411D01*
X838807Y184200D02*
X892582Y237975D01*
X892920Y240575D02*
X894334D01*
X838144Y185800D02*
X892920Y240575D01*
X837482Y187400D02*
X902024Y251943D01*
Y301275D01*
X898424Y250605D02*
Y301275D01*
X836819Y189000D02*
X898424Y250605D01*
X634620Y180120D02*
X638700Y184200D01*
X634620Y175425D02*
Y180120D01*
X632652Y180414D02*
X638038Y185800D01*
X632652Y175425D02*
Y180414D01*
X630683Y180708D02*
X637375Y187400D01*
X630683Y175425D02*
Y180708D01*
X628715Y175425D02*
Y181003D01*
X636712Y189000D01*
X638700Y184200D02*
X838807D01*
X638038Y185800D02*
X838144D01*
X637375Y187400D02*
X837482D01*
X636712Y189000D02*
X836819D01*
X884500Y238944D02*
Y242500D01*
X882971Y237415D02*
X884500Y238944D01*
X880143Y237415D02*
X882971D01*
X833328Y190600D02*
X880143Y237415D01*
X880480Y240015D02*
X881894D01*
X832665Y192200D02*
X880480Y240015D01*
X624778Y175425D02*
Y181591D01*
X635387Y192200D01*
X626746Y181297D02*
X636050Y190600D01*
X626746Y175425D02*
Y181297D01*
X636050Y190600D02*
X833328D01*
X635387Y192200D02*
X832665D01*
X832002Y193800D02*
X889426Y251223D01*
Y301500D01*
X831340Y195400D02*
X885826Y249886D01*
Y301500D01*
X522282Y175425D02*
Y179822D01*
X537860Y195400D01*
X524250Y175425D02*
Y179469D01*
X538581Y193800D01*
X832002D01*
X537860Y195400D02*
X831340D01*
X875000Y241323D02*
Y244500D01*
X873077Y239400D02*
X875000Y241323D01*
X870128Y239400D02*
X873077D01*
X827728Y197000D02*
X870128Y239400D01*
X870465Y242000D02*
X872000D01*
X827065Y198600D02*
X870465Y242000D01*
X537197Y197000D02*
X827728D01*
X536535Y198600D02*
X827065D01*
X826402Y200200D02*
X879977Y253775D01*
Y301275D01*
X825740Y201800D02*
X876377Y252437D01*
Y301275D01*
X535872Y200200D02*
X826402D01*
X535209Y201800D02*
X825740D01*
X865500Y243823D02*
Y247500D01*
X863506Y241829D02*
X865500Y243823D01*
X860671Y241829D02*
X863506D01*
X822243Y203400D02*
X860671Y241829D01*
X861080Y244500D02*
X862500D01*
X821580Y205000D02*
X861080Y244500D01*
X820917Y206600D02*
X870528Y256211D01*
Y301275D01*
X820254Y208200D02*
X866928Y254874D01*
Y301275D01*
X408475Y175425D02*
Y179737D01*
X436937Y208200D01*
X410443Y175425D02*
Y179443D01*
X437600Y206600D01*
X820917D01*
X436937Y208200D02*
X820254D01*
X853000Y243208D02*
Y246500D01*
X851339Y241547D02*
X853000Y243208D01*
X848510Y241547D02*
X851339D01*
X816763Y209800D02*
X848510Y241547D01*
X435612Y211400D02*
X816101D01*
X848848Y244147D02*
X850262D01*
X816101Y211400D02*
X848848Y244147D01*
X815438Y213000D02*
X857930Y255492D01*
Y301275D01*
X814775Y214600D02*
X854330Y254155D01*
Y301275D01*
X434949Y213000D02*
X815438D01*
X434286Y214600D02*
X814775D01*
X433624Y216200D02*
X771000D01*
X843500Y245588D02*
Y249000D01*
X841899Y243987D02*
X843500Y245588D01*
X839071Y243987D02*
X841899D01*
X811284Y216200D02*
X839071Y243987D01*
X771000Y216200D02*
X811284D01*
X839408Y246587D02*
X840822D01*
X810621Y217800D02*
X839408Y246587D01*
X809958Y219400D02*
X848481Y257923D01*
Y301500D01*
X809296Y221000D02*
X844881Y256585D01*
Y301500D01*
X432298Y219400D02*
X809958D01*
X431635Y221000D02*
X809296D01*
X834000Y247967D02*
Y251500D01*
X832459Y246426D02*
X834000Y247967D01*
X829631Y246426D02*
X832459D01*
X805805Y222600D02*
X829631Y246426D01*
X829968Y249026D02*
X831382D01*
X805142Y224200D02*
X829968Y249026D01*
X430973Y222600D02*
X805805D01*
X430310Y224200D02*
X805142D01*
X804479Y225800D02*
X839032Y260353D01*
Y301500D01*
X803816Y227400D02*
X835432Y259016D01*
Y301500D01*
X429647Y225800D02*
X804479D01*
X428984Y227400D02*
X803816D01*
X824500Y250346D02*
Y254000D01*
X823000Y248847D02*
X824500Y250346D01*
X820074Y248847D02*
X823000D01*
X800228Y229000D02*
X820074Y248847D01*
X820480Y251515D02*
X821894D01*
X799565Y230600D02*
X820480Y251515D01*
X428322Y229000D02*
X800228D01*
X427659Y230600D02*
X799565D01*
X798902Y232200D02*
X829583Y262881D01*
Y301500D01*
X798240Y233800D02*
X825984Y261544D01*
Y301500D01*
X234700Y232200D02*
X798902D01*
X234037Y233800D02*
X798240D01*
X815000Y257000D02*
X815100Y256900D01*
Y252923D02*
Y256900D01*
X813577Y251400D02*
X815100Y252923D01*
X810187Y251400D02*
X813577D01*
X794187Y235400D02*
X810187Y251400D01*
X810524Y254000D02*
X812500D01*
X793524Y237000D02*
X810524Y254000D01*
X233375Y235400D02*
X794187D01*
X232712Y237000D02*
X793524D01*
X792861Y238600D02*
X820135Y265873D01*
Y301500D01*
X792199Y240200D02*
X816535Y264536D01*
Y301500D01*
X232049Y238600D02*
X792861D01*
X231386Y240200D02*
X792199D01*
X801482Y254575D02*
X804311D01*
X788707Y241800D02*
X801482Y254575D01*
X806000Y256264D02*
Y259500D01*
X804311Y254575D02*
X806000Y256264D01*
X801820Y257175D02*
X803234D01*
X788045Y243400D02*
X801820Y257175D01*
X230724Y241800D02*
X788707D01*
X230061Y243400D02*
X788045D01*
X787382Y245000D02*
X810686Y268304D01*
Y301500D01*
X786719Y246600D02*
X807086Y266967D01*
Y301500D01*
X93000Y245000D02*
X787382D01*
X92337Y246600D02*
X786719D01*
X796000Y258143D02*
Y261500D01*
X793843Y255986D02*
X796000Y258143D01*
X791014Y255986D02*
X793843D01*
X783228Y248200D02*
X791014Y255986D01*
X791880Y259115D02*
X793294D01*
X782565Y249800D02*
X791880Y259115D01*
X91675Y248200D02*
X783228D01*
X91012Y249800D02*
X782565D01*
X779163Y254600D02*
X789213Y264650D01*
X789213D01*
X791563Y267000D01*
X781240Y253000D02*
X797637Y269397D01*
X90349Y251400D02*
X781903D01*
X801237Y270734D01*
Y301500D01*
X797637Y269397D02*
Y301500D01*
X89024Y254600D02*
X779163D01*
X88361Y256200D02*
X775200D01*
X791563Y272563D01*
Y301500D01*
X771765Y277027D02*
Y284339D01*
X761337Y266600D02*
X771765Y277027D01*
X759923Y266600D02*
X761337D01*
X758000Y264677D02*
X759923Y266600D01*
X758000Y261500D02*
Y264677D01*
X775365Y278365D02*
Y284339D01*
X761000Y264000D02*
X775365Y278365D01*
X778965Y278227D02*
Y284339D01*
X767337Y266600D02*
X778965Y278227D01*
X765923Y266600D02*
X767337D01*
X764000Y264677D02*
X765923Y266600D01*
X764000Y261500D02*
Y264677D01*
X923000Y80500D02*
Y80667D01*
X900000Y103667D02*
X923000Y80667D01*
X1117500Y126289D02*
X1131500Y140289D01*
X1117500Y106724D02*
Y126289D01*
X1109376Y98600D02*
X1117500Y106724D01*
X1046000Y98600D02*
X1109376D01*
X1030000Y82600D02*
X1046000Y98600D01*
X1030000Y50500D02*
Y82600D01*
X1025520Y46020D02*
X1030000Y50500D01*
X901500Y46020D02*
X1025520D01*
X803612Y474100D02*
X807311Y470401D01*
Y443237D02*
Y470401D01*
X794163Y483500D02*
X801012Y476651D01*
Y443462D02*
Y476651D01*
Y443462D02*
X801237Y443237D01*
X794163Y474100D02*
X797637Y470626D01*
Y443237D02*
Y470626D01*
X792013Y443500D02*
Y471169D01*
X780091Y483091D02*
X792013Y471169D01*
X788413Y443500D02*
Y469678D01*
X777546Y480546D02*
X788413Y469678D01*
X784813Y443500D02*
Y468187D01*
X775000Y478000D02*
X784813Y468187D01*
X664500Y414309D02*
X671024Y420832D01*
X675500Y404859D02*
X679859Y400500D01*
X690831D01*
X670500Y404859D02*
X673424Y407784D01*
X693000D01*
X664500Y404859D02*
X671024Y411384D01*
X693000D01*
X671024Y420832D02*
X693000D01*
X670500Y414308D02*
X673424Y417232D01*
X693000D01*
X664500Y423757D02*
X671024Y430281D01*
X693000D01*
X670500Y423757D02*
X673424Y426681D01*
X693000D01*
X664500Y433206D02*
X671024Y439730D01*
X693000D01*
X670500Y433000D02*
X673630Y436130D01*
X693000D01*
X671024Y449179D02*
X693000D01*
X664500Y442654D02*
X671024Y449179D01*
X670500Y442654D02*
X673424Y445579D01*
X693000D01*
X529000Y165000D02*
X536665D01*
X526219Y162219D02*
X529000Y165000D01*
X526219Y153575D02*
Y162219D01*
X422472Y160587D02*
X422500Y160558D01*
X414014Y160587D02*
X422472D01*
X412412Y158984D02*
X414014Y160587D01*
X412412Y153575D02*
Y158984D01*
X373500Y172500D02*
X375707D01*
X380207Y168000D01*
X89686Y253000D02*
X781240D01*
X151593Y161000D02*
Y168000D01*
X69991Y158991D02*
X74500Y163500D01*
X69991Y153575D02*
Y158991D01*
X773500Y461500D02*
X779000D01*
X770100Y458100D02*
X773500Y461500D01*
X770100Y431837D02*
Y458100D01*
Y431837D02*
X772100Y429837D01*
Y334512D02*
Y429837D01*
X771700Y455262D02*
X773215Y456777D01*
X771700Y432500D02*
Y455262D01*
Y432500D02*
X773700Y430500D01*
Y335174D02*
Y430500D01*
X775300Y335837D02*
Y435400D01*
X774300Y436400D02*
X775300Y435400D01*
X775500Y440000D02*
X776900Y438600D01*
Y336500D02*
Y438600D01*
X778500Y457035D02*
X778965Y457500D01*
X778500Y337163D02*
Y457035D01*
X945442Y200269D02*
X1045512Y100200D01*
X947042Y200932D02*
X1046175Y101800D01*
X948643Y201595D02*
X1046837Y103400D01*
X950243Y202257D02*
X1047500Y105000D01*
X951842Y202920D02*
X1001263Y153500D01*
X1107500Y115000D02*
Y138000D01*
X1103000Y142500D02*
X1107500Y138000D01*
X1102500Y110000D02*
X1107500Y115000D01*
X1099500Y142500D02*
X1103000D01*
X1098977Y141977D02*
X1099500Y142500D01*
X1098977Y139740D02*
Y141977D01*
X1092700Y100200D02*
X1102500Y110000D01*
X1045512Y100200D02*
X1092700D01*
X1098977Y132260D02*
X1099000Y132237D01*
Y124984D02*
Y132237D01*
X1097500Y123484D02*
X1099000Y124984D01*
X1097500Y115000D02*
Y123484D01*
X1092500Y110000D02*
X1097500Y115000D01*
X1084300Y101800D02*
X1092500Y110000D01*
X1046175Y101800D02*
X1084300D01*
X1093859Y130259D02*
Y132260D01*
X1087500Y123900D02*
X1093859Y130259D01*
X1087500Y115000D02*
Y123900D01*
X1082500Y110000D02*
X1087500Y115000D01*
X1075900Y103400D02*
X1082500Y110000D01*
X1046837Y103400D02*
X1075900D01*
X1093000Y143000D02*
X1093859Y142141D01*
X1091000Y143000D02*
X1093000D01*
X1093859Y139740D02*
Y142141D01*
X1085500Y131500D02*
Y137500D01*
X1091000Y143000D01*
X1077500Y123500D02*
X1085500Y131500D01*
X1077500Y115000D02*
Y123500D01*
X1072500Y110000D02*
X1077500Y115000D01*
X1067500Y105000D02*
X1072500Y110000D01*
X1047500Y105000D02*
X1067500D01*
X1118289Y153500D02*
X1131500Y140289D01*
X1001263Y153500D02*
X1118289D01*
X772100Y334512D02*
X797349Y309263D01*
X773700Y335174D02*
X798012Y310863D01*
X775300Y335837D02*
X798674Y312463D01*
X935874D01*
X776900Y336500D02*
X799337Y314063D01*
X778500Y337163D02*
X800000Y315663D01*
X937199D01*
X799337Y314063D02*
X936537D01*
X950243Y300357D01*
X935874Y312463D02*
X948643Y299694D01*
X798012Y310863D02*
X935211D01*
X797349Y309263D02*
X934548D01*
X937199Y315663D02*
X951842Y301020D01*
X950243Y202257D02*
Y300357D01*
X948643Y201595D02*
Y299694D01*
X935211Y310863D02*
X947042Y299031D01*
Y200932D02*
Y299031D01*
X934548Y309263D02*
X945442Y298369D01*
Y200269D02*
Y298369D01*
X951842Y202920D02*
Y301020D01*
X710536Y94036D02*
X710864D01*
X713100Y59303D02*
X743100Y29303D01*
X710536Y94036D02*
X713100Y91471D01*
Y59303D02*
Y91471D01*
X707000Y98000D02*
X710500D01*
X705500Y40903D02*
Y83000D01*
X701500Y87000D02*
Y92500D01*
X707000Y98000D01*
X701500Y87000D02*
X705500Y83000D01*
X683900Y19303D02*
X705500Y40903D01*
X716663Y386900D02*
X720500D01*
X715063Y385300D02*
X716663Y386900D01*
X711260Y385300D02*
X715063D01*
X710660Y385900D02*
X711260Y385300D01*
X683100Y385900D02*
X710660D01*
X714400Y386900D02*
X717000Y389500D01*
X711923Y386900D02*
X714400D01*
X711323Y387500D02*
X711923Y386900D01*
X685321Y387500D02*
X711323D01*
X687000Y389500D02*
X713000D01*
X675500Y401000D02*
X687000Y389500D01*
X675500Y397321D02*
X685321Y387500D01*
X675500Y393500D02*
X683100Y385900D01*
X756000Y141500D02*
X784500D01*
Y70341D02*
Y137500D01*
X772500Y35000D02*
X775059Y32441D01*
X784760D01*
X775059Y37559D02*
X784760D01*
X775046Y37546D02*
X775059Y37559D01*
X778000Y40500D02*
X785500D01*
X788441Y37559D01*
X792181Y37500D02*
X792240Y37559D01*
X788441D02*
X792240D01*
X54242Y222082D02*
X88361Y256200D01*
X54242Y175425D02*
Y222082D01*
X56211Y221788D02*
X89024Y254600D01*
X56211Y175425D02*
Y221788D01*
X58179Y221493D02*
X89686Y253000D01*
X58179Y175425D02*
Y221493D01*
X60148Y221199D02*
X90349Y251400D01*
X60148Y175425D02*
Y221199D01*
X62116Y220905D02*
X91012Y249800D01*
X62116Y175425D02*
Y220905D01*
X64085Y220610D02*
X91675Y248200D01*
X64085Y175425D02*
Y220610D01*
X66054Y220316D02*
X92337Y246600D01*
X66054Y175425D02*
Y220316D01*
X68022Y220022D02*
X93000Y245000D01*
X68022Y175425D02*
Y220022D01*
X168050Y181389D02*
X230061Y243400D01*
X168050Y175425D02*
Y181389D01*
X170018Y181095D02*
X230724Y241800D01*
X170018Y175425D02*
Y181095D01*
X171987Y180800D02*
X231386Y240200D01*
X171987Y175425D02*
Y180800D01*
X173955Y180506D02*
X232049Y238600D01*
X173955Y175425D02*
Y180506D01*
X175924Y180212D02*
X232712Y237000D01*
X175924Y175425D02*
Y180212D01*
X177892Y179918D02*
X233375Y235400D01*
X177892Y175425D02*
Y179918D01*
X179861Y179623D02*
X234037Y233800D01*
X179861Y175425D02*
Y179623D01*
X181829Y179329D02*
X234700Y232200D01*
X181829Y175425D02*
Y179329D01*
X388759Y191700D02*
X427659Y230600D01*
X292568Y191700D02*
X388759D01*
X282357Y181489D02*
X292568Y191700D01*
X282357Y175425D02*
Y181489D01*
X389422Y190100D02*
X428322Y229000D01*
X293231Y190100D02*
X389422D01*
X284325Y181195D02*
X293231Y190100D01*
X284325Y175425D02*
Y181195D01*
X390084Y188500D02*
X428984Y227400D01*
X293893Y188500D02*
X390084D01*
X286294Y180900D02*
X293893Y188500D01*
X286294Y175425D02*
Y180900D01*
X390747Y186900D02*
X429647Y225800D01*
X294556Y186900D02*
X390747D01*
X288262Y180606D02*
X294556Y186900D01*
X288262Y175425D02*
Y180606D01*
X391410Y185300D02*
X430310Y224200D01*
X295219Y185300D02*
X391410D01*
X290231Y180312D02*
X295219Y185300D01*
X290231Y175425D02*
Y180312D01*
X392073Y183700D02*
X430973Y222600D01*
X295882Y183700D02*
X392073D01*
X292199Y180018D02*
X295882Y183700D01*
X292199Y175425D02*
Y180018D01*
X392735Y182100D02*
X431635Y221000D01*
X296544Y182100D02*
X392735D01*
X294168Y179723D02*
X296544Y182100D01*
X294168Y175425D02*
Y179723D01*
X393398Y180500D02*
X432298Y219400D01*
X297207Y180500D02*
X393398D01*
X296136Y179429D02*
X297207Y180500D01*
X296136Y175425D02*
Y179429D01*
X520313Y180116D02*
X537197Y197000D01*
X520313Y175425D02*
Y180116D01*
X518345Y180410D02*
X536535Y198600D01*
X518345Y175425D02*
Y180410D01*
X516376Y180704D02*
X535872Y200200D01*
X516376Y175425D02*
Y180704D01*
X514408Y180999D02*
X535209Y201800D01*
X514408Y175425D02*
Y180999D01*
X512439Y181293D02*
X534546Y203400D01*
X512439Y175425D02*
Y181293D01*
X510471Y181587D02*
X533884Y205000D01*
X510471Y175425D02*
Y181587D01*
X406506Y180032D02*
X436274Y209800D01*
X406506Y175425D02*
Y180032D01*
X404538Y180326D02*
X435612Y211400D01*
X404538Y175425D02*
Y180326D01*
X402569Y180620D02*
X434949Y213000D01*
X402569Y175425D02*
Y180620D01*
X400601Y180914D02*
X434286Y214600D01*
X400601Y175425D02*
Y180914D01*
X398632Y181209D02*
X433624Y216200D01*
X398632Y175425D02*
Y181209D01*
X396664Y181503D02*
X432961Y217800D01*
X396664Y175425D02*
Y181503D01*
X534546Y203400D02*
X822243D01*
X533884Y205000D02*
X821580D01*
X436274Y209800D02*
X816763D01*
X432961Y217800D02*
X810621D01*
X380207Y161000D02*
Y168000D01*
X1274177Y122653D02*
Y127287D01*
X1229677Y122653D02*
Y127287D01*
X1096418Y144418D02*
X1096500Y144500D01*
X1096418Y139740D02*
Y144418D01*
X1665000Y388337D02*
Y421206D01*
X1661300Y376500D02*
Y384637D01*
X1665000Y388337D01*
Y421206D02*
X1672334Y428540D01*
Y450166D01*
X1664000Y458500D02*
X1672334Y450166D01*
X1663400Y421869D02*
X1670734Y429203D01*
Y445809D01*
X1664000Y452543D02*
X1670734Y445809D01*
X1664000Y426994D02*
Y434827D01*
X1660200Y423194D02*
X1664000Y426994D01*
X1660200Y390325D02*
Y423194D01*
X1650500Y380626D02*
X1660200Y390325D01*
X1650500Y376500D02*
Y380626D01*
X1654100Y381963D02*
X1661800Y389663D01*
X1654100Y376500D02*
Y381963D01*
X1661800Y389663D02*
Y422531D01*
X1669134Y429866D01*
X1657700Y376500D02*
Y383300D01*
X1663400Y389000D01*
Y421869D01*
X1669134Y429866D02*
Y435598D01*
X1664000Y440732D02*
X1669134Y435598D01*
X1664000Y452543D02*
X1664857D01*
X1654358Y418000D02*
Y425000D01*
X1646900Y410542D02*
X1654358Y418000D01*
X1646900Y376500D02*
Y410542D01*
X1648453Y425000D02*
X1648500Y424953D01*
Y418000D02*
Y424953D01*
X1643300Y412800D02*
X1648500Y418000D01*
X1643300Y376500D02*
Y412800D01*
X1643341Y475100D02*
X1652390Y466051D01*
X1631837Y475100D02*
X1643341D01*
X1626400Y469663D02*
X1631837Y475100D01*
X1626400Y399837D02*
Y469663D01*
Y399837D02*
X1636100Y390137D01*
Y376500D02*
Y390137D01*
X1639051Y473500D02*
X1646500Y466051D01*
X1632500Y473500D02*
X1639051D01*
X1628000Y469000D02*
X1632500Y473500D01*
X1628000Y400500D02*
Y469000D01*
Y400500D02*
X1639700Y388800D01*
Y376500D02*
Y388800D01*
X1644567Y191433D02*
X1646000Y190000D01*
X1644874Y188874D02*
X1646000Y190000D01*
X1638075Y188874D02*
X1644874D01*
X1638075Y191433D02*
X1644567D01*
X1644772Y204228D02*
X1646000Y203000D01*
X1644669Y201669D02*
X1646000Y203000D01*
X1638075Y204228D02*
X1644772D01*
X1638075Y201669D02*
X1644669D01*
X1653433Y191433D02*
X1659925D01*
X1653126Y188874D02*
X1659925D01*
X1652000Y190000D02*
X1653433Y191433D01*
X1652000Y190000D02*
X1653126Y188874D01*
X1653228Y204228D02*
X1659925D01*
X1653331Y201669D02*
X1659925D01*
X1652000Y203000D02*
X1653228Y204228D01*
X1652000Y203000D02*
X1653331Y201669D01*
X1653433Y292433D02*
X1659925D01*
X1652000Y291000D02*
X1653433Y292433D01*
X1653126Y289874D02*
X1659925D01*
X1652000Y291000D02*
X1653126Y289874D01*
X1653228Y305228D02*
X1659925D01*
X1653331Y302669D02*
X1659925D01*
X1652000Y304000D02*
X1653228Y305228D01*
X1652000Y304000D02*
X1653331Y302669D01*
X1644874Y289874D02*
X1646000Y291000D01*
X1638075Y292433D02*
X1644567D01*
X1646000Y291000D01*
X1638075Y289874D02*
X1644874D01*
X1644772Y305228D02*
X1646000Y304000D01*
X1644669Y302669D02*
X1646000Y304000D01*
X1638075Y305228D02*
X1644772D01*
X1638075Y302669D02*
X1644669D01*
X1436392Y328677D02*
X1442486D01*
X1436392Y326118D02*
X1442281D01*
X1436392Y271177D02*
X1442486D01*
X1436392Y268618D02*
X1442281D01*
X1482500Y348000D02*
X1487100Y352600D01*
X1442486Y328677D02*
X1443663Y327500D01*
X1442281Y326118D02*
X1443663Y327500D01*
X1433500Y348000D02*
X1482500D01*
X1428500Y343000D02*
X1433500Y348000D01*
X1431788Y328712D02*
X1436392D01*
X1428500Y332000D02*
Y343000D01*
Y332000D02*
X1431788Y328712D01*
X1483500Y290000D02*
X1488700Y295200D01*
X1442486Y271177D02*
X1443663Y270000D01*
X1442281Y268618D02*
X1443663Y270000D01*
X1434000Y290000D02*
X1483500D01*
X1429000Y285000D02*
X1434000Y290000D01*
X1432288Y271212D02*
X1436392D01*
X1429000Y274500D02*
Y285000D01*
Y274500D02*
X1432288Y271212D01*
X1492790Y475600D02*
X1501390Y467000D01*
X1477337Y475600D02*
X1492790D01*
X1467000Y465263D02*
X1477337Y475600D01*
X1488500Y474000D02*
X1495500Y467000D01*
X1478000Y474000D02*
X1488500D01*
X1468600Y464600D02*
X1478000Y474000D01*
X1468600Y425622D02*
Y464600D01*
Y425622D02*
X1488700Y405522D01*
Y295200D02*
Y405522D01*
X1467000Y424959D02*
Y465263D01*
Y424959D02*
X1487100Y404859D01*
Y352600D02*
Y404859D01*
X1498500Y414491D02*
Y424500D01*
X1490300Y406291D02*
X1498500Y414491D01*
X1490300Y238300D02*
Y406291D01*
X1504000Y417728D02*
Y424500D01*
X1491900Y405628D02*
X1504000Y417728D01*
X1491900Y185500D02*
Y405628D01*
X1512643Y424109D02*
Y434827D01*
X1493500Y404965D02*
X1512643Y424109D01*
X1493500Y185500D02*
Y404965D01*
X1514000Y440732D02*
X1520300Y434432D01*
Y429502D02*
Y434432D01*
X1495100Y404302D02*
X1520300Y429502D01*
X1495100Y241400D02*
Y404302D01*
X1513000Y453500D02*
X1521900Y444600D01*
Y428840D02*
Y444600D01*
X1496700Y403640D02*
X1521900Y428840D01*
X1496700Y297300D02*
Y403640D01*
X1513000Y459500D02*
X1513500D01*
X1523500Y449500D01*
Y428177D02*
Y449500D01*
X1498300Y402977D02*
X1523500Y428177D01*
X1498300Y353700D02*
Y402977D01*
X1527392Y328677D02*
X1533486D01*
X1527392Y326118D02*
X1533281D01*
X1527392Y271177D02*
X1533486D01*
X1527392Y268618D02*
X1533281D01*
X1527392Y213677D02*
X1533486D01*
X1527392Y211118D02*
X1533281D01*
X1527392Y156177D02*
X1533486D01*
X1527392Y153618D02*
X1533281D01*
X1436392Y213677D02*
X1442486D01*
X1436392Y211118D02*
X1442281D01*
X1436392Y153618D02*
X1442281D01*
X1436392Y156177D02*
X1442486D01*
X1533486Y328677D02*
X1534663Y327500D01*
X1533281Y326118D02*
X1534663Y327500D01*
X1498300Y353700D02*
X1523288Y328712D01*
X1527392D01*
X1533486Y271177D02*
X1534663Y270000D01*
X1533281Y268618D02*
X1534663Y270000D01*
X1496700Y297300D02*
X1522788Y271212D01*
X1527392D01*
X1533486Y213677D02*
X1534663Y212500D01*
X1533281Y211118D02*
X1534663Y212500D01*
X1495100Y241400D02*
X1522788Y213712D01*
X1527392D01*
X1533486Y156177D02*
X1534663Y155000D01*
X1533281Y153618D02*
X1534663Y155000D01*
X1493500Y185500D02*
X1522788Y156212D01*
X1527392D01*
X1484500Y232500D02*
X1490300Y238300D01*
X1442281Y211118D02*
X1443663Y212500D01*
X1442486Y213677D02*
X1443663Y212500D01*
X1428000Y229000D02*
X1431500Y232500D01*
X1484500D01*
X1428000Y217000D02*
Y229000D01*
Y217000D02*
X1431288Y213712D01*
X1436392D01*
X1481400Y175000D02*
X1491900Y185500D01*
X1442486Y156177D02*
X1443663Y155000D01*
X1442281Y153618D02*
X1443663Y155000D01*
X1428500Y171000D02*
X1432500Y175000D01*
X1481400D01*
X1428500Y159000D02*
Y171000D01*
Y159000D02*
X1431288Y156212D01*
X1436392D01*
X1451604Y318441D02*
X1458242D01*
X1436392D02*
X1443222D01*
X1451604Y260941D02*
X1458242D01*
X1436392D02*
X1443222D01*
X1451604Y145941D02*
X1458242D01*
X1436392D02*
X1443222D01*
X1443663Y145500D01*
X1451163D02*
X1451604Y145941D01*
Y203441D02*
X1458242D01*
X1436392D02*
X1443222D01*
X1451163Y260500D02*
X1451604Y260941D01*
X1443222D02*
X1443663Y260500D01*
X1451163Y318000D02*
X1451604Y318441D01*
X1443222D02*
X1443663Y318000D01*
X1443222Y203441D02*
X1443663Y203000D01*
X1451163D02*
X1451604Y203441D01*
X1527392Y260941D02*
X1534222D01*
X1542604D02*
X1549242D01*
X1527392Y318441D02*
X1534222D01*
X1542604D02*
X1549242D01*
X1534222D02*
X1534663Y318000D01*
X1542163D02*
X1542604Y318441D01*
Y203441D02*
X1549242D01*
X1527392D02*
X1534222D01*
X1542163Y203000D02*
X1542604Y203441D01*
X1534222D02*
X1534663Y203000D01*
X1542604Y145941D02*
X1549242D01*
X1527392D02*
X1534222D01*
X1542163Y145500D02*
X1542604Y145941D01*
X1534222D02*
X1534663Y145500D01*
X1604500Y247500D02*
Y257000D01*
X1614500Y247500D02*
Y257000D01*
X1424806Y255858D02*
X1436392D01*
X1549242D02*
X1559828D01*
X1515806D02*
X1527392D01*
X1424806Y313358D02*
X1436392D01*
X1424663Y306347D02*
X1431663D01*
X1424663Y299654D02*
X1431663D01*
X1424663Y248847D02*
X1431663D01*
X1424663Y242154D02*
X1431663D01*
X1424806Y198358D02*
X1436392D01*
X1424663Y184653D02*
X1431663D01*
X1424663Y191347D02*
X1431663D01*
X1424806Y140858D02*
X1436392D01*
X1424663Y133846D02*
X1431663D01*
X1424663Y127154D02*
X1431663D01*
X1452951Y328712D02*
X1458242D01*
X1451510Y326153D02*
X1458242D01*
X1451257Y323594D02*
X1458242D01*
X1549242Y313358D02*
X1559828D01*
X1515806D02*
X1527392D01*
X1453246Y315917D02*
X1458242D01*
X1552663Y306347D02*
X1559970D01*
X1515663D02*
X1522663D01*
X1552663Y299654D02*
X1559970D01*
X1515663D02*
X1522663D01*
X1450817D02*
X1461663D01*
X1452951Y271212D02*
X1458242D01*
X1451510Y268653D02*
X1458242D01*
X1451257Y266094D02*
X1458242D01*
X1453246Y258417D02*
X1458242D01*
X1552663Y248847D02*
X1559970D01*
X1515663D02*
X1522663D01*
X1552663Y242154D02*
X1559970D01*
X1515663D02*
X1522663D01*
X1450817D02*
X1461663D01*
X1452951Y213712D02*
X1458242D01*
X1451510Y211153D02*
X1458242D01*
X1451257Y208594D02*
X1458242D01*
X1453246Y200917D02*
X1458242D01*
X1549242Y198358D02*
X1559828D01*
X1515806D02*
X1527392D01*
X1552663Y184653D02*
X1559970D01*
X1552663Y191347D02*
X1559970D01*
X1515663Y184653D02*
X1522663D01*
X1515663Y191347D02*
X1522663D01*
X1450817Y184653D02*
X1461663D01*
X1452951Y156212D02*
X1458242D01*
X1451510Y153653D02*
X1458242D01*
X1451257Y151094D02*
X1458242D01*
X1453246Y143417D02*
X1458242D01*
X1549242Y140858D02*
X1559828D01*
X1515806D02*
X1527392D01*
X1552663Y133846D02*
X1559970D01*
X1515663D02*
X1522663D01*
X1450817Y127154D02*
X1461663D01*
X1552663D02*
X1559970D01*
X1515663D02*
X1522663D01*
X1541663Y158500D02*
Y164500D01*
Y184500D02*
Y198500D01*
Y127000D02*
Y141000D01*
X1450663Y343500D02*
X1455663D01*
X1428663Y320500D02*
X1430163Y319000D01*
X1443970Y273693D02*
X1446663Y271000D01*
X1451663Y215000D02*
X1453663Y217000D01*
X1443970Y216193D02*
X1446663Y213500D01*
X1451663Y157500D02*
X1453663Y159500D01*
X1454163D01*
X1453163Y143500D02*
X1453246Y143417D01*
X1444257Y151094D02*
X1446663Y153500D01*
X1458242Y255858D02*
X1468828D01*
X1541663Y331000D02*
Y337000D01*
X1540663Y328000D02*
X1542510Y326153D01*
X1541663Y343500D02*
X1546663D01*
X1541663Y299500D02*
Y313500D01*
Y273500D02*
Y279500D01*
Y242000D02*
Y256000D01*
X1544163Y258500D01*
X1532746Y258417D02*
X1534970Y256193D01*
X1541663Y216000D02*
X1542663Y215000D01*
X1541663Y216000D02*
Y222000D01*
Y198500D02*
X1544163Y201000D01*
X1532746Y200917D02*
X1534970Y198693D01*
X1541663Y141000D02*
X1544163Y143500D01*
X1451663Y330000D02*
X1453663Y332000D01*
X1454163D01*
X1443970Y331193D02*
X1446663Y328500D01*
X1444257Y323594D02*
X1446663Y326000D01*
X1436392Y323594D02*
X1444257D01*
X1430163Y317000D02*
Y319000D01*
X1453163Y316000D02*
X1453246Y315917D01*
X1436392D02*
X1441746D01*
X1431663Y299654D02*
X1443817D01*
X1450663Y286000D02*
X1455663D01*
X1451663Y272500D02*
X1453663Y274500D01*
X1454163D01*
X1444257Y266094D02*
X1446663Y268500D01*
X1436392Y266094D02*
X1444257D01*
X1430163Y259500D02*
Y261500D01*
X1428663Y263000D02*
X1430163Y261500D01*
X1453163Y258500D02*
X1453246Y258417D01*
X1436392D02*
X1441746D01*
X1431663Y242154D02*
X1443817D01*
X1450663Y228500D02*
X1455663D01*
X1453663Y217000D02*
X1454163D01*
X1444257Y208594D02*
X1446663Y211000D01*
X1436392Y208594D02*
X1444257D01*
X1430163Y202000D02*
Y204000D01*
X1428663Y205500D02*
X1430163Y204000D01*
X1453163Y201000D02*
X1453246Y200917D01*
X1436392D02*
X1441746D01*
X1431663Y184653D02*
X1443817D01*
X1450663Y171000D02*
X1455663D01*
X1443970Y158693D02*
X1446663Y156000D01*
X1430163Y144500D02*
Y146500D01*
X1428663Y148000D02*
X1430163Y146500D01*
X1436392Y151094D02*
X1444257D01*
X1436392Y143417D02*
X1441746D01*
X1431663Y127154D02*
X1443817D01*
X1458242Y313358D02*
X1468828D01*
X1461663Y306347D02*
X1468970D01*
X1461663Y299654D02*
X1468970D01*
X1461663Y248847D02*
X1468970D01*
X1461663Y242154D02*
X1468970D01*
X1458242Y198358D02*
X1468828D01*
X1461663Y184653D02*
X1468970D01*
X1461663Y191347D02*
X1468970D01*
X1458242Y140858D02*
X1468828D01*
X1461663Y133846D02*
X1468970D01*
X1461663Y127154D02*
X1468970D01*
X1515663Y320500D02*
X1519663D01*
X1515663Y263000D02*
X1519663D01*
X1515663Y205500D02*
X1519663D01*
X1515663Y148000D02*
X1519663D01*
X1543951Y328712D02*
X1549242D01*
X1541663Y331000D02*
X1542663Y330000D01*
X1542510Y326153D02*
X1549242D01*
X1542163Y323500D02*
X1542257Y323594D01*
X1549242D01*
X1527392D02*
X1535257D01*
X1544246Y315917D02*
X1549242D01*
X1541663Y313500D02*
X1544163Y316000D01*
X1532746Y315917D02*
X1534970Y313693D01*
X1541817Y299654D02*
X1552663D01*
X1541663Y299500D02*
X1541817Y299654D01*
X1522663D02*
X1534817D01*
X1541663Y286000D02*
X1546663D01*
X1541663Y273500D02*
X1542663Y272500D01*
X1543951Y271212D02*
X1549242D01*
X1542510Y268653D02*
X1549242D01*
X1540663Y270500D02*
X1542510Y268653D01*
X1542163Y266000D02*
X1542257Y266094D01*
X1549242D01*
X1527392D02*
X1535257D01*
X1542163Y260500D02*
X1542604Y260941D01*
X1544246Y258417D02*
X1549242D01*
X1541817Y242154D02*
X1552663D01*
X1541663Y242000D02*
X1541817Y242154D01*
X1522663D02*
X1534817D01*
X1541663Y228500D02*
X1546663D01*
X1543951Y213712D02*
X1549242D01*
X1542510Y211153D02*
X1549242D01*
X1540663Y213000D02*
X1542510Y211153D01*
X1542163Y208500D02*
X1542257Y208594D01*
X1549242D01*
X1527392D02*
X1535257D01*
X1544246Y200917D02*
X1549242D01*
X1541817Y184653D02*
X1552663D01*
X1541663Y184500D02*
X1541817Y184653D01*
X1522663D02*
X1534817D01*
X1541663Y171000D02*
X1546663D01*
X1543951Y156212D02*
X1549242D01*
X1541663Y158500D02*
X1542663Y157500D01*
X1542510Y153653D02*
X1549242D01*
X1540663Y155500D02*
X1542510Y153653D01*
X1542163Y151000D02*
X1542257Y151094D01*
X1549242D01*
X1527392D02*
X1535257D01*
X1544246Y143417D02*
X1549242D01*
X1532746D02*
X1534970Y141193D01*
X1541817Y127154D02*
X1552663D01*
X1541663Y127000D02*
X1541817Y127154D01*
X1522663D02*
X1534817D01*
X1417970Y256000D02*
Y263000D01*
X1424663Y191347D02*
Y198500D01*
X1443970Y158693D02*
Y164500D01*
Y184500D02*
Y198693D01*
Y222000D02*
Y228500D01*
Y127000D02*
Y141193D01*
X1450663Y158500D02*
Y164500D01*
Y184500D02*
Y198500D01*
Y127000D02*
Y141000D01*
X1468970Y191347D02*
Y198500D01*
X1475663Y256000D02*
Y263000D01*
X1508970Y256000D02*
Y263000D01*
X1515663Y191347D02*
Y198500D01*
X1534970Y158693D02*
Y164500D01*
Y184500D02*
Y198693D01*
Y222000D02*
Y228500D01*
Y127000D02*
Y141193D01*
X1559970Y191347D02*
Y198500D01*
X1566663Y256000D02*
Y263000D01*
X1417970Y327500D02*
Y331807D01*
Y309193D02*
Y313500D01*
Y320500D01*
Y270000D02*
Y274307D01*
Y251693D02*
Y256000D01*
Y198500D02*
Y205500D01*
Y212500D02*
Y216807D01*
Y141000D02*
Y148000D01*
Y159307D02*
X1418163Y159500D01*
X1424663Y306347D02*
Y313500D01*
Y248847D02*
Y256000D01*
X1424806Y255858D01*
X1424663Y133846D02*
Y141000D01*
X1443970Y331193D02*
Y337000D01*
Y343500D01*
Y299500D02*
Y313693D01*
Y273693D02*
Y279500D01*
Y286000D01*
Y242000D02*
Y256193D01*
X1441746Y258417D02*
X1443970Y256193D01*
Y216193D02*
Y222000D01*
X1441746Y200917D02*
X1443970Y198693D01*
Y164500D02*
Y171000D01*
X1450663Y331000D02*
Y337000D01*
X1449663Y328000D02*
X1451510Y326153D01*
X1446663Y326000D02*
Y328500D01*
X1450663Y299500D02*
Y313500D01*
X1451663Y272500D02*
X1452951Y271212D01*
X1450663Y273500D02*
Y279500D01*
Y242000D02*
Y256000D01*
X1453163Y258500D01*
X1450663Y216000D02*
X1451663Y215000D01*
X1450663Y216000D02*
Y222000D01*
Y198500D02*
X1453163Y201000D01*
X1450663Y141000D02*
X1453163Y143500D01*
X1468970Y306347D02*
Y313500D01*
Y248847D02*
Y256000D01*
X1468828Y255858D02*
X1468970Y256000D01*
Y133846D02*
Y141000D01*
X1475663Y327500D02*
Y332500D01*
Y309000D02*
Y313500D01*
Y320500D01*
Y270000D02*
Y275000D01*
Y251500D02*
Y256000D01*
Y198500D02*
Y205500D01*
Y212500D02*
Y217500D01*
Y141000D02*
Y148000D01*
Y155000D02*
Y160000D01*
X1508970Y327500D02*
Y331807D01*
Y309193D02*
Y313500D01*
Y320500D01*
Y270000D02*
Y274307D01*
Y251693D02*
Y256000D01*
Y198500D02*
Y205500D01*
Y212500D02*
Y216807D01*
Y141000D02*
Y148000D01*
Y159307D02*
X1509163Y159500D01*
X1515663Y306347D02*
Y313500D01*
Y248847D02*
Y256000D01*
X1515806Y255858D01*
X1515663Y133846D02*
Y141000D01*
X1519663Y320500D02*
X1521163Y319000D01*
X1537663Y326000D02*
Y328500D01*
X1534970Y331193D02*
Y337000D01*
Y343500D01*
Y299500D02*
Y313693D01*
Y273693D02*
X1537663Y271000D01*
X1534970Y273693D02*
Y279500D01*
Y286000D01*
Y242000D02*
Y256193D01*
Y216193D02*
X1537663Y213500D01*
X1534970Y216193D02*
Y222000D01*
Y164500D02*
Y171000D01*
X1535257Y151094D02*
X1537663Y153500D01*
X1542663Y272500D02*
X1543951Y271212D01*
X1542663Y215000D02*
X1544663Y217000D01*
X1542663Y157500D02*
X1544663Y159500D01*
X1545163D01*
X1544163Y143500D02*
X1544246Y143417D01*
X1559970Y306347D02*
Y313500D01*
Y248847D02*
Y256000D01*
X1559828Y255858D02*
X1559970Y256000D01*
Y133846D02*
Y141000D01*
X1566663Y327500D02*
Y332500D01*
Y309000D02*
Y313500D01*
Y320500D01*
Y270000D02*
Y275000D01*
Y251500D02*
Y256000D01*
Y198500D02*
Y205500D01*
Y212500D02*
Y217500D01*
Y141000D02*
Y148000D01*
Y155000D02*
Y160000D01*
X1417970Y331807D02*
X1418163Y332000D01*
X1417970Y309193D02*
X1418163Y309000D01*
X1417970Y274307D02*
X1418163Y274500D01*
X1417970Y251693D02*
X1418163Y251500D01*
X1417970Y216807D02*
X1418163Y217000D01*
X1417970Y194193D02*
X1418163Y194000D01*
X1417970Y194193D02*
Y198500D01*
Y155000D02*
Y159307D01*
Y136693D02*
X1418163Y136500D01*
X1417970Y136693D02*
Y141000D01*
X1424663Y320500D02*
X1428663D01*
X1424663Y313500D02*
X1424806Y313358D01*
X1424663Y263000D02*
X1428663D01*
X1424663Y205500D02*
X1428663D01*
X1424663Y198500D02*
X1424806Y198358D01*
X1424663Y148000D02*
X1428663D01*
X1424663Y141000D02*
X1424806Y140858D01*
X1441746Y315917D02*
X1443970Y313693D01*
X1443817Y299654D02*
X1443970Y299500D01*
X1443817Y242154D02*
X1443970Y242000D01*
X1443817Y184653D02*
X1443970Y184500D01*
X1441746Y143417D02*
X1443970Y141193D01*
X1443817Y127154D02*
X1443970Y127000D01*
X1451663Y330000D02*
X1452951Y328712D01*
X1450663Y331000D02*
X1451663Y330000D01*
X1451163Y323500D02*
X1451257Y323594D01*
X1450663Y313500D02*
X1453163Y316000D01*
X1450663Y299500D02*
X1450817Y299654D01*
X1450663Y273500D02*
X1451663Y272500D01*
X1449663Y270500D02*
X1451510Y268653D01*
X1451163Y266000D02*
X1451257Y266094D01*
X1446663Y268500D02*
Y271000D01*
X1450663Y242000D02*
X1450817Y242154D01*
X1451663Y215000D02*
X1452951Y213712D01*
X1449663Y213000D02*
X1451510Y211153D01*
X1451163Y208500D02*
X1451257Y208594D01*
X1446663Y211000D02*
Y213500D01*
X1450663Y184500D02*
X1450817Y184653D01*
X1451663Y157500D02*
X1452951Y156212D01*
X1450663Y158500D02*
X1451663Y157500D01*
X1449663Y155500D02*
X1451510Y153653D01*
X1446663Y153500D02*
Y156000D01*
X1451163Y151000D02*
X1451257Y151094D01*
X1450663Y127000D02*
X1450817Y127154D01*
X1468828Y313358D02*
X1468970Y313500D01*
X1468828Y198358D02*
X1468970Y198500D01*
X1468828Y140858D02*
X1468970Y141000D01*
X1475663Y194000D02*
Y198500D01*
Y136500D02*
Y141000D01*
X1508970Y331807D02*
X1509163Y332000D01*
X1508970Y309193D02*
X1509163Y309000D01*
X1508970Y274307D02*
X1509163Y274500D01*
X1508970Y251693D02*
X1509163Y251500D01*
X1508970Y216807D02*
X1509163Y217000D01*
X1508970Y194193D02*
X1509163Y194000D01*
X1508970Y194193D02*
Y198500D01*
Y155000D02*
Y159307D01*
Y136693D02*
X1509163Y136500D01*
X1508970Y136693D02*
Y141000D01*
X1515663Y313500D02*
X1515806Y313358D01*
X1515663Y198500D02*
X1515806Y198358D01*
X1515663Y141000D02*
X1515806Y140858D01*
X1521163Y317000D02*
Y319000D01*
Y259500D02*
Y261500D01*
X1519663Y263000D02*
X1521163Y261500D01*
Y202000D02*
Y204000D01*
X1519663Y205500D02*
X1521163Y204000D01*
Y144500D02*
Y146500D01*
X1519663Y148000D02*
X1521163Y146500D01*
X1527392Y315917D02*
X1532746D01*
X1527392Y258417D02*
X1532746D01*
X1527392Y200917D02*
X1532746D01*
X1527392Y143417D02*
X1532746D01*
X1534970Y331193D02*
X1537663Y328500D01*
X1535257Y323594D02*
X1537663Y326000D01*
X1534817Y299654D02*
X1534970Y299500D01*
X1537663Y268500D02*
Y271000D01*
X1535257Y266094D02*
X1537663Y268500D01*
X1534222Y260941D02*
X1534663Y260500D01*
X1534817Y242154D02*
X1534970Y242000D01*
X1537663Y211000D02*
Y213500D01*
X1535257Y208594D02*
X1537663Y211000D01*
X1534817Y184653D02*
X1534970Y184500D01*
X1537663Y153500D02*
Y156000D01*
X1534970Y158693D02*
X1537663Y156000D01*
X1534817Y127154D02*
X1534970Y127000D01*
X1542663Y330000D02*
X1543951Y328712D01*
X1542663Y330000D02*
X1544663Y332000D01*
X1545163D01*
X1544163Y316000D02*
X1544246Y315917D01*
X1542663Y272500D02*
X1544663Y274500D01*
X1545163D01*
X1544163Y258500D02*
X1544246Y258417D01*
X1544663Y217000D02*
X1545163D01*
X1542663Y215000D02*
X1543951Y213712D01*
X1544163Y201000D02*
X1544246Y200917D01*
X1542663Y157500D02*
X1543951Y156212D01*
X1559828Y313358D02*
X1559970Y313500D01*
X1559828Y198358D02*
X1559970Y198500D01*
X1559828Y140858D02*
X1559970Y141000D01*
X1566663Y194000D02*
Y198500D01*
Y136500D02*
Y141000D01*
X1673500Y146500D02*
Y156000D01*
X1663500Y146500D02*
Y156000D01*
X1693500Y146500D02*
Y156000D01*
X1683500Y146500D02*
Y156000D01*
X1634500Y247500D02*
Y257000D01*
X1624500Y247500D02*
Y257000D01*
X1634500Y146500D02*
Y156000D01*
X1624500Y146500D02*
Y156000D01*
X1614500Y146500D02*
Y156000D01*
X1604500Y146500D02*
Y156000D01*
X1663500Y247500D02*
Y257000D01*
X1673500Y247500D02*
Y257000D01*
X1693500Y247500D02*
Y257000D01*
X1683500Y247500D02*
Y257000D01*
X1659925Y300110D02*
X1664264D01*
X1659925Y294992D02*
X1664161D01*
X1659925Y193992D02*
X1664161D01*
X1659925Y199110D02*
X1664264D01*
X1614500Y199500D02*
X1619654D01*
X1629346Y304500D02*
X1633736Y300110D01*
X1629346Y203500D02*
X1633736Y199110D01*
X1629346Y189500D02*
X1633839Y193992D01*
X1664264Y300110D02*
X1668653Y304500D01*
X1678346Y287500D02*
X1684000D01*
X1688500Y238102D02*
Y247551D01*
Y257000D01*
X1678847Y200000D02*
X1684000D01*
X1664264Y199110D02*
X1668653Y203500D01*
X1664161Y193992D02*
X1668653Y189500D01*
X1688500Y146551D02*
Y156000D01*
Y137102D02*
Y146551D01*
X1614500Y308000D02*
X1619154D01*
X1614500Y300500D02*
X1619654D01*
X1614500Y287000D02*
X1619154D01*
X1614153Y272847D02*
X1619500D01*
X1614846Y221654D02*
X1619500D01*
X1614500Y207000D02*
X1619154D01*
X1614500Y186000D02*
X1619154D01*
X1614153Y171846D02*
X1619500D01*
X1614846Y120653D02*
X1619500D01*
X1629346Y290500D02*
X1633839Y294992D01*
X1678847Y308000D02*
X1684000D01*
X1678847Y301000D02*
X1684000D01*
X1664161Y294992D02*
X1668653Y290500D01*
X1678500Y272693D02*
X1683693D01*
X1678500Y222153D02*
X1683347D01*
X1678847Y207000D02*
X1684000D01*
X1678346Y186500D02*
X1684000D01*
X1678500Y171693D02*
X1683693D01*
X1678500Y121153D02*
X1683347D01*
X1609500Y238102D02*
Y247551D01*
Y257000D01*
Y146551D02*
Y156000D01*
Y137102D02*
Y146551D01*
X1622654Y311500D02*
Y315846D01*
X1619154Y287000D02*
X1622654Y290500D01*
Y279153D02*
Y283500D01*
X1619654Y199500D02*
X1622654Y196500D01*
X1629346Y304500D02*
Y311500D01*
Y283500D02*
Y290500D01*
X1629500Y238102D02*
Y247551D01*
Y257000D01*
X1629346Y203500D02*
Y210500D01*
Y182500D02*
Y189500D01*
X1629500Y146551D02*
Y156000D01*
Y137102D02*
Y146551D01*
X1668653Y304500D02*
Y311500D01*
Y283500D02*
Y290500D01*
X1668500Y238102D02*
Y247551D01*
Y257000D01*
X1668653Y203500D02*
Y210500D01*
Y182500D02*
Y189500D01*
X1668500Y146551D02*
Y156000D01*
Y137102D02*
Y146551D01*
X1675347Y311500D02*
Y315846D01*
Y279153D02*
Y283500D01*
Y290500D02*
X1678346Y287500D01*
X1675347Y196500D02*
X1678847Y200000D01*
X1614000Y273000D02*
X1614153Y272847D01*
X1614500Y222000D02*
X1614846Y221654D01*
X1614000Y172000D02*
X1614153Y171846D01*
X1614500Y121000D02*
X1614846Y120653D01*
X1622500Y316000D02*
X1622654Y315846D01*
X1619154Y308000D02*
X1622654Y304500D01*
X1619654Y300500D02*
X1622654Y297500D01*
X1622500Y279000D02*
X1622654Y279153D01*
X1622500Y215000D02*
X1622654Y214846D01*
Y210500D02*
Y214846D01*
X1619154Y207000D02*
X1622654Y203500D01*
X1619154Y186000D02*
X1622654Y189500D01*
Y178154D02*
Y182500D01*
X1622500Y178000D02*
X1622654Y178154D01*
X1633736Y300110D02*
X1638075D01*
X1633839Y294992D02*
X1638075D01*
X1633839Y193992D02*
X1638075D01*
X1633736Y199110D02*
X1638075D01*
X1675347Y315846D02*
X1675500Y316000D01*
X1675347Y304500D02*
X1678847Y308000D01*
X1675347Y297500D02*
X1678847Y301000D01*
X1675347Y279153D02*
X1675500Y279000D01*
X1675347Y210500D02*
Y214846D01*
X1675500Y215000D01*
X1675347Y203500D02*
X1678847Y207000D01*
X1675347Y189500D02*
X1678346Y186500D01*
X1675347Y178154D02*
Y182500D01*
Y178154D02*
X1675500Y178000D01*
X1683693Y272693D02*
X1684000Y273000D01*
X1683347Y222153D02*
X1683500Y222000D01*
X1683693Y171693D02*
X1684000Y172000D01*
X1683347Y121153D02*
X1683500Y121000D01*
X934811Y366653D02*
X936811Y368653D01*
X938657Y372307D02*
Y377153D01*
X932051Y366653D02*
X934811D01*
X938657Y372307D02*
X938811Y372153D01*
X433361Y126500D02*
X443361D01*
X446361D02*
X448361Y124500D01*
X443361Y126500D02*
X446361D01*
X448361Y117205D02*
Y124500D01*
X306593Y89093D02*
Y94102D01*
X306500Y89000D02*
X306593Y89093D01*
X299900Y89100D02*
Y94102D01*
Y89100D02*
X300000Y89000D01*
X127786Y89286D02*
Y94000D01*
X127500Y89000D02*
X127786Y89286D01*
X121093Y89093D02*
Y94000D01*
X121000Y89000D02*
X121093Y89093D01*
X1139000Y114500D02*
X1139153Y114347D01*
X1144000D01*
X1139000Y124000D02*
X1139347Y123653D01*
X1144000D01*
X1151500D01*
X1139000Y107500D02*
X1139153Y107653D01*
X1144000D01*
X1151500D01*
X1144000Y114347D02*
X1151500D01*
X1159425Y103575D02*
Y107976D01*
Y103575D02*
X1160500Y102500D01*
X1161984Y103984D01*
Y107976D01*
X1159102Y107653D02*
X1159425Y107976D01*
X1151500Y107653D02*
X1159102D01*
X1161000Y115000D02*
X1163000D01*
X1164543Y113457D01*
Y107976D02*
Y113457D01*
X1185016Y123484D02*
Y130024D01*
Y123484D02*
X1186000Y122500D01*
X1187575Y124075D01*
Y130024D01*
X1182500Y114500D02*
X1186000D01*
X1187575Y112925D01*
Y107976D02*
Y112925D01*
X1203000Y103500D02*
Y107000D01*
X1205153Y109153D01*
X1201500Y119000D02*
X1205153Y122653D01*
X1208500D01*
X1201500Y119000D02*
X1204653Y115847D01*
X1208500D01*
X1215500D01*
X1208500Y122653D02*
X1215500D01*
Y109153D02*
X1217057Y110711D01*
X1222000D01*
X1246000Y103500D02*
Y106500D01*
X1248153Y108653D01*
X1252000D01*
X1259500D02*
X1260000Y109153D01*
X1252000Y108653D02*
X1259500D01*
X1248654Y115347D02*
X1252000D01*
X1244500Y119500D02*
X1248654Y115347D01*
X1244500Y119500D02*
X1247153Y122153D01*
X1252000D01*
X1260000D01*
X1252000Y115347D02*
X1252500Y115847D01*
X1260000D01*
Y109153D02*
X1261557Y110711D01*
X1266500D01*
X1167102Y103821D02*
Y107976D01*
Y103821D02*
X1173150Y97774D01*
Y40819D02*
Y97774D01*
X1169661Y103525D02*
Y107976D01*
Y103525D02*
X1174750Y98436D01*
X1172221Y103229D02*
Y107976D01*
Y103229D02*
X1176350Y99099D01*
Y42144D02*
Y99099D01*
X1174780Y102932D02*
Y107976D01*
Y102932D02*
X1177950Y99762D01*
Y42807D02*
Y99762D01*
X1177339Y102636D02*
Y107976D01*
Y102636D02*
X1179550Y100425D01*
Y61019D02*
Y100425D01*
X1179898Y102340D02*
Y107976D01*
Y102340D02*
X1181150Y101087D01*
Y61681D02*
Y101087D01*
X1182750Y62344D02*
Y101750D01*
X1182457Y102043D02*
X1182750Y101750D01*
X1182457Y102043D02*
Y107976D01*
X1184350Y63007D02*
Y99850D01*
X1185016Y100516D01*
Y107976D01*
X1173150Y40819D02*
X1190469Y23500D01*
X1230000D01*
X1230050Y23550D01*
X1250400D01*
X1259650Y32800D01*
X1174750Y41481D02*
Y98436D01*
Y41481D02*
X1191081Y25150D01*
X1241100D01*
X1248750Y32800D01*
X1176350Y42144D02*
X1191744Y26750D01*
X1231800D01*
X1237850Y32800D01*
X1177950Y42807D02*
X1192407Y28350D01*
X1222500D01*
X1226950Y32800D01*
X1179550Y61019D02*
X1188800Y51768D01*
Y44000D02*
Y51768D01*
X1181150Y61681D02*
X1198831Y44000D01*
X1199700D01*
X1182750Y62344D02*
X1191744Y53350D01*
X1201250D01*
X1210600Y44000D01*
X1184350Y63007D02*
X1192407Y54950D01*
X1210550D01*
X1221500Y44000D01*
X1243300D02*
Y63200D01*
X1238000Y68500D02*
X1243300Y63200D01*
X1238000Y68500D02*
Y82000D01*
X1227118Y92882D02*
X1238000Y82000D01*
X1227118Y92882D02*
Y110711D01*
X1232400Y44000D02*
Y63600D01*
X1227500Y68500D02*
X1232400Y63600D01*
X1227500Y68500D02*
Y74500D01*
X1224559Y77441D02*
X1227500Y74500D01*
X1224559Y77441D02*
Y110711D01*
X1254200Y44000D02*
X1269550Y59350D01*
Y106968D01*
X1269059Y107459D02*
X1269550Y106968D01*
X1269059Y107459D02*
Y110711D01*
X1265100Y44000D02*
X1271618Y50518D01*
Y110711D01*
X528168Y94102D02*
Y108102D01*
X528014Y93949D02*
X528168Y94102D01*
X235361Y94000D02*
Y108000D01*
X125439Y135949D02*
Y145886D01*
X679668Y148000D02*
X685000Y142668D01*
Y118000D02*
Y142668D01*
X684205Y117205D02*
X685000Y118000D01*
X681668Y117205D02*
X684205D01*
X570514Y118014D02*
Y143000D01*
X569705Y117205D02*
X570514Y118014D01*
X567361Y117205D02*
X569705D01*
X451361Y148000D02*
X456500Y142861D01*
Y118000D02*
Y142861D01*
X455705Y117205D02*
X456500Y118000D01*
X453553Y117205D02*
X455705D01*
X337207Y148000D02*
X342500Y142707D01*
Y118000D02*
Y142707D01*
X341705Y117205D02*
X342500Y118000D01*
X339247Y117205D02*
X341705D01*
X228053Y118053D02*
Y143000D01*
X227205Y117205D02*
X228053Y118053D01*
X224939Y117205D02*
X227205D01*
X108900Y148000D02*
X114500Y142400D01*
Y118000D02*
Y142400D01*
X113705Y117205D02*
X114500Y118000D01*
X111132Y117205D02*
X113705D01*
X111132D02*
Y117437D01*
X13863Y108116D02*
X13979Y108000D01*
X11632Y110346D02*
X13863Y108116D01*
X11632Y110346D02*
Y117051D01*
X16632Y110886D02*
Y117051D01*
Y128768D02*
X18900Y126500D01*
X16632Y128768D02*
Y135949D01*
X26400Y126500D02*
X26632Y126732D01*
Y135949D01*
X36500Y126500D02*
X39400D01*
X26400D02*
X36500D01*
X36632Y126632D01*
Y135949D01*
X41632Y117051D02*
Y124268D01*
X33500Y144800D02*
X54028D01*
X31632Y142932D02*
X33500Y144800D01*
X31632Y135949D02*
Y142932D01*
X22249Y135949D02*
Y137941D01*
X21632Y144032D02*
X24000Y146400D01*
X21632Y135949D02*
Y144032D01*
X24000Y146400D02*
X53365D01*
X21632Y135949D02*
X22249D01*
X11632Y146232D02*
X13400Y148000D01*
X11632Y135949D02*
Y146232D01*
X76132Y136102D02*
Y141868D01*
X74800Y143200D02*
X76132Y141868D01*
X66912Y143200D02*
X74800D01*
X83010Y144800D02*
X86223Y141587D01*
X67575Y144800D02*
X83010D01*
X93010Y146400D02*
X96223Y143187D01*
X68237Y146400D02*
X93010D01*
X68900Y148000D02*
X108900D01*
X121093Y94000D02*
Y101000D01*
Y108000D01*
X127786Y94000D02*
Y101000D01*
Y108000D01*
X125439Y110346D02*
Y117051D01*
Y110346D02*
X127786Y108000D01*
X130439Y110653D01*
Y117051D01*
X71786Y101102D02*
Y108102D01*
Y94102D02*
Y101102D01*
X78479Y94102D02*
Y101102D01*
Y108102D01*
X76132Y110449D02*
Y117205D01*
Y110449D02*
X78479Y108102D01*
X81132Y110756D01*
Y117205D01*
X36632Y107068D02*
X73200Y70500D01*
X36632Y107068D02*
Y117051D01*
X31632Y101168D02*
X62300Y70500D01*
X31632Y101168D02*
Y117051D01*
X26632Y103905D02*
X57000Y73537D01*
X26632Y103905D02*
Y117051D01*
X21632Y106642D02*
X46000Y82275D01*
X46632Y117051D02*
X48451D01*
X49400Y118000D01*
X816500Y36500D02*
X818600Y38600D01*
X830199D01*
X832740Y36059D01*
X820619Y36000D02*
X820678Y36059D01*
X825260D01*
X817000Y67000D02*
X818063Y68063D01*
Y72815D01*
X820032Y67968D02*
X821000Y67000D01*
X820032Y67968D02*
Y72815D01*
X737500Y58000D02*
Y63197D01*
X725500Y58000D02*
Y63197D01*
X701500Y58000D02*
Y63197D01*
X689500Y58000D02*
Y63197D01*
X737500Y69890D02*
Y90303D01*
X725500Y69890D02*
Y72303D01*
X733500Y80303D01*
X701500Y69890D02*
Y72311D01*
X693508Y80303D02*
X701500Y72311D01*
X689500Y69890D02*
Y90303D01*
X806746Y78663D02*
X807377Y78031D01*
X814815D01*
X808500Y82000D02*
X810500Y80000D01*
X814815D01*
X817000Y108846D02*
Y109000D01*
Y108846D02*
X822000Y103847D01*
X833346D02*
X833500Y104000D01*
X829000Y103847D02*
X833346D01*
X837000Y84000D02*
Y92500D01*
X834400Y95400D02*
X834500Y95500D01*
X834400Y84362D02*
Y95400D01*
X832007Y81968D02*
X834400Y84362D01*
X829185Y81968D02*
X832007D01*
X833000Y80000D02*
X837000Y84000D01*
X829185Y80000D02*
X833000D01*
X844847Y67654D02*
X845000Y67500D01*
X844847Y67654D02*
Y71500D01*
Y82846D02*
X845000Y83000D01*
X844847Y79000D02*
Y82846D01*
X825462Y91500D02*
X829000D01*
X823969Y90007D02*
X825462Y91500D01*
X823969Y87185D02*
Y90007D01*
X820032Y90031D02*
X822000Y92000D01*
X820032Y87185D02*
Y90031D01*
X811200Y82500D02*
Y92591D01*
X790000Y83000D02*
X790154Y82846D01*
X795000D01*
X802500D01*
X795000Y76153D02*
X802500D01*
X802590Y76063D01*
X814815D01*
X833591D02*
X838153Y71500D01*
X829185Y76063D02*
X833591D01*
X837185Y78031D02*
X838153Y79000D01*
X829185Y78031D02*
X837185D01*
X822000Y97154D02*
X829000D01*
X819347Y94500D02*
X822000Y97154D01*
X813109Y94500D02*
X819347D01*
X811200Y92591D02*
X813109Y94500D01*
X811200Y82500D02*
X811732Y81968D01*
X814815D01*
X822000Y70000D02*
X825000Y67000D01*
X822000Y70000D02*
Y72815D01*
X832740Y33500D02*
X836500D01*
X814500Y33000D02*
X828500D01*
X830559Y30941D01*
X832740D01*
X784500Y54000D02*
X793000D01*
X769500Y39000D02*
X784500Y54000D01*
X769400Y38900D02*
X769500Y39000D01*
X769400Y31923D02*
Y38900D01*
Y31923D02*
X770923Y30400D01*
X790199D01*
X792240Y32441D01*
Y35000D02*
X796000D01*
X909200Y38800D02*
X936500Y11500D01*
X877260Y38800D02*
X909200D01*
X874800Y41260D02*
X877260Y38800D01*
X874800Y41260D02*
Y72300D01*
X879500Y77000D01*
X916600Y40400D02*
X931000Y26000D01*
X877923Y40400D02*
X916600D01*
X876400Y41923D02*
X877923Y40400D01*
X876400Y41923D02*
Y57400D01*
X879000Y60000D01*
X919500Y43000D02*
X936500Y26000D01*
X879000Y43000D02*
X919500D01*
X7053Y94000D02*
Y108000D01*
X7000Y88500D02*
X7286Y88786D01*
Y94000D01*
X71786Y88714D02*
X72000Y88500D01*
X71786Y88714D02*
Y94102D01*
X78479Y88521D02*
X78500Y88500D01*
X78479Y88521D02*
Y94102D01*
X185707D02*
Y108102D01*
X185593Y93988D02*
X185707Y94102D01*
X185593Y93988D02*
Y94102D01*
Y89407D02*
Y93988D01*
Y89407D02*
X186000Y89000D01*
X192286Y89214D02*
X192500Y89000D01*
X192286Y89214D02*
Y94102D01*
X235000Y89000D02*
X235400Y89400D01*
Y94000D01*
X242000Y89000D02*
X242093Y89093D01*
Y94000D01*
X299861Y94102D02*
Y108102D01*
X349514Y94000D02*
Y108000D01*
X349500Y89000D02*
X349707Y89207D01*
Y94000D01*
X356400Y89100D02*
X356500Y89000D01*
X356400Y89100D02*
Y94000D01*
X414014Y94102D02*
Y108102D01*
X414000Y89000D02*
X414207Y89207D01*
Y94102D01*
X420900Y89100D02*
X421000Y89000D01*
X420900Y89100D02*
Y94102D01*
X463668Y94000D02*
Y108000D01*
X463514Y93846D02*
X463668Y94000D01*
X463514Y93846D02*
Y94000D01*
Y89014D02*
Y93846D01*
X463500Y89000D02*
X463514Y89014D01*
X470000Y89000D02*
X470207Y89207D01*
Y94000D01*
X528014Y93949D02*
Y94102D01*
Y89014D02*
Y93949D01*
X528000Y89000D02*
X528014Y89014D01*
X534500Y89000D02*
X534707Y89207D01*
Y94102D01*
X577821Y89179D02*
X578000Y89000D01*
X577821Y89179D02*
Y94000D01*
X584500Y89000D02*
X584514Y89014D01*
Y94000D01*
X642321Y89179D02*
X642500Y89000D01*
X642321Y89179D02*
Y94102D01*
X649000Y89000D02*
X649014Y89014D01*
Y94102D01*
X13979Y94000D02*
Y101000D01*
X192286Y94102D02*
Y101102D01*
X242093Y94000D02*
Y101000D01*
X306593Y94102D02*
Y101102D01*
X356400Y94000D02*
Y101000D01*
X420900Y94102D02*
Y101102D01*
X470207Y94000D02*
Y101000D01*
X534707Y94102D02*
Y101102D01*
X105900Y43900D02*
Y45508D01*
X135439Y75047D01*
Y117051D01*
X116800Y43900D02*
Y54145D01*
X140439Y77784D01*
Y117051D01*
X84100Y43900D02*
X90150Y37850D01*
X119306D01*
X135150Y53694D01*
X95000Y43500D02*
Y43900D01*
Y43500D02*
X99050Y39450D01*
X118643D01*
X133550Y54357D01*
Y68632D01*
X145439Y80522D01*
Y117051D01*
X135150Y53694D02*
Y67969D01*
X150439Y83259D01*
Y117051D01*
X51500Y54700D02*
X62300Y43900D01*
X51500Y54700D02*
Y62000D01*
X46000Y67500D02*
X51500Y62000D01*
X46000Y67500D02*
Y82275D01*
X21632Y106642D02*
Y117051D01*
X62000Y55100D02*
X73200Y43900D01*
X62000Y55100D02*
Y63500D01*
X57000Y68500D02*
X62000Y63500D01*
X57000Y68500D02*
Y73537D01*
X84100Y70500D02*
X86132Y72532D01*
Y117205D01*
X91132Y74368D02*
X95000Y70500D01*
X91132Y74368D02*
Y117205D01*
X96132Y80268D02*
X105900Y70500D01*
X96132Y80268D02*
Y117205D01*
X101132Y86168D02*
X116800Y70500D01*
X101132Y86168D02*
Y117205D01*
X206283Y67256D02*
X209789Y63750D01*
X206283Y67256D02*
Y73006D01*
X204939Y74350D02*
X206283Y73006D01*
X204939Y74350D02*
Y117205D01*
X210133Y55800D02*
X222033Y43900D01*
X210133Y55800D02*
Y61143D01*
X204683Y66593D02*
X210133Y61143D01*
X204683Y66593D02*
Y72343D01*
X199939Y77087D02*
X204683Y72343D01*
X199939Y77087D02*
Y117205D01*
X232933Y43900D02*
X233000Y43967D01*
Y60077D01*
X229327Y63750D02*
X233000Y60077D01*
X209789Y63750D02*
X229327D01*
X209939Y82594D02*
X222033Y70500D01*
X209939Y82594D02*
Y117205D01*
X214939Y88494D02*
X232933Y70500D01*
X214939Y88494D02*
Y117205D01*
X243833Y43900D02*
X249883Y49950D01*
X274601D01*
X314247Y89595D01*
Y117205D01*
X254733Y43900D02*
X259183Y48350D01*
X275264D01*
X319247Y92333D01*
Y117205D01*
X265633Y42367D02*
Y43900D01*
Y42367D02*
X268550Y39450D01*
X294365D01*
X329246Y74331D01*
Y117205D01*
X324247Y71594D02*
Y117205D01*
X296553Y43900D02*
X324247Y71594D01*
X276533Y43900D02*
X296553D01*
X243833Y70500D02*
X249746Y76413D01*
Y117051D01*
X254733Y70500D02*
X254747Y70513D01*
Y117051D01*
X259747Y76387D02*
X265633Y70500D01*
X259747Y76387D02*
Y117051D01*
X264746Y82287D02*
X276533Y70500D01*
X264746Y82287D02*
Y117051D01*
X364054Y83688D02*
Y117051D01*
X381167Y44500D02*
X381767Y43900D01*
X381167Y44500D02*
Y62544D01*
X375717Y67994D02*
X381167Y62544D01*
X375717Y67994D02*
Y72025D01*
X364054Y83688D02*
X375717Y72025D01*
X369054Y80950D02*
Y117051D01*
Y80950D02*
X377317Y72687D01*
Y68657D02*
Y72687D01*
Y68657D02*
X382767Y63207D01*
Y53800D02*
Y63207D01*
Y53800D02*
X392667Y43900D01*
X374054Y78213D02*
X381767Y70500D01*
X374054Y78213D02*
Y117051D01*
X379053Y84113D02*
X392667Y70500D01*
X379053Y84113D02*
Y117051D01*
X403567Y70500D02*
Y74567D01*
X411000Y82000D01*
X419000D01*
X428553Y91553D01*
Y117205D01*
X414467Y70500D02*
X433554Y89587D01*
Y117205D01*
X425367Y70500D02*
X438553Y83687D01*
Y117205D01*
X436267Y70500D02*
X443553Y77787D01*
Y117205D01*
X425367Y43900D02*
X432967Y51500D01*
X471000D01*
X436267Y43900D02*
X442267Y49900D01*
X471663D01*
X403567Y43900D02*
X409617Y37850D01*
X450813D01*
X414467Y43900D02*
X418917Y39450D01*
X450150D01*
X450813Y37850D02*
X459663Y46700D01*
X472988D01*
X482661Y56372D01*
Y100661D01*
X492861Y110861D01*
Y117051D01*
X450150Y39450D02*
X459000Y48300D01*
X472326D01*
X481061Y57035D01*
Y103837D01*
X487861Y110637D01*
Y117051D01*
X471663Y49900D02*
X479461Y57698D01*
Y104500D01*
X482861Y107900D01*
Y117051D01*
X471000Y51500D02*
X477861Y58361D01*
Y117051D01*
X541500Y70500D02*
X542361Y71361D01*
Y117205D01*
X547361Y75539D02*
X552400Y70500D01*
X547361Y75539D02*
Y117205D01*
X552400Y43900D02*
X553000Y44500D01*
Y62544D01*
X558450Y67994D01*
Y73006D01*
X553961Y77495D02*
X558450Y73006D01*
X553961Y77495D02*
Y105961D01*
X557361Y109361D01*
Y117205D01*
X541500Y43900D02*
X551400Y53800D01*
Y63207D01*
X556850Y68657D01*
Y72343D01*
X552361Y76833D02*
X556850Y72343D01*
X552361Y76833D02*
Y117205D01*
X563300Y70500D02*
Y72800D01*
X575031Y84531D01*
X585969D01*
X592168Y90730D01*
Y117051D01*
X574200Y70500D02*
X597168Y93468D01*
Y117051D01*
X585100Y70500D02*
X602168Y87568D01*
Y117051D01*
X596000Y70500D02*
X607168Y81668D01*
Y117051D01*
X595809Y51691D02*
X619018Y74900D01*
X642494D01*
X656668Y89074D01*
X619681Y73300D02*
X643157D01*
X661668Y91811D01*
X563300Y43900D02*
X571091Y51691D01*
X595809D01*
X656668Y89074D02*
Y117205D01*
X574200Y43900D02*
Y46200D01*
X576350Y48350D01*
X594731D01*
X619681Y73300D01*
X661668Y91811D02*
Y117205D01*
X585100Y42900D02*
Y43900D01*
Y42900D02*
X588550Y39450D01*
X613832D01*
X671668Y97286D01*
Y117205D01*
X666668Y94548D02*
Y117205D01*
X616019Y43900D02*
X666668Y94548D01*
X596000Y43900D02*
X616019D01*
X506014Y137909D02*
X516376Y148272D01*
Y153575D01*
X510642Y144800D02*
X514408Y148566D01*
Y153575D01*
X509316Y148000D02*
X510471Y149154D01*
Y153575D01*
X509979Y146400D02*
X512439Y148860D01*
Y153575D01*
X518345Y148381D02*
X523526Y143200D01*
X518345Y148381D02*
Y153575D01*
X520313Y148675D02*
X524189Y144800D01*
X520313Y148675D02*
Y153575D01*
X522282Y148969D02*
X524851Y146400D01*
X522282Y148969D02*
Y153575D01*
X524250Y149264D02*
X525514Y148000D01*
X524250Y149264D02*
Y153575D01*
X391861Y137909D02*
X402569Y148618D01*
Y153575D01*
X395163Y148000D02*
X396664Y149501D01*
Y153575D01*
X395826Y146400D02*
X398632Y149207D01*
Y153575D01*
X396488Y144800D02*
X400601Y148912D01*
Y153575D01*
X404538Y148035D02*
X409372Y143200D01*
X404538Y148035D02*
Y153575D01*
X406506Y148329D02*
X410035Y144800D01*
X406506Y148329D02*
Y153575D01*
X408475Y148623D02*
X410698Y146400D01*
X408475Y148623D02*
Y153575D01*
X410443Y148917D02*
X411361Y148000D01*
X410443Y148917D02*
Y153575D01*
X281009Y148000D02*
X282357Y149347D01*
Y153575D01*
X281672Y146400D02*
X284325Y149053D01*
Y153575D01*
X282335Y144800D02*
X286294Y148759D01*
Y153575D01*
X277707Y137909D02*
X288262Y148465D01*
Y153575D01*
X290231Y148188D02*
X295219Y143200D01*
X290231Y148188D02*
Y153575D01*
X292199Y148482D02*
X295882Y144800D01*
X292199Y148482D02*
Y153575D01*
X294168Y148777D02*
X296544Y146400D01*
X294168Y148777D02*
Y153575D01*
X296136Y149071D02*
X297207Y148000D01*
X296136Y149071D02*
Y153575D01*
X163554Y137909D02*
X173955Y148311D01*
Y153575D01*
X168181Y144800D02*
X171987Y148605D01*
Y153575D01*
X167519Y146400D02*
X170018Y148899D01*
Y153575D01*
X166856Y148000D02*
X168050Y149194D01*
Y153575D01*
X175924Y148342D02*
X181065Y143200D01*
X175924Y148342D02*
Y153575D01*
X177892Y148636D02*
X181728Y144800D01*
X177892Y148636D02*
Y153575D01*
X179861Y148930D02*
X182391Y146400D01*
X179861Y148930D02*
Y153575D01*
X181829Y149224D02*
X183054Y148000D01*
X181829Y149224D02*
Y153575D01*
X190053Y136102D02*
Y141700D01*
X181065Y143200D02*
X188554D01*
X49400Y137909D02*
X60148Y148658D01*
Y153575D01*
X54028Y144800D02*
X58179Y148952D01*
Y153575D01*
X53365Y146400D02*
X56211Y149246D01*
Y153575D01*
X52702Y148000D02*
X54242Y149540D01*
Y153575D01*
X62116Y147995D02*
X66912Y143200D01*
X62116Y147995D02*
Y153575D01*
X64085Y148290D02*
X67575Y144800D01*
X64085Y148290D02*
Y153575D01*
X66054Y148584D02*
X68237Y146400D01*
X66054Y148584D02*
Y153575D01*
X68022Y148878D02*
X68900Y148000D01*
X68022Y148878D02*
Y153575D01*
X37500Y173500D02*
X37786Y173214D01*
Y168000D02*
Y173214D01*
Y156214D02*
X38000Y156000D01*
X37786Y156214D02*
Y161000D01*
X151593Y155907D02*
X152000Y155500D01*
X151593Y155907D02*
Y161000D01*
X265900Y172900D02*
X266000Y173000D01*
X265900Y168000D02*
Y172900D01*
Y156100D02*
X266000Y156000D01*
X265900Y156100D02*
Y161000D01*
X296000Y164000D02*
X298105Y161895D01*
Y153575D02*
Y161895D01*
X500500Y155500D02*
X500707Y155707D01*
Y161000D01*
X494000Y173500D02*
X494014Y173486D01*
Y168000D02*
Y173486D01*
X494000Y155500D02*
X494014Y155514D01*
Y161000D01*
X608321Y155679D02*
X608500Y155500D01*
X608321Y155679D02*
Y161000D01*
Y173821D02*
X608500Y174000D01*
X608321Y168000D02*
Y173821D01*
X615000Y155500D02*
X615014Y155514D01*
Y161000D01*
X639000Y163500D02*
X640526Y161974D01*
Y153575D02*
Y161974D01*
X41632Y129368D02*
Y135949D01*
Y129368D02*
X44500Y126500D01*
X46632Y128632D01*
Y135949D01*
X106132Y128868D02*
Y136102D01*
Y128868D02*
X108500Y126500D01*
X111132Y129132D01*
Y136102D01*
X155439Y129561D02*
Y135949D01*
Y129561D02*
X158500Y126500D01*
X160439Y128439D01*
Y135949D01*
X219939Y129561D02*
Y136102D01*
Y129561D02*
X223000Y126500D01*
X224939Y128439D01*
Y136102D01*
X269746Y129253D02*
Y135949D01*
Y129253D02*
X272500Y126500D01*
X274746Y128746D01*
Y135949D01*
X334246Y129253D02*
Y136102D01*
Y129253D02*
X337000Y126500D01*
X339247Y128746D01*
Y136102D01*
X384053Y129446D02*
Y135949D01*
Y129446D02*
X387000Y126500D01*
X389054Y128553D01*
Y135949D01*
X448554Y129446D02*
Y136102D01*
Y129446D02*
X451500Y126500D01*
X453553Y128553D01*
Y136102D01*
X497861Y129139D02*
Y135949D01*
Y129139D02*
X500500Y126500D01*
X502861Y128861D01*
Y135949D01*
X562361Y129139D02*
Y136102D01*
Y129139D02*
X565000Y126500D01*
X567361Y128861D01*
Y136102D01*
X676668Y129332D02*
Y136102D01*
Y129332D02*
X679500Y126500D01*
X681668Y128668D01*
Y136102D01*
X612168Y128832D02*
Y135949D01*
Y128832D02*
X614500Y126500D01*
X617168Y129168D01*
Y135949D01*
X297207Y148000D02*
X337207D01*
X183054D02*
X223054D01*
X296544Y146400D02*
X322707D01*
X182391D02*
X208554D01*
X411361Y148000D02*
X451361D01*
X13400D02*
X52702D01*
X127553D02*
X166856D01*
X137054Y146400D02*
X167519D01*
X133054Y126500D02*
X140553D01*
X241707Y148000D02*
X281009D01*
X295219Y143200D02*
X302707D01*
X295882Y144800D02*
X312707D01*
X261207D02*
X282335D01*
X251207Y146400D02*
X281672D01*
X197554Y126500D02*
X205053D01*
X355861Y148000D02*
X395163D01*
X410035Y144800D02*
X426861D01*
X410698Y146400D02*
X436861D01*
X375361Y144800D02*
X396488D01*
X365361Y146400D02*
X395826D01*
X425861Y126500D02*
X433361D01*
X361361D02*
X368861D01*
X525514Y148000D02*
X565514D01*
X470014D02*
X509316D01*
X523526Y143200D02*
X531014D01*
X489514Y144800D02*
X510642D01*
X479514Y146400D02*
X509979D01*
X547514Y126500D02*
X557514D01*
X483014D02*
X493014D01*
X615014Y161000D02*
X620668D01*
X639668Y148000D02*
X679668D01*
X584168D02*
X623470D01*
X639005Y146400D02*
X665168D01*
X638342Y144800D02*
X655168D01*
X593668Y146400D02*
X624133D01*
X603668Y144800D02*
X624795D01*
X215054Y126500D02*
Y136102D01*
X607168Y126500D02*
Y135949D01*
X671668Y126500D02*
Y136102D01*
X135554Y135949D02*
Y144900D01*
X125439Y145886D02*
X127553Y148000D01*
X223054D02*
X228053Y143000D01*
X582168Y146000D02*
X584168Y148000D01*
X565514D02*
X570514Y143000D01*
X622809Y153575D02*
Y158858D01*
X636589Y148816D02*
X639005Y146400D01*
X620168Y137909D02*
X630683Y148425D01*
X6400Y93347D02*
X7053Y94000D01*
X39400Y126500D02*
X41632Y124268D01*
X18900Y126500D02*
X26400D01*
X83400D02*
X90900D01*
X100900D02*
X103900D01*
X90900D02*
X100900D01*
X135554Y144900D02*
X137054Y146400D01*
X147054Y144800D02*
X168181D01*
X150554Y126500D02*
X153553D01*
X140553D02*
X150554D01*
X198554Y144800D02*
X200054Y143300D01*
X181728Y144800D02*
X198554D01*
X215054Y126500D02*
X218054D01*
X205053D02*
X215054D01*
X254707D02*
X264707D01*
X247207D02*
X254707D01*
X244707Y129000D02*
X247207Y126500D01*
X302707Y143200D02*
X304207Y141700D01*
X311707Y126500D02*
X319207D01*
X309207Y129000D02*
X311707Y126500D01*
X319207D02*
X329207D01*
X358861Y129000D02*
X361361Y126500D01*
X373861Y143300D02*
X375361Y144800D01*
X381861Y126500D02*
X383861Y124500D01*
X368861Y126500D02*
X378861D01*
X390912Y117051D02*
X391861Y118000D01*
X388861Y117051D02*
X390912D01*
X409372Y143200D02*
X416861D01*
X423361Y129000D02*
X425861Y126500D01*
X478014Y144900D02*
X479514Y146400D01*
X475514Y126500D02*
X483014D01*
X470361Y108000D02*
X473014Y110653D01*
X500861Y161000D02*
X506514D01*
X493014Y126500D02*
X496014D01*
X503014Y117051D02*
X505065D01*
X524189Y144800D02*
X541014D01*
X551014Y146400D02*
X552514Y144900D01*
X524851Y146400D02*
X551014D01*
X540014Y126500D02*
X547514D01*
X534861Y108102D02*
X537514Y110756D01*
X557514Y126500D02*
X560514D01*
X582168Y110346D02*
X584514Y108000D01*
X589668Y126500D02*
X597168D01*
X607168D01*
X610168D01*
X620668Y161000D02*
X622809Y158858D01*
X638557Y149110D02*
X639668Y148000D01*
X623470D02*
X624778Y149308D01*
X630683Y148425D02*
Y153575D01*
X637679Y143200D02*
X645168D01*
X646668Y110449D02*
X649014Y108102D01*
X655168Y144800D02*
X656668Y143300D01*
X671668Y126500D02*
X674668D01*
X661668D02*
X671668D01*
X654168D02*
X661668D01*
X49400Y118000D02*
Y137909D01*
X163554Y118000D02*
Y137909D01*
X277707Y118000D02*
Y137909D01*
X378861Y126500D02*
Y135949D01*
X391861Y118000D02*
Y137909D01*
X506014Y118000D02*
Y137909D01*
X557514Y126500D02*
Y136102D01*
X577821Y94000D02*
Y101000D01*
X584514Y94000D02*
Y101000D01*
X597168Y126500D02*
Y135949D01*
X620168Y118000D02*
Y137909D01*
X642321Y94102D02*
Y101102D01*
X649014Y94102D02*
Y101102D01*
X661668Y126500D02*
Y136102D01*
X86223Y134390D02*
Y141587D01*
X96223Y134390D02*
Y143187D01*
X105900Y117205D02*
Y124500D01*
X130553Y129000D02*
Y135949D01*
X145554D02*
Y143300D01*
X195054Y129000D02*
Y136102D01*
X200054D02*
Y143300D01*
X210053Y136102D02*
Y144900D01*
X239707Y135949D02*
Y146000D01*
X241707Y148000D01*
X244707Y129000D02*
Y135949D01*
X249707D02*
Y144900D01*
X259707Y135949D02*
Y143300D01*
X304207Y136102D02*
Y141700D01*
X309207Y129000D02*
Y136102D01*
X314207D02*
Y143300D01*
X324207Y136102D02*
Y144900D01*
X334207Y117205D02*
Y124500D01*
X353861Y135949D02*
Y146000D01*
X355861Y148000D01*
X363861Y135949D02*
Y144900D01*
X373861Y135949D02*
Y143300D01*
X418361Y136102D02*
Y141700D01*
X428361Y136102D02*
Y143300D01*
X438361Y136102D02*
Y144900D01*
X468014Y135949D02*
Y146000D01*
X470014Y148000D01*
X478014Y135949D02*
Y144900D01*
X473014Y129000D02*
Y135949D01*
X488014D02*
Y143300D01*
X498014Y117051D02*
Y124500D01*
X532514Y136102D02*
Y141700D01*
X537514Y129000D02*
Y136102D01*
X542514D02*
Y143300D01*
X552514Y136102D02*
Y144900D01*
X582168Y135949D02*
Y146000D01*
X577821Y101000D02*
Y108000D01*
X582168Y110346D02*
Y117051D01*
X587168Y129000D02*
Y135949D01*
Y110653D02*
Y117051D01*
X584514Y101000D02*
Y108000D01*
X592168Y135949D02*
Y144900D01*
X602168Y135949D02*
Y143300D01*
X612168Y117051D02*
Y124500D01*
X624133Y146400D02*
X626746Y149014D01*
X624795Y144800D02*
X628715Y148719D01*
X634620Y148522D02*
X638342Y144800D01*
X632652Y148228D02*
X637679Y143200D01*
X646668Y136102D02*
Y141700D01*
Y110449D02*
Y117205D01*
X642321Y101102D02*
Y108102D01*
X651668Y129000D02*
Y136102D01*
Y110756D02*
Y117205D01*
X649014Y101102D02*
Y108102D01*
X656668Y136102D02*
Y143300D01*
X666668Y136102D02*
Y144900D01*
X676668Y117205D02*
Y124500D01*
X80900Y129000D02*
X83400Y126500D01*
X103900D02*
X105900Y124500D01*
X130553Y129000D02*
X133054Y126500D01*
X145554Y143300D02*
X147054Y144800D01*
X153553Y126500D02*
X155553Y124500D01*
X162605Y117051D02*
X163554Y118000D01*
X160554Y117051D02*
X162605D01*
X188554Y143200D02*
X190053Y141700D01*
X195054Y129000D02*
X197554Y126500D01*
X192400Y108102D02*
X195054Y110756D01*
X208554Y146400D02*
X210053Y144900D01*
X218054Y126500D02*
X220054Y124500D01*
X234707Y93347D02*
X235361Y94000D01*
X239707Y110346D02*
X242054Y108000D01*
X249707Y144900D02*
X251207Y146400D01*
X259707Y143300D02*
X261207Y144800D01*
X267707Y126500D02*
X269707Y124500D01*
X264707Y126500D02*
X267707D01*
X276758Y117051D02*
X277707Y118000D01*
X274707Y117051D02*
X276758D01*
X299207Y93449D02*
X299861Y94102D01*
X304207Y110449D02*
X306554Y108102D01*
X312707Y144800D02*
X314207Y143300D01*
X322707Y146400D02*
X324207Y144900D01*
X332207Y126500D02*
X334207Y124500D01*
X329207Y126500D02*
X332207D01*
X348861Y93347D02*
X349514Y94000D01*
X353861Y110346D02*
X356207Y108000D01*
X363861Y144900D02*
X365361Y146400D01*
X378861Y126500D02*
X381861D01*
X413361Y93449D02*
X414014Y94102D01*
X416861Y143200D02*
X418361Y141700D01*
Y110449D02*
X420707Y108102D01*
X426861Y144800D02*
X428361Y143300D01*
X436861Y146400D02*
X438361Y144900D01*
X473014Y129000D02*
X475514Y126500D01*
X488014Y143300D02*
X489514Y144800D01*
X496014Y126500D02*
X498014Y124500D01*
X506514Y161000D02*
X508656Y158858D01*
X505065Y117051D02*
X506014Y118000D01*
X531014Y143200D02*
X532514Y141700D01*
X541014Y144800D02*
X542514Y143300D01*
X537514Y129000D02*
X540014Y126500D01*
X560514D02*
X562514Y124500D01*
X587168Y129000D02*
X589668Y126500D01*
X584514Y108000D02*
X587168Y110653D01*
X592168Y144900D02*
X593668Y146400D01*
X602168Y143300D02*
X603668Y144800D01*
X610168Y126500D02*
X612168Y124500D01*
X619219Y117051D02*
X620168Y118000D01*
X617168Y117051D02*
X619219D01*
X624778Y149308D02*
Y153575D01*
X626746Y149014D02*
Y153575D01*
X628715Y148719D02*
Y153575D01*
X638557Y149110D02*
Y153575D01*
X636589Y148816D02*
Y153575D01*
X634620Y148522D02*
Y153575D01*
X632652Y148228D02*
Y153575D01*
X645168Y143200D02*
X646668Y141700D01*
X651668Y129000D02*
X654168Y126500D01*
X649014Y108102D02*
X651668Y110756D01*
X665168Y146400D02*
X666668Y144900D01*
X674668Y126500D02*
X676668Y124500D01*
D18*
X515841Y508841D02*
X516000Y509000D01*
X515841Y493740D02*
Y508841D01*
X535685Y493000D02*
Y509000D01*
X509794Y493740D02*
X515841D01*
X501400Y486654D02*
X505400D01*
X501400Y493347D02*
X509400D01*
X505400Y471000D02*
Y486654D01*
X509400D01*
X518400Y482433D02*
Y486260D01*
D29*
X1675347Y189500D02*
D03*
X1668653D02*
D03*
X1675347Y290500D02*
D03*
X1668653D02*
D03*
X1675347Y203500D02*
D03*
X1668653D02*
D03*
X1675347Y304500D02*
D03*
X1668653D02*
D03*
X1622654Y203500D02*
D03*
X1629346D02*
D03*
X1622654Y304500D02*
D03*
X1629346D02*
D03*
X1622654Y189500D02*
D03*
X1629346D02*
D03*
X1622654Y290500D02*
D03*
X1629346D02*
D03*
X844847Y71500D02*
D03*
X838153D02*
D03*
X844847Y79000D02*
D03*
X838153D02*
D03*
X1475663Y320500D02*
D03*
X1468970D02*
D03*
X1566663D02*
D03*
X1559970D02*
D03*
X1475663Y263000D02*
D03*
X1468970D02*
D03*
X1566663D02*
D03*
X1559970D02*
D03*
X1475663Y205500D02*
D03*
X1468970D02*
D03*
X1566663D02*
D03*
X1559970D02*
D03*
X1475663Y148000D02*
D03*
X1468970D02*
D03*
X1566663D02*
D03*
X1559970D02*
D03*
X1468970Y313500D02*
D03*
X1475663D02*
D03*
X1559970D02*
D03*
X1566663D02*
D03*
X1468970Y256000D02*
D03*
X1475663D02*
D03*
X1559970D02*
D03*
X1566663D02*
D03*
X1468970Y198500D02*
D03*
X1475663D02*
D03*
X1559970D02*
D03*
X1566663D02*
D03*
X1468970Y141000D02*
D03*
X1475663D02*
D03*
X1559970D02*
D03*
X1566663D02*
D03*
X1450663Y299500D02*
D03*
X1443970D02*
D03*
X1541663D02*
D03*
X1534970D02*
D03*
X1450663Y242000D02*
D03*
X1443970D02*
D03*
X1541663D02*
D03*
X1534970D02*
D03*
X1450663Y184500D02*
D03*
X1443970D02*
D03*
X1541663D02*
D03*
X1534970D02*
D03*
X1450663Y127000D02*
D03*
X1443970D02*
D03*
X1541663D02*
D03*
X1534970D02*
D03*
X1450663Y337000D02*
D03*
X1443970D02*
D03*
X1541663D02*
D03*
X1534970D02*
D03*
X1450663Y279500D02*
D03*
X1443970D02*
D03*
X1541663D02*
D03*
X1534970D02*
D03*
X1450663Y222000D02*
D03*
X1443970D02*
D03*
X1541663D02*
D03*
X1534970D02*
D03*
X1450663Y164500D02*
D03*
X1443970D02*
D03*
X1541663D02*
D03*
X1534970D02*
D03*
X1417970Y320500D02*
D03*
X1424663D02*
D03*
X1508970D02*
D03*
X1515663D02*
D03*
X1417970Y263000D02*
D03*
X1424663D02*
D03*
X1508970D02*
D03*
X1515663D02*
D03*
X1417970Y205500D02*
D03*
X1424663D02*
D03*
X1508970D02*
D03*
X1515663D02*
D03*
X1417970Y148000D02*
D03*
X1424663D02*
D03*
X1508970D02*
D03*
X1515663D02*
D03*
X1424663Y313500D02*
D03*
X1417970D02*
D03*
X1515663D02*
D03*
X1508970D02*
D03*
X1424663Y256000D02*
D03*
X1417970D02*
D03*
X1515663D02*
D03*
X1508970D02*
D03*
X1424663Y198500D02*
D03*
X1417970D02*
D03*
X1515663D02*
D03*
X1508970D02*
D03*
X1424663Y141000D02*
D03*
X1417970D02*
D03*
X1515663D02*
D03*
X1508970D02*
D03*
X1475663Y327500D02*
D03*
X1468970D02*
D03*
X1566663D02*
D03*
X1559970D02*
D03*
X1475663Y270000D02*
D03*
X1468970D02*
D03*
X1566663D02*
D03*
X1559970D02*
D03*
X1475663Y212500D02*
D03*
X1468970D02*
D03*
X1566663D02*
D03*
X1559970D02*
D03*
X1475663Y155000D02*
D03*
X1468970D02*
D03*
X1566663D02*
D03*
X1559970D02*
D03*
X1417970Y327500D02*
D03*
X1424663D02*
D03*
X1508970D02*
D03*
X1515663D02*
D03*
X1417970Y270000D02*
D03*
X1424663D02*
D03*
X1508970D02*
D03*
X1515663D02*
D03*
X1417970Y212500D02*
D03*
X1424663D02*
D03*
X1508970D02*
D03*
X1515663D02*
D03*
X1417970Y155000D02*
D03*
X1424663D02*
D03*
X1508970D02*
D03*
X1515663D02*
D03*
X1675347Y196500D02*
D03*
X1668653D02*
D03*
X1675347Y297500D02*
D03*
X1668653D02*
D03*
X1622654Y196500D02*
D03*
X1629346D02*
D03*
X1622654Y297500D02*
D03*
X1629346D02*
D03*
X1675347Y182500D02*
D03*
X1668653D02*
D03*
X1675347Y283500D02*
D03*
X1668653D02*
D03*
Y210500D02*
D03*
X1675347D02*
D03*
X1668653Y311500D02*
D03*
X1675347D02*
D03*
X1622654Y210500D02*
D03*
X1629346D02*
D03*
X1622654Y311500D02*
D03*
X1629346D02*
D03*
Y182500D02*
D03*
X1622654D02*
D03*
X1629346Y283500D02*
D03*
X1622654D02*
D03*
X71786Y94102D02*
D03*
X78479D02*
D03*
X185593D02*
D03*
X192286D02*
D03*
X299900D02*
D03*
X306593D02*
D03*
X414207D02*
D03*
X420900D02*
D03*
X528014D02*
D03*
X534707D02*
D03*
X642321D02*
D03*
X649014D02*
D03*
X7286Y94000D02*
D03*
X13979D02*
D03*
X121093D02*
D03*
X127786D02*
D03*
X235400D02*
D03*
X242093D02*
D03*
X349707D02*
D03*
X356400D02*
D03*
X463514D02*
D03*
X470207D02*
D03*
X577821D02*
D03*
X584514D02*
D03*
X71786Y101102D02*
D03*
X78479D02*
D03*
X185593D02*
D03*
X192286D02*
D03*
X299900D02*
D03*
X306593D02*
D03*
X414207D02*
D03*
X420900D02*
D03*
X528014D02*
D03*
X534707D02*
D03*
X642321D02*
D03*
X649014D02*
D03*
X7286Y101000D02*
D03*
X13979D02*
D03*
X121093D02*
D03*
X127786D02*
D03*
X235400D02*
D03*
X242093D02*
D03*
X349707D02*
D03*
X356400D02*
D03*
X463514D02*
D03*
X470207D02*
D03*
X577821D02*
D03*
X584514D02*
D03*
X71786Y108102D02*
D03*
X78479D02*
D03*
X185593D02*
D03*
X192286D02*
D03*
X299900D02*
D03*
X306593D02*
D03*
X414207D02*
D03*
X420900D02*
D03*
X528014D02*
D03*
X534707D02*
D03*
X642321D02*
D03*
X649014D02*
D03*
X7286Y108000D02*
D03*
X13979D02*
D03*
X121093D02*
D03*
X127786D02*
D03*
X235400D02*
D03*
X242093D02*
D03*
X349707D02*
D03*
X356400D02*
D03*
X463514D02*
D03*
X470207D02*
D03*
X577821D02*
D03*
X584514D02*
D03*
X37786Y168000D02*
D03*
X44479D02*
D03*
X151593D02*
D03*
X158286D02*
D03*
X265900D02*
D03*
X272593D02*
D03*
X380207D02*
D03*
X386900D02*
D03*
X494014D02*
D03*
X500707D02*
D03*
X608321D02*
D03*
X615014D02*
D03*
X37786Y161000D02*
D03*
X44479D02*
D03*
X151593D02*
D03*
X158286D02*
D03*
X265900D02*
D03*
X272593D02*
D03*
X380207D02*
D03*
X386900D02*
D03*
X494014D02*
D03*
X500707D02*
D03*
X608321D02*
D03*
X615014D02*
D03*
X917965Y377153D02*
D03*
X924658D02*
D03*
X938657D02*
D03*
X931965D02*
D03*
X1443970Y343500D02*
D03*
X1450663D02*
D03*
X1534970D02*
D03*
X1541663D02*
D03*
X1443970Y286000D02*
D03*
X1450663D02*
D03*
X1534970D02*
D03*
X1541663D02*
D03*
X1443970Y228500D02*
D03*
X1450663D02*
D03*
X1534970D02*
D03*
X1541663D02*
D03*
X1443970Y171000D02*
D03*
X1450663D02*
D03*
X1534970D02*
D03*
X1541663D02*
D03*
D30*
X829000Y103847D02*
D03*
Y97154D02*
D03*
X501400Y486654D02*
D03*
Y493347D02*
D03*
X535685Y486307D02*
D03*
Y493000D02*
D03*
X1461663Y299654D02*
D03*
Y306347D02*
D03*
X1552663Y299654D02*
D03*
Y306347D02*
D03*
X1461663Y242154D02*
D03*
Y248847D02*
D03*
X1552663Y242154D02*
D03*
Y248847D02*
D03*
X1461663Y184653D02*
D03*
Y191347D02*
D03*
X1552663Y184653D02*
D03*
Y191347D02*
D03*
X1461663Y127154D02*
D03*
Y133846D02*
D03*
X1552663Y127154D02*
D03*
Y133846D02*
D03*
X1424663Y299654D02*
D03*
Y306347D02*
D03*
X1515663Y299654D02*
D03*
Y306347D02*
D03*
X1424663Y242154D02*
D03*
Y248847D02*
D03*
X1515663Y242154D02*
D03*
Y248847D02*
D03*
X1424663Y184653D02*
D03*
Y191347D02*
D03*
X1515663Y184653D02*
D03*
Y191347D02*
D03*
X1424663Y127154D02*
D03*
Y133846D02*
D03*
X1515663Y127154D02*
D03*
Y133846D02*
D03*
X1678500Y121153D02*
D03*
Y127847D02*
D03*
Y222153D02*
D03*
Y228847D02*
D03*
Y171693D02*
D03*
Y165000D02*
D03*
Y272693D02*
D03*
Y266000D02*
D03*
X1619500Y120653D02*
D03*
Y127347D02*
D03*
Y221654D02*
D03*
Y228346D02*
D03*
Y171846D02*
D03*
Y165154D02*
D03*
Y272847D02*
D03*
Y266154D02*
D03*
X822000Y97154D02*
D03*
Y103847D02*
D03*
X795000Y76153D02*
D03*
Y82846D02*
D03*
X802500Y76153D02*
D03*
Y82846D02*
D03*
X991788Y348807D02*
D03*
Y355500D02*
D03*
X298141Y265154D02*
D03*
Y271847D02*
D03*
X964988Y348807D02*
D03*
Y355500D02*
D03*
X271341Y265154D02*
D03*
Y271847D02*
D03*
X316700Y264653D02*
D03*
Y271346D02*
D03*
X343500Y264653D02*
D03*
Y271346D02*
D03*
X876602Y349153D02*
D03*
Y355847D02*
D03*
X361197Y265307D02*
D03*
Y272000D02*
D03*
X903402Y349153D02*
D03*
Y355847D02*
D03*
X388000Y265307D02*
D03*
Y272000D02*
D03*
X1252000Y122153D02*
D03*
Y128847D02*
D03*
X1260000Y115847D02*
D03*
Y109153D02*
D03*
Y122153D02*
D03*
Y128847D02*
D03*
X1252000Y115347D02*
D03*
Y108653D02*
D03*
X1208500Y122653D02*
D03*
Y129347D02*
D03*
Y115847D02*
D03*
Y109153D02*
D03*
X1215500Y122653D02*
D03*
Y129347D02*
D03*
Y115847D02*
D03*
Y109153D02*
D03*
X1144000Y123653D02*
D03*
Y130347D02*
D03*
Y114347D02*
D03*
Y107653D02*
D03*
X1151500Y123653D02*
D03*
Y130347D02*
D03*
Y114347D02*
D03*
Y107653D02*
D03*
X737500Y69890D02*
D03*
Y63197D02*
D03*
X725500Y69890D02*
D03*
Y63197D02*
D03*
X701500Y69890D02*
D03*
Y63197D02*
D03*
X689500Y69890D02*
D03*
Y63197D02*
D03*
X509400Y493347D02*
D03*
Y486654D02*
D03*
X1468970Y306347D02*
D03*
Y299654D02*
D03*
X1559970Y306347D02*
D03*
Y299654D02*
D03*
X1468970Y248847D02*
D03*
Y242154D02*
D03*
X1559970Y248847D02*
D03*
Y242154D02*
D03*
X1468970Y191347D02*
D03*
Y184653D02*
D03*
X1559970Y191347D02*
D03*
Y184653D02*
D03*
X1468970Y133846D02*
D03*
Y127154D02*
D03*
X1559970Y133846D02*
D03*
Y127154D02*
D03*
X1431663Y306347D02*
D03*
Y299654D02*
D03*
X1522663Y306347D02*
D03*
Y299654D02*
D03*
X1431663Y248847D02*
D03*
Y242154D02*
D03*
X1522663Y248847D02*
D03*
Y242154D02*
D03*
X1431663Y191347D02*
D03*
Y184653D02*
D03*
X1522663Y191347D02*
D03*
Y184653D02*
D03*
X1431663Y133846D02*
D03*
Y127154D02*
D03*
X1522663Y133846D02*
D03*
Y127154D02*
D03*
D32*
X767500Y71500D02*
D03*
X752004D02*
D03*
D35*
X1266500Y127287D02*
D03*
Y110711D02*
D03*
X1269059D02*
D03*
X1271618D02*
D03*
X1274177D02*
D03*
X1269059Y127287D02*
D03*
X1271618D02*
D03*
X1274177D02*
D03*
X1222000D02*
D03*
Y110711D02*
D03*
X1224559D02*
D03*
X1227118D02*
D03*
X1229677D02*
D03*
X1224559Y127287D02*
D03*
X1227118D02*
D03*
X1229677D02*
D03*
D45*
X1634500Y238102D02*
D03*
X1629500D02*
D03*
X1624500D02*
D03*
X1619500D02*
D03*
X1614500D02*
D03*
X1609500D02*
D03*
X1604500D02*
D03*
X1634500Y257000D02*
D03*
X1629500D02*
D03*
X1624500D02*
D03*
X1619500D02*
D03*
X1614500D02*
D03*
X1609500D02*
D03*
X1604500D02*
D03*
X1634500Y137102D02*
D03*
X1629500D02*
D03*
X1624500D02*
D03*
X1619500D02*
D03*
X1614500D02*
D03*
X1609500D02*
D03*
X1604500D02*
D03*
X1634500Y156000D02*
D03*
X1629500D02*
D03*
X1624500D02*
D03*
X1619500D02*
D03*
X1614500D02*
D03*
X1609500D02*
D03*
X1604500D02*
D03*
X1693500Y238102D02*
D03*
X1688500D02*
D03*
X1683500D02*
D03*
X1678500D02*
D03*
X1673500D02*
D03*
X1668500D02*
D03*
X1663500D02*
D03*
X1693500Y257000D02*
D03*
X1688500D02*
D03*
X1683500D02*
D03*
X1678500D02*
D03*
X1673500D02*
D03*
X1668500D02*
D03*
X1663500D02*
D03*
X1693500Y137102D02*
D03*
X1688500D02*
D03*
X1683500D02*
D03*
X1678500D02*
D03*
X1673500D02*
D03*
X1668500D02*
D03*
X1663500D02*
D03*
X1693500Y156000D02*
D03*
X1688500D02*
D03*
X1683500D02*
D03*
X1678500D02*
D03*
X1673500D02*
D03*
X1668500D02*
D03*
X1663500D02*
D03*
X11632Y135949D02*
D03*
X16632D02*
D03*
X21632D02*
D03*
X26632D02*
D03*
X31632D02*
D03*
X36632D02*
D03*
X41632D02*
D03*
X46632D02*
D03*
X11632Y117051D02*
D03*
X16632D02*
D03*
X21632D02*
D03*
X26632D02*
D03*
X31632D02*
D03*
X36632D02*
D03*
X41632D02*
D03*
X46632D02*
D03*
X111132Y117205D02*
D03*
X106132D02*
D03*
X101132D02*
D03*
X96132D02*
D03*
X91132D02*
D03*
X86132D02*
D03*
X81132D02*
D03*
X76132D02*
D03*
X111132Y136102D02*
D03*
X106132D02*
D03*
X101132D02*
D03*
X96132D02*
D03*
X91132D02*
D03*
X86132D02*
D03*
X81132D02*
D03*
X76132D02*
D03*
X160439Y117051D02*
D03*
X155439D02*
D03*
X150439D02*
D03*
X145439D02*
D03*
X140439D02*
D03*
X135439D02*
D03*
X130439D02*
D03*
X125439D02*
D03*
X160439Y135949D02*
D03*
X155439D02*
D03*
X150439D02*
D03*
X145439D02*
D03*
X140439D02*
D03*
X135439D02*
D03*
X130439D02*
D03*
X125439D02*
D03*
X502861Y117051D02*
D03*
X497861D02*
D03*
X492861D02*
D03*
X487861D02*
D03*
X482861D02*
D03*
X477861D02*
D03*
X472861D02*
D03*
X467861D02*
D03*
X502861Y135949D02*
D03*
X497861D02*
D03*
X492861D02*
D03*
X487861D02*
D03*
X482861D02*
D03*
X477861D02*
D03*
X472861D02*
D03*
X467861D02*
D03*
X224939Y117205D02*
D03*
X219939D02*
D03*
X214939D02*
D03*
X209939D02*
D03*
X204939D02*
D03*
X199939D02*
D03*
X194939D02*
D03*
X189939D02*
D03*
X224939Y136102D02*
D03*
X219939D02*
D03*
X214939D02*
D03*
X209939D02*
D03*
X204939D02*
D03*
X199939D02*
D03*
X194939D02*
D03*
X189939D02*
D03*
X274746Y117051D02*
D03*
X269746D02*
D03*
X264746D02*
D03*
X259747D02*
D03*
X254747D02*
D03*
X249746D02*
D03*
X244746D02*
D03*
X239746D02*
D03*
X274746Y135949D02*
D03*
X269746D02*
D03*
X264746D02*
D03*
X259747D02*
D03*
X254747D02*
D03*
X249746D02*
D03*
X244746D02*
D03*
X239746D02*
D03*
X339247Y117205D02*
D03*
X334246D02*
D03*
X329246D02*
D03*
X324247D02*
D03*
X319247D02*
D03*
X314247D02*
D03*
X309246D02*
D03*
X304246D02*
D03*
X339247Y136102D02*
D03*
X334246D02*
D03*
X329246D02*
D03*
X324247D02*
D03*
X319247D02*
D03*
X314247D02*
D03*
X309246D02*
D03*
X304246D02*
D03*
X389054Y117051D02*
D03*
X384053D02*
D03*
X379053D02*
D03*
X374054D02*
D03*
X369054D02*
D03*
X364054D02*
D03*
X359053D02*
D03*
X354053D02*
D03*
X389054Y135949D02*
D03*
X384053D02*
D03*
X379053D02*
D03*
X374054D02*
D03*
X369054D02*
D03*
X364054D02*
D03*
X359053D02*
D03*
X354053D02*
D03*
X453553Y117205D02*
D03*
X448554D02*
D03*
X443553D02*
D03*
X438553D02*
D03*
X433554D02*
D03*
X428553D02*
D03*
X423554D02*
D03*
X418553D02*
D03*
X453553Y136102D02*
D03*
X448554D02*
D03*
X443553D02*
D03*
X438553D02*
D03*
X433554D02*
D03*
X428553D02*
D03*
X423554D02*
D03*
X418553D02*
D03*
X567361Y117205D02*
D03*
X562361D02*
D03*
X557361D02*
D03*
X552361D02*
D03*
X547361D02*
D03*
X542361D02*
D03*
X537361D02*
D03*
X532361D02*
D03*
X567361Y136102D02*
D03*
X562361D02*
D03*
X557361D02*
D03*
X552361D02*
D03*
X547361D02*
D03*
X542361D02*
D03*
X537361D02*
D03*
X532361D02*
D03*
X617168Y117051D02*
D03*
X612168D02*
D03*
X607168D02*
D03*
X602168D02*
D03*
X597168D02*
D03*
X592168D02*
D03*
X587168D02*
D03*
X582168D02*
D03*
X617168Y135949D02*
D03*
X612168D02*
D03*
X607168D02*
D03*
X602168D02*
D03*
X597168D02*
D03*
X592168D02*
D03*
X587168D02*
D03*
X582168D02*
D03*
X681668Y117205D02*
D03*
X676668D02*
D03*
X671668D02*
D03*
X666668D02*
D03*
X661668D02*
D03*
X656668D02*
D03*
X651668D02*
D03*
X646668D02*
D03*
X681668Y136102D02*
D03*
X676668D02*
D03*
X671668D02*
D03*
X666668D02*
D03*
X661668D02*
D03*
X656668D02*
D03*
X651668D02*
D03*
X646668D02*
D03*
D53*
X1159425Y130024D02*
D03*
X1161984D02*
D03*
X1164543D02*
D03*
X1167102D02*
D03*
X1169661D02*
D03*
X1172221D02*
D03*
X1174780D02*
D03*
X1177339D02*
D03*
X1179898D02*
D03*
X1182457D02*
D03*
X1185016D02*
D03*
X1187575D02*
D03*
X1159425Y107976D02*
D03*
X1161984D02*
D03*
X1164543D02*
D03*
X1167102D02*
D03*
X1169661D02*
D03*
X1172221D02*
D03*
X1174780D02*
D03*
X1177339D02*
D03*
X1179898D02*
D03*
X1182457D02*
D03*
X1185016D02*
D03*
X1187575D02*
D03*
D55*
X1512516Y96051D02*
X1567516D01*
X1622516D01*
X441500Y164000D02*
Y191499D01*
X241500Y401881D02*
X272823Y433204D01*
X241500Y263535D02*
Y401881D01*
D96*
X519700Y43900D02*
D03*
X530600D02*
D03*
X552400D02*
D03*
X541500D02*
D03*
X585100D02*
D03*
X596000D02*
D03*
X574200D02*
D03*
X563300D02*
D03*
X525150Y32700D02*
D03*
X536050D02*
D03*
X557850D02*
D03*
X546950D02*
D03*
X590550D02*
D03*
X579650D02*
D03*
X568750D02*
D03*
X546950Y59300D02*
D03*
X536050D02*
D03*
X525150D02*
D03*
X568750D02*
D03*
X557850D02*
D03*
X579650D02*
D03*
X590550D02*
D03*
X563300Y70500D02*
D03*
X574200D02*
D03*
X596000D02*
D03*
X585100D02*
D03*
X541500D02*
D03*
X552400D02*
D03*
X530600D02*
D03*
X519700D02*
D03*
X359967Y43900D02*
D03*
X370867D02*
D03*
X392667D02*
D03*
X381767D02*
D03*
X425367D02*
D03*
X436267D02*
D03*
X414467D02*
D03*
X403567D02*
D03*
X365417Y32700D02*
D03*
X376317D02*
D03*
X398117D02*
D03*
X387217D02*
D03*
X430817D02*
D03*
X419917D02*
D03*
X409017D02*
D03*
X387217Y59300D02*
D03*
X376317D02*
D03*
X365417D02*
D03*
X409017D02*
D03*
X398117D02*
D03*
X419917D02*
D03*
X430817D02*
D03*
X403567Y70500D02*
D03*
X414467D02*
D03*
X436267D02*
D03*
X425367D02*
D03*
X381767D02*
D03*
X392667D02*
D03*
X370867D02*
D03*
X359967D02*
D03*
X200233Y43900D02*
D03*
X211133D02*
D03*
X232933D02*
D03*
X222033D02*
D03*
X265633D02*
D03*
X276533D02*
D03*
X254733D02*
D03*
X243833D02*
D03*
X205683Y32700D02*
D03*
X216583D02*
D03*
X238383D02*
D03*
X227483D02*
D03*
X271083D02*
D03*
X260183D02*
D03*
X249283D02*
D03*
X227483Y59300D02*
D03*
X216583D02*
D03*
X205683D02*
D03*
X249283D02*
D03*
X238383D02*
D03*
X260183D02*
D03*
X271083D02*
D03*
X243833Y70500D02*
D03*
X254733D02*
D03*
X276533D02*
D03*
X265633D02*
D03*
X222033D02*
D03*
X232933D02*
D03*
X211133D02*
D03*
X200233D02*
D03*
X40500Y43900D02*
D03*
X51400D02*
D03*
X73200D02*
D03*
X62300D02*
D03*
X105900D02*
D03*
X116800D02*
D03*
X95000D02*
D03*
X84100D02*
D03*
X45950Y32700D02*
D03*
X56850D02*
D03*
X78650D02*
D03*
X67750D02*
D03*
X111350D02*
D03*
X100450D02*
D03*
X89550D02*
D03*
X67750Y59300D02*
D03*
X56850D02*
D03*
X45950D02*
D03*
X89550D02*
D03*
X78650D02*
D03*
X100450D02*
D03*
X111350D02*
D03*
X84100Y70500D02*
D03*
X95000D02*
D03*
X116800D02*
D03*
X105900D02*
D03*
X62300D02*
D03*
X73200D02*
D03*
X51400D02*
D03*
X40500D02*
D03*
X1188800Y44000D02*
D03*
X1199700D02*
D03*
X1221500D02*
D03*
X1210600D02*
D03*
X1254200D02*
D03*
X1265100D02*
D03*
X1243300D02*
D03*
X1232400D02*
D03*
X1194250Y32800D02*
D03*
X1205150D02*
D03*
X1226950D02*
D03*
X1216050D02*
D03*
X1259650D02*
D03*
X1248750D02*
D03*
X1237850D02*
D03*
X1216050Y59400D02*
D03*
X1205150D02*
D03*
X1194250D02*
D03*
X1237850D02*
D03*
X1226950D02*
D03*
X1248750D02*
D03*
X1259650D02*
D03*
X1232400Y70600D02*
D03*
X1243300D02*
D03*
X1265100D02*
D03*
X1254200D02*
D03*
X1210600D02*
D03*
X1221500D02*
D03*
X1199700D02*
D03*
X1188800D02*
D03*
D97*
X492250Y32700D02*
D03*
Y64200D02*
D03*
X623450D02*
D03*
Y32700D02*
D03*
X332517D02*
D03*
Y64200D02*
D03*
X463717D02*
D03*
Y32700D02*
D03*
X172783D02*
D03*
Y64200D02*
D03*
X303983D02*
D03*
Y32700D02*
D03*
X13050D02*
D03*
Y64200D02*
D03*
X144250D02*
D03*
Y32700D02*
D03*
X1161350Y32800D02*
D03*
Y64300D02*
D03*
X1292550D02*
D03*
Y32800D02*
D03*
D98*
X299760Y473842D02*
D03*
X330075D02*
D03*
X299760Y454157D02*
D03*
X330075D02*
D03*
X91760Y473842D02*
D03*
X122075D02*
D03*
X91760Y454157D02*
D03*
X122075D02*
D03*
X304500Y400999D02*
D03*
X324500D02*
D03*
X364500D02*
D03*
Y220999D02*
D03*
X384500D02*
D03*
X334500D02*
D03*
X314500D02*
D03*
X284500D02*
D03*
X254500D02*
D03*
X97571Y400999D02*
D03*
X117571D02*
D03*
X157571D02*
D03*
Y220999D02*
D03*
X177571D02*
D03*
X127571D02*
D03*
X107571D02*
D03*
X77571D02*
D03*
X47571D02*
D03*
X897433Y22303D02*
D03*
X869835D02*
D03*
X979441Y22563D02*
D03*
X951842D02*
D03*
D99*
X683900Y39303D02*
D03*
Y29303D02*
D03*
Y19303D02*
D03*
X743100Y29303D02*
D03*
Y19303D02*
D03*
X516000Y509000D02*
D03*
X535685D02*
D03*
X430158D02*
D03*
X449843D02*
D03*
X492842D02*
D03*
X473158D02*
D03*
D100*
X733500Y80303D02*
D03*
X725508D02*
D03*
X717508D02*
D03*
X693508D02*
D03*
X701508D02*
D03*
X709500D02*
D03*
X729500Y90303D02*
D03*
X721500D02*
D03*
X737500D02*
D03*
X705500D02*
D03*
X697500D02*
D03*
X689500D02*
D03*
X1042500Y56000D02*
D03*
X1143500Y17000D02*
D03*
X1042500Y36000D02*
D03*
Y16000D02*
D03*
X369000Y422000D02*
D03*
X331999Y504999D02*
D03*
X124000Y505000D02*
D03*
D101*
X748100Y54303D02*
D03*
X678900D02*
D03*
D102*
X1365547Y31909D02*
D03*
X1354642D02*
D03*
X1376453D02*
D03*
X1387358D02*
D03*
X1392811Y43091D02*
D03*
X1381905D02*
D03*
X1371000D02*
D03*
X1349189D02*
D03*
X1360095D02*
D03*
X1085000Y441000D02*
D03*
Y431000D02*
D03*
Y421000D02*
D03*
X1075000D02*
D03*
Y431000D02*
D03*
Y441000D02*
D03*
X461500Y191499D02*
D03*
X451500D02*
D03*
X441500D02*
D03*
X451500Y201499D02*
D03*
X1310500Y187500D02*
D03*
Y197500D02*
D03*
Y207500D02*
D03*
Y217500D02*
D03*
X1300500D02*
D03*
Y207500D02*
D03*
Y197500D02*
D03*
Y187500D02*
D03*
X1492516Y63059D02*
D03*
X1482516D02*
D03*
X1472516D02*
D03*
X1502516D02*
D03*
X1467516Y53059D02*
D03*
X1477516D02*
D03*
X1487516D02*
D03*
X1497516D02*
D03*
Y79043D02*
D03*
X1487516D02*
D03*
X1477516D02*
D03*
X1467516D02*
D03*
X1502516Y89043D02*
D03*
X1472516D02*
D03*
X1482516D02*
D03*
X1492516D02*
D03*
X1547516Y63059D02*
D03*
X1537516D02*
D03*
X1527516D02*
D03*
X1557516D02*
D03*
X1522516Y53059D02*
D03*
X1532516D02*
D03*
X1542516D02*
D03*
X1552516D02*
D03*
Y79043D02*
D03*
X1542516D02*
D03*
X1532516D02*
D03*
X1522516D02*
D03*
X1557516Y89043D02*
D03*
X1527516D02*
D03*
X1537516D02*
D03*
X1547516D02*
D03*
X1602516Y63059D02*
D03*
X1592516D02*
D03*
X1582516D02*
D03*
X1612516D02*
D03*
X1577516Y53059D02*
D03*
X1587516D02*
D03*
X1597516D02*
D03*
X1607516D02*
D03*
Y79043D02*
D03*
X1597516D02*
D03*
X1587516D02*
D03*
X1577516D02*
D03*
X1612516Y89043D02*
D03*
X1582516D02*
D03*
X1592516D02*
D03*
X1602516D02*
D03*
X1657516D02*
D03*
X1647516D02*
D03*
X1637516D02*
D03*
X1667516D02*
D03*
X1632516Y79043D02*
D03*
X1642516D02*
D03*
X1652516D02*
D03*
X1662516D02*
D03*
Y53059D02*
D03*
X1652516D02*
D03*
X1642516D02*
D03*
X1632516D02*
D03*
X1667516Y63059D02*
D03*
X1637516D02*
D03*
X1647516D02*
D03*
X1657516D02*
D03*
X567000Y172000D02*
D03*
X557000D02*
D03*
X547000D02*
D03*
X566983Y185000D02*
D03*
X556983D02*
D03*
X546983D02*
D03*
X1310500Y308000D02*
D03*
Y298000D02*
D03*
Y288000D02*
D03*
Y278000D02*
D03*
X1300500D02*
D03*
Y288000D02*
D03*
Y298000D02*
D03*
Y308000D02*
D03*
X1310500Y263000D02*
D03*
Y253000D02*
D03*
Y243000D02*
D03*
Y233000D02*
D03*
X1300500D02*
D03*
Y243000D02*
D03*
Y253000D02*
D03*
Y263000D02*
D03*
X485000Y404000D02*
D03*
Y394000D02*
D03*
Y384000D02*
D03*
X475000D02*
D03*
Y394000D02*
D03*
Y404000D02*
D03*
X326000Y196599D02*
D03*
X316000D02*
D03*
X177571Y198000D02*
D03*
X167571D02*
D03*
X95571D02*
D03*
X105571D02*
D03*
X211000Y474000D02*
D03*
Y464000D02*
D03*
Y454000D02*
D03*
X451500Y174000D02*
D03*
X441500Y164000D02*
D03*
X451500D02*
D03*
X461500D02*
D03*
X793000Y64000D02*
D03*
Y54000D02*
D03*
Y44000D02*
D03*
X767000Y46000D02*
D03*
X757000D02*
D03*
X1131500Y130289D02*
D03*
Y140289D02*
D03*
X1092500Y120000D02*
D03*
X1102500D02*
D03*
X1082500D02*
D03*
X1072500D02*
D03*
X1112500D02*
D03*
X1122500D02*
D03*
X1062500D02*
D03*
Y110000D02*
D03*
X1072500D02*
D03*
X1082500D02*
D03*
X1092500D02*
D03*
X1102500D02*
D03*
X1112500D02*
D03*
X1122500D02*
D03*
X1210000Y171500D02*
D03*
X1200000D02*
D03*
X1190000D02*
D03*
X1238500Y158500D02*
D03*
X1248500D02*
D03*
X1258500D02*
D03*
X1210000D02*
D03*
X1200000D02*
D03*
X1190000D02*
D03*
X1238500Y171500D02*
D03*
X1248500D02*
D03*
X1258500D02*
D03*
X1417500Y58000D02*
D03*
Y68000D02*
D03*
X892492Y12500D02*
D03*
X874776D02*
D03*
X974500Y12760D02*
D03*
X956783D02*
D03*
X481500Y275500D02*
D03*
X985388Y394894D02*
D03*
Y409394D02*
D03*
X978388Y402153D02*
D03*
X971388Y409394D02*
D03*
Y394394D02*
D03*
X897002Y394894D02*
D03*
Y409394D02*
D03*
X890002Y402153D02*
D03*
X883002Y409394D02*
D03*
Y394394D02*
D03*
X381600Y325305D02*
D03*
X374600Y318065D02*
D03*
X381600Y310805D02*
D03*
X367600Y310305D02*
D03*
Y325305D02*
D03*
X337100Y325305D02*
D03*
Y310805D02*
D03*
X330100Y318065D02*
D03*
X323100Y325305D02*
D03*
Y310305D02*
D03*
X326000Y212500D02*
D03*
X291741Y311240D02*
D03*
Y325740D02*
D03*
X284741Y318500D02*
D03*
X277741Y325740D02*
D03*
Y310740D02*
D03*
X553000Y477500D02*
D03*
X439500Y59000D02*
D03*
X483014Y48000D02*
D03*
X444500Y43900D02*
D03*
X105571Y208429D02*
D03*
X177571Y208500D02*
D03*
X241500Y263535D02*
D03*
X272823Y433204D02*
D03*
X123500Y198000D02*
D03*
X43500D02*
D03*
D103*
X1321807Y37500D02*
D03*
X1420193D02*
D03*
D104*
X690831Y458789D02*
D03*
X936831Y459339D02*
D03*
Y284339D02*
D03*
D105*
X690831Y284789D02*
D03*
X762831Y459339D02*
D03*
Y284339D02*
D03*
X1645000Y420832D02*
D03*
X1651500Y421500D02*
D03*
X156500Y88900D02*
D03*
X311503Y93654D02*
D03*
X630969Y93500D02*
D03*
X752000Y95702D02*
D03*
X743500Y112000D02*
D03*
X768997Y111500D02*
D03*
X1160500Y91298D02*
D03*
X1312087Y66616D02*
D03*
X1367786Y105000D02*
D03*
X1396500D02*
D03*
X1384000Y54303D02*
D03*
X1349000Y78820D02*
D03*
X1330500Y81000D02*
D03*
X1341500Y91677D02*
D03*
X1326500Y85000D02*
D03*
X1316000Y87500D02*
D03*
X1325500Y101000D02*
D03*
X823500Y23500D02*
D03*
X783000Y24000D02*
D03*
X998500Y351000D02*
D03*
X959000D02*
D03*
X909500Y352000D02*
D03*
X883302Y351000D02*
D03*
X264500Y271346D02*
D03*
X394500Y272000D02*
D03*
X355500D02*
D03*
X350000D02*
D03*
X310000D02*
D03*
X304500Y272000D02*
D03*
X367900Y293000D02*
D03*
X291441D02*
D03*
X323400D02*
D03*
X381600Y265500D02*
D03*
X278000D02*
D03*
X336800D02*
D03*
X922000Y342500D02*
D03*
X883302Y377067D02*
D03*
X871500Y355847D02*
D03*
X896702Y360000D02*
D03*
X897002Y347000D02*
D03*
X971688Y360000D02*
D03*
Y350000D02*
D03*
X1676000Y473307D02*
D03*
X1524500D02*
D03*
X1635500Y468500D02*
D03*
X1636000Y424000D02*
D03*
X1481000Y468500D02*
D03*
X1485642Y425342D02*
D03*
X1668000Y417000D02*
D03*
X1616000D02*
D03*
X1516000D02*
D03*
X1464500D02*
D03*
X1676500Y403500D02*
D03*
X1636000D02*
D03*
X1611000Y410307D02*
D03*
X1317000Y403000D02*
D03*
X1289500Y134500D02*
D03*
X1247130Y258630D02*
D03*
X1247000Y249500D02*
D03*
X881000Y193000D02*
D03*
X1200500Y188700D02*
D03*
X875500Y187500D02*
D03*
X863000Y182500D02*
D03*
X541500Y488500D02*
D03*
X162605Y171000D02*
D03*
X355199Y167500D02*
D03*
X398500Y164600D02*
D03*
X764500Y116500D02*
D03*
X390500Y164600D02*
D03*
X238500Y166000D02*
D03*
X55000Y163500D02*
D03*
X272500Y156000D02*
D03*
X158500Y155500D02*
D03*
X44500Y156000D02*
D03*
X926311Y388154D02*
D03*
X1619500Y455000D02*
D03*
X1472500Y448000D02*
D03*
Y436000D02*
D03*
X1621847Y432927D02*
D03*
X1472500Y404859D02*
D03*
X1310000Y402500D02*
D03*
X1472500Y395000D02*
D03*
X1317000Y395500D02*
D03*
X787500Y301500D02*
D03*
X878000Y195091D02*
D03*
X875500Y183000D02*
D03*
X615000Y174000D02*
D03*
X574500Y160000D02*
D03*
X530000Y160587D02*
D03*
X1293500Y134500D02*
D03*
X1251000Y135000D02*
D03*
X1208000D02*
D03*
X1139000Y130500D02*
D03*
X794000Y126000D02*
D03*
X573500Y121500D02*
D03*
X794000Y107000D02*
D03*
X920000Y66500D02*
D03*
X500500Y173500D02*
D03*
X392048Y204479D02*
D03*
X438707Y156707D02*
D03*
X391500Y171000D02*
D03*
X391888Y156500D02*
D03*
X272500Y173000D02*
D03*
X44500Y173500D02*
D03*
X238500Y161500D02*
D03*
X193000D02*
D03*
X162605Y165000D02*
D03*
X121331Y161831D02*
D03*
X80000Y162000D02*
D03*
X519500Y121500D02*
D03*
X415000Y120500D02*
D03*
X357361Y123653D02*
D03*
X504000Y97500D02*
D03*
X340000Y97000D02*
D03*
X247000Y108500D02*
D03*
X94500Y123500D02*
D03*
X38500D02*
D03*
X197339Y108600D02*
D03*
X28000Y89500D02*
D03*
X189000Y85500D02*
D03*
X930311Y388154D02*
D03*
X918000Y372307D02*
D03*
X978388Y358653D02*
D03*
X890002D02*
D03*
X374600Y274565D02*
D03*
X330100Y274565D02*
D03*
X284741Y275000D02*
D03*
X752000Y86197D02*
D03*
X767500Y61500D02*
D03*
X768000Y80000D02*
D03*
X175000Y160980D02*
D03*
X185500Y161000D02*
D03*
X435500Y197000D02*
D03*
X384000D02*
D03*
X301500Y177000D02*
D03*
Y164000D02*
D03*
X364054Y123653D02*
D03*
X381783Y92500D02*
D03*
X457000Y90000D02*
D03*
X267457Y101667D02*
D03*
X267483Y108807D02*
D03*
X217615Y111600D02*
D03*
X185500Y119000D02*
D03*
X217615Y94500D02*
D03*
X1384800Y477500D02*
D03*
Y492500D02*
D03*
X1362738D02*
D03*
Y477500D02*
D03*
X1275000Y103500D02*
D03*
X1186500Y117500D02*
D03*
X1160500Y100425D02*
D03*
X1220163Y155000D02*
D03*
X1160000Y136500D02*
D03*
X1215500Y155000D02*
D03*
X1190266Y135525D02*
D03*
X450000Y144276D02*
D03*
X13979Y88500D02*
D03*
X901500Y4413D02*
D03*
X403500Y217000D02*
D03*
X485000Y185000D02*
D03*
X765500Y136500D02*
D03*
X865000Y179000D02*
D03*
X866500Y187500D02*
D03*
X788500Y286000D02*
D03*
X869500Y184000D02*
D03*
X906500Y49500D02*
D03*
X922500D02*
D03*
X914500D02*
D03*
X927500Y77500D02*
D03*
X913000Y78500D02*
D03*
X888000Y194000D02*
D03*
X1196000Y190000D02*
D03*
X876000Y191500D02*
D03*
X347500Y228000D02*
D03*
Y223500D02*
D03*
X894000Y444000D02*
D03*
X893311Y301500D02*
D03*
X706500Y364000D02*
D03*
X689000Y360815D02*
D03*
X862500Y343500D02*
D03*
Y303000D02*
D03*
X859000Y27014D02*
D03*
X1678500Y146500D02*
D03*
X1619500D02*
D03*
X1405000Y165500D02*
D03*
X1409500Y144500D02*
D03*
Y129000D02*
D03*
X1678500Y247500D02*
D03*
X1619500D02*
D03*
X1361000Y165500D02*
D03*
X1413500Y144500D02*
D03*
Y129000D02*
D03*
X1555163Y317000D02*
D03*
Y259500D02*
D03*
X1464163Y317000D02*
D03*
Y259500D02*
D03*
X1405000Y138500D02*
D03*
X1555163Y202000D02*
D03*
Y144500D02*
D03*
X1464163Y202000D02*
D03*
Y144500D02*
D03*
X1361000Y138500D02*
D03*
X1697000Y287000D02*
D03*
Y231000D02*
D03*
X1684000Y193000D02*
D03*
X1683500Y128000D02*
D03*
X1614500Y127500D02*
D03*
X1410000Y357390D02*
D03*
X1342500Y345000D02*
D03*
X1363000Y105000D02*
D03*
X1614500Y193000D02*
D03*
X1583500Y351000D02*
D03*
Y343500D02*
D03*
X1596000Y193000D02*
D03*
X1684000Y165000D02*
D03*
X1614000D02*
D03*
X1386500Y345000D02*
D03*
X1560163Y217500D02*
D03*
X1469163D02*
D03*
Y225500D02*
D03*
X1475500Y178500D02*
D03*
X1560163Y160000D02*
D03*
X1469163D02*
D03*
X1382500Y198000D02*
D03*
X1403500Y189500D02*
D03*
X1342500Y198000D02*
D03*
X1457500Y178500D02*
D03*
X1428000D02*
D03*
X1421500D02*
D03*
X1391714Y105000D02*
D03*
X1515663Y217000D02*
D03*
Y159500D02*
D03*
X1464500Y222000D02*
D03*
X1457500D02*
D03*
X1424663Y217000D02*
D03*
X1386500Y198000D02*
D03*
X1424663Y159500D02*
D03*
X1515663Y332000D02*
D03*
Y274500D02*
D03*
X1424663Y332000D02*
D03*
Y274500D02*
D03*
X1386500Y247000D02*
D03*
X1386928Y105000D02*
D03*
X1560163Y332500D02*
D03*
X1469200Y340100D02*
D03*
X1469163Y332500D02*
D03*
X1560163Y275000D02*
D03*
X1469163D02*
D03*
X1398000Y265500D02*
D03*
X1379500Y247000D02*
D03*
X1342500D02*
D03*
X1382143Y105000D02*
D03*
X1684000Y294000D02*
D03*
X1408500Y303000D02*
D03*
X1683500Y229000D02*
D03*
X1614500Y228500D02*
D03*
X1383500Y303000D02*
D03*
X1342500Y296000D02*
D03*
X1372571Y105000D02*
D03*
X1614500Y294000D02*
D03*
X1510500Y294500D02*
D03*
X1482516D02*
D03*
X1460500Y293000D02*
D03*
X1418000D02*
D03*
X1684000Y266000D02*
D03*
X1614000D02*
D03*
X1440000Y64500D02*
D03*
X1386500Y296000D02*
D03*
X1377357Y105000D02*
D03*
X1356000Y144500D02*
D03*
X1335000D02*
D03*
X1374600Y126894D02*
D03*
X1378500Y492500D02*
D03*
X1391000D02*
D03*
X1378500Y477500D02*
D03*
X1391000D02*
D03*
X1369000D02*
D03*
X1356500D02*
D03*
X1369000Y492500D02*
D03*
X1356500D02*
D03*
X1404500Y323500D02*
D03*
X1387500D02*
D03*
X1373500Y328300D02*
D03*
X1360500Y323500D02*
D03*
X1343500D02*
D03*
X1403000Y363500D02*
D03*
X1359000Y364000D02*
D03*
X1404500Y274500D02*
D03*
X1387500D02*
D03*
X1373500Y279300D02*
D03*
X1360500Y274500D02*
D03*
X1343500D02*
D03*
X1403000Y314500D02*
D03*
X1359000Y315000D02*
D03*
X1404500Y225500D02*
D03*
X1387500D02*
D03*
X1373500Y230300D02*
D03*
X1360500Y225500D02*
D03*
X1343500D02*
D03*
X1403000Y265500D02*
D03*
X1359000Y266000D02*
D03*
X1373500Y181300D02*
D03*
X920714Y96051D02*
D03*
X922000Y306000D02*
D03*
X785264Y283154D02*
D03*
X782000Y286500D02*
D03*
X923846Y268500D02*
D03*
X460000Y130024D02*
D03*
X176000Y123500D02*
D03*
X117571Y126500D02*
D03*
X72000Y130289D02*
D03*
X52500D02*
D03*
X518400Y482433D02*
D03*
X505400Y471000D02*
D03*
X1046591Y327591D02*
D03*
X1069591Y304591D02*
D03*
X1260000Y135000D02*
D03*
Y146500D02*
D03*
X764954Y330954D02*
D03*
X716409Y330591D02*
D03*
X951909Y311962D02*
D03*
X933500Y302900D02*
D03*
X1072137Y307137D02*
D03*
X1049137Y330137D02*
D03*
X767500Y333500D02*
D03*
X713863Y333137D02*
D03*
X949363Y314508D02*
D03*
X933500Y306500D02*
D03*
X690831Y357390D02*
D03*
X1238000Y146500D02*
D03*
Y135000D02*
D03*
X1215500Y146500D02*
D03*
Y135000D02*
D03*
X718954Y328046D02*
D03*
X721500Y325500D02*
D03*
X759863Y325863D02*
D03*
X762409Y328409D02*
D03*
X933500Y295700D02*
D03*
Y299300D02*
D03*
X954454Y309417D02*
D03*
X957000Y306871D02*
D03*
X1041500Y322500D02*
D03*
X1044046Y325046D02*
D03*
X1067046Y302046D02*
D03*
X1064500Y299500D02*
D03*
X948730Y428000D02*
D03*
X941530D02*
D03*
X945130D02*
D03*
X948730Y413000D02*
D03*
X941530D02*
D03*
X945130D02*
D03*
X867153Y443237D02*
D03*
X857930D02*
D03*
X854330D02*
D03*
X848481D02*
D03*
X844881D02*
D03*
X839032D02*
D03*
X811000D02*
D03*
X816535D02*
D03*
X820135D02*
D03*
X825983D02*
D03*
X829583D02*
D03*
X835432D02*
D03*
X914397Y301500D02*
D03*
Y268500D02*
D03*
X906000D02*
D03*
X894334Y240575D02*
D03*
X897000Y243000D02*
D03*
X881894Y240015D02*
D03*
X884500Y242500D02*
D03*
X872000Y242000D02*
D03*
X875000Y244500D02*
D03*
X862500D02*
D03*
X865500Y247500D02*
D03*
X850262Y244147D02*
D03*
X853000Y246500D02*
D03*
X840822Y246587D02*
D03*
X843500Y249000D02*
D03*
X831382Y249026D02*
D03*
X834000Y251500D02*
D03*
X821894Y251515D02*
D03*
X824500Y254000D02*
D03*
X812500D02*
D03*
X815000Y257000D02*
D03*
X803234Y257175D02*
D03*
X806000Y259500D02*
D03*
X793294Y259115D02*
D03*
X796000Y261500D02*
D03*
X907873Y301500D02*
D03*
X902024Y301275D02*
D03*
X898424D02*
D03*
X889426Y301500D02*
D03*
X885826D02*
D03*
X876377Y301275D02*
D03*
X879977D02*
D03*
X866928D02*
D03*
X870528D02*
D03*
X857930D02*
D03*
X854330D02*
D03*
X848481Y301500D02*
D03*
X844881D02*
D03*
X839032D02*
D03*
X835432D02*
D03*
X829583D02*
D03*
X825984D02*
D03*
X820135D02*
D03*
X816535D02*
D03*
X791563Y267000D02*
D03*
X810686Y301500D02*
D03*
X807086D02*
D03*
X797637D02*
D03*
X801237D02*
D03*
X791563D02*
D03*
X758000Y261500D02*
D03*
X761000Y264000D02*
D03*
X764000Y261500D02*
D03*
X767000Y264000D02*
D03*
X915500Y96051D02*
D03*
X778965Y284339D02*
D03*
X775365D02*
D03*
X771765D02*
D03*
X923000Y80500D02*
D03*
X900000Y103667D02*
D03*
X901500Y46020D02*
D03*
X803612Y474100D02*
D03*
X794163Y483500D02*
D03*
Y474100D02*
D03*
X807311Y443237D02*
D03*
X780091Y483091D02*
D03*
X777546Y480546D02*
D03*
X775000Y478000D02*
D03*
X801237Y443237D02*
D03*
X797637D02*
D03*
X792013Y443500D02*
D03*
X784813D02*
D03*
X788413D02*
D03*
X664500Y414309D02*
D03*
X675500Y404859D02*
D03*
X690831Y400500D02*
D03*
X670500Y404859D02*
D03*
X664500Y404859D02*
D03*
X670500Y414308D02*
D03*
Y423757D02*
D03*
X664500D02*
D03*
X670500Y433000D02*
D03*
X664500Y433206D02*
D03*
X670500Y442654D02*
D03*
X664500D02*
D03*
X693000Y411384D02*
D03*
Y407784D02*
D03*
Y420832D02*
D03*
Y417232D02*
D03*
Y430281D02*
D03*
Y426681D02*
D03*
Y439730D02*
D03*
Y436130D02*
D03*
X690831Y310371D02*
D03*
X690831Y348166D02*
D03*
X690831Y395411D02*
D03*
X693000Y449179D02*
D03*
Y445579D02*
D03*
X536665Y165000D02*
D03*
X422500Y160558D02*
D03*
X373500Y172500D02*
D03*
X106500Y159653D02*
D03*
X79323Y125500D02*
D03*
X60000Y159500D02*
D03*
X74500Y163500D02*
D03*
X773215Y456777D02*
D03*
X779000Y461500D02*
D03*
X774300Y436400D02*
D03*
X775500Y440000D02*
D03*
X778965Y457500D02*
D03*
X710536Y94036D02*
D03*
X710500Y98000D02*
D03*
X720500Y386900D02*
D03*
X717000Y389500D02*
D03*
X713000D02*
D03*
X784500Y141500D02*
D03*
X756000D02*
D03*
X784500Y137500D02*
D03*
Y70341D02*
D03*
X675500Y401000D02*
D03*
X772500Y35000D02*
D03*
X675500Y397321D02*
D03*
X775046Y37546D02*
D03*
X675500Y393500D02*
D03*
X778000Y40500D02*
D03*
X24132Y122341D02*
D03*
X556819Y105000D02*
D03*
X536665Y160558D02*
D03*
X517415Y145634D02*
D03*
X431000Y142667D02*
D03*
X404538Y108500D02*
D03*
X381500Y142000D02*
D03*
X344530Y108600D02*
D03*
X1266500Y122653D02*
D03*
X1274177D02*
D03*
X1221921D02*
D03*
X1229677D02*
D03*
X1011500Y42000D02*
D03*
X1001500D02*
D03*
X991500D02*
D03*
X1096500Y144500D02*
D03*
X1646500Y466051D02*
D03*
X1646000Y190000D02*
D03*
X1664000Y452543D02*
D03*
X1646000Y203000D02*
D03*
X1648453Y425000D02*
D03*
X1652000Y190000D02*
D03*
X1654358Y425000D02*
D03*
X1652000Y203000D02*
D03*
Y291000D02*
D03*
X1664000Y458500D02*
D03*
X1652000Y304000D02*
D03*
X1664000Y440732D02*
D03*
Y434827D02*
D03*
X1646000Y291000D02*
D03*
X1652390Y466051D02*
D03*
X1646000Y304000D02*
D03*
X1661300Y376500D02*
D03*
X1657700D02*
D03*
X1654100D02*
D03*
X1650500D02*
D03*
X1636100D02*
D03*
X1639700D02*
D03*
X1643300D02*
D03*
X1646900D02*
D03*
X1584500Y456217D02*
D03*
X1575653Y456193D02*
D03*
X1565500Y449500D02*
D03*
X1611500Y454904D02*
D03*
X1615154Y432927D02*
D03*
X1660000Y468000D02*
D03*
X1623000Y480000D02*
D03*
X1676000D02*
D03*
X1616000Y410307D02*
D03*
X1669000D02*
D03*
X1679847Y414308D02*
D03*
X1673153D02*
D03*
X1679847Y466000D02*
D03*
X1673153Y466051D02*
D03*
X1565525Y475500D02*
D03*
X1576000Y501500D02*
D03*
Y495154D02*
D03*
X1443663Y327500D02*
D03*
Y270000D02*
D03*
X1501390Y467000D02*
D03*
X1495500D02*
D03*
X1456500Y448654D02*
D03*
Y438654D02*
D03*
X1526847Y415500D02*
D03*
Y467433D02*
D03*
X1472516Y480000D02*
D03*
X1524500D02*
D03*
X1509000Y468500D02*
D03*
X1522000Y415500D02*
D03*
X1520154Y467433D02*
D03*
X1501390Y421500D02*
D03*
X1494000Y422500D02*
D03*
X1517000Y410307D02*
D03*
X1464500D02*
D03*
X1512643Y434827D02*
D03*
X1513000Y453500D02*
D03*
Y459500D02*
D03*
X1504000Y424500D02*
D03*
X1498500D02*
D03*
X1514000Y440732D02*
D03*
X1534663Y327500D02*
D03*
Y270000D02*
D03*
Y212500D02*
D03*
Y155000D02*
D03*
X1443663Y212500D02*
D03*
Y155000D02*
D03*
Y145500D02*
D03*
X1451163D02*
D03*
Y260500D02*
D03*
X1443663D02*
D03*
X1451163Y318000D02*
D03*
X1443663D02*
D03*
Y203000D02*
D03*
X1451163D02*
D03*
X1534663Y318000D02*
D03*
X1542163D02*
D03*
Y203000D02*
D03*
X1534663D02*
D03*
X1542163Y145500D02*
D03*
X1534663D02*
D03*
X1604500Y247500D02*
D03*
X1614500D02*
D03*
X1663500Y146500D02*
D03*
X1673500D02*
D03*
X1693500D02*
D03*
X1683500D02*
D03*
X1634500Y247500D02*
D03*
X1624500D02*
D03*
X1634500Y146500D02*
D03*
X1624500D02*
D03*
X1614500D02*
D03*
X1604500D02*
D03*
X1663500Y247500D02*
D03*
X1673500D02*
D03*
X1693500D02*
D03*
X1683500D02*
D03*
X1614000Y172000D02*
D03*
X1614500Y121000D02*
D03*
X1622500Y178000D02*
D03*
Y215000D02*
D03*
X1684000Y172000D02*
D03*
X1683500Y121000D02*
D03*
X1675500Y215000D02*
D03*
Y178000D02*
D03*
X1614500Y199500D02*
D03*
X1684000Y200000D02*
D03*
X1614500Y186000D02*
D03*
X1629500Y146551D02*
D03*
X1609500D02*
D03*
X1614500Y207000D02*
D03*
X1684000D02*
D03*
X1688500Y146551D02*
D03*
X1668500D02*
D03*
X1684000Y186500D02*
D03*
X1668500Y247551D02*
D03*
X1688500D02*
D03*
X1629500D02*
D03*
X1609500D02*
D03*
X1683500Y222000D02*
D03*
X1684000Y273000D02*
D03*
X1614000D02*
D03*
X1675500Y316000D02*
D03*
Y279000D02*
D03*
X1684000Y287500D02*
D03*
Y308000D02*
D03*
Y301000D02*
D03*
X1614500Y308000D02*
D03*
Y287000D02*
D03*
X1622500Y316000D02*
D03*
Y279000D02*
D03*
X1614500Y300500D02*
D03*
Y222000D02*
D03*
X690831Y319820D02*
D03*
X690831Y329269D02*
D03*
X690831Y370214D02*
D03*
X690831Y379663D02*
D03*
X690831Y404859D02*
D03*
X690831Y414308D02*
D03*
X690831Y423757D02*
D03*
X690831Y433206D02*
D03*
X690831Y442654D02*
D03*
X882902Y459339D02*
D03*
X873452Y459339D02*
D03*
X851406Y459339D02*
D03*
X841957Y459339D02*
D03*
X832508Y459339D02*
D03*
X823059Y459339D02*
D03*
X813610Y459500D02*
D03*
X804161Y459339D02*
D03*
X794713Y459339D02*
D03*
X904949Y459500D02*
D03*
X920697Y459338D02*
D03*
X926996Y459339D02*
D03*
X904949Y284500D02*
D03*
X882902D02*
D03*
X873453D02*
D03*
X851406Y284339D02*
D03*
X841957Y284339D02*
D03*
X832508Y284500D02*
D03*
X823059D02*
D03*
X813610D02*
D03*
X804161D02*
D03*
X794713D02*
D03*
X936811Y368653D02*
D03*
X938811Y372153D02*
D03*
X373500Y204000D02*
D03*
X561000Y153500D02*
D03*
X585100Y161400D02*
D03*
X576500Y129500D02*
D03*
X568000Y89000D02*
D03*
X436500Y123500D02*
D03*
X444500Y123900D02*
D03*
X306500Y89000D02*
D03*
X300000D02*
D03*
X235144Y113644D02*
D03*
X127500Y89000D02*
D03*
X121000D02*
D03*
X120000Y130500D02*
D03*
X128024Y161976D02*
D03*
X1139000Y114500D02*
D03*
Y124000D02*
D03*
Y107500D02*
D03*
X1186000Y122500D02*
D03*
X1203000Y103500D02*
D03*
X1246000D02*
D03*
X1287000Y119500D02*
D03*
X1244500D02*
D03*
X1251000Y103500D02*
D03*
X1208000D02*
D03*
X1161000Y115000D02*
D03*
Y122500D02*
D03*
X1182500Y114500D02*
D03*
X1201500Y119000D02*
D03*
X583000Y127500D02*
D03*
X573000Y89000D02*
D03*
X536100Y126737D02*
D03*
X532500Y128000D02*
D03*
X517000Y133000D02*
D03*
X521500Y89500D02*
D03*
X506500Y108000D02*
D03*
X421000Y125500D02*
D03*
X417500Y87000D02*
D03*
X404000Y89500D02*
D03*
X401500Y125500D02*
D03*
X386554Y141239D02*
D03*
X376261Y129100D02*
D03*
X353000Y104500D02*
D03*
X247000Y102000D02*
D03*
X242000Y127500D02*
D03*
X234500Y132000D02*
D03*
X244500Y161500D02*
D03*
X222000Y154500D02*
D03*
X197000Y105000D02*
D03*
X186500Y114000D02*
D03*
X197000Y161500D02*
D03*
X192000Y128000D02*
D03*
X186500Y132000D02*
D03*
X176500Y134000D02*
D03*
X128000Y127000D02*
D03*
X99000Y123500D02*
D03*
X104000Y91500D02*
D03*
X83000Y103500D02*
D03*
X72500Y116000D02*
D03*
X75269Y97602D02*
D03*
X84000Y162000D02*
D03*
X76000Y128000D02*
D03*
X61500Y134000D02*
D03*
X47500Y92000D02*
D03*
X35000Y104500D02*
D03*
X1379000Y165500D02*
D03*
Y149000D02*
D03*
X1405000D02*
D03*
X1335000Y165500D02*
D03*
Y149000D02*
D03*
X1361000D02*
D03*
X1335000Y138500D02*
D03*
X816500Y36500D02*
D03*
X817000Y67000D02*
D03*
X821000D02*
D03*
X820619Y36000D02*
D03*
X737500Y58000D02*
D03*
X725500D02*
D03*
X701500D02*
D03*
X689500D02*
D03*
X806746Y78663D02*
D03*
X808500Y82000D02*
D03*
X796500Y49000D02*
D03*
X803000Y104000D02*
D03*
X817000Y109000D02*
D03*
X833500Y104000D02*
D03*
X837000Y92500D02*
D03*
X834500Y95500D02*
D03*
X805000Y122500D02*
D03*
X845000Y67500D02*
D03*
Y83000D02*
D03*
X824000Y55000D02*
D03*
Y42000D02*
D03*
X829000Y91500D02*
D03*
X822000Y92000D02*
D03*
X790000Y83000D02*
D03*
X825000Y67000D02*
D03*
X836500Y33500D02*
D03*
X814500Y33000D02*
D03*
X752000Y91500D02*
D03*
X807500Y39500D02*
D03*
X763000D02*
D03*
X769500Y39000D02*
D03*
X796000Y35000D02*
D03*
X1455663Y343500D02*
D03*
X1418163Y332000D02*
D03*
X1475663Y332500D02*
D03*
X1451163Y323500D02*
D03*
X1475663Y309000D02*
D03*
X1418163D02*
D03*
X1449663Y328000D02*
D03*
X1430163Y317000D02*
D03*
X1454163Y332000D02*
D03*
X1546663Y343500D02*
D03*
X1509163Y332000D02*
D03*
X1566663Y332500D02*
D03*
X1542163Y323500D02*
D03*
X1566663Y309000D02*
D03*
X1509163D02*
D03*
X1540663Y328000D02*
D03*
X1521163Y317000D02*
D03*
X1545163Y332000D02*
D03*
X1455663Y286000D02*
D03*
X1418163Y274500D02*
D03*
X1475663Y275000D02*
D03*
X1451163Y266000D02*
D03*
X1475663Y251500D02*
D03*
X1418163D02*
D03*
X1449663Y270500D02*
D03*
X1430163Y259500D02*
D03*
X1454163Y274500D02*
D03*
X1546663Y286000D02*
D03*
X1509163Y274500D02*
D03*
X1566663Y275000D02*
D03*
X1534663Y260500D02*
D03*
X1542163D02*
D03*
Y266000D02*
D03*
X1566663Y251500D02*
D03*
X1509163D02*
D03*
X1540663Y270500D02*
D03*
X1521163Y259500D02*
D03*
X1545163Y274500D02*
D03*
X1455663Y228500D02*
D03*
X1418163Y217000D02*
D03*
X1475663Y217500D02*
D03*
X1451163Y208500D02*
D03*
X1475663Y194000D02*
D03*
X1418163D02*
D03*
X1449663Y213000D02*
D03*
X1430163Y202000D02*
D03*
X1454163Y217000D02*
D03*
X1546663Y228500D02*
D03*
X1509163Y217000D02*
D03*
X1566663Y217500D02*
D03*
X1542163Y208500D02*
D03*
X1566663Y194000D02*
D03*
X1509163D02*
D03*
X1540663Y213000D02*
D03*
X1521163Y202000D02*
D03*
X1545163Y217000D02*
D03*
X1546663Y171000D02*
D03*
X1509163Y159500D02*
D03*
X1566663Y160000D02*
D03*
X1542163Y151000D02*
D03*
X1566663Y136500D02*
D03*
X1509163D02*
D03*
X1540663Y155500D02*
D03*
X1521163Y144500D02*
D03*
X1545163Y159500D02*
D03*
X1455663Y171000D02*
D03*
X1418163Y159500D02*
D03*
X1475663Y160000D02*
D03*
X1451163Y151000D02*
D03*
X1475663Y136500D02*
D03*
X1418163D02*
D03*
X1449663Y155500D02*
D03*
X1430163Y144500D02*
D03*
X1454163Y159500D02*
D03*
X1379000Y138500D02*
D03*
X1405000Y122000D02*
D03*
X1403000Y216500D02*
D03*
X1359000Y217000D02*
D03*
X1343500Y176500D02*
D03*
X1360500D02*
D03*
X1387500D02*
D03*
X1404500D02*
D03*
X1682000Y111000D02*
D03*
X896500Y87500D02*
D03*
Y70500D02*
D03*
Y53500D02*
D03*
X879500Y77000D02*
D03*
X879000Y60000D02*
D03*
Y43000D02*
D03*
X972000Y52500D02*
D03*
X936500Y26000D02*
D03*
X931000D02*
D03*
X936500Y11500D02*
D03*
X931000D02*
D03*
X7000Y88500D02*
D03*
X72000D02*
D03*
X78500D02*
D03*
X186000Y89000D02*
D03*
X192500D02*
D03*
X235000D02*
D03*
X242000D02*
D03*
X349500D02*
D03*
X356500D02*
D03*
X414000D02*
D03*
X421000D02*
D03*
X463500D02*
D03*
X470000D02*
D03*
X528000D02*
D03*
X534500D02*
D03*
X578000D02*
D03*
X584500D02*
D03*
X642500D02*
D03*
X649000D02*
D03*
X37500Y173500D02*
D03*
X38000Y156000D02*
D03*
X152000Y155500D02*
D03*
X266000Y173000D02*
D03*
Y156000D02*
D03*
X296000Y164000D02*
D03*
X500500Y155500D02*
D03*
X494000Y173500D02*
D03*
Y155500D02*
D03*
X608500D02*
D03*
Y174000D02*
D03*
X615000Y155500D02*
D03*
X639000Y163500D02*
D03*
X26400Y126500D02*
D03*
X44500D02*
D03*
X90900D02*
D03*
X108500D02*
D03*
X140553D02*
D03*
X158500D02*
D03*
X223000D02*
D03*
X205053D02*
D03*
X254707D02*
D03*
X272500D02*
D03*
X319207D02*
D03*
X337000D02*
D03*
X368861D02*
D03*
X387000D02*
D03*
X451500D02*
D03*
X433361D02*
D03*
X483014D02*
D03*
X500500D02*
D03*
X565000D02*
D03*
X547514D02*
D03*
X679500D02*
D03*
X661668D02*
D03*
X614500D02*
D03*
X597168D02*
D03*
D106*
X1034831Y469289D02*
D03*
X664831Y274289D02*
D03*
Y469289D02*
D03*
X1034831Y274289D02*
D03*
D107*
X991500Y21000D02*
D03*
X1001500D02*
D03*
X991500Y6000D02*
D03*
X1001500D02*
D03*
X1011500D02*
D03*
Y21000D02*
D03*
D108*
X1683500Y10067D02*
D03*
Y73059D02*
D03*
X1680409Y51051D02*
D03*
X1622516Y96051D02*
D03*
X1567516D02*
D03*
X1512516D02*
D03*
X1454524Y64043D02*
D03*
X1451433Y89043D02*
D03*
Y10067D02*
D03*
D109*
X1408500Y403000D02*
D03*
Y395500D02*
D03*
D110*
X1639250Y454904D02*
D03*
Y436404D02*
D03*
X1651750D02*
D03*
Y454904D02*
D03*
X1645500D02*
D03*
Y450279D02*
D03*
Y445653D02*
D03*
Y441028D02*
D03*
Y436404D02*
D03*
X1639250Y450279D02*
D03*
Y445653D02*
D03*
Y441028D02*
D03*
X1651750D02*
D03*
Y445653D02*
D03*
Y450279D02*
D03*
X1500750D02*
D03*
Y445653D02*
D03*
Y441028D02*
D03*
X1488250D02*
D03*
Y445653D02*
D03*
Y450279D02*
D03*
X1494500Y436404D02*
D03*
Y441028D02*
D03*
Y445653D02*
D03*
Y450279D02*
D03*
Y454904D02*
D03*
X1500750D02*
D03*
Y436404D02*
D03*
X1488250D02*
D03*
Y454904D02*
D03*
D111*
X819638Y82362D02*
D03*
Y77638D02*
D03*
X824362Y82362D02*
D03*
Y77638D02*
D03*
D112*
X825260Y36059D02*
D03*
Y30941D02*
D03*
X832740Y36059D02*
D03*
Y33500D02*
D03*
Y30941D02*
D03*
X784760Y37559D02*
D03*
Y32441D02*
D03*
X792240Y37559D02*
D03*
Y35000D02*
D03*
Y32441D02*
D03*
D113*
X1093859Y132260D02*
D03*
X1098977D02*
D03*
X1093859Y139740D02*
D03*
X1096418D02*
D03*
X1098977D02*
D03*
X520959Y493740D02*
D03*
X515841D02*
D03*
X520959Y486260D02*
D03*
X518400D02*
D03*
X515841D02*
D03*
D114*
X330100Y283565D02*
D03*
X323400D02*
D03*
X316700D02*
D03*
X336800D02*
D03*
X343500D02*
D03*
X991788Y367653D02*
D03*
X985088D02*
D03*
X964988D02*
D03*
X971688D02*
D03*
X978388D02*
D03*
X298141Y284000D02*
D03*
X291441D02*
D03*
X271341D02*
D03*
X278041D02*
D03*
X284741D02*
D03*
X903402Y367653D02*
D03*
X896702D02*
D03*
X876602D02*
D03*
X883302D02*
D03*
X890002D02*
D03*
X388000Y283565D02*
D03*
X381300D02*
D03*
X361200D02*
D03*
X367900D02*
D03*
X374600D02*
D03*
D115*
X330100Y318065D02*
D03*
X978388Y402153D02*
D03*
X284741Y318500D02*
D03*
X890002Y402153D02*
D03*
X374600Y318065D02*
D03*
D116*
X1436392Y313358D02*
D03*
Y315917D02*
D03*
Y318476D02*
D03*
Y321035D02*
D03*
Y323594D02*
D03*
Y326153D02*
D03*
Y328712D02*
D03*
X1458242Y313358D02*
D03*
Y315917D02*
D03*
Y318476D02*
D03*
Y321035D02*
D03*
Y323594D02*
D03*
Y326153D02*
D03*
Y328712D02*
D03*
X1436392Y255858D02*
D03*
Y258417D02*
D03*
Y260976D02*
D03*
Y263535D02*
D03*
Y266094D02*
D03*
Y268653D02*
D03*
Y271212D02*
D03*
X1458242Y255858D02*
D03*
Y258417D02*
D03*
Y260976D02*
D03*
Y263535D02*
D03*
Y266094D02*
D03*
Y268653D02*
D03*
Y271212D02*
D03*
X1436392Y198358D02*
D03*
Y200917D02*
D03*
Y203476D02*
D03*
Y206035D02*
D03*
Y208594D02*
D03*
Y211153D02*
D03*
Y213712D02*
D03*
X1458242Y198358D02*
D03*
Y200917D02*
D03*
Y203476D02*
D03*
Y206035D02*
D03*
Y208594D02*
D03*
Y211153D02*
D03*
Y213712D02*
D03*
X1436392Y140858D02*
D03*
Y143417D02*
D03*
Y145976D02*
D03*
Y148535D02*
D03*
Y151094D02*
D03*
Y153653D02*
D03*
Y156212D02*
D03*
X1458242Y140858D02*
D03*
Y143417D02*
D03*
Y145976D02*
D03*
Y148535D02*
D03*
Y151094D02*
D03*
Y153653D02*
D03*
Y156212D02*
D03*
X1527392Y313358D02*
D03*
Y315917D02*
D03*
Y318476D02*
D03*
Y321035D02*
D03*
Y323594D02*
D03*
Y326153D02*
D03*
Y328712D02*
D03*
X1549242Y313358D02*
D03*
Y315917D02*
D03*
Y318476D02*
D03*
Y321035D02*
D03*
Y323594D02*
D03*
Y326153D02*
D03*
Y328712D02*
D03*
X1527392Y255858D02*
D03*
Y258417D02*
D03*
Y260976D02*
D03*
Y263535D02*
D03*
Y266094D02*
D03*
Y268653D02*
D03*
Y271212D02*
D03*
X1549242Y255858D02*
D03*
Y258417D02*
D03*
Y260976D02*
D03*
Y263535D02*
D03*
Y266094D02*
D03*
Y268653D02*
D03*
Y271212D02*
D03*
X1527392Y198358D02*
D03*
Y200917D02*
D03*
Y203476D02*
D03*
Y206035D02*
D03*
Y208594D02*
D03*
Y211153D02*
D03*
Y213712D02*
D03*
X1549242Y198358D02*
D03*
Y200917D02*
D03*
Y203476D02*
D03*
Y206035D02*
D03*
Y208594D02*
D03*
Y211153D02*
D03*
Y213712D02*
D03*
X1527392Y140858D02*
D03*
Y143417D02*
D03*
Y145976D02*
D03*
Y148535D02*
D03*
Y151094D02*
D03*
Y153653D02*
D03*
Y156212D02*
D03*
X1549242Y140858D02*
D03*
Y143417D02*
D03*
Y145976D02*
D03*
Y148535D02*
D03*
Y151094D02*
D03*
Y153653D02*
D03*
Y156212D02*
D03*
X1638075Y289874D02*
D03*
Y292433D02*
D03*
Y294992D02*
D03*
Y297551D02*
D03*
Y300110D02*
D03*
Y302669D02*
D03*
Y305228D02*
D03*
X1659925Y289874D02*
D03*
Y292433D02*
D03*
Y294992D02*
D03*
Y297551D02*
D03*
Y300110D02*
D03*
Y302669D02*
D03*
Y305228D02*
D03*
X1638075Y188874D02*
D03*
Y191433D02*
D03*
Y193992D02*
D03*
Y196551D02*
D03*
Y199110D02*
D03*
Y201669D02*
D03*
Y204228D02*
D03*
X1659925Y188874D02*
D03*
Y191433D02*
D03*
Y193992D02*
D03*
Y196551D02*
D03*
Y199110D02*
D03*
Y201669D02*
D03*
Y204228D02*
D03*
D117*
X924571Y369213D02*
D03*
Y366653D02*
D03*
Y364094D02*
D03*
X932051D02*
D03*
Y366653D02*
D03*
Y369213D02*
D03*
D118*
X822000Y80000D02*
D03*
D119*
X829185Y76063D02*
D03*
Y78031D02*
D03*
Y80000D02*
D03*
Y81968D02*
D03*
Y83937D02*
D03*
X814815D02*
D03*
Y81968D02*
D03*
Y80000D02*
D03*
Y78031D02*
D03*
Y76063D02*
D03*
D120*
X825937Y87185D02*
D03*
X823969D02*
D03*
X822000D02*
D03*
X820032D02*
D03*
X818063D02*
D03*
Y72815D02*
D03*
X820032D02*
D03*
X822000D02*
D03*
X823969D02*
D03*
X825937D02*
D03*
D121*
X394695Y175425D02*
D03*
X396664D02*
D03*
X398632D02*
D03*
X400601D02*
D03*
X402569D02*
D03*
X404538D02*
D03*
X406506D02*
D03*
X408475D02*
D03*
X410443D02*
D03*
X412412D02*
D03*
X394695Y153575D02*
D03*
X396664D02*
D03*
X398632D02*
D03*
X400601D02*
D03*
X402569D02*
D03*
X404538D02*
D03*
X406506D02*
D03*
X408475D02*
D03*
X410443D02*
D03*
X412412D02*
D03*
X622809Y175425D02*
D03*
X624778D02*
D03*
X626746D02*
D03*
X628715D02*
D03*
X630683D02*
D03*
X632652D02*
D03*
X634620D02*
D03*
X636589D02*
D03*
X638557D02*
D03*
X640526D02*
D03*
X622809Y153575D02*
D03*
X624778D02*
D03*
X626746D02*
D03*
X628715D02*
D03*
X630683D02*
D03*
X632652D02*
D03*
X634620D02*
D03*
X636589D02*
D03*
X638557D02*
D03*
X640526D02*
D03*
X508502Y175425D02*
D03*
X510471D02*
D03*
X512439D02*
D03*
X514408D02*
D03*
X516376D02*
D03*
X518345D02*
D03*
X520313D02*
D03*
X522282D02*
D03*
X524250D02*
D03*
X526219D02*
D03*
X508502Y153575D02*
D03*
X510471D02*
D03*
X512439D02*
D03*
X514408D02*
D03*
X516376D02*
D03*
X518345D02*
D03*
X520313D02*
D03*
X522282D02*
D03*
X524250D02*
D03*
X526219D02*
D03*
X280388Y175425D02*
D03*
X282357D02*
D03*
X284325D02*
D03*
X286294D02*
D03*
X288262D02*
D03*
X290231D02*
D03*
X292199D02*
D03*
X294168D02*
D03*
X296136D02*
D03*
X298105D02*
D03*
X280388Y153575D02*
D03*
X282357D02*
D03*
X284325D02*
D03*
X286294D02*
D03*
X288262D02*
D03*
X290231D02*
D03*
X292199D02*
D03*
X294168D02*
D03*
X296136D02*
D03*
X298105D02*
D03*
X52274Y175425D02*
D03*
X54242D02*
D03*
X56211D02*
D03*
X58179D02*
D03*
X60148D02*
D03*
X62116D02*
D03*
X64085D02*
D03*
X66054D02*
D03*
X68022D02*
D03*
X69991D02*
D03*
X52274Y153575D02*
D03*
X54242D02*
D03*
X56211D02*
D03*
X58179D02*
D03*
X60148D02*
D03*
X62116D02*
D03*
X64085D02*
D03*
X66054D02*
D03*
X68022D02*
D03*
X69991D02*
D03*
X166081Y175425D02*
D03*
X168050D02*
D03*
X170018D02*
D03*
X171987D02*
D03*
X173955D02*
D03*
X175924D02*
D03*
X177892D02*
D03*
X179861D02*
D03*
X181829D02*
D03*
X183798D02*
D03*
X166081Y153575D02*
D03*
X168050D02*
D03*
X170018D02*
D03*
X171987D02*
D03*
X173955D02*
D03*
X175924D02*
D03*
X177892D02*
D03*
X179861D02*
D03*
X181829D02*
D03*
X183798D02*
D03*
M02*
