G04*
G04 #@! TF.GenerationSoftware,Altium Limited,Altium Designer,18.1.6 (161)*
G04*
G04 Layer_Color=32896*
%FSLAX25Y25*%
%MOIN*%
G70*
G01*
G75*
%ADD11C,0.02000*%
%ADD13C,0.02362*%
%ADD14C,0.00984*%
%ADD16C,0.00787*%
%ADD17C,0.01000*%
%ADD18C,0.01500*%
D11*
X1268500Y122000D02*
G03*
X1268500Y122000I-1000J0D01*
G01*
X1224000D02*
G03*
X1224000Y122000I-1000J0D01*
G01*
D13*
X398632Y166469D02*
G03*
X398632Y166469I-1181J0D01*
G01*
X626746D02*
G03*
X626746Y166469I-1181J0D01*
G01*
X512439D02*
G03*
X512439Y166469I-1181J0D01*
G01*
X284325D02*
G03*
X284325Y166469I-1181J0D01*
G01*
X56211D02*
G03*
X56211Y166469I-1181J0D01*
G01*
X170018D02*
G03*
X170018Y166469I-1181J0D01*
G01*
D14*
X1436884Y310602D02*
G03*
X1436884Y310602I-492J0D01*
G01*
Y253102D02*
G03*
X1436884Y253102I-492J0D01*
G01*
Y195602D02*
G03*
X1436884Y195602I-492J0D01*
G01*
Y138102D02*
G03*
X1436884Y138102I-492J0D01*
G01*
X1527884Y310602D02*
G03*
X1527884Y310602I-492J0D01*
G01*
Y253102D02*
G03*
X1527884Y253102I-492J0D01*
G01*
Y195602D02*
G03*
X1527884Y195602I-492J0D01*
G01*
Y138102D02*
G03*
X1527884Y138102I-492J0D01*
G01*
X1638339Y238102D02*
G03*
X1638339Y238102I-492J0D01*
G01*
Y137102D02*
G03*
X1638339Y137102I-492J0D01*
G01*
X1697339Y238102D02*
G03*
X1697339Y238102I-492J0D01*
G01*
Y137102D02*
G03*
X1697339Y137102I-492J0D01*
G01*
X1638567Y287118D02*
G03*
X1638567Y287118I-492J0D01*
G01*
Y186118D02*
G03*
X1638567Y186118I-492J0D01*
G01*
X932543Y372165D02*
G03*
X932543Y372165I-492J0D01*
G01*
X1157161Y130024D02*
G03*
X1157161Y130024I-492J0D01*
G01*
X826429Y68779D02*
G03*
X826429Y68779I-492J0D01*
G01*
X392431Y175425D02*
G03*
X392431Y175425I-492J0D01*
G01*
X620546D02*
G03*
X620546Y175425I-492J0D01*
G01*
X506239D02*
G03*
X506239Y175425I-492J0D01*
G01*
X278124D02*
G03*
X278124Y175425I-492J0D01*
G01*
X8778Y135949D02*
G03*
X8778Y135949I-492J0D01*
G01*
X73278Y136102D02*
G03*
X73278Y136102I-492J0D01*
G01*
X122585Y135949D02*
G03*
X122585Y135949I-492J0D01*
G01*
X465006D02*
G03*
X465006Y135949I-492J0D01*
G01*
X187085Y136102D02*
G03*
X187085Y136102I-492J0D01*
G01*
X236892Y135949D02*
G03*
X236892Y135949I-492J0D01*
G01*
X301392Y136102D02*
G03*
X301392Y136102I-492J0D01*
G01*
X351199Y135949D02*
G03*
X351199Y135949I-492J0D01*
G01*
X415699Y136102D02*
G03*
X415699Y136102I-492J0D01*
G01*
X529506D02*
G03*
X529506Y136102I-492J0D01*
G01*
X579313Y135949D02*
G03*
X579313Y135949I-492J0D01*
G01*
X643813Y136102D02*
G03*
X643813Y136102I-492J0D01*
G01*
X50010Y175425D02*
G03*
X50010Y175425I-492J0D01*
G01*
X163817D02*
G03*
X163817Y175425I-492J0D01*
G01*
D16*
X1449351Y310996D02*
G03*
X1445283Y310996I-2034J0D01*
G01*
X1449351Y253496D02*
G03*
X1445283Y253496I-2034J0D01*
G01*
X1449351Y195995D02*
G03*
X1445283Y195995I-2034J0D01*
G01*
X1449351Y138496D02*
G03*
X1445283Y138496I-2034J0D01*
G01*
X1540351Y310996D02*
G03*
X1536283Y310996I-2034J0D01*
G01*
X1540351Y253496D02*
G03*
X1536283Y253496I-2034J0D01*
G01*
X1540351Y195995D02*
G03*
X1536283Y195995I-2034J0D01*
G01*
X1540351Y138496D02*
G03*
X1536283Y138496I-2034J0D01*
G01*
X1651034Y287512D02*
G03*
X1646966Y287512I-2034J0D01*
G01*
X1651034Y186512D02*
G03*
X1646966Y186512I-2034J0D01*
G01*
X1157752Y116900D02*
G03*
X1157752Y121100I0J2100D01*
G01*
X1441214Y310996D02*
X1445283D01*
X1449351D02*
X1453419D01*
X1441214Y331074D02*
X1453419D01*
X1441214Y310996D02*
Y331074D01*
X1453419Y310996D02*
Y331074D01*
X1441214Y253496D02*
X1445283D01*
X1449351D02*
X1453419D01*
X1441214Y273574D02*
X1453419D01*
X1441214Y253496D02*
Y273574D01*
X1453419Y253496D02*
Y273574D01*
X1441214Y195995D02*
X1445283D01*
X1449351D02*
X1453419D01*
X1441214Y216074D02*
X1453419D01*
X1441214Y195995D02*
Y216074D01*
X1453419Y195995D02*
Y216074D01*
X1441214Y138496D02*
X1445283D01*
X1449351D02*
X1453419D01*
X1441214Y158574D02*
X1453419D01*
X1441214Y138496D02*
Y158574D01*
X1453419Y138496D02*
Y158574D01*
X1532214Y310996D02*
X1536283D01*
X1540351D02*
X1544419D01*
X1532214Y331074D02*
X1544419D01*
X1532214Y310996D02*
Y331074D01*
X1544419Y310996D02*
Y331074D01*
X1532214Y253496D02*
X1536283D01*
X1540351D02*
X1544419D01*
X1532214Y273574D02*
X1544419D01*
X1532214Y253496D02*
Y273574D01*
X1544419Y253496D02*
Y273574D01*
X1532214Y195995D02*
X1536283D01*
X1540351D02*
X1544419D01*
X1532214Y216074D02*
X1544419D01*
X1532214Y195995D02*
Y216074D01*
X1544419Y195995D02*
Y216074D01*
X1532214Y138496D02*
X1536283D01*
X1540351D02*
X1544419D01*
X1532214Y158574D02*
X1544419D01*
X1532214Y138496D02*
Y158574D01*
X1544419Y138496D02*
Y158574D01*
X1602177Y244008D02*
X1636823D01*
X1602177Y251095D02*
X1636823D01*
Y244008D02*
Y251095D01*
X1602177Y244008D02*
Y251095D01*
Y143008D02*
X1636823D01*
X1602177Y150094D02*
X1636823D01*
Y143008D02*
Y150094D01*
X1602177Y143008D02*
Y150094D01*
X1661177Y244008D02*
X1695823D01*
X1661177Y251095D02*
X1695823D01*
Y244008D02*
Y251095D01*
X1661177Y244008D02*
Y251095D01*
Y143008D02*
X1695823D01*
X1661177Y150094D02*
X1695823D01*
Y143008D02*
Y150094D01*
X1661177Y143008D02*
Y150094D01*
X1642898Y287512D02*
X1646966D01*
X1651034D02*
X1655102D01*
X1642898Y307591D02*
X1655102D01*
X1642898Y287512D02*
Y307591D01*
X1655102Y287512D02*
Y307591D01*
X1642898Y186512D02*
X1646966D01*
X1651034D02*
X1655102D01*
X1642898Y206591D02*
X1655102D01*
X1642898Y186512D02*
Y206591D01*
X1655102Y186512D02*
Y206591D01*
X927721Y362323D02*
Y370984D01*
X928902Y362323D02*
Y370984D01*
X927721Y362323D02*
X928902D01*
X927721Y370984D02*
X928902D01*
X1157752Y121100D02*
Y125299D01*
Y112701D02*
Y116900D01*
X1189248Y112701D02*
Y125299D01*
X1157752D02*
X1189248D01*
X1157752Y112701D02*
X1189248D01*
X828102Y71732D02*
X830268D01*
Y73898D01*
X813732Y71732D02*
X815898D01*
X813732D02*
Y73898D01*
Y88268D02*
X815898D01*
X813732Y86102D02*
Y88268D01*
X828102D02*
X830268D01*
Y86102D02*
Y88268D01*
X393514Y170405D02*
X413593D01*
X393514Y158595D02*
X413593D01*
X393514D02*
Y170405D01*
X413593Y158595D02*
Y170405D01*
X621628D02*
X641707D01*
X621628Y158595D02*
X641707D01*
X621628D02*
Y170405D01*
X641707Y158595D02*
Y170405D01*
X507321D02*
X527400D01*
X507321Y158595D02*
X527400D01*
X507321D02*
Y170405D01*
X527400Y158595D02*
Y170405D01*
X279207D02*
X299286D01*
X279207Y158595D02*
X299286D01*
X279207D02*
Y170405D01*
X299286Y158595D02*
Y170405D01*
X9447Y130043D02*
X48817D01*
X9447Y122957D02*
X48817D01*
X9447D02*
Y130043D01*
X48817Y122957D02*
Y130043D01*
X113317Y123110D02*
Y130197D01*
X73947Y123110D02*
Y130197D01*
Y123110D02*
X113317D01*
X73947Y130197D02*
X113317D01*
X162624Y122957D02*
Y130043D01*
X123254Y122957D02*
Y130043D01*
Y122957D02*
X162624D01*
X123254Y130043D02*
X162624D01*
X505046Y122957D02*
Y130043D01*
X465676Y122957D02*
Y130043D01*
Y122957D02*
X505046D01*
X465676Y130043D02*
X505046D01*
X227124Y123110D02*
Y130197D01*
X187754Y123110D02*
Y130197D01*
Y123110D02*
X227124D01*
X187754Y130197D02*
X227124D01*
X276932Y122957D02*
Y130043D01*
X237561Y122957D02*
Y130043D01*
Y122957D02*
X276932D01*
X237561Y130043D02*
X276932D01*
X341431Y123110D02*
Y130197D01*
X302061Y123110D02*
Y130197D01*
Y123110D02*
X341431D01*
X302061Y130197D02*
X341431D01*
X391239Y122957D02*
Y130043D01*
X351869Y122957D02*
Y130043D01*
Y122957D02*
X391239D01*
X351869Y130043D02*
X391239D01*
X455739Y123110D02*
Y130197D01*
X416368Y123110D02*
Y130197D01*
Y123110D02*
X455739D01*
X416368Y130197D02*
X455739D01*
X569546Y123110D02*
Y130197D01*
X530176Y123110D02*
Y130197D01*
Y123110D02*
X569546D01*
X530176Y130197D02*
X569546D01*
X619353Y122957D02*
Y130043D01*
X579983Y122957D02*
Y130043D01*
Y122957D02*
X619353D01*
X579983Y130043D02*
X619353D01*
X683853Y123110D02*
Y130197D01*
X644483Y123110D02*
Y130197D01*
Y123110D02*
X683853D01*
X644483Y130197D02*
X683853D01*
X51093Y170405D02*
X71172D01*
X51093Y158595D02*
X71172D01*
X51093D02*
Y170405D01*
X71172Y158595D02*
Y170405D01*
X164900D02*
X184979D01*
X164900Y158595D02*
X184979D01*
X164900D02*
Y170405D01*
X184979Y158595D02*
Y170405D01*
D17*
X830000Y36000D02*
G03*
X830000Y36000I-500J0D01*
G01*
X789500Y37500D02*
G03*
X789500Y37500I-500J0D01*
G01*
X1094418Y136500D02*
G03*
X1094418Y136500I-500J0D01*
G01*
X521400Y489500D02*
G03*
X521400Y489500I-500J0D01*
G01*
X756952Y65500D02*
X762552D01*
X756952Y77500D02*
X762552D01*
X1266500Y114500D02*
X1274000D01*
Y123500D01*
X1222000Y114500D02*
X1229500D01*
Y123500D01*
X336000Y342999D02*
Y339666D01*
X335334Y339000D01*
X334001D01*
X333334Y339666D01*
Y342999D01*
X332001Y342332D02*
X331335Y342999D01*
X330002D01*
X329335Y342332D01*
Y341666D01*
X330002Y340999D01*
X330668D01*
X330002D01*
X329335Y340333D01*
Y339666D01*
X330002Y339000D01*
X331335D01*
X332001Y339666D01*
X328003D02*
X327336Y339000D01*
X326003D01*
X325337Y339666D01*
Y342332D01*
X326003Y342999D01*
X327336D01*
X328003Y342332D01*
Y341666D01*
X327336Y340999D01*
X325337D01*
X1654501Y154000D02*
X1657834D01*
X1658500Y153333D01*
Y152001D01*
X1657834Y151334D01*
X1654501D01*
X1658500Y148002D02*
X1654501D01*
X1656501Y150001D01*
Y147336D01*
X1655168Y146003D02*
X1654501Y145336D01*
Y144003D01*
X1655168Y143337D01*
X1655834D01*
X1656501Y144003D01*
X1657167Y143337D01*
X1657834D01*
X1658500Y144003D01*
Y145336D01*
X1657834Y146003D01*
X1657167D01*
X1656501Y145336D01*
X1655834Y146003D01*
X1655168D01*
X1656501Y145336D02*
Y144003D01*
X1654501Y142004D02*
X1658500D01*
Y140005D01*
X1657834Y139338D01*
X1657167D01*
X1656501Y140005D01*
Y142004D01*
Y140005D01*
X1655834Y139338D01*
X1655168D01*
X1654501Y140005D01*
Y142004D01*
Y255000D02*
X1657834D01*
X1658500Y254334D01*
Y253001D01*
X1657834Y252334D01*
X1654501D01*
X1658500Y249002D02*
X1654501D01*
X1656501Y251001D01*
Y248336D01*
X1655168Y247003D02*
X1654501Y246336D01*
Y245003D01*
X1655168Y244337D01*
X1655834D01*
X1656501Y245003D01*
X1657167Y244337D01*
X1657834D01*
X1658500Y245003D01*
Y246336D01*
X1657834Y247003D01*
X1657167D01*
X1656501Y246336D01*
X1655834Y247003D01*
X1655168D01*
X1656501Y246336D02*
Y245003D01*
X1658500Y243004D02*
X1655834D01*
X1654501Y241671D01*
X1655834Y240338D01*
X1658500D01*
X1656501D01*
Y243004D01*
X1641001Y154000D02*
X1644334D01*
X1645000Y153333D01*
Y152001D01*
X1644334Y151334D01*
X1641001D01*
X1645000Y148002D02*
X1641001D01*
X1643001Y150001D01*
Y147336D01*
X1641001Y146003D02*
Y143337D01*
X1641668D01*
X1644334Y146003D01*
X1645000D01*
X1641001Y142004D02*
X1645000D01*
Y140005D01*
X1644334Y139338D01*
X1643667D01*
X1643001Y140005D01*
Y142004D01*
Y140005D01*
X1642334Y139338D01*
X1641668D01*
X1641001Y140005D01*
Y142004D01*
Y255000D02*
X1644334D01*
X1645000Y254334D01*
Y253001D01*
X1644334Y252334D01*
X1641001D01*
X1645000Y249002D02*
X1641001D01*
X1643001Y251001D01*
Y248336D01*
X1641001Y247003D02*
Y244337D01*
X1641668D01*
X1644334Y247003D01*
X1645000D01*
Y243004D02*
X1642334D01*
X1641001Y241671D01*
X1642334Y240338D01*
X1645000D01*
X1643001D01*
Y243004D01*
X1656500Y183499D02*
Y180166D01*
X1655834Y179500D01*
X1654501D01*
X1653834Y180166D01*
Y183499D01*
X1650502Y179500D02*
Y183499D01*
X1652501Y181499D01*
X1649836D01*
X1645837Y183499D02*
X1647170Y182832D01*
X1648503Y181499D01*
Y180166D01*
X1647836Y179500D01*
X1646503D01*
X1645837Y180166D01*
Y180833D01*
X1646503Y181499D01*
X1648503D01*
X1644504Y183499D02*
Y179500D01*
X1642505D01*
X1641838Y180166D01*
Y180833D01*
X1642505Y181499D01*
X1644504D01*
X1642505D01*
X1641838Y182166D01*
Y182832D01*
X1642505Y183499D01*
X1644504D01*
X1656500Y284499D02*
Y281166D01*
X1655834Y280500D01*
X1654501D01*
X1653834Y281166D01*
Y284499D01*
X1650502Y280500D02*
Y284499D01*
X1652501Y282499D01*
X1649836D01*
X1645837Y284499D02*
X1647170Y283832D01*
X1648503Y282499D01*
Y281166D01*
X1647836Y280500D01*
X1646503D01*
X1645837Y281166D01*
Y281833D01*
X1646503Y282499D01*
X1648503D01*
X1644504Y280500D02*
Y283166D01*
X1643171Y284499D01*
X1641838Y283166D01*
Y280500D01*
Y282499D01*
X1644504D01*
X1694500Y188000D02*
Y191999D01*
X1692501D01*
X1691834Y191332D01*
Y189999D01*
X1692501Y189333D01*
X1694500D01*
X1693167D02*
X1691834Y188000D01*
X1687836Y191999D02*
X1689168Y191332D01*
X1690501Y189999D01*
Y188666D01*
X1689835Y188000D01*
X1688502D01*
X1687836Y188666D01*
Y189333D01*
X1688502Y189999D01*
X1690501D01*
X1686503Y191332D02*
X1685836Y191999D01*
X1684503D01*
X1683837Y191332D01*
Y188666D01*
X1684503Y188000D01*
X1685836D01*
X1686503Y188666D01*
Y191332D01*
X1682504Y191999D02*
Y188000D01*
X1680504D01*
X1679838Y188666D01*
Y189333D01*
X1680504Y189999D01*
X1682504D01*
X1680504D01*
X1679838Y190666D01*
Y191332D01*
X1680504Y191999D01*
X1682504D01*
X1694500Y289000D02*
Y292999D01*
X1692501D01*
X1691834Y292332D01*
Y290999D01*
X1692501Y290333D01*
X1694500D01*
X1693167D02*
X1691834Y289000D01*
X1687836Y292999D02*
X1689168Y292332D01*
X1690501Y290999D01*
Y289666D01*
X1689835Y289000D01*
X1688502D01*
X1687836Y289666D01*
Y290333D01*
X1688502Y290999D01*
X1690501D01*
X1686503Y292332D02*
X1685836Y292999D01*
X1684503D01*
X1683837Y292332D01*
Y289666D01*
X1684503Y289000D01*
X1685836D01*
X1686503Y289666D01*
Y292332D01*
X1682504Y289000D02*
Y291666D01*
X1681171Y292999D01*
X1679838Y291666D01*
Y289000D01*
Y290999D01*
X1682504D01*
X1694500Y202000D02*
Y205999D01*
X1692501D01*
X1691834Y205332D01*
Y203999D01*
X1692501Y203333D01*
X1694500D01*
X1693167D02*
X1691834Y202000D01*
X1687836Y205999D02*
X1690501D01*
Y203999D01*
X1689168Y204666D01*
X1688502D01*
X1687836Y203999D01*
Y202666D01*
X1688502Y202000D01*
X1689835D01*
X1690501Y202666D01*
X1686503D02*
X1685836Y202000D01*
X1684503D01*
X1683837Y202666D01*
Y205332D01*
X1684503Y205999D01*
X1685836D01*
X1686503Y205332D01*
Y204666D01*
X1685836Y203999D01*
X1683837D01*
X1682504Y205999D02*
Y202000D01*
X1680504D01*
X1679838Y202666D01*
Y203333D01*
X1680504Y203999D01*
X1682504D01*
X1680504D01*
X1679838Y204666D01*
Y205332D01*
X1680504Y205999D01*
X1682504D01*
X1694500Y303000D02*
Y306999D01*
X1692501D01*
X1691834Y306332D01*
Y304999D01*
X1692501Y304333D01*
X1694500D01*
X1693167D02*
X1691834Y303000D01*
X1687836Y306999D02*
X1690501D01*
Y304999D01*
X1689168Y305666D01*
X1688502D01*
X1687836Y304999D01*
Y303666D01*
X1688502Y303000D01*
X1689835D01*
X1690501Y303666D01*
X1686503D02*
X1685836Y303000D01*
X1684503D01*
X1683837Y303666D01*
Y306332D01*
X1684503Y306999D01*
X1685836D01*
X1686503Y306332D01*
Y305666D01*
X1685836Y304999D01*
X1683837D01*
X1682504Y303000D02*
Y305666D01*
X1681171Y306999D01*
X1679838Y305666D01*
Y303000D01*
Y304999D01*
X1682504D01*
X1618500Y201500D02*
Y205499D01*
X1616501D01*
X1615834Y204832D01*
Y203499D01*
X1616501Y202833D01*
X1618500D01*
X1617167D02*
X1615834Y201500D01*
X1611835Y205499D02*
X1614501D01*
Y203499D01*
X1613168Y204166D01*
X1612502D01*
X1611835Y203499D01*
Y202167D01*
X1612502Y201500D01*
X1613835D01*
X1614501Y202167D01*
X1610503Y204832D02*
X1609836Y205499D01*
X1608503D01*
X1607837Y204832D01*
Y204166D01*
X1608503Y203499D01*
X1607837Y202833D01*
Y202167D01*
X1608503Y201500D01*
X1609836D01*
X1610503Y202167D01*
Y202833D01*
X1609836Y203499D01*
X1610503Y204166D01*
Y204832D01*
X1609836Y203499D02*
X1608503D01*
X1606504Y205499D02*
Y201500D01*
X1604505D01*
X1603838Y202167D01*
Y202833D01*
X1604505Y203499D01*
X1606504D01*
X1604505D01*
X1603838Y204166D01*
Y204832D01*
X1604505Y205499D01*
X1606504D01*
X1618500Y302500D02*
Y306499D01*
X1616501D01*
X1615834Y305832D01*
Y304499D01*
X1616501Y303833D01*
X1618500D01*
X1617167D02*
X1615834Y302500D01*
X1611835Y306499D02*
X1614501D01*
Y304499D01*
X1613168Y305166D01*
X1612502D01*
X1611835Y304499D01*
Y303166D01*
X1612502Y302500D01*
X1613835D01*
X1614501Y303166D01*
X1610503Y305832D02*
X1609836Y306499D01*
X1608503D01*
X1607837Y305832D01*
Y305166D01*
X1608503Y304499D01*
X1607837Y303833D01*
Y303166D01*
X1608503Y302500D01*
X1609836D01*
X1610503Y303166D01*
Y303833D01*
X1609836Y304499D01*
X1610503Y305166D01*
Y305832D01*
X1609836Y304499D02*
X1608503D01*
X1606504Y302500D02*
Y305166D01*
X1605171Y306499D01*
X1603838Y305166D01*
Y302500D01*
Y304499D01*
X1606504D01*
X1618500Y187500D02*
Y191499D01*
X1616501D01*
X1615834Y190832D01*
Y189499D01*
X1616501Y188833D01*
X1618500D01*
X1617167D02*
X1615834Y187500D01*
X1611835Y191499D02*
X1614501D01*
Y189499D01*
X1613168Y190166D01*
X1612502D01*
X1611835Y189499D01*
Y188166D01*
X1612502Y187500D01*
X1613835D01*
X1614501Y188166D01*
X1610503Y191499D02*
X1607837D01*
Y190832D01*
X1610503Y188166D01*
Y187500D01*
X1606504Y191499D02*
Y187500D01*
X1604505D01*
X1603838Y188166D01*
Y188833D01*
X1604505Y189499D01*
X1606504D01*
X1604505D01*
X1603838Y190166D01*
Y190832D01*
X1604505Y191499D01*
X1606504D01*
X1618500Y288500D02*
Y292499D01*
X1616501D01*
X1615834Y291832D01*
Y290499D01*
X1616501Y289833D01*
X1618500D01*
X1617167D02*
X1615834Y288500D01*
X1611835Y292499D02*
X1614501D01*
Y290499D01*
X1613168Y291166D01*
X1612502D01*
X1611835Y290499D01*
Y289166D01*
X1612502Y288500D01*
X1613835D01*
X1614501Y289166D01*
X1610503Y292499D02*
X1607837D01*
Y291832D01*
X1610503Y289166D01*
Y288500D01*
X1606504D02*
Y291166D01*
X1605171Y292499D01*
X1603838Y291166D01*
Y288500D01*
Y290499D01*
X1606504D01*
X1695334Y198332D02*
X1696001Y198999D01*
X1697334D01*
X1698000Y198332D01*
Y195667D01*
X1697334Y195000D01*
X1696001D01*
X1695334Y195667D01*
X1694001Y195000D02*
X1692668D01*
X1693335D01*
Y198999D01*
X1694001Y198332D01*
X1690669D02*
X1690003Y198999D01*
X1688670D01*
X1688003Y198332D01*
Y197666D01*
X1688670Y196999D01*
X1688003Y196333D01*
Y195667D01*
X1688670Y195000D01*
X1690003D01*
X1690669Y195667D01*
Y196333D01*
X1690003Y196999D01*
X1690669Y197666D01*
Y198332D01*
X1690003Y196999D02*
X1688670D01*
X1686670Y198332D02*
X1686004Y198999D01*
X1684671D01*
X1684005Y198332D01*
Y197666D01*
X1684671Y196999D01*
X1684005Y196333D01*
Y195667D01*
X1684671Y195000D01*
X1686004D01*
X1686670Y195667D01*
Y196333D01*
X1686004Y196999D01*
X1686670Y197666D01*
Y198332D01*
X1686004Y196999D02*
X1684671D01*
X1682672Y198999D02*
Y195000D01*
X1680672D01*
X1680006Y195667D01*
Y196333D01*
X1680672Y196999D01*
X1682672D01*
X1680672D01*
X1680006Y197666D01*
Y198332D01*
X1680672Y198999D01*
X1682672D01*
X1695334Y299332D02*
X1696001Y299999D01*
X1697334D01*
X1698000Y299332D01*
Y296666D01*
X1697334Y296000D01*
X1696001D01*
X1695334Y296666D01*
X1694001Y296000D02*
X1692668D01*
X1693335D01*
Y299999D01*
X1694001Y299332D01*
X1690669D02*
X1690003Y299999D01*
X1688670D01*
X1688003Y299332D01*
Y298666D01*
X1688670Y297999D01*
X1688003Y297333D01*
Y296666D01*
X1688670Y296000D01*
X1690003D01*
X1690669Y296666D01*
Y297333D01*
X1690003Y297999D01*
X1690669Y298666D01*
Y299332D01*
X1690003Y297999D02*
X1688670D01*
X1686670Y299332D02*
X1686004Y299999D01*
X1684671D01*
X1684005Y299332D01*
Y298666D01*
X1684671Y297999D01*
X1684005Y297333D01*
Y296666D01*
X1684671Y296000D01*
X1686004D01*
X1686670Y296666D01*
Y297333D01*
X1686004Y297999D01*
X1686670Y298666D01*
Y299332D01*
X1686004Y297999D02*
X1684671D01*
X1682672Y296000D02*
Y298666D01*
X1681339Y299999D01*
X1680006Y298666D01*
Y296000D01*
Y297999D01*
X1682672D01*
X1615834Y197832D02*
X1616501Y198499D01*
X1617834D01*
X1618500Y197832D01*
Y195167D01*
X1617834Y194500D01*
X1616501D01*
X1615834Y195167D01*
X1614501Y194500D02*
X1613168D01*
X1613835D01*
Y198499D01*
X1614501Y197832D01*
X1611169D02*
X1610503Y198499D01*
X1609170D01*
X1608503Y197832D01*
Y197166D01*
X1609170Y196499D01*
X1608503Y195833D01*
Y195167D01*
X1609170Y194500D01*
X1610503D01*
X1611169Y195167D01*
Y195833D01*
X1610503Y196499D01*
X1611169Y197166D01*
Y197832D01*
X1610503Y196499D02*
X1609170D01*
X1607170Y198499D02*
X1604505D01*
Y197832D01*
X1607170Y195167D01*
Y194500D01*
X1603172Y198499D02*
Y194500D01*
X1601172D01*
X1600506Y195167D01*
Y195833D01*
X1601172Y196499D01*
X1603172D01*
X1601172D01*
X1600506Y197166D01*
Y197832D01*
X1601172Y198499D01*
X1603172D01*
X1615834Y298832D02*
X1616501Y299499D01*
X1617834D01*
X1618500Y298832D01*
Y296166D01*
X1617834Y295500D01*
X1616501D01*
X1615834Y296166D01*
X1614501Y295500D02*
X1613168D01*
X1613835D01*
Y299499D01*
X1614501Y298832D01*
X1611169D02*
X1610503Y299499D01*
X1609170D01*
X1608503Y298832D01*
Y298166D01*
X1609170Y297499D01*
X1608503Y296833D01*
Y296166D01*
X1609170Y295500D01*
X1610503D01*
X1611169Y296166D01*
Y296833D01*
X1610503Y297499D01*
X1611169Y298166D01*
Y298832D01*
X1610503Y297499D02*
X1609170D01*
X1607170Y299499D02*
X1604505D01*
Y298832D01*
X1607170Y296166D01*
Y295500D01*
X1603172D02*
Y298166D01*
X1601839Y299499D01*
X1600506Y298166D01*
Y295500D01*
Y297499D01*
X1603172D01*
X1695334Y183832D02*
X1696001Y184499D01*
X1697334D01*
X1698000Y183832D01*
Y181167D01*
X1697334Y180500D01*
X1696001D01*
X1695334Y181167D01*
X1694001Y180500D02*
X1692668D01*
X1693335D01*
Y184499D01*
X1694001Y183832D01*
X1690669D02*
X1690003Y184499D01*
X1688670D01*
X1688003Y183832D01*
Y183166D01*
X1688670Y182499D01*
X1688003Y181833D01*
Y181167D01*
X1688670Y180500D01*
X1690003D01*
X1690669Y181167D01*
Y181833D01*
X1690003Y182499D01*
X1690669Y183166D01*
Y183832D01*
X1690003Y182499D02*
X1688670D01*
X1684005Y184499D02*
X1685337Y183832D01*
X1686670Y182499D01*
Y181167D01*
X1686004Y180500D01*
X1684671D01*
X1684005Y181167D01*
Y181833D01*
X1684671Y182499D01*
X1686670D01*
X1682672Y184499D02*
Y180500D01*
X1680672D01*
X1680006Y181167D01*
Y181833D01*
X1680672Y182499D01*
X1682672D01*
X1680672D01*
X1680006Y183166D01*
Y183832D01*
X1680672Y184499D01*
X1682672D01*
X1695334Y284832D02*
X1696001Y285499D01*
X1697334D01*
X1698000Y284832D01*
Y282166D01*
X1697334Y281500D01*
X1696001D01*
X1695334Y282166D01*
X1694001Y281500D02*
X1692668D01*
X1693335D01*
Y285499D01*
X1694001Y284832D01*
X1690669D02*
X1690003Y285499D01*
X1688670D01*
X1688003Y284832D01*
Y284166D01*
X1688670Y283499D01*
X1688003Y282833D01*
Y282166D01*
X1688670Y281500D01*
X1690003D01*
X1690669Y282166D01*
Y282833D01*
X1690003Y283499D01*
X1690669Y284166D01*
Y284832D01*
X1690003Y283499D02*
X1688670D01*
X1684005Y285499D02*
X1685337Y284832D01*
X1686670Y283499D01*
Y282166D01*
X1686004Y281500D01*
X1684671D01*
X1684005Y282166D01*
Y282833D01*
X1684671Y283499D01*
X1686670D01*
X1682672Y281500D02*
Y284166D01*
X1681339Y285499D01*
X1680006Y284166D01*
Y281500D01*
Y283499D01*
X1682672D01*
X1695334Y212332D02*
X1696001Y212999D01*
X1697334D01*
X1698000Y212332D01*
Y209666D01*
X1697334Y209000D01*
X1696001D01*
X1695334Y209666D01*
X1694001Y209000D02*
X1692668D01*
X1693335D01*
Y212999D01*
X1694001Y212332D01*
X1690669D02*
X1690003Y212999D01*
X1688670D01*
X1688003Y212332D01*
Y211666D01*
X1688670Y210999D01*
X1688003Y210333D01*
Y209666D01*
X1688670Y209000D01*
X1690003D01*
X1690669Y209666D01*
Y210333D01*
X1690003Y210999D01*
X1690669Y211666D01*
Y212332D01*
X1690003Y210999D02*
X1688670D01*
X1684005Y212999D02*
X1686670D01*
Y210999D01*
X1685337Y211666D01*
X1684671D01*
X1684005Y210999D01*
Y209666D01*
X1684671Y209000D01*
X1686004D01*
X1686670Y209666D01*
X1682672Y212999D02*
Y209000D01*
X1680672D01*
X1680006Y209666D01*
Y210333D01*
X1680672Y210999D01*
X1682672D01*
X1680672D01*
X1680006Y211666D01*
Y212332D01*
X1680672Y212999D01*
X1682672D01*
X1695334Y313332D02*
X1696001Y313999D01*
X1697334D01*
X1698000Y313332D01*
Y310666D01*
X1697334Y310000D01*
X1696001D01*
X1695334Y310666D01*
X1694001Y310000D02*
X1692668D01*
X1693335D01*
Y313999D01*
X1694001Y313332D01*
X1690669D02*
X1690003Y313999D01*
X1688670D01*
X1688003Y313332D01*
Y312666D01*
X1688670Y311999D01*
X1688003Y311333D01*
Y310666D01*
X1688670Y310000D01*
X1690003D01*
X1690669Y310666D01*
Y311333D01*
X1690003Y311999D01*
X1690669Y312666D01*
Y313332D01*
X1690003Y311999D02*
X1688670D01*
X1684005Y313999D02*
X1686670D01*
Y311999D01*
X1685337Y312666D01*
X1684671D01*
X1684005Y311999D01*
Y310666D01*
X1684671Y310000D01*
X1686004D01*
X1686670Y310666D01*
X1682672Y310000D02*
Y312666D01*
X1681339Y313999D01*
X1680006Y312666D01*
Y310000D01*
Y311999D01*
X1682672D01*
X1670834Y125832D02*
X1671501Y126499D01*
X1672834D01*
X1673500Y125832D01*
Y123167D01*
X1672834Y122500D01*
X1671501D01*
X1670834Y123167D01*
X1669501Y122500D02*
X1668168D01*
X1668835D01*
Y126499D01*
X1669501Y125832D01*
X1666169D02*
X1665503Y126499D01*
X1664170D01*
X1663503Y125832D01*
Y125166D01*
X1664170Y124499D01*
X1663503Y123833D01*
Y123167D01*
X1664170Y122500D01*
X1665503D01*
X1666169Y123167D01*
Y123833D01*
X1665503Y124499D01*
X1666169Y125166D01*
Y125832D01*
X1665503Y124499D02*
X1664170D01*
X1660171Y122500D02*
Y126499D01*
X1662170Y124499D01*
X1659505D01*
X1658172Y126499D02*
Y122500D01*
X1656172D01*
X1655506Y123167D01*
Y123833D01*
X1656172Y124499D01*
X1658172D01*
X1656172D01*
X1655506Y125166D01*
Y125832D01*
X1656172Y126499D01*
X1658172D01*
X1670834Y226832D02*
X1671501Y227499D01*
X1672834D01*
X1673500Y226832D01*
Y224166D01*
X1672834Y223500D01*
X1671501D01*
X1670834Y224166D01*
X1669501Y223500D02*
X1668168D01*
X1668835D01*
Y227499D01*
X1669501Y226832D01*
X1666169D02*
X1665503Y227499D01*
X1664170D01*
X1663503Y226832D01*
Y226166D01*
X1664170Y225499D01*
X1663503Y224833D01*
Y224166D01*
X1664170Y223500D01*
X1665503D01*
X1666169Y224166D01*
Y224833D01*
X1665503Y225499D01*
X1666169Y226166D01*
Y226832D01*
X1665503Y225499D02*
X1664170D01*
X1660171Y223500D02*
Y227499D01*
X1662170Y225499D01*
X1659505D01*
X1658172Y223500D02*
Y226166D01*
X1656839Y227499D01*
X1655506Y226166D01*
Y223500D01*
Y225499D01*
X1658172D01*
X1670834Y169832D02*
X1671501Y170499D01*
X1672834D01*
X1673500Y169832D01*
Y167166D01*
X1672834Y166500D01*
X1671501D01*
X1670834Y167166D01*
X1669501Y166500D02*
X1668168D01*
X1668835D01*
Y170499D01*
X1669501Y169832D01*
X1666169D02*
X1665503Y170499D01*
X1664170D01*
X1663503Y169832D01*
Y169166D01*
X1664170Y168499D01*
X1663503Y167833D01*
Y167166D01*
X1664170Y166500D01*
X1665503D01*
X1666169Y167166D01*
Y167833D01*
X1665503Y168499D01*
X1666169Y169166D01*
Y169832D01*
X1665503Y168499D02*
X1664170D01*
X1662170Y169832D02*
X1661504Y170499D01*
X1660171D01*
X1659505Y169832D01*
Y169166D01*
X1660171Y168499D01*
X1660837D01*
X1660171D01*
X1659505Y167833D01*
Y167166D01*
X1660171Y166500D01*
X1661504D01*
X1662170Y167166D01*
X1658172Y170499D02*
Y166500D01*
X1656172D01*
X1655506Y167166D01*
Y167833D01*
X1656172Y168499D01*
X1658172D01*
X1656172D01*
X1655506Y169166D01*
Y169832D01*
X1656172Y170499D01*
X1658172D01*
X1670834Y270832D02*
X1671501Y271499D01*
X1672834D01*
X1673500Y270832D01*
Y268166D01*
X1672834Y267500D01*
X1671501D01*
X1670834Y268166D01*
X1669501Y267500D02*
X1668168D01*
X1668835D01*
Y271499D01*
X1669501Y270832D01*
X1666169D02*
X1665503Y271499D01*
X1664170D01*
X1663503Y270832D01*
Y270166D01*
X1664170Y269499D01*
X1663503Y268833D01*
Y268166D01*
X1664170Y267500D01*
X1665503D01*
X1666169Y268166D01*
Y268833D01*
X1665503Y269499D01*
X1666169Y270166D01*
Y270832D01*
X1665503Y269499D02*
X1664170D01*
X1662170Y270832D02*
X1661504Y271499D01*
X1660171D01*
X1659505Y270832D01*
Y270166D01*
X1660171Y269499D01*
X1660837D01*
X1660171D01*
X1659505Y268833D01*
Y268166D01*
X1660171Y267500D01*
X1661504D01*
X1662170Y268166D01*
X1658172Y267500D02*
Y270166D01*
X1656839Y271499D01*
X1655506Y270166D01*
Y267500D01*
Y269499D01*
X1658172D01*
X1615834Y211832D02*
X1616501Y212499D01*
X1617834D01*
X1618500Y211832D01*
Y209166D01*
X1617834Y208500D01*
X1616501D01*
X1615834Y209166D01*
X1614501Y208500D02*
X1613168D01*
X1613835D01*
Y212499D01*
X1614501Y211832D01*
X1611169D02*
X1610503Y212499D01*
X1609170D01*
X1608503Y211832D01*
Y211166D01*
X1609170Y210499D01*
X1608503Y209833D01*
Y209166D01*
X1609170Y208500D01*
X1610503D01*
X1611169Y209166D01*
Y209833D01*
X1610503Y210499D01*
X1611169Y211166D01*
Y211832D01*
X1610503Y210499D02*
X1609170D01*
X1604505Y208500D02*
X1607170D01*
X1604505Y211166D01*
Y211832D01*
X1605171Y212499D01*
X1606504D01*
X1607170Y211832D01*
X1603172Y212499D02*
Y208500D01*
X1601172D01*
X1600506Y209166D01*
Y209833D01*
X1601172Y210499D01*
X1603172D01*
X1601172D01*
X1600506Y211166D01*
Y211832D01*
X1601172Y212499D01*
X1603172D01*
X1615834Y312832D02*
X1616501Y313499D01*
X1617834D01*
X1618500Y312832D01*
Y310166D01*
X1617834Y309500D01*
X1616501D01*
X1615834Y310166D01*
X1614501Y309500D02*
X1613168D01*
X1613835D01*
Y313499D01*
X1614501Y312832D01*
X1611169D02*
X1610503Y313499D01*
X1609170D01*
X1608503Y312832D01*
Y312166D01*
X1609170Y311499D01*
X1608503Y310833D01*
Y310166D01*
X1609170Y309500D01*
X1610503D01*
X1611169Y310166D01*
Y310833D01*
X1610503Y311499D01*
X1611169Y312166D01*
Y312832D01*
X1610503Y311499D02*
X1609170D01*
X1604505Y309500D02*
X1607170D01*
X1604505Y312166D01*
Y312832D01*
X1605171Y313499D01*
X1606504D01*
X1607170Y312832D01*
X1603172Y309500D02*
Y312166D01*
X1601839Y313499D01*
X1600506Y312166D01*
Y309500D01*
Y311499D01*
X1603172D01*
X1615834Y183832D02*
X1616501Y184499D01*
X1617834D01*
X1618500Y183832D01*
Y181167D01*
X1617834Y180500D01*
X1616501D01*
X1615834Y181167D01*
X1614501Y180500D02*
X1613168D01*
X1613835D01*
Y184499D01*
X1614501Y183832D01*
X1611169D02*
X1610503Y184499D01*
X1609170D01*
X1608503Y183832D01*
Y183166D01*
X1609170Y182499D01*
X1608503Y181833D01*
Y181167D01*
X1609170Y180500D01*
X1610503D01*
X1611169Y181167D01*
Y181833D01*
X1610503Y182499D01*
X1611169Y183166D01*
Y183832D01*
X1610503Y182499D02*
X1609170D01*
X1607170Y180500D02*
X1605837D01*
X1606504D01*
Y184499D01*
X1607170Y183832D01*
X1603838Y184499D02*
Y180500D01*
X1601839D01*
X1601172Y181167D01*
Y181833D01*
X1601839Y182499D01*
X1603838D01*
X1601839D01*
X1601172Y183166D01*
Y183832D01*
X1601839Y184499D01*
X1603838D01*
X1615834Y284832D02*
X1616501Y285499D01*
X1617834D01*
X1618500Y284832D01*
Y282166D01*
X1617834Y281500D01*
X1616501D01*
X1615834Y282166D01*
X1614501Y281500D02*
X1613168D01*
X1613835D01*
Y285499D01*
X1614501Y284832D01*
X1611169D02*
X1610503Y285499D01*
X1609170D01*
X1608503Y284832D01*
Y284166D01*
X1609170Y283499D01*
X1608503Y282833D01*
Y282166D01*
X1609170Y281500D01*
X1610503D01*
X1611169Y282166D01*
Y282833D01*
X1610503Y283499D01*
X1611169Y284166D01*
Y284832D01*
X1610503Y283499D02*
X1609170D01*
X1607170Y281500D02*
X1605837D01*
X1606504D01*
Y285499D01*
X1607170Y284832D01*
X1603838Y281500D02*
Y284166D01*
X1602505Y285499D01*
X1601172Y284166D01*
Y281500D01*
Y283499D01*
X1603838D01*
X1639334Y125832D02*
X1640001Y126499D01*
X1641334D01*
X1642000Y125832D01*
Y123167D01*
X1641334Y122500D01*
X1640001D01*
X1639334Y123167D01*
X1638001Y122500D02*
X1636668D01*
X1637335D01*
Y126499D01*
X1638001Y125832D01*
X1634669D02*
X1634003Y126499D01*
X1632670D01*
X1632003Y125832D01*
Y125166D01*
X1632670Y124499D01*
X1632003Y123833D01*
Y123167D01*
X1632670Y122500D01*
X1634003D01*
X1634669Y123167D01*
Y123833D01*
X1634003Y124499D01*
X1634669Y125166D01*
Y125832D01*
X1634003Y124499D02*
X1632670D01*
X1630670Y125832D02*
X1630004Y126499D01*
X1628671D01*
X1628004Y125832D01*
Y123167D01*
X1628671Y122500D01*
X1630004D01*
X1630670Y123167D01*
Y125832D01*
X1626672Y126499D02*
Y122500D01*
X1624672D01*
X1624006Y123167D01*
Y123833D01*
X1624672Y124499D01*
X1626672D01*
X1624672D01*
X1624006Y125166D01*
Y125832D01*
X1624672Y126499D01*
X1626672D01*
X1639334Y226832D02*
X1640001Y227499D01*
X1641334D01*
X1642000Y226832D01*
Y224166D01*
X1641334Y223500D01*
X1640001D01*
X1639334Y224166D01*
X1638001Y223500D02*
X1636668D01*
X1637335D01*
Y227499D01*
X1638001Y226832D01*
X1634669D02*
X1634003Y227499D01*
X1632670D01*
X1632003Y226832D01*
Y226166D01*
X1632670Y225499D01*
X1632003Y224833D01*
Y224166D01*
X1632670Y223500D01*
X1634003D01*
X1634669Y224166D01*
Y224833D01*
X1634003Y225499D01*
X1634669Y226166D01*
Y226832D01*
X1634003Y225499D02*
X1632670D01*
X1630670Y226832D02*
X1630004Y227499D01*
X1628671D01*
X1628004Y226832D01*
Y224166D01*
X1628671Y223500D01*
X1630004D01*
X1630670Y224166D01*
Y226832D01*
X1626672Y223500D02*
Y226166D01*
X1625339Y227499D01*
X1624006Y226166D01*
Y223500D01*
Y225499D01*
X1626672D01*
X1639834Y170332D02*
X1640501Y170999D01*
X1641834D01*
X1642500Y170332D01*
Y167666D01*
X1641834Y167000D01*
X1640501D01*
X1639834Y167666D01*
X1638501Y167000D02*
X1637168D01*
X1637835D01*
Y170999D01*
X1638501Y170332D01*
X1635169Y170999D02*
X1632503D01*
Y170332D01*
X1635169Y167666D01*
Y167000D01*
X1631170Y167666D02*
X1630504Y167000D01*
X1629171D01*
X1628505Y167666D01*
Y170332D01*
X1629171Y170999D01*
X1630504D01*
X1631170Y170332D01*
Y169666D01*
X1630504Y168999D01*
X1628505D01*
X1627172Y170999D02*
Y167000D01*
X1625172D01*
X1624506Y167666D01*
Y168333D01*
X1625172Y168999D01*
X1627172D01*
X1625172D01*
X1624506Y169666D01*
Y170332D01*
X1625172Y170999D01*
X1627172D01*
X1639834Y271332D02*
X1640501Y271999D01*
X1641834D01*
X1642500Y271332D01*
Y268666D01*
X1641834Y268000D01*
X1640501D01*
X1639834Y268666D01*
X1638501Y268000D02*
X1637168D01*
X1637835D01*
Y271999D01*
X1638501Y271332D01*
X1635169Y271999D02*
X1632503D01*
Y271332D01*
X1635169Y268666D01*
Y268000D01*
X1631170Y268666D02*
X1630504Y268000D01*
X1629171D01*
X1628505Y268666D01*
Y271332D01*
X1629171Y271999D01*
X1630504D01*
X1631170Y271332D01*
Y270666D01*
X1630504Y269999D01*
X1628505D01*
X1627172Y268000D02*
Y270666D01*
X1625839Y271999D01*
X1624506Y270666D01*
Y268000D01*
Y269999D01*
X1627172D01*
X938145Y384986D02*
X938812Y385652D01*
X940145D01*
X940811Y384986D01*
Y382320D01*
X940145Y381653D01*
X938812D01*
X938145Y382320D01*
X936812Y384986D02*
X936146Y385652D01*
X934813D01*
X934146Y384986D01*
Y384319D01*
X934813Y383653D01*
X934146Y382986D01*
Y382320D01*
X934813Y381653D01*
X936146D01*
X936812Y382320D01*
Y382986D01*
X936146Y383653D01*
X936812Y384319D01*
Y384986D01*
X936146Y383653D02*
X934813D01*
X930148Y385652D02*
X932814D01*
Y383653D01*
X931481Y384319D01*
X930814D01*
X930148Y383653D01*
Y382320D01*
X930814Y381653D01*
X932147D01*
X932814Y382320D01*
X924145Y384986D02*
X924812Y385652D01*
X926145D01*
X926811Y384986D01*
Y382320D01*
X926145Y381653D01*
X924812D01*
X924145Y382320D01*
X922812Y384986D02*
X922146Y385652D01*
X920813D01*
X920146Y384986D01*
Y384319D01*
X920813Y383653D01*
X920146Y382986D01*
Y382320D01*
X920813Y381653D01*
X922146D01*
X922812Y382320D01*
Y382986D01*
X922146Y383653D01*
X922812Y384319D01*
Y384986D01*
X922146Y383653D02*
X920813D01*
X916148Y385652D02*
X917481Y384986D01*
X918814Y383653D01*
Y382320D01*
X918147Y381653D01*
X916814D01*
X916148Y382320D01*
Y382986D01*
X916814Y383653D01*
X918814D01*
X827000Y63499D02*
Y60166D01*
X826334Y59500D01*
X825001D01*
X824334Y60166D01*
Y63499D01*
X821002Y59500D02*
Y63499D01*
X823001Y61499D01*
X820335D01*
X817003Y59500D02*
Y63499D01*
X819003Y61499D01*
X816337D01*
X419552Y157500D02*
X416220D01*
X415554Y158167D01*
Y159499D01*
X416220Y160166D01*
X419552D01*
X415554Y161499D02*
Y162832D01*
Y162165D01*
X419552D01*
X418886Y161499D01*
Y164831D02*
X419552Y165497D01*
Y166830D01*
X418886Y167497D01*
X418219D01*
X417553Y166830D01*
Y166164D01*
Y166830D01*
X416886Y167497D01*
X416220D01*
X415554Y166830D01*
Y165497D01*
X416220Y164831D01*
X418886Y171495D02*
X419552Y170829D01*
Y169496D01*
X418886Y168830D01*
X416220D01*
X415554Y169496D01*
Y170829D01*
X416220Y171495D01*
X647666Y157500D02*
X644334D01*
X643668Y158167D01*
Y159499D01*
X644334Y160166D01*
X647666D01*
X643668Y161499D02*
Y162832D01*
Y162165D01*
X647666D01*
X647000Y161499D01*
Y164831D02*
X647666Y165497D01*
Y166830D01*
X647000Y167497D01*
X646334D01*
X645667Y166830D01*
Y166164D01*
Y166830D01*
X645001Y167497D01*
X644334D01*
X643668Y166830D01*
Y165497D01*
X644334Y164831D01*
X643668Y168830D02*
X646334D01*
X647666Y170163D01*
X646334Y171495D01*
X643668D01*
X645667D01*
Y168830D01*
X533359Y157500D02*
X530027D01*
X529361Y158167D01*
Y159499D01*
X530027Y160166D01*
X533359D01*
X529361Y161499D02*
Y162832D01*
Y162165D01*
X533359D01*
X532693Y161499D01*
Y164831D02*
X533359Y165497D01*
Y166830D01*
X532693Y167497D01*
X532026D01*
X531360Y166830D01*
Y166164D01*
Y166830D01*
X530693Y167497D01*
X530027D01*
X529361Y166830D01*
Y165497D01*
X530027Y164831D01*
X533359Y168830D02*
X529361D01*
Y170829D01*
X530027Y171495D01*
X530693D01*
X531360Y170829D01*
Y168830D01*
Y170829D01*
X532026Y171495D01*
X532693D01*
X533359Y170829D01*
Y168830D01*
X305245Y157500D02*
X301913D01*
X301247Y158167D01*
Y159499D01*
X301913Y160166D01*
X305245D01*
X301247Y161499D02*
Y162832D01*
Y162165D01*
X305245D01*
X304579Y161499D01*
Y164831D02*
X305245Y165497D01*
Y166830D01*
X304579Y167497D01*
X303912D01*
X303246Y166830D01*
Y166164D01*
Y166830D01*
X302579Y167497D01*
X301913D01*
X301247Y166830D01*
Y165497D01*
X301913Y164831D01*
X305245Y168830D02*
X301247D01*
Y170829D01*
X301913Y171495D01*
X304579D01*
X305245Y170829D01*
Y168830D01*
X145274Y162332D02*
X145940Y162999D01*
X147273D01*
X147939Y162332D01*
Y159667D01*
X147273Y159000D01*
X145940D01*
X145274Y159667D01*
X143941D02*
X143274Y159000D01*
X141941D01*
X141275Y159667D01*
Y162332D01*
X141941Y162999D01*
X143274D01*
X143941Y162332D01*
Y161666D01*
X143274Y160999D01*
X141275D01*
X139942Y159000D02*
X138609D01*
X139276D01*
Y162999D01*
X139942Y162332D01*
X133944Y162999D02*
X136610D01*
Y159000D01*
X133944D01*
X136610Y160999D02*
X135277D01*
X56477Y119500D02*
X53145D01*
X52479Y120167D01*
Y121499D01*
X53145Y122166D01*
X56477D01*
X52479Y123499D02*
Y124832D01*
Y124165D01*
X56477D01*
X55811Y123499D01*
X52479Y129497D02*
Y126831D01*
X55145Y129497D01*
X55811D01*
X56477Y128830D01*
Y127497D01*
X55811Y126831D01*
X56477Y133495D02*
Y130830D01*
X54478D01*
Y132163D01*
Y130830D01*
X52479D01*
X70631Y119602D02*
X67299D01*
X66632Y120269D01*
Y121602D01*
X67299Y122268D01*
X70631D01*
X66632Y123601D02*
Y124934D01*
Y124267D01*
X70631D01*
X69965Y123601D01*
X70631Y129599D02*
Y126933D01*
X68632D01*
X69298Y128266D01*
Y128933D01*
X68632Y129599D01*
X67299D01*
X66632Y128933D01*
Y127600D01*
X67299Y126933D01*
X70631Y133598D02*
Y130932D01*
X68632D01*
Y132265D01*
Y130932D01*
X66632D01*
X170284Y119500D02*
X166952D01*
X166286Y120167D01*
Y121499D01*
X166952Y122166D01*
X170284D01*
X166286Y123499D02*
Y124832D01*
Y124165D01*
X170284D01*
X169618Y123499D01*
X166286Y129497D02*
Y126831D01*
X168952Y129497D01*
X169618D01*
X170284Y128830D01*
Y127497D01*
X169618Y126831D01*
X170284Y133495D02*
Y130830D01*
X166286D01*
Y133495D01*
X168285Y130830D02*
Y132163D01*
X512706Y119500D02*
X509374D01*
X508707Y120167D01*
Y121499D01*
X509374Y122166D01*
X512706D01*
X508707Y123499D02*
Y124832D01*
Y124165D01*
X512706D01*
X512039Y123499D01*
X508707Y129497D02*
Y126831D01*
X511373Y129497D01*
X512039D01*
X512706Y128830D01*
Y127497D01*
X512039Y126831D01*
X512706Y130830D02*
X508707D01*
Y132829D01*
X509374Y133495D01*
X510040D01*
X510706Y132829D01*
Y130830D01*
Y132829D01*
X511373Y133495D01*
X512039D01*
X512706Y132829D01*
Y130830D01*
X833500Y26999D02*
Y23000D01*
X831501D01*
X830834Y23666D01*
Y26332D01*
X831501Y26999D01*
X833500D01*
X829501Y26332D02*
X828835Y26999D01*
X827502D01*
X826836Y26332D01*
Y25666D01*
X827502Y24999D01*
X826836Y24333D01*
Y23666D01*
X827502Y23000D01*
X828835D01*
X829501Y23666D01*
Y24333D01*
X828835Y24999D01*
X829501Y25666D01*
Y26332D01*
X828835Y24999D02*
X827502D01*
X791500Y26999D02*
Y23000D01*
X789501D01*
X788834Y23666D01*
Y26332D01*
X789501Y26999D01*
X791500D01*
X787501D02*
X784835D01*
Y26332D01*
X787501Y23666D01*
Y23000D01*
X516001Y479000D02*
X520000D01*
Y477001D01*
X519334Y476334D01*
X516668D01*
X516001Y477001D01*
Y479000D01*
X520000Y475001D02*
Y473668D01*
Y474335D01*
X516001D01*
X516668Y475001D01*
X984648Y427152D02*
Y423820D01*
X983981Y423153D01*
X982648D01*
X981982Y423820D01*
Y427152D01*
X978650Y423153D02*
Y427152D01*
X980649Y425153D01*
X977983D01*
X976650Y426486D02*
X975984Y427152D01*
X974651D01*
X973985Y426486D01*
Y423820D01*
X974651Y423153D01*
X975984D01*
X976650Y423820D01*
Y426486D01*
X972652Y427152D02*
Y423153D01*
X970652D01*
X969986Y423820D01*
Y424486D01*
X970652Y425153D01*
X972652D01*
X970652D01*
X969986Y425819D01*
Y426486D01*
X970652Y427152D01*
X972652D01*
X292199Y343499D02*
Y340166D01*
X291533Y339500D01*
X290200D01*
X289533Y340166D01*
Y343499D01*
X286201Y339500D02*
Y343499D01*
X288200Y341499D01*
X285535D01*
X284202Y342832D02*
X283535Y343499D01*
X282202D01*
X281536Y342832D01*
Y340166D01*
X282202Y339500D01*
X283535D01*
X284202Y340166D01*
Y342832D01*
X280203Y339500D02*
Y342166D01*
X278870Y343499D01*
X277537Y342166D01*
Y339500D01*
Y341499D01*
X280203D01*
X896262Y427152D02*
Y423820D01*
X895595Y423153D01*
X894262D01*
X893596Y423820D01*
Y427152D01*
X892263Y426486D02*
X891597Y427152D01*
X890264D01*
X889597Y426486D01*
Y425819D01*
X890264Y425153D01*
X890930D01*
X890264D01*
X889597Y424486D01*
Y423820D01*
X890264Y423153D01*
X891597D01*
X892263Y423820D01*
X888264Y427152D02*
X885599D01*
Y426486D01*
X888264Y423820D01*
Y423153D01*
X884266Y427152D02*
Y423153D01*
X882266D01*
X881600Y423820D01*
Y424486D01*
X882266Y425153D01*
X884266D01*
X882266D01*
X881600Y425819D01*
Y426486D01*
X882266Y427152D01*
X884266D01*
X381000Y342999D02*
Y339666D01*
X380334Y339000D01*
X379001D01*
X378334Y339666D01*
Y342999D01*
X377001Y342332D02*
X376335Y342999D01*
X375002D01*
X374336Y342332D01*
Y341666D01*
X375002Y340999D01*
X375668D01*
X375002D01*
X374336Y340333D01*
Y339666D01*
X375002Y339000D01*
X376335D01*
X377001Y339666D01*
X373003Y342999D02*
X370337D01*
Y342332D01*
X373003Y339666D01*
Y339000D01*
X369004D02*
Y341666D01*
X367671Y342999D01*
X366338Y341666D01*
Y339000D01*
Y340999D01*
X369004D01*
X933811Y359652D02*
Y356320D01*
X933145Y355654D01*
X931812D01*
X931145Y356320D01*
Y359652D01*
X929812Y358986D02*
X929146Y359652D01*
X927813D01*
X927147Y358986D01*
Y358319D01*
X927813Y357653D01*
X928479D01*
X927813D01*
X927147Y356986D01*
Y356320D01*
X927813Y355654D01*
X929146D01*
X929812Y356320D01*
X923814Y355654D02*
Y359652D01*
X925814Y357653D01*
X923148D01*
X184438Y119602D02*
X181106D01*
X180439Y120269D01*
Y121602D01*
X181106Y122268D01*
X184438D01*
X180439Y123601D02*
Y124934D01*
Y124267D01*
X184438D01*
X183772Y123601D01*
X184438Y129599D02*
Y126933D01*
X182439D01*
X183105Y128266D01*
Y128933D01*
X182439Y129599D01*
X181106D01*
X180439Y128933D01*
Y127600D01*
X181106Y126933D01*
X184438Y133598D02*
Y130932D01*
X180439D01*
Y133598D01*
X182439Y130932D02*
Y132265D01*
X298745Y119602D02*
X295413D01*
X294746Y120269D01*
Y121602D01*
X295413Y122268D01*
X298745D01*
X294746Y123601D02*
Y124934D01*
Y124267D01*
X298745D01*
X298079Y123601D01*
X298745Y129599D02*
Y126933D01*
X296746D01*
X297412Y128266D01*
Y128933D01*
X296746Y129599D01*
X295413D01*
X294746Y128933D01*
Y127600D01*
X295413Y126933D01*
X298745Y130932D02*
X294746D01*
Y132931D01*
X295413Y133598D01*
X298079D01*
X298745Y132931D01*
Y130932D01*
X413052Y119602D02*
X409720D01*
X409054Y120269D01*
Y121602D01*
X409720Y122268D01*
X413052D01*
X409054Y123601D02*
Y124934D01*
Y124267D01*
X413052D01*
X412386Y123601D01*
X413052Y129599D02*
Y126933D01*
X411053D01*
X411719Y128266D01*
Y128933D01*
X411053Y129599D01*
X409720D01*
X409054Y128933D01*
Y127600D01*
X409720Y126933D01*
X412386Y133598D02*
X413052Y132931D01*
Y131598D01*
X412386Y130932D01*
X409720D01*
X409054Y131598D01*
Y132931D01*
X409720Y133598D01*
X526859Y119602D02*
X523527D01*
X522861Y120269D01*
Y121602D01*
X523527Y122268D01*
X526859D01*
X522861Y123601D02*
Y124934D01*
Y124267D01*
X526859D01*
X526193Y123601D01*
X526859Y129599D02*
Y126933D01*
X524860D01*
X525526Y128266D01*
Y128933D01*
X524860Y129599D01*
X523527D01*
X522861Y128933D01*
Y127600D01*
X523527Y126933D01*
X526859Y130932D02*
X522861D01*
Y132931D01*
X523527Y133598D01*
X524193D01*
X524860Y132931D01*
Y130932D01*
Y132931D01*
X525526Y133598D01*
X526193D01*
X526859Y132931D01*
Y130932D01*
X641166Y119602D02*
X637834D01*
X637168Y120269D01*
Y121602D01*
X637834Y122268D01*
X641166D01*
X637168Y123601D02*
Y124934D01*
Y124267D01*
X641166D01*
X640500Y123601D01*
X641166Y129599D02*
Y126933D01*
X639167D01*
X639833Y128266D01*
Y128933D01*
X639167Y129599D01*
X637834D01*
X637168Y128933D01*
Y127600D01*
X637834Y126933D01*
X637168Y130932D02*
X639833D01*
X641166Y132265D01*
X639833Y133598D01*
X637168D01*
X639167D01*
Y130932D01*
X77131Y157500D02*
X73799D01*
X73132Y158167D01*
Y159499D01*
X73799Y160166D01*
X77131D01*
X73132Y161499D02*
Y162832D01*
Y162165D01*
X77131D01*
X76465Y161499D01*
Y164831D02*
X77131Y165497D01*
Y166830D01*
X76465Y167497D01*
X75798D01*
X75132Y166830D01*
Y166164D01*
Y166830D01*
X74465Y167497D01*
X73799D01*
X73132Y166830D01*
Y165497D01*
X73799Y164831D01*
X77131Y171495D02*
Y168830D01*
X75132D01*
Y170163D01*
Y168830D01*
X73132D01*
X190938Y157500D02*
X187606D01*
X186939Y158167D01*
Y159499D01*
X187606Y160166D01*
X190938D01*
X186939Y161499D02*
Y162832D01*
Y162165D01*
X190938D01*
X190272Y161499D01*
Y164831D02*
X190938Y165497D01*
Y166830D01*
X190272Y167497D01*
X189605D01*
X188939Y166830D01*
Y166164D01*
Y166830D01*
X188272Y167497D01*
X187606D01*
X186939Y166830D01*
Y165497D01*
X187606Y164831D01*
X190938Y171495D02*
Y168830D01*
X186939D01*
Y171495D01*
X188939Y168830D02*
Y170163D01*
X284592Y119500D02*
X281259D01*
X280593Y120167D01*
Y121499D01*
X281259Y122166D01*
X284592D01*
X280593Y123499D02*
Y124832D01*
Y124165D01*
X284592D01*
X283925Y123499D01*
X280593Y129497D02*
Y126831D01*
X283259Y129497D01*
X283925D01*
X284592Y128830D01*
Y127497D01*
X283925Y126831D01*
X284592Y130830D02*
X280593D01*
Y132829D01*
X281259Y133495D01*
X283925D01*
X284592Y132829D01*
Y130830D01*
X398899Y119500D02*
X395566D01*
X394900Y120167D01*
Y121499D01*
X395566Y122166D01*
X398899D01*
X394900Y123499D02*
Y124832D01*
Y124165D01*
X398899D01*
X398232Y123499D01*
X394900Y129497D02*
Y126831D01*
X397566Y129497D01*
X398232D01*
X398899Y128830D01*
Y127497D01*
X398232Y126831D01*
Y133495D02*
X398899Y132829D01*
Y131496D01*
X398232Y130830D01*
X395566D01*
X394900Y131496D01*
Y132829D01*
X395566Y133495D01*
X627013Y119500D02*
X623681D01*
X623014Y120167D01*
Y121499D01*
X623681Y122166D01*
X627013D01*
X623014Y123499D02*
Y124832D01*
Y124165D01*
X627013D01*
X626346Y123499D01*
X623014Y129497D02*
Y126831D01*
X625680Y129497D01*
X626346D01*
X627013Y128830D01*
Y127497D01*
X626346Y126831D01*
X623014Y130830D02*
X625680D01*
X627013Y132163D01*
X625680Y133495D01*
X623014D01*
X625013D01*
Y130830D01*
X1281999Y113500D02*
X1278666D01*
X1278000Y114166D01*
Y115499D01*
X1278666Y116166D01*
X1281999D01*
X1278000Y117499D02*
Y118832D01*
Y118165D01*
X1281999D01*
X1281332Y117499D01*
X1278000Y120831D02*
Y122164D01*
Y121497D01*
X1281999D01*
X1281332Y120831D01*
X1237499Y113457D02*
X1234167D01*
X1233500Y114123D01*
Y115456D01*
X1234167Y116122D01*
X1237499D01*
X1233500Y117455D02*
Y118788D01*
Y118122D01*
X1237499D01*
X1236832Y117455D01*
Y120788D02*
X1237499Y121454D01*
Y122787D01*
X1236832Y123453D01*
X1234167D01*
X1233500Y122787D01*
Y121454D01*
X1234167Y120788D01*
X1236832D01*
X1195499Y115500D02*
X1192167D01*
X1191500Y116166D01*
Y117499D01*
X1192167Y118166D01*
X1195499D01*
X1192167Y119499D02*
X1191500Y120165D01*
Y121498D01*
X1192167Y122164D01*
X1194832D01*
X1195499Y121498D01*
Y120165D01*
X1194832Y119499D01*
X1194166D01*
X1193499Y120165D01*
Y122164D01*
X1452663Y308499D02*
Y305166D01*
X1451997Y304500D01*
X1450664D01*
X1449997Y305166D01*
Y308499D01*
X1448664Y307832D02*
X1447998Y308499D01*
X1446665D01*
X1445999Y307832D01*
Y307166D01*
X1446665Y306499D01*
X1447332D01*
X1446665D01*
X1445999Y305833D01*
Y305166D01*
X1446665Y304500D01*
X1447998D01*
X1448664Y305166D01*
X1444666Y308499D02*
Y304500D01*
Y306499D01*
X1442000D01*
Y308499D01*
Y304500D01*
X1543663Y308499D02*
Y305166D01*
X1542997Y304500D01*
X1541664D01*
X1540997Y305166D01*
Y308499D01*
X1539664Y307832D02*
X1538998Y308499D01*
X1537665D01*
X1536999Y307832D01*
Y307166D01*
X1537665Y306499D01*
X1538332D01*
X1537665D01*
X1536999Y305833D01*
Y305166D01*
X1537665Y304500D01*
X1538998D01*
X1539664Y305166D01*
X1533000Y307832D02*
X1533667Y308499D01*
X1534999D01*
X1535666Y307832D01*
Y305166D01*
X1534999Y304500D01*
X1533667D01*
X1533000Y305166D01*
Y306499D01*
X1534333D01*
X1452663Y250999D02*
Y247666D01*
X1451997Y247000D01*
X1450664D01*
X1449997Y247666D01*
Y250999D01*
X1448664Y250332D02*
X1447998Y250999D01*
X1446665D01*
X1445999Y250332D01*
Y249666D01*
X1446665Y248999D01*
X1447332D01*
X1446665D01*
X1445999Y248333D01*
Y247666D01*
X1446665Y247000D01*
X1447998D01*
X1448664Y247666D01*
X1442000Y250999D02*
X1444666D01*
Y248999D01*
X1443333D01*
X1444666D01*
Y247000D01*
X1543663Y250999D02*
Y247666D01*
X1542997Y247000D01*
X1541664D01*
X1540997Y247666D01*
Y250999D01*
X1539664Y250332D02*
X1538998Y250999D01*
X1537665D01*
X1536999Y250332D01*
Y249666D01*
X1537665Y248999D01*
X1538332D01*
X1537665D01*
X1536999Y248333D01*
Y247666D01*
X1537665Y247000D01*
X1538998D01*
X1539664Y247666D01*
X1533000Y250999D02*
X1535666D01*
Y247000D01*
X1533000D01*
X1535666Y248999D02*
X1534333D01*
X1452663Y193499D02*
Y190166D01*
X1451997Y189500D01*
X1450664D01*
X1449997Y190166D01*
Y193499D01*
X1448664Y192832D02*
X1447998Y193499D01*
X1446665D01*
X1445999Y192832D01*
Y192166D01*
X1446665Y191499D01*
X1447332D01*
X1446665D01*
X1445999Y190833D01*
Y190166D01*
X1446665Y189500D01*
X1447998D01*
X1448664Y190166D01*
X1444666Y193499D02*
Y189500D01*
X1442667D01*
X1442000Y190166D01*
Y192832D01*
X1442667Y193499D01*
X1444666D01*
X1543663D02*
Y190166D01*
X1542997Y189500D01*
X1541664D01*
X1540997Y190166D01*
Y193499D01*
X1539664Y192832D02*
X1538998Y193499D01*
X1537665D01*
X1536999Y192832D01*
Y192166D01*
X1537665Y191499D01*
X1538332D01*
X1537665D01*
X1536999Y190833D01*
Y190166D01*
X1537665Y189500D01*
X1538998D01*
X1539664Y190166D01*
X1533000Y192832D02*
X1533667Y193499D01*
X1534999D01*
X1535666Y192832D01*
Y190166D01*
X1534999Y189500D01*
X1533667D01*
X1533000Y190166D01*
X1452663Y135999D02*
Y132667D01*
X1451997Y132000D01*
X1450664D01*
X1449997Y132667D01*
Y135999D01*
X1448664Y135332D02*
X1447998Y135999D01*
X1446665D01*
X1445999Y135332D01*
Y134666D01*
X1446665Y133999D01*
X1447332D01*
X1446665D01*
X1445999Y133333D01*
Y132667D01*
X1446665Y132000D01*
X1447998D01*
X1448664Y132667D01*
X1444666Y135999D02*
Y132000D01*
X1442667D01*
X1442000Y132667D01*
Y133333D01*
X1442667Y133999D01*
X1444666D01*
X1442667D01*
X1442000Y134666D01*
Y135332D01*
X1442667Y135999D01*
X1444666D01*
X1543663D02*
Y132667D01*
X1542997Y132000D01*
X1541664D01*
X1540997Y132667D01*
Y135999D01*
X1539664Y135332D02*
X1538998Y135999D01*
X1537665D01*
X1536999Y135332D01*
Y134666D01*
X1537665Y133999D01*
X1538332D01*
X1537665D01*
X1536999Y133333D01*
Y132667D01*
X1537665Y132000D01*
X1538998D01*
X1539664Y132667D01*
X1535666Y132000D02*
Y134666D01*
X1534333Y135999D01*
X1533000Y134666D01*
Y132000D01*
Y133999D01*
X1535666D01*
X827000Y108500D02*
X830999D01*
Y110499D01*
X830332Y111166D01*
X828999D01*
X828333Y110499D01*
Y108500D01*
Y109833D02*
X827000Y111166D01*
X830999Y115164D02*
Y112499D01*
X828999D01*
X829666Y113832D01*
Y114498D01*
X828999Y115164D01*
X827666D01*
X827000Y114498D01*
Y113165D01*
X827666Y112499D01*
X830999Y119163D02*
X830332Y117830D01*
X828999Y116497D01*
X827666D01*
X827000Y117164D01*
Y118497D01*
X827666Y119163D01*
X828333D01*
X828999Y118497D01*
Y116497D01*
X859000Y69500D02*
Y73499D01*
X857001D01*
X856334Y72832D01*
Y71499D01*
X857001Y70833D01*
X859000D01*
X857667D02*
X856334Y69500D01*
X852335Y73499D02*
X855001D01*
Y71499D01*
X853668Y72166D01*
X853002D01*
X852335Y71499D01*
Y70166D01*
X853002Y69500D01*
X854335D01*
X855001Y70166D01*
X848337Y73499D02*
X851003D01*
Y71499D01*
X849670Y72166D01*
X849003D01*
X848337Y71499D01*
Y70166D01*
X849003Y69500D01*
X850336D01*
X851003Y70166D01*
X858500Y77000D02*
Y80999D01*
X856501D01*
X855834Y80332D01*
Y78999D01*
X856501Y78333D01*
X858500D01*
X857167D02*
X855834Y77000D01*
X851836Y80999D02*
X854501D01*
Y78999D01*
X853168Y79666D01*
X852502D01*
X851836Y78999D01*
Y77666D01*
X852502Y77000D01*
X853835D01*
X854501Y77666D01*
X848503Y77000D02*
Y80999D01*
X850503Y78999D01*
X847837D01*
X503400Y482000D02*
X499401D01*
Y480001D01*
X500068Y479334D01*
X501401D01*
X502067Y480001D01*
Y482000D01*
Y480667D02*
X503400Y479334D01*
Y478001D02*
Y476668D01*
Y477335D01*
X499401D01*
X500068Y478001D01*
X499401Y474669D02*
Y472003D01*
X500068D01*
X502734Y474669D01*
X503400D01*
X537685Y481653D02*
X533686D01*
Y479654D01*
X534353Y478988D01*
X535686D01*
X536352Y479654D01*
Y481653D01*
Y480321D02*
X537685Y478988D01*
Y477655D02*
Y476322D01*
Y476988D01*
X533686D01*
X534353Y477655D01*
Y474323D02*
X533686Y473656D01*
Y472323D01*
X534353Y471657D01*
X535019D01*
X535686Y472323D01*
Y472990D01*
Y472323D01*
X536352Y471657D01*
X537018D01*
X537685Y472323D01*
Y473656D01*
X537018Y474323D01*
X1490663Y318500D02*
Y322499D01*
X1488664D01*
X1487997Y321832D01*
Y320499D01*
X1488664Y319833D01*
X1490663D01*
X1489330D02*
X1487997Y318500D01*
X1486664Y319166D02*
X1485998Y318500D01*
X1484665D01*
X1483999Y319166D01*
Y321832D01*
X1484665Y322499D01*
X1485998D01*
X1486664Y321832D01*
Y321166D01*
X1485998Y320499D01*
X1483999D01*
X1482666Y322499D02*
Y318500D01*
Y320499D01*
X1480000D01*
Y322499D01*
Y318500D01*
X1581663D02*
Y322499D01*
X1579664D01*
X1578997Y321832D01*
Y320499D01*
X1579664Y319833D01*
X1581663D01*
X1580330D02*
X1578997Y318500D01*
X1577664Y319166D02*
X1576998Y318500D01*
X1575665D01*
X1574999Y319166D01*
Y321832D01*
X1575665Y322499D01*
X1576998D01*
X1577664Y321832D01*
Y321166D01*
X1576998Y320499D01*
X1574999D01*
X1571000Y321832D02*
X1571667Y322499D01*
X1572999D01*
X1573666Y321832D01*
Y319166D01*
X1572999Y318500D01*
X1571667D01*
X1571000Y319166D01*
Y320499D01*
X1572333D01*
X1490663Y261000D02*
Y264999D01*
X1488664D01*
X1487997Y264332D01*
Y262999D01*
X1488664Y262333D01*
X1490663D01*
X1489330D02*
X1487997Y261000D01*
X1486664Y261666D02*
X1485998Y261000D01*
X1484665D01*
X1483999Y261666D01*
Y264332D01*
X1484665Y264999D01*
X1485998D01*
X1486664Y264332D01*
Y263666D01*
X1485998Y262999D01*
X1483999D01*
X1480000Y264999D02*
X1482666D01*
Y262999D01*
X1481333D01*
X1482666D01*
Y261000D01*
X1581663D02*
Y264999D01*
X1579664D01*
X1578997Y264332D01*
Y262999D01*
X1579664Y262333D01*
X1581663D01*
X1580330D02*
X1578997Y261000D01*
X1577664Y261666D02*
X1576998Y261000D01*
X1575665D01*
X1574999Y261666D01*
Y264332D01*
X1575665Y264999D01*
X1576998D01*
X1577664Y264332D01*
Y263666D01*
X1576998Y262999D01*
X1574999D01*
X1571000Y264999D02*
X1573666D01*
Y261000D01*
X1571000D01*
X1573666Y262999D02*
X1572333D01*
X1490663Y203500D02*
Y207499D01*
X1488664D01*
X1487997Y206832D01*
Y205499D01*
X1488664Y204833D01*
X1490663D01*
X1489330D02*
X1487997Y203500D01*
X1486664Y204167D02*
X1485998Y203500D01*
X1484665D01*
X1483999Y204167D01*
Y206832D01*
X1484665Y207499D01*
X1485998D01*
X1486664Y206832D01*
Y206166D01*
X1485998Y205499D01*
X1483999D01*
X1482666Y207499D02*
Y203500D01*
X1480667D01*
X1480000Y204167D01*
Y206832D01*
X1480667Y207499D01*
X1482666D01*
X1581663Y203500D02*
Y207499D01*
X1579664D01*
X1578997Y206832D01*
Y205499D01*
X1579664Y204833D01*
X1581663D01*
X1580330D02*
X1578997Y203500D01*
X1577664Y204167D02*
X1576998Y203500D01*
X1575665D01*
X1574999Y204167D01*
Y206832D01*
X1575665Y207499D01*
X1576998D01*
X1577664Y206832D01*
Y206166D01*
X1576998Y205499D01*
X1574999D01*
X1571000Y206832D02*
X1571667Y207499D01*
X1572999D01*
X1573666Y206832D01*
Y204167D01*
X1572999Y203500D01*
X1571667D01*
X1571000Y204167D01*
X1490663Y146000D02*
Y149999D01*
X1488664D01*
X1487997Y149332D01*
Y147999D01*
X1488664Y147333D01*
X1490663D01*
X1489330D02*
X1487997Y146000D01*
X1486664Y146667D02*
X1485998Y146000D01*
X1484665D01*
X1483999Y146667D01*
Y149332D01*
X1484665Y149999D01*
X1485998D01*
X1486664Y149332D01*
Y148666D01*
X1485998Y147999D01*
X1483999D01*
X1482666Y149999D02*
Y146000D01*
X1480667D01*
X1480000Y146667D01*
Y147333D01*
X1480667Y147999D01*
X1482666D01*
X1480667D01*
X1480000Y148666D01*
Y149332D01*
X1480667Y149999D01*
X1482666D01*
X1581663Y146000D02*
Y149999D01*
X1579664D01*
X1578997Y149332D01*
Y147999D01*
X1579664Y147333D01*
X1581663D01*
X1580330D02*
X1578997Y146000D01*
X1577664Y146667D02*
X1576998Y146000D01*
X1575665D01*
X1574999Y146667D01*
Y149332D01*
X1575665Y149999D01*
X1576998D01*
X1577664Y149332D01*
Y148666D01*
X1576998Y147999D01*
X1574999D01*
X1573666Y146000D02*
Y148666D01*
X1572333Y149999D01*
X1571000Y148666D01*
Y146000D01*
Y147999D01*
X1573666D01*
X1490663Y311500D02*
Y315499D01*
X1488664D01*
X1487997Y314832D01*
Y313499D01*
X1488664Y312833D01*
X1490663D01*
X1489330D02*
X1487997Y311500D01*
X1486664Y314832D02*
X1485998Y315499D01*
X1484665D01*
X1483999Y314832D01*
Y314166D01*
X1484665Y313499D01*
X1483999Y312833D01*
Y312166D01*
X1484665Y311500D01*
X1485998D01*
X1486664Y312166D01*
Y312833D01*
X1485998Y313499D01*
X1486664Y314166D01*
Y314832D01*
X1485998Y313499D02*
X1484665D01*
X1482666Y315499D02*
Y311500D01*
Y313499D01*
X1480000D01*
Y315499D01*
Y311500D01*
X1581663D02*
Y315499D01*
X1579664D01*
X1578997Y314832D01*
Y313499D01*
X1579664Y312833D01*
X1581663D01*
X1580330D02*
X1578997Y311500D01*
X1577664Y314832D02*
X1576998Y315499D01*
X1575665D01*
X1574999Y314832D01*
Y314166D01*
X1575665Y313499D01*
X1574999Y312833D01*
Y312166D01*
X1575665Y311500D01*
X1576998D01*
X1577664Y312166D01*
Y312833D01*
X1576998Y313499D01*
X1577664Y314166D01*
Y314832D01*
X1576998Y313499D02*
X1575665D01*
X1571000Y314832D02*
X1571667Y315499D01*
X1572999D01*
X1573666Y314832D01*
Y312166D01*
X1572999Y311500D01*
X1571667D01*
X1571000Y312166D01*
Y313499D01*
X1572333D01*
X1490663Y254000D02*
Y257999D01*
X1488664D01*
X1487997Y257332D01*
Y255999D01*
X1488664Y255333D01*
X1490663D01*
X1489330D02*
X1487997Y254000D01*
X1486664Y257332D02*
X1485998Y257999D01*
X1484665D01*
X1483999Y257332D01*
Y256666D01*
X1484665Y255999D01*
X1483999Y255333D01*
Y254666D01*
X1484665Y254000D01*
X1485998D01*
X1486664Y254666D01*
Y255333D01*
X1485998Y255999D01*
X1486664Y256666D01*
Y257332D01*
X1485998Y255999D02*
X1484665D01*
X1480000Y257999D02*
X1482666D01*
Y255999D01*
X1481333D01*
X1482666D01*
Y254000D01*
X1581663D02*
Y257999D01*
X1579664D01*
X1578997Y257332D01*
Y255999D01*
X1579664Y255333D01*
X1581663D01*
X1580330D02*
X1578997Y254000D01*
X1577664Y257332D02*
X1576998Y257999D01*
X1575665D01*
X1574999Y257332D01*
Y256666D01*
X1575665Y255999D01*
X1574999Y255333D01*
Y254666D01*
X1575665Y254000D01*
X1576998D01*
X1577664Y254666D01*
Y255333D01*
X1576998Y255999D01*
X1577664Y256666D01*
Y257332D01*
X1576998Y255999D02*
X1575665D01*
X1571000Y257999D02*
X1573666D01*
Y254000D01*
X1571000D01*
X1573666Y255999D02*
X1572333D01*
X1490663Y196500D02*
Y200499D01*
X1488664D01*
X1487997Y199832D01*
Y198499D01*
X1488664Y197833D01*
X1490663D01*
X1489330D02*
X1487997Y196500D01*
X1486664Y199832D02*
X1485998Y200499D01*
X1484665D01*
X1483999Y199832D01*
Y199166D01*
X1484665Y198499D01*
X1483999Y197833D01*
Y197167D01*
X1484665Y196500D01*
X1485998D01*
X1486664Y197167D01*
Y197833D01*
X1485998Y198499D01*
X1486664Y199166D01*
Y199832D01*
X1485998Y198499D02*
X1484665D01*
X1482666Y200499D02*
Y196500D01*
X1480667D01*
X1480000Y197167D01*
Y199832D01*
X1480667Y200499D01*
X1482666D01*
X1581663Y196500D02*
Y200499D01*
X1579664D01*
X1578997Y199832D01*
Y198499D01*
X1579664Y197833D01*
X1581663D01*
X1580330D02*
X1578997Y196500D01*
X1577664Y199832D02*
X1576998Y200499D01*
X1575665D01*
X1574999Y199832D01*
Y199166D01*
X1575665Y198499D01*
X1574999Y197833D01*
Y197167D01*
X1575665Y196500D01*
X1576998D01*
X1577664Y197167D01*
Y197833D01*
X1576998Y198499D01*
X1577664Y199166D01*
Y199832D01*
X1576998Y198499D02*
X1575665D01*
X1571000Y199832D02*
X1571667Y200499D01*
X1572999D01*
X1573666Y199832D01*
Y197167D01*
X1572999Y196500D01*
X1571667D01*
X1571000Y197167D01*
X1490663Y139000D02*
Y142999D01*
X1488664D01*
X1487997Y142332D01*
Y140999D01*
X1488664Y140333D01*
X1490663D01*
X1489330D02*
X1487997Y139000D01*
X1486664Y142332D02*
X1485998Y142999D01*
X1484665D01*
X1483999Y142332D01*
Y141666D01*
X1484665Y140999D01*
X1483999Y140333D01*
Y139666D01*
X1484665Y139000D01*
X1485998D01*
X1486664Y139666D01*
Y140333D01*
X1485998Y140999D01*
X1486664Y141666D01*
Y142332D01*
X1485998Y140999D02*
X1484665D01*
X1482666Y142999D02*
Y139000D01*
X1480667D01*
X1480000Y139666D01*
Y140333D01*
X1480667Y140999D01*
X1482666D01*
X1480667D01*
X1480000Y141666D01*
Y142332D01*
X1480667Y142999D01*
X1482666D01*
X1581663Y139000D02*
Y142999D01*
X1579664D01*
X1578997Y142332D01*
Y140999D01*
X1579664Y140333D01*
X1581663D01*
X1580330D02*
X1578997Y139000D01*
X1577664Y142332D02*
X1576998Y142999D01*
X1575665D01*
X1574999Y142332D01*
Y141666D01*
X1575665Y140999D01*
X1574999Y140333D01*
Y139666D01*
X1575665Y139000D01*
X1576998D01*
X1577664Y139666D01*
Y140333D01*
X1576998Y140999D01*
X1577664Y141666D01*
Y142332D01*
X1576998Y140999D02*
X1575665D01*
X1573666Y139000D02*
Y141666D01*
X1572333Y142999D01*
X1571000Y141666D01*
Y139000D01*
Y140999D01*
X1573666D01*
X1466663Y291500D02*
Y295499D01*
X1464664D01*
X1463997Y294832D01*
Y293499D01*
X1464664Y292833D01*
X1466663D01*
X1465330D02*
X1463997Y291500D01*
X1462665Y295499D02*
X1459999D01*
Y294832D01*
X1462665Y292166D01*
Y291500D01*
X1458666Y295499D02*
Y291500D01*
Y293499D01*
X1456000D01*
Y295499D01*
Y291500D01*
X1557663D02*
Y295499D01*
X1555664D01*
X1554997Y294832D01*
Y293499D01*
X1555664Y292833D01*
X1557663D01*
X1556330D02*
X1554997Y291500D01*
X1553664Y295499D02*
X1550999D01*
Y294832D01*
X1553664Y292166D01*
Y291500D01*
X1547000Y294832D02*
X1547666Y295499D01*
X1548999D01*
X1549666Y294832D01*
Y292166D01*
X1548999Y291500D01*
X1547666D01*
X1547000Y292166D01*
Y293499D01*
X1548333D01*
X1466663Y234000D02*
Y237999D01*
X1464664D01*
X1463997Y237332D01*
Y235999D01*
X1464664Y235333D01*
X1466663D01*
X1465330D02*
X1463997Y234000D01*
X1462665Y237999D02*
X1459999D01*
Y237332D01*
X1462665Y234666D01*
Y234000D01*
X1456000Y237999D02*
X1458666D01*
Y235999D01*
X1457333D01*
X1458666D01*
Y234000D01*
X1557663D02*
Y237999D01*
X1555664D01*
X1554997Y237332D01*
Y235999D01*
X1555664Y235333D01*
X1557663D01*
X1556330D02*
X1554997Y234000D01*
X1553664Y237999D02*
X1550999D01*
Y237332D01*
X1553664Y234666D01*
Y234000D01*
X1547000Y237999D02*
X1549666D01*
Y234000D01*
X1547000D01*
X1549666Y235999D02*
X1548333D01*
X1466663Y176500D02*
Y180499D01*
X1464664D01*
X1463997Y179832D01*
Y178499D01*
X1464664Y177833D01*
X1466663D01*
X1465330D02*
X1463997Y176500D01*
X1462665Y180499D02*
X1459999D01*
Y179832D01*
X1462665Y177166D01*
Y176500D01*
X1458666Y180499D02*
Y176500D01*
X1456666D01*
X1456000Y177166D01*
Y179832D01*
X1456666Y180499D01*
X1458666D01*
X1557663Y176500D02*
Y180499D01*
X1555664D01*
X1554997Y179832D01*
Y178499D01*
X1555664Y177833D01*
X1557663D01*
X1556330D02*
X1554997Y176500D01*
X1553664Y180499D02*
X1550999D01*
Y179832D01*
X1553664Y177166D01*
Y176500D01*
X1547000Y179832D02*
X1547666Y180499D01*
X1548999D01*
X1549666Y179832D01*
Y177166D01*
X1548999Y176500D01*
X1547666D01*
X1547000Y177166D01*
X1466663Y119000D02*
Y122999D01*
X1464664D01*
X1463997Y122332D01*
Y120999D01*
X1464664Y120333D01*
X1466663D01*
X1465330D02*
X1463997Y119000D01*
X1462665Y122999D02*
X1459999D01*
Y122332D01*
X1462665Y119667D01*
Y119000D01*
X1458666Y122999D02*
Y119000D01*
X1456666D01*
X1456000Y119667D01*
Y120333D01*
X1456666Y120999D01*
X1458666D01*
X1456666D01*
X1456000Y121666D01*
Y122332D01*
X1456666Y122999D01*
X1458666D01*
X1557663Y119000D02*
Y122999D01*
X1555664D01*
X1554997Y122332D01*
Y120999D01*
X1555664Y120333D01*
X1557663D01*
X1556330D02*
X1554997Y119000D01*
X1553664Y122999D02*
X1550999D01*
Y122332D01*
X1553664Y119667D01*
Y119000D01*
X1549666D02*
Y121666D01*
X1548333Y122999D01*
X1547000Y121666D01*
Y119000D01*
Y120999D01*
X1549666D01*
X1452663Y291500D02*
Y295499D01*
X1450664D01*
X1449997Y294832D01*
Y293499D01*
X1450664Y292833D01*
X1452663D01*
X1451330D02*
X1449997Y291500D01*
X1445999Y295499D02*
X1447332Y294832D01*
X1448664Y293499D01*
Y292166D01*
X1447998Y291500D01*
X1446665D01*
X1445999Y292166D01*
Y292833D01*
X1446665Y293499D01*
X1448664D01*
X1444666Y295499D02*
Y291500D01*
Y293499D01*
X1442000D01*
Y295499D01*
Y291500D01*
X1543663D02*
Y295499D01*
X1541664D01*
X1540997Y294832D01*
Y293499D01*
X1541664Y292833D01*
X1543663D01*
X1542330D02*
X1540997Y291500D01*
X1536999Y295499D02*
X1538332Y294832D01*
X1539664Y293499D01*
Y292166D01*
X1538998Y291500D01*
X1537665D01*
X1536999Y292166D01*
Y292833D01*
X1537665Y293499D01*
X1539664D01*
X1533000Y294832D02*
X1533667Y295499D01*
X1534999D01*
X1535666Y294832D01*
Y292166D01*
X1534999Y291500D01*
X1533667D01*
X1533000Y292166D01*
Y293499D01*
X1534333D01*
X1452663Y234000D02*
Y237999D01*
X1450664D01*
X1449997Y237332D01*
Y235999D01*
X1450664Y235333D01*
X1452663D01*
X1451330D02*
X1449997Y234000D01*
X1445999Y237999D02*
X1447332Y237332D01*
X1448664Y235999D01*
Y234666D01*
X1447998Y234000D01*
X1446665D01*
X1445999Y234666D01*
Y235333D01*
X1446665Y235999D01*
X1448664D01*
X1442000Y237999D02*
X1444666D01*
Y235999D01*
X1443333D01*
X1444666D01*
Y234000D01*
X1543663D02*
Y237999D01*
X1541664D01*
X1540997Y237332D01*
Y235999D01*
X1541664Y235333D01*
X1543663D01*
X1542330D02*
X1540997Y234000D01*
X1536999Y237999D02*
X1538332Y237332D01*
X1539664Y235999D01*
Y234666D01*
X1538998Y234000D01*
X1537665D01*
X1536999Y234666D01*
Y235333D01*
X1537665Y235999D01*
X1539664D01*
X1533000Y237999D02*
X1535666D01*
Y234000D01*
X1533000D01*
X1535666Y235999D02*
X1534333D01*
X1452663Y176500D02*
Y180499D01*
X1450664D01*
X1449997Y179832D01*
Y178499D01*
X1450664Y177833D01*
X1452663D01*
X1451330D02*
X1449997Y176500D01*
X1445999Y180499D02*
X1447332Y179832D01*
X1448664Y178499D01*
Y177166D01*
X1447998Y176500D01*
X1446665D01*
X1445999Y177166D01*
Y177833D01*
X1446665Y178499D01*
X1448664D01*
X1444666Y180499D02*
Y176500D01*
X1442667D01*
X1442000Y177166D01*
Y179832D01*
X1442667Y180499D01*
X1444666D01*
X1543663Y176500D02*
Y180499D01*
X1541664D01*
X1540997Y179832D01*
Y178499D01*
X1541664Y177833D01*
X1543663D01*
X1542330D02*
X1540997Y176500D01*
X1536999Y180499D02*
X1538332Y179832D01*
X1539664Y178499D01*
Y177166D01*
X1538998Y176500D01*
X1537665D01*
X1536999Y177166D01*
Y177833D01*
X1537665Y178499D01*
X1539664D01*
X1533000Y179832D02*
X1533667Y180499D01*
X1534999D01*
X1535666Y179832D01*
Y177166D01*
X1534999Y176500D01*
X1533667D01*
X1533000Y177166D01*
X1452663Y119000D02*
Y122999D01*
X1450664D01*
X1449997Y122332D01*
Y120999D01*
X1450664Y120333D01*
X1452663D01*
X1451330D02*
X1449997Y119000D01*
X1445999Y122999D02*
X1447332Y122332D01*
X1448664Y120999D01*
Y119667D01*
X1447998Y119000D01*
X1446665D01*
X1445999Y119667D01*
Y120333D01*
X1446665Y120999D01*
X1448664D01*
X1444666Y122999D02*
Y119000D01*
X1442667D01*
X1442000Y119667D01*
Y120333D01*
X1442667Y120999D01*
X1444666D01*
X1442667D01*
X1442000Y121666D01*
Y122332D01*
X1442667Y122999D01*
X1444666D01*
X1543663Y119000D02*
Y122999D01*
X1541664D01*
X1540997Y122332D01*
Y120999D01*
X1541664Y120333D01*
X1543663D01*
X1542330D02*
X1540997Y119000D01*
X1536999Y122999D02*
X1538332Y122332D01*
X1539664Y120999D01*
Y119667D01*
X1538998Y119000D01*
X1537665D01*
X1536999Y119667D01*
Y120333D01*
X1537665Y120999D01*
X1539664D01*
X1535666Y119000D02*
Y121666D01*
X1534333Y122999D01*
X1533000Y121666D01*
Y119000D01*
Y120999D01*
X1535666D01*
X1440163Y335000D02*
Y338999D01*
X1438164D01*
X1437497Y338332D01*
Y336999D01*
X1438164Y336333D01*
X1440163D01*
X1438830D02*
X1437497Y335000D01*
X1433499Y338999D02*
X1436164D01*
Y336999D01*
X1434832Y337666D01*
X1434165D01*
X1433499Y336999D01*
Y335666D01*
X1434165Y335000D01*
X1435498D01*
X1436164Y335666D01*
X1432166Y338999D02*
Y335000D01*
Y336999D01*
X1429500D01*
Y338999D01*
Y335000D01*
X1531163D02*
Y338999D01*
X1529164D01*
X1528497Y338332D01*
Y336999D01*
X1529164Y336333D01*
X1531163D01*
X1529830D02*
X1528497Y335000D01*
X1524499Y338999D02*
X1527164D01*
Y336999D01*
X1525832Y337666D01*
X1525165D01*
X1524499Y336999D01*
Y335666D01*
X1525165Y335000D01*
X1526498D01*
X1527164Y335666D01*
X1520500Y338332D02*
X1521167Y338999D01*
X1522499D01*
X1523166Y338332D01*
Y335666D01*
X1522499Y335000D01*
X1521167D01*
X1520500Y335666D01*
Y336999D01*
X1521833D01*
X1440163Y277500D02*
Y281499D01*
X1438164D01*
X1437497Y280832D01*
Y279499D01*
X1438164Y278833D01*
X1440163D01*
X1438830D02*
X1437497Y277500D01*
X1433499Y281499D02*
X1436164D01*
Y279499D01*
X1434832Y280166D01*
X1434165D01*
X1433499Y279499D01*
Y278166D01*
X1434165Y277500D01*
X1435498D01*
X1436164Y278166D01*
X1429500Y281499D02*
X1432166D01*
Y279499D01*
X1430833D01*
X1432166D01*
Y277500D01*
X1531163D02*
Y281499D01*
X1529164D01*
X1528497Y280832D01*
Y279499D01*
X1529164Y278833D01*
X1531163D01*
X1529830D02*
X1528497Y277500D01*
X1524499Y281499D02*
X1527164D01*
Y279499D01*
X1525832Y280166D01*
X1525165D01*
X1524499Y279499D01*
Y278166D01*
X1525165Y277500D01*
X1526498D01*
X1527164Y278166D01*
X1520500Y281499D02*
X1523166D01*
Y277500D01*
X1520500D01*
X1523166Y279499D02*
X1521833D01*
X1440163Y220000D02*
Y223999D01*
X1438164D01*
X1437497Y223332D01*
Y221999D01*
X1438164Y221333D01*
X1440163D01*
X1438830D02*
X1437497Y220000D01*
X1433499Y223999D02*
X1436164D01*
Y221999D01*
X1434832Y222666D01*
X1434165D01*
X1433499Y221999D01*
Y220666D01*
X1434165Y220000D01*
X1435498D01*
X1436164Y220666D01*
X1432166Y223999D02*
Y220000D01*
X1430167D01*
X1429500Y220666D01*
Y223332D01*
X1430167Y223999D01*
X1432166D01*
X1531163Y220000D02*
Y223999D01*
X1529164D01*
X1528497Y223332D01*
Y221999D01*
X1529164Y221333D01*
X1531163D01*
X1529830D02*
X1528497Y220000D01*
X1524499Y223999D02*
X1527164D01*
Y221999D01*
X1525832Y222666D01*
X1525165D01*
X1524499Y221999D01*
Y220666D01*
X1525165Y220000D01*
X1526498D01*
X1527164Y220666D01*
X1520500Y223332D02*
X1521167Y223999D01*
X1522499D01*
X1523166Y223332D01*
Y220666D01*
X1522499Y220000D01*
X1521167D01*
X1520500Y220666D01*
X1440163Y162500D02*
Y166499D01*
X1438164D01*
X1437497Y165832D01*
Y164499D01*
X1438164Y163833D01*
X1440163D01*
X1438830D02*
X1437497Y162500D01*
X1433499Y166499D02*
X1436164D01*
Y164499D01*
X1434832Y165166D01*
X1434165D01*
X1433499Y164499D01*
Y163166D01*
X1434165Y162500D01*
X1435498D01*
X1436164Y163166D01*
X1432166Y166499D02*
Y162500D01*
X1430167D01*
X1429500Y163166D01*
Y163833D01*
X1430167Y164499D01*
X1432166D01*
X1430167D01*
X1429500Y165166D01*
Y165832D01*
X1430167Y166499D01*
X1432166D01*
X1531163Y162500D02*
Y166499D01*
X1529164D01*
X1528497Y165832D01*
Y164499D01*
X1529164Y163833D01*
X1531163D01*
X1529830D02*
X1528497Y162500D01*
X1524499Y166499D02*
X1527164D01*
Y164499D01*
X1525832Y165166D01*
X1525165D01*
X1524499Y164499D01*
Y163166D01*
X1525165Y162500D01*
X1526498D01*
X1527164Y163166D01*
X1523166Y162500D02*
Y165166D01*
X1521833Y166499D01*
X1520500Y165166D01*
Y162500D01*
Y164499D01*
X1523166D01*
X1420163Y301000D02*
Y304999D01*
X1418164D01*
X1417497Y304332D01*
Y302999D01*
X1418164Y302333D01*
X1420163D01*
X1418830D02*
X1417497Y301000D01*
X1414165D02*
Y304999D01*
X1416164Y302999D01*
X1413499D01*
X1412166Y304999D02*
Y301000D01*
Y302999D01*
X1409500D01*
Y304999D01*
Y301000D01*
X1511163D02*
Y304999D01*
X1509164D01*
X1508497Y304332D01*
Y302999D01*
X1509164Y302333D01*
X1511163D01*
X1509830D02*
X1508497Y301000D01*
X1505165D02*
Y304999D01*
X1507164Y302999D01*
X1504499D01*
X1500500Y304332D02*
X1501167Y304999D01*
X1502499D01*
X1503166Y304332D01*
Y301666D01*
X1502499Y301000D01*
X1501167D01*
X1500500Y301666D01*
Y302999D01*
X1501833D01*
X1420163Y243500D02*
Y247499D01*
X1418164D01*
X1417497Y246832D01*
Y245499D01*
X1418164Y244833D01*
X1420163D01*
X1418830D02*
X1417497Y243500D01*
X1414165D02*
Y247499D01*
X1416164Y245499D01*
X1413499D01*
X1409500Y247499D02*
X1412166D01*
Y245499D01*
X1410833D01*
X1412166D01*
Y243500D01*
X1511163D02*
Y247499D01*
X1509164D01*
X1508497Y246832D01*
Y245499D01*
X1509164Y244833D01*
X1511163D01*
X1509830D02*
X1508497Y243500D01*
X1505165D02*
Y247499D01*
X1507164Y245499D01*
X1504499D01*
X1500500Y247499D02*
X1503166D01*
Y243500D01*
X1500500D01*
X1503166Y245499D02*
X1501833D01*
X1420163Y186000D02*
Y189999D01*
X1418164D01*
X1417497Y189332D01*
Y187999D01*
X1418164Y187333D01*
X1420163D01*
X1418830D02*
X1417497Y186000D01*
X1414165D02*
Y189999D01*
X1416164Y187999D01*
X1413499D01*
X1412166Y189999D02*
Y186000D01*
X1410166D01*
X1409500Y186667D01*
Y189332D01*
X1410166Y189999D01*
X1412166D01*
X1511163Y186000D02*
Y189999D01*
X1509164D01*
X1508497Y189332D01*
Y187999D01*
X1509164Y187333D01*
X1511163D01*
X1509830D02*
X1508497Y186000D01*
X1505165D02*
Y189999D01*
X1507164Y187999D01*
X1504499D01*
X1500500Y189332D02*
X1501167Y189999D01*
X1502499D01*
X1503166Y189332D01*
Y186667D01*
X1502499Y186000D01*
X1501167D01*
X1500500Y186667D01*
X1420163Y128500D02*
Y132499D01*
X1418164D01*
X1417497Y131832D01*
Y130499D01*
X1418164Y129833D01*
X1420163D01*
X1418830D02*
X1417497Y128500D01*
X1414165D02*
Y132499D01*
X1416164Y130499D01*
X1413499D01*
X1412166Y132499D02*
Y128500D01*
X1410166D01*
X1409500Y129166D01*
Y129833D01*
X1410166Y130499D01*
X1412166D01*
X1410166D01*
X1409500Y131166D01*
Y131832D01*
X1410166Y132499D01*
X1412166D01*
X1511163Y128500D02*
Y132499D01*
X1509164D01*
X1508497Y131832D01*
Y130499D01*
X1509164Y129833D01*
X1511163D01*
X1509830D02*
X1508497Y128500D01*
X1505165D02*
Y132499D01*
X1507164Y130499D01*
X1504499D01*
X1503166Y128500D02*
Y131166D01*
X1501833Y132499D01*
X1500500Y131166D01*
Y128500D01*
Y130499D01*
X1503166D01*
X1414163Y318500D02*
Y322499D01*
X1412164D01*
X1411497Y321832D01*
Y320499D01*
X1412164Y319833D01*
X1414163D01*
X1412830D02*
X1411497Y318500D01*
X1410165Y321832D02*
X1409498Y322499D01*
X1408165D01*
X1407499Y321832D01*
Y321166D01*
X1408165Y320499D01*
X1408832D01*
X1408165D01*
X1407499Y319833D01*
Y319166D01*
X1408165Y318500D01*
X1409498D01*
X1410165Y319166D01*
X1406166Y322499D02*
Y318500D01*
Y320499D01*
X1403500D01*
Y322499D01*
Y318500D01*
X1505163D02*
Y322499D01*
X1503164D01*
X1502497Y321832D01*
Y320499D01*
X1503164Y319833D01*
X1505163D01*
X1503830D02*
X1502497Y318500D01*
X1501165Y321832D02*
X1500498Y322499D01*
X1499165D01*
X1498499Y321832D01*
Y321166D01*
X1499165Y320499D01*
X1499832D01*
X1499165D01*
X1498499Y319833D01*
Y319166D01*
X1499165Y318500D01*
X1500498D01*
X1501165Y319166D01*
X1494500Y321832D02*
X1495166Y322499D01*
X1496499D01*
X1497166Y321832D01*
Y319166D01*
X1496499Y318500D01*
X1495166D01*
X1494500Y319166D01*
Y320499D01*
X1495833D01*
X1414163Y261000D02*
Y264999D01*
X1412164D01*
X1411497Y264332D01*
Y262999D01*
X1412164Y262333D01*
X1414163D01*
X1412830D02*
X1411497Y261000D01*
X1410165Y264332D02*
X1409498Y264999D01*
X1408165D01*
X1407499Y264332D01*
Y263666D01*
X1408165Y262999D01*
X1408832D01*
X1408165D01*
X1407499Y262333D01*
Y261666D01*
X1408165Y261000D01*
X1409498D01*
X1410165Y261666D01*
X1403500Y264999D02*
X1406166D01*
Y262999D01*
X1404833D01*
X1406166D01*
Y261000D01*
X1505163D02*
Y264999D01*
X1503164D01*
X1502497Y264332D01*
Y262999D01*
X1503164Y262333D01*
X1505163D01*
X1503830D02*
X1502497Y261000D01*
X1501165Y264332D02*
X1500498Y264999D01*
X1499165D01*
X1498499Y264332D01*
Y263666D01*
X1499165Y262999D01*
X1499832D01*
X1499165D01*
X1498499Y262333D01*
Y261666D01*
X1499165Y261000D01*
X1500498D01*
X1501165Y261666D01*
X1494500Y264999D02*
X1497166D01*
Y261000D01*
X1494500D01*
X1497166Y262999D02*
X1495833D01*
X1414163Y203500D02*
Y207499D01*
X1412164D01*
X1411497Y206832D01*
Y205499D01*
X1412164Y204833D01*
X1414163D01*
X1412830D02*
X1411497Y203500D01*
X1410165Y206832D02*
X1409498Y207499D01*
X1408165D01*
X1407499Y206832D01*
Y206166D01*
X1408165Y205499D01*
X1408832D01*
X1408165D01*
X1407499Y204833D01*
Y204167D01*
X1408165Y203500D01*
X1409498D01*
X1410165Y204167D01*
X1406166Y207499D02*
Y203500D01*
X1404167D01*
X1403500Y204167D01*
Y206832D01*
X1404167Y207499D01*
X1406166D01*
X1505163Y203500D02*
Y207499D01*
X1503164D01*
X1502497Y206832D01*
Y205499D01*
X1503164Y204833D01*
X1505163D01*
X1503830D02*
X1502497Y203500D01*
X1501165Y206832D02*
X1500498Y207499D01*
X1499165D01*
X1498499Y206832D01*
Y206166D01*
X1499165Y205499D01*
X1499832D01*
X1499165D01*
X1498499Y204833D01*
Y204167D01*
X1499165Y203500D01*
X1500498D01*
X1501165Y204167D01*
X1494500Y206832D02*
X1495166Y207499D01*
X1496499D01*
X1497166Y206832D01*
Y204167D01*
X1496499Y203500D01*
X1495166D01*
X1494500Y204167D01*
X1414163Y146000D02*
Y149999D01*
X1412164D01*
X1411497Y149332D01*
Y147999D01*
X1412164Y147333D01*
X1414163D01*
X1412830D02*
X1411497Y146000D01*
X1410165Y149332D02*
X1409498Y149999D01*
X1408165D01*
X1407499Y149332D01*
Y148666D01*
X1408165Y147999D01*
X1408832D01*
X1408165D01*
X1407499Y147333D01*
Y146667D01*
X1408165Y146000D01*
X1409498D01*
X1410165Y146667D01*
X1406166Y149999D02*
Y146000D01*
X1404167D01*
X1403500Y146667D01*
Y147333D01*
X1404167Y147999D01*
X1406166D01*
X1404167D01*
X1403500Y148666D01*
Y149332D01*
X1404167Y149999D01*
X1406166D01*
X1505163Y146000D02*
Y149999D01*
X1503164D01*
X1502497Y149332D01*
Y147999D01*
X1503164Y147333D01*
X1505163D01*
X1503830D02*
X1502497Y146000D01*
X1501165Y149332D02*
X1500498Y149999D01*
X1499165D01*
X1498499Y149332D01*
Y148666D01*
X1499165Y147999D01*
X1499832D01*
X1499165D01*
X1498499Y147333D01*
Y146667D01*
X1499165Y146000D01*
X1500498D01*
X1501165Y146667D01*
X1497166Y146000D02*
Y148666D01*
X1495833Y149999D01*
X1494500Y148666D01*
Y146000D01*
Y147999D01*
X1497166D01*
X1414163Y311500D02*
Y315499D01*
X1412164D01*
X1411497Y314832D01*
Y313499D01*
X1412164Y312833D01*
X1414163D01*
X1412830D02*
X1411497Y311500D01*
X1407499D02*
X1410165D01*
X1407499Y314166D01*
Y314832D01*
X1408165Y315499D01*
X1409498D01*
X1410165Y314832D01*
X1406166Y315499D02*
Y311500D01*
Y313499D01*
X1403500D01*
Y315499D01*
Y311500D01*
X1505163D02*
Y315499D01*
X1503164D01*
X1502497Y314832D01*
Y313499D01*
X1503164Y312833D01*
X1505163D01*
X1503830D02*
X1502497Y311500D01*
X1498499D02*
X1501165D01*
X1498499Y314166D01*
Y314832D01*
X1499165Y315499D01*
X1500498D01*
X1501165Y314832D01*
X1494500D02*
X1495166Y315499D01*
X1496499D01*
X1497166Y314832D01*
Y312166D01*
X1496499Y311500D01*
X1495166D01*
X1494500Y312166D01*
Y313499D01*
X1495833D01*
X1414163Y254000D02*
Y257999D01*
X1412164D01*
X1411497Y257332D01*
Y255999D01*
X1412164Y255333D01*
X1414163D01*
X1412830D02*
X1411497Y254000D01*
X1407499D02*
X1410165D01*
X1407499Y256666D01*
Y257332D01*
X1408165Y257999D01*
X1409498D01*
X1410165Y257332D01*
X1403500Y257999D02*
X1406166D01*
Y255999D01*
X1404833D01*
X1406166D01*
Y254000D01*
X1505163D02*
Y257999D01*
X1503164D01*
X1502497Y257332D01*
Y255999D01*
X1503164Y255333D01*
X1505163D01*
X1503830D02*
X1502497Y254000D01*
X1498499D02*
X1501165D01*
X1498499Y256666D01*
Y257332D01*
X1499165Y257999D01*
X1500498D01*
X1501165Y257332D01*
X1494500Y257999D02*
X1497166D01*
Y254000D01*
X1494500D01*
X1497166Y255999D02*
X1495833D01*
X1414163Y196500D02*
Y200499D01*
X1412164D01*
X1411497Y199832D01*
Y198499D01*
X1412164Y197833D01*
X1414163D01*
X1412830D02*
X1411497Y196500D01*
X1407499D02*
X1410165D01*
X1407499Y199166D01*
Y199832D01*
X1408165Y200499D01*
X1409498D01*
X1410165Y199832D01*
X1406166Y200499D02*
Y196500D01*
X1404167D01*
X1403500Y197167D01*
Y199832D01*
X1404167Y200499D01*
X1406166D01*
X1505163Y196500D02*
Y200499D01*
X1503164D01*
X1502497Y199832D01*
Y198499D01*
X1503164Y197833D01*
X1505163D01*
X1503830D02*
X1502497Y196500D01*
X1498499D02*
X1501165D01*
X1498499Y199166D01*
Y199832D01*
X1499165Y200499D01*
X1500498D01*
X1501165Y199832D01*
X1494500D02*
X1495166Y200499D01*
X1496499D01*
X1497166Y199832D01*
Y197167D01*
X1496499Y196500D01*
X1495166D01*
X1494500Y197167D01*
X1414163Y139000D02*
Y142999D01*
X1412164D01*
X1411497Y142332D01*
Y140999D01*
X1412164Y140333D01*
X1414163D01*
X1412830D02*
X1411497Y139000D01*
X1407499D02*
X1410165D01*
X1407499Y141666D01*
Y142332D01*
X1408165Y142999D01*
X1409498D01*
X1410165Y142332D01*
X1406166Y142999D02*
Y139000D01*
X1404167D01*
X1403500Y139666D01*
Y140333D01*
X1404167Y140999D01*
X1406166D01*
X1404167D01*
X1403500Y141666D01*
Y142332D01*
X1404167Y142999D01*
X1406166D01*
X1505163Y139000D02*
Y142999D01*
X1503164D01*
X1502497Y142332D01*
Y140999D01*
X1503164Y140333D01*
X1505163D01*
X1503830D02*
X1502497Y139000D01*
X1498499D02*
X1501165D01*
X1498499Y141666D01*
Y142332D01*
X1499165Y142999D01*
X1500498D01*
X1501165Y142332D01*
X1497166Y139000D02*
Y141666D01*
X1495833Y142999D01*
X1494500Y141666D01*
Y139000D01*
Y140999D01*
X1497166D01*
X1091000Y138499D02*
Y134500D01*
X1089001D01*
X1088334Y135167D01*
Y137832D01*
X1089001Y138499D01*
X1091000D01*
X1087001Y137832D02*
X1086335Y138499D01*
X1085002D01*
X1084336Y137832D01*
Y137166D01*
X1085002Y136499D01*
X1085668D01*
X1085002D01*
X1084336Y135833D01*
Y135167D01*
X1085002Y134500D01*
X1086335D01*
X1087001Y135167D01*
X1482497Y339332D02*
X1483164Y339999D01*
X1484497D01*
X1485163Y339332D01*
Y336666D01*
X1484497Y336000D01*
X1483164D01*
X1482497Y336666D01*
X1481164Y336000D02*
X1479832D01*
X1480498D01*
Y339999D01*
X1481164Y339332D01*
X1477832Y336666D02*
X1477166Y336000D01*
X1475833D01*
X1475167Y336666D01*
Y339332D01*
X1475833Y339999D01*
X1477166D01*
X1477832Y339332D01*
Y338666D01*
X1477166Y337999D01*
X1475167D01*
X1473833Y339332D02*
X1473167Y339999D01*
X1471834D01*
X1471168Y339332D01*
Y336666D01*
X1471834Y336000D01*
X1473167D01*
X1473833Y336666D01*
Y339332D01*
X1469835Y339999D02*
Y336000D01*
Y337999D01*
X1467169D01*
Y339999D01*
Y336000D01*
X1573497Y339332D02*
X1574164Y339999D01*
X1575497D01*
X1576163Y339332D01*
Y336666D01*
X1575497Y336000D01*
X1574164D01*
X1573497Y336666D01*
X1572165Y336000D02*
X1570832D01*
X1571498D01*
Y339999D01*
X1572165Y339332D01*
X1568832Y336666D02*
X1568166Y336000D01*
X1566833D01*
X1566166Y336666D01*
Y339332D01*
X1566833Y339999D01*
X1568166D01*
X1568832Y339332D01*
Y338666D01*
X1568166Y337999D01*
X1566166D01*
X1564834Y339332D02*
X1564167Y339999D01*
X1562834D01*
X1562168Y339332D01*
Y336666D01*
X1562834Y336000D01*
X1564167D01*
X1564834Y336666D01*
Y339332D01*
X1558169D02*
X1558836Y339999D01*
X1560168D01*
X1560835Y339332D01*
Y336666D01*
X1560168Y336000D01*
X1558836D01*
X1558169Y336666D01*
Y337999D01*
X1559502D01*
X1482497Y281832D02*
X1483164Y282499D01*
X1484497D01*
X1485163Y281832D01*
Y279166D01*
X1484497Y278500D01*
X1483164D01*
X1482497Y279166D01*
X1481164Y278500D02*
X1479832D01*
X1480498D01*
Y282499D01*
X1481164Y281832D01*
X1477832Y279166D02*
X1477166Y278500D01*
X1475833D01*
X1475167Y279166D01*
Y281832D01*
X1475833Y282499D01*
X1477166D01*
X1477832Y281832D01*
Y281166D01*
X1477166Y280499D01*
X1475167D01*
X1473833Y281832D02*
X1473167Y282499D01*
X1471834D01*
X1471168Y281832D01*
Y279166D01*
X1471834Y278500D01*
X1473167D01*
X1473833Y279166D01*
Y281832D01*
X1467169Y282499D02*
X1469835D01*
Y280499D01*
X1468502D01*
X1469835D01*
Y278500D01*
X1573497Y281832D02*
X1574164Y282499D01*
X1575497D01*
X1576163Y281832D01*
Y279166D01*
X1575497Y278500D01*
X1574164D01*
X1573497Y279166D01*
X1572165Y278500D02*
X1570832D01*
X1571498D01*
Y282499D01*
X1572165Y281832D01*
X1568832Y279166D02*
X1568166Y278500D01*
X1566833D01*
X1566166Y279166D01*
Y281832D01*
X1566833Y282499D01*
X1568166D01*
X1568832Y281832D01*
Y281166D01*
X1568166Y280499D01*
X1566166D01*
X1564834Y281832D02*
X1564167Y282499D01*
X1562834D01*
X1562168Y281832D01*
Y279166D01*
X1562834Y278500D01*
X1564167D01*
X1564834Y279166D01*
Y281832D01*
X1558169Y282499D02*
X1560835D01*
Y278500D01*
X1558169D01*
X1560835Y280499D02*
X1559502D01*
X1482497Y224332D02*
X1483164Y224999D01*
X1484497D01*
X1485163Y224332D01*
Y221666D01*
X1484497Y221000D01*
X1483164D01*
X1482497Y221666D01*
X1481164Y221000D02*
X1479832D01*
X1480498D01*
Y224999D01*
X1481164Y224332D01*
X1477832Y221666D02*
X1477166Y221000D01*
X1475833D01*
X1475167Y221666D01*
Y224332D01*
X1475833Y224999D01*
X1477166D01*
X1477832Y224332D01*
Y223666D01*
X1477166Y222999D01*
X1475167D01*
X1473833Y224332D02*
X1473167Y224999D01*
X1471834D01*
X1471168Y224332D01*
Y221666D01*
X1471834Y221000D01*
X1473167D01*
X1473833Y221666D01*
Y224332D01*
X1469835Y224999D02*
Y221000D01*
X1467836D01*
X1467169Y221666D01*
Y224332D01*
X1467836Y224999D01*
X1469835D01*
X1573497Y224332D02*
X1574164Y224999D01*
X1575497D01*
X1576163Y224332D01*
Y221666D01*
X1575497Y221000D01*
X1574164D01*
X1573497Y221666D01*
X1572165Y221000D02*
X1570832D01*
X1571498D01*
Y224999D01*
X1572165Y224332D01*
X1568832Y221666D02*
X1568166Y221000D01*
X1566833D01*
X1566166Y221666D01*
Y224332D01*
X1566833Y224999D01*
X1568166D01*
X1568832Y224332D01*
Y223666D01*
X1568166Y222999D01*
X1566166D01*
X1564834Y224332D02*
X1564167Y224999D01*
X1562834D01*
X1562168Y224332D01*
Y221666D01*
X1562834Y221000D01*
X1564167D01*
X1564834Y221666D01*
Y224332D01*
X1558169D02*
X1558836Y224999D01*
X1560168D01*
X1560835Y224332D01*
Y221666D01*
X1560168Y221000D01*
X1558836D01*
X1558169Y221666D01*
X1482497Y166832D02*
X1483164Y167499D01*
X1484497D01*
X1485163Y166832D01*
Y164166D01*
X1484497Y163500D01*
X1483164D01*
X1482497Y164166D01*
X1481164Y163500D02*
X1479832D01*
X1480498D01*
Y167499D01*
X1481164Y166832D01*
X1477832Y164166D02*
X1477166Y163500D01*
X1475833D01*
X1475167Y164166D01*
Y166832D01*
X1475833Y167499D01*
X1477166D01*
X1477832Y166832D01*
Y166166D01*
X1477166Y165499D01*
X1475167D01*
X1473833Y166832D02*
X1473167Y167499D01*
X1471834D01*
X1471168Y166832D01*
Y164166D01*
X1471834Y163500D01*
X1473167D01*
X1473833Y164166D01*
Y166832D01*
X1469835Y167499D02*
Y163500D01*
X1467836D01*
X1467169Y164166D01*
Y164833D01*
X1467836Y165499D01*
X1469835D01*
X1467836D01*
X1467169Y166166D01*
Y166832D01*
X1467836Y167499D01*
X1469835D01*
X1573497Y166832D02*
X1574164Y167499D01*
X1575497D01*
X1576163Y166832D01*
Y164166D01*
X1575497Y163500D01*
X1574164D01*
X1573497Y164166D01*
X1572165Y163500D02*
X1570832D01*
X1571498D01*
Y167499D01*
X1572165Y166832D01*
X1568832Y164166D02*
X1568166Y163500D01*
X1566833D01*
X1566166Y164166D01*
Y166832D01*
X1566833Y167499D01*
X1568166D01*
X1568832Y166832D01*
Y166166D01*
X1568166Y165499D01*
X1566166D01*
X1564834Y166832D02*
X1564167Y167499D01*
X1562834D01*
X1562168Y166832D01*
Y164166D01*
X1562834Y163500D01*
X1564167D01*
X1564834Y164166D01*
Y166832D01*
X1560835Y163500D02*
Y166166D01*
X1559502Y167499D01*
X1558169Y166166D01*
Y163500D01*
Y165499D01*
X1560835D01*
X1422997Y338332D02*
X1423664Y338999D01*
X1424997D01*
X1425663Y338332D01*
Y335666D01*
X1424997Y335000D01*
X1423664D01*
X1422997Y335666D01*
X1421665Y335000D02*
X1420332D01*
X1420998D01*
Y338999D01*
X1421665Y338332D01*
X1418332D02*
X1417666Y338999D01*
X1416333D01*
X1415666Y338332D01*
Y337666D01*
X1416333Y336999D01*
X1415666Y336333D01*
Y335666D01*
X1416333Y335000D01*
X1417666D01*
X1418332Y335666D01*
Y336333D01*
X1417666Y336999D01*
X1418332Y337666D01*
Y338332D01*
X1417666Y336999D02*
X1416333D01*
X1414334Y335666D02*
X1413667Y335000D01*
X1412334D01*
X1411668Y335666D01*
Y338332D01*
X1412334Y338999D01*
X1413667D01*
X1414334Y338332D01*
Y337666D01*
X1413667Y336999D01*
X1411668D01*
X1410335Y338999D02*
Y335000D01*
Y336999D01*
X1407669D01*
Y338999D01*
Y335000D01*
X1513997Y338332D02*
X1514664Y338999D01*
X1515997D01*
X1516663Y338332D01*
Y335666D01*
X1515997Y335000D01*
X1514664D01*
X1513997Y335666D01*
X1512665Y335000D02*
X1511332D01*
X1511998D01*
Y338999D01*
X1512665Y338332D01*
X1509332D02*
X1508666Y338999D01*
X1507333D01*
X1506666Y338332D01*
Y337666D01*
X1507333Y336999D01*
X1506666Y336333D01*
Y335666D01*
X1507333Y335000D01*
X1508666D01*
X1509332Y335666D01*
Y336333D01*
X1508666Y336999D01*
X1509332Y337666D01*
Y338332D01*
X1508666Y336999D02*
X1507333D01*
X1505334Y335666D02*
X1504667Y335000D01*
X1503334D01*
X1502668Y335666D01*
Y338332D01*
X1503334Y338999D01*
X1504667D01*
X1505334Y338332D01*
Y337666D01*
X1504667Y336999D01*
X1502668D01*
X1498669Y338332D02*
X1499335Y338999D01*
X1500668D01*
X1501335Y338332D01*
Y335666D01*
X1500668Y335000D01*
X1499335D01*
X1498669Y335666D01*
Y336999D01*
X1500002D01*
X1422997Y280832D02*
X1423664Y281499D01*
X1424997D01*
X1425663Y280832D01*
Y278166D01*
X1424997Y277500D01*
X1423664D01*
X1422997Y278166D01*
X1421665Y277500D02*
X1420332D01*
X1420998D01*
Y281499D01*
X1421665Y280832D01*
X1418332D02*
X1417666Y281499D01*
X1416333D01*
X1415666Y280832D01*
Y280166D01*
X1416333Y279499D01*
X1415666Y278833D01*
Y278166D01*
X1416333Y277500D01*
X1417666D01*
X1418332Y278166D01*
Y278833D01*
X1417666Y279499D01*
X1418332Y280166D01*
Y280832D01*
X1417666Y279499D02*
X1416333D01*
X1414334Y278166D02*
X1413667Y277500D01*
X1412334D01*
X1411668Y278166D01*
Y280832D01*
X1412334Y281499D01*
X1413667D01*
X1414334Y280832D01*
Y280166D01*
X1413667Y279499D01*
X1411668D01*
X1407669Y281499D02*
X1410335D01*
Y279499D01*
X1409002D01*
X1410335D01*
Y277500D01*
X1513997Y280832D02*
X1514664Y281499D01*
X1515997D01*
X1516663Y280832D01*
Y278166D01*
X1515997Y277500D01*
X1514664D01*
X1513997Y278166D01*
X1512665Y277500D02*
X1511332D01*
X1511998D01*
Y281499D01*
X1512665Y280832D01*
X1509332D02*
X1508666Y281499D01*
X1507333D01*
X1506666Y280832D01*
Y280166D01*
X1507333Y279499D01*
X1506666Y278833D01*
Y278166D01*
X1507333Y277500D01*
X1508666D01*
X1509332Y278166D01*
Y278833D01*
X1508666Y279499D01*
X1509332Y280166D01*
Y280832D01*
X1508666Y279499D02*
X1507333D01*
X1505334Y278166D02*
X1504667Y277500D01*
X1503334D01*
X1502668Y278166D01*
Y280832D01*
X1503334Y281499D01*
X1504667D01*
X1505334Y280832D01*
Y280166D01*
X1504667Y279499D01*
X1502668D01*
X1498669Y281499D02*
X1501335D01*
Y277500D01*
X1498669D01*
X1501335Y279499D02*
X1500002D01*
X1422997Y223332D02*
X1423664Y223999D01*
X1424997D01*
X1425663Y223332D01*
Y220666D01*
X1424997Y220000D01*
X1423664D01*
X1422997Y220666D01*
X1421665Y220000D02*
X1420332D01*
X1420998D01*
Y223999D01*
X1421665Y223332D01*
X1418332D02*
X1417666Y223999D01*
X1416333D01*
X1415666Y223332D01*
Y222666D01*
X1416333Y221999D01*
X1415666Y221333D01*
Y220666D01*
X1416333Y220000D01*
X1417666D01*
X1418332Y220666D01*
Y221333D01*
X1417666Y221999D01*
X1418332Y222666D01*
Y223332D01*
X1417666Y221999D02*
X1416333D01*
X1414334Y220666D02*
X1413667Y220000D01*
X1412334D01*
X1411668Y220666D01*
Y223332D01*
X1412334Y223999D01*
X1413667D01*
X1414334Y223332D01*
Y222666D01*
X1413667Y221999D01*
X1411668D01*
X1410335Y223999D02*
Y220000D01*
X1408335D01*
X1407669Y220666D01*
Y223332D01*
X1408335Y223999D01*
X1410335D01*
X1513997Y223332D02*
X1514664Y223999D01*
X1515997D01*
X1516663Y223332D01*
Y220666D01*
X1515997Y220000D01*
X1514664D01*
X1513997Y220666D01*
X1512665Y220000D02*
X1511332D01*
X1511998D01*
Y223999D01*
X1512665Y223332D01*
X1509332D02*
X1508666Y223999D01*
X1507333D01*
X1506666Y223332D01*
Y222666D01*
X1507333Y221999D01*
X1506666Y221333D01*
Y220666D01*
X1507333Y220000D01*
X1508666D01*
X1509332Y220666D01*
Y221333D01*
X1508666Y221999D01*
X1509332Y222666D01*
Y223332D01*
X1508666Y221999D02*
X1507333D01*
X1505334Y220666D02*
X1504667Y220000D01*
X1503334D01*
X1502668Y220666D01*
Y223332D01*
X1503334Y223999D01*
X1504667D01*
X1505334Y223332D01*
Y222666D01*
X1504667Y221999D01*
X1502668D01*
X1498669Y223332D02*
X1499335Y223999D01*
X1500668D01*
X1501335Y223332D01*
Y220666D01*
X1500668Y220000D01*
X1499335D01*
X1498669Y220666D01*
X1422997Y165832D02*
X1423664Y166499D01*
X1424997D01*
X1425663Y165832D01*
Y163166D01*
X1424997Y162500D01*
X1423664D01*
X1422997Y163166D01*
X1421665Y162500D02*
X1420332D01*
X1420998D01*
Y166499D01*
X1421665Y165832D01*
X1418332D02*
X1417666Y166499D01*
X1416333D01*
X1415666Y165832D01*
Y165166D01*
X1416333Y164499D01*
X1415666Y163833D01*
Y163166D01*
X1416333Y162500D01*
X1417666D01*
X1418332Y163166D01*
Y163833D01*
X1417666Y164499D01*
X1418332Y165166D01*
Y165832D01*
X1417666Y164499D02*
X1416333D01*
X1414334Y163166D02*
X1413667Y162500D01*
X1412334D01*
X1411668Y163166D01*
Y165832D01*
X1412334Y166499D01*
X1413667D01*
X1414334Y165832D01*
Y165166D01*
X1413667Y164499D01*
X1411668D01*
X1410335Y166499D02*
Y162500D01*
X1408335D01*
X1407669Y163166D01*
Y163833D01*
X1408335Y164499D01*
X1410335D01*
X1408335D01*
X1407669Y165166D01*
Y165832D01*
X1408335Y166499D01*
X1410335D01*
X1513997Y165832D02*
X1514664Y166499D01*
X1515997D01*
X1516663Y165832D01*
Y163166D01*
X1515997Y162500D01*
X1514664D01*
X1513997Y163166D01*
X1512665Y162500D02*
X1511332D01*
X1511998D01*
Y166499D01*
X1512665Y165832D01*
X1509332D02*
X1508666Y166499D01*
X1507333D01*
X1506666Y165832D01*
Y165166D01*
X1507333Y164499D01*
X1506666Y163833D01*
Y163166D01*
X1507333Y162500D01*
X1508666D01*
X1509332Y163166D01*
Y163833D01*
X1508666Y164499D01*
X1509332Y165166D01*
Y165832D01*
X1508666Y164499D02*
X1507333D01*
X1505334Y163166D02*
X1504667Y162500D01*
X1503334D01*
X1502668Y163166D01*
Y165832D01*
X1503334Y166499D01*
X1504667D01*
X1505334Y165832D01*
Y165166D01*
X1504667Y164499D01*
X1502668D01*
X1501335Y162500D02*
Y165166D01*
X1500002Y166499D01*
X1498669Y165166D01*
Y162500D01*
Y164499D01*
X1501335D01*
X823332Y111166D02*
X823999Y110499D01*
Y109167D01*
X823332Y108500D01*
X820667D01*
X820000Y109167D01*
Y110499D01*
X820667Y111166D01*
X820000Y112499D02*
Y113832D01*
Y113165D01*
X823999D01*
X823332Y112499D01*
X823999Y115831D02*
Y118497D01*
X823332D01*
X820667Y115831D01*
X820000D01*
X823999Y122495D02*
X823332Y121163D01*
X821999Y119830D01*
X820667D01*
X820000Y120496D01*
Y121829D01*
X820667Y122495D01*
X821333D01*
X821999Y121829D01*
Y119830D01*
X796175Y88916D02*
X796841Y88249D01*
Y86917D01*
X796175Y86250D01*
X793509D01*
X792842Y86917D01*
Y88249D01*
X793509Y88916D01*
X792842Y90249D02*
Y91582D01*
Y90915D01*
X796841D01*
X796175Y90249D01*
X796841Y93581D02*
Y96247D01*
X796175D01*
X793509Y93581D01*
X792842D01*
X796841Y100245D02*
Y97580D01*
X794842D01*
X795508Y98913D01*
Y99579D01*
X794842Y100245D01*
X793509D01*
X792842Y99579D01*
Y98246D01*
X793509Y97580D01*
X803675Y88916D02*
X804341Y88249D01*
Y86917D01*
X803675Y86250D01*
X801009D01*
X800342Y86917D01*
Y88249D01*
X801009Y88916D01*
X800342Y90249D02*
Y91582D01*
Y90915D01*
X804341D01*
X803675Y90249D01*
X804341Y93581D02*
Y96247D01*
X803675D01*
X801009Y93581D01*
X800342D01*
Y99579D02*
X804341D01*
X802342Y97580D01*
Y100245D01*
X773668Y75366D02*
X773001Y76032D01*
Y77365D01*
X773668Y78031D01*
X776334D01*
X777000Y77365D01*
Y76032D01*
X776334Y75366D01*
X777000Y74033D02*
Y72700D01*
Y73366D01*
X773001D01*
X773668Y74033D01*
X773001Y70701D02*
Y68035D01*
X773668D01*
X776334Y70701D01*
X777000D01*
X773668Y66702D02*
X773001Y66035D01*
Y64702D01*
X773668Y64036D01*
X776334D01*
X777000Y64702D01*
Y66035D01*
X776334Y66702D01*
X773668D01*
X997982Y342986D02*
X998648Y343652D01*
X999981D01*
X1000648Y342986D01*
Y340320D01*
X999981Y339653D01*
X998648D01*
X997982Y340320D01*
X996649Y339653D02*
X995316D01*
X995983D01*
Y343652D01*
X996649Y342986D01*
X990651Y343652D02*
X991984Y342986D01*
X993317Y341653D01*
Y340320D01*
X992650Y339653D01*
X991317D01*
X990651Y340320D01*
Y340986D01*
X991317Y341653D01*
X993317D01*
X987319Y339653D02*
Y343652D01*
X989318Y341653D01*
X986652D01*
X985319Y343652D02*
Y339653D01*
X983320D01*
X982654Y340320D01*
Y340986D01*
X983320Y341653D01*
X985319D01*
X983320D01*
X982654Y342319D01*
Y342986D01*
X983320Y343652D01*
X985319D01*
X303834Y259190D02*
X304501Y259856D01*
X305834D01*
X306500Y259190D01*
Y256524D01*
X305834Y255858D01*
X304501D01*
X303834Y256524D01*
X302501Y255858D02*
X301168D01*
X301835D01*
Y259856D01*
X302501Y259190D01*
X296503Y259856D02*
X297836Y259190D01*
X299169Y257857D01*
Y256524D01*
X298503Y255858D01*
X297170D01*
X296503Y256524D01*
Y257191D01*
X297170Y257857D01*
X299169D01*
X293171Y255858D02*
Y259856D01*
X295170Y257857D01*
X292505D01*
X291172Y255858D02*
Y258524D01*
X289839Y259856D01*
X288506Y258524D01*
Y255858D01*
Y257857D01*
X291172D01*
X971482Y342986D02*
X972148Y343652D01*
X973481D01*
X974148Y342986D01*
Y340320D01*
X973481Y339653D01*
X972148D01*
X971482Y340320D01*
X970149Y339653D02*
X968816D01*
X969483D01*
Y343652D01*
X970149Y342986D01*
X964151Y343652D02*
X965484Y342986D01*
X966817Y341653D01*
Y340320D01*
X966150Y339653D01*
X964817D01*
X964151Y340320D01*
Y340986D01*
X964817Y341653D01*
X966817D01*
X962818Y342986D02*
X962152Y343652D01*
X960819D01*
X960152Y342986D01*
Y342319D01*
X960819Y341653D01*
X961485D01*
X960819D01*
X960152Y340986D01*
Y340320D01*
X960819Y339653D01*
X962152D01*
X962818Y340320D01*
X958819Y343652D02*
Y339653D01*
X956820D01*
X956153Y340320D01*
Y340986D01*
X956820Y341653D01*
X958819D01*
X956820D01*
X956153Y342319D01*
Y342986D01*
X956820Y343652D01*
X958819D01*
X277334Y259190D02*
X278001Y259856D01*
X279334D01*
X280000Y259190D01*
Y256524D01*
X279334Y255858D01*
X278001D01*
X277334Y256524D01*
X276001Y255858D02*
X274668D01*
X275335D01*
Y259856D01*
X276001Y259190D01*
X270003Y259856D02*
X271336Y259190D01*
X272669Y257857D01*
Y256524D01*
X272003Y255858D01*
X270670D01*
X270003Y256524D01*
Y257191D01*
X270670Y257857D01*
X272669D01*
X268670Y259190D02*
X268004Y259856D01*
X266671D01*
X266004Y259190D01*
Y258524D01*
X266671Y257857D01*
X267337D01*
X266671D01*
X266004Y257191D01*
Y256524D01*
X266671Y255858D01*
X268004D01*
X268670Y256524D01*
X264672Y255858D02*
Y258524D01*
X263339Y259856D01*
X262006Y258524D01*
Y255858D01*
Y257857D01*
X264672D01*
X321581Y259190D02*
X322247Y259856D01*
X323580D01*
X324247Y259190D01*
Y256524D01*
X323580Y255858D01*
X322247D01*
X321581Y256524D01*
X320248Y255858D02*
X318915D01*
X319581D01*
Y259856D01*
X320248Y259190D01*
X314250Y259856D02*
X315583Y259190D01*
X316915Y257857D01*
Y256524D01*
X316249Y255858D01*
X314916D01*
X314250Y256524D01*
Y257191D01*
X314916Y257857D01*
X316915D01*
X310251Y255858D02*
X312917D01*
X310251Y258524D01*
Y259190D01*
X310917Y259856D01*
X312250D01*
X312917Y259190D01*
X346834D02*
X347501Y259856D01*
X348834D01*
X349500Y259190D01*
Y256524D01*
X348834Y255858D01*
X347501D01*
X346834Y256524D01*
X345501Y255858D02*
X344168D01*
X344835D01*
Y259856D01*
X345501Y259190D01*
X339503Y259856D02*
X340836Y259190D01*
X342169Y257857D01*
Y256524D01*
X341503Y255858D01*
X340170D01*
X339503Y256524D01*
Y257191D01*
X340170Y257857D01*
X342169D01*
X338170Y255858D02*
X336837D01*
X337504D01*
Y259856D01*
X338170Y259190D01*
X882796Y343332D02*
X883462Y343999D01*
X884795D01*
X885462Y343332D01*
Y340666D01*
X884795Y340000D01*
X883462D01*
X882796Y340666D01*
X881463Y340000D02*
X880130D01*
X880797D01*
Y343999D01*
X881463Y343332D01*
X875465Y343999D02*
X878131D01*
Y341999D01*
X876798Y342666D01*
X876132D01*
X875465Y341999D01*
Y340666D01*
X876132Y340000D01*
X877464D01*
X878131Y340666D01*
X874132Y343332D02*
X873466Y343999D01*
X872133D01*
X871466Y343332D01*
Y342666D01*
X872133Y341999D01*
X871466Y341333D01*
Y340666D01*
X872133Y340000D01*
X873466D01*
X874132Y340666D01*
Y341333D01*
X873466Y341999D01*
X874132Y342666D01*
Y343332D01*
X873466Y341999D02*
X872133D01*
X870133Y343999D02*
Y340000D01*
X868134D01*
X867468Y340666D01*
Y341333D01*
X868134Y341999D01*
X870133D01*
X868134D01*
X867468Y342666D01*
Y343332D01*
X868134Y343999D01*
X870133D01*
X367391Y259190D02*
X368057Y259856D01*
X369390D01*
X370057Y259190D01*
Y256524D01*
X369390Y255858D01*
X368057D01*
X367391Y256524D01*
X366058Y255858D02*
X364725D01*
X365391D01*
Y259856D01*
X366058Y259190D01*
X360060Y259856D02*
X362725D01*
Y257857D01*
X361393Y258524D01*
X360726D01*
X360060Y257857D01*
Y256524D01*
X360726Y255858D01*
X362059D01*
X362725Y256524D01*
X358727Y259190D02*
X358060Y259856D01*
X356727D01*
X356061Y259190D01*
Y258524D01*
X356727Y257857D01*
X356061Y257191D01*
Y256524D01*
X356727Y255858D01*
X358060D01*
X358727Y256524D01*
Y257191D01*
X358060Y257857D01*
X358727Y258524D01*
Y259190D01*
X358060Y257857D02*
X356727D01*
X354728Y255858D02*
Y258524D01*
X353395Y259856D01*
X352062Y258524D01*
Y255858D01*
Y257857D01*
X354728D01*
X909896Y343332D02*
X910562Y343999D01*
X911895D01*
X912562Y343332D01*
Y340666D01*
X911895Y340000D01*
X910562D01*
X909896Y340666D01*
X908563Y340000D02*
X907230D01*
X907897D01*
Y343999D01*
X908563Y343332D01*
X902565Y343999D02*
X905231D01*
Y341999D01*
X903898Y342666D01*
X903232D01*
X902565Y341999D01*
Y340666D01*
X903232Y340000D01*
X904564D01*
X905231Y340666D01*
X901232Y343999D02*
X898566D01*
Y343332D01*
X901232Y340666D01*
Y340000D01*
X897233Y343999D02*
Y340000D01*
X895234D01*
X894568Y340666D01*
Y341333D01*
X895234Y341999D01*
X897233D01*
X895234D01*
X894568Y342666D01*
Y343332D01*
X895234Y343999D01*
X897233D01*
X394494Y259190D02*
X395160Y259856D01*
X396493D01*
X397159Y259190D01*
Y256524D01*
X396493Y255858D01*
X395160D01*
X394494Y256524D01*
X393161Y255858D02*
X391828D01*
X392494D01*
Y259856D01*
X393161Y259190D01*
X387163Y259856D02*
X389828D01*
Y257857D01*
X388495Y258524D01*
X387829D01*
X387163Y257857D01*
Y256524D01*
X387829Y255858D01*
X389162D01*
X389828Y256524D01*
X385830Y259856D02*
X383164D01*
Y259190D01*
X385830Y256524D01*
Y255858D01*
X381831D02*
Y258524D01*
X380498Y259856D01*
X379165Y258524D01*
Y255858D01*
Y257857D01*
X381831D01*
X65466Y95435D02*
X66133Y96101D01*
X67466D01*
X68132Y95435D01*
Y92769D01*
X67466Y92102D01*
X66133D01*
X65466Y92769D01*
X64134Y92102D02*
X62801D01*
X63467D01*
Y96101D01*
X64134Y95435D01*
X60801D02*
X60135Y96101D01*
X58802D01*
X58135Y95435D01*
Y92769D01*
X58802Y92102D01*
X60135D01*
X60801Y92769D01*
Y95435D01*
X56803D02*
X56136Y96101D01*
X54803D01*
X54137Y95435D01*
Y92769D01*
X54803Y92102D01*
X56136D01*
X56803Y92769D01*
Y95435D01*
X50138Y96101D02*
X52804D01*
Y94102D01*
X51471D01*
X52804D01*
Y92102D01*
X179274Y95435D02*
X179940Y96101D01*
X181273D01*
X181939Y95435D01*
Y92769D01*
X181273Y92102D01*
X179940D01*
X179274Y92769D01*
X177941Y92102D02*
X176608D01*
X177274D01*
Y96101D01*
X177941Y95435D01*
X174608D02*
X173942Y96101D01*
X172609D01*
X171943Y95435D01*
Y92769D01*
X172609Y92102D01*
X173942D01*
X174608Y92769D01*
Y95435D01*
X170610D02*
X169943Y96101D01*
X168610D01*
X167944Y95435D01*
Y92769D01*
X168610Y92102D01*
X169943D01*
X170610Y92769D01*
Y95435D01*
X163945Y96101D02*
X166611D01*
Y92102D01*
X163945D01*
X166611Y94102D02*
X165278D01*
X293581Y95435D02*
X294247Y96101D01*
X295580D01*
X296247Y95435D01*
Y92769D01*
X295580Y92102D01*
X294247D01*
X293581Y92769D01*
X292248Y92102D02*
X290915D01*
X291581D01*
Y96101D01*
X292248Y95435D01*
X288915D02*
X288249Y96101D01*
X286916D01*
X286250Y95435D01*
Y92769D01*
X286916Y92102D01*
X288249D01*
X288915Y92769D01*
Y95435D01*
X284917D02*
X284250Y96101D01*
X282917D01*
X282251Y95435D01*
Y92769D01*
X282917Y92102D01*
X284250D01*
X284917Y92769D01*
Y95435D01*
X280918Y96101D02*
Y92102D01*
X278919D01*
X278252Y92769D01*
Y95435D01*
X278919Y96101D01*
X280918D01*
X407888Y95435D02*
X408554Y96101D01*
X409887D01*
X410554Y95435D01*
Y92769D01*
X409887Y92102D01*
X408554D01*
X407888Y92769D01*
X406555Y92102D02*
X405222D01*
X405888D01*
Y96101D01*
X406555Y95435D01*
X403223D02*
X402556Y96101D01*
X401223D01*
X400557Y95435D01*
Y92769D01*
X401223Y92102D01*
X402556D01*
X403223Y92769D01*
Y95435D01*
X399224D02*
X398557Y96101D01*
X397224D01*
X396558Y95435D01*
Y92769D01*
X397224Y92102D01*
X398557D01*
X399224Y92769D01*
Y95435D01*
X392559D02*
X393226Y96101D01*
X394559D01*
X395225Y95435D01*
Y92769D01*
X394559Y92102D01*
X393226D01*
X392559Y92769D01*
X521695Y95435D02*
X522361Y96101D01*
X523694D01*
X524361Y95435D01*
Y92769D01*
X523694Y92102D01*
X522361D01*
X521695Y92769D01*
X520362Y92102D02*
X519029D01*
X519696D01*
Y96101D01*
X520362Y95435D01*
X517030D02*
X516363Y96101D01*
X515030D01*
X514364Y95435D01*
Y92769D01*
X515030Y92102D01*
X516363D01*
X517030Y92769D01*
Y95435D01*
X513031D02*
X512364Y96101D01*
X511032D01*
X510365Y95435D01*
Y92769D01*
X511032Y92102D01*
X512364D01*
X513031Y92769D01*
Y95435D01*
X509032Y96101D02*
Y92102D01*
X507033D01*
X506366Y92769D01*
Y93435D01*
X507033Y94102D01*
X509032D01*
X507033D01*
X506366Y94768D01*
Y95435D01*
X507033Y96101D01*
X509032D01*
X636002Y95435D02*
X636668Y96101D01*
X638001D01*
X638668Y95435D01*
Y92769D01*
X638001Y92102D01*
X636668D01*
X636002Y92769D01*
X634669Y92102D02*
X633336D01*
X634002D01*
Y96101D01*
X634669Y95435D01*
X631337D02*
X630670Y96101D01*
X629337D01*
X628671Y95435D01*
Y92769D01*
X629337Y92102D01*
X630670D01*
X631337Y92769D01*
Y95435D01*
X627338D02*
X626672Y96101D01*
X625339D01*
X624672Y95435D01*
Y92769D01*
X625339Y92102D01*
X626672D01*
X627338Y92769D01*
Y95435D01*
X623339Y92102D02*
Y94768D01*
X622006Y96101D01*
X620674Y94768D01*
Y92102D01*
Y94102D01*
X623339D01*
X29813Y95332D02*
X30479Y95999D01*
X31812D01*
X32479Y95332D01*
Y92666D01*
X31812Y92000D01*
X30479D01*
X29813Y92666D01*
X28480D02*
X27814Y92000D01*
X26481D01*
X25814Y92666D01*
Y95332D01*
X26481Y95999D01*
X27814D01*
X28480Y95332D01*
Y94666D01*
X27814Y93999D01*
X25814D01*
X24481Y92666D02*
X23815Y92000D01*
X22482D01*
X21815Y92666D01*
Y95332D01*
X22482Y95999D01*
X23815D01*
X24481Y95332D01*
Y94666D01*
X23815Y93999D01*
X21815D01*
X17817Y95999D02*
X20483D01*
Y93999D01*
X19150D01*
X20483D01*
Y92000D01*
X143620Y95332D02*
X144287Y95999D01*
X145619D01*
X146286Y95332D01*
Y92666D01*
X145619Y92000D01*
X144287D01*
X143620Y92666D01*
X142287D02*
X141621Y92000D01*
X140288D01*
X139621Y92666D01*
Y95332D01*
X140288Y95999D01*
X141621D01*
X142287Y95332D01*
Y94666D01*
X141621Y93999D01*
X139621D01*
X138288Y92666D02*
X137622Y92000D01*
X136289D01*
X135623Y92666D01*
Y95332D01*
X136289Y95999D01*
X137622D01*
X138288Y95332D01*
Y94666D01*
X137622Y93999D01*
X135623D01*
X131624Y95999D02*
X134290D01*
Y92000D01*
X131624D01*
X134290Y93999D02*
X132957D01*
X257927Y95332D02*
X258594Y95999D01*
X259927D01*
X260593Y95332D01*
Y92666D01*
X259927Y92000D01*
X258594D01*
X257927Y92666D01*
X256594D02*
X255928Y92000D01*
X254595D01*
X253928Y92666D01*
Y95332D01*
X254595Y95999D01*
X255928D01*
X256594Y95332D01*
Y94666D01*
X255928Y93999D01*
X253928D01*
X252595Y92666D02*
X251929Y92000D01*
X250596D01*
X249930Y92666D01*
Y95332D01*
X250596Y95999D01*
X251929D01*
X252595Y95332D01*
Y94666D01*
X251929Y93999D01*
X249930D01*
X248597Y95999D02*
Y92000D01*
X246597D01*
X245931Y92666D01*
Y95332D01*
X246597Y95999D01*
X248597D01*
X372234Y95332D02*
X372901Y95999D01*
X374234D01*
X374900Y95332D01*
Y92666D01*
X374234Y92000D01*
X372901D01*
X372234Y92666D01*
X370901D02*
X370235Y92000D01*
X368902D01*
X368235Y92666D01*
Y95332D01*
X368902Y95999D01*
X370235D01*
X370901Y95332D01*
Y94666D01*
X370235Y93999D01*
X368235D01*
X366903Y92666D02*
X366236Y92000D01*
X364903D01*
X364237Y92666D01*
Y95332D01*
X364903Y95999D01*
X366236D01*
X366903Y95332D01*
Y94666D01*
X366236Y93999D01*
X364237D01*
X360238Y95332D02*
X360905Y95999D01*
X362237D01*
X362904Y95332D01*
Y92666D01*
X362237Y92000D01*
X360905D01*
X360238Y92666D01*
X486041Y95332D02*
X486708Y95999D01*
X488041D01*
X488707Y95332D01*
Y92666D01*
X488041Y92000D01*
X486708D01*
X486041Y92666D01*
X484708D02*
X484042Y92000D01*
X482709D01*
X482043Y92666D01*
Y95332D01*
X482709Y95999D01*
X484042D01*
X484708Y95332D01*
Y94666D01*
X484042Y93999D01*
X482043D01*
X480710Y92666D02*
X480043Y92000D01*
X478710D01*
X478044Y92666D01*
Y95332D01*
X478710Y95999D01*
X480043D01*
X480710Y95332D01*
Y94666D01*
X480043Y93999D01*
X478044D01*
X476711Y95999D02*
Y92000D01*
X474712D01*
X474045Y92666D01*
Y93333D01*
X474712Y93999D01*
X476711D01*
X474712D01*
X474045Y94666D01*
Y95332D01*
X474712Y95999D01*
X476711D01*
X600348Y95332D02*
X601015Y95999D01*
X602348D01*
X603014Y95332D01*
Y92666D01*
X602348Y92000D01*
X601015D01*
X600348Y92666D01*
X599015D02*
X598349Y92000D01*
X597016D01*
X596350Y92666D01*
Y95332D01*
X597016Y95999D01*
X598349D01*
X599015Y95332D01*
Y94666D01*
X598349Y93999D01*
X596350D01*
X595017Y92666D02*
X594350Y92000D01*
X593017D01*
X592351Y92666D01*
Y95332D01*
X593017Y95999D01*
X594350D01*
X595017Y95332D01*
Y94666D01*
X594350Y93999D01*
X592351D01*
X591018Y92000D02*
Y94666D01*
X589685Y95999D01*
X588352Y94666D01*
Y92000D01*
Y93999D01*
X591018D01*
X65466Y102435D02*
X66133Y103101D01*
X67466D01*
X68132Y102435D01*
Y99769D01*
X67466Y99102D01*
X66133D01*
X65466Y99769D01*
X64134D02*
X63467Y99102D01*
X62134D01*
X61468Y99769D01*
Y102435D01*
X62134Y103101D01*
X63467D01*
X64134Y102435D01*
Y101768D01*
X63467Y101102D01*
X61468D01*
X60135Y102435D02*
X59468Y103101D01*
X58135D01*
X57469Y102435D01*
Y101768D01*
X58135Y101102D01*
X57469Y100435D01*
Y99769D01*
X58135Y99102D01*
X59468D01*
X60135Y99769D01*
Y100435D01*
X59468Y101102D01*
X60135Y101768D01*
Y102435D01*
X59468Y101102D02*
X58135D01*
X53470Y103101D02*
X56136D01*
Y101102D01*
X54803D01*
X56136D01*
Y99102D01*
X179274Y102435D02*
X179940Y103101D01*
X181273D01*
X181939Y102435D01*
Y99769D01*
X181273Y99102D01*
X179940D01*
X179274Y99769D01*
X177941D02*
X177274Y99102D01*
X175941D01*
X175275Y99769D01*
Y102435D01*
X175941Y103101D01*
X177274D01*
X177941Y102435D01*
Y101768D01*
X177274Y101102D01*
X175275D01*
X173942Y102435D02*
X173275Y103101D01*
X171943D01*
X171276Y102435D01*
Y101768D01*
X171943Y101102D01*
X171276Y100435D01*
Y99769D01*
X171943Y99102D01*
X173275D01*
X173942Y99769D01*
Y100435D01*
X173275Y101102D01*
X173942Y101768D01*
Y102435D01*
X173275Y101102D02*
X171943D01*
X167277Y103101D02*
X169943D01*
Y99102D01*
X167277D01*
X169943Y101102D02*
X168610D01*
X293581Y102435D02*
X294247Y103101D01*
X295580D01*
X296247Y102435D01*
Y99769D01*
X295580Y99102D01*
X294247D01*
X293581Y99769D01*
X292248D02*
X291581Y99102D01*
X290248D01*
X289582Y99769D01*
Y102435D01*
X290248Y103101D01*
X291581D01*
X292248Y102435D01*
Y101768D01*
X291581Y101102D01*
X289582D01*
X288249Y102435D02*
X287583Y103101D01*
X286250D01*
X285583Y102435D01*
Y101768D01*
X286250Y101102D01*
X285583Y100435D01*
Y99769D01*
X286250Y99102D01*
X287583D01*
X288249Y99769D01*
Y100435D01*
X287583Y101102D01*
X288249Y101768D01*
Y102435D01*
X287583Y101102D02*
X286250D01*
X284250Y103101D02*
Y99102D01*
X282251D01*
X281585Y99769D01*
Y102435D01*
X282251Y103101D01*
X284250D01*
X407888Y102435D02*
X408554Y103101D01*
X409887D01*
X410554Y102435D01*
Y99769D01*
X409887Y99102D01*
X408554D01*
X407888Y99769D01*
X406555D02*
X405888Y99102D01*
X404556D01*
X403889Y99769D01*
Y102435D01*
X404556Y103101D01*
X405888D01*
X406555Y102435D01*
Y101768D01*
X405888Y101102D01*
X403889D01*
X402556Y102435D02*
X401890Y103101D01*
X400557D01*
X399890Y102435D01*
Y101768D01*
X400557Y101102D01*
X399890Y100435D01*
Y99769D01*
X400557Y99102D01*
X401890D01*
X402556Y99769D01*
Y100435D01*
X401890Y101102D01*
X402556Y101768D01*
Y102435D01*
X401890Y101102D02*
X400557D01*
X395892Y102435D02*
X396558Y103101D01*
X397891D01*
X398557Y102435D01*
Y99769D01*
X397891Y99102D01*
X396558D01*
X395892Y99769D01*
X521695Y102435D02*
X522361Y103101D01*
X523694D01*
X524361Y102435D01*
Y99769D01*
X523694Y99102D01*
X522361D01*
X521695Y99769D01*
X520362D02*
X519696Y99102D01*
X518363D01*
X517696Y99769D01*
Y102435D01*
X518363Y103101D01*
X519696D01*
X520362Y102435D01*
Y101768D01*
X519696Y101102D01*
X517696D01*
X516363Y102435D02*
X515697Y103101D01*
X514364D01*
X513697Y102435D01*
Y101768D01*
X514364Y101102D01*
X513697Y100435D01*
Y99769D01*
X514364Y99102D01*
X515697D01*
X516363Y99769D01*
Y100435D01*
X515697Y101102D01*
X516363Y101768D01*
Y102435D01*
X515697Y101102D02*
X514364D01*
X512364Y103101D02*
Y99102D01*
X510365D01*
X509699Y99769D01*
Y100435D01*
X510365Y101102D01*
X512364D01*
X510365D01*
X509699Y101768D01*
Y102435D01*
X510365Y103101D01*
X512364D01*
X636002Y102435D02*
X636668Y103101D01*
X638001D01*
X638668Y102435D01*
Y99769D01*
X638001Y99102D01*
X636668D01*
X636002Y99769D01*
X634669D02*
X634002Y99102D01*
X632670D01*
X632003Y99769D01*
Y102435D01*
X632670Y103101D01*
X634002D01*
X634669Y102435D01*
Y101768D01*
X634002Y101102D01*
X632003D01*
X630670Y102435D02*
X630004Y103101D01*
X628671D01*
X628005Y102435D01*
Y101768D01*
X628671Y101102D01*
X628005Y100435D01*
Y99769D01*
X628671Y99102D01*
X630004D01*
X630670Y99769D01*
Y100435D01*
X630004Y101102D01*
X630670Y101768D01*
Y102435D01*
X630004Y101102D02*
X628671D01*
X626672Y99102D02*
Y101768D01*
X625339Y103101D01*
X624006Y101768D01*
Y99102D01*
Y101102D01*
X626672D01*
X29813Y102332D02*
X30479Y102999D01*
X31812D01*
X32479Y102332D01*
Y99666D01*
X31812Y99000D01*
X30479D01*
X29813Y99666D01*
X28480D02*
X27814Y99000D01*
X26481D01*
X25814Y99666D01*
Y102332D01*
X26481Y102999D01*
X27814D01*
X28480Y102332D01*
Y101666D01*
X27814Y100999D01*
X25814D01*
X24481Y102999D02*
X21815D01*
Y102332D01*
X24481Y99666D01*
Y99000D01*
X17817Y102999D02*
X20483D01*
Y100999D01*
X19150D01*
X20483D01*
Y99000D01*
X143620Y102332D02*
X144287Y102999D01*
X145619D01*
X146286Y102332D01*
Y99666D01*
X145619Y99000D01*
X144287D01*
X143620Y99666D01*
X142287D02*
X141621Y99000D01*
X140288D01*
X139621Y99666D01*
Y102332D01*
X140288Y102999D01*
X141621D01*
X142287Y102332D01*
Y101666D01*
X141621Y100999D01*
X139621D01*
X138288Y102999D02*
X135623D01*
Y102332D01*
X138288Y99666D01*
Y99000D01*
X131624Y102999D02*
X134290D01*
Y99000D01*
X131624D01*
X134290Y100999D02*
X132957D01*
X257927Y102332D02*
X258594Y102999D01*
X259927D01*
X260593Y102332D01*
Y99666D01*
X259927Y99000D01*
X258594D01*
X257927Y99666D01*
X256594D02*
X255928Y99000D01*
X254595D01*
X253928Y99666D01*
Y102332D01*
X254595Y102999D01*
X255928D01*
X256594Y102332D01*
Y101666D01*
X255928Y100999D01*
X253928D01*
X252595Y102999D02*
X249930D01*
Y102332D01*
X252595Y99666D01*
Y99000D01*
X248597Y102999D02*
Y99000D01*
X246597D01*
X245931Y99666D01*
Y102332D01*
X246597Y102999D01*
X248597D01*
X372234Y102332D02*
X372901Y102999D01*
X374234D01*
X374900Y102332D01*
Y99666D01*
X374234Y99000D01*
X372901D01*
X372234Y99666D01*
X370901D02*
X370235Y99000D01*
X368902D01*
X368235Y99666D01*
Y102332D01*
X368902Y102999D01*
X370235D01*
X370901Y102332D01*
Y101666D01*
X370235Y100999D01*
X368235D01*
X366903Y102999D02*
X364237D01*
Y102332D01*
X366903Y99666D01*
Y99000D01*
X360238Y102332D02*
X360905Y102999D01*
X362237D01*
X362904Y102332D01*
Y99666D01*
X362237Y99000D01*
X360905D01*
X360238Y99666D01*
X486041Y102332D02*
X486708Y102999D01*
X488041D01*
X488707Y102332D01*
Y99666D01*
X488041Y99000D01*
X486708D01*
X486041Y99666D01*
X484708D02*
X484042Y99000D01*
X482709D01*
X482043Y99666D01*
Y102332D01*
X482709Y102999D01*
X484042D01*
X484708Y102332D01*
Y101666D01*
X484042Y100999D01*
X482043D01*
X480710Y102999D02*
X478044D01*
Y102332D01*
X480710Y99666D01*
Y99000D01*
X476711Y102999D02*
Y99000D01*
X474712D01*
X474045Y99666D01*
Y100333D01*
X474712Y100999D01*
X476711D01*
X474712D01*
X474045Y101666D01*
Y102332D01*
X474712Y102999D01*
X476711D01*
X600348Y102332D02*
X601015Y102999D01*
X602348D01*
X603014Y102332D01*
Y99666D01*
X602348Y99000D01*
X601015D01*
X600348Y99666D01*
X599015D02*
X598349Y99000D01*
X597016D01*
X596350Y99666D01*
Y102332D01*
X597016Y102999D01*
X598349D01*
X599015Y102332D01*
Y101666D01*
X598349Y100999D01*
X596350D01*
X595017Y102999D02*
X592351D01*
Y102332D01*
X595017Y99666D01*
Y99000D01*
X591018D02*
Y101666D01*
X589685Y102999D01*
X588352Y101666D01*
Y99000D01*
Y100999D01*
X591018D01*
X65466Y109435D02*
X66133Y110101D01*
X67466D01*
X68132Y109435D01*
Y106769D01*
X67466Y106102D01*
X66133D01*
X65466Y106769D01*
X64134D02*
X63467Y106102D01*
X62134D01*
X61468Y106769D01*
Y109435D01*
X62134Y110101D01*
X63467D01*
X64134Y109435D01*
Y108768D01*
X63467Y108102D01*
X61468D01*
X57469Y110101D02*
X58802Y109435D01*
X60135Y108102D01*
Y106769D01*
X59468Y106102D01*
X58135D01*
X57469Y106769D01*
Y107435D01*
X58135Y108102D01*
X60135D01*
X53470Y110101D02*
X56136D01*
Y108102D01*
X54803D01*
X56136D01*
Y106102D01*
X179274Y109435D02*
X179940Y110101D01*
X181273D01*
X181939Y109435D01*
Y106769D01*
X181273Y106102D01*
X179940D01*
X179274Y106769D01*
X177941D02*
X177274Y106102D01*
X175941D01*
X175275Y106769D01*
Y109435D01*
X175941Y110101D01*
X177274D01*
X177941Y109435D01*
Y108768D01*
X177274Y108102D01*
X175275D01*
X171276Y110101D02*
X172609Y109435D01*
X173942Y108102D01*
Y106769D01*
X173275Y106102D01*
X171943D01*
X171276Y106769D01*
Y107435D01*
X171943Y108102D01*
X173942D01*
X167277Y110101D02*
X169943D01*
Y106102D01*
X167277D01*
X169943Y108102D02*
X168610D01*
X293581Y109435D02*
X294247Y110101D01*
X295580D01*
X296247Y109435D01*
Y106769D01*
X295580Y106102D01*
X294247D01*
X293581Y106769D01*
X292248D02*
X291581Y106102D01*
X290248D01*
X289582Y106769D01*
Y109435D01*
X290248Y110101D01*
X291581D01*
X292248Y109435D01*
Y108768D01*
X291581Y108102D01*
X289582D01*
X285583Y110101D02*
X286916Y109435D01*
X288249Y108102D01*
Y106769D01*
X287583Y106102D01*
X286250D01*
X285583Y106769D01*
Y107435D01*
X286250Y108102D01*
X288249D01*
X284250Y110101D02*
Y106102D01*
X282251D01*
X281585Y106769D01*
Y109435D01*
X282251Y110101D01*
X284250D01*
X407888Y109435D02*
X408554Y110101D01*
X409887D01*
X410554Y109435D01*
Y106769D01*
X409887Y106102D01*
X408554D01*
X407888Y106769D01*
X406555D02*
X405888Y106102D01*
X404556D01*
X403889Y106769D01*
Y109435D01*
X404556Y110101D01*
X405888D01*
X406555Y109435D01*
Y108768D01*
X405888Y108102D01*
X403889D01*
X399890Y110101D02*
X401223Y109435D01*
X402556Y108102D01*
Y106769D01*
X401890Y106102D01*
X400557D01*
X399890Y106769D01*
Y107435D01*
X400557Y108102D01*
X402556D01*
X395892Y109435D02*
X396558Y110101D01*
X397891D01*
X398557Y109435D01*
Y106769D01*
X397891Y106102D01*
X396558D01*
X395892Y106769D01*
X521695Y109435D02*
X522361Y110101D01*
X523694D01*
X524361Y109435D01*
Y106769D01*
X523694Y106102D01*
X522361D01*
X521695Y106769D01*
X520362D02*
X519696Y106102D01*
X518363D01*
X517696Y106769D01*
Y109435D01*
X518363Y110101D01*
X519696D01*
X520362Y109435D01*
Y108768D01*
X519696Y108102D01*
X517696D01*
X513697Y110101D02*
X515030Y109435D01*
X516363Y108102D01*
Y106769D01*
X515697Y106102D01*
X514364D01*
X513697Y106769D01*
Y107435D01*
X514364Y108102D01*
X516363D01*
X512364Y110101D02*
Y106102D01*
X510365D01*
X509699Y106769D01*
Y107435D01*
X510365Y108102D01*
X512364D01*
X510365D01*
X509699Y108768D01*
Y109435D01*
X510365Y110101D01*
X512364D01*
X636002Y109435D02*
X636668Y110101D01*
X638001D01*
X638668Y109435D01*
Y106769D01*
X638001Y106102D01*
X636668D01*
X636002Y106769D01*
X634669D02*
X634002Y106102D01*
X632670D01*
X632003Y106769D01*
Y109435D01*
X632670Y110101D01*
X634002D01*
X634669Y109435D01*
Y108768D01*
X634002Y108102D01*
X632003D01*
X628005Y110101D02*
X629337Y109435D01*
X630670Y108102D01*
Y106769D01*
X630004Y106102D01*
X628671D01*
X628005Y106769D01*
Y107435D01*
X628671Y108102D01*
X630670D01*
X626672Y106102D02*
Y108768D01*
X625339Y110101D01*
X624006Y108768D01*
Y106102D01*
Y108102D01*
X626672D01*
X29813Y109332D02*
X30479Y109999D01*
X31812D01*
X32479Y109332D01*
Y106667D01*
X31812Y106000D01*
X30479D01*
X29813Y106667D01*
X28480D02*
X27814Y106000D01*
X26481D01*
X25814Y106667D01*
Y109332D01*
X26481Y109999D01*
X27814D01*
X28480Y109332D01*
Y108666D01*
X27814Y107999D01*
X25814D01*
X21815Y109999D02*
X24481D01*
Y107999D01*
X23148Y108666D01*
X22482D01*
X21815Y107999D01*
Y106667D01*
X22482Y106000D01*
X23815D01*
X24481Y106667D01*
X17817Y109999D02*
X20483D01*
Y107999D01*
X19150D01*
X20483D01*
Y106000D01*
X143620Y109332D02*
X144287Y109999D01*
X145619D01*
X146286Y109332D01*
Y106667D01*
X145619Y106000D01*
X144287D01*
X143620Y106667D01*
X142287D02*
X141621Y106000D01*
X140288D01*
X139621Y106667D01*
Y109332D01*
X140288Y109999D01*
X141621D01*
X142287Y109332D01*
Y108666D01*
X141621Y107999D01*
X139621D01*
X135623Y109999D02*
X138288D01*
Y107999D01*
X136955Y108666D01*
X136289D01*
X135623Y107999D01*
Y106667D01*
X136289Y106000D01*
X137622D01*
X138288Y106667D01*
X131624Y109999D02*
X134290D01*
Y106000D01*
X131624D01*
X134290Y107999D02*
X132957D01*
X257927Y109332D02*
X258594Y109999D01*
X259927D01*
X260593Y109332D01*
Y106667D01*
X259927Y106000D01*
X258594D01*
X257927Y106667D01*
X256594D02*
X255928Y106000D01*
X254595D01*
X253928Y106667D01*
Y109332D01*
X254595Y109999D01*
X255928D01*
X256594Y109332D01*
Y108666D01*
X255928Y107999D01*
X253928D01*
X249930Y109999D02*
X252595D01*
Y107999D01*
X251263Y108666D01*
X250596D01*
X249930Y107999D01*
Y106667D01*
X250596Y106000D01*
X251929D01*
X252595Y106667D01*
X248597Y109999D02*
Y106000D01*
X246597D01*
X245931Y106667D01*
Y109332D01*
X246597Y109999D01*
X248597D01*
X372234Y109332D02*
X372901Y109999D01*
X374234D01*
X374900Y109332D01*
Y106667D01*
X374234Y106000D01*
X372901D01*
X372234Y106667D01*
X370901D02*
X370235Y106000D01*
X368902D01*
X368235Y106667D01*
Y109332D01*
X368902Y109999D01*
X370235D01*
X370901Y109332D01*
Y108666D01*
X370235Y107999D01*
X368235D01*
X364237Y109999D02*
X366903D01*
Y107999D01*
X365570Y108666D01*
X364903D01*
X364237Y107999D01*
Y106667D01*
X364903Y106000D01*
X366236D01*
X366903Y106667D01*
X360238Y109332D02*
X360905Y109999D01*
X362237D01*
X362904Y109332D01*
Y106667D01*
X362237Y106000D01*
X360905D01*
X360238Y106667D01*
X486041Y109332D02*
X486708Y109999D01*
X488041D01*
X488707Y109332D01*
Y106667D01*
X488041Y106000D01*
X486708D01*
X486041Y106667D01*
X484708D02*
X484042Y106000D01*
X482709D01*
X482043Y106667D01*
Y109332D01*
X482709Y109999D01*
X484042D01*
X484708Y109332D01*
Y108666D01*
X484042Y107999D01*
X482043D01*
X478044Y109999D02*
X480710D01*
Y107999D01*
X479377Y108666D01*
X478710D01*
X478044Y107999D01*
Y106667D01*
X478710Y106000D01*
X480043D01*
X480710Y106667D01*
X476711Y109999D02*
Y106000D01*
X474712D01*
X474045Y106667D01*
Y107333D01*
X474712Y107999D01*
X476711D01*
X474712D01*
X474045Y108666D01*
Y109332D01*
X474712Y109999D01*
X476711D01*
X600348Y109332D02*
X601015Y109999D01*
X602348D01*
X603014Y109332D01*
Y106667D01*
X602348Y106000D01*
X601015D01*
X600348Y106667D01*
X599015D02*
X598349Y106000D01*
X597016D01*
X596350Y106667D01*
Y109332D01*
X597016Y109999D01*
X598349D01*
X599015Y109332D01*
Y108666D01*
X598349Y107999D01*
X596350D01*
X592351Y109999D02*
X595017D01*
Y107999D01*
X593684Y108666D01*
X593017D01*
X592351Y107999D01*
Y106667D01*
X593017Y106000D01*
X594350D01*
X595017Y106667D01*
X591018Y106000D02*
Y108666D01*
X589685Y109999D01*
X588352Y108666D01*
Y106000D01*
Y107999D01*
X591018D01*
X31466Y169332D02*
X32133Y169999D01*
X33466D01*
X34132Y169332D01*
Y166666D01*
X33466Y166000D01*
X32133D01*
X31466Y166666D01*
X30134D02*
X29467Y166000D01*
X28134D01*
X27468Y166666D01*
Y169332D01*
X28134Y169999D01*
X29467D01*
X30134Y169332D01*
Y168666D01*
X29467Y167999D01*
X27468D01*
X23469Y166000D02*
X26135D01*
X23469Y168666D01*
Y169332D01*
X24136Y169999D01*
X25468D01*
X26135Y169332D01*
X19470Y169999D02*
X22136D01*
Y167999D01*
X20803D01*
X22136D01*
Y166000D01*
X145274Y169332D02*
X145940Y169999D01*
X147273D01*
X147939Y169332D01*
Y166666D01*
X147273Y166000D01*
X145940D01*
X145274Y166666D01*
X143941D02*
X143274Y166000D01*
X141941D01*
X141275Y166666D01*
Y169332D01*
X141941Y169999D01*
X143274D01*
X143941Y169332D01*
Y168666D01*
X143274Y167999D01*
X141275D01*
X137276Y166000D02*
X139942D01*
X137276Y168666D01*
Y169332D01*
X137943Y169999D01*
X139276D01*
X139942Y169332D01*
X133277Y169999D02*
X135943D01*
Y166000D01*
X133277D01*
X135943Y167999D02*
X134610D01*
X259581Y169332D02*
X260247Y169999D01*
X261580D01*
X262246Y169332D01*
Y166666D01*
X261580Y166000D01*
X260247D01*
X259581Y166666D01*
X258248D02*
X257581Y166000D01*
X256248D01*
X255582Y166666D01*
Y169332D01*
X256248Y169999D01*
X257581D01*
X258248Y169332D01*
Y168666D01*
X257581Y167999D01*
X255582D01*
X251583Y166000D02*
X254249D01*
X251583Y168666D01*
Y169332D01*
X252250Y169999D01*
X253583D01*
X254249Y169332D01*
X250250Y169999D02*
Y166000D01*
X248251D01*
X247585Y166666D01*
Y169332D01*
X248251Y169999D01*
X250250D01*
X373888Y169332D02*
X374554Y169999D01*
X375887D01*
X376554Y169332D01*
Y166666D01*
X375887Y166000D01*
X374554D01*
X373888Y166666D01*
X372555D02*
X371888Y166000D01*
X370555D01*
X369889Y166666D01*
Y169332D01*
X370555Y169999D01*
X371888D01*
X372555Y169332D01*
Y168666D01*
X371888Y167999D01*
X369889D01*
X365890Y166000D02*
X368556D01*
X365890Y168666D01*
Y169332D01*
X366557Y169999D01*
X367890D01*
X368556Y169332D01*
X361892D02*
X362558Y169999D01*
X363891D01*
X364557Y169332D01*
Y166666D01*
X363891Y166000D01*
X362558D01*
X361892Y166666D01*
X487695Y169332D02*
X488361Y169999D01*
X489694D01*
X490361Y169332D01*
Y166666D01*
X489694Y166000D01*
X488361D01*
X487695Y166666D01*
X486362D02*
X485696Y166000D01*
X484363D01*
X483696Y166666D01*
Y169332D01*
X484363Y169999D01*
X485696D01*
X486362Y169332D01*
Y168666D01*
X485696Y167999D01*
X483696D01*
X479697Y166000D02*
X482363D01*
X479697Y168666D01*
Y169332D01*
X480364Y169999D01*
X481697D01*
X482363Y169332D01*
X478365Y169999D02*
Y166000D01*
X476365D01*
X475699Y166666D01*
Y167333D01*
X476365Y167999D01*
X478365D01*
X476365D01*
X475699Y168666D01*
Y169332D01*
X476365Y169999D01*
X478365D01*
X602002Y169332D02*
X602668Y169999D01*
X604001D01*
X604668Y169332D01*
Y166666D01*
X604001Y166000D01*
X602668D01*
X602002Y166666D01*
X600669D02*
X600002Y166000D01*
X598670D01*
X598003Y166666D01*
Y169332D01*
X598670Y169999D01*
X600002D01*
X600669Y169332D01*
Y168666D01*
X600002Y167999D01*
X598003D01*
X594004Y166000D02*
X596670D01*
X594004Y168666D01*
Y169332D01*
X594671Y169999D01*
X596004D01*
X596670Y169332D01*
X592672Y166000D02*
Y168666D01*
X591339Y169999D01*
X590006Y168666D01*
Y166000D01*
Y167999D01*
X592672D01*
X31466Y162332D02*
X32133Y162999D01*
X33466D01*
X34132Y162332D01*
Y159667D01*
X33466Y159000D01*
X32133D01*
X31466Y159667D01*
X30134D02*
X29467Y159000D01*
X28134D01*
X27468Y159667D01*
Y162332D01*
X28134Y162999D01*
X29467D01*
X30134Y162332D01*
Y161666D01*
X29467Y160999D01*
X27468D01*
X26135Y159000D02*
X24802D01*
X25468D01*
Y162999D01*
X26135Y162332D01*
X20137Y162999D02*
X22803D01*
Y160999D01*
X21470D01*
X22803D01*
Y159000D01*
X259581Y162332D02*
X260247Y162999D01*
X261580D01*
X262246Y162332D01*
Y159667D01*
X261580Y159000D01*
X260247D01*
X259581Y159667D01*
X258248D02*
X257581Y159000D01*
X256248D01*
X255582Y159667D01*
Y162332D01*
X256248Y162999D01*
X257581D01*
X258248Y162332D01*
Y161666D01*
X257581Y160999D01*
X255582D01*
X254249Y159000D02*
X252916D01*
X253583D01*
Y162999D01*
X254249Y162332D01*
X250917Y162999D02*
Y159000D01*
X248917D01*
X248251Y159667D01*
Y162332D01*
X248917Y162999D01*
X250917D01*
X373888Y162332D02*
X374554Y162999D01*
X375887D01*
X376554Y162332D01*
Y159667D01*
X375887Y159000D01*
X374554D01*
X373888Y159667D01*
X372555D02*
X371888Y159000D01*
X370555D01*
X369889Y159667D01*
Y162332D01*
X370555Y162999D01*
X371888D01*
X372555Y162332D01*
Y161666D01*
X371888Y160999D01*
X369889D01*
X368556Y159000D02*
X367223D01*
X367890D01*
Y162999D01*
X368556Y162332D01*
X362558D02*
X363225Y162999D01*
X364557D01*
X365224Y162332D01*
Y159667D01*
X364557Y159000D01*
X363225D01*
X362558Y159667D01*
X487695Y162332D02*
X488361Y162999D01*
X489694D01*
X490361Y162332D01*
Y159667D01*
X489694Y159000D01*
X488361D01*
X487695Y159667D01*
X486362D02*
X485696Y159000D01*
X484363D01*
X483696Y159667D01*
Y162332D01*
X484363Y162999D01*
X485696D01*
X486362Y162332D01*
Y161666D01*
X485696Y160999D01*
X483696D01*
X482363Y159000D02*
X481030D01*
X481697D01*
Y162999D01*
X482363Y162332D01*
X479031Y162999D02*
Y159000D01*
X477032D01*
X476365Y159667D01*
Y160333D01*
X477032Y160999D01*
X479031D01*
X477032D01*
X476365Y161666D01*
Y162332D01*
X477032Y162999D01*
X479031D01*
X602002Y162332D02*
X602668Y162999D01*
X604001D01*
X604668Y162332D01*
Y159667D01*
X604001Y159000D01*
X602668D01*
X602002Y159667D01*
X600669D02*
X600002Y159000D01*
X598670D01*
X598003Y159667D01*
Y162332D01*
X598670Y162999D01*
X600002D01*
X600669Y162332D01*
Y161666D01*
X600002Y160999D01*
X598003D01*
X596670Y159000D02*
X595337D01*
X596004D01*
Y162999D01*
X596670Y162332D01*
X593338Y159000D02*
Y161666D01*
X592005Y162999D01*
X590672Y161666D01*
Y159000D01*
Y160999D01*
X593338D01*
X1253332Y135666D02*
X1253999Y134999D01*
Y133667D01*
X1253332Y133000D01*
X1250667D01*
X1250000Y133667D01*
Y134999D01*
X1250667Y135666D01*
X1253332Y136999D02*
X1253999Y137665D01*
Y138998D01*
X1253332Y139664D01*
X1252666D01*
X1251999Y138998D01*
X1251333Y139664D01*
X1250667D01*
X1250000Y138998D01*
Y137665D01*
X1250667Y136999D01*
X1251333D01*
X1251999Y137665D01*
X1252666Y136999D01*
X1253332D01*
X1251999Y137665D02*
Y138998D01*
X1250000Y142997D02*
X1253999D01*
X1251999Y140997D01*
Y143663D01*
X1261332Y97166D02*
X1261999Y96499D01*
Y95166D01*
X1261332Y94500D01*
X1258667D01*
X1258000Y95166D01*
Y96499D01*
X1258667Y97166D01*
X1261332Y98499D02*
X1261999Y99165D01*
Y100498D01*
X1261332Y101164D01*
X1260666D01*
X1259999Y100498D01*
X1259333Y101164D01*
X1258667D01*
X1258000Y100498D01*
Y99165D01*
X1258667Y98499D01*
X1259333D01*
X1259999Y99165D01*
X1260666Y98499D01*
X1261332D01*
X1259999Y99165D02*
Y100498D01*
X1261332Y102497D02*
X1261999Y103164D01*
Y104497D01*
X1261332Y105163D01*
X1260666D01*
X1259999Y104497D01*
Y103830D01*
Y104497D01*
X1259333Y105163D01*
X1258667D01*
X1258000Y104497D01*
Y103164D01*
X1258667Y102497D01*
X1261332Y136012D02*
X1261999Y135346D01*
Y134013D01*
X1261332Y133346D01*
X1258667D01*
X1258000Y134013D01*
Y135346D01*
X1258667Y136012D01*
X1261332Y137345D02*
X1261999Y138012D01*
Y139345D01*
X1261332Y140011D01*
X1260666D01*
X1259999Y139345D01*
X1259333Y140011D01*
X1258667D01*
X1258000Y139345D01*
Y138012D01*
X1258667Y137345D01*
X1259333D01*
X1259999Y138012D01*
X1260666Y137345D01*
X1261332D01*
X1259999Y138012D02*
Y139345D01*
X1258000Y144010D02*
Y141344D01*
X1260666Y144010D01*
X1261332D01*
X1261999Y143343D01*
Y142010D01*
X1261332Y141344D01*
X1253832Y98166D02*
X1254499Y97499D01*
Y96166D01*
X1253832Y95500D01*
X1251167D01*
X1250500Y96166D01*
Y97499D01*
X1251167Y98166D01*
X1253832Y99499D02*
X1254499Y100165D01*
Y101498D01*
X1253832Y102164D01*
X1253166D01*
X1252499Y101498D01*
X1251833Y102164D01*
X1251167D01*
X1250500Y101498D01*
Y100165D01*
X1251167Y99499D01*
X1251833D01*
X1252499Y100165D01*
X1253166Y99499D01*
X1253832D01*
X1252499Y100165D02*
Y101498D01*
X1250500Y103497D02*
Y104830D01*
Y104164D01*
X1254499D01*
X1253832Y103497D01*
X1209832Y136166D02*
X1210499Y135499D01*
Y134167D01*
X1209832Y133500D01*
X1207166D01*
X1206500Y134167D01*
Y135499D01*
X1207166Y136166D01*
X1209832Y137499D02*
X1210499Y138165D01*
Y139498D01*
X1209832Y140164D01*
X1209166D01*
X1208499Y139498D01*
X1207833Y140164D01*
X1207166D01*
X1206500Y139498D01*
Y138165D01*
X1207166Y137499D01*
X1207833D01*
X1208499Y138165D01*
X1209166Y137499D01*
X1209832D01*
X1208499Y138165D02*
Y139498D01*
X1209832Y141497D02*
X1210499Y142164D01*
Y143497D01*
X1209832Y144163D01*
X1207166D01*
X1206500Y143497D01*
Y142164D01*
X1207166Y141497D01*
X1209832D01*
Y97166D02*
X1210499Y96499D01*
Y95166D01*
X1209832Y94500D01*
X1207166D01*
X1206500Y95166D01*
Y96499D01*
X1207166Y97166D01*
X1210499Y98499D02*
Y101164D01*
X1209832D01*
X1207166Y98499D01*
X1206500D01*
X1207166Y102497D02*
X1206500Y103164D01*
Y104497D01*
X1207166Y105163D01*
X1209832D01*
X1210499Y104497D01*
Y103164D01*
X1209832Y102497D01*
X1209166D01*
X1208499Y103164D01*
Y105163D01*
X1216832Y136166D02*
X1217499Y135499D01*
Y134167D01*
X1216832Y133500D01*
X1214167D01*
X1213500Y134167D01*
Y135499D01*
X1214167Y136166D01*
X1217499Y137499D02*
Y140164D01*
X1216832D01*
X1214167Y137499D01*
X1213500D01*
X1216832Y141497D02*
X1217499Y142164D01*
Y143497D01*
X1216832Y144163D01*
X1216166D01*
X1215499Y143497D01*
X1214833Y144163D01*
X1214167D01*
X1213500Y143497D01*
Y142164D01*
X1214167Y141497D01*
X1214833D01*
X1215499Y142164D01*
X1216166Y141497D01*
X1216832D01*
X1215499Y142164D02*
Y143497D01*
X1216832Y97166D02*
X1217499Y96499D01*
Y95166D01*
X1216832Y94500D01*
X1214167D01*
X1213500Y95166D01*
Y96499D01*
X1214167Y97166D01*
X1217499Y98499D02*
Y101164D01*
X1216832D01*
X1214167Y98499D01*
X1213500D01*
X1217499Y102497D02*
Y105163D01*
X1216832D01*
X1214167Y102497D01*
X1213500D01*
X1145332Y137166D02*
X1145999Y136499D01*
Y135167D01*
X1145332Y134500D01*
X1142667D01*
X1142000Y135167D01*
Y136499D01*
X1142667Y137166D01*
X1145999Y138499D02*
Y141165D01*
X1145332D01*
X1142667Y138499D01*
X1142000D01*
X1145999Y145163D02*
X1145332Y143830D01*
X1143999Y142497D01*
X1142667D01*
X1142000Y143164D01*
Y144497D01*
X1142667Y145163D01*
X1143333D01*
X1143999Y144497D01*
Y142497D01*
X1145332Y94666D02*
X1145999Y93999D01*
Y92666D01*
X1145332Y92000D01*
X1142667D01*
X1142000Y92666D01*
Y93999D01*
X1142667Y94666D01*
X1145999Y95999D02*
Y98664D01*
X1145332D01*
X1142667Y95999D01*
X1142000D01*
X1145999Y102663D02*
Y99997D01*
X1143999D01*
X1144666Y101330D01*
Y101997D01*
X1143999Y102663D01*
X1142667D01*
X1142000Y101997D01*
Y100664D01*
X1142667Y99997D01*
X1152832Y137166D02*
X1153499Y136499D01*
Y135167D01*
X1152832Y134500D01*
X1150167D01*
X1149500Y135167D01*
Y136499D01*
X1150167Y137166D01*
X1153499Y138499D02*
Y141165D01*
X1152832D01*
X1150167Y138499D01*
X1149500D01*
Y144497D02*
X1153499D01*
X1151499Y142497D01*
Y145163D01*
X1152832Y94666D02*
X1153499Y93999D01*
Y92666D01*
X1152832Y92000D01*
X1150167D01*
X1149500Y92666D01*
Y93999D01*
X1150167Y94666D01*
X1153499Y95999D02*
Y98664D01*
X1152832D01*
X1150167Y95999D01*
X1149500D01*
X1152832Y99997D02*
X1153499Y100664D01*
Y101997D01*
X1152832Y102663D01*
X1152166D01*
X1151499Y101997D01*
Y101330D01*
Y101997D01*
X1150833Y102663D01*
X1150167D01*
X1149500Y101997D01*
Y100664D01*
X1150167Y99997D01*
X742168Y68878D02*
X741501Y69544D01*
Y70877D01*
X742168Y71543D01*
X744834D01*
X745500Y70877D01*
Y69544D01*
X744834Y68878D01*
X741501Y64879D02*
X742168Y66212D01*
X743501Y67545D01*
X744834D01*
X745500Y66878D01*
Y65545D01*
X744834Y64879D01*
X744167D01*
X743501Y65545D01*
Y67545D01*
X742168Y63546D02*
X741501Y62879D01*
Y61546D01*
X742168Y60880D01*
X744834D01*
X745500Y61546D01*
Y62879D01*
X744834Y63546D01*
X742168D01*
X730168Y68878D02*
X729501Y69544D01*
Y70877D01*
X730168Y71543D01*
X732834D01*
X733500Y70877D01*
Y69544D01*
X732834Y68878D01*
X729501Y64879D02*
Y67545D01*
X731501D01*
X730834Y66212D01*
Y65545D01*
X731501Y64879D01*
X732834D01*
X733500Y65545D01*
Y66878D01*
X732834Y67545D01*
Y63546D02*
X733500Y62879D01*
Y61546D01*
X732834Y60880D01*
X730168D01*
X729501Y61546D01*
Y62879D01*
X730168Y63546D01*
X730834D01*
X731501Y62879D01*
Y60880D01*
X706168Y68878D02*
X705501Y69544D01*
Y70877D01*
X706168Y71543D01*
X708834D01*
X709500Y70877D01*
Y69544D01*
X708834Y68878D01*
X705501Y64879D02*
Y67545D01*
X707501D01*
X706834Y66212D01*
Y65545D01*
X707501Y64879D01*
X708834D01*
X709500Y65545D01*
Y66878D01*
X708834Y67545D01*
X706168Y63546D02*
X705501Y62879D01*
Y61546D01*
X706168Y60880D01*
X706834D01*
X707501Y61546D01*
X708167Y60880D01*
X708834D01*
X709500Y61546D01*
Y62879D01*
X708834Y63546D01*
X708167D01*
X707501Y62879D01*
X706834Y63546D01*
X706168D01*
X707501Y62879D02*
Y61546D01*
X694168Y68878D02*
X693501Y69544D01*
Y70877D01*
X694168Y71543D01*
X696834D01*
X697500Y70877D01*
Y69544D01*
X696834Y68878D01*
X693501Y64879D02*
Y67545D01*
X695501D01*
X694834Y66212D01*
Y65545D01*
X695501Y64879D01*
X696834D01*
X697500Y65545D01*
Y66878D01*
X696834Y67545D01*
X693501Y63546D02*
Y60880D01*
X694168D01*
X696834Y63546D01*
X697500D01*
X508068Y479334D02*
X507401Y480001D01*
Y481334D01*
X508068Y482000D01*
X510734D01*
X511400Y481334D01*
Y480001D01*
X510734Y479334D01*
X507401Y475336D02*
Y478001D01*
X509401D01*
X508734Y476668D01*
Y476002D01*
X509401Y475336D01*
X510734D01*
X511400Y476002D01*
Y477335D01*
X510734Y478001D01*
X511400Y474003D02*
Y472670D01*
Y473336D01*
X507401D01*
X508068Y474003D01*
X1484997Y304332D02*
X1485664Y304999D01*
X1486997D01*
X1487663Y304332D01*
Y301666D01*
X1486997Y301000D01*
X1485664D01*
X1484997Y301666D01*
X1481665Y301000D02*
Y304999D01*
X1483665Y302999D01*
X1480999D01*
X1479666Y301666D02*
X1478999Y301000D01*
X1477666D01*
X1477000Y301666D01*
Y304332D01*
X1477666Y304999D01*
X1478999D01*
X1479666Y304332D01*
Y303666D01*
X1478999Y302999D01*
X1477000D01*
X1475667Y304999D02*
Y301000D01*
Y302999D01*
X1473001D01*
Y304999D01*
Y301000D01*
X1575997Y304332D02*
X1576664Y304999D01*
X1577997D01*
X1578663Y304332D01*
Y301666D01*
X1577997Y301000D01*
X1576664D01*
X1575997Y301666D01*
X1572665Y301000D02*
Y304999D01*
X1574664Y302999D01*
X1571999D01*
X1570666Y301666D02*
X1569999Y301000D01*
X1568666D01*
X1568000Y301666D01*
Y304332D01*
X1568666Y304999D01*
X1569999D01*
X1570666Y304332D01*
Y303666D01*
X1569999Y302999D01*
X1568000D01*
X1564001Y304332D02*
X1564668Y304999D01*
X1566001D01*
X1566667Y304332D01*
Y301666D01*
X1566001Y301000D01*
X1564668D01*
X1564001Y301666D01*
Y302999D01*
X1565334D01*
X1484997Y246832D02*
X1485664Y247499D01*
X1486997D01*
X1487663Y246832D01*
Y244166D01*
X1486997Y243500D01*
X1485664D01*
X1484997Y244166D01*
X1481665Y243500D02*
Y247499D01*
X1483665Y245499D01*
X1480999D01*
X1479666Y244166D02*
X1478999Y243500D01*
X1477666D01*
X1477000Y244166D01*
Y246832D01*
X1477666Y247499D01*
X1478999D01*
X1479666Y246832D01*
Y246166D01*
X1478999Y245499D01*
X1477000D01*
X1473001Y247499D02*
X1475667D01*
Y245499D01*
X1474334D01*
X1475667D01*
Y243500D01*
X1575997Y246832D02*
X1576664Y247499D01*
X1577997D01*
X1578663Y246832D01*
Y244166D01*
X1577997Y243500D01*
X1576664D01*
X1575997Y244166D01*
X1572665Y243500D02*
Y247499D01*
X1574664Y245499D01*
X1571999D01*
X1570666Y244166D02*
X1569999Y243500D01*
X1568666D01*
X1568000Y244166D01*
Y246832D01*
X1568666Y247499D01*
X1569999D01*
X1570666Y246832D01*
Y246166D01*
X1569999Y245499D01*
X1568000D01*
X1564001Y247499D02*
X1566667D01*
Y243500D01*
X1564001D01*
X1566667Y245499D02*
X1565334D01*
X1484997Y189332D02*
X1485664Y189999D01*
X1486997D01*
X1487663Y189332D01*
Y186667D01*
X1486997Y186000D01*
X1485664D01*
X1484997Y186667D01*
X1481665Y186000D02*
Y189999D01*
X1483665Y187999D01*
X1480999D01*
X1479666Y186667D02*
X1478999Y186000D01*
X1477666D01*
X1477000Y186667D01*
Y189332D01*
X1477666Y189999D01*
X1478999D01*
X1479666Y189332D01*
Y188666D01*
X1478999Y187999D01*
X1477000D01*
X1475667Y189999D02*
Y186000D01*
X1473668D01*
X1473001Y186667D01*
Y189332D01*
X1473668Y189999D01*
X1475667D01*
X1575997Y189332D02*
X1576664Y189999D01*
X1577997D01*
X1578663Y189332D01*
Y186667D01*
X1577997Y186000D01*
X1576664D01*
X1575997Y186667D01*
X1572665Y186000D02*
Y189999D01*
X1574664Y187999D01*
X1571999D01*
X1570666Y186667D02*
X1569999Y186000D01*
X1568666D01*
X1568000Y186667D01*
Y189332D01*
X1568666Y189999D01*
X1569999D01*
X1570666Y189332D01*
Y188666D01*
X1569999Y187999D01*
X1568000D01*
X1564001Y189332D02*
X1564668Y189999D01*
X1566001D01*
X1566667Y189332D01*
Y186667D01*
X1566001Y186000D01*
X1564668D01*
X1564001Y186667D01*
X1484997Y131832D02*
X1485664Y132499D01*
X1486997D01*
X1487663Y131832D01*
Y129166D01*
X1486997Y128500D01*
X1485664D01*
X1484997Y129166D01*
X1481665Y128500D02*
Y132499D01*
X1483665Y130499D01*
X1480999D01*
X1479666Y129166D02*
X1478999Y128500D01*
X1477666D01*
X1477000Y129166D01*
Y131832D01*
X1477666Y132499D01*
X1478999D01*
X1479666Y131832D01*
Y131166D01*
X1478999Y130499D01*
X1477000D01*
X1475667Y132499D02*
Y128500D01*
X1473668D01*
X1473001Y129166D01*
Y129833D01*
X1473668Y130499D01*
X1475667D01*
X1473668D01*
X1473001Y131166D01*
Y131832D01*
X1473668Y132499D01*
X1475667D01*
X1575997Y131832D02*
X1576664Y132499D01*
X1577997D01*
X1578663Y131832D01*
Y129166D01*
X1577997Y128500D01*
X1576664D01*
X1575997Y129166D01*
X1572665Y128500D02*
Y132499D01*
X1574664Y130499D01*
X1571999D01*
X1570666Y129166D02*
X1569999Y128500D01*
X1568666D01*
X1568000Y129166D01*
Y131832D01*
X1568666Y132499D01*
X1569999D01*
X1570666Y131832D01*
Y131166D01*
X1569999Y130499D01*
X1568000D01*
X1566667Y128500D02*
Y131166D01*
X1565334Y132499D01*
X1564001Y131166D01*
Y128500D01*
Y130499D01*
X1566667D01*
X1437497Y344832D02*
X1438164Y345499D01*
X1439497D01*
X1440163Y344832D01*
Y342166D01*
X1439497Y341500D01*
X1438164D01*
X1437497Y342166D01*
X1434165Y341500D02*
Y345499D01*
X1436164Y343499D01*
X1433499D01*
X1432166Y344832D02*
X1431499Y345499D01*
X1430167D01*
X1429500Y344832D01*
Y344166D01*
X1430167Y343499D01*
X1429500Y342833D01*
Y342166D01*
X1430167Y341500D01*
X1431499D01*
X1432166Y342166D01*
Y342833D01*
X1431499Y343499D01*
X1432166Y344166D01*
Y344832D01*
X1431499Y343499D02*
X1430167D01*
X1428167Y345499D02*
Y341500D01*
Y343499D01*
X1425501D01*
Y345499D01*
Y341500D01*
X1528497Y344832D02*
X1529164Y345499D01*
X1530497D01*
X1531163Y344832D01*
Y342166D01*
X1530497Y341500D01*
X1529164D01*
X1528497Y342166D01*
X1525165Y341500D02*
Y345499D01*
X1527164Y343499D01*
X1524499D01*
X1523166Y344832D02*
X1522499Y345499D01*
X1521167D01*
X1520500Y344832D01*
Y344166D01*
X1521167Y343499D01*
X1520500Y342833D01*
Y342166D01*
X1521167Y341500D01*
X1522499D01*
X1523166Y342166D01*
Y342833D01*
X1522499Y343499D01*
X1523166Y344166D01*
Y344832D01*
X1522499Y343499D02*
X1521167D01*
X1516501Y344832D02*
X1517168Y345499D01*
X1518501D01*
X1519167Y344832D01*
Y342166D01*
X1518501Y341500D01*
X1517168D01*
X1516501Y342166D01*
Y343499D01*
X1517834D01*
X1437497Y287332D02*
X1438164Y287999D01*
X1439497D01*
X1440163Y287332D01*
Y284666D01*
X1439497Y284000D01*
X1438164D01*
X1437497Y284666D01*
X1434165Y284000D02*
Y287999D01*
X1436164Y285999D01*
X1433499D01*
X1432166Y287332D02*
X1431499Y287999D01*
X1430167D01*
X1429500Y287332D01*
Y286666D01*
X1430167Y285999D01*
X1429500Y285333D01*
Y284666D01*
X1430167Y284000D01*
X1431499D01*
X1432166Y284666D01*
Y285333D01*
X1431499Y285999D01*
X1432166Y286666D01*
Y287332D01*
X1431499Y285999D02*
X1430167D01*
X1425501Y287999D02*
X1428167D01*
Y285999D01*
X1426834D01*
X1428167D01*
Y284000D01*
X1528497Y287332D02*
X1529164Y287999D01*
X1530497D01*
X1531163Y287332D01*
Y284666D01*
X1530497Y284000D01*
X1529164D01*
X1528497Y284666D01*
X1525165Y284000D02*
Y287999D01*
X1527164Y285999D01*
X1524499D01*
X1523166Y287332D02*
X1522499Y287999D01*
X1521167D01*
X1520500Y287332D01*
Y286666D01*
X1521167Y285999D01*
X1520500Y285333D01*
Y284666D01*
X1521167Y284000D01*
X1522499D01*
X1523166Y284666D01*
Y285333D01*
X1522499Y285999D01*
X1523166Y286666D01*
Y287332D01*
X1522499Y285999D02*
X1521167D01*
X1516501Y287999D02*
X1519167D01*
Y284000D01*
X1516501D01*
X1519167Y285999D02*
X1517834D01*
X1437497Y229832D02*
X1438164Y230499D01*
X1439497D01*
X1440163Y229832D01*
Y227166D01*
X1439497Y226500D01*
X1438164D01*
X1437497Y227166D01*
X1434165Y226500D02*
Y230499D01*
X1436164Y228499D01*
X1433499D01*
X1432166Y229832D02*
X1431499Y230499D01*
X1430167D01*
X1429500Y229832D01*
Y229166D01*
X1430167Y228499D01*
X1429500Y227833D01*
Y227166D01*
X1430167Y226500D01*
X1431499D01*
X1432166Y227166D01*
Y227833D01*
X1431499Y228499D01*
X1432166Y229166D01*
Y229832D01*
X1431499Y228499D02*
X1430167D01*
X1428167Y230499D02*
Y226500D01*
X1426168D01*
X1425501Y227166D01*
Y229832D01*
X1426168Y230499D01*
X1428167D01*
X1528497Y229832D02*
X1529164Y230499D01*
X1530497D01*
X1531163Y229832D01*
Y227166D01*
X1530497Y226500D01*
X1529164D01*
X1528497Y227166D01*
X1525165Y226500D02*
Y230499D01*
X1527164Y228499D01*
X1524499D01*
X1523166Y229832D02*
X1522499Y230499D01*
X1521167D01*
X1520500Y229832D01*
Y229166D01*
X1521167Y228499D01*
X1520500Y227833D01*
Y227166D01*
X1521167Y226500D01*
X1522499D01*
X1523166Y227166D01*
Y227833D01*
X1522499Y228499D01*
X1523166Y229166D01*
Y229832D01*
X1522499Y228499D02*
X1521167D01*
X1516501Y229832D02*
X1517168Y230499D01*
X1518501D01*
X1519167Y229832D01*
Y227166D01*
X1518501Y226500D01*
X1517168D01*
X1516501Y227166D01*
X1437497Y172332D02*
X1438164Y172999D01*
X1439497D01*
X1440163Y172332D01*
Y169667D01*
X1439497Y169000D01*
X1438164D01*
X1437497Y169667D01*
X1434165Y169000D02*
Y172999D01*
X1436164Y170999D01*
X1433499D01*
X1432166Y172332D02*
X1431499Y172999D01*
X1430167D01*
X1429500Y172332D01*
Y171666D01*
X1430167Y170999D01*
X1429500Y170333D01*
Y169667D01*
X1430167Y169000D01*
X1431499D01*
X1432166Y169667D01*
Y170333D01*
X1431499Y170999D01*
X1432166Y171666D01*
Y172332D01*
X1431499Y170999D02*
X1430167D01*
X1428167Y172999D02*
Y169000D01*
X1426168D01*
X1425501Y169667D01*
Y170333D01*
X1426168Y170999D01*
X1428167D01*
X1426168D01*
X1425501Y171666D01*
Y172332D01*
X1426168Y172999D01*
X1428167D01*
X1528497Y172332D02*
X1529164Y172999D01*
X1530497D01*
X1531163Y172332D01*
Y169667D01*
X1530497Y169000D01*
X1529164D01*
X1528497Y169667D01*
X1525165Y169000D02*
Y172999D01*
X1527164Y170999D01*
X1524499D01*
X1523166Y172332D02*
X1522499Y172999D01*
X1521167D01*
X1520500Y172332D01*
Y171666D01*
X1521167Y170999D01*
X1520500Y170333D01*
Y169667D01*
X1521167Y169000D01*
X1522499D01*
X1523166Y169667D01*
Y170333D01*
X1522499Y170999D01*
X1523166Y171666D01*
Y172332D01*
X1522499Y170999D02*
X1521167D01*
X1519167Y169000D02*
Y171666D01*
X1517834Y172999D01*
X1516501Y171666D01*
Y169000D01*
Y170999D01*
X1519167D01*
X1436497Y294832D02*
X1437164Y295499D01*
X1438497D01*
X1439163Y294832D01*
Y292166D01*
X1438497Y291500D01*
X1437164D01*
X1436497Y292166D01*
X1433165Y291500D02*
Y295499D01*
X1435165Y293499D01*
X1432499D01*
X1431166Y295499D02*
X1428500D01*
Y294832D01*
X1431166Y292166D01*
Y291500D01*
X1427167Y295499D02*
Y291500D01*
Y293499D01*
X1424501D01*
Y295499D01*
Y291500D01*
X1527497Y294832D02*
X1528164Y295499D01*
X1529497D01*
X1530163Y294832D01*
Y292166D01*
X1529497Y291500D01*
X1528164D01*
X1527497Y292166D01*
X1524165Y291500D02*
Y295499D01*
X1526165Y293499D01*
X1523499D01*
X1522166Y295499D02*
X1519500D01*
Y294832D01*
X1522166Y292166D01*
Y291500D01*
X1515501Y294832D02*
X1516168Y295499D01*
X1517501D01*
X1518167Y294832D01*
Y292166D01*
X1517501Y291500D01*
X1516168D01*
X1515501Y292166D01*
Y293499D01*
X1516834D01*
X1436497Y237332D02*
X1437164Y237999D01*
X1438497D01*
X1439163Y237332D01*
Y234666D01*
X1438497Y234000D01*
X1437164D01*
X1436497Y234666D01*
X1433165Y234000D02*
Y237999D01*
X1435165Y235999D01*
X1432499D01*
X1431166Y237999D02*
X1428500D01*
Y237332D01*
X1431166Y234666D01*
Y234000D01*
X1424501Y237999D02*
X1427167D01*
Y235999D01*
X1425834D01*
X1427167D01*
Y234000D01*
X1527497Y237332D02*
X1528164Y237999D01*
X1529497D01*
X1530163Y237332D01*
Y234666D01*
X1529497Y234000D01*
X1528164D01*
X1527497Y234666D01*
X1524165Y234000D02*
Y237999D01*
X1526165Y235999D01*
X1523499D01*
X1522166Y237999D02*
X1519500D01*
Y237332D01*
X1522166Y234666D01*
Y234000D01*
X1515501Y237999D02*
X1518167D01*
Y234000D01*
X1515501D01*
X1518167Y235999D02*
X1516834D01*
X1436497Y179832D02*
X1437164Y180499D01*
X1438497D01*
X1439163Y179832D01*
Y177166D01*
X1438497Y176500D01*
X1437164D01*
X1436497Y177166D01*
X1433165Y176500D02*
Y180499D01*
X1435165Y178499D01*
X1432499D01*
X1431166Y180499D02*
X1428500D01*
Y179832D01*
X1431166Y177166D01*
Y176500D01*
X1427167Y180499D02*
Y176500D01*
X1425168D01*
X1424501Y177166D01*
Y179832D01*
X1425168Y180499D01*
X1427167D01*
X1527497Y179832D02*
X1528164Y180499D01*
X1529497D01*
X1530163Y179832D01*
Y177166D01*
X1529497Y176500D01*
X1528164D01*
X1527497Y177166D01*
X1524165Y176500D02*
Y180499D01*
X1526165Y178499D01*
X1523499D01*
X1522166Y180499D02*
X1519500D01*
Y179832D01*
X1522166Y177166D01*
Y176500D01*
X1515501Y179832D02*
X1516168Y180499D01*
X1517501D01*
X1518167Y179832D01*
Y177166D01*
X1517501Y176500D01*
X1516168D01*
X1515501Y177166D01*
X1436497Y122332D02*
X1437164Y122999D01*
X1438497D01*
X1439163Y122332D01*
Y119667D01*
X1438497Y119000D01*
X1437164D01*
X1436497Y119667D01*
X1433165Y119000D02*
Y122999D01*
X1435165Y120999D01*
X1432499D01*
X1431166Y122999D02*
X1428500D01*
Y122332D01*
X1431166Y119667D01*
Y119000D01*
X1427167Y122999D02*
Y119000D01*
X1425168D01*
X1424501Y119667D01*
Y120333D01*
X1425168Y120999D01*
X1427167D01*
X1425168D01*
X1424501Y121666D01*
Y122332D01*
X1425168Y122999D01*
X1427167D01*
X1527497Y122332D02*
X1528164Y122999D01*
X1529497D01*
X1530163Y122332D01*
Y119667D01*
X1529497Y119000D01*
X1528164D01*
X1527497Y119667D01*
X1524165Y119000D02*
Y122999D01*
X1526165Y120999D01*
X1523499D01*
X1522166Y122999D02*
X1519500D01*
Y122332D01*
X1522166Y119667D01*
Y119000D01*
X1518167D02*
Y121666D01*
X1516834Y122999D01*
X1515501Y121666D01*
Y119000D01*
Y120999D01*
X1518167D01*
D18*
X1672000Y188000D02*
Y191000D01*
Y289000D02*
Y292000D01*
Y202000D02*
Y205000D01*
Y303000D02*
Y306000D01*
X1626000Y202000D02*
Y205000D01*
Y303000D02*
Y306000D01*
Y188000D02*
Y191000D01*
Y289000D02*
Y292000D01*
X827500Y100500D02*
X830500D01*
X841500Y70000D02*
Y73000D01*
Y77500D02*
Y80500D01*
X499900Y490000D02*
X502900D01*
X534185Y489653D02*
X537185D01*
X1472317Y319000D02*
Y322000D01*
X1563317Y319000D02*
Y322000D01*
X1472317Y261500D02*
Y264500D01*
X1563317Y261500D02*
Y264500D01*
X1472317Y204000D02*
Y207000D01*
X1563317Y204000D02*
Y207000D01*
X1472317Y146500D02*
Y149500D01*
X1563317Y146500D02*
Y149500D01*
X1472317Y312000D02*
Y315000D01*
X1563317Y312000D02*
Y315000D01*
X1472317Y254500D02*
Y257500D01*
X1563317Y254500D02*
Y257500D01*
X1472317Y197000D02*
Y200000D01*
X1563317Y197000D02*
Y200000D01*
X1472317Y139500D02*
Y142500D01*
X1563317Y139500D02*
Y142500D01*
X1460163Y303000D02*
X1463163D01*
X1551163D02*
X1554163D01*
X1460163Y245500D02*
X1463163D01*
X1551163D02*
X1554163D01*
X1460163Y188000D02*
X1463163D01*
X1551163D02*
X1554163D01*
X1460163Y130500D02*
X1463163D01*
X1551163D02*
X1554163D01*
X1447317Y298000D02*
Y301000D01*
X1538317Y298000D02*
Y301000D01*
X1447317Y240500D02*
Y243500D01*
X1538317Y240500D02*
Y243500D01*
X1447317Y183000D02*
Y186000D01*
X1538317Y183000D02*
Y186000D01*
X1447317Y125500D02*
Y128500D01*
X1538317Y125500D02*
Y128500D01*
X1447317Y335500D02*
Y338500D01*
X1538317Y335500D02*
Y338500D01*
X1447317Y278000D02*
Y281000D01*
X1538317Y278000D02*
Y281000D01*
X1447317Y220500D02*
Y223500D01*
X1538317Y220500D02*
Y223500D01*
X1447317Y163000D02*
Y166000D01*
X1538317Y163000D02*
Y166000D01*
X1423163Y303000D02*
X1426163D01*
X1514163D02*
X1517163D01*
X1423163Y245500D02*
X1426163D01*
X1514163D02*
X1517163D01*
X1423163Y188000D02*
X1426163D01*
X1514163D02*
X1517163D01*
X1423163Y130500D02*
X1426163D01*
X1514163D02*
X1517163D01*
X1421317Y319000D02*
Y322000D01*
X1512317Y319000D02*
Y322000D01*
X1421317Y261500D02*
Y264500D01*
X1512317Y261500D02*
Y264500D01*
X1421317Y204000D02*
Y207000D01*
X1512317Y204000D02*
Y207000D01*
X1421317Y146500D02*
Y149500D01*
X1512317Y146500D02*
Y149500D01*
X1421317Y312000D02*
Y315000D01*
X1512317Y312000D02*
Y315000D01*
X1421317Y254500D02*
Y257500D01*
X1512317Y254500D02*
Y257500D01*
X1421317Y197000D02*
Y200000D01*
X1512317Y197000D02*
Y200000D01*
X1421317Y139500D02*
Y142500D01*
X1512317Y139500D02*
Y142500D01*
X1472317Y326000D02*
Y329000D01*
X1563317Y326000D02*
Y329000D01*
X1472317Y268500D02*
Y271500D01*
X1563317Y268500D02*
Y271500D01*
X1472317Y211000D02*
Y214000D01*
X1563317Y211000D02*
Y214000D01*
X1472317Y153500D02*
Y156500D01*
X1563317Y153500D02*
Y156500D01*
X1421317Y326000D02*
Y329000D01*
X1512317Y326000D02*
Y329000D01*
X1421317Y268500D02*
Y271500D01*
X1512317Y268500D02*
Y271500D01*
X1421317Y211000D02*
Y214000D01*
X1512317Y211000D02*
Y214000D01*
X1421317Y153500D02*
Y156500D01*
X1512317Y153500D02*
Y156500D01*
X1672000Y195000D02*
Y198000D01*
Y296000D02*
Y299000D01*
X1626000Y195000D02*
Y198000D01*
Y296000D02*
Y299000D01*
X1672000Y181000D02*
Y184000D01*
Y282000D02*
Y285000D01*
Y209000D02*
Y212000D01*
Y310000D02*
Y313000D01*
X1677000Y124500D02*
X1680000D01*
X1677000Y225500D02*
X1680000D01*
X1677000Y168347D02*
X1680000D01*
X1677000Y269346D02*
X1680000D01*
X1626000Y209000D02*
Y212000D01*
Y310000D02*
Y313000D01*
Y181000D02*
Y184000D01*
Y282000D02*
Y285000D01*
X1618000Y124000D02*
X1621000D01*
X1618000Y225000D02*
X1621000D01*
X1618000Y168500D02*
X1621000D01*
X1618000Y269500D02*
X1621000D01*
X820500Y100500D02*
X823500D01*
X793500Y79500D02*
X796500D01*
X801000D02*
X804000D01*
X990288Y352153D02*
X993288D01*
X296641Y268500D02*
X299641D01*
X963488Y352153D02*
X966488D01*
X269841Y268500D02*
X272841D01*
X315200Y268000D02*
X318200D01*
X342000D02*
X345000D01*
X875102Y352500D02*
X878102D01*
X359697Y268653D02*
X362697D01*
X901902Y352500D02*
X904902D01*
X386500Y268653D02*
X389500D01*
X75132Y92602D02*
Y95602D01*
X188939Y92602D02*
Y95602D01*
X303246Y92602D02*
Y95602D01*
X417554Y92602D02*
Y95602D01*
X531361Y92602D02*
Y95602D01*
X645668Y92602D02*
Y95602D01*
X10632Y92500D02*
Y95500D01*
X124439Y92500D02*
Y95500D01*
X238747Y92500D02*
Y95500D01*
X353053Y92500D02*
Y95500D01*
X466861Y92500D02*
Y95500D01*
X581168Y92500D02*
Y95500D01*
X75132Y99602D02*
Y102602D01*
X188939Y99602D02*
Y102602D01*
X303246Y99602D02*
Y102602D01*
X417554Y99602D02*
Y102602D01*
X531361Y99602D02*
Y102602D01*
X645668Y99602D02*
Y102602D01*
X10632Y99500D02*
Y102500D01*
X124439Y99500D02*
Y102500D01*
X238747Y99500D02*
Y102500D01*
X353053Y99500D02*
Y102500D01*
X466861Y99500D02*
Y102500D01*
X581168Y99500D02*
Y102500D01*
X75132Y106602D02*
Y109602D01*
X188939Y106602D02*
Y109602D01*
X303246Y106602D02*
Y109602D01*
X417554Y106602D02*
Y109602D01*
X531361Y106602D02*
Y109602D01*
X645668Y106602D02*
Y109602D01*
X10632Y106500D02*
Y109500D01*
X124439Y106500D02*
Y109500D01*
X238747Y106500D02*
Y109500D01*
X353053Y106500D02*
Y109500D01*
X466861Y106500D02*
Y109500D01*
X581168Y106500D02*
Y109500D01*
X41132Y166500D02*
Y169500D01*
X154939Y166500D02*
Y169500D01*
X269247Y166500D02*
Y169500D01*
X383554Y166500D02*
Y169500D01*
X497361Y166500D02*
Y169500D01*
X611668Y166500D02*
Y169500D01*
X41132Y159500D02*
Y162500D01*
X154939Y159500D02*
Y162500D01*
X269247Y159500D02*
Y162500D01*
X383554Y159500D02*
Y162500D01*
X497361Y159500D02*
Y162500D01*
X611668Y159500D02*
Y162500D01*
X921311Y375654D02*
Y378654D01*
X935311Y375654D02*
Y378654D01*
X1250500Y125500D02*
X1253500D01*
X1258500Y112500D02*
X1261500D01*
X1258500Y125500D02*
X1261500D01*
X1250500Y112000D02*
X1253500D01*
X1207000Y126000D02*
X1210000D01*
X1207000Y112500D02*
X1210000D01*
X1214000Y126000D02*
X1217000D01*
X1214000Y112500D02*
X1217000D01*
X1142500Y127000D02*
X1145500D01*
X1142500Y111000D02*
X1145500D01*
X1150000Y127000D02*
X1153000D01*
X1150000Y111000D02*
X1153000D01*
X736000Y66543D02*
X739000D01*
X724000D02*
X727000D01*
X700000D02*
X703000D01*
X688000D02*
X691000D01*
X507900Y490000D02*
X510900D01*
X1467470Y303000D02*
X1470470D01*
X1558470D02*
X1561470D01*
X1467470Y245500D02*
X1470470D01*
X1558470D02*
X1561470D01*
X1467470Y188000D02*
X1470470D01*
X1558470D02*
X1561470D01*
X1467470Y130500D02*
X1470470D01*
X1558470D02*
X1561470D01*
X1447317Y342000D02*
Y345000D01*
X1538317Y342000D02*
Y345000D01*
X1447317Y284500D02*
Y287500D01*
X1538317Y284500D02*
Y287500D01*
X1447317Y227000D02*
Y230000D01*
X1538317Y227000D02*
Y230000D01*
X1447317Y169500D02*
Y172500D01*
X1538317Y169500D02*
Y172500D01*
X1430163Y303000D02*
X1433163D01*
X1521163D02*
X1524163D01*
X1430163Y245500D02*
X1433163D01*
X1521163D02*
X1524163D01*
X1430163Y188000D02*
X1433163D01*
X1521163D02*
X1524163D01*
X1430163Y130500D02*
X1433163D01*
X1521163D02*
X1524163D01*
M02*
