G04*
G04 #@! TF.GenerationSoftware,Altium Limited,Altium Designer,18.1.6 (161)*
G04*
G04 Layer_Physical_Order=3*
G04 Layer_Color=16440176*
%FSLAX25Y25*%
%MOIN*%
G70*
G01*
G75*
%ADD11C,0.02000*%
%ADD17C,0.01000*%
%ADD55C,0.04000*%
%ADD95C,0.03000*%
%ADD97C,0.30000*%
%ADD98C,0.06700*%
%ADD99C,0.16000*%
%ADD100C,0.07874*%
%ADD101C,0.07000*%
%ADD102C,0.05000*%
%ADD103C,0.08200*%
%ADD104C,0.06000*%
%ADD105C,0.15748*%
%ADD106C,0.04598*%
%ADD107C,0.17000*%
%ADD108C,0.03937*%
%ADD109C,0.08858*%
%ADD110C,0.04000*%
%ADD111C,0.02500*%
%ADD112C,0.02598*%
G36*
X1372500Y504646D02*
X1372500Y488488D01*
X1352975Y488488D01*
Y490000D01*
X543504Y490000D01*
X543302Y490302D01*
X542476Y490855D01*
X541500Y491049D01*
X540524Y490855D01*
X540052Y490539D01*
X471000D01*
X470220Y490384D01*
X469645Y490000D01*
X185000D01*
Y192571D01*
X170071D01*
Y194876D01*
X170424Y195147D01*
X171065Y195983D01*
X171468Y196956D01*
X171605Y198000D01*
X171468Y199044D01*
X171065Y200017D01*
X170424Y200853D01*
X170071Y201124D01*
Y505000D01*
X328468D01*
X328469Y504999D01*
X328589Y504085D01*
X328942Y503234D01*
X329503Y502503D01*
X330234Y501942D01*
X331085Y501589D01*
X331999Y501469D01*
X332913Y501589D01*
X333764Y501942D01*
X334495Y502503D01*
X335056Y503234D01*
X335409Y504085D01*
X335529Y504999D01*
X335530Y505000D01*
X428055D01*
X428983Y504616D01*
X430158Y504461D01*
X431332Y504616D01*
X432260Y505000D01*
X447740D01*
X448668Y504616D01*
X449843Y504461D01*
X451017Y504616D01*
X451945Y505000D01*
X471055Y505000D01*
X471983Y504616D01*
X473158Y504461D01*
X474332Y504616D01*
X475260Y505000D01*
X490740D01*
X491668Y504616D01*
X492842Y504461D01*
X494017Y504616D01*
X494945Y505000D01*
X513898D01*
X514825Y504616D01*
X516000Y504461D01*
X517175Y504616D01*
X518102Y505000D01*
X533583D01*
X534510Y504616D01*
X535685Y504461D01*
X536860Y504616D01*
X537787Y505000D01*
X1372147Y505000D01*
X1372500Y504646D01*
D02*
G37*
G36*
X1395000Y507500D02*
Y488520D01*
X1375000D01*
X1375000Y507500D01*
X540415D01*
X540092Y508000D01*
X540224Y509000D01*
X540069Y510175D01*
X539616Y511269D01*
X538894Y512209D01*
X537954Y512931D01*
X536860Y513384D01*
X535685Y513539D01*
X534510Y513384D01*
X533416Y512931D01*
X532476Y512209D01*
X531754Y511269D01*
X531301Y510175D01*
X531146Y509000D01*
X531278Y508000D01*
X530955Y507500D01*
X520730D01*
X520407Y508000D01*
X520539Y509000D01*
X520384Y510175D01*
X519931Y511269D01*
X519209Y512209D01*
X518269Y512931D01*
X517175Y513384D01*
X516000Y513539D01*
X514825Y513384D01*
X513731Y512931D01*
X512791Y512209D01*
X512069Y511269D01*
X511616Y510175D01*
X511461Y509000D01*
X511593Y508000D01*
X511270Y507500D01*
X497572D01*
X497250Y508000D01*
X497381Y509000D01*
X497227Y510175D01*
X496773Y511269D01*
X496052Y512209D01*
X495112Y512931D01*
X494017Y513384D01*
X492842Y513539D01*
X491668Y513384D01*
X490573Y512931D01*
X489633Y512209D01*
X488912Y511269D01*
X488458Y510175D01*
X488304Y509000D01*
X488435Y508000D01*
X488113Y507500D01*
X477887D01*
X477565Y508000D01*
X477696Y509000D01*
X477542Y510175D01*
X477088Y511269D01*
X476367Y512209D01*
X475427Y512931D01*
X474332Y513384D01*
X473158Y513539D01*
X471983Y513384D01*
X470888Y512931D01*
X469948Y512209D01*
X469227Y511269D01*
X468773Y510175D01*
X468619Y509000D01*
X468750Y508000D01*
X468428Y507500D01*
X454572D01*
X454250Y508000D01*
X454381Y509000D01*
X454227Y510175D01*
X453773Y511269D01*
X453052Y512209D01*
X452112Y512931D01*
X451017Y513384D01*
X449843Y513539D01*
X448668Y513384D01*
X447573Y512931D01*
X446633Y512209D01*
X445912Y511269D01*
X445458Y510175D01*
X445304Y509000D01*
X445435Y508000D01*
X445113Y507500D01*
X434887D01*
X434565Y508000D01*
X434696Y509000D01*
X434542Y510175D01*
X434088Y511269D01*
X433367Y512209D01*
X432427Y512931D01*
X431332Y513384D01*
X430158Y513539D01*
X428983Y513384D01*
X427888Y512931D01*
X426948Y512209D01*
X426227Y511269D01*
X425773Y510175D01*
X425619Y509000D01*
X425750Y508000D01*
X425428Y507500D01*
X334489D01*
X333764Y508056D01*
X332913Y508409D01*
X331999Y508529D01*
X331085Y508409D01*
X330234Y508056D01*
X329509Y507500D01*
X126491D01*
X125765Y508057D01*
X124914Y508410D01*
X124000Y508530D01*
X123086Y508410D01*
X122235Y508057D01*
X121509Y507500D01*
X113000D01*
Y402865D01*
X112761Y402288D01*
X112591Y400999D01*
X112761Y399710D01*
X113000Y399133D01*
Y221415D01*
X112500Y221382D01*
X112381Y222288D01*
X111883Y223489D01*
X111092Y224520D01*
X110061Y225311D01*
X108860Y225809D01*
X107571Y225979D01*
X106282Y225809D01*
X105081Y225311D01*
X104050Y224520D01*
X103258Y223489D01*
X102761Y222288D01*
X102591Y220999D01*
X102761Y219710D01*
X103258Y218509D01*
X104050Y217478D01*
X105081Y216687D01*
X106282Y216189D01*
X107571Y216019D01*
X108860Y216189D01*
X110061Y216687D01*
X111092Y217478D01*
X111883Y218509D01*
X112381Y219710D01*
X112500Y220616D01*
X113000Y220583D01*
Y192500D01*
X98071D01*
Y194876D01*
X98424Y195147D01*
X99065Y195983D01*
X99468Y196956D01*
X99605Y198000D01*
X99468Y199044D01*
X99065Y200017D01*
X98424Y200853D01*
X98071Y201124D01*
Y396085D01*
X98860Y396189D01*
X100061Y396687D01*
X101092Y397478D01*
X101883Y398509D01*
X102381Y399710D01*
X102550Y400999D01*
X102381Y402288D01*
X101883Y403489D01*
X101092Y404520D01*
X100061Y405311D01*
X98860Y405809D01*
X98071Y405913D01*
Y522500D01*
X1395000Y522500D01*
X1395000Y507500D01*
D02*
G37*
G36*
X1526847Y469982D02*
X1525871Y469788D01*
X1525044Y469236D01*
X1524492Y468409D01*
X1524298Y467433D01*
X1524492Y466458D01*
X1525044Y465631D01*
X1525871Y465078D01*
X1526847Y464884D01*
Y422500D01*
X1570500D01*
X1570500Y460000D01*
X1588646Y460017D01*
X1589000Y459664D01*
Y427000D01*
X1635627D01*
X1635749Y426550D01*
X1635749Y426548D01*
X1635306Y426411D01*
X1635025Y426355D01*
X1634198Y425802D01*
X1633645Y424975D01*
X1633451Y424000D01*
X1633645Y423025D01*
X1634198Y422198D01*
X1635025Y421645D01*
X1636000Y421451D01*
X1636975Y421645D01*
X1637802Y422198D01*
X1638355Y423025D01*
X1638549Y424000D01*
X1638355Y424975D01*
X1637802Y425802D01*
X1636975Y426355D01*
X1636694Y426411D01*
X1636251Y426548D01*
X1636251Y426550D01*
X1636373Y427000D01*
X1646181D01*
X1646448Y426500D01*
X1646098Y425976D01*
X1645904Y425000D01*
X1646098Y424024D01*
X1646650Y423198D01*
X1647477Y422645D01*
X1648453Y422451D01*
X1649428Y422645D01*
X1650255Y423198D01*
X1650808Y424024D01*
X1651002Y425000D01*
X1650808Y425976D01*
X1650457Y426500D01*
X1650724Y427000D01*
X1652086D01*
X1652354Y426500D01*
X1652003Y425976D01*
X1651809Y425000D01*
X1652003Y424024D01*
X1652556Y423198D01*
X1653383Y422645D01*
X1654358Y422451D01*
X1655334Y422645D01*
X1656161Y423198D01*
X1656713Y424024D01*
X1656907Y425000D01*
X1656713Y425976D01*
X1656363Y426500D01*
X1656630Y427000D01*
X1662000D01*
Y432555D01*
X1662500Y432822D01*
X1663025Y432472D01*
X1664000Y432278D01*
X1664975Y432472D01*
X1665802Y433024D01*
X1666355Y433851D01*
X1666549Y434827D01*
X1666355Y435802D01*
X1665802Y436629D01*
X1664975Y437182D01*
X1664000Y437376D01*
X1663025Y437182D01*
X1662500Y436831D01*
X1662000Y437099D01*
Y438461D01*
X1662500Y438728D01*
X1663025Y438377D01*
X1664000Y438183D01*
X1664975Y438377D01*
X1665802Y438930D01*
X1666355Y439757D01*
X1666549Y440732D01*
X1666355Y441708D01*
X1665802Y442535D01*
X1664975Y443087D01*
X1664000Y443281D01*
X1663025Y443087D01*
X1662500Y442737D01*
X1662000Y443004D01*
Y450272D01*
X1662500Y450539D01*
X1663025Y450188D01*
X1664000Y449994D01*
X1664975Y450188D01*
X1665802Y450741D01*
X1666355Y451568D01*
X1666549Y452543D01*
X1666355Y453519D01*
X1665802Y454346D01*
X1664975Y454898D01*
X1664000Y455092D01*
X1663025Y454898D01*
X1662500Y454548D01*
X1662000Y454815D01*
Y456228D01*
X1662500Y456496D01*
X1663025Y456145D01*
X1664000Y455951D01*
X1664975Y456145D01*
X1665802Y456698D01*
X1666355Y457524D01*
X1666549Y458500D01*
X1666355Y459476D01*
X1665802Y460302D01*
X1664975Y460855D01*
X1664000Y461049D01*
X1663025Y460855D01*
X1662500Y460504D01*
X1662000Y460772D01*
Y464000D01*
X1655000D01*
Y471000D01*
X1674953D01*
X1675025Y470952D01*
X1676000Y470758D01*
X1676975Y470952D01*
X1677047Y471000D01*
X1679847D01*
Y468549D01*
X1678871Y468355D01*
X1678044Y467802D01*
X1677492Y466975D01*
X1677298Y466000D01*
X1677492Y465025D01*
X1678044Y464198D01*
X1678871Y463645D01*
X1679847Y463451D01*
Y416857D01*
X1678871Y416663D01*
X1678044Y416111D01*
X1677492Y415284D01*
X1677298Y414308D01*
X1677492Y413333D01*
X1678044Y412506D01*
X1678871Y411953D01*
X1679847Y411759D01*
Y410500D01*
X1671511D01*
X1671355Y411282D01*
X1670802Y412110D01*
X1669975Y412662D01*
X1669000Y412856D01*
X1668025Y412662D01*
X1667198Y412110D01*
X1666645Y411282D01*
X1666489Y410500D01*
X1618511D01*
X1618355Y411282D01*
X1617802Y412110D01*
X1616975Y412662D01*
X1616000Y412856D01*
X1615025Y412662D01*
X1614198Y412110D01*
X1613784Y411491D01*
X1613216D01*
X1612802Y412110D01*
X1611975Y412662D01*
X1611000Y412856D01*
X1610025Y412662D01*
X1609198Y412110D01*
X1608645Y411282D01*
X1608489Y410500D01*
X1519511D01*
X1519355Y411282D01*
X1518802Y412110D01*
X1517975Y412662D01*
X1517000Y412856D01*
X1516528Y412762D01*
X1516141Y413079D01*
Y414257D01*
X1516418Y414534D01*
X1516975Y414645D01*
X1517802Y415198D01*
X1518355Y416024D01*
X1518549Y417000D01*
X1518355Y417976D01*
X1517802Y418802D01*
X1516975Y419355D01*
X1516000Y419549D01*
X1515025Y419355D01*
X1514198Y418802D01*
X1513645Y417976D01*
X1513534Y417418D01*
X1512116Y416000D01*
X1491000D01*
X1491000Y428000D01*
X1510500Y428000D01*
Y432703D01*
X1511000Y432918D01*
X1511668Y432472D01*
X1512643Y432278D01*
X1513619Y432472D01*
X1514446Y433024D01*
X1514998Y433851D01*
X1515192Y434827D01*
X1514998Y435802D01*
X1514446Y436629D01*
X1513619Y437182D01*
X1512643Y437376D01*
X1511668Y437182D01*
X1511000Y436735D01*
X1510500Y436950D01*
X1510500Y451842D01*
X1511000Y451993D01*
X1511198Y451698D01*
X1512025Y451145D01*
X1513000Y450951D01*
X1513975Y451145D01*
X1514802Y451698D01*
X1515355Y452525D01*
X1515549Y453500D01*
X1515355Y454475D01*
X1514802Y455302D01*
X1513975Y455855D01*
X1513000Y456049D01*
X1512025Y455855D01*
X1511198Y455302D01*
X1511000Y455007D01*
X1510500Y455158D01*
Y457842D01*
X1511000Y457993D01*
X1511198Y457698D01*
X1512025Y457145D01*
X1513000Y456951D01*
X1513975Y457145D01*
X1514802Y457698D01*
X1515355Y458525D01*
X1515549Y459500D01*
X1515355Y460475D01*
X1514802Y461302D01*
X1513975Y461855D01*
X1513000Y462049D01*
X1512025Y461855D01*
X1511198Y461302D01*
X1511000Y461007D01*
X1510500Y461158D01*
Y463500D01*
X1505000D01*
X1505000Y471268D01*
X1523052D01*
X1523525Y470952D01*
X1524500Y470758D01*
X1525475Y470952D01*
X1526295Y471500D01*
X1526847D01*
Y469982D01*
D02*
G37*
G36*
X1579902Y498500D02*
X1579902Y482500D01*
X1524746D01*
X1524500Y482549D01*
X1524254Y482500D01*
X1472762D01*
X1472516Y482549D01*
X1472270Y482500D01*
X1462500D01*
Y457500D01*
X1397500D01*
Y482500D01*
X1395099D01*
X1395000Y482520D01*
X1375000Y482520D01*
X1374902Y482500D01*
X1372598D01*
X1372500Y482520D01*
X1352975Y482520D01*
X1352877Y482500D01*
X1330152D01*
X1330152Y169500D01*
X1361463D01*
X1361654Y169038D01*
X1360582Y167966D01*
X1360025Y167855D01*
X1359198Y167302D01*
X1358645Y166475D01*
X1358451Y165500D01*
X1358645Y164524D01*
X1359198Y163698D01*
X1360025Y163145D01*
X1361000Y162951D01*
X1361975Y163145D01*
X1362802Y163698D01*
X1363355Y164524D01*
X1363466Y165082D01*
X1367345Y168961D01*
X1382652D01*
Y157500D01*
X1330152D01*
X1330152Y142500D01*
X1333493D01*
X1334025Y142145D01*
X1335000Y141951D01*
X1335975Y142145D01*
X1336507Y142500D01*
X1354493D01*
X1355025Y142145D01*
X1356000Y141951D01*
X1356975Y142145D01*
X1357507Y142500D01*
X1358666D01*
X1358983Y142113D01*
X1358961Y142000D01*
Y139948D01*
X1358645Y139476D01*
X1358451Y138500D01*
X1358645Y137524D01*
X1359198Y136698D01*
X1360025Y136145D01*
X1361000Y135951D01*
X1361975Y136145D01*
X1362802Y136698D01*
X1363355Y137524D01*
X1363549Y138500D01*
X1363355Y139476D01*
X1363039Y139948D01*
Y141155D01*
X1364384Y142500D01*
X1382652D01*
Y130354D01*
X1382299Y130000D01*
X1325152Y130024D01*
X1325152Y482500D01*
X797023D01*
X796613Y483000D01*
X796712Y483500D01*
X796518Y484476D01*
X795965Y485302D01*
X795138Y485855D01*
X794163Y486049D01*
X793188Y485855D01*
X792361Y485302D01*
X791808Y484476D01*
X791614Y483500D01*
X791713Y483000D01*
X791303Y482500D01*
X782917D01*
X782599Y482887D01*
X782640Y483091D01*
X782446Y484067D01*
X781894Y484894D01*
X781067Y485446D01*
X780091Y485640D01*
X779116Y485446D01*
X778289Y484894D01*
X777736Y484067D01*
X777543Y483094D01*
X776570Y482900D01*
X775971Y482500D01*
X750152D01*
Y365000D01*
X975152Y365000D01*
X975152Y360000D01*
Y346500D01*
X968152D01*
Y360000D01*
X906652Y360000D01*
X900152Y360000D01*
Y343500D01*
X893464D01*
Y360000D01*
X892109D01*
X891805Y360456D01*
X890978Y361009D01*
X890002Y361203D01*
X889027Y361009D01*
X888200Y360456D01*
X887895Y360000D01*
X869543D01*
X869347Y360039D01*
X744652D01*
X744652Y482500D01*
X571152Y482500D01*
X571152Y261500D01*
X332500Y261500D01*
Y225514D01*
X332010Y225311D01*
X330979Y224520D01*
X330188Y223489D01*
X329690Y222288D01*
X329520Y220999D01*
X329690Y219710D01*
X330188Y218509D01*
X330979Y217478D01*
X332010Y216687D01*
X332500Y216484D01*
Y205000D01*
X319000D01*
Y218962D01*
X319310Y219710D01*
X319480Y220999D01*
X319310Y222288D01*
X319000Y223036D01*
Y261500D01*
X272500D01*
Y269500D01*
X304251D01*
X304500Y269450D01*
X304749Y269500D01*
X309754D01*
X310000Y269451D01*
X310246Y269500D01*
X349754D01*
X350000Y269451D01*
X350246Y269500D01*
X355254D01*
X355500Y269451D01*
X355746Y269500D01*
X394254D01*
X394500Y269451D01*
X394746Y269500D01*
X565152Y269500D01*
X565152Y487500D01*
X750152Y487500D01*
X1352815Y487500D01*
X1352975Y487468D01*
X1372500Y487468D01*
X1372660Y487500D01*
X1405000D01*
Y462500D01*
X1455000D01*
Y487500D01*
X1572652D01*
X1572652Y498500D01*
X1579902Y498500D01*
D02*
G37*
G36*
X1395000Y347039D02*
X1387948D01*
X1387475Y347355D01*
X1386500Y347549D01*
X1385525Y347355D01*
X1384698Y346802D01*
X1384145Y345975D01*
X1383951Y345000D01*
X1384145Y344024D01*
X1384698Y343198D01*
X1385525Y342645D01*
X1386500Y342451D01*
X1387475Y342645D01*
X1387948Y342961D01*
X1395000D01*
X1395000Y298039D01*
X1387948D01*
X1387475Y298355D01*
X1386500Y298549D01*
X1385525Y298355D01*
X1384698Y297802D01*
X1384145Y296975D01*
X1383951Y296000D01*
X1384145Y295024D01*
X1384698Y294198D01*
X1385525Y293645D01*
X1386500Y293451D01*
X1387475Y293645D01*
X1387948Y293961D01*
X1395000D01*
X1395000Y249039D01*
X1387948D01*
X1387475Y249355D01*
X1386500Y249549D01*
X1385525Y249355D01*
X1384698Y248802D01*
X1384145Y247975D01*
X1383951Y247000D01*
X1384145Y246024D01*
X1384698Y245198D01*
X1385525Y244645D01*
X1386500Y244451D01*
X1387475Y244645D01*
X1387948Y244961D01*
X1395000D01*
X1395000Y200039D01*
X1387948D01*
X1387475Y200355D01*
X1386500Y200549D01*
X1385525Y200355D01*
X1384698Y199802D01*
X1384302D01*
X1383475Y200355D01*
X1382500Y200549D01*
X1381525Y200355D01*
X1380698Y199802D01*
X1380145Y198976D01*
X1379951Y198000D01*
X1380145Y197025D01*
X1380698Y196198D01*
X1381525Y195645D01*
X1382500Y195451D01*
X1383475Y195645D01*
X1384302Y196198D01*
X1384698D01*
X1385525Y195645D01*
X1386500Y195451D01*
X1387475Y195645D01*
X1387948Y195961D01*
X1395000D01*
X1395000Y173039D01*
X1375000D01*
Y179296D01*
X1375302Y179498D01*
X1375855Y180324D01*
X1376049Y181300D01*
X1375855Y182275D01*
X1375302Y183102D01*
X1375000Y183305D01*
X1375000Y228295D01*
X1375302Y228498D01*
X1375855Y229325D01*
X1376049Y230300D01*
X1375855Y231276D01*
X1375302Y232102D01*
X1375000Y232305D01*
X1375000Y277295D01*
X1375302Y277498D01*
X1375855Y278325D01*
X1376049Y279300D01*
X1375855Y280276D01*
X1375302Y281102D01*
X1375000Y281305D01*
X1375000Y326295D01*
X1375302Y326498D01*
X1375855Y327325D01*
X1376049Y328300D01*
X1375855Y329275D01*
X1375302Y330102D01*
X1375000Y330305D01*
X1375000Y481500D01*
X1395000Y481500D01*
X1395000Y347039D01*
D02*
G37*
G36*
X1372500Y330639D02*
X1371698Y330102D01*
X1371145Y329275D01*
X1370951Y328300D01*
X1371145Y327325D01*
X1371698Y326498D01*
X1372500Y325961D01*
Y281639D01*
X1371698Y281102D01*
X1371145Y280276D01*
X1370951Y279300D01*
X1371145Y278325D01*
X1371698Y277498D01*
X1372500Y276961D01*
X1372500Y232639D01*
X1371698Y232102D01*
X1371145Y231276D01*
X1370951Y230300D01*
X1371145Y229325D01*
X1371698Y228498D01*
X1372500Y227961D01*
X1372500Y183639D01*
X1371698Y183102D01*
X1371145Y182275D01*
X1370951Y181300D01*
X1371145Y180324D01*
X1371698Y179498D01*
X1372500Y178962D01*
Y173039D01*
X1366500D01*
X1365720Y172884D01*
X1365455Y172707D01*
X1365145Y172500D01*
X1352975Y172500D01*
X1352975Y481500D01*
X1372500Y481500D01*
X1372500Y330639D01*
D02*
G37*
%LPC*%
G36*
X177571Y225979D02*
X176282Y225809D01*
X175081Y225311D01*
X174050Y224520D01*
X173258Y223489D01*
X172761Y222288D01*
X172591Y220999D01*
X172761Y219710D01*
X173258Y218509D01*
X174050Y217478D01*
X175081Y216687D01*
X176282Y216189D01*
X177571Y216019D01*
X178860Y216189D01*
X180061Y216687D01*
X181092Y217478D01*
X181883Y218509D01*
X182381Y219710D01*
X182551Y220999D01*
X182381Y222288D01*
X181883Y223489D01*
X181092Y224520D01*
X180061Y225311D01*
X178860Y225809D01*
X177571Y225979D01*
D02*
G37*
G36*
X178071Y201565D02*
Y198500D01*
X181136D01*
X181078Y198940D01*
X180716Y199815D01*
X180138Y200568D01*
X179386Y201145D01*
X178511Y201507D01*
X178071Y201565D01*
D02*
G37*
G36*
X177071D02*
X176631Y201507D01*
X175755Y201145D01*
X175003Y200568D01*
X174426Y199815D01*
X174064Y198940D01*
X174006Y198500D01*
X177071D01*
Y201565D01*
D02*
G37*
G36*
X181136Y197500D02*
X178071D01*
Y194435D01*
X178511Y194493D01*
X179386Y194855D01*
X180138Y195432D01*
X180716Y196185D01*
X181078Y197060D01*
X181136Y197500D01*
D02*
G37*
G36*
X177071D02*
X174006D01*
X174064Y197060D01*
X174426Y196185D01*
X175003Y195432D01*
X175755Y194855D01*
X176631Y194493D01*
X177071Y194435D01*
Y197500D01*
D02*
G37*
G36*
X106071Y201565D02*
Y198500D01*
X109136D01*
X109078Y198940D01*
X108715Y199815D01*
X108138Y200568D01*
X107386Y201145D01*
X106511Y201507D01*
X106071Y201565D01*
D02*
G37*
G36*
X105071D02*
X104631Y201507D01*
X103755Y201145D01*
X103003Y200568D01*
X102426Y199815D01*
X102064Y198940D01*
X102006Y198500D01*
X105071D01*
Y201565D01*
D02*
G37*
G36*
X109136Y197500D02*
X106071D01*
Y194435D01*
X106511Y194493D01*
X107386Y194855D01*
X108138Y195432D01*
X108715Y196185D01*
X109078Y197060D01*
X109136Y197500D01*
D02*
G37*
G36*
X105071D02*
X102006D01*
X102064Y197060D01*
X102426Y196185D01*
X103003Y195432D01*
X103755Y194855D01*
X104631Y194493D01*
X105071Y194435D01*
Y197500D01*
D02*
G37*
G36*
X1514000Y443281D02*
X1513025Y443087D01*
X1512198Y442535D01*
X1511645Y441708D01*
X1511451Y440732D01*
X1511645Y439757D01*
X1512198Y438930D01*
X1513025Y438377D01*
X1514000Y438183D01*
X1514975Y438377D01*
X1515802Y438930D01*
X1516355Y439757D01*
X1516549Y440732D01*
X1516355Y441708D01*
X1515802Y442535D01*
X1514975Y443087D01*
X1514000Y443281D01*
D02*
G37*
G36*
X1504000Y427049D02*
X1503025Y426855D01*
X1502198Y426302D01*
X1501645Y425476D01*
X1501505Y424771D01*
X1500995D01*
X1500855Y425476D01*
X1500302Y426302D01*
X1499475Y426855D01*
X1498500Y427049D01*
X1497525Y426855D01*
X1496698Y426302D01*
X1496145Y425476D01*
X1495951Y424500D01*
X1496145Y423525D01*
X1496698Y422698D01*
X1497525Y422145D01*
X1498500Y421951D01*
X1499475Y422145D01*
X1500302Y422698D01*
X1500855Y423525D01*
X1500995Y424229D01*
X1501505D01*
X1501645Y423525D01*
X1502198Y422698D01*
X1503025Y422145D01*
X1504000Y421951D01*
X1504975Y422145D01*
X1505802Y422698D01*
X1506355Y423525D01*
X1506549Y424500D01*
X1506355Y425476D01*
X1505802Y426302D01*
X1504975Y426855D01*
X1504000Y427049D01*
D02*
G37*
G36*
X1668000Y419549D02*
X1667025Y419355D01*
X1666198Y418802D01*
X1665645Y417976D01*
X1665451Y417000D01*
X1665645Y416024D01*
X1666198Y415198D01*
X1667025Y414645D01*
X1668000Y414451D01*
X1668975Y414645D01*
X1669802Y415198D01*
X1670355Y416024D01*
X1670549Y417000D01*
X1670355Y417976D01*
X1669802Y418802D01*
X1668975Y419355D01*
X1668000Y419549D01*
D02*
G37*
G36*
X1616000D02*
X1615025Y419355D01*
X1614198Y418802D01*
X1613645Y417976D01*
X1613451Y417000D01*
X1613645Y416024D01*
X1614198Y415198D01*
X1615025Y414645D01*
X1616000Y414451D01*
X1616975Y414645D01*
X1617802Y415198D01*
X1618355Y416024D01*
X1618549Y417000D01*
X1618355Y417976D01*
X1617802Y418802D01*
X1616975Y419355D01*
X1616000Y419549D01*
D02*
G37*
G36*
X1526847Y418049D02*
X1525871Y417855D01*
X1525044Y417302D01*
X1524492Y416475D01*
X1524298Y415500D01*
X1524492Y414525D01*
X1525044Y413698D01*
X1525871Y413145D01*
X1526847Y412951D01*
X1527822Y413145D01*
X1528649Y413698D01*
X1529201Y414525D01*
X1529395Y415500D01*
X1529201Y416475D01*
X1528649Y417302D01*
X1527822Y417855D01*
X1526847Y418049D01*
D02*
G37*
G36*
X1383500Y305549D02*
X1382525Y305355D01*
X1381698Y304802D01*
X1381145Y303976D01*
X1380951Y303000D01*
X1381145Y302025D01*
X1381698Y301198D01*
X1382525Y300645D01*
X1383500Y300451D01*
X1384475Y300645D01*
X1385302Y301198D01*
X1385855Y302025D01*
X1386049Y303000D01*
X1385855Y303976D01*
X1385302Y304802D01*
X1384475Y305355D01*
X1383500Y305549D01*
D02*
G37*
G36*
X1379500Y249549D02*
X1378525Y249355D01*
X1377698Y248802D01*
X1377145Y247975D01*
X1376951Y247000D01*
X1377145Y246024D01*
X1377698Y245198D01*
X1378525Y244645D01*
X1379500Y244451D01*
X1380475Y244645D01*
X1381302Y245198D01*
X1381855Y246024D01*
X1382049Y247000D01*
X1381855Y247975D01*
X1381302Y248802D01*
X1380475Y249355D01*
X1379500Y249549D01*
D02*
G37*
G36*
X1359000Y366549D02*
X1358025Y366355D01*
X1357198Y365802D01*
X1356645Y364976D01*
X1356451Y364000D01*
X1356645Y363024D01*
X1357198Y362198D01*
X1358025Y361645D01*
X1359000Y361451D01*
X1359975Y361645D01*
X1360802Y362198D01*
X1361355Y363024D01*
X1361549Y364000D01*
X1361355Y364976D01*
X1360802Y365802D01*
X1359975Y366355D01*
X1359000Y366549D01*
D02*
G37*
G36*
Y317549D02*
X1358025Y317355D01*
X1357198Y316802D01*
X1356645Y315975D01*
X1356451Y315000D01*
X1356645Y314024D01*
X1357198Y313198D01*
X1358025Y312645D01*
X1359000Y312451D01*
X1359975Y312645D01*
X1360802Y313198D01*
X1361355Y314024D01*
X1361549Y315000D01*
X1361355Y315975D01*
X1360802Y316802D01*
X1359975Y317355D01*
X1359000Y317549D01*
D02*
G37*
G36*
Y268549D02*
X1358025Y268355D01*
X1357198Y267802D01*
X1356645Y266975D01*
X1356451Y266000D01*
X1356645Y265024D01*
X1357198Y264198D01*
X1358025Y263645D01*
X1359000Y263451D01*
X1359975Y263645D01*
X1360802Y264198D01*
X1361355Y265024D01*
X1361549Y266000D01*
X1361355Y266975D01*
X1360802Y267802D01*
X1359975Y268355D01*
X1359000Y268549D01*
D02*
G37*
G36*
Y219549D02*
X1358025Y219355D01*
X1357198Y218802D01*
X1356645Y217975D01*
X1356451Y217000D01*
X1356645Y216024D01*
X1357198Y215198D01*
X1358025Y214645D01*
X1359000Y214451D01*
X1359975Y214645D01*
X1360802Y215198D01*
X1361355Y216024D01*
X1361549Y217000D01*
X1361355Y217975D01*
X1360802Y218802D01*
X1359975Y219355D01*
X1359000Y219549D01*
D02*
G37*
%LPD*%
D11*
X132000Y84500D02*
X183500D01*
X752000Y104000D02*
X764500Y116500D01*
X752000Y95702D02*
Y104000D01*
X1385000Y83000D02*
X1416700D01*
X1363000Y105000D02*
X1385000Y83000D01*
X1387186Y85600D02*
X1417777D01*
X1367786Y105000D02*
X1387186Y85600D01*
X1389371Y88200D02*
X1418854D01*
X1372571Y105000D02*
X1389371Y88200D01*
X1391557Y90800D02*
X1419931D01*
X1377357Y105000D02*
X1391557Y90800D01*
X1393743Y93400D02*
X1421008D01*
X1382143Y105000D02*
X1393743Y93400D01*
X1395928Y96000D02*
X1422085D01*
X1386928Y105000D02*
X1395928Y96000D01*
X1398114Y98600D02*
X1423162D01*
X1391714Y105000D02*
X1398114Y98600D01*
X1400300Y101200D02*
X1424239D01*
X1396500Y105000D02*
X1400300Y101200D01*
X1377800Y123700D02*
X1396500Y105000D01*
X1375614Y121100D02*
X1391714Y105000D01*
X1325123Y121100D02*
X1375614D01*
X1373429Y118500D02*
X1386928Y105000D01*
X1324046Y118500D02*
X1373429D01*
X1371243Y115900D02*
X1382143Y105000D01*
X1322969Y115900D02*
X1371243D01*
X1321892Y113300D02*
X1369057D01*
X1377357Y105000D01*
X1366871Y110700D02*
X1372571Y105000D01*
X1364686Y108100D02*
X1367786Y105000D01*
X1362500Y105500D02*
X1363000Y105000D01*
X1318661Y105500D02*
X1362500D01*
X1333154Y83654D02*
X1348807Y68000D01*
X1329154Y87654D02*
X1333154Y83654D01*
X1330500Y81000D02*
X1333154Y83654D01*
X1289500Y127307D02*
X1329154Y87654D01*
X1326500Y85000D02*
X1329154Y87654D01*
X1319484Y101000D02*
X1325500D01*
X1348807Y68000D02*
X1417500D01*
X743100Y19303D02*
X747403Y15000D01*
X871500Y355847D02*
X893311Y334035D01*
Y301500D02*
Y334035D01*
X355199Y167500D02*
Y169799D01*
X332999Y191999D02*
X355199Y169799D01*
X332999Y191999D02*
X352100Y211100D01*
X304049Y191999D02*
X332999D01*
X259500Y236548D02*
X304049Y191999D01*
X291441Y293000D02*
X291500D01*
X307500Y309000D01*
Y325000D01*
X407500Y425000D01*
X274000Y293000D02*
X291441D01*
X259500Y278500D02*
X274000Y293000D01*
X259500Y236548D02*
Y278500D01*
X363100Y293000D02*
X367900D01*
X348600Y307500D02*
X363100Y293000D01*
X348600Y307500D02*
Y316746D01*
X323400Y293000D02*
X332000D01*
X346000Y307000D01*
Y317823D01*
X894000Y436795D02*
X914397Y416397D01*
X894000Y436795D02*
Y444000D01*
X914500Y416500D02*
X1039000D01*
X914397Y416397D02*
X914500Y416500D01*
X914397Y392500D02*
Y416397D01*
X898964Y377067D02*
X914397Y392500D01*
X883302Y377067D02*
X898964D01*
X869347Y358000D02*
X871500Y355847D01*
X348600Y316746D02*
X415854Y384000D01*
X1676000Y473307D02*
X1681593D01*
X1684900Y470000D01*
X1640307Y473307D02*
X1676000D01*
X1635500Y468500D02*
X1640307Y473307D01*
X1485807D02*
X1524500D01*
X1481000Y468500D02*
X1485807Y473307D01*
X1464500Y452000D02*
X1481000Y468500D01*
X1684900Y401077D02*
Y470000D01*
X1464500Y417000D02*
Y452000D01*
X1511129Y412129D02*
X1516000Y417000D01*
X1457500Y410000D02*
X1464500Y417000D01*
X1684423Y400600D02*
X1684900Y401077D01*
X1676500Y400600D02*
X1684423D01*
X1676500D02*
Y403500D01*
X1636000Y400600D02*
X1676500D01*
X1611000D02*
Y410307D01*
Y400600D02*
X1636000D01*
X1511129D02*
Y412129D01*
X1485807Y400600D02*
X1511129D01*
X1611000D01*
X1457500D02*
X1485807D01*
X1457500D02*
Y410000D01*
X1410900Y400600D02*
X1457500D01*
X1408500Y403000D02*
X1410900Y400600D01*
X1313900Y399900D02*
X1317000Y403000D01*
X1313900Y396077D02*
Y399900D01*
X1253923Y249400D02*
X1272500Y230823D01*
Y189000D02*
Y230823D01*
X1272277Y189223D02*
X1272500Y189000D01*
X1249400Y260500D02*
Y331577D01*
X1272500Y175407D02*
Y189000D01*
Y175407D02*
X1289500Y158407D01*
Y134500D02*
Y158407D01*
Y127307D02*
Y134500D01*
X1249400Y331577D02*
X1313900Y396077D01*
X1247530Y258630D02*
X1249400Y260500D01*
X1247130Y258630D02*
X1247530D01*
X1247000Y249500D02*
X1247100Y249400D01*
X1253923D01*
X1246900Y249400D02*
X1247000Y249500D01*
X937400Y249400D02*
X1246900D01*
X1201218Y189223D02*
X1272277D01*
X1200695Y188700D02*
X1201218Y189223D01*
X1200500Y188700D02*
X1200695D01*
X881000Y193000D02*
X937400Y249400D01*
X851900Y211100D02*
X875500Y187500D01*
X802500Y182500D02*
X863000D01*
X471000Y488500D02*
X541500D01*
X407500Y425000D02*
X471000Y488500D01*
X428500Y404000D02*
X475000D01*
X352100Y211100D02*
X851900D01*
X407500Y425000D02*
X428500Y404000D01*
X398500Y166500D02*
X401000Y169000D01*
X456500D01*
X162605Y171000D02*
X166005Y167600D01*
X59200Y167700D02*
X146300D01*
X355199Y167500D02*
X387600D01*
X166005Y167600D02*
X236900D01*
X761000Y141000D02*
X802500Y182500D01*
X456500Y169000D02*
X461500Y164000D01*
X398500Y164600D02*
Y166500D01*
X761000Y120000D02*
X764500Y116500D01*
X761000Y120000D02*
Y141000D01*
X387600Y167500D02*
X390500Y164600D01*
X236900Y167600D02*
X238500Y166000D01*
X55000Y163500D02*
X59200Y167700D01*
X146300D02*
X158500Y155500D01*
X1621847Y487000D02*
X1680000D01*
X1687500Y479500D01*
X1619500Y455000D02*
X1621847Y452654D01*
X1687500Y400000D02*
Y479500D01*
X1621847Y432927D02*
Y452654D01*
X1616000Y458500D02*
Y481153D01*
Y458500D02*
X1619500Y455000D01*
X1616000Y481153D02*
X1621847Y487000D01*
X1472500Y436000D02*
Y448000D01*
Y404859D02*
Y436000D01*
X1685500Y398000D02*
X1687500Y400000D01*
X1472500Y398000D02*
X1685500D01*
X1411000D02*
X1472500D01*
X1408500Y395500D02*
X1411000Y398000D01*
X1472500Y395000D02*
Y398000D01*
X1275100Y176484D02*
Y231900D01*
X1252000Y252065D02*
Y330500D01*
Y252065D02*
X1252065Y252000D01*
X1252000Y330500D02*
X1317000Y395500D01*
X1252065Y252000D02*
X1255000D01*
X1249130D02*
X1252065D01*
X1248530Y252600D02*
X1249130Y252000D01*
X1245600Y252600D02*
X1248530D01*
X1255000Y252000D02*
X1275100Y231900D01*
X1245000Y252000D02*
X1245600Y252600D01*
X1275100Y176484D02*
X1293500Y158084D01*
X934500Y252000D02*
X1245000D01*
X878000Y195500D02*
X934500Y252000D01*
X1238500Y158500D02*
Y171500D01*
X878000Y195091D02*
Y195500D01*
X787500Y301179D02*
X799000Y289679D01*
Y270053D02*
Y289679D01*
X787000Y258053D02*
X799000Y270053D01*
X787500Y301179D02*
Y301500D01*
X840591Y232500D02*
X878000Y195091D01*
X787000Y246000D02*
X800500Y232500D01*
X787000Y246000D02*
Y258053D01*
X850000Y208500D02*
X875500Y183000D01*
X800500Y232500D02*
X840591D01*
X611900Y177100D02*
X615000Y174000D01*
X591600Y177100D02*
X611900D01*
X574500Y160000D02*
X591600Y177100D01*
X571958Y157458D02*
X574500Y160000D01*
X533128Y157458D02*
X571958D01*
X530000Y160587D02*
X533128Y157458D01*
X1293500Y134500D02*
Y158084D01*
X1245000Y143884D02*
X1251000Y137884D01*
X1238500Y150384D02*
X1245000Y143884D01*
X1251000Y135000D02*
Y137884D01*
X1241116Y140000D02*
X1245000Y143884D01*
X1293500Y126984D02*
Y134500D01*
X1238500Y150384D02*
Y158500D01*
X1213000Y140000D02*
X1241116D01*
X1208000Y135000D02*
X1213000Y140000D01*
X1203500Y130500D02*
X1208000Y135000D01*
X1139000Y130500D02*
X1203500D01*
X1293500Y126984D02*
X1319484Y101000D01*
X875500Y183000D02*
X909500Y149000D01*
X1131000Y122500D02*
X1139000Y130500D01*
X909500Y77000D02*
Y149000D01*
X1131000Y102500D02*
Y122500D01*
X530000Y132000D02*
Y160587D01*
X1084500Y56000D02*
X1131000Y102500D01*
X1042500Y56000D02*
X1084500D01*
X1042500Y52000D02*
Y56000D01*
X1011500Y21000D02*
X1042500Y52000D01*
X991500Y21000D02*
X1001500D01*
X1011500D01*
X983260Y12760D02*
X991500Y21000D01*
X974500Y12760D02*
X983260D01*
X973740D02*
X974500D01*
X909500Y77000D02*
X920000Y66500D01*
X973740Y12760D01*
X396069Y208500D02*
X850000D01*
X392048Y204479D02*
X396069Y208500D01*
X500500Y173500D02*
X513413Y160587D01*
X392048Y171548D02*
Y204479D01*
X272500Y173000D02*
X308014D01*
X513413Y160587D02*
X530000D01*
X396500Y156707D02*
Y160000D01*
X394500Y162000D02*
X396500Y160000D01*
X415000Y156707D02*
X438707D01*
X396500D02*
X415000D01*
X391500Y171000D02*
X392048Y171548D01*
X394500Y162000D02*
Y168000D01*
X391500Y171000D02*
X394500Y168000D01*
X392095Y156707D02*
X396500D01*
X391888Y156500D02*
X392095Y156707D01*
X390207Y156500D02*
X391888D01*
X269400Y176100D02*
X272500Y173000D01*
X253100Y176100D02*
X269400D01*
X238500Y161500D02*
X253100Y176100D01*
X44500Y173500D02*
X50500Y167500D01*
X195716Y164600D02*
X235400D01*
X238500Y161500D01*
X189500Y165000D02*
X193000Y161500D01*
Y161884D02*
X195716Y164600D01*
X162605Y165000D02*
X189500D01*
X193000Y161500D02*
Y161884D01*
X118061Y165100D02*
X121331Y161831D01*
X82716Y165100D02*
X118061D01*
X80000Y162000D02*
Y162384D01*
X82716Y165100D01*
X74000Y156000D02*
X80000Y162000D01*
X519500Y121500D02*
X573500D01*
X519500D02*
X530000Y132000D01*
X519500Y113000D02*
Y121500D01*
X415000Y120500D02*
Y156707D01*
X357361Y123653D02*
X390207Y156500D01*
X355199Y123653D02*
X357361D01*
X308014Y173000D02*
X357361Y123653D01*
X340000Y108454D02*
X355199Y123653D01*
X504000Y97500D02*
X519500Y113000D01*
X340000Y97000D02*
Y108454D01*
X197439Y108500D02*
X247000D01*
X193000Y147000D02*
Y161500D01*
X197339Y108600D02*
Y142661D01*
X193000Y147000D02*
X197339Y142661D01*
X94500Y123500D02*
Y135500D01*
X66000Y148000D02*
X74000Y156000D01*
X50500Y148000D02*
Y167500D01*
Y148000D02*
X66000D01*
X38500Y136000D02*
X50500Y148000D01*
X74000Y156000D02*
X94500Y135500D01*
X38500Y123500D02*
Y136000D01*
X28000Y113000D02*
X38500Y123500D01*
X197339Y108600D02*
X197439Y108500D01*
X194600Y108600D02*
X197339D01*
X189100Y85600D02*
Y90284D01*
X189000Y90384D02*
X189100Y90284D01*
X189000Y103000D02*
X194600Y108600D01*
X189000Y90384D02*
Y103000D01*
Y85500D02*
X189100Y85600D01*
X28000Y89500D02*
Y113000D01*
X930311Y388154D02*
Y388281D01*
X564900Y92100D02*
X568000Y89000D01*
X524100Y92100D02*
X564900D01*
X521500Y89500D02*
X524100Y92100D01*
X556983Y185000D02*
X561583Y180400D01*
X568888D01*
X571583Y183095D01*
Y187417D01*
X562101Y196899D02*
X571583Y187417D01*
X435601Y196899D02*
X562101D01*
X435500Y197000D02*
X435601Y196899D01*
X301500Y155000D02*
Y164000D01*
X296500Y150000D02*
X301500Y155000D01*
X252500Y150000D02*
X296500D01*
X234500Y132000D02*
X252500Y150000D01*
X457000Y90000D02*
X459100Y92100D01*
X518900D01*
X521500Y89500D01*
X576500Y129500D02*
X576600Y129400D01*
Y97600D02*
Y129400D01*
X568000Y89000D02*
X576600Y97600D01*
X532500Y128000D02*
X534337Y129837D01*
X576163D01*
X576500Y129500D01*
X417500Y91303D02*
X436500Y110303D01*
Y123500D01*
X366545Y115000D02*
X386554Y135009D01*
X356045Y104500D02*
X366545Y115000D01*
X387242Y94303D01*
X414500D01*
X417500Y91303D01*
Y87000D02*
Y91303D01*
X386554Y135009D02*
Y141239D01*
X353000Y104500D02*
X356045D01*
X220000Y113986D02*
X234500Y128486D01*
X217615Y111600D02*
X220000Y113986D01*
X234500Y128486D02*
Y132000D01*
X120000Y130500D02*
X185000D01*
X186500Y132000D01*
X116884Y130500D02*
X120000D01*
X89884Y103500D02*
X116884Y130500D01*
X83000Y103500D02*
X89884D01*
X75500Y104500D02*
X82000D01*
X35000D02*
X75500D01*
X76000Y105000D01*
Y128000D01*
X82000Y104500D02*
X83000Y103500D01*
X1216000Y100900D02*
X1216050Y100850D01*
X1216000Y32850D02*
X1216050Y32800D01*
X1278000Y103500D02*
Y162554D01*
Y61500D02*
Y103500D01*
X1195400Y173405D02*
X1208618Y186623D01*
X1257607D01*
X1280600Y163630D01*
X1200000Y171500D02*
X1212523Y184023D01*
X1256530D01*
X1278000Y162554D01*
X645900Y85900D02*
X649000Y89000D01*
X587600Y85900D02*
X645900D01*
X584500Y89000D02*
X587600Y85900D01*
X581400D02*
X584500Y89000D01*
X537600Y85900D02*
X581400D01*
X534500Y89000D02*
X537600Y85900D01*
X531400D02*
X534500Y89000D01*
X473100Y85900D02*
X531400D01*
X470000Y89000D02*
X473100Y85900D01*
X421000Y86116D02*
Y89000D01*
X416884Y82000D02*
X421000Y86116D01*
X415500Y82000D02*
X416884D01*
X412972Y84528D02*
X415500Y82000D01*
X360972Y84528D02*
X412972D01*
X356500Y89000D02*
X360972Y84528D01*
X352028D02*
X356500Y89000D01*
X310972Y84528D02*
X352028D01*
X306500Y89000D02*
X310972Y84528D01*
X302028D02*
X306500Y89000D01*
X246472Y84528D02*
X302028D01*
X242000Y89000D02*
X246472Y84528D01*
X192500Y84616D02*
X192588Y84528D01*
X237528D01*
X242000Y89000D01*
X192500Y84616D02*
Y89000D01*
X188884Y81000D02*
X192500Y84616D01*
X187000Y81000D02*
X188884D01*
X183500Y84500D02*
X187000Y81000D01*
X127500Y89000D02*
X132000Y84500D01*
X123000D02*
X127500Y89000D01*
X82500Y84500D02*
X123000D01*
X78500Y88500D02*
X82500Y84500D01*
X74500D02*
X78500Y88500D01*
X17979Y84500D02*
X74500D01*
X13979Y88500D02*
X17979Y84500D01*
X733100Y29303D02*
X743100Y19303D01*
X683900Y29303D02*
X733100D01*
X403500Y213700D02*
X853800D01*
X357300D02*
X403500D01*
Y217000D01*
X1039000Y416500D02*
X1053500Y431000D01*
X1075000D01*
X415854Y384000D02*
X475000D01*
X346000Y317823D02*
X422177Y394000D01*
X475000D01*
X485000Y185000D02*
X546983D01*
X479500Y191499D02*
X560484D01*
X461500D02*
X479500D01*
Y176500D02*
Y191499D01*
Y176500D02*
X500500Y155500D01*
X560484Y191499D02*
X566983Y185000D01*
X779500Y122500D02*
X805000D01*
X765500Y136500D02*
X779500Y122500D01*
X833500Y147500D02*
X865000Y179000D01*
X833500Y104000D02*
Y147500D01*
X824000Y55000D02*
X840822Y71822D01*
Y96678D01*
X833500Y104000D02*
X840822Y96678D01*
X805000Y106000D02*
X807000Y104000D01*
X833500D01*
X803000D02*
X805000Y106000D01*
Y122500D01*
X824000Y42000D02*
Y55000D01*
Y42000D02*
X831000Y35000D01*
Y25000D02*
Y35000D01*
X821000Y15000D02*
X831000Y25000D01*
X747403Y15000D02*
X821000D01*
X866400Y187400D02*
X866500Y187500D01*
X866400Y182716D02*
Y187400D01*
Y182716D02*
X897543Y151573D01*
X899573D01*
X904300Y146846D01*
Y51700D02*
Y146846D01*
Y51700D02*
X906500Y49500D01*
X922500Y20000D02*
Y49500D01*
Y20000D02*
X931000Y11500D01*
X927500Y54616D02*
X954016Y28100D01*
X906900Y75216D02*
X927500Y54616D01*
Y54500D02*
Y54616D01*
X922500Y49500D02*
X927500Y54500D01*
X914500Y49500D02*
X922500D01*
X869500Y184000D02*
X880789Y172711D01*
X882112D01*
X906900Y147923D01*
Y75216D02*
Y147923D01*
X954016Y28100D02*
X954723D01*
X969900Y12923D01*
Y10854D02*
Y12923D01*
Y10854D02*
X972595Y8160D01*
X982337D01*
X990177Y16000D01*
X1042500D01*
X940074Y246074D02*
X1253572D01*
X888000Y194000D02*
X940074Y246074D01*
X1253572D02*
X1253572Y246074D01*
X1269900Y229746D01*
Y191823D02*
Y229746D01*
X1197823Y191823D02*
X1269900D01*
X1196000Y190000D02*
X1197823Y191823D01*
X853800Y213700D02*
X876000Y191500D01*
X1210000Y158500D02*
Y171500D01*
X347500Y223500D02*
Y228000D01*
Y223500D02*
X357300Y213700D01*
X1280600Y61500D02*
Y163630D01*
X1280600Y41600D02*
Y63000D01*
X1265000Y26000D02*
X1280600Y41600D01*
X1222850Y26000D02*
X1265000D01*
X1216050Y32800D02*
X1222850Y26000D01*
X1216050Y59400D02*
X1222950Y52500D01*
X1269000D01*
X1278000Y61500D01*
X1195400Y163100D02*
Y173405D01*
Y163100D02*
X1200000Y158500D01*
X1190000D02*
Y171500D01*
X923846Y268500D02*
Y270965D01*
X893311Y301500D02*
X923846Y270965D01*
X712500Y358000D02*
X869347D01*
X706500Y364000D02*
X712500Y358000D01*
X862500Y303000D02*
Y343500D01*
X1675000Y143000D02*
X1678500Y146500D01*
X1623000Y143000D02*
X1675000D01*
X1619500Y146500D02*
X1623000Y143000D01*
X1405000Y154500D02*
Y165500D01*
Y154500D02*
X1409500Y150000D01*
X1589900Y116900D02*
X1619500Y146500D01*
X1415577Y116900D02*
X1589900D01*
X1409500Y122977D02*
X1415577Y116900D01*
X1409500Y144500D02*
Y150000D01*
Y122977D02*
Y129000D01*
X1675000Y244000D02*
X1678500Y247500D01*
X1623000Y244000D02*
X1675000D01*
X1619500Y247500D02*
X1623000Y244000D01*
X1599911Y227911D02*
X1619500Y247500D01*
X1599911Y130588D02*
Y227911D01*
X1588823Y119500D02*
X1599911Y130588D01*
X1366500Y171000D02*
X1403884D01*
X1412100Y162784D01*
X1361000Y165500D02*
X1366500Y171000D01*
X1413500Y144500D02*
Y147600D01*
X1412100Y149000D02*
X1413500Y147600D01*
Y122653D02*
X1416654Y119500D01*
X1588823D01*
X1412100Y149000D02*
Y162784D01*
X1413500Y122653D02*
Y129000D01*
X1555163Y259500D02*
Y317000D01*
X1548163Y252500D02*
X1555163Y259500D01*
X1518500Y252500D02*
X1548163D01*
X1511500Y259500D02*
X1518500Y252500D01*
X1464163Y259500D02*
Y317000D01*
Y259500D02*
X1511500D01*
X1461063Y256400D02*
X1464163Y259500D01*
X1461063Y145077D02*
Y256400D01*
X1407355Y140855D02*
X1418500D01*
X1424255Y135100D01*
X1451086D02*
X1461063Y145077D01*
X1405000Y138500D02*
X1407355Y140855D01*
X1424255Y135100D02*
X1451086D01*
X1555163Y144500D02*
Y202000D01*
X1550663Y140000D02*
X1555163Y144500D01*
X1516500Y140000D02*
X1550663D01*
X1512000Y144500D02*
X1516500Y140000D01*
X1464163Y144500D02*
Y202000D01*
X1364000Y145000D02*
X1385000D01*
X1464163Y144500D02*
X1512000D01*
X1361000Y142000D02*
X1364000Y145000D01*
X1385000D02*
X1397500Y132500D01*
X1452163D02*
X1464163Y144500D01*
X1397500Y132500D02*
X1452163D01*
X1361000Y138500D02*
Y142000D01*
X1316000Y133900D02*
Y165000D01*
X1293300Y184023D02*
X1313400Y163923D01*
X1310800Y131746D02*
Y162846D01*
X1308200Y130669D02*
Y161769D01*
X1305600Y129592D02*
Y160692D01*
X1303000Y128515D02*
Y159615D01*
X1300400Y127438D02*
Y158538D01*
X1297800Y126361D02*
Y157461D01*
X1697000Y287000D02*
Y310677D01*
X1650287Y357390D02*
X1697000Y310677D01*
X1684000Y193000D02*
X1697000Y206000D01*
Y231000D01*
X1697500Y142000D02*
Y179500D01*
X1684000Y193000D02*
X1697500Y179500D01*
X1683500Y128000D02*
X1697500Y142000D01*
X1615000Y128000D02*
X1683500D01*
X1657559Y50000D02*
Y55441D01*
X1655000Y58000D02*
X1657559Y55441D01*
X1647121Y39562D02*
X1657559Y50000D01*
X1637516Y63059D02*
X1642575Y58000D01*
X1655000D01*
X1614500Y127500D02*
X1615000Y128000D01*
X1632457Y58000D02*
X1637516Y63059D01*
X1582516D02*
X1587575Y58000D01*
X1632457D01*
X1410000Y357390D02*
X1650287D01*
X1416700Y83000D02*
X1424700Y75000D01*
X1581010Y63059D02*
X1582516D01*
X1447485Y39562D02*
X1647121D01*
X1424700Y62346D02*
Y75000D01*
Y62346D02*
X1447485Y39562D01*
X1297800Y126361D02*
X1318661Y105500D01*
X1277700Y285200D02*
X1300500Y308000D01*
X1277700Y177561D02*
Y285200D01*
Y177561D02*
X1297800Y157461D01*
X1610000Y188500D02*
X1614500Y193000D01*
X1580800Y351000D02*
X1583500D01*
X1579000Y349200D02*
X1580800Y351000D01*
X1610000Y169000D02*
Y188500D01*
X1583500Y205500D02*
Y343500D01*
Y205500D02*
X1596000Y193000D01*
X1614000Y165000D02*
X1684000D01*
X1652516Y52516D02*
Y53059D01*
X1604575Y46000D02*
X1646000D01*
X1652516Y52516D01*
X1610000Y169000D02*
X1614000Y165000D01*
X1597516Y53059D02*
X1604575Y46000D01*
X1448561Y42162D02*
X1586618D01*
X1597516Y53059D01*
X1427302Y349200D02*
X1579000D01*
X1423102Y345000D02*
X1427302Y349200D01*
X1386500Y345000D02*
X1423102D01*
X1427300Y63423D02*
Y76077D01*
X1417777Y85600D02*
X1427300Y76077D01*
Y63423D02*
X1448561Y42162D01*
X1319738Y108100D02*
X1364686D01*
X1300400Y127438D02*
X1319738Y108100D01*
X1280300Y277800D02*
X1300500Y298000D01*
X1280300Y178638D02*
Y277800D01*
Y178638D02*
X1300400Y158538D01*
X1545279Y225500D02*
X1553279Y217500D01*
X1469163Y225500D02*
X1545279D01*
X1553279Y217500D02*
X1560163D01*
X1469163Y178500D02*
Y217500D01*
Y178500D02*
X1475500D01*
X1560163Y160000D02*
Y217500D01*
X1547559Y84000D02*
X1552516Y79043D01*
X1469163Y160000D02*
Y178500D01*
X1502472Y84000D02*
X1547559D01*
X1497516Y79043D02*
X1502472Y84000D01*
X1492572Y74100D02*
X1497516Y79043D01*
X1403500Y189500D02*
X1414500Y178500D01*
X1421500D01*
X1428000D02*
X1457500D01*
X1447662Y74100D02*
X1492572D01*
X1423162Y98600D02*
X1447662Y74100D01*
X1313400Y132823D02*
Y163923D01*
Y132823D02*
X1325123Y121100D01*
X1293300Y235800D02*
X1300500Y243000D01*
X1293300Y184023D02*
Y235800D01*
X1515663Y159500D02*
Y217000D01*
X1510663Y222000D02*
X1515663Y217000D01*
X1464500Y222000D02*
X1510663D01*
X1429663D02*
X1457500D01*
X1523559Y103000D02*
X1537516Y89043D01*
X1496472Y103000D02*
X1523559D01*
X1482516Y89043D02*
X1496472Y103000D01*
X1475559Y96000D02*
X1482516Y89043D01*
X1429439Y96000D02*
X1475559D01*
X1424663Y217000D02*
X1429663Y222000D01*
X1424663Y198000D02*
Y217000D01*
X1386500Y198000D02*
X1424663D01*
Y159500D02*
Y198000D01*
X1424239Y101200D02*
X1429439Y96000D01*
X1316000Y133900D02*
X1326200Y123700D01*
X1377800D01*
X1295900Y228400D02*
X1300500Y233000D01*
X1295900Y185100D02*
Y228400D01*
Y185100D02*
X1316000Y165000D01*
X1290700Y182946D02*
Y243200D01*
X1288100Y181869D02*
Y250600D01*
X1282900Y179715D02*
Y270400D01*
X1285500Y180792D02*
Y263000D01*
X1515663Y274500D02*
Y332000D01*
X1510663Y337000D02*
X1515663Y332000D01*
X1429663Y337000D02*
X1510663D01*
X1424663Y332000D02*
X1429663Y337000D01*
X1633000Y104000D02*
X1647516Y89484D01*
X1607472Y104000D02*
X1633000D01*
X1592516Y89043D02*
X1607472Y104000D01*
X1647516Y89043D02*
Y89484D01*
X1591010Y89043D02*
X1592516D01*
X1582516Y80549D02*
X1591010Y89043D01*
X1576900Y71500D02*
X1582516Y77116D01*
Y80549D01*
X1446585Y71500D02*
X1576900D01*
X1424663Y274500D02*
Y332000D01*
X1397163Y247000D02*
X1424663Y274500D01*
X1386500Y247000D02*
X1397163D01*
X1422085Y96000D02*
X1446585Y71500D01*
X1310800Y131746D02*
X1324046Y118500D01*
X1290700Y243200D02*
X1300500Y253000D01*
X1560163Y275000D02*
Y332500D01*
X1552563Y340100D02*
X1560163Y332500D01*
X1469200Y340100D02*
X1552563D01*
X1469163Y275000D02*
Y332500D01*
X1657559Y84000D02*
X1662516Y79043D01*
X1607516D02*
X1612472Y84000D01*
X1657559D01*
X1602116Y77138D02*
Y79043D01*
X1607516D01*
X1593878Y68900D02*
X1602116Y77138D01*
X1467907Y68900D02*
X1593878D01*
X1457021Y58014D02*
X1467907Y68900D01*
X1428379Y340100D02*
X1469200D01*
X1421563Y333284D02*
X1428379Y340100D01*
X1407500Y270000D02*
X1421563Y284063D01*
Y333284D01*
X1402500Y270000D02*
X1407500D01*
X1398000Y265500D02*
X1402500Y270000D01*
X1448495Y61546D02*
Y65913D01*
X1421008Y93400D02*
X1448495Y65913D01*
X1452026Y58014D02*
X1457021D01*
X1448495Y61546D02*
X1452026Y58014D01*
X1308200Y130669D02*
X1322969Y115900D01*
X1288100Y250600D02*
X1300500Y263000D01*
X1680500Y297500D02*
X1684000Y294000D01*
X1680500Y297500D02*
Y323500D01*
X1657400Y346600D02*
X1680500Y323500D01*
X1697000Y242500D02*
Y281000D01*
X1684000Y294000D02*
X1697000Y281000D01*
X1428379Y346600D02*
X1657400D01*
X1408500Y326721D02*
X1428379Y346600D01*
X1408500Y303000D02*
Y326721D01*
X1683500Y229000D02*
X1697000Y242500D01*
X1615000Y229000D02*
X1683500D01*
X1614500Y228500D02*
X1615000Y229000D01*
X1429900Y64500D02*
Y77154D01*
X1472516Y63059D02*
X1477575Y58000D01*
X1418854Y88200D02*
X1429900Y77154D01*
Y64500D02*
X1438986Y55414D01*
X1477575Y58000D02*
X1522457D01*
X1465743Y63059D02*
X1472516D01*
X1522457Y58000D02*
X1527516Y63059D01*
X1438986Y55414D02*
X1458098D01*
X1465743Y63059D01*
X1303000Y128515D02*
X1320815Y110700D01*
X1366871D01*
X1282900Y270400D02*
X1300500Y288000D01*
X1609500Y289000D02*
X1614500Y294000D01*
X1482516Y294500D02*
X1510500D01*
X1415000Y296000D02*
X1418000Y293000D01*
X1609500Y270500D02*
Y289000D01*
X1614000Y266000D02*
X1684000D01*
X1609500Y270500D02*
X1614000Y266000D01*
X1440000Y64500D02*
Y70731D01*
X1419931Y90800D02*
X1440000Y70731D01*
X1386500Y296000D02*
X1415000D01*
X1305600Y129592D02*
X1321892Y113300D01*
X1285500Y263000D02*
X1300500Y278000D01*
X1282900Y179715D02*
X1303000Y159615D01*
X1285500Y180792D02*
X1305600Y160692D01*
X1288100Y181869D02*
X1308200Y161769D01*
X1290700Y182946D02*
X1310800Y162846D01*
X1494075Y46500D02*
X1535957D01*
X1542516Y53059D01*
X1487516D02*
X1494075Y46500D01*
D17*
X1314900Y405100D02*
X1317000Y403000D01*
X1307631Y405100D02*
X1314900D01*
X1302500Y399969D02*
X1307631Y405100D01*
X1287969Y399969D02*
X1302500D01*
X1270000Y382000D02*
X1287969Y399969D01*
X1305869Y398369D02*
X1310000Y402500D01*
X1288631Y398369D02*
X1305869D01*
X1485642Y400765D02*
Y425342D01*
X1636000Y400600D02*
Y403500D01*
X1485642Y400765D02*
X1485807Y400600D01*
X926311Y388154D02*
X929158Y391000D01*
X930311Y388154D02*
X931557Y389400D01*
X1270663Y380400D02*
X1288631Y398369D01*
X949100Y380400D02*
X1270663D01*
X949763Y382000D02*
X1270000D01*
X940100Y389400D02*
X949100Y380400D01*
X940763Y391000D02*
X949763Y382000D01*
X929158Y391000D02*
X940763D01*
X931557Y389400D02*
X940100D01*
X220000Y113986D02*
X223386Y110600D01*
X245423D01*
X245923Y111100D01*
X248077D01*
X249600Y109577D01*
Y104600D02*
Y109577D01*
X247000Y102000D02*
X249600Y104600D01*
X185000Y130500D02*
X185500Y130000D01*
Y119000D02*
Y130000D01*
X1275000Y103500D02*
X1278000D01*
X1251000D02*
X1275000D01*
X1199924Y100425D02*
X1203000Y103500D01*
X1160500Y100425D02*
X1199924D01*
X1194000Y117500D02*
X1208000Y103500D01*
X1186500Y117500D02*
X1194000D01*
X1216000Y100900D02*
X1243400D01*
X1205600D02*
X1216000D01*
X1216050Y66550D02*
Y100850D01*
X1210500Y61000D02*
X1216050Y66550D01*
X1210500Y54500D02*
Y61000D01*
Y54500D02*
X1216000Y49000D01*
Y32850D02*
Y49000D01*
X1248400Y106100D02*
X1251000Y103500D01*
X1210600Y106100D02*
X1248400D01*
X1208000Y103500D02*
X1210600Y106100D01*
X1243400Y100900D02*
X1246000Y103500D01*
X1203000D02*
X1205600Y100900D01*
X861400Y304100D02*
X862500Y303000D01*
X786423Y304100D02*
X861400D01*
X784900Y302577D02*
X786423Y304100D01*
X784900Y289600D02*
Y302577D01*
Y289600D02*
X788500Y286000D01*
D55*
X481500Y275500D02*
Y276000D01*
X553000Y347500D01*
Y477500D01*
X439500Y59000D02*
X442400Y61900D01*
Y109554D01*
X455600Y122754D01*
Y149900D01*
X441500Y164000D02*
X455600Y149900D01*
X252380Y18703D02*
X351500D01*
X238383Y32700D02*
X252380Y18703D01*
X92647D02*
X213487D01*
X227483Y32700D01*
X238383D01*
X351500Y18703D02*
Y35500D01*
X335500Y51500D02*
X351500Y35500D01*
X78650Y32700D02*
X92647Y18703D01*
X67750Y32700D02*
X78650D01*
X246183Y51500D02*
X335500D01*
X238383Y59300D02*
X246183Y51500D01*
X86450D02*
X219683D01*
X227483Y59300D01*
X238383D01*
X67750D02*
X78650D01*
X86450Y51500D01*
X546950Y32700D02*
X557850D01*
X512500Y51000D02*
X538650D01*
X486014D02*
X512500D01*
Y34000D02*
Y51000D01*
Y34000D02*
X521000Y25500D01*
X539750D01*
X546950Y32700D01*
Y59300D02*
X557850D01*
X538650Y51000D02*
X546950Y59300D01*
X483014Y48000D02*
X486014Y51000D01*
X433803Y23303D02*
X444500Y34000D01*
Y43900D01*
X447000Y46400D01*
Y51051D01*
Y104000D01*
X406365Y51051D02*
X447000D01*
X398117Y59300D02*
X406365Y51051D01*
X387217Y59300D02*
X398117D01*
X407514Y23303D02*
X433803D01*
X398117Y32700D02*
X407514Y23303D01*
X387217Y32700D02*
X398117D01*
X351500Y18703D02*
X435709D01*
X451600Y34595D01*
Y102095D01*
X469600Y120095D01*
Y173399D01*
X451500Y191499D02*
X469600Y173399D01*
X447000Y104000D02*
X465000Y122000D01*
Y150500D01*
X451500Y164000D02*
X465000Y150500D01*
D95*
X690831Y284789D02*
D03*
X762831Y459339D02*
D03*
Y284339D02*
D03*
X1645000Y420832D02*
D03*
X1651500Y421500D02*
D03*
X156500Y88900D02*
D03*
X311503Y93654D02*
D03*
X630969Y93500D02*
D03*
X752000Y95702D02*
D03*
X743500Y112000D02*
D03*
X768997Y111500D02*
D03*
X1160500Y91298D02*
D03*
X1312087Y66616D02*
D03*
X1367786Y105000D02*
D03*
X1396500D02*
D03*
X1384000Y54303D02*
D03*
X1349000Y78820D02*
D03*
X1330500Y81000D02*
D03*
X1341500Y91677D02*
D03*
X1326500Y85000D02*
D03*
X1316000Y87500D02*
D03*
X1325500Y101000D02*
D03*
X823500Y23500D02*
D03*
X783000Y24000D02*
D03*
X998500Y351000D02*
D03*
X959000D02*
D03*
X909500Y352000D02*
D03*
X883302Y351000D02*
D03*
X264500Y271346D02*
D03*
X394500Y272000D02*
D03*
X355500D02*
D03*
X350000D02*
D03*
X310000D02*
D03*
X304500Y272000D02*
D03*
X367900Y293000D02*
D03*
X291441D02*
D03*
X323400D02*
D03*
X381600Y265500D02*
D03*
X278000D02*
D03*
X336800D02*
D03*
X922000Y342500D02*
D03*
X883302Y377067D02*
D03*
X871500Y355847D02*
D03*
X896702Y360000D02*
D03*
X897002Y347000D02*
D03*
X971688Y360000D02*
D03*
Y350000D02*
D03*
X1676000Y473307D02*
D03*
X1524500D02*
D03*
X1635500Y468500D02*
D03*
X1636000Y424000D02*
D03*
X1481000Y468500D02*
D03*
X1485642Y425342D02*
D03*
X1668000Y417000D02*
D03*
X1616000D02*
D03*
X1516000D02*
D03*
X1464500D02*
D03*
X1676500Y403500D02*
D03*
X1636000D02*
D03*
X1611000Y410307D02*
D03*
X1317000Y403000D02*
D03*
X1289500Y134500D02*
D03*
X1247130Y258630D02*
D03*
X1247000Y249500D02*
D03*
X881000Y193000D02*
D03*
X1200500Y188700D02*
D03*
X875500Y187500D02*
D03*
X863000Y182500D02*
D03*
X541500Y488500D02*
D03*
X162605Y171000D02*
D03*
X355199Y167500D02*
D03*
X398500Y164600D02*
D03*
X764500Y116500D02*
D03*
X390500Y164600D02*
D03*
X238500Y166000D02*
D03*
X55000Y163500D02*
D03*
X272500Y156000D02*
D03*
X158500Y155500D02*
D03*
X44500Y156000D02*
D03*
X926311Y388154D02*
D03*
X1619500Y455000D02*
D03*
X1472500Y448000D02*
D03*
Y436000D02*
D03*
X1621847Y432927D02*
D03*
X1472500Y404859D02*
D03*
X1310000Y402500D02*
D03*
X1472500Y395000D02*
D03*
X1317000Y395500D02*
D03*
X787500Y301500D02*
D03*
X878000Y195091D02*
D03*
X875500Y183000D02*
D03*
X615000Y174000D02*
D03*
X574500Y160000D02*
D03*
X530000Y160587D02*
D03*
X1293500Y134500D02*
D03*
X1251000Y135000D02*
D03*
X1208000D02*
D03*
X1139000Y130500D02*
D03*
X794000Y126000D02*
D03*
X573500Y121500D02*
D03*
X794000Y107000D02*
D03*
X920000Y66500D02*
D03*
X500500Y173500D02*
D03*
X392048Y204479D02*
D03*
X438707Y156707D02*
D03*
X391500Y171000D02*
D03*
X391888Y156500D02*
D03*
X272500Y173000D02*
D03*
X44500Y173500D02*
D03*
X238500Y161500D02*
D03*
X193000D02*
D03*
X162605Y165000D02*
D03*
X121331Y161831D02*
D03*
X80000Y162000D02*
D03*
X519500Y121500D02*
D03*
X415000Y120500D02*
D03*
X357361Y123653D02*
D03*
X504000Y97500D02*
D03*
X340000Y97000D02*
D03*
X247000Y108500D02*
D03*
X94500Y123500D02*
D03*
X38500D02*
D03*
X197339Y108600D02*
D03*
X28000Y89500D02*
D03*
X189000Y85500D02*
D03*
X930311Y388154D02*
D03*
X918000Y372307D02*
D03*
X978388Y358653D02*
D03*
X890002D02*
D03*
X374600Y274565D02*
D03*
X330100Y274565D02*
D03*
X284741Y275000D02*
D03*
X752000Y86197D02*
D03*
X767500Y61500D02*
D03*
X768000Y80000D02*
D03*
X175000Y160980D02*
D03*
X185500Y161000D02*
D03*
X435500Y197000D02*
D03*
X384000D02*
D03*
X301500Y177000D02*
D03*
Y164000D02*
D03*
X364054Y123653D02*
D03*
X381783Y92500D02*
D03*
X457000Y90000D02*
D03*
X267457Y101667D02*
D03*
X267483Y108807D02*
D03*
X217615Y111600D02*
D03*
X185500Y119000D02*
D03*
X217615Y94500D02*
D03*
X1384800Y477500D02*
D03*
Y492500D02*
D03*
X1362738D02*
D03*
Y477500D02*
D03*
X1275000Y103500D02*
D03*
X1186500Y117500D02*
D03*
X1160500Y100425D02*
D03*
X1220163Y155000D02*
D03*
X1160000Y136500D02*
D03*
X1215500Y155000D02*
D03*
X1190266Y135525D02*
D03*
X450000Y144276D02*
D03*
X13979Y88500D02*
D03*
X901500Y4413D02*
D03*
X403500Y217000D02*
D03*
X485000Y185000D02*
D03*
X765500Y136500D02*
D03*
X865000Y179000D02*
D03*
X866500Y187500D02*
D03*
X788500Y286000D02*
D03*
X869500Y184000D02*
D03*
X906500Y49500D02*
D03*
X922500D02*
D03*
X914500D02*
D03*
X927500Y77500D02*
D03*
X913000Y78500D02*
D03*
X888000Y194000D02*
D03*
X1196000Y190000D02*
D03*
X876000Y191500D02*
D03*
X347500Y228000D02*
D03*
Y223500D02*
D03*
X894000Y444000D02*
D03*
X893311Y301500D02*
D03*
X706500Y364000D02*
D03*
X689000Y360815D02*
D03*
X862500Y343500D02*
D03*
Y303000D02*
D03*
X859000Y27014D02*
D03*
X1678500Y146500D02*
D03*
X1619500D02*
D03*
X1405000Y165500D02*
D03*
X1409500Y144500D02*
D03*
Y129000D02*
D03*
X1678500Y247500D02*
D03*
X1619500D02*
D03*
X1361000Y165500D02*
D03*
X1413500Y144500D02*
D03*
Y129000D02*
D03*
X1555163Y317000D02*
D03*
Y259500D02*
D03*
X1464163Y317000D02*
D03*
Y259500D02*
D03*
X1405000Y138500D02*
D03*
X1555163Y202000D02*
D03*
Y144500D02*
D03*
X1464163Y202000D02*
D03*
Y144500D02*
D03*
X1361000Y138500D02*
D03*
X1697000Y287000D02*
D03*
Y231000D02*
D03*
X1684000Y193000D02*
D03*
X1683500Y128000D02*
D03*
X1614500Y127500D02*
D03*
X1410000Y357390D02*
D03*
X1342500Y345000D02*
D03*
X1363000Y105000D02*
D03*
X1614500Y193000D02*
D03*
X1583500Y351000D02*
D03*
Y343500D02*
D03*
X1596000Y193000D02*
D03*
X1684000Y165000D02*
D03*
X1614000D02*
D03*
X1386500Y345000D02*
D03*
X1560163Y217500D02*
D03*
X1469163D02*
D03*
Y225500D02*
D03*
X1475500Y178500D02*
D03*
X1560163Y160000D02*
D03*
X1469163D02*
D03*
X1382500Y198000D02*
D03*
X1403500Y189500D02*
D03*
X1342500Y198000D02*
D03*
X1457500Y178500D02*
D03*
X1428000D02*
D03*
X1421500D02*
D03*
X1391714Y105000D02*
D03*
X1515663Y217000D02*
D03*
Y159500D02*
D03*
X1464500Y222000D02*
D03*
X1457500D02*
D03*
X1424663Y217000D02*
D03*
X1386500Y198000D02*
D03*
X1424663Y159500D02*
D03*
X1515663Y332000D02*
D03*
Y274500D02*
D03*
X1424663Y332000D02*
D03*
Y274500D02*
D03*
X1386500Y247000D02*
D03*
X1386928Y105000D02*
D03*
X1560163Y332500D02*
D03*
X1469200Y340100D02*
D03*
X1469163Y332500D02*
D03*
X1560163Y275000D02*
D03*
X1469163D02*
D03*
X1398000Y265500D02*
D03*
X1379500Y247000D02*
D03*
X1342500D02*
D03*
X1382143Y105000D02*
D03*
X1684000Y294000D02*
D03*
X1408500Y303000D02*
D03*
X1683500Y229000D02*
D03*
X1614500Y228500D02*
D03*
X1383500Y303000D02*
D03*
X1342500Y296000D02*
D03*
X1372571Y105000D02*
D03*
X1614500Y294000D02*
D03*
X1510500Y294500D02*
D03*
X1482516D02*
D03*
X1460500Y293000D02*
D03*
X1418000D02*
D03*
X1684000Y266000D02*
D03*
X1614000D02*
D03*
X1440000Y64500D02*
D03*
X1386500Y296000D02*
D03*
X1377357Y105000D02*
D03*
X1356000Y144500D02*
D03*
X1335000D02*
D03*
X1374600Y126894D02*
D03*
X1378500Y492500D02*
D03*
X1391000D02*
D03*
X1378500Y477500D02*
D03*
X1391000D02*
D03*
X1369000D02*
D03*
X1356500D02*
D03*
X1369000Y492500D02*
D03*
X1356500D02*
D03*
X1404500Y323500D02*
D03*
X1387500D02*
D03*
X1373500Y328300D02*
D03*
X1360500Y323500D02*
D03*
X1343500D02*
D03*
X1403000Y363500D02*
D03*
X1359000Y364000D02*
D03*
X1404500Y274500D02*
D03*
X1387500D02*
D03*
X1373500Y279300D02*
D03*
X1360500Y274500D02*
D03*
X1343500D02*
D03*
X1403000Y314500D02*
D03*
X1359000Y315000D02*
D03*
X1404500Y225500D02*
D03*
X1387500D02*
D03*
X1373500Y230300D02*
D03*
X1360500Y225500D02*
D03*
X1343500D02*
D03*
X1403000Y265500D02*
D03*
X1359000Y266000D02*
D03*
X1373500Y181300D02*
D03*
X920714Y96051D02*
D03*
X922000Y306000D02*
D03*
X785264Y283154D02*
D03*
X782000Y286500D02*
D03*
X923846Y268500D02*
D03*
X460000Y130024D02*
D03*
X176000Y123500D02*
D03*
X117571Y126500D02*
D03*
X72000Y130289D02*
D03*
X52500D02*
D03*
X518400Y482433D02*
D03*
X505400Y471000D02*
D03*
X1046591Y327591D02*
D03*
X1069591Y304591D02*
D03*
X1260000Y135000D02*
D03*
Y146500D02*
D03*
X764954Y330954D02*
D03*
X716409Y330591D02*
D03*
X951909Y311962D02*
D03*
X933500Y302900D02*
D03*
X1072137Y307137D02*
D03*
X1049137Y330137D02*
D03*
X767500Y333500D02*
D03*
X713863Y333137D02*
D03*
X949363Y314508D02*
D03*
X933500Y306500D02*
D03*
X690831Y357390D02*
D03*
X1238000Y146500D02*
D03*
Y135000D02*
D03*
X1215500Y146500D02*
D03*
Y135000D02*
D03*
X718954Y328046D02*
D03*
X721500Y325500D02*
D03*
X759863Y325863D02*
D03*
X762409Y328409D02*
D03*
X933500Y295700D02*
D03*
Y299300D02*
D03*
X954454Y309417D02*
D03*
X957000Y306871D02*
D03*
X1041500Y322500D02*
D03*
X1044046Y325046D02*
D03*
X1067046Y302046D02*
D03*
X1064500Y299500D02*
D03*
X948730Y428000D02*
D03*
X941530D02*
D03*
X945130D02*
D03*
X948730Y413000D02*
D03*
X941530D02*
D03*
X945130D02*
D03*
X867153Y443237D02*
D03*
X857930D02*
D03*
X854330D02*
D03*
X848481D02*
D03*
X844881D02*
D03*
X839032D02*
D03*
X811000D02*
D03*
X816535D02*
D03*
X820135D02*
D03*
X825983D02*
D03*
X829583D02*
D03*
X835432D02*
D03*
X914397Y301500D02*
D03*
Y268500D02*
D03*
X906000D02*
D03*
X894334Y240575D02*
D03*
X897000Y243000D02*
D03*
X881894Y240015D02*
D03*
X884500Y242500D02*
D03*
X872000Y242000D02*
D03*
X875000Y244500D02*
D03*
X862500D02*
D03*
X865500Y247500D02*
D03*
X850262Y244147D02*
D03*
X853000Y246500D02*
D03*
X840822Y246587D02*
D03*
X843500Y249000D02*
D03*
X831382Y249026D02*
D03*
X834000Y251500D02*
D03*
X821894Y251515D02*
D03*
X824500Y254000D02*
D03*
X812500D02*
D03*
X815000Y257000D02*
D03*
X803234Y257175D02*
D03*
X806000Y259500D02*
D03*
X793294Y259115D02*
D03*
X796000Y261500D02*
D03*
X907873Y301500D02*
D03*
X902024Y301275D02*
D03*
X898424D02*
D03*
X889426Y301500D02*
D03*
X885826D02*
D03*
X876377Y301275D02*
D03*
X879977D02*
D03*
X866928D02*
D03*
X870528D02*
D03*
X857930D02*
D03*
X854330D02*
D03*
X848481Y301500D02*
D03*
X844881D02*
D03*
X839032D02*
D03*
X835432D02*
D03*
X829583D02*
D03*
X825984D02*
D03*
X820135D02*
D03*
X816535D02*
D03*
X791563Y267000D02*
D03*
X810686Y301500D02*
D03*
X807086D02*
D03*
X797637D02*
D03*
X801237D02*
D03*
X791563D02*
D03*
X758000Y261500D02*
D03*
X761000Y264000D02*
D03*
X764000Y261500D02*
D03*
X767000Y264000D02*
D03*
X915500Y96051D02*
D03*
X778965Y284339D02*
D03*
X775365D02*
D03*
X771765D02*
D03*
X923000Y80500D02*
D03*
X900000Y103667D02*
D03*
X901500Y46020D02*
D03*
X803612Y474100D02*
D03*
X794163Y483500D02*
D03*
Y474100D02*
D03*
X807311Y443237D02*
D03*
X780091Y483091D02*
D03*
X777546Y480546D02*
D03*
X775000Y478000D02*
D03*
X801237Y443237D02*
D03*
X797637D02*
D03*
X792013Y443500D02*
D03*
X784813D02*
D03*
X788413D02*
D03*
X664500Y414309D02*
D03*
X675500Y404859D02*
D03*
X690831Y400500D02*
D03*
X670500Y404859D02*
D03*
X664500Y404859D02*
D03*
X670500Y414308D02*
D03*
Y423757D02*
D03*
X664500D02*
D03*
X670500Y433000D02*
D03*
X664500Y433206D02*
D03*
X670500Y442654D02*
D03*
X664500D02*
D03*
X693000Y411384D02*
D03*
Y407784D02*
D03*
Y420832D02*
D03*
Y417232D02*
D03*
Y430281D02*
D03*
Y426681D02*
D03*
Y439730D02*
D03*
Y436130D02*
D03*
X690831Y310371D02*
D03*
X690831Y348166D02*
D03*
X690831Y395411D02*
D03*
X693000Y449179D02*
D03*
Y445579D02*
D03*
X536665Y165000D02*
D03*
X422500Y160558D02*
D03*
X373500Y172500D02*
D03*
X106500Y159653D02*
D03*
X79323Y125500D02*
D03*
X60000Y159500D02*
D03*
X74500Y163500D02*
D03*
X773215Y456777D02*
D03*
X779000Y461500D02*
D03*
X774300Y436400D02*
D03*
X775500Y440000D02*
D03*
X778965Y457500D02*
D03*
X710536Y94036D02*
D03*
X710500Y98000D02*
D03*
X720500Y386900D02*
D03*
X717000Y389500D02*
D03*
X713000D02*
D03*
X784500Y141500D02*
D03*
X756000D02*
D03*
X784500Y137500D02*
D03*
Y70341D02*
D03*
X675500Y401000D02*
D03*
X772500Y35000D02*
D03*
X675500Y397321D02*
D03*
X775046Y37546D02*
D03*
X675500Y393500D02*
D03*
X778000Y40500D02*
D03*
X24132Y122341D02*
D03*
X556819Y105000D02*
D03*
X536665Y160558D02*
D03*
X517415Y145634D02*
D03*
X431000Y142667D02*
D03*
X404538Y108500D02*
D03*
X381500Y142000D02*
D03*
X344530Y108600D02*
D03*
X1266500Y122653D02*
D03*
X1274177D02*
D03*
X1221921D02*
D03*
X1229677D02*
D03*
X1011500Y42000D02*
D03*
X1001500D02*
D03*
X991500D02*
D03*
X1096500Y144500D02*
D03*
X1646500Y466051D02*
D03*
X1646000Y190000D02*
D03*
X1664000Y452543D02*
D03*
X1646000Y203000D02*
D03*
X1648453Y425000D02*
D03*
X1652000Y190000D02*
D03*
X1654358Y425000D02*
D03*
X1652000Y203000D02*
D03*
Y291000D02*
D03*
X1664000Y458500D02*
D03*
X1652000Y304000D02*
D03*
X1664000Y440732D02*
D03*
Y434827D02*
D03*
X1646000Y291000D02*
D03*
X1652390Y466051D02*
D03*
X1646000Y304000D02*
D03*
X1661300Y376500D02*
D03*
X1657700D02*
D03*
X1654100D02*
D03*
X1650500D02*
D03*
X1636100D02*
D03*
X1639700D02*
D03*
X1643300D02*
D03*
X1646900D02*
D03*
X1584500Y456217D02*
D03*
X1575653Y456193D02*
D03*
X1565500Y449500D02*
D03*
X1611500Y454904D02*
D03*
X1615154Y432927D02*
D03*
X1660000Y468000D02*
D03*
X1623000Y480000D02*
D03*
X1676000D02*
D03*
X1616000Y410307D02*
D03*
X1669000D02*
D03*
X1679847Y414308D02*
D03*
X1673153D02*
D03*
X1679847Y466000D02*
D03*
X1673153Y466051D02*
D03*
X1565525Y475500D02*
D03*
X1576000Y501500D02*
D03*
Y495154D02*
D03*
X1443663Y327500D02*
D03*
Y270000D02*
D03*
X1501390Y467000D02*
D03*
X1495500D02*
D03*
X1456500Y448654D02*
D03*
Y438654D02*
D03*
X1526847Y415500D02*
D03*
Y467433D02*
D03*
X1472516Y480000D02*
D03*
X1524500D02*
D03*
X1509000Y468500D02*
D03*
X1522000Y415500D02*
D03*
X1520154Y467433D02*
D03*
X1501390Y421500D02*
D03*
X1494000Y422500D02*
D03*
X1517000Y410307D02*
D03*
X1464500D02*
D03*
X1512643Y434827D02*
D03*
X1513000Y453500D02*
D03*
Y459500D02*
D03*
X1504000Y424500D02*
D03*
X1498500D02*
D03*
X1514000Y440732D02*
D03*
X1534663Y327500D02*
D03*
Y270000D02*
D03*
Y212500D02*
D03*
Y155000D02*
D03*
X1443663Y212500D02*
D03*
Y155000D02*
D03*
Y145500D02*
D03*
X1451163D02*
D03*
Y260500D02*
D03*
X1443663D02*
D03*
X1451163Y318000D02*
D03*
X1443663D02*
D03*
Y203000D02*
D03*
X1451163D02*
D03*
X1534663Y318000D02*
D03*
X1542163D02*
D03*
Y203000D02*
D03*
X1534663D02*
D03*
X1542163Y145500D02*
D03*
X1534663D02*
D03*
X1604500Y247500D02*
D03*
X1614500D02*
D03*
X1663500Y146500D02*
D03*
X1673500D02*
D03*
X1693500D02*
D03*
X1683500D02*
D03*
X1634500Y247500D02*
D03*
X1624500D02*
D03*
X1634500Y146500D02*
D03*
X1624500D02*
D03*
X1614500D02*
D03*
X1604500D02*
D03*
X1663500Y247500D02*
D03*
X1673500D02*
D03*
X1693500D02*
D03*
X1683500D02*
D03*
X1614000Y172000D02*
D03*
X1614500Y121000D02*
D03*
X1622500Y178000D02*
D03*
Y215000D02*
D03*
X1684000Y172000D02*
D03*
X1683500Y121000D02*
D03*
X1675500Y215000D02*
D03*
Y178000D02*
D03*
X1614500Y199500D02*
D03*
X1684000Y200000D02*
D03*
X1614500Y186000D02*
D03*
X1629500Y146551D02*
D03*
X1609500D02*
D03*
X1614500Y207000D02*
D03*
X1684000D02*
D03*
X1688500Y146551D02*
D03*
X1668500D02*
D03*
X1684000Y186500D02*
D03*
X1668500Y247551D02*
D03*
X1688500D02*
D03*
X1629500D02*
D03*
X1609500D02*
D03*
X1683500Y222000D02*
D03*
X1684000Y273000D02*
D03*
X1614000D02*
D03*
X1675500Y316000D02*
D03*
Y279000D02*
D03*
X1684000Y287500D02*
D03*
Y308000D02*
D03*
Y301000D02*
D03*
X1614500Y308000D02*
D03*
Y287000D02*
D03*
X1622500Y316000D02*
D03*
Y279000D02*
D03*
X1614500Y300500D02*
D03*
Y222000D02*
D03*
X690831Y319820D02*
D03*
X690831Y329269D02*
D03*
X690831Y370214D02*
D03*
X690831Y379663D02*
D03*
X690831Y404859D02*
D03*
X690831Y414308D02*
D03*
X690831Y423757D02*
D03*
X690831Y433206D02*
D03*
X690831Y442654D02*
D03*
X882902Y459339D02*
D03*
X873452Y459339D02*
D03*
X851406Y459339D02*
D03*
X841957Y459339D02*
D03*
X832508Y459339D02*
D03*
X823059Y459339D02*
D03*
X813610Y459500D02*
D03*
X804161Y459339D02*
D03*
X794713Y459339D02*
D03*
X904949Y459500D02*
D03*
X920697Y459338D02*
D03*
X926996Y459339D02*
D03*
X904949Y284500D02*
D03*
X882902D02*
D03*
X873453D02*
D03*
X851406Y284339D02*
D03*
X841957Y284339D02*
D03*
X832508Y284500D02*
D03*
X823059D02*
D03*
X813610D02*
D03*
X804161D02*
D03*
X794713D02*
D03*
X936811Y368653D02*
D03*
X938811Y372153D02*
D03*
X373500Y204000D02*
D03*
X561000Y153500D02*
D03*
X585100Y161400D02*
D03*
X576500Y129500D02*
D03*
X568000Y89000D02*
D03*
X436500Y123500D02*
D03*
X444500Y123900D02*
D03*
X306500Y89000D02*
D03*
X300000D02*
D03*
X235144Y113644D02*
D03*
X127500Y89000D02*
D03*
X121000D02*
D03*
X120000Y130500D02*
D03*
X128024Y161976D02*
D03*
X1139000Y114500D02*
D03*
Y124000D02*
D03*
Y107500D02*
D03*
X1186000Y122500D02*
D03*
X1203000Y103500D02*
D03*
X1246000D02*
D03*
X1287000Y119500D02*
D03*
X1244500D02*
D03*
X1251000Y103500D02*
D03*
X1208000D02*
D03*
X1161000Y115000D02*
D03*
Y122500D02*
D03*
X1182500Y114500D02*
D03*
X1201500Y119000D02*
D03*
X583000Y127500D02*
D03*
X573000Y89000D02*
D03*
X536100Y126737D02*
D03*
X532500Y128000D02*
D03*
X517000Y133000D02*
D03*
X521500Y89500D02*
D03*
X506500Y108000D02*
D03*
X421000Y125500D02*
D03*
X417500Y87000D02*
D03*
X404000Y89500D02*
D03*
X401500Y125500D02*
D03*
X386554Y141239D02*
D03*
X376261Y129100D02*
D03*
X353000Y104500D02*
D03*
X247000Y102000D02*
D03*
X242000Y127500D02*
D03*
X234500Y132000D02*
D03*
X244500Y161500D02*
D03*
X222000Y154500D02*
D03*
X197000Y105000D02*
D03*
X186500Y114000D02*
D03*
X197000Y161500D02*
D03*
X192000Y128000D02*
D03*
X186500Y132000D02*
D03*
X176500Y134000D02*
D03*
X128000Y127000D02*
D03*
X99000Y123500D02*
D03*
X104000Y91500D02*
D03*
X83000Y103500D02*
D03*
X72500Y116000D02*
D03*
X75269Y97602D02*
D03*
X84000Y162000D02*
D03*
X76000Y128000D02*
D03*
X61500Y134000D02*
D03*
X47500Y92000D02*
D03*
X35000Y104500D02*
D03*
X1379000Y165500D02*
D03*
Y149000D02*
D03*
X1405000D02*
D03*
X1335000Y165500D02*
D03*
Y149000D02*
D03*
X1361000D02*
D03*
X1335000Y138500D02*
D03*
X816500Y36500D02*
D03*
X817000Y67000D02*
D03*
X821000D02*
D03*
X820619Y36000D02*
D03*
X737500Y58000D02*
D03*
X725500D02*
D03*
X701500D02*
D03*
X689500D02*
D03*
X806746Y78663D02*
D03*
X808500Y82000D02*
D03*
X796500Y49000D02*
D03*
X803000Y104000D02*
D03*
X817000Y109000D02*
D03*
X833500Y104000D02*
D03*
X837000Y92500D02*
D03*
X834500Y95500D02*
D03*
X805000Y122500D02*
D03*
X845000Y67500D02*
D03*
Y83000D02*
D03*
X824000Y55000D02*
D03*
Y42000D02*
D03*
X829000Y91500D02*
D03*
X822000Y92000D02*
D03*
X790000Y83000D02*
D03*
X825000Y67000D02*
D03*
X836500Y33500D02*
D03*
X814500Y33000D02*
D03*
X752000Y91500D02*
D03*
X807500Y39500D02*
D03*
X763000D02*
D03*
X769500Y39000D02*
D03*
X796000Y35000D02*
D03*
X1455663Y343500D02*
D03*
X1418163Y332000D02*
D03*
X1475663Y332500D02*
D03*
X1451163Y323500D02*
D03*
X1475663Y309000D02*
D03*
X1418163D02*
D03*
X1449663Y328000D02*
D03*
X1430163Y317000D02*
D03*
X1454163Y332000D02*
D03*
X1546663Y343500D02*
D03*
X1509163Y332000D02*
D03*
X1566663Y332500D02*
D03*
X1542163Y323500D02*
D03*
X1566663Y309000D02*
D03*
X1509163D02*
D03*
X1540663Y328000D02*
D03*
X1521163Y317000D02*
D03*
X1545163Y332000D02*
D03*
X1455663Y286000D02*
D03*
X1418163Y274500D02*
D03*
X1475663Y275000D02*
D03*
X1451163Y266000D02*
D03*
X1475663Y251500D02*
D03*
X1418163D02*
D03*
X1449663Y270500D02*
D03*
X1430163Y259500D02*
D03*
X1454163Y274500D02*
D03*
X1546663Y286000D02*
D03*
X1509163Y274500D02*
D03*
X1566663Y275000D02*
D03*
X1534663Y260500D02*
D03*
X1542163D02*
D03*
Y266000D02*
D03*
X1566663Y251500D02*
D03*
X1509163D02*
D03*
X1540663Y270500D02*
D03*
X1521163Y259500D02*
D03*
X1545163Y274500D02*
D03*
X1455663Y228500D02*
D03*
X1418163Y217000D02*
D03*
X1475663Y217500D02*
D03*
X1451163Y208500D02*
D03*
X1475663Y194000D02*
D03*
X1418163D02*
D03*
X1449663Y213000D02*
D03*
X1430163Y202000D02*
D03*
X1454163Y217000D02*
D03*
X1546663Y228500D02*
D03*
X1509163Y217000D02*
D03*
X1566663Y217500D02*
D03*
X1542163Y208500D02*
D03*
X1566663Y194000D02*
D03*
X1509163D02*
D03*
X1540663Y213000D02*
D03*
X1521163Y202000D02*
D03*
X1545163Y217000D02*
D03*
X1546663Y171000D02*
D03*
X1509163Y159500D02*
D03*
X1566663Y160000D02*
D03*
X1542163Y151000D02*
D03*
X1566663Y136500D02*
D03*
X1509163D02*
D03*
X1540663Y155500D02*
D03*
X1521163Y144500D02*
D03*
X1545163Y159500D02*
D03*
X1455663Y171000D02*
D03*
X1418163Y159500D02*
D03*
X1475663Y160000D02*
D03*
X1451163Y151000D02*
D03*
X1475663Y136500D02*
D03*
X1418163D02*
D03*
X1449663Y155500D02*
D03*
X1430163Y144500D02*
D03*
X1454163Y159500D02*
D03*
X1379000Y138500D02*
D03*
X1405000Y122000D02*
D03*
X1403000Y216500D02*
D03*
X1359000Y217000D02*
D03*
X1343500Y176500D02*
D03*
X1360500D02*
D03*
X1387500D02*
D03*
X1404500D02*
D03*
X1682000Y111000D02*
D03*
X896500Y87500D02*
D03*
Y70500D02*
D03*
Y53500D02*
D03*
X879500Y77000D02*
D03*
X879000Y60000D02*
D03*
Y43000D02*
D03*
X972000Y52500D02*
D03*
X936500Y26000D02*
D03*
X931000D02*
D03*
X936500Y11500D02*
D03*
X931000D02*
D03*
X7000Y88500D02*
D03*
X72000D02*
D03*
X78500D02*
D03*
X186000Y89000D02*
D03*
X192500D02*
D03*
X235000D02*
D03*
X242000D02*
D03*
X349500D02*
D03*
X356500D02*
D03*
X414000D02*
D03*
X421000D02*
D03*
X463500D02*
D03*
X470000D02*
D03*
X528000D02*
D03*
X534500D02*
D03*
X578000D02*
D03*
X584500D02*
D03*
X642500D02*
D03*
X649000D02*
D03*
X37500Y173500D02*
D03*
X38000Y156000D02*
D03*
X152000Y155500D02*
D03*
X266000Y173000D02*
D03*
Y156000D02*
D03*
X296000Y164000D02*
D03*
X500500Y155500D02*
D03*
X494000Y173500D02*
D03*
Y155500D02*
D03*
X608500D02*
D03*
Y174000D02*
D03*
X615000Y155500D02*
D03*
X639000Y163500D02*
D03*
X26400Y126500D02*
D03*
X44500D02*
D03*
X90900D02*
D03*
X108500D02*
D03*
X140553D02*
D03*
X158500D02*
D03*
X223000D02*
D03*
X205053D02*
D03*
X254707D02*
D03*
X272500D02*
D03*
X319207D02*
D03*
X337000D02*
D03*
X368861D02*
D03*
X387000D02*
D03*
X451500D02*
D03*
X433361D02*
D03*
X483014D02*
D03*
X500500D02*
D03*
X565000D02*
D03*
X547514D02*
D03*
X679500D02*
D03*
X661668D02*
D03*
X614500D02*
D03*
X597168D02*
D03*
D97*
X921000Y184400D02*
D03*
X654000Y28311D02*
D03*
X23000Y497000D02*
D03*
X1429500D02*
D03*
X23000Y192500D02*
D03*
X593500Y446638D02*
D03*
Y286500D02*
D03*
X1169500Y221500D02*
D03*
D98*
X519700Y43900D02*
D03*
X530600D02*
D03*
X552400D02*
D03*
X541500D02*
D03*
X585100D02*
D03*
X596000D02*
D03*
X574200D02*
D03*
X563300D02*
D03*
X525150Y32700D02*
D03*
X536050D02*
D03*
X557850D02*
D03*
X546950D02*
D03*
X590550D02*
D03*
X579650D02*
D03*
X568750D02*
D03*
X546950Y59300D02*
D03*
X536050D02*
D03*
X525150D02*
D03*
X568750D02*
D03*
X557850D02*
D03*
X579650D02*
D03*
X590550D02*
D03*
X563300Y70500D02*
D03*
X574200D02*
D03*
X596000D02*
D03*
X585100D02*
D03*
X541500D02*
D03*
X552400D02*
D03*
X530600D02*
D03*
X519700D02*
D03*
X359967Y43900D02*
D03*
X370867D02*
D03*
X392667D02*
D03*
X381767D02*
D03*
X425367D02*
D03*
X436267D02*
D03*
X414467D02*
D03*
X403567D02*
D03*
X365417Y32700D02*
D03*
X376317D02*
D03*
X398117D02*
D03*
X387217D02*
D03*
X430817D02*
D03*
X419917D02*
D03*
X409017D02*
D03*
X387217Y59300D02*
D03*
X376317D02*
D03*
X365417D02*
D03*
X409017D02*
D03*
X398117D02*
D03*
X419917D02*
D03*
X430817D02*
D03*
X403567Y70500D02*
D03*
X414467D02*
D03*
X436267D02*
D03*
X425367D02*
D03*
X381767D02*
D03*
X392667D02*
D03*
X370867D02*
D03*
X359967D02*
D03*
X200233Y43900D02*
D03*
X211133D02*
D03*
X232933D02*
D03*
X222033D02*
D03*
X265633D02*
D03*
X276533D02*
D03*
X254733D02*
D03*
X243833D02*
D03*
X205683Y32700D02*
D03*
X216583D02*
D03*
X238383D02*
D03*
X227483D02*
D03*
X271083D02*
D03*
X260183D02*
D03*
X249283D02*
D03*
X227483Y59300D02*
D03*
X216583D02*
D03*
X205683D02*
D03*
X249283D02*
D03*
X238383D02*
D03*
X260183D02*
D03*
X271083D02*
D03*
X243833Y70500D02*
D03*
X254733D02*
D03*
X276533D02*
D03*
X265633D02*
D03*
X222033D02*
D03*
X232933D02*
D03*
X211133D02*
D03*
X200233D02*
D03*
X40500Y43900D02*
D03*
X51400D02*
D03*
X73200D02*
D03*
X62300D02*
D03*
X105900D02*
D03*
X116800D02*
D03*
X95000D02*
D03*
X84100D02*
D03*
X45950Y32700D02*
D03*
X56850D02*
D03*
X78650D02*
D03*
X67750D02*
D03*
X111350D02*
D03*
X100450D02*
D03*
X89550D02*
D03*
X67750Y59300D02*
D03*
X56850D02*
D03*
X45950D02*
D03*
X89550D02*
D03*
X78650D02*
D03*
X100450D02*
D03*
X111350D02*
D03*
X84100Y70500D02*
D03*
X95000D02*
D03*
X116800D02*
D03*
X105900D02*
D03*
X62300D02*
D03*
X73200D02*
D03*
X51400D02*
D03*
X40500D02*
D03*
X1188800Y44000D02*
D03*
X1199700D02*
D03*
X1221500D02*
D03*
X1210600D02*
D03*
X1254200D02*
D03*
X1265100D02*
D03*
X1243300D02*
D03*
X1232400D02*
D03*
X1194250Y32800D02*
D03*
X1205150D02*
D03*
X1226950D02*
D03*
X1216050D02*
D03*
X1259650D02*
D03*
X1248750D02*
D03*
X1237850D02*
D03*
X1216050Y59400D02*
D03*
X1205150D02*
D03*
X1194250D02*
D03*
X1237850D02*
D03*
X1226950D02*
D03*
X1248750D02*
D03*
X1259650D02*
D03*
X1232400Y70600D02*
D03*
X1243300D02*
D03*
X1265100D02*
D03*
X1254200D02*
D03*
X1210600D02*
D03*
X1221500D02*
D03*
X1199700D02*
D03*
X1188800D02*
D03*
D99*
X492250Y32700D02*
D03*
Y64200D02*
D03*
X623450D02*
D03*
Y32700D02*
D03*
X332517D02*
D03*
Y64200D02*
D03*
X463717D02*
D03*
Y32700D02*
D03*
X172783D02*
D03*
Y64200D02*
D03*
X303983D02*
D03*
Y32700D02*
D03*
X13050D02*
D03*
Y64200D02*
D03*
X144250D02*
D03*
Y32700D02*
D03*
X1161350Y32800D02*
D03*
Y64300D02*
D03*
X1292550D02*
D03*
Y32800D02*
D03*
D100*
X299760Y473842D02*
D03*
X330075D02*
D03*
X299760Y454157D02*
D03*
X330075D02*
D03*
X91760Y473842D02*
D03*
X122075D02*
D03*
X91760Y454157D02*
D03*
X122075D02*
D03*
X304500Y400999D02*
D03*
X324500D02*
D03*
X364500D02*
D03*
Y220999D02*
D03*
X384500D02*
D03*
X334500D02*
D03*
X314500D02*
D03*
X284500D02*
D03*
X254500D02*
D03*
X97571Y400999D02*
D03*
X117571D02*
D03*
X157571D02*
D03*
Y220999D02*
D03*
X177571D02*
D03*
X127571D02*
D03*
X107571D02*
D03*
X77571D02*
D03*
X47571D02*
D03*
X897433Y22303D02*
D03*
X869835D02*
D03*
X979441Y22563D02*
D03*
X951842D02*
D03*
D101*
X683900Y39303D02*
D03*
Y29303D02*
D03*
Y19303D02*
D03*
X743100Y29303D02*
D03*
Y19303D02*
D03*
X516000Y509000D02*
D03*
X535685D02*
D03*
X430158D02*
D03*
X449843D02*
D03*
X492842D02*
D03*
X473158D02*
D03*
D102*
X733500Y80303D02*
D03*
X725508D02*
D03*
X717508D02*
D03*
X693508D02*
D03*
X701508D02*
D03*
X709500D02*
D03*
X729500Y90303D02*
D03*
X721500D02*
D03*
X737500D02*
D03*
X705500D02*
D03*
X697500D02*
D03*
X689500D02*
D03*
X1042500Y56000D02*
D03*
X1143500Y17000D02*
D03*
X1042500Y36000D02*
D03*
Y16000D02*
D03*
X369000Y422000D02*
D03*
X331999Y504999D02*
D03*
X124000Y505000D02*
D03*
D103*
X748100Y54303D02*
D03*
X678900D02*
D03*
D104*
X1365547Y31909D02*
D03*
X1354642D02*
D03*
X1376453D02*
D03*
X1387358D02*
D03*
X1392811Y43091D02*
D03*
X1381905D02*
D03*
X1371000D02*
D03*
X1349189D02*
D03*
X1360095D02*
D03*
X1085000Y441000D02*
D03*
Y431000D02*
D03*
Y421000D02*
D03*
X1075000D02*
D03*
Y431000D02*
D03*
Y441000D02*
D03*
X461500Y191499D02*
D03*
X451500D02*
D03*
X441500D02*
D03*
X451500Y201499D02*
D03*
X1310500Y187500D02*
D03*
Y197500D02*
D03*
Y207500D02*
D03*
Y217500D02*
D03*
X1300500D02*
D03*
Y207500D02*
D03*
Y197500D02*
D03*
Y187500D02*
D03*
X1492516Y63059D02*
D03*
X1482516D02*
D03*
X1472516D02*
D03*
X1502516D02*
D03*
X1467516Y53059D02*
D03*
X1477516D02*
D03*
X1487516D02*
D03*
X1497516D02*
D03*
Y79043D02*
D03*
X1487516D02*
D03*
X1477516D02*
D03*
X1467516D02*
D03*
X1502516Y89043D02*
D03*
X1472516D02*
D03*
X1482516D02*
D03*
X1492516D02*
D03*
X1547516Y63059D02*
D03*
X1537516D02*
D03*
X1527516D02*
D03*
X1557516D02*
D03*
X1522516Y53059D02*
D03*
X1532516D02*
D03*
X1542516D02*
D03*
X1552516D02*
D03*
Y79043D02*
D03*
X1542516D02*
D03*
X1532516D02*
D03*
X1522516D02*
D03*
X1557516Y89043D02*
D03*
X1527516D02*
D03*
X1537516D02*
D03*
X1547516D02*
D03*
X1602516Y63059D02*
D03*
X1592516D02*
D03*
X1582516D02*
D03*
X1612516D02*
D03*
X1577516Y53059D02*
D03*
X1587516D02*
D03*
X1597516D02*
D03*
X1607516D02*
D03*
Y79043D02*
D03*
X1597516D02*
D03*
X1587516D02*
D03*
X1577516D02*
D03*
X1612516Y89043D02*
D03*
X1582516D02*
D03*
X1592516D02*
D03*
X1602516D02*
D03*
X1657516D02*
D03*
X1647516D02*
D03*
X1637516D02*
D03*
X1667516D02*
D03*
X1632516Y79043D02*
D03*
X1642516D02*
D03*
X1652516D02*
D03*
X1662516D02*
D03*
Y53059D02*
D03*
X1652516D02*
D03*
X1642516D02*
D03*
X1632516D02*
D03*
X1667516Y63059D02*
D03*
X1637516D02*
D03*
X1647516D02*
D03*
X1657516D02*
D03*
X567000Y172000D02*
D03*
X557000D02*
D03*
X547000D02*
D03*
X566983Y185000D02*
D03*
X556983D02*
D03*
X546983D02*
D03*
X1310500Y308000D02*
D03*
Y298000D02*
D03*
Y288000D02*
D03*
Y278000D02*
D03*
X1300500D02*
D03*
Y288000D02*
D03*
Y298000D02*
D03*
Y308000D02*
D03*
X1310500Y263000D02*
D03*
Y253000D02*
D03*
Y243000D02*
D03*
Y233000D02*
D03*
X1300500D02*
D03*
Y243000D02*
D03*
Y253000D02*
D03*
Y263000D02*
D03*
X485000Y404000D02*
D03*
Y394000D02*
D03*
Y384000D02*
D03*
X475000D02*
D03*
Y394000D02*
D03*
Y404000D02*
D03*
X326000Y196599D02*
D03*
X316000D02*
D03*
X177571Y198000D02*
D03*
X167571D02*
D03*
X95571D02*
D03*
X105571D02*
D03*
X211000Y474000D02*
D03*
Y464000D02*
D03*
Y454000D02*
D03*
X451500Y174000D02*
D03*
X441500Y164000D02*
D03*
X451500D02*
D03*
X461500D02*
D03*
X793000Y64000D02*
D03*
Y54000D02*
D03*
Y44000D02*
D03*
X767000Y46000D02*
D03*
X757000D02*
D03*
X1131500Y130289D02*
D03*
Y140289D02*
D03*
X1092500Y120000D02*
D03*
X1102500D02*
D03*
X1082500D02*
D03*
X1072500D02*
D03*
X1112500D02*
D03*
X1122500D02*
D03*
X1062500D02*
D03*
Y110000D02*
D03*
X1072500D02*
D03*
X1082500D02*
D03*
X1092500D02*
D03*
X1102500D02*
D03*
X1112500D02*
D03*
X1122500D02*
D03*
X1210000Y171500D02*
D03*
X1200000D02*
D03*
X1190000D02*
D03*
X1238500Y158500D02*
D03*
X1248500D02*
D03*
X1258500D02*
D03*
X1210000D02*
D03*
X1200000D02*
D03*
X1190000D02*
D03*
X1238500Y171500D02*
D03*
X1248500D02*
D03*
X1258500D02*
D03*
X1417500Y58000D02*
D03*
Y68000D02*
D03*
X892492Y12500D02*
D03*
X874776D02*
D03*
X974500Y12760D02*
D03*
X956783D02*
D03*
X481500Y275500D02*
D03*
X985388Y394894D02*
D03*
Y409394D02*
D03*
X978388Y402153D02*
D03*
X971388Y409394D02*
D03*
Y394394D02*
D03*
X897002Y394894D02*
D03*
Y409394D02*
D03*
X890002Y402153D02*
D03*
X883002Y409394D02*
D03*
Y394394D02*
D03*
X381600Y325305D02*
D03*
X374600Y318065D02*
D03*
X381600Y310805D02*
D03*
X367600Y310305D02*
D03*
Y325305D02*
D03*
X337100Y325305D02*
D03*
Y310805D02*
D03*
X330100Y318065D02*
D03*
X323100Y325305D02*
D03*
Y310305D02*
D03*
X326000Y212500D02*
D03*
X291741Y311240D02*
D03*
Y325740D02*
D03*
X284741Y318500D02*
D03*
X277741Y325740D02*
D03*
Y310740D02*
D03*
X553000Y477500D02*
D03*
X439500Y59000D02*
D03*
X483014Y48000D02*
D03*
X444500Y43900D02*
D03*
X105571Y208429D02*
D03*
X177571Y208500D02*
D03*
X241500Y263535D02*
D03*
X272823Y433204D02*
D03*
X123500Y198000D02*
D03*
X43500D02*
D03*
D105*
X1321807Y37500D02*
D03*
X1420193D02*
D03*
D106*
X690831Y458789D02*
D03*
X936831Y459339D02*
D03*
Y284339D02*
D03*
D107*
X1034831Y469289D02*
D03*
X664831Y274289D02*
D03*
Y469289D02*
D03*
X1034831Y274289D02*
D03*
D108*
X991500Y21000D02*
D03*
X1001500D02*
D03*
X991500Y6000D02*
D03*
X1001500D02*
D03*
X1011500D02*
D03*
Y21000D02*
D03*
D109*
X1683500Y10067D02*
D03*
Y73059D02*
D03*
X1680409Y51051D02*
D03*
X1622516Y96051D02*
D03*
X1567516D02*
D03*
X1512516D02*
D03*
X1454524Y64043D02*
D03*
X1451433Y89043D02*
D03*
Y10067D02*
D03*
D110*
X1408500Y403000D02*
D03*
Y395500D02*
D03*
D111*
X1639250Y454904D02*
D03*
Y436404D02*
D03*
X1651750D02*
D03*
Y454904D02*
D03*
X1645500D02*
D03*
Y450279D02*
D03*
Y445653D02*
D03*
Y441028D02*
D03*
Y436404D02*
D03*
X1639250Y450279D02*
D03*
Y445653D02*
D03*
Y441028D02*
D03*
X1651750D02*
D03*
Y445653D02*
D03*
Y450279D02*
D03*
X1500750D02*
D03*
Y445653D02*
D03*
Y441028D02*
D03*
X1488250D02*
D03*
Y445653D02*
D03*
Y450279D02*
D03*
X1494500Y436404D02*
D03*
Y441028D02*
D03*
Y445653D02*
D03*
Y450279D02*
D03*
Y454904D02*
D03*
X1500750D02*
D03*
Y436404D02*
D03*
X1488250D02*
D03*
Y454904D02*
D03*
D112*
X819638Y82362D02*
D03*
Y77638D02*
D03*
X824362Y82362D02*
D03*
Y77638D02*
D03*
M02*
