M48
;Layer_Color=9474304
;FILE_FORMAT=2:5
INCH,TZ
;TYPE=PLATED
T1F00S00C0.01000
T2F00S00C0.01299
T3F00S00C0.01500
T4F00S00C0.02000
T5F00S00C0.02362
T6F00S00C0.02800
T7F00S00C0.03000
T8F00S00C0.03504
T9F00S00C0.03902
T10F00S00C0.03937
T11F00S00C0.04000
T12F00S00C0.04016
T13F00S00C0.04700
T14F00S00C0.05000
T15F00S00C0.05098
T16F00S00C0.05118
T17F00S00C0.05512
T18F00S00C0.06181
T19F00S00C0.06200
T20F00S00C0.12000
T21F00S00C0.12008
T22F00S00C0.12500
;TYPE=NON_PLATED
T23F00S00C0.03201
T24F00S00C0.04799
%
T01
X1500750Y436404
Y441028
Y445653
Y450279
Y454904
X1494500
Y450279
Y445653
Y441028
Y436404
X1488250
Y441028
Y445653
Y450279
Y454904
X1639250
Y450279
Y445653
Y441028
Y436404
X1645500
Y441028
Y445653
Y450279
Y454904
X1651750
Y450279
Y445653
Y441028
Y436404
T02
X819638Y77638
Y82362
X824362
Y77638
T03
X7000Y88500
X13979
X28000Y89500
X47500Y92000
X35000Y104500
X38500Y123500
X44500Y126500
X52500Y130289
X61500Y134000
X72000Y130289
X76000Y128000
X79323Y125500
X90900Y126500
X94500Y123500
X99000
X108500Y126500
X117571
X120000Y130500
X128000Y127000
X140553Y126500
X152000Y155500
X127500Y89000
X121000
X104000Y91500
X78500Y88500
X72000
X75269Y97602
X83000Y103500
X72500Y116000
X24132Y122341
X26400Y126500
X38000Y156000
X44500
X158500Y155500
Y126500
X176000Y123500
X176500Y134000
X186500Y132000
X192000Y128000
X205053Y126500
X223000
X234500Y132000
X242000Y127500
X254707Y126500
X272500
X267483Y108807
X267457Y101667
X247000Y102000
Y108500
X235144Y113644
X217615Y111600
Y94500
X235000Y89000
X242000
X192500
X186000
X189000Y85500
X197000Y105000
X197339Y108600
X186500Y114000
X185500Y119000
X156500Y88900
X222000Y154500
X266000Y156000
X272500
X300000Y89000
X306500
X311503Y93654
X340000Y97000
X344530Y108600
X353000Y104500
X349500Y89000
X356500
X381783Y92500
X404000Y89500
X414000Y89000
X417500Y87000
X421000Y89000
X404538Y108500
X401500Y125500
X387000Y126500
X376261Y129100
X368861Y126500
X364054Y123653
X357361
X337000Y126500
X319207
X381500Y142000
X386554Y141239
X431000Y142667
X433361Y126500
X436500Y123500
X444500Y123900
X451500Y126500
X460000Y130024
X450000Y144276
X421000Y125500
X415000Y120500
X457000Y90000
X463500Y89000
X470000
X504000Y97500
X506500Y108000
X500500Y126500
X483014
X494000Y155500
X500500
X517415Y145634
X517000Y133000
X519500Y121500
X532500Y128000
X536100Y126737
X547514Y126500
X565000
X573500Y121500
X576500Y129500
X583000Y127500
X597168Y126500
X614500
X615000Y155500
X608500
X561000Y153500
X556819Y105000
X568000Y89000
X573000
X578000
X584500
X534500
X528000
X521500Y89500
X630969Y93500
X642500Y89000
X649000
X661668Y126500
X679500
X710500Y98000
X710536Y94036
X752000Y95702
Y91500
Y86197
X768000Y80000
X767500Y61500
X769500Y39000
X772500Y35000
X775046Y37546
X778000Y40500
X763000Y39500
X737500Y58000
X725500
X701500
X689500
X743500Y112000
X764500Y116500
X768997Y111500
X765500Y136500
X756000Y141500
X784500
Y137500
X794000Y126000
X805000Y122500
X803000Y104000
X794000Y107000
X817000Y109000
X833500Y104000
X834500Y95500
X837000Y92500
X829000Y91500
X822000Y92000
X808500Y82000
X806746Y78663
X790000Y83000
X784500Y70341
X796500Y49000
X796000Y35000
X807500Y39500
X816500Y36500
X820619Y36000
X814500Y33000
X823500Y23500
X824000Y42000
Y55000
X825000Y67000
X821000
X817000
X845000Y67500
Y83000
X879500Y77000
X879000Y60000
Y43000
X901500Y46020
X906500Y49500
X914500
X922500
X920000Y66500
X923000Y80500
X927500Y77500
X913000Y78500
X915500Y96051
X920714
X900000Y103667
X896500Y87500
Y70500
Y53500
X901500Y4413
X931000Y11500
X936500
Y26000
X931000
X859000Y27014
X836500Y33500
X783000Y24000
X972000Y52500
X991500Y42000
X1001500
X1011500
X1096500Y144500
X1139000Y130500
Y124000
Y114500
Y107500
X1160500Y100425
Y91298
X1161000Y115000
Y122500
X1160000Y136500
X1190266Y135525
X1186000Y122500
X1186500Y117500
X1182500Y114500
X1201500Y119000
X1203000Y103500
X1208000
Y135000
X1215500
Y146500
Y155000
X1220163
X1238000Y146500
Y135000
X1229677Y122653
X1221921
X1244500Y119500
X1246000Y103500
X1251000
X1275000
X1274177Y122653
X1266500
X1260000Y135000
X1251000
X1260000Y146500
X1289500Y134500
X1293500
X1287000Y119500
X1325500Y101000
X1326500Y85000
X1330500Y81000
X1349000Y78820
X1341500Y91677
X1316000Y87500
X1312087Y66616
X1384000Y54303
X1382143Y105000
X1386928
X1391714
X1396500
X1377357
X1372571
X1367786
X1363000
X1374600Y126894
X1379000Y138500
Y149000
X1361000
X1356000Y144500
X1361000Y138500
X1335000
Y144500
Y149000
X1405000
Y138500
Y122000
X1409500Y129000
X1413500
X1418163Y136500
X1413500Y144500
X1409500
X1430163
X1443663Y145500
X1451163
Y151000
X1449663Y155500
X1443663Y155000
X1464163Y144500
X1475663Y136500
X1509163
X1521163Y144500
X1534663Y145500
X1542163
Y151000
X1540663Y155500
X1534663Y155000
X1555163Y144500
X1440000Y64500
X1566663Y136500
X1604500Y146500
X1609500Y146551
X1614500Y146500
X1619500
X1624500
X1629500Y146551
X1634500Y146500
X1663500
X1668500Y146551
X1673500Y146500
X1678500
X1683500
X1688500Y146551
X1693500Y146500
X1683500Y128000
Y121000
X1682000Y111000
X1614500Y121000
Y127500
X1614000Y165000
Y172000
X1622500Y178000
X1614500Y186000
Y193000
Y199500
Y207000
Y222000
Y228500
Y247500
X1619500
X1624500
X1629500Y247551
X1634500Y247500
X1609500Y247551
X1604500Y247500
X1614000Y266000
Y273000
X1614500Y287000
Y294000
Y300500
Y308000
X1646000Y304000
X1652000
Y291000
X1646000
X1622500Y279000
X1675500
X1684000Y273000
Y266000
X1683500Y247500
X1678500
X1673500
X1668500Y247551
X1663500Y247500
X1688500Y247551
X1693500Y247500
X1697000Y231000
X1683500Y229000
Y222000
X1675500Y215000
X1684000Y207000
Y200000
Y193000
Y186500
Y172000
Y165000
X1675500Y178000
X1652000Y190000
X1646000
Y203000
X1652000
X1622500Y215000
X1596000Y193000
X1566663Y194000
Y217500
Y251500
Y275000
Y309000
X1684000Y308000
Y301000
Y294000
Y287500
X1697000Y287000
X1566663Y160000
X1560163
X1545163Y159500
X1546663Y171000
X1542163Y203000
Y208500
X1540663Y213000
X1534663Y212500
Y203000
X1521163Y202000
X1509163Y194000
Y217000
X1515663
X1545163
X1546663Y228500
X1560163Y217500
X1555163Y202000
Y259500
X1542163Y260500
Y266000
X1540663Y270500
X1534663Y270000
Y260500
X1521163Y259500
X1509163Y251500
Y274500
X1515663
X1510500Y294500
X1509163Y309000
X1475663
X1482516Y294500
X1460500Y293000
X1455663Y286000
X1454163Y274500
X1449663Y270500
X1451163Y266000
Y260500
X1443663
Y270000
X1424663Y274500
X1418163
X1418000Y293000
X1418163Y309000
X1408500Y303000
X1418163Y251500
X1430163Y259500
X1464163
X1475663Y251500
Y275000
X1469163
Y225500
Y217500
X1475663
X1464500Y222000
X1457500
X1455663Y228500
X1454163Y217000
X1449663Y213000
X1451163Y208500
Y203000
X1443663
Y212500
X1424663Y217000
X1418163
Y194000
X1421500Y178500
X1428000
X1424663Y159500
X1418163
X1454163
X1455663Y171000
X1457500Y178500
X1475500
X1475663Y194000
X1464163Y202000
X1430163
X1469163Y160000
X1475663
X1509163Y159500
X1515663
X1545163Y274500
X1546663Y286000
X1560163Y275000
X1404500Y274500
X1403000Y265500
X1398000
X1387500Y274500
X1373500Y279300
X1360500Y274500
X1359000Y266000
X1343500Y274500
X1342500Y296000
X1386500
X1383500Y303000
X1386500Y247000
X1379500
X1373500Y230300
X1360500Y225500
X1359000Y217000
X1343500Y225500
X1342500Y247000
Y198000
X1343500Y176500
X1360500
X1361000Y165500
X1379000
X1387500Y176500
X1404500
X1405000Y165500
X1403500Y189500
X1386500Y198000
X1382500
X1373500Y181300
X1335000Y165500
X1387500Y225500
X1404500
X1403000Y216500
X1247000Y249500
X1247130Y258630
X1200500Y188700
X1196000Y190000
X1069591Y304591
X1072137Y307137
X1067046Y302046
X1064500Y299500
X957000Y306871
X954454Y309417
X951909Y311962
X933500Y306500
Y302900
Y299300
Y295700
X922000Y306000
X914397Y301500
X907873
X902024Y301275
X898424
X893311Y301500
X889426
X885826
X879977Y301275
X876377
X870528
X866928
X862500Y303000
X857930Y301275
X854330
X848481Y301500
X844881
X839032
X835432
X829583
X825984
X820135
X816535
X810686
X807086
X801237
X797637
X791563
X787500
X788500Y286000
X785264Y283154
X782000Y286500
X794713Y284500
X804161
X813610
X823059
X832508
X841957Y284339
X851406Y284339
X873453Y284500
X882902
X904949
X906000Y268500
X914397
X923846
X897000Y243000
X894334Y240575
X884500Y242500
X881894Y240015
X875000Y244500
X872000Y242000
X862500Y244500
X865500Y247500
X853000Y246500
X850262Y244147
X843500Y249000
X840822Y246587
X834000Y251500
X831382Y249026
X824500Y254000
X821894Y251515
X812500Y254000
X815000Y257000
X806000Y259500
X803234Y257175
X796000Y261500
X793294Y259115
X791563Y267000
X866500Y187500
X869500Y184000
X875500Y183000
Y187500
X876000Y191500
X878000Y195091
X881000Y193000
X888000Y194000
X863000Y182500
X865000Y179000
X767000Y264000
X764000Y261500
X761000Y264000
X758000Y261500
X771765Y284339
X775365
X778965
X690831Y310371
X639000Y163500
X615000Y174000
X608500
X585100Y161400
X574500Y160000
X536665Y160558
Y165000
X530000Y160587
X500500Y173500
X494000
X485000Y185000
X435500Y197000
X438707Y156707
X422500Y160558
X398500Y164600
X390500
X391500Y171000
X391888Y156500
X373500Y172500
X355199Y167500
X373500Y204000
X384000Y197000
X392048Y204479
X403500Y217000
X347500Y223500
Y228000
X350000Y272000
X355500
X374600Y274565
X381600Y265500
X394500Y272000
X367900Y293000
X323400
X330100Y274565
X336800Y265500
X310000Y272000
X304500Y272000
X284741Y275000
X278000Y265500
X264500Y271346
X291441Y293000
X301500Y177000
Y164000
X296000
X272500Y173000
X266000
X244500Y161500
X238500
Y166000
X197000Y161500
X193000
X185500Y161000
X175000Y160980
X162605Y165000
Y171000
X128024Y161976
X121331Y161831
X106500Y159653
X84000Y162000
X80000
X74500Y163500
X60000Y159500
X55000Y163500
X44500Y173500
X37500
X690831Y319820
X690831Y329269
X690831Y348166
X690831Y357390
X689000Y360815
X690831Y370214
X690831Y379663
X690831Y395411
X690831Y400500
X690831Y404859
X693000Y407784
Y411384
X690831Y414308
X693000Y417232
Y420832
X690831Y423757
X693000Y426681
Y430281
X690831Y433206
X693000Y436130
Y439730
X690831Y442654
X693000Y445579
Y449179
X670500Y442654
X664500
Y433206
X670500Y433000
Y423757
X664500
Y414309
X670500Y414308
Y404859
X675500
Y401000
Y397321
Y393500
X664500Y404859
X713000Y389500
X717000
X720500Y386900
X706500Y364000
X713863Y333137
X716409Y330591
X718954Y328046
X721500Y325500
X759863Y325863
X762409Y328409
X764954Y330954
X767500Y333500
X774300Y436400
X775500Y440000
X773215Y456777
X778965Y457500
X779000Y461500
X794713Y459339
X804161Y459339
X813610Y459500
X823059Y459339
X832508Y459339
X841957Y459339
X851406Y459339
X854330Y443237
X857930
X867153
X848481
X844881
X839032
X835432
X829583
X825983
X820135
X816535
X811000
X807311
X801237
X797637
X792013Y443500
X788413
X784813
X873452Y459339
X882902Y459339
X904949Y459500
X920697Y459338
X926996Y459339
X894000Y444000
X883302Y377067
X890002Y358653
X896702Y360000
X897002Y347000
X909500Y352000
X922000Y342500
X918000Y372307
X936811Y368653
X930311Y388154
X926311
X883302Y351000
X871500Y355847
X862500Y343500
X959000Y351000
X971688Y350000
Y360000
X978388Y358653
X998500Y351000
X1046591Y327591
X1049137Y330137
X1044046Y325046
X1041500Y322500
X949363Y314508
X938811Y372153
X941530Y413000
X945130
X948730
Y428000
X945130
X941530
X1310000Y402500
X1317000Y403000
Y395500
X1359000Y364000
X1342500Y345000
X1343500Y323500
X1360500
X1359000Y315000
X1373500Y328300
X1387500Y323500
X1404500
X1403000Y314500
X1386500Y345000
X1403000Y363500
X1410000Y357390
X1418163Y332000
X1424663
X1430163Y317000
X1443663Y318000
X1451163
Y323500
X1449663Y328000
X1443663Y327500
X1454163Y332000
X1455663Y343500
X1469200Y340100
X1469163Y332500
X1475663
X1464163Y317000
X1521163
X1534663Y318000
X1542163
Y323500
X1540663Y328000
X1534663Y327500
X1545163Y332000
X1546663Y343500
X1560163Y332500
X1555163Y317000
X1515663Y332000
X1509163
X1517000Y410307
X1516000Y417000
X1522000Y415500
X1526847
X1501390Y421500
X1504000Y424500
X1498500
X1494000Y422500
X1485642Y425342
X1472500Y436000
Y448000
X1456500Y448654
Y438654
X1464500Y417000
Y410307
X1472500Y404859
Y395000
X1512643Y434827
X1514000Y440732
X1513000Y453500
Y459500
X1509000Y468500
X1501390Y467000
X1495500
X1481000Y468500
X1520154Y467433
X1526847
X1565500Y449500
X1575653Y456193
X1584500Y456217
X1611500Y454904
X1619500Y455000
X1621847Y432927
X1615154
X1616000Y417000
Y410307
X1611000
X1636000Y403500
Y424000
X1645000Y420832
X1651500Y421500
X1654358Y425000
X1648453
X1664000Y434827
Y440732
Y452543
Y458500
X1660000Y468000
X1652390Y466051
X1646500
X1635500Y468500
X1673153Y466051
X1679847Y466000
Y414308
X1673153
X1668000Y417000
X1669000Y410307
X1676500Y403500
X1661300Y376500
X1657700
X1654100
X1650500
X1646900
X1643300
X1639700
X1636100
X1622500Y316000
X1675500
X1583500Y343500
Y351000
X1566663Y332500
X1565525Y475500
X1576000Y495154
Y501500
X1623000Y480000
X1676000
Y473307
X1524500
Y480000
X1472516
X1391000Y477500
X1384800
X1378500
X1369000
X1362738
X1356500
Y492500
X1362738
X1369000
X1378500
X1384800
X1391000
X803612Y474100
X794163
Y483500
X780091Y483091
X777546Y480546
X775000Y478000
X541500Y488500
X518400Y482433
X505400Y471000
T04
X1408500Y395500
Y403000
T05
X991500Y6000
X1001500
X1011500
Y21000
X1001500
X991500
T06
X1042500Y16000
Y36000
Y56000
X1143500Y17000
X369000Y422000
X331999Y504999
X124000Y505000
T07
X444500Y43900
X483014Y48000
X481500Y275500
X381600Y310805
X367600Y310305
X337100Y310805
X323100Y310305
X291741Y311240
X277741Y310740
X284741Y318500
X291741Y325740
X277741
X323100Y325305
X337100
X330100Y318065
X374600Y318065
X381600Y325305
X367600
X883002Y394394
X897002Y394894
X890002Y402153
X897002Y409394
X883002
X971388
X985388
X978388Y402153
X985388Y394894
X971388Y394394
X553000Y477500
T08
X693508Y80303
X701508
X709500
X717508
X725508
X733500
X729500Y90303
X721500
X737500
X705500
X697500
X689500
X1472516Y89043
X1482516
X1492516
X1502516
X1497516Y79043
X1487516
X1477516
X1467516
X1472516Y63059
X1482516
X1492516
X1502516
X1497516Y53059
X1487516
X1477516
X1467516
X1522516
X1532516
X1542516
X1552516
X1547516Y63059
X1537516
X1527516
X1532516Y79043
X1542516
X1552516
X1557516Y89043
X1547516
X1537516
X1527516
X1522516Y79043
X1557516Y63059
X1582516
X1592516
X1602516
X1612516
X1607516Y53059
X1597516
X1587516
X1577516
Y79043
X1587516
X1597516
X1607516
X1612516Y89043
X1602516
X1592516
X1582516
X1637516
X1647516
X1657516
X1667516
X1662516Y79043
X1652516
X1642516
X1632516
X1637516Y63059
X1647516
X1657516
X1667516
X1662516Y53059
X1652516
X1642516
X1632516
T09
X874776Y12500
X892492
X956783Y12760
X974500
T10
X1354642Y31909
X1365547
X1376453
X1387358
X1381905Y43091
X1371000
X1360095
X1349189
X1392811
T11
X439500Y59000
X326000Y212500
X241500Y263535
X177571Y208500
X123500Y198000
X105571Y208429
X43500Y198000
X272823Y433204
T12
X757000Y46000
X767000
X793000Y44000
Y54000
Y64000
X1062500Y110000
Y120000
X1072500
X1082500
X1092500
Y110000
X1082500
X1072500
X1102500
Y120000
X1112500
X1122500
Y110000
X1112500
X1131500Y130289
Y140289
X1417500Y68000
Y58000
X1310500Y187500
Y197500
Y207500
Y217500
X1300500
Y207500
Y197500
Y187500
Y233000
X1310500
Y243000
Y253000
Y263000
X1300500
Y253000
Y243000
Y278000
X1310500
Y288000
Y298000
Y308000
X1300500
Y298000
Y288000
X1258500Y171500
Y158500
X1248500
X1238500
Y171500
X1248500
X1210000
X1200000
X1190000
Y158500
X1200000
X1210000
X567000Y172000
X557000
X547000
X546983Y185000
X556983
X566983
X461500Y191499
X451500
X441500
X451500Y201499
Y174000
Y164000
X441500
X461500
X326000Y196599
X316000
X177571Y198000
X167571
X105571
X95571
X211000Y454000
Y464000
X475000Y404000
X485000
Y394000
Y384000
X475000
Y394000
X1075000Y421000
X1085000
Y431000
Y441000
X1075000
Y431000
X211000Y474000
T13
X45950Y32700
X56850
X67750
X78650
X89550
X100450
X111350
X105900Y43900
X116800
X111350Y59300
X100450
X89550
X78650
X67750
X56850
X45950
X51400Y70500
X62300
X73200
X84100
X95000
X105900
X116800
X95000Y43900
X84100
X73200
X62300
X51400
X40500
Y70500
X200233
X211133
X222033
X232933
X243833
X254733
X265633
X276533
X271083Y59300
X260183
X249283
X238383
X227483
X216583
X205683
X200233Y43900
X211133
X222033
X232933
X243833
X254733
X265633
X276533
X271083Y32700
X260183
X249283
X238383
X227483
X216583
X205683
X365417
X376317
X387217
X398117
X409017
X419917
X430817
X425367Y43900
X436267
X430817Y59300
X419917
X409017
X398117
X387217
X376317
X365417
X370867Y70500
X381767
X392667
X403567
X414467
X425367
X436267
X414467Y43900
X403567
X392667
X381767
X370867
X359967
Y70500
X519700
X530600
X541500
X552400
X563300
X574200
X585100
X596000
X590550Y59300
X579650
X568750
X557850
X546950
X536050
X525150
X519700Y43900
X530600
X541500
X552400
X563300
X574200
X585100
X596000
X590550Y32700
X579650
X568750
X557850
X546950
X536050
X525150
X1194250Y32800
X1205150
X1216050
X1226950
X1237850
X1248750
X1243300Y44000
X1232400
X1221500
X1210600
X1199700
X1188800
X1194250Y59400
X1205150
X1216050
X1226950
X1237850
X1248750
X1243300Y70600
X1232400
X1221500
X1210600
X1199700
X1188800
X1254200
X1265100
X1259650Y59400
X1254200Y44000
X1265100
X1259650Y32800
T14
X683900Y19303
Y29303
Y39303
X743100Y29303
Y19303
T15
X869835Y22303
X897433
X951842Y22563
X979441
T16
X91760Y454157
X122075
X299760
X330075
X473158Y509000
X492842
X516000
X535685
X449843
X430158
X330075Y473842
X299760
X122075
X91760
T17
X314500Y220999
X334500
X364500
X384500
X284500
X254500
X177571
X157571
X127571
X107571
X77571
X47571
X97571Y400999
X117571
X157571
X304500
X324500
X364500
T18
X1451433Y10067
X1454524Y64043
X1451433Y89043
X1512516Y96051
X1567516
X1622516
X1683500Y73059
X1680409Y51051
X1683500Y10067
T19
X678900Y54303
X748100
T20
X13050Y32700
Y64200
X144250
Y32700
X172783
Y64200
X303983
Y32700
X332517
Y64200
X463717
Y32700
X492250
Y64200
X623450
Y32700
X1161350Y32800
Y64300
X1292550
Y32800
T21
X1321807Y37500
X1420193
T22
X1034831Y274289
X664831
X1034831Y469289
X664831
T23
X690831Y284789
X762831Y284339
Y459339
T24
X936831Y284339
X690831Y458789
X936831Y459339
M30
