G04*
G04 #@! TF.GenerationSoftware,Altium Limited,Altium Designer,18.1.6 (161)*
G04*
G04 Layer_Color=8421504*
%FSLAX25Y25*%
%MOIN*%
G70*
G01*
G75*
%ADD28R,0.03937X0.05906*%
%ADD29R,0.03740X0.03740*%
%ADD30R,0.03740X0.03740*%
%ADD31R,0.02362X0.01968*%
%ADD32R,0.07500X0.13500*%
%ADD33R,0.07500X0.09000*%
%ADD34R,0.02441X0.04803*%
%ADD35R,0.01654X0.03500*%
%ADD36R,0.01200X0.03200*%
%ADD37R,0.03200X0.01200*%
%ADD38R,0.11811X0.13780*%
%ADD39R,0.13780X0.11811*%
%ADD40R,0.08000X0.02000*%
%ADD41R,0.02000X0.08000*%
%ADD42O,0.02362X0.07874*%
%ADD43R,0.01575X0.05315*%
%ADD44R,0.04900X0.12500*%
%ADD45O,0.02362X0.08661*%
%ADD46R,0.05709X0.02165*%
%ADD47R,0.05709X0.02165*%
%ADD48R,0.05118X0.02362*%
%ADD49R,0.06299X0.05512*%
%ADD50R,0.09055X0.05118*%
%ADD51R,0.07087X0.07480*%
%ADD52R,0.02362X0.05118*%
%ADD53R,0.01181X0.06299*%
%ADD54O,0.06890X0.01181*%
G36*
X1504953Y453784D02*
X1500317D01*
Y458153D01*
X1504953D01*
Y453784D01*
D02*
G37*
G36*
X1499529D02*
X1494894D01*
Y458153D01*
X1499529D01*
Y453784D01*
D02*
G37*
G36*
X1494106D02*
X1489470D01*
Y458153D01*
X1494106D01*
Y453784D01*
D02*
G37*
G36*
X1488683D02*
X1484047D01*
Y458153D01*
X1488683D01*
Y453784D01*
D02*
G37*
G36*
X1504953Y448626D02*
X1500317D01*
Y452996D01*
X1504953D01*
Y448626D01*
D02*
G37*
G36*
X1499529D02*
X1494894D01*
Y452996D01*
X1499529D01*
Y448626D01*
D02*
G37*
G36*
X1494106D02*
X1489470D01*
Y452996D01*
X1494106D01*
Y448626D01*
D02*
G37*
G36*
X1488683D02*
X1484047D01*
Y452996D01*
X1488683D01*
Y448626D01*
D02*
G37*
G36*
X1504953Y443469D02*
X1500317D01*
Y447839D01*
X1504953D01*
Y443469D01*
D02*
G37*
G36*
X1499529D02*
X1494894D01*
Y447839D01*
X1499529D01*
Y443469D01*
D02*
G37*
G36*
X1494106D02*
X1489470D01*
Y447839D01*
X1494106D01*
Y443469D01*
D02*
G37*
G36*
X1488683D02*
X1484047D01*
Y447839D01*
X1488683D01*
Y443469D01*
D02*
G37*
G36*
X1504953Y438311D02*
X1500317D01*
Y442681D01*
X1504953D01*
Y438311D01*
D02*
G37*
G36*
X1499529D02*
X1494894D01*
Y442681D01*
X1499529D01*
Y438311D01*
D02*
G37*
G36*
X1494106D02*
X1489470D01*
Y442681D01*
X1494106D01*
Y438311D01*
D02*
G37*
G36*
X1488683D02*
X1484047D01*
Y442681D01*
X1488683D01*
Y438311D01*
D02*
G37*
G36*
X1504953Y433153D02*
X1500317D01*
Y437524D01*
X1504953D01*
Y433153D01*
D02*
G37*
G36*
X1499529D02*
X1494894D01*
Y437524D01*
X1499529D01*
Y433153D01*
D02*
G37*
G36*
X1494106D02*
X1489470D01*
Y437524D01*
X1494106D01*
Y433153D01*
D02*
G37*
G36*
X1488683D02*
X1484047D01*
Y437524D01*
X1488683D01*
Y433153D01*
D02*
G37*
G36*
X1655953Y453784D02*
X1651317D01*
Y458153D01*
X1655953D01*
Y453784D01*
D02*
G37*
G36*
X1650529D02*
X1645894D01*
Y458153D01*
X1650529D01*
Y453784D01*
D02*
G37*
G36*
X1645106D02*
X1640471D01*
Y458153D01*
X1645106D01*
Y453784D01*
D02*
G37*
G36*
X1639683D02*
X1635047D01*
Y458153D01*
X1639683D01*
Y453784D01*
D02*
G37*
G36*
X1655953Y448626D02*
X1651317D01*
Y452996D01*
X1655953D01*
Y448626D01*
D02*
G37*
G36*
X1650529D02*
X1645894D01*
Y452996D01*
X1650529D01*
Y448626D01*
D02*
G37*
G36*
X1645106D02*
X1640471D01*
Y452996D01*
X1645106D01*
Y448626D01*
D02*
G37*
G36*
X1639683D02*
X1635047D01*
Y452996D01*
X1639683D01*
Y448626D01*
D02*
G37*
G36*
X1655953Y443469D02*
X1651317D01*
Y447839D01*
X1655953D01*
Y443469D01*
D02*
G37*
G36*
X1650529D02*
X1645894D01*
Y447839D01*
X1650529D01*
Y443469D01*
D02*
G37*
G36*
X1645106D02*
X1640471D01*
Y447839D01*
X1645106D01*
Y443469D01*
D02*
G37*
G36*
X1639683D02*
X1635047D01*
Y447839D01*
X1639683D01*
Y443469D01*
D02*
G37*
G36*
X1655953Y438311D02*
X1651317D01*
Y442681D01*
X1655953D01*
Y438311D01*
D02*
G37*
G36*
X1650529D02*
X1645894D01*
Y442681D01*
X1650529D01*
Y438311D01*
D02*
G37*
G36*
X1645106D02*
X1640471D01*
Y442681D01*
X1645106D01*
Y438311D01*
D02*
G37*
G36*
X1639683D02*
X1635047D01*
Y442681D01*
X1639683D01*
Y438311D01*
D02*
G37*
G36*
X1655953Y433153D02*
X1651317D01*
Y437524D01*
X1655953D01*
Y433153D01*
D02*
G37*
G36*
X1650529D02*
X1645894D01*
Y437524D01*
X1650529D01*
Y433153D01*
D02*
G37*
G36*
X1645106D02*
X1640471D01*
Y437524D01*
X1645106D01*
Y433153D01*
D02*
G37*
G36*
X1639683D02*
X1635047D01*
Y437524D01*
X1639683D01*
Y433153D01*
D02*
G37*
D28*
X930878Y19390D02*
D03*
Y5610D02*
D03*
X936390Y19390D02*
D03*
Y5610D02*
D03*
X930878D02*
D03*
D29*
X835347Y55000D02*
D03*
X828654D02*
D03*
X835347Y62500D02*
D03*
X828654D02*
D03*
Y47500D02*
D03*
X835347D02*
D03*
X801153Y75000D02*
D03*
X807847D02*
D03*
X835347Y40000D02*
D03*
X828654D02*
D03*
X757654Y112000D02*
D03*
X764347D02*
D03*
X754153Y136500D02*
D03*
X760847D02*
D03*
X385846Y204000D02*
D03*
X379153D02*
D03*
X464500Y82000D02*
D03*
X471193D02*
D03*
X1687500Y111241D02*
D03*
X1694193D02*
D03*
X801280Y50657D02*
D03*
X807973D02*
D03*
X801280Y62657D02*
D03*
X807973D02*
D03*
X757154Y80000D02*
D03*
X763846D02*
D03*
Y91500D02*
D03*
X757154D02*
D03*
X1348654Y323500D02*
D03*
X1355346D02*
D03*
X1348654Y274500D02*
D03*
X1355346D02*
D03*
X1348654Y225500D02*
D03*
X1355346D02*
D03*
X1348654Y176500D02*
D03*
X1355346D02*
D03*
X1392653Y323500D02*
D03*
X1399347D02*
D03*
X1392653Y274500D02*
D03*
X1399347D02*
D03*
X1392653Y225500D02*
D03*
X1399347D02*
D03*
X1392653Y176500D02*
D03*
X1399347D02*
D03*
X536665Y141623D02*
D03*
X529972D02*
D03*
X398748Y137167D02*
D03*
X392055D02*
D03*
X196235Y142667D02*
D03*
X189542D02*
D03*
X81346D02*
D03*
X74654D02*
D03*
X528014Y101667D02*
D03*
X521321D02*
D03*
X364054D02*
D03*
X357361D02*
D03*
X210347D02*
D03*
X203654D02*
D03*
X47846Y103667D02*
D03*
X41153D02*
D03*
X585100Y141623D02*
D03*
X578407D02*
D03*
X445400Y137167D02*
D03*
X438707D02*
D03*
X244847Y142667D02*
D03*
X238154D02*
D03*
X128024Y142456D02*
D03*
X121331D02*
D03*
X572847Y101667D02*
D03*
X566153D02*
D03*
X424061D02*
D03*
X417369D02*
D03*
X259270D02*
D03*
X252577D02*
D03*
X98847Y103667D02*
D03*
X92154D02*
D03*
X536665Y155956D02*
D03*
X529972D02*
D03*
X398748Y151500D02*
D03*
X392055D02*
D03*
X196235Y157000D02*
D03*
X189542D02*
D03*
X81346D02*
D03*
X74654D02*
D03*
X528014Y116000D02*
D03*
X521321D02*
D03*
X364054D02*
D03*
X357361D02*
D03*
X210347D02*
D03*
X203654D02*
D03*
X47846Y118000D02*
D03*
X41153D02*
D03*
X585100Y155956D02*
D03*
X578407D02*
D03*
X445400Y151500D02*
D03*
X438707D02*
D03*
X244847Y157000D02*
D03*
X238154D02*
D03*
X128024Y156789D02*
D03*
X121331D02*
D03*
X572847Y116000D02*
D03*
X566153D02*
D03*
X424061D02*
D03*
X417369D02*
D03*
X259270D02*
D03*
X252577D02*
D03*
X98847Y118000D02*
D03*
X92154D02*
D03*
X536665Y134456D02*
D03*
X529972D02*
D03*
X398748Y130000D02*
D03*
X392055D02*
D03*
X196235Y135500D02*
D03*
X189542D02*
D03*
X81346D02*
D03*
X74654D02*
D03*
X528014Y94500D02*
D03*
X521321D02*
D03*
X364054D02*
D03*
X357361D02*
D03*
X210347D02*
D03*
X203654D02*
D03*
X47846Y96500D02*
D03*
X41153D02*
D03*
X585100Y134456D02*
D03*
X578407D02*
D03*
X445400Y130000D02*
D03*
X438707D02*
D03*
X244847Y135500D02*
D03*
X238154D02*
D03*
X128024Y135289D02*
D03*
X121331D02*
D03*
X572847Y94500D02*
D03*
X566153D02*
D03*
X424061D02*
D03*
X417369D02*
D03*
X259270D02*
D03*
X252577D02*
D03*
X98847Y96500D02*
D03*
X92154D02*
D03*
X536665Y148789D02*
D03*
X529972D02*
D03*
X398748Y144333D02*
D03*
X392055D02*
D03*
X196235Y149833D02*
D03*
X189542D02*
D03*
X81346D02*
D03*
X74654D02*
D03*
X528014Y108833D02*
D03*
X521321D02*
D03*
X364054D02*
D03*
X357361D02*
D03*
X210347D02*
D03*
X203654D02*
D03*
X47846Y110833D02*
D03*
X41153D02*
D03*
X585100Y148789D02*
D03*
X578407D02*
D03*
X445400Y144333D02*
D03*
X438707D02*
D03*
X244847Y149833D02*
D03*
X238154D02*
D03*
X128024Y149623D02*
D03*
X121331D02*
D03*
X572847Y108833D02*
D03*
X566153D02*
D03*
X424061D02*
D03*
X417369D02*
D03*
X259270D02*
D03*
X252577D02*
D03*
X98847Y110833D02*
D03*
X92154D02*
D03*
X1316075Y91524D02*
D03*
X1322768D02*
D03*
X1336347D02*
D03*
X1329653D02*
D03*
X1679847Y440204D02*
D03*
X1673153D02*
D03*
X1679847Y419204D02*
D03*
X1673153D02*
D03*
X1679847Y426203D02*
D03*
X1673153D02*
D03*
X1679847Y447203D02*
D03*
X1673153D02*
D03*
X1615154Y437580D02*
D03*
X1621847D02*
D03*
X1679847Y454204D02*
D03*
X1673153D02*
D03*
X1679847Y461203D02*
D03*
X1673153D02*
D03*
X1679847Y433204D02*
D03*
X1673153D02*
D03*
X1615154Y450654D02*
D03*
X1621847D02*
D03*
X1526847Y441500D02*
D03*
X1520154D02*
D03*
X1526847Y448654D02*
D03*
X1520154D02*
D03*
X1526847Y434500D02*
D03*
X1520154D02*
D03*
X1461154Y438654D02*
D03*
X1467846D02*
D03*
X1526847Y455500D02*
D03*
X1520154D02*
D03*
X1526847Y420653D02*
D03*
X1520154D02*
D03*
X1461154Y448654D02*
D03*
X1467846D02*
D03*
X1526847Y462653D02*
D03*
X1520154D02*
D03*
X1526847Y427579D02*
D03*
X1520154D02*
D03*
D30*
X906500Y4413D02*
D03*
Y11106D02*
D03*
X914500Y4413D02*
D03*
Y11106D02*
D03*
X922500Y4413D02*
D03*
Y11106D02*
D03*
X807626Y28311D02*
D03*
Y35004D02*
D03*
X809875Y97154D02*
D03*
Y103847D02*
D03*
X786500Y93654D02*
D03*
Y100347D02*
D03*
X810000Y116154D02*
D03*
Y122846D02*
D03*
X787000Y112654D02*
D03*
Y119346D02*
D03*
X763000Y27957D02*
D03*
Y34650D02*
D03*
X784500Y50846D02*
D03*
Y44153D02*
D03*
Y57153D02*
D03*
Y63846D02*
D03*
X1352000Y358846D02*
D03*
Y352153D02*
D03*
Y309846D02*
D03*
Y303153D02*
D03*
Y260846D02*
D03*
Y254153D02*
D03*
Y211846D02*
D03*
Y205153D02*
D03*
X1359000Y352153D02*
D03*
Y358846D02*
D03*
Y303153D02*
D03*
Y309846D02*
D03*
Y254153D02*
D03*
Y260846D02*
D03*
Y205153D02*
D03*
Y211846D02*
D03*
X1403000Y358846D02*
D03*
Y352153D02*
D03*
Y309846D02*
D03*
Y303153D02*
D03*
Y260846D02*
D03*
Y254153D02*
D03*
Y211846D02*
D03*
Y205153D02*
D03*
X1396000Y352153D02*
D03*
Y358846D02*
D03*
Y303153D02*
D03*
Y309846D02*
D03*
Y254153D02*
D03*
Y260846D02*
D03*
Y205153D02*
D03*
Y211846D02*
D03*
X190571Y204346D02*
D03*
Y197653D02*
D03*
X1131500Y116772D02*
D03*
Y110079D02*
D03*
X631000Y88928D02*
D03*
Y82235D02*
D03*
X311503Y88346D02*
D03*
Y81653D02*
D03*
X151476Y88859D02*
D03*
Y82166D02*
D03*
X1154737Y84592D02*
D03*
Y91285D02*
D03*
X748370Y112024D02*
D03*
Y105331D02*
D03*
X1312087Y54559D02*
D03*
Y61252D02*
D03*
X991500Y37106D02*
D03*
Y30413D02*
D03*
X1001500Y37106D02*
D03*
Y30413D02*
D03*
X1011500Y37106D02*
D03*
Y30413D02*
D03*
X958500Y52606D02*
D03*
Y45913D02*
D03*
X873634Y49847D02*
D03*
Y43154D02*
D03*
Y66847D02*
D03*
Y60154D02*
D03*
Y83846D02*
D03*
Y77153D02*
D03*
X906500Y37413D02*
D03*
Y44106D02*
D03*
X914500Y37413D02*
D03*
Y44106D02*
D03*
X922500Y37413D02*
D03*
Y44106D02*
D03*
X1570500Y449500D02*
D03*
Y456193D02*
D03*
Y501847D02*
D03*
Y495154D02*
D03*
X1341000Y332154D02*
D03*
Y338846D02*
D03*
Y283154D02*
D03*
Y289846D02*
D03*
Y234154D02*
D03*
Y240846D02*
D03*
Y185153D02*
D03*
Y191847D02*
D03*
X1385000Y338846D02*
D03*
Y332154D02*
D03*
Y289846D02*
D03*
Y283154D02*
D03*
Y240846D02*
D03*
Y234154D02*
D03*
Y191847D02*
D03*
Y185153D02*
D03*
X1405000Y153894D02*
D03*
Y160587D02*
D03*
X1361000Y153894D02*
D03*
Y160587D02*
D03*
X1405000Y126894D02*
D03*
Y133587D02*
D03*
X1361000Y126894D02*
D03*
Y133587D02*
D03*
X1379000Y153894D02*
D03*
Y160587D02*
D03*
X1335000Y153894D02*
D03*
Y160587D02*
D03*
X1379000Y126894D02*
D03*
Y133587D02*
D03*
X1335000Y126894D02*
D03*
Y133587D02*
D03*
X1293500Y123653D02*
D03*
Y130347D02*
D03*
Y114847D02*
D03*
Y108153D02*
D03*
X1280500Y123653D02*
D03*
Y130347D02*
D03*
X1280559Y114847D02*
D03*
Y108153D02*
D03*
X1238000Y123653D02*
D03*
Y130347D02*
D03*
Y114847D02*
D03*
Y108153D02*
D03*
X1251000Y123653D02*
D03*
Y130347D02*
D03*
Y114847D02*
D03*
Y108153D02*
D03*
X1195000Y123653D02*
D03*
Y130347D02*
D03*
X1208000Y114847D02*
D03*
Y108153D02*
D03*
Y123653D02*
D03*
Y130347D02*
D03*
X1195000Y114847D02*
D03*
Y108153D02*
D03*
X1337500Y78820D02*
D03*
Y85512D02*
D03*
X1344000Y78820D02*
D03*
Y85512D02*
D03*
X966500Y45913D02*
D03*
Y52606D02*
D03*
X859000Y15653D02*
D03*
Y22346D02*
D03*
X1656500Y410307D02*
D03*
Y417000D02*
D03*
X1663500Y410307D02*
D03*
Y417000D02*
D03*
X1642500Y410307D02*
D03*
Y417000D02*
D03*
X1649500Y410307D02*
D03*
Y417000D02*
D03*
X1628500Y480000D02*
D03*
Y473307D02*
D03*
Y410307D02*
D03*
Y417000D02*
D03*
X1621500Y410307D02*
D03*
Y417000D02*
D03*
X1635500Y480000D02*
D03*
Y473307D02*
D03*
X1642500Y480000D02*
D03*
Y473307D02*
D03*
X1635500Y410307D02*
D03*
Y417000D02*
D03*
X1663500Y480000D02*
D03*
Y473307D02*
D03*
X1670500Y480000D02*
D03*
Y473307D02*
D03*
X1656500Y480000D02*
D03*
Y473307D02*
D03*
X1649500Y480000D02*
D03*
Y473307D02*
D03*
X1477500Y480000D02*
D03*
Y473307D02*
D03*
X1483500Y410307D02*
D03*
Y417000D02*
D03*
X1504500Y410307D02*
D03*
Y417000D02*
D03*
X1511500Y410307D02*
D03*
Y417000D02*
D03*
X1490500Y410307D02*
D03*
Y417000D02*
D03*
X1497500Y410307D02*
D03*
Y417000D02*
D03*
X1469500Y410307D02*
D03*
Y417000D02*
D03*
X1476500Y410307D02*
D03*
Y417000D02*
D03*
X1498500Y480000D02*
D03*
Y473307D02*
D03*
X1505500Y480000D02*
D03*
Y473307D02*
D03*
X1519500Y480000D02*
D03*
Y473307D02*
D03*
X1512500Y480000D02*
D03*
Y473307D02*
D03*
X1484500Y480000D02*
D03*
Y473307D02*
D03*
X1491500Y480000D02*
D03*
Y473307D02*
D03*
D31*
X1044000Y104744D02*
D03*
Y110256D02*
D03*
D32*
X322665Y421999D02*
D03*
X307169D02*
D03*
X322665Y504999D02*
D03*
X307169D02*
D03*
X114665Y421999D02*
D03*
X99169D02*
D03*
X114665Y504999D02*
D03*
X99169D02*
D03*
D33*
X288319Y421999D02*
D03*
X272823D02*
D03*
X344169D02*
D03*
X359665D02*
D03*
X78067D02*
D03*
X62571D02*
D03*
X133823D02*
D03*
X149319D02*
D03*
D34*
X1355740Y332343D02*
D03*
X1352000D02*
D03*
X1348260D02*
D03*
Y342657D02*
D03*
X1355740D02*
D03*
X1355740Y283343D02*
D03*
X1352000D02*
D03*
X1348260D02*
D03*
Y293657D02*
D03*
X1355740D02*
D03*
X1355740Y234343D02*
D03*
X1352000D02*
D03*
X1348260D02*
D03*
Y244657D02*
D03*
X1355740D02*
D03*
X1355740Y185343D02*
D03*
X1352000D02*
D03*
X1348260D02*
D03*
Y195658D02*
D03*
X1355740D02*
D03*
X1399740Y332343D02*
D03*
X1396000D02*
D03*
X1392260D02*
D03*
Y342657D02*
D03*
X1399740D02*
D03*
X1399740Y283343D02*
D03*
X1396000D02*
D03*
X1392260D02*
D03*
Y293657D02*
D03*
X1399740D02*
D03*
X1399740Y234343D02*
D03*
X1396000D02*
D03*
X1392260D02*
D03*
Y244657D02*
D03*
X1399740D02*
D03*
X1399740Y185343D02*
D03*
X1396000D02*
D03*
X1392260D02*
D03*
Y195658D02*
D03*
X1399740D02*
D03*
D35*
X524818Y153743D02*
D03*
Y137167D02*
D03*
X522259D02*
D03*
X519700D02*
D03*
X517141D02*
D03*
X522259Y153743D02*
D03*
X519700D02*
D03*
X517141D02*
D03*
X386902Y149287D02*
D03*
Y132711D02*
D03*
X384343D02*
D03*
X381783D02*
D03*
X379224D02*
D03*
X384343Y149287D02*
D03*
X381783D02*
D03*
X379224D02*
D03*
X184388Y154787D02*
D03*
Y138211D02*
D03*
X181829D02*
D03*
X179270D02*
D03*
X176711D02*
D03*
X181829Y154787D02*
D03*
X179270D02*
D03*
X176711D02*
D03*
X69500D02*
D03*
Y138211D02*
D03*
X66941D02*
D03*
X64382D02*
D03*
X61823D02*
D03*
X66941Y154787D02*
D03*
X64382D02*
D03*
X61823D02*
D03*
X516168Y113787D02*
D03*
Y97211D02*
D03*
X513609D02*
D03*
X511050D02*
D03*
X508491D02*
D03*
X513609Y113787D02*
D03*
X511050D02*
D03*
X508491D02*
D03*
X352207D02*
D03*
Y97211D02*
D03*
X349648D02*
D03*
X347089D02*
D03*
X344530D02*
D03*
X349648Y113787D02*
D03*
X347089D02*
D03*
X344530D02*
D03*
X198500D02*
D03*
Y97211D02*
D03*
X195941D02*
D03*
X193382D02*
D03*
X190823D02*
D03*
X195941Y113787D02*
D03*
X193382D02*
D03*
X190823D02*
D03*
X36000Y115787D02*
D03*
Y99211D02*
D03*
X33441D02*
D03*
X30882D02*
D03*
X28323D02*
D03*
X33441Y115787D02*
D03*
X30882D02*
D03*
X28323D02*
D03*
X573253Y153743D02*
D03*
Y137167D02*
D03*
X570694D02*
D03*
X568135D02*
D03*
X565576D02*
D03*
X570694Y153743D02*
D03*
X568135D02*
D03*
X565576D02*
D03*
X433554Y149287D02*
D03*
Y132711D02*
D03*
X430995D02*
D03*
X428435D02*
D03*
X425876D02*
D03*
X430995Y149287D02*
D03*
X428435D02*
D03*
X425876D02*
D03*
X233000Y154787D02*
D03*
Y138211D02*
D03*
X230441D02*
D03*
X227882D02*
D03*
X225323D02*
D03*
X230441Y154787D02*
D03*
X227882D02*
D03*
X225323D02*
D03*
X116177Y154577D02*
D03*
Y138000D02*
D03*
X113618D02*
D03*
X111059D02*
D03*
X108500D02*
D03*
X113618Y154577D02*
D03*
X111059D02*
D03*
X108500D02*
D03*
X561000Y113787D02*
D03*
Y97211D02*
D03*
X558441D02*
D03*
X555882D02*
D03*
X553323D02*
D03*
X558441Y113787D02*
D03*
X555882D02*
D03*
X553323D02*
D03*
X412215D02*
D03*
Y97211D02*
D03*
X409656D02*
D03*
X407097D02*
D03*
X404538D02*
D03*
X409656Y113787D02*
D03*
X407097D02*
D03*
X404538D02*
D03*
X247424D02*
D03*
Y97211D02*
D03*
X244865D02*
D03*
X242305D02*
D03*
X239746D02*
D03*
X244865Y113787D02*
D03*
X242305D02*
D03*
X239746D02*
D03*
X87000Y115787D02*
D03*
Y99211D02*
D03*
X84441D02*
D03*
X81882D02*
D03*
X79323D02*
D03*
X84441Y115787D02*
D03*
X81882D02*
D03*
X79323D02*
D03*
X1274177Y127288D02*
D03*
Y110712D02*
D03*
X1271618D02*
D03*
X1269059D02*
D03*
X1266500D02*
D03*
X1271618Y127288D02*
D03*
X1269059D02*
D03*
X1266500D02*
D03*
X1229598D02*
D03*
Y110712D02*
D03*
X1227039D02*
D03*
X1224480D02*
D03*
X1221921D02*
D03*
X1227039Y127288D02*
D03*
X1224480D02*
D03*
X1221921D02*
D03*
D36*
X1656327Y430103D02*
D03*
X1654358D02*
D03*
X1652390D02*
D03*
X1650421D02*
D03*
X1648453D02*
D03*
X1646484D02*
D03*
X1644516D02*
D03*
X1642547D02*
D03*
X1640579D02*
D03*
X1638610D02*
D03*
X1636642D02*
D03*
X1634673D02*
D03*
Y461203D02*
D03*
X1636642D02*
D03*
X1638610D02*
D03*
X1640579D02*
D03*
X1642547D02*
D03*
X1644516D02*
D03*
X1646484D02*
D03*
X1648453D02*
D03*
X1650421D02*
D03*
X1652390D02*
D03*
X1654358D02*
D03*
X1656327D02*
D03*
X1505327Y430103D02*
D03*
X1503358D02*
D03*
X1501390D02*
D03*
X1499421D02*
D03*
X1497453D02*
D03*
X1495484D02*
D03*
X1493516D02*
D03*
X1491547D02*
D03*
X1489579D02*
D03*
X1487610D02*
D03*
X1485642D02*
D03*
X1483673D02*
D03*
Y461203D02*
D03*
X1485642D02*
D03*
X1487610D02*
D03*
X1489579D02*
D03*
X1491547D02*
D03*
X1493516D02*
D03*
X1495484D02*
D03*
X1497453D02*
D03*
X1499421D02*
D03*
X1501390D02*
D03*
X1503358D02*
D03*
X1505327D02*
D03*
D37*
X1631900Y432858D02*
D03*
Y434827D02*
D03*
Y436795D02*
D03*
Y438764D02*
D03*
Y440732D02*
D03*
Y442701D02*
D03*
Y444669D02*
D03*
Y446638D02*
D03*
Y448606D02*
D03*
Y450575D02*
D03*
Y452543D02*
D03*
Y454512D02*
D03*
Y456480D02*
D03*
Y458449D02*
D03*
X1659100D02*
D03*
Y456480D02*
D03*
Y454512D02*
D03*
Y452543D02*
D03*
Y450575D02*
D03*
Y448606D02*
D03*
Y446638D02*
D03*
Y444669D02*
D03*
Y442701D02*
D03*
Y440732D02*
D03*
Y438764D02*
D03*
Y436795D02*
D03*
Y434827D02*
D03*
Y432858D02*
D03*
X1480900D02*
D03*
Y434827D02*
D03*
Y436795D02*
D03*
Y438764D02*
D03*
Y440732D02*
D03*
Y442701D02*
D03*
Y444669D02*
D03*
Y446638D02*
D03*
Y448606D02*
D03*
Y450575D02*
D03*
Y452543D02*
D03*
Y454512D02*
D03*
Y456480D02*
D03*
Y458449D02*
D03*
X1508100D02*
D03*
Y456480D02*
D03*
Y454512D02*
D03*
Y452543D02*
D03*
Y450575D02*
D03*
Y448606D02*
D03*
Y446638D02*
D03*
Y444669D02*
D03*
Y442701D02*
D03*
Y440732D02*
D03*
Y438764D02*
D03*
Y436795D02*
D03*
Y434827D02*
D03*
Y432858D02*
D03*
D38*
X1131272Y36000D02*
D03*
Y55685D02*
D03*
Y16315D02*
D03*
Y75370D02*
D03*
X1054500D02*
D03*
Y16315D02*
D03*
Y55685D02*
D03*
Y36000D02*
D03*
D39*
X1092886Y86197D02*
D03*
X1073201D02*
D03*
X1112571D02*
D03*
D40*
X699492Y310371D02*
D03*
Y304072D02*
D03*
Y294623D02*
D03*
X682169Y310371D02*
D03*
Y304072D02*
D03*
Y294623D02*
D03*
X699492Y345017D02*
D03*
Y335568D02*
D03*
Y319820D02*
D03*
X682169Y345017D02*
D03*
Y335568D02*
D03*
Y319820D02*
D03*
X699492Y367064D02*
D03*
Y360765D02*
D03*
Y351316D02*
D03*
X682169Y376513D02*
D03*
Y367064D02*
D03*
Y360765D02*
D03*
Y351316D02*
D03*
X699492Y408009D02*
D03*
Y398560D02*
D03*
Y392261D02*
D03*
Y382812D02*
D03*
X682169Y408009D02*
D03*
Y398560D02*
D03*
Y392261D02*
D03*
Y382812D02*
D03*
X699492Y439505D02*
D03*
Y423757D02*
D03*
Y414308D02*
D03*
X682169Y439505D02*
D03*
Y423757D02*
D03*
Y414308D02*
D03*
X699492Y448954D02*
D03*
X682169Y448954D02*
D03*
X699492Y300922D02*
D03*
Y297773D02*
D03*
X682169Y300922D02*
D03*
Y297773D02*
D03*
X699492Y307222D02*
D03*
X682169Y307222D02*
D03*
X699492Y316670D02*
D03*
Y313521D02*
D03*
X682169Y316670D02*
D03*
Y313521D02*
D03*
X699492Y326119D02*
D03*
Y322970D02*
D03*
X682169Y326119D02*
D03*
Y322970D02*
D03*
X699492Y332418D02*
D03*
Y329269D02*
D03*
X682169Y332418D02*
D03*
Y329269D02*
D03*
X699492Y341867D02*
D03*
Y338718D02*
D03*
X682169Y341867D02*
D03*
Y338718D02*
D03*
X699492Y348166D02*
D03*
X682169Y348166D02*
D03*
X699492Y357615D02*
D03*
Y354466D02*
D03*
X682169Y357615D02*
D03*
Y354466D02*
D03*
X699492Y363914D02*
D03*
X682169Y363915D02*
D03*
X699492Y370214D02*
D03*
X682169Y373363D02*
D03*
Y370214D02*
D03*
X699492Y379662D02*
D03*
X682169Y379663D02*
D03*
X699492Y389111D02*
D03*
Y385962D02*
D03*
X682169Y389111D02*
D03*
Y385962D02*
D03*
X699492Y395410D02*
D03*
X682169Y395411D02*
D03*
X699492Y404859D02*
D03*
Y401710D02*
D03*
X682169Y404859D02*
D03*
Y401710D02*
D03*
X699492Y411158D02*
D03*
X682169Y411159D02*
D03*
X699492Y420607D02*
D03*
Y417458D02*
D03*
X682169Y420608D02*
D03*
Y417458D02*
D03*
X699492Y430056D02*
D03*
Y426906D02*
D03*
X682169Y430056D02*
D03*
Y426907D02*
D03*
X699492Y436355D02*
D03*
Y433206D02*
D03*
X682169Y436355D02*
D03*
Y433206D02*
D03*
X699492Y445804D02*
D03*
Y442654D02*
D03*
X682169Y445804D02*
D03*
Y442655D02*
D03*
X699492Y376513D02*
D03*
Y373363D02*
D03*
D41*
X920697Y468000D02*
D03*
X923847D02*
D03*
X920697Y450677D02*
D03*
X923846D02*
D03*
X911248Y468000D02*
D03*
X914398D02*
D03*
X911248Y450677D02*
D03*
X914397D02*
D03*
X904949Y468000D02*
D03*
X908098D02*
D03*
X904949Y450677D02*
D03*
X908098D02*
D03*
X895500Y468000D02*
D03*
X898650D02*
D03*
X895500Y450677D02*
D03*
X898649D02*
D03*
X889201Y468000D02*
D03*
X889200Y450677D02*
D03*
X879752Y468000D02*
D03*
X882902D02*
D03*
X879752Y450677D02*
D03*
X882901D02*
D03*
X873453Y468000D02*
D03*
X873452Y450677D02*
D03*
X864004Y468000D02*
D03*
X867153D02*
D03*
X864004Y450677D02*
D03*
X867153D02*
D03*
X857705Y468000D02*
D03*
X857705Y450677D02*
D03*
X848256Y468000D02*
D03*
X851406D02*
D03*
X848256Y450677D02*
D03*
X851405D02*
D03*
X841957Y468000D02*
D03*
X841957Y450677D02*
D03*
X832508Y468000D02*
D03*
X835658D02*
D03*
X832508Y450677D02*
D03*
X835657D02*
D03*
X826209Y468000D02*
D03*
X826208Y450677D02*
D03*
X816760Y468000D02*
D03*
X819909D02*
D03*
X816760Y450677D02*
D03*
X819909D02*
D03*
X807311Y468000D02*
D03*
X810461D02*
D03*
X807311Y450677D02*
D03*
X810460D02*
D03*
X801012Y468000D02*
D03*
X804161D02*
D03*
X801012Y450677D02*
D03*
X804161D02*
D03*
X791563Y468000D02*
D03*
X794713D02*
D03*
X791563Y450677D02*
D03*
X794713D02*
D03*
X785264Y468000D02*
D03*
X785264Y450677D02*
D03*
X775815Y468000D02*
D03*
X778965D02*
D03*
X775815Y450677D02*
D03*
X778965D02*
D03*
X926996Y468000D02*
D03*
X926996Y450677D02*
D03*
X892350Y468000D02*
D03*
X901799D02*
D03*
X917547D02*
D03*
X892350Y450677D02*
D03*
X901799D02*
D03*
X917547D02*
D03*
X860854Y468000D02*
D03*
X870303D02*
D03*
X876602D02*
D03*
X886051D02*
D03*
X860854Y450677D02*
D03*
X870303D02*
D03*
X876602D02*
D03*
X886051D02*
D03*
X829358Y468000D02*
D03*
X838807D02*
D03*
X845106D02*
D03*
X854555D02*
D03*
X829358Y450677D02*
D03*
X838807D02*
D03*
X845106D02*
D03*
X854555D02*
D03*
X797862Y468000D02*
D03*
X813610D02*
D03*
X823059D02*
D03*
X797862Y450677D02*
D03*
X813610D02*
D03*
X823059D02*
D03*
X772665Y468000D02*
D03*
X782114D02*
D03*
X788413D02*
D03*
X772665Y450677D02*
D03*
X782114D02*
D03*
X788413D02*
D03*
Y275677D02*
D03*
X782114D02*
D03*
X772665D02*
D03*
X788413Y293000D02*
D03*
X782114D02*
D03*
X772665D02*
D03*
X823059Y275677D02*
D03*
X813610D02*
D03*
X797862D02*
D03*
X823059Y293000D02*
D03*
X813610D02*
D03*
X797862D02*
D03*
X854555Y275677D02*
D03*
X845106D02*
D03*
X838807D02*
D03*
X829358D02*
D03*
X854555Y293000D02*
D03*
X845106D02*
D03*
X838807D02*
D03*
X829358D02*
D03*
X886051Y275677D02*
D03*
X876602D02*
D03*
X870303D02*
D03*
X860854D02*
D03*
X886051Y293000D02*
D03*
X876602D02*
D03*
X870303D02*
D03*
X860854D02*
D03*
X917547Y275677D02*
D03*
X901799D02*
D03*
X892350D02*
D03*
X917547Y293000D02*
D03*
X901799D02*
D03*
X892350D02*
D03*
X926996Y275677D02*
D03*
X926996Y293000D02*
D03*
X778965Y275677D02*
D03*
X775815D02*
D03*
X778965Y293000D02*
D03*
X775815D02*
D03*
X785264Y275677D02*
D03*
X785264Y293000D02*
D03*
X794713Y275677D02*
D03*
X791563D02*
D03*
X794713Y293000D02*
D03*
X791563D02*
D03*
X804161Y275677D02*
D03*
X801012D02*
D03*
X804161Y293000D02*
D03*
X801012D02*
D03*
X810460Y275677D02*
D03*
X807311D02*
D03*
X810461Y293000D02*
D03*
X807311D02*
D03*
X819909Y275677D02*
D03*
X816760D02*
D03*
X819909Y293000D02*
D03*
X816760D02*
D03*
X826208Y275677D02*
D03*
X826209Y293000D02*
D03*
X835657Y275677D02*
D03*
X832508D02*
D03*
X835658Y293000D02*
D03*
X832508D02*
D03*
X841957Y275677D02*
D03*
X841957Y293000D02*
D03*
X851405Y275677D02*
D03*
X848256D02*
D03*
X851406Y293000D02*
D03*
X848256D02*
D03*
X857705Y275677D02*
D03*
X857705Y293000D02*
D03*
X867153Y275677D02*
D03*
X864004D02*
D03*
X867153Y293000D02*
D03*
X864004D02*
D03*
X873452Y275677D02*
D03*
X873453Y293000D02*
D03*
X882901Y275677D02*
D03*
X879752D02*
D03*
X882902Y293000D02*
D03*
X879752D02*
D03*
X889200Y275677D02*
D03*
X889201Y293000D02*
D03*
X898649Y275677D02*
D03*
X895500D02*
D03*
X898650Y293000D02*
D03*
X895500D02*
D03*
X908098Y275677D02*
D03*
X904949D02*
D03*
X908098Y293000D02*
D03*
X904949D02*
D03*
X914397Y275677D02*
D03*
X911248D02*
D03*
X914398Y293000D02*
D03*
X911248D02*
D03*
X923846Y275677D02*
D03*
X920697D02*
D03*
X923847Y293000D02*
D03*
X920697D02*
D03*
D42*
X1389000Y91298D02*
D03*
X1384000D02*
D03*
X1379000D02*
D03*
X1374000D02*
D03*
X1369000D02*
D03*
X1364000D02*
D03*
X1359000D02*
D03*
X1354000D02*
D03*
X1389000Y62952D02*
D03*
X1384000D02*
D03*
X1379000D02*
D03*
X1374000D02*
D03*
X1369000D02*
D03*
X1364000D02*
D03*
X1359000D02*
D03*
X1354000D02*
D03*
D43*
X817413Y16740D02*
D03*
X819972D02*
D03*
X825091D02*
D03*
X814854D02*
D03*
X822532D02*
D03*
X780354D02*
D03*
X770118D02*
D03*
X772677D02*
D03*
X777795D02*
D03*
X775236D02*
D03*
D44*
X132020Y197999D02*
D03*
X157122D02*
D03*
X52020Y198000D02*
D03*
X77122D02*
D03*
D45*
X1580525Y484949D02*
D03*
X1575525D02*
D03*
X1570525D02*
D03*
X1565525D02*
D03*
X1580525Y466051D02*
D03*
X1575525D02*
D03*
X1570525D02*
D03*
X1565525D02*
D03*
D46*
X1387768Y160980D02*
D03*
X1343768D02*
D03*
X1387768Y133980D02*
D03*
X1343768D02*
D03*
X765732Y97760D02*
D03*
D47*
X1387768Y157240D02*
D03*
Y153500D02*
D03*
X1396232D02*
D03*
Y160980D02*
D03*
X1343768Y157240D02*
D03*
Y153500D02*
D03*
X1352232D02*
D03*
Y160980D02*
D03*
X1387768Y130240D02*
D03*
Y126500D02*
D03*
X1396232D02*
D03*
Y133980D02*
D03*
X1343768Y130240D02*
D03*
Y126500D02*
D03*
X1352232D02*
D03*
Y133980D02*
D03*
X765732Y101500D02*
D03*
Y105240D02*
D03*
X757268D02*
D03*
Y97760D02*
D03*
D48*
X802134Y97000D02*
D03*
X793866Y93260D02*
D03*
Y100740D02*
D03*
X802634Y116000D02*
D03*
X794366Y112260D02*
D03*
Y119740D02*
D03*
X889634Y46020D02*
D03*
Y53500D02*
D03*
X881366Y49760D02*
D03*
X889634Y62861D02*
D03*
Y70341D02*
D03*
X881366Y66601D02*
D03*
X889768Y79760D02*
D03*
Y87240D02*
D03*
X881500Y83500D02*
D03*
D49*
X807374Y15854D02*
D03*
X832571D02*
D03*
X762638D02*
D03*
X787835D02*
D03*
D50*
X805209Y6209D02*
D03*
X834736D02*
D03*
X760472D02*
D03*
X790000D02*
D03*
D51*
X815445D02*
D03*
X824500D02*
D03*
X770709D02*
D03*
X779764D02*
D03*
D52*
X757654Y120366D02*
D03*
X753913Y128634D02*
D03*
X761394D02*
D03*
X918114Y72500D02*
D03*
X910634D02*
D03*
X914374Y64232D02*
D03*
X935114Y72500D02*
D03*
X927634D02*
D03*
X931374Y64232D02*
D03*
D53*
X1159425Y107976D02*
D03*
X1161984D02*
D03*
X1164543D02*
D03*
X1167102D02*
D03*
X1169661D02*
D03*
X1172221D02*
D03*
X1174780D02*
D03*
X1177339D02*
D03*
X1179898D02*
D03*
X1182457D02*
D03*
X1185016D02*
D03*
X1187575D02*
D03*
X1159425Y130024D02*
D03*
X1161984D02*
D03*
X1164543D02*
D03*
X1167102D02*
D03*
X1169661D02*
D03*
X1172221D02*
D03*
X1174780D02*
D03*
X1177339D02*
D03*
X1179898D02*
D03*
X1182457D02*
D03*
X1185016D02*
D03*
X1187575D02*
D03*
D54*
X1316075Y117382D02*
D03*
Y115413D02*
D03*
Y113445D02*
D03*
Y111476D02*
D03*
Y109508D02*
D03*
Y107539D02*
D03*
Y105571D02*
D03*
Y103602D02*
D03*
Y101634D02*
D03*
Y99665D02*
D03*
X1337925Y117382D02*
D03*
Y115413D02*
D03*
Y113445D02*
D03*
Y111476D02*
D03*
Y109508D02*
D03*
Y107539D02*
D03*
Y105571D02*
D03*
Y103602D02*
D03*
Y101634D02*
D03*
Y99665D02*
D03*
M02*
