M48
;Layer_Color=9474304
;FILE_FORMAT=2:5
INCH,LZ
;TYPE=PLATED
T1F00S00C0.01400
T2F00S00C0.03543
T3F00S00C0.05118
T4F00S00C0.12598
T5F00S00C0.15000
%
T01
X04565Y01445
Y0151
X04875Y01685
X0499435Y0157065
X05425Y0158
X0542Y01785
X0542406Y0190157
X05365Y018875
X0530594Y0190157
X0526657Y0194095
X052525Y02
X0526657Y0205906
X0530594Y0209842
X05365Y021125
X0542406Y0209842
X0546343Y0205906
X054775Y02
X0546343Y0194095
X0547Y02235
Y02435
X0501Y02195
X04985Y02045
X0471Y0225
X0446343Y0205906
X044775Y02
X0446343Y0194095
X0442406Y0190157
X04365Y018875
X0430594Y0190157
X0426657Y0194095
X042525Y02
X0426657Y0205906
X0430594Y0209842
X04365Y021125
X0442406Y0209842
X0422Y02145
X0417
X04205Y0172
X0422Y0165
X04185Y0161
X0428Y01705
X0432Y0174
X04415Y01615
X04465Y01825
T02
X039Y0183051
Y0192028
Y0201004
Y020998
Y0218957
X04Y0214469
Y0205492
Y0196516
Y0187539
Y0178563
X041Y0183051
Y0192028
Y0201004
Y020998
Y0218957
T03
X05875Y015113
Y0170815
Y01905
Y0210185
Y022987
Y0249555
T04
X04Y0150807
Y0249193
T05
X05365Y02
X04365
M30
