G04*
G04 #@! TF.GenerationSoftware,Altium Limited,Altium Designer,20.1.14 (287)*
G04*
G04 Layer_Color=65535*
%FSLAX25Y25*%
%MOIN*%
G70*
G04*
G04 #@! TF.SameCoordinates,812AF3B6-9DBB-4E22-AB82-19E7777D9F63*
G04*
G04*
G04 #@! TF.FilePolarity,Positive*
G04*
G01*
G75*
%ADD10C,0.02362*%
%ADD11C,0.00984*%
%ADD12C,0.01000*%
%ADD13C,0.00787*%
%ADD14C,0.01200*%
G36*
X405000Y185000D02*
X396428D01*
Y185000D01*
X389000D01*
Y229977D01*
X396428D01*
Y229977D01*
X405000D01*
Y185000D01*
D02*
G37*
%LPC*%
G36*
X390971Y227977D02*
X390952D01*
X390869Y227968D01*
X390814Y227941D01*
X390777Y227913D01*
X390767Y227904D01*
X390730Y227857D01*
X390693Y227802D01*
X390666Y227681D01*
X390656Y227626D01*
X390647Y227580D01*
Y222751D01*
D01*
Y223241D01*
X390656Y223149D01*
Y223084D01*
X390666Y223029D01*
X390675Y222992D01*
Y222964D01*
X390684Y222945D01*
X390721Y222890D01*
X390758Y222853D01*
X390786Y222825D01*
X390804Y222816D01*
X390860Y222788D01*
X390915Y222779D01*
X390952Y222770D01*
X390971D01*
X391036Y222779D01*
X391091Y222797D01*
X391128Y222807D01*
X391137Y222816D01*
X391184Y222862D01*
X391211Y222908D01*
X391230Y222945D01*
X391239Y222955D01*
X391285Y223075D01*
X391313Y223140D01*
X391341Y223186D01*
X391359Y223214D01*
X391369Y223223D01*
X391387Y223241D01*
X391415Y223260D01*
X391480Y223306D01*
X391535Y223343D01*
X391554Y223353D01*
X391563D01*
X396317Y226109D01*
Y227358D01*
X394440D01*
X390647Y225166D01*
Y226535D01*
X390656Y226414D01*
X390684Y226322D01*
X390712Y226266D01*
X390721Y226257D01*
Y226248D01*
X390786Y226192D01*
X390860Y226165D01*
X390915Y226155D01*
X390934D01*
X390943D01*
X391008Y226165D01*
X391063Y226174D01*
X391100Y226183D01*
X391110Y226192D01*
X391156Y226238D01*
X391193Y226285D01*
X391221Y226331D01*
X391230Y226349D01*
X391276Y226433D01*
X391322Y226498D01*
X391369Y226553D01*
X391406Y226590D01*
X391452Y226627D01*
X391480Y226645D01*
X391498Y226664D01*
X391507D01*
X391572Y226692D01*
X391646Y226719D01*
X391803Y226747D01*
X391868Y226757D01*
X391924D01*
X391961D01*
X391979D01*
X393117D01*
X393903Y227358D01*
X391979D01*
X391877D01*
X391794Y227367D01*
X391711Y227385D01*
X391646Y227395D01*
X391591Y227413D01*
X391554Y227422D01*
X391526Y227432D01*
X391517D01*
X391461Y227469D01*
X391415Y227506D01*
X391332Y227598D01*
X391304Y227635D01*
X391285Y227672D01*
X391267Y227691D01*
Y227700D01*
X391239Y227755D01*
X391211Y227802D01*
X391165Y227876D01*
X391137Y227913D01*
X391128Y227922D01*
X391073Y227959D01*
X391017Y227968D01*
X390971Y227977D01*
D02*
G37*
G36*
X396049Y224564D02*
X396040D01*
X396031D01*
X395975Y224555D01*
X395920Y224536D01*
X395846Y224490D01*
X395799Y224435D01*
X395781Y224416D01*
Y224407D01*
X395716Y224287D01*
X395633Y224176D01*
X395550Y224093D01*
X395513Y224065D01*
X395485Y224046D01*
X395466Y224028D01*
X395457D01*
X395392Y224000D01*
X395318Y223981D01*
X395180Y223954D01*
X395115D01*
X395069Y223944D01*
X395032D01*
X395022D01*
X392849D01*
X392072Y223343D01*
X395022D01*
X395198Y223334D01*
X395346Y223297D01*
X395466Y223251D01*
X395559Y223204D01*
X395633Y223149D01*
X395679Y223103D01*
X395707Y223066D01*
X395716Y223057D01*
X395753Y222992D01*
X395781Y222927D01*
X395809Y222890D01*
X395827Y222853D01*
X395846Y222825D01*
X395864Y222807D01*
X395873Y222797D01*
X395920Y222770D01*
X395975Y222761D01*
X396012Y222751D01*
X396317D01*
X396031D01*
X396077Y222761D01*
X396123Y222770D01*
X396197Y222825D01*
X396243Y222890D01*
X396280Y222973D01*
X396299Y223057D01*
X396308Y223130D01*
X396317Y223177D01*
Y224213D01*
X396308Y224277D01*
X396299Y224333D01*
X396280Y224370D01*
X396271Y224407D01*
X396262Y224426D01*
X396253Y224444D01*
X396216Y224481D01*
X396179Y224518D01*
X396105Y224546D01*
X396049Y224564D01*
D02*
G37*
G36*
X396419Y222317D02*
X393561D01*
D01*
X396419D01*
D02*
G37*
G36*
X393561D02*
X393496D01*
X393228Y222307D01*
X392978Y222280D01*
X392738Y222233D01*
X392525Y222187D01*
X392312Y222113D01*
X392127Y222048D01*
X391951Y221965D01*
X391803Y221891D01*
X391665Y221808D01*
X391544Y221725D01*
X391443Y221660D01*
X391350Y221595D01*
X391285Y221539D01*
X391239Y221493D01*
X391211Y221465D01*
X391202Y221456D01*
X391091Y221336D01*
X390999Y221216D01*
X390915Y221095D01*
X390851Y220994D01*
X390795Y220901D01*
X390758Y220827D01*
X390740Y220781D01*
X390730Y220762D01*
X390675Y220615D01*
X390629Y220457D01*
X390601Y220309D01*
X390573Y220161D01*
X390564Y220041D01*
X390555Y219939D01*
X390545Y219902D01*
Y222317D01*
D01*
D01*
Y217229D01*
Y219689D01*
X390555Y219495D01*
X390582Y219310D01*
X390610Y219153D01*
X390647Y219023D01*
X390675Y218913D01*
X390703Y218829D01*
X390721Y218783D01*
X390730Y218764D01*
X390795Y218626D01*
X390869Y218496D01*
X390952Y218385D01*
X391026Y218284D01*
X391091Y218191D01*
X391147Y218126D01*
X391184Y218089D01*
X391202Y218071D01*
X391369Y217923D01*
X391535Y217793D01*
X391702Y217682D01*
X391859Y217590D01*
X391998Y217525D01*
X392053Y217497D01*
X392099Y217470D01*
X392146Y217451D01*
X392173Y217442D01*
X392192Y217432D01*
X392201D01*
X392423Y217368D01*
X392645Y217312D01*
X392867Y217275D01*
X393061Y217257D01*
X393154Y217248D01*
X393237Y217238D01*
X393311D01*
X393376Y217229D01*
X390545D01*
X396419D01*
X393496D01*
X393755Y217238D01*
X394005Y217266D01*
X394236Y217303D01*
X394449Y217358D01*
X394652Y217414D01*
X394837Y217488D01*
X395004Y217553D01*
X395152Y217636D01*
X395291Y217710D01*
X395402Y217784D01*
X395503Y217849D01*
X395587Y217904D01*
X395651Y217960D01*
X395698Y217997D01*
X395725Y218024D01*
X395735Y218034D01*
X395846Y218154D01*
X395938Y218284D01*
X396021Y218422D01*
X396095Y218561D01*
X396160Y218700D01*
X396216Y218839D01*
X396308Y219097D01*
X396336Y219218D01*
X396364Y219329D01*
X396382Y219430D01*
X396401Y219523D01*
X396410Y219588D01*
Y219643D01*
X396419Y219680D01*
Y219782D01*
Y219689D01*
X395846D01*
X395818Y219606D01*
X395790Y219542D01*
X395762Y219495D01*
X395735Y219458D01*
X395716Y219430D01*
X395698Y219412D01*
X395679Y219393D01*
X395624Y219366D01*
X395559Y219347D01*
X395411Y219329D01*
X395346Y219320D01*
X395291D01*
X395254D01*
X395235D01*
X391628D01*
X391554D01*
X391480Y219329D01*
X391424Y219338D01*
X391378Y219356D01*
X391350Y219366D01*
X391322Y219375D01*
X391304Y219384D01*
X391267Y219412D01*
X391230Y219458D01*
X391174Y219560D01*
X391147Y219606D01*
X391137Y219653D01*
X391119Y219680D01*
Y219689D01*
X390545D01*
Y219847D01*
X391119D01*
X391137Y219902D01*
X391165Y219949D01*
X391193Y220023D01*
X391211Y220059D01*
X391221Y220069D01*
X391258Y220106D01*
X391285Y220133D01*
X391322Y220152D01*
X391332Y220161D01*
X391424Y220198D01*
X391517Y220217D01*
X391563Y220226D01*
X391600D01*
X391618D01*
X391628D01*
X395235D01*
X395346D01*
X395439Y220208D01*
X395513Y220198D01*
X395577Y220180D01*
X395624Y220161D01*
X395661Y220143D01*
X395679Y220133D01*
X395688Y220124D01*
X395725Y220096D01*
X395753Y220069D01*
X395762Y220050D01*
X395772Y220041D01*
X395781Y220023D01*
X395790Y219995D01*
X395818Y219930D01*
X395827Y219875D01*
X395836Y219856D01*
Y219847D01*
X396419D01*
Y219782D01*
Y219847D01*
Y219865D01*
Y219847D01*
X396401Y220032D01*
X396373Y220217D01*
X396336Y220383D01*
X396280Y220540D01*
X396234Y220689D01*
X396169Y220818D01*
X396114Y220948D01*
X396049Y221059D01*
X395994Y221151D01*
X395938Y221244D01*
X395883Y221318D01*
X395836Y221382D01*
X395790Y221428D01*
X395762Y221465D01*
X395744Y221484D01*
X395735Y221493D01*
X395577Y221641D01*
X395402Y221761D01*
X395226Y221872D01*
X395041Y221965D01*
X394856Y222048D01*
X394671Y222113D01*
X394486Y222168D01*
X394310Y222215D01*
X394144Y222252D01*
X393986Y222270D01*
X393848Y222289D01*
X393727Y222307D01*
X393635D01*
X393561Y222317D01*
D02*
G37*
G36*
X399523Y221142D02*
X399412D01*
X399209Y221132D01*
X399015Y221095D01*
X398848Y221049D01*
X398709Y220994D01*
X398589Y220938D01*
X398506Y220892D01*
X398450Y220855D01*
X398432Y220846D01*
X398293Y220735D01*
X398173Y220615D01*
X398071Y220485D01*
X397988Y220365D01*
X397923Y220254D01*
X397877Y220170D01*
X397858Y220133D01*
X397849Y220106D01*
X397840Y220096D01*
Y220087D01*
X397812Y220004D01*
X397784Y219912D01*
X397747Y219699D01*
X397710Y219477D01*
X397692Y219255D01*
X397683Y219051D01*
Y218968D01*
X397673Y218894D01*
Y218737D01*
X398275D01*
X398284Y218820D01*
X398302Y218885D01*
X398321Y218950D01*
X398339Y218987D01*
X398358Y219023D01*
X398376Y219042D01*
X398386Y219060D01*
X398441Y219116D01*
X398487Y219144D01*
X398524Y219162D01*
X398543Y219172D01*
X398571Y219181D01*
X398617Y219190D01*
X398691Y219199D01*
X398737D01*
X398765D01*
X398783D01*
X398793D01*
X400078D01*
X400162D01*
X400245Y219190D01*
X400310Y219181D01*
X400365Y219162D01*
X400402Y219153D01*
X400430Y219134D01*
X400448Y219125D01*
X400458D01*
X400513Y219088D01*
X400550Y219060D01*
X400569Y219033D01*
X400578Y219023D01*
X400587Y218996D01*
X400606Y218959D01*
X400633Y218866D01*
X400643Y218829D01*
X400652Y218792D01*
X400661Y218764D01*
Y218755D01*
X401244D01*
Y218913D01*
X401235Y219051D01*
X401225Y219190D01*
X401216Y219301D01*
X401207Y219412D01*
X401198Y219504D01*
X401179Y219588D01*
X401170Y219662D01*
X401151Y219726D01*
X401142Y219782D01*
X401133Y219828D01*
X401114Y219865D01*
X401105Y219902D01*
X401096Y219921D01*
X401013Y220143D01*
X400911Y220337D01*
X400809Y220494D01*
X400707Y220624D01*
X400615Y220725D01*
X400541Y220790D01*
X400495Y220836D01*
X400476Y220846D01*
X400310Y220948D01*
X400134Y221022D01*
X399958Y221068D01*
X399792Y221105D01*
X399634Y221123D01*
X399579Y221132D01*
X399523Y221142D01*
D02*
G37*
G36*
X397673Y218737D02*
D01*
Y218598D01*
Y218737D01*
D02*
G37*
G36*
X403075Y219088D02*
X403057D01*
X403048D01*
X402964Y219079D01*
X402900Y219042D01*
X402844Y218996D01*
X402807Y218940D01*
X402779Y218876D01*
X402752Y218829D01*
X402742Y218792D01*
Y218783D01*
X402724Y218718D01*
X402715Y218681D01*
X402705Y218672D01*
Y218663D01*
X402696Y218644D01*
X402678Y218626D01*
X402659Y218617D01*
X402650Y218607D01*
X402641Y218598D01*
X402622D01*
X402567Y218589D01*
X402520D01*
X402511D01*
X402502D01*
X397673D01*
Y218598D01*
Y216591D01*
X397683Y216471D01*
X397710Y216387D01*
X397747Y216332D01*
X397757Y216322D01*
Y216313D01*
X397784Y216276D01*
X397821Y216258D01*
X397886Y216221D01*
X397942Y216212D01*
X397673D01*
D01*
X403344D01*
D01*
X403057D01*
X403112Y216221D01*
X403149Y216230D01*
X403223Y216267D01*
X403260Y216295D01*
X403279Y216313D01*
X403316Y216396D01*
X403334Y216489D01*
X403344Y216526D01*
Y218709D01*
X403334Y218764D01*
X403325Y218820D01*
X403316Y218857D01*
X403307Y218894D01*
X403297Y218913D01*
X403288Y218931D01*
X403251Y218987D01*
X403214Y219023D01*
X403168Y219051D01*
X403131Y219070D01*
X403075Y219088D01*
D02*
G37*
G36*
X392377Y216646D02*
X392349D01*
X392331D01*
X392321D01*
X390989D01*
X390860Y216637D01*
X390767Y216609D01*
X390730Y216600D01*
X390703Y216582D01*
X390693Y216572D01*
X390684D01*
X390647Y216545D01*
X390619Y216508D01*
X390582Y216434D01*
X390573Y216369D01*
Y216341D01*
X390582Y216295D01*
X390592Y216248D01*
X390638Y216175D01*
X390693Y216128D01*
X390703Y216110D01*
X390712D01*
X390841Y216017D01*
Y215952D01*
X390832Y215915D01*
X390823Y215888D01*
Y215879D01*
X390777Y215768D01*
X390740Y215666D01*
X390703Y215573D01*
X390675Y215499D01*
X390656Y215444D01*
X390647Y215398D01*
X390638Y215370D01*
Y215360D01*
X390619Y215286D01*
X390601Y215203D01*
X390582Y215037D01*
X390573Y214953D01*
X390564Y214898D01*
Y214843D01*
X391156D01*
X391202Y215009D01*
X391248Y215157D01*
X391304Y215277D01*
X391350Y215388D01*
X391396Y215462D01*
X391424Y215527D01*
X391452Y215564D01*
X391461Y215573D01*
X391563Y215629D01*
X391655Y215684D01*
X391739Y215721D01*
X391803Y215758D01*
X391859Y215795D01*
X391905Y215814D01*
X391933Y215832D01*
X391942D01*
X392090Y215897D01*
X392210Y215943D01*
X392266Y215962D01*
X392303Y215971D01*
X392331Y215980D01*
X392340D01*
X392405Y215999D01*
X392460Y216008D01*
X392497Y216026D01*
X392506D01*
X392543Y216054D01*
X392571Y216073D01*
X392590Y216091D01*
X392599Y216101D01*
X392645Y216175D01*
X392664Y216248D01*
X392673Y216295D01*
Y216313D01*
X392664Y216369D01*
X392654Y216415D01*
X392617Y216489D01*
X392590Y216535D01*
X392571Y216554D01*
X392488Y216609D01*
X392405Y216637D01*
X392377Y216646D01*
D02*
G37*
G36*
X396419Y216831D02*
Y214750D01*
X396410Y214861D01*
X396391Y214972D01*
X396382Y215065D01*
X396364Y215148D01*
X396354Y215203D01*
X396345Y215249D01*
Y215259D01*
X396317Y215370D01*
X396280Y215472D01*
X396243Y215573D01*
X396216Y215647D01*
X396188Y215721D01*
X396160Y215768D01*
X396151Y215805D01*
X396142Y215814D01*
X396040Y215980D01*
X395920Y216128D01*
X395799Y216258D01*
X395688Y216359D01*
X395587Y216443D01*
X395503Y216508D01*
X395448Y216545D01*
X395439Y216554D01*
X395429D01*
X395254Y216646D01*
X395087Y216711D01*
X394921Y216767D01*
X394763Y216794D01*
X394634Y216813D01*
X394532Y216831D01*
X394440D01*
X394310Y216822D01*
X394181Y216804D01*
X394051Y216776D01*
X393940Y216739D01*
X393718Y216646D01*
X393533Y216545D01*
X393450Y216489D01*
X393385Y216443D01*
X393320Y216387D01*
X393265Y216350D01*
X393228Y216313D01*
X393200Y216285D01*
X393182Y216267D01*
X393172Y216258D01*
X393108Y216212D01*
X393052Y216165D01*
X392950Y216054D01*
X392913Y216008D01*
X392886Y215971D01*
X392876Y215943D01*
X392867Y215934D01*
X392821Y215851D01*
X392765Y215758D01*
X392719Y215666D01*
X392673Y215573D01*
X392627Y215490D01*
X392599Y215425D01*
X392580Y215379D01*
X392571Y215360D01*
X392525Y215259D01*
X392488Y215157D01*
X392414Y215000D01*
X392349Y214861D01*
X392303Y214759D01*
X392266Y214685D01*
X392238Y214639D01*
X392220Y214611D01*
Y214602D01*
X392173Y214528D01*
X392127Y214463D01*
X392090Y214408D01*
X392053Y214362D01*
X392016Y214324D01*
X391988Y214306D01*
X391979Y214297D01*
X391970Y214287D01*
X391859Y214232D01*
X391757Y214204D01*
X391720D01*
X391683Y214195D01*
X391665D01*
X391655D01*
X391591Y214204D01*
X391535Y214213D01*
X391443Y214250D01*
X391406Y214269D01*
X391378Y214287D01*
X391369Y214306D01*
X391359D01*
X391313Y214352D01*
X391276Y214417D01*
X391211Y214546D01*
X391184Y214611D01*
X391165Y214657D01*
X391156Y214694D01*
Y214704D01*
X390545D01*
X390573Y214408D01*
X390619Y214149D01*
X390684Y213927D01*
X390712Y213825D01*
X390749Y213742D01*
X390786Y213658D01*
X390814Y213584D01*
X390841Y213529D01*
X390869Y213483D01*
X390897Y213446D01*
X390906Y213409D01*
X390925Y213400D01*
Y213390D01*
X391026Y213261D01*
X391128Y213150D01*
X391239Y213057D01*
X391350Y212974D01*
X391443Y212918D01*
X391517Y212872D01*
X391563Y212844D01*
X391572Y212835D01*
X391581D01*
X391739Y212771D01*
X391896Y212724D01*
X392044Y212687D01*
X392173Y212669D01*
X392294Y212650D01*
X392386Y212641D01*
X390545D01*
X392469D01*
X392645Y212650D01*
X392802Y212678D01*
X392960Y212715D01*
X393108Y212761D01*
X393237Y212826D01*
X393367Y212891D01*
X393478Y212965D01*
X393579Y213039D01*
X393672Y213113D01*
X393755Y213187D01*
X393820Y213251D01*
X393885Y213316D01*
X393931Y213363D01*
X393959Y213400D01*
X393977Y213427D01*
X393986Y213437D01*
X394070Y213557D01*
X394134Y213668D01*
X394162Y213714D01*
X394181Y213751D01*
X394199Y213770D01*
Y213779D01*
X394236Y213862D01*
X394282Y213964D01*
X394338Y214084D01*
X394393Y214195D01*
X394440Y214306D01*
X394477Y214389D01*
X394495Y214426D01*
X394504Y214454D01*
X394514Y214463D01*
Y214473D01*
X394588Y214620D01*
X394643Y214750D01*
X394699Y214852D01*
X394745Y214935D01*
X394782Y214990D01*
X394810Y215037D01*
X394828Y215055D01*
X394837Y215065D01*
X394902Y215139D01*
X394976Y215185D01*
X395041Y215222D01*
X395106Y215249D01*
X395161Y215268D01*
X395207Y215277D01*
X395235D01*
X395244D01*
X395318Y215268D01*
X395392Y215259D01*
X395457Y215231D01*
X395503Y215212D01*
X395540Y215185D01*
X395568Y215157D01*
X395587Y215148D01*
X395596Y215139D01*
X395642Y215083D01*
X395688Y215000D01*
X395762Y214833D01*
X395790Y214750D01*
X395809Y214685D01*
X395818Y214639D01*
X395827Y214620D01*
X396419D01*
Y214491D01*
X395818D01*
X395790Y214362D01*
X395762Y214250D01*
X395725Y214158D01*
X395688Y214075D01*
X395661Y214019D01*
X395633Y213973D01*
X395624Y213945D01*
X395614Y213936D01*
X395513Y213843D01*
X395420Y213760D01*
X395328Y213696D01*
X395235Y213631D01*
X395170Y213575D01*
X395106Y213538D01*
X395069Y213520D01*
X395059Y213510D01*
X394837Y213400D01*
X394726Y213363D01*
X394625Y213326D01*
X394541Y213298D01*
X394477Y213279D01*
X394440Y213261D01*
X394421D01*
X394319Y213224D01*
X394255Y213187D01*
X394208Y213150D01*
X394199Y213141D01*
X394153Y213085D01*
X394134Y213011D01*
X394125Y212955D01*
Y212891D01*
X394144Y212854D01*
X394181Y212780D01*
X394218Y212743D01*
X394227Y212724D01*
X394236D01*
X394319Y212678D01*
X394403Y212650D01*
X394430D01*
X394458Y212641D01*
X396419D01*
Y216831D01*
D02*
G37*
G36*
X403445Y215656D02*
D01*
Y213455D01*
X403427Y213594D01*
X403408Y213714D01*
X403381Y213816D01*
X403362Y213899D01*
X403334Y213973D01*
X403325Y214019D01*
X403307Y214047D01*
Y214056D01*
X403223Y214213D01*
X403131Y214343D01*
X403029Y214463D01*
X402927Y214556D01*
X402844Y214630D01*
X402770Y214685D01*
X402724Y214722D01*
X402705Y214732D01*
X402548Y214833D01*
X402363Y214907D01*
X402178Y214963D01*
X402002Y215000D01*
X401845Y215018D01*
X401780Y215027D01*
X401725Y215037D01*
X401669D01*
X401632D01*
X401614D01*
X401605D01*
X398968D01*
X398811Y215046D01*
X398737Y215065D01*
X398682Y215083D01*
X398626Y215092D01*
X398589Y215111D01*
X398571Y215120D01*
X398561D01*
X398497Y215157D01*
X398441Y215203D01*
X398358Y215286D01*
X398330Y215323D01*
X398312Y215351D01*
X398293Y215370D01*
Y215379D01*
X398265Y215435D01*
X398238Y215472D01*
X398210Y215509D01*
X398201Y215527D01*
X398182Y215546D01*
X398173Y215555D01*
X398136Y215592D01*
X398099Y215610D01*
X398034Y215647D01*
X397979Y215656D01*
X397960D01*
X397905Y215647D01*
X397858Y215629D01*
X397784Y215582D01*
X397747Y215527D01*
X397729Y215509D01*
Y215499D01*
X397701Y215462D01*
X397692Y215425D01*
X397683Y215398D01*
Y215388D01*
X397673Y215333D01*
Y214213D01*
X397683Y214084D01*
X397701Y213991D01*
X397720Y213954D01*
X397729Y213927D01*
X397738Y213917D01*
Y213908D01*
X397766Y213871D01*
X397803Y213853D01*
X397868Y213816D01*
X397923Y213807D01*
X397942D01*
X397951D01*
X398034Y213816D01*
X398090Y213834D01*
X398127Y213843D01*
X398136Y213853D01*
X398182Y213908D01*
X398228Y213973D01*
X398265Y214029D01*
X398275Y214038D01*
Y214047D01*
X398358Y214177D01*
X398469Y214269D01*
X398580Y214343D01*
X398691Y214389D01*
X398802Y214417D01*
X398885Y214426D01*
X398922Y214436D01*
X398950D01*
X398959D01*
X398968D01*
X401605D01*
X401808Y214426D01*
X401993Y214389D01*
X402160Y214334D01*
X402308Y214278D01*
X402428Y214223D01*
X402520Y214167D01*
X402548Y214149D01*
X402576Y214130D01*
X402585Y214121D01*
X402594D01*
X402641Y214029D01*
X402668Y213927D01*
X402705Y213816D01*
X402724Y213705D01*
X402742Y213603D01*
X402761Y213529D01*
X402770Y213474D01*
Y213455D01*
X403445D01*
Y213261D01*
X402789D01*
X402761Y213187D01*
X402742Y213122D01*
X402724Y213067D01*
X402705Y213030D01*
X402696Y213002D01*
Y212983D01*
X402687Y212974D01*
X402650Y212937D01*
X402604Y212909D01*
X402576Y212891D01*
X402557Y212881D01*
X402493Y212854D01*
X402428Y212835D01*
X402372Y212817D01*
X402363D01*
X402354D01*
X402298D01*
X402224Y212807D01*
X402067D01*
X401993D01*
X401928D01*
X401891D01*
X401873D01*
X398497D01*
X398423Y212817D01*
X398376Y212826D01*
X398349Y212835D01*
X398339D01*
X398321Y212844D01*
Y212854D01*
X398312Y212863D01*
Y212881D01*
X398293Y212918D01*
X398275Y212965D01*
X398265Y212974D01*
Y212983D01*
X398228Y213057D01*
X398191Y213113D01*
X398145Y213159D01*
X398090Y213187D01*
X398053Y213205D01*
X398016Y213214D01*
X397988D01*
X397979D01*
X397905Y213205D01*
X397849Y213187D01*
X397812Y213159D01*
X397803Y213150D01*
X397757Y213094D01*
X397720Y213039D01*
X397710Y213002D01*
X397701Y212993D01*
Y212983D01*
X397673Y212817D01*
Y210809D01*
X397683Y210699D01*
X397710Y210606D01*
X397747Y210550D01*
X397757Y210541D01*
Y210532D01*
X397784Y210495D01*
X397821Y210476D01*
X397895Y210439D01*
X397951Y210430D01*
X397673D01*
D01*
X403445D01*
Y215656D01*
D02*
G37*
G36*
X390545Y216831D02*
Y212641D01*
Y214704D01*
Y216831D01*
D02*
G37*
G36*
X395503Y212271D02*
X390647D01*
Y209912D01*
Y212271D01*
X395439D01*
X395402Y212252D01*
X395337Y212225D01*
X395291Y212188D01*
X395272Y212178D01*
Y212169D01*
X395235Y212132D01*
X395217Y212095D01*
X395180Y212031D01*
X395170Y211984D01*
Y211966D01*
X395180Y211910D01*
X395198Y211864D01*
X395263Y211771D01*
X395300Y211735D01*
X395328Y211707D01*
X395346Y211698D01*
X395355Y211688D01*
X395383Y211661D01*
X395374D01*
X395365D01*
X395355D01*
X394514D01*
X394440D01*
X394366Y211642D01*
X394301Y211633D01*
X394245Y211614D01*
X394190Y211596D01*
X394153Y211577D01*
X394134Y211568D01*
X394125Y211559D01*
X393986Y211466D01*
X393885Y211374D01*
X393838Y211328D01*
X393811Y211291D01*
X393792Y211272D01*
X393783Y211263D01*
X393700Y211133D01*
X393644Y211013D01*
X393616Y210958D01*
X393598Y210921D01*
X393589Y210893D01*
Y210883D01*
X393542Y210717D01*
X393533Y210634D01*
X393524Y210550D01*
X393515Y210476D01*
Y210375D01*
X393505Y210495D01*
X393487Y210606D01*
X393468Y210699D01*
X393450Y210782D01*
X393431Y210846D01*
X393413Y210893D01*
X393394Y210921D01*
Y210930D01*
X393311Y211078D01*
X393265Y211142D01*
X393228Y211198D01*
X393191Y211235D01*
X393163Y211272D01*
X393145Y211291D01*
X393135Y211300D01*
X392978Y211429D01*
X392821Y211522D01*
X392654Y211596D01*
X392497Y211642D01*
X392358Y211670D01*
X392294Y211679D01*
X392247D01*
X392201Y211688D01*
X392173D01*
X392155D01*
X392146D01*
X392007Y211679D01*
X391887Y211661D01*
X391766Y211633D01*
X391655Y211596D01*
X391461Y211503D01*
X391295Y211402D01*
X391174Y211300D01*
X391082Y211207D01*
X391045Y211170D01*
X391026Y211142D01*
X391008Y211124D01*
Y211115D01*
X390915Y210967D01*
X390841Y210819D01*
X390786Y210671D01*
X390740Y210532D01*
X390712Y210412D01*
X390693Y210319D01*
Y210282D01*
X390684Y210255D01*
Y210236D01*
X390675Y210106D01*
X390666Y209977D01*
X390656Y209847D01*
X390647Y209727D01*
Y209912D01*
Y209727D01*
Y209274D01*
X391248D01*
X391276Y209376D01*
X391313Y209459D01*
X391341Y209524D01*
X391369Y209579D01*
X391396Y209607D01*
X391415Y209635D01*
X391424Y209653D01*
X391433D01*
X391480Y209681D01*
X391526Y209700D01*
X391637Y209727D01*
X391683Y209736D01*
X391720D01*
X391748D01*
X391757D01*
X392830D01*
X392941D01*
X393015Y209727D01*
X393052Y209718D01*
X393071Y209709D01*
X393126Y209681D01*
X393182Y209644D01*
X393219Y209607D01*
X393237Y209598D01*
X393246Y209570D01*
X393265Y209533D01*
X393283Y209431D01*
X393293Y209376D01*
X393302Y209330D01*
X393311Y209302D01*
Y209293D01*
X393885D01*
X393894Y209376D01*
X393922Y209450D01*
X393940Y209505D01*
X393968Y209552D01*
X393986Y209589D01*
X394005Y209607D01*
X394014Y209626D01*
X394023D01*
X394107Y209681D01*
X394190Y209709D01*
X394218Y209718D01*
X394245Y209727D01*
X394264D01*
X394273D01*
X394292D01*
X394319Y209736D01*
X394403D01*
X394449D01*
X394477D01*
X394504D01*
X394514D01*
X395198D01*
X395402Y209746D01*
X395577Y209783D01*
X395735Y209838D01*
X395864Y209894D01*
X395966Y209949D01*
X396040Y210005D01*
X396086Y210042D01*
X396105Y210051D01*
X396216Y210180D01*
X396290Y210329D01*
X396345Y210476D01*
X396391Y210625D01*
X396410Y210754D01*
X396419Y210856D01*
X396428Y210893D01*
Y211050D01*
X396419Y211142D01*
X396410Y211226D01*
X396391Y211291D01*
X396382Y211346D01*
X396373Y211392D01*
X396364Y211420D01*
Y211429D01*
X396308Y211577D01*
X396280Y211642D01*
X396243Y211707D01*
X396216Y211753D01*
X396188Y211790D01*
X396179Y211808D01*
X396169Y211818D01*
X396049Y211947D01*
X395938Y212049D01*
X395892Y212086D01*
X395855Y212123D01*
X395827Y212132D01*
X395818Y212141D01*
X395744Y212188D01*
X395679Y212215D01*
X395577Y212252D01*
X395531Y212262D01*
X395503Y212271D01*
D02*
G37*
G36*
X390647Y209274D02*
D01*
Y209144D01*
Y209274D01*
D02*
G37*
G36*
X403445Y210060D02*
Y207591D01*
X403427Y207775D01*
X403399Y207961D01*
X403362Y208127D01*
X403307Y208284D01*
X403260Y208432D01*
X403196Y208562D01*
X403140Y208691D01*
X403075Y208802D01*
X403020Y208895D01*
X402964Y208987D01*
X402909Y209061D01*
X402863Y209126D01*
X402816Y209172D01*
X402789Y209209D01*
X402770Y209228D01*
X402761Y209237D01*
X402604Y209385D01*
X402428Y209505D01*
X402252Y209616D01*
X402067Y209709D01*
X401882Y209792D01*
X401697Y209857D01*
X401512Y209912D01*
X401336Y209959D01*
X401170Y209996D01*
X401013Y210014D01*
X400874Y210033D01*
X400754Y210051D01*
X400661D01*
X400587Y210060D01*
X400522D01*
X400254Y210051D01*
X400004Y210023D01*
X399764Y209977D01*
X399551Y209931D01*
X399338Y209857D01*
X399153Y209792D01*
X398978Y209709D01*
X398830Y209635D01*
X398691Y209552D01*
X398571Y209468D01*
X398469Y209403D01*
X398376Y209339D01*
X398312Y209283D01*
X398265Y209237D01*
X398238Y209209D01*
X398228Y209200D01*
X398117Y209080D01*
X398025Y208960D01*
X397942Y208839D01*
X397877Y208737D01*
X397821Y208645D01*
X397784Y208571D01*
X397766Y208525D01*
X397757Y208506D01*
X397701Y208358D01*
X397655Y208201D01*
X397627Y208053D01*
X397599Y207905D01*
X397590Y207785D01*
X397581Y207683D01*
X397572Y207646D01*
Y207591D01*
X398145D01*
X398164Y207646D01*
X398191Y207692D01*
X398219Y207766D01*
X398238Y207803D01*
X398247Y207812D01*
X398284Y207850D01*
X398312Y207877D01*
X398349Y207896D01*
X398358Y207905D01*
X398450Y207942D01*
X398543Y207961D01*
X398589Y207970D01*
X398626D01*
X398645D01*
X398654D01*
X402261D01*
X402372D01*
X402465Y207951D01*
X402539Y207942D01*
X402604Y207924D01*
X402650Y207905D01*
X402687Y207887D01*
X402705Y207877D01*
X402715Y207868D01*
X402752Y207840D01*
X402779Y207812D01*
X402789Y207794D01*
X402798Y207785D01*
X402807Y207766D01*
X402816Y207738D01*
X402844Y207674D01*
X402853Y207618D01*
X402863Y207600D01*
Y207591D01*
X403445D01*
Y207433D01*
X402872D01*
X402844Y207350D01*
X402816Y207285D01*
X402789Y207239D01*
X402761Y207202D01*
X402742Y207174D01*
X402724Y207156D01*
X402705Y207137D01*
X402650Y207109D01*
X402585Y207091D01*
X402437Y207072D01*
X402372Y207063D01*
X402317D01*
X402280D01*
X402261D01*
X398654D01*
X398580D01*
X398506Y207072D01*
X398450Y207082D01*
X398404Y207100D01*
X398376Y207109D01*
X398349Y207119D01*
X398330Y207128D01*
X398293Y207156D01*
X398256Y207202D01*
X398201Y207304D01*
X398173Y207350D01*
X398164Y207396D01*
X398145Y207424D01*
Y207433D01*
X397572D01*
D01*
X397581Y207239D01*
X397609Y207054D01*
X397636Y206897D01*
X397673Y206767D01*
X397701Y206656D01*
X397729Y206573D01*
X397747Y206527D01*
X397757Y206508D01*
X397821Y206369D01*
X397895Y206240D01*
X397979Y206129D01*
X398053Y206027D01*
X398117Y205935D01*
X398173Y205870D01*
X398210Y205833D01*
X398228Y205815D01*
X398395Y205666D01*
X398561Y205537D01*
X398728Y205426D01*
X398885Y205333D01*
X399024Y205269D01*
X399079Y205241D01*
X399126Y205213D01*
X399172Y205195D01*
X399200Y205186D01*
X399218Y205176D01*
X399227D01*
X399449Y205112D01*
X399671Y205056D01*
X399893Y205019D01*
X400088Y205000D01*
X400180Y204991D01*
X400263Y204982D01*
X400337D01*
X400402Y204973D01*
X397572D01*
D01*
X403445D01*
Y210060D01*
D02*
G37*
G36*
X396049Y209644D02*
X396031D01*
X396021D01*
X395938Y209635D01*
X395873Y209598D01*
X395818Y209552D01*
X395781Y209496D01*
X395753Y209431D01*
X395725Y209385D01*
X395716Y209348D01*
Y209339D01*
X395698Y209274D01*
X395688Y209237D01*
X395679Y209228D01*
Y209219D01*
X395670Y209200D01*
X395651Y209181D01*
X395633Y209172D01*
X395624Y209163D01*
X395614Y209154D01*
X395596D01*
X395540Y209144D01*
X395494D01*
X395485D01*
X395476D01*
X390647D01*
Y207147D01*
X390656Y207026D01*
X390684Y206943D01*
X390721Y206888D01*
X390730Y206878D01*
Y206869D01*
X390758Y206832D01*
X390795Y206814D01*
X390860Y206776D01*
X390915Y206767D01*
X390647D01*
X396428D01*
X396031D01*
X396086Y206776D01*
X396123Y206786D01*
X396197Y206823D01*
X396234Y206851D01*
X396253Y206869D01*
X396290Y206952D01*
X396308Y207045D01*
X396317Y207082D01*
Y209265D01*
X396308Y209320D01*
X396299Y209376D01*
X396290Y209413D01*
X396280Y209450D01*
X396271Y209468D01*
X396262Y209487D01*
X396225Y209542D01*
X396188Y209579D01*
X396142Y209607D01*
X396105Y209626D01*
X396049Y209644D01*
D02*
G37*
G36*
X392192Y206166D02*
X392173D01*
X392164D01*
X390647D01*
Y204362D01*
X391285D01*
X391313Y204547D01*
X391350Y204704D01*
X391396Y204843D01*
X391452Y204954D01*
X391498Y205047D01*
X391535Y205102D01*
X391563Y205149D01*
X391572Y205158D01*
X391665Y205259D01*
X391766Y205343D01*
X391877Y205417D01*
X391988Y205472D01*
X392090Y205519D01*
X392164Y205556D01*
X392220Y205574D01*
X392229Y205583D01*
X392238D01*
X392331Y205620D01*
X392386Y205648D01*
X392423Y205676D01*
X392432Y205685D01*
X392460Y205740D01*
X392469Y205805D01*
X392479Y205852D01*
Y205870D01*
X392469Y205972D01*
X392432Y206036D01*
X392405Y206083D01*
X392395Y206092D01*
X392321Y206138D01*
X392247Y206157D01*
X392192Y206166D01*
D02*
G37*
G36*
X394282Y205472D02*
X394245D01*
X394218D01*
X394208D01*
X392673D01*
X392599D01*
X392543Y205463D01*
X392497Y205454D01*
X392460D01*
X392432Y205445D01*
X392414Y205435D01*
X392395Y205426D01*
X392340Y205398D01*
X392303Y205361D01*
X392275Y205315D01*
X392257Y205269D01*
X392247Y205232D01*
X392238Y205195D01*
Y205167D01*
X392247Y205084D01*
X392275Y205019D01*
X392312Y204982D01*
X392321Y204963D01*
X392395Y204917D01*
X392479Y204880D01*
X392516Y204871D01*
X392543Y204862D01*
X392562Y204853D01*
X392571D01*
X392645Y204834D01*
X392710Y204806D01*
X392765Y204788D01*
X392821Y204760D01*
X392858Y204742D01*
X392886Y204723D01*
X392895Y204714D01*
X392904Y204704D01*
X392950Y204658D01*
X392997Y204603D01*
X393071Y204483D01*
X393108Y204427D01*
X393135Y204390D01*
X393145Y204353D01*
X393154Y204344D01*
X393737D01*
X393764Y204427D01*
X393792Y204492D01*
X393820Y204556D01*
X393857Y204603D01*
X393885Y204640D01*
X393912Y204667D01*
X393922Y204677D01*
X393931Y204686D01*
X393986Y204723D01*
X394042Y204760D01*
X394171Y204816D01*
X394227Y204834D01*
X394273Y204853D01*
X394310Y204862D01*
X394319D01*
X394421Y204899D01*
X394495Y204936D01*
X394532Y204963D01*
X394551Y204973D01*
X394597Y205037D01*
X394615Y205102D01*
X394625Y205158D01*
Y205176D01*
X394615Y205232D01*
X394606Y205287D01*
X394569Y205352D01*
X394541Y205398D01*
X394523Y205408D01*
X394477Y205426D01*
X394430Y205445D01*
X394329Y205463D01*
X394282Y205472D01*
D02*
G37*
G36*
X403455Y204742D02*
D01*
Y203520D01*
X403445Y203613D01*
X403436Y203696D01*
X403418Y203761D01*
X403408Y203817D01*
X403399Y203863D01*
X403390Y203890D01*
Y203900D01*
X403334Y204048D01*
X403307Y204113D01*
X403270Y204177D01*
X403242Y204223D01*
X403214Y204260D01*
X403205Y204279D01*
X403196Y204288D01*
X403075Y204418D01*
X402964Y204520D01*
X402918Y204556D01*
X402881Y204593D01*
X402853Y204603D01*
X402844Y204612D01*
X402770Y204658D01*
X402705Y204686D01*
X402604Y204723D01*
X402557Y204732D01*
X402530Y204742D01*
X402465D01*
X402428Y204723D01*
X402363Y204695D01*
X402317Y204658D01*
X402298Y204649D01*
Y204640D01*
X402261Y204603D01*
X402243Y204566D01*
X402206Y204501D01*
X402197Y204455D01*
Y204436D01*
X402206Y204381D01*
X402224Y204334D01*
X402289Y204242D01*
X402326Y204205D01*
X402354Y204177D01*
X402372Y204168D01*
X402382Y204159D01*
X402409Y204131D01*
X402400D01*
X402391D01*
X402382D01*
X401540D01*
X401466D01*
X401392Y204113D01*
X401327Y204103D01*
X401272Y204085D01*
X401216Y204066D01*
X401179Y204048D01*
X401161Y204039D01*
X401151Y204029D01*
X401013Y203937D01*
X400911Y203844D01*
X400865Y203798D01*
X400837Y203761D01*
X400818Y203743D01*
X400809Y203733D01*
X400726Y203604D01*
X400670Y203484D01*
X400643Y203428D01*
X400624Y203391D01*
X400615Y203363D01*
Y203354D01*
X400569Y203187D01*
X400559Y203104D01*
X400550Y203021D01*
X400541Y202947D01*
Y202845D01*
X400532Y202965D01*
X400513Y203077D01*
X400495Y203169D01*
X400476Y203252D01*
X400458Y203317D01*
X400439Y203363D01*
X400421Y203391D01*
Y203400D01*
X400337Y203548D01*
X400291Y203613D01*
X400254Y203668D01*
X400217Y203706D01*
X400189Y203743D01*
X400171Y203761D01*
X400162Y203770D01*
X400004Y203900D01*
X399847Y203992D01*
X399681Y204066D01*
X399523Y204113D01*
X399385Y204140D01*
X399320Y204150D01*
X399274D01*
X399227Y204159D01*
X399200D01*
X399181D01*
X399172D01*
X399033Y204150D01*
X398913Y204131D01*
X398793Y204103D01*
X398682Y204066D01*
X398487Y203974D01*
X398321Y203872D01*
X398201Y203770D01*
X398108Y203678D01*
X398071Y203641D01*
X398053Y203613D01*
X398034Y203594D01*
Y203585D01*
X397942Y203437D01*
X397868Y203289D01*
X397812Y203141D01*
X397766Y203003D01*
X397738Y202882D01*
X397720Y202790D01*
Y202753D01*
X397710Y202725D01*
Y202707D01*
X397701Y202577D01*
X397692Y202448D01*
X397683Y202318D01*
X397673Y202198D01*
Y201745D01*
X398275D01*
X398302Y201846D01*
X398339Y201929D01*
X398367Y201994D01*
X398395Y202050D01*
X398423Y202078D01*
X398441Y202105D01*
X398450Y202124D01*
X398460D01*
X398506Y202151D01*
X398552Y202170D01*
X398663Y202198D01*
X398709Y202207D01*
X398746D01*
X398774D01*
X398783D01*
X399856D01*
X399967D01*
X400041Y202198D01*
X400078Y202188D01*
X400097Y202179D01*
X400152Y202151D01*
X400208Y202115D01*
X400245Y202078D01*
X400263Y202068D01*
X400273Y202041D01*
X400291Y202004D01*
X400310Y201902D01*
X400319Y201846D01*
X400328Y201800D01*
X400337Y201772D01*
Y201763D01*
X400911D01*
X400920Y201846D01*
X400948Y201920D01*
X400966Y201976D01*
X400994Y202022D01*
X401013Y202059D01*
X401031Y202078D01*
X401040Y202096D01*
X401050D01*
X401133Y202151D01*
X401216Y202179D01*
X401244Y202188D01*
X401272Y202198D01*
X401290D01*
X401299D01*
X401318D01*
X401346Y202207D01*
X401429D01*
X401475D01*
X401503D01*
X401531D01*
X401540D01*
X402224D01*
X402428Y202216D01*
X402604Y202253D01*
X402761Y202309D01*
X402890Y202364D01*
X402992Y202420D01*
X403066Y202475D01*
X403112Y202512D01*
X403131Y202521D01*
X403242Y202651D01*
X403316Y202799D01*
X403371Y202947D01*
X403418Y203095D01*
X403436Y203224D01*
X403445Y203326D01*
X403455Y203363D01*
Y199238D01*
X403057D01*
X403112Y199247D01*
X403149Y199256D01*
X403223Y199293D01*
X403260Y199321D01*
X403279Y199339D01*
X403316Y199423D01*
X403334Y199515D01*
X403344Y199552D01*
Y201735D01*
X403334Y201791D01*
X403325Y201846D01*
X403316Y201883D01*
X403307Y201920D01*
X403297Y201939D01*
X403288Y201957D01*
X403251Y202013D01*
X403214Y202050D01*
X403168Y202078D01*
X403131Y202096D01*
X403075Y202115D01*
X403057D01*
X403048D01*
X402964Y202105D01*
X402900Y202068D01*
X402844Y202022D01*
X402807Y201967D01*
X402779Y201902D01*
X402752Y201855D01*
X402742Y201818D01*
Y201809D01*
X402724Y201745D01*
X402715Y201708D01*
X402705Y201698D01*
Y201689D01*
X402696Y201671D01*
X402678Y201652D01*
X402659Y201643D01*
X402650Y201634D01*
X402641Y201624D01*
X402622D01*
X402567Y201615D01*
X402520D01*
X402511D01*
X402502D01*
X397673D01*
Y199617D01*
X397683Y199497D01*
X397710Y199414D01*
X397747Y199358D01*
X397757Y199349D01*
Y199339D01*
X397784Y199302D01*
X397821Y199284D01*
X397886Y199247D01*
X397942Y199238D01*
X397673D01*
D01*
X403455D01*
Y204742D01*
D02*
G37*
G36*
X396317Y206222D02*
X394819D01*
X394699Y206212D01*
X394606Y206185D01*
X394551Y206157D01*
X394532Y206148D01*
X394495Y206120D01*
X394477Y206083D01*
X394440Y206009D01*
X394430Y205953D01*
Y205925D01*
X394440Y205842D01*
X394458Y205787D01*
X394486Y205740D01*
X394495Y205731D01*
X394560Y205685D01*
X394634Y205648D01*
X394689Y205629D01*
X394708Y205620D01*
X394717D01*
X394810Y205583D01*
X394884Y205556D01*
X394948Y205519D01*
X395013Y205491D01*
X395050Y205463D01*
X395087Y205445D01*
X395106Y205435D01*
X395115Y205426D01*
X395226Y205352D01*
X395318Y205269D01*
X395355Y205232D01*
X395383Y205204D01*
X395402Y205186D01*
X395411Y205176D01*
X395503Y205056D01*
X395568Y204954D01*
X395587Y204908D01*
X395605Y204880D01*
X395614Y204862D01*
Y204853D01*
X395642Y204788D01*
X395661Y204714D01*
X395698Y204556D01*
X395716Y204483D01*
X395725Y204427D01*
X395735Y204390D01*
Y204372D01*
X396317D01*
Y204187D01*
X390647D01*
Y202188D01*
X390656Y202068D01*
X390684Y201985D01*
X390721Y201929D01*
X390730Y201920D01*
Y201911D01*
X390758Y201874D01*
X390795Y201855D01*
X390860Y201818D01*
X390915Y201809D01*
X390647D01*
X396317D01*
Y206222D01*
D02*
G37*
G36*
X390962Y201485D02*
X390943D01*
X390888Y201476D01*
X390841Y201467D01*
X390767Y201412D01*
X390721Y201365D01*
X390703Y201347D01*
Y201338D01*
X390684Y201301D01*
X390666Y201263D01*
X390656Y201171D01*
X390647Y201125D01*
Y201171D01*
Y199709D01*
Y200061D01*
X390656Y199932D01*
X390684Y199839D01*
X390703Y199802D01*
X390721Y199774D01*
X390730Y199765D01*
Y199756D01*
X390758Y199719D01*
X390795Y199691D01*
X390869Y199663D01*
X390934Y199645D01*
X390952D01*
X390962D01*
X391036Y199654D01*
X391091Y199672D01*
X391147Y199709D01*
X391184Y199747D01*
X391211Y199774D01*
X391230Y199811D01*
X391239Y199830D01*
Y199839D01*
X391285Y199969D01*
X391332Y200043D01*
X391378Y200098D01*
X391415Y200135D01*
X391424Y200144D01*
X391433D01*
X391498Y200163D01*
X391544Y200181D01*
X391581D01*
X391591D01*
X391609D01*
X391628Y200172D01*
X391692Y200153D01*
X391748Y200144D01*
X391766Y200135D01*
X391776D01*
X393496Y199663D01*
X394338Y199959D01*
X391979Y200672D01*
X391877Y200709D01*
X391785Y200736D01*
X391711Y200773D01*
X391646Y200801D01*
X391600Y200829D01*
X391563Y200847D01*
X391544Y200856D01*
X391535Y200866D01*
X391480Y200903D01*
X391433Y200949D01*
X391396Y200986D01*
X391369Y201014D01*
X391332Y201060D01*
X391322Y201079D01*
X391230Y201254D01*
X391184Y201338D01*
X391147Y201402D01*
X391119Y201430D01*
X391110Y201439D01*
X391054Y201467D01*
X390999Y201476D01*
X390962Y201485D01*
D02*
G37*
G36*
X394828Y199894D02*
X391544Y198960D01*
X391507Y198951D01*
X391470D01*
X391443D01*
X391433D01*
X391387D01*
X391350Y198960D01*
X391332Y198969D01*
X391322D01*
X391295Y198997D01*
X391267Y199034D01*
X391258Y199071D01*
X391248Y199081D01*
X391211Y199145D01*
X391165Y199191D01*
X391110Y199229D01*
X391063Y199247D01*
X391017Y199266D01*
X390989Y199275D01*
X390962D01*
X390952D01*
X390906Y199266D01*
X390860Y199256D01*
X390832Y199238D01*
X390823Y199229D01*
X390777Y199201D01*
X390740Y199173D01*
X390721Y199145D01*
X390712Y199136D01*
X390684Y199090D01*
X390675Y199044D01*
X390666Y199006D01*
Y198997D01*
X390656Y198969D01*
Y198923D01*
X390647Y198849D01*
Y196879D01*
X390656Y196814D01*
X390666Y196759D01*
X390684Y196713D01*
X390693Y196676D01*
X390712Y196648D01*
X390721Y196639D01*
Y196629D01*
X390758Y196583D01*
X390804Y196546D01*
X390841Y196528D01*
X390888Y196509D01*
X390925Y196500D01*
X390952Y196491D01*
X390647D01*
X396317D01*
X390980D01*
X391063Y196500D01*
X391119Y196518D01*
X391156Y196537D01*
X391165Y196546D01*
X391202Y196601D01*
X391239Y196666D01*
X391267Y196722D01*
X391276Y196731D01*
Y196740D01*
X391295Y196768D01*
X391313Y196786D01*
X391322Y196796D01*
X391332D01*
X391359Y196814D01*
X391396Y196833D01*
X391424Y196842D01*
X391443Y196851D01*
X396317Y198294D01*
Y199497D01*
X394828Y199894D01*
D02*
G37*
G36*
X399514Y198507D02*
X399496D01*
X397923D01*
X397812Y198498D01*
X397729Y198470D01*
X397683Y198442D01*
X397664Y198433D01*
X397627Y198405D01*
X397609Y198368D01*
X397572Y198294D01*
Y198257D01*
X397562Y198230D01*
Y198202D01*
X397572Y198146D01*
X397581Y198100D01*
X397627Y198026D01*
X397683Y197970D01*
X397692Y197961D01*
X397701Y197952D01*
X397747Y197924D01*
X397784Y197897D01*
X397831Y197860D01*
X397849Y197850D01*
X397858Y197841D01*
X397868Y197804D01*
Y197785D01*
X397858Y197748D01*
X397849Y197702D01*
X397840Y197675D01*
X397831Y197656D01*
X397766Y197471D01*
X397710Y197267D01*
X397664Y197064D01*
X397627Y196870D01*
X397599Y196703D01*
X397590Y196629D01*
X397581Y196564D01*
Y196509D01*
X397572Y196472D01*
Y196435D01*
X398173D01*
X398182Y196564D01*
X398201Y196676D01*
X398219Y196768D01*
X398238Y196842D01*
X398256Y196907D01*
X398265Y196944D01*
X398284Y196971D01*
Y196981D01*
X398321Y197055D01*
X398367Y197129D01*
X398460Y197249D01*
X398506Y197304D01*
X398543Y197342D01*
X398571Y197369D01*
X398580Y197379D01*
X398645Y197415D01*
X398709Y197452D01*
X398848Y197536D01*
X398913Y197564D01*
X398968Y197591D01*
X399005Y197610D01*
X399015Y197619D01*
X399116Y197675D01*
X399218Y197721D01*
X399301Y197758D01*
X399375Y197785D01*
X399440Y197804D01*
X399486Y197822D01*
X399514Y197832D01*
X399523D01*
X399588Y197850D01*
X399653Y197878D01*
X399699Y197897D01*
X399736Y197915D01*
X399782Y197952D01*
X399801Y197961D01*
X399847Y198026D01*
X399866Y198100D01*
X399875Y198155D01*
Y198183D01*
X399856Y198294D01*
X399819Y198368D01*
X399755Y198424D01*
X399681Y198470D01*
X399616Y198488D01*
X399551Y198498D01*
X399514Y198507D01*
D02*
G37*
G36*
X403445Y198692D02*
D01*
Y196361D01*
X403436Y196574D01*
X403427Y196676D01*
X403418Y196759D01*
X403408Y196833D01*
X403399Y196888D01*
X403390Y196925D01*
Y196934D01*
X403353Y197138D01*
X403325Y197221D01*
X403307Y197304D01*
X403279Y197369D01*
X403270Y197415D01*
X403251Y197452D01*
Y197462D01*
X403168Y197628D01*
X403131Y197712D01*
X403085Y197785D01*
X403048Y197850D01*
X403020Y197906D01*
X403001Y197943D01*
X402992Y197952D01*
X402927Y198054D01*
X402863Y198146D01*
X402798Y198230D01*
X402742Y198303D01*
X402696Y198359D01*
X402659Y198396D01*
X402631Y198424D01*
X402622Y198433D01*
X401216D01*
X401142D01*
X401096Y198442D01*
X401077D01*
X401068D01*
X401050Y198461D01*
X401022Y198479D01*
X401013Y198498D01*
X401003Y198507D01*
X400948Y198572D01*
X400902Y198618D01*
X400874Y198636D01*
X400865Y198646D01*
X400809Y198673D01*
X400754Y198683D01*
X400717Y198692D01*
X400643D01*
X400587Y198673D01*
X400513Y198636D01*
X400467Y198600D01*
X400458Y198590D01*
Y198581D01*
X400430Y198535D01*
X400411Y198488D01*
X400393Y198387D01*
X400384Y198340D01*
Y196657D01*
X400393Y196518D01*
X400411Y196463D01*
X400421Y196416D01*
X400439Y196379D01*
X400458Y196352D01*
X400467Y196343D01*
Y196333D01*
X400495Y196296D01*
X400532Y196268D01*
X400606Y196231D01*
X400661Y196213D01*
X400680D01*
X400689D01*
X400772Y196222D01*
X400837Y196250D01*
X400892Y196287D01*
X400929Y196333D01*
X400957Y196379D01*
X400976Y196416D01*
X400994Y196444D01*
Y196453D01*
X401003Y196509D01*
X401013Y196555D01*
X401022Y196583D01*
X401031Y196601D01*
X401040Y196629D01*
X401050Y196657D01*
X401059Y196666D01*
X401105Y196694D01*
X401170Y196703D01*
X401216Y196713D01*
X401225D01*
X401235D01*
X402419D01*
X402530Y196703D01*
X402622Y196685D01*
X402678Y196657D01*
X402687Y196648D01*
X402696D01*
X402733Y196629D01*
X402761Y196601D01*
X402779Y196583D01*
X402789Y196574D01*
X402798Y196555D01*
X402807Y196518D01*
X402835Y196453D01*
X402844Y196389D01*
X402853Y196370D01*
Y196361D01*
X403445D01*
Y196204D01*
X402863D01*
X402835Y196139D01*
X402807Y196083D01*
X402789Y196046D01*
X402761Y196019D01*
X402733Y195982D01*
X402724Y195973D01*
X402678Y195954D01*
X402631Y195945D01*
X402530Y195935D01*
X402493Y195926D01*
X402456D01*
X402428D01*
X402419D01*
X398663D01*
X398524Y195945D01*
X398413Y195982D01*
X398321Y196037D01*
X398256Y196102D01*
X398210Y196167D01*
X398182Y196222D01*
X398164Y196259D01*
Y196278D01*
X397572D01*
Y196167D01*
X397581Y196065D01*
Y195982D01*
X397590Y195917D01*
X397599Y195861D01*
Y195825D01*
X397609Y195797D01*
Y195788D01*
X397655Y195649D01*
X397701Y195510D01*
X397757Y195390D01*
X397812Y195279D01*
X397858Y195186D01*
X397905Y195112D01*
X397932Y195075D01*
X397942Y195057D01*
X398099Y194844D01*
X398275Y194668D01*
X398450Y194511D01*
X398626Y194381D01*
X398774Y194280D01*
X398848Y194243D01*
X398904Y194206D01*
X398950Y194187D01*
X398987Y194169D01*
X399005Y194150D01*
X399015D01*
X399274Y194049D01*
X399551Y193965D01*
X399810Y193910D01*
X400051Y193873D01*
X400162Y193863D01*
X400263Y193854D01*
X400356Y193845D01*
X400430D01*
X400495Y193836D01*
X397562D01*
D01*
X403445D01*
Y198692D01*
D02*
G37*
G36*
X392192Y196111D02*
X392173D01*
X392164D01*
X390647D01*
Y194307D01*
X391285D01*
X391313Y194492D01*
X391350Y194650D01*
X391396Y194789D01*
X391452Y194899D01*
X391498Y194992D01*
X391535Y195047D01*
X391563Y195094D01*
X391572Y195103D01*
X391665Y195205D01*
X391766Y195288D01*
X391877Y195362D01*
X391988Y195417D01*
X392090Y195464D01*
X392164Y195501D01*
X392220Y195519D01*
X392229Y195528D01*
X392238D01*
X392331Y195565D01*
X392386Y195593D01*
X392423Y195621D01*
X392432Y195630D01*
X392460Y195686D01*
X392469Y195750D01*
X392479Y195797D01*
Y195815D01*
X392469Y195917D01*
X392432Y195982D01*
X392405Y196028D01*
X392395Y196037D01*
X392321Y196083D01*
X392247Y196102D01*
X392192Y196111D01*
D02*
G37*
G36*
X394282Y195417D02*
X394245D01*
X394218D01*
X394208D01*
X392673D01*
X392599D01*
X392543Y195408D01*
X392497Y195399D01*
X392460D01*
X392432Y195390D01*
X392414Y195380D01*
X392395Y195371D01*
X392340Y195343D01*
X392303Y195307D01*
X392275Y195260D01*
X392257Y195214D01*
X392247Y195177D01*
X392238Y195140D01*
Y195112D01*
X392247Y195029D01*
X392275Y194964D01*
X392312Y194927D01*
X392321Y194909D01*
X392395Y194862D01*
X392479Y194825D01*
X392516Y194816D01*
X392543Y194807D01*
X392562Y194798D01*
X392571D01*
X392645Y194779D01*
X392710Y194752D01*
X392765Y194733D01*
X392821Y194705D01*
X392858Y194687D01*
X392886Y194668D01*
X392895Y194659D01*
X392904Y194650D01*
X392950Y194604D01*
X392997Y194548D01*
X393071Y194428D01*
X393108Y194372D01*
X393135Y194335D01*
X393145Y194298D01*
X393154Y194289D01*
X393737D01*
X393764Y194372D01*
X393792Y194437D01*
X393820Y194502D01*
X393857Y194548D01*
X393885Y194585D01*
X393912Y194613D01*
X393922Y194622D01*
X393931Y194631D01*
X393986Y194668D01*
X394042Y194705D01*
X394171Y194761D01*
X394227Y194779D01*
X394273Y194798D01*
X394310Y194807D01*
X394319D01*
X394421Y194844D01*
X394495Y194881D01*
X394532Y194909D01*
X394551Y194918D01*
X394597Y194983D01*
X394615Y195047D01*
X394625Y195103D01*
Y195122D01*
X394615Y195177D01*
X394606Y195232D01*
X394569Y195297D01*
X394541Y195343D01*
X394523Y195353D01*
X394477Y195371D01*
X394430Y195390D01*
X394329Y195408D01*
X394282Y195417D01*
D02*
G37*
G36*
X396317Y196167D02*
X394819D01*
X394699Y196158D01*
X394606Y196130D01*
X394551Y196102D01*
X394532Y196093D01*
X394495Y196065D01*
X394477Y196028D01*
X394440Y195954D01*
X394430Y195898D01*
Y195871D01*
X394440Y195788D01*
X394458Y195732D01*
X394486Y195686D01*
X394495Y195677D01*
X394560Y195630D01*
X394634Y195593D01*
X394689Y195575D01*
X394708Y195565D01*
X394717D01*
X394810Y195528D01*
X394884Y195501D01*
X394948Y195464D01*
X395013Y195436D01*
X395050Y195408D01*
X395087Y195390D01*
X395106Y195380D01*
X395115Y195371D01*
X395226Y195297D01*
X395318Y195214D01*
X395355Y195177D01*
X395383Y195149D01*
X395402Y195131D01*
X395411Y195122D01*
X395503Y195001D01*
X395568Y194899D01*
X395587Y194853D01*
X395605Y194825D01*
X395614Y194807D01*
Y194798D01*
X395642Y194733D01*
X395661Y194659D01*
X395698Y194502D01*
X395716Y194428D01*
X395725Y194372D01*
X395735Y194335D01*
Y194317D01*
X396317D01*
Y194132D01*
X390647D01*
Y192134D01*
X390656Y192014D01*
X390684Y191930D01*
X390721Y191875D01*
X390730Y191866D01*
Y191856D01*
X390758Y191819D01*
X390795Y191801D01*
X390860Y191764D01*
X390915Y191754D01*
X390647D01*
X396317D01*
Y196167D01*
D02*
G37*
G36*
X392377Y191005D02*
X392349D01*
X392331D01*
X392321D01*
X390989D01*
X390860Y190996D01*
X390767Y190968D01*
X390730Y190959D01*
X390703Y190940D01*
X390693Y190931D01*
X390684D01*
X390647Y190903D01*
X390619Y190866D01*
X390582Y190793D01*
X390573Y190728D01*
Y190700D01*
X390582Y190654D01*
X390592Y190608D01*
X390638Y190533D01*
X390693Y190487D01*
X390703Y190469D01*
X390712D01*
X390841Y190376D01*
Y190312D01*
X390832Y190275D01*
X390823Y190247D01*
Y190237D01*
X390777Y190127D01*
X390740Y190025D01*
X390703Y189932D01*
X390675Y189858D01*
X390656Y189803D01*
X390647Y189757D01*
X390638Y189729D01*
Y189719D01*
X390619Y189646D01*
X390601Y189562D01*
X390582Y189396D01*
X390573Y189313D01*
X390564Y189257D01*
Y189201D01*
X391156D01*
X391202Y189368D01*
X391248Y189516D01*
X391304Y189636D01*
X391350Y189747D01*
X391396Y189821D01*
X391424Y189886D01*
X391452Y189923D01*
X391461Y189932D01*
X391563Y189988D01*
X391655Y190043D01*
X391739Y190080D01*
X391803Y190117D01*
X391859Y190154D01*
X391905Y190173D01*
X391933Y190191D01*
X391942D01*
X392090Y190256D01*
X392210Y190302D01*
X392266Y190321D01*
X392303Y190330D01*
X392331Y190339D01*
X392340D01*
X392405Y190358D01*
X392460Y190367D01*
X392497Y190385D01*
X392506D01*
X392543Y190413D01*
X392571Y190432D01*
X392590Y190450D01*
X392599Y190460D01*
X392645Y190533D01*
X392664Y190608D01*
X392673Y190654D01*
Y190672D01*
X392664Y190728D01*
X392654Y190774D01*
X392617Y190848D01*
X392590Y190894D01*
X392571Y190913D01*
X392488Y190968D01*
X392405Y190996D01*
X392377Y191005D01*
D02*
G37*
G36*
X394532Y191190D02*
X394440D01*
X394310Y191181D01*
X394181Y191163D01*
X394051Y191135D01*
X393940Y191098D01*
X393718Y191005D01*
X393533Y190903D01*
X393450Y190848D01*
X393385Y190802D01*
X393320Y190746D01*
X393265Y190709D01*
X393228Y190672D01*
X393200Y190645D01*
X393182Y190626D01*
X393172Y190617D01*
X393108Y190570D01*
X393052Y190524D01*
X392950Y190413D01*
X392913Y190367D01*
X392886Y190330D01*
X392876Y190302D01*
X392867Y190293D01*
X392821Y190210D01*
X392765Y190117D01*
X392719Y190025D01*
X392673Y189932D01*
X392627Y189849D01*
X392599Y189784D01*
X392580Y189738D01*
X392571Y189719D01*
X392525Y189618D01*
X392488Y189516D01*
X392414Y189359D01*
X392349Y189220D01*
X392303Y189118D01*
X392266Y189044D01*
X392238Y188998D01*
X392220Y188970D01*
Y188961D01*
X392173Y188887D01*
X392127Y188822D01*
X392090Y188767D01*
X392053Y188721D01*
X392016Y188683D01*
X391988Y188665D01*
X391979Y188656D01*
X391970Y188646D01*
X391859Y188591D01*
X391757Y188563D01*
X391720D01*
X391683Y188554D01*
X391665D01*
X391655D01*
X391591Y188563D01*
X391535Y188573D01*
X391443Y188610D01*
X391406Y188628D01*
X391378Y188646D01*
X391369Y188665D01*
X391359D01*
X391313Y188711D01*
X391276Y188776D01*
X391211Y188906D01*
X391184Y188970D01*
X391165Y189016D01*
X391156Y189053D01*
Y189063D01*
X390545D01*
X390573Y188767D01*
X390619Y188508D01*
X390684Y188286D01*
X390712Y188184D01*
X390749Y188101D01*
X390786Y188017D01*
X390814Y187943D01*
X390841Y187888D01*
X390869Y187842D01*
X390897Y187805D01*
X390906Y187768D01*
X390925Y187759D01*
Y187749D01*
X391026Y187620D01*
X391128Y187509D01*
X391239Y187416D01*
X391350Y187333D01*
X391443Y187277D01*
X391517Y187231D01*
X391563Y187204D01*
X391572Y187194D01*
X391581D01*
X391739Y187129D01*
X391896Y187083D01*
X392044Y187046D01*
X392173Y187028D01*
X392294Y187009D01*
X392386Y187000D01*
X390545D01*
X392469D01*
X392645Y187009D01*
X392802Y187037D01*
X392960Y187074D01*
X393108Y187120D01*
X393237Y187185D01*
X393367Y187250D01*
X393478Y187324D01*
X393579Y187398D01*
X393672Y187472D01*
X393755Y187546D01*
X393820Y187610D01*
X393885Y187675D01*
X393931Y187722D01*
X393959Y187759D01*
X393977Y187786D01*
X393986Y187795D01*
X394070Y187916D01*
X394134Y188027D01*
X394162Y188073D01*
X394181Y188110D01*
X394199Y188128D01*
Y188138D01*
X394236Y188221D01*
X394282Y188323D01*
X394338Y188443D01*
X394393Y188554D01*
X394440Y188665D01*
X394477Y188748D01*
X394495Y188785D01*
X394504Y188813D01*
X394514Y188822D01*
Y188831D01*
X394588Y188979D01*
X394643Y189109D01*
X394699Y189211D01*
X394745Y189294D01*
X394782Y189349D01*
X394810Y189396D01*
X394828Y189414D01*
X394837Y189424D01*
X394902Y189497D01*
X394976Y189544D01*
X395041Y189581D01*
X395106Y189609D01*
X395161Y189627D01*
X395207Y189636D01*
X395235D01*
X395244D01*
X395318Y189627D01*
X395392Y189618D01*
X395457Y189590D01*
X395503Y189571D01*
X395540Y189544D01*
X395568Y189516D01*
X395587Y189507D01*
X395596Y189497D01*
X395642Y189442D01*
X395688Y189359D01*
X395762Y189192D01*
X395790Y189109D01*
X395809Y189044D01*
X395818Y188998D01*
X395827Y188979D01*
X396419D01*
Y189109D01*
X396410Y189220D01*
X396391Y189331D01*
X396382Y189424D01*
X396364Y189507D01*
X396354Y189562D01*
X396345Y189609D01*
Y189618D01*
X396317Y189729D01*
X396280Y189831D01*
X396243Y189932D01*
X396216Y190006D01*
X396188Y190080D01*
X396160Y190127D01*
X396151Y190164D01*
X396142Y190173D01*
X396040Y190339D01*
X395920Y190487D01*
X395799Y190617D01*
X395688Y190718D01*
X395587Y190802D01*
X395503Y190866D01*
X395448Y190903D01*
X395439Y190913D01*
X395429D01*
X395254Y191005D01*
X395087Y191070D01*
X394921Y191126D01*
X394763Y191153D01*
X394634Y191172D01*
X394532Y191190D01*
D02*
G37*
G36*
X396419Y188850D02*
X395818D01*
X395790Y188721D01*
X395762Y188610D01*
X395725Y188517D01*
X395688Y188434D01*
X395661Y188378D01*
X395633Y188332D01*
X395624Y188304D01*
X395614Y188295D01*
X395513Y188203D01*
X395420Y188119D01*
X395328Y188055D01*
X395235Y187990D01*
X395170Y187934D01*
X395106Y187897D01*
X395069Y187879D01*
X395059Y187870D01*
X394837Y187759D01*
X394726Y187722D01*
X394625Y187685D01*
X394541Y187657D01*
X394477Y187638D01*
X394440Y187620D01*
X394421D01*
X394319Y187583D01*
X394255Y187546D01*
X394208Y187509D01*
X394199Y187499D01*
X394153Y187444D01*
X394134Y187370D01*
X394125Y187314D01*
Y187250D01*
X394144Y187213D01*
X394181Y187139D01*
X394218Y187102D01*
X394227Y187083D01*
X394236D01*
X394319Y187037D01*
X394403Y187009D01*
X394430D01*
X394458Y187000D01*
X396419D01*
X396021D01*
X396086Y187009D01*
X396197Y187046D01*
X396271Y187092D01*
X396317Y187157D01*
X396354Y187213D01*
X396364Y187259D01*
X396373Y187296D01*
Y187305D01*
X396364Y187352D01*
X396354Y187398D01*
X396317Y187462D01*
X396280Y187509D01*
X396262Y187527D01*
X396197Y187583D01*
X396160Y187610D01*
X396142Y187629D01*
X396132Y187657D01*
X396123Y187685D01*
Y187740D01*
X396132Y187768D01*
X396142Y187786D01*
X396151Y187795D01*
X396169Y187851D01*
X396197Y187916D01*
X396225Y187971D01*
X396234Y187980D01*
Y187990D01*
X396299Y188147D01*
X396345Y188304D01*
X396373Y188443D01*
X396391Y188573D01*
X396410Y188683D01*
X396419Y188776D01*
Y188850D01*
D02*
G37*
G36*
X390545Y191190D02*
D01*
Y187000D01*
D01*
Y189063D01*
Y191190D01*
D01*
D02*
G37*
%LPD*%
G36*
X402604Y216609D02*
X402650Y216600D01*
X402678Y216591D01*
X402687Y216582D01*
X402705Y216563D01*
X402715Y216554D01*
Y216545D01*
X402724Y216526D01*
X402733Y216489D01*
X402752Y216443D01*
X402761Y216434D01*
Y216424D01*
X402798Y216350D01*
X402835Y216304D01*
X402890Y216267D01*
X402937Y216239D01*
X402983Y216221D01*
X403020Y216212D01*
X397969D01*
X398053Y216221D01*
X398117Y216248D01*
X398164Y216276D01*
X398201Y216322D01*
X398228Y216359D01*
X398247Y216387D01*
X398265Y216415D01*
Y216424D01*
X398284Y216461D01*
X398293Y216498D01*
X398312Y216535D01*
X398321Y216554D01*
X398330Y216572D01*
X398339Y216582D01*
X398386Y216600D01*
X398432Y216618D01*
X398478D01*
X398487D01*
X398497D01*
X402530D01*
X402604Y216609D01*
D02*
G37*
G36*
X396419Y212641D02*
X396021D01*
X396086Y212650D01*
X396197Y212687D01*
X396271Y212734D01*
X396317Y212798D01*
X396354Y212854D01*
X396364Y212900D01*
X396373Y212937D01*
Y212946D01*
X396364Y212993D01*
X396354Y213039D01*
X396317Y213104D01*
X396280Y213150D01*
X396262Y213168D01*
X396197Y213224D01*
X396160Y213251D01*
X396142Y213270D01*
X396132Y213298D01*
X396123Y213326D01*
Y213381D01*
X396132Y213409D01*
X396142Y213427D01*
X396151Y213437D01*
X396169Y213492D01*
X396197Y213557D01*
X396225Y213612D01*
X396234Y213621D01*
Y213631D01*
X396299Y213788D01*
X396345Y213945D01*
X396373Y214084D01*
X396391Y214213D01*
X396410Y214324D01*
X396419Y214417D01*
Y212641D01*
D02*
G37*
G36*
X403445Y210430D02*
X397979D01*
X398053Y210439D01*
X398117Y210467D01*
X398164Y210495D01*
X398201Y210541D01*
X398228Y210578D01*
X398247Y210606D01*
X398265Y210634D01*
Y210643D01*
X398284Y210680D01*
X398293Y210717D01*
X398312Y210754D01*
X398321Y210772D01*
X398330Y210791D01*
X398339Y210800D01*
X398386Y210819D01*
X398432Y210837D01*
X398478D01*
X398487D01*
X398497D01*
X401660D01*
X401854Y210846D01*
X402030Y210856D01*
X402178Y210883D01*
X402298Y210911D01*
X402391Y210930D01*
X402465Y210958D01*
X402502Y210967D01*
X402520Y210976D01*
X402622Y211032D01*
X402715Y211105D01*
X402807Y211179D01*
X402881Y211263D01*
X402937Y211328D01*
X402992Y211383D01*
X403020Y211420D01*
X403029Y211438D01*
X403103Y211568D01*
X403177Y211688D01*
X403233Y211818D01*
X403270Y211929D01*
X403307Y212031D01*
X403334Y212105D01*
X403344Y212160D01*
X403353Y212178D01*
X403381Y212317D01*
X403408Y212474D01*
X403427Y212622D01*
X403436Y212761D01*
Y212891D01*
X403445Y212983D01*
Y210430D01*
D02*
G37*
G36*
Y204973D02*
X400522D01*
X400781Y204982D01*
X401031Y205010D01*
X401262Y205047D01*
X401475Y205102D01*
X401679Y205158D01*
X401864Y205232D01*
X402030Y205296D01*
X402178Y205380D01*
X402317Y205454D01*
X402428Y205528D01*
X402530Y205592D01*
X402613Y205648D01*
X402678Y205703D01*
X402724Y205740D01*
X402752Y205768D01*
X402761Y205778D01*
X402872Y205898D01*
X402964Y206027D01*
X403048Y206166D01*
X403122Y206305D01*
X403186Y206444D01*
X403242Y206582D01*
X403334Y206841D01*
X403362Y206961D01*
X403390Y207072D01*
X403408Y207174D01*
X403427Y207267D01*
X403436Y207331D01*
Y207387D01*
X403445Y207424D01*
Y204973D01*
D02*
G37*
G36*
X395577Y207165D02*
X395624Y207156D01*
X395651Y207147D01*
X395661Y207137D01*
X395679Y207119D01*
X395688Y207109D01*
Y207100D01*
X395698Y207082D01*
X395707Y207045D01*
X395725Y206998D01*
X395735Y206989D01*
Y206980D01*
X395772Y206906D01*
X395809Y206860D01*
X395864Y206823D01*
X395910Y206795D01*
X395957Y206776D01*
X395994Y206767D01*
X390943D01*
X391026Y206776D01*
X391091Y206804D01*
X391137Y206832D01*
X391174Y206878D01*
X391202Y206915D01*
X391221Y206943D01*
X391239Y206971D01*
Y206980D01*
X391258Y207017D01*
X391267Y207054D01*
X391285Y207091D01*
X391295Y207109D01*
X391304Y207128D01*
X391313Y207137D01*
X391359Y207156D01*
X391406Y207174D01*
X391452D01*
X391461D01*
X391470D01*
X395503D01*
X395577Y207165D01*
D02*
G37*
G36*
X402604Y199636D02*
X402650Y199626D01*
X402678Y199617D01*
X402687Y199608D01*
X402705Y199589D01*
X402715Y199580D01*
Y199571D01*
X402724Y199552D01*
X402733Y199515D01*
X402752Y199469D01*
X402761Y199460D01*
Y199451D01*
X402798Y199376D01*
X402835Y199330D01*
X402890Y199293D01*
X402937Y199266D01*
X402983Y199247D01*
X403020Y199238D01*
X397969D01*
X398053Y199247D01*
X398117Y199275D01*
X398164Y199302D01*
X398201Y199349D01*
X398228Y199386D01*
X398247Y199414D01*
X398265Y199441D01*
Y199451D01*
X398284Y199487D01*
X398293Y199524D01*
X398312Y199562D01*
X398321Y199580D01*
X398330Y199599D01*
X398339Y199608D01*
X398386Y199626D01*
X398432Y199645D01*
X398478D01*
X398487D01*
X398497D01*
X402530D01*
X402604Y199636D01*
D02*
G37*
G36*
X396317Y201809D02*
X396031D01*
X396086Y201818D01*
X396123Y201828D01*
X396197Y201865D01*
X396234Y201892D01*
X396253Y201911D01*
X396290Y201994D01*
X396308Y202087D01*
X396317Y202124D01*
Y201809D01*
D02*
G37*
G36*
X395577Y202207D02*
X395624Y202198D01*
X395651Y202188D01*
X395661Y202179D01*
X395679Y202161D01*
X395688Y202151D01*
Y202142D01*
X395698Y202124D01*
X395707Y202087D01*
X395725Y202041D01*
X395735Y202031D01*
Y202022D01*
X395772Y201948D01*
X395809Y201902D01*
X395864Y201865D01*
X395910Y201837D01*
X395957Y201818D01*
X395994Y201809D01*
X390943D01*
X391026Y201818D01*
X391091Y201846D01*
X391137Y201874D01*
X391174Y201920D01*
X391202Y201957D01*
X391221Y201985D01*
X391239Y202013D01*
Y202022D01*
X391258Y202059D01*
X391267Y202096D01*
X391285Y202133D01*
X391295Y202151D01*
X391304Y202170D01*
X391313Y202179D01*
X391359Y202198D01*
X391406Y202216D01*
X391452D01*
X391461D01*
X391470D01*
X395503D01*
X395577Y202207D01*
D02*
G37*
G36*
X403445Y193836D02*
X400578D01*
X400744Y193845D01*
X400911Y193854D01*
X401216Y193901D01*
X401484Y193965D01*
X401614Y194002D01*
X401725Y194039D01*
X401827Y194076D01*
X401919Y194113D01*
X402002Y194150D01*
X402067Y194178D01*
X402123Y194206D01*
X402160Y194224D01*
X402187Y194243D01*
X402197D01*
X402335Y194317D01*
X402474Y194391D01*
X402585Y194483D01*
X402696Y194567D01*
X402779Y194641D01*
X402844Y194705D01*
X402881Y194742D01*
X402900Y194761D01*
X403011Y194899D01*
X403094Y195038D01*
X403177Y195168D01*
X403233Y195297D01*
X403279Y195399D01*
X403316Y195482D01*
X403334Y195538D01*
X403344Y195547D01*
Y195556D01*
X403381Y195677D01*
X403408Y195778D01*
X403418Y195806D01*
X403427Y195834D01*
Y195852D01*
X403436Y195898D01*
Y195954D01*
X403445Y196074D01*
Y193836D01*
D02*
G37*
G36*
X396317Y191754D02*
X396031D01*
X396086Y191764D01*
X396123Y191773D01*
X396197Y191810D01*
X396234Y191838D01*
X396253Y191856D01*
X396290Y191939D01*
X396308Y192032D01*
X396317Y192069D01*
Y191754D01*
D02*
G37*
G36*
X395577Y192152D02*
X395624Y192143D01*
X395651Y192134D01*
X395661Y192124D01*
X395679Y192106D01*
X395688Y192097D01*
Y192087D01*
X395698Y192069D01*
X395707Y192032D01*
X395725Y191986D01*
X395735Y191976D01*
Y191967D01*
X395772Y191893D01*
X395809Y191847D01*
X395864Y191810D01*
X395910Y191782D01*
X395957Y191764D01*
X395994Y191754D01*
X390943D01*
X391026Y191764D01*
X391091Y191791D01*
X391137Y191819D01*
X391174Y191866D01*
X391202Y191902D01*
X391221Y191930D01*
X391239Y191958D01*
Y191967D01*
X391258Y192004D01*
X391267Y192041D01*
X391285Y192078D01*
X391295Y192097D01*
X391304Y192115D01*
X391313Y192124D01*
X391359Y192143D01*
X391406Y192162D01*
X391452D01*
X391461D01*
X391470D01*
X395503D01*
X395577Y192152D01*
D02*
G37*
D10*
X410835Y128102D02*
G03*
X410835Y128102I-1181J0D01*
G01*
D11*
X402075Y134008D02*
G03*
X402075Y134008I-492J0D01*
G01*
D12*
X430534Y187255D02*
X437534D01*
X430534Y149755D02*
X437534D01*
X430500Y128500D02*
X437500D01*
X324512Y107976D02*
X384748D01*
X324512D02*
Y230024D01*
X384748D01*
Y107976D02*
Y230024D01*
X439252Y226842D02*
X470748D01*
X439252Y108732D02*
Y226842D01*
Y108732D02*
X470748D01*
Y226842D01*
X466811Y207157D02*
X470748D01*
X466811Y187472D02*
X470748D01*
X466811Y167787D02*
X470748D01*
X466811Y148102D02*
X470748D01*
X466811Y128417D02*
X470748D01*
X433501Y114000D02*
Y115000D01*
Y114500D01*
X436500D01*
Y114000D01*
Y115000D01*
Y116499D02*
X433501D01*
X436500Y118499D01*
X433501D01*
X436500Y122497D02*
Y123497D01*
Y122997D01*
X433501D01*
X434001Y122497D01*
X433001Y133500D02*
Y134500D01*
Y134000D01*
X436000D01*
Y133500D01*
Y134500D01*
Y135999D02*
X433001D01*
X436000Y137998D01*
X433001D01*
X436000Y143997D02*
Y141997D01*
X434001Y143997D01*
X433501D01*
X433001Y143497D01*
Y142497D01*
X433501Y141997D01*
X433127Y162262D02*
Y161262D01*
X433627Y160762D01*
X435626D01*
X436126Y161262D01*
Y162262D01*
X435626Y162762D01*
X433627D01*
X433127Y162262D01*
Y163761D02*
X435626D01*
X436126Y164261D01*
Y165261D01*
X435626Y165761D01*
X433127D01*
Y166760D02*
Y168760D01*
Y167760D01*
X436126D01*
Y172758D02*
Y173758D01*
Y173258D01*
X433127D01*
X433627Y172758D01*
X433501Y202500D02*
Y201500D01*
X434001Y201000D01*
X436000D01*
X436500Y201500D01*
Y202500D01*
X436000Y202999D01*
X434001D01*
X433501Y202500D01*
Y203999D02*
X436000D01*
X436500Y204499D01*
Y205499D01*
X436000Y205998D01*
X433501D01*
Y206998D02*
Y208997D01*
Y207998D01*
X436500D01*
Y214996D02*
Y212996D01*
X434501Y214996D01*
X434001D01*
X433501Y214496D01*
Y213496D01*
X434001Y212996D01*
X416667Y143333D02*
X416001Y142667D01*
Y141334D01*
X416667Y140668D01*
X419333D01*
X419999Y141334D01*
Y142667D01*
X419333Y143333D01*
X419999Y147332D02*
Y144667D01*
X417334Y147332D01*
X416667D01*
X416001Y146666D01*
Y145333D01*
X416667Y144667D01*
X398334Y140999D02*
Y137667D01*
X399001Y137001D01*
X400334D01*
X401000Y137667D01*
Y140999D01*
X402333Y137001D02*
X403666D01*
X402999D01*
Y140999D01*
X402333Y140333D01*
X391999Y154334D02*
X388001D01*
Y156333D01*
X388667Y157000D01*
X390000D01*
X390666Y156333D01*
Y154334D01*
Y155667D02*
X391999Y157000D01*
Y158333D02*
Y159666D01*
Y158999D01*
X388001D01*
X388667Y158333D01*
X323000Y232000D02*
X465000D01*
X323000Y105500D02*
Y232000D01*
Y105500D02*
X472000D01*
Y232000D01*
X465000D02*
X472000D01*
D13*
X405717Y111961D02*
X420284D01*
X405717Y132039D02*
X420284D01*
Y111961D02*
Y132039D01*
X405717Y111961D02*
Y132039D01*
D14*
X422500Y144000D02*
X425500D01*
X388500Y168000D02*
X391500D01*
M02*
