G04*
G04 #@! TF.GenerationSoftware,Altium Limited,Altium Designer,20.1.14 (287)*
G04*
G04 Layer_Color=8388736*
%FSLAX25Y25*%
%MOIN*%
G70*
G04*
G04 #@! TF.SameCoordinates,11A2ED7B-9C87-42D8-8BA9-A02E898DC9DF*
G04*
G04*
G04 #@! TF.FilePolarity,Negative*
G04*
G01*
G75*
%ADD10C,0.01000*%
%ADD15R,0.04240X0.04240*%
%ADD16R,0.04882X0.02913*%
G04:AMPARAMS|DCode=17|XSize=19.68mil|YSize=62.99mil|CornerRadius=5.91mil|HoleSize=0mil|Usage=FLASHONLY|Rotation=90.000|XOffset=0mil|YOffset=0mil|HoleType=Round|Shape=RoundedRectangle|*
%AMROUNDEDRECTD17*
21,1,0.01968,0.05118,0,0,90.0*
21,1,0.00787,0.06299,0,0,90.0*
1,1,0.01181,0.02559,0.00394*
1,1,0.01181,0.02559,-0.00394*
1,1,0.01181,-0.02559,-0.00394*
1,1,0.01181,-0.02559,0.00394*
%
%ADD17ROUNDEDRECTD17*%
%ADD18R,0.04240X0.04240*%
%ADD19C,0.30500*%
%ADD20C,0.03500*%
%ADD21C,0.06406*%
%ADD22C,0.20185*%
%ADD23R,0.08374X0.08374*%
%ADD24C,0.08374*%
D10*
X355000Y138000D02*
Y262000D01*
Y138000D02*
X604000D01*
Y262000D01*
X355000D02*
X604000D01*
D15*
X482000Y168347D02*
D03*
Y161653D02*
D03*
X491000Y204346D02*
D03*
Y197653D02*
D03*
X537000Y173653D02*
D03*
Y180347D02*
D03*
Y149653D02*
D03*
Y156346D02*
D03*
X507000Y180347D02*
D03*
Y173653D02*
D03*
Y156346D02*
D03*
Y149653D02*
D03*
X461000Y204346D02*
D03*
Y197653D02*
D03*
D16*
X527118Y154740D02*
D03*
Y151000D02*
D03*
Y147260D02*
D03*
X516882D02*
D03*
Y151000D02*
D03*
Y154740D02*
D03*
X527118Y178740D02*
D03*
Y175000D02*
D03*
Y171260D02*
D03*
X516882D02*
D03*
Y175000D02*
D03*
Y178740D02*
D03*
X470882Y204740D02*
D03*
Y201000D02*
D03*
Y197260D02*
D03*
X481118D02*
D03*
Y204740D02*
D03*
D17*
X471417Y151043D02*
D03*
Y153602D02*
D03*
Y156161D02*
D03*
Y158721D02*
D03*
Y161279D02*
D03*
Y163839D02*
D03*
Y166398D02*
D03*
Y168957D02*
D03*
X448583Y151043D02*
D03*
Y153602D02*
D03*
Y156161D02*
D03*
Y158721D02*
D03*
Y161279D02*
D03*
Y163839D02*
D03*
Y166398D02*
D03*
Y168957D02*
D03*
D18*
X421654Y249500D02*
D03*
X428346D02*
D03*
D19*
X536500Y200000D02*
D03*
X436500D02*
D03*
D20*
X546343Y205906D02*
D03*
X542406Y190157D02*
D03*
X526657Y194095D02*
D03*
X542406Y209842D02*
D03*
X546343Y194095D02*
D03*
X530594Y190157D02*
D03*
Y209842D02*
D03*
X525250Y200000D02*
D03*
X536500Y188750D02*
D03*
X547750Y200000D02*
D03*
X536500Y211250D02*
D03*
X526657Y205906D02*
D03*
X446343D02*
D03*
X442406Y190157D02*
D03*
X426657Y194095D02*
D03*
X442406Y209842D02*
D03*
X446343Y194095D02*
D03*
X430594Y190157D02*
D03*
Y209842D02*
D03*
X425250Y200000D02*
D03*
X436500Y188750D02*
D03*
X447750Y200000D02*
D03*
X436500Y211250D02*
D03*
X426657Y205906D02*
D03*
D21*
X390000Y183051D02*
D03*
Y192028D02*
D03*
Y201004D02*
D03*
Y209980D02*
D03*
Y218957D02*
D03*
X410000D02*
D03*
X400000Y205492D02*
D03*
X410000Y209980D02*
D03*
X400000Y196516D02*
D03*
X410000Y201004D02*
D03*
X400000Y187539D02*
D03*
X410000Y192028D02*
D03*
X400000Y214469D02*
D03*
Y178563D02*
D03*
X410000Y183051D02*
D03*
D22*
X400000Y150807D02*
D03*
Y249193D02*
D03*
D23*
X587500Y249555D02*
D03*
D24*
Y229870D02*
D03*
Y210185D02*
D03*
Y190500D02*
D03*
Y170815D02*
D03*
Y151130D02*
D03*
M02*
