G04*
G04 #@! TF.GenerationSoftware,Altium Limited,Altium Designer,19.1.8 (144)*
G04*
G04 Layer_Physical_Order=1*
G04 Layer_Color=255*
%FSLAX25Y25*%
%MOIN*%
G70*
G01*
G75*
%ADD13C,0.01500*%
%ADD25C,0.06000*%
%ADD26C,0.07874*%
%ADD27C,0.09449*%
%ADD28C,0.08268*%
%ADD29C,0.03000*%
%ADD30C,0.30000*%
%ADD31C,0.08661*%
%ADD32R,0.08661X0.08661*%
%ADD33C,0.12795*%
%ADD34C,0.08858*%
%ADD35R,0.06000X0.06000*%
%ADD36C,0.04000*%
D13*
X162798Y293798D02*
X184000Y315000D01*
X162798Y271484D02*
Y293798D01*
X184000Y315000D02*
Y424000D01*
X181500Y316036D02*
Y425035D01*
X160298Y294834D02*
X181500Y316036D01*
X160298Y277129D02*
Y294834D01*
X261965Y384500D02*
X419035D01*
X244000Y257000D02*
Y366535D01*
X261965Y384500D01*
X263000Y382000D02*
X418000D01*
X246500Y365500D02*
X263000Y382000D01*
X246500Y255964D02*
Y365500D01*
X235500Y415035D02*
X247616Y427152D01*
X235500Y412964D02*
Y415035D01*
Y412964D02*
X235500Y259035D01*
X207964Y231500D02*
X235500Y259035D01*
X238000Y414000D02*
X248652Y424652D01*
X238000Y414000D02*
X238000Y258000D01*
X209000Y229000D02*
X238000Y258000D01*
X273576Y242333D02*
X278500Y237409D01*
Y209500D02*
Y237409D01*
X264152Y195152D02*
X278500Y209500D01*
X275344Y244101D02*
X281000Y238445D01*
Y208465D02*
Y238445D01*
X265187Y192652D02*
X281000Y208465D01*
X211652Y192652D02*
X265187D01*
X210152Y195152D02*
X264152D01*
X426768Y151768D02*
X430500Y148036D01*
X422036Y112500D02*
X430500Y120965D01*
Y148036D01*
X425000Y150000D02*
X428000Y147000D01*
Y122000D02*
Y147000D01*
X421000Y115000D02*
X428000Y122000D01*
X255500Y112500D02*
X422036D01*
X256536Y115000D02*
X421000D01*
X271464Y289500D02*
X421035D01*
X425344Y255899D02*
X430500Y261055D01*
X421035Y289500D02*
X430500Y280035D01*
Y261055D02*
Y280035D01*
X420000Y287000D02*
X428000Y279000D01*
Y262091D02*
Y279000D01*
X423576Y257667D02*
X428000Y262091D01*
X272500Y287000D02*
X420000D01*
X429500Y353000D02*
Y374036D01*
X419035Y384500D02*
X429500Y374036D01*
X427000Y351964D02*
Y373000D01*
X418000Y382000D02*
X427000Y373000D01*
X197000Y182000D02*
X210152Y195152D01*
X181000Y182000D02*
X197000D01*
X198250Y179250D02*
X211652Y192652D01*
X193250Y179250D02*
X198250D01*
X267677Y147677D02*
X292323D01*
X267677D02*
Y172323D01*
X292323D01*
X267677Y327677D02*
X292323D01*
X272333Y242333D02*
X273576D01*
X267677Y237677D02*
X272333Y242333D01*
X267677Y237677D02*
X267677D01*
X275344Y244101D02*
Y245344D01*
X280000Y250000D01*
X191000Y177000D02*
X193250Y179250D01*
X423651Y150000D02*
X425000D01*
X422849Y149198D02*
X423651Y150000D01*
X419198Y149198D02*
X422849D01*
X417677Y147677D02*
X419198Y149198D01*
X426768Y151768D02*
Y155043D01*
X430000Y158275D01*
Y160000D01*
X219500Y148500D02*
X255500Y112500D01*
X177500Y151000D02*
X220535D01*
X256536Y115000D01*
X176464Y148500D02*
X219500D01*
X158500Y170000D02*
X177500Y151000D01*
X156000Y168965D02*
Y174870D01*
Y168965D02*
X176464Y148500D01*
X158500Y170000D02*
Y173835D01*
X166250Y177250D02*
X166500Y177000D01*
X161916Y177250D02*
X166250D01*
X158500Y173835D02*
X161916Y177250D01*
X156500Y181130D02*
Y182000D01*
Y181130D02*
X158759Y178871D01*
Y177629D02*
Y178871D01*
X156000Y174870D02*
X158759Y177629D01*
X189334Y215500D02*
X233510D01*
X237146Y211864D01*
X239621D01*
X240243Y211243D01*
X190370Y213000D02*
X232475D01*
X235379Y210096D01*
Y207621D02*
Y210096D01*
Y207621D02*
X236000Y207000D01*
X181000Y212000D02*
X181250Y211750D01*
X185584D01*
X189334Y215500D01*
X191000Y207000D02*
Y207870D01*
X188741Y210129D02*
X191000Y207870D01*
X188741Y210129D02*
Y211371D01*
X190370Y213000D01*
X417677Y262323D02*
X422333Y257667D01*
X423576D01*
X425344Y254656D02*
X430000Y250000D01*
X425344Y254656D02*
Y255899D01*
X254500Y269000D02*
X272500Y287000D01*
X252000Y270036D02*
X271464Y289500D01*
X252000Y254000D02*
Y270036D01*
X254500Y252964D02*
Y269000D01*
X220535Y219000D02*
X254500Y252964D01*
X219500Y221500D02*
X252000Y254000D01*
X171072Y219000D02*
X220535D01*
X170036Y221500D02*
X219500D01*
X162798Y210726D02*
X171072Y219000D01*
X162798Y209484D02*
Y210726D01*
Y209484D02*
X165282Y207000D01*
X166500D01*
X160871Y212335D02*
X170036Y221500D01*
X156835Y212335D02*
X160871D01*
X156500Y212000D02*
X156835Y212335D01*
X213500Y226500D02*
X244000Y257000D01*
X160000Y226500D02*
X213500D01*
X158500Y228000D02*
X160000Y226500D01*
X214535Y224000D02*
X246500Y255964D01*
X158965Y224000D02*
X214535D01*
X156000Y226964D02*
X158965Y224000D01*
X181465Y229000D02*
X209000D01*
X179121Y231343D02*
X181465Y229000D01*
X182500Y231500D02*
X207964D01*
X181621Y232379D02*
X182500Y231500D01*
X429500Y353000D02*
X432263Y350237D01*
X433853D01*
X436424Y347667D01*
X437667D01*
X442323Y352323D01*
X442323D01*
X427000Y351964D02*
X431227Y347737D01*
X432818D01*
X434656Y345899D01*
Y344656D02*
Y345899D01*
X430000Y340000D02*
X434656Y344656D01*
X156000Y226964D02*
Y236870D01*
X158500Y228000D02*
Y235835D01*
X166250Y239250D02*
X166500Y239000D01*
X161916Y239250D02*
X166250D01*
X158500Y235835D02*
X161916Y239250D01*
X156500Y243130D02*
Y244000D01*
Y243130D02*
X158759Y240871D01*
Y239629D02*
Y240871D01*
X156000Y236870D02*
X158759Y239629D01*
X181621Y234586D02*
X183785Y236750D01*
X188750D01*
X191000Y239000D01*
X181500Y238000D02*
Y243500D01*
X181000Y244000D02*
X181500Y243500D01*
X179121Y231343D02*
Y235621D01*
X181500Y238000D01*
X181621Y232379D02*
Y234586D01*
X267677Y417677D02*
X272333Y422333D01*
Y423576D01*
X271258Y424652D02*
X272333Y423576D01*
X248652Y424652D02*
X271258D01*
X275344Y425344D02*
X280000Y430000D01*
X274101Y425344D02*
X275344D01*
X272293Y427152D02*
X274101Y425344D01*
X247616Y427152D02*
X272293D01*
X162798Y271484D02*
X165282Y269000D01*
X166500D01*
X159420Y276250D02*
X160298Y277129D01*
X158750Y276250D02*
X159420D01*
X156500Y274000D02*
X158750Y276250D01*
X228000Y468000D02*
X417000D01*
X184000Y424000D02*
X228000Y468000D01*
X226964Y470500D02*
X418036D01*
X181500Y425035D02*
X226964Y470500D01*
X417677Y442323D02*
X422333Y437667D01*
X423576D01*
X424652Y438742D01*
Y460348D01*
X417000Y468000D02*
X424652Y460348D01*
X425344Y434656D02*
X430000Y430000D01*
X425344Y434656D02*
Y435899D01*
X427152Y437707D01*
Y461384D01*
X418036Y470500D02*
X427152Y461384D01*
D25*
X191000Y207000D02*
D03*
X181000Y212000D02*
D03*
X191000Y187000D02*
D03*
Y197000D02*
D03*
X181000Y202000D02*
D03*
Y192000D02*
D03*
Y182000D02*
D03*
X156500D02*
D03*
Y192000D02*
D03*
Y202000D02*
D03*
X166500Y177000D02*
D03*
Y207000D02*
D03*
Y197000D02*
D03*
Y187000D02*
D03*
X191000Y249000D02*
D03*
Y259000D02*
D03*
Y269000D02*
D03*
X181000Y274000D02*
D03*
Y264000D02*
D03*
Y254000D02*
D03*
Y244000D02*
D03*
X156500D02*
D03*
Y254000D02*
D03*
Y264000D02*
D03*
X166500Y269000D02*
D03*
Y259000D02*
D03*
Y239000D02*
D03*
Y249000D02*
D03*
D26*
X430000Y430000D02*
D03*
Y340000D02*
D03*
Y250000D02*
D03*
Y160000D02*
D03*
X280000D02*
D03*
Y250000D02*
D03*
Y340000D02*
D03*
Y430000D02*
D03*
D27*
X417677Y442323D02*
D03*
X442323D02*
D03*
Y417677D02*
D03*
X417677D02*
D03*
Y352323D02*
D03*
X442323D02*
D03*
Y327677D02*
D03*
X417677D02*
D03*
Y262323D02*
D03*
X442323D02*
D03*
Y237677D02*
D03*
X417677D02*
D03*
Y172323D02*
D03*
X442323D02*
D03*
Y147677D02*
D03*
X417677D02*
D03*
X267677Y172323D02*
D03*
X292323D02*
D03*
Y147677D02*
D03*
X267677D02*
D03*
Y262323D02*
D03*
X292323D02*
D03*
Y237677D02*
D03*
X267677D02*
D03*
Y352323D02*
D03*
X292323D02*
D03*
Y327677D02*
D03*
X267677D02*
D03*
Y442323D02*
D03*
X292323D02*
D03*
Y417677D02*
D03*
X267677D02*
D03*
D28*
X378000Y144000D02*
D03*
Y234000D02*
D03*
Y324000D02*
D03*
Y414000D02*
D03*
Y176000D02*
D03*
Y266000D02*
D03*
Y356000D02*
D03*
Y446000D02*
D03*
X332000Y144000D02*
D03*
Y234000D02*
D03*
Y324000D02*
D03*
Y414000D02*
D03*
Y176000D02*
D03*
Y266000D02*
D03*
Y356000D02*
D03*
Y446000D02*
D03*
D29*
X129842Y125906D02*
D03*
X125906Y110158D02*
D03*
X110158Y114094D02*
D03*
X125906Y129842D02*
D03*
X129842Y114094D02*
D03*
X114094Y110158D02*
D03*
Y129842D02*
D03*
X110158Y125906D02*
D03*
X108750Y120000D02*
D03*
X120000Y108750D02*
D03*
X131250Y120000D02*
D03*
X120000Y131250D02*
D03*
X479843Y125906D02*
D03*
X475906Y110158D02*
D03*
X460157Y114094D02*
D03*
X475906Y129842D02*
D03*
X479843Y114094D02*
D03*
X464094Y110158D02*
D03*
Y129842D02*
D03*
X460157Y125906D02*
D03*
X458750Y120000D02*
D03*
X470000Y108750D02*
D03*
X481250Y120000D02*
D03*
X470000Y131250D02*
D03*
X479843Y475906D02*
D03*
X475906Y460157D02*
D03*
X460157Y464094D02*
D03*
X475906Y479843D02*
D03*
X479843Y464094D02*
D03*
X464094Y460157D02*
D03*
Y479843D02*
D03*
X460157Y475906D02*
D03*
X458750Y470000D02*
D03*
X470000Y458750D02*
D03*
X481250Y470000D02*
D03*
X470000Y481250D02*
D03*
X129842Y475906D02*
D03*
X125906Y460157D02*
D03*
X110158Y464094D02*
D03*
X125906Y479843D02*
D03*
X129842Y464094D02*
D03*
X114094Y460157D02*
D03*
Y479843D02*
D03*
X110158Y475906D02*
D03*
X108750Y470000D02*
D03*
X120000Y458750D02*
D03*
X131250Y470000D02*
D03*
X120000Y481250D02*
D03*
D30*
Y120000D02*
D03*
X470000D02*
D03*
Y470000D02*
D03*
X120000D02*
D03*
D31*
X117000Y408370D02*
D03*
Y428055D02*
D03*
Y388685D02*
D03*
Y369000D02*
D03*
Y349315D02*
D03*
D32*
Y329630D02*
D03*
D33*
X124000Y169500D02*
D03*
Y281500D02*
D03*
D34*
X185000Y288500D02*
D03*
X152000D02*
D03*
Y162500D02*
D03*
X185000D02*
D03*
D35*
X191000Y177000D02*
D03*
X156500Y212000D02*
D03*
X191000Y239000D02*
D03*
X156500Y274000D02*
D03*
D36*
X240243Y211243D02*
D03*
X236000Y207000D02*
D03*
M02*
