G04*
G04 #@! TF.GenerationSoftware,Altium Limited,Altium Designer,20.1.14 (287)*
G04*
G04 Layer_Physical_Order=2*
G04 Layer_Color=16711680*
%FSLAX25Y25*%
%MOIN*%
G70*
G04*
G04 #@! TF.SameCoordinates,32B9688E-387C-4D8B-897C-9CD0CBC3BE43*
G04*
G04*
G04 #@! TF.FilePolarity,Positive*
G04*
G01*
G75*
%ADD11C,0.01000*%
%ADD40R,0.03150X0.03150*%
%ADD44R,0.03740X0.03740*%
%ADD46R,0.03740X0.03740*%
%ADD47C,0.00600*%
%ADD48C,0.07874*%
%ADD49R,0.07874X0.07874*%
%ADD51C,0.13000*%
%ADD52R,0.06299X0.06299*%
%ADD53C,0.06299*%
%ADD54C,0.03000*%
%ADD55C,0.30000*%
%ADD56C,0.06000*%
%ADD57R,0.06000X0.06000*%
%ADD58C,0.05906*%
%ADD59C,0.19685*%
%ADD60C,0.02800*%
%ADD61C,0.04000*%
%ADD62O,0.05709X0.02362*%
%ADD63O,0.07480X0.02362*%
%ADD64R,0.09000X0.03000*%
%ADD65R,0.06299X0.11811*%
%ADD66R,0.22835X0.24410*%
G36*
X677370Y494501D02*
X677390Y494001D01*
X675489Y493852D01*
X673040Y493264D01*
X670714Y492300D01*
X668566Y490984D01*
X666651Y489349D01*
X665016Y487434D01*
X663700Y485286D01*
X662736Y482960D01*
X662148Y480511D01*
X661990Y478500D01*
X678000D01*
Y478000D01*
X678500D01*
Y461990D01*
X680511Y462148D01*
X682960Y462736D01*
X685286Y463700D01*
X687434Y465016D01*
X689349Y466651D01*
X690984Y468566D01*
X692300Y470714D01*
X693264Y473040D01*
X693852Y475489D01*
X694001Y477390D01*
X694501Y477370D01*
Y120630D01*
X694001Y120610D01*
X693852Y122511D01*
X693264Y124960D01*
X692300Y127286D01*
X690984Y129434D01*
X689349Y131349D01*
X687434Y132984D01*
X685286Y134300D01*
X682960Y135264D01*
X680511Y135852D01*
X678500Y136010D01*
Y120000D01*
X678000D01*
Y119500D01*
X661990D01*
X662148Y117489D01*
X662736Y115040D01*
X663700Y112714D01*
X665016Y110566D01*
X666651Y108651D01*
X668566Y107016D01*
X670714Y105700D01*
X673040Y104736D01*
X675489Y104148D01*
X677276Y104007D01*
X677256Y103507D01*
X320744Y103507D01*
X320725Y104007D01*
X322511Y104148D01*
X324960Y104736D01*
X327286Y105700D01*
X329434Y107016D01*
X331349Y108651D01*
X332984Y110566D01*
X334300Y112714D01*
X335264Y115040D01*
X335852Y117489D01*
X336010Y119500D01*
X320000D01*
Y120000D01*
X319500D01*
Y136010D01*
X317489Y135852D01*
X315040Y135264D01*
X312714Y134300D01*
X310566Y132984D01*
X308651Y131349D01*
X307016Y129434D01*
X305700Y127286D01*
X304736Y124960D01*
X304148Y122511D01*
X303998Y120610D01*
X303499Y120629D01*
Y477371D01*
X303998Y477390D01*
X304148Y475489D01*
X304736Y473040D01*
X305700Y470714D01*
X307016Y468566D01*
X308651Y466651D01*
X310566Y465016D01*
X312714Y463700D01*
X315040Y462736D01*
X317489Y462148D01*
X319500Y461990D01*
Y478000D01*
X320000D01*
Y478500D01*
X336010D01*
X335852Y480511D01*
X335264Y482960D01*
X334300Y485286D01*
X332984Y487434D01*
X331349Y489349D01*
X329434Y490984D01*
X327286Y492300D01*
X324960Y493264D01*
X322511Y493852D01*
X320609Y494001D01*
X320629Y494501D01*
X677370Y494501D01*
D02*
G37*
%LPC*%
G36*
X590000Y482631D02*
X589060Y482507D01*
X588184Y482145D01*
X587432Y481568D01*
X586855Y480816D01*
X586493Y479940D01*
X586369Y479000D01*
X586493Y478060D01*
X586855Y477184D01*
X587432Y476432D01*
X588184Y475855D01*
X589060Y475493D01*
X590000Y475369D01*
X590940Y475493D01*
X591816Y475855D01*
X592568Y476432D01*
X593145Y477184D01*
X593507Y478060D01*
X593631Y479000D01*
X593507Y479940D01*
X593145Y480816D01*
X592568Y481568D01*
X591816Y482145D01*
X590940Y482507D01*
X590000Y482631D01*
D02*
G37*
G36*
X414470Y467816D02*
X409530D01*
Y466264D01*
X406470D01*
Y467816D01*
X401530D01*
Y466264D01*
X396346D01*
X395995Y466194D01*
X395698Y465995D01*
X390253Y460551D01*
X389824Y460808D01*
X389892Y461030D01*
X389987Y462000D01*
X383000D01*
Y455013D01*
X383970Y455108D01*
X384192Y455176D01*
X384449Y454747D01*
X379620Y449918D01*
X372510D01*
X372507Y449940D01*
X372145Y450815D01*
X371568Y451568D01*
X370815Y452145D01*
X369940Y452507D01*
X369000Y452631D01*
X368060Y452507D01*
X367184Y452145D01*
X366432Y451568D01*
X365855Y450815D01*
X365493Y449940D01*
X365490Y449918D01*
X325537D01*
Y453537D01*
X316463D01*
Y444463D01*
X325537D01*
Y448082D01*
X365490D01*
X365493Y448060D01*
X365855Y447185D01*
X366432Y446432D01*
X367184Y445855D01*
X368060Y445493D01*
X369000Y445369D01*
X369940Y445493D01*
X370815Y445855D01*
X371568Y446432D01*
X372145Y447185D01*
X372507Y448060D01*
X372510Y448082D01*
X380000D01*
X380351Y448152D01*
X380649Y448351D01*
X396727Y464429D01*
X401530D01*
Y462876D01*
X401716D01*
X401776Y462787D01*
Y461213D01*
X401716Y461124D01*
X401530D01*
Y456183D01*
X403082D01*
Y453817D01*
X401530D01*
Y448876D01*
X401716D01*
X401776Y448787D01*
Y447213D01*
X401716Y447124D01*
X401530D01*
Y442183D01*
X403082D01*
Y439817D01*
X401530D01*
Y434876D01*
X401716D01*
X401776Y434787D01*
Y433213D01*
X401716Y433124D01*
X401530D01*
Y428184D01*
X403082D01*
Y425792D01*
X402558Y425442D01*
X402116Y424780D01*
X401961Y424000D01*
X402116Y423220D01*
X402558Y422558D01*
X403220Y422116D01*
X404000Y421961D01*
X404780Y422116D01*
X405442Y422558D01*
X405884Y423220D01*
X406039Y424000D01*
X405884Y424780D01*
X405442Y425442D01*
X404918Y425792D01*
Y428184D01*
X406470D01*
Y429532D01*
X409530D01*
Y428184D01*
X414470D01*
Y433124D01*
X414284D01*
X414224Y433213D01*
Y434476D01*
X414870D01*
Y436846D01*
X412000D01*
X409130D01*
Y434476D01*
X409776D01*
Y433213D01*
X409716Y433124D01*
X409530D01*
Y431775D01*
X406470D01*
Y433124D01*
X406284D01*
X406224Y433213D01*
Y434787D01*
X406284Y434876D01*
X406470D01*
Y439817D01*
X404918D01*
Y442183D01*
X406470D01*
Y443736D01*
X409530D01*
Y442183D01*
X414470D01*
Y443736D01*
X416966D01*
X418082Y442620D01*
Y412000D01*
X418152Y411649D01*
X418351Y411351D01*
X421351Y408351D01*
X421649Y408152D01*
X422000Y408082D01*
X425070D01*
X425314Y407716D01*
X425904Y407322D01*
X426598Y407184D01*
X429945D01*
X430640Y407322D01*
X431229Y407716D01*
X431623Y408305D01*
X431761Y409000D01*
X431623Y409695D01*
X431229Y410284D01*
X430640Y410678D01*
X429945Y410816D01*
X426598D01*
X425904Y410678D01*
X425314Y410284D01*
X425070Y409918D01*
X422380D01*
X419918Y412380D01*
Y443000D01*
X419848Y443351D01*
X419649Y443649D01*
X417995Y445302D01*
X417698Y445501D01*
X417346Y445571D01*
X414470D01*
Y447124D01*
X414284D01*
X414224Y447213D01*
Y448476D01*
X414870D01*
Y450846D01*
X412000D01*
X409130D01*
Y448476D01*
X409776D01*
Y447213D01*
X409716Y447124D01*
X409530D01*
Y445571D01*
X406470D01*
Y447124D01*
X406284D01*
X406224Y447213D01*
Y448787D01*
X406284Y448876D01*
X406470D01*
Y453817D01*
X404918D01*
Y456183D01*
X405519D01*
X407351Y454351D01*
X407649Y454152D01*
X408000Y454082D01*
X409130D01*
Y451847D01*
X412000D01*
X414870D01*
Y454082D01*
X418620D01*
X421082Y451620D01*
Y416000D01*
X421152Y415649D01*
X421351Y415351D01*
X423351Y413351D01*
X423649Y413152D01*
X424000Y413082D01*
X425070D01*
X425314Y412716D01*
X425904Y412322D01*
X426598Y412184D01*
X429945D01*
X430640Y412322D01*
X431229Y412716D01*
X431623Y413305D01*
X431761Y414000D01*
X431623Y414695D01*
X431229Y415284D01*
X430640Y415678D01*
X429945Y415816D01*
X426598D01*
X425904Y415678D01*
X425314Y415284D01*
X425070Y414918D01*
X424380D01*
X422918Y416380D01*
Y452000D01*
X422848Y452351D01*
X422649Y452649D01*
X419649Y455649D01*
X419351Y455848D01*
X419000Y455918D01*
X414870D01*
Y458153D01*
X412000D01*
Y459154D01*
X414870D01*
Y461524D01*
X414224D01*
Y462401D01*
X414724Y462629D01*
X417398Y460307D01*
X417526Y460234D01*
X417649Y460152D01*
X417681Y460146D01*
X417709Y460130D01*
X417856Y460111D01*
X418000Y460082D01*
X433620D01*
X438082Y455620D01*
Y422792D01*
X437558Y422442D01*
X437116Y421780D01*
X436961Y421000D01*
X437116Y420220D01*
X437558Y419558D01*
X438220Y419116D01*
X439000Y418961D01*
X439780Y419116D01*
X440442Y419558D01*
X440884Y420220D01*
X441039Y421000D01*
X440884Y421780D01*
X440442Y422442D01*
X439918Y422792D01*
Y456000D01*
X439848Y456351D01*
X439649Y456649D01*
X434649Y461649D01*
X434351Y461848D01*
X434000Y461918D01*
X418343D01*
X414470Y465280D01*
Y467816D01*
D02*
G37*
G36*
X496000Y469987D02*
Y463000D01*
X502987D01*
X502891Y463970D01*
X502463Y465384D01*
X501766Y466687D01*
X500829Y467829D01*
X499687Y468766D01*
X498384Y469463D01*
X496970Y469892D01*
X496000Y469987D01*
D02*
G37*
G36*
X523000D02*
Y463000D01*
X529987D01*
X529891Y463970D01*
X529463Y465384D01*
X528766Y466687D01*
X527829Y467829D01*
X526687Y468766D01*
X525384Y469463D01*
X523970Y469892D01*
X523000Y469987D01*
D02*
G37*
G36*
X495000D02*
X494030Y469892D01*
X492616Y469463D01*
X491313Y468766D01*
X490171Y467829D01*
X489234Y466687D01*
X488537Y465384D01*
X488108Y463970D01*
X488013Y463000D01*
X495000D01*
Y469987D01*
D02*
G37*
G36*
X522000D02*
X521030Y469892D01*
X519616Y469463D01*
X518313Y468766D01*
X517171Y467829D01*
X516234Y466687D01*
X515537Y465384D01*
X515108Y463970D01*
X515013Y463000D01*
X522000D01*
Y469987D01*
D02*
G37*
G36*
X336010Y477500D02*
X320500D01*
Y461990D01*
X322511Y462148D01*
X324960Y462736D01*
X327286Y463700D01*
X329434Y465016D01*
X331349Y466651D01*
X332984Y468566D01*
X334300Y470714D01*
X335264Y473040D01*
X335852Y475489D01*
X336010Y477500D01*
D02*
G37*
G36*
X677500D02*
X661990D01*
X662148Y475489D01*
X662736Y473040D01*
X663700Y470714D01*
X665016Y468566D01*
X666651Y466651D01*
X668566Y465016D01*
X670714Y463700D01*
X673040Y462736D01*
X675489Y462148D01*
X677500Y461990D01*
Y477500D01*
D02*
G37*
G36*
X590000Y468631D02*
X589060Y468507D01*
X588184Y468145D01*
X587432Y467568D01*
X586855Y466816D01*
X586493Y465940D01*
X586369Y465000D01*
X586493Y464060D01*
X586855Y463184D01*
X587432Y462432D01*
X588184Y461855D01*
X589060Y461493D01*
X590000Y461369D01*
X590940Y461493D01*
X591816Y461855D01*
X592568Y462432D01*
X593145Y463184D01*
X593507Y464060D01*
X593631Y465000D01*
X593507Y465940D01*
X593145Y466816D01*
X592568Y467568D01*
X591816Y468145D01*
X590940Y468507D01*
X590000Y468631D01*
D02*
G37*
G36*
X529987Y462000D02*
X523000D01*
Y455013D01*
X523970Y455108D01*
X525384Y455537D01*
X526687Y456234D01*
X527829Y457171D01*
X528766Y458313D01*
X529463Y459616D01*
X529891Y461030D01*
X529987Y462000D01*
D02*
G37*
G36*
X502987D02*
X496000D01*
Y455013D01*
X496970Y455108D01*
X498384Y455537D01*
X499687Y456234D01*
X500829Y457171D01*
X501766Y458313D01*
X502463Y459616D01*
X502891Y461030D01*
X502987Y462000D01*
D02*
G37*
G36*
X382000D02*
X375013D01*
X375109Y461030D01*
X375537Y459616D01*
X376234Y458313D01*
X377171Y457171D01*
X378313Y456234D01*
X379616Y455537D01*
X381030Y455108D01*
X382000Y455013D01*
Y462000D01*
D02*
G37*
G36*
X362987D02*
X356000D01*
Y455013D01*
X356970Y455108D01*
X358384Y455537D01*
X359687Y456234D01*
X360829Y457171D01*
X361766Y458313D01*
X362463Y459616D01*
X362892Y461030D01*
X362987Y462000D01*
D02*
G37*
G36*
X355000D02*
X348013D01*
X348109Y461030D01*
X348537Y459616D01*
X349234Y458313D01*
X350171Y457171D01*
X351313Y456234D01*
X352616Y455537D01*
X354030Y455108D01*
X355000Y455013D01*
Y462000D01*
D02*
G37*
G36*
X522000D02*
X515013D01*
X515108Y461030D01*
X515537Y459616D01*
X516234Y458313D01*
X517171Y457171D01*
X518313Y456234D01*
X519616Y455537D01*
X521030Y455108D01*
X522000Y455013D01*
Y462000D01*
D02*
G37*
G36*
X418000Y470918D02*
X345000Y470918D01*
X344649Y470848D01*
X344351Y470649D01*
X334620Y460918D01*
X320000D01*
X319649Y460848D01*
X319351Y460649D01*
X314351Y455649D01*
X314152Y455351D01*
X314082Y455000D01*
Y435315D01*
X314152Y434964D01*
X314351Y434666D01*
X317201Y431816D01*
X317037Y431603D01*
X316580Y430499D01*
X316424Y429315D01*
X316580Y428131D01*
X317037Y427027D01*
X317764Y426079D01*
X318712Y425352D01*
X319816Y424895D01*
X321000Y424739D01*
X322184Y424895D01*
X323288Y425352D01*
X324236Y426079D01*
X324963Y427027D01*
X325420Y428131D01*
X325576Y429315D01*
X325420Y430499D01*
X324963Y431603D01*
X324236Y432551D01*
X323288Y433278D01*
X322184Y433735D01*
X321000Y433891D01*
X319816Y433735D01*
X318712Y433278D01*
X318498Y433114D01*
X315918Y435695D01*
Y454620D01*
X320380Y459082D01*
X335000D01*
X335351Y459152D01*
X335649Y459351D01*
X345380Y469082D01*
X350910D01*
X351089Y468582D01*
X350171Y467829D01*
X349234Y466687D01*
X348537Y465384D01*
X348109Y463970D01*
X348013Y463000D01*
X362987D01*
X362892Y463970D01*
X362463Y465384D01*
X361766Y466687D01*
X360829Y467829D01*
X359911Y468582D01*
X360090Y469082D01*
X377910D01*
X378089Y468582D01*
X377171Y467829D01*
X376234Y466687D01*
X375537Y465384D01*
X375109Y463970D01*
X375013Y463000D01*
X389987D01*
X389892Y463970D01*
X389463Y465384D01*
X388766Y466687D01*
X387829Y467829D01*
X386911Y468582D01*
X387090Y469082D01*
X417620D01*
X422005Y464698D01*
X422302Y464499D01*
X422653Y464429D01*
X463530D01*
Y462876D01*
X463716D01*
X463776Y462787D01*
Y461524D01*
X463130D01*
Y459154D01*
X466000D01*
Y458153D01*
X463130D01*
Y455918D01*
X458000D01*
X457649Y455848D01*
X457351Y455649D01*
X454351Y452649D01*
X454152Y452351D01*
X454082Y452000D01*
Y416380D01*
X452959Y415257D01*
X452686Y415284D01*
X452097Y415678D01*
X451402Y415816D01*
X448055D01*
X447360Y415678D01*
X446771Y415284D01*
X446377Y414695D01*
X446239Y414000D01*
X446377Y413305D01*
X446771Y412716D01*
X447360Y412322D01*
X448055Y412184D01*
X451402D01*
X452097Y412322D01*
X452686Y412716D01*
X452979Y413155D01*
X453072D01*
X453424Y413225D01*
X453721Y413423D01*
X455649Y415351D01*
X455848Y415649D01*
X455918Y416000D01*
Y451620D01*
X458380Y454082D01*
X463130D01*
Y451847D01*
X466000D01*
X468870D01*
Y454082D01*
X470000D01*
X470351Y454152D01*
X470649Y454351D01*
X472481Y456183D01*
X473082D01*
Y453817D01*
X471530D01*
Y448876D01*
X471716D01*
X471776Y448787D01*
Y447213D01*
X471716Y447124D01*
X471530D01*
Y445571D01*
X468470D01*
Y447124D01*
X468284D01*
X468224Y447213D01*
Y448476D01*
X468870D01*
Y450846D01*
X466000D01*
X463130D01*
Y448476D01*
X463776D01*
Y447213D01*
X463716Y447124D01*
X463530D01*
Y445918D01*
X460000D01*
X459649Y445848D01*
X459351Y445649D01*
X457351Y443649D01*
X457152Y443351D01*
X457082Y443000D01*
Y412380D01*
X454620Y409918D01*
X452931D01*
X452686Y410284D01*
X452097Y410678D01*
X451402Y410816D01*
X448055D01*
X447360Y410678D01*
X446771Y410284D01*
X446377Y409695D01*
X446239Y409000D01*
X446377Y408305D01*
X446771Y407716D01*
X447360Y407322D01*
X448055Y407184D01*
X451402D01*
X452097Y407322D01*
X452686Y407716D01*
X452931Y408082D01*
X455000D01*
X455351Y408152D01*
X455649Y408351D01*
X458649Y411351D01*
X458848Y411649D01*
X458918Y412000D01*
Y442620D01*
X460380Y444082D01*
X463530D01*
Y442183D01*
X468470D01*
Y443736D01*
X471530D01*
Y442183D01*
X473082D01*
Y439817D01*
X471530D01*
Y434876D01*
X471716D01*
X471776Y434787D01*
Y433213D01*
X471716Y433124D01*
X471530D01*
Y431775D01*
X468470D01*
Y433124D01*
X468284D01*
X468224Y433213D01*
Y434476D01*
X468870D01*
Y436846D01*
X466000D01*
X463130D01*
Y434476D01*
X463776D01*
Y433213D01*
X463716Y433124D01*
X463530D01*
Y428184D01*
X468470D01*
Y429532D01*
X471530D01*
Y428184D01*
X473082D01*
Y425792D01*
X472558Y425442D01*
X472116Y424780D01*
X471961Y424000D01*
X472107Y423267D01*
X471938Y423062D01*
X471733Y422893D01*
X471000Y423039D01*
X470220Y422884D01*
X469558Y422442D01*
X469116Y421780D01*
X468961Y421000D01*
X469106Y420267D01*
X468938Y420062D01*
X468733Y419894D01*
X468000Y420039D01*
X467220Y419884D01*
X466558Y419442D01*
X466116Y418780D01*
X465961Y418000D01*
X466116Y417220D01*
X466558Y416558D01*
X467082Y416208D01*
Y406704D01*
X467024Y406668D01*
X462329Y402240D01*
X461960Y401903D01*
X461915Y401872D01*
X461856Y401785D01*
X461840Y401766D01*
X461583Y401470D01*
X458183D01*
Y400121D01*
X452794D01*
X452686Y400284D01*
X452097Y400678D01*
X451402Y400816D01*
X448055D01*
X447360Y400678D01*
X446771Y400284D01*
X446377Y399695D01*
X446239Y399000D01*
X446377Y398305D01*
X446771Y397716D01*
X447360Y397322D01*
X448055Y397184D01*
X451402D01*
X452097Y397322D01*
X452686Y397716D01*
X452794Y397879D01*
X458183D01*
Y396530D01*
X463124D01*
Y396716D01*
X463213Y396776D01*
X464476D01*
Y396130D01*
X466847D01*
Y399000D01*
Y401870D01*
X465289D01*
X465104Y402335D01*
X468023Y405087D01*
X468351Y405152D01*
X468649Y405351D01*
X468848Y405649D01*
X468918Y406000D01*
Y416208D01*
X469442Y416558D01*
X469884Y417220D01*
X470039Y418000D01*
X469894Y418733D01*
X470062Y418938D01*
X470267Y419106D01*
X471000Y418961D01*
X471619Y419084D01*
X489851Y400851D01*
X490149Y400652D01*
X490500Y400582D01*
X506069D01*
X506314Y400216D01*
X506904Y399822D01*
X507598Y399684D01*
X510945D01*
X511640Y399822D01*
X512229Y400216D01*
X512623Y400805D01*
X512761Y401500D01*
X512623Y402195D01*
X512229Y402784D01*
X511640Y403178D01*
X510945Y403316D01*
X507598D01*
X506904Y403178D01*
X506314Y402784D01*
X506069Y402418D01*
X490880D01*
X472916Y420381D01*
X473039Y421000D01*
X472893Y421733D01*
X473062Y421938D01*
X473267Y422107D01*
X474000Y421961D01*
X474780Y422116D01*
X475442Y422558D01*
X475884Y423220D01*
X476039Y424000D01*
X475884Y424780D01*
X475442Y425442D01*
X474918Y425792D01*
Y428184D01*
X476470D01*
Y433124D01*
X476284D01*
X476224Y433213D01*
Y434787D01*
X476284Y434876D01*
X476470D01*
Y439817D01*
X474918D01*
Y442183D01*
X476470D01*
Y447124D01*
X476284D01*
X476224Y447213D01*
Y448787D01*
X476284Y448876D01*
X476470D01*
Y453817D01*
X474918D01*
Y456183D01*
X476470D01*
Y461124D01*
X476284D01*
X476224Y461213D01*
Y462787D01*
X476284Y462876D01*
X476470D01*
Y464082D01*
X480620D01*
X496351Y448351D01*
X496649Y448152D01*
X497000Y448082D01*
X505490D01*
X505493Y448060D01*
X505855Y447185D01*
X506432Y446432D01*
X507185Y445855D01*
X508060Y445493D01*
X508354Y445454D01*
Y408316D01*
X507598D01*
X506904Y408178D01*
X506314Y407784D01*
X505921Y407195D01*
X505782Y406500D01*
X505921Y405805D01*
X506314Y405216D01*
X506904Y404822D01*
X507598Y404684D01*
X510945D01*
X511640Y404822D01*
X512229Y405216D01*
X512623Y405805D01*
X512761Y406500D01*
X512623Y407195D01*
X512229Y407784D01*
X511640Y408178D01*
X510945Y408316D01*
X510189D01*
Y445596D01*
X510815Y445855D01*
X511568Y446432D01*
X512145Y447185D01*
X512507Y448060D01*
X512631Y449000D01*
X512507Y449940D01*
X512145Y450815D01*
X511568Y451568D01*
X510815Y452145D01*
X509940Y452507D01*
X509000Y452631D01*
X508060Y452507D01*
X507185Y452145D01*
X506432Y451568D01*
X505855Y450815D01*
X505493Y449940D01*
X505490Y449918D01*
X497380D01*
X491996Y455302D01*
X492297Y455708D01*
X492616Y455537D01*
X494030Y455108D01*
X495000Y455013D01*
Y462000D01*
X488013D01*
X488108Y461030D01*
X488537Y459616D01*
X488708Y459297D01*
X488302Y458996D01*
X481649Y465649D01*
X481351Y465848D01*
X481000Y465918D01*
X476470D01*
Y467816D01*
X471530D01*
Y466264D01*
X468470D01*
Y467816D01*
X463530D01*
Y466264D01*
X423034D01*
X418649Y470649D01*
X418351Y470848D01*
X418000Y470918D01*
D02*
G37*
G36*
X644858Y453316D02*
X639740D01*
X639045Y453178D01*
X638456Y452784D01*
X638347Y452622D01*
X635173D01*
X634780Y452884D01*
X634000Y453039D01*
X633220Y452884D01*
X632558Y452442D01*
X632116Y451780D01*
X631961Y451000D01*
X632116Y450220D01*
X632558Y449558D01*
X633220Y449116D01*
X634000Y448961D01*
X634780Y449116D01*
X635442Y449558D01*
X635884Y450220D01*
X635916Y450378D01*
X638347D01*
X638456Y450216D01*
X639045Y449822D01*
X639740Y449684D01*
X644858D01*
X645553Y449822D01*
X646142Y450216D01*
X646536Y450805D01*
X646674Y451500D01*
X646536Y452195D01*
X646142Y452784D01*
X645553Y453178D01*
X644858Y453316D01*
D02*
G37*
G36*
X682260Y453724D02*
X680201D01*
Y452000D01*
X684384D01*
X684314Y452351D01*
X683832Y453073D01*
X683111Y453555D01*
X682260Y453724D01*
D02*
G37*
G36*
X679201D02*
X677142D01*
X676291Y453555D01*
X675569Y453073D01*
X675087Y452351D01*
X675017Y452000D01*
X679201D01*
Y453724D01*
D02*
G37*
G36*
X684384Y451000D02*
X680201D01*
Y449276D01*
X682260D01*
X683111Y449445D01*
X683832Y449928D01*
X684314Y450649D01*
X684384Y451000D01*
D02*
G37*
G36*
X679201D02*
X675017D01*
X675087Y450649D01*
X675569Y449928D01*
X676291Y449445D01*
X677142Y449276D01*
X679201D01*
Y451000D01*
D02*
G37*
G36*
X590000Y454631D02*
X589060Y454507D01*
X588184Y454145D01*
X587432Y453568D01*
X586855Y452815D01*
X586493Y451940D01*
X586369Y451000D01*
X586493Y450060D01*
X586855Y449185D01*
X587432Y448432D01*
X588184Y447855D01*
X589060Y447493D01*
X590000Y447369D01*
X590940Y447493D01*
X591816Y447855D01*
X592568Y448432D01*
X593145Y449185D01*
X593507Y450060D01*
X593631Y451000D01*
X593507Y451940D01*
X593145Y452815D01*
X592568Y453568D01*
X591816Y454145D01*
X590940Y454507D01*
X590000Y454631D01*
D02*
G37*
G36*
X682260Y448316D02*
X677142D01*
X676447Y448178D01*
X675858Y447784D01*
X675464Y447195D01*
X675326Y446500D01*
X675464Y445805D01*
X675858Y445216D01*
X676447Y444822D01*
X677142Y444684D01*
X682260D01*
X682955Y444822D01*
X683544Y445216D01*
X683938Y445805D01*
X684076Y446500D01*
X683938Y447195D01*
X683544Y447784D01*
X682955Y448178D01*
X682260Y448316D01*
D02*
G37*
G36*
X644858D02*
X639740D01*
X639045Y448178D01*
X638456Y447784D01*
X638062Y447195D01*
X637924Y446500D01*
X638062Y445805D01*
X638456Y445216D01*
X639045Y444822D01*
X639740Y444684D01*
X644858D01*
X645553Y444822D01*
X646142Y445216D01*
X646536Y445805D01*
X646674Y446500D01*
X646536Y447195D01*
X646142Y447784D01*
X645553Y448178D01*
X644858Y448316D01*
D02*
G37*
G36*
X682260Y443316D02*
X677142D01*
X676447Y443178D01*
X675858Y442784D01*
X675464Y442195D01*
X675326Y441500D01*
X675464Y440805D01*
X675858Y440216D01*
X676447Y439822D01*
X677142Y439684D01*
X682260D01*
X682955Y439822D01*
X683544Y440216D01*
X683938Y440805D01*
X684076Y441500D01*
X683938Y442195D01*
X683544Y442784D01*
X682955Y443178D01*
X682260Y443316D01*
D02*
G37*
G36*
X468870Y440216D02*
X466500D01*
Y437847D01*
X468870D01*
Y440216D01*
D02*
G37*
G36*
X414870D02*
X412500D01*
Y437847D01*
X414870D01*
Y440216D01*
D02*
G37*
G36*
X411500D02*
X409130D01*
Y437847D01*
X411500D01*
Y440216D01*
D02*
G37*
G36*
X465500D02*
X463130D01*
Y437847D01*
X465500D01*
Y440216D01*
D02*
G37*
G36*
X600000Y482631D02*
X599060Y482507D01*
X598184Y482145D01*
X597432Y481568D01*
X596855Y480816D01*
X596493Y479940D01*
X596369Y479000D01*
X596493Y478060D01*
X596855Y477184D01*
X597432Y476432D01*
X598184Y475855D01*
X599060Y475493D01*
X599082Y475490D01*
Y475000D01*
X599152Y474649D01*
X599351Y474351D01*
X635351Y438351D01*
X635649Y438152D01*
X636000Y438082D01*
X638071D01*
X638321Y437582D01*
X638062Y437195D01*
X637999Y436878D01*
X635792D01*
X635442Y437403D01*
X634780Y437845D01*
X634000Y438000D01*
X633220Y437845D01*
X632558Y437403D01*
X632116Y436741D01*
X631961Y435961D01*
X632116Y435181D01*
X632224Y435019D01*
X631988Y434578D01*
X627719D01*
X601227Y461070D01*
X601344Y461660D01*
X601816Y461855D01*
X602568Y462432D01*
X603145Y463184D01*
X603507Y464060D01*
X603631Y465000D01*
X603507Y465940D01*
X603145Y466816D01*
X602568Y467568D01*
X601816Y468145D01*
X600940Y468507D01*
X600000Y468631D01*
X599060Y468507D01*
X598184Y468145D01*
X597432Y467568D01*
X596855Y466816D01*
X596493Y465940D01*
X596369Y465000D01*
X596493Y464060D01*
X596855Y463184D01*
X597432Y462432D01*
X598184Y461855D01*
X599060Y461493D01*
X599082Y461490D01*
Y461000D01*
X599152Y460649D01*
X599351Y460351D01*
X626690Y433012D01*
X626988Y432813D01*
X627339Y432743D01*
X632177D01*
X632425Y432243D01*
X632116Y431780D01*
X631961Y431000D01*
X632116Y430220D01*
X632224Y430059D01*
X631988Y429618D01*
X622680D01*
X603131Y449167D01*
X603145Y449185D01*
X603507Y450060D01*
X603631Y451000D01*
X603507Y451940D01*
X603145Y452815D01*
X602568Y453568D01*
X601816Y454145D01*
X600940Y454507D01*
X600000Y454631D01*
X599060Y454507D01*
X598184Y454145D01*
X597432Y453568D01*
X596855Y452815D01*
X596493Y451940D01*
X596369Y451000D01*
X596493Y450060D01*
X596855Y449185D01*
X597432Y448432D01*
X598184Y447855D01*
X599060Y447493D01*
X600000Y447369D01*
X600940Y447493D01*
X601816Y447855D01*
X601833Y447869D01*
X621651Y428051D01*
X621949Y427852D01*
X622300Y427782D01*
X632236D01*
X632451Y427282D01*
X632116Y426780D01*
X631961Y426000D01*
X632116Y425220D01*
X632558Y424558D01*
X633220Y424116D01*
X634000Y423961D01*
X634780Y424116D01*
X635442Y424558D01*
X635792Y425082D01*
X638656D01*
X639045Y424822D01*
X639740Y424684D01*
X644858D01*
X645553Y424822D01*
X646142Y425216D01*
X646536Y425805D01*
X646674Y426500D01*
X646536Y427195D01*
X646438Y427341D01*
X646674Y427782D01*
X669920D01*
X672351Y425351D01*
X672649Y425152D01*
X673000Y425082D01*
X676057D01*
X676447Y424822D01*
X677142Y424684D01*
X682260D01*
X682955Y424822D01*
X683544Y425216D01*
X683938Y425805D01*
X684076Y426500D01*
X683938Y427195D01*
X683544Y427784D01*
X682955Y428178D01*
X682260Y428316D01*
X677142D01*
X676447Y428178D01*
X675858Y427784D01*
X675464Y427195D01*
X675409Y426918D01*
X673380D01*
X670949Y429349D01*
X670651Y429548D01*
X670300Y429618D01*
X646147D01*
X645995Y430118D01*
X646142Y430216D01*
X646536Y430805D01*
X646674Y431500D01*
X646536Y432195D01*
X646464Y432302D01*
X646700Y432743D01*
X669959D01*
X672351Y430351D01*
X672649Y430152D01*
X673000Y430082D01*
X676057D01*
X676447Y429822D01*
X677142Y429684D01*
X682260D01*
X682955Y429822D01*
X683544Y430216D01*
X683938Y430805D01*
X684076Y431500D01*
X683938Y432195D01*
X683544Y432784D01*
X682955Y433178D01*
X682260Y433316D01*
X677142D01*
X676447Y433178D01*
X675858Y432784D01*
X675464Y432195D01*
X675409Y431918D01*
X673380D01*
X670988Y434310D01*
X670690Y434509D01*
X670339Y434578D01*
X646088D01*
X645937Y435078D01*
X646142Y435216D01*
X646536Y435805D01*
X646674Y436500D01*
X646536Y437195D01*
X646277Y437582D01*
X646527Y438082D01*
X669620D01*
X672351Y435351D01*
X672649Y435152D01*
X673000Y435082D01*
X676057D01*
X676447Y434822D01*
X677142Y434684D01*
X682260D01*
X682955Y434822D01*
X683544Y435216D01*
X683938Y435805D01*
X684076Y436500D01*
X683938Y437195D01*
X683544Y437784D01*
X682955Y438178D01*
X682260Y438316D01*
X677142D01*
X676447Y438178D01*
X675858Y437784D01*
X675464Y437195D01*
X675409Y436918D01*
X673380D01*
X670649Y439649D01*
X670351Y439848D01*
X670000Y439918D01*
X646527D01*
X646277Y440418D01*
X646536Y440805D01*
X646674Y441500D01*
X646536Y442195D01*
X646142Y442784D01*
X645553Y443178D01*
X644858Y443316D01*
X639740D01*
X639045Y443178D01*
X638456Y442784D01*
X638062Y442195D01*
X637924Y441500D01*
X638062Y440805D01*
X638321Y440418D01*
X638071Y439918D01*
X636380D01*
X601227Y475070D01*
X601344Y475660D01*
X601816Y475855D01*
X602568Y476432D01*
X603145Y477184D01*
X603507Y478060D01*
X603631Y479000D01*
X603507Y479940D01*
X603145Y480816D01*
X602568Y481568D01*
X601816Y482145D01*
X600940Y482507D01*
X600000Y482631D01*
D02*
G37*
G36*
X496000Y442987D02*
Y436000D01*
X502987D01*
X502891Y436970D01*
X502463Y438384D01*
X501766Y439687D01*
X500829Y440829D01*
X499687Y441766D01*
X498384Y442463D01*
X496970Y442892D01*
X496000Y442987D01*
D02*
G37*
G36*
X523000D02*
Y436000D01*
X529987D01*
X529891Y436970D01*
X529463Y438384D01*
X528766Y439687D01*
X527829Y440829D01*
X526687Y441766D01*
X525384Y442463D01*
X523970Y442892D01*
X523000Y442987D01*
D02*
G37*
G36*
X383000D02*
Y436000D01*
X389987D01*
X389892Y436970D01*
X389463Y438384D01*
X388766Y439687D01*
X387829Y440829D01*
X386687Y441766D01*
X385384Y442463D01*
X383970Y442892D01*
X383000Y442987D01*
D02*
G37*
G36*
X382000D02*
X381030Y442892D01*
X379616Y442463D01*
X378313Y441766D01*
X377171Y440829D01*
X376234Y439687D01*
X375537Y438384D01*
X375109Y436970D01*
X375013Y436000D01*
X382000D01*
Y442987D01*
D02*
G37*
G36*
X356000D02*
Y436000D01*
X362987D01*
X362892Y436970D01*
X362463Y438384D01*
X361766Y439687D01*
X360829Y440829D01*
X359687Y441766D01*
X358384Y442463D01*
X356970Y442892D01*
X356000Y442987D01*
D02*
G37*
G36*
X355000D02*
X354030Y442892D01*
X352616Y442463D01*
X351313Y441766D01*
X350171Y440829D01*
X349234Y439687D01*
X348537Y438384D01*
X348109Y436970D01*
X348013Y436000D01*
X355000D01*
Y442987D01*
D02*
G37*
G36*
X495000D02*
X494030Y442892D01*
X492616Y442463D01*
X491313Y441766D01*
X490171Y440829D01*
X489234Y439687D01*
X488537Y438384D01*
X488108Y436970D01*
X488013Y436000D01*
X495000D01*
Y442987D01*
D02*
G37*
G36*
X522000D02*
X521030Y442892D01*
X519616Y442463D01*
X518313Y441766D01*
X517171Y440829D01*
X516234Y439687D01*
X515537Y438384D01*
X515108Y436970D01*
X515013Y436000D01*
X522000D01*
Y442987D01*
D02*
G37*
G36*
X583600Y440600D02*
X576400D01*
Y433400D01*
X583600D01*
Y440600D01*
D02*
G37*
G36*
X590000Y440631D02*
X589060Y440507D01*
X588184Y440145D01*
X587432Y439568D01*
X586855Y438815D01*
X586493Y437940D01*
X586369Y437000D01*
X586493Y436060D01*
X586855Y435184D01*
X587432Y434432D01*
X588184Y433855D01*
X589060Y433493D01*
X590000Y433369D01*
X590940Y433493D01*
X591816Y433855D01*
X592568Y434432D01*
X593145Y435184D01*
X593507Y436060D01*
X593631Y437000D01*
X593507Y437940D01*
X593145Y438815D01*
X592568Y439568D01*
X591816Y440145D01*
X590940Y440507D01*
X590000Y440631D01*
D02*
G37*
G36*
X529987Y435000D02*
X523000D01*
Y428013D01*
X523970Y428109D01*
X525384Y428537D01*
X526687Y429234D01*
X527829Y430171D01*
X528766Y431313D01*
X529463Y432616D01*
X529891Y434030D01*
X529987Y435000D01*
D02*
G37*
G36*
X502987D02*
X496000D01*
Y428013D01*
X496970Y428109D01*
X498384Y428537D01*
X499687Y429234D01*
X500829Y430171D01*
X501766Y431313D01*
X502463Y432616D01*
X502891Y434030D01*
X502987Y435000D01*
D02*
G37*
G36*
X389987D02*
X383000D01*
Y428013D01*
X383970Y428109D01*
X385384Y428537D01*
X386687Y429234D01*
X387829Y430171D01*
X388766Y431313D01*
X389463Y432616D01*
X389892Y434030D01*
X389987Y435000D01*
D02*
G37*
G36*
X382000D02*
X375013D01*
X375109Y434030D01*
X375537Y432616D01*
X376234Y431313D01*
X377171Y430171D01*
X378313Y429234D01*
X379616Y428537D01*
X381030Y428109D01*
X382000Y428013D01*
Y435000D01*
D02*
G37*
G36*
X362987D02*
X356000D01*
Y428013D01*
X356970Y428109D01*
X358384Y428537D01*
X359687Y429234D01*
X360829Y430171D01*
X361766Y431313D01*
X362463Y432616D01*
X362892Y434030D01*
X362987Y435000D01*
D02*
G37*
G36*
X355000D02*
X348013D01*
X348109Y434030D01*
X348537Y432616D01*
X349234Y431313D01*
X350171Y430171D01*
X351313Y429234D01*
X352616Y428537D01*
X354030Y428109D01*
X355000Y428013D01*
Y435000D01*
D02*
G37*
G36*
X522000D02*
X515013D01*
X515108Y434030D01*
X515537Y432616D01*
X516234Y431313D01*
X517171Y430171D01*
X518313Y429234D01*
X519616Y428537D01*
X521030Y428109D01*
X522000Y428013D01*
Y435000D01*
D02*
G37*
G36*
X495000D02*
X488013D01*
X488108Y434030D01*
X488537Y432616D01*
X489234Y431313D01*
X490171Y430171D01*
X491313Y429234D01*
X492616Y428537D01*
X494030Y428109D01*
X495000Y428013D01*
Y435000D01*
D02*
G37*
G36*
X644858Y423316D02*
X639740D01*
X639045Y423178D01*
X638456Y422784D01*
X638211Y422418D01*
X635470D01*
Y422817D01*
X630530D01*
Y417876D01*
X630716D01*
X630776Y417787D01*
Y416213D01*
X630716Y416124D01*
X630530D01*
Y411184D01*
X635470D01*
Y413736D01*
X636654D01*
X637005Y413806D01*
X637302Y414005D01*
X638491Y415193D01*
X639045Y414822D01*
X639740Y414684D01*
X644858D01*
X645553Y414822D01*
X646142Y415216D01*
X646251Y415378D01*
X651827D01*
X652220Y415116D01*
X653000Y414961D01*
X653780Y415116D01*
X654442Y415558D01*
X654884Y416220D01*
X655039Y417000D01*
X654884Y417780D01*
X654442Y418442D01*
X653780Y418884D01*
X653000Y419039D01*
X652220Y418884D01*
X651558Y418442D01*
X651116Y417780D01*
X651085Y417622D01*
X646251D01*
X646142Y417784D01*
X645553Y418178D01*
X644858Y418316D01*
X639740D01*
X639045Y418178D01*
X638456Y417784D01*
X638167Y417351D01*
X638149Y417348D01*
X637851Y417149D01*
X636273Y415571D01*
X635470D01*
Y416124D01*
X635284D01*
X635224Y416213D01*
Y417787D01*
X635284Y417876D01*
X635470D01*
Y420582D01*
X638211D01*
X638456Y420216D01*
X639045Y419822D01*
X639740Y419684D01*
X644858D01*
X645553Y419822D01*
X645637Y419878D01*
X648344D01*
X648558Y419558D01*
X649220Y419116D01*
X650000Y418961D01*
X650780Y419116D01*
X651442Y419558D01*
X651884Y420220D01*
X652039Y421000D01*
X651884Y421780D01*
X651442Y422442D01*
X650780Y422884D01*
X650000Y423039D01*
X649220Y422884D01*
X648558Y422442D01*
X648344Y422122D01*
X646551D01*
X646536Y422195D01*
X646142Y422784D01*
X645553Y423178D01*
X644858Y423316D01*
D02*
G37*
G36*
X682260Y423724D02*
X680201D01*
Y422000D01*
X684384D01*
X684314Y422351D01*
X683832Y423072D01*
X683111Y423555D01*
X682260Y423724D01*
D02*
G37*
G36*
X679201D02*
X677142D01*
X676291Y423555D01*
X675569Y423072D01*
X675087Y422351D01*
X675017Y422000D01*
X679201D01*
Y423724D01*
D02*
G37*
G36*
X690870Y424217D02*
X688500D01*
Y421846D01*
X690870D01*
Y424217D01*
D02*
G37*
G36*
X687500D02*
X685130D01*
Y421846D01*
X687500D01*
Y424217D01*
D02*
G37*
G36*
X583600Y426600D02*
X576400D01*
Y419400D01*
X583600D01*
Y426600D01*
D02*
G37*
G36*
X590000Y426631D02*
X589060Y426507D01*
X588184Y426145D01*
X587432Y425568D01*
X586855Y424816D01*
X586493Y423940D01*
X586369Y423000D01*
X586493Y422060D01*
X586855Y421184D01*
X587432Y420432D01*
X588184Y419855D01*
X589060Y419493D01*
X590000Y419369D01*
X590940Y419493D01*
X591816Y419855D01*
X592568Y420432D01*
X593145Y421184D01*
X593507Y422060D01*
X593631Y423000D01*
X593507Y423940D01*
X593145Y424816D01*
X592568Y425568D01*
X591816Y426145D01*
X590940Y426507D01*
X590000Y426631D01*
D02*
G37*
G36*
X684384Y421000D02*
X680201D01*
Y419276D01*
X682260D01*
X683111Y419445D01*
X683832Y419928D01*
X684314Y420649D01*
X684384Y421000D01*
D02*
G37*
G36*
X679201D02*
X675017D01*
X675087Y420649D01*
X675569Y419928D01*
X676291Y419445D01*
X677142Y419276D01*
X679201D01*
Y421000D01*
D02*
G37*
G36*
X410000Y419039D02*
X409220Y418884D01*
X408558Y418442D01*
X408208Y417918D01*
X398792D01*
X398442Y418442D01*
X397780Y418884D01*
X397000Y419039D01*
X396220Y418884D01*
X395558Y418442D01*
X395116Y417780D01*
X394961Y417000D01*
X395116Y416220D01*
X395558Y415558D01*
X396220Y415116D01*
X397000Y414961D01*
X397780Y415116D01*
X398442Y415558D01*
X398792Y416082D01*
X408208D01*
X408558Y415558D01*
X409220Y415116D01*
X410000Y414961D01*
X410780Y415116D01*
X411442Y415558D01*
X411884Y416220D01*
X412039Y417000D01*
X411884Y417780D01*
X411442Y418442D01*
X410780Y418884D01*
X410000Y419039D01*
D02*
G37*
G36*
X690870Y420847D02*
X688000D01*
X685130D01*
Y418476D01*
X685776D01*
Y417213D01*
X685716Y417124D01*
X685530D01*
Y416763D01*
X685030Y416556D01*
X684293Y417293D01*
X683929Y417536D01*
X683676Y417587D01*
X683544Y417784D01*
X682955Y418178D01*
X682260Y418316D01*
X677142D01*
X676447Y418178D01*
X675858Y417784D01*
X675464Y417195D01*
X675326Y416500D01*
X675464Y415805D01*
X675858Y415216D01*
X676447Y414822D01*
X677142Y414684D01*
X682260D01*
X682955Y414822D01*
X683336Y415077D01*
X684207Y414207D01*
X684571Y413964D01*
X685000Y413878D01*
X685000Y413878D01*
X685530D01*
Y412184D01*
X686878D01*
Y411000D01*
X686878Y411000D01*
X686964Y410571D01*
X687207Y410207D01*
X688036Y409378D01*
X687961Y409000D01*
X688116Y408220D01*
X688558Y407558D01*
X689220Y407116D01*
X690000Y406961D01*
X690780Y407116D01*
X691442Y407558D01*
X691884Y408220D01*
X692039Y409000D01*
X691884Y409780D01*
X691442Y410442D01*
X690780Y410884D01*
X690000Y411039D01*
X689622Y410964D01*
X689122Y411465D01*
Y412184D01*
X690470D01*
Y417124D01*
X690284D01*
X690224Y417213D01*
Y418476D01*
X690870D01*
Y420847D01*
D02*
G37*
G36*
X583600Y454600D02*
X576400D01*
Y448698D01*
X569351Y441649D01*
X569152Y441351D01*
X569082Y441000D01*
Y418000D01*
X569152Y417649D01*
X569351Y417351D01*
X572351Y414351D01*
X572649Y414152D01*
X573000Y414082D01*
X591620D01*
X594082Y411620D01*
Y409403D01*
X593582Y409370D01*
X593507Y409940D01*
X593145Y410815D01*
X592568Y411568D01*
X591816Y412145D01*
X590940Y412507D01*
X590000Y412631D01*
X589060Y412507D01*
X588184Y412145D01*
X587432Y411568D01*
X586855Y410815D01*
X586493Y409940D01*
X586369Y409000D01*
X586493Y408060D01*
X586855Y407185D01*
X587432Y406432D01*
X588184Y405855D01*
X589060Y405493D01*
X590000Y405369D01*
X590940Y405493D01*
X591816Y405855D01*
X592568Y406432D01*
X593145Y407185D01*
X593507Y408060D01*
X593582Y408630D01*
X594082Y408597D01*
Y403039D01*
X594152Y402688D01*
X594351Y402390D01*
X595874Y400867D01*
X595816Y400780D01*
X595661Y400000D01*
X595816Y399220D01*
X596258Y398558D01*
X596920Y398116D01*
X597700Y397961D01*
X598480Y398116D01*
X599142Y398558D01*
X599584Y399220D01*
X599739Y400000D01*
X599584Y400780D01*
X599142Y401442D01*
X598480Y401884D01*
X597700Y402039D01*
X597365Y401972D01*
X595918Y403419D01*
Y408597D01*
X596418Y408630D01*
X596493Y408060D01*
X596855Y407185D01*
X597432Y406432D01*
X598184Y405855D01*
X599060Y405493D01*
X600000Y405369D01*
X600940Y405493D01*
X601816Y405855D01*
X602568Y406432D01*
X603145Y407185D01*
X603507Y408060D01*
X603510Y408082D01*
X604620D01*
X643082Y369620D01*
Y352535D01*
X643152Y352184D01*
X643351Y351887D01*
X645903Y349335D01*
X645897Y349327D01*
X645539Y348463D01*
X645417Y347535D01*
X645539Y346608D01*
X645897Y345744D01*
X646466Y345002D01*
X647208Y344432D01*
X648072Y344074D01*
X649000Y343952D01*
X649928Y344074D01*
X650792Y344432D01*
X651534Y345002D01*
X652103Y345744D01*
X652461Y346608D01*
X652583Y347535D01*
X652461Y348463D01*
X652103Y349327D01*
X651534Y350069D01*
X650792Y350639D01*
X649928Y350997D01*
X649000Y351119D01*
X648072Y350997D01*
X647208Y350639D01*
X647200Y350633D01*
X644918Y352916D01*
Y370000D01*
X644848Y370351D01*
X644649Y370649D01*
X605649Y409649D01*
X605351Y409848D01*
X605000Y409918D01*
X603510D01*
X603507Y409940D01*
X603145Y410815D01*
X602568Y411568D01*
X601816Y412145D01*
X600940Y412507D01*
X600000Y412631D01*
X599060Y412507D01*
X598184Y412145D01*
X597432Y411568D01*
X596855Y410815D01*
X596493Y409940D01*
X596418Y409370D01*
X595918Y409403D01*
Y412000D01*
X595848Y412351D01*
X595649Y412649D01*
X592649Y415649D01*
X592351Y415848D01*
X592000Y415918D01*
X573380D01*
X570918Y418380D01*
Y440620D01*
X577698Y447400D01*
X583600D01*
Y454600D01*
D02*
G37*
G36*
X532402Y408724D02*
X531228D01*
Y407000D01*
X534526D01*
X534456Y407351D01*
X533974Y408073D01*
X533253Y408555D01*
X532402Y408724D01*
D02*
G37*
G36*
X530228D02*
X529055D01*
X528204Y408555D01*
X527483Y408073D01*
X527001Y407351D01*
X526931Y407000D01*
X530228D01*
Y408724D01*
D02*
G37*
G36*
X583600Y412600D02*
X576400D01*
Y405400D01*
X583600D01*
Y412600D01*
D02*
G37*
G36*
X459000Y406039D02*
X458220Y405884D01*
X457558Y405442D01*
X457208Y404918D01*
X452931D01*
X452686Y405284D01*
X452097Y405678D01*
X451402Y405816D01*
X448055D01*
X447360Y405678D01*
X446771Y405284D01*
X446377Y404695D01*
X446239Y404000D01*
X446377Y403305D01*
X446771Y402716D01*
X447360Y402322D01*
X448055Y402184D01*
X451402D01*
X452097Y402322D01*
X452686Y402716D01*
X452931Y403082D01*
X457208D01*
X457558Y402558D01*
X458220Y402116D01*
X459000Y401961D01*
X459780Y402116D01*
X460442Y402558D01*
X460884Y403220D01*
X461039Y404000D01*
X460884Y404780D01*
X460442Y405442D01*
X459780Y405884D01*
X459000Y406039D01*
D02*
G37*
G36*
X534526Y406000D02*
X531228D01*
Y404276D01*
X532402D01*
X533253Y404445D01*
X533974Y404927D01*
X534456Y405649D01*
X534526Y406000D01*
D02*
G37*
G36*
X530228D02*
X526931D01*
X527001Y405649D01*
X527483Y404927D01*
X528204Y404445D01*
X529055Y404276D01*
X530228D01*
Y406000D01*
D02*
G37*
G36*
X419000Y406039D02*
X418220Y405884D01*
X417558Y405442D01*
X417116Y404780D01*
X416961Y404000D01*
X417116Y403220D01*
X417558Y402558D01*
X418220Y402116D01*
X419000Y401961D01*
X419780Y402116D01*
X420442Y402558D01*
X420792Y403082D01*
X425070D01*
X425314Y402716D01*
X425904Y402322D01*
X426598Y402184D01*
X429945D01*
X430640Y402322D01*
X431229Y402716D01*
X431623Y403305D01*
X431761Y404000D01*
X431623Y404695D01*
X431229Y405284D01*
X430640Y405678D01*
X429945Y405816D01*
X426598D01*
X425904Y405678D01*
X425314Y405284D01*
X425070Y404918D01*
X420792D01*
X420442Y405442D01*
X419780Y405884D01*
X419000Y406039D01*
D02*
G37*
G36*
X532402Y403724D02*
X531228D01*
Y402000D01*
X534526D01*
X534456Y402351D01*
X533974Y403073D01*
X533253Y403555D01*
X532402Y403724D01*
D02*
G37*
G36*
X530228D02*
X529055D01*
X528204Y403555D01*
X527483Y403073D01*
X527001Y402351D01*
X526931Y402000D01*
X530228D01*
Y403724D01*
D02*
G37*
G36*
X600000Y440631D02*
X599060Y440507D01*
X598184Y440145D01*
X597432Y439568D01*
X596855Y438815D01*
X596493Y437940D01*
X596369Y437000D01*
X596493Y436060D01*
X596855Y435184D01*
X597432Y434432D01*
X598184Y433855D01*
X599060Y433493D01*
X599082Y433490D01*
Y431000D01*
X599152Y430649D01*
X599351Y430351D01*
X627084Y402618D01*
X626961Y402000D01*
X627116Y401220D01*
X627558Y400558D01*
X628220Y400116D01*
X629000Y399961D01*
X629780Y400116D01*
X630442Y400558D01*
X630884Y401220D01*
X631039Y402000D01*
X630884Y402780D01*
X630442Y403442D01*
X629780Y403884D01*
X629000Y404039D01*
X628381Y403916D01*
X600918Y431380D01*
Y433490D01*
X600940Y433493D01*
X601816Y433855D01*
X602568Y434432D01*
X603145Y435184D01*
X603507Y436060D01*
X603631Y437000D01*
X603507Y437940D01*
X603145Y438815D01*
X602568Y439568D01*
X601816Y440145D01*
X600940Y440507D01*
X600000Y440631D01*
D02*
G37*
G36*
X470217Y401870D02*
X467846D01*
Y399500D01*
X470217D01*
Y401870D01*
D02*
G37*
G36*
X410153D02*
X407784D01*
Y399500D01*
X410153D01*
Y401870D01*
D02*
G37*
G36*
X534526Y401000D02*
X531228D01*
Y399276D01*
X532402D01*
X533253Y399445D01*
X533974Y399927D01*
X534456Y400649D01*
X534526Y401000D01*
D02*
G37*
G36*
X530228D02*
X526931D01*
X527001Y400649D01*
X527483Y399927D01*
X528204Y399445D01*
X529055Y399276D01*
X530228D01*
Y401000D01*
D02*
G37*
G36*
X583600Y482600D02*
X576400D01*
Y476698D01*
X561351Y461649D01*
X561152Y461351D01*
X561082Y461000D01*
Y407000D01*
X561152Y406649D01*
X561351Y406351D01*
X568351Y399351D01*
X568649Y399152D01*
X569000Y399082D01*
X584169D01*
X584519Y398558D01*
X585181Y398116D01*
X585961Y397961D01*
X586741Y398116D01*
X587403Y398558D01*
X587845Y399220D01*
X588000Y400000D01*
X587845Y400780D01*
X587403Y401442D01*
X587193Y401582D01*
X587344Y402082D01*
X588620D01*
X590084Y400618D01*
X589961Y400000D01*
X590116Y399220D01*
X590558Y398558D01*
X591220Y398116D01*
X592000Y397961D01*
X592780Y398116D01*
X593442Y398558D01*
X593884Y399220D01*
X594039Y400000D01*
X593884Y400780D01*
X593442Y401442D01*
X592780Y401884D01*
X592000Y402039D01*
X591382Y401916D01*
X589649Y403649D01*
X589351Y403848D01*
X589000Y403918D01*
X570380D01*
X566918Y407380D01*
Y450620D01*
X577698Y461400D01*
X583600D01*
Y468600D01*
X576400D01*
Y462698D01*
X565351Y451649D01*
X565152Y451351D01*
X565082Y451000D01*
Y407000D01*
X565152Y406649D01*
X565351Y406351D01*
X569351Y402351D01*
X569649Y402152D01*
X570000Y402082D01*
X584577D01*
X584729Y401582D01*
X584519Y401442D01*
X584169Y400918D01*
X569380D01*
X562918Y407380D01*
Y460620D01*
X577698Y475400D01*
X583600D01*
Y482600D01*
D02*
G37*
G36*
X413524Y401870D02*
X411154D01*
Y399000D01*
Y396130D01*
X412711D01*
X412895Y395665D01*
X409982Y392918D01*
X399792D01*
X399442Y393442D01*
X398780Y393884D01*
X398000Y394039D01*
X397220Y393884D01*
X396558Y393442D01*
X396116Y392780D01*
X395961Y392000D01*
X396116Y391220D01*
X396558Y390558D01*
X397220Y390116D01*
X398000Y389961D01*
X398780Y390116D01*
X399442Y390558D01*
X399792Y391082D01*
X410347D01*
X410509Y391115D01*
X410673Y391142D01*
X410684Y391149D01*
X410698Y391152D01*
X410836Y391244D01*
X410976Y391332D01*
X416034Y396103D01*
X416040Y396097D01*
X416085Y396128D01*
X416144Y396215D01*
X416160Y396234D01*
X416417Y396530D01*
X419816D01*
Y397879D01*
X425206D01*
X425314Y397716D01*
X425904Y397322D01*
X426598Y397184D01*
X429945D01*
X430640Y397322D01*
X431229Y397716D01*
X431623Y398305D01*
X431761Y399000D01*
X431623Y399695D01*
X431229Y400284D01*
X430640Y400678D01*
X429945Y400816D01*
X426598D01*
X425904Y400678D01*
X425314Y400284D01*
X425206Y400121D01*
X419816D01*
Y401470D01*
X414876D01*
Y401284D01*
X414787Y401224D01*
X413524D01*
Y401870D01*
D02*
G37*
G36*
X532402Y398724D02*
X531228D01*
Y397000D01*
X534526D01*
X534456Y397351D01*
X533974Y398073D01*
X533253Y398555D01*
X532402Y398724D01*
D02*
G37*
G36*
X530228D02*
X529055D01*
X528204Y398555D01*
X527483Y398073D01*
X527001Y397351D01*
X526931Y397000D01*
X530228D01*
Y398724D01*
D02*
G37*
G36*
X470217Y398500D02*
X467846D01*
Y396130D01*
X470217D01*
Y398500D01*
D02*
G37*
G36*
X410153D02*
X407784D01*
Y396130D01*
X410153D01*
Y398500D01*
D02*
G37*
G36*
X321000Y414206D02*
X319816Y414050D01*
X318712Y413593D01*
X317764Y412866D01*
X317037Y411918D01*
X316580Y410814D01*
X316424Y409630D01*
X316580Y408446D01*
X317037Y407342D01*
X317764Y406394D01*
X318712Y405667D01*
X319816Y405210D01*
X321000Y405054D01*
X322184Y405210D01*
X323288Y405667D01*
X324236Y406394D01*
X324963Y407342D01*
X325420Y408446D01*
X325455Y408712D01*
X327990D01*
X332082Y404620D01*
Y353082D01*
X332152Y352731D01*
X332351Y352433D01*
X336434Y348351D01*
X336731Y348152D01*
X337082Y348082D01*
X365490D01*
X365493Y348060D01*
X365855Y347184D01*
X366432Y346432D01*
X367184Y345855D01*
X368060Y345493D01*
X369000Y345369D01*
X369940Y345493D01*
X370815Y345855D01*
X371568Y346432D01*
X372145Y347184D01*
X372507Y348060D01*
X372510Y348082D01*
X381260D01*
X386060Y342669D01*
X385745Y342270D01*
X385384Y342463D01*
X383970Y342892D01*
X383000Y342987D01*
Y336000D01*
X389987D01*
X389892Y336970D01*
X389605Y337916D01*
X390051Y338166D01*
X395310Y332233D01*
X395333Y332216D01*
X395348Y332193D01*
X395537Y332005D01*
X395834Y331806D01*
X396185Y331736D01*
X401530D01*
Y330184D01*
X406470D01*
Y331736D01*
X409530D01*
Y330184D01*
X414470D01*
Y331736D01*
X415654D01*
X416005Y331806D01*
X416302Y332005D01*
X438649Y354351D01*
X438848Y354649D01*
X438918Y355000D01*
Y386620D01*
X442483Y390185D01*
X446111D01*
X446393Y389776D01*
X446375Y389685D01*
X446239Y389000D01*
X446377Y388305D01*
X446771Y387716D01*
X447360Y387322D01*
X448055Y387184D01*
X451402D01*
X452097Y387322D01*
X452686Y387716D01*
X452931Y388082D01*
X455620D01*
X458082Y385620D01*
Y355000D01*
X458152Y354649D01*
X458351Y354351D01*
X460351Y352351D01*
X460649Y352152D01*
X461000Y352082D01*
X463530D01*
Y350876D01*
X463716D01*
X463776Y350787D01*
Y349524D01*
X463130D01*
Y347153D01*
X466000D01*
X468870D01*
Y349524D01*
X468224D01*
Y350787D01*
X468284Y350876D01*
X468470D01*
Y352429D01*
X471530D01*
Y350876D01*
X471716D01*
X471776Y350787D01*
Y349213D01*
X471716Y349124D01*
X471530D01*
Y344183D01*
X473082D01*
Y341816D01*
X472481D01*
X470649Y343649D01*
X470351Y343848D01*
X470000Y343918D01*
X468870D01*
Y346153D01*
X466000D01*
X463130D01*
Y343918D01*
X459380D01*
X456918Y346380D01*
Y382000D01*
X456848Y382351D01*
X456649Y382649D01*
X454649Y384649D01*
X454351Y384848D01*
X454000Y384918D01*
X452931D01*
X452686Y385284D01*
X452097Y385678D01*
X451402Y385816D01*
X448055D01*
X447360Y385678D01*
X446771Y385284D01*
X446377Y384695D01*
X446239Y384000D01*
X446377Y383305D01*
X446771Y382716D01*
X447360Y382322D01*
X448055Y382184D01*
X451402D01*
X452097Y382322D01*
X452686Y382716D01*
X452931Y383082D01*
X453620D01*
X455082Y381620D01*
Y346000D01*
X455152Y345649D01*
X455351Y345351D01*
X458351Y342351D01*
X458649Y342152D01*
X459000Y342082D01*
X463130D01*
Y339846D01*
X466000D01*
Y338846D01*
X463130D01*
Y336476D01*
X463776D01*
Y335213D01*
X463716Y335124D01*
X463530D01*
Y333571D01*
X420653D01*
X420302Y333501D01*
X420005Y333302D01*
X414620Y327918D01*
X385063D01*
X384989Y328418D01*
X385384Y328537D01*
X386687Y329234D01*
X387829Y330171D01*
X388766Y331313D01*
X389463Y332616D01*
X389892Y334030D01*
X389987Y335000D01*
X375013D01*
X375109Y334030D01*
X375537Y332616D01*
X376234Y331313D01*
X377171Y330171D01*
X378313Y329234D01*
X379616Y328537D01*
X380011Y328418D01*
X379937Y327918D01*
X358063D01*
X357989Y328418D01*
X358384Y328537D01*
X359687Y329234D01*
X360829Y330171D01*
X361766Y331313D01*
X362463Y332616D01*
X362892Y334030D01*
X362987Y335000D01*
X348013D01*
X348109Y334030D01*
X348537Y332616D01*
X349234Y331313D01*
X350171Y330171D01*
X351313Y329234D01*
X352616Y328537D01*
X353011Y328418D01*
X352937Y327918D01*
X316380D01*
X312918Y331380D01*
Y383620D01*
X316645Y387347D01*
X317308Y387303D01*
X317764Y386709D01*
X318712Y385982D01*
X319816Y385525D01*
X321000Y385369D01*
X322184Y385525D01*
X323288Y385982D01*
X324236Y386709D01*
X324963Y387657D01*
X325420Y388760D01*
X325576Y389945D01*
X325420Y391129D01*
X324963Y392233D01*
X324236Y393181D01*
X323288Y393908D01*
X322184Y394365D01*
X321000Y394521D01*
X319816Y394365D01*
X318712Y393908D01*
X317764Y393181D01*
X317037Y392233D01*
X316580Y391129D01*
X316424Y389945D01*
X316478Y389535D01*
X316301Y389500D01*
X316003Y389301D01*
X311351Y384649D01*
X311152Y384351D01*
X311082Y384000D01*
Y331000D01*
X311152Y330649D01*
X311351Y330351D01*
X315351Y326351D01*
X315649Y326152D01*
X316000Y326082D01*
X415000D01*
X415351Y326152D01*
X415649Y326351D01*
X421034Y331736D01*
X463530D01*
Y330184D01*
X468470D01*
Y331736D01*
X471530D01*
Y330184D01*
X476470D01*
Y331736D01*
X480653D01*
X481005Y331806D01*
X481302Y332005D01*
X488302Y339004D01*
X488708Y338703D01*
X488537Y338384D01*
X488108Y336970D01*
X488013Y336000D01*
X495000D01*
Y342987D01*
X494030Y342892D01*
X492616Y342463D01*
X492297Y342292D01*
X491996Y342698D01*
X497380Y348082D01*
X505490D01*
X505493Y348060D01*
X505855Y347184D01*
X506432Y346432D01*
X507185Y345855D01*
X508060Y345493D01*
X509000Y345369D01*
X509940Y345493D01*
X510815Y345855D01*
X511568Y346432D01*
X512145Y347184D01*
X512507Y348060D01*
X512631Y349000D01*
X512507Y349940D01*
X512145Y350816D01*
X511568Y351568D01*
X510815Y352145D01*
X510189Y352404D01*
Y389684D01*
X510945D01*
X511640Y389822D01*
X512229Y390216D01*
X512623Y390805D01*
X512761Y391500D01*
X512623Y392195D01*
X512229Y392784D01*
X511640Y393178D01*
X510945Y393316D01*
X507598D01*
X506904Y393178D01*
X506314Y392784D01*
X505921Y392195D01*
X505782Y391500D01*
X505921Y390805D01*
X506314Y390216D01*
X506904Y389822D01*
X507598Y389684D01*
X508354D01*
Y352546D01*
X508060Y352507D01*
X507185Y352145D01*
X506432Y351568D01*
X505855Y350816D01*
X505493Y349940D01*
X505490Y349918D01*
X497000D01*
X496649Y349848D01*
X496351Y349649D01*
X480273Y333571D01*
X476470D01*
Y335124D01*
X476284D01*
X476224Y335213D01*
Y336787D01*
X476284Y336876D01*
X476470D01*
Y341816D01*
X474918D01*
Y344183D01*
X476470D01*
Y349124D01*
X476284D01*
X476224Y349213D01*
Y350787D01*
X476284Y350876D01*
X476470D01*
Y355817D01*
X474918D01*
Y358184D01*
X476470D01*
Y363124D01*
X476284D01*
X476224Y363213D01*
Y364787D01*
X476284Y364876D01*
X476470D01*
Y369816D01*
X474918D01*
Y372208D01*
X475442Y372558D01*
X475884Y373220D01*
X476039Y374000D01*
X475884Y374780D01*
X475442Y375442D01*
X474780Y375884D01*
X474000Y376039D01*
X473220Y375884D01*
X472558Y375442D01*
X472116Y374780D01*
X471961Y374000D01*
X472116Y373220D01*
X472558Y372558D01*
X473082Y372208D01*
Y369816D01*
X471530D01*
Y368468D01*
X468470D01*
Y369816D01*
X463530D01*
Y364876D01*
X463716D01*
X463776Y364787D01*
Y363524D01*
X463130D01*
Y361154D01*
X466000D01*
X468870D01*
Y363524D01*
X468224D01*
Y364787D01*
X468284Y364876D01*
X468470D01*
Y366225D01*
X471530D01*
Y364876D01*
X471716D01*
X471776Y364787D01*
Y363213D01*
X471716Y363124D01*
X471530D01*
Y358184D01*
X473082D01*
Y355817D01*
X471530D01*
Y354264D01*
X468470D01*
Y355817D01*
X463530D01*
Y353918D01*
X461380D01*
X459918Y355380D01*
Y386000D01*
X459848Y386351D01*
X459649Y386649D01*
X456649Y389649D01*
X456594Y389685D01*
X456746Y390185D01*
X486103D01*
X486454Y390255D01*
X486752Y390454D01*
X491880Y395582D01*
X506069D01*
X506314Y395216D01*
X506904Y394822D01*
X507598Y394684D01*
X510945D01*
X511640Y394822D01*
X512229Y395216D01*
X512623Y395805D01*
X512761Y396500D01*
X512623Y397195D01*
X512229Y397784D01*
X511640Y398178D01*
X510945Y398316D01*
X507598D01*
X506904Y398178D01*
X506314Y397784D01*
X506069Y397418D01*
X491500D01*
X491149Y397348D01*
X490851Y397149D01*
X485723Y392021D01*
X460537D01*
X460386Y392520D01*
X460442Y392558D01*
X460884Y393220D01*
X461039Y394000D01*
X460884Y394780D01*
X460442Y395442D01*
X459780Y395884D01*
X459000Y396039D01*
X458220Y395884D01*
X457558Y395442D01*
X457208Y394918D01*
X452931D01*
X452686Y395284D01*
X452097Y395678D01*
X451402Y395816D01*
X448055D01*
X447360Y395678D01*
X446771Y395284D01*
X446377Y394695D01*
X446239Y394000D01*
X446377Y393305D01*
X446771Y392716D01*
X447063Y392520D01*
X446912Y392021D01*
X442103D01*
X441752Y391951D01*
X441454Y391752D01*
X437351Y387649D01*
X437152Y387351D01*
X437082Y387000D01*
Y355380D01*
X415273Y333571D01*
X414470D01*
Y335124D01*
X414284D01*
X414224Y335213D01*
Y336476D01*
X414870D01*
Y338846D01*
X412000D01*
Y339846D01*
X414870D01*
Y342082D01*
X419000D01*
X419351Y342152D01*
X419649Y342351D01*
X422649Y345351D01*
X422848Y345649D01*
X422918Y346000D01*
Y381620D01*
X424380Y383082D01*
X425070D01*
X425314Y382716D01*
X425904Y382322D01*
X426598Y382184D01*
X429945D01*
X430640Y382322D01*
X431229Y382716D01*
X431623Y383305D01*
X431761Y384000D01*
X431623Y384695D01*
X431229Y385284D01*
X430640Y385678D01*
X429945Y385816D01*
X426598D01*
X425904Y385678D01*
X425314Y385284D01*
X425070Y384918D01*
X424000D01*
X423649Y384848D01*
X423351Y384649D01*
X421351Y382649D01*
X421152Y382351D01*
X421082Y382000D01*
Y346380D01*
X418620Y343918D01*
X414870D01*
Y346153D01*
X412000D01*
X409130D01*
Y343918D01*
X408000D01*
X407649Y343848D01*
X407351Y343649D01*
X405519Y341816D01*
X404918D01*
Y344183D01*
X406470D01*
Y349124D01*
X406284D01*
X406224Y349213D01*
Y350787D01*
X406284Y350876D01*
X406470D01*
Y352429D01*
X409530D01*
Y350876D01*
X409716D01*
X409776Y350787D01*
Y349524D01*
X409130D01*
Y347153D01*
X412000D01*
X414870D01*
Y349524D01*
X414224D01*
Y350787D01*
X414284Y350876D01*
X414470D01*
Y353082D01*
X417000D01*
X417351Y353152D01*
X417649Y353351D01*
X419649Y355351D01*
X419848Y355649D01*
X419918Y356000D01*
Y385620D01*
X422380Y388082D01*
X425070D01*
X425314Y387716D01*
X425904Y387322D01*
X426598Y387184D01*
X429945D01*
X430640Y387322D01*
X431229Y387716D01*
X431623Y388305D01*
X431761Y389000D01*
X431623Y389695D01*
X431229Y390284D01*
X430640Y390678D01*
X429945Y390816D01*
X426598D01*
X425904Y390678D01*
X425314Y390284D01*
X425070Y389918D01*
X422000D01*
X421649Y389848D01*
X421351Y389649D01*
X418351Y386649D01*
X418152Y386351D01*
X418082Y386000D01*
Y356380D01*
X416620Y354918D01*
X414470D01*
Y355817D01*
X409530D01*
Y354264D01*
X406470D01*
Y355817D01*
X404918D01*
Y358184D01*
X406470D01*
Y363124D01*
X406284D01*
X406224Y363213D01*
Y364787D01*
X406284Y364876D01*
X406470D01*
Y366225D01*
X409530D01*
Y364876D01*
X409716D01*
X409776Y364787D01*
Y363524D01*
X409130D01*
Y361154D01*
X412000D01*
X414870D01*
Y363524D01*
X414224D01*
Y364787D01*
X414284Y364876D01*
X414470D01*
Y369816D01*
X409530D01*
Y368468D01*
X406470D01*
Y369816D01*
X404918D01*
Y372208D01*
X405442Y372558D01*
X405884Y373220D01*
X406039Y374000D01*
X405884Y374780D01*
X405442Y375442D01*
X404780Y375884D01*
X404000Y376039D01*
X403220Y375884D01*
X402558Y375442D01*
X402116Y374780D01*
X401961Y374000D01*
X402116Y373220D01*
X402558Y372558D01*
X403082Y372208D01*
Y369816D01*
X401530D01*
Y364876D01*
X401716D01*
X401776Y364787D01*
Y363213D01*
X401716Y363124D01*
X401530D01*
Y358184D01*
X403082D01*
Y355817D01*
X401530D01*
Y350876D01*
X401716D01*
X401776Y350787D01*
Y349213D01*
X401716Y349124D01*
X401530D01*
Y344183D01*
X403082D01*
Y341816D01*
X401530D01*
Y336876D01*
X401716D01*
X401776Y336787D01*
Y335213D01*
X401716Y335124D01*
X401530D01*
Y333571D01*
X396577D01*
X382360Y349609D01*
X382337Y349626D01*
X382322Y349649D01*
X382196Y349733D01*
X382074Y349825D01*
X382047Y349832D01*
X382024Y349848D01*
X381875Y349877D01*
X381728Y349916D01*
X381700Y349912D01*
X381673Y349918D01*
X372510D01*
X372507Y349940D01*
X372145Y350816D01*
X371568Y351568D01*
X370815Y352145D01*
X369940Y352507D01*
X369000Y352631D01*
X368060Y352507D01*
X367184Y352145D01*
X366432Y351568D01*
X365855Y350816D01*
X365493Y349940D01*
X365490Y349918D01*
X337462D01*
X333918Y353463D01*
Y405000D01*
X333848Y405351D01*
X333649Y405649D01*
X329019Y410279D01*
X328721Y410478D01*
X328370Y410547D01*
X325455D01*
X325420Y410814D01*
X324963Y411918D01*
X324236Y412866D01*
X323288Y413593D01*
X322184Y414050D01*
X321000Y414206D01*
D02*
G37*
G36*
X676734Y412773D02*
X675953Y412618D01*
X675292Y412176D01*
X674850Y411514D01*
X674694Y410734D01*
X674850Y409953D01*
X675292Y409292D01*
X675953Y408850D01*
X676734Y408695D01*
X677514Y408850D01*
X678176Y409292D01*
X678390Y409612D01*
X681070D01*
X681338Y409112D01*
X681116Y408780D01*
X680961Y408000D01*
X681116Y407220D01*
X681558Y406558D01*
X681878Y406344D01*
Y394620D01*
X681378Y394484D01*
X680780Y394884D01*
X680000Y395039D01*
X679220Y394884D01*
X678558Y394442D01*
X678507Y394366D01*
X659386D01*
X659346Y394883D01*
X658962Y396481D01*
X658333Y398000D01*
X657474Y399401D01*
X656407Y400651D01*
X655157Y401718D01*
X653756Y402577D01*
X652237Y403206D01*
X650639Y403590D01*
X649000Y403719D01*
X647361Y403590D01*
X645763Y403206D01*
X644244Y402577D01*
X642843Y401718D01*
X641593Y400651D01*
X640526Y399401D01*
X639667Y398000D01*
X639038Y396481D01*
X638654Y394883D01*
X638525Y393244D01*
X638654Y391605D01*
X639038Y390007D01*
X639667Y388489D01*
X640526Y387087D01*
X641593Y385837D01*
X642843Y384770D01*
X644244Y383911D01*
X645763Y383282D01*
X647361Y382898D01*
X649000Y382769D01*
X650639Y382898D01*
X652237Y383282D01*
X653756Y383911D01*
X655157Y384770D01*
X656407Y385837D01*
X657474Y387087D01*
X658333Y388489D01*
X658962Y390007D01*
X659346Y391605D01*
X659386Y392123D01*
X678181D01*
X678558Y391558D01*
X679220Y391116D01*
X680000Y390961D01*
X680780Y391116D01*
X681378Y391516D01*
X681878Y391380D01*
Y297015D01*
X681437Y296779D01*
X681280Y296884D01*
X680500Y297039D01*
X679720Y296884D01*
X679058Y296442D01*
X678844Y296122D01*
X659375D01*
X659346Y296497D01*
X658962Y298095D01*
X658333Y299614D01*
X657474Y301015D01*
X656407Y302265D01*
X655157Y303333D01*
X653756Y304191D01*
X652237Y304820D01*
X650639Y305204D01*
X649000Y305333D01*
X647361Y305204D01*
X645763Y304820D01*
X644244Y304191D01*
X642843Y303333D01*
X641593Y302265D01*
X640526Y301015D01*
X639667Y299614D01*
X639038Y298095D01*
X638654Y296497D01*
X638525Y294858D01*
X638654Y293220D01*
X639038Y291621D01*
X639667Y290103D01*
X640526Y288701D01*
X641593Y287452D01*
X642843Y286384D01*
X644244Y285525D01*
X645763Y284896D01*
X647361Y284512D01*
X649000Y284384D01*
X650639Y284512D01*
X652237Y284896D01*
X653756Y285525D01*
X655157Y286384D01*
X655551Y286721D01*
X663372Y278900D01*
X663372Y278900D01*
X663736Y278657D01*
X664165Y278571D01*
X664165Y278571D01*
X666530D01*
Y277223D01*
X666716D01*
X666776Y277134D01*
Y275559D01*
X666716Y275470D01*
X666530D01*
Y272116D01*
X662207Y267793D01*
X661964Y267429D01*
X661878Y267000D01*
X661878Y267000D01*
Y266432D01*
X661185Y266145D01*
X660432Y265567D01*
X659855Y264815D01*
X659493Y263940D01*
X659369Y263000D01*
X659493Y262060D01*
X659855Y261185D01*
X660432Y260433D01*
X661185Y259855D01*
X662060Y259493D01*
X663000Y259369D01*
X663940Y259493D01*
X664816Y259855D01*
X665568Y260433D01*
X666145Y261185D01*
X666507Y262060D01*
X666631Y263000D01*
X666507Y263940D01*
X666220Y264634D01*
X669465Y267879D01*
X680000D01*
X680000Y267878D01*
X680429Y267964D01*
X680793Y268207D01*
X683793Y271207D01*
X683878Y271335D01*
X684378Y271183D01*
Y268409D01*
X677062Y261092D01*
X676600Y261284D01*
Y266600D01*
X669400D01*
Y259400D01*
X674716D01*
X674908Y258938D01*
X673091Y257121D01*
X670000D01*
X669571Y257036D01*
X669207Y256793D01*
X669207Y256793D01*
X664634Y252220D01*
X663940Y252507D01*
X663000Y252631D01*
X662060Y252507D01*
X661185Y252145D01*
X660432Y251568D01*
X659855Y250816D01*
X659493Y249940D01*
X659369Y249000D01*
X659493Y248060D01*
X659855Y247184D01*
X660432Y246432D01*
X661185Y245855D01*
X661878Y245568D01*
Y223275D01*
X661878Y223275D01*
X661964Y222845D01*
X662207Y222481D01*
X670507Y214181D01*
Y213139D01*
X652018D01*
X652018Y213139D01*
X651588Y213054D01*
X651225Y212811D01*
X651225Y212811D01*
X641535Y203122D01*
X631594D01*
X631275Y203891D01*
X630674Y204674D01*
X629891Y205275D01*
X628979Y205653D01*
X628000Y205782D01*
X627021Y205653D01*
X626109Y205275D01*
X625326Y204674D01*
X624725Y203891D01*
X624347Y202979D01*
X624218Y202000D01*
X624347Y201021D01*
X624725Y200109D01*
X625326Y199326D01*
X626109Y198725D01*
X627021Y198347D01*
X628000Y198218D01*
X628979Y198347D01*
X629891Y198725D01*
X630674Y199326D01*
X631275Y200109D01*
X631594Y200878D01*
X642000D01*
X642000Y200878D01*
X642429Y200964D01*
X642793Y201207D01*
X652482Y210896D01*
X670507D01*
Y208268D01*
X678007D01*
Y215767D01*
X672093D01*
X664122Y223739D01*
Y245568D01*
X664816Y245855D01*
X665568Y246432D01*
X666145Y247184D01*
X666507Y248060D01*
X666631Y249000D01*
X666507Y249940D01*
X666220Y250634D01*
X670465Y254878D01*
X673556D01*
X673556Y254878D01*
X673985Y254964D01*
X674349Y255207D01*
X686293Y267151D01*
X686536Y267515D01*
X686622Y267944D01*
X686622Y267944D01*
Y294143D01*
X687116Y294220D01*
X687558Y293558D01*
X688220Y293116D01*
X689000Y292961D01*
X689780Y293116D01*
X690442Y293558D01*
X690884Y294220D01*
X691039Y295000D01*
X690884Y295780D01*
X690442Y296442D01*
X690122Y296656D01*
Y391344D01*
X690442Y391558D01*
X690884Y392220D01*
X691039Y393000D01*
X690884Y393780D01*
X690442Y394442D01*
X689780Y394884D01*
X689000Y395039D01*
X688220Y394884D01*
X687558Y394442D01*
X687116Y393780D01*
X686622Y393857D01*
Y409035D01*
X686536Y409465D01*
X686293Y409829D01*
X686293Y409829D01*
X684595Y411527D01*
X684231Y411770D01*
X683802Y411855D01*
X683802Y411855D01*
X678390D01*
X678176Y412176D01*
X677514Y412618D01*
X676734Y412773D01*
D02*
G37*
G36*
X534526Y396000D02*
X531228D01*
Y394276D01*
X532402D01*
X533253Y394445D01*
X533974Y394928D01*
X534456Y395649D01*
X534526Y396000D01*
D02*
G37*
G36*
X530228D02*
X526931D01*
X527001Y395649D01*
X527483Y394928D01*
X528204Y394445D01*
X529055Y394276D01*
X530228D01*
Y396000D01*
D02*
G37*
G36*
X419000Y396039D02*
X418220Y395884D01*
X417558Y395442D01*
X417116Y394780D01*
X416961Y394000D01*
X417116Y393220D01*
X417558Y392558D01*
X418220Y392116D01*
X419000Y391961D01*
X419780Y392116D01*
X420442Y392558D01*
X420792Y393082D01*
X425070D01*
X425314Y392716D01*
X425904Y392322D01*
X426598Y392184D01*
X429945D01*
X430640Y392322D01*
X431229Y392716D01*
X431623Y393305D01*
X431761Y394000D01*
X431623Y394695D01*
X431229Y395284D01*
X430640Y395678D01*
X429945Y395816D01*
X426598D01*
X425904Y395678D01*
X425314Y395284D01*
X425070Y394918D01*
X420792D01*
X420442Y395442D01*
X419780Y395884D01*
X419000Y396039D01*
D02*
G37*
G36*
X532402Y393724D02*
X531228D01*
Y392000D01*
X534526D01*
X534456Y392351D01*
X533974Y393073D01*
X533253Y393555D01*
X532402Y393724D01*
D02*
G37*
G36*
X530228D02*
X529055D01*
X528204Y393555D01*
X527483Y393073D01*
X527001Y392351D01*
X526931Y392000D01*
X530228D01*
Y393724D01*
D02*
G37*
G36*
X534526Y391000D02*
X531228D01*
Y389276D01*
X532402D01*
X533253Y389445D01*
X533974Y389928D01*
X534456Y390649D01*
X534526Y391000D01*
D02*
G37*
G36*
X530228D02*
X526931D01*
X527001Y390649D01*
X527483Y389928D01*
X528204Y389445D01*
X529055Y389276D01*
X530228D01*
Y391000D01*
D02*
G37*
G36*
X577600Y391600D02*
X567400D01*
Y387400D01*
X577600D01*
Y391600D01*
D02*
G37*
G36*
X562500Y384348D02*
Y382500D01*
X564348D01*
X564261Y382936D01*
X563730Y383730D01*
X562936Y384261D01*
X562500Y384348D01*
D02*
G37*
G36*
X561500D02*
X561064Y384261D01*
X560270Y383730D01*
X559739Y382936D01*
X559652Y382500D01*
X561500D01*
Y384348D01*
D02*
G37*
G36*
X612600Y386600D02*
X602400D01*
Y382400D01*
X612600D01*
Y386600D01*
D02*
G37*
G36*
X577600D02*
X567400D01*
Y382400D01*
X577600D01*
Y386600D01*
D02*
G37*
G36*
X612600Y391600D02*
X602400D01*
Y387400D01*
X612600D01*
Y388582D01*
X613120D01*
X614082Y387620D01*
Y381380D01*
X613120Y380418D01*
X612600D01*
Y381600D01*
X602400D01*
Y377400D01*
X612600D01*
Y378582D01*
X613500D01*
X613851Y378652D01*
X614149Y378851D01*
X615649Y380351D01*
X615848Y380649D01*
X615918Y381000D01*
Y388000D01*
X615848Y388351D01*
X615649Y388649D01*
X614149Y390149D01*
X613851Y390348D01*
X613500Y390418D01*
X612600D01*
Y391600D01*
D02*
G37*
G36*
X564348Y381500D02*
X562500D01*
Y379652D01*
X562936Y379739D01*
X563730Y380270D01*
X564261Y381064D01*
X564348Y381500D01*
D02*
G37*
G36*
X561500D02*
X559652D01*
X559739Y381064D01*
X560270Y380270D01*
X561064Y379739D01*
X561500Y379652D01*
Y381500D01*
D02*
G37*
G36*
X577600Y381600D02*
X567400D01*
Y377400D01*
X577600D01*
Y381600D01*
D02*
G37*
G36*
X617500Y376348D02*
Y374500D01*
X619348D01*
X619261Y374936D01*
X618730Y375730D01*
X617936Y376261D01*
X617500Y376348D01*
D02*
G37*
G36*
X616500D02*
X616064Y376261D01*
X615270Y375730D01*
X614739Y374936D01*
X614652Y374500D01*
X616500D01*
Y376348D01*
D02*
G37*
G36*
X612600Y376600D02*
X602400D01*
Y372400D01*
X612600D01*
Y376600D01*
D02*
G37*
G36*
X577600D02*
X567400D01*
Y372400D01*
X577600D01*
Y376600D01*
D02*
G37*
G36*
X619348Y373500D02*
X617500D01*
Y371652D01*
X617936Y371739D01*
X618730Y372270D01*
X619261Y373064D01*
X619348Y373500D01*
D02*
G37*
G36*
X616500D02*
X614652D01*
X614739Y373064D01*
X615270Y372270D01*
X616064Y371739D01*
X616500Y371652D01*
Y373500D01*
D02*
G37*
G36*
X321500Y375174D02*
Y370760D01*
X325914D01*
X325810Y371549D01*
X325312Y372750D01*
X324521Y373781D01*
X323490Y374572D01*
X322289Y375070D01*
X321500Y375174D01*
D02*
G37*
G36*
X320500D02*
X319711Y375070D01*
X318510Y374572D01*
X317479Y373781D01*
X316687Y372750D01*
X316190Y371549D01*
X316086Y370760D01*
X320500D01*
Y375174D01*
D02*
G37*
G36*
X612600Y371600D02*
X602400D01*
Y367400D01*
X612600D01*
Y371600D01*
D02*
G37*
G36*
X577600D02*
X567400D01*
Y367400D01*
X577600D01*
Y371600D01*
D02*
G37*
G36*
Y366600D02*
X567400D01*
Y365418D01*
X565470D01*
Y365470D01*
X560530D01*
Y363918D01*
X557792D01*
X557442Y364442D01*
X556780Y364884D01*
X556000Y365039D01*
X555220Y364884D01*
X554558Y364442D01*
X554116Y363780D01*
X553961Y363000D01*
X554116Y362220D01*
X554558Y361558D01*
X555220Y361116D01*
X556000Y360961D01*
X556780Y361116D01*
X557442Y361558D01*
X557792Y362082D01*
X560530D01*
Y360530D01*
X560716D01*
X560776Y360441D01*
Y358866D01*
X560716Y358777D01*
X560530D01*
Y357225D01*
X557587D01*
X557442Y357442D01*
X556780Y357884D01*
X556000Y358039D01*
X555220Y357884D01*
X554558Y357442D01*
X554116Y356780D01*
X553961Y356000D01*
X554116Y355220D01*
X554558Y354558D01*
X555220Y354116D01*
X556000Y353961D01*
X556780Y354116D01*
X557442Y354558D01*
X557884Y355220D01*
X557918Y355389D01*
X560530D01*
Y353837D01*
X565470D01*
Y354082D01*
X567400D01*
Y352400D01*
X577600D01*
Y356600D01*
X567400D01*
Y355918D01*
X565470D01*
Y358777D01*
X565284D01*
X565224Y358866D01*
Y360441D01*
X565284Y360530D01*
X565470D01*
Y363582D01*
X567400D01*
Y362400D01*
X577600D01*
Y366600D01*
D02*
G37*
G36*
X325914Y369760D02*
X321500D01*
Y365346D01*
X322289Y365450D01*
X323490Y365947D01*
X324521Y366739D01*
X325312Y367770D01*
X325810Y368971D01*
X325914Y369760D01*
D02*
G37*
G36*
X320500D02*
X316086D01*
X316190Y368971D01*
X316687Y367770D01*
X317479Y366739D01*
X318510Y365947D01*
X319711Y365450D01*
X320500Y365346D01*
Y369760D01*
D02*
G37*
G36*
X496000Y369987D02*
Y363000D01*
X502987D01*
X502891Y363970D01*
X502463Y365384D01*
X501766Y366687D01*
X500829Y367829D01*
X499687Y368766D01*
X498384Y369463D01*
X496970Y369892D01*
X496000Y369987D01*
D02*
G37*
G36*
X523000D02*
Y363000D01*
X529987D01*
X529891Y363970D01*
X529463Y365384D01*
X528766Y366687D01*
X527829Y367829D01*
X526687Y368766D01*
X525384Y369463D01*
X523970Y369892D01*
X523000Y369987D01*
D02*
G37*
G36*
X383000D02*
Y363000D01*
X389987D01*
X389892Y363970D01*
X389463Y365384D01*
X388766Y366687D01*
X387829Y367829D01*
X386687Y368766D01*
X385384Y369463D01*
X383970Y369892D01*
X383000Y369987D01*
D02*
G37*
G36*
X382000D02*
X381030Y369892D01*
X379616Y369463D01*
X378313Y368766D01*
X377171Y367829D01*
X376234Y366687D01*
X375537Y365384D01*
X375109Y363970D01*
X375013Y363000D01*
X382000D01*
Y369987D01*
D02*
G37*
G36*
X356000D02*
Y363000D01*
X362987D01*
X362892Y363970D01*
X362463Y365384D01*
X361766Y366687D01*
X360829Y367829D01*
X359687Y368766D01*
X358384Y369463D01*
X356970Y369892D01*
X356000Y369987D01*
D02*
G37*
G36*
X355000D02*
X354030Y369892D01*
X352616Y369463D01*
X351313Y368766D01*
X350171Y367829D01*
X349234Y366687D01*
X348537Y365384D01*
X348109Y363970D01*
X348013Y363000D01*
X355000D01*
Y369987D01*
D02*
G37*
G36*
X495000D02*
X494030Y369892D01*
X492616Y369463D01*
X491313Y368766D01*
X490171Y367829D01*
X489234Y366687D01*
X488537Y365384D01*
X488108Y363970D01*
X488013Y363000D01*
X495000D01*
Y369987D01*
D02*
G37*
G36*
X522000D02*
X521030Y369892D01*
X519616Y369463D01*
X518313Y368766D01*
X517171Y367829D01*
X516234Y366687D01*
X515537Y365384D01*
X515108Y363970D01*
X515013Y363000D01*
X522000D01*
Y369987D01*
D02*
G37*
G36*
X649000Y369072D02*
X648072Y368950D01*
X647208Y368591D01*
X646466Y368022D01*
X645897Y367280D01*
X645539Y366416D01*
X645417Y365488D01*
X645539Y364561D01*
X645897Y363697D01*
X646466Y362954D01*
X647208Y362385D01*
X648072Y362027D01*
X649000Y361905D01*
X649928Y362027D01*
X650792Y362385D01*
X651534Y362954D01*
X652103Y363697D01*
X652461Y364561D01*
X652583Y365488D01*
X652461Y366416D01*
X652103Y367280D01*
X651534Y368022D01*
X650792Y368591D01*
X649928Y368950D01*
X649000Y369072D01*
D02*
G37*
G36*
X468870Y360154D02*
X466500D01*
Y357784D01*
X468870D01*
Y360154D01*
D02*
G37*
G36*
X465500D02*
X463130D01*
Y357784D01*
X465500D01*
Y360154D01*
D02*
G37*
G36*
X414870D02*
X412500D01*
Y357784D01*
X414870D01*
Y360154D01*
D02*
G37*
G36*
X411500D02*
X409130D01*
Y357784D01*
X411500D01*
Y360154D01*
D02*
G37*
G36*
X659000Y364583D02*
X658073Y364461D01*
X657208Y364103D01*
X656466Y363534D01*
X655897Y362792D01*
X655539Y361927D01*
X655417Y361000D01*
X655539Y360073D01*
X655897Y359208D01*
X656466Y358466D01*
X657208Y357897D01*
X658073Y357539D01*
X659000Y357417D01*
X659928Y357539D01*
X660792Y357897D01*
X661534Y358466D01*
X662103Y359208D01*
X662461Y360073D01*
X662583Y361000D01*
X662461Y361927D01*
X662103Y362792D01*
X661534Y363534D01*
X660792Y364103D01*
X659928Y364461D01*
X659000Y364583D01*
D02*
G37*
G36*
X639000D02*
X638072Y364461D01*
X637208Y364103D01*
X636466Y363534D01*
X635897Y362792D01*
X635539Y361927D01*
X635417Y361000D01*
X635539Y360073D01*
X635897Y359208D01*
X636466Y358466D01*
X637208Y357897D01*
X638072Y357539D01*
X639000Y357417D01*
X639927Y357539D01*
X640792Y357897D01*
X641534Y358466D01*
X642103Y359208D01*
X642461Y360073D01*
X642583Y361000D01*
X642461Y361927D01*
X642103Y362792D01*
X641534Y363534D01*
X640792Y364103D01*
X639927Y364461D01*
X639000Y364583D01*
D02*
G37*
G36*
X612600Y361600D02*
X602400D01*
Y357400D01*
X612600D01*
Y361600D01*
D02*
G37*
G36*
X577600D02*
X567400D01*
Y357400D01*
X577600D01*
Y361600D01*
D02*
G37*
G36*
X529987Y362000D02*
X523000D01*
Y355013D01*
X523970Y355108D01*
X525384Y355537D01*
X526687Y356234D01*
X527829Y357171D01*
X528766Y358313D01*
X529463Y359616D01*
X529891Y361030D01*
X529987Y362000D01*
D02*
G37*
G36*
X502987D02*
X496000D01*
Y355013D01*
X496970Y355108D01*
X498384Y355537D01*
X499687Y356234D01*
X500829Y357171D01*
X501766Y358313D01*
X502463Y359616D01*
X502891Y361030D01*
X502987Y362000D01*
D02*
G37*
G36*
X389987D02*
X383000D01*
Y355013D01*
X383970Y355108D01*
X385384Y355537D01*
X386687Y356234D01*
X387829Y357171D01*
X388766Y358313D01*
X389463Y359616D01*
X389892Y361030D01*
X389987Y362000D01*
D02*
G37*
G36*
X382000D02*
X375013D01*
X375109Y361030D01*
X375537Y359616D01*
X376234Y358313D01*
X377171Y357171D01*
X378313Y356234D01*
X379616Y355537D01*
X381030Y355108D01*
X382000Y355013D01*
Y362000D01*
D02*
G37*
G36*
X362987D02*
X356000D01*
Y355013D01*
X356970Y355108D01*
X358384Y355537D01*
X359687Y356234D01*
X360829Y357171D01*
X361766Y358313D01*
X362463Y359616D01*
X362892Y361030D01*
X362987Y362000D01*
D02*
G37*
G36*
X355000D02*
X348013D01*
X348109Y361030D01*
X348537Y359616D01*
X349234Y358313D01*
X350171Y357171D01*
X351313Y356234D01*
X352616Y355537D01*
X354030Y355108D01*
X355000Y355013D01*
Y362000D01*
D02*
G37*
G36*
X522000D02*
X515013D01*
X515108Y361030D01*
X515537Y359616D01*
X516234Y358313D01*
X517171Y357171D01*
X518313Y356234D01*
X519616Y355537D01*
X521030Y355108D01*
X522000Y355013D01*
Y362000D01*
D02*
G37*
G36*
X495000D02*
X488013D01*
X488108Y361030D01*
X488537Y359616D01*
X489234Y358313D01*
X490171Y357171D01*
X491313Y356234D01*
X492616Y355537D01*
X494030Y355108D01*
X495000Y355013D01*
Y362000D01*
D02*
G37*
G36*
X649000Y360095D02*
X648072Y359973D01*
X647208Y359615D01*
X646466Y359046D01*
X645897Y358303D01*
X645539Y357439D01*
X645417Y356512D01*
X645539Y355584D01*
X645897Y354720D01*
X646466Y353978D01*
X647208Y353409D01*
X648072Y353050D01*
X649000Y352928D01*
X649928Y353050D01*
X650792Y353409D01*
X651534Y353978D01*
X652103Y354720D01*
X652461Y355584D01*
X652583Y356512D01*
X652461Y357439D01*
X652103Y358303D01*
X651534Y359046D01*
X650792Y359615D01*
X649928Y359973D01*
X649000Y360095D01*
D02*
G37*
G36*
X321500Y355489D02*
Y351075D01*
X325914D01*
X325810Y351864D01*
X325312Y353065D01*
X324521Y354096D01*
X323490Y354887D01*
X322289Y355385D01*
X321500Y355489D01*
D02*
G37*
G36*
X320500D02*
X319711Y355385D01*
X318510Y354887D01*
X317479Y354096D01*
X316687Y353065D01*
X316190Y351864D01*
X316086Y351075D01*
X320500D01*
Y355489D01*
D02*
G37*
G36*
X659000Y355607D02*
X658073Y355485D01*
X657208Y355127D01*
X656466Y354557D01*
X655897Y353815D01*
X655539Y352951D01*
X655417Y352024D01*
X655539Y351096D01*
X655897Y350232D01*
X656466Y349490D01*
X657208Y348920D01*
X658073Y348562D01*
X659000Y348440D01*
X659928Y348562D01*
X660792Y348920D01*
X661534Y349490D01*
X662103Y350232D01*
X662461Y351096D01*
X662583Y352024D01*
X662461Y352951D01*
X662103Y353815D01*
X661534Y354557D01*
X660792Y355127D01*
X659928Y355485D01*
X659000Y355607D01*
D02*
G37*
G36*
X639000D02*
X638072Y355485D01*
X637208Y355127D01*
X636466Y354557D01*
X635897Y353815D01*
X635539Y352951D01*
X635417Y352024D01*
X635539Y351096D01*
X635897Y350232D01*
X636466Y349490D01*
X637208Y348920D01*
X638072Y348562D01*
X639000Y348440D01*
X639927Y348562D01*
X640792Y348920D01*
X641534Y349490D01*
X642103Y350232D01*
X642461Y351096D01*
X642583Y352024D01*
X642461Y352951D01*
X642103Y353815D01*
X641534Y354557D01*
X640792Y355127D01*
X639927Y355485D01*
X639000Y355607D01*
D02*
G37*
G36*
X612600Y356600D02*
X602400D01*
Y352400D01*
X606602D01*
X606652Y352149D01*
X606851Y351851D01*
X610084Y348618D01*
X609961Y348000D01*
X610116Y347220D01*
X610558Y346558D01*
X611220Y346116D01*
X612000Y345961D01*
X612780Y346116D01*
X613442Y346558D01*
X613884Y347220D01*
X614039Y348000D01*
X613884Y348780D01*
X613442Y349442D01*
X612780Y349884D01*
X612000Y350039D01*
X611381Y349916D01*
X609360Y351938D01*
X609551Y352400D01*
X612600D01*
Y356600D01*
D02*
G37*
G36*
X325914Y350075D02*
X321500D01*
Y345661D01*
X322289Y345765D01*
X323490Y346262D01*
X324521Y347054D01*
X325312Y348085D01*
X325810Y349286D01*
X325914Y350075D01*
D02*
G37*
G36*
X320500D02*
X316086D01*
X316190Y349286D01*
X316687Y348085D01*
X317479Y347054D01*
X318510Y346262D01*
X319711Y345765D01*
X320500Y345661D01*
Y350075D01*
D02*
G37*
G36*
X612600Y366600D02*
X602400D01*
Y362400D01*
X612600D01*
Y363582D01*
X613120D01*
X617082Y359620D01*
Y348792D01*
X616558Y348442D01*
X616116Y347780D01*
X615961Y347000D01*
X616116Y346220D01*
X616558Y345558D01*
X617220Y345116D01*
X618000Y344961D01*
X618780Y345116D01*
X619442Y345558D01*
X619884Y346220D01*
X620039Y347000D01*
X619884Y347780D01*
X619442Y348442D01*
X618918Y348792D01*
Y360000D01*
X618848Y360351D01*
X618649Y360649D01*
X614149Y365149D01*
X613851Y365348D01*
X613500Y365418D01*
X612600D01*
Y366600D01*
D02*
G37*
G36*
X600000Y426631D02*
X599060Y426507D01*
X598184Y426145D01*
X597432Y425568D01*
X596855Y424816D01*
X596493Y423940D01*
X596369Y423000D01*
X596493Y422060D01*
X596855Y421184D01*
X597432Y420432D01*
X598184Y419855D01*
X599060Y419493D01*
X600000Y419369D01*
X600940Y419493D01*
X601816Y419855D01*
X601833Y419869D01*
X653082Y368620D01*
Y342380D01*
X651779Y341077D01*
X651534Y341093D01*
X650792Y341662D01*
X649928Y342020D01*
X649000Y342143D01*
X648072Y342020D01*
X647208Y341662D01*
X646466Y341093D01*
X645897Y340351D01*
X645539Y339487D01*
X645417Y338559D01*
X645539Y337632D01*
X645897Y336767D01*
X646466Y336025D01*
X647208Y335456D01*
X648072Y335098D01*
X649000Y334976D01*
X649928Y335098D01*
X650792Y335456D01*
X651534Y336025D01*
X652103Y336767D01*
X652461Y337632D01*
X652583Y338559D01*
X652499Y339201D01*
X654649Y341351D01*
X654848Y341649D01*
X654918Y342000D01*
Y369000D01*
X654848Y369351D01*
X654649Y369649D01*
X603131Y421167D01*
X603145Y421184D01*
X603507Y422060D01*
X603631Y423000D01*
X603507Y423940D01*
X603145Y424816D01*
X602568Y425568D01*
X601816Y426145D01*
X600940Y426507D01*
X600000Y426631D01*
D02*
G37*
G36*
X659000Y346631D02*
X658073Y346509D01*
X657208Y346151D01*
X656466Y345581D01*
X655897Y344839D01*
X655539Y343975D01*
X655417Y343047D01*
X655539Y342120D01*
X655897Y341255D01*
X656466Y340513D01*
X657208Y339944D01*
X658073Y339586D01*
X659000Y339464D01*
X659928Y339586D01*
X660792Y339944D01*
X661534Y340513D01*
X662103Y341255D01*
X662461Y342120D01*
X662583Y343047D01*
X662461Y343975D01*
X662103Y344839D01*
X661534Y345581D01*
X660792Y346151D01*
X659928Y346509D01*
X659000Y346631D01*
D02*
G37*
G36*
X639000Y346631D02*
X638072Y346509D01*
X637208Y346151D01*
X636466Y345581D01*
X635897Y344839D01*
X635539Y343975D01*
X635417Y343047D01*
X635539Y342120D01*
X635897Y341255D01*
X636466Y340513D01*
X637208Y339944D01*
X638072Y339586D01*
X639000Y339464D01*
X639927Y339586D01*
X640792Y339944D01*
X641534Y340513D01*
X642103Y341255D01*
X642461Y342120D01*
X642583Y343047D01*
X642461Y343975D01*
X642103Y344839D01*
X641534Y345581D01*
X640792Y346151D01*
X639927Y346509D01*
X639000Y346631D01*
D02*
G37*
G36*
X523000Y342987D02*
Y336000D01*
X529987D01*
X529891Y336970D01*
X529463Y338384D01*
X528766Y339687D01*
X527829Y340829D01*
X526687Y341766D01*
X525384Y342463D01*
X523970Y342892D01*
X523000Y342987D01*
D02*
G37*
G36*
X496000D02*
Y336000D01*
X502987D01*
X502891Y336970D01*
X502463Y338384D01*
X501766Y339687D01*
X500829Y340829D01*
X499687Y341766D01*
X498384Y342463D01*
X496970Y342892D01*
X496000Y342987D01*
D02*
G37*
G36*
X382000D02*
X381030Y342892D01*
X379616Y342463D01*
X378313Y341766D01*
X377171Y340829D01*
X376234Y339687D01*
X375537Y338384D01*
X375109Y336970D01*
X375013Y336000D01*
X382000D01*
Y342987D01*
D02*
G37*
G36*
X356000D02*
Y336000D01*
X362987D01*
X362892Y336970D01*
X362463Y338384D01*
X361766Y339687D01*
X360829Y340829D01*
X359687Y341766D01*
X358384Y342463D01*
X356970Y342892D01*
X356000Y342987D01*
D02*
G37*
G36*
X355000D02*
X354030Y342892D01*
X352616Y342463D01*
X351313Y341766D01*
X350171Y340829D01*
X349234Y339687D01*
X348537Y338384D01*
X348109Y336970D01*
X348013Y336000D01*
X355000D01*
Y342987D01*
D02*
G37*
G36*
X522000D02*
X521030Y342892D01*
X519616Y342463D01*
X518313Y341766D01*
X517171Y340829D01*
X516234Y339687D01*
X515537Y338384D01*
X515108Y336970D01*
X515013Y336000D01*
X522000D01*
Y342987D01*
D02*
G37*
G36*
X659000Y337654D02*
X658073Y337532D01*
X657208Y337174D01*
X656466Y336605D01*
X655897Y335863D01*
X655539Y334998D01*
X655417Y334071D01*
X655539Y333143D01*
X655897Y332279D01*
X656466Y331537D01*
X657208Y330967D01*
X658073Y330610D01*
X659000Y330487D01*
X659928Y330610D01*
X660792Y330967D01*
X661534Y331537D01*
X662103Y332279D01*
X662461Y333143D01*
X662583Y334071D01*
X662461Y334998D01*
X662103Y335863D01*
X661534Y336605D01*
X660792Y337174D01*
X659928Y337532D01*
X659000Y337654D01*
D02*
G37*
G36*
X529987Y335000D02*
X523000D01*
Y328013D01*
X523970Y328109D01*
X525384Y328537D01*
X526687Y329234D01*
X527829Y330171D01*
X528766Y331313D01*
X529463Y332616D01*
X529891Y334030D01*
X529987Y335000D01*
D02*
G37*
G36*
X502987D02*
X496000D01*
Y328013D01*
X496970Y328109D01*
X498384Y328537D01*
X499687Y329234D01*
X500829Y330171D01*
X501766Y331313D01*
X502463Y332616D01*
X502891Y334030D01*
X502987Y335000D01*
D02*
G37*
G36*
X522000D02*
X515013D01*
X515108Y334030D01*
X515537Y332616D01*
X516234Y331313D01*
X517171Y330171D01*
X518313Y329234D01*
X519616Y328537D01*
X521030Y328109D01*
X522000Y328013D01*
Y335000D01*
D02*
G37*
G36*
X495000D02*
X488013D01*
X488108Y334030D01*
X488537Y332616D01*
X489234Y331313D01*
X490171Y330171D01*
X491313Y329234D01*
X492616Y328537D01*
X494030Y328109D01*
X495000Y328013D01*
Y335000D01*
D02*
G37*
G36*
X629000Y374039D02*
X628220Y373884D01*
X627558Y373442D01*
X627116Y372780D01*
X626961Y372000D01*
X627116Y371220D01*
X627558Y370558D01*
X628082Y370208D01*
Y333000D01*
X628152Y332649D01*
X628351Y332351D01*
X631769Y328934D01*
X632066Y328735D01*
X632417Y328665D01*
X636819D01*
X636893Y328570D01*
X636810Y327892D01*
X636466Y327628D01*
X635897Y326886D01*
X635539Y326022D01*
X635417Y325095D01*
X635539Y324167D01*
X635897Y323303D01*
X636466Y322561D01*
X637208Y321991D01*
X638072Y321633D01*
X639000Y321511D01*
X639927Y321633D01*
X640792Y321991D01*
X641534Y322561D01*
X642103Y323303D01*
X642461Y324167D01*
X642583Y325095D01*
X642461Y326022D01*
X642103Y326886D01*
X641534Y327628D01*
X641190Y327892D01*
X641107Y328570D01*
X641181Y328665D01*
X645537D01*
X645539Y328655D01*
X645897Y327791D01*
X646466Y327049D01*
X647208Y326479D01*
X648072Y326121D01*
X649000Y325999D01*
X649928Y326121D01*
X650792Y326479D01*
X651534Y327049D01*
X652103Y327791D01*
X652461Y328655D01*
X652583Y329583D01*
X652461Y330510D01*
X652103Y331374D01*
X651534Y332117D01*
X650792Y332686D01*
X649928Y333044D01*
X649000Y333166D01*
X648072Y333044D01*
X647208Y332686D01*
X646466Y332117D01*
X645897Y331374D01*
X645539Y330510D01*
X645537Y330500D01*
X641181D01*
X641107Y330595D01*
X641190Y331273D01*
X641534Y331537D01*
X642103Y332279D01*
X642461Y333143D01*
X642583Y334071D01*
X642461Y334998D01*
X642103Y335863D01*
X641534Y336605D01*
X640792Y337174D01*
X639927Y337532D01*
X639000Y337654D01*
X638072Y337532D01*
X637208Y337174D01*
X636466Y336605D01*
X635897Y335863D01*
X635539Y334998D01*
X635417Y334071D01*
X635539Y333143D01*
X635897Y332279D01*
X636466Y331537D01*
X636810Y331273D01*
X636893Y330595D01*
X636819Y330500D01*
X632797D01*
X629918Y333380D01*
Y370208D01*
X630442Y370558D01*
X630884Y371220D01*
X631039Y372000D01*
X630884Y372780D01*
X630442Y373442D01*
X629780Y373884D01*
X629000Y374039D01*
D02*
G37*
G36*
X659000Y328678D02*
X658073Y328556D01*
X657208Y328198D01*
X656466Y327628D01*
X655897Y326886D01*
X655539Y326022D01*
X655417Y325095D01*
X655539Y324167D01*
X655897Y323303D01*
X656466Y322561D01*
X657208Y321991D01*
X658073Y321633D01*
X659000Y321511D01*
X659928Y321633D01*
X660792Y321991D01*
X661534Y322561D01*
X662103Y323303D01*
X662461Y324167D01*
X662583Y325095D01*
X662461Y326022D01*
X662103Y326886D01*
X661534Y327628D01*
X660792Y328198D01*
X659928Y328556D01*
X659000Y328678D01*
D02*
G37*
G36*
X556116Y324819D02*
X555336Y324664D01*
X554674Y324222D01*
X554232Y323561D01*
X554077Y322780D01*
X554232Y322000D01*
X554674Y321338D01*
X555336Y320896D01*
X556116Y320741D01*
X556896Y320896D01*
X557558Y321338D01*
X558000Y322000D01*
X558155Y322780D01*
X558000Y323561D01*
X557558Y324222D01*
X556896Y324664D01*
X556116Y324819D01*
D02*
G37*
G36*
X599500Y322348D02*
Y320500D01*
X601348D01*
X601261Y320936D01*
X600730Y321730D01*
X599936Y322261D01*
X599500Y322348D01*
D02*
G37*
G36*
X598500D02*
X598064Y322261D01*
X597270Y321730D01*
X596739Y320936D01*
X596652Y320500D01*
X598500D01*
Y322348D01*
D02*
G37*
G36*
X569500D02*
Y320500D01*
X571348D01*
X571261Y320936D01*
X570730Y321730D01*
X569936Y322261D01*
X569500Y322348D01*
D02*
G37*
G36*
X568500D02*
X568064Y322261D01*
X567270Y321730D01*
X566739Y320936D01*
X566652Y320500D01*
X568500D01*
Y322348D01*
D02*
G37*
G36*
X601348Y319500D02*
X599500D01*
Y317652D01*
X599936Y317739D01*
X600730Y318270D01*
X601261Y319064D01*
X601348Y319500D01*
D02*
G37*
G36*
X598500D02*
X596652D01*
X596739Y319064D01*
X597270Y318270D01*
X598064Y317739D01*
X598500Y317652D01*
Y319500D01*
D02*
G37*
G36*
X571348D02*
X569500D01*
Y317652D01*
X569936Y317739D01*
X570730Y318270D01*
X571261Y319064D01*
X571348Y319500D01*
D02*
G37*
G36*
X568500D02*
X566652D01*
X566739Y319064D01*
X567270Y318270D01*
X568064Y317739D01*
X568500Y317652D01*
Y319500D01*
D02*
G37*
G36*
X466000Y327039D02*
X465220Y326884D01*
X464558Y326442D01*
X464116Y325780D01*
X463961Y325000D01*
X464116Y324220D01*
X464558Y323558D01*
X465082Y323208D01*
Y320792D01*
X464558Y320442D01*
X464116Y319780D01*
X463961Y319000D01*
X464116Y318220D01*
X464558Y317558D01*
X465220Y317116D01*
X466000Y316961D01*
X466780Y317116D01*
X467442Y317558D01*
X467884Y318220D01*
X468039Y319000D01*
X467884Y319780D01*
X467442Y320442D01*
X466918Y320792D01*
Y323208D01*
X467442Y323558D01*
X467884Y324220D01*
X468039Y325000D01*
X467884Y325780D01*
X467442Y326442D01*
X466780Y326884D01*
X466000Y327039D01*
D02*
G37*
G36*
X419000D02*
X418220Y326884D01*
X417558Y326442D01*
X417116Y325780D01*
X416961Y325000D01*
X417116Y324220D01*
X417558Y323558D01*
X418082Y323208D01*
Y317792D01*
X417558Y317442D01*
X417116Y316780D01*
X416961Y316000D01*
X417116Y315220D01*
X417558Y314558D01*
X418220Y314116D01*
X419000Y313961D01*
X419780Y314116D01*
X420442Y314558D01*
X420884Y315220D01*
X421039Y316000D01*
X420884Y316780D01*
X420442Y317442D01*
X419918Y317792D01*
Y323208D01*
X420442Y323558D01*
X420884Y324220D01*
X421039Y325000D01*
X420884Y325780D01*
X420442Y326442D01*
X419780Y326884D01*
X419000Y327039D01*
D02*
G37*
G36*
X459000D02*
X458220Y326884D01*
X457558Y326442D01*
X457116Y325780D01*
X456961Y325000D01*
X457116Y324220D01*
X457558Y323558D01*
X458082Y323208D01*
Y314792D01*
X457558Y314442D01*
X457116Y313780D01*
X456961Y313000D01*
X457116Y312220D01*
X457558Y311558D01*
X458220Y311116D01*
X459000Y310961D01*
X459780Y311116D01*
X460442Y311558D01*
X460884Y312220D01*
X461039Y313000D01*
X460884Y313780D01*
X460442Y314442D01*
X459918Y314792D01*
Y323208D01*
X460442Y323558D01*
X460884Y324220D01*
X461039Y325000D01*
X460884Y325780D01*
X460442Y326442D01*
X459780Y326884D01*
X459000Y327039D01*
D02*
G37*
G36*
X586000Y303039D02*
X585220Y302884D01*
X584558Y302442D01*
X584208Y301918D01*
X572792D01*
X572442Y302442D01*
X571780Y302884D01*
X571000Y303039D01*
X570220Y302884D01*
X569558Y302442D01*
X569116Y301780D01*
X568961Y301000D01*
X569116Y300220D01*
X569558Y299558D01*
X570220Y299116D01*
X571000Y298961D01*
X571780Y299116D01*
X572442Y299558D01*
X572792Y300082D01*
X584208D01*
X584558Y299558D01*
X585220Y299116D01*
X586000Y298961D01*
X586780Y299116D01*
X587442Y299558D01*
X587884Y300220D01*
X588039Y301000D01*
X587884Y301780D01*
X587442Y302442D01*
X586780Y302884D01*
X586000Y303039D01*
D02*
G37*
G36*
X557575Y301575D02*
X555500D01*
Y299500D01*
X557575D01*
Y301575D01*
D02*
G37*
G36*
X554500D02*
X552425D01*
Y299500D01*
X554500D01*
Y301575D01*
D02*
G37*
G36*
X524500Y300348D02*
Y298500D01*
X526348D01*
X526261Y298936D01*
X525730Y299730D01*
X524936Y300261D01*
X524500Y300348D01*
D02*
G37*
G36*
X523500D02*
X523064Y300261D01*
X522270Y299730D01*
X521739Y298936D01*
X521652Y298500D01*
X523500D01*
Y300348D01*
D02*
G37*
G36*
X557575Y298500D02*
X555500D01*
Y296425D01*
X557575D01*
Y298500D01*
D02*
G37*
G36*
X554500D02*
X552425D01*
Y296425D01*
X554500D01*
Y298500D01*
D02*
G37*
G36*
X526348Y297500D02*
X524500D01*
Y295652D01*
X524936Y295739D01*
X525730Y296270D01*
X526261Y297064D01*
X526348Y297500D01*
D02*
G37*
G36*
X523500D02*
X521652D01*
X521739Y297064D01*
X522270Y296270D01*
X523064Y295739D01*
X523500Y295652D01*
Y297500D01*
D02*
G37*
G36*
X601500Y283348D02*
Y281500D01*
X603348D01*
X603261Y281936D01*
X602730Y282730D01*
X601936Y283261D01*
X601500Y283348D01*
D02*
G37*
G36*
X600500D02*
X600064Y283261D01*
X599270Y282730D01*
X598739Y281936D01*
X598652Y281500D01*
X600500D01*
Y283348D01*
D02*
G37*
G36*
X603348Y280500D02*
X601500D01*
Y278652D01*
X601936Y278739D01*
X602730Y279270D01*
X603261Y280064D01*
X603348Y280500D01*
D02*
G37*
G36*
X600500D02*
X598652D01*
X598739Y280064D01*
X599270Y279270D01*
X600064Y278739D01*
X600500Y278652D01*
Y280500D01*
D02*
G37*
G36*
X459000Y284039D02*
X458220Y283884D01*
X457558Y283442D01*
X457116Y282780D01*
X456961Y282000D01*
X457116Y281220D01*
X457558Y280558D01*
X458082Y280208D01*
Y277792D01*
X457558Y277442D01*
X457116Y276780D01*
X456961Y276000D01*
X457116Y275220D01*
X457558Y274558D01*
X458220Y274116D01*
X459000Y273961D01*
X459780Y274116D01*
X460442Y274558D01*
X460884Y275220D01*
X461039Y276000D01*
X460884Y276780D01*
X460442Y277442D01*
X459918Y277792D01*
Y280208D01*
X460442Y280558D01*
X460884Y281220D01*
X461039Y282000D01*
X460884Y282780D01*
X460442Y283442D01*
X459780Y283884D01*
X459000Y284039D01*
D02*
G37*
G36*
X419000D02*
X418220Y283884D01*
X417558Y283442D01*
X417116Y282780D01*
X416961Y282000D01*
X417116Y281220D01*
X417558Y280558D01*
X418082Y280208D01*
Y277792D01*
X417558Y277442D01*
X417116Y276780D01*
X416961Y276000D01*
X417116Y275220D01*
X417558Y274558D01*
X418220Y274116D01*
X419000Y273961D01*
X419780Y274116D01*
X420442Y274558D01*
X420884Y275220D01*
X421039Y276000D01*
X420884Y276780D01*
X420442Y277442D01*
X419918Y277792D01*
Y280208D01*
X420442Y280558D01*
X420884Y281220D01*
X421039Y282000D01*
X420884Y282780D01*
X420442Y283442D01*
X419780Y283884D01*
X419000Y284039D01*
D02*
G37*
G36*
X496000Y269987D02*
Y263000D01*
X502987D01*
X502891Y263970D01*
X502463Y265384D01*
X501766Y266687D01*
X500829Y267829D01*
X499687Y268766D01*
X498384Y269463D01*
X496970Y269892D01*
X496000Y269987D01*
D02*
G37*
G36*
X523000D02*
Y263000D01*
X529987D01*
X529891Y263970D01*
X529463Y265384D01*
X528766Y266687D01*
X527829Y267829D01*
X526687Y268766D01*
X525384Y269463D01*
X523970Y269892D01*
X523000Y269987D01*
D02*
G37*
G36*
X495000D02*
X494030Y269892D01*
X492616Y269463D01*
X491313Y268766D01*
X490171Y267829D01*
X489234Y266687D01*
X488537Y265384D01*
X488108Y263970D01*
X488013Y263000D01*
X495000D01*
Y269987D01*
D02*
G37*
G36*
X522000D02*
X521030Y269892D01*
X519616Y269463D01*
X518313Y268766D01*
X517171Y267829D01*
X516234Y266687D01*
X515537Y265384D01*
X515108Y263970D01*
X515013Y263000D01*
X522000D01*
Y269987D01*
D02*
G37*
G36*
X597417Y272205D02*
X585500D01*
Y259500D01*
X597417D01*
Y272205D01*
D02*
G37*
G36*
X584500D02*
X572583D01*
Y259500D01*
X584500D01*
Y272205D01*
D02*
G37*
G36*
X653000Y266631D02*
X652060Y266507D01*
X651185Y266145D01*
X650432Y265567D01*
X649855Y264815D01*
X649493Y263940D01*
X649369Y263000D01*
X649493Y262060D01*
X649855Y261185D01*
X650432Y260433D01*
X651185Y259855D01*
X652060Y259493D01*
X653000Y259369D01*
X653940Y259493D01*
X654815Y259855D01*
X655568Y260433D01*
X656145Y261185D01*
X656507Y262060D01*
X656631Y263000D01*
X656507Y263940D01*
X656145Y264815D01*
X655568Y265567D01*
X654815Y266145D01*
X653940Y266507D01*
X653000Y266631D01*
D02*
G37*
G36*
X529987Y262000D02*
X523000D01*
Y255013D01*
X523970Y255108D01*
X525384Y255537D01*
X526687Y256234D01*
X527829Y257171D01*
X528766Y258313D01*
X529463Y259616D01*
X529891Y261030D01*
X529987Y262000D01*
D02*
G37*
G36*
X502987D02*
X496000D01*
Y255013D01*
X496970Y255108D01*
X498384Y255537D01*
X499687Y256234D01*
X500829Y257171D01*
X501766Y258313D01*
X502463Y259616D01*
X502891Y261030D01*
X502987Y262000D01*
D02*
G37*
G36*
X382000D02*
X375013D01*
X375109Y261030D01*
X375537Y259616D01*
X376234Y258313D01*
X377171Y257171D01*
X378313Y256234D01*
X379616Y255537D01*
X381030Y255108D01*
X382000Y255013D01*
Y262000D01*
D02*
G37*
G36*
X362987D02*
X356000D01*
Y255013D01*
X356970Y255108D01*
X358384Y255537D01*
X359687Y256234D01*
X360829Y257171D01*
X361766Y258313D01*
X362463Y259616D01*
X362892Y261030D01*
X362987Y262000D01*
D02*
G37*
G36*
X355000D02*
X348013D01*
X348109Y261030D01*
X348537Y259616D01*
X349234Y258313D01*
X350171Y257171D01*
X351313Y256234D01*
X352616Y255537D01*
X354030Y255108D01*
X355000Y255013D01*
Y262000D01*
D02*
G37*
G36*
X522000D02*
X515013D01*
X515108Y261030D01*
X515537Y259616D01*
X516234Y258313D01*
X517171Y257171D01*
X518313Y256234D01*
X519616Y255537D01*
X521030Y255108D01*
X522000Y255013D01*
Y262000D01*
D02*
G37*
G36*
X597417Y258500D02*
X585500D01*
Y245795D01*
X597417D01*
Y258500D01*
D02*
G37*
G36*
X584500D02*
X572583D01*
Y245795D01*
X584500D01*
Y258500D01*
D02*
G37*
G36*
X417000Y270918D02*
X326000D01*
X325649Y270848D01*
X325351Y270649D01*
X314351Y259649D01*
X314152Y259351D01*
X314082Y259000D01*
Y235315D01*
X314152Y234964D01*
X314351Y234666D01*
X317201Y231817D01*
X317037Y231603D01*
X316580Y230499D01*
X316424Y229315D01*
X316580Y228131D01*
X317037Y227027D01*
X317764Y226079D01*
X318712Y225352D01*
X319816Y224895D01*
X321000Y224739D01*
X322184Y224895D01*
X323288Y225352D01*
X324236Y226079D01*
X324963Y227027D01*
X325420Y228131D01*
X325576Y229315D01*
X325420Y230499D01*
X324963Y231603D01*
X324236Y232551D01*
X323288Y233278D01*
X322184Y233735D01*
X321000Y233891D01*
X319816Y233735D01*
X318712Y233278D01*
X318498Y233114D01*
X315918Y235695D01*
Y258620D01*
X326380Y269082D01*
X350910D01*
X351089Y268582D01*
X350171Y267829D01*
X349234Y266687D01*
X348537Y265384D01*
X348109Y263970D01*
X348013Y263000D01*
X362987D01*
X362892Y263970D01*
X362463Y265384D01*
X361766Y266687D01*
X360829Y267829D01*
X359911Y268582D01*
X360090Y269082D01*
X377910D01*
X378089Y268582D01*
X377171Y267829D01*
X376234Y266687D01*
X375537Y265384D01*
X375109Y263970D01*
X375013Y263000D01*
X389987D01*
X389892Y263970D01*
X389463Y265384D01*
X388766Y266687D01*
X387829Y267829D01*
X386911Y268582D01*
X387090Y269082D01*
X416620D01*
X421005Y264698D01*
X421302Y264499D01*
X421654Y264429D01*
X463530D01*
Y262876D01*
X463716D01*
X463776Y262787D01*
Y261524D01*
X463130D01*
Y259154D01*
X466000D01*
Y258154D01*
X463130D01*
Y255918D01*
X458000D01*
X457649Y255848D01*
X457351Y255649D01*
X454351Y252649D01*
X454152Y252351D01*
X454082Y252000D01*
Y216380D01*
X452959Y215257D01*
X452686Y215284D01*
X452097Y215678D01*
X451402Y215816D01*
X448055D01*
X447360Y215678D01*
X446771Y215284D01*
X446377Y214695D01*
X446239Y214000D01*
X446377Y213305D01*
X446771Y212716D01*
X447360Y212322D01*
X448055Y212184D01*
X451402D01*
X452097Y212322D01*
X452686Y212716D01*
X452979Y213155D01*
X453072D01*
X453424Y213225D01*
X453721Y213423D01*
X455649Y215351D01*
X455848Y215649D01*
X455918Y216000D01*
Y251620D01*
X458380Y254082D01*
X463130D01*
Y251847D01*
X466000D01*
X468870D01*
Y254082D01*
X470000D01*
X470351Y254152D01*
X470649Y254351D01*
X472481Y256184D01*
X473082D01*
Y253817D01*
X471530D01*
Y248876D01*
X471716D01*
X471776Y248787D01*
Y247213D01*
X471716Y247124D01*
X471530D01*
Y245571D01*
X468470D01*
Y247124D01*
X468284D01*
X468224Y247213D01*
Y248476D01*
X468870D01*
Y250847D01*
X466000D01*
X463130D01*
Y248476D01*
X463776D01*
Y247213D01*
X463716Y247124D01*
X463530D01*
Y245918D01*
X460000D01*
X459649Y245848D01*
X459351Y245649D01*
X457351Y243649D01*
X457152Y243351D01*
X457082Y243000D01*
Y212380D01*
X454620Y209918D01*
X452931D01*
X452686Y210284D01*
X452097Y210678D01*
X451402Y210816D01*
X448055D01*
X447360Y210678D01*
X446771Y210284D01*
X446377Y209695D01*
X446239Y209000D01*
X446367Y208359D01*
X446329Y208209D01*
X446141Y207862D01*
X442385Y207912D01*
X437918Y212380D01*
Y255000D01*
X437848Y255351D01*
X437649Y255649D01*
X432649Y260649D01*
X432351Y260848D01*
X432000Y260918D01*
X422380D01*
X417649Y265649D01*
X417351Y265848D01*
X417000Y265918D01*
X414470D01*
Y267816D01*
X409530D01*
Y266264D01*
X406470D01*
Y267816D01*
X401530D01*
Y266264D01*
X396346D01*
X395995Y266194D01*
X395698Y265995D01*
X390253Y260551D01*
X389824Y260808D01*
X389892Y261030D01*
X389987Y262000D01*
X383000D01*
Y255013D01*
X383970Y255108D01*
X384192Y255176D01*
X384449Y254747D01*
X379620Y249918D01*
X372510D01*
X372507Y249940D01*
X372145Y250816D01*
X371568Y251568D01*
X370815Y252145D01*
X369940Y252507D01*
X369000Y252631D01*
X368060Y252507D01*
X367184Y252145D01*
X366432Y251568D01*
X365855Y250816D01*
X365493Y249940D01*
X365490Y249918D01*
X325537D01*
Y253537D01*
X316463D01*
Y244463D01*
X325537D01*
Y248082D01*
X365490D01*
X365493Y248060D01*
X365855Y247184D01*
X366432Y246432D01*
X367184Y245855D01*
X368060Y245493D01*
X369000Y245369D01*
X369940Y245493D01*
X370815Y245855D01*
X371568Y246432D01*
X372145Y247184D01*
X372507Y248060D01*
X372510Y248082D01*
X380000D01*
X380351Y248152D01*
X380649Y248351D01*
X396727Y264429D01*
X401530D01*
Y262876D01*
X401716D01*
X401776Y262787D01*
Y261213D01*
X401716Y261124D01*
X401530D01*
Y256184D01*
X403082D01*
Y253817D01*
X401530D01*
Y248876D01*
X401716D01*
X401776Y248787D01*
Y247213D01*
X401716Y247124D01*
X401530D01*
Y242183D01*
X403082D01*
Y239816D01*
X401530D01*
Y234876D01*
X401716D01*
X401776Y234787D01*
Y233213D01*
X401716Y233124D01*
X401530D01*
Y228184D01*
X403082D01*
Y225792D01*
X402558Y225442D01*
X402116Y224780D01*
X401961Y224000D01*
X402116Y223220D01*
X402558Y222558D01*
X403220Y222116D01*
X404000Y221961D01*
X404780Y222116D01*
X405442Y222558D01*
X405884Y223220D01*
X406039Y224000D01*
X405884Y224780D01*
X405442Y225442D01*
X404918Y225792D01*
Y228184D01*
X406470D01*
Y229532D01*
X409530D01*
Y228184D01*
X414470D01*
Y233124D01*
X414284D01*
X414224Y233213D01*
Y234476D01*
X414870D01*
Y236846D01*
X412000D01*
X409130D01*
Y234476D01*
X409776D01*
Y233213D01*
X409716Y233124D01*
X409530D01*
Y231775D01*
X406470D01*
Y233124D01*
X406284D01*
X406224Y233213D01*
Y234787D01*
X406284Y234876D01*
X406470D01*
Y239816D01*
X404918D01*
Y242183D01*
X406470D01*
Y243736D01*
X409530D01*
Y242183D01*
X414470D01*
Y243736D01*
X416966D01*
X418082Y242620D01*
Y212000D01*
X418152Y211649D01*
X418351Y211351D01*
X421351Y208351D01*
X421649Y208152D01*
X422000Y208082D01*
X425070D01*
X425314Y207716D01*
X425904Y207322D01*
X426598Y207184D01*
X429945D01*
X430640Y207322D01*
X431229Y207716D01*
X431623Y208305D01*
X431761Y209000D01*
X431623Y209695D01*
X431229Y210284D01*
X430640Y210678D01*
X429945Y210816D01*
X426598D01*
X425904Y210678D01*
X425314Y210284D01*
X425070Y209918D01*
X422380D01*
X419918Y212380D01*
Y243000D01*
X419848Y243351D01*
X419649Y243649D01*
X417995Y245302D01*
X417698Y245501D01*
X417346Y245571D01*
X414470D01*
Y247124D01*
X414284D01*
X414224Y247213D01*
Y248476D01*
X414870D01*
Y250847D01*
X412000D01*
X409130D01*
Y248476D01*
X409776D01*
Y247213D01*
X409716Y247124D01*
X409530D01*
Y245571D01*
X406470D01*
Y247124D01*
X406284D01*
X406224Y247213D01*
Y248787D01*
X406284Y248876D01*
X406470D01*
Y253817D01*
X404918D01*
Y256184D01*
X405519D01*
X407351Y254351D01*
X407649Y254152D01*
X408000Y254082D01*
X409130D01*
Y251847D01*
X412000D01*
X414870D01*
Y254082D01*
X418620D01*
X421082Y251620D01*
Y216000D01*
X421152Y215649D01*
X421351Y215351D01*
X423351Y213351D01*
X423649Y213152D01*
X424000Y213082D01*
X425070D01*
X425314Y212716D01*
X425904Y212322D01*
X426598Y212184D01*
X429945D01*
X430640Y212322D01*
X431229Y212716D01*
X431623Y213305D01*
X431761Y214000D01*
X431623Y214695D01*
X431229Y215284D01*
X430640Y215678D01*
X429945Y215816D01*
X426598D01*
X425904Y215678D01*
X425314Y215284D01*
X425070Y214918D01*
X424380D01*
X422918Y216380D01*
Y252000D01*
X422848Y252351D01*
X422649Y252649D01*
X419649Y255649D01*
X419351Y255848D01*
X419000Y255918D01*
X414870D01*
Y258154D01*
X412000D01*
Y259154D01*
X414870D01*
Y261524D01*
X414224D01*
Y262787D01*
X414284Y262876D01*
X414470D01*
Y264082D01*
X416620D01*
X421351Y259351D01*
X421649Y259152D01*
X422000Y259082D01*
X431620D01*
X436082Y254620D01*
Y212000D01*
X436152Y211649D01*
X436351Y211351D01*
X441351Y206351D01*
X441495Y206255D01*
X441638Y206157D01*
X441644Y206156D01*
X441649Y206152D01*
X441818Y206118D01*
X441988Y206083D01*
X446966Y206016D01*
X447114Y205514D01*
X446771Y205284D01*
X446377Y204695D01*
X446239Y204000D01*
X446377Y203305D01*
X446771Y202716D01*
X447360Y202322D01*
X448055Y202184D01*
X451402D01*
X452097Y202322D01*
X452686Y202716D01*
X452931Y203082D01*
X457208D01*
X457558Y202558D01*
X458220Y202116D01*
X459000Y201961D01*
X459780Y202116D01*
X460442Y202558D01*
X460884Y203220D01*
X461039Y204000D01*
X460884Y204780D01*
X460442Y205442D01*
X460291Y205543D01*
X460442Y206044D01*
X468620Y206082D01*
X473851Y200851D01*
X474149Y200652D01*
X474500Y200582D01*
X506069D01*
X506314Y200216D01*
X506904Y199822D01*
X507598Y199684D01*
X510945D01*
X511640Y199822D01*
X512229Y200216D01*
X512623Y200805D01*
X512761Y201500D01*
X512623Y202195D01*
X512229Y202784D01*
X511640Y203178D01*
X510945Y203316D01*
X507598D01*
X506904Y203178D01*
X506314Y202784D01*
X506069Y202418D01*
X474880D01*
X469649Y207649D01*
X469351Y207848D01*
X469000Y207918D01*
X468751Y207927D01*
X468751Y207929D01*
X468742Y207928D01*
X468256Y207915D01*
X468256Y207915D01*
X468293Y207916D01*
X468256Y207915D01*
X455809Y207857D01*
X455654Y208334D01*
X455654Y208356D01*
X458649Y211351D01*
X458848Y211649D01*
X458918Y212000D01*
Y242620D01*
X460380Y244082D01*
X463530D01*
Y242183D01*
X468470D01*
Y243736D01*
X471530D01*
Y242183D01*
X473082D01*
Y239816D01*
X471530D01*
Y234876D01*
X471716D01*
X471776Y234787D01*
Y233213D01*
X471716Y233124D01*
X471530D01*
Y231775D01*
X468470D01*
Y233124D01*
X468284D01*
X468224Y233213D01*
Y234476D01*
X468870D01*
Y236846D01*
X466000D01*
X463130D01*
Y234476D01*
X463776D01*
Y233213D01*
X463716Y233124D01*
X463530D01*
Y228184D01*
X468470D01*
Y229532D01*
X471530D01*
Y228184D01*
X473082D01*
Y225792D01*
X472558Y225442D01*
X472116Y224780D01*
X471961Y224000D01*
X472116Y223220D01*
X472558Y222558D01*
X473220Y222116D01*
X474000Y221961D01*
X474780Y222116D01*
X475442Y222558D01*
X475884Y223220D01*
X476039Y224000D01*
X475884Y224780D01*
X475442Y225442D01*
X474918Y225792D01*
Y228184D01*
X476470D01*
Y233124D01*
X476284D01*
X476224Y233213D01*
Y234787D01*
X476284Y234876D01*
X476470D01*
Y239816D01*
X474918D01*
Y242183D01*
X476470D01*
Y247124D01*
X476284D01*
X476224Y247213D01*
Y248787D01*
X476284Y248876D01*
X476470D01*
Y253817D01*
X474918D01*
Y256184D01*
X476470D01*
Y261124D01*
X476284D01*
X476224Y261213D01*
Y262787D01*
X476284Y262876D01*
X476470D01*
Y264082D01*
X480620D01*
X496351Y248351D01*
X496649Y248152D01*
X497000Y248082D01*
X505490D01*
X505493Y248060D01*
X505855Y247184D01*
X506432Y246432D01*
X507185Y245855D01*
X508060Y245493D01*
X508082Y245490D01*
Y208316D01*
X507598D01*
X506904Y208178D01*
X506314Y207784D01*
X505921Y207195D01*
X505782Y206500D01*
X505921Y205805D01*
X506314Y205216D01*
X506904Y204822D01*
X507598Y204684D01*
X510945D01*
X511640Y204822D01*
X512229Y205216D01*
X512623Y205805D01*
X512761Y206500D01*
X512623Y207195D01*
X512229Y207784D01*
X511640Y208178D01*
X510945Y208316D01*
X509918D01*
Y245490D01*
X509940Y245493D01*
X510815Y245855D01*
X511568Y246432D01*
X512145Y247184D01*
X512507Y248060D01*
X512631Y249000D01*
X512507Y249940D01*
X512145Y250816D01*
X511568Y251568D01*
X510815Y252145D01*
X509940Y252507D01*
X509000Y252631D01*
X508060Y252507D01*
X507185Y252145D01*
X506432Y251568D01*
X505855Y250816D01*
X505493Y249940D01*
X505490Y249918D01*
X497380D01*
X491996Y255302D01*
X492297Y255708D01*
X492616Y255537D01*
X494030Y255108D01*
X495000Y255013D01*
Y262000D01*
X488013D01*
X488108Y261030D01*
X488537Y259616D01*
X488708Y259297D01*
X488302Y258996D01*
X481649Y265649D01*
X481351Y265848D01*
X481000Y265918D01*
X476470D01*
Y267816D01*
X471530D01*
Y266264D01*
X468470D01*
Y267816D01*
X463530D01*
Y266264D01*
X422034D01*
X417649Y270649D01*
X417351Y270848D01*
X417000Y270918D01*
D02*
G37*
G36*
X676600Y252600D02*
X669400D01*
Y245400D01*
X676600D01*
Y252600D01*
D02*
G37*
G36*
X653000Y252631D02*
X652060Y252507D01*
X651185Y252145D01*
X650432Y251568D01*
X649855Y250816D01*
X649493Y249940D01*
X649369Y249000D01*
X649493Y248060D01*
X649855Y247184D01*
X650432Y246432D01*
X651185Y245855D01*
X652060Y245493D01*
X653000Y245369D01*
X653940Y245493D01*
X654815Y245855D01*
X655568Y246432D01*
X656145Y247184D01*
X656507Y248060D01*
X656631Y249000D01*
X656507Y249940D01*
X656145Y250816D01*
X655568Y251568D01*
X654815Y252145D01*
X653940Y252507D01*
X653000Y252631D01*
D02*
G37*
G36*
X468870Y240216D02*
X466500D01*
Y237846D01*
X468870D01*
Y240216D01*
D02*
G37*
G36*
X414870D02*
X412500D01*
Y237846D01*
X414870D01*
Y240216D01*
D02*
G37*
G36*
X465500D02*
X463130D01*
Y237846D01*
X465500D01*
Y240216D01*
D02*
G37*
G36*
X411500D02*
X409130D01*
Y237846D01*
X411500D01*
Y240216D01*
D02*
G37*
G36*
X496000Y242987D02*
Y236000D01*
X502987D01*
X502891Y236970D01*
X502463Y238384D01*
X501766Y239687D01*
X500829Y240829D01*
X499687Y241766D01*
X498384Y242463D01*
X496970Y242892D01*
X496000Y242987D01*
D02*
G37*
G36*
X523000D02*
Y236000D01*
X529987D01*
X529891Y236970D01*
X529463Y238384D01*
X528766Y239687D01*
X527829Y240829D01*
X526687Y241766D01*
X525384Y242463D01*
X523970Y242892D01*
X523000Y242987D01*
D02*
G37*
G36*
X383000D02*
Y236000D01*
X389987D01*
X389892Y236970D01*
X389463Y238384D01*
X388766Y239687D01*
X387829Y240829D01*
X386687Y241766D01*
X385384Y242463D01*
X383970Y242892D01*
X383000Y242987D01*
D02*
G37*
G36*
X382000D02*
X381030Y242892D01*
X379616Y242463D01*
X378313Y241766D01*
X377171Y240829D01*
X376234Y239687D01*
X375537Y238384D01*
X375109Y236970D01*
X375013Y236000D01*
X382000D01*
Y242987D01*
D02*
G37*
G36*
X356000D02*
Y236000D01*
X362987D01*
X362892Y236970D01*
X362463Y238384D01*
X361766Y239687D01*
X360829Y240829D01*
X359687Y241766D01*
X358384Y242463D01*
X356970Y242892D01*
X356000Y242987D01*
D02*
G37*
G36*
X355000D02*
X354030Y242892D01*
X352616Y242463D01*
X351313Y241766D01*
X350171Y240829D01*
X349234Y239687D01*
X348537Y238384D01*
X348109Y236970D01*
X348013Y236000D01*
X355000D01*
Y242987D01*
D02*
G37*
G36*
X495000D02*
X494030Y242892D01*
X492616Y242463D01*
X491313Y241766D01*
X490171Y240829D01*
X489234Y239687D01*
X488537Y238384D01*
X488108Y236970D01*
X488013Y236000D01*
X495000D01*
Y242987D01*
D02*
G37*
G36*
X522000D02*
X521030Y242892D01*
X519616Y242463D01*
X518313Y241766D01*
X517171Y240829D01*
X516234Y239687D01*
X515537Y238384D01*
X515108Y236970D01*
X515013Y236000D01*
X522000D01*
Y242987D01*
D02*
G37*
G36*
X606870Y236216D02*
X604500D01*
Y233846D01*
X606870D01*
Y236216D01*
D02*
G37*
G36*
X568870D02*
X566500D01*
Y233846D01*
X568870D01*
Y236216D01*
D02*
G37*
G36*
X603500D02*
X601130D01*
Y233846D01*
X603500D01*
Y236216D01*
D02*
G37*
G36*
X565500D02*
X563130D01*
Y233846D01*
X565500D01*
Y236216D01*
D02*
G37*
G36*
X529987Y235000D02*
X523000D01*
Y228013D01*
X523970Y228109D01*
X525384Y228537D01*
X526687Y229234D01*
X527829Y230171D01*
X528766Y231313D01*
X529463Y232616D01*
X529891Y234030D01*
X529987Y235000D01*
D02*
G37*
G36*
X502987D02*
X496000D01*
Y228013D01*
X496970Y228109D01*
X498384Y228537D01*
X499687Y229234D01*
X500829Y230171D01*
X501766Y231313D01*
X502463Y232616D01*
X502891Y234030D01*
X502987Y235000D01*
D02*
G37*
G36*
X389987D02*
X383000D01*
Y228013D01*
X383970Y228109D01*
X385384Y228537D01*
X386687Y229234D01*
X387829Y230171D01*
X388766Y231313D01*
X389463Y232616D01*
X389892Y234030D01*
X389987Y235000D01*
D02*
G37*
G36*
X382000D02*
X375013D01*
X375109Y234030D01*
X375537Y232616D01*
X376234Y231313D01*
X377171Y230171D01*
X378313Y229234D01*
X379616Y228537D01*
X381030Y228109D01*
X382000Y228013D01*
Y235000D01*
D02*
G37*
G36*
X362987D02*
X356000D01*
Y228013D01*
X356970Y228109D01*
X358384Y228537D01*
X359687Y229234D01*
X360829Y230171D01*
X361766Y231313D01*
X362463Y232616D01*
X362892Y234030D01*
X362987Y235000D01*
D02*
G37*
G36*
X355000D02*
X348013D01*
X348109Y234030D01*
X348537Y232616D01*
X349234Y231313D01*
X350171Y230171D01*
X351313Y229234D01*
X352616Y228537D01*
X354030Y228109D01*
X355000Y228013D01*
Y235000D01*
D02*
G37*
G36*
X522000D02*
X515013D01*
X515108Y234030D01*
X515537Y232616D01*
X516234Y231313D01*
X517171Y230171D01*
X518313Y229234D01*
X519616Y228537D01*
X521030Y228109D01*
X522000Y228013D01*
Y235000D01*
D02*
G37*
G36*
X495000D02*
X488013D01*
X488108Y234030D01*
X488537Y232616D01*
X489234Y231313D01*
X490171Y230171D01*
X491313Y229234D01*
X492616Y228537D01*
X494030Y228109D01*
X495000Y228013D01*
Y235000D01*
D02*
G37*
G36*
X579734Y237238D02*
X572235D01*
Y228569D01*
X571441Y227775D01*
X568470D01*
Y229124D01*
X568284D01*
X568224Y229213D01*
Y230476D01*
X568870D01*
Y232846D01*
X566000D01*
X563130D01*
Y230476D01*
X563776D01*
Y229213D01*
X563716Y229124D01*
X563530D01*
Y227622D01*
X560850D01*
X560771Y227811D01*
X560354Y228354D01*
X559811Y228771D01*
X559179Y229033D01*
X558500Y229122D01*
X557821Y229033D01*
X557189Y228771D01*
X556646Y228354D01*
X556229Y227811D01*
X555967Y227179D01*
X555878Y226500D01*
X555967Y225821D01*
X556229Y225189D01*
X556646Y224646D01*
X557189Y224229D01*
X557821Y223967D01*
X558500Y223878D01*
X559179Y223967D01*
X559811Y224229D01*
X560354Y224646D01*
X560771Y225189D01*
X560850Y225378D01*
X563530D01*
Y224184D01*
X568470D01*
Y225532D01*
X571906D01*
X571906Y225532D01*
X572235Y225262D01*
Y224227D01*
X579734D01*
Y237238D01*
D02*
G37*
G36*
X597765D02*
X590266D01*
Y224227D01*
X597765D01*
Y225262D01*
X598095Y225532D01*
X598095Y225532D01*
X601530D01*
Y224184D01*
X602878D01*
Y218656D01*
X602558Y218442D01*
X602116Y217780D01*
X601961Y217000D01*
X602116Y216220D01*
X602558Y215558D01*
X603220Y215116D01*
X604000Y214961D01*
X604780Y215116D01*
X605442Y215558D01*
X605884Y216220D01*
X606039Y217000D01*
X605884Y217780D01*
X605442Y218442D01*
X605122Y218656D01*
Y224184D01*
X606470D01*
Y229124D01*
X606284D01*
X606224Y229213D01*
Y230476D01*
X606870D01*
Y232846D01*
X604000D01*
X601130D01*
Y230476D01*
X601776D01*
Y229213D01*
X601716Y229124D01*
X601530D01*
Y227775D01*
X598559D01*
X597765Y228569D01*
Y237238D01*
D02*
G37*
G36*
X631750Y215750D02*
X624250D01*
Y208250D01*
X631750D01*
Y215750D01*
D02*
G37*
G36*
X532402Y208724D02*
X531228D01*
Y207000D01*
X534526D01*
X534456Y207351D01*
X533974Y208072D01*
X533253Y208555D01*
X532402Y208724D01*
D02*
G37*
G36*
X530228D02*
X529055D01*
X528204Y208555D01*
X527483Y208072D01*
X527001Y207351D01*
X526931Y207000D01*
X530228D01*
Y208724D01*
D02*
G37*
G36*
X534526Y206000D02*
X531228D01*
Y204276D01*
X532402D01*
X533253Y204446D01*
X533974Y204927D01*
X534456Y205649D01*
X534526Y206000D01*
D02*
G37*
G36*
X530228D02*
X526931D01*
X527001Y205649D01*
X527483Y204927D01*
X528204Y204446D01*
X529055Y204276D01*
X530228D01*
Y206000D01*
D02*
G37*
G36*
X597317Y215305D02*
X585400D01*
Y202600D01*
X597317D01*
Y215305D01*
D02*
G37*
G36*
X584400D02*
X572483D01*
Y202600D01*
X584400D01*
Y215305D01*
D02*
G37*
G36*
X419000Y206039D02*
X418220Y205884D01*
X417558Y205442D01*
X417116Y204780D01*
X416961Y204000D01*
X417116Y203220D01*
X417558Y202558D01*
X418220Y202116D01*
X419000Y201961D01*
X419780Y202116D01*
X420442Y202558D01*
X420792Y203082D01*
X425070D01*
X425314Y202716D01*
X425904Y202322D01*
X426598Y202184D01*
X429945D01*
X430640Y202322D01*
X431229Y202716D01*
X431623Y203305D01*
X431761Y204000D01*
X431623Y204695D01*
X431229Y205284D01*
X430640Y205678D01*
X429945Y205816D01*
X426598D01*
X425904Y205678D01*
X425314Y205284D01*
X425070Y204918D01*
X420792D01*
X420442Y205442D01*
X419780Y205884D01*
X419000Y206039D01*
D02*
G37*
G36*
X532402Y203724D02*
X531228D01*
Y202000D01*
X534526D01*
X534456Y202351D01*
X533974Y203073D01*
X533253Y203555D01*
X532402Y203724D01*
D02*
G37*
G36*
X530228D02*
X529055D01*
X528204Y203555D01*
X527483Y203073D01*
X527001Y202351D01*
X526931Y202000D01*
X530228D01*
Y203724D01*
D02*
G37*
G36*
X466847Y201870D02*
X464476D01*
Y201224D01*
X463213D01*
X463124Y201284D01*
Y201470D01*
X458183D01*
Y200122D01*
X452794D01*
X452686Y200284D01*
X452097Y200678D01*
X451402Y200816D01*
X448055D01*
X447360Y200678D01*
X446771Y200284D01*
X446377Y199695D01*
X446239Y199000D01*
X446377Y198305D01*
X446771Y197716D01*
X447360Y197322D01*
X448055Y197184D01*
X451402D01*
X452097Y197322D01*
X452686Y197716D01*
X452794Y197878D01*
X458183D01*
Y196530D01*
X459177D01*
X459183Y196513D01*
X459136Y196391D01*
X458835Y196006D01*
X458220Y195884D01*
X457558Y195442D01*
X457208Y194918D01*
X452931D01*
X452686Y195284D01*
X452097Y195678D01*
X451402Y195816D01*
X448055D01*
X447360Y195678D01*
X446771Y195284D01*
X446377Y194695D01*
X446239Y194000D01*
X446377Y193305D01*
X446771Y192716D01*
X447360Y192322D01*
X448055Y192184D01*
X451402D01*
X452097Y192322D01*
X452686Y192716D01*
X452931Y193082D01*
X457208D01*
X457558Y192558D01*
X458220Y192116D01*
X459000Y191961D01*
X459780Y192116D01*
X460442Y192558D01*
X460884Y193220D01*
X461032Y193963D01*
X461174Y194055D01*
X461511Y194191D01*
X477351Y178351D01*
X477649Y178152D01*
X478000Y178082D01*
X479208D01*
X479558Y177558D01*
X479768Y177418D01*
X479617Y176918D01*
X476380D01*
X472916Y180382D01*
X473039Y181000D01*
X472884Y181780D01*
X472442Y182442D01*
X471780Y182884D01*
X471000Y183039D01*
X470220Y182884D01*
X469558Y182442D01*
X469116Y181780D01*
X468961Y181000D01*
X469116Y180220D01*
X469558Y179558D01*
X470220Y179116D01*
X471000Y178961D01*
X471619Y179084D01*
X474191Y176511D01*
X474055Y176174D01*
X473963Y176032D01*
X473220Y175884D01*
X472558Y175442D01*
X472116Y174780D01*
X471961Y174000D01*
X472116Y173220D01*
X472558Y172558D01*
X473082Y172208D01*
Y169817D01*
X471530D01*
Y168468D01*
X468470D01*
Y169817D01*
X463530D01*
Y164876D01*
X463716D01*
X463776Y164787D01*
Y163524D01*
X463130D01*
Y161153D01*
X466000D01*
X468870D01*
Y163524D01*
X468224D01*
Y164787D01*
X468284Y164876D01*
X468470D01*
Y166225D01*
X471530D01*
Y164876D01*
X471716D01*
X471776Y164787D01*
Y163213D01*
X471716Y163124D01*
X471530D01*
Y158184D01*
X473082D01*
Y155816D01*
X471530D01*
Y154264D01*
X468470D01*
Y155816D01*
X463530D01*
Y153918D01*
X461380D01*
X459918Y155380D01*
Y186000D01*
X459848Y186351D01*
X459649Y186649D01*
X456649Y189649D01*
X456351Y189848D01*
X456000Y189918D01*
X452931D01*
X452686Y190284D01*
X452097Y190678D01*
X451402Y190816D01*
X448055D01*
X447360Y190678D01*
X446771Y190284D01*
X446377Y189695D01*
X446239Y189000D01*
X446377Y188305D01*
X446771Y187716D01*
X447360Y187322D01*
X448055Y187184D01*
X451402D01*
X452097Y187322D01*
X452686Y187716D01*
X452931Y188082D01*
X455620D01*
X458082Y185620D01*
Y155000D01*
X458152Y154649D01*
X458351Y154351D01*
X460351Y152351D01*
X460649Y152152D01*
X461000Y152082D01*
X463530D01*
Y150876D01*
X463716D01*
X463776Y150787D01*
Y149524D01*
X463130D01*
Y147153D01*
X466000D01*
X468870D01*
Y149524D01*
X468224D01*
Y150787D01*
X468284Y150876D01*
X468470D01*
Y152429D01*
X471530D01*
Y150876D01*
X471716D01*
X471776Y150787D01*
Y149213D01*
X471716Y149124D01*
X471530D01*
Y144184D01*
X473082D01*
Y141816D01*
X472481D01*
X470649Y143649D01*
X470351Y143848D01*
X470000Y143918D01*
X468870D01*
Y146153D01*
X466000D01*
X463130D01*
Y143918D01*
X459380D01*
X456918Y146380D01*
Y182000D01*
X456848Y182351D01*
X456649Y182649D01*
X454649Y184649D01*
X454351Y184848D01*
X454000Y184918D01*
X452931D01*
X452686Y185284D01*
X452097Y185678D01*
X451402Y185816D01*
X448055D01*
X447360Y185678D01*
X446771Y185284D01*
X446377Y184695D01*
X446239Y184000D01*
X446377Y183305D01*
X446771Y182716D01*
X447360Y182322D01*
X448055Y182184D01*
X451402D01*
X452097Y182322D01*
X452686Y182716D01*
X452931Y183082D01*
X453620D01*
X455082Y181620D01*
Y146000D01*
X455152Y145649D01*
X455351Y145351D01*
X458351Y142351D01*
X458649Y142152D01*
X459000Y142082D01*
X463130D01*
Y139847D01*
X466000D01*
Y138847D01*
X463130D01*
Y136476D01*
X463776D01*
Y135213D01*
X463716Y135124D01*
X463530D01*
Y133571D01*
X422653D01*
X422302Y133501D01*
X422005Y133302D01*
X414620Y125918D01*
X350380D01*
X335649Y140649D01*
X335351Y140848D01*
X335000Y140918D01*
X315380D01*
X310918Y145380D01*
Y184620D01*
X315325Y189027D01*
X316545D01*
X316580Y188760D01*
X317037Y187657D01*
X317764Y186709D01*
X318712Y185982D01*
X319816Y185525D01*
X321000Y185369D01*
X322184Y185525D01*
X323288Y185982D01*
X324236Y186709D01*
X324963Y187657D01*
X325420Y188760D01*
X325576Y189945D01*
X325420Y191129D01*
X324963Y192233D01*
X324236Y193181D01*
X323288Y193908D01*
X322184Y194365D01*
X321000Y194521D01*
X319816Y194365D01*
X318712Y193908D01*
X317764Y193181D01*
X317037Y192233D01*
X316580Y191129D01*
X316545Y190863D01*
X314945D01*
X314594Y190793D01*
X314296Y190594D01*
X309351Y185649D01*
X309152Y185351D01*
X309082Y185000D01*
Y145000D01*
X309152Y144649D01*
X309351Y144351D01*
X314351Y139351D01*
X314649Y139152D01*
X315000Y139082D01*
X334620D01*
X349351Y124351D01*
X349649Y124152D01*
X350000Y124082D01*
X415000D01*
X415351Y124152D01*
X415649Y124351D01*
X423034Y131736D01*
X463530D01*
Y130183D01*
X468470D01*
Y131736D01*
X471530D01*
Y130183D01*
X476470D01*
Y131736D01*
X480653D01*
X481005Y131806D01*
X481302Y132005D01*
X488302Y139004D01*
X488708Y138703D01*
X488537Y138384D01*
X488108Y136970D01*
X488013Y136000D01*
X495000D01*
Y142987D01*
X494030Y142892D01*
X492616Y142463D01*
X492297Y142292D01*
X491996Y142698D01*
X497380Y148082D01*
X505490D01*
X505493Y148060D01*
X505855Y147185D01*
X506432Y146432D01*
X507185Y145855D01*
X508060Y145493D01*
X509000Y145369D01*
X509940Y145493D01*
X510815Y145855D01*
X511568Y146432D01*
X512145Y147185D01*
X512507Y148060D01*
X512631Y149000D01*
X512507Y149940D01*
X512145Y150815D01*
X511568Y151568D01*
X510815Y152145D01*
X510189Y152404D01*
Y189684D01*
X510945D01*
X511640Y189822D01*
X512229Y190216D01*
X512623Y190805D01*
X512761Y191500D01*
X512623Y192195D01*
X512229Y192784D01*
X511640Y193178D01*
X510945Y193316D01*
X507598D01*
X506904Y193178D01*
X506314Y192784D01*
X505921Y192195D01*
X505782Y191500D01*
X505921Y190805D01*
X506314Y190216D01*
X506904Y189822D01*
X507598Y189684D01*
X508354D01*
Y152546D01*
X508060Y152507D01*
X507185Y152145D01*
X506432Y151568D01*
X505855Y150815D01*
X505493Y149940D01*
X505490Y149918D01*
X497000D01*
X496649Y149848D01*
X496351Y149649D01*
X480273Y133571D01*
X476470D01*
Y135124D01*
X476284D01*
X476224Y135213D01*
Y136787D01*
X476284Y136876D01*
X476470D01*
Y141816D01*
X474918D01*
Y144184D01*
X476470D01*
Y149124D01*
X476284D01*
X476224Y149213D01*
Y150787D01*
X476284Y150876D01*
X476470D01*
Y155816D01*
X474918D01*
Y158184D01*
X476470D01*
Y163124D01*
X476284D01*
X476224Y163213D01*
Y164787D01*
X476284Y164876D01*
X476470D01*
Y169817D01*
X474918D01*
Y172208D01*
X475442Y172558D01*
X475884Y173220D01*
X476039Y174000D01*
X475921Y174596D01*
X475927Y174632D01*
X476188Y175010D01*
X476284Y175082D01*
X491000D01*
X491351Y175152D01*
X491649Y175351D01*
X495649Y179351D01*
X495848Y179649D01*
X495918Y180000D01*
Y192620D01*
X498380Y195082D01*
X506366D01*
X506480Y195105D01*
X506904Y194822D01*
X507598Y194684D01*
X510945D01*
X511640Y194822D01*
X512229Y195216D01*
X512623Y195805D01*
X512761Y196500D01*
X512623Y197195D01*
X512229Y197784D01*
X511640Y198178D01*
X510945Y198316D01*
X507598D01*
X506904Y198178D01*
X506314Y197784D01*
X505921Y197195D01*
X505865Y196918D01*
X498000D01*
X497649Y196848D01*
X497351Y196649D01*
X494351Y193649D01*
X494152Y193351D01*
X494082Y193000D01*
Y180380D01*
X490620Y176918D01*
X482383D01*
X482232Y177418D01*
X482442Y177558D01*
X482884Y178220D01*
X483039Y179000D01*
X482884Y179780D01*
X482442Y180442D01*
X481780Y180884D01*
X481000Y181039D01*
X480220Y180884D01*
X479558Y180442D01*
X479208Y179918D01*
X478380D01*
X462230Y196068D01*
X462421Y196530D01*
X463124D01*
Y196716D01*
X463213Y196776D01*
X464476D01*
Y196130D01*
X466847D01*
Y199000D01*
Y201870D01*
D02*
G37*
G36*
X470217D02*
X467846D01*
Y199500D01*
X470217D01*
Y201870D01*
D02*
G37*
G36*
X410153D02*
X407784D01*
Y199500D01*
X410153D01*
Y201870D01*
D02*
G37*
G36*
X534526Y201000D02*
X531228D01*
Y199276D01*
X532402D01*
X533253Y199445D01*
X533974Y199927D01*
X534456Y200649D01*
X534526Y201000D01*
D02*
G37*
G36*
X530228D02*
X526931D01*
X527001Y200649D01*
X527483Y199927D01*
X528204Y199445D01*
X529055Y199276D01*
X530228D01*
Y201000D01*
D02*
G37*
G36*
X674257Y205800D02*
X673278Y205671D01*
X672366Y205293D01*
X671583Y204692D01*
X670982Y203909D01*
X670604Y202996D01*
X670475Y202018D01*
X670604Y201039D01*
X670982Y200127D01*
X671583Y199343D01*
X672366Y198742D01*
X673278Y198364D01*
X674257Y198236D01*
X675236Y198364D01*
X676148Y198742D01*
X676931Y199343D01*
X677532Y200127D01*
X677910Y201039D01*
X678039Y202018D01*
X677910Y202996D01*
X677532Y203909D01*
X676931Y204692D01*
X676148Y205293D01*
X675236Y205671D01*
X674257Y205800D01*
D02*
G37*
G36*
X413524Y201870D02*
X411154D01*
Y199000D01*
Y196130D01*
X412711D01*
X412895Y195665D01*
X409982Y192918D01*
X399792D01*
X399442Y193442D01*
X398780Y193884D01*
X398000Y194039D01*
X397220Y193884D01*
X396558Y193442D01*
X396116Y192780D01*
X395961Y192000D01*
X396116Y191220D01*
X396558Y190558D01*
X397220Y190116D01*
X398000Y189961D01*
X398780Y190116D01*
X399442Y190558D01*
X399792Y191082D01*
X410347D01*
X410509Y191115D01*
X410673Y191142D01*
X410684Y191149D01*
X410698Y191152D01*
X410836Y191244D01*
X410976Y191332D01*
X416034Y196103D01*
X416040Y196097D01*
X416085Y196127D01*
X416144Y196215D01*
X416160Y196234D01*
X416417Y196530D01*
X419816D01*
Y197878D01*
X425206D01*
X425314Y197716D01*
X425904Y197322D01*
X426598Y197184D01*
X429945D01*
X430640Y197322D01*
X431229Y197716D01*
X431623Y198305D01*
X431761Y199000D01*
X431623Y199695D01*
X431229Y200284D01*
X430640Y200678D01*
X429945Y200816D01*
X426598D01*
X425904Y200678D01*
X425314Y200284D01*
X425206Y200122D01*
X419816D01*
Y201470D01*
X414876D01*
Y201284D01*
X414787Y201224D01*
X413524D01*
Y201870D01*
D02*
G37*
G36*
X532402Y198724D02*
X531228D01*
Y197000D01*
X534526D01*
X534456Y197351D01*
X533974Y198073D01*
X533253Y198555D01*
X532402Y198724D01*
D02*
G37*
G36*
X530228D02*
X529055D01*
X528204Y198555D01*
X527483Y198073D01*
X527001Y197351D01*
X526931Y197000D01*
X530228D01*
Y198724D01*
D02*
G37*
G36*
X470217Y198500D02*
X467846D01*
Y196130D01*
X470217D01*
Y198500D01*
D02*
G37*
G36*
X410153D02*
X407784D01*
Y196130D01*
X410153D01*
Y198500D01*
D02*
G37*
G36*
X534526Y196000D02*
X531228D01*
Y194276D01*
X532402D01*
X533253Y194446D01*
X533974Y194928D01*
X534456Y195649D01*
X534526Y196000D01*
D02*
G37*
G36*
X530228D02*
X526931D01*
X527001Y195649D01*
X527483Y194928D01*
X528204Y194446D01*
X529055Y194276D01*
X530228D01*
Y196000D01*
D02*
G37*
G36*
X628500Y196120D02*
Y192500D01*
X632120D01*
X632043Y193083D01*
X631625Y194093D01*
X630960Y194959D01*
X630093Y195625D01*
X629083Y196043D01*
X628500Y196120D01*
D02*
G37*
G36*
X627500D02*
X626917Y196043D01*
X625907Y195625D01*
X625040Y194959D01*
X624375Y194093D01*
X623957Y193083D01*
X623880Y192500D01*
X627500D01*
Y196120D01*
D02*
G37*
G36*
X419000Y196039D02*
X418220Y195884D01*
X417558Y195442D01*
X417116Y194780D01*
X416961Y194000D01*
X417116Y193220D01*
X417558Y192558D01*
X418220Y192116D01*
X419000Y191961D01*
X419780Y192116D01*
X420442Y192558D01*
X420792Y193082D01*
X425070D01*
X425314Y192716D01*
X425904Y192322D01*
X426598Y192184D01*
X429945D01*
X430640Y192322D01*
X431229Y192716D01*
X431623Y193305D01*
X431761Y194000D01*
X431623Y194695D01*
X431229Y195284D01*
X430640Y195678D01*
X429945Y195816D01*
X426598D01*
X425904Y195678D01*
X425314Y195284D01*
X425070Y194918D01*
X420792D01*
X420442Y195442D01*
X419780Y195884D01*
X419000Y196039D01*
D02*
G37*
G36*
X532402Y193724D02*
X531228D01*
Y192000D01*
X534526D01*
X534456Y192351D01*
X533974Y193072D01*
X533253Y193554D01*
X532402Y193724D01*
D02*
G37*
G36*
X530228D02*
X529055D01*
X528204Y193554D01*
X527483Y193072D01*
X527001Y192351D01*
X526931Y192000D01*
X530228D01*
Y193724D01*
D02*
G37*
G36*
X534526Y191000D02*
X531228D01*
Y189276D01*
X532402D01*
X533253Y189445D01*
X533974Y189927D01*
X534456Y190649D01*
X534526Y191000D01*
D02*
G37*
G36*
X530228D02*
X526931D01*
X527001Y190649D01*
X527483Y189927D01*
X528204Y189445D01*
X529055Y189276D01*
X530228D01*
Y191000D01*
D02*
G37*
G36*
X597317Y201600D02*
X585400D01*
Y188895D01*
X597317D01*
Y201600D01*
D02*
G37*
G36*
X584400D02*
X572483D01*
Y188895D01*
X584400D01*
Y201600D01*
D02*
G37*
G36*
X632120Y191500D02*
X628500D01*
Y187880D01*
X629083Y187957D01*
X630093Y188375D01*
X630960Y189041D01*
X631625Y189907D01*
X632043Y190917D01*
X632120Y191500D01*
D02*
G37*
G36*
X627500D02*
X623880D01*
X623957Y190917D01*
X624375Y189907D01*
X625040Y189041D01*
X625907Y188375D01*
X626917Y187957D01*
X627500Y187880D01*
Y191500D01*
D02*
G37*
G36*
X321000Y214206D02*
X319816Y214050D01*
X318712Y213593D01*
X317764Y212866D01*
X317037Y211918D01*
X316580Y210814D01*
X316424Y209630D01*
X316580Y208446D01*
X317037Y207342D01*
X317764Y206394D01*
X318712Y205667D01*
X319816Y205210D01*
X321000Y205054D01*
X322184Y205210D01*
X323288Y205667D01*
X324236Y206394D01*
X324963Y207342D01*
X325420Y208446D01*
X325504Y209082D01*
X327620D01*
X331165Y205538D01*
Y153000D01*
X331235Y152649D01*
X331434Y152351D01*
X335181Y148603D01*
X335479Y148404D01*
X335830Y148334D01*
X365457D01*
X365493Y148060D01*
X365855Y147185D01*
X366432Y146432D01*
X367184Y145855D01*
X368060Y145493D01*
X369000Y145369D01*
X369940Y145493D01*
X370815Y145855D01*
X371568Y146432D01*
X372145Y147185D01*
X372507Y148060D01*
X372510Y148082D01*
X381260D01*
X386060Y142668D01*
X385745Y142270D01*
X385384Y142463D01*
X383970Y142892D01*
X383000Y142987D01*
Y136000D01*
X389987D01*
X389892Y136970D01*
X389605Y137916D01*
X390051Y138166D01*
X395310Y132233D01*
X395333Y132217D01*
X395348Y132193D01*
X395537Y132005D01*
X395834Y131806D01*
X396185Y131736D01*
X401530D01*
Y130183D01*
X406470D01*
Y131736D01*
X409530D01*
Y130183D01*
X414470D01*
Y131736D01*
X416653D01*
X417005Y131806D01*
X417302Y132005D01*
X421380Y136082D01*
X435000D01*
X435351Y136152D01*
X435649Y136351D01*
X439649Y140351D01*
X439848Y140649D01*
X439918Y141000D01*
Y175208D01*
X440442Y175558D01*
X440884Y176220D01*
X441039Y177000D01*
X440884Y177780D01*
X440442Y178442D01*
X439780Y178884D01*
X439000Y179039D01*
X438220Y178884D01*
X437558Y178442D01*
X437116Y177780D01*
X436961Y177000D01*
X437116Y176220D01*
X437558Y175558D01*
X438082Y175208D01*
Y141380D01*
X434620Y137918D01*
X421000D01*
X420649Y137848D01*
X420351Y137649D01*
X416273Y133571D01*
X414470D01*
Y135124D01*
X414284D01*
X414224Y135213D01*
Y136476D01*
X414870D01*
Y138847D01*
X412000D01*
Y139847D01*
X414870D01*
Y142082D01*
X419000D01*
X419351Y142152D01*
X419649Y142351D01*
X422649Y145351D01*
X422848Y145649D01*
X422918Y146000D01*
Y181620D01*
X424380Y183082D01*
X425070D01*
X425314Y182716D01*
X425904Y182322D01*
X426598Y182184D01*
X429945D01*
X430640Y182322D01*
X431229Y182716D01*
X431623Y183305D01*
X431761Y184000D01*
X431623Y184695D01*
X431229Y185284D01*
X430640Y185678D01*
X429945Y185816D01*
X426598D01*
X425904Y185678D01*
X425314Y185284D01*
X425070Y184918D01*
X424000D01*
X423649Y184848D01*
X423351Y184649D01*
X421351Y182649D01*
X421152Y182351D01*
X421082Y182000D01*
Y146380D01*
X418620Y143918D01*
X414870D01*
Y146153D01*
X412000D01*
X409130D01*
Y143918D01*
X408000D01*
X407649Y143848D01*
X407351Y143649D01*
X405519Y141816D01*
X404918D01*
Y144184D01*
X406470D01*
Y149124D01*
X406284D01*
X406224Y149213D01*
Y150787D01*
X406284Y150876D01*
X406470D01*
Y152429D01*
X409530D01*
Y150876D01*
X409716D01*
X409776Y150787D01*
Y149524D01*
X409130D01*
Y147153D01*
X412000D01*
X414870D01*
Y149524D01*
X414224D01*
Y150787D01*
X414284Y150876D01*
X414470D01*
Y153082D01*
X417000D01*
X417351Y153152D01*
X417649Y153351D01*
X419649Y155351D01*
X419848Y155649D01*
X419918Y156000D01*
Y185620D01*
X422380Y188082D01*
X425070D01*
X425314Y187716D01*
X425904Y187322D01*
X426598Y187184D01*
X429945D01*
X430640Y187322D01*
X431229Y187716D01*
X431623Y188305D01*
X431761Y189000D01*
X431623Y189695D01*
X431229Y190284D01*
X430640Y190678D01*
X429945Y190816D01*
X426598D01*
X425904Y190678D01*
X425314Y190284D01*
X425070Y189918D01*
X422000D01*
X421649Y189848D01*
X421351Y189649D01*
X418351Y186649D01*
X418152Y186351D01*
X418082Y186000D01*
Y156380D01*
X416620Y154918D01*
X414470D01*
Y155816D01*
X409530D01*
Y154264D01*
X406470D01*
Y155816D01*
X404918D01*
Y158184D01*
X406470D01*
Y163124D01*
X406284D01*
X406224Y163213D01*
Y164787D01*
X406284Y164876D01*
X406470D01*
Y166225D01*
X409530D01*
Y164876D01*
X409716D01*
X409776Y164787D01*
Y163524D01*
X409130D01*
Y161153D01*
X412000D01*
X414870D01*
Y163524D01*
X414224D01*
Y164787D01*
X414284Y164876D01*
X414470D01*
Y169817D01*
X409530D01*
Y168468D01*
X406470D01*
Y169817D01*
X404918D01*
Y172208D01*
X405442Y172558D01*
X405884Y173220D01*
X406039Y174000D01*
X405884Y174780D01*
X405442Y175442D01*
X404780Y175884D01*
X404000Y176039D01*
X403220Y175884D01*
X402558Y175442D01*
X402116Y174780D01*
X401961Y174000D01*
X402116Y173220D01*
X402558Y172558D01*
X403082Y172208D01*
Y169817D01*
X401530D01*
Y164876D01*
X401716D01*
X401776Y164787D01*
Y163213D01*
X401716Y163124D01*
X401530D01*
Y158184D01*
X403082D01*
Y155816D01*
X401530D01*
Y150876D01*
X401716D01*
X401776Y150787D01*
Y149213D01*
X401716Y149124D01*
X401530D01*
Y144184D01*
X403082D01*
Y141816D01*
X401530D01*
Y136876D01*
X401716D01*
X401776Y136787D01*
Y135213D01*
X401716Y135124D01*
X401530D01*
Y133571D01*
X396577D01*
X382360Y149609D01*
X382337Y149626D01*
X382322Y149649D01*
X382196Y149733D01*
X382074Y149825D01*
X382047Y149832D01*
X382024Y149848D01*
X381875Y149877D01*
X381728Y149916D01*
X381700Y149912D01*
X381673Y149918D01*
X372510D01*
X372507Y149940D01*
X372145Y150815D01*
X371568Y151568D01*
X370815Y152145D01*
X369940Y152507D01*
X369000Y152631D01*
X368060Y152507D01*
X367184Y152145D01*
X366432Y151568D01*
X365855Y150815D01*
X365588Y150170D01*
X336210D01*
X333000Y153380D01*
Y205918D01*
X332930Y206269D01*
X332731Y206567D01*
X328649Y210649D01*
X328351Y210848D01*
X328000Y210918D01*
X325377D01*
X324963Y211918D01*
X324236Y212866D01*
X323288Y213593D01*
X322184Y214050D01*
X321000Y214206D01*
D02*
G37*
G36*
X628000Y185782D02*
X627021Y185653D01*
X626109Y185275D01*
X625326Y184674D01*
X624725Y183891D01*
X624347Y182979D01*
X624218Y182000D01*
X624347Y181021D01*
X624725Y180109D01*
X625326Y179326D01*
X626109Y178725D01*
X627021Y178347D01*
X628000Y178218D01*
X628979Y178347D01*
X629891Y178725D01*
X630674Y179326D01*
X631275Y180109D01*
X631653Y181021D01*
X631782Y182000D01*
X631653Y182979D01*
X631275Y183891D01*
X630674Y184674D01*
X629891Y185275D01*
X628979Y185653D01*
X628000Y185782D01*
D02*
G37*
G36*
X606770Y179316D02*
X604400D01*
Y176946D01*
X606770D01*
Y179316D01*
D02*
G37*
G36*
X568770D02*
X566400D01*
Y176946D01*
X568770D01*
Y179316D01*
D02*
G37*
G36*
X603400D02*
X601030D01*
Y176946D01*
X603400D01*
Y179316D01*
D02*
G37*
G36*
X565400D02*
X563030D01*
Y176946D01*
X565400D01*
Y179316D01*
D02*
G37*
G36*
X674757Y176137D02*
Y172518D01*
X678377D01*
X678300Y173101D01*
X677882Y174110D01*
X677216Y174977D01*
X676350Y175642D01*
X675340Y176060D01*
X674757Y176137D01*
D02*
G37*
G36*
X673757D02*
X673174Y176060D01*
X672164Y175642D01*
X671297Y174977D01*
X670632Y174110D01*
X670214Y173101D01*
X670137Y172518D01*
X673757D01*
Y176137D01*
D02*
G37*
G36*
X674257Y185800D02*
X673278Y185671D01*
X672366Y185293D01*
X671583Y184692D01*
X670982Y183909D01*
X670604Y182996D01*
X670482Y182068D01*
X659289Y170875D01*
X606370D01*
Y172224D01*
X606184D01*
X606124Y172313D01*
Y173576D01*
X606770D01*
Y175946D01*
X603900D01*
X601030D01*
Y173576D01*
X601676D01*
Y172313D01*
X601616Y172224D01*
X601430D01*
Y170875D01*
X598459D01*
X597665Y171669D01*
Y180338D01*
X590166D01*
Y167327D01*
X597665D01*
Y168362D01*
X597995Y168632D01*
X597995Y168632D01*
X601430D01*
Y167283D01*
X606370D01*
Y168632D01*
X659754D01*
X659754Y168632D01*
X660183Y168717D01*
X660547Y168960D01*
X671031Y179445D01*
X671530Y179412D01*
X671583Y179343D01*
X672366Y178742D01*
X673278Y178365D01*
X674257Y178236D01*
X675236Y178365D01*
X676148Y178742D01*
X676931Y179343D01*
X677532Y180127D01*
X677910Y181039D01*
X678039Y182018D01*
X677910Y182996D01*
X677532Y183909D01*
X676931Y184692D01*
X676148Y185293D01*
X675236Y185671D01*
X674257Y185800D01*
D02*
G37*
G36*
X579634Y180338D02*
X572135D01*
Y171669D01*
X571341Y170875D01*
X568370D01*
Y172224D01*
X568184D01*
X568124Y172313D01*
Y173576D01*
X568770D01*
Y175946D01*
X565900D01*
X563030D01*
Y173576D01*
X563676D01*
Y172313D01*
X563616Y172224D01*
X563430D01*
Y170671D01*
X556906D01*
X556884Y170780D01*
X556442Y171442D01*
X555780Y171884D01*
X555000Y172039D01*
X554220Y171884D01*
X553558Y171442D01*
X553116Y170780D01*
X552961Y170000D01*
X553116Y169220D01*
X553558Y168558D01*
X554220Y168116D01*
X555000Y167961D01*
X555780Y168116D01*
X556442Y168558D01*
X556628Y168836D01*
X563430D01*
Y167283D01*
X568370D01*
Y168632D01*
X571805D01*
X571805Y168632D01*
X572135Y168362D01*
Y167327D01*
X579634D01*
Y180338D01*
D02*
G37*
G36*
X321500Y175174D02*
Y170760D01*
X325914D01*
X325810Y171549D01*
X325312Y172750D01*
X324521Y173781D01*
X323490Y174572D01*
X322289Y175070D01*
X321500Y175174D01*
D02*
G37*
G36*
X320500D02*
X319711Y175070D01*
X318510Y174572D01*
X317479Y173781D01*
X316687Y172750D01*
X316190Y171549D01*
X316086Y170760D01*
X320500D01*
Y175174D01*
D02*
G37*
G36*
X678377Y171518D02*
X674757D01*
Y167898D01*
X675340Y167975D01*
X676350Y168393D01*
X677216Y169058D01*
X677882Y169925D01*
X678300Y170934D01*
X678377Y171518D01*
D02*
G37*
G36*
X673757D02*
X670137D01*
X670214Y170934D01*
X670632Y169925D01*
X671297Y169058D01*
X672164Y168393D01*
X673174Y167975D01*
X673757Y167898D01*
Y171518D01*
D02*
G37*
G36*
X325914Y169760D02*
X321500D01*
Y165346D01*
X322289Y165450D01*
X323490Y165947D01*
X324521Y166739D01*
X325312Y167770D01*
X325810Y168971D01*
X325914Y169760D01*
D02*
G37*
G36*
X320500D02*
X316086D01*
X316190Y168971D01*
X316687Y167770D01*
X317479Y166739D01*
X318510Y165947D01*
X319711Y165450D01*
X320500Y165346D01*
Y169760D01*
D02*
G37*
G36*
X523000Y169987D02*
Y163000D01*
X529987D01*
X529891Y163970D01*
X529463Y165384D01*
X528766Y166687D01*
X527829Y167829D01*
X526687Y168766D01*
X525384Y169463D01*
X523970Y169892D01*
X523000Y169987D01*
D02*
G37*
G36*
X496000D02*
Y163000D01*
X502987D01*
X502891Y163970D01*
X502463Y165384D01*
X501766Y166687D01*
X500829Y167829D01*
X499687Y168766D01*
X498384Y169463D01*
X496970Y169892D01*
X496000Y169987D01*
D02*
G37*
G36*
X383000D02*
Y163000D01*
X389987D01*
X389892Y163970D01*
X389463Y165384D01*
X388766Y166687D01*
X387829Y167829D01*
X386687Y168766D01*
X385384Y169463D01*
X383970Y169892D01*
X383000Y169987D01*
D02*
G37*
G36*
X382000D02*
X381030Y169892D01*
X379616Y169463D01*
X378313Y168766D01*
X377171Y167829D01*
X376234Y166687D01*
X375537Y165384D01*
X375109Y163970D01*
X375013Y163000D01*
X382000D01*
Y169987D01*
D02*
G37*
G36*
X356000D02*
Y163000D01*
X362987D01*
X362892Y163970D01*
X362463Y165384D01*
X361766Y166687D01*
X360829Y167829D01*
X359687Y168766D01*
X358384Y169463D01*
X356970Y169892D01*
X356000Y169987D01*
D02*
G37*
G36*
X355000D02*
X354030Y169892D01*
X352616Y169463D01*
X351313Y168766D01*
X350171Y167829D01*
X349234Y166687D01*
X348537Y165384D01*
X348109Y163970D01*
X348013Y163000D01*
X355000D01*
Y169987D01*
D02*
G37*
G36*
X522000D02*
X521030Y169892D01*
X519616Y169463D01*
X518313Y168766D01*
X517171Y167829D01*
X516234Y166687D01*
X515537Y165384D01*
X515108Y163970D01*
X515013Y163000D01*
X522000D01*
Y169987D01*
D02*
G37*
G36*
X495000D02*
X494030Y169892D01*
X492616Y169463D01*
X491313Y168766D01*
X490171Y167829D01*
X489234Y166687D01*
X488537Y165384D01*
X488108Y163970D01*
X488013Y163000D01*
X495000D01*
Y169987D01*
D02*
G37*
G36*
X674000Y165782D02*
X673021Y165653D01*
X672109Y165275D01*
X671326Y164674D01*
X670725Y163891D01*
X670347Y162979D01*
X670218Y162000D01*
X670347Y161021D01*
X670666Y160252D01*
X623789Y113375D01*
X606270D01*
Y114724D01*
X606084D01*
X606024Y114813D01*
Y116076D01*
X606670D01*
Y118447D01*
X603800D01*
Y118947D01*
D01*
Y118447D01*
X600930D01*
Y116076D01*
X601576D01*
Y114813D01*
X601516Y114724D01*
X601330D01*
Y113375D01*
X598359D01*
X597565Y114169D01*
Y122838D01*
X590066D01*
Y109827D01*
X597565D01*
Y110862D01*
X597894Y111132D01*
X597894Y111132D01*
X601330D01*
Y109783D01*
X606270D01*
Y111132D01*
X624254D01*
X624254Y111132D01*
X624683Y111217D01*
X625047Y111460D01*
X672252Y158666D01*
X673021Y158347D01*
X674000Y158218D01*
X674979Y158347D01*
X675891Y158725D01*
X676674Y159326D01*
X677275Y160109D01*
X677653Y161021D01*
X677782Y162000D01*
X677653Y162979D01*
X677275Y163891D01*
X676674Y164674D01*
X675891Y165275D01*
X674979Y165653D01*
X674000Y165782D01*
D02*
G37*
G36*
X468870Y160153D02*
X466500D01*
Y157783D01*
X468870D01*
Y160153D01*
D02*
G37*
G36*
X465500D02*
X463130D01*
Y157783D01*
X465500D01*
Y160153D01*
D02*
G37*
G36*
X414870D02*
X412500D01*
Y157783D01*
X414870D01*
Y160153D01*
D02*
G37*
G36*
X411500D02*
X409130D01*
Y157783D01*
X411500D01*
Y160153D01*
D02*
G37*
G36*
X529987Y162000D02*
X523000D01*
Y155013D01*
X523970Y155108D01*
X525384Y155537D01*
X526687Y156234D01*
X527829Y157171D01*
X528766Y158313D01*
X529463Y159616D01*
X529891Y161030D01*
X529987Y162000D01*
D02*
G37*
G36*
X502987D02*
X496000D01*
Y155013D01*
X496970Y155108D01*
X498384Y155537D01*
X499687Y156234D01*
X500829Y157171D01*
X501766Y158313D01*
X502463Y159616D01*
X502891Y161030D01*
X502987Y162000D01*
D02*
G37*
G36*
X389987D02*
X383000D01*
Y155013D01*
X383970Y155108D01*
X385384Y155537D01*
X386687Y156234D01*
X387829Y157171D01*
X388766Y158313D01*
X389463Y159616D01*
X389892Y161030D01*
X389987Y162000D01*
D02*
G37*
G36*
X382000D02*
X375013D01*
X375109Y161030D01*
X375537Y159616D01*
X376234Y158313D01*
X377171Y157171D01*
X378313Y156234D01*
X379616Y155537D01*
X381030Y155108D01*
X382000Y155013D01*
Y162000D01*
D02*
G37*
G36*
X362987D02*
X356000D01*
Y155013D01*
X356970Y155108D01*
X358384Y155537D01*
X359687Y156234D01*
X360829Y157171D01*
X361766Y158313D01*
X362463Y159616D01*
X362892Y161030D01*
X362987Y162000D01*
D02*
G37*
G36*
X355000D02*
X348013D01*
X348109Y161030D01*
X348537Y159616D01*
X349234Y158313D01*
X350171Y157171D01*
X351313Y156234D01*
X352616Y155537D01*
X354030Y155108D01*
X355000Y155013D01*
Y162000D01*
D02*
G37*
G36*
X522000D02*
X515013D01*
X515108Y161030D01*
X515537Y159616D01*
X516234Y158313D01*
X517171Y157171D01*
X518313Y156234D01*
X519616Y155537D01*
X521030Y155108D01*
X522000Y155013D01*
Y162000D01*
D02*
G37*
G36*
X495000D02*
X488013D01*
X488108Y161030D01*
X488537Y159616D01*
X489234Y158313D01*
X490171Y157171D01*
X491313Y156234D01*
X492616Y155537D01*
X494030Y155108D01*
X495000Y155013D01*
Y162000D01*
D02*
G37*
G36*
X321500Y155489D02*
Y151075D01*
X325914D01*
X325810Y151864D01*
X325312Y153065D01*
X324521Y154096D01*
X323490Y154887D01*
X322289Y155385D01*
X321500Y155489D01*
D02*
G37*
G36*
X320500D02*
X319711Y155385D01*
X318510Y154887D01*
X317479Y154096D01*
X316687Y153065D01*
X316190Y151864D01*
X316086Y151075D01*
X320500D01*
Y155489D01*
D02*
G37*
G36*
X325914Y150075D02*
X321500D01*
Y145661D01*
X322289Y145765D01*
X323490Y146262D01*
X324521Y147054D01*
X325312Y148085D01*
X325810Y149286D01*
X325914Y150075D01*
D02*
G37*
G36*
X320500D02*
X316086D01*
X316190Y149286D01*
X316687Y148085D01*
X317479Y147054D01*
X318510Y146262D01*
X319711Y145765D01*
X320500Y145661D01*
Y150075D01*
D02*
G37*
G36*
X597217Y157805D02*
X585300D01*
Y145100D01*
X597217D01*
Y157805D01*
D02*
G37*
G36*
X584300D02*
X572383D01*
Y145100D01*
X584300D01*
Y157805D01*
D02*
G37*
G36*
X523000Y142987D02*
Y136000D01*
X529987D01*
X529891Y136970D01*
X529463Y138384D01*
X528766Y139687D01*
X527829Y140829D01*
X526687Y141766D01*
X525384Y142463D01*
X523970Y142892D01*
X523000Y142987D01*
D02*
G37*
G36*
X496000D02*
Y136000D01*
X502987D01*
X502891Y136970D01*
X502463Y138384D01*
X501766Y139687D01*
X500829Y140829D01*
X499687Y141766D01*
X498384Y142463D01*
X496970Y142892D01*
X496000Y142987D01*
D02*
G37*
G36*
X382000D02*
X381030Y142892D01*
X379616Y142463D01*
X378313Y141766D01*
X377171Y140829D01*
X376234Y139687D01*
X375537Y138384D01*
X375109Y136970D01*
X375013Y136000D01*
X382000D01*
Y142987D01*
D02*
G37*
G36*
X356000D02*
Y136000D01*
X362987D01*
X362892Y136970D01*
X362463Y138384D01*
X361766Y139687D01*
X360829Y140829D01*
X359687Y141766D01*
X358384Y142463D01*
X356970Y142892D01*
X356000Y142987D01*
D02*
G37*
G36*
X355000D02*
X354030Y142892D01*
X352616Y142463D01*
X351313Y141766D01*
X350171Y140829D01*
X349234Y139687D01*
X348537Y138384D01*
X348109Y136970D01*
X348013Y136000D01*
X355000D01*
Y142987D01*
D02*
G37*
G36*
X522000D02*
X521030Y142892D01*
X519616Y142463D01*
X518313Y141766D01*
X517171Y140829D01*
X516234Y139687D01*
X515537Y138384D01*
X515108Y136970D01*
X515013Y136000D01*
X522000D01*
Y142987D01*
D02*
G37*
G36*
X597217Y144100D02*
X585300D01*
Y131395D01*
X597217D01*
Y144100D01*
D02*
G37*
G36*
X584300D02*
X572383D01*
Y131395D01*
X584300D01*
Y144100D01*
D02*
G37*
G36*
X529987Y135000D02*
X523000D01*
Y128013D01*
X523970Y128109D01*
X525384Y128537D01*
X526687Y129234D01*
X527829Y130171D01*
X528766Y131313D01*
X529463Y132616D01*
X529891Y134030D01*
X529987Y135000D01*
D02*
G37*
G36*
X502987D02*
X496000D01*
Y128013D01*
X496970Y128109D01*
X498384Y128537D01*
X499687Y129234D01*
X500829Y130171D01*
X501766Y131313D01*
X502463Y132616D01*
X502891Y134030D01*
X502987Y135000D01*
D02*
G37*
G36*
X389987D02*
X383000D01*
Y128013D01*
X383970Y128109D01*
X385384Y128537D01*
X386687Y129234D01*
X387829Y130171D01*
X388766Y131313D01*
X389463Y132616D01*
X389892Y134030D01*
X389987Y135000D01*
D02*
G37*
G36*
X382000D02*
X375013D01*
X375109Y134030D01*
X375537Y132616D01*
X376234Y131313D01*
X377171Y130171D01*
X378313Y129234D01*
X379616Y128537D01*
X381030Y128109D01*
X382000Y128013D01*
Y135000D01*
D02*
G37*
G36*
X362987D02*
X356000D01*
Y128013D01*
X356970Y128109D01*
X358384Y128537D01*
X359687Y129234D01*
X360829Y130171D01*
X361766Y131313D01*
X362463Y132616D01*
X362892Y134030D01*
X362987Y135000D01*
D02*
G37*
G36*
X355000D02*
X348013D01*
X348109Y134030D01*
X348537Y132616D01*
X349234Y131313D01*
X350171Y130171D01*
X351313Y129234D01*
X352616Y128537D01*
X354030Y128109D01*
X355000Y128013D01*
Y135000D01*
D02*
G37*
G36*
X522000D02*
X515013D01*
X515108Y134030D01*
X515537Y132616D01*
X516234Y131313D01*
X517171Y130171D01*
X518313Y129234D01*
X519616Y128537D01*
X521030Y128109D01*
X522000Y128013D01*
Y135000D01*
D02*
G37*
G36*
X495000D02*
X488013D01*
X488108Y134030D01*
X488537Y132616D01*
X489234Y131313D01*
X490171Y130171D01*
X491313Y129234D01*
X492616Y128537D01*
X494030Y128109D01*
X495000Y128013D01*
Y135000D01*
D02*
G37*
G36*
X320500Y136010D02*
Y120500D01*
X336010D01*
X335852Y122511D01*
X335264Y124960D01*
X334300Y127286D01*
X332984Y129434D01*
X331349Y131349D01*
X329434Y132984D01*
X327286Y134300D01*
X324960Y135264D01*
X322511Y135852D01*
X320500Y136010D01*
D02*
G37*
G36*
X677500D02*
X675489Y135852D01*
X673040Y135264D01*
X670714Y134300D01*
X668566Y132984D01*
X666651Y131349D01*
X665016Y129434D01*
X663700Y127286D01*
X662736Y124960D01*
X662148Y122511D01*
X661990Y120500D01*
X677500D01*
Y136010D01*
D02*
G37*
G36*
X606670Y121817D02*
X604300D01*
Y119447D01*
X606670D01*
Y121817D01*
D02*
G37*
G36*
X568670D02*
X566300D01*
Y119447D01*
X568670D01*
Y121817D01*
D02*
G37*
G36*
X603300D02*
X600930D01*
Y119447D01*
X603300D01*
Y121817D01*
D02*
G37*
G36*
X565300D02*
X562930D01*
Y119447D01*
X565300D01*
Y121817D01*
D02*
G37*
G36*
X579534Y122838D02*
X572035D01*
Y114169D01*
X571241Y113375D01*
X568270D01*
Y114724D01*
X568084D01*
X568024Y114813D01*
Y116076D01*
X568670D01*
Y118447D01*
X565800D01*
Y118947D01*
D01*
Y118447D01*
X562930D01*
Y116076D01*
X563576D01*
Y114813D01*
X563516Y114724D01*
X563330D01*
Y112918D01*
X555792D01*
X555442Y113442D01*
X554780Y113884D01*
X554000Y114039D01*
X553220Y113884D01*
X552558Y113442D01*
X552116Y112780D01*
X551961Y112000D01*
X552116Y111220D01*
X552558Y110558D01*
X553220Y110116D01*
X554000Y109961D01*
X554780Y110116D01*
X555442Y110558D01*
X555792Y111082D01*
X563330D01*
Y109783D01*
X568270D01*
Y111132D01*
X571705D01*
X571705Y111132D01*
X572035Y110862D01*
Y109827D01*
X579534D01*
Y122838D01*
D02*
G37*
%LPD*%
D11*
X689000Y295000D02*
Y393000D01*
X679756Y393244D02*
X680000Y393000D01*
X649000Y393244D02*
X679756D01*
X449728Y199000D02*
X460653D01*
X404000Y167347D02*
X412000D01*
X417346Y399000D02*
X428272D01*
X449728D02*
X460653D01*
X417346Y199000D02*
X428272D01*
X466000Y167347D02*
X474000D01*
X404000Y230654D02*
X412000D01*
X466000D02*
X474000D01*
X404000Y367347D02*
X412000D01*
X466000D02*
X474000D01*
X404000Y430653D02*
X412000D01*
X466000D02*
X474000D01*
X558500Y226500D02*
X564847D01*
X565346Y226000D01*
X566000Y226654D01*
X688000Y411000D02*
X690000Y409000D01*
X688000Y411000D02*
Y414653D01*
X687653Y415000D02*
X688000Y414653D01*
X685000Y415000D02*
X687653D01*
X683500Y416500D02*
X685000Y415000D01*
X679701Y416500D02*
X683500D01*
X634500Y451500D02*
X642299D01*
X634000Y451000D02*
X634500Y451500D01*
X641799Y436000D02*
X642299Y436500D01*
X641799Y432000D02*
X642299Y431500D01*
X641799Y426000D02*
X642299Y426500D01*
X642799Y421000D02*
X650000D01*
X642299Y421500D02*
X642799Y421000D01*
X642299Y416500D02*
X652500D01*
X653000Y417000D01*
X683000Y272000D02*
Y408000D01*
X670000Y256000D02*
X673556D01*
X685500Y267944D01*
Y409035D01*
X683802Y410734D02*
X685500Y409035D01*
X676734Y410734D02*
X683802D01*
X604000Y217000D02*
Y226654D01*
X624254Y112253D02*
X674000Y162000D01*
X603800Y112253D02*
X624254D01*
X672018Y182018D02*
X674257D01*
X659754Y169754D02*
X672018Y182018D01*
X603900Y169754D02*
X659754D01*
X571906Y226654D02*
X575984Y230732D01*
X566000Y226654D02*
X571906D01*
X594016Y230732D02*
X598095Y226654D01*
X604000D01*
X593816Y116332D02*
X597894Y112253D01*
X603800D01*
X571705D02*
X575784Y116332D01*
X565800Y112253D02*
X571705D01*
X571805Y169754D02*
X575884Y173832D01*
X565900Y169754D02*
X571805D01*
X593916Y173832D02*
X597995Y169754D01*
X603900D01*
X669000Y269000D02*
X680000D01*
X683000Y272000D01*
X663000Y249000D02*
X670000Y256000D01*
X663000Y263000D02*
X669000Y269000D01*
X649000Y294858D02*
X649142Y295000D01*
X680500D01*
X649000Y294858D02*
X664165Y279693D01*
X663000Y263000D02*
Y267000D01*
X669000Y273000D01*
X664165Y279693D02*
X669000D01*
X663000Y223275D02*
X674257Y212018D01*
X663000Y223275D02*
Y249000D01*
X628000Y202000D02*
X642000D01*
X652018Y212018D01*
X674257D01*
D40*
X555000Y299000D02*
D03*
D44*
X412000Y153347D02*
D03*
Y146653D02*
D03*
X404000D02*
D03*
Y153347D02*
D03*
Y132653D02*
D03*
Y139347D02*
D03*
X412000Y132653D02*
D03*
Y139347D02*
D03*
X466000Y153347D02*
D03*
Y146653D02*
D03*
Y132653D02*
D03*
Y139347D02*
D03*
X474000Y146653D02*
D03*
Y153347D02*
D03*
Y132653D02*
D03*
Y139347D02*
D03*
X466000Y244654D02*
D03*
Y251346D02*
D03*
Y237347D02*
D03*
Y230654D02*
D03*
Y265347D02*
D03*
Y258653D02*
D03*
X669000Y273000D02*
D03*
Y279693D02*
D03*
X474000Y258653D02*
D03*
Y265347D02*
D03*
Y244654D02*
D03*
Y251346D02*
D03*
X412000D02*
D03*
Y244654D02*
D03*
Y258653D02*
D03*
Y265347D02*
D03*
Y230654D02*
D03*
Y237347D02*
D03*
X404000Y258653D02*
D03*
Y265347D02*
D03*
Y244654D02*
D03*
Y251346D02*
D03*
X412000Y167347D02*
D03*
Y160653D02*
D03*
X404000Y167347D02*
D03*
Y160653D02*
D03*
X466000Y167347D02*
D03*
Y160653D02*
D03*
X404000Y230654D02*
D03*
Y237347D02*
D03*
X474000Y167347D02*
D03*
Y160653D02*
D03*
Y230654D02*
D03*
Y237347D02*
D03*
X412000Y346654D02*
D03*
Y353346D02*
D03*
Y339347D02*
D03*
Y332653D02*
D03*
X404000Y339347D02*
D03*
Y332653D02*
D03*
Y353346D02*
D03*
Y346654D02*
D03*
X412000Y367347D02*
D03*
Y360653D02*
D03*
X404000Y367347D02*
D03*
Y360653D02*
D03*
X466000Y346654D02*
D03*
Y353346D02*
D03*
Y367347D02*
D03*
Y360653D02*
D03*
X474000Y367347D02*
D03*
Y360653D02*
D03*
Y353346D02*
D03*
Y346654D02*
D03*
X466000Y339347D02*
D03*
Y332653D02*
D03*
X474000Y339347D02*
D03*
Y332653D02*
D03*
X466000Y451346D02*
D03*
Y444654D02*
D03*
Y430653D02*
D03*
Y437347D02*
D03*
X474000Y430653D02*
D03*
Y437347D02*
D03*
Y444654D02*
D03*
Y451346D02*
D03*
Y458653D02*
D03*
Y465346D02*
D03*
X466000Y458653D02*
D03*
Y465346D02*
D03*
X412000Y451346D02*
D03*
Y444654D02*
D03*
Y430653D02*
D03*
Y437347D02*
D03*
X404000Y444654D02*
D03*
Y451346D02*
D03*
Y430653D02*
D03*
Y437347D02*
D03*
Y458653D02*
D03*
Y465346D02*
D03*
X412000Y458653D02*
D03*
Y465346D02*
D03*
X563000Y363000D02*
D03*
Y356307D02*
D03*
X688000Y421347D02*
D03*
Y414653D02*
D03*
X633000Y420346D02*
D03*
Y413654D02*
D03*
X566000Y233347D02*
D03*
Y226654D02*
D03*
X565800Y118947D02*
D03*
Y112253D02*
D03*
X565900Y169754D02*
D03*
Y176446D02*
D03*
X604000Y233347D02*
D03*
Y226654D02*
D03*
X603800Y118947D02*
D03*
Y112253D02*
D03*
X603900Y169754D02*
D03*
Y176446D02*
D03*
D46*
X410653Y199000D02*
D03*
X417346D02*
D03*
X467346D02*
D03*
X460653D02*
D03*
X467346Y399000D02*
D03*
X460653D02*
D03*
X410653D02*
D03*
X417346D02*
D03*
D47*
X451402Y206919D02*
G03*
X451411Y206919I0J2081D01*
G01*
X448027Y206919D02*
G03*
X448055Y206919I28J2081D01*
G01*
X468751Y207000D02*
G03*
X468747Y207000I0J-600D01*
G01*
X462595Y401230D02*
G03*
X462533Y401165I618J-655D01*
G01*
X415405Y196770D02*
G03*
X415467Y196835I-618J655D01*
G01*
X415405Y396770D02*
G03*
X415467Y396835I-618J655D01*
G01*
X404000Y139347D02*
X404347D01*
X412000Y153347D02*
X412653Y154000D01*
X435000Y137000D02*
X439000Y141000D01*
X459000Y155000D02*
X461000Y153000D01*
X465654D02*
X466000Y153347D01*
X473654Y139347D02*
X474000D01*
X404000D02*
Y146653D01*
X416653Y132653D02*
X421000Y137000D01*
X419000Y143000D02*
X422000Y146000D01*
X474000Y139347D02*
Y146653D01*
X412000Y132653D02*
X416653D01*
X404000D02*
X412000D01*
X408000Y143000D02*
X419000D01*
X404347Y139347D02*
X408000Y143000D01*
X404000Y153347D02*
X412000D01*
X412653Y154000D02*
X417000D01*
X421000Y137000D02*
X435000D01*
X466000Y132653D02*
X474000D01*
X470000Y143000D02*
X473654Y139347D01*
X459000Y143000D02*
X470000D01*
X466000Y153347D02*
X474000D01*
X461000Y153000D02*
X465654D01*
X456000Y146000D02*
X459000Y143000D01*
X422653Y132653D02*
X466000D01*
X415000Y125000D02*
X422653Y132653D01*
X627339Y433661D02*
X670339D01*
X600000Y461000D02*
Y465000D01*
Y461000D02*
X627339Y433661D01*
X636000Y439000D02*
X670000D01*
X600000Y475000D02*
Y479000D01*
Y475000D02*
X636000Y439000D01*
X640799Y431000D02*
X641799Y432000D01*
X310000Y185000D02*
X314945Y189945D01*
X321000D01*
X332082Y153000D02*
Y205918D01*
X321370Y210000D02*
X328000D01*
X332082Y205918D01*
X321000Y209630D02*
X321370Y210000D01*
X459000Y313000D02*
Y325000D01*
X556000Y356000D02*
X556307Y356307D01*
X556000Y363000D02*
X563000D01*
X556307Y356307D02*
X563000D01*
X419000Y212000D02*
X422000Y209000D01*
X417346Y244654D02*
X419000Y243000D01*
Y255000D02*
X422000Y252000D01*
X417000Y270000D02*
X421654Y265347D01*
X449728Y209000D02*
X455000D01*
X449728Y214000D02*
X449801Y214072D01*
X453072D01*
X458000Y243000D02*
X460000Y245000D01*
X465654D02*
X466000Y244654D01*
X419000Y276000D02*
Y282000D01*
X453072Y214072D02*
X455000Y216000D01*
X459000Y276000D02*
Y282000D01*
X417000Y265000D02*
X422000Y260000D01*
Y216000D02*
Y252000D01*
X419000Y212000D02*
Y243000D01*
X437000Y212000D02*
Y255000D01*
X455000Y216000D02*
Y252000D01*
X458000Y212000D02*
Y243000D01*
X448055Y206919D02*
X451402D01*
X442000Y207000D02*
X448027Y206919D01*
X424000Y214000D02*
X428272D01*
X422000Y209000D02*
X428272D01*
X422000Y260000D02*
X432000D01*
X455000Y209000D02*
X458000Y212000D01*
X460000Y245000D02*
X465654D01*
X455000Y252000D02*
X458000Y255000D01*
X437000Y212000D02*
X442000Y207000D01*
X422000Y216000D02*
X424000Y214000D01*
X432000Y260000D02*
X437000Y255000D01*
X449728Y204000D02*
X459000D01*
X419000D02*
X428272D01*
X421654Y265347D02*
X466000D01*
X495000Y180000D02*
Y193000D01*
X498000Y196000D01*
X508934Y196163D02*
X509272Y196500D01*
X506529Y196163D02*
X508934D01*
X498000Y196000D02*
X506366D01*
X506529Y196163D01*
X491000Y176000D02*
X495000Y180000D01*
X476000Y176000D02*
X491000D01*
X478000Y179000D02*
X481000D01*
X471000Y181000D02*
X476000Y176000D01*
X439000Y141000D02*
Y177000D01*
X460653Y196346D02*
X478000Y179000D01*
X460653Y196346D02*
Y199000D01*
X451411Y206919D02*
X468747Y207000D01*
X468751Y207000D02*
X469000D01*
X412000Y265347D02*
X412347Y265000D01*
X417000D01*
X469000Y207000D02*
X474500Y201500D01*
X509272D01*
X442103Y391103D02*
X486103D01*
X438000Y387000D02*
X442103Y391103D01*
X438000Y355000D02*
Y387000D01*
X415654Y332653D02*
X438000Y355000D01*
X486103Y391103D02*
X491500Y396500D01*
X420653Y332653D02*
X466000D01*
X415000Y327000D02*
X420653Y332653D01*
X470000Y343000D02*
X473654Y339347D01*
X456000Y346000D02*
X459000Y343000D01*
X456000Y346000D02*
Y382000D01*
X459000Y343000D02*
X470000D01*
X459000Y355000D02*
X461000Y353000D01*
X459000Y355000D02*
Y386000D01*
X456000Y389000D02*
X459000Y386000D01*
X412000Y332653D02*
X415654D01*
X454000Y384000D02*
X456000Y382000D01*
X491500Y396500D02*
X509272D01*
X434000Y461000D02*
X439000Y456000D01*
X412919Y465411D02*
X418000Y461000D01*
X412000Y465346D02*
X412671Y465394D01*
X418000Y461000D02*
X434000D01*
X412671Y465394D02*
X412919Y465411D01*
X345000Y470000D02*
X418000Y470000D01*
X422653Y465346D02*
X466000D01*
X418000Y470000D02*
X422653Y465346D01*
X404000Y465346D02*
X412000D01*
X439000Y421000D02*
Y456000D01*
X471000Y421000D02*
X490500Y401500D01*
X509272D01*
X468000Y406000D02*
Y418000D01*
X467654Y406000D02*
X468000D01*
X404000Y437347D02*
Y444654D01*
X412000D01*
X462595Y401230D02*
X467654Y406000D01*
X460653Y399000D02*
X462533Y401165D01*
X404000Y237347D02*
Y244654D01*
X412000D01*
X474000Y167347D02*
Y174000D01*
X555000Y170000D02*
X555246Y169754D01*
X565900D01*
X565547Y112000D02*
X565800Y112253D01*
X554000Y112000D02*
X565547D01*
X397000Y417000D02*
X410000D01*
X415467Y196835D02*
X417346Y199000D01*
X410347Y192000D02*
X415405Y196770D01*
X398000Y192000D02*
X410347D01*
X415467Y396835D02*
X417346Y399000D01*
X410347Y392000D02*
X415405Y396770D01*
X398000Y392000D02*
X410347D01*
X404000Y167347D02*
Y174000D01*
Y224000D02*
Y230654D01*
X474000Y224000D02*
Y230654D01*
X404000Y367347D02*
Y374000D01*
Y424000D02*
Y430653D01*
X474000Y424000D02*
Y430653D01*
Y367347D02*
Y374000D01*
X328370Y409630D02*
X333000Y405000D01*
Y353082D02*
X337082Y349000D01*
X333000Y353082D02*
Y405000D01*
X321000Y409630D02*
X328370D01*
X369000Y349000D02*
X381673D01*
X337082D02*
X369000D01*
X396185Y332653D02*
X404000D01*
X412000D01*
X335830Y149252D02*
X368748D01*
X332082Y153000D02*
X335830Y149252D01*
X368748D02*
X369000Y149000D01*
X381673D01*
X310000Y145000D02*
Y185000D01*
Y145000D02*
X315000Y140000D01*
X335000D01*
X350000Y125000D01*
X415000D01*
X312000Y331000D02*
Y384000D01*
X319707Y388652D02*
X321000Y389945D01*
X316652Y388652D02*
X319707D01*
X312000Y384000D02*
X316652Y388652D01*
X312000Y331000D02*
X316000Y327000D01*
X415000D01*
X315000Y259000D02*
X326000Y270000D01*
X315000Y235315D02*
Y259000D01*
X326000Y270000D02*
X417000D01*
X315000Y235315D02*
X321000Y229315D01*
Y249000D02*
X369000D01*
X380000D01*
X315000Y435315D02*
X321000Y429315D01*
X315000Y435315D02*
Y455000D01*
X320000Y460000D01*
X335000D01*
X345000Y470000D01*
X321000Y449000D02*
X369000D01*
X449728Y194000D02*
X459000D01*
X466000Y319000D02*
Y325000D01*
X449728Y394000D02*
X459000D01*
X449728Y404000D02*
X459000D01*
X419000Y316000D02*
Y325000D01*
X404347Y339347D02*
X408000Y343000D01*
X422000Y382000D02*
X424000Y384000D01*
X408000Y343000D02*
X419000D01*
X422000Y346000D01*
Y382000D01*
X419000Y194000D02*
X428272D01*
X419000Y394000D02*
X428272D01*
X419000Y404000D02*
X428272D01*
X509000Y149000D02*
X509272Y149272D01*
Y191500D01*
X456000Y189000D02*
X459000Y186000D01*
X456000Y146000D02*
Y182000D01*
X459000Y155000D02*
Y186000D01*
X454000Y184000D02*
X456000Y182000D01*
X396185Y132653D02*
X404000D01*
X509000Y206772D02*
X509272Y206500D01*
X509000Y206772D02*
Y249000D01*
Y349000D02*
X509272Y349272D01*
Y391500D01*
X509000Y449000D02*
X509272Y448728D01*
Y406500D02*
Y448728D01*
X497000Y249000D02*
X509000D01*
X481000Y265000D02*
X497000Y249000D01*
X474346Y265000D02*
X481000D01*
X474000Y265347D02*
X474346Y265000D01*
X466000Y265347D02*
X474000D01*
Y251346D02*
Y258653D01*
Y237347D02*
Y244654D01*
X466000D02*
X474000D01*
X473654Y258653D02*
X474000D01*
X470000Y255000D02*
X473654Y258653D01*
X458000Y255000D02*
X470000D01*
X404000Y265347D02*
X412000D01*
X404000Y251346D02*
Y258653D01*
X404347D01*
X408000Y255000D01*
X419000D01*
X412000Y244654D02*
X417346D01*
X380000Y249000D02*
X396346Y265347D01*
X404000D01*
X474000Y153347D02*
Y160653D01*
X449728Y189000D02*
X456000D01*
X449728Y184000D02*
X454000D01*
X404000Y153347D02*
Y160653D01*
X480653Y132653D02*
X497000Y149000D01*
X474000Y132653D02*
X480653D01*
X497000Y149000D02*
X509000D01*
X395997Y132842D02*
X396185Y132653D01*
X381673Y149000D02*
X395997Y132842D01*
X422000Y189000D02*
X428272D01*
X424000Y184000D02*
X428272D01*
X422000Y182000D02*
X424000Y184000D01*
X419000Y186000D02*
X422000Y189000D01*
Y146000D02*
Y182000D01*
X419000Y156000D02*
Y186000D01*
X417000Y154000D02*
X419000Y156000D01*
X412000Y353346D02*
X412653Y354000D01*
X417000D02*
X419000Y356000D01*
Y386000D01*
X412653Y354000D02*
X417000D01*
X404000Y339347D02*
X404347D01*
X419000Y386000D02*
X422000Y389000D01*
X424000Y384000D02*
X428272D01*
X422000Y389000D02*
X428272D01*
X381673Y349000D02*
X395997Y332842D01*
X396185Y332653D01*
X497000Y349000D02*
X509000D01*
X474000Y332653D02*
X480653D01*
X497000Y349000D01*
X404000Y353346D02*
Y360653D01*
Y353346D02*
X412000D01*
X404000Y339347D02*
Y346654D01*
X466000Y332653D02*
X474000D01*
X465654Y353000D02*
X466000Y353346D01*
X461000Y353000D02*
X465654D01*
X449728Y384000D02*
X454000D01*
X449728Y389000D02*
X456000D01*
X466000Y353346D02*
X474000D01*
X473654Y339347D02*
X474000D01*
Y346654D01*
Y353346D02*
Y360653D01*
X369000Y449000D02*
X380000D01*
X396346Y465346D02*
X404000D01*
X380000Y449000D02*
X396346Y465346D01*
X419000Y412000D02*
Y443000D01*
X412000Y444654D02*
X417346D01*
X419000Y443000D01*
Y412000D02*
X422000Y409000D01*
X428272D01*
X424000Y414000D02*
X428272D01*
X422000Y416000D02*
Y452000D01*
Y416000D02*
X424000Y414000D01*
X419000Y455000D02*
X422000Y452000D01*
X408000Y455000D02*
X419000D01*
X404347Y458653D02*
X408000Y455000D01*
X404000Y458653D02*
X404347D01*
X404000Y451346D02*
Y458653D01*
X455000Y416000D02*
Y452000D01*
X449728Y414000D02*
X449801Y414072D01*
X453072D01*
X455000Y416000D01*
Y452000D02*
X458000Y455000D01*
X465654Y445000D02*
X466000Y444654D01*
X458000Y443000D02*
X460000Y445000D01*
X465654D01*
X458000Y412000D02*
Y443000D01*
X455000Y409000D02*
X458000Y412000D01*
X449728Y409000D02*
X455000D01*
X458000Y455000D02*
X470000D01*
X473654Y458653D01*
X474000D01*
X466000Y444654D02*
X474000D01*
Y437347D02*
Y444654D01*
Y451346D02*
Y458653D01*
X466000Y465346D02*
X474000D01*
X474346Y465000D01*
X481000D01*
X497000Y449000D01*
X509000D01*
X613500Y364500D02*
X618000Y360000D01*
Y347000D02*
Y360000D01*
X571000Y301000D02*
X586000D01*
X562000Y461000D02*
X580000Y479000D01*
X562000Y407000D02*
X569000Y400000D01*
X562000Y407000D02*
Y461000D01*
X566000Y451000D02*
X580000Y465000D01*
X566000Y407000D02*
X570000Y403000D01*
X566000Y407000D02*
Y451000D01*
X600000Y409000D02*
X605000D01*
X644000Y370000D01*
Y352535D02*
Y370000D01*
Y352535D02*
X649000Y347535D01*
X629000Y333000D02*
Y372000D01*
Y333000D02*
X632417Y329583D01*
X600000Y431000D02*
X629000Y402000D01*
X600000Y431000D02*
Y437000D01*
X632417Y329583D02*
X649000D01*
X600000Y423000D02*
X654000Y369000D01*
Y342000D02*
Y369000D01*
X649000Y338559D02*
X650559D01*
X654000Y342000D01*
X600000Y409000D02*
X601000Y408000D01*
X607351Y364649D02*
X607500Y364500D01*
X595000Y403039D02*
X597700Y400339D01*
Y400000D02*
Y400339D01*
X607500Y364500D02*
X613500D01*
X607500Y352500D02*
X612000Y348000D01*
X607500Y352500D02*
Y354500D01*
Y379500D02*
X613500D01*
X615000Y381000D01*
Y388000D01*
X613500Y389500D02*
X615000Y388000D01*
X607500Y389500D02*
X613500D01*
X570000Y441000D02*
X580000Y451000D01*
X570000Y418000D02*
Y441000D01*
Y418000D02*
X573000Y415000D01*
X592000D01*
X595000Y412000D01*
Y403039D02*
Y412000D01*
X589000Y403000D02*
X592000Y400000D01*
X570000Y403000D02*
X589000D01*
X569000Y400000D02*
X585961D01*
X563000Y356307D02*
X564307Y355000D01*
X572000D02*
X572500Y354500D01*
X564307Y355000D02*
X572000D01*
X564500Y364500D02*
X572500D01*
X563000Y363000D02*
X564500Y364500D01*
X632000Y421500D02*
X642299D01*
X638500Y416500D02*
X642299D01*
X636654Y414653D02*
X638500Y416500D01*
X633000Y414653D02*
X636654D01*
X673000Y436000D02*
X679000D01*
X670000Y439000D02*
X673000Y436000D01*
X634000Y435961D02*
X641760D01*
X641799Y436000D01*
X670339Y433661D02*
X673000Y431000D01*
X679201D02*
X679701Y431500D01*
X673000Y431000D02*
X679201D01*
X622300Y428700D02*
X670300D01*
X600000Y451000D02*
X622300Y428700D01*
X670300D02*
X673000Y426000D01*
X634000Y431000D02*
X640799D01*
X679201Y426000D02*
X679701Y426500D01*
X673000Y426000D02*
X679201D01*
X634000D02*
X641799D01*
D48*
X321000Y150575D02*
D03*
Y170260D02*
D03*
Y189945D02*
D03*
Y209630D02*
D03*
Y229315D02*
D03*
Y350575D02*
D03*
Y370260D02*
D03*
Y389945D02*
D03*
Y409630D02*
D03*
Y429315D02*
D03*
D49*
Y249000D02*
D03*
Y449000D02*
D03*
D51*
X495500Y162500D02*
D03*
Y135500D02*
D03*
X522500D02*
D03*
Y162500D02*
D03*
X355500Y135500D02*
D03*
Y162500D02*
D03*
X382500D02*
D03*
Y135500D02*
D03*
X495500Y262500D02*
D03*
Y235500D02*
D03*
X522500D02*
D03*
Y262500D02*
D03*
X355500Y235500D02*
D03*
Y262500D02*
D03*
X382500D02*
D03*
Y235500D02*
D03*
X495500Y362500D02*
D03*
Y335500D02*
D03*
X522500D02*
D03*
Y362500D02*
D03*
X355500Y335500D02*
D03*
Y362500D02*
D03*
X382500D02*
D03*
Y335500D02*
D03*
X495500Y462500D02*
D03*
Y435500D02*
D03*
X522500D02*
D03*
Y462500D02*
D03*
X355500Y435500D02*
D03*
Y462500D02*
D03*
X382500D02*
D03*
Y435500D02*
D03*
D52*
X628000Y212000D02*
D03*
X674257Y212018D02*
D03*
D53*
X628000Y182000D02*
D03*
Y192000D02*
D03*
Y202000D02*
D03*
X674000Y162000D02*
D03*
X674257Y202018D02*
D03*
Y172018D02*
D03*
Y182018D02*
D03*
D54*
X331250Y478000D02*
D03*
X325905Y487843D02*
D03*
Y468157D02*
D03*
X314094Y487843D02*
D03*
Y468157D02*
D03*
X308750Y478000D02*
D03*
X329842Y483906D02*
D03*
Y472094D02*
D03*
X320000Y489250D02*
D03*
X310157Y483906D02*
D03*
Y472094D02*
D03*
X320000Y466750D02*
D03*
X689250Y478000D02*
D03*
X683906Y487843D02*
D03*
Y468157D02*
D03*
X672094Y487843D02*
D03*
Y468157D02*
D03*
X666750Y478000D02*
D03*
X687843Y483906D02*
D03*
Y472094D02*
D03*
X678000Y489250D02*
D03*
X668157Y483906D02*
D03*
Y472094D02*
D03*
X678000Y466750D02*
D03*
X331250Y120000D02*
D03*
X325905Y129842D02*
D03*
Y110158D02*
D03*
X314094Y129842D02*
D03*
Y110158D02*
D03*
X308750Y120000D02*
D03*
X329842Y125906D02*
D03*
Y114094D02*
D03*
X320000Y131250D02*
D03*
X310157Y125906D02*
D03*
Y114094D02*
D03*
X320000Y108750D02*
D03*
X689250Y120000D02*
D03*
X683906Y129842D02*
D03*
Y110158D02*
D03*
X672094Y129842D02*
D03*
Y110158D02*
D03*
X666750Y120000D02*
D03*
X687843Y125906D02*
D03*
Y114094D02*
D03*
X678000Y131250D02*
D03*
X668157Y125906D02*
D03*
Y114094D02*
D03*
X678000Y108750D02*
D03*
D55*
X320000Y478000D02*
D03*
X678000D02*
D03*
X320000Y120000D02*
D03*
X678000D02*
D03*
D56*
X509000Y149000D02*
D03*
X369000D02*
D03*
X509000Y249000D02*
D03*
X369000D02*
D03*
X509000Y349000D02*
D03*
X369000D02*
D03*
X509000Y449000D02*
D03*
X369000D02*
D03*
X600000Y437000D02*
D03*
X590000D02*
D03*
X600000Y423000D02*
D03*
X590000D02*
D03*
X600000Y409000D02*
D03*
X590000D02*
D03*
X653000Y263000D02*
D03*
X663000D02*
D03*
X653000Y249000D02*
D03*
X663000D02*
D03*
X600000Y479000D02*
D03*
X590000D02*
D03*
X600000Y465000D02*
D03*
X590000D02*
D03*
X600000Y451000D02*
D03*
X590000D02*
D03*
D57*
X580000Y437000D02*
D03*
Y423000D02*
D03*
Y409000D02*
D03*
X673000Y263000D02*
D03*
Y249000D02*
D03*
X580000Y479000D02*
D03*
Y465000D02*
D03*
Y451000D02*
D03*
D58*
X659000Y361000D02*
D03*
Y352024D02*
D03*
Y343047D02*
D03*
Y334071D02*
D03*
Y325095D02*
D03*
X639000D02*
D03*
X649000Y338559D02*
D03*
X639000Y334071D02*
D03*
X649000Y347535D02*
D03*
X639000Y343047D02*
D03*
X649000Y356512D02*
D03*
X639000Y352024D02*
D03*
X649000Y329583D02*
D03*
Y365488D02*
D03*
X639000Y361000D02*
D03*
D59*
X649000Y393244D02*
D03*
Y294858D02*
D03*
D60*
X680000Y393000D02*
D03*
X689000Y295000D02*
D03*
X459000Y313000D02*
D03*
X556000Y363000D02*
D03*
Y356000D02*
D03*
X419000Y204000D02*
D03*
Y276000D02*
D03*
Y282000D02*
D03*
X459000Y204000D02*
D03*
Y276000D02*
D03*
Y282000D02*
D03*
X599000Y320000D02*
D03*
X601000Y281000D02*
D03*
X481000Y179000D02*
D03*
X439000Y177000D02*
D03*
X471000Y181000D02*
D03*
X439000Y421000D02*
D03*
X471000D02*
D03*
X468000Y418000D02*
D03*
X474000Y174000D02*
D03*
X555000Y170000D02*
D03*
X554000Y112000D02*
D03*
X397000Y417000D02*
D03*
X410000D02*
D03*
X398000Y192000D02*
D03*
Y392000D02*
D03*
X404000Y174000D02*
D03*
Y224000D02*
D03*
X474000D02*
D03*
X404000Y374000D02*
D03*
Y424000D02*
D03*
X474000D02*
D03*
Y374000D02*
D03*
X459000Y194000D02*
D03*
Y325000D02*
D03*
X466000Y319000D02*
D03*
Y325000D02*
D03*
X459000Y394000D02*
D03*
Y404000D02*
D03*
X419000Y325000D02*
D03*
Y316000D02*
D03*
Y194000D02*
D03*
Y394000D02*
D03*
Y404000D02*
D03*
X556116Y322780D02*
D03*
X690000Y409000D02*
D03*
X618000Y347000D02*
D03*
X586000Y301000D02*
D03*
X571000D02*
D03*
X569000Y320000D02*
D03*
X524000Y298000D02*
D03*
X617000Y374000D02*
D03*
X562000Y382000D02*
D03*
X629000Y372000D02*
D03*
Y402000D02*
D03*
X597700Y400000D02*
D03*
X612000Y348000D02*
D03*
X592000Y400000D02*
D03*
X585961D02*
D03*
X634000Y435961D02*
D03*
Y431000D02*
D03*
Y426000D02*
D03*
Y451000D02*
D03*
X650000Y421000D02*
D03*
X653000Y417000D02*
D03*
X683000Y408000D02*
D03*
X676734Y410734D02*
D03*
X604000Y217000D02*
D03*
X689000Y393000D02*
D03*
X680500Y295000D02*
D03*
D61*
X558500Y226500D02*
D03*
D62*
X530728Y406500D02*
D03*
Y401500D02*
D03*
Y396500D02*
D03*
Y391500D02*
D03*
X509272Y406500D02*
D03*
Y401500D02*
D03*
Y396500D02*
D03*
Y391500D02*
D03*
X530728Y206500D02*
D03*
Y201500D02*
D03*
Y196500D02*
D03*
Y191500D02*
D03*
X509272Y206500D02*
D03*
Y201500D02*
D03*
Y196500D02*
D03*
Y191500D02*
D03*
X428272Y184000D02*
D03*
Y189000D02*
D03*
Y194000D02*
D03*
Y199000D02*
D03*
Y204000D02*
D03*
Y209000D02*
D03*
Y214000D02*
D03*
X449728Y184000D02*
D03*
Y189000D02*
D03*
Y194000D02*
D03*
Y199000D02*
D03*
Y204000D02*
D03*
Y209000D02*
D03*
Y214000D02*
D03*
Y414000D02*
D03*
Y409000D02*
D03*
Y404000D02*
D03*
Y399000D02*
D03*
Y394000D02*
D03*
Y389000D02*
D03*
Y384000D02*
D03*
X428272Y414000D02*
D03*
Y409000D02*
D03*
Y404000D02*
D03*
Y399000D02*
D03*
Y394000D02*
D03*
Y389000D02*
D03*
Y384000D02*
D03*
D63*
X642299Y416500D02*
D03*
Y421500D02*
D03*
Y426500D02*
D03*
Y431500D02*
D03*
Y436500D02*
D03*
Y441500D02*
D03*
Y446500D02*
D03*
Y451500D02*
D03*
X679701Y416500D02*
D03*
Y421500D02*
D03*
Y426500D02*
D03*
Y431500D02*
D03*
Y436500D02*
D03*
Y441500D02*
D03*
Y446500D02*
D03*
Y451500D02*
D03*
D64*
X607500Y369500D02*
D03*
Y374500D02*
D03*
Y379500D02*
D03*
Y364500D02*
D03*
Y359500D02*
D03*
Y354500D02*
D03*
Y389500D02*
D03*
Y384500D02*
D03*
X572500Y354500D02*
D03*
Y389500D02*
D03*
Y384500D02*
D03*
Y379500D02*
D03*
Y374500D02*
D03*
Y359500D02*
D03*
Y364500D02*
D03*
Y369500D02*
D03*
D65*
X594016Y230732D02*
D03*
X575984D02*
D03*
X593816Y116332D02*
D03*
X575784D02*
D03*
X593916Y173832D02*
D03*
X575884D02*
D03*
D66*
X585000Y259000D02*
D03*
X584800Y144600D02*
D03*
X584900Y202100D02*
D03*
M02*
