G04*
G04 #@! TF.GenerationSoftware,Altium Limited,Altium Designer,20.1.14 (287)*
G04*
G04 Layer_Color=65535*
%FSLAX25Y25*%
%MOIN*%
G70*
G04*
G04 #@! TF.SameCoordinates,32B9688E-387C-4D8B-897C-9CD0CBC3BE43*
G04*
G04*
G04 #@! TF.FilePolarity,Positive*
G04*
G01*
G75*
%ADD10C,0.00984*%
%ADD11C,0.01000*%
%ADD12C,0.01800*%
%ADD13C,0.02000*%
%ADD14C,0.00787*%
%ADD15C,0.01200*%
G36*
X478410Y221690D02*
X478588D01*
Y221513D01*
X478765D01*
Y221690D01*
X478942D01*
Y221513D01*
X479474D01*
Y221335D01*
X479651D01*
Y221158D01*
X479829D01*
Y220981D01*
X480006D01*
Y220803D01*
X480183D01*
Y220626D01*
X480360D01*
Y220449D01*
X480538D01*
Y220272D01*
X480715D01*
Y220094D01*
X480892D01*
Y219917D01*
X481070D01*
Y219740D01*
Y219563D01*
Y219385D01*
X481247D01*
Y219208D01*
X481070D01*
Y219031D01*
X481247D01*
Y218854D01*
X481424D01*
Y218676D01*
Y218499D01*
Y218322D01*
Y218144D01*
Y217967D01*
X481601D01*
Y217790D01*
X481424D01*
Y217613D01*
Y217436D01*
Y217258D01*
X481601D01*
Y217081D01*
X481424D01*
Y216904D01*
Y216726D01*
Y216549D01*
X481601D01*
Y216372D01*
X481424D01*
Y216195D01*
Y216017D01*
Y215840D01*
X481601D01*
Y215663D01*
X481424D01*
Y215486D01*
Y215308D01*
Y215131D01*
X481601D01*
Y214954D01*
X481424D01*
Y214776D01*
Y214599D01*
Y214422D01*
X481601D01*
Y214245D01*
X481424D01*
Y214068D01*
Y213890D01*
Y213713D01*
X481601D01*
Y213536D01*
X481424D01*
Y213358D01*
Y213181D01*
Y213004D01*
X481601D01*
Y212827D01*
X481424D01*
Y212649D01*
Y212472D01*
Y212295D01*
X481601D01*
Y212118D01*
X481424D01*
Y211940D01*
Y211763D01*
Y211586D01*
X481601D01*
Y211408D01*
X481424D01*
Y211231D01*
Y211054D01*
Y210877D01*
X481601D01*
Y210699D01*
X481424D01*
Y210522D01*
Y210345D01*
Y210168D01*
X481601D01*
Y209990D01*
X481424D01*
Y209813D01*
Y209636D01*
Y209459D01*
X481601D01*
Y209281D01*
X481424D01*
Y209104D01*
Y208927D01*
Y208750D01*
X481601D01*
Y208572D01*
X481424D01*
Y208395D01*
Y208218D01*
Y208040D01*
X481601D01*
Y207863D01*
X481424D01*
Y207686D01*
Y207509D01*
Y207331D01*
X481601D01*
Y207154D01*
X481424D01*
Y206977D01*
Y206800D01*
Y206622D01*
X481601D01*
Y206445D01*
X481424D01*
Y206268D01*
Y206091D01*
Y205913D01*
X481601D01*
Y205736D01*
X481424D01*
Y205559D01*
Y205381D01*
Y205204D01*
X481601D01*
Y205027D01*
X481424D01*
Y204850D01*
Y204673D01*
Y204495D01*
X481601D01*
Y204318D01*
X481424D01*
Y204141D01*
Y203963D01*
Y203786D01*
X481601D01*
Y203609D01*
X481424D01*
Y203432D01*
Y203254D01*
Y203077D01*
X481601D01*
Y202900D01*
X481424D01*
Y202723D01*
Y202545D01*
Y202368D01*
X481601D01*
Y202191D01*
X481424D01*
Y202013D01*
Y201836D01*
Y201659D01*
X481601D01*
Y201482D01*
X481424D01*
Y201304D01*
Y201127D01*
Y200950D01*
X481601D01*
Y200773D01*
X481424D01*
Y200595D01*
Y200418D01*
Y200241D01*
X481601D01*
Y200064D01*
X481424D01*
Y199886D01*
Y199709D01*
Y199532D01*
X481601D01*
Y199355D01*
X481424D01*
Y199177D01*
Y199000D01*
Y198823D01*
X481601D01*
Y198645D01*
X481424D01*
Y198468D01*
Y198291D01*
Y198114D01*
X481601D01*
Y197936D01*
X481424D01*
Y197759D01*
Y197582D01*
Y197405D01*
X481601D01*
Y197227D01*
X481424D01*
Y197050D01*
Y196873D01*
Y196696D01*
X481601D01*
Y196518D01*
X481424D01*
Y196341D01*
Y196164D01*
Y195986D01*
X481601D01*
Y195809D01*
X481424D01*
Y195632D01*
Y195455D01*
Y195277D01*
X481601D01*
Y195100D01*
X481424D01*
Y194923D01*
Y194746D01*
Y194568D01*
X481601D01*
Y194391D01*
X481424D01*
Y194214D01*
Y194037D01*
Y193859D01*
X481601D01*
Y193682D01*
X481424D01*
Y193505D01*
Y193327D01*
Y193150D01*
X481601D01*
Y192973D01*
X481424D01*
Y192796D01*
Y192619D01*
Y192441D01*
X481601D01*
Y192264D01*
X481424D01*
Y192087D01*
Y191909D01*
Y191732D01*
X481601D01*
Y191555D01*
X481424D01*
Y191378D01*
Y191200D01*
Y191023D01*
X481601D01*
Y190846D01*
X481424D01*
Y190669D01*
Y190491D01*
Y190314D01*
X481601D01*
Y190137D01*
X481424D01*
Y189960D01*
Y189782D01*
Y189605D01*
Y189428D01*
Y189251D01*
X481247D01*
Y189073D01*
Y188896D01*
Y188719D01*
X481070D01*
Y188541D01*
X481247D01*
Y188364D01*
X481070D01*
Y188187D01*
X480892D01*
Y188010D01*
X480715D01*
Y187832D01*
X480538D01*
Y187655D01*
X480360D01*
Y187478D01*
Y187301D01*
X480006D01*
Y187123D01*
X479829D01*
Y186946D01*
X479651D01*
Y186769D01*
X479474D01*
Y186591D01*
X478942D01*
Y186414D01*
X478765D01*
Y186237D01*
X478588D01*
Y186414D01*
X478410D01*
Y186237D01*
X399528D01*
Y186414D01*
X399351D01*
Y186591D01*
X398819D01*
Y186769D01*
X398642D01*
Y186946D01*
X398110D01*
Y187123D01*
X397933D01*
Y187301D01*
X397755D01*
Y187478D01*
X397578D01*
Y187655D01*
X397401D01*
Y187832D01*
Y188010D01*
X397223D01*
Y188187D01*
Y188364D01*
X397046D01*
Y188541D01*
Y188719D01*
Y188896D01*
X396869D01*
Y189073D01*
X396692D01*
Y189251D01*
X396869D01*
Y189428D01*
X396692D01*
Y189605D01*
Y189782D01*
Y189960D01*
Y190137D01*
Y190314D01*
Y190491D01*
Y190669D01*
Y190846D01*
Y191023D01*
Y191200D01*
Y191378D01*
Y191555D01*
Y191732D01*
Y191909D01*
Y192087D01*
Y192264D01*
Y192441D01*
Y192619D01*
Y192796D01*
Y192973D01*
Y193150D01*
Y193327D01*
Y193505D01*
Y193682D01*
Y193859D01*
Y194037D01*
Y194214D01*
Y194391D01*
Y194568D01*
Y194746D01*
Y194923D01*
Y195100D01*
Y195277D01*
Y195455D01*
Y195632D01*
Y195809D01*
Y195986D01*
Y196164D01*
Y196341D01*
Y196518D01*
Y196696D01*
Y196873D01*
Y197050D01*
Y197227D01*
Y197405D01*
Y197582D01*
Y197759D01*
Y197936D01*
Y198114D01*
Y198291D01*
Y198468D01*
Y198645D01*
Y198823D01*
Y199000D01*
Y199177D01*
Y199355D01*
Y199532D01*
Y199709D01*
Y199886D01*
Y200064D01*
Y200241D01*
Y200418D01*
Y200595D01*
Y200773D01*
Y200950D01*
Y201127D01*
Y201304D01*
Y201482D01*
Y201659D01*
Y201836D01*
Y202013D01*
Y202191D01*
Y202368D01*
Y202545D01*
Y202723D01*
Y202900D01*
Y203077D01*
Y203254D01*
Y203432D01*
Y203609D01*
Y203786D01*
Y203963D01*
Y204141D01*
Y204318D01*
Y204495D01*
Y204673D01*
Y204850D01*
Y205027D01*
Y205204D01*
Y205381D01*
Y205559D01*
Y205736D01*
Y205913D01*
Y206091D01*
Y206268D01*
Y206445D01*
Y206622D01*
Y206800D01*
Y206977D01*
Y207154D01*
Y207331D01*
Y207509D01*
Y207686D01*
Y207863D01*
Y208040D01*
Y208218D01*
Y208395D01*
Y208572D01*
Y208750D01*
Y208927D01*
Y209104D01*
Y209281D01*
Y209459D01*
Y209636D01*
Y209813D01*
Y209990D01*
Y210168D01*
Y210345D01*
Y210522D01*
Y210699D01*
Y210877D01*
Y211054D01*
Y211231D01*
Y211408D01*
Y211586D01*
Y211763D01*
Y211940D01*
Y212118D01*
Y212295D01*
Y212472D01*
Y212649D01*
Y212827D01*
Y213004D01*
Y213181D01*
Y213358D01*
Y213536D01*
Y213713D01*
Y213890D01*
Y214068D01*
Y214245D01*
Y214422D01*
Y214599D01*
Y214776D01*
Y214954D01*
Y215131D01*
Y215308D01*
Y215486D01*
Y215663D01*
Y215840D01*
Y216017D01*
Y216195D01*
Y216372D01*
Y216549D01*
Y216726D01*
Y216904D01*
Y217081D01*
Y217258D01*
Y217436D01*
Y217613D01*
Y217790D01*
Y217967D01*
Y218144D01*
Y218322D01*
X396869D01*
Y218499D01*
X396692D01*
Y218676D01*
X396869D01*
Y218854D01*
X396692D01*
Y219031D01*
X396869D01*
Y219208D01*
X397046D01*
Y219385D01*
Y219563D01*
Y219740D01*
X397223D01*
Y219917D01*
Y220094D01*
X397401D01*
Y220272D01*
Y220449D01*
X397755D01*
Y220626D01*
Y220803D01*
X397933D01*
Y220981D01*
X398110D01*
Y221158D01*
X398642D01*
Y221335D01*
X398819D01*
Y221513D01*
X399351D01*
Y221690D01*
X399528D01*
Y221867D01*
X399705D01*
Y221690D01*
X399883D01*
Y221867D01*
X478056D01*
Y221690D01*
X478233D01*
Y221867D01*
X478410D01*
Y221690D01*
D02*
G37*
G36*
X622500Y138465D02*
Y128000D01*
X556000D01*
Y138465D01*
D01*
Y147500D01*
X622500D01*
Y138465D01*
D02*
G37*
%LPC*%
G36*
X478410Y221335D02*
X399528D01*
Y221158D01*
X399351D01*
Y220981D01*
X398819D01*
Y220803D01*
X398642D01*
Y220626D01*
X398464D01*
Y220449D01*
X398287D01*
Y220272D01*
X398110D01*
Y220094D01*
X397933D01*
Y219917D01*
X397755D01*
Y219740D01*
X397578D01*
Y219563D01*
Y219385D01*
Y219208D01*
X397401D01*
Y219031D01*
X397223D01*
Y218854D01*
Y218676D01*
Y218499D01*
Y218322D01*
Y218144D01*
X397046D01*
Y217967D01*
X397223D01*
Y217790D01*
X397046D01*
Y217613D01*
X397223D01*
Y217436D01*
X397046D01*
Y217258D01*
X397223D01*
Y217081D01*
X397046D01*
Y216904D01*
X397223D01*
Y216726D01*
X397046D01*
Y216549D01*
X397223D01*
Y216372D01*
X397046D01*
Y216195D01*
X397223D01*
Y216017D01*
X397046D01*
Y215840D01*
X397223D01*
Y215663D01*
X397046D01*
Y215486D01*
X397223D01*
Y215308D01*
X397046D01*
Y215131D01*
X397223D01*
Y214954D01*
X397046D01*
Y214776D01*
X397223D01*
Y214599D01*
X397046D01*
Y214422D01*
X397223D01*
Y214245D01*
X397046D01*
Y214068D01*
X397223D01*
Y213890D01*
X397046D01*
Y213713D01*
X397223D01*
Y213536D01*
X397046D01*
Y213358D01*
X397223D01*
Y213181D01*
X397046D01*
Y213004D01*
X397223D01*
Y212827D01*
X397046D01*
Y212649D01*
X397223D01*
Y212472D01*
X397046D01*
Y212295D01*
X397223D01*
Y212118D01*
X397046D01*
Y211940D01*
X397223D01*
Y211763D01*
X397046D01*
Y211586D01*
X397223D01*
Y211408D01*
X397046D01*
Y211231D01*
X397223D01*
Y211054D01*
X397046D01*
Y210877D01*
X397223D01*
Y210699D01*
X397046D01*
Y210522D01*
X397223D01*
Y210345D01*
X397046D01*
Y210168D01*
X397223D01*
Y209990D01*
X397046D01*
Y209813D01*
X397223D01*
Y209636D01*
X397046D01*
Y209459D01*
X397223D01*
Y209281D01*
X397046D01*
Y209104D01*
X397223D01*
Y208927D01*
X397046D01*
Y208750D01*
X397223D01*
Y208572D01*
X397046D01*
Y208395D01*
X397223D01*
Y208218D01*
X397046D01*
Y208040D01*
X397223D01*
Y207863D01*
X397046D01*
Y207686D01*
X397223D01*
Y207509D01*
X397046D01*
Y207331D01*
X397223D01*
Y207154D01*
X397046D01*
Y206977D01*
X397223D01*
Y206800D01*
X397046D01*
Y206622D01*
X397223D01*
Y206445D01*
X397046D01*
Y206268D01*
X397223D01*
Y206091D01*
X397046D01*
Y205913D01*
X397223D01*
Y205736D01*
X397046D01*
Y205559D01*
X397223D01*
Y205381D01*
X397046D01*
Y205204D01*
X397223D01*
Y205027D01*
X397046D01*
Y204850D01*
X397223D01*
Y204673D01*
X397046D01*
Y204495D01*
X397223D01*
Y204318D01*
X397046D01*
Y204141D01*
X397223D01*
Y203963D01*
X397046D01*
Y203786D01*
X397223D01*
Y203609D01*
X397046D01*
Y203432D01*
X397223D01*
Y203254D01*
X397046D01*
Y203077D01*
X397223D01*
Y202900D01*
X397046D01*
Y202723D01*
X397223D01*
Y202545D01*
X397046D01*
Y202368D01*
X397223D01*
Y202191D01*
X397046D01*
Y202013D01*
X397223D01*
Y201836D01*
X397046D01*
Y201659D01*
X397223D01*
Y201482D01*
X397046D01*
Y201304D01*
X397223D01*
Y201127D01*
X397046D01*
Y200950D01*
X397223D01*
Y200773D01*
X397046D01*
Y200595D01*
X397223D01*
Y200418D01*
X397046D01*
Y200241D01*
X397223D01*
Y200064D01*
X397046D01*
Y199886D01*
X397223D01*
Y199709D01*
X397046D01*
Y199532D01*
X397223D01*
Y199355D01*
X397046D01*
Y199177D01*
X397223D01*
Y199000D01*
X397046D01*
Y198823D01*
X397223D01*
Y198645D01*
X397046D01*
Y198468D01*
X397223D01*
Y198291D01*
X397046D01*
Y198114D01*
X397223D01*
Y197936D01*
X397046D01*
Y197759D01*
X397223D01*
Y197582D01*
X397046D01*
Y197405D01*
X397223D01*
Y197227D01*
X397046D01*
Y197050D01*
X397223D01*
Y196873D01*
X397046D01*
Y196696D01*
X397223D01*
Y196518D01*
X397046D01*
Y196341D01*
X397223D01*
Y196164D01*
X397046D01*
Y195986D01*
X397223D01*
Y195809D01*
X397046D01*
Y195632D01*
X397223D01*
Y195455D01*
X397046D01*
Y195277D01*
X397223D01*
Y195100D01*
X397046D01*
Y194923D01*
X397223D01*
Y194746D01*
X397046D01*
Y194568D01*
X397223D01*
Y194391D01*
X397046D01*
Y194214D01*
X397223D01*
Y194037D01*
X397046D01*
Y193859D01*
X397223D01*
Y193682D01*
X397046D01*
Y193505D01*
X397223D01*
Y193327D01*
X397046D01*
Y193150D01*
X397223D01*
Y192973D01*
X397046D01*
Y192796D01*
X397223D01*
Y192619D01*
X397046D01*
Y192441D01*
X397223D01*
Y192264D01*
X397046D01*
Y192087D01*
X397223D01*
Y191909D01*
X397046D01*
Y191732D01*
X397223D01*
Y191555D01*
X397046D01*
Y191378D01*
X397223D01*
Y191200D01*
X397046D01*
Y191023D01*
X397223D01*
Y190846D01*
X397046D01*
Y190669D01*
X397223D01*
Y190491D01*
X397046D01*
Y190314D01*
X397223D01*
Y190137D01*
X397046D01*
Y189960D01*
X397223D01*
Y189782D01*
X397046D01*
Y189605D01*
X397223D01*
Y189428D01*
Y189251D01*
Y189073D01*
X397401D01*
Y188896D01*
X397578D01*
Y188719D01*
X397401D01*
Y188541D01*
X397578D01*
Y188364D01*
X397755D01*
Y188187D01*
X397933D01*
Y188010D01*
Y187832D01*
X398287D01*
Y187655D01*
X398464D01*
Y187478D01*
X398642D01*
Y187301D01*
X398819D01*
Y187123D01*
X399351D01*
Y186946D01*
X399528D01*
Y186769D01*
X400414D01*
Y186591D01*
X400592D01*
Y186769D01*
X401123D01*
Y186591D01*
X401301D01*
Y186769D01*
X401832D01*
Y186591D01*
X402010D01*
Y186769D01*
X402541D01*
Y186591D01*
X402719D01*
Y186769D01*
X403251D01*
Y186591D01*
X403428D01*
Y186769D01*
X403960D01*
Y186591D01*
X404137D01*
Y186769D01*
X404669D01*
Y186591D01*
X404846D01*
Y186769D01*
X405378D01*
Y186591D01*
X405555D01*
Y186769D01*
X406087D01*
Y186591D01*
X406264D01*
Y186769D01*
X406796D01*
Y186591D01*
X406973D01*
Y186769D01*
X407505D01*
Y186591D01*
X407682D01*
Y186769D01*
X408214D01*
Y186591D01*
X408391D01*
Y186769D01*
X408923D01*
Y186591D01*
X409100D01*
Y186769D01*
X409632D01*
Y186591D01*
X409809D01*
Y186769D01*
X410341D01*
Y186591D01*
X410518D01*
Y186769D01*
X411050D01*
Y186591D01*
X411227D01*
Y186769D01*
X411759D01*
Y186591D01*
X411936D01*
Y186769D01*
X412468D01*
Y186591D01*
X412645D01*
Y186769D01*
X413177D01*
Y186591D01*
X413354D01*
Y186769D01*
X413886D01*
Y186591D01*
X414064D01*
Y186769D01*
X414595D01*
Y186591D01*
X414773D01*
Y186769D01*
X415304D01*
Y186591D01*
X415482D01*
Y186769D01*
X416013D01*
Y186591D01*
X416191D01*
Y186769D01*
X416722D01*
Y186591D01*
X416900D01*
Y186769D01*
X417432D01*
Y186591D01*
X417609D01*
Y186769D01*
X418141D01*
Y186591D01*
X418318D01*
Y186769D01*
X418850D01*
Y186591D01*
X419027D01*
Y186769D01*
X419559D01*
Y186591D01*
X419736D01*
Y186769D01*
X420268D01*
Y186591D01*
X420445D01*
Y186769D01*
X420977D01*
Y186591D01*
X421154D01*
Y186769D01*
X421686D01*
Y186591D01*
X421863D01*
Y186769D01*
X422395D01*
Y186591D01*
X422572D01*
Y186769D01*
X423104D01*
Y186591D01*
X423281D01*
Y186769D01*
X423813D01*
Y186591D01*
X423990D01*
Y186769D01*
X424522D01*
Y186591D01*
X424699D01*
Y186769D01*
X425231D01*
Y186591D01*
X425409D01*
Y186769D01*
X425940D01*
Y186591D01*
X426118D01*
Y186769D01*
X426649D01*
Y186591D01*
X426827D01*
Y186769D01*
X427358D01*
Y186591D01*
X427536D01*
Y186769D01*
X428067D01*
Y186591D01*
X428245D01*
Y186769D01*
X428777D01*
Y186591D01*
X428954D01*
Y186769D01*
X429486D01*
Y186591D01*
X429663D01*
Y186769D01*
X430195D01*
Y186591D01*
X430372D01*
Y186769D01*
X430904D01*
Y186591D01*
X431081D01*
Y186769D01*
X431613D01*
Y186591D01*
X431790D01*
Y186769D01*
X432322D01*
Y186591D01*
X432499D01*
Y186769D01*
X433031D01*
Y186591D01*
X433208D01*
Y186769D01*
X433740D01*
Y186591D01*
X433917D01*
Y186769D01*
X434449D01*
Y186591D01*
X434626D01*
Y186769D01*
X435158D01*
Y186591D01*
X435335D01*
Y186769D01*
X435867D01*
Y186591D01*
X436044D01*
Y186769D01*
X436576D01*
Y186591D01*
X436753D01*
Y186769D01*
X437285D01*
Y186591D01*
X437463D01*
Y186769D01*
X437994D01*
Y186591D01*
X438171D01*
Y186769D01*
X438703D01*
Y186591D01*
X438881D01*
Y186769D01*
X439412D01*
Y186591D01*
X439590D01*
Y186769D01*
X440121D01*
Y186591D01*
X440299D01*
Y186769D01*
X440831D01*
Y186591D01*
X441008D01*
Y186769D01*
X441539D01*
Y186591D01*
X441717D01*
Y186769D01*
X442249D01*
Y186591D01*
X442426D01*
Y186769D01*
X442958D01*
Y186591D01*
X443135D01*
Y186769D01*
X443667D01*
Y186591D01*
X443844D01*
Y186769D01*
X444376D01*
Y186591D01*
X444553D01*
Y186769D01*
X445085D01*
Y186591D01*
X445262D01*
Y186769D01*
X445794D01*
Y186591D01*
X445971D01*
Y186769D01*
X446503D01*
Y186591D01*
X446680D01*
Y186769D01*
X447212D01*
Y186591D01*
X447389D01*
Y186769D01*
X447921D01*
Y186591D01*
X448098D01*
Y186769D01*
X448630D01*
Y186591D01*
X448807D01*
Y186769D01*
X449339D01*
Y186591D01*
X449516D01*
Y186769D01*
X450048D01*
Y186591D01*
X450225D01*
Y186769D01*
X450757D01*
Y186591D01*
X450935D01*
Y186769D01*
X451466D01*
Y186591D01*
X451644D01*
Y186769D01*
X452175D01*
Y186591D01*
X452353D01*
Y186769D01*
X452884D01*
Y186591D01*
X453062D01*
Y186769D01*
X453593D01*
Y186591D01*
X453771D01*
Y186769D01*
X454303D01*
Y186591D01*
X454480D01*
Y186769D01*
X455012D01*
Y186591D01*
X455189D01*
Y186769D01*
X455721D01*
Y186591D01*
X455898D01*
Y186769D01*
X456430D01*
Y186591D01*
X456607D01*
Y186769D01*
X457139D01*
Y186591D01*
X457316D01*
Y186769D01*
X457848D01*
Y186591D01*
X458025D01*
Y186769D01*
X458557D01*
Y186591D01*
X458734D01*
Y186769D01*
X459266D01*
Y186591D01*
X459443D01*
Y186769D01*
X459975D01*
Y186591D01*
X460152D01*
Y186769D01*
X460684D01*
Y186591D01*
X460861D01*
Y186769D01*
X461393D01*
Y186591D01*
X461570D01*
Y186769D01*
X462102D01*
Y186591D01*
X462279D01*
Y186769D01*
X462811D01*
Y186591D01*
X462989D01*
Y186769D01*
X463520D01*
Y186591D01*
X463698D01*
Y186769D01*
X464229D01*
Y186591D01*
X464407D01*
Y186769D01*
X464938D01*
Y186591D01*
X465116D01*
Y186769D01*
X465648D01*
Y186591D01*
X465825D01*
Y186769D01*
X466357D01*
Y186591D01*
X466534D01*
Y186769D01*
X467066D01*
Y186591D01*
X467243D01*
Y186769D01*
X467775D01*
Y186591D01*
X467952D01*
Y186769D01*
X468484D01*
Y186591D01*
X468661D01*
Y186769D01*
X469193D01*
Y186591D01*
X469370D01*
Y186769D01*
X469902D01*
Y186591D01*
X470079D01*
Y186769D01*
X470611D01*
Y186591D01*
X470788D01*
Y186769D01*
X471320D01*
Y186591D01*
X471497D01*
Y186769D01*
X472029D01*
Y186591D01*
X472206D01*
Y186769D01*
X472738D01*
Y186591D01*
X472915D01*
Y186769D01*
X473447D01*
Y186591D01*
X473624D01*
Y186769D01*
X474156D01*
Y186591D01*
X474333D01*
Y186769D01*
X474865D01*
Y186591D01*
X475042D01*
Y186769D01*
X475574D01*
Y186591D01*
X475751D01*
Y186769D01*
X476283D01*
Y186591D01*
X476461D01*
Y186769D01*
X476992D01*
Y186591D01*
X477170D01*
Y186769D01*
X477701D01*
Y186591D01*
X477879D01*
Y186769D01*
X478410D01*
Y186946D01*
X478588D01*
Y186769D01*
X478765D01*
Y186946D01*
X478942D01*
Y187123D01*
X479474D01*
Y187301D01*
X479651D01*
Y187478D01*
X479829D01*
Y187655D01*
X480006D01*
Y187832D01*
X480183D01*
Y188010D01*
X480360D01*
Y188187D01*
X480538D01*
Y188364D01*
X480360D01*
Y188541D01*
X480538D01*
Y188719D01*
X480715D01*
Y188896D01*
X480892D01*
Y189073D01*
X480715D01*
Y189251D01*
X480892D01*
Y189428D01*
Y189605D01*
Y189782D01*
Y189960D01*
Y190137D01*
Y190314D01*
Y190491D01*
Y190669D01*
Y190846D01*
Y191023D01*
Y191200D01*
X481070D01*
Y191378D01*
X480892D01*
Y191555D01*
Y191732D01*
Y191909D01*
Y192087D01*
Y192264D01*
Y192441D01*
Y192619D01*
X481070D01*
Y192796D01*
X480892D01*
Y192973D01*
Y193150D01*
Y193327D01*
Y193505D01*
Y193682D01*
Y193859D01*
Y194037D01*
X481070D01*
Y194214D01*
X480892D01*
Y194391D01*
Y194568D01*
Y194746D01*
Y194923D01*
Y195100D01*
Y195277D01*
Y195455D01*
X481070D01*
Y195632D01*
X480892D01*
Y195809D01*
Y195986D01*
Y196164D01*
Y196341D01*
Y196518D01*
Y196696D01*
Y196873D01*
X481070D01*
Y197050D01*
X480892D01*
Y197227D01*
Y197405D01*
Y197582D01*
Y197759D01*
Y197936D01*
Y198114D01*
Y198291D01*
X481070D01*
Y198468D01*
X480892D01*
Y198645D01*
Y198823D01*
Y199000D01*
Y199177D01*
Y199355D01*
Y199532D01*
Y199709D01*
X481070D01*
Y199886D01*
X480892D01*
Y200064D01*
Y200241D01*
Y200418D01*
Y200595D01*
Y200773D01*
Y200950D01*
Y201127D01*
X481070D01*
Y201304D01*
X480892D01*
Y201482D01*
Y201659D01*
Y201836D01*
Y202013D01*
Y202191D01*
Y202368D01*
Y202545D01*
X481070D01*
Y202723D01*
X480892D01*
Y202900D01*
Y203077D01*
Y203254D01*
Y203432D01*
Y203609D01*
Y203786D01*
Y203963D01*
X481070D01*
Y204141D01*
X480892D01*
Y204318D01*
Y204495D01*
Y204673D01*
Y204850D01*
Y205027D01*
Y205204D01*
Y205381D01*
X481070D01*
Y205559D01*
X480892D01*
Y205736D01*
Y205913D01*
Y206091D01*
Y206268D01*
Y206445D01*
Y206622D01*
Y206800D01*
X481070D01*
Y206977D01*
X480892D01*
Y207154D01*
Y207331D01*
Y207509D01*
Y207686D01*
Y207863D01*
Y208040D01*
Y208218D01*
X481070D01*
Y208395D01*
X480892D01*
Y208572D01*
Y208750D01*
Y208927D01*
Y209104D01*
Y209281D01*
Y209459D01*
Y209636D01*
X481070D01*
Y209813D01*
X480892D01*
Y209990D01*
Y210168D01*
Y210345D01*
Y210522D01*
Y210699D01*
Y210877D01*
Y211054D01*
X481070D01*
Y211231D01*
X480892D01*
Y211408D01*
Y211586D01*
Y211763D01*
Y211940D01*
Y212118D01*
Y212295D01*
Y212472D01*
X481070D01*
Y212649D01*
X480892D01*
Y212827D01*
Y213004D01*
Y213181D01*
Y213358D01*
Y213536D01*
Y213713D01*
Y213890D01*
X481070D01*
Y214068D01*
X480892D01*
Y214245D01*
Y214422D01*
Y214599D01*
Y214776D01*
Y214954D01*
Y215131D01*
Y215308D01*
X481070D01*
Y215486D01*
X480892D01*
Y215663D01*
Y215840D01*
Y216017D01*
Y216195D01*
Y216372D01*
Y216549D01*
Y216726D01*
X481070D01*
Y216904D01*
X480892D01*
Y217081D01*
Y217258D01*
Y217436D01*
Y217613D01*
Y217790D01*
Y217967D01*
Y218144D01*
Y218322D01*
Y218499D01*
Y218676D01*
Y218854D01*
X480715D01*
Y219031D01*
X480892D01*
Y219208D01*
X480715D01*
Y219385D01*
X480538D01*
Y219563D01*
X480360D01*
Y219740D01*
X480538D01*
Y219917D01*
X480360D01*
Y220094D01*
X480183D01*
Y220272D01*
X480006D01*
Y220449D01*
X479829D01*
Y220626D01*
X479474D01*
Y220803D01*
Y220981D01*
X479297D01*
Y220803D01*
X479119D01*
Y220981D01*
X478942D01*
Y221158D01*
X478410D01*
Y221335D01*
D02*
G37*
%LPD*%
G36*
X442958Y218854D02*
X443489D01*
Y218676D01*
X444021D01*
Y218499D01*
X444199D01*
Y218322D01*
X444376D01*
Y218144D01*
X444553D01*
Y217967D01*
X444730D01*
Y217790D01*
X444553D01*
Y217613D01*
X444730D01*
Y217436D01*
Y217258D01*
Y217081D01*
X444908D01*
Y216904D01*
X444730D01*
Y216726D01*
X444908D01*
Y216549D01*
X444730D01*
Y216372D01*
X444908D01*
Y216195D01*
X444730D01*
Y216017D01*
X444908D01*
Y215840D01*
X444730D01*
Y215663D01*
X444908D01*
Y215486D01*
X444730D01*
Y215308D01*
X444908D01*
Y215131D01*
X444730D01*
Y214954D01*
X444908D01*
Y214776D01*
X444730D01*
Y214599D01*
X444908D01*
Y214422D01*
X444730D01*
Y214245D01*
X444908D01*
Y214068D01*
X444730D01*
Y213890D01*
X444908D01*
Y213713D01*
X444730D01*
Y213536D01*
X444908D01*
Y213358D01*
X444730D01*
Y213181D01*
X444908D01*
Y213004D01*
X444730D01*
Y212827D01*
X444908D01*
Y212649D01*
X444730D01*
Y212472D01*
X444908D01*
Y212295D01*
X444730D01*
Y212118D01*
X444908D01*
Y211940D01*
X444730D01*
Y211763D01*
Y211586D01*
Y211408D01*
X444553D01*
Y211231D01*
Y211054D01*
X444376D01*
Y210877D01*
Y210699D01*
X443844D01*
Y210522D01*
Y210345D01*
X443135D01*
Y210168D01*
X442958D01*
Y210345D01*
X442780D01*
Y210168D01*
X442603D01*
Y210345D01*
X442426D01*
Y210168D01*
X442249D01*
Y210345D01*
X442071D01*
Y210168D01*
X441894D01*
Y210345D01*
X441717D01*
Y210168D01*
X441539D01*
Y210345D01*
X441362D01*
Y210168D01*
X441185D01*
Y210345D01*
X441008D01*
Y210168D01*
X440831D01*
Y210345D01*
X440653D01*
Y210168D01*
X440476D01*
Y210345D01*
X440299D01*
Y210168D01*
X440121D01*
Y210345D01*
X439944D01*
Y210168D01*
X439767D01*
Y210345D01*
X439590D01*
Y210168D01*
X439412D01*
Y210345D01*
X439235D01*
Y210168D01*
X439058D01*
Y210345D01*
Y210522D01*
Y210699D01*
X438881D01*
Y210877D01*
X439058D01*
Y211054D01*
Y211231D01*
Y211408D01*
X438881D01*
Y211586D01*
X439058D01*
Y211763D01*
Y211940D01*
Y212118D01*
X438881D01*
Y212295D01*
X439058D01*
Y212472D01*
Y212649D01*
Y212827D01*
X438881D01*
Y213004D01*
X439058D01*
Y213181D01*
Y213358D01*
Y213536D01*
X438881D01*
Y213713D01*
X439058D01*
Y213890D01*
Y214068D01*
Y214245D01*
X438881D01*
Y214422D01*
X439058D01*
Y214599D01*
Y214776D01*
Y214954D01*
X438881D01*
Y215131D01*
X439058D01*
Y215308D01*
Y215486D01*
Y215663D01*
X438881D01*
Y215840D01*
X439058D01*
Y216017D01*
Y216195D01*
Y216372D01*
X438881D01*
Y216549D01*
X439058D01*
Y216726D01*
Y216904D01*
Y217081D01*
X438881D01*
Y217258D01*
X439058D01*
Y217436D01*
Y217613D01*
Y217790D01*
X438881D01*
Y217967D01*
X439058D01*
Y218144D01*
Y218322D01*
Y218499D01*
X438881D01*
Y218676D01*
X439058D01*
Y218854D01*
X439235D01*
Y219031D01*
X439412D01*
Y218854D01*
X439590D01*
Y219031D01*
X439767D01*
Y218854D01*
X439944D01*
Y219031D01*
X440121D01*
Y218854D01*
X440299D01*
Y219031D01*
X440476D01*
Y218854D01*
X440653D01*
Y219031D01*
X440831D01*
Y218854D01*
X441008D01*
Y219031D01*
X441185D01*
Y218854D01*
X441362D01*
Y219031D01*
X441539D01*
Y218854D01*
X441717D01*
Y219031D01*
X441894D01*
Y218854D01*
X442071D01*
Y219031D01*
X442249D01*
Y218854D01*
X442426D01*
Y219031D01*
X442603D01*
Y218854D01*
X442780D01*
Y219031D01*
X442958D01*
Y218854D01*
D02*
G37*
G36*
X466179Y215131D02*
X466357D01*
Y214954D01*
X466179D01*
Y214776D01*
X466357D01*
Y214599D01*
X466179D01*
Y214422D01*
X466357D01*
Y214245D01*
X466179D01*
Y214068D01*
X466357D01*
Y213890D01*
X466179D01*
Y213713D01*
X466357D01*
Y213536D01*
X466179D01*
Y213358D01*
X466357D01*
Y213181D01*
X466179D01*
Y213004D01*
X466357D01*
Y212827D01*
X466179D01*
Y212649D01*
X466357D01*
Y212472D01*
X466179D01*
Y212295D01*
X466357D01*
Y212118D01*
X466179D01*
Y211940D01*
X466357D01*
Y211763D01*
X466179D01*
Y211586D01*
X466357D01*
Y211408D01*
X466179D01*
Y211231D01*
X466357D01*
Y211054D01*
X466179D01*
Y210877D01*
X466357D01*
Y210699D01*
X466534D01*
Y210877D01*
X466711D01*
Y210699D01*
X466888D01*
Y210877D01*
X467066D01*
Y210699D01*
X467243D01*
Y210877D01*
X467420D01*
Y210699D01*
X467597D01*
Y210877D01*
X467775D01*
Y210699D01*
X467952D01*
Y210522D01*
Y210345D01*
Y210168D01*
X467775D01*
Y210345D01*
X467597D01*
Y210168D01*
X467420D01*
Y210345D01*
X467243D01*
Y210168D01*
X467066D01*
Y210345D01*
X466888D01*
Y210168D01*
X466711D01*
Y210345D01*
X466534D01*
Y210168D01*
X466357D01*
Y210345D01*
X466179D01*
Y210168D01*
X466002D01*
Y210345D01*
X465825D01*
Y210168D01*
X465648D01*
Y210345D01*
X465470D01*
Y210168D01*
X465293D01*
Y210345D01*
X465116D01*
Y210522D01*
X465293D01*
Y210699D01*
X465116D01*
Y210877D01*
X465293D01*
Y211054D01*
X465116D01*
Y211231D01*
Y211408D01*
Y211586D01*
X465293D01*
Y211763D01*
X465116D01*
Y211940D01*
Y212118D01*
Y212295D01*
X465293D01*
Y212472D01*
X465116D01*
Y212649D01*
Y212827D01*
Y213004D01*
X465293D01*
Y213181D01*
X465116D01*
Y213358D01*
X465293D01*
Y213536D01*
X465116D01*
Y213713D01*
X465293D01*
Y213890D01*
X465116D01*
Y214068D01*
Y214245D01*
Y214422D01*
X465293D01*
Y214599D01*
X465116D01*
Y214776D01*
Y214954D01*
Y215131D01*
X465293D01*
Y215308D01*
X465470D01*
Y215131D01*
X465648D01*
Y215308D01*
X465825D01*
Y215131D01*
X466002D01*
Y215308D01*
X466179D01*
Y215131D01*
D02*
G37*
G36*
X462989D02*
X463520D01*
Y214954D01*
X463698D01*
Y214776D01*
X463875D01*
Y214599D01*
X464052D01*
Y214422D01*
Y214245D01*
Y214068D01*
X464229D01*
Y213890D01*
X464052D01*
Y213713D01*
Y213536D01*
Y213358D01*
Y213181D01*
Y213004D01*
Y212827D01*
Y212649D01*
Y212472D01*
Y212295D01*
Y212118D01*
Y211940D01*
Y211763D01*
Y211586D01*
Y211408D01*
Y211231D01*
X464229D01*
Y211054D01*
X464052D01*
Y210877D01*
Y210699D01*
Y210522D01*
Y210345D01*
Y210168D01*
X463875D01*
Y210345D01*
X463698D01*
Y210168D01*
X463520D01*
Y210345D01*
X463343D01*
Y210168D01*
X463166D01*
Y210345D01*
X462989D01*
Y210522D01*
Y210699D01*
Y210877D01*
X462811D01*
Y211054D01*
X462989D01*
Y211231D01*
Y211408D01*
Y211586D01*
X462811D01*
Y211763D01*
X462989D01*
Y211940D01*
Y212118D01*
Y212295D01*
X462811D01*
Y212472D01*
X461925D01*
Y212295D01*
X461748D01*
Y212118D01*
X461925D01*
Y211940D01*
X461748D01*
Y211763D01*
Y211586D01*
Y211408D01*
X461925D01*
Y211231D01*
X461748D01*
Y211054D01*
X461925D01*
Y210877D01*
X461748D01*
Y210699D01*
X461925D01*
Y210522D01*
X461748D01*
Y210345D01*
X461570D01*
Y210168D01*
X461393D01*
Y210345D01*
X461216D01*
Y210168D01*
X461039D01*
Y210345D01*
X460861D01*
Y210168D01*
X460684D01*
Y210345D01*
X460507D01*
Y210522D01*
X460684D01*
Y210699D01*
Y210877D01*
Y211054D01*
Y211231D01*
Y211408D01*
Y211586D01*
Y211763D01*
X460507D01*
Y211940D01*
X460684D01*
Y212118D01*
Y212295D01*
Y212472D01*
Y212649D01*
Y212827D01*
Y213004D01*
Y213181D01*
X460507D01*
Y213358D01*
X460684D01*
Y213536D01*
Y213713D01*
Y213890D01*
Y214068D01*
Y214245D01*
Y214422D01*
Y214599D01*
X460861D01*
Y214776D01*
X461039D01*
Y214954D01*
X461216D01*
Y215131D01*
X461393D01*
Y215308D01*
X461570D01*
Y215131D01*
X461748D01*
Y215308D01*
X461925D01*
Y215131D01*
X462102D01*
Y215308D01*
X462279D01*
Y215131D01*
X462457D01*
Y215308D01*
X462634D01*
Y215131D01*
X462811D01*
Y215308D01*
X462989D01*
Y215131D01*
D02*
G37*
G36*
X460152D02*
X460330D01*
Y214954D01*
X460152D01*
Y214776D01*
Y214599D01*
X459798D01*
Y214776D01*
X459621D01*
Y214599D01*
X459089D01*
Y214422D01*
Y214245D01*
Y214068D01*
Y213890D01*
Y213713D01*
Y213536D01*
Y213358D01*
Y213181D01*
Y213004D01*
Y212827D01*
Y212649D01*
Y212472D01*
Y212295D01*
Y212118D01*
Y211940D01*
Y211763D01*
Y211586D01*
Y211408D01*
Y211231D01*
Y211054D01*
Y210877D01*
Y210699D01*
Y210522D01*
Y210345D01*
Y210168D01*
X458911D01*
Y210345D01*
X458734D01*
Y210168D01*
X458557D01*
Y210345D01*
X458380D01*
Y210168D01*
X458202D01*
Y210345D01*
X458025D01*
Y210168D01*
X457848D01*
Y210345D01*
Y210522D01*
Y210699D01*
X458025D01*
Y210877D01*
X457848D01*
Y211054D01*
X458025D01*
Y211231D01*
X457848D01*
Y211408D01*
X458025D01*
Y211586D01*
X457848D01*
Y211763D01*
Y211940D01*
Y212118D01*
X458025D01*
Y212295D01*
X457848D01*
Y212472D01*
X458025D01*
Y212649D01*
X457848D01*
Y212827D01*
X458025D01*
Y213004D01*
X457848D01*
Y213181D01*
Y213358D01*
Y213536D01*
X458025D01*
Y213713D01*
X457848D01*
Y213890D01*
X458025D01*
Y214068D01*
X457848D01*
Y214245D01*
X458025D01*
Y214422D01*
X457848D01*
Y214599D01*
X457671D01*
Y214776D01*
X457493D01*
Y214599D01*
X456961D01*
Y214776D01*
X456784D01*
Y214954D01*
Y215131D01*
X457139D01*
Y215308D01*
X457316D01*
Y215131D01*
X457493D01*
Y215308D01*
X457671D01*
Y215131D01*
X457848D01*
Y215308D01*
X458025D01*
Y215131D01*
X458202D01*
Y215308D01*
X458380D01*
Y215131D01*
X458557D01*
Y215308D01*
X458734D01*
Y215131D01*
X458911D01*
Y215308D01*
X459089D01*
Y215131D01*
X459266D01*
Y215308D01*
X459443D01*
Y215131D01*
X459621D01*
Y215308D01*
X459798D01*
Y215131D01*
X459975D01*
Y215308D01*
X460152D01*
Y215131D01*
D02*
G37*
G36*
X455543D02*
X455721D01*
Y214954D01*
X455543D01*
Y214776D01*
X455721D01*
Y214599D01*
Y214422D01*
Y214245D01*
X455543D01*
Y214068D01*
X455721D01*
Y213890D01*
Y213713D01*
Y213536D01*
Y213358D01*
Y213181D01*
Y213004D01*
Y212827D01*
X455543D01*
Y212649D01*
X455721D01*
Y212472D01*
Y212295D01*
Y212118D01*
X455543D01*
Y211940D01*
X455721D01*
Y211763D01*
Y211586D01*
Y211408D01*
X455543D01*
Y211231D01*
X455721D01*
Y211054D01*
Y210877D01*
Y210699D01*
Y210522D01*
Y210345D01*
X455543D01*
Y210168D01*
X455366D01*
Y210345D01*
X455189D01*
Y210168D01*
X455012D01*
Y210345D01*
X454834D01*
Y210168D01*
X454657D01*
Y210345D01*
X454480D01*
Y210522D01*
X454657D01*
Y210699D01*
X454480D01*
Y210877D01*
X454657D01*
Y211054D01*
X454480D01*
Y211231D01*
X454657D01*
Y211408D01*
X454480D01*
Y211586D01*
X454657D01*
Y211763D01*
X454480D01*
Y211940D01*
X454657D01*
Y212118D01*
X454480D01*
Y212295D01*
X454657D01*
Y212472D01*
X454480D01*
Y212649D01*
X454657D01*
Y212827D01*
X454480D01*
Y213004D01*
X454657D01*
Y213181D01*
X454480D01*
Y213358D01*
X454657D01*
Y213536D01*
X454480D01*
Y213713D01*
X454657D01*
Y213890D01*
X454480D01*
Y214068D01*
X454657D01*
Y214245D01*
X454480D01*
Y214422D01*
X454657D01*
Y214599D01*
X454480D01*
Y214776D01*
X454657D01*
Y214954D01*
X454480D01*
Y215131D01*
X454657D01*
Y215308D01*
X454834D01*
Y215131D01*
X455012D01*
Y215308D01*
X455189D01*
Y215131D01*
X455366D01*
Y215308D01*
X455543D01*
Y215131D01*
D02*
G37*
G36*
X451998D02*
X452530D01*
Y214954D01*
X452707D01*
Y214776D01*
X452884D01*
Y214599D01*
Y214422D01*
Y214245D01*
X452707D01*
Y214068D01*
X452530D01*
Y214245D01*
X452353D01*
Y214422D01*
X452175D01*
Y214599D01*
X451998D01*
Y214776D01*
X451821D01*
Y214599D01*
X450935D01*
Y214422D01*
X450757D01*
Y214245D01*
X450580D01*
Y214068D01*
X450757D01*
Y213890D01*
Y213713D01*
Y213536D01*
X450580D01*
Y213358D01*
X450757D01*
Y213181D01*
Y213004D01*
Y212827D01*
X450580D01*
Y212649D01*
X450757D01*
Y212472D01*
Y212295D01*
Y212118D01*
X450580D01*
Y211940D01*
X450757D01*
Y211763D01*
Y211586D01*
Y211408D01*
X450580D01*
Y211231D01*
X450757D01*
Y211054D01*
X450935D01*
Y210877D01*
X451112D01*
Y210699D01*
X451289D01*
Y210877D01*
X451821D01*
Y211054D01*
Y211231D01*
Y211408D01*
Y211586D01*
Y211763D01*
Y211940D01*
Y212118D01*
Y212295D01*
Y212472D01*
X451289D01*
Y212649D01*
X451466D01*
Y212827D01*
X451289D01*
Y213004D01*
X452884D01*
Y212827D01*
Y212649D01*
Y212472D01*
X453062D01*
Y212295D01*
X452884D01*
Y212118D01*
Y211940D01*
Y211763D01*
X453062D01*
Y211586D01*
X452884D01*
Y211408D01*
Y211231D01*
Y211054D01*
Y210877D01*
Y210699D01*
X452707D01*
Y210522D01*
X452530D01*
Y210345D01*
X451998D01*
Y210168D01*
X451821D01*
Y210345D01*
X451644D01*
Y210168D01*
X451466D01*
Y210345D01*
X451289D01*
Y210168D01*
X451112D01*
Y210345D01*
X450935D01*
Y210168D01*
X450757D01*
Y210345D01*
X450580D01*
Y210168D01*
X450403D01*
Y210345D01*
X450048D01*
Y210522D01*
Y210699D01*
X449871D01*
Y210877D01*
X449694D01*
Y211054D01*
X449516D01*
Y211231D01*
X449694D01*
Y211408D01*
X449516D01*
Y211586D01*
X449694D01*
Y211763D01*
X449516D01*
Y211940D01*
X449694D01*
Y212118D01*
X449516D01*
Y212295D01*
X449694D01*
Y212472D01*
X449516D01*
Y212649D01*
X449694D01*
Y212827D01*
X449516D01*
Y213004D01*
X449694D01*
Y213181D01*
X449516D01*
Y213358D01*
X449694D01*
Y213536D01*
X449516D01*
Y213713D01*
X449694D01*
Y213890D01*
X449516D01*
Y214068D01*
X449694D01*
Y214245D01*
X449516D01*
Y214422D01*
X449694D01*
Y214599D01*
X449871D01*
Y214776D01*
X450048D01*
Y214954D01*
X450225D01*
Y215131D01*
X450757D01*
Y215308D01*
X450935D01*
Y215131D01*
X451112D01*
Y215308D01*
X451289D01*
Y215131D01*
X451466D01*
Y215308D01*
X451644D01*
Y215131D01*
X451821D01*
Y215308D01*
X451998D01*
Y215131D01*
D02*
G37*
G36*
X447744D02*
X447921D01*
Y214954D01*
Y214776D01*
Y214599D01*
X448098D01*
Y214422D01*
X447921D01*
Y214245D01*
Y214068D01*
Y213890D01*
X448098D01*
Y213713D01*
X447921D01*
Y213536D01*
Y213358D01*
Y213181D01*
X448098D01*
Y213004D01*
X447921D01*
Y212827D01*
Y212649D01*
Y212472D01*
X448098D01*
Y212295D01*
X447921D01*
Y212118D01*
Y211940D01*
Y211763D01*
X448098D01*
Y211586D01*
X447921D01*
Y211408D01*
Y211231D01*
Y211054D01*
X448098D01*
Y210877D01*
X447921D01*
Y210699D01*
Y210522D01*
Y210345D01*
X447744D01*
Y210168D01*
X447567D01*
Y210345D01*
X447389D01*
Y210168D01*
X447212D01*
Y210345D01*
X447035D01*
Y210168D01*
X446858D01*
Y210345D01*
Y210522D01*
Y210699D01*
Y210877D01*
Y211054D01*
Y211231D01*
Y211408D01*
Y211586D01*
Y211763D01*
Y211940D01*
Y212118D01*
Y212295D01*
Y212472D01*
Y212649D01*
Y212827D01*
Y213004D01*
Y213181D01*
Y213358D01*
Y213536D01*
Y213713D01*
Y213890D01*
Y214068D01*
Y214245D01*
Y214422D01*
Y214599D01*
Y214776D01*
Y214954D01*
Y215131D01*
Y215308D01*
X447035D01*
Y215131D01*
X447212D01*
Y215308D01*
X447389D01*
Y215131D01*
X447567D01*
Y215308D01*
X447744D01*
Y215131D01*
D02*
G37*
G36*
X474865Y213890D02*
X475042D01*
Y213713D01*
X475397D01*
Y213536D01*
Y213358D01*
X475574D01*
Y213181D01*
X475397D01*
Y213004D01*
X475574D01*
Y212827D01*
X475397D01*
Y212649D01*
X475574D01*
Y212472D01*
X475397D01*
Y212295D01*
X475574D01*
Y212118D01*
X475397D01*
Y211940D01*
X475574D01*
Y211763D01*
X475397D01*
Y211586D01*
X475574D01*
Y211408D01*
X475397D01*
Y211231D01*
X475574D01*
Y211054D01*
X475397D01*
Y210877D01*
X475574D01*
Y210699D01*
X475397D01*
Y210522D01*
X475220D01*
Y210345D01*
X475042D01*
Y210168D01*
X474865D01*
Y210345D01*
X474688D01*
Y210168D01*
X474511D01*
Y210345D01*
X474333D01*
Y210168D01*
X474156D01*
Y210345D01*
X473979D01*
Y210168D01*
X473802D01*
Y210345D01*
X473624D01*
Y210168D01*
X473447D01*
Y210345D01*
X473270D01*
Y210522D01*
X473093D01*
Y210699D01*
X472915D01*
Y210877D01*
X473093D01*
Y211054D01*
X472915D01*
Y211231D01*
X473093D01*
Y211408D01*
X472915D01*
Y211586D01*
X473093D01*
Y211763D01*
X472915D01*
Y211940D01*
X473093D01*
Y212118D01*
X472915D01*
Y212295D01*
X473093D01*
Y212472D01*
X472915D01*
Y212649D01*
X473093D01*
Y212827D01*
X472915D01*
Y213004D01*
X473093D01*
Y213181D01*
X472915D01*
Y213358D01*
X473093D01*
Y213536D01*
Y213713D01*
X473447D01*
Y213890D01*
X473624D01*
Y214068D01*
X473802D01*
Y213890D01*
X473979D01*
Y214068D01*
X474865D01*
Y213890D01*
D02*
G37*
G36*
X472383D02*
X472561D01*
Y213713D01*
Y213536D01*
X472206D01*
Y213713D01*
X472029D01*
Y213536D01*
X471852D01*
Y213358D01*
X471674D01*
Y213181D01*
X471852D01*
Y213004D01*
X471674D01*
Y212827D01*
X471852D01*
Y212649D01*
X471674D01*
Y212472D01*
X471852D01*
Y212295D01*
X471674D01*
Y212118D01*
X471852D01*
Y211940D01*
X471674D01*
Y211763D01*
X471852D01*
Y211586D01*
X471674D01*
Y211408D01*
X471852D01*
Y211231D01*
X471674D01*
Y211054D01*
X471852D01*
Y210877D01*
X471674D01*
Y210699D01*
X471852D01*
Y210522D01*
X471674D01*
Y210345D01*
X471497D01*
Y210168D01*
X471320D01*
Y210345D01*
X471143D01*
Y210168D01*
X470965D01*
Y210345D01*
X470788D01*
Y210522D01*
X470965D01*
Y210699D01*
X470788D01*
Y210877D01*
X470965D01*
Y211054D01*
X470788D01*
Y211231D01*
X470965D01*
Y211408D01*
X470788D01*
Y211586D01*
X470965D01*
Y211763D01*
X470788D01*
Y211940D01*
X470965D01*
Y212118D01*
X470788D01*
Y212295D01*
X470965D01*
Y212472D01*
X470788D01*
Y212649D01*
X470965D01*
Y212827D01*
X470788D01*
Y213004D01*
X470965D01*
Y213181D01*
X470788D01*
Y213358D01*
X470965D01*
Y213536D01*
X470788D01*
Y213713D01*
X470611D01*
Y213536D01*
X470079D01*
Y213713D01*
Y213890D01*
Y214068D01*
X470965D01*
Y213890D01*
X471143D01*
Y214068D01*
X471674D01*
Y213890D01*
X471852D01*
Y214068D01*
X472383D01*
Y213890D01*
D02*
G37*
G36*
X442780Y208395D02*
X443667D01*
Y208218D01*
X443844D01*
Y208040D01*
X444199D01*
Y207863D01*
Y207686D01*
X444553D01*
Y207509D01*
Y207331D01*
X444730D01*
Y207154D01*
Y206977D01*
Y206800D01*
X444908D01*
Y206622D01*
X444730D01*
Y206445D01*
X444908D01*
Y206268D01*
X444730D01*
Y206091D01*
X444908D01*
Y205913D01*
X444730D01*
Y205736D01*
X444908D01*
Y205559D01*
X444730D01*
Y205381D01*
X444908D01*
Y205204D01*
X444730D01*
Y205027D01*
X444908D01*
Y204850D01*
X444730D01*
Y204673D01*
X444908D01*
Y204495D01*
X444730D01*
Y204318D01*
X444908D01*
Y204141D01*
X444730D01*
Y203963D01*
X444908D01*
Y203786D01*
X444730D01*
Y203609D01*
X444908D01*
Y203432D01*
X444730D01*
Y203254D01*
X444908D01*
Y203077D01*
X444730D01*
Y202900D01*
X444908D01*
Y202723D01*
X444730D01*
Y202545D01*
X444908D01*
Y202368D01*
X444730D01*
Y202191D01*
X444908D01*
Y202013D01*
X444730D01*
Y201836D01*
X444908D01*
Y201659D01*
X444730D01*
Y201482D01*
X444908D01*
Y201304D01*
X444730D01*
Y201127D01*
X444908D01*
Y200950D01*
X444730D01*
Y200773D01*
X444908D01*
Y200595D01*
X444730D01*
Y200418D01*
X444908D01*
Y200241D01*
X444730D01*
Y200064D01*
X444908D01*
Y199886D01*
X444730D01*
Y199709D01*
X444553D01*
Y199886D01*
X444376D01*
Y199709D01*
X444199D01*
Y199886D01*
X444021D01*
Y199709D01*
X443844D01*
Y199886D01*
X443667D01*
Y199709D01*
X443489D01*
Y199886D01*
X443312D01*
Y199709D01*
X443135D01*
Y199886D01*
X442958D01*
Y200064D01*
X442780D01*
Y200241D01*
X442958D01*
Y200418D01*
X442780D01*
Y200595D01*
X442958D01*
Y200773D01*
X442780D01*
Y200950D01*
X442958D01*
Y201127D01*
X442780D01*
Y201304D01*
X442958D01*
Y201482D01*
X442780D01*
Y201659D01*
X442958D01*
Y201836D01*
X442780D01*
Y202013D01*
X442958D01*
Y202191D01*
X442780D01*
Y202368D01*
X442958D01*
Y202545D01*
X442780D01*
Y202723D01*
X442958D01*
Y202900D01*
X442780D01*
Y203077D01*
X442958D01*
Y203254D01*
X442780D01*
Y203432D01*
X442958D01*
Y203609D01*
X442426D01*
Y203786D01*
X442249D01*
Y203609D01*
X441008D01*
Y203432D01*
Y203254D01*
Y203077D01*
Y202900D01*
Y202723D01*
Y202545D01*
Y202368D01*
Y202191D01*
Y202013D01*
Y201836D01*
Y201659D01*
Y201482D01*
Y201304D01*
Y201127D01*
Y200950D01*
Y200773D01*
Y200595D01*
Y200418D01*
Y200241D01*
Y200064D01*
Y199886D01*
X440831D01*
Y199709D01*
X440653D01*
Y199886D01*
X440476D01*
Y199709D01*
X440299D01*
Y199886D01*
X440121D01*
Y199709D01*
X439944D01*
Y199886D01*
X439767D01*
Y199709D01*
X439590D01*
Y199886D01*
X439412D01*
Y199709D01*
X439235D01*
Y199886D01*
X439058D01*
Y200064D01*
X438881D01*
Y200241D01*
X439058D01*
Y200418D01*
Y200595D01*
Y200773D01*
X438881D01*
Y200950D01*
X439058D01*
Y201127D01*
Y201304D01*
Y201482D01*
X438881D01*
Y201659D01*
X439058D01*
Y201836D01*
Y202013D01*
Y202191D01*
X438881D01*
Y202368D01*
X439058D01*
Y202545D01*
Y202723D01*
Y202900D01*
X438881D01*
Y203077D01*
X439058D01*
Y203254D01*
Y203432D01*
Y203609D01*
X438881D01*
Y203786D01*
X439058D01*
Y203963D01*
Y204141D01*
Y204318D01*
X438881D01*
Y204495D01*
X439058D01*
Y204673D01*
Y204850D01*
Y205027D01*
X438881D01*
Y205204D01*
X439058D01*
Y205381D01*
Y205559D01*
Y205736D01*
X438881D01*
Y205913D01*
X439058D01*
Y206091D01*
Y206268D01*
Y206445D01*
X438881D01*
Y206622D01*
X439058D01*
Y206800D01*
Y206977D01*
Y207154D01*
X439235D01*
Y207331D01*
Y207509D01*
Y207686D01*
X439412D01*
Y207863D01*
X439590D01*
Y208040D01*
X439944D01*
Y208218D01*
Y208395D01*
X440121D01*
Y208218D01*
X440299D01*
Y208395D01*
X441185D01*
Y208572D01*
X441362D01*
Y208395D01*
X441894D01*
Y208572D01*
X442071D01*
Y208395D01*
X442603D01*
Y208572D01*
X442780D01*
Y208395D01*
D02*
G37*
G36*
X433740Y220272D02*
X434272D01*
Y220094D01*
X434626D01*
Y219917D01*
X434803D01*
Y219740D01*
X435158D01*
Y219563D01*
X435335D01*
Y219385D01*
X435513D01*
Y219208D01*
X435690D01*
Y219031D01*
Y218854D01*
X435867D01*
Y218676D01*
Y218499D01*
X436044D01*
Y218322D01*
Y218144D01*
X436222D01*
Y217967D01*
Y217790D01*
Y217613D01*
Y217436D01*
Y217258D01*
Y217081D01*
Y216904D01*
Y216726D01*
Y216549D01*
Y216372D01*
Y216195D01*
Y216017D01*
Y215840D01*
Y215663D01*
Y215486D01*
Y215308D01*
Y215131D01*
Y214954D01*
Y214776D01*
Y214599D01*
Y214422D01*
Y214245D01*
Y214068D01*
Y213890D01*
Y213713D01*
Y213536D01*
Y213358D01*
Y213181D01*
Y213004D01*
Y212827D01*
Y212649D01*
Y212472D01*
Y212295D01*
Y212118D01*
Y211940D01*
Y211763D01*
Y211586D01*
Y211408D01*
Y211231D01*
Y211054D01*
Y210877D01*
Y210699D01*
Y210522D01*
Y210345D01*
Y210168D01*
Y209990D01*
Y209813D01*
Y209636D01*
Y209459D01*
Y209281D01*
Y209104D01*
Y208927D01*
Y208750D01*
Y208572D01*
Y208395D01*
Y208218D01*
Y208040D01*
Y207863D01*
Y207686D01*
Y207509D01*
Y207331D01*
Y207154D01*
Y206977D01*
Y206800D01*
Y206622D01*
Y206445D01*
Y206268D01*
Y206091D01*
Y205913D01*
Y205736D01*
Y205559D01*
Y205381D01*
Y205204D01*
Y205027D01*
X430372D01*
Y205204D01*
Y205381D01*
Y205559D01*
Y205736D01*
Y205913D01*
Y206091D01*
Y206268D01*
Y206445D01*
Y206622D01*
Y206800D01*
Y206977D01*
Y207154D01*
Y207331D01*
Y207509D01*
Y207686D01*
Y207863D01*
Y208040D01*
Y208218D01*
Y208395D01*
Y208572D01*
Y208750D01*
Y208927D01*
Y209104D01*
Y209281D01*
Y209459D01*
Y209636D01*
Y209813D01*
Y209990D01*
Y210168D01*
Y210345D01*
Y210522D01*
Y210699D01*
Y210877D01*
Y211054D01*
Y211231D01*
Y211408D01*
Y211586D01*
Y211763D01*
Y211940D01*
Y212118D01*
Y212295D01*
Y212472D01*
Y212649D01*
Y212827D01*
Y213004D01*
Y213181D01*
Y213358D01*
Y213536D01*
Y213713D01*
Y213890D01*
Y214068D01*
Y214245D01*
Y214422D01*
Y214599D01*
Y214776D01*
Y214954D01*
X423281D01*
Y214776D01*
Y214599D01*
Y214422D01*
Y214245D01*
Y214068D01*
Y213890D01*
Y213713D01*
Y213536D01*
Y213358D01*
Y213181D01*
Y213004D01*
Y212827D01*
Y212649D01*
Y212472D01*
Y212295D01*
Y212118D01*
Y211940D01*
Y211763D01*
Y211586D01*
Y211408D01*
Y211231D01*
Y211054D01*
Y210877D01*
Y210699D01*
Y210522D01*
Y210345D01*
Y210168D01*
Y209990D01*
Y209813D01*
Y209636D01*
Y209459D01*
Y209281D01*
Y209104D01*
Y208927D01*
Y208750D01*
Y208572D01*
Y208395D01*
Y208218D01*
Y208040D01*
Y207863D01*
Y207686D01*
Y207509D01*
Y207331D01*
Y207154D01*
Y206977D01*
Y206800D01*
Y206622D01*
Y206445D01*
Y206268D01*
Y206091D01*
Y205913D01*
Y205736D01*
Y205559D01*
Y205381D01*
Y205204D01*
Y205027D01*
X417432D01*
Y205204D01*
Y205381D01*
Y205559D01*
X417609D01*
Y205736D01*
Y205913D01*
Y206091D01*
X417432D01*
Y206268D01*
X417609D01*
Y206445D01*
Y206622D01*
Y206800D01*
X417432D01*
Y206977D01*
X417609D01*
Y207154D01*
Y207331D01*
Y207509D01*
X417432D01*
Y207686D01*
X417609D01*
Y207863D01*
Y208040D01*
Y208218D01*
X417432D01*
Y208395D01*
X417609D01*
Y208572D01*
Y208750D01*
Y208927D01*
X417432D01*
Y209104D01*
X417609D01*
Y209281D01*
Y209459D01*
Y209636D01*
X417432D01*
Y209813D01*
X417609D01*
Y209990D01*
Y210168D01*
Y210345D01*
X417432D01*
Y210522D01*
X417609D01*
Y210699D01*
Y210877D01*
Y211054D01*
X417432D01*
Y211231D01*
X417609D01*
Y211408D01*
Y211586D01*
Y211763D01*
X417432D01*
Y211940D01*
X417609D01*
Y212118D01*
Y212295D01*
Y212472D01*
X417432D01*
Y212649D01*
X417609D01*
Y212827D01*
Y213004D01*
Y213181D01*
X417432D01*
Y213358D01*
X417609D01*
Y213536D01*
Y213713D01*
Y213890D01*
X417432D01*
Y214068D01*
X417609D01*
Y214245D01*
Y214422D01*
Y214599D01*
X417432D01*
Y214776D01*
X417609D01*
Y214954D01*
X410341D01*
Y214776D01*
Y214599D01*
Y214422D01*
Y214245D01*
Y214068D01*
Y213890D01*
Y213713D01*
Y213536D01*
Y213358D01*
Y213181D01*
Y213004D01*
Y212827D01*
Y212649D01*
Y212472D01*
Y212295D01*
Y212118D01*
Y211940D01*
Y211763D01*
Y211586D01*
Y211408D01*
Y211231D01*
Y211054D01*
Y210877D01*
Y210699D01*
Y210522D01*
Y210345D01*
Y210168D01*
Y209990D01*
Y209813D01*
Y209636D01*
Y209459D01*
Y209281D01*
Y209104D01*
Y208927D01*
Y208750D01*
Y208572D01*
Y208395D01*
Y208218D01*
Y208040D01*
Y207863D01*
Y207686D01*
Y207509D01*
Y207331D01*
Y207154D01*
Y206977D01*
Y206800D01*
Y206622D01*
Y206445D01*
Y206268D01*
Y206091D01*
Y205913D01*
Y205736D01*
Y205559D01*
Y205381D01*
Y205204D01*
Y205027D01*
X404669D01*
Y205204D01*
Y205381D01*
Y205559D01*
Y205736D01*
Y205913D01*
Y206091D01*
Y206268D01*
Y206445D01*
Y206622D01*
Y206800D01*
Y206977D01*
Y207154D01*
Y207331D01*
Y207509D01*
Y207686D01*
Y207863D01*
Y208040D01*
Y208218D01*
Y208395D01*
Y208572D01*
Y208750D01*
Y208927D01*
Y209104D01*
Y209281D01*
Y209459D01*
Y209636D01*
Y209813D01*
Y209990D01*
Y210168D01*
Y210345D01*
Y210522D01*
Y210699D01*
Y210877D01*
Y211054D01*
Y211231D01*
Y211408D01*
Y211586D01*
Y211763D01*
Y211940D01*
Y212118D01*
Y212295D01*
Y212472D01*
Y212649D01*
Y212827D01*
Y213004D01*
Y213181D01*
Y213358D01*
Y213536D01*
Y213713D01*
Y213890D01*
Y214068D01*
Y214245D01*
Y214422D01*
Y214599D01*
Y214776D01*
Y214954D01*
X398110D01*
Y215131D01*
Y215308D01*
Y215486D01*
Y215663D01*
Y215840D01*
Y216017D01*
Y216195D01*
Y216372D01*
Y216549D01*
Y216726D01*
Y216904D01*
Y217081D01*
Y217258D01*
Y217436D01*
Y217613D01*
Y217790D01*
Y217967D01*
X398287D01*
Y218144D01*
Y218322D01*
Y218499D01*
X398464D01*
Y218676D01*
Y218854D01*
X398642D01*
Y219031D01*
X398819D01*
Y219208D01*
Y219385D01*
X398996D01*
Y219563D01*
X399173D01*
Y219740D01*
X399528D01*
Y219917D01*
X399705D01*
Y220094D01*
X400060D01*
Y220272D01*
X400592D01*
Y220449D01*
X433740D01*
Y220272D01*
D02*
G37*
G36*
X462102Y204673D02*
X462279D01*
Y204495D01*
X462811D01*
Y204318D01*
X462634D01*
Y204141D01*
X462811D01*
Y203963D01*
X462989D01*
Y203786D01*
X462811D01*
Y203609D01*
X462989D01*
Y203432D01*
Y203254D01*
Y203077D01*
X462811D01*
Y202900D01*
X462989D01*
Y202723D01*
Y202545D01*
Y202368D01*
X462811D01*
Y202191D01*
X462989D01*
Y202013D01*
Y201836D01*
Y201659D01*
X462811D01*
Y201482D01*
X462989D01*
Y201304D01*
Y201127D01*
Y200950D01*
X462811D01*
Y200773D01*
X462989D01*
Y200595D01*
X462811D01*
Y200418D01*
X462634D01*
Y200241D01*
Y200064D01*
X462279D01*
Y199886D01*
X462102D01*
Y199709D01*
X461925D01*
Y199886D01*
X461748D01*
Y199709D01*
X461570D01*
Y199886D01*
X461393D01*
Y199709D01*
X461216D01*
Y199886D01*
X461039D01*
Y199709D01*
X460861D01*
Y199886D01*
X460684D01*
Y199709D01*
X460507D01*
Y199886D01*
X460330D01*
Y200064D01*
X459798D01*
Y200241D01*
Y200418D01*
X459621D01*
Y200595D01*
Y200773D01*
X459443D01*
Y200950D01*
X459621D01*
Y201127D01*
Y201304D01*
Y201482D01*
X459443D01*
Y201659D01*
X459621D01*
Y201836D01*
X459443D01*
Y202013D01*
X459621D01*
Y202191D01*
X459443D01*
Y202368D01*
X459621D01*
Y202545D01*
Y202723D01*
Y202900D01*
X459443D01*
Y203077D01*
X459621D01*
Y203254D01*
X459443D01*
Y203432D01*
X459621D01*
Y203609D01*
X459443D01*
Y203786D01*
X459621D01*
Y203963D01*
Y204141D01*
Y204318D01*
X459798D01*
Y204495D01*
X459975D01*
Y204673D01*
X460152D01*
Y204850D01*
X460330D01*
Y204673D01*
X460507D01*
Y204850D01*
X462102D01*
Y204673D01*
D02*
G37*
G36*
X429663Y214068D02*
Y213890D01*
Y213713D01*
Y213536D01*
Y213358D01*
Y213181D01*
Y213004D01*
Y212827D01*
Y212649D01*
Y212472D01*
Y212295D01*
Y212118D01*
Y211940D01*
Y211763D01*
Y211586D01*
Y211408D01*
Y211231D01*
Y211054D01*
Y210877D01*
Y210699D01*
Y210522D01*
Y210345D01*
Y210168D01*
Y209990D01*
Y209813D01*
Y209636D01*
Y209459D01*
Y209281D01*
Y209104D01*
Y208927D01*
Y208750D01*
Y208572D01*
Y208395D01*
Y208218D01*
Y208040D01*
Y207863D01*
Y207686D01*
Y207509D01*
Y207331D01*
Y207154D01*
Y206977D01*
Y206800D01*
Y206622D01*
Y206445D01*
Y206268D01*
Y206091D01*
Y205913D01*
Y205736D01*
Y205559D01*
Y205381D01*
Y205204D01*
Y205027D01*
Y204850D01*
Y204673D01*
Y204495D01*
Y204318D01*
X436222D01*
Y204141D01*
Y203963D01*
Y203786D01*
Y203609D01*
Y203432D01*
Y203254D01*
Y203077D01*
Y202900D01*
Y202723D01*
Y202545D01*
Y202368D01*
Y202191D01*
Y202013D01*
Y201836D01*
Y201659D01*
Y201482D01*
Y201304D01*
Y201127D01*
Y200950D01*
Y200773D01*
Y200595D01*
Y200418D01*
Y200241D01*
Y200064D01*
Y199886D01*
Y199709D01*
Y199532D01*
Y199355D01*
Y199177D01*
Y199000D01*
Y198823D01*
Y198645D01*
Y198468D01*
Y198291D01*
Y198114D01*
Y197936D01*
Y197759D01*
Y197582D01*
Y197405D01*
Y197227D01*
Y197050D01*
Y196873D01*
Y196696D01*
X435867D01*
Y196518D01*
X435690D01*
Y196341D01*
X435513D01*
Y196164D01*
X435335D01*
Y195986D01*
X435158D01*
Y195809D01*
X434981D01*
Y195632D01*
X434803D01*
Y195455D01*
X434626D01*
Y195277D01*
X434449D01*
Y195100D01*
X434272D01*
Y194923D01*
X433917D01*
Y194746D01*
X433740D01*
Y194568D01*
X433563D01*
Y194391D01*
X433385D01*
Y194214D01*
X433208D01*
Y194037D01*
X433031D01*
Y193859D01*
X432676D01*
Y193682D01*
X432499D01*
Y193505D01*
X432322D01*
Y193327D01*
X431967D01*
Y193150D01*
X431790D01*
Y192973D01*
X431613D01*
Y192796D01*
X431258D01*
Y192619D01*
X431081D01*
Y192441D01*
X430726D01*
Y192264D01*
X430372D01*
Y192087D01*
X430017D01*
Y191909D01*
X429840D01*
Y191732D01*
X429308D01*
Y191555D01*
X428954D01*
Y191378D01*
X428245D01*
Y191200D01*
X427358D01*
Y191023D01*
X426118D01*
Y191200D01*
X425231D01*
Y191378D01*
X424699D01*
Y191555D01*
X424345D01*
Y191732D01*
X423813D01*
Y191909D01*
X423459D01*
Y192087D01*
X423281D01*
Y192264D01*
X422927D01*
Y192441D01*
X422572D01*
Y192619D01*
X422395D01*
Y192796D01*
X422041D01*
Y192973D01*
X421863D01*
Y193150D01*
X421509D01*
Y193327D01*
X421331D01*
Y193505D01*
X421154D01*
Y193682D01*
X420977D01*
Y193859D01*
X420622D01*
Y194037D01*
X420445D01*
Y194214D01*
X420268D01*
Y194391D01*
X420091D01*
Y194568D01*
X419913D01*
Y194746D01*
X419559D01*
Y194923D01*
X419382D01*
Y195100D01*
X419204D01*
Y195277D01*
X419027D01*
Y195455D01*
X418850D01*
Y195632D01*
X418673D01*
Y195809D01*
X418495D01*
Y195986D01*
X418318D01*
Y196164D01*
X418141D01*
Y196341D01*
X417963D01*
Y196518D01*
X417786D01*
Y196696D01*
X417432D01*
Y196873D01*
X417254D01*
Y197050D01*
X417077D01*
Y197227D01*
X416900D01*
Y197405D01*
X416722D01*
Y197582D01*
X416545D01*
Y197759D01*
X416368D01*
Y197936D01*
X416191D01*
Y198114D01*
X416013D01*
Y198291D01*
X415836D01*
Y198468D01*
X415482D01*
Y198645D01*
X415304D01*
Y198823D01*
X415127D01*
Y199000D01*
X414950D01*
Y199177D01*
X414773D01*
Y199355D01*
X414595D01*
Y199532D01*
X414241D01*
Y199709D01*
X414064D01*
Y199886D01*
X413886D01*
Y200064D01*
X413709D01*
Y200241D01*
X413354D01*
Y200418D01*
X413177D01*
Y200595D01*
X412823D01*
Y200773D01*
X412645D01*
Y200950D01*
X412291D01*
Y201127D01*
X412114D01*
Y201304D01*
X411759D01*
Y201482D01*
X411405D01*
Y201659D01*
X411227D01*
Y201836D01*
X410696D01*
Y202013D01*
X410341D01*
Y202191D01*
X409986D01*
Y202368D01*
X409277D01*
Y202545D01*
X408568D01*
Y202723D01*
X406618D01*
Y202545D01*
X405732D01*
Y202368D01*
X405200D01*
Y202191D01*
X404669D01*
Y202013D01*
X404314D01*
Y201836D01*
X403960D01*
Y201659D01*
X403605D01*
Y201482D01*
X403251D01*
Y201304D01*
X402896D01*
Y201127D01*
X402719D01*
Y200950D01*
X402364D01*
Y200773D01*
X402187D01*
Y200595D01*
X401832D01*
Y200418D01*
X401655D01*
Y200241D01*
X401478D01*
Y200064D01*
X401123D01*
Y199886D01*
X400946D01*
Y199709D01*
X400769D01*
Y199532D01*
X400592D01*
Y199355D01*
X400237D01*
Y199177D01*
X400060D01*
Y199000D01*
X399883D01*
Y198823D01*
X399705D01*
Y198645D01*
X399528D01*
Y198468D01*
X399351D01*
Y198291D01*
X398996D01*
Y198114D01*
X398819D01*
Y197936D01*
X398642D01*
Y197759D01*
X398464D01*
Y197582D01*
X398287D01*
Y197405D01*
X398110D01*
Y197582D01*
Y197759D01*
Y197936D01*
Y198114D01*
Y198291D01*
Y198468D01*
Y198645D01*
Y198823D01*
Y199000D01*
Y199177D01*
Y199355D01*
Y199532D01*
Y199709D01*
Y199886D01*
Y200064D01*
Y200241D01*
Y200418D01*
Y200595D01*
Y200773D01*
Y200950D01*
Y201127D01*
Y201304D01*
Y201482D01*
Y201659D01*
Y201836D01*
Y202013D01*
Y202191D01*
Y202368D01*
Y202545D01*
Y202723D01*
Y202900D01*
Y203077D01*
Y203254D01*
Y203432D01*
Y203609D01*
Y203786D01*
Y203963D01*
Y204141D01*
Y204318D01*
Y204495D01*
Y204673D01*
Y204850D01*
Y205027D01*
Y205204D01*
Y205381D01*
Y205559D01*
Y205736D01*
Y205913D01*
Y206091D01*
Y206268D01*
Y206445D01*
Y206622D01*
Y206800D01*
Y206977D01*
Y207154D01*
Y207331D01*
Y207509D01*
Y207686D01*
Y207863D01*
Y208040D01*
Y208218D01*
Y208395D01*
Y208572D01*
Y208750D01*
Y208927D01*
Y209104D01*
Y209281D01*
Y209459D01*
Y209636D01*
Y209813D01*
Y209990D01*
Y210168D01*
Y210345D01*
Y210522D01*
Y210699D01*
Y210877D01*
Y211054D01*
Y211231D01*
Y211408D01*
Y211586D01*
Y211763D01*
Y211940D01*
Y212118D01*
Y212295D01*
Y212472D01*
Y212649D01*
Y212827D01*
Y213004D01*
Y213181D01*
Y213358D01*
Y213536D01*
Y213713D01*
Y213890D01*
Y214068D01*
Y214245D01*
X403960D01*
Y214068D01*
Y213890D01*
Y213713D01*
Y213536D01*
Y213358D01*
Y213181D01*
Y213004D01*
Y212827D01*
Y212649D01*
Y212472D01*
Y212295D01*
Y212118D01*
Y211940D01*
Y211763D01*
Y211586D01*
Y211408D01*
Y211231D01*
Y211054D01*
Y210877D01*
Y210699D01*
Y210522D01*
Y210345D01*
Y210168D01*
Y209990D01*
Y209813D01*
Y209636D01*
Y209459D01*
Y209281D01*
Y209104D01*
Y208927D01*
Y208750D01*
Y208572D01*
Y208395D01*
Y208218D01*
Y208040D01*
Y207863D01*
Y207686D01*
Y207509D01*
Y207331D01*
Y207154D01*
Y206977D01*
Y206800D01*
Y206622D01*
Y206445D01*
Y206268D01*
Y206091D01*
Y205913D01*
Y205736D01*
Y205559D01*
Y205381D01*
Y205204D01*
Y205027D01*
Y204850D01*
Y204673D01*
Y204495D01*
Y204318D01*
X411050D01*
Y204495D01*
Y204673D01*
Y204850D01*
Y205027D01*
Y205204D01*
Y205381D01*
Y205559D01*
Y205736D01*
Y205913D01*
Y206091D01*
Y206268D01*
Y206445D01*
Y206622D01*
Y206800D01*
Y206977D01*
Y207154D01*
Y207331D01*
Y207509D01*
Y207686D01*
Y207863D01*
Y208040D01*
Y208218D01*
Y208395D01*
Y208572D01*
Y208750D01*
Y208927D01*
Y209104D01*
Y209281D01*
Y209459D01*
Y209636D01*
Y209813D01*
Y209990D01*
Y210168D01*
Y210345D01*
Y210522D01*
Y210699D01*
Y210877D01*
Y211054D01*
Y211231D01*
Y211408D01*
Y211586D01*
Y211763D01*
Y211940D01*
Y212118D01*
Y212295D01*
Y212472D01*
Y212649D01*
Y212827D01*
Y213004D01*
Y213181D01*
Y213358D01*
Y213536D01*
Y213713D01*
Y213890D01*
Y214068D01*
Y214245D01*
X416900D01*
Y214068D01*
Y213890D01*
Y213713D01*
Y213536D01*
Y213358D01*
Y213181D01*
Y213004D01*
Y212827D01*
Y212649D01*
Y212472D01*
Y212295D01*
Y212118D01*
Y211940D01*
Y211763D01*
Y211586D01*
Y211408D01*
Y211231D01*
Y211054D01*
Y210877D01*
Y210699D01*
Y210522D01*
Y210345D01*
Y210168D01*
Y209990D01*
Y209813D01*
Y209636D01*
Y209459D01*
Y209281D01*
Y209104D01*
Y208927D01*
Y208750D01*
Y208572D01*
Y208395D01*
Y208218D01*
Y208040D01*
Y207863D01*
Y207686D01*
Y207509D01*
Y207331D01*
Y207154D01*
Y206977D01*
Y206800D01*
Y206622D01*
Y206445D01*
Y206268D01*
Y206091D01*
Y205913D01*
Y205736D01*
Y205559D01*
Y205381D01*
Y205204D01*
Y205027D01*
Y204850D01*
Y204673D01*
Y204495D01*
Y204318D01*
X423990D01*
Y204495D01*
Y204673D01*
Y204850D01*
Y205027D01*
Y205204D01*
Y205381D01*
Y205559D01*
Y205736D01*
Y205913D01*
Y206091D01*
Y206268D01*
Y206445D01*
Y206622D01*
Y206800D01*
Y206977D01*
Y207154D01*
Y207331D01*
Y207509D01*
Y207686D01*
Y207863D01*
Y208040D01*
Y208218D01*
Y208395D01*
Y208572D01*
Y208750D01*
Y208927D01*
Y209104D01*
Y209281D01*
Y209459D01*
Y209636D01*
Y209813D01*
Y209990D01*
Y210168D01*
Y210345D01*
Y210522D01*
Y210699D01*
Y210877D01*
Y211054D01*
Y211231D01*
Y211408D01*
Y211586D01*
Y211763D01*
Y211940D01*
Y212118D01*
Y212295D01*
Y212472D01*
Y212649D01*
Y212827D01*
Y213004D01*
Y213181D01*
Y213358D01*
Y213536D01*
Y213713D01*
Y213890D01*
Y214068D01*
Y214245D01*
X429663D01*
Y214068D01*
D02*
G37*
G36*
X466711Y204673D02*
X466888D01*
Y204495D01*
X467066D01*
Y204318D01*
X467243D01*
Y204141D01*
X467420D01*
Y203963D01*
X467243D01*
Y203786D01*
X467420D01*
Y203609D01*
X467243D01*
Y203786D01*
X467066D01*
Y203609D01*
X466888D01*
Y203786D01*
X466711D01*
Y203963D01*
X466534D01*
Y204141D01*
X466357D01*
Y204318D01*
X466179D01*
Y204141D01*
X466002D01*
Y204318D01*
X465470D01*
Y204141D01*
X465293D01*
Y203963D01*
X465116D01*
Y203786D01*
X465293D01*
Y203609D01*
X465116D01*
Y203432D01*
X465293D01*
Y203254D01*
X465116D01*
Y203077D01*
X465293D01*
Y202900D01*
X465116D01*
Y202723D01*
Y202545D01*
Y202368D01*
X465293D01*
Y202191D01*
X465116D01*
Y202013D01*
X465293D01*
Y201836D01*
X465116D01*
Y201659D01*
X465293D01*
Y201482D01*
X465116D01*
Y201304D01*
Y201127D01*
Y200950D01*
X465293D01*
Y200773D01*
X465116D01*
Y200595D01*
X465293D01*
Y200418D01*
X465470D01*
Y200241D01*
X465648D01*
Y200418D01*
X465825D01*
Y200241D01*
X466002D01*
Y200418D01*
X466179D01*
Y200595D01*
X466357D01*
Y200773D01*
X466179D01*
Y200950D01*
X466357D01*
Y201127D01*
X466179D01*
Y201304D01*
X466357D01*
Y201482D01*
X466179D01*
Y201659D01*
X466357D01*
Y201836D01*
X466179D01*
Y202013D01*
X465648D01*
Y202191D01*
Y202368D01*
Y202545D01*
X465825D01*
Y202723D01*
X466002D01*
Y202545D01*
X466179D01*
Y202723D01*
X466357D01*
Y202545D01*
X466534D01*
Y202723D01*
X466711D01*
Y202545D01*
X466888D01*
Y202723D01*
X467066D01*
Y202545D01*
X467243D01*
Y202368D01*
X467420D01*
Y202191D01*
X467243D01*
Y202013D01*
X467420D01*
Y201836D01*
X467243D01*
Y201659D01*
X467420D01*
Y201482D01*
X467243D01*
Y201304D01*
X467420D01*
Y201127D01*
X467243D01*
Y200950D01*
X467420D01*
Y200773D01*
X467243D01*
Y200595D01*
X467420D01*
Y200418D01*
X467243D01*
Y200241D01*
X467066D01*
Y200064D01*
X466888D01*
Y199886D01*
X466357D01*
Y199709D01*
X466179D01*
Y199886D01*
X466002D01*
Y199709D01*
X465825D01*
Y199886D01*
X465648D01*
Y199709D01*
X465470D01*
Y199886D01*
X465293D01*
Y199709D01*
X465116D01*
Y199886D01*
X464938D01*
Y199709D01*
X464761D01*
Y199886D01*
X464584D01*
Y200064D01*
X464407D01*
Y200241D01*
X464229D01*
Y200418D01*
X464052D01*
Y200595D01*
X464229D01*
Y200773D01*
X464052D01*
Y200950D01*
Y201127D01*
Y201304D01*
Y201482D01*
Y201659D01*
Y201836D01*
Y202013D01*
Y202191D01*
Y202368D01*
Y202545D01*
Y202723D01*
Y202900D01*
Y203077D01*
Y203254D01*
Y203432D01*
Y203609D01*
Y203786D01*
Y203963D01*
Y204141D01*
X464229D01*
Y204318D01*
X464407D01*
Y204495D01*
X464584D01*
Y204673D01*
X464761D01*
Y204850D01*
X466711D01*
Y204673D01*
D02*
G37*
G36*
X450225D02*
Y204495D01*
Y204318D01*
Y204141D01*
Y203963D01*
Y203786D01*
Y203609D01*
Y203432D01*
Y203254D01*
Y203077D01*
Y202900D01*
Y202723D01*
Y202545D01*
Y202368D01*
Y202191D01*
Y202013D01*
Y201836D01*
Y201659D01*
Y201482D01*
Y201304D01*
Y201127D01*
Y200950D01*
Y200773D01*
Y200595D01*
Y200418D01*
Y200241D01*
Y200064D01*
Y199886D01*
X450048D01*
Y199709D01*
X449871D01*
Y199886D01*
X449694D01*
Y200064D01*
X449516D01*
Y200241D01*
X449339D01*
Y200418D01*
X449162D01*
Y200595D01*
X448985D01*
Y200773D01*
X448807D01*
Y200950D01*
X448630D01*
Y201127D01*
X448453D01*
Y201304D01*
X448276D01*
Y201482D01*
X448098D01*
Y201659D01*
X447921D01*
Y201836D01*
X447567D01*
Y202013D01*
X447389D01*
Y202191D01*
X447212D01*
Y202368D01*
X447035D01*
Y202545D01*
X446858D01*
Y202368D01*
Y202191D01*
Y202013D01*
Y201836D01*
Y201659D01*
Y201482D01*
Y201304D01*
Y201127D01*
Y200950D01*
Y200773D01*
Y200595D01*
Y200418D01*
Y200241D01*
Y200064D01*
Y199886D01*
Y199709D01*
X446680D01*
Y199886D01*
X446503D01*
Y199709D01*
X446326D01*
Y199886D01*
Y200064D01*
Y200241D01*
Y200418D01*
Y200595D01*
X446503D01*
Y200773D01*
X446326D01*
Y200950D01*
Y201127D01*
Y201304D01*
Y201482D01*
Y201659D01*
Y201836D01*
Y202013D01*
X446503D01*
Y202191D01*
X446326D01*
Y202368D01*
Y202545D01*
Y202723D01*
Y202900D01*
Y203077D01*
Y203254D01*
Y203432D01*
X446503D01*
Y203609D01*
X446326D01*
Y203786D01*
Y203963D01*
Y204141D01*
Y204318D01*
Y204495D01*
Y204673D01*
Y204850D01*
X446680D01*
Y204673D01*
Y204495D01*
X447035D01*
Y204318D01*
Y204141D01*
X447567D01*
Y203963D01*
Y203786D01*
X447921D01*
Y203609D01*
Y203432D01*
X448276D01*
Y203254D01*
X448453D01*
Y203077D01*
X448630D01*
Y202900D01*
X448807D01*
Y202723D01*
X448985D01*
Y202545D01*
X449162D01*
Y202368D01*
X449339D01*
Y202191D01*
X449516D01*
Y202013D01*
X449694D01*
Y202191D01*
X449516D01*
Y202368D01*
X449694D01*
Y202545D01*
X449516D01*
Y202723D01*
X449694D01*
Y202900D01*
X449516D01*
Y203077D01*
X449694D01*
Y203254D01*
X449516D01*
Y203432D01*
X449694D01*
Y203609D01*
X449516D01*
Y203786D01*
X449694D01*
Y203963D01*
X449516D01*
Y204141D01*
X449694D01*
Y204318D01*
X449516D01*
Y204495D01*
X449694D01*
Y204673D01*
X449516D01*
Y204850D01*
X450225D01*
Y204673D01*
D02*
G37*
G36*
X456784D02*
Y204495D01*
Y204318D01*
X456961D01*
Y204141D01*
X456784D01*
Y203963D01*
Y203786D01*
Y203609D01*
Y203432D01*
Y203254D01*
Y203077D01*
Y202900D01*
X456961D01*
Y202723D01*
X456784D01*
Y202545D01*
Y202368D01*
Y202191D01*
Y202013D01*
Y201836D01*
Y201659D01*
Y201482D01*
X456961D01*
Y201304D01*
X456784D01*
Y201127D01*
Y200950D01*
Y200773D01*
Y200595D01*
Y200418D01*
X456961D01*
Y200241D01*
X457139D01*
Y200418D01*
X457316D01*
Y200241D01*
X457493D01*
Y200418D01*
X457671D01*
Y200241D01*
X457848D01*
Y200418D01*
X458025D01*
Y200241D01*
X458202D01*
Y200418D01*
X458380D01*
Y200241D01*
X458557D01*
Y200064D01*
X458380D01*
Y199886D01*
X458557D01*
Y199709D01*
X458380D01*
Y199886D01*
X458202D01*
Y199709D01*
X458025D01*
Y199886D01*
X457848D01*
Y199709D01*
X457671D01*
Y199886D01*
X457493D01*
Y199709D01*
X457316D01*
Y199886D01*
X457139D01*
Y199709D01*
X456961D01*
Y199886D01*
X456784D01*
Y199709D01*
X456607D01*
Y199886D01*
X456430D01*
Y199709D01*
X456252D01*
Y199886D01*
X456075D01*
Y199709D01*
X455898D01*
Y199886D01*
X455721D01*
Y200064D01*
Y200241D01*
Y200418D01*
X455543D01*
Y200595D01*
X455721D01*
Y200773D01*
Y200950D01*
Y201127D01*
X455543D01*
Y201304D01*
X455721D01*
Y201482D01*
Y201659D01*
Y201836D01*
X455543D01*
Y202013D01*
X455721D01*
Y202191D01*
Y202368D01*
Y202545D01*
X455543D01*
Y202723D01*
X455721D01*
Y202900D01*
Y203077D01*
Y203254D01*
X455543D01*
Y203432D01*
X455721D01*
Y203609D01*
Y203786D01*
Y203963D01*
X455543D01*
Y204141D01*
X455721D01*
Y204318D01*
Y204495D01*
Y204673D01*
X455543D01*
Y204850D01*
X456784D01*
Y204673D01*
D02*
G37*
G36*
X453948D02*
X454125D01*
Y204495D01*
X454303D01*
Y204318D01*
X454480D01*
Y204141D01*
X454657D01*
Y203963D01*
X454480D01*
Y203786D01*
X454657D01*
Y203609D01*
X454480D01*
Y203432D01*
X454657D01*
Y203254D01*
X454480D01*
Y203077D01*
X454657D01*
Y202900D01*
X454480D01*
Y202723D01*
X454657D01*
Y202545D01*
X454480D01*
Y202368D01*
X454657D01*
Y202191D01*
X454480D01*
Y202013D01*
X454657D01*
Y201836D01*
X454480D01*
Y201659D01*
X454657D01*
Y201482D01*
X454480D01*
Y201304D01*
X454657D01*
Y201127D01*
X454480D01*
Y200950D01*
X454657D01*
Y200773D01*
X454480D01*
Y200595D01*
X454657D01*
Y200418D01*
X454480D01*
Y200241D01*
X454657D01*
Y200064D01*
X454480D01*
Y199886D01*
X454657D01*
Y199709D01*
X454480D01*
Y199886D01*
X454303D01*
Y199709D01*
X454125D01*
Y199886D01*
X453948D01*
Y199709D01*
X453771D01*
Y199886D01*
X453593D01*
Y200064D01*
X453416D01*
Y200241D01*
X453593D01*
Y200418D01*
X453416D01*
Y200595D01*
X453593D01*
Y200773D01*
X453416D01*
Y200950D01*
X453593D01*
Y201127D01*
X453416D01*
Y201304D01*
X453593D01*
Y201482D01*
X453416D01*
Y201659D01*
X453593D01*
Y201836D01*
X453416D01*
Y202013D01*
X452884D01*
Y202191D01*
X452707D01*
Y202013D01*
X452884D01*
Y201836D01*
X452707D01*
Y202013D01*
X452530D01*
Y201836D01*
X452353D01*
Y201659D01*
X452530D01*
Y201482D01*
X452353D01*
Y201304D01*
X452530D01*
Y201127D01*
X452353D01*
Y200950D01*
X452530D01*
Y200773D01*
X452353D01*
Y200595D01*
X452530D01*
Y200418D01*
X452353D01*
Y200241D01*
X452530D01*
Y200064D01*
X452353D01*
Y199886D01*
X452175D01*
Y199709D01*
X451998D01*
Y199886D01*
X451821D01*
Y199709D01*
X451644D01*
Y199886D01*
X451466D01*
Y200064D01*
X451289D01*
Y200241D01*
Y200418D01*
Y200595D01*
X451466D01*
Y200773D01*
X451289D01*
Y200950D01*
Y201127D01*
Y201304D01*
X451466D01*
Y201482D01*
X451289D01*
Y201659D01*
Y201836D01*
Y202013D01*
X451466D01*
Y202191D01*
X451289D01*
Y202368D01*
Y202545D01*
Y202723D01*
X451466D01*
Y202900D01*
X451289D01*
Y203077D01*
Y203254D01*
Y203432D01*
X451466D01*
Y203609D01*
X451289D01*
Y203786D01*
Y203963D01*
Y204141D01*
X451466D01*
Y204318D01*
X451644D01*
Y204495D01*
X451821D01*
Y204673D01*
X451998D01*
Y204850D01*
X453948D01*
Y204673D01*
D02*
G37*
G36*
X443667Y197936D02*
X443844D01*
Y197759D01*
X444376D01*
Y197582D01*
Y197405D01*
X444553D01*
Y197227D01*
Y197050D01*
X444730D01*
Y196873D01*
Y196696D01*
Y196518D01*
X444908D01*
Y196341D01*
X444730D01*
Y196164D01*
X443844D01*
Y196341D01*
Y196518D01*
Y196696D01*
X443667D01*
Y196873D01*
X443489D01*
Y197050D01*
X443312D01*
Y197227D01*
X442780D01*
Y197050D01*
X442603D01*
Y197227D01*
X441717D01*
Y197050D01*
X441539D01*
Y197227D01*
X441362D01*
Y197050D01*
X441539D01*
Y196873D01*
X441008D01*
Y196696D01*
X441185D01*
Y196518D01*
X441008D01*
Y196341D01*
Y196164D01*
Y195986D01*
Y195809D01*
Y195632D01*
Y195455D01*
Y195277D01*
Y195100D01*
Y194923D01*
Y194746D01*
Y194568D01*
Y194391D01*
Y194214D01*
Y194037D01*
Y193859D01*
Y193682D01*
Y193505D01*
Y193327D01*
Y193150D01*
Y192973D01*
Y192796D01*
Y192619D01*
Y192441D01*
Y192264D01*
Y192087D01*
Y191909D01*
Y191732D01*
Y191555D01*
Y191378D01*
Y191200D01*
Y191023D01*
X441185D01*
Y190846D01*
Y190669D01*
X441539D01*
Y190491D01*
X441717D01*
Y190314D01*
X441894D01*
Y190491D01*
X442071D01*
Y190314D01*
X442249D01*
Y190491D01*
X442426D01*
Y190314D01*
X442603D01*
Y190491D01*
X442780D01*
Y190314D01*
X442958D01*
Y190491D01*
X443489D01*
Y190669D01*
X443667D01*
Y190846D01*
X443844D01*
Y191023D01*
X443667D01*
Y191200D01*
X443844D01*
Y191378D01*
X444730D01*
Y191200D01*
Y191023D01*
Y190846D01*
Y190669D01*
Y190491D01*
X444553D01*
Y190314D01*
X444376D01*
Y190137D01*
X444199D01*
Y189960D01*
X444376D01*
Y189782D01*
X443844D01*
Y189605D01*
X443667D01*
Y189428D01*
X443489D01*
Y189605D01*
X443312D01*
Y189428D01*
X443135D01*
Y189605D01*
X442958D01*
Y189428D01*
X442426D01*
Y189605D01*
X442249D01*
Y189428D01*
X441717D01*
Y189605D01*
X441539D01*
Y189428D01*
X441008D01*
Y189605D01*
X440831D01*
Y189428D01*
X440653D01*
Y189605D01*
X440476D01*
Y189428D01*
X440299D01*
Y189605D01*
X440121D01*
Y189782D01*
X439944D01*
Y189960D01*
X439767D01*
Y190137D01*
X439412D01*
Y190314D01*
Y190491D01*
X439235D01*
Y190669D01*
X439058D01*
Y190846D01*
Y191023D01*
Y191200D01*
Y191378D01*
Y191555D01*
X438881D01*
Y191732D01*
X439058D01*
Y191909D01*
Y192087D01*
Y192264D01*
X438881D01*
Y192441D01*
X439058D01*
Y192619D01*
Y192796D01*
Y192973D01*
X438881D01*
Y193150D01*
X439058D01*
Y193327D01*
Y193505D01*
Y193682D01*
X438881D01*
Y193859D01*
X439058D01*
Y194037D01*
Y194214D01*
Y194391D01*
X438881D01*
Y194568D01*
X439058D01*
Y194746D01*
Y194923D01*
Y195100D01*
X438881D01*
Y195277D01*
X439058D01*
Y195455D01*
Y195632D01*
Y195809D01*
X438881D01*
Y195986D01*
X439058D01*
Y196164D01*
Y196341D01*
Y196518D01*
Y196696D01*
Y196873D01*
X439235D01*
Y197050D01*
X439412D01*
Y197227D01*
Y197405D01*
Y197582D01*
X439590D01*
Y197759D01*
X440121D01*
Y197936D01*
X440299D01*
Y198114D01*
X443667D01*
Y197936D01*
D02*
G37*
G36*
X478765Y194391D02*
X478942D01*
Y194214D01*
X479297D01*
Y194037D01*
Y193859D01*
X479474D01*
Y193682D01*
Y193505D01*
Y193327D01*
Y193150D01*
Y192973D01*
Y192796D01*
Y192619D01*
X479297D01*
Y192441D01*
Y192264D01*
X478942D01*
Y192087D01*
X479119D01*
Y191909D01*
X479297D01*
Y191732D01*
X479474D01*
Y191555D01*
X479651D01*
Y191378D01*
X479474D01*
Y191200D01*
Y191023D01*
Y190846D01*
Y190669D01*
Y190491D01*
Y190314D01*
Y190137D01*
X479651D01*
Y189960D01*
X479474D01*
Y189782D01*
Y189605D01*
Y189428D01*
X479297D01*
Y189605D01*
X479119D01*
Y189428D01*
X478588D01*
Y189605D01*
X478410D01*
Y189782D01*
X478233D01*
Y189960D01*
X478410D01*
Y190137D01*
Y190314D01*
Y190491D01*
X478233D01*
Y190669D01*
X478410D01*
Y190846D01*
Y191023D01*
Y191200D01*
X478233D01*
Y191378D01*
X478410D01*
Y191555D01*
X477879D01*
Y191732D01*
X477701D01*
Y191555D01*
X477524D01*
Y191732D01*
X477347D01*
Y191555D01*
X477170D01*
Y191378D01*
X477347D01*
Y191200D01*
X477170D01*
Y191023D01*
X477347D01*
Y190846D01*
X477170D01*
Y190669D01*
X477347D01*
Y190491D01*
X477170D01*
Y190314D01*
X477347D01*
Y190137D01*
X477170D01*
Y189960D01*
X477347D01*
Y189782D01*
X477170D01*
Y189605D01*
X477347D01*
Y189428D01*
X477170D01*
Y189605D01*
X476992D01*
Y189428D01*
X476461D01*
Y189605D01*
X476283D01*
Y189782D01*
X476106D01*
Y189960D01*
X476283D01*
Y190137D01*
X476106D01*
Y190314D01*
X476283D01*
Y190491D01*
X476106D01*
Y190669D01*
X476283D01*
Y190846D01*
X476106D01*
Y191023D01*
X476283D01*
Y191200D01*
X476106D01*
Y191378D01*
X476283D01*
Y191555D01*
X476106D01*
Y191732D01*
X476283D01*
Y191909D01*
X476106D01*
Y192087D01*
X476283D01*
Y192264D01*
X476106D01*
Y192441D01*
X476283D01*
Y192619D01*
X476106D01*
Y192796D01*
X476283D01*
Y192973D01*
X476106D01*
Y193150D01*
X476283D01*
Y193327D01*
X476106D01*
Y193505D01*
X476283D01*
Y193682D01*
X476106D01*
Y193859D01*
X476283D01*
Y194037D01*
X476106D01*
Y194214D01*
X476283D01*
Y194391D01*
X476106D01*
Y194568D01*
X476283D01*
Y194391D01*
X476461D01*
Y194568D01*
X476638D01*
Y194391D01*
X476815D01*
Y194568D01*
X476992D01*
Y194391D01*
X477170D01*
Y194568D01*
X477347D01*
Y194391D01*
X477524D01*
Y194568D01*
X477701D01*
Y194391D01*
X477879D01*
Y194568D01*
X478056D01*
Y194391D01*
X478233D01*
Y194568D01*
X478410D01*
Y194391D01*
X478588D01*
Y194568D01*
X478765D01*
Y194391D01*
D02*
G37*
G36*
X474156D02*
X474688D01*
Y194214D01*
X474865D01*
Y194037D01*
X475042D01*
Y193859D01*
Y193682D01*
Y193505D01*
X475220D01*
Y193327D01*
X475042D01*
Y193150D01*
X475220D01*
Y192973D01*
X475042D01*
Y192796D01*
X475220D01*
Y192619D01*
X475042D01*
Y192441D01*
X475220D01*
Y192264D01*
X475042D01*
Y192087D01*
X475220D01*
Y191909D01*
X475042D01*
Y191732D01*
X475220D01*
Y191555D01*
X475042D01*
Y191378D01*
X475220D01*
Y191200D01*
X475042D01*
Y191023D01*
X475220D01*
Y190846D01*
X475042D01*
Y190669D01*
X475220D01*
Y190491D01*
X475042D01*
Y190314D01*
X475220D01*
Y190137D01*
X475042D01*
Y189960D01*
X474865D01*
Y189782D01*
X474688D01*
Y189605D01*
X474511D01*
Y189428D01*
X474333D01*
Y189605D01*
X474156D01*
Y189428D01*
X473624D01*
Y189605D01*
X473447D01*
Y189428D01*
X472915D01*
Y189605D01*
X472738D01*
Y189428D01*
X472561D01*
Y189605D01*
X472383D01*
Y189782D01*
X471852D01*
Y189960D01*
X472029D01*
Y190137D01*
X471852D01*
Y190314D01*
Y190491D01*
Y190669D01*
X471674D01*
Y190846D01*
X471852D01*
Y191023D01*
X471674D01*
Y191200D01*
X471852D01*
Y191378D01*
X471674D01*
Y191555D01*
X471852D01*
Y191732D01*
Y191909D01*
Y192087D01*
X471674D01*
Y192264D01*
X471852D01*
Y192441D01*
X471674D01*
Y192619D01*
X471852D01*
Y192796D01*
X471674D01*
Y192973D01*
X471852D01*
Y193150D01*
X471674D01*
Y193327D01*
X471852D01*
Y193505D01*
Y193682D01*
Y193859D01*
X472029D01*
Y194037D01*
Y194214D01*
X472383D01*
Y194391D01*
X472561D01*
Y194568D01*
X472738D01*
Y194391D01*
X472915D01*
Y194568D01*
X473093D01*
Y194391D01*
X473270D01*
Y194568D01*
X473447D01*
Y194391D01*
X473624D01*
Y194568D01*
X473802D01*
Y194391D01*
X473979D01*
Y194568D01*
X474156D01*
Y194391D01*
D02*
G37*
G36*
X470965D02*
X471143D01*
Y194214D01*
X471320D01*
Y194037D01*
X471143D01*
Y193859D01*
X470965D01*
Y194037D01*
X470788D01*
Y193859D01*
X470611D01*
Y194037D01*
X470434D01*
Y193859D01*
X470256D01*
Y194037D01*
X470079D01*
Y193859D01*
X470256D01*
Y193682D01*
X470079D01*
Y193505D01*
X470256D01*
Y193327D01*
X470079D01*
Y193150D01*
X470256D01*
Y192973D01*
X470079D01*
Y192796D01*
X470256D01*
Y192619D01*
X470079D01*
Y192441D01*
X470256D01*
Y192264D01*
X470079D01*
Y192087D01*
X470256D01*
Y191909D01*
X470079D01*
Y191732D01*
X470256D01*
Y191555D01*
X470079D01*
Y191378D01*
X470256D01*
Y191200D01*
X470079D01*
Y191023D01*
X470256D01*
Y190846D01*
X470079D01*
Y190669D01*
X470256D01*
Y190491D01*
X470079D01*
Y190314D01*
X470256D01*
Y190137D01*
X470079D01*
Y189960D01*
X470256D01*
Y189782D01*
X470079D01*
Y189605D01*
X470256D01*
Y189428D01*
X470079D01*
Y189605D01*
X469902D01*
Y189428D01*
X469370D01*
Y189605D01*
X469193D01*
Y189428D01*
X469016D01*
Y189605D01*
Y189782D01*
Y189960D01*
Y190137D01*
Y190314D01*
Y190491D01*
Y190669D01*
X469193D01*
Y190846D01*
X469016D01*
Y191023D01*
Y191200D01*
Y191378D01*
Y191555D01*
Y191732D01*
Y191909D01*
Y192087D01*
X469193D01*
Y192264D01*
X469016D01*
Y192441D01*
Y192619D01*
Y192796D01*
Y192973D01*
Y193150D01*
Y193327D01*
Y193505D01*
X469193D01*
Y193682D01*
X469016D01*
Y193859D01*
X468838D01*
Y194037D01*
X468661D01*
Y193859D01*
X468484D01*
Y194037D01*
X468306D01*
Y193859D01*
X468129D01*
Y194037D01*
X467952D01*
Y194214D01*
Y194391D01*
Y194568D01*
X468129D01*
Y194391D01*
X468306D01*
Y194568D01*
X468484D01*
Y194391D01*
X468661D01*
Y194568D01*
X468838D01*
Y194391D01*
X469016D01*
Y194568D01*
X469193D01*
Y194391D01*
X469370D01*
Y194568D01*
X469547D01*
Y194391D01*
X469725D01*
Y194568D01*
X469902D01*
Y194391D01*
X470079D01*
Y194568D01*
X470256D01*
Y194391D01*
X470434D01*
Y194568D01*
X470611D01*
Y194391D01*
X470788D01*
Y194568D01*
X470965D01*
Y194391D01*
D02*
G37*
G36*
X466711D02*
X466888D01*
Y194214D01*
X467066D01*
Y194037D01*
X467243D01*
Y193859D01*
X467420D01*
Y193682D01*
X467243D01*
Y193505D01*
X467420D01*
Y193327D01*
X467243D01*
Y193150D01*
X467420D01*
Y192973D01*
X467243D01*
Y192796D01*
X467420D01*
Y192619D01*
X467243D01*
Y192441D01*
X467066D01*
Y192264D01*
X466888D01*
Y192087D01*
X467066D01*
Y191909D01*
X467243D01*
Y191732D01*
X467420D01*
Y191555D01*
X467243D01*
Y191378D01*
X467420D01*
Y191200D01*
X467243D01*
Y191023D01*
X467420D01*
Y190846D01*
X467243D01*
Y190669D01*
X467420D01*
Y190491D01*
X467243D01*
Y190314D01*
X467420D01*
Y190137D01*
X467243D01*
Y189960D01*
X467420D01*
Y189782D01*
X467243D01*
Y189605D01*
X467420D01*
Y189428D01*
X467243D01*
Y189605D01*
X467066D01*
Y189428D01*
X466534D01*
Y189605D01*
X466357D01*
Y189782D01*
X466179D01*
Y189960D01*
X466357D01*
Y190137D01*
X466179D01*
Y190314D01*
X466357D01*
Y190491D01*
X466179D01*
Y190669D01*
X466357D01*
Y190846D01*
X466179D01*
Y191023D01*
X466357D01*
Y191200D01*
X466179D01*
Y191378D01*
Y191555D01*
X465825D01*
Y191732D01*
X465293D01*
Y191555D01*
X465116D01*
Y191378D01*
Y191200D01*
Y191023D01*
X465293D01*
Y190846D01*
X465116D01*
Y190669D01*
X465293D01*
Y190491D01*
X465116D01*
Y190314D01*
X465293D01*
Y190137D01*
X465116D01*
Y189960D01*
Y189782D01*
Y189605D01*
X465293D01*
Y189428D01*
X465116D01*
Y189605D01*
X464938D01*
Y189428D01*
X464407D01*
Y189605D01*
X464229D01*
Y189428D01*
X464052D01*
Y189605D01*
Y189782D01*
Y189960D01*
Y190137D01*
Y190314D01*
Y190491D01*
Y190669D01*
Y190846D01*
Y191023D01*
Y191200D01*
Y191378D01*
Y191555D01*
Y191732D01*
Y191909D01*
Y192087D01*
Y192264D01*
Y192441D01*
Y192619D01*
Y192796D01*
Y192973D01*
Y193150D01*
Y193327D01*
Y193505D01*
Y193682D01*
Y193859D01*
Y194037D01*
Y194214D01*
Y194391D01*
Y194568D01*
X464229D01*
Y194391D01*
X464407D01*
Y194568D01*
X464584D01*
Y194391D01*
X464761D01*
Y194568D01*
X464938D01*
Y194391D01*
X465116D01*
Y194568D01*
X465293D01*
Y194391D01*
X465470D01*
Y194568D01*
X465648D01*
Y194391D01*
X465825D01*
Y194568D01*
X466002D01*
Y194391D01*
X466179D01*
Y194568D01*
X466357D01*
Y194391D01*
X466534D01*
Y194568D01*
X466711D01*
Y194391D01*
D02*
G37*
G36*
X462811D02*
X462989D01*
Y194214D01*
Y194037D01*
Y193859D01*
X462811D01*
Y194037D01*
X462634D01*
Y193859D01*
X462457D01*
Y194037D01*
X462279D01*
Y193859D01*
X462102D01*
Y194037D01*
X461925D01*
Y193859D01*
X461748D01*
Y194037D01*
X461570D01*
Y193859D01*
X461393D01*
Y194037D01*
X461216D01*
Y193859D01*
X461393D01*
Y193682D01*
X461216D01*
Y193505D01*
X461393D01*
Y193327D01*
X461216D01*
Y193150D01*
X461393D01*
Y192973D01*
X461216D01*
Y192796D01*
X461393D01*
Y192619D01*
X461216D01*
Y192441D01*
X461393D01*
Y192264D01*
X461925D01*
Y192087D01*
X462102D01*
Y192264D01*
X462279D01*
Y192087D01*
X462457D01*
Y191909D01*
X462279D01*
Y191732D01*
X462457D01*
Y191555D01*
X462279D01*
Y191732D01*
X462102D01*
Y191555D01*
X461925D01*
Y191732D01*
X461748D01*
Y191555D01*
X461570D01*
Y191732D01*
X461393D01*
Y191555D01*
X461216D01*
Y191378D01*
X461393D01*
Y191200D01*
X461216D01*
Y191023D01*
X461393D01*
Y190846D01*
X461216D01*
Y190669D01*
X461393D01*
Y190491D01*
X461216D01*
Y190314D01*
Y190137D01*
Y189960D01*
X461748D01*
Y190137D01*
X461925D01*
Y189960D01*
X462102D01*
Y190137D01*
X462279D01*
Y189960D01*
X462457D01*
Y190137D01*
X462634D01*
Y189960D01*
X462989D01*
Y189782D01*
Y189605D01*
X462811D01*
Y189428D01*
X462279D01*
Y189605D01*
X462102D01*
Y189428D01*
X461570D01*
Y189605D01*
X461393D01*
Y189428D01*
X460861D01*
Y189605D01*
X460684D01*
Y189428D01*
X460152D01*
Y189605D01*
Y189782D01*
Y189960D01*
Y190137D01*
Y190314D01*
Y190491D01*
Y190669D01*
Y190846D01*
Y191023D01*
Y191200D01*
Y191378D01*
Y191555D01*
Y191732D01*
Y191909D01*
Y192087D01*
Y192264D01*
Y192441D01*
Y192619D01*
Y192796D01*
Y192973D01*
Y193150D01*
Y193327D01*
Y193505D01*
Y193682D01*
Y193859D01*
Y194037D01*
Y194214D01*
Y194391D01*
Y194568D01*
X460330D01*
Y194391D01*
X460507D01*
Y194568D01*
X460684D01*
Y194391D01*
X460861D01*
Y194568D01*
X461039D01*
Y194391D01*
X461216D01*
Y194568D01*
X461393D01*
Y194391D01*
X461570D01*
Y194568D01*
X461748D01*
Y194391D01*
X461925D01*
Y194568D01*
X462102D01*
Y194391D01*
X462279D01*
Y194568D01*
X462457D01*
Y194391D01*
X462634D01*
Y194568D01*
X462811D01*
Y194391D01*
D02*
G37*
G36*
X458911D02*
X459089D01*
Y194214D01*
Y194037D01*
Y193859D01*
Y193682D01*
Y193505D01*
Y193327D01*
Y193150D01*
Y192973D01*
Y192796D01*
Y192619D01*
Y192441D01*
Y192264D01*
Y192087D01*
Y191909D01*
Y191732D01*
Y191555D01*
Y191378D01*
Y191200D01*
Y191023D01*
X458911D01*
Y190846D01*
Y190669D01*
Y190491D01*
X458734D01*
Y190314D01*
X458557D01*
Y190137D01*
X458380D01*
Y189960D01*
X458202D01*
Y189782D01*
X458025D01*
Y189605D01*
X457493D01*
Y189428D01*
X457316D01*
Y189605D01*
X457139D01*
Y189428D01*
X456607D01*
Y189605D01*
X456430D01*
Y189428D01*
X455898D01*
Y189605D01*
X455721D01*
Y189782D01*
X455543D01*
Y189960D01*
X455721D01*
Y190137D01*
Y190314D01*
Y190491D01*
X455543D01*
Y190669D01*
X455721D01*
Y190846D01*
Y191023D01*
Y191200D01*
X455543D01*
Y191378D01*
X455721D01*
Y191555D01*
Y191732D01*
Y191909D01*
X455543D01*
Y192087D01*
X455721D01*
Y192264D01*
Y192441D01*
Y192619D01*
X455543D01*
Y192796D01*
X455721D01*
Y192973D01*
Y193150D01*
Y193327D01*
X455543D01*
Y193505D01*
X455721D01*
Y193682D01*
Y193859D01*
Y194037D01*
X455543D01*
Y194214D01*
X455721D01*
Y194391D01*
X455898D01*
Y194568D01*
X456075D01*
Y194391D01*
X456252D01*
Y194568D01*
X456430D01*
Y194391D01*
X456607D01*
Y194568D01*
X456784D01*
Y194391D01*
X456961D01*
Y194214D01*
X456784D01*
Y194037D01*
Y193859D01*
Y193682D01*
Y193505D01*
Y193327D01*
Y193150D01*
Y192973D01*
X456961D01*
Y192796D01*
X456784D01*
Y192619D01*
Y192441D01*
Y192264D01*
Y192087D01*
Y191909D01*
Y191732D01*
Y191555D01*
X456961D01*
Y191378D01*
X456784D01*
Y191200D01*
Y191023D01*
Y190846D01*
Y190669D01*
Y190491D01*
Y190314D01*
Y190137D01*
X456961D01*
Y189960D01*
X457493D01*
Y190137D01*
X457671D01*
Y190314D01*
X457848D01*
Y190491D01*
X458025D01*
Y190669D01*
Y190846D01*
Y191023D01*
X457848D01*
Y191200D01*
X458025D01*
Y191378D01*
X457848D01*
Y191555D01*
X458025D01*
Y191732D01*
X457848D01*
Y191909D01*
X458025D01*
Y192087D01*
Y192264D01*
Y192441D01*
X457848D01*
Y192619D01*
X458025D01*
Y192796D01*
X457848D01*
Y192973D01*
X458025D01*
Y193150D01*
X457848D01*
Y193327D01*
X458025D01*
Y193505D01*
Y193682D01*
Y193859D01*
X457848D01*
Y194037D01*
X458025D01*
Y194214D01*
X457848D01*
Y194391D01*
X458025D01*
Y194568D01*
X458202D01*
Y194391D01*
X458380D01*
Y194568D01*
X458557D01*
Y194391D01*
X458734D01*
Y194568D01*
X458911D01*
Y194391D01*
D02*
G37*
G36*
X448985D02*
X449162D01*
Y194214D01*
X449339D01*
Y194037D01*
X449516D01*
Y193859D01*
X449694D01*
Y193682D01*
X449516D01*
Y193505D01*
X449694D01*
Y193327D01*
X449516D01*
Y193150D01*
X449694D01*
Y192973D01*
X449516D01*
Y192796D01*
X449694D01*
Y192619D01*
X449516D01*
Y192441D01*
X449694D01*
Y192264D01*
X449516D01*
Y192087D01*
X449694D01*
Y191909D01*
X449516D01*
Y191732D01*
X449694D01*
Y191555D01*
X449516D01*
Y191378D01*
X449694D01*
Y191200D01*
X449516D01*
Y191023D01*
X449694D01*
Y190846D01*
X449516D01*
Y190669D01*
X449694D01*
Y190491D01*
X449516D01*
Y190314D01*
X449694D01*
Y190137D01*
X449516D01*
Y189960D01*
X449339D01*
Y189782D01*
X449162D01*
Y189605D01*
X448985D01*
Y189428D01*
X448807D01*
Y189605D01*
X448630D01*
Y189428D01*
X448098D01*
Y189605D01*
X447921D01*
Y189428D01*
X447389D01*
Y189605D01*
X447212D01*
Y189428D01*
X447035D01*
Y189605D01*
X446858D01*
Y189782D01*
X446680D01*
Y189960D01*
X446503D01*
Y190137D01*
X446326D01*
Y190314D01*
Y190491D01*
Y190669D01*
X446503D01*
Y190846D01*
X446326D01*
Y191023D01*
Y191200D01*
Y191378D01*
Y191555D01*
Y191732D01*
Y191909D01*
Y192087D01*
X446503D01*
Y192264D01*
X446326D01*
Y192441D01*
Y192619D01*
Y192796D01*
Y192973D01*
Y193150D01*
Y193327D01*
Y193505D01*
X446503D01*
Y193682D01*
X446326D01*
Y193859D01*
X446503D01*
Y194037D01*
X446680D01*
Y194214D01*
X446858D01*
Y194391D01*
X447035D01*
Y194568D01*
X447212D01*
Y194391D01*
X447389D01*
Y194568D01*
X447567D01*
Y194391D01*
X447744D01*
Y194568D01*
X447921D01*
Y194391D01*
X448098D01*
Y194568D01*
X448276D01*
Y194391D01*
X448453D01*
Y194568D01*
X448630D01*
Y194391D01*
X448807D01*
Y194568D01*
X448985D01*
Y194391D01*
D02*
G37*
G36*
X454303D02*
X454480D01*
Y194214D01*
X454657D01*
Y194037D01*
X454480D01*
Y193859D01*
X454657D01*
Y193682D01*
X454480D01*
Y193505D01*
X454657D01*
Y193327D01*
X454480D01*
Y193150D01*
X454657D01*
Y192973D01*
X454480D01*
Y192796D01*
X454657D01*
Y192619D01*
X454480D01*
Y192441D01*
X454657D01*
Y192264D01*
X454480D01*
Y192087D01*
X454657D01*
Y191909D01*
X454480D01*
Y191732D01*
X454657D01*
Y191555D01*
X454480D01*
Y191378D01*
X454657D01*
Y191200D01*
X454480D01*
Y191023D01*
X454657D01*
Y190846D01*
X454480D01*
Y190669D01*
X454657D01*
Y190491D01*
X454480D01*
Y190314D01*
X454657D01*
Y190137D01*
X454480D01*
Y189960D01*
X454657D01*
Y189782D01*
X454480D01*
Y189605D01*
X454657D01*
Y189428D01*
X454480D01*
Y189605D01*
X454125D01*
Y189782D01*
X453771D01*
Y189960D01*
Y190137D01*
X453416D01*
Y190314D01*
X453239D01*
Y190491D01*
X453062D01*
Y190669D01*
X452884D01*
Y190846D01*
X452707D01*
Y191023D01*
X452530D01*
Y191200D01*
X452353D01*
Y191378D01*
X452175D01*
Y191555D01*
X451998D01*
Y191732D01*
X451821D01*
Y191909D01*
X451644D01*
Y192087D01*
X451466D01*
Y192264D01*
X451289D01*
Y192087D01*
Y191909D01*
Y191732D01*
Y191555D01*
Y191378D01*
X451466D01*
Y191200D01*
X451289D01*
Y191023D01*
Y190846D01*
Y190669D01*
X451466D01*
Y190491D01*
X451289D01*
Y190314D01*
Y190137D01*
Y189960D01*
X451466D01*
Y189782D01*
X451289D01*
Y189605D01*
Y189428D01*
X450935D01*
Y189605D01*
X450757D01*
Y189782D01*
X450580D01*
Y189960D01*
X450757D01*
Y190137D01*
Y190314D01*
Y190491D01*
X450580D01*
Y190669D01*
X450757D01*
Y190846D01*
Y191023D01*
Y191200D01*
X450580D01*
Y191378D01*
X450757D01*
Y191555D01*
Y191732D01*
Y191909D01*
X450580D01*
Y192087D01*
X450757D01*
Y192264D01*
Y192441D01*
Y192619D01*
X450580D01*
Y192796D01*
X450757D01*
Y192973D01*
Y193150D01*
Y193327D01*
X450580D01*
Y193505D01*
X450757D01*
Y193682D01*
Y193859D01*
Y194037D01*
X450580D01*
Y194214D01*
X450757D01*
Y194391D01*
X450935D01*
Y194568D01*
X451112D01*
Y194391D01*
X451289D01*
Y194214D01*
X451466D01*
Y194037D01*
X451644D01*
Y193859D01*
X451821D01*
Y193682D01*
X451998D01*
Y193505D01*
X452175D01*
Y193327D01*
X452353D01*
Y193150D01*
X452530D01*
Y192973D01*
X452707D01*
Y192796D01*
X452884D01*
Y192619D01*
X453062D01*
Y192441D01*
X453416D01*
Y192264D01*
Y192087D01*
X453771D01*
Y191909D01*
Y191732D01*
X453948D01*
Y191909D01*
X454125D01*
Y192087D01*
X453948D01*
Y192264D01*
X454125D01*
Y192441D01*
Y192619D01*
Y192796D01*
X453948D01*
Y192973D01*
X454125D01*
Y193150D01*
Y193327D01*
Y193505D01*
Y193682D01*
Y193859D01*
Y194037D01*
Y194214D01*
X453948D01*
Y194391D01*
X454125D01*
Y194568D01*
X454303D01*
Y194391D01*
D02*
G37*
G36*
X408746Y201304D02*
X409277D01*
Y201127D01*
X409809D01*
Y200950D01*
X410164D01*
Y200773D01*
X410696D01*
Y200595D01*
X410873D01*
Y200418D01*
X411227D01*
Y200241D01*
X411582D01*
Y200064D01*
X411759D01*
Y199886D01*
X412114D01*
Y199709D01*
X412468D01*
Y199532D01*
X412645D01*
Y199355D01*
X412823D01*
Y199177D01*
X413000D01*
Y199000D01*
X413354D01*
Y198823D01*
X413532D01*
Y198645D01*
X413709D01*
Y198468D01*
X414064D01*
Y198291D01*
X414241D01*
Y198114D01*
X414418D01*
Y197936D01*
X414595D01*
Y197759D01*
X414773D01*
Y197582D01*
X414950D01*
Y197405D01*
X415127D01*
Y197227D01*
X415304D01*
Y197050D01*
X415659D01*
Y196873D01*
X415836D01*
Y196696D01*
X416013D01*
Y196518D01*
X416191D01*
Y196341D01*
X416368D01*
Y196164D01*
X416545D01*
Y195986D01*
X416722D01*
Y195809D01*
X416900D01*
Y195632D01*
X417077D01*
Y195455D01*
X417254D01*
Y195277D01*
X417432D01*
Y195100D01*
X417786D01*
Y194923D01*
X417963D01*
Y194746D01*
X418141D01*
Y194568D01*
X418318D01*
Y194391D01*
X418495D01*
Y194214D01*
X418673D01*
Y194037D01*
X418850D01*
Y193859D01*
X419027D01*
Y193682D01*
X419204D01*
Y193505D01*
X419559D01*
Y193327D01*
X419736D01*
Y193150D01*
X419913D01*
Y192973D01*
X420091D01*
Y192796D01*
X420445D01*
Y192619D01*
X420622D01*
Y192441D01*
X420800D01*
Y192264D01*
X420977D01*
Y192087D01*
X421331D01*
Y191909D01*
X421509D01*
Y191732D01*
X421863D01*
Y191555D01*
X422041D01*
Y191378D01*
X422395D01*
Y191200D01*
X422750D01*
Y191023D01*
X422927D01*
Y190846D01*
X423459D01*
Y190669D01*
X423813D01*
Y190491D01*
X424168D01*
Y190314D01*
X424699D01*
Y190137D01*
X425409D01*
Y189960D01*
X428245D01*
Y190137D01*
X428954D01*
Y190314D01*
X429486D01*
Y190491D01*
X429840D01*
Y190669D01*
X430195D01*
Y190846D01*
X430549D01*
Y191023D01*
X430904D01*
Y191200D01*
X431258D01*
Y191378D01*
X431613D01*
Y191555D01*
X431790D01*
Y191732D01*
X432144D01*
Y191909D01*
X432322D01*
Y192087D01*
X432499D01*
Y192264D01*
X432854D01*
Y192441D01*
X433031D01*
Y192619D01*
X433208D01*
Y192796D01*
X433563D01*
Y192973D01*
X433740D01*
Y193150D01*
X433917D01*
Y193327D01*
X434094D01*
Y193505D01*
X434272D01*
Y193682D01*
X434626D01*
Y193859D01*
X434803D01*
Y194037D01*
X434981D01*
Y194214D01*
X435158D01*
Y194391D01*
X435335D01*
Y194568D01*
X435513D01*
Y194746D01*
X435690D01*
Y194923D01*
X435867D01*
Y195100D01*
X436222D01*
Y194923D01*
Y194746D01*
Y194568D01*
Y194391D01*
Y194214D01*
Y194037D01*
Y193859D01*
Y193682D01*
Y193505D01*
Y193327D01*
Y193150D01*
Y192973D01*
Y192796D01*
Y192619D01*
Y192441D01*
Y192264D01*
Y192087D01*
Y191909D01*
Y191732D01*
Y191555D01*
Y191378D01*
Y191200D01*
Y191023D01*
Y190846D01*
Y190669D01*
Y190491D01*
Y190314D01*
Y190137D01*
X436044D01*
Y189960D01*
Y189782D01*
X435867D01*
Y189605D01*
Y189428D01*
X435690D01*
Y189251D01*
Y189073D01*
X435513D01*
Y188896D01*
X435335D01*
Y188719D01*
X435158D01*
Y188541D01*
X434981D01*
Y188364D01*
X434626D01*
Y188187D01*
X434272D01*
Y188010D01*
X433917D01*
Y187832D01*
X400592D01*
Y188010D01*
X400060D01*
Y188187D01*
X399705D01*
Y188364D01*
X399351D01*
Y188541D01*
X399173D01*
Y188719D01*
X398996D01*
Y188896D01*
X398819D01*
Y189073D01*
X398642D01*
Y189251D01*
Y189428D01*
X398464D01*
Y189605D01*
Y189782D01*
X398287D01*
Y189960D01*
Y190137D01*
Y190314D01*
X398110D01*
Y190491D01*
Y190669D01*
Y190846D01*
Y191023D01*
Y191200D01*
Y191378D01*
Y191555D01*
Y191732D01*
Y191909D01*
Y192087D01*
Y192264D01*
Y192441D01*
Y192619D01*
Y192796D01*
Y192973D01*
Y193150D01*
Y193327D01*
Y193505D01*
Y193682D01*
Y193859D01*
Y194037D01*
Y194214D01*
Y194391D01*
Y194568D01*
Y194746D01*
Y194923D01*
Y195100D01*
Y195277D01*
Y195455D01*
Y195632D01*
Y195809D01*
X398287D01*
Y195986D01*
X398464D01*
Y196164D01*
X398642D01*
Y196341D01*
X398819D01*
Y196518D01*
X398996D01*
Y196696D01*
X399351D01*
Y196873D01*
X399528D01*
Y197050D01*
X399705D01*
Y197227D01*
X399883D01*
Y197405D01*
X400060D01*
Y197582D01*
X400237D01*
Y197759D01*
X400414D01*
Y197936D01*
X400592D01*
Y198114D01*
X400946D01*
Y198291D01*
X401123D01*
Y198468D01*
X401301D01*
Y198645D01*
X401478D01*
Y198823D01*
X401655D01*
Y199000D01*
X402010D01*
Y199177D01*
X402187D01*
Y199355D01*
X402364D01*
Y199532D01*
X402719D01*
Y199709D01*
X402896D01*
Y199886D01*
X403251D01*
Y200064D01*
X403428D01*
Y200241D01*
X403782D01*
Y200418D01*
X404137D01*
Y200595D01*
X404491D01*
Y200773D01*
X404846D01*
Y200950D01*
X405200D01*
Y201127D01*
X405732D01*
Y201304D01*
X406441D01*
Y201482D01*
X408746D01*
Y201304D01*
D02*
G37*
%LPC*%
G36*
X442071Y217967D02*
X441894D01*
Y217790D01*
X441717D01*
Y217967D01*
X441539D01*
Y217790D01*
X441362D01*
Y217967D01*
X441185D01*
Y217790D01*
X441008D01*
Y217613D01*
Y217436D01*
Y217258D01*
Y217081D01*
Y216904D01*
Y216726D01*
Y216549D01*
Y216372D01*
Y216195D01*
Y216017D01*
Y215840D01*
Y215663D01*
Y215486D01*
Y215308D01*
Y215131D01*
Y214954D01*
Y214776D01*
Y214599D01*
Y214422D01*
Y214245D01*
Y214068D01*
Y213890D01*
Y213713D01*
Y213536D01*
Y213358D01*
Y213181D01*
Y213004D01*
Y212827D01*
Y212649D01*
Y212472D01*
Y212295D01*
Y212118D01*
Y211940D01*
Y211763D01*
Y211586D01*
Y211408D01*
Y211231D01*
X442426D01*
Y211408D01*
Y211586D01*
X442780D01*
Y211763D01*
Y211940D01*
X442958D01*
Y212118D01*
X442780D01*
Y212295D01*
X442958D01*
Y212472D01*
X442780D01*
Y212649D01*
X442958D01*
Y212827D01*
X442780D01*
Y213004D01*
X442958D01*
Y213181D01*
X442780D01*
Y213358D01*
X442958D01*
Y213536D01*
X442780D01*
Y213713D01*
X442958D01*
Y213890D01*
X442780D01*
Y214068D01*
X442958D01*
Y214245D01*
X442780D01*
Y214422D01*
X442958D01*
Y214599D01*
X442780D01*
Y214776D01*
X442958D01*
Y214954D01*
X442780D01*
Y215131D01*
X442958D01*
Y215308D01*
X442780D01*
Y215486D01*
X442958D01*
Y215663D01*
X442780D01*
Y215840D01*
X442958D01*
Y216017D01*
X442780D01*
Y216195D01*
X442958D01*
Y216372D01*
X442780D01*
Y216549D01*
X442958D01*
Y216726D01*
X442780D01*
Y216904D01*
X442958D01*
Y217081D01*
X442780D01*
Y217258D01*
Y217436D01*
Y217613D01*
X442603D01*
Y217790D01*
X442071D01*
Y217967D01*
D02*
G37*
G36*
X462811Y214599D02*
X461925D01*
Y214422D01*
Y214245D01*
Y214068D01*
X461748D01*
Y213890D01*
X461925D01*
Y213713D01*
X461748D01*
Y213536D01*
X461925D01*
Y213358D01*
X461748D01*
Y213181D01*
X461925D01*
Y213004D01*
X462811D01*
Y213181D01*
X462989D01*
Y213358D01*
Y213536D01*
Y213713D01*
X462811D01*
Y213890D01*
X462989D01*
Y214068D01*
Y214245D01*
Y214422D01*
X462811D01*
Y214599D01*
D02*
G37*
G36*
X474511Y213536D02*
X473979D01*
Y213358D01*
X473802D01*
Y213181D01*
Y213004D01*
Y212827D01*
Y212649D01*
Y212472D01*
Y212295D01*
Y212118D01*
Y211940D01*
Y211763D01*
Y211586D01*
Y211408D01*
Y211231D01*
Y211054D01*
Y210877D01*
X473979D01*
Y210699D01*
Y210522D01*
X474156D01*
Y210699D01*
X474511D01*
Y210877D01*
X474688D01*
Y211054D01*
Y211231D01*
Y211408D01*
Y211586D01*
Y211763D01*
Y211940D01*
X474865D01*
Y212118D01*
X474688D01*
Y212295D01*
Y212472D01*
Y212649D01*
Y212827D01*
Y213004D01*
Y213181D01*
Y213358D01*
X474511D01*
Y213536D01*
D02*
G37*
G36*
X442249Y207509D02*
X441717D01*
Y207331D01*
X441362D01*
Y207154D01*
X441008D01*
Y206977D01*
X441185D01*
Y206800D01*
X441008D01*
Y206622D01*
Y206445D01*
Y206268D01*
Y206091D01*
Y205913D01*
Y205736D01*
Y205559D01*
Y205381D01*
Y205204D01*
Y205027D01*
Y204850D01*
Y204673D01*
Y204495D01*
X441185D01*
Y204673D01*
X441362D01*
Y204495D01*
X441539D01*
Y204673D01*
X441717D01*
Y204495D01*
X441894D01*
Y204673D01*
X442071D01*
Y204495D01*
X442249D01*
Y204673D01*
X442426D01*
Y204495D01*
X442603D01*
Y204673D01*
X442780D01*
Y204850D01*
X442958D01*
Y205027D01*
X442780D01*
Y205204D01*
X442958D01*
Y205381D01*
X442780D01*
Y205559D01*
X442958D01*
Y205736D01*
X442780D01*
Y205913D01*
X442958D01*
Y206091D01*
X442780D01*
Y206268D01*
X442958D01*
Y206445D01*
X442780D01*
Y206622D01*
X442958D01*
Y206800D01*
X442780D01*
Y206977D01*
X442603D01*
Y207154D01*
X442426D01*
Y207331D01*
X442249D01*
Y207509D01*
D02*
G37*
G36*
X461393Y204318D02*
X461216D01*
Y204141D01*
X460861D01*
Y203963D01*
Y203786D01*
X460684D01*
Y203609D01*
Y203432D01*
Y203254D01*
Y203077D01*
Y202900D01*
Y202723D01*
Y202545D01*
Y202368D01*
Y202191D01*
Y202013D01*
Y201836D01*
Y201659D01*
Y201482D01*
Y201304D01*
Y201127D01*
Y200950D01*
Y200773D01*
Y200595D01*
X461039D01*
Y200418D01*
X461216D01*
Y200241D01*
X461393D01*
Y200418D01*
X461570D01*
Y200595D01*
X461748D01*
Y200773D01*
Y200950D01*
Y201127D01*
X461925D01*
Y201304D01*
X461748D01*
Y201482D01*
Y201659D01*
Y201836D01*
X461925D01*
Y202013D01*
X461748D01*
Y202191D01*
Y202368D01*
Y202545D01*
X461925D01*
Y202723D01*
X461748D01*
Y202900D01*
Y203077D01*
Y203254D01*
X461925D01*
Y203432D01*
X461748D01*
Y203609D01*
Y203786D01*
Y203963D01*
X461570D01*
Y204141D01*
X461393D01*
Y204318D01*
D02*
G37*
G36*
X466357Y202191D02*
X466179D01*
Y202013D01*
X466357D01*
Y202191D01*
D02*
G37*
G36*
X453239Y204318D02*
X452707D01*
Y204141D01*
X452530D01*
Y203963D01*
X452353D01*
Y203786D01*
X452530D01*
Y203609D01*
X452353D01*
Y203432D01*
X452530D01*
Y203254D01*
X452353D01*
Y203077D01*
X452530D01*
Y202900D01*
X452353D01*
Y202723D01*
X452530D01*
Y202545D01*
X452707D01*
Y202723D01*
X452884D01*
Y202545D01*
X453062D01*
Y202723D01*
X453239D01*
Y202545D01*
X453416D01*
Y202723D01*
X453593D01*
Y202900D01*
X453416D01*
Y203077D01*
X453593D01*
Y203254D01*
X453416D01*
Y203432D01*
X453593D01*
Y203609D01*
X453416D01*
Y203786D01*
X453593D01*
Y203963D01*
X453416D01*
Y204141D01*
X453239D01*
Y204318D01*
D02*
G37*
G36*
X453593Y202191D02*
X453416D01*
Y202013D01*
X453593D01*
Y202191D01*
D02*
G37*
G36*
X478056Y194037D02*
X477879D01*
Y193859D01*
X477701D01*
Y194037D01*
X477524D01*
Y193859D01*
X477347D01*
Y193682D01*
X477170D01*
Y193505D01*
X477347D01*
Y193327D01*
X477170D01*
Y193150D01*
X477347D01*
Y192973D01*
X477170D01*
Y192796D01*
X477347D01*
Y192619D01*
X477170D01*
Y192441D01*
X477347D01*
Y192264D01*
X477524D01*
Y192087D01*
X477701D01*
Y192264D01*
X478233D01*
Y192441D01*
X478410D01*
Y192619D01*
X478233D01*
Y192796D01*
X478410D01*
Y192973D01*
Y193150D01*
Y193327D01*
X478233D01*
Y193505D01*
X478410D01*
Y193682D01*
X478233D01*
Y193859D01*
X478056D01*
Y194037D01*
D02*
G37*
G36*
X473447D02*
X473270D01*
Y193859D01*
X473093D01*
Y193682D01*
X472915D01*
Y193505D01*
Y193327D01*
Y193150D01*
Y192973D01*
Y192796D01*
Y192619D01*
Y192441D01*
Y192264D01*
Y192087D01*
Y191909D01*
Y191732D01*
Y191555D01*
Y191378D01*
Y191200D01*
Y191023D01*
Y190846D01*
Y190669D01*
Y190491D01*
Y190314D01*
X473093D01*
Y190137D01*
X473270D01*
Y189960D01*
X473447D01*
Y190137D01*
X473802D01*
Y190314D01*
X473979D01*
Y190491D01*
Y190669D01*
X474156D01*
Y190846D01*
X473979D01*
Y191023D01*
Y191200D01*
Y191378D01*
X474156D01*
Y191555D01*
X473979D01*
Y191732D01*
Y191909D01*
Y192087D01*
X474156D01*
Y192264D01*
X473979D01*
Y192441D01*
Y192619D01*
Y192796D01*
X474156D01*
Y192973D01*
X473979D01*
Y193150D01*
Y193327D01*
Y193505D01*
Y193682D01*
X473624D01*
Y193859D01*
X473447D01*
Y194037D01*
D02*
G37*
G36*
X465648D02*
X465470D01*
Y193859D01*
X465293D01*
Y194037D01*
X465116D01*
Y193859D01*
Y193682D01*
Y193505D01*
X465293D01*
Y193327D01*
X465116D01*
Y193150D01*
X465293D01*
Y192973D01*
X465116D01*
Y192796D01*
Y192619D01*
Y192441D01*
X465293D01*
Y192264D01*
X465470D01*
Y192087D01*
X465648D01*
Y192264D01*
X465825D01*
Y192441D01*
X466179D01*
Y192619D01*
Y192796D01*
X466357D01*
Y192973D01*
X466179D01*
Y193150D01*
X466357D01*
Y193327D01*
X466179D01*
Y193505D01*
X466357D01*
Y193682D01*
X466002D01*
Y193859D01*
X465648D01*
Y194037D01*
D02*
G37*
G36*
X466888Y192087D02*
X466711D01*
Y191909D01*
X466888D01*
Y192087D01*
D02*
G37*
G36*
X461393Y192264D02*
X461216D01*
Y192087D01*
X461393D01*
Y192264D01*
D02*
G37*
G36*
X448276Y194037D02*
X448098D01*
Y193859D01*
X447921D01*
Y194037D01*
X447744D01*
Y193859D01*
X447567D01*
Y193682D01*
X447389D01*
Y193505D01*
X447567D01*
Y193327D01*
X447389D01*
Y193150D01*
X447567D01*
Y192973D01*
X447389D01*
Y192796D01*
X447567D01*
Y192619D01*
X447389D01*
Y192441D01*
X447567D01*
Y192264D01*
X447389D01*
Y192087D01*
X447567D01*
Y191909D01*
X447389D01*
Y191732D01*
X447567D01*
Y191555D01*
X447389D01*
Y191378D01*
X447567D01*
Y191200D01*
X447389D01*
Y191023D01*
X447567D01*
Y190846D01*
X447389D01*
Y190669D01*
X447567D01*
Y190491D01*
X447389D01*
Y190314D01*
X447567D01*
Y190137D01*
X447744D01*
Y189960D01*
X447921D01*
Y190137D01*
X448098D01*
Y189960D01*
X448276D01*
Y190137D01*
X448453D01*
Y190314D01*
X448630D01*
Y190491D01*
X448453D01*
Y190669D01*
X448630D01*
Y190846D01*
X448453D01*
Y191023D01*
X448630D01*
Y191200D01*
X448453D01*
Y191378D01*
X448630D01*
Y191555D01*
X448453D01*
Y191732D01*
X448630D01*
Y191909D01*
X448453D01*
Y192087D01*
X448630D01*
Y192264D01*
X448453D01*
Y192441D01*
X448630D01*
Y192619D01*
X448453D01*
Y192796D01*
X448630D01*
Y192973D01*
X448453D01*
Y193150D01*
X448630D01*
Y193327D01*
X448453D01*
Y193505D01*
X448630D01*
Y193682D01*
X448453D01*
Y193859D01*
X448276D01*
Y194037D01*
D02*
G37*
G36*
X568864Y145824D02*
X563623D01*
D01*
X566203D01*
X565832Y145789D01*
X565508Y145731D01*
X565231Y145650D01*
X565103Y145615D01*
X564999Y145569D01*
X564895Y145523D01*
X564803Y145488D01*
X564733Y145453D01*
X564675Y145419D01*
X564629Y145384D01*
X564583Y145372D01*
X564571Y145349D01*
X564560D01*
X564398Y145222D01*
X564259Y145095D01*
X564143Y144956D01*
X564039Y144817D01*
X563970Y144701D01*
X563912Y144609D01*
X563877Y144551D01*
X563865Y144539D01*
Y144528D01*
X563784Y144331D01*
X563727Y144134D01*
X563680Y143949D01*
X563657Y143787D01*
X563634Y143637D01*
X563623Y143521D01*
D01*
Y143417D01*
X563634Y143197D01*
X563669Y143000D01*
X563715Y142804D01*
X563773Y142619D01*
X563854Y142457D01*
X563935Y142295D01*
X564027Y142156D01*
X564120Y142029D01*
X564213Y141913D01*
X564305Y141809D01*
X564386Y141728D01*
X564467Y141647D01*
X564525Y141589D01*
X564571Y141554D01*
X564606Y141531D01*
X564617Y141519D01*
X564768Y141415D01*
X564907Y141334D01*
X564965Y141300D01*
X565011Y141277D01*
X565034Y141253D01*
X565046D01*
X565150Y141207D01*
X565277Y141149D01*
X565427Y141080D01*
X565566Y141010D01*
X565705Y140953D01*
X565809Y140906D01*
X565856Y140883D01*
X565890Y140872D01*
X565902Y140860D01*
X565913D01*
X566098Y140768D01*
X566260Y140698D01*
X566388Y140629D01*
X566492Y140571D01*
X566561Y140524D01*
X566619Y140490D01*
X566642Y140467D01*
X566654Y140455D01*
X566746Y140374D01*
X566804Y140281D01*
X566851Y140200D01*
X566885Y140120D01*
X566908Y140050D01*
X566920Y139992D01*
Y139958D01*
Y139946D01*
X566908Y139853D01*
X566897Y139761D01*
X566862Y139680D01*
X566839Y139622D01*
X566804Y139576D01*
X566770Y139541D01*
X566758Y139518D01*
X566746Y139506D01*
X566677Y139448D01*
X566573Y139391D01*
X566364Y139298D01*
X566260Y139263D01*
X566179Y139240D01*
X566122Y139229D01*
X566098Y139217D01*
Y138477D01*
X566260D01*
X566399Y138488D01*
X566538Y138511D01*
X566654Y138523D01*
X566758Y138546D01*
X566827Y138558D01*
X566885Y138569D01*
X566897D01*
X567036Y138604D01*
X567163Y138650D01*
X567290Y138696D01*
X567383Y138731D01*
X567475Y138766D01*
X567533Y138801D01*
X567579Y138812D01*
X567591Y138824D01*
X567799Y138951D01*
X567984Y139101D01*
X568146Y139252D01*
X568274Y139391D01*
X568378Y139518D01*
X568459Y139622D01*
X568505Y139691D01*
X568517Y139703D01*
Y139715D01*
X568632Y139934D01*
X568713Y140143D01*
X568783Y140351D01*
X568817Y140548D01*
X568841Y140710D01*
X568864Y140837D01*
Y139738D01*
Y140953D01*
X568852Y141115D01*
X568829Y141277D01*
X568794Y141438D01*
X568748Y141577D01*
X568632Y141855D01*
X568505Y142086D01*
X568436Y142191D01*
X568378Y142272D01*
X568308Y142352D01*
X568262Y142422D01*
X568216Y142468D01*
X568181Y142503D01*
X568158Y142526D01*
X568146Y142538D01*
X568088Y142619D01*
X568031Y142688D01*
X567892Y142815D01*
X567834Y142862D01*
X567788Y142896D01*
X567753Y142908D01*
X567741Y142920D01*
X567637Y142977D01*
X567521Y143047D01*
X567406Y143105D01*
X567290Y143162D01*
X567186Y143220D01*
X567105Y143255D01*
X567047Y143278D01*
X567024Y143290D01*
X566897Y143348D01*
X566770Y143394D01*
X566573Y143486D01*
X566399Y143567D01*
X566272Y143625D01*
X566179Y143672D01*
X566122Y143706D01*
X566087Y143729D01*
X566075D01*
X565983Y143787D01*
X565902Y143845D01*
X565832Y143891D01*
X565774Y143938D01*
X565728Y143984D01*
X565705Y144019D01*
X565694Y144030D01*
X565682Y144042D01*
X565613Y144181D01*
X565578Y144308D01*
Y144354D01*
X565566Y144400D01*
Y144424D01*
Y144435D01*
X565578Y144516D01*
X565589Y144586D01*
X565636Y144701D01*
X565659Y144747D01*
X565682Y144782D01*
X565705Y144794D01*
Y144805D01*
X565763Y144863D01*
X565844Y144910D01*
X566006Y144991D01*
X566087Y145025D01*
X566145Y145048D01*
X566191Y145060D01*
X566203D01*
Y145824D01*
X568864D01*
D02*
G37*
G36*
X587596Y145696D02*
X585339D01*
Y144898D01*
X585571Y144863D01*
X585767Y144817D01*
X585941Y144759D01*
X586080Y144690D01*
X586196Y144632D01*
X586265Y144586D01*
X586323Y144551D01*
X586334Y144539D01*
X586462Y144424D01*
X586566Y144296D01*
X586658Y144158D01*
X586728Y144019D01*
X586786Y143891D01*
X586832Y143799D01*
X586855Y143729D01*
X586867Y143718D01*
Y143706D01*
X586913Y143591D01*
X586948Y143521D01*
X586982Y143475D01*
X586994Y143463D01*
X587063Y143429D01*
X587144Y143417D01*
X587202Y143405D01*
X587225D01*
X587353Y143417D01*
X587433Y143463D01*
X587491Y143498D01*
X587503Y143510D01*
X587561Y143602D01*
X587584Y143695D01*
X587596Y143764D01*
Y143787D01*
Y143799D01*
Y145696D01*
D02*
G37*
G36*
X575019Y145696D02*
X569569D01*
D01*
X570044D01*
X569893Y145685D01*
X569789Y145650D01*
X569720Y145604D01*
X569708Y145592D01*
X569697D01*
X569650Y145557D01*
X569627Y145511D01*
X569581Y145430D01*
X569569Y145361D01*
Y145326D01*
X569581Y145222D01*
X569616Y145141D01*
X569650Y145083D01*
X569708Y145037D01*
X569755Y145002D01*
X569789Y144979D01*
X569824Y144956D01*
X569836D01*
X569882Y144933D01*
X569928Y144921D01*
X569974Y144898D01*
X569998Y144886D01*
X570021Y144875D01*
X570032Y144863D01*
X570055Y144805D01*
X570079Y144747D01*
Y144690D01*
Y144678D01*
Y144667D01*
Y139622D01*
X570067Y139530D01*
X570055Y139472D01*
X570044Y139437D01*
X570032Y139425D01*
X570009Y139402D01*
X569998Y139391D01*
X569986D01*
X569963Y139379D01*
X569916Y139367D01*
X569859Y139344D01*
X569847Y139333D01*
X569836D01*
X569743Y139286D01*
X569685Y139240D01*
X569639Y139171D01*
X569604Y139113D01*
X569581Y139055D01*
X569569Y139009D01*
Y138604D01*
Y138962D01*
X569581Y138893D01*
X569593Y138847D01*
X569639Y138754D01*
X569674Y138708D01*
X569697Y138685D01*
X569801Y138639D01*
X569916Y138615D01*
X569963Y138604D01*
X572543D01*
Y145696D01*
X572763D01*
Y144898D01*
X572994Y144863D01*
X573191Y144817D01*
X573364Y144759D01*
X573503Y144690D01*
X573619Y144632D01*
X573688Y144586D01*
X573746Y144551D01*
X573758Y144539D01*
X573885Y144424D01*
X573989Y144296D01*
X574082Y144158D01*
X574151Y144019D01*
X574209Y143891D01*
X574255Y143799D01*
X574278Y143729D01*
X574290Y143718D01*
Y143706D01*
X574336Y143590D01*
X574371Y143521D01*
X574406Y143475D01*
X574417Y143463D01*
X574487Y143429D01*
X574568Y143417D01*
X574625Y143405D01*
X574649D01*
X574776Y143417D01*
X574857Y143463D01*
X574915Y143498D01*
X574926Y143509D01*
X574984Y143602D01*
X575007Y143695D01*
X575019Y143764D01*
Y143787D01*
Y143799D01*
Y145696D01*
D02*
G37*
G36*
X598518Y145800D02*
X598448D01*
Y145060D01*
X598656Y145002D01*
X598841Y144944D01*
X598992Y144875D01*
X599131Y144817D01*
X599223Y144759D01*
X599304Y144724D01*
X599351Y144690D01*
X599362Y144678D01*
X599432Y144551D01*
X599501Y144435D01*
X599547Y144331D01*
X599594Y144250D01*
X599640Y144181D01*
X599663Y144123D01*
X599686Y144088D01*
Y144077D01*
X599767Y143891D01*
X599825Y143741D01*
X599848Y143672D01*
X599860Y143625D01*
X599871Y143591D01*
Y143579D01*
X599894Y143498D01*
X599906Y143429D01*
X599929Y143382D01*
Y143371D01*
X599964Y143324D01*
X599987Y143290D01*
X600010Y143267D01*
X600022Y143255D01*
X600114Y143197D01*
X600207Y143174D01*
X600265Y143163D01*
X600288D01*
X600357Y143174D01*
X600415Y143186D01*
X600508Y143232D01*
X600565Y143267D01*
X600589Y143290D01*
X600658Y143394D01*
X600693Y143498D01*
X600704Y143533D01*
Y143567D01*
Y143591D01*
Y143602D01*
Y145268D01*
X600693Y145430D01*
X600658Y145546D01*
X600646Y145592D01*
X600623Y145627D01*
X600612Y145638D01*
Y145650D01*
X600577Y145696D01*
X600531Y145731D01*
X600438Y145777D01*
X600357Y145789D01*
X600322D01*
X600265Y145777D01*
X600207Y145766D01*
X600114Y145708D01*
X600056Y145638D01*
X600033Y145627D01*
Y145615D01*
X599918Y145453D01*
X599836D01*
X599790Y145465D01*
X599756Y145476D01*
X599744D01*
X599605Y145534D01*
X599478Y145581D01*
X599362Y145627D01*
X599270Y145662D01*
X599200Y145685D01*
X599142Y145696D01*
X599108Y145708D01*
X599096D01*
X599004Y145731D01*
X598899Y145754D01*
X598691Y145777D01*
X598587Y145789D01*
X598518Y145800D01*
D02*
G37*
G36*
X566445Y145800D02*
X566376D01*
Y145060D01*
X566584Y145002D01*
X566770Y144944D01*
X566920Y144875D01*
X567059Y144817D01*
X567151Y144759D01*
X567232Y144724D01*
X567279Y144690D01*
X567290Y144678D01*
X567360Y144551D01*
X567429Y144435D01*
X567475Y144331D01*
X567521Y144250D01*
X567568Y144181D01*
X567591Y144123D01*
X567614Y144088D01*
Y144077D01*
X567695Y143891D01*
X567753Y143741D01*
X567776Y143672D01*
X567788Y143625D01*
X567799Y143590D01*
Y143579D01*
X567822Y143498D01*
X567834Y143429D01*
X567857Y143382D01*
Y143371D01*
X567892Y143324D01*
X567915Y143290D01*
X567938Y143267D01*
X567950Y143255D01*
X568042Y143197D01*
X568135Y143174D01*
X568193Y143162D01*
X568216D01*
X568285Y143174D01*
X568343Y143186D01*
X568436Y143232D01*
X568493Y143267D01*
X568517Y143290D01*
X568586Y143394D01*
X568621Y143498D01*
X568632Y143533D01*
Y143567D01*
Y143590D01*
Y143602D01*
Y145268D01*
X568621Y145430D01*
X568586Y145546D01*
X568574Y145592D01*
X568551Y145627D01*
X568540Y145638D01*
Y145650D01*
X568505Y145696D01*
X568459Y145731D01*
X568366Y145777D01*
X568285Y145789D01*
X568251D01*
X568193Y145777D01*
X568135Y145766D01*
X568042Y145708D01*
X567984Y145638D01*
X567961Y145627D01*
Y145615D01*
X567845Y145453D01*
X567765D01*
X567718Y145465D01*
X567684Y145476D01*
X567672D01*
X567533Y145534D01*
X567406Y145581D01*
X567290Y145627D01*
X567198Y145662D01*
X567128Y145685D01*
X567070Y145696D01*
X567036Y145708D01*
X567024D01*
X566931Y145731D01*
X566827Y145754D01*
X566619Y145777D01*
X566515Y145789D01*
X566445Y145800D01*
D02*
G37*
G36*
X604609Y145824D02*
X601433D01*
X604511D01*
X604268Y145812D01*
X604037Y145777D01*
X603840Y145743D01*
X603678Y145696D01*
X603539Y145662D01*
X603435Y145627D01*
X603377Y145604D01*
X603354Y145592D01*
X603180Y145511D01*
X603018Y145419D01*
X602879Y145315D01*
X602752Y145222D01*
X602636Y145141D01*
X602556Y145071D01*
X602509Y145025D01*
X602486Y145002D01*
X602301Y144794D01*
X602139Y144586D01*
X602000Y144377D01*
X601884Y144181D01*
X601803Y144007D01*
X601769Y143938D01*
X601734Y143880D01*
X601711Y143822D01*
X601699Y143787D01*
X601688Y143764D01*
Y143753D01*
X601607Y143475D01*
X601537Y143197D01*
X601491Y142920D01*
X601468Y142676D01*
X601456Y142561D01*
X601445Y142457D01*
Y142364D01*
X601433Y142283D01*
Y142295D01*
Y142133D01*
X601445Y141809D01*
X601479Y141496D01*
X601526Y141207D01*
X601595Y140941D01*
X601665Y140687D01*
X601757Y140455D01*
X601838Y140247D01*
X601942Y140062D01*
X602035Y139888D01*
X602127Y139749D01*
X602208Y139622D01*
X602278Y139518D01*
X602347Y139437D01*
X602393Y139379D01*
X602428Y139344D01*
X602440Y139333D01*
X602590Y139194D01*
X602752Y139078D01*
X602926Y138974D01*
X603099Y138882D01*
X603273Y138801D01*
X603446Y138731D01*
X603770Y138616D01*
X603921Y138581D01*
X604060Y138546D01*
X604187Y138523D01*
X604303Y138500D01*
X604384Y138488D01*
X604453D01*
X604499Y138477D01*
X604511D01*
Y139194D01*
X604407Y139229D01*
X604326Y139263D01*
X604268Y139298D01*
X604222Y139333D01*
X604187Y139356D01*
X604164Y139379D01*
X604141Y139402D01*
X604106Y139472D01*
X604083Y139553D01*
X604060Y139738D01*
X604048Y139819D01*
Y139888D01*
Y139934D01*
Y139958D01*
Y144470D01*
Y144562D01*
X604060Y144655D01*
X604071Y144724D01*
X604094Y144782D01*
X604106Y144817D01*
X604117Y144852D01*
X604129Y144875D01*
X604164Y144921D01*
X604222Y144967D01*
X604349Y145037D01*
X604407Y145071D01*
X604464Y145083D01*
X604499Y145106D01*
X604511D01*
Y145824D01*
X604609D01*
D02*
G37*
G36*
X596088Y141346D02*
X596007D01*
X595961Y141323D01*
X595868Y141277D01*
X595822Y141230D01*
X595799Y141219D01*
Y141207D01*
X595741Y141103D01*
X595706Y140999D01*
Y140964D01*
X595694Y140929D01*
D01*
D01*
Y138477D01*
Y138974D01*
X595706Y138893D01*
X595752Y138754D01*
X595810Y138662D01*
X595891Y138604D01*
X595961Y138558D01*
X596019Y138546D01*
X596065Y138534D01*
X596076D01*
X596134Y138546D01*
X596192Y138558D01*
X596273Y138604D01*
X596331Y138650D01*
X596354Y138673D01*
X596423Y138754D01*
X596458Y138801D01*
X596481Y138824D01*
X596516Y138835D01*
X596551Y138847D01*
X596620D01*
X596655Y138835D01*
X596678Y138824D01*
X596690Y138812D01*
X596759Y138789D01*
X596840Y138754D01*
X596909Y138720D01*
X596921Y138708D01*
X596933D01*
X597129Y138627D01*
X597326Y138569D01*
X597499Y138534D01*
X597661Y138511D01*
X597800Y138488D01*
X597916Y138477D01*
X598008D01*
Y139229D01*
X597847Y139263D01*
X597708Y139298D01*
X597592Y139344D01*
X597488Y139391D01*
X597418Y139425D01*
X597361Y139460D01*
X597326Y139472D01*
X597314Y139483D01*
X597199Y139611D01*
X597094Y139726D01*
X597014Y139842D01*
X596933Y139958D01*
X596863Y140039D01*
X596817Y140120D01*
X596794Y140166D01*
X596782Y140177D01*
X596643Y140455D01*
X596597Y140594D01*
X596551Y140721D01*
X596516Y140825D01*
X596493Y140906D01*
X596470Y140953D01*
Y140976D01*
X596423Y141103D01*
X596377Y141184D01*
X596331Y141242D01*
X596319Y141253D01*
X596250Y141311D01*
X596157Y141334D01*
X596088Y141346D01*
D02*
G37*
G36*
X564016Y141346D02*
X563935D01*
X563889Y141323D01*
X563796Y141277D01*
X563750Y141230D01*
X563727Y141219D01*
Y141207D01*
X563669Y141103D01*
X563634Y140999D01*
Y140964D01*
X563623Y140929D01*
D01*
Y138477D01*
Y138974D01*
X563634Y138893D01*
X563680Y138754D01*
X563738Y138662D01*
X563819Y138604D01*
X563889Y138558D01*
X563946Y138546D01*
X563993Y138534D01*
X564004D01*
X564062Y138546D01*
X564120Y138558D01*
X564201Y138604D01*
X564259Y138650D01*
X564282Y138673D01*
X564351Y138754D01*
X564386Y138801D01*
X564409Y138824D01*
X564444Y138835D01*
X564479Y138847D01*
X564548D01*
X564583Y138835D01*
X564606Y138824D01*
X564617Y138812D01*
X564687Y138789D01*
X564768Y138754D01*
X564837Y138720D01*
X564849Y138708D01*
X564860D01*
X565057Y138627D01*
X565254Y138569D01*
X565427Y138534D01*
X565589Y138511D01*
X565728Y138488D01*
X565844Y138477D01*
X565936D01*
Y139229D01*
X565774Y139263D01*
X565636Y139298D01*
X565520Y139344D01*
X565416Y139391D01*
X565346Y139425D01*
X565288Y139460D01*
X565254Y139472D01*
X565242Y139483D01*
X565127Y139611D01*
X565022Y139726D01*
X564941Y139842D01*
X564860Y139958D01*
X564791Y140039D01*
X564745Y140120D01*
X564722Y140166D01*
X564710Y140177D01*
X564571Y140455D01*
X564525Y140594D01*
X564479Y140721D01*
X564444Y140825D01*
X564421Y140906D01*
X564398Y140953D01*
Y140976D01*
X564351Y141103D01*
X564305Y141184D01*
X564259Y141242D01*
X564247Y141253D01*
X564178Y141311D01*
X564085Y141334D01*
X564016Y141346D01*
D02*
G37*
G36*
X586381Y143706D02*
X586346D01*
X586242Y143695D01*
X586161Y143660D01*
X586115Y143614D01*
X586091Y143602D01*
X586033Y143510D01*
X585987Y143405D01*
X585976Y143359D01*
X585964Y143324D01*
X585953Y143301D01*
Y143290D01*
X585929Y143197D01*
X585895Y143116D01*
X585872Y143047D01*
X585837Y142977D01*
X585814Y142931D01*
X585791Y142896D01*
X585779Y142885D01*
X585767Y142873D01*
X585710Y142815D01*
X585640Y142757D01*
X585490Y142665D01*
X585420Y142619D01*
X585374Y142584D01*
X585328Y142572D01*
X585316Y142561D01*
Y141832D01*
X585420Y141797D01*
X585501Y141762D01*
X585582Y141728D01*
X585640Y141682D01*
X585686Y141647D01*
X585721Y141612D01*
X585733Y141601D01*
X585744Y141589D01*
X585791Y141519D01*
X585837Y141450D01*
X585906Y141288D01*
X585929Y141219D01*
X585953Y141161D01*
X585964Y141115D01*
Y141103D01*
X586010Y140976D01*
X586057Y140883D01*
X586091Y140837D01*
X586103Y140814D01*
X586184Y140756D01*
X586265Y140733D01*
X586334Y140721D01*
X586357D01*
X586427Y140733D01*
X586496Y140744D01*
X586577Y140791D01*
X586635Y140825D01*
X586647Y140849D01*
X586670Y140906D01*
X586693Y140964D01*
X586716Y141091D01*
X586728Y141149D01*
Y141196D01*
Y141230D01*
Y141242D01*
Y143163D01*
Y143255D01*
X586716Y143324D01*
X586705Y143382D01*
Y143429D01*
X586693Y143463D01*
X586682Y143486D01*
X586670Y143510D01*
X586635Y143579D01*
X586589Y143625D01*
X586531Y143660D01*
X586473Y143683D01*
X586427Y143695D01*
X586381Y143706D01*
D02*
G37*
G36*
X573804Y143706D02*
X573769D01*
X573665Y143695D01*
X573584Y143660D01*
X573538Y143614D01*
X573515Y143602D01*
X573457Y143509D01*
X573411Y143405D01*
X573399Y143359D01*
X573387Y143324D01*
X573376Y143301D01*
Y143290D01*
X573353Y143197D01*
X573318Y143116D01*
X573295Y143047D01*
X573260Y142977D01*
X573237Y142931D01*
X573214Y142896D01*
X573202Y142885D01*
X573191Y142873D01*
X573133Y142815D01*
X573064Y142757D01*
X572913Y142665D01*
X572844Y142619D01*
X572797Y142584D01*
X572751Y142572D01*
X572740Y142561D01*
Y141832D01*
X572844Y141797D01*
X572925Y141762D01*
X573006Y141728D01*
X573064Y141682D01*
X573110Y141647D01*
X573145Y141612D01*
X573156Y141601D01*
X573168Y141589D01*
X573214Y141519D01*
X573260Y141450D01*
X573330Y141288D01*
X573353Y141219D01*
X573376Y141161D01*
X573387Y141115D01*
Y141103D01*
X573434Y140976D01*
X573480Y140883D01*
X573515Y140837D01*
X573526Y140814D01*
X573607Y140756D01*
X573688Y140733D01*
X573758Y140721D01*
X573781D01*
X573850Y140733D01*
X573920Y140744D01*
X574001Y140791D01*
X574059Y140825D01*
X574070Y140849D01*
X574093Y140906D01*
X574116Y140964D01*
X574140Y141091D01*
X574151Y141149D01*
Y141196D01*
Y141230D01*
Y141242D01*
Y143162D01*
Y143255D01*
X574140Y143324D01*
X574128Y143382D01*
Y143429D01*
X574116Y143463D01*
X574105Y143486D01*
X574093Y143509D01*
X574059Y143579D01*
X574012Y143625D01*
X573954Y143660D01*
X573897Y143683D01*
X573850Y143695D01*
X573804Y143706D01*
D02*
G37*
G36*
X600936Y145824D02*
X595694D01*
D01*
X598275D01*
X597904Y145789D01*
X597580Y145731D01*
X597303Y145650D01*
X597176Y145615D01*
X597071Y145569D01*
X596967Y145523D01*
X596875Y145488D01*
X596805Y145453D01*
X596747Y145419D01*
X596701Y145384D01*
X596655Y145372D01*
X596643Y145349D01*
X596632D01*
X596470Y145222D01*
X596331Y145095D01*
X596215Y144956D01*
X596111Y144817D01*
X596042Y144701D01*
X595984Y144609D01*
X595949Y144551D01*
X595937Y144539D01*
Y144528D01*
X595857Y144331D01*
X595799Y144134D01*
X595752Y143949D01*
X595729Y143787D01*
X595706Y143637D01*
X595694Y143521D01*
Y142676D01*
Y143417D01*
X595706Y143197D01*
X595741Y143000D01*
X595787Y142804D01*
X595845Y142619D01*
X595926Y142457D01*
X596007Y142295D01*
X596099Y142156D01*
X596192Y142029D01*
X596285Y141913D01*
X596377Y141809D01*
X596458Y141728D01*
X596539Y141647D01*
X596597Y141589D01*
X596643Y141554D01*
X596678Y141531D01*
X596690Y141519D01*
X596840Y141415D01*
X596979Y141334D01*
X597037Y141300D01*
X597083Y141277D01*
X597106Y141253D01*
X597118D01*
X597222Y141207D01*
X597349Y141149D01*
X597499Y141080D01*
X597638Y141010D01*
X597777Y140953D01*
X597881Y140906D01*
X597928Y140883D01*
X597962Y140872D01*
X597974Y140860D01*
X597985D01*
X598171Y140768D01*
X598332Y140698D01*
X598460Y140629D01*
X598564Y140571D01*
X598633Y140524D01*
X598691Y140490D01*
X598714Y140467D01*
X598726Y140455D01*
X598818Y140374D01*
X598876Y140281D01*
X598922Y140200D01*
X598957Y140120D01*
X598980Y140050D01*
X598992Y139992D01*
Y139958D01*
Y139946D01*
X598980Y139853D01*
X598969Y139761D01*
X598934Y139680D01*
X598911Y139622D01*
X598876Y139576D01*
X598841Y139541D01*
X598830Y139518D01*
X598818Y139506D01*
X598749Y139448D01*
X598645Y139391D01*
X598437Y139298D01*
X598332Y139263D01*
X598251Y139240D01*
X598194Y139229D01*
X598171Y139217D01*
Y138477D01*
X598332D01*
X598471Y138488D01*
X598610Y138511D01*
X598726Y138523D01*
X598830Y138546D01*
X598899Y138558D01*
X598957Y138569D01*
X598969D01*
X599108Y138604D01*
X599235Y138650D01*
X599362Y138696D01*
X599455Y138731D01*
X599547Y138766D01*
X599605Y138801D01*
X599651Y138812D01*
X599663Y138824D01*
X599871Y138951D01*
X600056Y139101D01*
X600218Y139252D01*
X600346Y139391D01*
X600450Y139518D01*
X600531Y139622D01*
X600577Y139691D01*
X600589Y139703D01*
Y139715D01*
X600704Y139934D01*
X600785Y140143D01*
X600855Y140351D01*
X600889Y140548D01*
X600913Y140710D01*
X600936Y140837D01*
Y139344D01*
Y140953D01*
X600924Y141115D01*
X600901Y141277D01*
X600866Y141438D01*
X600820Y141577D01*
X600704Y141855D01*
X600577Y142086D01*
X600508Y142191D01*
X600450Y142272D01*
X600380Y142353D01*
X600334Y142422D01*
X600288Y142468D01*
X600253Y142503D01*
X600230Y142526D01*
X600218Y142538D01*
X600161Y142619D01*
X600103Y142688D01*
X599964Y142815D01*
X599906Y142862D01*
X599860Y142896D01*
X599825Y142908D01*
X599813Y142920D01*
X599709Y142977D01*
X599594Y143047D01*
X599478Y143105D01*
X599362Y143163D01*
X599258Y143220D01*
X599177Y143255D01*
X599119Y143278D01*
X599096Y143290D01*
X598969Y143348D01*
X598841Y143394D01*
X598645Y143486D01*
X598471Y143567D01*
X598344Y143625D01*
X598251Y143672D01*
X598194Y143706D01*
X598159Y143729D01*
X598147D01*
X598055Y143787D01*
X597974Y143845D01*
X597904Y143891D01*
X597847Y143938D01*
X597800Y143984D01*
X597777Y144019D01*
X597765Y144030D01*
X597754Y144042D01*
X597684Y144181D01*
X597650Y144308D01*
Y144354D01*
X597638Y144401D01*
Y144424D01*
Y144435D01*
X597650Y144516D01*
X597661Y144586D01*
X597708Y144701D01*
X597731Y144748D01*
X597754Y144782D01*
X597777Y144794D01*
Y144805D01*
X597835Y144863D01*
X597916Y144910D01*
X598078Y144991D01*
X598159Y145025D01*
X598217Y145048D01*
X598263Y145060D01*
X598275D01*
Y145824D01*
X600936D01*
D02*
G37*
G36*
X614380Y145696D02*
X613073D01*
X612922Y145685D01*
X612807Y145650D01*
X612737Y145615D01*
X612725Y145604D01*
X612714D01*
X612644Y145523D01*
X612610Y145430D01*
X612598Y145361D01*
Y145338D01*
Y145326D01*
X612610Y145245D01*
X612621Y145176D01*
X612633Y145129D01*
X612644Y145118D01*
X612702Y145060D01*
X612760Y145014D01*
X612818Y144979D01*
X612841Y144967D01*
X612945Y144910D01*
X613026Y144852D01*
X613096Y144794D01*
X613142Y144748D01*
X613188Y144690D01*
X613211Y144655D01*
X613235Y144632D01*
Y144620D01*
X613269Y144539D01*
X613304Y144447D01*
X613339Y144250D01*
X613350Y144169D01*
Y144100D01*
Y144053D01*
Y144030D01*
Y142607D01*
X614102Y141624D01*
Y144030D01*
Y144158D01*
X614114Y144262D01*
X614137Y144366D01*
X614149Y144447D01*
X614172Y144516D01*
X614183Y144562D01*
X614195Y144597D01*
Y144609D01*
X614241Y144678D01*
X614288Y144736D01*
X614403Y144840D01*
X614450Y144875D01*
X614496Y144898D01*
X614519Y144921D01*
X614531D01*
X614600Y144956D01*
X614658Y144991D01*
X614750Y145048D01*
X614797Y145083D01*
X614808Y145095D01*
X614854Y145164D01*
X614866Y145234D01*
X614878Y145291D01*
Y138604D01*
X614102D01*
Y140953D01*
X611360Y145696D01*
X608954D01*
X608838Y145685D01*
X608757D01*
X608688Y145673D01*
X608641Y145662D01*
X608607D01*
X608583Y145650D01*
X608514Y145604D01*
X608468Y145557D01*
X608433Y145523D01*
X608422Y145500D01*
X608387Y145430D01*
X608375Y145361D01*
X608364Y145315D01*
Y145291D01*
X608375Y145210D01*
X608398Y145141D01*
X608410Y145095D01*
X608422Y145083D01*
X608479Y145025D01*
X608537Y144991D01*
X608583Y144967D01*
X608595Y144956D01*
X608745Y144898D01*
X608826Y144863D01*
X608884Y144828D01*
X608919Y144805D01*
X608931Y144794D01*
X608954Y144771D01*
X608977Y144736D01*
X609035Y144655D01*
X609081Y144586D01*
X609093Y144562D01*
Y144551D01*
X612540Y138604D01*
X611209D01*
X614878D01*
Y145315D01*
X614866Y145419D01*
X614831Y145488D01*
X614797Y145534D01*
X614785Y145546D01*
X614727Y145592D01*
X614658Y145638D01*
X614507Y145673D01*
X614438Y145685D01*
X614380Y145696D01*
D02*
G37*
G36*
X609081Y143914D02*
Y140224D01*
X609069Y140004D01*
X609023Y139819D01*
X608965Y139668D01*
X608907Y139553D01*
X608838Y139460D01*
X608780Y139402D01*
X608734Y139367D01*
X608722Y139356D01*
X608641Y139310D01*
X608560Y139275D01*
X608514Y139240D01*
X608468Y139217D01*
X608433Y139194D01*
X608410Y139171D01*
X608398Y139159D01*
X608364Y139101D01*
X608352Y139032D01*
X608341Y138986D01*
Y138604D01*
Y138963D01*
X608352Y138905D01*
X608364Y138847D01*
X608433Y138754D01*
X608514Y138696D01*
X608618Y138650D01*
X608722Y138627D01*
X608815Y138616D01*
X608873Y138604D01*
X610169D01*
X610250Y138616D01*
X610319Y138627D01*
X610365Y138650D01*
X610412Y138662D01*
X610435Y138673D01*
X610458Y138685D01*
X610504Y138731D01*
X610550Y138777D01*
X610585Y138870D01*
X610608Y138939D01*
Y138951D01*
Y138963D01*
X610597Y139032D01*
X610573Y139101D01*
X610516Y139194D01*
X610446Y139252D01*
X610423Y139275D01*
X610412D01*
X610261Y139356D01*
X610122Y139460D01*
X610018Y139564D01*
X609983Y139611D01*
X609960Y139645D01*
X609937Y139668D01*
Y139680D01*
X609902Y139761D01*
X609879Y139853D01*
X609845Y140027D01*
Y140108D01*
X609833Y140166D01*
Y140212D01*
Y140224D01*
Y142943D01*
X609081Y143914D01*
D02*
G37*
G36*
X591393Y145696D02*
X588347D01*
X588822D01*
X588671Y145685D01*
X588567Y145650D01*
X588498Y145604D01*
X588486Y145592D01*
X588475D01*
X588428Y145557D01*
X588405Y145511D01*
X588359Y145430D01*
X588347Y145361D01*
Y145326D01*
X588359Y145222D01*
X588394Y145141D01*
X588428Y145083D01*
X588486Y145037D01*
X588533Y145002D01*
X588567Y144979D01*
X588602Y144956D01*
X588614D01*
X588660Y144933D01*
X588706Y144921D01*
X588753Y144898D01*
X588776Y144886D01*
X588799Y144875D01*
X588810Y144863D01*
X588834Y144805D01*
X588857Y144748D01*
Y144690D01*
Y144678D01*
Y144667D01*
Y139622D01*
X588845Y139530D01*
X588834Y139472D01*
X588822Y139437D01*
X588810Y139425D01*
X588787Y139402D01*
X588776Y139391D01*
X588764D01*
X588741Y139379D01*
X588695Y139367D01*
X588637Y139344D01*
X588625Y139333D01*
X588614D01*
X588521Y139286D01*
X588463Y139240D01*
X588417Y139171D01*
X588382Y139113D01*
X588359Y139055D01*
X588347Y139009D01*
Y138465D01*
Y138963D01*
X588359Y138893D01*
X588371Y138847D01*
X588417Y138754D01*
X588452Y138708D01*
X588475Y138685D01*
X588579Y138639D01*
X588695Y138616D01*
X588741Y138604D01*
X591471D01*
X591541Y138616D01*
X591610Y138627D01*
X591657Y138639D01*
X591703Y138650D01*
X591726Y138662D01*
X591749Y138673D01*
X591819Y138720D01*
X591865Y138766D01*
X591899Y138824D01*
X591923Y138870D01*
X591946Y138939D01*
Y138963D01*
Y138974D01*
X591934Y139078D01*
X591888Y139159D01*
X591830Y139229D01*
X591761Y139275D01*
X591680Y139310D01*
X591622Y139344D01*
X591576Y139356D01*
X591564D01*
X591483Y139379D01*
X591437Y139391D01*
X591425Y139402D01*
X591414D01*
X591390Y139414D01*
X591367Y139437D01*
X591356Y139460D01*
X591344Y139472D01*
X591333Y139483D01*
Y139506D01*
X591321Y139576D01*
Y139634D01*
Y139645D01*
Y139657D01*
Y145696D01*
X591393D01*
D02*
G37*
G36*
X585119D02*
X582146Y145696D01*
X582620D01*
X582470Y145685D01*
X582366Y145650D01*
X582296Y145604D01*
X582285Y145592D01*
X582273D01*
X582227Y145557D01*
X582204Y145511D01*
X582158Y145430D01*
X582146Y145361D01*
Y145326D01*
X582158Y145222D01*
X582192Y145141D01*
X582227Y145083D01*
X582285Y145037D01*
X582331Y145002D01*
X582366Y144979D01*
X582401Y144956D01*
X582412D01*
X582458Y144933D01*
X582505Y144921D01*
X582551Y144898D01*
X582574Y144886D01*
X582597Y144875D01*
X582609Y144863D01*
X582632Y144805D01*
X582655Y144747D01*
Y144690D01*
Y144678D01*
Y144667D01*
Y139622D01*
X582644Y139530D01*
X582632Y139472D01*
X582620Y139437D01*
X582609Y139425D01*
X582586Y139402D01*
X582574Y139391D01*
X582562D01*
X582539Y139379D01*
X582493Y139367D01*
X582435Y139344D01*
X582424Y139333D01*
X582412D01*
X582320Y139286D01*
X582262Y139240D01*
X582215Y139171D01*
X582181Y139113D01*
X582158Y139055D01*
X582146Y139009D01*
Y138604D01*
Y138962D01*
X582158Y138893D01*
X582169Y138847D01*
X582215Y138754D01*
X582250Y138708D01*
X582273Y138685D01*
X582377Y138639D01*
X582493Y138615D01*
X582539Y138604D01*
X587665Y138604D01*
Y140478D01*
X587653Y140629D01*
X587619Y140744D01*
X587584Y140814D01*
X587572Y140837D01*
X587538Y140883D01*
X587491Y140906D01*
X587399Y140953D01*
X587329Y140964D01*
X587295D01*
X587190Y140953D01*
X587121Y140929D01*
X587063Y140895D01*
X587052Y140883D01*
X586994Y140802D01*
X586948Y140710D01*
X586924Y140640D01*
X586913Y140617D01*
Y140605D01*
X586867Y140490D01*
X586832Y140397D01*
X586786Y140316D01*
X586751Y140235D01*
X586716Y140189D01*
X586693Y140143D01*
X586682Y140120D01*
X586670Y140108D01*
X586577Y139969D01*
X586473Y139853D01*
X586427Y139807D01*
X586392Y139772D01*
X586369Y139749D01*
X586357Y139738D01*
X586207Y139622D01*
X586080Y139541D01*
X586022Y139518D01*
X585987Y139495D01*
X585964Y139483D01*
X585953D01*
X585872Y139448D01*
X585779Y139425D01*
X585582Y139379D01*
X585490Y139356D01*
X585420Y139344D01*
X585374Y139333D01*
X585351D01*
Y138604D01*
X585119D01*
Y145696D01*
D02*
G37*
G36*
X581290Y145696D02*
X579959D01*
X579797Y145685D01*
X579682Y145650D01*
X579635Y145627D01*
X579601Y145604D01*
X579589Y145592D01*
X579577D01*
X579531Y145557D01*
X579496Y145511D01*
X579462Y145419D01*
X579439Y145338D01*
Y145315D01*
Y145303D01*
X579450Y145210D01*
X579473Y145141D01*
X579520Y145071D01*
X579566Y145025D01*
X579601Y144991D01*
X579647Y144967D01*
X579670Y144956D01*
X579682D01*
X579844Y144898D01*
X579936Y144840D01*
X580006Y144782D01*
X580052Y144736D01*
X580063Y144724D01*
Y144713D01*
X580087Y144632D01*
X580110Y144574D01*
Y144528D01*
Y144516D01*
Y144493D01*
X580098Y144470D01*
X580075Y144389D01*
X580063Y144319D01*
X580052Y144296D01*
Y144285D01*
X579462Y142133D01*
X579832Y141080D01*
X580723Y144030D01*
X580769Y144158D01*
X580804Y144273D01*
X580850Y144366D01*
X580885Y144447D01*
X580920Y144505D01*
X580943Y144551D01*
X580954Y144574D01*
X580966Y144586D01*
X581012Y144655D01*
X581070Y144713D01*
X581116Y144759D01*
X581151Y144794D01*
X581209Y144840D01*
X581232Y144852D01*
X581452Y144967D01*
X581556Y145025D01*
X581637Y145071D01*
X581672Y145106D01*
X581683Y145118D01*
X581718Y145187D01*
X581730Y145257D01*
X581741Y145303D01*
Y138604D01*
X579253D01*
X579751Y140467D01*
X578582Y144574D01*
X578571Y144620D01*
Y144667D01*
Y144701D01*
Y144713D01*
Y144771D01*
X578582Y144817D01*
X578594Y144840D01*
Y144852D01*
X578629Y144886D01*
X578675Y144921D01*
X578721Y144933D01*
X578733Y144944D01*
X578814Y144991D01*
X578872Y145048D01*
X578918Y145118D01*
X578941Y145176D01*
X578964Y145234D01*
X578976Y145268D01*
Y145303D01*
Y145315D01*
X578964Y145372D01*
X578953Y145430D01*
X578930Y145465D01*
X578918Y145476D01*
X578883Y145534D01*
X578849Y145581D01*
X578814Y145604D01*
X578802Y145615D01*
X578744Y145650D01*
X578687Y145662D01*
X578640Y145673D01*
X578629D01*
X578594Y145685D01*
X578536D01*
X578444Y145696D01*
X579389D01*
X575493D01*
X575979D01*
X575898Y145685D01*
X575829Y145673D01*
X575771Y145650D01*
X575725Y145638D01*
X575690Y145615D01*
X575678Y145604D01*
X575667D01*
X575609Y145557D01*
X575563Y145500D01*
X575539Y145453D01*
X575516Y145396D01*
X575505Y145349D01*
X575493Y145315D01*
Y145280D01*
X575505Y145176D01*
X575528Y145106D01*
X575551Y145060D01*
X575563Y145048D01*
X575632Y145002D01*
X575713Y144956D01*
X575782Y144921D01*
X575794Y144910D01*
X575806D01*
X575840Y144886D01*
X575864Y144863D01*
X575875Y144852D01*
Y144840D01*
X575898Y144805D01*
X575921Y144759D01*
X575933Y144724D01*
X575945Y144701D01*
X577749Y138604D01*
X581741D01*
Y145326D01*
X581730Y145396D01*
X581718Y145453D01*
X581648Y145546D01*
X581591Y145604D01*
X581567Y145627D01*
X581556D01*
X581510Y145650D01*
X581463Y145673D01*
X581348Y145685D01*
X581290Y145696D01*
D02*
G37*
G36*
X574753Y140964D02*
X574718D01*
X574614Y140953D01*
X574544Y140929D01*
X574487Y140895D01*
X574475Y140883D01*
X574417Y140802D01*
X574371Y140710D01*
X574348Y140640D01*
X574336Y140617D01*
Y140605D01*
X574290Y140490D01*
X574255Y140397D01*
X574209Y140316D01*
X574174Y140235D01*
X574140Y140189D01*
X574116Y140143D01*
X574105Y140120D01*
X574093Y140108D01*
X574001Y139969D01*
X573897Y139853D01*
X573850Y139807D01*
X573816Y139772D01*
X573793Y139749D01*
X573781Y139738D01*
X573631Y139622D01*
X573503Y139541D01*
X573445Y139518D01*
X573411Y139495D01*
X573387Y139483D01*
X573376D01*
X573295Y139448D01*
X573202Y139425D01*
X573006Y139379D01*
X572913Y139356D01*
X572844Y139344D01*
X572797Y139333D01*
X572774D01*
Y138604D01*
X575088D01*
Y140478D01*
X575077Y140629D01*
X575042Y140744D01*
X575007Y140814D01*
X574996Y140837D01*
X574961Y140883D01*
X574915Y140906D01*
X574822Y140953D01*
X574753Y140964D01*
D02*
G37*
G36*
X604777Y145824D02*
X604707D01*
Y145106D01*
X604777Y145083D01*
X604835Y145048D01*
X604927Y145014D01*
X604974Y144991D01*
X604985Y144979D01*
X605031Y144933D01*
X605066Y144898D01*
X605089Y144852D01*
X605101Y144840D01*
X605147Y144724D01*
X605170Y144609D01*
X605182Y144551D01*
Y144505D01*
Y144481D01*
Y144470D01*
Y139958D01*
Y139819D01*
X605159Y139703D01*
X605147Y139611D01*
X605124Y139530D01*
X605101Y139472D01*
X605078Y139425D01*
X605066Y139402D01*
X605055Y139391D01*
X605020Y139344D01*
X604985Y139310D01*
X604962Y139298D01*
X604951Y139286D01*
X604927Y139275D01*
X604893Y139263D01*
X604812Y139229D01*
X604742Y139217D01*
X604719Y139206D01*
X604707D01*
Y138477D01*
X604609D01*
X607797D01*
Y142133D01*
X607785Y142468D01*
X607750Y142781D01*
X607693Y143081D01*
X607635Y143348D01*
X607542Y143614D01*
X607461Y143845D01*
X607357Y144065D01*
X607265Y144250D01*
X607160Y144424D01*
X607056Y144574D01*
X606975Y144701D01*
X606894Y144817D01*
X606825Y144898D01*
X606767Y144956D01*
X606732Y144991D01*
X606721Y145002D01*
X606570Y145141D01*
X606420Y145257D01*
X606270Y145361D01*
X606142Y145442D01*
X606027Y145511D01*
X605934Y145557D01*
X605876Y145581D01*
X605853Y145592D01*
X605668Y145662D01*
X605471Y145719D01*
X605286Y145754D01*
X605101Y145789D01*
X604951Y145800D01*
X604823Y145812D01*
X604777Y145824D01*
D02*
G37*
G36*
X592050Y145696D02*
X591483D01*
Y144944D01*
X591610Y144910D01*
X591714Y144863D01*
X591795Y144828D01*
X591865Y144794D01*
X591899Y144759D01*
X591934Y144736D01*
X591957Y144724D01*
Y144713D01*
X591992Y144655D01*
X592015Y144597D01*
X592050Y144458D01*
X592062Y144401D01*
Y144354D01*
Y144319D01*
Y144308D01*
Y142966D01*
Y142827D01*
X592050Y142734D01*
X592038Y142688D01*
X592027Y142665D01*
X591992Y142596D01*
X591946Y142526D01*
X591899Y142480D01*
X591888Y142457D01*
X591853Y142445D01*
X591807Y142422D01*
X591680Y142399D01*
X591610Y142387D01*
X591552Y142376D01*
X591518Y142364D01*
X591506D01*
Y141647D01*
X591610Y141635D01*
X591703Y141601D01*
X591772Y141577D01*
X591830Y141543D01*
X591876Y141519D01*
X591899Y141496D01*
X591923Y141485D01*
Y141473D01*
X591992Y141369D01*
X592027Y141265D01*
X592038Y141230D01*
X592050Y141196D01*
Y141172D01*
Y141161D01*
Y141138D01*
X592062Y141103D01*
Y140999D01*
Y140941D01*
Y140906D01*
Y140872D01*
Y140860D01*
Y140004D01*
X592073Y139749D01*
X592119Y139530D01*
X592189Y139333D01*
X592258Y139171D01*
X592328Y139043D01*
X592397Y138951D01*
X592443Y138893D01*
X592455Y138870D01*
X592617Y138731D01*
X592802Y138639D01*
X592987Y138569D01*
X593172Y138511D01*
X593334Y138488D01*
X593462Y138477D01*
X593508Y138465D01*
X588347D01*
X595232D01*
X593704D01*
X593820Y138477D01*
X593924Y138488D01*
X594005Y138511D01*
X594075Y138523D01*
X594133Y138534D01*
X594167Y138546D01*
X594179D01*
X594364Y138616D01*
X594445Y138650D01*
X594526Y138696D01*
X594584Y138731D01*
X594630Y138766D01*
X594653Y138777D01*
X594665Y138789D01*
X594827Y138939D01*
X594954Y139078D01*
X595000Y139136D01*
X595047Y139182D01*
X595058Y139217D01*
X595070Y139229D01*
X595128Y139321D01*
X595162Y139402D01*
X595209Y139530D01*
X595220Y139587D01*
X595232Y139622D01*
Y139703D01*
X595209Y139749D01*
X595174Y139830D01*
X595128Y139888D01*
X595116Y139911D01*
X595104D01*
X595058Y139958D01*
X595012Y139981D01*
X594931Y140027D01*
X594873Y140039D01*
X594850D01*
X594780Y140027D01*
X594723Y140004D01*
X594607Y139923D01*
X594561Y139877D01*
X594526Y139842D01*
X594514Y139819D01*
X594503Y139807D01*
X594468Y139772D01*
Y139784D01*
Y139796D01*
Y139807D01*
Y140860D01*
Y140953D01*
X594445Y141045D01*
X594433Y141126D01*
X594410Y141196D01*
X594387Y141265D01*
X594364Y141311D01*
X594352Y141334D01*
X594341Y141346D01*
X594225Y141519D01*
X594109Y141647D01*
X594052Y141705D01*
X594005Y141739D01*
X593982Y141762D01*
X593971Y141774D01*
X593809Y141878D01*
X593658Y141948D01*
X593589Y141982D01*
X593542Y142006D01*
X593508Y142017D01*
X593496D01*
X593288Y142075D01*
X593184Y142086D01*
X593080Y142098D01*
X592987Y142110D01*
X592860D01*
X593010Y142121D01*
X593149Y142144D01*
X593265Y142167D01*
X593369Y142191D01*
X593450Y142214D01*
X593508Y142237D01*
X593542Y142260D01*
X593554D01*
X593739Y142364D01*
X593820Y142422D01*
X593890Y142468D01*
X593936Y142515D01*
X593982Y142549D01*
X594005Y142572D01*
X594017Y142584D01*
X594179Y142781D01*
X594295Y142977D01*
X594387Y143186D01*
X594445Y143382D01*
X594480Y143556D01*
X594491Y143637D01*
Y143695D01*
X594503Y143753D01*
Y143787D01*
Y143810D01*
Y143822D01*
X594491Y143995D01*
X594468Y144146D01*
X594433Y144296D01*
X594387Y144435D01*
X594271Y144678D01*
X594144Y144886D01*
X594017Y145037D01*
X593901Y145152D01*
X593855Y145199D01*
X593820Y145222D01*
X593797Y145245D01*
X593785D01*
X593600Y145361D01*
X593415Y145453D01*
X593230Y145523D01*
X593056Y145581D01*
X592906Y145615D01*
X592790Y145638D01*
X592744D01*
X592709Y145650D01*
X592686D01*
X592524Y145662D01*
X592362Y145673D01*
X592200Y145685D01*
X592050Y145696D01*
D02*
G37*
G36*
X577668Y137047D02*
X577634D01*
X577564Y137035D01*
X577506Y137023D01*
X577414Y136966D01*
X577345Y136896D01*
X577333Y136885D01*
X577321Y136873D01*
X577287Y136815D01*
X577252Y136769D01*
X577206Y136711D01*
X577194Y136688D01*
X577182Y136676D01*
X577136Y136665D01*
X577113D01*
X577067Y136676D01*
X577009Y136688D01*
X576974Y136699D01*
X576951Y136711D01*
X576720Y136792D01*
X576465Y136861D01*
X576211Y136919D01*
X575968Y136966D01*
X575759Y137000D01*
X575667Y137012D01*
X575586Y137023D01*
X575516D01*
X575470Y137035D01*
X575424D01*
Y136283D01*
X575586Y136271D01*
X575725Y136248D01*
X575840Y136225D01*
X575933Y136202D01*
X576014Y136179D01*
X576060Y136167D01*
X576095Y136144D01*
X576107D01*
X576199Y136098D01*
X576292Y136040D01*
X576442Y135924D01*
X576511Y135866D01*
X576558Y135820D01*
X576592Y135785D01*
X576604Y135774D01*
X576650Y135693D01*
X576697Y135612D01*
X576801Y135438D01*
X576835Y135357D01*
X576870Y135288D01*
X576893Y135242D01*
X576905Y135230D01*
X576974Y135103D01*
X577032Y134976D01*
X577078Y134871D01*
X577113Y134779D01*
X577136Y134698D01*
X577159Y134640D01*
X577171Y134605D01*
Y134594D01*
X577194Y134513D01*
X577229Y134432D01*
X577252Y134374D01*
X577275Y134328D01*
X577321Y134270D01*
X577333Y134247D01*
X577414Y134189D01*
X577506Y134166D01*
X577576Y134154D01*
X577611D01*
X577749Y134177D01*
X577842Y134223D01*
X577911Y134304D01*
X577969Y134397D01*
X577992Y134478D01*
X578004Y134559D01*
X578016Y134605D01*
Y134628D01*
Y136595D01*
X578004Y136734D01*
X577969Y136838D01*
X577935Y136896D01*
X577923Y136919D01*
X577888Y136966D01*
X577842Y136989D01*
X577749Y137035D01*
X577703D01*
X577668Y137047D01*
D02*
G37*
G36*
X589181Y137035D02*
D01*
X588938Y137023D01*
X588706Y136989D01*
X588510Y136954D01*
X588347Y136908D01*
X588209Y136873D01*
X588105Y136838D01*
X588047Y136815D01*
X588024Y136804D01*
X587850Y136723D01*
X587688Y136630D01*
X587549Y136526D01*
X587422Y136433D01*
X587306Y136352D01*
X587225Y136283D01*
X587179Y136237D01*
X587156Y136214D01*
X586971Y136005D01*
X586809Y135797D01*
X586670Y135589D01*
X586554Y135392D01*
X586473Y135219D01*
X586439Y135149D01*
X586404Y135091D01*
X586381Y135033D01*
X586369Y134999D01*
X586357Y134976D01*
Y134964D01*
X586276Y134686D01*
X586207Y134409D01*
X586161Y134131D01*
X586138Y133888D01*
X586126Y133772D01*
X586115Y133668D01*
Y133576D01*
X586103Y133495D01*
Y137035D01*
D01*
D01*
Y129688D01*
Y133344D01*
X586115Y133020D01*
X586149Y132708D01*
X586196Y132419D01*
X586265Y132152D01*
X586334Y131898D01*
X586427Y131667D01*
X586508Y131458D01*
X586612Y131273D01*
X586705Y131100D01*
X586797Y130961D01*
X586878Y130833D01*
X586948Y130729D01*
X587017Y130648D01*
X587063Y130590D01*
X587098Y130556D01*
X587110Y130544D01*
X587260Y130405D01*
X587422Y130290D01*
X587596Y130185D01*
X587769Y130093D01*
X587943Y130012D01*
X588116Y129943D01*
X588440Y129827D01*
X588590Y129792D01*
X588729Y129757D01*
X588857Y129734D01*
X588972Y129711D01*
X589053Y129700D01*
X589123D01*
X589169Y129688D01*
X589181D01*
Y130405D01*
X589077Y130440D01*
X588996Y130475D01*
X588938Y130509D01*
X588891Y130544D01*
X588857Y130567D01*
X588834Y130590D01*
X588810Y130614D01*
X588776Y130683D01*
X588753Y130764D01*
X588729Y130949D01*
X588718Y131030D01*
Y131100D01*
Y131146D01*
Y131169D01*
Y135681D01*
Y135774D01*
X588729Y135866D01*
X588741Y135936D01*
X588764Y135994D01*
X588776Y136028D01*
X588787Y136063D01*
X588799Y136086D01*
X588834Y136133D01*
X588891Y136179D01*
X589019Y136248D01*
X589077Y136283D01*
X589134Y136294D01*
X589169Y136318D01*
X589181D01*
Y137035D01*
D02*
G37*
G36*
X603516Y136908D02*
X603319D01*
Y136156D01*
X603423Y136144D01*
X603504Y136121D01*
X603585Y136098D01*
X603631Y136075D01*
X603678Y136051D01*
X603701Y136028D01*
X603724Y136017D01*
X603793Y135947D01*
X603828Y135890D01*
X603851Y135843D01*
X603863Y135820D01*
X603874Y135785D01*
X603886Y135728D01*
X603898Y135635D01*
Y135577D01*
Y135543D01*
Y135519D01*
Y135508D01*
Y133899D01*
Y133795D01*
X603886Y133691D01*
X603874Y133610D01*
X603851Y133541D01*
X603840Y133495D01*
X603817Y133460D01*
X603805Y133437D01*
Y133425D01*
X603759Y133356D01*
X603724Y133309D01*
X603689Y133286D01*
X603678Y133275D01*
X603643Y133263D01*
X603597Y133240D01*
X603481Y133205D01*
X603435Y133194D01*
X603389Y133182D01*
X603354Y133171D01*
X603342D01*
Y132442D01*
X603539D01*
X603713Y132453D01*
X603886Y132465D01*
X604025Y132476D01*
X604164Y132488D01*
X604279Y132500D01*
X604384Y132523D01*
X604476Y132534D01*
X604557Y132557D01*
X604627Y132569D01*
X604684Y132580D01*
X604731Y132604D01*
X604777Y132615D01*
X604800Y132627D01*
X605078Y132731D01*
X605321Y132858D01*
X605517Y132985D01*
X605679Y133113D01*
X605807Y133229D01*
X605888Y133321D01*
X605945Y133379D01*
X605957Y133402D01*
X606084Y133610D01*
X606177Y133830D01*
X606235Y134050D01*
X606281Y134258D01*
X606304Y134455D01*
X606316Y134524D01*
X606327Y134594D01*
Y134733D01*
X606316Y134987D01*
X606270Y135230D01*
X606212Y135438D01*
X606142Y135612D01*
X606073Y135762D01*
X606015Y135866D01*
X605969Y135936D01*
X605957Y135959D01*
X605818Y136133D01*
X605668Y136283D01*
X605506Y136410D01*
X605355Y136514D01*
X605217Y136595D01*
X605113Y136653D01*
X605066Y136676D01*
X605031Y136688D01*
X605020Y136699D01*
X605008D01*
X604904Y136734D01*
X604788Y136769D01*
X604522Y136815D01*
X604245Y136861D01*
X603967Y136885D01*
X603713Y136896D01*
X603608D01*
X603516Y136908D01*
D02*
G37*
G36*
X603134D02*
X600161D01*
Y129815D01*
D01*
Y130174D01*
X600172Y130105D01*
X600184Y130058D01*
X600230Y129966D01*
X600265Y129919D01*
X600288Y129896D01*
X600392Y129850D01*
X600508Y129827D01*
X600554Y129815D01*
X606327D01*
X603284D01*
X603354Y129827D01*
X603423Y129838D01*
X603470Y129850D01*
X603516Y129862D01*
X603539Y129873D01*
X603562Y129885D01*
X603631Y129931D01*
X603678Y129977D01*
X603713Y130035D01*
X603736Y130081D01*
X603759Y130151D01*
Y130174D01*
Y130185D01*
X603747Y130290D01*
X603701Y130371D01*
X603643Y130440D01*
X603574Y130486D01*
X603493Y130521D01*
X603435Y130556D01*
X603389Y130567D01*
X603377D01*
X603296Y130590D01*
X603250Y130602D01*
X603238Y130614D01*
X603227D01*
X603203Y130625D01*
X603180Y130648D01*
X603169Y130672D01*
X603157Y130683D01*
X603146Y130695D01*
Y130718D01*
X603134Y130787D01*
Y130845D01*
Y130857D01*
Y130868D01*
Y136908D01*
D02*
G37*
G36*
X581903Y136908D02*
X578930D01*
Y129676D01*
D01*
Y130174D01*
X578941Y130104D01*
X578953Y130058D01*
X578999Y129966D01*
X579034Y129919D01*
X579057Y129896D01*
X579161Y129850D01*
X579277Y129827D01*
X579323Y129815D01*
X582054D01*
X582123Y129827D01*
X582192Y129838D01*
X582239Y129850D01*
X582285Y129862D01*
X582308Y129873D01*
X582331Y129885D01*
X582401Y129931D01*
X582447Y129977D01*
X582481Y130035D01*
X582505Y130081D01*
X582528Y130151D01*
Y130174D01*
Y130185D01*
X582516Y130290D01*
X582470Y130371D01*
X582412Y130440D01*
X582343Y130486D01*
X582262Y130521D01*
X582204Y130556D01*
X582158Y130567D01*
X582146D01*
X582065Y130590D01*
X582019Y130602D01*
X582007Y130614D01*
X581996D01*
X581973Y130625D01*
X581949Y130648D01*
X581938Y130672D01*
X581926Y130683D01*
X581915Y130695D01*
Y130718D01*
X581903Y130787D01*
Y130845D01*
Y130857D01*
Y130868D01*
Y136908D01*
D02*
G37*
G36*
X599061Y136908D02*
X597661D01*
X597499Y136896D01*
X597384Y136873D01*
X597337Y136850D01*
X597303Y136838D01*
X597291Y136827D01*
X597280D01*
X597233Y136792D01*
X597210Y136746D01*
X597164Y136665D01*
X597152Y136595D01*
Y136572D01*
Y136561D01*
X597164Y136457D01*
X597187Y136387D01*
X597199Y136341D01*
X597210Y136329D01*
X597280Y136271D01*
X597361Y136214D01*
X597430Y136167D01*
X597442Y136156D01*
X597453D01*
X597615Y136051D01*
X597731Y135913D01*
X597823Y135774D01*
X597881Y135635D01*
X597916Y135496D01*
X597928Y135392D01*
X597939Y135346D01*
Y135311D01*
Y135300D01*
Y135288D01*
Y131991D01*
X597928Y131736D01*
X597881Y131504D01*
X597812Y131296D01*
X597742Y131111D01*
X597673Y130961D01*
X597604Y130845D01*
X597580Y130810D01*
X597557Y130776D01*
X597546Y130764D01*
Y130753D01*
X597430Y130695D01*
X597303Y130660D01*
X597164Y130614D01*
X597025Y130590D01*
X596898Y130567D01*
X596805Y130544D01*
X596736Y130533D01*
X596713D01*
Y129688D01*
X596470D01*
Y130509D01*
X596377Y130544D01*
X596296Y130567D01*
X596227Y130590D01*
X596180Y130614D01*
X596146Y130625D01*
X596123D01*
X596111Y130637D01*
X596065Y130683D01*
X596030Y130741D01*
X596007Y130776D01*
X595995Y130799D01*
X595961Y130880D01*
X595937Y130961D01*
X595914Y131030D01*
Y131042D01*
Y131053D01*
Y131123D01*
X595903Y131215D01*
Y131412D01*
Y131504D01*
Y131586D01*
Y131632D01*
Y131655D01*
Y135878D01*
X595914Y135971D01*
X595926Y136028D01*
X595937Y136063D01*
Y136075D01*
X595949Y136098D01*
X595961D01*
X595972Y136109D01*
X595995D01*
X596042Y136133D01*
X596099Y136156D01*
X596111Y136167D01*
X596123D01*
X596215Y136214D01*
X596285Y136260D01*
X596342Y136318D01*
X596377Y136387D01*
X596400Y136433D01*
X596412Y136480D01*
Y136514D01*
Y136526D01*
X596400Y136618D01*
X596377Y136688D01*
X596342Y136734D01*
X596331Y136746D01*
X596261Y136804D01*
X596192Y136850D01*
X596146Y136861D01*
X596134Y136873D01*
X596123D01*
X595914Y136908D01*
X597003D01*
X592929D01*
Y129688D01*
Y136526D01*
X592941Y136433D01*
X592976Y136352D01*
X593010Y136294D01*
X593068Y136248D01*
X593114Y136214D01*
X593149Y136190D01*
X593184Y136167D01*
X593195D01*
X593242Y136144D01*
X593288Y136133D01*
X593334Y136109D01*
X593357Y136098D01*
X593380Y136086D01*
X593392Y136075D01*
X593415Y136017D01*
X593438Y135959D01*
Y135901D01*
Y135890D01*
Y135878D01*
Y131921D01*
X593450Y131678D01*
X593462Y131458D01*
X593496Y131273D01*
X593531Y131123D01*
X593554Y131007D01*
X593589Y130914D01*
X593600Y130868D01*
X593612Y130845D01*
X593681Y130718D01*
X593774Y130602D01*
X593866Y130486D01*
X593971Y130394D01*
X594052Y130324D01*
X594121Y130255D01*
X594167Y130220D01*
X594190Y130209D01*
X594352Y130116D01*
X594503Y130024D01*
X594665Y129954D01*
X594804Y129908D01*
X594931Y129862D01*
X595023Y129827D01*
X595093Y129815D01*
X595116Y129804D01*
X595290Y129769D01*
X595486Y129734D01*
X595671Y129711D01*
X595845Y129700D01*
X596007D01*
X596123Y129688D01*
X592929D01*
X599466D01*
X596713D01*
X596886Y129711D01*
X597037Y129734D01*
X597164Y129769D01*
X597268Y129792D01*
X597361Y129827D01*
X597418Y129838D01*
X597453Y129862D01*
X597465D01*
X597661Y129966D01*
X597823Y130081D01*
X597974Y130209D01*
X598090Y130336D01*
X598182Y130440D01*
X598251Y130533D01*
X598298Y130590D01*
X598309Y130614D01*
X598437Y130810D01*
X598529Y131042D01*
X598599Y131273D01*
X598645Y131493D01*
X598668Y131690D01*
X598680Y131771D01*
X598691Y131840D01*
Y131910D01*
Y131956D01*
Y131979D01*
Y131991D01*
Y135288D01*
X598703Y135485D01*
X598726Y135577D01*
X598749Y135647D01*
X598761Y135716D01*
X598784Y135762D01*
X598795Y135785D01*
Y135797D01*
X598841Y135878D01*
X598899Y135947D01*
X599004Y136051D01*
X599050Y136086D01*
X599085Y136109D01*
X599108Y136133D01*
X599119D01*
X599189Y136167D01*
X599235Y136202D01*
X599281Y136237D01*
X599304Y136248D01*
X599328Y136271D01*
X599339Y136283D01*
X599385Y136329D01*
X599408Y136375D01*
X599455Y136457D01*
X599466Y136526D01*
Y136549D01*
X599455Y136618D01*
X599432Y136676D01*
X599374Y136769D01*
X599304Y136815D01*
X599281Y136838D01*
X599270D01*
X599223Y136873D01*
X599177Y136885D01*
X599142Y136896D01*
X599131D01*
X599061Y136908D01*
D02*
G37*
G36*
X589447Y137035D02*
X589279D01*
X589377D01*
Y136318D01*
X589447Y136294D01*
X589504Y136260D01*
X589597Y136225D01*
X589643Y136202D01*
X589655Y136190D01*
X589701Y136144D01*
X589736Y136109D01*
X589759Y136063D01*
X589771Y136051D01*
X589817Y135936D01*
X589840Y135820D01*
X589852Y135762D01*
Y135716D01*
Y135693D01*
Y135681D01*
Y131169D01*
Y131030D01*
X589828Y130914D01*
X589817Y130822D01*
X589794Y130741D01*
X589771Y130683D01*
X589747Y130637D01*
X589736Y130614D01*
X589724Y130602D01*
X589690Y130556D01*
X589655Y130521D01*
X589632Y130509D01*
X589620Y130498D01*
X589597Y130486D01*
X589562Y130475D01*
X589481Y130440D01*
X589412Y130429D01*
X589389Y130417D01*
X589377D01*
Y129688D01*
X589279D01*
X592466D01*
X589377D01*
X589609Y129711D01*
X589840Y129746D01*
X590048Y129792D01*
X590245Y129862D01*
X590430Y129919D01*
X590592Y130000D01*
X590754Y130070D01*
X590893Y130151D01*
X591009Y130220D01*
X591124Y130290D01*
X591217Y130359D01*
X591298Y130417D01*
X591356Y130475D01*
X591402Y130509D01*
X591425Y130533D01*
X591437Y130544D01*
X591622Y130741D01*
X591772Y130961D01*
X591911Y131181D01*
X592027Y131412D01*
X592131Y131643D01*
X592212Y131875D01*
X592281Y132106D01*
X592339Y132326D01*
X592385Y132534D01*
X592409Y132731D01*
X592432Y132905D01*
X592455Y133055D01*
Y133171D01*
X592466Y133263D01*
Y133344D01*
X592455Y133680D01*
X592420Y133992D01*
X592362Y134293D01*
X592305Y134559D01*
X592212Y134825D01*
X592131Y135056D01*
X592027Y135276D01*
X591934Y135461D01*
X591830Y135635D01*
X591726Y135785D01*
X591645Y135913D01*
X591564Y136028D01*
X591495Y136109D01*
X591437Y136167D01*
X591402Y136202D01*
X591390Y136214D01*
X591240Y136352D01*
X591090Y136468D01*
X590939Y136572D01*
X590812Y136653D01*
X590696Y136723D01*
X590604Y136769D01*
X590546Y136792D01*
X590523Y136804D01*
X590338Y136873D01*
X590141Y136931D01*
X589956Y136966D01*
X589771Y137000D01*
X589620Y137012D01*
X589493Y137023D01*
X589447Y137035D01*
D02*
G37*
G36*
X577807Y133518D02*
X575702D01*
X575528Y133506D01*
X575459Y133483D01*
X575401Y133471D01*
X575354Y133448D01*
X575320Y133425D01*
X575308Y133414D01*
X575297D01*
X575250Y133379D01*
X575216Y133333D01*
X575169Y133240D01*
X575146Y133171D01*
Y133148D01*
Y133136D01*
X575158Y133032D01*
X575192Y132951D01*
X575239Y132881D01*
X575297Y132835D01*
X575354Y132800D01*
X575401Y132777D01*
X575435Y132754D01*
X575447D01*
X575516Y132743D01*
X575574Y132731D01*
X575609Y132719D01*
X575632Y132708D01*
X575667Y132696D01*
X575702Y132685D01*
X575713Y132673D01*
X575748Y132615D01*
X575759Y132534D01*
X575771Y132476D01*
Y132465D01*
Y132453D01*
Y130972D01*
X575759Y130833D01*
X575736Y130718D01*
X575702Y130648D01*
X575690Y130637D01*
Y130625D01*
X575667Y130579D01*
X575632Y130544D01*
X575609Y130521D01*
X575597Y130509D01*
X575574Y130498D01*
X575528Y130486D01*
X575447Y130452D01*
X575366Y130440D01*
X575343Y130429D01*
X575331D01*
Y129688D01*
X575234D01*
X578247D01*
X575331D01*
X575597Y129700D01*
X575725Y129711D01*
X575829Y129723D01*
X575921Y129734D01*
X575991Y129746D01*
X576037Y129757D01*
X576049D01*
X576303Y129804D01*
X576407Y129838D01*
X576511Y129862D01*
X576592Y129896D01*
X576650Y129908D01*
X576697Y129931D01*
X576708D01*
X576916Y130035D01*
X577021Y130081D01*
X577113Y130139D01*
X577194Y130185D01*
X577263Y130220D01*
X577310Y130243D01*
X577321Y130255D01*
X577449Y130336D01*
X577564Y130417D01*
X577668Y130498D01*
X577761Y130567D01*
X577830Y130625D01*
X577877Y130672D01*
X577911Y130706D01*
X577923Y130718D01*
Y132476D01*
Y132569D01*
X577935Y132627D01*
Y132650D01*
Y132661D01*
X577958Y132685D01*
X577981Y132719D01*
X578004Y132731D01*
X578016Y132743D01*
X578096Y132812D01*
X578154Y132870D01*
X578177Y132905D01*
X578189Y132916D01*
X578224Y132985D01*
X578235Y133055D01*
X578247Y133101D01*
Y133194D01*
X578224Y133263D01*
X578177Y133356D01*
X578131Y133414D01*
X578120Y133425D01*
X578108D01*
X578050Y133460D01*
X577992Y133483D01*
X577865Y133506D01*
X577807Y133518D01*
D02*
G37*
G36*
X572173Y137047D02*
X572173D01*
Y129688D01*
Y133275D01*
X572184Y133066D01*
X572196Y132858D01*
X572254Y132476D01*
X572335Y132141D01*
X572381Y131979D01*
X572427Y131840D01*
X572473Y131713D01*
X572520Y131597D01*
X572566Y131493D01*
X572601Y131412D01*
X572636Y131342D01*
X572659Y131296D01*
X572682Y131262D01*
Y131250D01*
X572774Y131076D01*
X572867Y130903D01*
X572983Y130764D01*
X573087Y130625D01*
X573179Y130521D01*
X573260Y130440D01*
X573307Y130394D01*
X573330Y130371D01*
X573503Y130232D01*
X573677Y130128D01*
X573839Y130024D01*
X574001Y129954D01*
X574128Y129896D01*
X574232Y129850D01*
X574302Y129827D01*
X574313Y129815D01*
X574325D01*
X574475Y129769D01*
X574602Y129734D01*
X574637Y129723D01*
X574672Y129711D01*
X574695D01*
X574753Y129700D01*
X574822D01*
X574973Y129688D01*
X575135D01*
Y130417D01*
X575054Y130452D01*
X574984Y130486D01*
X574938Y130509D01*
X574903Y130544D01*
X574857Y130579D01*
X574845Y130590D01*
X574822Y130648D01*
X574811Y130706D01*
X574799Y130833D01*
X574788Y130880D01*
Y130926D01*
Y130961D01*
Y130972D01*
Y135670D01*
X574811Y135843D01*
X574857Y135982D01*
X574926Y136098D01*
X575007Y136179D01*
X575088Y136237D01*
X575158Y136271D01*
X575204Y136294D01*
X575227D01*
Y137035D01*
X575088D01*
X574961Y137023D01*
X574857D01*
X574776Y137012D01*
X574707Y137000D01*
X574660D01*
X574625Y136989D01*
X574614D01*
X574440Y136931D01*
X574267Y136873D01*
X574116Y136804D01*
X573978Y136734D01*
X573862Y136676D01*
X573769Y136618D01*
X573723Y136584D01*
X573700Y136572D01*
X573434Y136375D01*
X573214Y136156D01*
X573017Y135936D01*
X572855Y135716D01*
X572728Y135531D01*
X572682Y135438D01*
X572636Y135369D01*
X572612Y135311D01*
X572589Y135265D01*
X572566Y135242D01*
Y135230D01*
X572439Y134906D01*
X572335Y134559D01*
X572265Y134235D01*
X572219Y133934D01*
X572207Y133795D01*
X572196Y133668D01*
X572184Y133552D01*
Y133460D01*
X572173Y133379D01*
Y137047D01*
X572173D01*
D02*
G37*
G36*
X582632Y136908D02*
X582065D01*
Y136156D01*
X582192Y136121D01*
X582296Y136075D01*
X582377Y136040D01*
X582447Y136005D01*
X582481Y135970D01*
X582516Y135947D01*
X582539Y135936D01*
Y135924D01*
X582574Y135866D01*
X582597Y135809D01*
X582632Y135670D01*
X582644Y135612D01*
Y135566D01*
Y135531D01*
Y135519D01*
Y134177D01*
Y134038D01*
X582632Y133946D01*
X582620Y133899D01*
X582609Y133876D01*
X582574Y133807D01*
X582528Y133738D01*
X582481Y133691D01*
X582470Y133668D01*
X582435Y133657D01*
X582389Y133633D01*
X582262Y133610D01*
X582192Y133599D01*
X582134Y133587D01*
X582100Y133575D01*
X582088D01*
Y132858D01*
X582192Y132847D01*
X582285Y132812D01*
X582354Y132789D01*
X582412Y132754D01*
X582458Y132731D01*
X582481Y132708D01*
X582505Y132696D01*
Y132685D01*
X582574Y132580D01*
X582609Y132476D01*
X582620Y132442D01*
X582632Y132407D01*
Y132384D01*
Y132372D01*
Y132349D01*
X582644Y132314D01*
Y132210D01*
Y132152D01*
Y132118D01*
Y132083D01*
Y132071D01*
Y131215D01*
X582655Y130961D01*
X582701Y130741D01*
X582771Y130544D01*
X582840Y130382D01*
X582910Y130255D01*
X582979Y130162D01*
X583025Y130104D01*
X583037Y130081D01*
X583199Y129943D01*
X583384Y129850D01*
X583569Y129781D01*
X583754Y129723D01*
X583916Y129700D01*
X584044Y129688D01*
X584090Y129676D01*
X578930D01*
X585814Y129676D01*
X584286Y129676D01*
X584402Y129688D01*
X584506Y129700D01*
X584587Y129723D01*
X584657Y129734D01*
X584715Y129746D01*
X584749Y129757D01*
X584761D01*
X584946Y129827D01*
X585027Y129862D01*
X585108Y129908D01*
X585166Y129943D01*
X585212Y129977D01*
X585235Y129989D01*
X585247Y130000D01*
X585409Y130151D01*
X585536Y130290D01*
X585582Y130348D01*
X585629Y130394D01*
X585640Y130429D01*
X585652Y130440D01*
X585710Y130533D01*
X585744Y130614D01*
X585791Y130741D01*
X585802Y130799D01*
X585814Y130833D01*
Y130914D01*
X585791Y130961D01*
X585756Y131042D01*
X585710Y131100D01*
X585698Y131123D01*
X585686D01*
X585640Y131169D01*
X585594Y131192D01*
X585513Y131238D01*
X585455Y131250D01*
X585432D01*
X585362Y131238D01*
X585305Y131215D01*
X585189Y131134D01*
X585143Y131088D01*
X585108Y131053D01*
X585096Y131030D01*
X585085Y131019D01*
X585050Y130984D01*
Y130996D01*
Y131007D01*
Y131019D01*
Y132071D01*
Y132164D01*
X585027Y132257D01*
X585015Y132338D01*
X584992Y132407D01*
X584969Y132476D01*
X584946Y132523D01*
X584934Y132546D01*
X584923Y132557D01*
X584807Y132731D01*
X584691Y132858D01*
X584634Y132916D01*
X584587Y132951D01*
X584564Y132974D01*
X584553Y132985D01*
X584391Y133090D01*
X584240Y133159D01*
X584171Y133194D01*
X584125Y133217D01*
X584090Y133228D01*
X584078D01*
X583870Y133286D01*
X583766Y133298D01*
X583662Y133309D01*
X583569Y133321D01*
X583442D01*
X583592Y133333D01*
X583731Y133356D01*
X583847Y133379D01*
X583951Y133402D01*
X584032Y133425D01*
X584090Y133448D01*
X584125Y133471D01*
X584136D01*
X584321Y133575D01*
X584402Y133633D01*
X584472Y133680D01*
X584518Y133726D01*
X584564Y133761D01*
X584587Y133784D01*
X584599Y133795D01*
X584761Y133992D01*
X584876Y134189D01*
X584969Y134397D01*
X585027Y134594D01*
X585062Y134767D01*
X585073Y134848D01*
Y134906D01*
X585085Y134964D01*
Y134999D01*
Y135022D01*
Y135033D01*
X585073Y135207D01*
X585050Y135357D01*
X585015Y135508D01*
X584969Y135647D01*
X584853Y135890D01*
X584726Y136098D01*
X584599Y136248D01*
X584483Y136364D01*
X584437Y136410D01*
X584402Y136433D01*
X584379Y136457D01*
X584368D01*
X584182Y136572D01*
X583997Y136665D01*
X583812Y136734D01*
X583639Y136792D01*
X583488Y136827D01*
X583372Y136850D01*
X583326D01*
X583291Y136861D01*
X583268D01*
X583106Y136873D01*
X582944Y136885D01*
X582782Y136896D01*
X582632Y136908D01*
D02*
G37*
%LPD*%
G36*
X607797Y138477D02*
X604707D01*
X604939Y138500D01*
X605170Y138534D01*
X605379Y138581D01*
X605575Y138650D01*
X605760Y138708D01*
X605922Y138789D01*
X606084Y138858D01*
X606223Y138939D01*
X606339Y139009D01*
X606455Y139078D01*
X606547Y139148D01*
X606628Y139206D01*
X606686Y139263D01*
X606732Y139298D01*
X606755Y139321D01*
X606767Y139333D01*
X606952Y139530D01*
X607102Y139749D01*
X607241Y139969D01*
X607357Y140200D01*
X607461Y140432D01*
X607542Y140663D01*
X607612Y140895D01*
X607669Y141115D01*
X607716Y141323D01*
X607739Y141519D01*
X607762Y141693D01*
X607785Y141843D01*
Y141959D01*
X607797Y142052D01*
Y138477D01*
D02*
G37*
G36*
X600485Y136896D02*
X600380Y136861D01*
X600311Y136815D01*
X600299Y136804D01*
X600288D01*
X600242Y136769D01*
X600218Y136723D01*
X600172Y136642D01*
X600161Y136572D01*
Y136908D01*
X600635D01*
X600485Y136896D01*
D02*
G37*
G36*
X600172Y136433D02*
X600207Y136352D01*
X600242Y136294D01*
X600299Y136248D01*
X600346Y136214D01*
X600380Y136190D01*
X600415Y136167D01*
X600427D01*
X600473Y136144D01*
X600519Y136133D01*
X600565Y136109D01*
X600589Y136098D01*
X600612Y136086D01*
X600623Y136075D01*
X600646Y136017D01*
X600670Y135959D01*
Y135901D01*
Y135890D01*
Y135878D01*
Y130833D01*
X600658Y130741D01*
X600646Y130683D01*
X600635Y130648D01*
X600623Y130637D01*
X600600Y130614D01*
X600589Y130602D01*
X600577D01*
X600554Y130590D01*
X600508Y130579D01*
X600450Y130556D01*
X600438Y130544D01*
X600427D01*
X600334Y130498D01*
X600276Y130452D01*
X600230Y130382D01*
X600195Y130324D01*
X600172Y130266D01*
X600161Y130220D01*
Y136538D01*
X600172Y136433D01*
D02*
G37*
G36*
X579253Y136896D02*
X579149Y136861D01*
X579080Y136815D01*
X579068Y136804D01*
X579057D01*
X579010Y136769D01*
X578987Y136723D01*
X578941Y136642D01*
X578930Y136572D01*
Y136908D01*
X579404D01*
X579253Y136896D01*
D02*
G37*
G36*
X578941Y136433D02*
X578976Y136352D01*
X579010Y136294D01*
X579068Y136248D01*
X579115Y136214D01*
X579149Y136190D01*
X579184Y136167D01*
X579196D01*
X579242Y136144D01*
X579288Y136133D01*
X579334Y136109D01*
X579358Y136098D01*
X579381Y136086D01*
X579392Y136075D01*
X579416Y136017D01*
X579439Y135959D01*
Y135901D01*
Y135890D01*
Y135878D01*
Y130833D01*
X579427Y130741D01*
X579416Y130683D01*
X579404Y130648D01*
X579392Y130637D01*
X579369Y130614D01*
X579358Y130602D01*
X579346D01*
X579323Y130590D01*
X579277Y130579D01*
X579219Y130556D01*
X579207Y130544D01*
X579196D01*
X579103Y130498D01*
X579045Y130452D01*
X578999Y130382D01*
X578964Y130324D01*
X578941Y130266D01*
X578930Y130220D01*
Y136538D01*
X578941Y136433D01*
D02*
G37*
G36*
X593265Y136896D02*
X593149Y136861D01*
X593080Y136815D01*
X593068Y136804D01*
X593056D01*
X593010Y136769D01*
X592987Y136723D01*
X592941Y136630D01*
X592929Y136561D01*
Y136908D01*
X593404D01*
X593265Y136896D01*
D02*
G37*
D10*
X561693Y308350D02*
G03*
X561693Y308350I-492J0D01*
G01*
X600252Y349354D02*
G03*
X600252Y349354I-492J0D01*
G01*
D11*
X488118Y158737D02*
G03*
X488118Y139263I20882J-9737D01*
G01*
X499263Y128118D02*
G03*
X518737Y128118I9737J20882D01*
G01*
X529882Y139263D02*
G03*
X529882Y158737I-20882J9737D01*
G01*
X518737Y169882D02*
G03*
X499263Y169882I-9737J-20882D01*
G01*
X359263Y128118D02*
G03*
X378737Y128118I9737J20882D01*
G01*
X348118Y158737D02*
G03*
X348118Y139263I20882J-9737D01*
G01*
X378737Y169882D02*
G03*
X359263Y169882I-9737J-20882D01*
G01*
X389882Y139263D02*
G03*
X389882Y158737I-20882J9737D01*
G01*
X488118Y258737D02*
G03*
X488118Y239263I20882J-9737D01*
G01*
X499263Y228118D02*
G03*
X518737Y228118I9737J20882D01*
G01*
X529882Y239263D02*
G03*
X529882Y258737I-20882J9737D01*
G01*
X518737Y269882D02*
G03*
X499263Y269882I-9737J-20882D01*
G01*
X359263Y228118D02*
G03*
X378737Y228118I9737J20882D01*
G01*
X348118Y258737D02*
G03*
X348118Y239263I20882J-9737D01*
G01*
X378737Y269882D02*
G03*
X359263Y269882I-9737J-20882D01*
G01*
X389882Y239263D02*
G03*
X389882Y258737I-20882J9737D01*
G01*
X488118Y358737D02*
G03*
X488118Y339263I20882J-9737D01*
G01*
X499263Y328118D02*
G03*
X518737Y328118I9737J20882D01*
G01*
X529882Y339263D02*
G03*
X529882Y358737I-20882J9737D01*
G01*
X518737Y369882D02*
G03*
X499263Y369882I-9737J-20882D01*
G01*
X359263Y328118D02*
G03*
X378737Y328118I9737J20882D01*
G01*
X348118Y358737D02*
G03*
X348118Y339263I20882J-9737D01*
G01*
X378737Y369882D02*
G03*
X359263Y369882I-9737J-20882D01*
G01*
X389882Y339263D02*
G03*
X389882Y358737I-20882J9737D01*
G01*
X488118Y458737D02*
G03*
X488118Y439263I20882J-9737D01*
G01*
X499263Y428118D02*
G03*
X518737Y428118I9737J20882D01*
G01*
X529882Y439263D02*
G03*
X529882Y458737I-20882J9737D01*
G01*
X518737Y469882D02*
G03*
X499263Y469882I-9737J-20882D01*
G01*
X359263Y428118D02*
G03*
X378737Y428118I9737J20882D01*
G01*
X348118Y458737D02*
G03*
X348118Y439263I20882J-9737D01*
G01*
X378737Y469882D02*
G03*
X359263Y469882I-9737J-20882D01*
G01*
X389882Y439263D02*
G03*
X389882Y458737I-20882J9737D01*
G01*
X606000Y409000D02*
X608000D01*
Y437000D01*
X606000D02*
X608000D01*
X606000Y451000D02*
X608000D01*
Y479000D01*
X606000D02*
X608000D01*
X679000Y248000D02*
X681000D01*
Y263000D01*
X679000D02*
X681000D01*
X600095Y290700D02*
X611905D01*
X600095Y309300D02*
X611905D01*
X597200Y297047D02*
Y302953D01*
X614800Y297047D02*
Y302953D01*
X648079Y174165D02*
Y219835D01*
X623333Y174165D02*
Y219835D01*
X648079D01*
X623333Y174165D02*
X648079D01*
X654257Y143995D02*
X679129D01*
X654257Y220036D02*
X679129D01*
X654257Y143995D02*
Y220036D01*
X679129Y143995D02*
Y220036D01*
X633252Y405075D02*
X693488D01*
Y283028D02*
Y405075D01*
X633252Y283028D02*
X693488D01*
X633252D02*
Y405075D01*
X576000Y472000D02*
X604000D01*
X576000Y458000D02*
X604000D01*
X576000Y444000D02*
X604000D01*
X313000Y170000D02*
X315000D01*
X313000Y150000D02*
Y170000D01*
Y150000D02*
X315000D01*
X313000Y350000D02*
X315000D01*
X313000D02*
Y370000D01*
X315000D01*
X576000Y416000D02*
X604000D01*
X576000Y430000D02*
X604000D01*
X649000Y256000D02*
X677000D01*
X590000Y486000D02*
Y491000D01*
X663000Y270000D02*
Y275000D01*
X557000Y150000D02*
Y153999D01*
X558999D01*
X559666Y153332D01*
Y151999D01*
X558999Y151333D01*
X557000D01*
X558333D02*
X559666Y150000D01*
X563664Y153999D02*
X560999D01*
Y150000D01*
X563664D01*
X560999Y151999D02*
X562332D01*
X564997Y153999D02*
Y151333D01*
X566330Y150000D01*
X567663Y151333D01*
Y153999D01*
X571662Y150000D02*
X568996D01*
X571662Y152666D01*
Y153332D01*
X570996Y153999D01*
X569663D01*
X568996Y153332D01*
X572995D02*
X573661Y153999D01*
X574994D01*
X575661Y153332D01*
Y150666D01*
X574994Y150000D01*
X573661D01*
X572995Y150666D01*
Y153332D01*
X579659Y150000D02*
X576994D01*
X579659Y152666D01*
Y153332D01*
X578993Y153999D01*
X577660D01*
X576994Y153332D01*
X580992D02*
X581659Y153999D01*
X582992D01*
X583658Y153332D01*
Y150666D01*
X582992Y150000D01*
X581659D01*
X580992Y150666D01*
Y153332D01*
X584991D02*
X585657Y153999D01*
X586990D01*
X587657Y153332D01*
Y150666D01*
X586990Y150000D01*
X585657D01*
X584991Y150666D01*
Y153332D01*
X588990Y153999D02*
X591655D01*
Y153332D01*
X588990Y150666D01*
Y150000D01*
X595654D02*
X592988D01*
X595654Y152666D01*
Y153332D01*
X594988Y153999D01*
X593655D01*
X592988Y153332D01*
X596987D02*
X597653Y153999D01*
X598986D01*
X599653Y153332D01*
Y150666D01*
X598986Y150000D01*
X597653D01*
X596987Y150666D01*
Y153332D01*
X600986Y153999D02*
Y150000D01*
X602985D01*
X603652Y150666D01*
Y151333D01*
X602985Y151999D01*
X600986D01*
X602985D01*
X603652Y152666D01*
Y153332D01*
X602985Y153999D01*
X600986D01*
X307668Y188666D02*
X307001Y187999D01*
Y186667D01*
X307668Y186000D01*
X310334D01*
X311000Y186667D01*
Y187999D01*
X310334Y188666D01*
X307001Y189999D02*
X311000D01*
X309001D01*
Y192665D01*
X307001D01*
X311000D01*
X307001Y193997D02*
Y196663D01*
X307668D01*
X310334Y193997D01*
X311000D01*
X486999Y180998D02*
X485999Y181998D01*
X484000D01*
X483000Y180998D01*
Y177000D01*
X484000Y176000D01*
X485999D01*
X486999Y177000D01*
X488998Y181998D02*
Y176000D01*
Y178999D01*
X492997D01*
Y181998D01*
Y176000D01*
X494996D02*
Y179999D01*
X496995Y181998D01*
X498995Y179999D01*
Y176000D01*
Y178999D01*
X494996D01*
X500994Y176000D02*
Y181998D01*
X504993Y176000D01*
Y181998D01*
X506992Y176000D02*
Y181998D01*
X510991Y176000D01*
Y181998D01*
X516989D02*
X512990D01*
Y176000D01*
X516989D01*
X512990Y178999D02*
X514990D01*
X518988Y181998D02*
Y176000D01*
X522987D01*
X530984Y181998D02*
X534983D01*
Y180998D01*
X530984Y177000D01*
Y176000D01*
X346999Y180998D02*
X345999Y181998D01*
X344000D01*
X343000Y180998D01*
Y177000D01*
X344000Y176000D01*
X345999D01*
X346999Y177000D01*
X348998Y181998D02*
Y176000D01*
Y178999D01*
X352997D01*
Y181998D01*
Y176000D01*
X354996D02*
Y179999D01*
X356996Y181998D01*
X358995Y179999D01*
Y176000D01*
Y178999D01*
X354996D01*
X360994Y176000D02*
Y181998D01*
X364993Y176000D01*
Y181998D01*
X366992Y176000D02*
Y181998D01*
X370991Y176000D01*
Y181998D01*
X376989D02*
X372990D01*
Y176000D01*
X376989D01*
X372990Y178999D02*
X374990D01*
X378988Y181998D02*
Y176000D01*
X382987D01*
X394983Y181998D02*
X392984Y180998D01*
X390985Y178999D01*
Y177000D01*
X391984Y176000D01*
X393984D01*
X394983Y177000D01*
Y177999D01*
X393984Y178999D01*
X390985D01*
X486999Y280998D02*
X485999Y281998D01*
X484000D01*
X483000Y280998D01*
Y277000D01*
X484000Y276000D01*
X485999D01*
X486999Y277000D01*
X488998Y281998D02*
Y276000D01*
Y278999D01*
X492997D01*
Y281998D01*
Y276000D01*
X494996D02*
Y279999D01*
X496995Y281998D01*
X498995Y279999D01*
Y276000D01*
Y278999D01*
X494996D01*
X500994Y276000D02*
Y281998D01*
X504993Y276000D01*
Y281998D01*
X506992Y276000D02*
Y281998D01*
X510991Y276000D01*
Y281998D01*
X516989D02*
X512990D01*
Y276000D01*
X516989D01*
X512990Y278999D02*
X514990D01*
X518988Y281998D02*
Y276000D01*
X522987D01*
X534983Y281998D02*
X530984D01*
Y278999D01*
X532984Y279999D01*
X533984D01*
X534983Y278999D01*
Y277000D01*
X533984Y276000D01*
X531984D01*
X530984Y277000D01*
X345999Y280998D02*
X344999Y281998D01*
X343000D01*
X342000Y280998D01*
Y277000D01*
X343000Y276000D01*
X344999D01*
X345999Y277000D01*
X347998Y281998D02*
Y276000D01*
Y278999D01*
X351997D01*
Y281998D01*
Y276000D01*
X353996D02*
Y279999D01*
X355995Y281998D01*
X357995Y279999D01*
Y276000D01*
Y278999D01*
X353996D01*
X359994Y276000D02*
Y281998D01*
X363993Y276000D01*
Y281998D01*
X365992Y276000D02*
Y281998D01*
X369991Y276000D01*
Y281998D01*
X375989D02*
X371990D01*
Y276000D01*
X375989D01*
X371990Y278999D02*
X373990D01*
X377988Y281998D02*
Y276000D01*
X381987D01*
X392984D02*
Y281998D01*
X389984Y278999D01*
X393983D01*
X486999Y380998D02*
X485999Y381998D01*
X484000D01*
X483000Y380998D01*
Y377000D01*
X484000Y376000D01*
X485999D01*
X486999Y377000D01*
X488998Y381998D02*
Y376000D01*
Y378999D01*
X492997D01*
Y381998D01*
Y376000D01*
X494996D02*
Y379999D01*
X496995Y381998D01*
X498995Y379999D01*
Y376000D01*
Y378999D01*
X494996D01*
X500994Y376000D02*
Y381998D01*
X504993Y376000D01*
Y381998D01*
X506992Y376000D02*
Y381998D01*
X510991Y376000D01*
Y381998D01*
X516989D02*
X512990D01*
Y376000D01*
X516989D01*
X512990Y378999D02*
X514990D01*
X518988Y381998D02*
Y376000D01*
X522987D01*
X530984Y380998D02*
X531984Y381998D01*
X533984D01*
X534983Y380998D01*
Y379999D01*
X533984Y378999D01*
X532984D01*
X533984D01*
X534983Y377999D01*
Y377000D01*
X533984Y376000D01*
X531984D01*
X530984Y377000D01*
X346999Y380998D02*
X345999Y381998D01*
X344000D01*
X343000Y380998D01*
Y377000D01*
X344000Y376000D01*
X345999D01*
X346999Y377000D01*
X348998Y381998D02*
Y376000D01*
Y378999D01*
X352997D01*
Y381998D01*
Y376000D01*
X354996D02*
Y379999D01*
X356996Y381998D01*
X358995Y379999D01*
Y376000D01*
Y378999D01*
X354996D01*
X360994Y376000D02*
Y381998D01*
X364993Y376000D01*
Y381998D01*
X366992Y376000D02*
Y381998D01*
X370991Y376000D01*
Y381998D01*
X376989D02*
X372990D01*
Y376000D01*
X376989D01*
X372990Y378999D02*
X374990D01*
X378988Y381998D02*
Y376000D01*
X382987D01*
X394983D02*
X390985D01*
X394983Y379999D01*
Y380998D01*
X393984Y381998D01*
X391984D01*
X390985Y380998D01*
X486999Y480998D02*
X485999Y481998D01*
X484000D01*
X483000Y480998D01*
Y477000D01*
X484000Y476000D01*
X485999D01*
X486999Y477000D01*
X488998Y481998D02*
Y476000D01*
Y478999D01*
X492997D01*
Y481998D01*
Y476000D01*
X494996D02*
Y479999D01*
X496995Y481998D01*
X498995Y479999D01*
Y476000D01*
Y478999D01*
X494996D01*
X500994Y476000D02*
Y481998D01*
X504993Y476000D01*
Y481998D01*
X506992Y476000D02*
Y481998D01*
X510991Y476000D01*
Y481998D01*
X516989D02*
X512990D01*
Y476000D01*
X516989D01*
X512990Y478999D02*
X514990D01*
X518988Y481998D02*
Y476000D01*
X522987D01*
X530984D02*
X532984D01*
X531984D01*
Y481998D01*
X530984Y480998D01*
X346999D02*
X345999Y481998D01*
X344000D01*
X343000Y480998D01*
Y477000D01*
X344000Y476000D01*
X345999D01*
X346999Y477000D01*
X348998Y481998D02*
Y476000D01*
Y478999D01*
X352997D01*
Y481998D01*
Y476000D01*
X354996D02*
Y479999D01*
X356996Y481998D01*
X358995Y479999D01*
Y476000D01*
Y478999D01*
X354996D01*
X360994Y476000D02*
Y481998D01*
X364993Y476000D01*
Y481998D01*
X366992Y476000D02*
Y481998D01*
X370991Y476000D01*
Y481998D01*
X376989D02*
X372990D01*
Y476000D01*
X376989D01*
X372990Y478999D02*
X374990D01*
X378988Y481998D02*
Y476000D01*
X382987D01*
X390985Y480998D02*
X391984Y481998D01*
X393984D01*
X394983Y480998D01*
Y477000D01*
X393984Y476000D01*
X391984D01*
X390985Y477000D01*
Y480998D01*
X588000Y291000D02*
X584001D01*
Y292999D01*
X584668Y293666D01*
X586001D01*
X586667Y292999D01*
Y291000D01*
Y292333D02*
X588000Y293666D01*
X584001Y297664D02*
Y294999D01*
X588000D01*
Y297664D01*
X586001Y294999D02*
Y296332D01*
X584668Y301663D02*
X584001Y300997D01*
Y299664D01*
X584668Y298997D01*
X585334D01*
X586001Y299664D01*
Y300997D01*
X586667Y301663D01*
X587334D01*
X588000Y300997D01*
Y299664D01*
X587334Y298997D01*
X584001Y305662D02*
Y302996D01*
X588000D01*
Y305662D01*
X586001Y302996D02*
Y304329D01*
X584001Y306995D02*
Y309661D01*
Y308328D01*
X588000D01*
X614332Y472334D02*
X614999Y473001D01*
Y474334D01*
X614332Y475000D01*
X613666D01*
X612999Y474334D01*
Y473001D01*
X612333Y472334D01*
X611666D01*
X611000Y473001D01*
Y474334D01*
X611666Y475000D01*
X614999Y468335D02*
Y471001D01*
X611000D01*
Y468335D01*
X612999Y471001D02*
Y469668D01*
X614999Y467003D02*
X611000D01*
Y464337D01*
X614999Y460338D02*
Y463004D01*
X611000D01*
Y460338D01*
X612999Y463004D02*
Y461671D01*
X614332Y456339D02*
X614999Y457006D01*
Y458339D01*
X614332Y459005D01*
X611666D01*
X611000Y458339D01*
Y457006D01*
X611666Y456339D01*
X614999Y455007D02*
Y452341D01*
Y453674D01*
X611000D01*
X614999Y431334D02*
Y434000D01*
X611000D01*
Y431334D01*
X612999Y434000D02*
Y432667D01*
X611000Y430001D02*
X614999D01*
X611000Y427336D01*
X614999D01*
X611000Y426003D02*
X613666D01*
X614999Y424670D01*
X613666Y423337D01*
X611000D01*
X612999D01*
Y426003D01*
X614999Y422004D02*
X611000D01*
Y420005D01*
X611666Y419338D01*
X612333D01*
X612999Y420005D01*
Y422004D01*
Y420005D01*
X613666Y419338D01*
X614332D01*
X614999Y420005D01*
Y422004D01*
Y418005D02*
X611000D01*
Y415339D01*
X614999Y411341D02*
Y414007D01*
X611000D01*
Y411341D01*
X612999Y414007D02*
Y412674D01*
X684000Y264000D02*
X687999D01*
Y262001D01*
X687332Y261334D01*
X685999D01*
X685333Y262001D01*
Y264000D01*
X687999Y258002D02*
Y259335D01*
X687332Y260001D01*
X684666D01*
X684000Y259335D01*
Y258002D01*
X684666Y257335D01*
X687332D01*
X687999Y258002D01*
Y256003D02*
X684000D01*
X685333Y254670D01*
X684000Y253337D01*
X687999D01*
Y249338D02*
Y252004D01*
X684000D01*
Y249338D01*
X685999Y252004D02*
Y250671D01*
X684000Y248005D02*
X687999D01*
Y246006D01*
X687332Y245339D01*
X685999D01*
X685333Y246006D01*
Y248005D01*
Y246672D02*
X684000Y245339D01*
X307668Y248666D02*
X307001Y247999D01*
Y246666D01*
X307668Y246000D01*
X310334D01*
X311000Y246666D01*
Y247999D01*
X310334Y248666D01*
X307001Y249999D02*
X311000D01*
X309001D01*
Y252664D01*
X307001D01*
X311000D01*
Y255997D02*
X307001D01*
X309001Y253997D01*
Y256663D01*
X307668Y228666D02*
X307001Y227999D01*
Y226666D01*
X307668Y226000D01*
X310334D01*
X311000Y226666D01*
Y227999D01*
X310334Y228666D01*
X307001Y229999D02*
X311000D01*
X309001D01*
Y232664D01*
X307001D01*
X311000D01*
X307001Y236663D02*
Y233997D01*
X309001D01*
X308334Y235330D01*
Y235997D01*
X309001Y236663D01*
X310334D01*
X311000Y235997D01*
Y234664D01*
X310334Y233997D01*
X307668Y208666D02*
X307001Y207999D01*
Y206666D01*
X307668Y206000D01*
X310334D01*
X311000Y206666D01*
Y207999D01*
X310334Y208666D01*
X307001Y209999D02*
X311000D01*
X309001D01*
Y212665D01*
X307001D01*
X311000D01*
X307001Y216663D02*
X307668Y215330D01*
X309001Y213997D01*
X310334D01*
X311000Y214664D01*
Y215997D01*
X310334Y216663D01*
X309667D01*
X309001Y215997D01*
Y213997D01*
X307668Y157666D02*
X307001Y156999D01*
Y155666D01*
X307668Y155000D01*
X310334D01*
X311000Y155666D01*
Y156999D01*
X310334Y157666D01*
X309001D01*
Y156333D01*
X311000Y158999D02*
X307001D01*
X311000Y161664D01*
X307001D01*
Y162997D02*
X311000D01*
Y164997D01*
X310334Y165663D01*
X307668D01*
X307001Y164997D01*
Y162997D01*
X307668Y446666D02*
X307001Y445999D01*
Y444666D01*
X307668Y444000D01*
X310334D01*
X311000Y444666D01*
Y445999D01*
X310334Y446666D01*
X307001Y447999D02*
X311000D01*
X309001D01*
Y450665D01*
X307001D01*
X311000D01*
X307668Y451997D02*
X307001Y452664D01*
Y453997D01*
X307668Y454663D01*
X310334D01*
X311000Y453997D01*
Y452664D01*
X310334Y451997D01*
X307668D01*
Y427666D02*
X307001Y426999D01*
Y425666D01*
X307668Y425000D01*
X310334D01*
X311000Y425666D01*
Y426999D01*
X310334Y427666D01*
X307001Y428999D02*
X311000D01*
X309001D01*
Y431665D01*
X307001D01*
X311000D01*
Y432997D02*
Y434330D01*
Y433664D01*
X307001D01*
X307668Y432997D01*
Y406666D02*
X307001Y405999D01*
Y404666D01*
X307668Y404000D01*
X310334D01*
X311000Y404666D01*
Y405999D01*
X310334Y406666D01*
X307001Y407999D02*
X311000D01*
X309001D01*
Y410665D01*
X307001D01*
X311000D01*
Y414663D02*
Y411997D01*
X308334Y414663D01*
X307668D01*
X307001Y413997D01*
Y412664D01*
X307668Y411997D01*
Y387666D02*
X307001Y386999D01*
Y385666D01*
X307668Y385000D01*
X310334D01*
X311000Y385666D01*
Y386999D01*
X310334Y387666D01*
X307001Y388999D02*
X311000D01*
X309001D01*
Y391665D01*
X307001D01*
X311000D01*
X307668Y392997D02*
X307001Y393664D01*
Y394997D01*
X307668Y395663D01*
X308334D01*
X309001Y394997D01*
Y394330D01*
Y394997D01*
X309667Y395663D01*
X310334D01*
X311000Y394997D01*
Y393664D01*
X310334Y392997D01*
X307668Y357666D02*
X307001Y356999D01*
Y355666D01*
X307668Y355000D01*
X310334D01*
X311000Y355666D01*
Y356999D01*
X310334Y357666D01*
X309001D01*
Y356333D01*
X311000Y358999D02*
X307001D01*
X311000Y361665D01*
X307001D01*
Y362997D02*
X311000D01*
Y364997D01*
X310334Y365663D01*
X307668D01*
X307001Y364997D01*
Y362997D01*
X577000Y490499D02*
X578333D01*
X577666D01*
Y486500D01*
X577000D01*
X578333D01*
X582998Y489832D02*
X582332Y490499D01*
X580999D01*
X580332Y489832D01*
Y489166D01*
X580999Y488499D01*
X582332D01*
X582998Y487833D01*
Y487166D01*
X582332Y486500D01*
X580999D01*
X580332Y487166D01*
X586330Y490499D02*
X584997D01*
X584331Y489832D01*
Y487166D01*
X584997Y486500D01*
X586330D01*
X586997Y487166D01*
Y489832D01*
X586330Y490499D01*
X593000D02*
X594333D01*
X593666D01*
Y486500D01*
X593000D01*
X594333D01*
X596332D02*
Y490499D01*
X598998Y486500D01*
Y490499D01*
X600331D02*
Y487833D01*
X601664Y486500D01*
X602997Y487833D01*
Y490499D01*
X666000Y273999D02*
X667333D01*
X666666D01*
Y270000D01*
X666000D01*
X667333D01*
X671998Y273332D02*
X671332Y273999D01*
X669999D01*
X669332Y273332D01*
Y272666D01*
X669999Y271999D01*
X671332D01*
X671998Y271333D01*
Y270666D01*
X671332Y270000D01*
X669999D01*
X669332Y270666D01*
X675330Y273999D02*
X673997D01*
X673331Y273332D01*
Y270666D01*
X673997Y270000D01*
X675330D01*
X675997Y270666D01*
Y273332D01*
X675330Y273999D01*
X650000D02*
X651333D01*
X650666D01*
Y270000D01*
X650000D01*
X651333D01*
X653332D02*
Y273999D01*
X655998Y270000D01*
Y273999D01*
X657331D02*
Y271333D01*
X658664Y270000D01*
X659997Y271333D01*
Y273999D01*
X434670Y290999D02*
Y287001D01*
X436669D01*
X437335Y287667D01*
Y290333D01*
X436669Y290999D01*
X434670D01*
X438668Y287001D02*
Y289666D01*
X440001Y290999D01*
X441334Y289666D01*
Y287001D01*
Y289000D01*
X438668D01*
X445333Y290333D02*
X444666Y290999D01*
X443334D01*
X442667Y290333D01*
Y287667D01*
X443334Y287001D01*
X444666D01*
X445333Y287667D01*
X446666Y289000D02*
X449332D01*
X452664Y287001D02*
Y290999D01*
X450665Y289000D01*
X453330D01*
X434670Y309999D02*
Y306001D01*
X436669D01*
X437335Y306667D01*
Y309333D01*
X436669Y309999D01*
X434670D01*
X438668Y306001D02*
Y308666D01*
X440001Y309999D01*
X441334Y308666D01*
Y306001D01*
Y308000D01*
X438668D01*
X445333Y309333D02*
X444666Y309999D01*
X443334D01*
X442667Y309333D01*
Y306667D01*
X443334Y306001D01*
X444666D01*
X445333Y306667D01*
X446666Y308000D02*
X449332D01*
X450665Y309333D02*
X451331Y309999D01*
X452664D01*
X453330Y309333D01*
Y308666D01*
X452664Y308000D01*
X451997D01*
X452664D01*
X453330Y307334D01*
Y306667D01*
X452664Y306001D01*
X451331D01*
X450665Y306667D01*
X536667Y393001D02*
X536001Y392334D01*
Y391001D01*
X536667Y390335D01*
X537334D01*
X538000Y391001D01*
Y392334D01*
X538666Y393001D01*
X539333D01*
X539999Y392334D01*
Y391001D01*
X539333Y390335D01*
X536001Y394334D02*
X539999D01*
Y396333D01*
X539333Y396999D01*
X536667D01*
X536001Y396333D01*
Y394334D01*
Y398332D02*
Y399665D01*
Y398999D01*
X539999D01*
Y398332D01*
Y399665D01*
X541667Y410335D02*
X541001Y409668D01*
Y408335D01*
X541667Y407669D01*
X542334D01*
X543000Y408335D01*
Y409668D01*
X543666Y410335D01*
X544333D01*
X544999Y409668D01*
Y408335D01*
X544333Y407669D01*
X541667Y414334D02*
X541001Y413667D01*
Y412334D01*
X541667Y411668D01*
X544333D01*
X544999Y412334D01*
Y413667D01*
X544333Y414334D01*
X541001Y415666D02*
X544999D01*
Y418332D01*
X541001Y419665D02*
X544999D01*
X543666D01*
X541001Y422331D01*
X543000Y420332D01*
X544999Y422331D01*
X546667Y435334D02*
X546001Y434667D01*
Y433334D01*
X546667Y432668D01*
X549333D01*
X549999Y433334D01*
Y434667D01*
X549333Y435334D01*
X546667Y439332D02*
X546001Y438666D01*
Y437333D01*
X546667Y436666D01*
X547334D01*
X548000Y437333D01*
Y438666D01*
X548666Y439332D01*
X549333D01*
X549999Y438666D01*
Y437333D01*
X549333Y436666D01*
X547500Y316299D02*
Y312966D01*
X548166Y312300D01*
X549499D01*
X550166Y312966D01*
Y316299D01*
X551499Y312300D02*
X552832D01*
X552165D01*
Y316299D01*
X551499Y315632D01*
X557497Y312300D02*
X554831D01*
X557497Y314966D01*
Y315632D01*
X556830Y316299D01*
X555497D01*
X554831Y315632D01*
X636002Y225999D02*
Y222667D01*
X636668Y222001D01*
X638001D01*
X638667Y222667D01*
Y225999D01*
X640000Y222001D02*
X641333D01*
X640667D01*
Y225999D01*
X640000Y225333D01*
X643333D02*
X643999Y225999D01*
X645332D01*
X645998Y225333D01*
Y222667D01*
X645332Y222001D01*
X643999D01*
X643333Y222667D01*
Y225333D01*
X656668Y225999D02*
Y222667D01*
X657334Y222001D01*
X658667D01*
X659334Y222667D01*
Y225999D01*
X660667D02*
X663332D01*
Y225333D01*
X660667Y222667D01*
Y222001D01*
X586668Y373999D02*
Y370667D01*
X587334Y370001D01*
X588667D01*
X589334Y370667D01*
Y373999D01*
X593332Y370001D02*
X590666D01*
X593332Y372666D01*
Y373333D01*
X592666Y373999D01*
X591333D01*
X590666Y373333D01*
X602000Y315333D02*
X601334Y315999D01*
X600001D01*
X599334Y315333D01*
Y314666D01*
X600001Y314000D01*
X601334D01*
X602000Y313334D01*
Y312667D01*
X601334Y312001D01*
X600001D01*
X599334Y312667D01*
X603333Y312001D02*
X604666D01*
X603999D01*
Y315999D01*
X603333Y315333D01*
X664335Y424001D02*
Y427999D01*
X666334D01*
X667001Y427333D01*
Y426000D01*
X666334Y425334D01*
X664335D01*
X665668D02*
X667001Y424001D01*
X670333D02*
Y427999D01*
X668334Y426000D01*
X670999D01*
X672332Y424001D02*
X673665D01*
X672999D01*
Y427999D01*
X672332Y427333D01*
X664668Y432001D02*
Y435999D01*
X666668D01*
X667334Y435333D01*
Y434000D01*
X666668Y433334D01*
X664668D01*
X666001D02*
X667334Y432001D01*
X670666D02*
Y435999D01*
X668667Y434000D01*
X671333D01*
X672666Y435333D02*
X673332Y435999D01*
X674665D01*
X675332Y435333D01*
Y432667D01*
X674665Y432001D01*
X673332D01*
X672666Y432667D01*
Y435333D01*
X664668Y440001D02*
Y443999D01*
X666668D01*
X667334Y443333D01*
Y442000D01*
X666668Y441334D01*
X664668D01*
X666001D02*
X667334Y440001D01*
X668667Y443333D02*
X669334Y443999D01*
X670666D01*
X671333Y443333D01*
Y442666D01*
X670666Y442000D01*
X670000D01*
X670666D01*
X671333Y441334D01*
Y440667D01*
X670666Y440001D01*
X669334D01*
X668667Y440667D01*
X672666D02*
X673332Y440001D01*
X674665D01*
X675332Y440667D01*
Y443333D01*
X674665Y443999D01*
X673332D01*
X672666Y443333D01*
Y442666D01*
X673332Y442000D01*
X675332D01*
X614668Y279001D02*
Y282999D01*
X616668D01*
X617334Y282333D01*
Y281000D01*
X616668Y280334D01*
X614668D01*
X616001D02*
X617334Y279001D01*
X618667Y282333D02*
X619334Y282999D01*
X620666D01*
X621333Y282333D01*
Y281666D01*
X620666Y281000D01*
X620000D01*
X620666D01*
X621333Y280334D01*
Y279667D01*
X620666Y279001D01*
X619334D01*
X618667Y279667D01*
X622666Y282333D02*
X623332Y282999D01*
X624665D01*
X625332Y282333D01*
Y281666D01*
X624665Y281000D01*
X625332Y280334D01*
Y279667D01*
X624665Y279001D01*
X623332D01*
X622666Y279667D01*
Y280334D01*
X623332Y281000D01*
X622666Y281666D01*
Y282333D01*
X623332Y281000D02*
X624665D01*
X567999Y357668D02*
X564001D01*
Y359667D01*
X564667Y360334D01*
X566000D01*
X566666Y359667D01*
Y357668D01*
Y359001D02*
X567999Y360334D01*
X564001Y364332D02*
Y361666D01*
X566000D01*
X565334Y362999D01*
Y363666D01*
X566000Y364332D01*
X567333D01*
X567999Y363666D01*
Y362333D01*
X567333Y361666D01*
X575999Y357668D02*
X572001D01*
Y359667D01*
X572667Y360334D01*
X574000D01*
X574666Y359667D01*
Y357668D01*
Y359001D02*
X575999Y360334D01*
Y363666D02*
X572001D01*
X574000Y361666D01*
Y364332D01*
X614618Y346584D02*
X610619D01*
Y348583D01*
X611285Y349250D01*
X612618D01*
X613285Y348583D01*
Y346584D01*
Y347917D02*
X614618Y349250D01*
Y353248D02*
Y350583D01*
X611952Y353248D01*
X611285D01*
X610619Y352582D01*
Y351249D01*
X611285Y350583D01*
X565334Y437999D02*
X564001D01*
X564668D01*
Y434667D01*
X564001Y434001D01*
X563335D01*
X562668Y434667D01*
X566667Y434001D02*
Y437999D01*
X568666D01*
X569333Y437333D01*
Y436000D01*
X568666Y435334D01*
X566667D01*
X570666Y437333D02*
X571332Y437999D01*
X572665D01*
X573332Y437333D01*
Y436666D01*
X572665Y436000D01*
X573332Y435334D01*
Y434667D01*
X572665Y434001D01*
X571332D01*
X570666Y434667D01*
Y435334D01*
X571332Y436000D01*
X570666Y436666D01*
Y437333D01*
X571332Y436000D02*
X572665D01*
X565334Y424999D02*
X564001D01*
X564668D01*
Y421667D01*
X564001Y421001D01*
X563335D01*
X562668Y421667D01*
X566667Y421001D02*
Y424999D01*
X568666D01*
X569333Y424333D01*
Y423000D01*
X568666Y422334D01*
X566667D01*
X570666Y424999D02*
X573332D01*
Y424333D01*
X570666Y421667D01*
Y421001D01*
X565334Y410999D02*
X564001D01*
X564668D01*
Y407667D01*
X564001Y407001D01*
X563335D01*
X562668Y407667D01*
X566667Y407001D02*
Y410999D01*
X568666D01*
X569333Y410333D01*
Y409000D01*
X568666Y408334D01*
X566667D01*
X573332Y410999D02*
X571999Y410333D01*
X570666Y409000D01*
Y407667D01*
X571332Y407001D01*
X572665D01*
X573332Y407667D01*
Y408334D01*
X572665Y409000D01*
X570666D01*
X638334Y264999D02*
X637001D01*
X637668D01*
Y261667D01*
X637001Y261001D01*
X636335D01*
X635668Y261667D01*
X639667Y261001D02*
Y264999D01*
X641666D01*
X642333Y264333D01*
Y263000D01*
X641666Y262334D01*
X639667D01*
X646332Y264999D02*
X643666D01*
Y263000D01*
X644999Y263666D01*
X645665D01*
X646332Y263000D01*
Y261667D01*
X645665Y261001D01*
X644332D01*
X643666Y261667D01*
X638334Y250999D02*
X637001D01*
X637668D01*
Y247667D01*
X637001Y247001D01*
X636335D01*
X635668Y247667D01*
X639667Y247001D02*
Y250999D01*
X641666D01*
X642333Y250333D01*
Y249000D01*
X641666Y248334D01*
X639667D01*
X645665Y247001D02*
Y250999D01*
X643666Y249000D01*
X646332D01*
X564334Y480999D02*
X563001D01*
X563668D01*
Y477667D01*
X563001Y477001D01*
X562335D01*
X561668Y477667D01*
X565667Y477001D02*
Y480999D01*
X567666D01*
X568333Y480333D01*
Y479000D01*
X567666Y478334D01*
X565667D01*
X569666Y480333D02*
X570332Y480999D01*
X571665D01*
X572332Y480333D01*
Y479666D01*
X571665Y479000D01*
X570999D01*
X571665D01*
X572332Y478334D01*
Y477667D01*
X571665Y477001D01*
X570332D01*
X569666Y477667D01*
X564334Y466999D02*
X563001D01*
X563668D01*
Y463667D01*
X563001Y463001D01*
X562335D01*
X561668Y463667D01*
X565667Y463001D02*
Y466999D01*
X567666D01*
X568333Y466333D01*
Y465000D01*
X567666Y464334D01*
X565667D01*
X572332Y463001D02*
X569666D01*
X572332Y465666D01*
Y466333D01*
X571665Y466999D01*
X570332D01*
X569666Y466333D01*
X566001Y452999D02*
X564668D01*
X565334D01*
Y449667D01*
X564668Y449001D01*
X564001D01*
X563335Y449667D01*
X567334Y449001D02*
Y452999D01*
X569333D01*
X569999Y452333D01*
Y451000D01*
X569333Y450334D01*
X567334D01*
X571332Y449001D02*
X572665D01*
X571999D01*
Y452999D01*
X571332Y452333D01*
X680001Y411333D02*
X679335Y411999D01*
X678002D01*
X677336Y411333D01*
Y408667D01*
X678002Y408001D01*
X679335D01*
X680001Y408667D01*
X683334Y411999D02*
X682001D01*
X681334Y411333D01*
Y408667D01*
X682001Y408001D01*
X683334D01*
X684000Y408667D01*
Y411333D01*
X683334Y411999D01*
X685333Y408001D02*
Y411999D01*
X687999Y408001D01*
Y411999D01*
X689332Y408001D02*
X690664D01*
X689998D01*
Y411999D01*
X689332Y411333D01*
X608667Y173001D02*
X608001Y172334D01*
Y171001D01*
X608667Y170335D01*
X611333D01*
X611999Y171001D01*
Y172334D01*
X611333Y173001D01*
X611999Y176333D02*
X608001D01*
X610000Y174334D01*
Y176999D01*
X611999Y178332D02*
Y179665D01*
Y178999D01*
X608001D01*
X608667Y178332D01*
X560667Y326334D02*
X560001Y325668D01*
Y324335D01*
X560667Y323668D01*
X563333D01*
X563999Y324335D01*
Y325668D01*
X563333Y326334D01*
X563999Y329666D02*
X560001D01*
X562000Y327667D01*
Y330333D01*
X560667Y331666D02*
X560001Y332332D01*
Y333665D01*
X560667Y334332D01*
X563333D01*
X563999Y333665D01*
Y332332D01*
X563333Y331666D01*
X560667D01*
X595334Y282333D02*
X594668Y282999D01*
X593335D01*
X592668Y282333D01*
Y279667D01*
X593335Y279001D01*
X594668D01*
X595334Y279667D01*
X596667Y282333D02*
X597334Y282999D01*
X598666D01*
X599333Y282333D01*
Y281666D01*
X598666Y281000D01*
X598000D01*
X598666D01*
X599333Y280334D01*
Y279667D01*
X598666Y279001D01*
X597334D01*
X596667Y279667D01*
X600666D02*
X601332Y279001D01*
X602665D01*
X603332Y279667D01*
Y282333D01*
X602665Y282999D01*
X601332D01*
X600666Y282333D01*
Y281666D01*
X601332Y281000D01*
X603332D01*
X567667Y320334D02*
X567001Y319668D01*
Y318335D01*
X567667Y317668D01*
X570333D01*
X570999Y318335D01*
Y319668D01*
X570333Y320334D01*
X567667Y321667D02*
X567001Y322334D01*
Y323667D01*
X567667Y324333D01*
X568333D01*
X569000Y323667D01*
Y323000D01*
Y323667D01*
X569666Y324333D01*
X570333D01*
X570999Y323667D01*
Y322334D01*
X570333Y321667D01*
X567667Y325666D02*
X567001Y326332D01*
Y327665D01*
X567667Y328332D01*
X568333D01*
X569000Y327665D01*
X569666Y328332D01*
X570333D01*
X570999Y327665D01*
Y326332D01*
X570333Y325666D01*
X569666D01*
X569000Y326332D01*
X568333Y325666D01*
X567667D01*
X569000Y326332D02*
Y327665D01*
X518334Y295333D02*
X517668Y295999D01*
X516335D01*
X515668Y295333D01*
Y292667D01*
X516335Y292001D01*
X517668D01*
X518334Y292667D01*
X519667Y295333D02*
X520334Y295999D01*
X521666D01*
X522333Y295333D01*
Y294666D01*
X521666Y294000D01*
X521000D01*
X521666D01*
X522333Y293334D01*
Y292667D01*
X521666Y292001D01*
X520334D01*
X519667Y292667D01*
X523666Y295999D02*
X526332D01*
Y295333D01*
X523666Y292667D01*
Y292001D01*
X518334Y303333D02*
X517668Y303999D01*
X516335D01*
X515668Y303333D01*
Y300667D01*
X516335Y300001D01*
X517668D01*
X518334Y300667D01*
X519667Y303333D02*
X520334Y303999D01*
X521666D01*
X522333Y303333D01*
Y302666D01*
X521666Y302000D01*
X521000D01*
X521666D01*
X522333Y301334D01*
Y300667D01*
X521666Y300001D01*
X520334D01*
X519667Y300667D01*
X526332Y303999D02*
X524999Y303333D01*
X523666Y302000D01*
Y300667D01*
X524332Y300001D01*
X525665D01*
X526332Y300667D01*
Y301334D01*
X525665Y302000D01*
X523666D01*
X617667Y171334D02*
X617001Y170668D01*
Y169335D01*
X617667Y168668D01*
X620333D01*
X620999Y169335D01*
Y170668D01*
X620333Y171334D01*
X617667Y172667D02*
X617001Y173334D01*
Y174667D01*
X617667Y175333D01*
X618334D01*
X619000Y174667D01*
Y174000D01*
Y174667D01*
X619666Y175333D01*
X620333D01*
X620999Y174667D01*
Y173334D01*
X620333Y172667D01*
X617667Y176666D02*
X617001Y177332D01*
Y178665D01*
X617667Y179332D01*
X618334D01*
X619000Y178665D01*
Y177999D01*
Y178665D01*
X619666Y179332D01*
X620333D01*
X620999Y178665D01*
Y177332D01*
X620333Y176666D01*
X611667Y206334D02*
X611001Y205668D01*
Y204335D01*
X611667Y203668D01*
X614333D01*
X614999Y204335D01*
Y205668D01*
X614333Y206334D01*
X611667Y207667D02*
X611001Y208334D01*
Y209666D01*
X611667Y210333D01*
X612333D01*
X613000Y209666D01*
Y209000D01*
Y209666D01*
X613666Y210333D01*
X614333D01*
X614999Y209666D01*
Y208334D01*
X614333Y207667D01*
X614999Y214332D02*
Y211666D01*
X612333Y214332D01*
X611667D01*
X611001Y213665D01*
Y212332D01*
X611667Y211666D01*
X688667Y177334D02*
X688001Y176668D01*
Y175335D01*
X688667Y174668D01*
X691333D01*
X691999Y175335D01*
Y176668D01*
X691333Y177334D01*
X691999Y181333D02*
Y178667D01*
X689334Y181333D01*
X688667D01*
X688001Y180666D01*
Y179333D01*
X688667Y178667D01*
X691333Y182666D02*
X691999Y183332D01*
Y184665D01*
X691333Y185332D01*
X688667D01*
X688001Y184665D01*
Y183332D01*
X688667Y182666D01*
X689334D01*
X690000Y183332D01*
Y185332D01*
X688667Y161334D02*
X688001Y160668D01*
Y159335D01*
X688667Y158668D01*
X691333D01*
X691999Y159335D01*
Y160668D01*
X691333Y161334D01*
X691999Y165333D02*
Y162667D01*
X689333Y165333D01*
X688667D01*
X688001Y164666D01*
Y163334D01*
X688667Y162667D01*
X688001Y169332D02*
X688667Y167999D01*
X690000Y166666D01*
X691333D01*
X691999Y167332D01*
Y168665D01*
X691333Y169332D01*
X690666D01*
X690000Y168665D01*
Y166666D01*
X688667Y206334D02*
X688001Y205668D01*
Y204335D01*
X688667Y203668D01*
X691333D01*
X691999Y204335D01*
Y205668D01*
X691333Y206334D01*
X691999Y210333D02*
Y207667D01*
X689334Y210333D01*
X688667D01*
X688001Y209666D01*
Y208334D01*
X688667Y207667D01*
X688001Y214332D02*
Y211666D01*
X690000D01*
X689334Y212999D01*
Y213665D01*
X690000Y214332D01*
X691333D01*
X691999Y213665D01*
Y212332D01*
X691333Y211666D01*
X605667Y376334D02*
X605001Y375667D01*
Y374334D01*
X605667Y373668D01*
X608333D01*
X608999Y374334D01*
Y375667D01*
X608333Y376334D01*
X608999Y379666D02*
X605001D01*
X607000Y377666D01*
Y380332D01*
X580667Y385774D02*
X580001Y385108D01*
Y383775D01*
X580667Y383109D01*
X583333D01*
X583999Y383775D01*
Y385108D01*
X583333Y385774D01*
X580667Y387107D02*
X580001Y387774D01*
Y389107D01*
X580667Y389773D01*
X581334D01*
X582000Y389107D01*
Y388440D01*
Y389107D01*
X582666Y389773D01*
X583333D01*
X583999Y389107D01*
Y387774D01*
X583333Y387107D01*
D12*
X593868Y353595D02*
G03*
X593868Y353595I-900J0D01*
G01*
D13*
X629000Y223500D02*
G03*
X629000Y223500I-1000J0D01*
G01*
X675257Y223518D02*
G03*
X675257Y223518I-1000J0D01*
G01*
D14*
X548209Y304020D02*
Y305791D01*
X549980D01*
X548209Y292209D02*
Y293980D01*
Y292209D02*
X549980D01*
X560020D02*
X561791D01*
Y293980D01*
Y304020D02*
Y305791D01*
X560020D02*
X561791D01*
X586472Y367071D02*
X595528D01*
X586472Y350929D02*
X595528D01*
X586472D02*
Y367071D01*
X595528Y350929D02*
Y367071D01*
D15*
X567500Y310000D02*
X570500D01*
X605500Y350000D02*
X608500D01*
X580500Y376000D02*
X583500D01*
X605500Y367000D02*
X608500D01*
X572500Y351000D02*
X575500D01*
X564500D02*
X567500D01*
X534000Y300500D02*
Y303500D01*
Y292500D02*
Y295500D01*
X620000Y285500D02*
Y288500D01*
X598000Y285500D02*
Y288500D01*
X560500Y316000D02*
X563500D01*
X657000Y424500D02*
Y427500D01*
Y432500D02*
Y435500D01*
Y440500D02*
Y443500D01*
X617500Y187000D02*
X620500D01*
X608500D02*
X611500D01*
X617500Y209000D02*
X620500D01*
X682500Y180000D02*
X685500D01*
X682500Y209000D02*
X685500D01*
X682500Y164000D02*
X685500D01*
M02*
