G04*
G04 #@! TF.GenerationSoftware,Altium Limited,Altium Designer,20.1.14 (287)*
G04*
G04 Layer_Color=32896*
%FSLAX25Y25*%
%MOIN*%
G70*
G04*
G04 #@! TF.SameCoordinates,32B9688E-387C-4D8B-897C-9CD0CBC3BE43*
G04*
G04*
G04 #@! TF.FilePolarity,Positive*
G04*
G01*
G75*
%ADD10C,0.00984*%
%ADD11C,0.01000*%
%ADD14C,0.00787*%
%ADD15C,0.01200*%
%ADD72C,0.02362*%
D10*
X509764Y388154D02*
G03*
X509764Y388154I-492J0D01*
G01*
X642791Y413154D02*
G03*
X642791Y413154I-492J0D01*
G01*
X575492Y350000D02*
G03*
X575492Y350000I-492J0D01*
G01*
X509764Y188154D02*
G03*
X509764Y188154I-492J0D01*
G01*
X450220Y217347D02*
G03*
X450220Y217347I-492J0D01*
G01*
Y417346D02*
G03*
X450220Y417346I-492J0D01*
G01*
X600453Y230693D02*
G03*
X600453Y230693I-492J0D01*
G01*
X600253Y116293D02*
G03*
X600253Y116293I-492J0D01*
G01*
X600353Y173793D02*
G03*
X600353Y173793I-492J0D01*
G01*
D11*
X305252Y160417D02*
X309189D01*
X305252Y180102D02*
X309189D01*
X305252Y199787D02*
X309189D01*
X305252Y219472D02*
X309189D01*
X305252Y239158D02*
X309189D01*
X305252Y140732D02*
Y258842D01*
Y140732D02*
X336748D01*
Y258842D01*
X305252D02*
X336748D01*
X305252Y360417D02*
X309189D01*
X305252Y380102D02*
X309189D01*
X305252Y399787D02*
X309189D01*
X305252Y419472D02*
X309189D01*
X305252Y439157D02*
X309189D01*
X305252Y340732D02*
Y458843D01*
Y340732D02*
X336748D01*
Y458843D01*
X305252D02*
X336748D01*
X579000Y352000D02*
X601000D01*
X579000Y392000D02*
X601000D01*
Y352000D02*
Y392000D01*
X579000Y352000D02*
Y392000D01*
X569259Y407000D02*
Y408333D01*
Y407666D01*
X565261D01*
Y407000D01*
Y408333D01*
Y410332D02*
X567926D01*
Y412332D01*
X567260Y412998D01*
X565261D01*
Y414331D02*
Y416330D01*
X565927Y416997D01*
X566593Y416330D01*
Y414997D01*
X567260Y414331D01*
X567926Y414997D01*
Y416997D01*
X568593Y418996D02*
X567926D01*
Y418330D01*
Y419663D01*
Y418996D01*
X565927D01*
X565261Y419663D01*
X567926Y422328D02*
Y423661D01*
X567260Y424328D01*
X565261D01*
Y422328D01*
X565927Y421662D01*
X566593Y422328D01*
Y424328D01*
X565261Y425661D02*
Y426994D01*
Y426327D01*
X569259D01*
Y425661D01*
X565261Y428993D02*
Y430326D01*
Y429659D01*
X569259D01*
Y428993D01*
X567926Y436990D02*
Y438323D01*
X567260Y438990D01*
X565261D01*
Y436990D01*
X565927Y436324D01*
X566593Y436990D01*
Y438990D01*
X565261Y440323D02*
Y441655D01*
Y440989D01*
X569259D01*
Y440323D01*
X565261Y443655D02*
Y444988D01*
Y444321D01*
X569259D01*
Y443655D01*
X563928Y450986D02*
Y451652D01*
X564594Y452319D01*
X567926D01*
Y454985D02*
X565927D01*
X565261Y455651D01*
Y457650D01*
X567926D01*
X565261Y458983D02*
X567926D01*
Y459650D01*
X567260Y460316D01*
X565261D01*
X567260D01*
X567926Y460983D01*
X567260Y461649D01*
X565261D01*
X563928Y462982D02*
X567926D01*
Y464981D01*
X567260Y465648D01*
X565927D01*
X565261Y464981D01*
Y462982D01*
Y468980D02*
Y467647D01*
X565927Y466981D01*
X567260D01*
X567926Y467647D01*
Y468980D01*
X567260Y469647D01*
X566593D01*
Y466981D01*
X567926Y470979D02*
X565261D01*
X566593D01*
X567260Y471646D01*
X567926Y472312D01*
Y472979D01*
X565261Y474978D02*
Y476977D01*
X565927Y477644D01*
X566593Y476977D01*
Y475644D01*
X567260Y474978D01*
X567926Y475644D01*
Y477644D01*
X556729Y408333D02*
Y407000D01*
X560728D01*
Y408333D01*
Y412998D02*
Y411665D01*
Y412332D01*
X557396D01*
X556729Y411665D01*
Y410999D01*
X557396Y410332D01*
X556729Y414331D02*
X560728D01*
Y416330D01*
X560061Y416997D01*
X558729D01*
X558062Y416330D01*
Y414331D01*
X556729Y418330D02*
Y419663D01*
Y418996D01*
X560728D01*
X560061Y418330D01*
X556729Y421662D02*
X557396D01*
Y422328D01*
X556729D01*
Y421662D01*
Y424994D02*
X557396D01*
Y425661D01*
X556729D01*
Y424994D01*
X560728Y430992D02*
Y429659D01*
Y430326D01*
X557396D01*
X556729Y429659D01*
Y428993D01*
X557396Y428327D01*
X556729Y432325D02*
X560728D01*
Y434325D01*
X560061Y434991D01*
X558729D01*
X558062Y434325D01*
Y432325D01*
X560061Y436324D02*
X560728Y436990D01*
Y438323D01*
X560061Y438990D01*
X559395D01*
X558729Y438323D01*
X558062Y438990D01*
X557396D01*
X556729Y438323D01*
Y436990D01*
X557396Y436324D01*
X558062D01*
X558729Y436990D01*
X559395Y436324D01*
X560061D01*
X558729Y436990D02*
Y438323D01*
X556729Y440323D02*
Y441655D01*
X560728D01*
Y440323D01*
X556729Y448320D02*
Y449653D01*
X557396Y450319D01*
X558729D01*
X559395Y449653D01*
Y448320D01*
X558729Y447654D01*
X557396D01*
X556729Y448320D01*
Y451652D02*
X559395D01*
Y453652D01*
X558729Y454318D01*
X556729D01*
Y460316D02*
Y461649D01*
X557396Y462316D01*
X558729D01*
X559395Y461649D01*
Y460316D01*
X558729Y459650D01*
X557396D01*
X556729Y460316D01*
Y463648D02*
X559395D01*
Y465648D01*
X558729Y466314D01*
X556729D01*
Y467647D02*
Y468980D01*
Y468314D01*
X560728D01*
Y467647D01*
X559395Y470979D02*
X557396D01*
X556729Y471646D01*
Y473645D01*
X556063D01*
X555396Y472979D01*
Y472312D01*
X556729Y473645D02*
X559395D01*
X548198Y407666D02*
Y408999D01*
X548864Y409666D01*
X550197D01*
X550864Y408999D01*
Y407666D01*
X550197Y407000D01*
X548864D01*
X548198Y407666D01*
Y410999D02*
X550864D01*
Y412998D01*
X550197Y413664D01*
X548198D01*
Y416997D02*
Y415664D01*
X548864Y414997D01*
X550197D01*
X550864Y415664D01*
Y416997D01*
X550197Y417663D01*
X549531D01*
Y414997D01*
X548198Y422995D02*
Y424994D01*
X548864Y425661D01*
X549531Y424994D01*
Y423661D01*
X550197Y422995D01*
X550864Y423661D01*
Y425661D01*
X548198Y426994D02*
Y428327D01*
Y427660D01*
X550864D01*
Y426994D01*
X552197Y432992D02*
X548198D01*
Y430992D01*
X548864Y430326D01*
X550197D01*
X550864Y430992D01*
Y432992D01*
X548198Y436324D02*
Y434991D01*
X548864Y434325D01*
X550197D01*
X550864Y434991D01*
Y436324D01*
X550197Y436990D01*
X549531D01*
Y434325D01*
X548198Y442988D02*
Y444321D01*
X548864Y444988D01*
X550197D01*
X550864Y444321D01*
Y442988D01*
X550197Y442322D01*
X548864D01*
X548198Y442988D01*
Y446987D02*
X551530D01*
X550197D01*
Y446321D01*
Y447653D01*
Y446987D01*
X551530D01*
X552197Y447653D01*
X551530Y454318D02*
X550864D01*
Y453652D01*
Y454985D01*
Y454318D01*
X548864D01*
X548198Y454985D01*
X552197Y456984D02*
X548198D01*
X550197D01*
X550864Y457650D01*
Y458983D01*
X550197Y459650D01*
X548198D01*
Y462982D02*
Y461649D01*
X548864Y460983D01*
X550197D01*
X550864Y461649D01*
Y462982D01*
X550197Y463648D01*
X549531D01*
Y460983D01*
X546865Y468980D02*
X550864D01*
Y470979D01*
X550197Y471646D01*
X548864D01*
X548198Y470979D01*
Y468980D01*
Y472979D02*
Y474312D01*
Y473645D01*
X550864D01*
Y472979D01*
X548198Y476311D02*
X550864D01*
Y478310D01*
X550197Y478977D01*
X548198D01*
X542999Y407000D02*
X539000D01*
X540999D01*
X541666Y407666D01*
Y408999D01*
X540999Y409666D01*
X539000D01*
Y412998D02*
Y411665D01*
X539666Y410999D01*
X540999D01*
X541666Y411665D01*
Y412998D01*
X540999Y413664D01*
X540333D01*
Y410999D01*
X541666Y415664D02*
Y416997D01*
X540999Y417663D01*
X539000D01*
Y415664D01*
X539666Y414997D01*
X540333Y415664D01*
Y417663D01*
X542999Y421662D02*
X539000D01*
Y419663D01*
X539666Y418996D01*
X540999D01*
X541666Y419663D01*
Y421662D01*
X539000Y424994D02*
Y423661D01*
X539666Y422995D01*
X540999D01*
X541666Y423661D01*
Y424994D01*
X540999Y425661D01*
X540333D01*
Y422995D01*
X541666Y426994D02*
X539000D01*
X540333D01*
X540999Y427660D01*
X541666Y428327D01*
Y428993D01*
X539000Y430992D02*
Y432992D01*
X539666Y433658D01*
X540333Y432992D01*
Y431659D01*
X540999Y430992D01*
X541666Y431659D01*
Y433658D01*
X540333Y434991D02*
X543665D01*
X539666D02*
X539000D01*
X580300Y279299D02*
Y275966D01*
X579634Y275300D01*
X578301D01*
X577634Y275966D01*
Y279299D01*
X576301Y275300D02*
X574968D01*
X575635D01*
Y279299D01*
X576301Y278632D01*
X572969Y275300D02*
X571636D01*
X572303D01*
Y279299D01*
X572969Y278632D01*
X578200Y222399D02*
Y219066D01*
X577534Y218400D01*
X576201D01*
X575534Y219066D01*
Y222399D01*
X574201Y219066D02*
X573535Y218400D01*
X572202D01*
X571535Y219066D01*
Y221732D01*
X572202Y222399D01*
X573535D01*
X574201Y221732D01*
Y221066D01*
X573535Y220399D01*
X571535D01*
X578100Y164899D02*
Y161566D01*
X577434Y160900D01*
X576101D01*
X575434Y161566D01*
Y164899D01*
X574101Y164232D02*
X573435Y164899D01*
X572102D01*
X571435Y164232D01*
Y163566D01*
X572102Y162899D01*
X571435Y162233D01*
Y161566D01*
X572102Y160900D01*
X573435D01*
X574101Y161566D01*
Y162233D01*
X573435Y162899D01*
X574101Y163566D01*
Y164232D01*
X573435Y162899D02*
X572102D01*
X517332Y215999D02*
Y212667D01*
X516666Y212001D01*
X515333D01*
X514666Y212667D01*
Y215999D01*
X510668D02*
X512001Y215333D01*
X513334Y214000D01*
Y212667D01*
X512667Y212001D01*
X511334D01*
X510668Y212667D01*
Y213334D01*
X511334Y214000D01*
X513334D01*
X517332Y416999D02*
Y413667D01*
X516666Y413001D01*
X515333D01*
X514666Y413667D01*
Y416999D01*
X510668D02*
X513334D01*
Y415000D01*
X512001Y415666D01*
X511334D01*
X510668Y415000D01*
Y413667D01*
X511334Y413001D01*
X512667D01*
X513334Y413667D01*
X436332Y222999D02*
Y219667D01*
X435666Y219001D01*
X434333D01*
X433666Y219667D01*
Y222999D01*
X430334Y219001D02*
Y222999D01*
X432334Y221000D01*
X429668D01*
X436332Y422999D02*
Y419667D01*
X435666Y419001D01*
X434333D01*
X433666Y419667D01*
Y422999D01*
X432334Y422333D02*
X431667Y422999D01*
X430334D01*
X429668Y422333D01*
Y421666D01*
X430334Y421000D01*
X431001D01*
X430334D01*
X429668Y420334D01*
Y419667D01*
X430334Y419001D01*
X431667D01*
X432334Y419667D01*
X650666Y461999D02*
Y458667D01*
X649999Y458001D01*
X648666D01*
X648000Y458667D01*
Y461999D01*
X646667Y458001D02*
X645334D01*
X646001D01*
Y461999D01*
X646667Y461333D01*
X581666Y400999D02*
X579000D01*
X580333D01*
Y397001D01*
X577667D02*
X576334D01*
X577001D01*
Y400999D01*
X577667Y400333D01*
X478001Y144668D02*
X481999D01*
Y146668D01*
X481333Y147334D01*
X480000D01*
X479333Y146668D01*
Y144668D01*
Y146001D02*
X478001Y147334D01*
X481333Y148667D02*
X481999Y149334D01*
Y150666D01*
X481333Y151333D01*
X480666D01*
X480000Y150666D01*
Y150000D01*
Y150666D01*
X479333Y151333D01*
X478667D01*
X478001Y150666D01*
Y149334D01*
X478667Y148667D01*
X481999Y152666D02*
Y155332D01*
X481333D01*
X478667Y152666D01*
X478001D01*
X478001Y158668D02*
X481999D01*
Y160668D01*
X481333Y161334D01*
X480000D01*
X479334Y160668D01*
Y158668D01*
Y160001D02*
X478001Y161334D01*
X481333Y162667D02*
X481999Y163333D01*
Y164666D01*
X481333Y165333D01*
X480666D01*
X480000Y164666D01*
Y164000D01*
Y164666D01*
X479334Y165333D01*
X478667D01*
X478001Y164666D01*
Y163333D01*
X478667Y162667D01*
X481999Y169332D02*
X481333Y167999D01*
X480000Y166666D01*
X478667D01*
X478001Y167332D01*
Y168665D01*
X478667Y169332D01*
X479334D01*
X480000Y168665D01*
Y166666D01*
X478001Y344668D02*
X481999D01*
Y346668D01*
X481333Y347334D01*
X480000D01*
X479334Y346668D01*
Y344668D01*
Y346001D02*
X478001Y347334D01*
X481333Y348667D02*
X481999Y349334D01*
Y350666D01*
X481333Y351333D01*
X480666D01*
X480000Y350666D01*
Y350000D01*
Y350666D01*
X479334Y351333D01*
X478667D01*
X478001Y350666D01*
Y349334D01*
X478667Y348667D01*
X481999Y355332D02*
Y352666D01*
X480000D01*
X480666Y353999D01*
Y354665D01*
X480000Y355332D01*
X478667D01*
X478001Y354665D01*
Y353332D01*
X478667Y352666D01*
X478001Y358668D02*
X481999D01*
Y360668D01*
X481333Y361334D01*
X480000D01*
X479334Y360668D01*
Y358668D01*
Y360001D02*
X478001Y361334D01*
X481333Y362667D02*
X481999Y363334D01*
Y364666D01*
X481333Y365333D01*
X480666D01*
X480000Y364666D01*
Y364000D01*
Y364666D01*
X479334Y365333D01*
X478667D01*
X478001Y364666D01*
Y363334D01*
X478667Y362667D01*
X478001Y368665D02*
X481999D01*
X480000Y366666D01*
Y369332D01*
X478001Y130668D02*
X481999D01*
Y132668D01*
X481333Y133334D01*
X480000D01*
X479333Y132668D01*
Y130668D01*
Y132001D02*
X478001Y133334D01*
X481333Y134667D02*
X481999Y135334D01*
Y136666D01*
X481333Y137333D01*
X480666D01*
X480000Y136666D01*
Y136000D01*
Y136666D01*
X479333Y137333D01*
X478667D01*
X478001Y136666D01*
Y135334D01*
X478667Y134667D01*
X481333Y138666D02*
X481999Y139332D01*
Y140665D01*
X481333Y141332D01*
X480666D01*
X480000Y140665D01*
Y139999D01*
Y140665D01*
X479333Y141332D01*
X478667D01*
X478001Y140665D01*
Y139332D01*
X478667Y138666D01*
X458001Y144668D02*
X461999D01*
Y146668D01*
X461333Y147334D01*
X460000D01*
X459334Y146668D01*
Y144668D01*
Y146001D02*
X458001Y147334D01*
X461333Y148667D02*
X461999Y149334D01*
Y150666D01*
X461333Y151333D01*
X460666D01*
X460000Y150666D01*
Y150000D01*
Y150666D01*
X459334Y151333D01*
X458667D01*
X458001Y150666D01*
Y149334D01*
X458667Y148667D01*
X458001Y155332D02*
Y152666D01*
X460666Y155332D01*
X461333D01*
X461999Y154665D01*
Y153332D01*
X461333Y152666D01*
X478001Y331335D02*
X481999D01*
Y333334D01*
X481333Y334001D01*
X480000D01*
X479334Y333334D01*
Y331335D01*
Y332668D02*
X478001Y334001D01*
X481333Y335334D02*
X481999Y336000D01*
Y337333D01*
X481333Y337999D01*
X480666D01*
X480000Y337333D01*
Y336666D01*
Y337333D01*
X479334Y337999D01*
X478667D01*
X478001Y337333D01*
Y336000D01*
X478667Y335334D01*
X478001Y339332D02*
Y340665D01*
Y339999D01*
X481999D01*
X481333Y339332D01*
X458001Y344668D02*
X461999D01*
Y346668D01*
X461333Y347334D01*
X460000D01*
X459334Y346668D01*
Y344668D01*
Y346001D02*
X458001Y347334D01*
X461333Y348667D02*
X461999Y349334D01*
Y350666D01*
X461333Y351333D01*
X460666D01*
X460000Y350666D01*
Y350000D01*
Y350666D01*
X459334Y351333D01*
X458667D01*
X458001Y350666D01*
Y349334D01*
X458667Y348667D01*
X461333Y352666D02*
X461999Y353332D01*
Y354665D01*
X461333Y355332D01*
X458667D01*
X458001Y354665D01*
Y353332D01*
X458667Y352666D01*
X461333D01*
X396001Y144668D02*
X399999D01*
Y146668D01*
X399333Y147334D01*
X398000D01*
X397334Y146668D01*
Y144668D01*
Y146001D02*
X396001Y147334D01*
Y151333D02*
Y148667D01*
X398666Y151333D01*
X399333D01*
X399999Y150666D01*
Y149334D01*
X399333Y148667D01*
X396667Y152666D02*
X396001Y153332D01*
Y154665D01*
X396667Y155332D01*
X399333D01*
X399999Y154665D01*
Y153332D01*
X399333Y152666D01*
X398666D01*
X398000Y153332D01*
Y155332D01*
X396001Y158668D02*
X399999D01*
Y160668D01*
X399333Y161334D01*
X398000D01*
X397334Y160668D01*
Y158668D01*
Y160001D02*
X396001Y161334D01*
Y165333D02*
Y162667D01*
X398666Y165333D01*
X399333D01*
X399999Y164666D01*
Y163333D01*
X399333Y162667D01*
Y166666D02*
X399999Y167332D01*
Y168665D01*
X399333Y169332D01*
X398666D01*
X398000Y168665D01*
X397334Y169332D01*
X396667D01*
X396001Y168665D01*
Y167332D01*
X396667Y166666D01*
X397334D01*
X398000Y167332D01*
X398666Y166666D01*
X399333D01*
X398000Y167332D02*
Y168665D01*
X396001Y344668D02*
X399999D01*
Y346668D01*
X399333Y347334D01*
X398000D01*
X397334Y346668D01*
Y344668D01*
Y346001D02*
X396001Y347334D01*
Y351333D02*
Y348667D01*
X398666Y351333D01*
X399333D01*
X399999Y350666D01*
Y349334D01*
X399333Y348667D01*
X399999Y352666D02*
Y355332D01*
X399333D01*
X396667Y352666D01*
X396001D01*
Y358668D02*
X399999D01*
Y360668D01*
X399333Y361334D01*
X398000D01*
X397334Y360668D01*
Y358668D01*
Y360001D02*
X396001Y361334D01*
Y365333D02*
Y362667D01*
X398666Y365333D01*
X399333D01*
X399999Y364666D01*
Y363334D01*
X399333Y362667D01*
X399999Y369332D02*
X399333Y367999D01*
X398000Y366666D01*
X396667D01*
X396001Y367332D01*
Y368665D01*
X396667Y369332D01*
X397334D01*
X398000Y368665D01*
Y366666D01*
X396001Y130668D02*
X399999D01*
Y132668D01*
X399333Y133334D01*
X398000D01*
X397334Y132668D01*
Y130668D01*
Y132001D02*
X396001Y133334D01*
Y137333D02*
Y134667D01*
X398666Y137333D01*
X399333D01*
X399999Y136666D01*
Y135334D01*
X399333Y134667D01*
X399999Y141332D02*
Y138666D01*
X398000D01*
X398666Y139999D01*
Y140665D01*
X398000Y141332D01*
X396667D01*
X396001Y140665D01*
Y139332D01*
X396667Y138666D01*
X416001Y144668D02*
X419999D01*
Y146668D01*
X419333Y147334D01*
X418000D01*
X417334Y146668D01*
Y144668D01*
Y146001D02*
X416001Y147334D01*
Y151333D02*
Y148667D01*
X418666Y151333D01*
X419333D01*
X419999Y150666D01*
Y149334D01*
X419333Y148667D01*
X416001Y154665D02*
X419999D01*
X418000Y152666D01*
Y155332D01*
X396001Y330668D02*
X399999D01*
Y332668D01*
X399333Y333334D01*
X398000D01*
X397334Y332668D01*
Y330668D01*
Y332001D02*
X396001Y333334D01*
Y337333D02*
Y334667D01*
X398666Y337333D01*
X399333D01*
X399999Y336666D01*
Y335334D01*
X399333Y334667D01*
Y338666D02*
X399999Y339332D01*
Y340665D01*
X399333Y341332D01*
X398666D01*
X398000Y340665D01*
Y339999D01*
Y340665D01*
X397334Y341332D01*
X396667D01*
X396001Y340665D01*
Y339332D01*
X396667Y338666D01*
X416001Y344668D02*
X419999D01*
Y346668D01*
X419333Y347334D01*
X418000D01*
X417334Y346668D01*
Y344668D01*
Y346001D02*
X416001Y347334D01*
Y351333D02*
Y348667D01*
X418666Y351333D01*
X419333D01*
X419999Y350666D01*
Y349334D01*
X419333Y348667D01*
X416001Y355332D02*
Y352666D01*
X418666Y355332D01*
X419333D01*
X419999Y354665D01*
Y353332D01*
X419333Y352666D01*
X478001Y243335D02*
X481999D01*
Y245334D01*
X481333Y246001D01*
X480000D01*
X479334Y245334D01*
Y243335D01*
Y244668D02*
X478001Y246001D01*
Y249999D02*
Y247334D01*
X480666Y249999D01*
X481333D01*
X481999Y249333D01*
Y248000D01*
X481333Y247334D01*
X478001Y251332D02*
Y252665D01*
Y251999D01*
X481999D01*
X481333Y251332D01*
X478001Y228668D02*
X481999D01*
Y230668D01*
X481333Y231334D01*
X480000D01*
X479334Y230668D01*
Y228668D01*
Y230001D02*
X478001Y231334D01*
Y235333D02*
Y232667D01*
X480666Y235333D01*
X481333D01*
X481999Y234666D01*
Y233334D01*
X481333Y232667D01*
Y236666D02*
X481999Y237332D01*
Y238665D01*
X481333Y239332D01*
X478667D01*
X478001Y238665D01*
Y237332D01*
X478667Y236666D01*
X481333D01*
X478001Y443002D02*
X481999D01*
Y445001D01*
X481333Y445667D01*
X480000D01*
X479334Y445001D01*
Y443002D01*
Y444335D02*
X478001Y445667D01*
Y447000D02*
Y448333D01*
Y447667D01*
X481999D01*
X481333Y447000D01*
X478667Y450333D02*
X478001Y450999D01*
Y452332D01*
X478667Y452998D01*
X481333D01*
X481999Y452332D01*
Y450999D01*
X481333Y450333D01*
X480666D01*
X480000Y450999D01*
Y452998D01*
X478001Y429002D02*
X481999D01*
Y431001D01*
X481333Y431667D01*
X480000D01*
X479334Y431001D01*
Y429002D01*
Y430335D02*
X478001Y431667D01*
Y433000D02*
Y434333D01*
Y433667D01*
X481999D01*
X481333Y433000D01*
Y436333D02*
X481999Y436999D01*
Y438332D01*
X481333Y438998D01*
X480666D01*
X480000Y438332D01*
X479334Y438998D01*
X478667D01*
X478001Y438332D01*
Y436999D01*
X478667Y436333D01*
X479334D01*
X480000Y436999D01*
X480666Y436333D01*
X481333D01*
X480000Y436999D02*
Y438332D01*
X478001Y257002D02*
X481999D01*
Y259001D01*
X481333Y259667D01*
X480000D01*
X479334Y259001D01*
Y257002D01*
Y258334D02*
X478001Y259667D01*
Y261000D02*
Y262333D01*
Y261667D01*
X481999D01*
X481333Y261000D01*
X481999Y264333D02*
Y266998D01*
X481333D01*
X478667Y264333D01*
X478001D01*
X458001Y243002D02*
X461999D01*
Y245001D01*
X461333Y245667D01*
X460000D01*
X459334Y245001D01*
Y243002D01*
Y244335D02*
X458001Y245667D01*
Y247000D02*
Y248333D01*
Y247667D01*
X461999D01*
X461333Y247000D01*
X461999Y252998D02*
X461333Y251665D01*
X460000Y250333D01*
X458667D01*
X458001Y250999D01*
Y252332D01*
X458667Y252998D01*
X459334D01*
X460000Y252332D01*
Y250333D01*
X478001Y457002D02*
X481999D01*
Y459001D01*
X481333Y459667D01*
X480000D01*
X479334Y459001D01*
Y457002D01*
Y458334D02*
X478001Y459667D01*
Y461000D02*
Y462333D01*
Y461667D01*
X481999D01*
X481333Y461000D01*
X481999Y466998D02*
Y464333D01*
X480000D01*
X480666Y465665D01*
Y466332D01*
X480000Y466998D01*
X478667D01*
X478001Y466332D01*
Y464999D01*
X478667Y464333D01*
X458001Y443002D02*
X461999D01*
Y445001D01*
X461333Y445667D01*
X460000D01*
X459334Y445001D01*
Y443002D01*
Y444335D02*
X458001Y445667D01*
Y447000D02*
Y448333D01*
Y447667D01*
X461999D01*
X461333Y447000D01*
X458001Y452332D02*
X461999D01*
X460000Y450333D01*
Y452998D01*
X396001Y243002D02*
X399999D01*
Y245001D01*
X399333Y245667D01*
X398000D01*
X397334Y245001D01*
Y243002D01*
Y244335D02*
X396001Y245667D01*
Y247000D02*
Y248333D01*
Y247667D01*
X399999D01*
X399333Y247000D01*
Y250333D02*
X399999Y250999D01*
Y252332D01*
X399333Y252998D01*
X398666D01*
X398000Y252332D01*
Y251665D01*
Y252332D01*
X397334Y252998D01*
X396667D01*
X396001Y252332D01*
Y250999D01*
X396667Y250333D01*
X396001Y229002D02*
X399999D01*
Y231001D01*
X399333Y231667D01*
X398000D01*
X397334Y231001D01*
Y229002D01*
Y230334D02*
X396001Y231667D01*
Y233000D02*
Y234333D01*
Y233667D01*
X399999D01*
X399333Y233000D01*
X396001Y238998D02*
Y236333D01*
X398666Y238998D01*
X399333D01*
X399999Y238332D01*
Y236999D01*
X399333Y236333D01*
X396001Y443668D02*
X399999D01*
Y445667D01*
X399333Y446334D01*
X398000D01*
X397334Y445667D01*
Y443668D01*
Y445001D02*
X396001Y446334D01*
Y447667D02*
Y449000D01*
Y448333D01*
X399999D01*
X399333Y447667D01*
X396001Y450999D02*
Y452332D01*
Y451665D01*
X399999D01*
X399333Y450999D01*
X396001Y429002D02*
X399999D01*
Y431001D01*
X399333Y431667D01*
X398000D01*
X397334Y431001D01*
Y429002D01*
Y430335D02*
X396001Y431667D01*
Y433000D02*
Y434333D01*
Y433667D01*
X399999D01*
X399333Y433000D01*
Y436333D02*
X399999Y436999D01*
Y438332D01*
X399333Y438998D01*
X396667D01*
X396001Y438332D01*
Y436999D01*
X396667Y436333D01*
X399333D01*
X396001Y258668D02*
X399999D01*
Y260667D01*
X399333Y261334D01*
X398000D01*
X397334Y260667D01*
Y258668D01*
Y260001D02*
X396001Y261334D01*
X396667Y262667D02*
X396001Y263333D01*
Y264666D01*
X396667Y265332D01*
X399333D01*
X399999Y264666D01*
Y263333D01*
X399333Y262667D01*
X398666D01*
X398000Y263333D01*
Y265332D01*
X416001Y244668D02*
X419999D01*
Y246667D01*
X419333Y247334D01*
X418000D01*
X417334Y246667D01*
Y244668D01*
Y246001D02*
X416001Y247334D01*
X419333Y248667D02*
X419999Y249333D01*
Y250666D01*
X419333Y251332D01*
X418666D01*
X418000Y250666D01*
X417334Y251332D01*
X416667D01*
X416001Y250666D01*
Y249333D01*
X416667Y248667D01*
X417334D01*
X418000Y249333D01*
X418666Y248667D01*
X419333D01*
X418000Y249333D02*
Y250666D01*
X395031Y458668D02*
X399029D01*
Y460667D01*
X398363Y461334D01*
X397030D01*
X396363Y460667D01*
Y458668D01*
Y460001D02*
X395031Y461334D01*
X399029Y462667D02*
Y465332D01*
X398363D01*
X395697Y462667D01*
X395031D01*
X416001Y444455D02*
X419999D01*
Y446454D01*
X419333Y447121D01*
X418000D01*
X417334Y446454D01*
Y444455D01*
Y445788D02*
X416001Y447121D01*
X419999Y451120D02*
X419333Y449787D01*
X418000Y448454D01*
X416667D01*
X416001Y449120D01*
Y450453D01*
X416667Y451120D01*
X417334D01*
X418000Y450453D01*
Y448454D01*
X561001Y366668D02*
X564999D01*
Y368667D01*
X564333Y369334D01*
X563000D01*
X562334Y368667D01*
Y366668D01*
Y368001D02*
X561001Y369334D01*
X564333Y370667D02*
X564999Y371333D01*
Y372666D01*
X564333Y373332D01*
X563666D01*
X563000Y372666D01*
Y371999D01*
Y372666D01*
X562334Y373332D01*
X561667D01*
X561001Y372666D01*
Y371333D01*
X561667Y370667D01*
X667001Y284334D02*
X670999D01*
Y286334D01*
X670333Y287000D01*
X669000D01*
X668334Y286334D01*
Y284334D01*
Y285667D02*
X667001Y287000D01*
Y288333D02*
Y289666D01*
Y288999D01*
X670999D01*
X670333Y288333D01*
X492299Y177699D02*
X493632D01*
X492965D01*
Y174366D01*
X493632Y173700D01*
X494298D01*
X494965Y174366D01*
X490966Y177032D02*
X490299Y177699D01*
X488966D01*
X488300Y177032D01*
Y176366D01*
X488966Y175699D01*
X488300Y175033D01*
Y174366D01*
X488966Y173700D01*
X490299D01*
X490966Y174366D01*
Y175033D01*
X490299Y175699D01*
X490966Y176366D01*
Y177032D01*
X490299Y175699D02*
X488966D01*
X352299Y177699D02*
X353632D01*
X352965D01*
Y174366D01*
X353632Y173700D01*
X354298D01*
X354964Y174366D01*
X350966Y177699D02*
X348300D01*
Y177032D01*
X350966Y174366D01*
Y173700D01*
X492299Y277699D02*
X493632D01*
X492965D01*
Y274366D01*
X493632Y273700D01*
X494298D01*
X494965Y274366D01*
X488300Y277699D02*
X489633Y277032D01*
X490966Y275699D01*
Y274366D01*
X490299Y273700D01*
X488966D01*
X488300Y274366D01*
Y275033D01*
X488966Y275699D01*
X490966D01*
X352299Y277699D02*
X353632D01*
X352965D01*
Y274366D01*
X353632Y273700D01*
X354298D01*
X354964Y274366D01*
X348300Y277699D02*
X350966D01*
Y275699D01*
X349633Y276366D01*
X348966D01*
X348300Y275699D01*
Y274366D01*
X348966Y273700D01*
X350299D01*
X350966Y274366D01*
X492666Y377999D02*
X493999D01*
X493333D01*
Y374667D01*
X493999Y374001D01*
X494666D01*
X495332Y374667D01*
X489334Y374001D02*
Y377999D01*
X491333Y376000D01*
X488668D01*
X352666Y377999D02*
X353999D01*
X353333D01*
Y374667D01*
X353999Y374001D01*
X354666D01*
X355332Y374667D01*
X351333Y377333D02*
X350667Y377999D01*
X349334D01*
X348668Y377333D01*
Y376666D01*
X349334Y376000D01*
X350001D01*
X349334D01*
X348668Y375334D01*
Y374667D01*
X349334Y374001D01*
X350667D01*
X351333Y374667D01*
X492299Y477699D02*
X493632D01*
X492965D01*
Y474366D01*
X493632Y473700D01*
X494298D01*
X494965Y474366D01*
X488300Y473700D02*
X490966D01*
X488300Y476366D01*
Y477032D01*
X488966Y477699D01*
X490299D01*
X490966Y477032D01*
X352000Y477999D02*
X353333D01*
X352666D01*
Y474667D01*
X353333Y474001D01*
X353999D01*
X354666Y474667D01*
X350667Y474001D02*
X349334D01*
X350001D01*
Y477999D01*
X350667Y477333D01*
X317665Y265333D02*
X318332Y265999D01*
X319665D01*
X320331Y265333D01*
Y262667D01*
X319665Y262001D01*
X318332D01*
X317665Y262667D01*
X314333Y265999D02*
X315666D01*
X316332Y265333D01*
Y262667D01*
X315666Y262001D01*
X314333D01*
X313666Y262667D01*
Y265333D01*
X314333Y265999D01*
X312333Y262001D02*
Y265999D01*
X309668Y262001D01*
Y265999D01*
X308335Y265333D02*
X307668Y265999D01*
X306335D01*
X305669Y265333D01*
Y264666D01*
X306335Y264000D01*
X307002D01*
X306335D01*
X305669Y263334D01*
Y262667D01*
X306335Y262001D01*
X307668D01*
X308335Y262667D01*
X317665Y338333D02*
X318332Y338999D01*
X319665D01*
X320331Y338333D01*
Y335667D01*
X319665Y335001D01*
X318332D01*
X317665Y335667D01*
X314333Y338999D02*
X315666D01*
X316332Y338333D01*
Y335667D01*
X315666Y335001D01*
X314333D01*
X313666Y335667D01*
Y338333D01*
X314333Y338999D01*
X312333Y335001D02*
Y338999D01*
X309668Y335001D01*
Y338999D01*
X305669Y335001D02*
X308335D01*
X305669Y337666D01*
Y338333D01*
X306335Y338999D01*
X307668D01*
X308335Y338333D01*
X567333Y240334D02*
X567999Y239668D01*
Y238335D01*
X567333Y237668D01*
X564667D01*
X564001Y238335D01*
Y239668D01*
X564667Y240334D01*
X567333Y241667D02*
X567999Y242334D01*
Y243666D01*
X567333Y244333D01*
X566666D01*
X566000Y243666D01*
Y243000D01*
Y243666D01*
X565334Y244333D01*
X564667D01*
X564001Y243666D01*
Y242334D01*
X564667Y241667D01*
X567999Y248332D02*
Y245666D01*
X566000D01*
X566666Y246999D01*
Y247665D01*
X566000Y248332D01*
X564667D01*
X564001Y247665D01*
Y246332D01*
X564667Y245666D01*
X605333Y240334D02*
X605999Y239668D01*
Y238335D01*
X605333Y237668D01*
X602667D01*
X602001Y238335D01*
Y239668D01*
X602667Y240334D01*
X605333Y241667D02*
X605999Y242334D01*
Y243666D01*
X605333Y244333D01*
X604666D01*
X604000Y243666D01*
Y243000D01*
Y243666D01*
X603334Y244333D01*
X602667D01*
X602001Y243666D01*
Y242334D01*
X602667Y241667D01*
X602001Y247665D02*
X605999D01*
X604000Y245666D01*
Y248332D01*
X567333Y183001D02*
X567999Y182334D01*
Y181001D01*
X567333Y180335D01*
X564667D01*
X564001Y181001D01*
Y182334D01*
X564667Y183001D01*
X567333Y184334D02*
X567999Y185000D01*
Y186333D01*
X567333Y186999D01*
X566666D01*
X566000Y186333D01*
Y185666D01*
Y186333D01*
X565334Y186999D01*
X564667D01*
X564001Y186333D01*
Y185000D01*
X564667Y184334D01*
X564001Y188332D02*
Y189665D01*
Y188999D01*
X567999D01*
X567333Y188332D01*
X605333Y183334D02*
X605999Y182668D01*
Y181335D01*
X605333Y180668D01*
X602667D01*
X602001Y181335D01*
Y182668D01*
X602667Y183334D01*
X605333Y184667D02*
X605999Y185334D01*
Y186666D01*
X605333Y187333D01*
X604666D01*
X604000Y186666D01*
Y186000D01*
Y186666D01*
X603334Y187333D01*
X602667D01*
X602001Y186666D01*
Y185334D01*
X602667Y184667D01*
X605333Y188666D02*
X605999Y189332D01*
Y190665D01*
X605333Y191332D01*
X602667D01*
X602001Y190665D01*
Y189332D01*
X602667Y188666D01*
X605333D01*
X567333Y125334D02*
X567999Y124668D01*
Y123335D01*
X567333Y122668D01*
X564667D01*
X564001Y123335D01*
Y124668D01*
X564667Y125334D01*
X564001Y129333D02*
Y126667D01*
X566666Y129333D01*
X567333D01*
X567999Y128666D01*
Y127333D01*
X567333Y126667D01*
Y130666D02*
X567999Y131332D01*
Y132665D01*
X567333Y133332D01*
X566666D01*
X566000Y132665D01*
X565334Y133332D01*
X564667D01*
X564001Y132665D01*
Y131332D01*
X564667Y130666D01*
X565334D01*
X566000Y131332D01*
X566666Y130666D01*
X567333D01*
X566000Y131332D02*
Y132665D01*
X605333Y125334D02*
X605999Y124668D01*
Y123335D01*
X605333Y122668D01*
X602667D01*
X602001Y123335D01*
Y124668D01*
X602667Y125334D01*
X602001Y129333D02*
Y126667D01*
X604666Y129333D01*
X605333D01*
X605999Y128666D01*
Y127333D01*
X605333Y126667D01*
X605999Y130666D02*
Y133332D01*
X605333D01*
X602667Y130666D01*
X602001D01*
X416666Y206333D02*
X417332Y206999D01*
X418665D01*
X419332Y206333D01*
Y203667D01*
X418665Y203001D01*
X417332D01*
X416666Y203667D01*
X412667Y203001D02*
X415333D01*
X412667Y205666D01*
Y206333D01*
X413334Y206999D01*
X414666D01*
X415333Y206333D01*
X409335Y203001D02*
Y206999D01*
X411334Y205000D01*
X408668D01*
X466666Y206333D02*
X467332Y206999D01*
X468665D01*
X469332Y206333D01*
Y203667D01*
X468665Y203001D01*
X467332D01*
X466666Y203667D01*
X462667Y203001D02*
X465333D01*
X462667Y205666D01*
Y206333D01*
X463334Y206999D01*
X464666D01*
X465333Y206333D01*
X461334D02*
X460668Y206999D01*
X459335D01*
X458668Y206333D01*
Y205666D01*
X459335Y205000D01*
X460001D01*
X459335D01*
X458668Y204333D01*
Y203667D01*
X459335Y203001D01*
X460668D01*
X461334Y203667D01*
X416666Y406333D02*
X417332Y406999D01*
X418665D01*
X419332Y406333D01*
Y403667D01*
X418665Y403001D01*
X417332D01*
X416666Y403667D01*
X412667Y403001D02*
X415333D01*
X412667Y405666D01*
Y406333D01*
X413334Y406999D01*
X414666D01*
X415333Y406333D01*
X408668Y403001D02*
X411334D01*
X408668Y405666D01*
Y406333D01*
X409335Y406999D01*
X410668D01*
X411334Y406333D01*
X465999D02*
X466666Y406999D01*
X467999D01*
X468665Y406333D01*
Y403667D01*
X467999Y403001D01*
X466666D01*
X465999Y403667D01*
X462001Y403001D02*
X464666D01*
X462001Y405666D01*
Y406333D01*
X462667Y406999D01*
X464000D01*
X464666Y406333D01*
X460668Y403001D02*
X459335D01*
X460001D01*
Y406999D01*
X460668Y406333D01*
X461333Y133334D02*
X461999Y132668D01*
Y131335D01*
X461333Y130668D01*
X458667D01*
X458001Y131335D01*
Y132668D01*
X458667Y133334D01*
X458001Y137333D02*
Y134667D01*
X460666Y137333D01*
X461333D01*
X461999Y136666D01*
Y135334D01*
X461333Y134667D01*
Y138666D02*
X461999Y139332D01*
Y140665D01*
X461333Y141332D01*
X458667D01*
X458001Y140665D01*
Y139332D01*
X458667Y138666D01*
X461333D01*
X461333Y161667D02*
X461999Y161001D01*
Y159668D01*
X461333Y159002D01*
X458667D01*
X458001Y159668D01*
Y161001D01*
X458667Y161667D01*
X458001Y163000D02*
Y164333D01*
Y163667D01*
X461999D01*
X461333Y163000D01*
X458667Y166333D02*
X458001Y166999D01*
Y168332D01*
X458667Y168998D01*
X461333D01*
X461999Y168332D01*
Y166999D01*
X461333Y166333D01*
X460666D01*
X460000Y166999D01*
Y168998D01*
X461333Y333667D02*
X461999Y333001D01*
Y331668D01*
X461333Y331002D01*
X458667D01*
X458001Y331668D01*
Y333001D01*
X458667Y333667D01*
X458001Y335000D02*
Y336333D01*
Y335667D01*
X461999D01*
X461333Y335000D01*
Y338333D02*
X461999Y338999D01*
Y340332D01*
X461333Y340998D01*
X460666D01*
X460000Y340332D01*
X459334Y340998D01*
X458667D01*
X458001Y340332D01*
Y338999D01*
X458667Y338333D01*
X459334D01*
X460000Y338999D01*
X460666Y338333D01*
X461333D01*
X460000Y338999D02*
Y340332D01*
X461333Y361667D02*
X461999Y361001D01*
Y359668D01*
X461333Y359002D01*
X458667D01*
X458001Y359668D01*
Y361001D01*
X458667Y361667D01*
X458001Y363000D02*
Y364333D01*
Y363667D01*
X461999D01*
X461333Y363000D01*
X461999Y366333D02*
Y368998D01*
X461333D01*
X458667Y366333D01*
X458001D01*
X419333Y133667D02*
X419999Y133001D01*
Y131668D01*
X419333Y131002D01*
X416667D01*
X416001Y131668D01*
Y133001D01*
X416667Y133667D01*
X416001Y135000D02*
Y136333D01*
Y135667D01*
X419999D01*
X419333Y135000D01*
X419999Y140998D02*
X419333Y139665D01*
X418000Y138333D01*
X416667D01*
X416001Y138999D01*
Y140332D01*
X416667Y140998D01*
X417334D01*
X418000Y140332D01*
Y138333D01*
X419333Y161667D02*
X419999Y161001D01*
Y159668D01*
X419333Y159002D01*
X416667D01*
X416001Y159668D01*
Y161001D01*
X416667Y161667D01*
X416001Y163000D02*
Y164333D01*
Y163667D01*
X419999D01*
X419333Y163000D01*
X419999Y168998D02*
Y166333D01*
X418000D01*
X418666Y167666D01*
Y168332D01*
X418000Y168998D01*
X416667D01*
X416001Y168332D01*
Y166999D01*
X416667Y166333D01*
X419333Y333667D02*
X419999Y333001D01*
Y331668D01*
X419333Y331002D01*
X416667D01*
X416001Y331668D01*
Y333001D01*
X416667Y333667D01*
X416001Y335000D02*
Y336333D01*
Y335667D01*
X419999D01*
X419333Y335000D01*
X416001Y340332D02*
X419999D01*
X418000Y338333D01*
Y340998D01*
X419333Y361667D02*
X419999Y361001D01*
Y359668D01*
X419333Y359002D01*
X416667D01*
X416001Y359668D01*
Y361001D01*
X416667Y361667D01*
X416001Y363000D02*
Y364333D01*
Y363667D01*
X419999D01*
X419333Y363000D01*
Y366333D02*
X419999Y366999D01*
Y368332D01*
X419333Y368998D01*
X418666D01*
X418000Y368332D01*
Y367666D01*
Y368332D01*
X417334Y368998D01*
X416667D01*
X416001Y368332D01*
Y366999D01*
X416667Y366333D01*
X461333Y259667D02*
X461999Y259001D01*
Y257668D01*
X461333Y257002D01*
X458667D01*
X458001Y257668D01*
Y259001D01*
X458667Y259667D01*
X458001Y261000D02*
Y262333D01*
Y261667D01*
X461999D01*
X461333Y261000D01*
X458001Y266998D02*
Y264333D01*
X460666Y266998D01*
X461333D01*
X461999Y266332D01*
Y264999D01*
X461333Y264333D01*
Y232334D02*
X461999Y231667D01*
Y230334D01*
X461333Y229668D01*
X458667D01*
X458001Y230334D01*
Y231667D01*
X458667Y232334D01*
X458001Y233667D02*
Y235000D01*
Y234333D01*
X461999D01*
X461333Y233667D01*
X458001Y236999D02*
Y238332D01*
Y237666D01*
X461999D01*
X461333Y236999D01*
Y459667D02*
X461999Y459001D01*
Y457668D01*
X461333Y457002D01*
X458667D01*
X458001Y457668D01*
Y459001D01*
X458667Y459667D01*
X458001Y461000D02*
Y462333D01*
Y461667D01*
X461999D01*
X461333Y461000D01*
Y464333D02*
X461999Y464999D01*
Y466332D01*
X461333Y466998D01*
X458667D01*
X458001Y466332D01*
Y464999D01*
X458667Y464333D01*
X461333D01*
Y433334D02*
X461999Y432667D01*
Y431334D01*
X461333Y430668D01*
X458667D01*
X458001Y431334D01*
Y432667D01*
X458667Y433334D01*
Y434666D02*
X458001Y435333D01*
Y436666D01*
X458667Y437332D01*
X461333D01*
X461999Y436666D01*
Y435333D01*
X461333Y434666D01*
X460666D01*
X460000Y435333D01*
Y437332D01*
X419333Y261334D02*
X419999Y260667D01*
Y259334D01*
X419333Y258668D01*
X416667D01*
X416001Y259334D01*
Y260667D01*
X416667Y261334D01*
X419333Y262667D02*
X419999Y263333D01*
Y264666D01*
X419333Y265332D01*
X418666D01*
X418000Y264666D01*
X417334Y265332D01*
X416667D01*
X416001Y264666D01*
Y263333D01*
X416667Y262667D01*
X417334D01*
X418000Y263333D01*
X418666Y262667D01*
X419333D01*
X418000Y263333D02*
Y264666D01*
X419333Y233334D02*
X419999Y232667D01*
Y231334D01*
X419333Y230668D01*
X416667D01*
X416001Y231334D01*
Y232667D01*
X416667Y233334D01*
X419999Y234666D02*
Y237332D01*
X419333D01*
X416667Y234666D01*
X416001D01*
X420333Y461334D02*
X420999Y460667D01*
Y459334D01*
X420333Y458668D01*
X417667D01*
X417001Y459334D01*
Y460667D01*
X417667Y461334D01*
X420999Y465332D02*
X420333Y463999D01*
X419000Y462667D01*
X417667D01*
X417001Y463333D01*
Y464666D01*
X417667Y465332D01*
X418334D01*
X419000Y464666D01*
Y462667D01*
X419333Y433334D02*
X419999Y432667D01*
Y431334D01*
X419333Y430668D01*
X416667D01*
X416001Y431334D01*
Y432667D01*
X416667Y433334D01*
X419999Y437332D02*
Y434666D01*
X418000D01*
X418666Y435999D01*
Y436666D01*
X418000Y437332D01*
X416667D01*
X416001Y436666D01*
Y435333D01*
X416667Y434666D01*
X689333Y428334D02*
X689999Y427667D01*
Y426334D01*
X689333Y425668D01*
X686667D01*
X686001Y426334D01*
Y427667D01*
X686667Y428334D01*
X686001Y432332D02*
Y429667D01*
X688666Y432332D01*
X689333D01*
X689999Y431666D01*
Y430333D01*
X689333Y429667D01*
X634333Y407000D02*
X634999Y406334D01*
Y405001D01*
X634333Y404334D01*
X631667D01*
X631001Y405001D01*
Y406334D01*
X631667Y407000D01*
X631001Y408333D02*
Y409666D01*
Y408999D01*
X634999D01*
X634333Y408333D01*
D14*
X513701Y408843D02*
X526299D01*
X513701Y389158D02*
X526299D01*
Y408843D01*
X513701Y389158D02*
Y408843D01*
X647614Y413331D02*
Y454669D01*
X674386Y413331D02*
Y454669D01*
X647614Y413331D02*
X674386D01*
X647614Y454669D02*
X674386D01*
X513701Y208842D02*
X526299D01*
X513701Y189157D02*
X526299D01*
Y208842D01*
X513701Y189157D02*
Y208842D01*
X432701Y181677D02*
X445299D01*
X432701Y216323D02*
X445299D01*
X432701Y181677D02*
Y216323D01*
X445299Y181677D02*
Y216323D01*
Y381677D02*
Y416323D01*
X432701Y381677D02*
Y416323D01*
X445299D01*
X432701Y381677D02*
X445299D01*
X598235Y238350D02*
Y249295D01*
X571766Y238350D02*
Y249295D01*
Y238350D02*
X598235D01*
X598035Y123950D02*
Y134895D01*
X571566Y123950D02*
Y134895D01*
Y123950D02*
X598035D01*
X598135Y181450D02*
Y192395D01*
X571666Y181450D02*
Y192395D01*
Y181450D02*
X598135D01*
D15*
X410500Y150000D02*
X413500D01*
X402500D02*
X405500D01*
X402500Y136000D02*
X405500D01*
X410500D02*
X413500D01*
X464500Y150000D02*
X467500D01*
X464500Y136000D02*
X467500D01*
X472500Y150000D02*
X475500D01*
X472500Y136000D02*
X475500D01*
X464500Y248000D02*
X467500D01*
X464500Y234000D02*
X467500D01*
X464500Y262000D02*
X467500D01*
X667500Y276346D02*
X670500D01*
X472500Y262000D02*
X475500D01*
X472500Y248000D02*
X475500D01*
X410500D02*
X413500D01*
X410500Y262000D02*
X413500D01*
X410500Y234000D02*
X413500D01*
X402500Y262000D02*
X405500D01*
X402500Y248000D02*
X405500D01*
X410500Y164000D02*
X413500D01*
X402500D02*
X405500D01*
X464500D02*
X467500D01*
X402500Y234000D02*
X405500D01*
X472500Y164000D02*
X475500D01*
X472500Y234000D02*
X475500D01*
X410500Y350000D02*
X413500D01*
X410500Y336000D02*
X413500D01*
X402500D02*
X405500D01*
X402500Y350000D02*
X405500D01*
X410500Y364000D02*
X413500D01*
X402500D02*
X405500D01*
X464500Y350000D02*
X467500D01*
X464500Y364000D02*
X467500D01*
X472500D02*
X475500D01*
X472500Y350000D02*
X475500D01*
X464500Y336000D02*
X467500D01*
X472500D02*
X475500D01*
X414000Y197500D02*
Y200500D01*
X464000Y197500D02*
Y200500D01*
Y397500D02*
Y400500D01*
X414000Y397500D02*
Y400500D01*
X464500Y448000D02*
X467500D01*
X464500Y434000D02*
X467500D01*
X472500D02*
X475500D01*
X472500Y448000D02*
X475500D01*
X472500Y462000D02*
X475500D01*
X464500D02*
X467500D01*
X410500Y448000D02*
X413500D01*
X410500Y434000D02*
X413500D01*
X402500Y448000D02*
X405500D01*
X402500Y434000D02*
X405500D01*
X402500Y462000D02*
X405500D01*
X410500D02*
X413500D01*
X561500Y359653D02*
X564500D01*
X686500Y418000D02*
X689500D01*
X631500Y417000D02*
X634500D01*
X564500Y230000D02*
X567500D01*
X564300Y115600D02*
X567300D01*
X564400Y173100D02*
X567400D01*
X602500Y230000D02*
X605500D01*
X602300Y115600D02*
X605300D01*
X602400Y173100D02*
X605400D01*
D72*
X518819Y393094D02*
G03*
X518819Y393094I-1181J0D01*
G01*
X652732Y417268D02*
G03*
X652732Y417268I-1181J0D01*
G01*
X584819Y356252D02*
G03*
X584819Y356252I-1181J0D01*
G01*
X518819Y193095D02*
G03*
X518819Y193095I-1181J0D01*
G01*
X442543Y212386D02*
G03*
X442543Y212386I-1181J0D01*
G01*
Y412386D02*
G03*
X442543Y412386I-1181J0D01*
G01*
M02*
