M48
;Layer_Color=9474304
;FILE_FORMAT=2:5
INCH,LZ
;TYPE=PLATED
T1F00S00C0.01400
T2F00S00C0.02756
T3F00S00C0.03543
T4F00S00C0.04331
T5F00S00C0.10591
T6F00S00C0.12598
T7F00S00C0.15000
%
T01
X0110158Y0014095
X010875Y002
X0110158Y0025905
X0114094Y0029842
X012Y003125
X0125906Y0029842
X0129842Y0025905
X013125Y002
X0129842Y0014095
X0125906Y0010158
X012Y000875
X0114094Y0010158
X0152Y00875
X01505Y01415
X01625
X016Y015065
X01725Y0147
X016Y01285
Y01115
X0178Y01125
X0193
X0184Y01235
X0199Y01275
X02155Y0147
X02245Y0156
X0261Y0142
X02605Y0105
Y00875
X02495Y00925
X0208
X0188975Y0083933
X016Y00735
X0164Y0051919
Y0031
X0181Y0027
X02Y00505
X0231Y00555
Y00605
X032Y0185
X0325
X03315Y0184782
X03355Y0185
X0334917Y0194
X03315Y0204
X0325Y0214
X032Y02235
X0254Y01765
X02605Y01595
X0189Y01565
Y0185
Y02065
X01665Y0199
X01715Y01905
X0167Y0215
Y0219
X0201Y0227
X0129842Y0225905
X013125Y022
X0129842Y0214094
X0125906Y0210157
X012Y020875
X0114094Y0210157
X0110158Y0214094
X010875Y022
X0110158Y0225905
X0114094Y0229842
X012Y023125
X0125906Y0229842
X0129Y019
X01145
T02
X0128Y01125
Y01175
Y01225
Y01275
X0138Y0125
Y012
Y0115
Y011
Y013
T03
X0295Y0101043
Y011002
Y0118996
Y0127972
Y0136949
X0305Y0132461
Y0123484
Y0114508
Y0105532
Y0141437
X0315Y0136949
Y0127972
Y0118996
Y011002
Y0101043
T04
X0274815Y0020815
Y00405
X02945
Y0020815
X0314185
Y00405
X033387
Y0020815
T05
X0123Y0091752
Y0148248
T06
X0305Y0070807
Y0169193
T07
X012Y002
Y022
M30
