G04*
G04 #@! TF.GenerationSoftware,Altium Limited,Altium Designer,21.3.1 (25)*
G04*
G04 Layer_Color=8421504*
%FSLAX44Y44*%
%MOMM*%
G71*
G04*
G04 #@! TF.SameCoordinates,4862DC25-4AA2-4778-B268-FF6FA36D4FA1*
G04*
G04*
G04 #@! TF.FilePolarity,Positive*
G04*
G01*
G75*
%ADD17R,0.9500X0.9500*%
%ADD18R,0.9500X0.9500*%
%ADD19O,1.7500X0.6000*%
%ADD20R,1.1500X1.7000*%
%ADD21R,1.7000X1.1500*%
D17*
X281500Y620000D02*
D03*
X298500D02*
D03*
Y580000D02*
D03*
X281500D02*
D03*
X308500Y740000D02*
D03*
X291500D02*
D03*
X168500Y780000D02*
D03*
X151500D02*
D03*
X304500Y697500D02*
D03*
X287500D02*
D03*
D18*
X330000Y623000D02*
D03*
Y640000D02*
D03*
X530000Y677000D02*
D03*
Y660000D02*
D03*
X100000Y506500D02*
D03*
Y523500D02*
D03*
X150000Y506500D02*
D03*
Y523500D02*
D03*
X330000Y681500D02*
D03*
Y698500D02*
D03*
D19*
X404250Y709450D02*
D03*
Y696750D02*
D03*
Y684050D02*
D03*
Y671350D02*
D03*
Y658650D02*
D03*
Y645950D02*
D03*
Y633250D02*
D03*
Y620550D02*
D03*
X475750Y709450D02*
D03*
Y696750D02*
D03*
Y684050D02*
D03*
Y671350D02*
D03*
Y658650D02*
D03*
Y645950D02*
D03*
Y633250D02*
D03*
Y620550D02*
D03*
D20*
X203750Y300000D02*
D03*
X176250D02*
D03*
D21*
X680000Y717500D02*
D03*
Y690000D02*
D03*
M02*
