G04*
G04 #@! TF.GenerationSoftware,Altium Limited,Altium Designer,21.3.1 (25)*
G04*
G04 Layer_Physical_Order=1*
G04 Layer_Color=255*
%FSLAX44Y44*%
%MOMM*%
G71*
G04*
G04 #@! TF.SameCoordinates,4862DC25-4AA2-4778-B268-FF6FA36D4FA1*
G04*
G04*
G04 #@! TF.FilePolarity,Positive*
G04*
G01*
G75*
%ADD15C,0.2540*%
%ADD17R,0.9500X0.9500*%
%ADD18R,0.9500X0.9500*%
%ADD19O,1.7500X0.6000*%
%ADD20R,1.1500X1.7000*%
%ADD21R,1.7000X1.1500*%
%ADD37C,1.5080*%
%ADD38C,4.0660*%
%ADD39R,1.5080X1.5080*%
%ADD40R,1.5240X1.5240*%
%ADD41C,1.5240*%
%ADD42C,7.5000*%
%ADD43C,5.0000*%
%ADD44C,1.2700*%
%ADD45R,1.2700X1.2700*%
%ADD46R,3.0000X3.0000*%
G36*
X775000Y225000D02*
X25000D01*
Y875000D01*
X775000D01*
Y225000D01*
D02*
G37*
%LPC*%
G36*
X728077Y864100D02*
X721923D01*
X715844Y863137D01*
X709991Y861235D01*
X704507Y858441D01*
X699528Y854824D01*
X695176Y850472D01*
X691559Y845493D01*
X688765Y840009D01*
X686863Y834156D01*
X685900Y828077D01*
Y821923D01*
X686863Y815844D01*
X688765Y809991D01*
X691559Y804507D01*
X695176Y799528D01*
X699528Y795176D01*
X704507Y791559D01*
X709991Y788765D01*
X715844Y786863D01*
X721923Y785900D01*
X728077D01*
X734156Y786863D01*
X740009Y788765D01*
X745493Y791559D01*
X750472Y795176D01*
X754824Y799528D01*
X758441Y804507D01*
X761235Y809991D01*
X763137Y815844D01*
X764100Y821923D01*
Y828077D01*
X763137Y834156D01*
X761235Y840009D01*
X758441Y845493D01*
X754824Y850472D01*
X750472Y854824D01*
X745493Y858441D01*
X740009Y861235D01*
X734156Y863137D01*
X728077Y864100D01*
D02*
G37*
G36*
X78077D02*
X71923D01*
X65844Y863137D01*
X59991Y861235D01*
X54507Y858441D01*
X49528Y854824D01*
X45176Y850472D01*
X41559Y845493D01*
X38765Y840009D01*
X36863Y834156D01*
X35900Y828077D01*
Y821923D01*
X36863Y815844D01*
X38765Y809991D01*
X41559Y804507D01*
X45176Y799528D01*
X49528Y795176D01*
X54507Y791559D01*
X59991Y788765D01*
X65844Y786863D01*
X71923Y785900D01*
X78077D01*
X84156Y786863D01*
X90009Y788765D01*
X95493Y791559D01*
X100472Y795176D01*
X104824Y799528D01*
X108441Y804507D01*
X111235Y809991D01*
X113137Y815844D01*
X114100Y821923D01*
Y828077D01*
X113137Y834156D01*
X111235Y840009D01*
X108441Y845493D01*
X104824Y850472D01*
X100472Y854824D01*
X95493Y858441D01*
X90009Y861235D01*
X84156Y863137D01*
X78077Y864100D01*
D02*
G37*
G36*
X167230Y787290D02*
X161210D01*
Y785631D01*
X158000D01*
X157850Y785754D01*
Y786350D01*
X145150D01*
Y782926D01*
X90000D01*
X88880Y782703D01*
X87931Y782069D01*
X77931Y772069D01*
X77297Y771120D01*
X77074Y770000D01*
Y686488D01*
X77297Y685368D01*
X77931Y684419D01*
X79419Y682931D01*
X80368Y682297D01*
X81488Y682074D01*
X86239D01*
X86408Y681441D01*
X87622Y679339D01*
X89339Y677622D01*
X91441Y676408D01*
X93786Y675780D01*
X96214D01*
X98559Y676408D01*
X100661Y677622D01*
X102378Y679339D01*
X103592Y681441D01*
X104220Y683786D01*
Y686214D01*
X103592Y688559D01*
X102378Y690661D01*
X100661Y692378D01*
X98559Y693592D01*
X96214Y694220D01*
X93786D01*
X91441Y693592D01*
X89339Y692378D01*
X87622Y690661D01*
X86408Y688559D01*
X86239Y687926D01*
X82926D01*
Y768788D01*
X91212Y777074D01*
X145150D01*
Y773650D01*
X157850D01*
Y774246D01*
X158000Y774369D01*
X161210D01*
Y772710D01*
X167230D01*
Y780000D01*
Y787290D01*
D02*
G37*
G36*
X175790D02*
X169770D01*
Y781270D01*
X175790D01*
Y787290D01*
D02*
G37*
G36*
Y778730D02*
X169770D01*
Y772710D01*
X175790D01*
Y778730D01*
D02*
G37*
G36*
X307230Y747290D02*
X301210D01*
Y745631D01*
X298000D01*
X297850Y745754D01*
Y746350D01*
X285150D01*
Y740426D01*
X260494D01*
X259374Y740203D01*
X258425Y739569D01*
X256937Y738081D01*
X256303Y737132D01*
X256080Y736012D01*
Y687926D01*
X248761D01*
X248592Y688559D01*
X247378Y690661D01*
X245661Y692378D01*
X243559Y693592D01*
X241214Y694220D01*
X238786D01*
X236441Y693592D01*
X234339Y692378D01*
X232622Y690661D01*
X231408Y688559D01*
X230780Y686214D01*
Y683786D01*
X231408Y681441D01*
X232622Y679339D01*
X234339Y677622D01*
X236441Y676408D01*
X238786Y675780D01*
X241214D01*
X243559Y676408D01*
X245661Y677622D01*
X247378Y679339D01*
X248592Y681441D01*
X248761Y682074D01*
X286012D01*
X287132Y682297D01*
X288081Y682931D01*
X289569Y684419D01*
X290203Y685368D01*
X290426Y686488D01*
Y691150D01*
X293850D01*
Y691746D01*
X294000Y691869D01*
X298000D01*
X298150Y691746D01*
Y691150D01*
X310850D01*
Y694574D01*
X323650D01*
Y692150D01*
X324246D01*
X324369Y692000D01*
Y688000D01*
X324246Y687850D01*
X323650D01*
Y683426D01*
X303988D01*
X302868Y683203D01*
X301919Y682569D01*
X300431Y681081D01*
X299797Y680132D01*
X299574Y679012D01*
Y668762D01*
Y662926D01*
X248761D01*
X248592Y663559D01*
X247378Y665661D01*
X245661Y667378D01*
X243559Y668592D01*
X241214Y669220D01*
X238786D01*
X236441Y668592D01*
X234339Y667378D01*
X232622Y665661D01*
X231408Y663559D01*
X230780Y661214D01*
Y658786D01*
X231408Y656441D01*
X232622Y654339D01*
X234339Y652622D01*
X236441Y651408D01*
X238786Y650780D01*
X241214D01*
X243559Y651408D01*
X245661Y652622D01*
X247378Y654339D01*
X248592Y656441D01*
X248761Y657074D01*
X299574D01*
Y650040D01*
X299797Y648920D01*
X300431Y647971D01*
X313951Y634451D01*
X314900Y633816D01*
X316020Y633594D01*
X324292D01*
X324369Y633500D01*
Y629500D01*
X324246Y629350D01*
X323650D01*
Y622926D01*
X304850D01*
Y626350D01*
X292150D01*
Y625755D01*
X292000Y625631D01*
X288000D01*
X287850Y625755D01*
Y626350D01*
X275150D01*
Y620426D01*
X262926D01*
Y633512D01*
X262703Y634632D01*
X262069Y635581D01*
X260581Y637069D01*
X259632Y637703D01*
X258512Y637926D01*
X248761D01*
X248592Y638559D01*
X247378Y640661D01*
X245661Y642378D01*
X243559Y643592D01*
X241214Y644220D01*
X238786D01*
X236441Y643592D01*
X234339Y642378D01*
X232622Y640661D01*
X231408Y638559D01*
X230780Y636214D01*
Y633786D01*
X231408Y631441D01*
X232622Y629339D01*
X234339Y627622D01*
X236441Y626408D01*
X238786Y625780D01*
X241214D01*
X243559Y626408D01*
X245661Y627622D01*
X247378Y629339D01*
X248592Y631441D01*
X248761Y632074D01*
X257074D01*
Y618988D01*
X257297Y617868D01*
X257931Y616919D01*
X258562Y616288D01*
Y581488D01*
X258784Y580368D01*
X259419Y579419D01*
X260907Y577931D01*
X261856Y577296D01*
X262976Y577074D01*
X275150D01*
Y573650D01*
X287850D01*
Y574246D01*
X288000Y574369D01*
X291210D01*
Y572710D01*
X297230D01*
Y580000D01*
Y587290D01*
X291210D01*
Y585631D01*
X288000D01*
X287850Y585755D01*
Y586350D01*
X275150D01*
Y582926D01*
X264414D01*
Y614574D01*
X275150D01*
Y613650D01*
X287850D01*
Y614246D01*
X288000Y614369D01*
X292000D01*
X292150Y614246D01*
Y613650D01*
X304850D01*
Y617074D01*
X323650D01*
Y616650D01*
X336350D01*
Y620074D01*
X373000D01*
X374120Y620297D01*
X375069Y620931D01*
X384462Y630324D01*
X394923D01*
X395184Y629934D01*
X396705Y628917D01*
X398500Y628560D01*
X410000D01*
X411795Y628917D01*
X413316Y629934D01*
X414333Y631455D01*
X414690Y633250D01*
X414333Y635045D01*
X413316Y636566D01*
X411795Y637583D01*
X410000Y637940D01*
X398500D01*
X396705Y637583D01*
X395184Y636566D01*
X394923Y636176D01*
X383250D01*
X382130Y635953D01*
X381181Y635319D01*
X371788Y625926D01*
X336350D01*
Y629350D01*
X335754D01*
X335631Y629500D01*
Y633500D01*
X335754Y633650D01*
X336350D01*
Y646350D01*
X323650D01*
Y639446D01*
X317232D01*
X305426Y651252D01*
Y658512D01*
Y667550D01*
X306300Y668424D01*
X371150D01*
X371491Y667154D01*
X370119Y666362D01*
X368638Y664881D01*
X367592Y663068D01*
X367050Y661047D01*
Y658953D01*
X367592Y656931D01*
X368638Y655119D01*
X370119Y653638D01*
X371931Y652592D01*
X373953Y652050D01*
X376047D01*
X378069Y652592D01*
X379881Y653638D01*
X381362Y655119D01*
X382093Y656386D01*
X394481D01*
X395184Y655334D01*
X396705Y654317D01*
X398500Y653960D01*
X410000D01*
X411795Y654317D01*
X413316Y655334D01*
X414333Y656855D01*
X414690Y658650D01*
X414333Y660445D01*
X413316Y661966D01*
X411795Y662983D01*
X410000Y663340D01*
X398500D01*
X396705Y662983D01*
X395591Y662238D01*
X382631D01*
X382408Y663068D01*
X381362Y664881D01*
X379881Y666362D01*
X378509Y667154D01*
X378850Y668424D01*
X394923D01*
X395184Y668034D01*
X396705Y667017D01*
X398500Y666660D01*
X410000D01*
X411795Y667017D01*
X413316Y668034D01*
X414333Y669555D01*
X414690Y671350D01*
X414333Y673145D01*
X413316Y674666D01*
X411795Y675683D01*
X410000Y676040D01*
X398500D01*
X396705Y675683D01*
X395184Y674666D01*
X394923Y674276D01*
X337258D01*
X336350Y675150D01*
Y687850D01*
X335754D01*
X335631Y688000D01*
Y692000D01*
X335754Y692150D01*
X336350D01*
Y694574D01*
X353512D01*
X354632Y694797D01*
X355581Y695431D01*
X357069Y696919D01*
X357704Y697868D01*
X357926Y698988D01*
Y707074D01*
X394555D01*
X395184Y706134D01*
X396705Y705117D01*
X398500Y704760D01*
X410000D01*
X411795Y705117D01*
X413316Y706134D01*
X414333Y707655D01*
X414690Y709450D01*
X414333Y711245D01*
X413316Y712766D01*
X411795Y713783D01*
X410000Y714140D01*
X398500D01*
X396705Y713783D01*
X395423Y712926D01*
X356488D01*
X355368Y712703D01*
X354419Y712069D01*
X352931Y710581D01*
X352296Y709632D01*
X352074Y708512D01*
Y700426D01*
X336350D01*
Y704850D01*
X323650D01*
Y700426D01*
X310850D01*
Y703850D01*
X298150D01*
Y703254D01*
X298000Y703131D01*
X294000D01*
X293850Y703254D01*
Y703850D01*
X281150D01*
Y691150D01*
X284574D01*
Y687926D01*
X261932D01*
Y734574D01*
X285150D01*
Y733650D01*
X297850D01*
Y734246D01*
X298000Y734369D01*
X301210D01*
Y732710D01*
X307230D01*
Y740000D01*
Y747290D01*
D02*
G37*
G36*
X315790D02*
X309770D01*
Y741270D01*
X315790D01*
Y747290D01*
D02*
G37*
G36*
Y738730D02*
X309770D01*
Y732710D01*
X315790D01*
Y738730D01*
D02*
G37*
G36*
X481500Y715098D02*
X477020D01*
Y710720D01*
X486896D01*
X486719Y711612D01*
X485494Y713444D01*
X483662Y714669D01*
X481500Y715098D01*
D02*
G37*
G36*
X474480D02*
X470000D01*
X467838Y714669D01*
X466006Y713444D01*
X464781Y711612D01*
X464604Y710720D01*
X474480D01*
Y715098D01*
D02*
G37*
G36*
X181600Y742600D02*
X148400D01*
Y709400D01*
X181600D01*
Y742600D01*
D02*
G37*
G36*
X486896Y708180D02*
X477020D01*
Y703801D01*
X481500D01*
X483662Y704231D01*
X485494Y705456D01*
X486719Y707288D01*
X486896Y708180D01*
D02*
G37*
G36*
X474480D02*
X464604D01*
X464781Y707288D01*
X466006Y705456D01*
X467838Y704231D01*
X470000Y703801D01*
X474480D01*
Y708180D01*
D02*
G37*
G36*
X481500Y701440D02*
X470000D01*
X468205Y701083D01*
X466684Y700066D01*
X465667Y698545D01*
X465310Y696750D01*
X465667Y694955D01*
X466684Y693434D01*
X468205Y692417D01*
X470000Y692060D01*
X481500D01*
X483295Y692417D01*
X484816Y693434D01*
X485833Y694955D01*
X486190Y696750D01*
X485833Y698545D01*
X484816Y700066D01*
X483295Y701083D01*
X481500Y701440D01*
D02*
G37*
G36*
X381797Y704700D02*
X379703D01*
X377681Y704158D01*
X375869Y703111D01*
X374388Y701631D01*
X373342Y699818D01*
X372800Y697797D01*
Y695703D01*
X373342Y693681D01*
X374388Y691869D01*
X375869Y690388D01*
X377681Y689342D01*
X379703Y688800D01*
X381797D01*
X383819Y689342D01*
X385631Y690388D01*
X387112Y691869D01*
X388158Y693681D01*
X388196Y693824D01*
X394923D01*
X395184Y693434D01*
X396705Y692417D01*
X398500Y692060D01*
X410000D01*
X411795Y692417D01*
X413316Y693434D01*
X414333Y694955D01*
X414690Y696750D01*
X414333Y698545D01*
X413316Y700066D01*
X411795Y701083D01*
X410000Y701440D01*
X398500D01*
X396705Y701083D01*
X395184Y700066D01*
X394923Y699676D01*
X388196D01*
X388158Y699818D01*
X387112Y701631D01*
X385631Y703111D01*
X383819Y704158D01*
X381797Y704700D01*
D02*
G37*
G36*
X481500Y688740D02*
X470000D01*
X468205Y688383D01*
X466684Y687366D01*
X465667Y685845D01*
X465310Y684050D01*
X465667Y682255D01*
X466684Y680734D01*
X468205Y679717D01*
X470000Y679360D01*
X481500D01*
X483295Y679717D01*
X484816Y680734D01*
X485833Y682255D01*
X486190Y684050D01*
X485833Y685845D01*
X484816Y687366D01*
X483295Y688383D01*
X481500Y688740D01*
D02*
G37*
G36*
X361997Y692000D02*
X359903D01*
X357881Y691458D01*
X356069Y690412D01*
X354588Y688931D01*
X353542Y687119D01*
X353000Y685097D01*
Y683003D01*
X353542Y680981D01*
X354588Y679168D01*
X356069Y677688D01*
X357881Y676642D01*
X359903Y676100D01*
X361997D01*
X364019Y676642D01*
X365831Y677688D01*
X367312Y679168D01*
X368358Y680981D01*
X368396Y681124D01*
X394923D01*
X395184Y680734D01*
X396705Y679717D01*
X398500Y679360D01*
X410000D01*
X411795Y679717D01*
X413316Y680734D01*
X414333Y682255D01*
X414690Y684050D01*
X414333Y685845D01*
X413316Y687366D01*
X411795Y688383D01*
X410000Y688740D01*
X398500D01*
X396705Y688383D01*
X395184Y687366D01*
X394923Y686976D01*
X368396D01*
X368358Y687119D01*
X367312Y688931D01*
X365831Y690412D01*
X364019Y691458D01*
X361997Y692000D01*
D02*
G37*
G36*
X537290Y684290D02*
X531270D01*
Y678270D01*
X537290D01*
Y684290D01*
D02*
G37*
G36*
X528730D02*
X522710D01*
Y678270D01*
X528730D01*
Y684290D01*
D02*
G37*
G36*
X481500Y676040D02*
X470000D01*
X468205Y675683D01*
X466684Y674666D01*
X465667Y673145D01*
X465310Y671350D01*
X465667Y669555D01*
X466684Y668034D01*
X468205Y667017D01*
X470000Y666660D01*
X481500D01*
X483295Y667017D01*
X484816Y668034D01*
X485833Y669555D01*
X486190Y671350D01*
X485833Y673145D01*
X484816Y674666D01*
X483295Y675683D01*
X481500Y676040D01*
D02*
G37*
G36*
X537290Y675730D02*
X530000D01*
X522710D01*
Y669710D01*
X524369D01*
Y666500D01*
X524246Y666350D01*
X523650D01*
Y661576D01*
X485077D01*
X484816Y661966D01*
X483295Y662983D01*
X481500Y663340D01*
X470000D01*
X468205Y662983D01*
X466684Y661966D01*
X465667Y660445D01*
X465310Y658650D01*
X465667Y656855D01*
X466684Y655334D01*
X468205Y654317D01*
X470000Y653960D01*
X481500D01*
X483295Y654317D01*
X484816Y655334D01*
X485077Y655724D01*
X523650D01*
Y653650D01*
X536350D01*
Y657074D01*
X552554D01*
X552592Y656931D01*
X553638Y655119D01*
X555119Y653638D01*
X556931Y652592D01*
X558953Y652050D01*
X561047D01*
X563069Y652592D01*
X564881Y653638D01*
X566362Y655119D01*
X567408Y656931D01*
X567950Y658953D01*
Y661047D01*
X567408Y663069D01*
X566362Y664881D01*
X564881Y666362D01*
X563069Y667408D01*
X561047Y667950D01*
X558953D01*
X556931Y667408D01*
X555119Y666362D01*
X553638Y664881D01*
X552592Y663069D01*
X552554Y662926D01*
X536350D01*
Y666350D01*
X535755D01*
X535631Y666500D01*
Y669710D01*
X537290D01*
Y675730D01*
D02*
G37*
G36*
X362597Y653900D02*
X360503D01*
X358481Y653358D01*
X356669Y652311D01*
X355188Y650831D01*
X354142Y649018D01*
X353600Y646997D01*
Y644903D01*
X354142Y642881D01*
X355188Y641068D01*
X356669Y639588D01*
X358481Y638542D01*
X360503Y638000D01*
X362597D01*
X364619Y638542D01*
X366431Y639588D01*
X367912Y641068D01*
X368958Y642881D01*
X368996Y643024D01*
X394923D01*
X395184Y642634D01*
X396705Y641617D01*
X398500Y641260D01*
X410000D01*
X411795Y641617D01*
X413316Y642634D01*
X414333Y644155D01*
X414690Y645950D01*
X414333Y647745D01*
X413316Y649266D01*
X411795Y650283D01*
X410000Y650640D01*
X398500D01*
X396705Y650283D01*
X395184Y649266D01*
X394923Y648876D01*
X368996D01*
X368958Y649018D01*
X367912Y650831D01*
X366431Y652311D01*
X364619Y653358D01*
X362597Y653900D01*
D02*
G37*
G36*
X96214Y644220D02*
X93786D01*
X91441Y643592D01*
X89339Y642378D01*
X87622Y640661D01*
X86408Y638559D01*
X85856Y636496D01*
X83570D01*
X82450Y636273D01*
X81501Y635639D01*
X77931Y632069D01*
X77297Y631120D01*
X77074Y630000D01*
Y530000D01*
X77297Y528880D01*
X77931Y527931D01*
X84431Y521431D01*
X85380Y520797D01*
X86500Y520574D01*
X93650D01*
Y517150D01*
X94246D01*
X94369Y517000D01*
Y513000D01*
X94246Y512850D01*
X93650D01*
Y500150D01*
X106350D01*
Y503574D01*
X117554D01*
X117592Y503431D01*
X118638Y501619D01*
X120119Y500138D01*
X121931Y499092D01*
X123953Y498550D01*
X126047D01*
X128069Y499092D01*
X129881Y500138D01*
X131362Y501619D01*
X132408Y503431D01*
X132446Y503574D01*
X143650D01*
Y500150D01*
X156350D01*
Y512850D01*
X155754D01*
X155631Y513000D01*
Y517000D01*
X155754Y517150D01*
X156350D01*
Y520574D01*
X423500D01*
X424620Y520797D01*
X425569Y521431D01*
X472069Y567931D01*
X472069Y567931D01*
X494569Y590431D01*
X495204Y591380D01*
X495426Y592500D01*
Y619062D01*
X495204Y620182D01*
X494569Y621131D01*
X493081Y622619D01*
X492132Y623253D01*
X491012Y623476D01*
X485077D01*
X484816Y623866D01*
X483295Y624883D01*
X481500Y625240D01*
X470000D01*
X468205Y624883D01*
X466684Y623866D01*
X465667Y622345D01*
X465310Y620550D01*
X465667Y618755D01*
X466684Y617234D01*
X468205Y616217D01*
X470000Y615860D01*
X481500D01*
X483295Y616217D01*
X484816Y617234D01*
X485077Y617624D01*
X489574D01*
Y593712D01*
X467931Y572069D01*
X467931Y572069D01*
X422288Y526426D01*
X156350D01*
Y529850D01*
X143650D01*
Y526426D01*
X106350D01*
Y529850D01*
X93650D01*
Y526426D01*
X87712D01*
X82926Y531212D01*
Y628788D01*
X84782Y630644D01*
X86869D01*
X87622Y629339D01*
X89339Y627622D01*
X91441Y626408D01*
X93786Y625780D01*
X96214D01*
X98559Y626408D01*
X100661Y627622D01*
X102378Y629339D01*
X103592Y631441D01*
X104220Y633786D01*
Y636214D01*
X103592Y638559D01*
X102378Y640661D01*
X100661Y642378D01*
X98559Y643592D01*
X96214Y644220D01*
D02*
G37*
G36*
X410000Y625240D02*
X398500D01*
X396705Y624883D01*
X395184Y623866D01*
X394167Y622345D01*
X393810Y620550D01*
X394167Y618755D01*
X395184Y617234D01*
X396705Y616217D01*
X398500Y615860D01*
X402074D01*
Y602446D01*
X401931Y602408D01*
X400119Y601362D01*
X398638Y599881D01*
X397592Y598069D01*
X397050Y596047D01*
Y593953D01*
X397592Y591931D01*
X398638Y590119D01*
X400119Y588638D01*
X401931Y587592D01*
X403953Y587050D01*
X406047D01*
X408069Y587592D01*
X409881Y588638D01*
X411362Y590119D01*
X412408Y591931D01*
X412950Y593953D01*
Y596047D01*
X412408Y598069D01*
X411362Y599881D01*
X409881Y601362D01*
X408069Y602408D01*
X407926Y602446D01*
Y615860D01*
X410000D01*
X411795Y616217D01*
X413316Y617234D01*
X414333Y618755D01*
X414690Y620550D01*
X414333Y622345D01*
X413316Y623866D01*
X411795Y624883D01*
X410000Y625240D01*
D02*
G37*
G36*
X305790Y587290D02*
X299770D01*
Y581270D01*
X305790D01*
Y587290D01*
D02*
G37*
G36*
X181600Y610600D02*
X148400D01*
Y577400D01*
X181600D01*
Y610600D01*
D02*
G37*
G36*
X305790Y578730D02*
X299770D01*
Y572710D01*
X305790D01*
Y578730D01*
D02*
G37*
G36*
X685647Y542150D02*
X683553D01*
X681531Y541608D01*
X679719Y540562D01*
X678238Y539081D01*
X677192Y537269D01*
X676650Y535247D01*
Y533153D01*
X677192Y531131D01*
X678238Y529319D01*
X679719Y527838D01*
X681531Y526792D01*
X683553Y526250D01*
X685647D01*
X687669Y526792D01*
X689481Y527838D01*
X690962Y529319D01*
X692008Y531131D01*
X692550Y533153D01*
Y535247D01*
X692008Y537269D01*
X690962Y539081D01*
X689481Y540562D01*
X687669Y541608D01*
X685647Y542150D01*
D02*
G37*
G36*
X711047Y530750D02*
X708953D01*
X706931Y530208D01*
X705119Y529162D01*
X703638Y527681D01*
X702592Y525869D01*
X702050Y523847D01*
Y521753D01*
X702592Y519731D01*
X703638Y517919D01*
X705119Y516438D01*
X706931Y515392D01*
X708953Y514850D01*
X711047D01*
X713069Y515392D01*
X714881Y516438D01*
X716362Y517919D01*
X717408Y519731D01*
X717950Y521753D01*
Y523847D01*
X717408Y525869D01*
X716362Y527681D01*
X714881Y529162D01*
X713069Y530208D01*
X711047Y530750D01*
D02*
G37*
G36*
X685647Y519350D02*
X683553D01*
X681531Y518808D01*
X679719Y517762D01*
X678238Y516281D01*
X677192Y514469D01*
X676650Y512447D01*
Y510353D01*
X677192Y508331D01*
X678238Y506519D01*
X679719Y505038D01*
X681531Y503992D01*
X683553Y503450D01*
X685647D01*
X687669Y503992D01*
X689481Y505038D01*
X690962Y506519D01*
X692008Y508331D01*
X692550Y510353D01*
Y512447D01*
X692008Y514469D01*
X690962Y516281D01*
X689481Y517762D01*
X687669Y518808D01*
X685647Y519350D01*
D02*
G37*
G36*
X711047Y507950D02*
X708953D01*
X706931Y507408D01*
X705119Y506362D01*
X703638Y504881D01*
X702592Y503069D01*
X702050Y501047D01*
Y498953D01*
X702592Y496931D01*
X703638Y495119D01*
X705119Y493638D01*
X706931Y492592D01*
X708953Y492050D01*
X711047D01*
X713069Y492592D01*
X714881Y493638D01*
X716362Y495119D01*
X717408Y496931D01*
X717950Y498953D01*
Y501047D01*
X717408Y503069D01*
X716362Y504881D01*
X714881Y506362D01*
X713069Y507408D01*
X711047Y507950D01*
D02*
G37*
G36*
Y485150D02*
X708953D01*
X706931Y484608D01*
X705119Y483562D01*
X703638Y482081D01*
X702592Y480269D01*
X702050Y478247D01*
Y476153D01*
X702592Y474131D01*
X703638Y472319D01*
X705119Y470838D01*
X706931Y469792D01*
X708953Y469250D01*
X711047D01*
X713069Y469792D01*
X714881Y470838D01*
X716362Y472319D01*
X717408Y474131D01*
X717950Y476153D01*
Y478247D01*
X717408Y480269D01*
X716362Y482081D01*
X714881Y483562D01*
X713069Y484608D01*
X711047Y485150D01*
D02*
G37*
G36*
X685647Y473750D02*
X683553D01*
X681531Y473208D01*
X679719Y472162D01*
X678238Y470681D01*
X677192Y468869D01*
X676650Y466847D01*
Y464753D01*
X677192Y462731D01*
X678238Y460919D01*
X679719Y459438D01*
X681531Y458392D01*
X683553Y457850D01*
X685647D01*
X687669Y458392D01*
X689481Y459438D01*
X690962Y460919D01*
X692008Y462731D01*
X692550Y464753D01*
Y466847D01*
X692008Y468869D01*
X690962Y470681D01*
X689481Y472162D01*
X687669Y473208D01*
X685647Y473750D01*
D02*
G37*
G36*
X711047Y462350D02*
X708953D01*
X706931Y461808D01*
X705119Y460762D01*
X703638Y459281D01*
X702592Y457469D01*
X702050Y455447D01*
Y453353D01*
X702592Y451331D01*
X703638Y449519D01*
X705119Y448038D01*
X706931Y446992D01*
X708953Y446450D01*
X711047D01*
X713069Y446992D01*
X714881Y448038D01*
X716362Y449519D01*
X717408Y451331D01*
X717950Y453353D01*
Y455447D01*
X717408Y457469D01*
X716362Y459281D01*
X714881Y460762D01*
X713069Y461808D01*
X711047Y462350D01*
D02*
G37*
G36*
X660247D02*
X658153D01*
X656131Y461808D01*
X654319Y460762D01*
X652838Y459281D01*
X651792Y457469D01*
X651250Y455447D01*
Y453353D01*
X651792Y451331D01*
X652838Y449519D01*
X654319Y448038D01*
X656131Y446992D01*
X658153Y446450D01*
X660247D01*
X662269Y446992D01*
X662396Y447066D01*
X667074Y442388D01*
Y436402D01*
X665804Y436062D01*
X665562Y436481D01*
X664081Y437962D01*
X662269Y439008D01*
X660247Y439550D01*
X658153D01*
X656131Y439008D01*
X654319Y437962D01*
X652838Y436481D01*
X651792Y434669D01*
X651754Y434526D01*
X471650D01*
X470530Y434303D01*
X469581Y433669D01*
X362517Y326606D01*
X361978Y326917D01*
X359653Y327540D01*
X357247D01*
X354922Y326917D01*
X352838Y325714D01*
X351136Y324012D01*
X349933Y321928D01*
X349310Y319603D01*
Y317197D01*
X349933Y314872D01*
X351136Y312788D01*
X352838Y311086D01*
X354922Y309883D01*
X357247Y309260D01*
X359653D01*
X361978Y309883D01*
X364062Y311086D01*
X365764Y312788D01*
X366967Y314872D01*
X367590Y317197D01*
Y319603D01*
X366967Y321928D01*
X366656Y322467D01*
X472862Y428674D01*
X651754D01*
X651792Y428531D01*
X652838Y426719D01*
X654319Y425238D01*
X656131Y424192D01*
X658153Y423650D01*
X660247D01*
X662269Y424192D01*
X664081Y425238D01*
X665562Y426719D01*
X665804Y427138D01*
X667074Y426798D01*
Y421212D01*
X658788Y412926D01*
X470000D01*
X468880Y412704D01*
X467931Y412069D01*
X386480Y330619D01*
X385846Y329669D01*
X385623Y328549D01*
Y327540D01*
X384947D01*
X382622Y326917D01*
X380538Y325714D01*
X378836Y324012D01*
X377633Y321928D01*
X377010Y319603D01*
Y317197D01*
X377633Y314872D01*
X378836Y312788D01*
X380538Y311086D01*
X382622Y309883D01*
X384947Y309260D01*
X387353D01*
X389678Y309883D01*
X391762Y311086D01*
X393464Y312788D01*
X394667Y314872D01*
X395290Y317197D01*
Y319603D01*
X394667Y321928D01*
X393464Y324012D01*
X391762Y325714D01*
X391476Y325879D01*
Y327337D01*
X471212Y407074D01*
X660000D01*
X661120Y407296D01*
X662069Y407931D01*
X672069Y417931D01*
X672703Y418880D01*
X672926Y420000D01*
Y443600D01*
X672703Y444720D01*
X672069Y445669D01*
X666535Y451204D01*
X666608Y451331D01*
X667150Y453353D01*
Y455447D01*
X666608Y457469D01*
X665562Y459281D01*
X664081Y460762D01*
X662269Y461808D01*
X660247Y462350D01*
D02*
G37*
G36*
X685647Y450950D02*
X683553D01*
X681531Y450408D01*
X679719Y449362D01*
X678238Y447881D01*
X677192Y446069D01*
X676650Y444047D01*
Y441953D01*
X677192Y439931D01*
X678238Y438119D01*
X679719Y436638D01*
X681531Y435592D01*
X683553Y435050D01*
X685647D01*
X687669Y435592D01*
X689481Y436638D01*
X690962Y438119D01*
X692008Y439931D01*
X692550Y441953D01*
Y444047D01*
X692008Y446069D01*
X690962Y447881D01*
X689481Y449362D01*
X687669Y450408D01*
X685647Y450950D01*
D02*
G37*
G36*
X711047Y439550D02*
X708953D01*
X706931Y439008D01*
X705119Y437962D01*
X703638Y436481D01*
X702592Y434669D01*
X702050Y432647D01*
Y430553D01*
X702592Y428531D01*
X703638Y426719D01*
X705119Y425238D01*
X706931Y424192D01*
X708953Y423650D01*
X711047D01*
X713069Y424192D01*
X714881Y425238D01*
X716362Y426719D01*
X717408Y428531D01*
X717950Y430553D01*
Y432647D01*
X717408Y434669D01*
X716362Y436481D01*
X714881Y437962D01*
X713069Y439008D01*
X711047Y439550D01*
D02*
G37*
G36*
X651047Y727950D02*
X648953D01*
X646931Y727408D01*
X645119Y726362D01*
X643638Y724881D01*
X642592Y723069D01*
X642050Y721047D01*
Y718953D01*
X642592Y716931D01*
X643638Y715119D01*
X645119Y713638D01*
X646931Y712592D01*
X648953Y712050D01*
X651047D01*
X653069Y712592D01*
X654881Y713638D01*
X656362Y715119D01*
X657408Y716931D01*
X657446Y717074D01*
X669900D01*
Y710150D01*
X670926D01*
X671347Y708904D01*
X670993Y708374D01*
X670869Y707750D01*
Y699750D01*
X670993Y699126D01*
X671347Y698596D01*
X670926Y697350D01*
X669900D01*
Y682650D01*
X681674D01*
Y630968D01*
X678371Y630445D01*
X674389Y629151D01*
X670659Y627250D01*
X667271Y624789D01*
X664311Y621829D01*
X661850Y618441D01*
X659949Y614711D01*
X658655Y610729D01*
X658000Y606594D01*
Y602407D01*
X658655Y598271D01*
X659949Y594289D01*
X661850Y590559D01*
X664311Y587171D01*
X667271Y584211D01*
X670659Y581750D01*
X674389Y579849D01*
X678371Y578555D01*
X682506Y577900D01*
X686693D01*
X690829Y578555D01*
X694811Y579849D01*
X695607Y580255D01*
X737074Y538788D01*
Y421212D01*
X695011Y379149D01*
X694811Y379251D01*
X690829Y380545D01*
X686693Y381200D01*
X682506D01*
X678371Y380545D01*
X674389Y379251D01*
X670659Y377350D01*
X667271Y374889D01*
X664311Y371929D01*
X661850Y368541D01*
X659949Y364811D01*
X658655Y360829D01*
X658000Y356693D01*
Y352506D01*
X658655Y348371D01*
X659949Y344389D01*
X661850Y340659D01*
X664311Y337271D01*
X667271Y334311D01*
X670659Y331850D01*
X674389Y329949D01*
X678371Y328655D01*
X682506Y328000D01*
X686693D01*
X690829Y328655D01*
X694811Y329949D01*
X698541Y331850D01*
X701929Y334311D01*
X704889Y337271D01*
X707350Y340659D01*
X709251Y344389D01*
X710545Y348371D01*
X711200Y352506D01*
Y356693D01*
X710545Y360829D01*
X709251Y364811D01*
X707350Y368541D01*
X704889Y371929D01*
X701929Y374889D01*
X701040Y375535D01*
X700940Y376801D01*
X742069Y417931D01*
X742703Y418880D01*
X742926Y420000D01*
Y540000D01*
X742703Y541120D01*
X742069Y542069D01*
X701461Y582677D01*
X701561Y583943D01*
X701929Y584211D01*
X704889Y587171D01*
X707350Y590559D01*
X709251Y594289D01*
X710545Y598271D01*
X711200Y602407D01*
Y606594D01*
X710545Y610729D01*
X709251Y614711D01*
X707350Y618441D01*
X704889Y621829D01*
X701929Y624789D01*
X698541Y627250D01*
X694811Y629151D01*
X690829Y630445D01*
X687526Y630968D01*
Y682650D01*
X690100D01*
Y697350D01*
X689074D01*
X688653Y698596D01*
X689007Y699126D01*
X689131Y699750D01*
Y707750D01*
X689007Y708374D01*
X688653Y708904D01*
X689074Y710150D01*
X690100D01*
Y724850D01*
X669900D01*
Y722926D01*
X657446D01*
X657408Y723069D01*
X656362Y724881D01*
X654881Y726362D01*
X653069Y727408D01*
X651047Y727950D01*
D02*
G37*
G36*
X601338Y340160D02*
X601270D01*
Y331270D01*
X610160D01*
Y331338D01*
X609468Y333922D01*
X608130Y336238D01*
X606238Y338130D01*
X603922Y339468D01*
X601338Y340160D01*
D02*
G37*
G36*
X598730D02*
X598662D01*
X596078Y339468D01*
X593762Y338130D01*
X591870Y336238D01*
X590532Y333922D01*
X589840Y331338D01*
Y331270D01*
X598730D01*
Y340160D01*
D02*
G37*
G36*
X481500Y637940D02*
X470000D01*
X468205Y637583D01*
X466684Y636566D01*
X465667Y635045D01*
X465310Y633250D01*
X465667Y631455D01*
X466684Y629934D01*
X468205Y628917D01*
X470000Y628560D01*
X481500D01*
X483295Y628917D01*
X484816Y629934D01*
X484827Y629949D01*
X498413D01*
X504074Y624288D01*
Y519714D01*
X502931Y519408D01*
X501119Y518362D01*
X499638Y516881D01*
X498592Y515069D01*
X498050Y513047D01*
Y510953D01*
X498592Y508931D01*
X499638Y507119D01*
X501119Y505638D01*
X502931Y504592D01*
X504074Y504286D01*
Y498212D01*
X333096Y327234D01*
X331953Y327540D01*
X329547D01*
X327222Y326917D01*
X325138Y325714D01*
X323436Y324012D01*
X322233Y321928D01*
X321610Y319603D01*
Y317197D01*
X322233Y314872D01*
X323436Y312788D01*
X325138Y311086D01*
X327222Y309883D01*
X329547Y309260D01*
X331953D01*
X334278Y309883D01*
X336362Y311086D01*
X338064Y312788D01*
X339267Y314872D01*
X339890Y317197D01*
Y319603D01*
X339267Y321928D01*
X338096Y323957D01*
X509069Y494931D01*
X509703Y495880D01*
X509926Y497000D01*
Y505087D01*
X510881Y505638D01*
X512362Y507119D01*
X513408Y508931D01*
X513950Y510953D01*
Y513047D01*
X513408Y515069D01*
X512362Y516881D01*
X510881Y518362D01*
X509926Y518913D01*
Y625500D01*
X509703Y626620D01*
X509069Y627569D01*
X501694Y634944D01*
X500745Y635578D01*
X499625Y635801D01*
X485328D01*
X484816Y636566D01*
X483295Y637583D01*
X481500Y637940D01*
D02*
G37*
G36*
Y650640D02*
X470000D01*
X468205Y650283D01*
X466684Y649266D01*
X465667Y647745D01*
X465310Y645950D01*
X465667Y644155D01*
X466684Y642634D01*
X468205Y641617D01*
X470000Y641260D01*
X481500D01*
X483295Y641617D01*
X484816Y642634D01*
X485077Y643024D01*
X527206D01*
X551010Y619220D01*
X550484Y617950D01*
X548953D01*
X546931Y617408D01*
X545119Y616362D01*
X543638Y614881D01*
X542592Y613069D01*
X542050Y611047D01*
Y608953D01*
X542592Y606931D01*
X543638Y605119D01*
X545119Y603638D01*
X546931Y602592D01*
X547074Y602554D01*
Y586400D01*
X547296Y585280D01*
X547931Y584331D01*
X651865Y480396D01*
X651792Y480269D01*
X651250Y478247D01*
Y476153D01*
X651792Y474131D01*
X652838Y472319D01*
X654319Y470838D01*
X656131Y469792D01*
X658153Y469250D01*
X660247D01*
X662269Y469792D01*
X664081Y470838D01*
X665562Y472319D01*
X666608Y474131D01*
X667150Y476153D01*
Y478247D01*
X666608Y480269D01*
X665562Y482081D01*
X664081Y483562D01*
X662269Y484608D01*
X660247Y485150D01*
X658153D01*
X656131Y484608D01*
X656004Y484534D01*
X552926Y587612D01*
Y602554D01*
X553069Y602592D01*
X554881Y603638D01*
X556362Y605119D01*
X557408Y606931D01*
X557950Y608953D01*
Y610484D01*
X559220Y611010D01*
X587119Y583111D01*
Y574067D01*
X587342Y572947D01*
X587976Y571997D01*
X649603Y510371D01*
X650552Y509737D01*
X651672Y509514D01*
X658957D01*
X659153Y509220D01*
X658475Y507950D01*
X658153D01*
X656131Y507408D01*
X654319Y506362D01*
X652838Y504881D01*
X651792Y503069D01*
X651250Y501047D01*
Y498953D01*
X651792Y496931D01*
X652838Y495119D01*
X654319Y493638D01*
X656131Y492592D01*
X658153Y492050D01*
X660247D01*
X662269Y492592D01*
X664081Y493638D01*
X665562Y495119D01*
X666608Y496931D01*
X667150Y498953D01*
Y500484D01*
X668420Y501010D01*
X677400Y492030D01*
X677192Y491669D01*
X676650Y489647D01*
Y487553D01*
X677192Y485531D01*
X678238Y483719D01*
X679719Y482238D01*
X681531Y481192D01*
X683553Y480650D01*
X685647D01*
X687669Y481192D01*
X689481Y482238D01*
X690962Y483719D01*
X692008Y485531D01*
X692550Y487553D01*
Y489647D01*
X692008Y491669D01*
X690962Y493481D01*
X689481Y494962D01*
X687669Y496008D01*
X685647Y496550D01*
X683553D01*
X681663Y496044D01*
X664327Y513380D01*
X664853Y514650D01*
X667550D01*
Y530550D01*
X655788D01*
X652926Y533412D01*
Y557074D01*
X698788D01*
X727074Y528788D01*
Y431212D01*
X698788Y402926D01*
X680000D01*
X678880Y402704D01*
X677931Y402069D01*
X623331Y347469D01*
X622696Y346520D01*
X622474Y345400D01*
Y339220D01*
X616180D01*
Y320780D01*
X634620D01*
Y339220D01*
X628326D01*
Y344188D01*
X681212Y397074D01*
X700000D01*
X701120Y397296D01*
X702069Y397931D01*
X732069Y427931D01*
X732703Y428880D01*
X732926Y430000D01*
Y530000D01*
X732703Y531120D01*
X732069Y532069D01*
X702069Y562069D01*
X701120Y562704D01*
X700000Y562926D01*
X651488D01*
X650368Y562704D01*
X649419Y562069D01*
X647931Y560581D01*
X647297Y559632D01*
X647074Y558512D01*
Y532200D01*
X647297Y531080D01*
X647931Y530131D01*
X651594Y526468D01*
Y522600D01*
X651650Y522317D01*
Y518260D01*
X650477Y517774D01*
X592971Y575279D01*
Y584323D01*
X592749Y585443D01*
X592114Y586392D01*
X530488Y648019D01*
X529538Y648653D01*
X528418Y648876D01*
X485077D01*
X484816Y649266D01*
X483295Y650283D01*
X481500Y650640D01*
D02*
G37*
G36*
X575814Y339220D02*
X573386D01*
X571041Y338592D01*
X568939Y337378D01*
X567222Y335661D01*
X566008Y333559D01*
X565839Y332926D01*
X490000D01*
X488880Y332704D01*
X487931Y332069D01*
X428788Y272926D01*
X421212D01*
X408206Y285933D01*
X408517Y286472D01*
X409140Y288797D01*
Y291203D01*
X408517Y293528D01*
X407314Y295612D01*
X405612Y297314D01*
X403528Y298517D01*
X401203Y299140D01*
X398797D01*
X396472Y298517D01*
X394388Y297314D01*
X392686Y295612D01*
X391483Y293528D01*
X390860Y291203D01*
Y288797D01*
X391483Y286472D01*
X392686Y284388D01*
X394388Y282686D01*
X396472Y281483D01*
X398797Y280860D01*
X401203D01*
X403528Y281483D01*
X404067Y281794D01*
X417931Y267931D01*
X418880Y267297D01*
X420000Y267074D01*
X430000D01*
X431120Y267297D01*
X432069Y267931D01*
X491212Y327074D01*
X507175D01*
X507300Y325804D01*
X504703Y325287D01*
X500712Y323634D01*
X497120Y321234D01*
X494066Y318180D01*
X491666Y314588D01*
X490013Y310597D01*
X489170Y306360D01*
Y302040D01*
X490013Y297803D01*
X491666Y293812D01*
X494066Y290221D01*
X496224Y288062D01*
X461088Y252926D01*
X313512D01*
X277226Y289212D01*
X278234Y290221D01*
X280634Y293812D01*
X282287Y297803D01*
X283130Y302040D01*
Y306360D01*
X282287Y310597D01*
X280634Y314588D01*
X278234Y318180D01*
X275180Y321234D01*
X271588Y323634D01*
X267597Y325287D01*
X263360Y326130D01*
X259040D01*
X254803Y325287D01*
X250812Y323634D01*
X247220Y321234D01*
X244166Y318180D01*
X241766Y314588D01*
X240113Y310597D01*
X239422Y307126D01*
X211100D01*
Y310100D01*
X196400D01*
Y309074D01*
X195154Y308654D01*
X194624Y309007D01*
X194000Y309131D01*
X186000D01*
X185376Y309007D01*
X184846Y308654D01*
X183600Y309074D01*
Y310100D01*
X168900D01*
Y302926D01*
X157446D01*
X157408Y303069D01*
X156362Y304881D01*
X154881Y306362D01*
X153069Y307408D01*
X151047Y307950D01*
X148953D01*
X146931Y307408D01*
X145119Y306362D01*
X143638Y304881D01*
X142592Y303069D01*
X142050Y301047D01*
Y298953D01*
X142592Y296931D01*
X143638Y295119D01*
X145119Y293638D01*
X146931Y292592D01*
X148953Y292050D01*
X151047D01*
X153069Y292592D01*
X154881Y293638D01*
X156362Y295119D01*
X157408Y296931D01*
X157446Y297074D01*
X168900D01*
Y289900D01*
X183600D01*
Y290926D01*
X184846Y291346D01*
X185376Y290993D01*
X186000Y290869D01*
X194000D01*
X194624Y290993D01*
X195154Y291346D01*
X196400Y290926D01*
Y289900D01*
X211100D01*
Y301274D01*
X239422D01*
X240113Y297803D01*
X241766Y293812D01*
X244166Y290221D01*
X247220Y287166D01*
X250812Y284766D01*
X254803Y283113D01*
X259040Y282270D01*
X263360D01*
X267597Y283113D01*
X271588Y284766D01*
X272672Y285490D01*
X310231Y247931D01*
X311180Y247297D01*
X312300Y247074D01*
X462300D01*
X463420Y247297D01*
X464369Y247931D01*
X501060Y284622D01*
X504703Y283113D01*
X508940Y282270D01*
X513260D01*
X517497Y283113D01*
X521488Y284766D01*
X525079Y287166D01*
X528134Y290221D01*
X530534Y293812D01*
X532187Y297803D01*
X533030Y302040D01*
Y306360D01*
X532187Y310597D01*
X530534Y314588D01*
X528134Y318180D01*
X525079Y321234D01*
X521488Y323634D01*
X517497Y325287D01*
X514900Y325804D01*
X515025Y327074D01*
X565839D01*
X566008Y326441D01*
X567222Y324339D01*
X568939Y322622D01*
X571041Y321408D01*
X573386Y320780D01*
X575814D01*
X578159Y321408D01*
X580261Y322622D01*
X581978Y324339D01*
X583192Y326441D01*
X583820Y328786D01*
Y331214D01*
X583192Y333559D01*
X581978Y335661D01*
X580261Y337378D01*
X578159Y338592D01*
X575814Y339220D01*
D02*
G37*
G36*
X610160Y328730D02*
X601270D01*
Y319840D01*
X601338D01*
X603922Y320532D01*
X606238Y321870D01*
X608130Y323762D01*
X609468Y326078D01*
X610160Y328662D01*
Y328730D01*
D02*
G37*
G36*
X598730D02*
X589840D01*
Y328662D01*
X590532Y326078D01*
X591870Y323762D01*
X593762Y321870D01*
X596078Y320532D01*
X598662Y319840D01*
X598730D01*
Y328730D01*
D02*
G37*
G36*
X450690Y327540D02*
X432410D01*
Y309260D01*
X450690D01*
Y327540D01*
D02*
G37*
G36*
X415053D02*
X412647D01*
X410322Y326917D01*
X408238Y325714D01*
X406536Y324012D01*
X405333Y321928D01*
X404710Y319603D01*
Y317197D01*
X405333Y314872D01*
X406536Y312788D01*
X408238Y311086D01*
X410322Y309883D01*
X412647Y309260D01*
X415053D01*
X417378Y309883D01*
X419462Y311086D01*
X421164Y312788D01*
X422367Y314872D01*
X422990Y317197D01*
Y319603D01*
X422367Y321928D01*
X421164Y324012D01*
X419462Y325714D01*
X417378Y326917D01*
X415053Y327540D01*
D02*
G37*
G36*
X428903Y299140D02*
X426497D01*
X424172Y298517D01*
X422088Y297314D01*
X420386Y295612D01*
X419183Y293528D01*
X418560Y291203D01*
Y288797D01*
X419183Y286472D01*
X420386Y284388D01*
X422088Y282686D01*
X424172Y281483D01*
X426497Y280860D01*
X428903D01*
X431228Y281483D01*
X433312Y282686D01*
X435014Y284388D01*
X436217Y286472D01*
X436840Y288797D01*
Y291203D01*
X436217Y293528D01*
X435014Y295612D01*
X433312Y297314D01*
X431228Y298517D01*
X428903Y299140D01*
D02*
G37*
G36*
X373503D02*
X371097D01*
X368772Y298517D01*
X366688Y297314D01*
X364986Y295612D01*
X363783Y293528D01*
X363160Y291203D01*
Y288797D01*
X363783Y286472D01*
X364986Y284388D01*
X366688Y282686D01*
X368772Y281483D01*
X371097Y280860D01*
X373503D01*
X375828Y281483D01*
X377912Y282686D01*
X379614Y284388D01*
X380817Y286472D01*
X381440Y288797D01*
Y291203D01*
X380817Y293528D01*
X379614Y295612D01*
X377912Y297314D01*
X375828Y298517D01*
X373503Y299140D01*
D02*
G37*
G36*
X345803D02*
X343397D01*
X341072Y298517D01*
X338988Y297314D01*
X337286Y295612D01*
X336083Y293528D01*
X335460Y291203D01*
Y288797D01*
X336083Y286472D01*
X337286Y284388D01*
X338988Y282686D01*
X341072Y281483D01*
X343397Y280860D01*
X345803D01*
X348128Y281483D01*
X350212Y282686D01*
X351914Y284388D01*
X353117Y286472D01*
X353740Y288797D01*
Y291203D01*
X353117Y293528D01*
X351914Y295612D01*
X350212Y297314D01*
X348128Y298517D01*
X345803Y299140D01*
D02*
G37*
G36*
X728077Y314100D02*
X721923D01*
X715844Y313137D01*
X709991Y311235D01*
X704507Y308441D01*
X699528Y304824D01*
X695176Y300472D01*
X691559Y295493D01*
X688765Y290009D01*
X686863Y284156D01*
X685900Y278077D01*
Y271923D01*
X686863Y265844D01*
X688765Y259991D01*
X691559Y254507D01*
X695176Y249528D01*
X699528Y245176D01*
X704507Y241559D01*
X709991Y238765D01*
X715844Y236863D01*
X721923Y235900D01*
X728077D01*
X734156Y236863D01*
X740009Y238765D01*
X745493Y241559D01*
X750472Y245176D01*
X754824Y249528D01*
X758441Y254507D01*
X761235Y259991D01*
X763137Y265844D01*
X764100Y271923D01*
Y278077D01*
X763137Y284156D01*
X761235Y290009D01*
X758441Y295493D01*
X754824Y300472D01*
X750472Y304824D01*
X745493Y308441D01*
X740009Y311235D01*
X734156Y313137D01*
X728077Y314100D01*
D02*
G37*
G36*
X78077D02*
X71923D01*
X65844Y313137D01*
X59991Y311235D01*
X54507Y308441D01*
X49528Y304824D01*
X45176Y300472D01*
X41559Y295493D01*
X38765Y290009D01*
X36863Y284156D01*
X35900Y278077D01*
Y271923D01*
X36863Y265844D01*
X38765Y259991D01*
X41559Y254507D01*
X45176Y249528D01*
X49528Y245176D01*
X54507Y241559D01*
X59991Y238765D01*
X65844Y236863D01*
X71923Y235900D01*
X78077D01*
X84156Y236863D01*
X90009Y238765D01*
X95493Y241559D01*
X100472Y245176D01*
X104824Y249528D01*
X108441Y254507D01*
X111235Y259991D01*
X113137Y265844D01*
X114100Y271923D01*
Y278077D01*
X113137Y284156D01*
X111235Y290009D01*
X108441Y295493D01*
X104824Y300472D01*
X100472Y304824D01*
X95493Y308441D01*
X90009Y311235D01*
X84156Y313137D01*
X78077Y314100D01*
D02*
G37*
%LPD*%
G36*
X143650Y517150D02*
X144246D01*
X144369Y517000D01*
Y513000D01*
X144246Y512850D01*
X143650D01*
Y509426D01*
X132446D01*
X132408Y509569D01*
X131362Y511381D01*
X129881Y512862D01*
X128069Y513908D01*
X126047Y514450D01*
X123953D01*
X121931Y513908D01*
X120119Y512862D01*
X118638Y511381D01*
X117592Y509569D01*
X117554Y509426D01*
X106350D01*
Y512850D01*
X105754D01*
X105631Y513000D01*
Y517000D01*
X105754Y517150D01*
X106350D01*
Y520574D01*
X143650D01*
Y517150D01*
D02*
G37*
D15*
X490000Y330000D02*
X574600D01*
X430000Y270000D02*
X490000Y330000D01*
X420000Y270000D02*
X430000D01*
X330000Y623000D02*
X373000D01*
X80000Y770000D02*
X90000Y780000D01*
X151500D01*
X80000Y686488D02*
Y770000D01*
X260494Y737500D02*
X289000D01*
X291500Y740000D01*
X302500Y650040D02*
X316020Y636520D01*
X302500Y650040D02*
Y658512D01*
X316020Y636520D02*
X326520D01*
X330000Y640000D01*
X327000Y620000D02*
X330000Y623000D01*
X298500Y620000D02*
X327000D01*
X281500Y580000D02*
X281500Y580000D01*
X261488Y617500D02*
X279000D01*
X281500Y620000D01*
X530000Y660000D02*
X560000D01*
X475750Y658650D02*
X528650D01*
X530000Y660000D01*
X507000Y497000D02*
Y511000D01*
X358450Y318400D02*
X471650Y431600D01*
X330750Y320750D02*
X507000Y497000D01*
X388549Y328549D02*
X470000Y410000D01*
X660000D01*
X471650Y431600D02*
X659200D01*
X203750Y300000D02*
X207950Y304200D01*
X261200D01*
X150000Y300000D02*
X176250D01*
X388549Y320799D02*
Y328549D01*
X386150Y318400D02*
X388549Y320799D01*
X330750Y318400D02*
Y320750D01*
X506000Y512000D02*
X507000Y511000D01*
X506000Y512000D02*
X507000Y513000D01*
X680000Y400000D02*
X700000D01*
X625400Y345400D02*
X680000Y400000D01*
X625400Y330000D02*
Y345400D01*
X312300Y250000D02*
X462300D01*
X511100Y298800D01*
X261200Y301100D02*
Y304200D01*
Y301100D02*
X312300Y250000D01*
X511100Y298800D02*
Y304200D01*
X660000Y410000D02*
X670000Y420000D01*
Y443600D01*
X659200Y454400D02*
X670000Y443600D01*
X400000Y290000D02*
X420000Y270000D01*
X400000Y290000D02*
X400000D01*
X262976Y580000D02*
X281500D01*
X261488Y581488D02*
X262976Y580000D01*
X259006Y736012D02*
X260494Y737500D01*
X259006Y685000D02*
Y736012D01*
X261488Y581488D02*
Y617500D01*
X730000Y430000D02*
Y530000D01*
X651488Y560000D02*
X700000D01*
X730000Y530000D01*
X700000Y400000D02*
X730000Y430000D01*
X684600Y488600D02*
Y488968D01*
X661128Y512440D02*
X684600Y488968D01*
X651672Y512440D02*
X661128D01*
X590045Y574067D02*
X651672Y512440D01*
X590045Y574067D02*
Y584323D01*
X528418Y645950D02*
X590045Y584323D01*
X475750Y645950D02*
X528418D01*
X650000Y532200D02*
Y558512D01*
X654520Y522600D02*
Y527680D01*
X650000Y532200D02*
X654520Y527680D01*
X650000Y558512D02*
X651488Y560000D01*
X550000Y586400D02*
X659200Y477200D01*
X550000Y586400D02*
Y610000D01*
X375688Y659312D02*
X403588D01*
X375000Y660000D02*
X375688Y659312D01*
X475750Y620550D02*
X491012D01*
X476125Y632875D02*
X499625D01*
X86500Y523500D02*
X150000D01*
X492500Y592500D02*
Y619062D01*
X499625Y632875D02*
X507000Y625500D01*
Y513000D02*
Y625500D01*
X491012Y620550D02*
X492500Y619062D01*
X475750Y633250D02*
X476125Y632875D01*
X675500Y604500D02*
X740000Y540000D01*
X674600Y354600D02*
X740000Y420000D01*
X674600Y604500D02*
X675500D01*
X740000Y420000D02*
Y540000D01*
X304500Y697500D02*
X330000D01*
X360950Y684050D02*
X404250D01*
X353512Y697500D02*
X355000Y698988D01*
X330000Y697500D02*
X340000D01*
X355000Y698988D02*
Y708512D01*
X403588Y659312D02*
X404250Y658650D01*
X361550Y645950D02*
X404250D01*
X405000Y595000D02*
Y619800D01*
X470000Y570000D02*
X470000D01*
X423500Y523500D02*
X470000Y570000D01*
X81488Y685000D02*
X95000D01*
X80000Y686488D02*
X81488Y685000D01*
X240000Y635000D02*
X258512D01*
X260000Y633512D01*
Y618988D02*
X261488Y617500D01*
X260000Y618988D02*
Y633512D01*
X301012Y660000D02*
X302500Y658512D01*
X240000Y660000D02*
X301012D01*
X240000Y685000D02*
X259006D01*
X286012D02*
X287500Y686488D01*
Y697500D01*
X259006Y685000D02*
X286012D01*
X303988Y680500D02*
X330000D01*
X302500Y679012D02*
X303988Y680500D01*
X373000Y623000D02*
X383250Y633250D01*
X404250D01*
X305088Y671350D02*
X404250D01*
X302500Y668762D02*
X305088Y671350D01*
X302500Y658512D02*
Y668762D01*
Y679012D01*
X403700Y710000D02*
X404250Y709450D01*
X355000Y708512D02*
X356488Y710000D01*
X403700D01*
X380750Y696750D02*
X404250D01*
X150000Y523500D02*
X423500D01*
X650000Y720000D02*
X677204D01*
X340000Y697500D02*
X353512D01*
X470000Y570000D02*
X492500Y592500D01*
X80000Y530000D02*
Y630000D01*
Y530000D02*
X86500Y523500D01*
X83570Y633570D02*
X93570D01*
X404250Y620550D02*
X405000Y619800D01*
X93570Y633570D02*
X95000Y635000D01*
X80000Y630000D02*
X83570Y633570D01*
X100000Y506500D02*
X150000D01*
X680000Y690000D02*
X680120D01*
X684600Y604500D02*
Y685520D01*
X680120Y690000D02*
X684600Y685520D01*
D17*
X281500Y620000D02*
D03*
X298500D02*
D03*
Y580000D02*
D03*
X281500D02*
D03*
X308500Y740000D02*
D03*
X291500D02*
D03*
X168500Y780000D02*
D03*
X151500D02*
D03*
X304500Y697500D02*
D03*
X287500D02*
D03*
D18*
X330000Y623000D02*
D03*
Y640000D02*
D03*
X530000Y677000D02*
D03*
Y660000D02*
D03*
X100000Y506500D02*
D03*
Y523500D02*
D03*
X150000Y506500D02*
D03*
Y523500D02*
D03*
X330000Y681500D02*
D03*
Y698500D02*
D03*
D19*
X404250Y709450D02*
D03*
Y696750D02*
D03*
Y684050D02*
D03*
Y671350D02*
D03*
Y658650D02*
D03*
Y645950D02*
D03*
Y633250D02*
D03*
Y620550D02*
D03*
X475750Y709450D02*
D03*
Y696750D02*
D03*
Y684050D02*
D03*
Y671350D02*
D03*
Y658650D02*
D03*
Y645950D02*
D03*
Y633250D02*
D03*
Y620550D02*
D03*
D20*
X203750Y300000D02*
D03*
X176250D02*
D03*
D21*
X680000Y717500D02*
D03*
Y690000D02*
D03*
D37*
X427700Y290000D02*
D03*
X372300D02*
D03*
X400000D02*
D03*
X413850Y318400D02*
D03*
X358450D02*
D03*
X344600Y290000D02*
D03*
X330750Y318400D02*
D03*
X386150D02*
D03*
D38*
X511100Y304200D02*
D03*
X261200D02*
D03*
D39*
X441550Y318400D02*
D03*
D40*
X625400Y330000D02*
D03*
D41*
X600000D02*
D03*
X574600D02*
D03*
X240000Y635000D02*
D03*
Y660000D02*
D03*
Y685000D02*
D03*
X95000Y635000D02*
D03*
Y685000D02*
D03*
D42*
X75000Y275000D02*
D03*
X725000D02*
D03*
Y825000D02*
D03*
X75000D02*
D03*
D43*
X684600Y354600D02*
D03*
Y604500D02*
D03*
D44*
Y534200D02*
D03*
Y511400D02*
D03*
Y488600D02*
D03*
Y465800D02*
D03*
Y443000D02*
D03*
X659200Y431600D02*
D03*
Y454400D02*
D03*
Y477200D02*
D03*
Y500000D02*
D03*
X710000Y431600D02*
D03*
Y454400D02*
D03*
Y477200D02*
D03*
Y500000D02*
D03*
Y522800D02*
D03*
X560000Y660000D02*
D03*
X506000Y512000D02*
D03*
X150000Y300000D02*
D03*
X550000Y610000D02*
D03*
X375000Y660000D02*
D03*
X405000Y595000D02*
D03*
X650000Y720000D02*
D03*
X125000Y506500D02*
D03*
X380750Y696750D02*
D03*
X361550Y645950D02*
D03*
X360950Y684050D02*
D03*
D45*
X659600Y522600D02*
D03*
D46*
X165000Y594000D02*
D03*
Y726000D02*
D03*
M02*
