G04*
G04 #@! TF.GenerationSoftware,Altium Limited,Altium Designer,20.1.8 (145)*
G04*
G04 Layer_Physical_Order=2*
G04 Layer_Color=16711680*
%FSLAX25Y25*%
%MOIN*%
G70*
G04*
G04 #@! TF.SameCoordinates,D3287E22-0F69-463A-97E5-025C8055979C*
G04*
G04*
G04 #@! TF.FilePolarity,Positive*
G04*
G01*
G75*
%ADD17C,0.01500*%
%ADD42C,0.06000*%
%ADD43R,0.06000X0.06000*%
%ADD44C,0.06299*%
%ADD45C,0.16535*%
%ADD46R,0.06299X0.06299*%
%ADD47C,0.07874*%
%ADD48R,0.07874X0.07874*%
%ADD49C,0.19685*%
%ADD50C,0.05000*%
%ADD51R,0.05000X0.05000*%
%ADD52C,0.03000*%
%ADD53C,0.30000*%
%ADD54C,0.02600*%
G36*
X211942Y377481D02*
X211040Y377264D01*
X208714Y376300D01*
X206566Y374984D01*
X204651Y373349D01*
X203016Y371434D01*
X201700Y369286D01*
X200736Y366960D01*
X200519Y366058D01*
X200020Y366117D01*
Y377980D01*
X211883D01*
X211942Y377481D01*
D02*
G37*
G36*
X340000Y135989D02*
X217910Y135580D01*
X217890Y136080D01*
X218761Y136148D01*
X221210Y136736D01*
X223536Y137700D01*
X225684Y139016D01*
X227599Y140651D01*
X229234Y142566D01*
X230550Y144714D01*
X231514Y147040D01*
X232102Y149489D01*
X232260Y151500D01*
X216250D01*
Y152000D01*
X215750D01*
Y168010D01*
X213739Y167852D01*
X211290Y167264D01*
X208964Y166300D01*
X206816Y164984D01*
X204901Y163349D01*
X203266Y161434D01*
X201950Y159286D01*
X200986Y156960D01*
X200519Y155017D01*
X200020Y155076D01*
Y357883D01*
X200519Y357942D01*
X200736Y357040D01*
X201700Y354714D01*
X203016Y352566D01*
X204651Y350651D01*
X206566Y349016D01*
X208714Y347700D01*
X211040Y346736D01*
X213489Y346148D01*
X215500Y345990D01*
Y362000D01*
X216000D01*
Y362500D01*
X232010D01*
X231852Y364511D01*
X231264Y366960D01*
X230300Y369286D01*
X228984Y371434D01*
X227349Y373349D01*
X225434Y374984D01*
X223286Y376300D01*
X220960Y377264D01*
X220058Y377481D01*
X220117Y377980D01*
X340000D01*
Y135989D01*
D02*
G37*
G36*
X200986Y147040D02*
X201950Y144714D01*
X203266Y142566D01*
X204901Y140651D01*
X206816Y139016D01*
X208964Y137700D01*
X211290Y136736D01*
X213739Y136148D01*
X214744Y136069D01*
X214726Y135569D01*
X200374Y135521D01*
X200020Y135874D01*
Y148924D01*
X200519Y148984D01*
X200986Y147040D01*
D02*
G37*
%LPC*%
G36*
X232010Y361500D02*
X216500D01*
Y345990D01*
X218511Y346148D01*
X220960Y346736D01*
X223286Y347700D01*
X225434Y349016D01*
X227349Y350651D01*
X228984Y352566D01*
X230300Y354714D01*
X231264Y357040D01*
X231852Y359489D01*
X232010Y361500D01*
D02*
G37*
G36*
X314841Y320786D02*
Y319041D01*
X316586D01*
X316508Y319438D01*
X315999Y320199D01*
X315238Y320708D01*
X314841Y320786D01*
D02*
G37*
G36*
X313841D02*
X313443Y320708D01*
X312683Y320199D01*
X312174Y319438D01*
X312095Y319041D01*
X313841D01*
Y320786D01*
D02*
G37*
G36*
X316586Y318041D02*
X314841D01*
Y316295D01*
X315238Y316374D01*
X315999Y316883D01*
X316508Y317643D01*
X316586Y318041D01*
D02*
G37*
G36*
X313841D02*
X312095D01*
X312174Y317643D01*
X312683Y316883D01*
X313443Y316374D01*
X313841Y316295D01*
Y318041D01*
D02*
G37*
G36*
X329600Y310746D02*
Y309000D01*
X331346D01*
X331267Y309397D01*
X330758Y310158D01*
X329997Y310667D01*
X329600Y310746D01*
D02*
G37*
G36*
X328600D02*
X328203Y310667D01*
X327442Y310158D01*
X326933Y309397D01*
X326854Y309000D01*
X328600D01*
Y310746D01*
D02*
G37*
G36*
X331346Y308000D02*
X329600D01*
Y306254D01*
X329997Y306333D01*
X330758Y306842D01*
X331267Y307603D01*
X331346Y308000D01*
D02*
G37*
G36*
X328600D02*
X326854D01*
X326933Y307603D01*
X327442Y306842D01*
X328203Y306333D01*
X328600Y306254D01*
Y308000D01*
D02*
G37*
G36*
X325700Y299837D02*
X324959Y299690D01*
X324330Y299270D01*
X323910Y298641D01*
X323763Y297900D01*
X323910Y297159D01*
X324330Y296530D01*
X324959Y296110D01*
X325700Y295963D01*
X326441Y296110D01*
X327070Y296530D01*
X327490Y297159D01*
X327637Y297900D01*
X327490Y298641D01*
X327070Y299270D01*
X326441Y299690D01*
X325700Y299837D01*
D02*
G37*
G36*
X244500Y316243D02*
X242861Y316114D01*
X241263Y315730D01*
X239744Y315101D01*
X238343Y314242D01*
X237093Y313175D01*
X236026Y311925D01*
X235167Y310523D01*
X234538Y309005D01*
X234154Y307406D01*
X234025Y305768D01*
X234154Y304129D01*
X234538Y302531D01*
X235167Y301012D01*
X236026Y299611D01*
X237093Y298361D01*
X238343Y297293D01*
X239744Y296435D01*
X241263Y295806D01*
X242861Y295422D01*
X244500Y295293D01*
X246139Y295422D01*
X247737Y295806D01*
X249255Y296435D01*
X250657Y297293D01*
X251907Y298361D01*
X252974Y299611D01*
X253833Y301012D01*
X254462Y302531D01*
X254846Y304129D01*
X254975Y305768D01*
X254846Y307406D01*
X254462Y309005D01*
X253833Y310523D01*
X252974Y311925D01*
X251907Y313175D01*
X250657Y314242D01*
X249255Y315101D01*
X247737Y315730D01*
X246139Y316114D01*
X244500Y316243D01*
D02*
G37*
G36*
X326900Y292837D02*
X326159Y292690D01*
X325530Y292270D01*
X325110Y291641D01*
X324963Y290900D01*
X325110Y290159D01*
X325530Y289530D01*
X326159Y289110D01*
X326900Y288963D01*
X327641Y289110D01*
X328270Y289530D01*
X328690Y290159D01*
X328837Y290900D01*
X328690Y291641D01*
X328270Y292270D01*
X327641Y292690D01*
X326900Y292837D01*
D02*
G37*
G36*
X308800Y276937D02*
X308059Y276790D01*
X307430Y276370D01*
X307010Y275741D01*
X306863Y275000D01*
X307010Y274259D01*
X307430Y273630D01*
X308059Y273210D01*
X308800Y273063D01*
X309541Y273210D01*
X310170Y273630D01*
X310590Y274259D01*
X310737Y275000D01*
X310590Y275741D01*
X310170Y276370D01*
X309541Y276790D01*
X308800Y276937D01*
D02*
G37*
G36*
X254500Y278579D02*
X253691Y278473D01*
X252937Y278161D01*
X252289Y277664D01*
X251792Y277016D01*
X251480Y276262D01*
X251373Y275453D01*
X251480Y274643D01*
X251792Y273889D01*
X252289Y273242D01*
X252937Y272745D01*
X253691Y272432D01*
X254500Y272326D01*
X255309Y272432D01*
X256063Y272745D01*
X256711Y273242D01*
X257208Y273889D01*
X257520Y274643D01*
X257627Y275453D01*
X257520Y276262D01*
X257208Y277016D01*
X256711Y277664D01*
X256063Y278161D01*
X255309Y278473D01*
X254500Y278579D01*
D02*
G37*
G36*
X234500D02*
X233691Y278473D01*
X232937Y278161D01*
X232289Y277664D01*
X231792Y277016D01*
X231480Y276262D01*
X231373Y275453D01*
X231480Y274643D01*
X231792Y273889D01*
X232289Y273242D01*
X232937Y272745D01*
X233691Y272432D01*
X234500Y272326D01*
X235309Y272432D01*
X236063Y272745D01*
X236711Y273242D01*
X237208Y273889D01*
X237520Y274643D01*
X237627Y275453D01*
X237520Y276262D01*
X237208Y277016D01*
X236711Y277664D01*
X236063Y278161D01*
X235309Y278473D01*
X234500Y278579D01*
D02*
G37*
G36*
X244500Y274091D02*
X243691Y273985D01*
X242937Y273672D01*
X242289Y273176D01*
X241792Y272528D01*
X241480Y271774D01*
X241373Y270965D01*
X241480Y270155D01*
X241792Y269401D01*
X242289Y268754D01*
X242937Y268257D01*
X243691Y267944D01*
X244500Y267838D01*
X245309Y267944D01*
X246063Y268257D01*
X246711Y268754D01*
X247208Y269401D01*
X247520Y270155D01*
X247627Y270965D01*
X247520Y271774D01*
X247208Y272528D01*
X246711Y273176D01*
X246063Y273672D01*
X245309Y273985D01*
X244500Y274091D01*
D02*
G37*
G36*
X254500Y269603D02*
X253691Y269497D01*
X252937Y269184D01*
X252289Y268687D01*
X251792Y268040D01*
X251480Y267286D01*
X251373Y266476D01*
X251480Y265667D01*
X251792Y264913D01*
X252289Y264265D01*
X252937Y263769D01*
X253691Y263456D01*
X254500Y263350D01*
X255309Y263456D01*
X256063Y263769D01*
X256711Y264265D01*
X257208Y264913D01*
X257520Y265667D01*
X257627Y266476D01*
X257520Y267286D01*
X257208Y268040D01*
X256711Y268687D01*
X256063Y269184D01*
X255309Y269497D01*
X254500Y269603D01*
D02*
G37*
G36*
X234500D02*
X233691Y269497D01*
X232937Y269184D01*
X232289Y268687D01*
X231792Y268040D01*
X231480Y267286D01*
X231373Y266476D01*
X231480Y265667D01*
X231792Y264913D01*
X232289Y264265D01*
X232937Y263769D01*
X233691Y263456D01*
X234500Y263350D01*
X235309Y263456D01*
X236063Y263769D01*
X236711Y264265D01*
X237208Y264913D01*
X237520Y265667D01*
X237627Y266476D01*
X237520Y267286D01*
X237208Y268040D01*
X236711Y268687D01*
X236063Y269184D01*
X235309Y269497D01*
X234500Y269603D01*
D02*
G37*
G36*
X330500Y263246D02*
Y261500D01*
X332246D01*
X332167Y261897D01*
X331658Y262658D01*
X330897Y263167D01*
X330500Y263246D01*
D02*
G37*
G36*
X329500D02*
X329103Y263167D01*
X328342Y262658D01*
X327833Y261897D01*
X327754Y261500D01*
X329500D01*
Y263246D01*
D02*
G37*
G36*
X244500Y265115D02*
X243691Y265008D01*
X242937Y264696D01*
X242289Y264199D01*
X241792Y263552D01*
X241480Y262797D01*
X241373Y261988D01*
X241480Y261179D01*
X241792Y260425D01*
X242289Y259777D01*
X242937Y259280D01*
X243691Y258968D01*
X244500Y258861D01*
X245309Y258968D01*
X246063Y259280D01*
X246711Y259777D01*
X247208Y260425D01*
X247520Y261179D01*
X247627Y261988D01*
X247520Y262797D01*
X247208Y263552D01*
X246711Y264199D01*
X246063Y264696D01*
X245309Y265008D01*
X244500Y265115D01*
D02*
G37*
G36*
X332246Y260500D02*
X330500D01*
Y258754D01*
X330897Y258833D01*
X331658Y259342D01*
X332167Y260103D01*
X332246Y260500D01*
D02*
G37*
G36*
X329500D02*
X327754D01*
X327833Y260103D01*
X328342Y259342D01*
X329103Y258833D01*
X329500Y258754D01*
Y260500D01*
D02*
G37*
G36*
X314600Y256846D02*
Y255100D01*
X316346D01*
X316267Y255497D01*
X315758Y256258D01*
X314997Y256767D01*
X314600Y256846D01*
D02*
G37*
G36*
X313600D02*
X313203Y256767D01*
X312442Y256258D01*
X311933Y255497D01*
X311854Y255100D01*
X313600D01*
Y256846D01*
D02*
G37*
G36*
X254500Y260627D02*
X253691Y260520D01*
X252937Y260208D01*
X252289Y259711D01*
X251792Y259063D01*
X251480Y258309D01*
X251373Y257500D01*
X251480Y256691D01*
X251792Y255937D01*
X252289Y255289D01*
X252937Y254792D01*
X253691Y254480D01*
X254500Y254373D01*
X255309Y254480D01*
X256063Y254792D01*
X256711Y255289D01*
X257208Y255937D01*
X257520Y256691D01*
X257627Y257500D01*
X257520Y258309D01*
X257208Y259063D01*
X256711Y259711D01*
X256063Y260208D01*
X255309Y260520D01*
X254500Y260627D01*
D02*
G37*
G36*
X234500D02*
X233691Y260520D01*
X232937Y260208D01*
X232289Y259711D01*
X231792Y259063D01*
X231480Y258309D01*
X231373Y257500D01*
X231480Y256691D01*
X231792Y255937D01*
X232289Y255289D01*
X232937Y254792D01*
X233691Y254480D01*
X234500Y254373D01*
X235309Y254480D01*
X236063Y254792D01*
X236711Y255289D01*
X237208Y255937D01*
X237520Y256691D01*
X237627Y257500D01*
X237520Y258309D01*
X237208Y259063D01*
X236711Y259711D01*
X236063Y260208D01*
X235309Y260520D01*
X234500Y260627D01*
D02*
G37*
G36*
X316346Y254100D02*
X314600D01*
Y252354D01*
X314997Y252433D01*
X315758Y252942D01*
X316267Y253703D01*
X316346Y254100D01*
D02*
G37*
G36*
X313600D02*
X311854D01*
X311933Y253703D01*
X312442Y252942D01*
X313203Y252433D01*
X313600Y252354D01*
Y254100D01*
D02*
G37*
G36*
X244500Y256139D02*
X243691Y256032D01*
X242937Y255720D01*
X242289Y255223D01*
X241792Y254575D01*
X241480Y253821D01*
X241373Y253012D01*
X241480Y252203D01*
X241792Y251448D01*
X242289Y250801D01*
X242937Y250304D01*
X243691Y249992D01*
X244500Y249885D01*
X245309Y249992D01*
X246063Y250304D01*
X246711Y250801D01*
X247208Y251448D01*
X247520Y252203D01*
X247627Y253012D01*
X247520Y253821D01*
X247208Y254575D01*
X246711Y255223D01*
X246063Y255720D01*
X245309Y256032D01*
X244500Y256139D01*
D02*
G37*
G36*
X254500Y251650D02*
X253691Y251544D01*
X252937Y251232D01*
X252289Y250735D01*
X251792Y250087D01*
X251480Y249333D01*
X251373Y248524D01*
X251480Y247714D01*
X251792Y246960D01*
X252289Y246313D01*
X252937Y245816D01*
X253691Y245503D01*
X254500Y245397D01*
X255309Y245503D01*
X256063Y245816D01*
X256711Y246313D01*
X257208Y246960D01*
X257520Y247714D01*
X257627Y248524D01*
X257520Y249333D01*
X257208Y250087D01*
X256711Y250735D01*
X256063Y251232D01*
X255309Y251544D01*
X254500Y251650D01*
D02*
G37*
G36*
X234500D02*
X233691Y251544D01*
X232937Y251232D01*
X232289Y250735D01*
X231792Y250087D01*
X231480Y249333D01*
X231373Y248524D01*
X231480Y247714D01*
X231792Y246960D01*
X232289Y246313D01*
X232937Y245816D01*
X233691Y245503D01*
X234500Y245397D01*
X235309Y245503D01*
X236063Y245816D01*
X236711Y246313D01*
X237208Y246960D01*
X237520Y247714D01*
X237627Y248524D01*
X237520Y249333D01*
X237208Y250087D01*
X236711Y250735D01*
X236063Y251232D01*
X235309Y251544D01*
X234500Y251650D01*
D02*
G37*
G36*
X244500Y247162D02*
X243691Y247056D01*
X242937Y246743D01*
X242289Y246246D01*
X241792Y245599D01*
X241480Y244845D01*
X241373Y244035D01*
X241480Y243226D01*
X241792Y242472D01*
X242289Y241825D01*
X242937Y241328D01*
X243691Y241015D01*
X244500Y240909D01*
X245309Y241015D01*
X246063Y241328D01*
X246711Y241825D01*
X247208Y242472D01*
X247520Y243226D01*
X247627Y244035D01*
X247520Y244845D01*
X247208Y245599D01*
X246711Y246246D01*
X246063Y246743D01*
X245309Y247056D01*
X244500Y247162D01*
D02*
G37*
G36*
X329700Y241846D02*
Y240100D01*
X331446D01*
X331367Y240497D01*
X330858Y241258D01*
X330097Y241767D01*
X329700Y241846D01*
D02*
G37*
G36*
X328700D02*
X328303Y241767D01*
X327542Y241258D01*
X327033Y240497D01*
X326954Y240100D01*
X328700D01*
Y241846D01*
D02*
G37*
G36*
X235000Y243012D02*
Y240047D01*
X237964D01*
X237910Y240461D01*
X237557Y241312D01*
X236996Y242043D01*
X236265Y242604D01*
X235414Y242957D01*
X235000Y243012D01*
D02*
G37*
G36*
X234000D02*
X233586Y242957D01*
X232735Y242604D01*
X232004Y242043D01*
X231443Y241312D01*
X231090Y240461D01*
X231036Y240047D01*
X234000D01*
Y243012D01*
D02*
G37*
G36*
X331446Y239100D02*
X329700D01*
Y237354D01*
X330097Y237433D01*
X330858Y237942D01*
X331367Y238703D01*
X331446Y239100D01*
D02*
G37*
G36*
X325600Y239187D02*
X324859Y239040D01*
X324230Y238620D01*
X323810Y237991D01*
X323663Y237250D01*
X323810Y236509D01*
X324230Y235880D01*
X324859Y235460D01*
X325600Y235313D01*
X326341Y235460D01*
X326970Y235880D01*
X327390Y236509D01*
X327537Y237250D01*
X327516Y237358D01*
X327966Y237659D01*
X328303Y237433D01*
X328700Y237354D01*
Y239100D01*
X326697D01*
X326474Y238951D01*
X326341Y239040D01*
X325600Y239187D01*
D02*
G37*
G36*
X257442Y242726D02*
X251242D01*
Y236526D01*
X257442D01*
Y242726D01*
D02*
G37*
G36*
X237964Y239047D02*
X235000D01*
Y236083D01*
X235414Y236137D01*
X236265Y236490D01*
X236996Y237051D01*
X237557Y237782D01*
X237910Y238634D01*
X237964Y239047D01*
D02*
G37*
G36*
X234000D02*
X231036D01*
X231090Y238634D01*
X231443Y237782D01*
X232004Y237051D01*
X232735Y236490D01*
X233586Y236137D01*
X234000Y236083D01*
Y239047D01*
D02*
G37*
G36*
X244500Y238186D02*
X243691Y238079D01*
X242937Y237767D01*
X242289Y237270D01*
X241792Y236622D01*
X241480Y235868D01*
X241373Y235059D01*
X241480Y234250D01*
X241792Y233496D01*
X242289Y232848D01*
X242937Y232351D01*
X243691Y232039D01*
X244500Y231932D01*
X245309Y232039D01*
X246063Y232351D01*
X246711Y232848D01*
X247208Y233496D01*
X247520Y234250D01*
X247627Y235059D01*
X247520Y235868D01*
X247208Y236622D01*
X246711Y237270D01*
X246063Y237767D01*
X245309Y238079D01*
X244500Y238186D01*
D02*
G37*
G36*
X322947Y228891D02*
X322205Y228743D01*
X321577Y228323D01*
X321157Y227695D01*
X321009Y226954D01*
X321157Y226212D01*
X321577Y225584D01*
X322205Y225164D01*
X322947Y225016D01*
X323688Y225164D01*
X324316Y225584D01*
X324736Y226212D01*
X324884Y226954D01*
X324736Y227695D01*
X324316Y228323D01*
X323688Y228743D01*
X322947Y228891D01*
D02*
G37*
G36*
X313200Y213037D02*
X312459Y212890D01*
X311830Y212470D01*
X311410Y211841D01*
X311263Y211100D01*
X311410Y210359D01*
X311830Y209730D01*
X312459Y209310D01*
X313200Y209163D01*
X313941Y209310D01*
X314570Y209730D01*
X314990Y210359D01*
X315137Y211100D01*
X314990Y211841D01*
X314570Y212470D01*
X313941Y212890D01*
X313200Y213037D01*
D02*
G37*
G36*
X244500Y217857D02*
X242861Y217728D01*
X241263Y217344D01*
X239744Y216715D01*
X238343Y215856D01*
X237093Y214789D01*
X236026Y213539D01*
X235167Y212137D01*
X234538Y210619D01*
X234154Y209020D01*
X234025Y207382D01*
X234154Y205743D01*
X234538Y204145D01*
X235167Y202626D01*
X236026Y201225D01*
X237093Y199975D01*
X238343Y198908D01*
X239744Y198049D01*
X241263Y197420D01*
X242861Y197036D01*
X244500Y196907D01*
X246139Y197036D01*
X247737Y197420D01*
X249255Y198049D01*
X250657Y198908D01*
X251907Y199975D01*
X252974Y201225D01*
X253833Y202626D01*
X254462Y204145D01*
X254846Y205743D01*
X254975Y207382D01*
X254846Y209020D01*
X254462Y210619D01*
X253833Y212137D01*
X252974Y213539D01*
X251907Y214789D01*
X250657Y215856D01*
X249255Y216715D01*
X247737Y217344D01*
X246139Y217728D01*
X244500Y217857D01*
D02*
G37*
G36*
X330100Y196946D02*
Y195200D01*
X331846D01*
X331767Y195597D01*
X331258Y196358D01*
X330497Y196867D01*
X330100Y196946D01*
D02*
G37*
G36*
X329100D02*
X328703Y196867D01*
X327942Y196358D01*
X327433Y195597D01*
X327354Y195200D01*
X329100D01*
Y196946D01*
D02*
G37*
G36*
X331846Y194200D02*
X330100D01*
Y192454D01*
X330497Y192533D01*
X331258Y193042D01*
X331767Y193803D01*
X331846Y194200D01*
D02*
G37*
G36*
X329100D02*
X327354D01*
X327433Y193803D01*
X327942Y193042D01*
X328703Y192533D01*
X329100Y192454D01*
Y194200D01*
D02*
G37*
G36*
X229500Y191131D02*
X228560Y191007D01*
X227684Y190645D01*
X226933Y190068D01*
X226355Y189315D01*
X225993Y188440D01*
X225869Y187500D01*
X225993Y186560D01*
X226355Y185685D01*
X226933Y184932D01*
X227684Y184355D01*
X228560Y183993D01*
X229500Y183869D01*
X230440Y183993D01*
X231315Y184355D01*
X232067Y184932D01*
X232645Y185685D01*
X233007Y186560D01*
X233131Y187500D01*
X233007Y188440D01*
X232645Y189315D01*
X232067Y190068D01*
X231315Y190645D01*
X230440Y191007D01*
X229500Y191131D01*
D02*
G37*
G36*
X233500Y181500D02*
X230000D01*
Y178000D01*
X233500D01*
Y181500D01*
D02*
G37*
G36*
X229000D02*
X225500D01*
Y178000D01*
X229000D01*
Y181500D01*
D02*
G37*
G36*
X233500Y177000D02*
X230000D01*
Y173500D01*
X233500D01*
Y177000D01*
D02*
G37*
G36*
X229000D02*
X225500D01*
Y173500D01*
X229000D01*
Y177000D01*
D02*
G37*
G36*
X216750Y168010D02*
Y152500D01*
X232260D01*
X232102Y154511D01*
X231514Y156960D01*
X230550Y159286D01*
X229234Y161434D01*
X227599Y163349D01*
X225684Y164984D01*
X223536Y166300D01*
X221210Y167264D01*
X218761Y167852D01*
X216750Y168010D01*
D02*
G37*
%LPD*%
D17*
X412000Y281000D02*
Y333000D01*
Y256000D02*
Y281000D01*
X411000Y171500D02*
Y192500D01*
Y212500D01*
X411177Y212677D01*
Y239470D01*
X411353Y239647D01*
D42*
X229500Y187500D02*
D03*
D43*
Y177500D02*
D03*
D44*
X464000Y260906D02*
D03*
Y271811D02*
D03*
Y250000D02*
D03*
Y239094D02*
D03*
X452819Y233642D02*
D03*
Y244547D02*
D03*
Y266358D02*
D03*
Y255453D02*
D03*
X426205D02*
D03*
Y266358D02*
D03*
Y244547D02*
D03*
Y233642D02*
D03*
X437386Y239094D02*
D03*
Y250000D02*
D03*
Y271811D02*
D03*
Y260906D02*
D03*
D45*
X464000Y206240D02*
D03*
Y304665D02*
D03*
X432504D02*
D03*
Y206240D02*
D03*
D46*
X452819Y277264D02*
D03*
X426205D02*
D03*
D47*
X425500Y152000D02*
D03*
X445200Y362000D02*
D03*
X385658Y152000D02*
D03*
X405485Y362000D02*
D03*
D48*
X445185Y152000D02*
D03*
X425515Y362000D02*
D03*
X405342Y152000D02*
D03*
X385800Y362000D02*
D03*
D49*
X244500Y305768D02*
D03*
Y207382D02*
D03*
D50*
Y235059D02*
D03*
Y244035D02*
D03*
Y253012D02*
D03*
Y261988D02*
D03*
Y270965D02*
D03*
X254500Y275453D02*
D03*
Y266476D02*
D03*
Y257500D02*
D03*
Y248524D02*
D03*
X234500Y275453D02*
D03*
Y266476D02*
D03*
Y257500D02*
D03*
Y248524D02*
D03*
Y239547D02*
D03*
D51*
X254343Y239626D02*
D03*
D52*
X480000Y164250D02*
D03*
X491250Y153000D02*
D03*
X480000Y141750D02*
D03*
X468750Y153000D02*
D03*
X470157Y158905D02*
D03*
X474094Y162843D02*
D03*
Y143157D02*
D03*
X489843Y147095D02*
D03*
X485906Y162843D02*
D03*
X470157Y147095D02*
D03*
X485906Y143157D02*
D03*
X489843Y158905D02*
D03*
X480000Y373250D02*
D03*
X491250Y362000D02*
D03*
X480000Y350750D02*
D03*
X468750Y362000D02*
D03*
X470157Y367905D02*
D03*
X474094Y371843D02*
D03*
Y352157D02*
D03*
X489843Y356095D02*
D03*
X485906Y371843D02*
D03*
X470157Y356095D02*
D03*
X485906Y352157D02*
D03*
X489843Y367905D02*
D03*
X216000Y373250D02*
D03*
X227250Y362000D02*
D03*
X216000Y350750D02*
D03*
X204750Y362000D02*
D03*
X206157Y367905D02*
D03*
X210094Y371843D02*
D03*
Y352157D02*
D03*
X225842Y356095D02*
D03*
X221905Y371843D02*
D03*
X206157Y356095D02*
D03*
X221905Y352157D02*
D03*
X225842Y367905D02*
D03*
X216250Y163250D02*
D03*
X227500Y152000D02*
D03*
X216250Y140750D02*
D03*
X205000Y152000D02*
D03*
X206407Y157905D02*
D03*
X210345Y161843D02*
D03*
Y142157D02*
D03*
X226093Y146095D02*
D03*
X222155Y161843D02*
D03*
X206407Y146095D02*
D03*
X222155Y142157D02*
D03*
X226093Y157905D02*
D03*
D53*
X480000Y153000D02*
D03*
Y362000D02*
D03*
X216000D02*
D03*
X216250Y152000D02*
D03*
D54*
X314100Y254600D02*
D03*
X412000Y333000D02*
D03*
Y306000D02*
D03*
Y256000D02*
D03*
Y281000D02*
D03*
X411000Y171500D02*
D03*
Y192500D02*
D03*
Y212500D02*
D03*
X411353Y239647D02*
D03*
X330000Y261000D02*
D03*
X329600Y194700D02*
D03*
X329200Y239600D02*
D03*
X329100Y308500D02*
D03*
X314341Y318541D02*
D03*
X325700Y297900D02*
D03*
X326900Y290900D02*
D03*
X308800Y275000D02*
D03*
X325600Y237250D02*
D03*
X322947Y226954D02*
D03*
X313200Y211100D02*
D03*
M02*
