G04*
G04 #@! TF.GenerationSoftware,Altium Limited,Altium Designer,20.1.8 (145)*
G04*
G04 Layer_Color=65535*
%FSLAX25Y25*%
%MOIN*%
G70*
G04*
G04 #@! TF.SameCoordinates,D3287E22-0F69-463A-97E5-025C8055979C*
G04*
G04*
G04 #@! TF.FilePolarity,Positive*
G04*
G01*
G75*
%ADD10C,0.00984*%
%ADD11C,0.00600*%
%ADD12C,0.01200*%
%ADD13C,0.01000*%
%ADD14C,0.02000*%
%ADD15C,0.00500*%
%ADD16C,0.00800*%
%ADD17C,0.01500*%
G36*
X319000Y151715D02*
Y142000D01*
X265000D01*
Y151715D01*
Y160000D01*
X319000D01*
Y151715D01*
D02*
G37*
%LPC*%
G36*
X290346Y158946D02*
X288089D01*
Y158148D01*
X288321Y158113D01*
X288517Y158067D01*
X288691Y158009D01*
X288830Y157940D01*
X288946Y157882D01*
X289015Y157836D01*
X289073Y157801D01*
X289084Y157789D01*
X289212Y157674D01*
X289316Y157546D01*
X289408Y157407D01*
X289478Y157269D01*
X289536Y157141D01*
X289582Y157049D01*
X289605Y156979D01*
X289617Y156968D01*
Y156956D01*
X289663Y156841D01*
X289698Y156771D01*
X289732Y156725D01*
X289744Y156713D01*
X289813Y156679D01*
X289894Y156667D01*
X289952Y156655D01*
X289975D01*
X290103Y156667D01*
X290183Y156713D01*
X290241Y156748D01*
X290253Y156760D01*
X290311Y156852D01*
X290334Y156945D01*
X290346Y157014D01*
Y157037D01*
Y157049D01*
Y158946D01*
D02*
G37*
G36*
X277769D02*
X275513D01*
Y158148D01*
X275744Y158113D01*
X275941Y158067D01*
X276114Y158009D01*
X276253Y157940D01*
X276369Y157882D01*
X276438Y157836D01*
X276496Y157801D01*
X276508Y157789D01*
X276635Y157674D01*
X276739Y157546D01*
X276832Y157407D01*
X276901Y157269D01*
X276959Y157141D01*
X277005Y157049D01*
X277028Y156979D01*
X277040Y156968D01*
Y156956D01*
X277086Y156841D01*
X277121Y156771D01*
X277156Y156725D01*
X277167Y156713D01*
X277237Y156679D01*
X277318Y156667D01*
X277376Y156655D01*
X277399D01*
X277526Y156667D01*
X277607Y156713D01*
X277665Y156748D01*
X277676Y156760D01*
X277734Y156852D01*
X277757Y156945D01*
X277769Y157014D01*
Y157037D01*
Y157049D01*
Y158946D01*
D02*
G37*
G36*
X301268Y159050D02*
X301198D01*
Y158310D01*
X301406Y158252D01*
X301591Y158194D01*
X301742Y158125D01*
X301881Y158067D01*
X301973Y158009D01*
X302054Y157974D01*
X302101Y157940D01*
X302112Y157928D01*
X302182Y157801D01*
X302251Y157685D01*
X302297Y157581D01*
X302344Y157500D01*
X302390Y157431D01*
X302413Y157373D01*
X302436Y157338D01*
Y157326D01*
X302517Y157141D01*
X302575Y156991D01*
X302598Y156922D01*
X302610Y156875D01*
X302621Y156841D01*
Y156829D01*
X302644Y156748D01*
X302656Y156679D01*
X302679Y156632D01*
Y156621D01*
X302714Y156574D01*
X302737Y156540D01*
X302760Y156517D01*
X302772Y156505D01*
X302864Y156447D01*
X302957Y156424D01*
X303015Y156412D01*
X303038D01*
X303107Y156424D01*
X303165Y156436D01*
X303258Y156482D01*
X303315Y156517D01*
X303339Y156540D01*
X303408Y156644D01*
X303443Y156748D01*
X303454Y156783D01*
Y156817D01*
Y156841D01*
Y156852D01*
Y158518D01*
X303443Y158680D01*
X303408Y158796D01*
X303397Y158842D01*
X303373Y158877D01*
X303362Y158888D01*
Y158900D01*
X303327Y158946D01*
X303281Y158981D01*
X303188Y159027D01*
X303107Y159039D01*
X303073D01*
X303015Y159027D01*
X302957Y159016D01*
X302864Y158958D01*
X302806Y158888D01*
X302783Y158877D01*
Y158865D01*
X302667Y158703D01*
X302587D01*
X302540Y158715D01*
X302506Y158726D01*
X302494D01*
X302355Y158784D01*
X302228Y158831D01*
X302112Y158877D01*
X302020Y158912D01*
X301950Y158935D01*
X301892Y158946D01*
X301858Y158958D01*
X301846D01*
X301753Y158981D01*
X301649Y159004D01*
X301441Y159027D01*
X301337Y159039D01*
X301268Y159050D01*
D02*
G37*
G36*
X269196D02*
X269126D01*
Y158310D01*
X269334Y158252D01*
X269519Y158194D01*
X269670Y158125D01*
X269809Y158067D01*
X269901Y158009D01*
X269982Y157974D01*
X270029Y157940D01*
X270040Y157928D01*
X270110Y157801D01*
X270179Y157685D01*
X270225Y157581D01*
X270271Y157500D01*
X270318Y157431D01*
X270341Y157373D01*
X270364Y157338D01*
Y157326D01*
X270445Y157141D01*
X270503Y156991D01*
X270526Y156922D01*
X270538Y156875D01*
X270549Y156841D01*
Y156829D01*
X270572Y156748D01*
X270584Y156679D01*
X270607Y156632D01*
Y156621D01*
X270642Y156574D01*
X270665Y156540D01*
X270688Y156517D01*
X270700Y156505D01*
X270792Y156447D01*
X270885Y156424D01*
X270943Y156412D01*
X270966D01*
X271035Y156424D01*
X271093Y156436D01*
X271186Y156482D01*
X271243Y156517D01*
X271267Y156540D01*
X271336Y156644D01*
X271371Y156748D01*
X271382Y156783D01*
Y156817D01*
Y156841D01*
Y156852D01*
Y158518D01*
X271371Y158680D01*
X271336Y158796D01*
X271324Y158842D01*
X271301Y158877D01*
X271290Y158888D01*
Y158900D01*
X271255Y158946D01*
X271209Y158981D01*
X271116Y159027D01*
X271035Y159039D01*
X271001D01*
X270943Y159027D01*
X270885Y159016D01*
X270792Y158958D01*
X270734Y158888D01*
X270711Y158877D01*
Y158865D01*
X270596Y158703D01*
X270514D01*
X270468Y158715D01*
X270433Y158726D01*
X270422D01*
X270283Y158784D01*
X270156Y158831D01*
X270040Y158877D01*
X269948Y158912D01*
X269878Y158935D01*
X269820Y158946D01*
X269786Y158958D01*
X269774D01*
X269682Y158981D01*
X269577Y159004D01*
X269369Y159027D01*
X269265Y159039D01*
X269196Y159050D01*
D02*
G37*
G36*
X317130Y158946D02*
X315823D01*
X315672Y158935D01*
X315557Y158900D01*
X315487Y158865D01*
X315476Y158854D01*
X315464D01*
X315394Y158773D01*
X315360Y158680D01*
X315348Y158611D01*
Y158588D01*
Y158576D01*
X315360Y158495D01*
X315371Y158426D01*
X315383Y158379D01*
X315394Y158368D01*
X315452Y158310D01*
X315510Y158264D01*
X315568Y158229D01*
X315591Y158217D01*
X315695Y158159D01*
X315776Y158102D01*
X315846Y158044D01*
X315892Y157998D01*
X315938Y157940D01*
X315962Y157905D01*
X315985Y157882D01*
Y157870D01*
X316019Y157789D01*
X316054Y157697D01*
X316089Y157500D01*
X316100Y157419D01*
Y157350D01*
Y157303D01*
Y157280D01*
Y155857D01*
X316852Y154874D01*
Y157280D01*
Y157407D01*
X316864Y157512D01*
X316887Y157616D01*
X316899Y157697D01*
X316922Y157766D01*
X316933Y157812D01*
X316945Y157847D01*
Y157859D01*
X316991Y157928D01*
X317038Y157986D01*
X317153Y158090D01*
X317199Y158125D01*
X317246Y158148D01*
X317269Y158171D01*
X317281D01*
X317350Y158206D01*
X317408Y158240D01*
X317500Y158298D01*
X317547Y158333D01*
X317558Y158345D01*
X317604Y158414D01*
X317616Y158484D01*
X317628Y158541D01*
Y158564D01*
X317616Y158669D01*
X317581Y158738D01*
X317547Y158784D01*
X317535Y158796D01*
X317477Y158842D01*
X317408Y158888D01*
X317257Y158923D01*
X317188Y158935D01*
X317130Y158946D01*
D02*
G37*
G36*
X284040D02*
X282709D01*
X282547Y158935D01*
X282432Y158900D01*
X282385Y158877D01*
X282351Y158854D01*
X282339Y158842D01*
X282328D01*
X282281Y158807D01*
X282246Y158761D01*
X282212Y158669D01*
X282189Y158588D01*
Y158564D01*
Y158553D01*
X282200Y158460D01*
X282223Y158391D01*
X282270Y158321D01*
X282316Y158275D01*
X282351Y158240D01*
X282397Y158217D01*
X282420Y158206D01*
X282432D01*
X282594Y158148D01*
X282686Y158090D01*
X282756Y158032D01*
X282802Y157986D01*
X282813Y157974D01*
Y157963D01*
X282837Y157882D01*
X282860Y157824D01*
Y157778D01*
Y157766D01*
Y157743D01*
X282848Y157720D01*
X282825Y157639D01*
X282813Y157570D01*
X282802Y157546D01*
Y157535D01*
X282212Y155383D01*
X282582Y154330D01*
X283473Y157280D01*
X283519Y157407D01*
X283554Y157523D01*
X283600Y157616D01*
X283635Y157697D01*
X283670Y157755D01*
X283693Y157801D01*
X283704Y157824D01*
X283716Y157836D01*
X283762Y157905D01*
X283820Y157963D01*
X283866Y158009D01*
X283901Y158044D01*
X283959Y158090D01*
X283982Y158102D01*
X284202Y158217D01*
X284306Y158275D01*
X284387Y158321D01*
X284422Y158356D01*
X284433Y158368D01*
X284468Y158437D01*
X284479Y158507D01*
X284491Y158553D01*
Y158576D01*
X284479Y158645D01*
X284468Y158703D01*
X284399Y158796D01*
X284341Y158854D01*
X284317Y158877D01*
X284306D01*
X284260Y158900D01*
X284213Y158923D01*
X284098Y158935D01*
X284040Y158946D01*
D02*
G37*
G36*
X289131Y156956D02*
X289096D01*
X288992Y156945D01*
X288911Y156910D01*
X288864Y156864D01*
X288841Y156852D01*
X288784Y156760D01*
X288737Y156655D01*
X288726Y156609D01*
X288714Y156574D01*
X288703Y156551D01*
Y156540D01*
X288679Y156447D01*
X288645Y156366D01*
X288622Y156297D01*
X288587Y156227D01*
X288564Y156181D01*
X288541Y156146D01*
X288529Y156135D01*
X288517Y156123D01*
X288460Y156065D01*
X288390Y156008D01*
X288240Y155915D01*
X288170Y155869D01*
X288124Y155834D01*
X288078Y155822D01*
X288066Y155811D01*
Y155082D01*
X288170Y155047D01*
X288251Y155013D01*
X288332Y154978D01*
X288390Y154931D01*
X288436Y154897D01*
X288471Y154862D01*
X288483Y154850D01*
X288494Y154839D01*
X288541Y154770D01*
X288587Y154700D01*
X288656Y154538D01*
X288679Y154469D01*
X288703Y154411D01*
X288714Y154365D01*
Y154353D01*
X288760Y154226D01*
X288807Y154133D01*
X288841Y154087D01*
X288853Y154064D01*
X288934Y154006D01*
X289015Y153983D01*
X289084Y153971D01*
X289107D01*
X289177Y153983D01*
X289246Y153994D01*
X289327Y154041D01*
X289385Y154075D01*
X289397Y154098D01*
X289420Y154156D01*
X289443Y154214D01*
X289466Y154341D01*
X289478Y154399D01*
Y154446D01*
Y154480D01*
Y154492D01*
Y156412D01*
Y156505D01*
X289466Y156574D01*
X289455Y156632D01*
Y156679D01*
X289443Y156713D01*
X289432Y156736D01*
X289420Y156760D01*
X289385Y156829D01*
X289339Y156875D01*
X289281Y156910D01*
X289223Y156933D01*
X289177Y156945D01*
X289131Y156956D01*
D02*
G37*
G36*
X276554D02*
X276519D01*
X276415Y156945D01*
X276334Y156910D01*
X276288Y156864D01*
X276265Y156852D01*
X276207Y156760D01*
X276161Y156655D01*
X276149Y156609D01*
X276137Y156574D01*
X276126Y156551D01*
Y156540D01*
X276103Y156447D01*
X276068Y156366D01*
X276045Y156297D01*
X276010Y156227D01*
X275987Y156181D01*
X275964Y156146D01*
X275952Y156135D01*
X275941Y156123D01*
X275883Y156065D01*
X275814Y156008D01*
X275663Y155915D01*
X275594Y155869D01*
X275548Y155834D01*
X275501Y155822D01*
X275490Y155811D01*
Y155082D01*
X275594Y155047D01*
X275675Y155013D01*
X275756Y154978D01*
X275814Y154931D01*
X275860Y154897D01*
X275895Y154862D01*
X275906Y154850D01*
X275918Y154839D01*
X275964Y154770D01*
X276010Y154700D01*
X276080Y154538D01*
X276103Y154469D01*
X276126Y154411D01*
X276137Y154365D01*
Y154353D01*
X276184Y154226D01*
X276230Y154133D01*
X276265Y154087D01*
X276276Y154064D01*
X276357Y154006D01*
X276438Y153983D01*
X276508Y153971D01*
X276531D01*
X276600Y153983D01*
X276670Y153994D01*
X276751Y154041D01*
X276809Y154075D01*
X276820Y154098D01*
X276843Y154156D01*
X276866Y154214D01*
X276890Y154341D01*
X276901Y154399D01*
Y154446D01*
Y154480D01*
Y154492D01*
Y156412D01*
Y156505D01*
X276890Y156574D01*
X276878Y156632D01*
Y156679D01*
X276866Y156713D01*
X276855Y156736D01*
X276843Y156760D01*
X276809Y156829D01*
X276762Y156875D01*
X276705Y156910D01*
X276647Y156933D01*
X276600Y156945D01*
X276554Y156956D01*
D02*
G37*
G36*
X314110Y158946D02*
X311704D01*
X311588Y158935D01*
X311507D01*
X311438Y158923D01*
X311391Y158912D01*
X311357D01*
X311333Y158900D01*
X311264Y158854D01*
X311218Y158807D01*
X311183Y158773D01*
X311172Y158750D01*
X311137Y158680D01*
X311125Y158611D01*
X311114Y158564D01*
Y158541D01*
X311125Y158460D01*
X311148Y158391D01*
X311160Y158345D01*
X311172Y158333D01*
X311229Y158275D01*
X311287Y158240D01*
X311333Y158217D01*
X311345Y158206D01*
X311495Y158148D01*
X311576Y158113D01*
X311634Y158079D01*
X311669Y158055D01*
X311681Y158044D01*
X311704Y158021D01*
X311727Y157986D01*
X311785Y157905D01*
X311831Y157836D01*
X311842Y157812D01*
Y157801D01*
X315290Y151854D01*
X316852D01*
Y154203D01*
X314110Y158946D01*
D02*
G37*
G36*
X311831Y157165D02*
Y153474D01*
X311819Y153254D01*
X311773Y153069D01*
X311715Y152918D01*
X311657Y152803D01*
X311588Y152710D01*
X311530Y152652D01*
X311484Y152618D01*
X311472Y152606D01*
X311391Y152560D01*
X311310Y152525D01*
X311264Y152490D01*
X311218Y152467D01*
X311183Y152444D01*
X311160Y152421D01*
X311148Y152409D01*
X311114Y152351D01*
X311102Y152282D01*
X311090Y152236D01*
Y152213D01*
X311102Y152155D01*
X311114Y152097D01*
X311183Y152004D01*
X311264Y151946D01*
X311368Y151900D01*
X311472Y151877D01*
X311565Y151865D01*
X311623Y151854D01*
X312919D01*
X313000Y151865D01*
X313069Y151877D01*
X313115Y151900D01*
X313161Y151912D01*
X313185Y151923D01*
X313208Y151935D01*
X313254Y151981D01*
X313300Y152027D01*
X313335Y152120D01*
X313358Y152189D01*
Y152201D01*
Y152213D01*
X313347Y152282D01*
X313323Y152351D01*
X313266Y152444D01*
X313196Y152502D01*
X313173Y152525D01*
X313161D01*
X313011Y152606D01*
X312872Y152710D01*
X312768Y152814D01*
X312733Y152860D01*
X312710Y152895D01*
X312687Y152918D01*
Y152930D01*
X312652Y153011D01*
X312629Y153103D01*
X312595Y153277D01*
Y153358D01*
X312583Y153416D01*
Y153462D01*
Y153474D01*
Y156193D01*
X311831Y157165D01*
D02*
G37*
G36*
X294071Y158946D02*
X291572D01*
X291422Y158935D01*
X291317Y158900D01*
X291248Y158854D01*
X291236Y158842D01*
X291225D01*
X291178Y158807D01*
X291155Y158761D01*
X291109Y158680D01*
X291097Y158611D01*
Y158576D01*
X291109Y158472D01*
X291144Y158391D01*
X291178Y158333D01*
X291236Y158287D01*
X291283Y158252D01*
X291317Y158229D01*
X291352Y158206D01*
X291364D01*
X291410Y158183D01*
X291456Y158171D01*
X291502Y158148D01*
X291526Y158136D01*
X291549Y158125D01*
X291560Y158113D01*
X291583Y158055D01*
X291607Y157998D01*
Y157940D01*
Y157928D01*
Y157917D01*
Y152872D01*
X291595Y152779D01*
X291583Y152722D01*
X291572Y152687D01*
X291560Y152675D01*
X291537Y152652D01*
X291526Y152641D01*
X291514D01*
X291491Y152629D01*
X291445Y152618D01*
X291387Y152594D01*
X291375Y152583D01*
X291364D01*
X291271Y152536D01*
X291213Y152490D01*
X291167Y152421D01*
X291132Y152363D01*
X291109Y152305D01*
X291097Y152259D01*
Y152213D01*
X291109Y152143D01*
X291121Y152097D01*
X291167Y152004D01*
X291202Y151958D01*
X291225Y151935D01*
X291329Y151889D01*
X291445Y151865D01*
X291491Y151854D01*
X294221D01*
X294291Y151865D01*
X294360Y151877D01*
X294407Y151889D01*
X294453Y151900D01*
X294476Y151912D01*
X294499Y151923D01*
X294568Y151970D01*
X294615Y152016D01*
X294650Y152074D01*
X294673Y152120D01*
X294696Y152189D01*
Y152213D01*
Y152224D01*
X294684Y152328D01*
X294638Y152409D01*
X294580Y152479D01*
X294511Y152525D01*
X294430Y152560D01*
X294372Y152594D01*
X294326Y152606D01*
X294314D01*
X294233Y152629D01*
X294187Y152641D01*
X294175Y152652D01*
X294164D01*
X294141Y152664D01*
X294117Y152687D01*
X294106Y152710D01*
X294094Y152722D01*
X294083Y152733D01*
Y152756D01*
X294071Y152826D01*
Y152884D01*
Y152895D01*
Y152907D01*
Y158946D01*
D02*
G37*
G36*
X290079Y154214D02*
X290045D01*
X289941Y154203D01*
X289871Y154179D01*
X289813Y154145D01*
X289802Y154133D01*
X289744Y154052D01*
X289698Y153960D01*
X289674Y153890D01*
X289663Y153867D01*
Y153856D01*
X289617Y153740D01*
X289582Y153647D01*
X289536Y153566D01*
X289501Y153485D01*
X289466Y153439D01*
X289443Y153393D01*
X289432Y153369D01*
X289420Y153358D01*
X289327Y153219D01*
X289223Y153103D01*
X289177Y153057D01*
X289142Y153022D01*
X289119Y152999D01*
X289107Y152988D01*
X288957Y152872D01*
X288830Y152791D01*
X288772Y152768D01*
X288737Y152745D01*
X288714Y152733D01*
X288703D01*
X288622Y152699D01*
X288529Y152675D01*
X288332Y152629D01*
X288240Y152606D01*
X288170Y152594D01*
X288124Y152583D01*
X288101D01*
Y151854D01*
X290415D01*
Y153728D01*
X290403Y153879D01*
X290369Y153994D01*
X290334Y154064D01*
X290322Y154087D01*
X290288Y154133D01*
X290241Y154156D01*
X290149Y154203D01*
X290079Y154214D01*
D02*
G37*
G36*
X287870Y158946D02*
X285370D01*
X285220Y158935D01*
X285116Y158900D01*
X285046Y158854D01*
X285035Y158842D01*
X285023D01*
X284977Y158807D01*
X284954Y158761D01*
X284908Y158680D01*
X284896Y158611D01*
Y158576D01*
X284908Y158472D01*
X284942Y158391D01*
X284977Y158333D01*
X285035Y158287D01*
X285081Y158252D01*
X285116Y158229D01*
X285151Y158206D01*
X285162D01*
X285208Y158183D01*
X285255Y158171D01*
X285301Y158148D01*
X285324Y158136D01*
X285347Y158125D01*
X285359Y158113D01*
X285382Y158055D01*
X285405Y157998D01*
Y157940D01*
Y157928D01*
Y157917D01*
Y152872D01*
X285394Y152779D01*
X285382Y152722D01*
X285370Y152687D01*
X285359Y152675D01*
X285336Y152652D01*
X285324Y152641D01*
X285313D01*
X285289Y152629D01*
X285243Y152618D01*
X285185Y152594D01*
X285174Y152583D01*
X285162D01*
X285070Y152536D01*
X285012Y152490D01*
X284965Y152421D01*
X284931Y152363D01*
X284908Y152305D01*
X284896Y152259D01*
Y152213D01*
X284908Y152143D01*
X284919Y152097D01*
X284965Y152004D01*
X285000Y151958D01*
X285023Y151935D01*
X285127Y151889D01*
X285243Y151865D01*
X285289Y151854D01*
X287870D01*
Y158946D01*
D02*
G37*
G36*
X281194D02*
X278729D01*
X278648Y158935D01*
X278579Y158923D01*
X278521Y158900D01*
X278475Y158888D01*
X278440Y158865D01*
X278428Y158854D01*
X278417D01*
X278359Y158807D01*
X278313Y158750D01*
X278290Y158703D01*
X278266Y158645D01*
X278255Y158599D01*
X278243Y158564D01*
Y158530D01*
X278255Y158426D01*
X278278Y158356D01*
X278301Y158310D01*
X278313Y158298D01*
X278382Y158252D01*
X278463Y158206D01*
X278533Y158171D01*
X278544Y158159D01*
X278556D01*
X278590Y158136D01*
X278613Y158113D01*
X278625Y158102D01*
Y158090D01*
X278648Y158055D01*
X278671Y158009D01*
X278683Y157974D01*
X278695Y157951D01*
X280499Y151854D01*
X282003D01*
X282501Y153717D01*
X281332Y157824D01*
X281321Y157870D01*
Y157917D01*
Y157951D01*
Y157963D01*
Y158021D01*
X281332Y158067D01*
X281344Y158090D01*
Y158102D01*
X281379Y158136D01*
X281425Y158171D01*
X281471Y158183D01*
X281483Y158194D01*
X281564Y158240D01*
X281622Y158298D01*
X281668Y158368D01*
X281691Y158426D01*
X281714Y158484D01*
X281726Y158518D01*
Y158553D01*
Y158564D01*
X281714Y158622D01*
X281703Y158680D01*
X281680Y158715D01*
X281668Y158726D01*
X281633Y158784D01*
X281599Y158831D01*
X281564Y158854D01*
X281552Y158865D01*
X281494Y158900D01*
X281437Y158912D01*
X281390Y158923D01*
X281379D01*
X281344Y158935D01*
X281286D01*
X281194Y158946D01*
D02*
G37*
G36*
X277503Y154214D02*
X277468D01*
X277364Y154203D01*
X277294Y154179D01*
X277237Y154145D01*
X277225Y154133D01*
X277167Y154052D01*
X277121Y153960D01*
X277098Y153890D01*
X277086Y153867D01*
Y153856D01*
X277040Y153740D01*
X277005Y153647D01*
X276959Y153566D01*
X276924Y153485D01*
X276890Y153439D01*
X276866Y153393D01*
X276855Y153369D01*
X276843Y153358D01*
X276751Y153219D01*
X276647Y153103D01*
X276600Y153057D01*
X276566Y153022D01*
X276542Y152999D01*
X276531Y152988D01*
X276380Y152872D01*
X276253Y152791D01*
X276195Y152768D01*
X276161Y152745D01*
X276137Y152733D01*
X276126D01*
X276045Y152699D01*
X275952Y152675D01*
X275756Y152629D01*
X275663Y152606D01*
X275594Y152594D01*
X275548Y152583D01*
X275524D01*
Y151854D01*
X277838D01*
Y153728D01*
X277827Y153879D01*
X277792Y153994D01*
X277757Y154064D01*
X277746Y154087D01*
X277711Y154133D01*
X277665Y154156D01*
X277572Y154203D01*
X277503Y154214D01*
D02*
G37*
G36*
X275293Y158946D02*
X272794D01*
X272643Y158935D01*
X272539Y158900D01*
X272470Y158854D01*
X272458Y158842D01*
X272447D01*
X272400Y158807D01*
X272377Y158761D01*
X272331Y158680D01*
X272319Y158611D01*
Y158576D01*
X272331Y158472D01*
X272366Y158391D01*
X272400Y158333D01*
X272458Y158287D01*
X272505Y158252D01*
X272539Y158229D01*
X272574Y158206D01*
X272586D01*
X272632Y158183D01*
X272678Y158171D01*
X272724Y158148D01*
X272747Y158136D01*
X272771Y158125D01*
X272782Y158113D01*
X272805Y158055D01*
X272829Y157998D01*
Y157940D01*
Y157928D01*
Y157917D01*
Y152872D01*
X272817Y152779D01*
X272805Y152722D01*
X272794Y152687D01*
X272782Y152675D01*
X272759Y152652D01*
X272747Y152641D01*
X272736D01*
X272713Y152629D01*
X272667Y152618D01*
X272609Y152594D01*
X272597Y152583D01*
X272586D01*
X272493Y152536D01*
X272435Y152490D01*
X272389Y152421D01*
X272354Y152363D01*
X272331Y152305D01*
X272319Y152259D01*
Y152213D01*
X272331Y152143D01*
X272343Y152097D01*
X272389Y152004D01*
X272424Y151958D01*
X272447Y151935D01*
X272551Y151889D01*
X272667Y151865D01*
X272713Y151854D01*
X275293D01*
Y158946D01*
D02*
G37*
G36*
X307527Y159074D02*
X307457D01*
Y158356D01*
X307527Y158333D01*
X307585Y158298D01*
X307677Y158264D01*
X307724Y158240D01*
X307735Y158229D01*
X307782Y158183D01*
X307816Y158148D01*
X307839Y158102D01*
X307851Y158090D01*
X307897Y157974D01*
X307920Y157859D01*
X307932Y157801D01*
Y157755D01*
Y157731D01*
Y157720D01*
Y153208D01*
Y153069D01*
X307909Y152953D01*
X307897Y152860D01*
X307874Y152779D01*
X307851Y152722D01*
X307828Y152675D01*
X307816Y152652D01*
X307805Y152641D01*
X307770Y152594D01*
X307735Y152560D01*
X307712Y152548D01*
X307700Y152536D01*
X307677Y152525D01*
X307643Y152513D01*
X307562Y152479D01*
X307492Y152467D01*
X307469Y152455D01*
X307457D01*
Y151727D01*
X307689Y151750D01*
X307920Y151784D01*
X308129Y151831D01*
X308325Y151900D01*
X308510Y151958D01*
X308672Y152039D01*
X308834Y152108D01*
X308973Y152189D01*
X309089Y152259D01*
X309205Y152328D01*
X309297Y152398D01*
X309378Y152455D01*
X309436Y152513D01*
X309482Y152548D01*
X309505Y152571D01*
X309517Y152583D01*
X309702Y152779D01*
X309853Y152999D01*
X309991Y153219D01*
X310107Y153451D01*
X310211Y153682D01*
X310292Y153913D01*
X310362Y154145D01*
X310419Y154365D01*
X310466Y154573D01*
X310489Y154770D01*
X310512Y154943D01*
X310535Y155094D01*
Y155209D01*
X310547Y155302D01*
Y155383D01*
X310535Y155718D01*
X310500Y156031D01*
X310443Y156332D01*
X310385Y156598D01*
X310292Y156864D01*
X310211Y157095D01*
X310107Y157315D01*
X310015Y157500D01*
X309910Y157674D01*
X309806Y157824D01*
X309725Y157951D01*
X309644Y158067D01*
X309575Y158148D01*
X309517Y158206D01*
X309482Y158240D01*
X309471Y158252D01*
X309320Y158391D01*
X309170Y158507D01*
X309019Y158611D01*
X308892Y158692D01*
X308776Y158761D01*
X308684Y158807D01*
X308626Y158831D01*
X308603Y158842D01*
X308418Y158912D01*
X308221Y158969D01*
X308036Y159004D01*
X307851Y159039D01*
X307700Y159050D01*
X307573Y159062D01*
X307527Y159074D01*
D02*
G37*
G36*
X307261D02*
X307018Y159062D01*
X306786Y159027D01*
X306590Y158993D01*
X306428Y158946D01*
X306289Y158912D01*
X306185Y158877D01*
X306127Y158854D01*
X306104Y158842D01*
X305930Y158761D01*
X305768Y158669D01*
X305629Y158564D01*
X305502Y158472D01*
X305386Y158391D01*
X305306Y158321D01*
X305259Y158275D01*
X305236Y158252D01*
X305051Y158044D01*
X304889Y157836D01*
X304750Y157627D01*
X304634Y157431D01*
X304554Y157257D01*
X304519Y157188D01*
X304484Y157130D01*
X304461Y157072D01*
X304449Y157037D01*
X304438Y157014D01*
Y157002D01*
X304357Y156725D01*
X304287Y156447D01*
X304241Y156169D01*
X304218Y155927D01*
X304206Y155811D01*
X304195Y155707D01*
Y155614D01*
X304183Y155533D01*
Y155383D01*
X304195Y155059D01*
X304229Y154746D01*
X304276Y154457D01*
X304345Y154191D01*
X304415Y153937D01*
X304507Y153705D01*
X304588Y153497D01*
X304692Y153312D01*
X304785Y153138D01*
X304877Y152999D01*
X304958Y152872D01*
X305028Y152768D01*
X305097Y152687D01*
X305143Y152629D01*
X305178Y152594D01*
X305190Y152583D01*
X305340Y152444D01*
X305502Y152328D01*
X305676Y152224D01*
X305849Y152131D01*
X306023Y152051D01*
X306196Y151981D01*
X306520Y151865D01*
X306671Y151831D01*
X306810Y151796D01*
X306937Y151773D01*
X307053Y151750D01*
X307134Y151738D01*
X307203D01*
X307249Y151727D01*
X307261D01*
Y152444D01*
X307157Y152479D01*
X307076Y152513D01*
X307018Y152548D01*
X306972Y152583D01*
X306937Y152606D01*
X306914Y152629D01*
X306891Y152652D01*
X306856Y152722D01*
X306833Y152803D01*
X306810Y152988D01*
X306798Y153069D01*
Y153138D01*
Y153184D01*
Y153208D01*
Y157720D01*
Y157812D01*
X306810Y157905D01*
X306821Y157974D01*
X306844Y158032D01*
X306856Y158067D01*
X306868Y158102D01*
X306879Y158125D01*
X306914Y158171D01*
X306972Y158217D01*
X307099Y158287D01*
X307157Y158321D01*
X307215Y158333D01*
X307249Y158356D01*
X307261D01*
Y159074D01*
D02*
G37*
G36*
X301025D02*
X300654Y159039D01*
X300330Y158981D01*
X300053Y158900D01*
X299925Y158865D01*
X299821Y158819D01*
X299717Y158773D01*
X299625Y158738D01*
X299555Y158703D01*
X299497Y158669D01*
X299451Y158634D01*
X299405Y158622D01*
X299393Y158599D01*
X299382D01*
X299220Y158472D01*
X299081Y158345D01*
X298965Y158206D01*
X298861Y158067D01*
X298792Y157951D01*
X298734Y157859D01*
X298699Y157801D01*
X298688Y157789D01*
Y157778D01*
X298606Y157581D01*
X298549Y157384D01*
X298502Y157199D01*
X298479Y157037D01*
X298456Y156887D01*
X298445Y156771D01*
Y156667D01*
X298456Y156447D01*
X298491Y156251D01*
X298537Y156054D01*
X298595Y155869D01*
X298676Y155707D01*
X298757Y155545D01*
X298849Y155406D01*
X298942Y155279D01*
X299035Y155163D01*
X299127Y155059D01*
X299208Y154978D01*
X299289Y154897D01*
X299347Y154839D01*
X299393Y154804D01*
X299428Y154781D01*
X299440Y154770D01*
X299590Y154665D01*
X299729Y154584D01*
X299787Y154550D01*
X299833Y154526D01*
X299856Y154503D01*
X299868D01*
X299972Y154457D01*
X300099Y154399D01*
X300249Y154330D01*
X300388Y154260D01*
X300527Y154203D01*
X300631Y154156D01*
X300677Y154133D01*
X300712Y154122D01*
X300724Y154110D01*
X300735D01*
X300921Y154017D01*
X301082Y153948D01*
X301210Y153879D01*
X301314Y153821D01*
X301383Y153774D01*
X301441Y153740D01*
X301464Y153717D01*
X301476Y153705D01*
X301568Y153624D01*
X301626Y153532D01*
X301673Y153451D01*
X301707Y153369D01*
X301730Y153300D01*
X301742Y153242D01*
Y153208D01*
Y153196D01*
X301730Y153103D01*
X301719Y153011D01*
X301684Y152930D01*
X301661Y152872D01*
X301626Y152826D01*
X301591Y152791D01*
X301580Y152768D01*
X301568Y152756D01*
X301499Y152699D01*
X301395Y152641D01*
X301187Y152548D01*
X301082Y152513D01*
X301002Y152490D01*
X300944Y152479D01*
X300921Y152467D01*
Y151727D01*
X301082D01*
X301221Y151738D01*
X301360Y151761D01*
X301476Y151773D01*
X301580Y151796D01*
X301649Y151808D01*
X301707Y151819D01*
X301719D01*
X301858Y151854D01*
X301985Y151900D01*
X302112Y151946D01*
X302205Y151981D01*
X302297Y152016D01*
X302355Y152051D01*
X302401Y152062D01*
X302413Y152074D01*
X302621Y152201D01*
X302806Y152351D01*
X302968Y152502D01*
X303096Y152641D01*
X303200Y152768D01*
X303281Y152872D01*
X303327Y152942D01*
X303339Y152953D01*
Y152965D01*
X303454Y153184D01*
X303535Y153393D01*
X303605Y153601D01*
X303639Y153798D01*
X303663Y153960D01*
X303686Y154087D01*
Y154203D01*
X303674Y154365D01*
X303651Y154526D01*
X303616Y154689D01*
X303570Y154827D01*
X303454Y155105D01*
X303327Y155336D01*
X303258Y155441D01*
X303200Y155522D01*
X303130Y155603D01*
X303084Y155672D01*
X303038Y155718D01*
X303003Y155753D01*
X302980Y155776D01*
X302968Y155788D01*
X302910Y155869D01*
X302853Y155938D01*
X302714Y156065D01*
X302656Y156112D01*
X302610Y156146D01*
X302575Y156158D01*
X302563Y156169D01*
X302459Y156227D01*
X302344Y156297D01*
X302228Y156355D01*
X302112Y156412D01*
X302008Y156470D01*
X301927Y156505D01*
X301869Y156528D01*
X301846Y156540D01*
X301719Y156598D01*
X301591Y156644D01*
X301395Y156736D01*
X301221Y156817D01*
X301094Y156875D01*
X301002Y156922D01*
X300944Y156956D01*
X300909Y156979D01*
X300897D01*
X300805Y157037D01*
X300724Y157095D01*
X300654Y157141D01*
X300596Y157188D01*
X300550Y157234D01*
X300527Y157269D01*
X300516Y157280D01*
X300504Y157292D01*
X300434Y157431D01*
X300400Y157558D01*
Y157604D01*
X300388Y157650D01*
Y157674D01*
Y157685D01*
X300400Y157766D01*
X300411Y157836D01*
X300458Y157951D01*
X300481Y157998D01*
X300504Y158032D01*
X300527Y158044D01*
Y158055D01*
X300585Y158113D01*
X300666Y158159D01*
X300828Y158240D01*
X300909Y158275D01*
X300967Y158298D01*
X301013Y158310D01*
X301025D01*
Y159074D01*
D02*
G37*
G36*
X298838Y154596D02*
X298757D01*
X298711Y154573D01*
X298618Y154526D01*
X298572Y154480D01*
X298549Y154469D01*
Y154457D01*
X298491Y154353D01*
X298456Y154249D01*
Y154214D01*
X298445Y154179D01*
Y152224D01*
X298456Y152143D01*
X298502Y152004D01*
X298560Y151912D01*
X298641Y151854D01*
X298711Y151808D01*
X298768Y151796D01*
X298815Y151784D01*
X298826D01*
X298884Y151796D01*
X298942Y151808D01*
X299023Y151854D01*
X299081Y151900D01*
X299104Y151923D01*
X299173Y152004D01*
X299208Y152051D01*
X299231Y152074D01*
X299266Y152085D01*
X299301Y152097D01*
X299370D01*
X299405Y152085D01*
X299428Y152074D01*
X299440Y152062D01*
X299509Y152039D01*
X299590Y152004D01*
X299659Y151970D01*
X299671Y151958D01*
X299682D01*
X299879Y151877D01*
X300076Y151819D01*
X300249Y151784D01*
X300411Y151761D01*
X300550Y151738D01*
X300666Y151727D01*
X300759D01*
Y152479D01*
X300596Y152513D01*
X300458Y152548D01*
X300342Y152594D01*
X300238Y152641D01*
X300168Y152675D01*
X300111Y152710D01*
X300076Y152722D01*
X300064Y152733D01*
X299949Y152860D01*
X299845Y152976D01*
X299763Y153092D01*
X299682Y153208D01*
X299613Y153289D01*
X299567Y153369D01*
X299544Y153416D01*
X299532Y153427D01*
X299393Y153705D01*
X299347Y153844D01*
X299301Y153971D01*
X299266Y154075D01*
X299243Y154156D01*
X299220Y154203D01*
Y154226D01*
X299173Y154353D01*
X299127Y154434D01*
X299081Y154492D01*
X299069Y154503D01*
X299000Y154561D01*
X298907Y154584D01*
X298838Y154596D01*
D02*
G37*
G36*
X268953Y159074D02*
X268582Y159039D01*
X268258Y158981D01*
X267981Y158900D01*
X267853Y158865D01*
X267749Y158819D01*
X267645Y158773D01*
X267553Y158738D01*
X267483Y158703D01*
X267425Y158669D01*
X267379Y158634D01*
X267333Y158622D01*
X267321Y158599D01*
X267310D01*
X267148Y158472D01*
X267009Y158345D01*
X266893Y158206D01*
X266789Y158067D01*
X266720Y157951D01*
X266662Y157859D01*
X266627Y157801D01*
X266615Y157789D01*
Y157778D01*
X266534Y157581D01*
X266477Y157384D01*
X266430Y157199D01*
X266407Y157037D01*
X266384Y156887D01*
X266372Y156771D01*
Y156667D01*
X266384Y156447D01*
X266419Y156251D01*
X266465Y156054D01*
X266523Y155869D01*
X266604Y155707D01*
X266685Y155545D01*
X266777Y155406D01*
X266870Y155279D01*
X266963Y155163D01*
X267055Y155059D01*
X267136Y154978D01*
X267217Y154897D01*
X267275Y154839D01*
X267321Y154804D01*
X267356Y154781D01*
X267368Y154770D01*
X267518Y154665D01*
X267657Y154584D01*
X267715Y154550D01*
X267761Y154526D01*
X267784Y154503D01*
X267796D01*
X267900Y154457D01*
X268027Y154399D01*
X268177Y154330D01*
X268316Y154260D01*
X268455Y154203D01*
X268559Y154156D01*
X268605Y154133D01*
X268640Y154122D01*
X268652Y154110D01*
X268663D01*
X268848Y154017D01*
X269010Y153948D01*
X269138Y153879D01*
X269242Y153821D01*
X269311Y153774D01*
X269369Y153740D01*
X269392Y153717D01*
X269404Y153705D01*
X269496Y153624D01*
X269554Y153532D01*
X269601Y153451D01*
X269635Y153369D01*
X269658Y153300D01*
X269670Y153242D01*
Y153208D01*
Y153196D01*
X269658Y153103D01*
X269647Y153011D01*
X269612Y152930D01*
X269589Y152872D01*
X269554Y152826D01*
X269519Y152791D01*
X269508Y152768D01*
X269496Y152756D01*
X269427Y152699D01*
X269323Y152641D01*
X269114Y152548D01*
X269010Y152513D01*
X268929Y152490D01*
X268872Y152479D01*
X268848Y152467D01*
Y151727D01*
X269010D01*
X269149Y151738D01*
X269288Y151761D01*
X269404Y151773D01*
X269508Y151796D01*
X269577Y151808D01*
X269635Y151819D01*
X269647D01*
X269786Y151854D01*
X269913Y151900D01*
X270040Y151946D01*
X270133Y151981D01*
X270225Y152016D01*
X270283Y152051D01*
X270329Y152062D01*
X270341Y152074D01*
X270549Y152201D01*
X270734Y152351D01*
X270896Y152502D01*
X271024Y152641D01*
X271128Y152768D01*
X271209Y152872D01*
X271255Y152942D01*
X271267Y152953D01*
Y152965D01*
X271382Y153184D01*
X271463Y153393D01*
X271533Y153601D01*
X271567Y153798D01*
X271590Y153960D01*
X271614Y154087D01*
Y154203D01*
X271602Y154365D01*
X271579Y154526D01*
X271544Y154689D01*
X271498Y154827D01*
X271382Y155105D01*
X271255Y155336D01*
X271186Y155441D01*
X271128Y155522D01*
X271058Y155603D01*
X271012Y155672D01*
X270966Y155718D01*
X270931Y155753D01*
X270908Y155776D01*
X270896Y155788D01*
X270838Y155869D01*
X270781Y155938D01*
X270642Y156065D01*
X270584Y156112D01*
X270538Y156146D01*
X270503Y156158D01*
X270491Y156169D01*
X270387Y156227D01*
X270271Y156297D01*
X270156Y156355D01*
X270040Y156412D01*
X269936Y156470D01*
X269855Y156505D01*
X269797Y156528D01*
X269774Y156540D01*
X269647Y156598D01*
X269519Y156644D01*
X269323Y156736D01*
X269149Y156817D01*
X269022Y156875D01*
X268929Y156922D01*
X268872Y156956D01*
X268837Y156979D01*
X268825D01*
X268733Y157037D01*
X268652Y157095D01*
X268582Y157141D01*
X268525Y157188D01*
X268478Y157234D01*
X268455Y157269D01*
X268443Y157280D01*
X268432Y157292D01*
X268362Y157431D01*
X268328Y157558D01*
Y157604D01*
X268316Y157650D01*
Y157674D01*
Y157685D01*
X268328Y157766D01*
X268339Y157836D01*
X268386Y157951D01*
X268409Y157998D01*
X268432Y158032D01*
X268455Y158044D01*
Y158055D01*
X268513Y158113D01*
X268594Y158159D01*
X268756Y158240D01*
X268837Y158275D01*
X268895Y158298D01*
X268941Y158310D01*
X268953D01*
Y159074D01*
D02*
G37*
G36*
X266766Y154596D02*
X266685D01*
X266639Y154573D01*
X266546Y154526D01*
X266500Y154480D01*
X266477Y154469D01*
Y154457D01*
X266419Y154353D01*
X266384Y154249D01*
Y154214D01*
X266372Y154179D01*
Y152224D01*
X266384Y152143D01*
X266430Y152004D01*
X266488Y151912D01*
X266569Y151854D01*
X266639Y151808D01*
X266696Y151796D01*
X266743Y151784D01*
X266754D01*
X266812Y151796D01*
X266870Y151808D01*
X266951Y151854D01*
X267009Y151900D01*
X267032Y151923D01*
X267101Y152004D01*
X267136Y152051D01*
X267159Y152074D01*
X267194Y152085D01*
X267229Y152097D01*
X267298D01*
X267333Y152085D01*
X267356Y152074D01*
X267368Y152062D01*
X267437Y152039D01*
X267518Y152004D01*
X267587Y151970D01*
X267599Y151958D01*
X267610D01*
X267807Y151877D01*
X268004Y151819D01*
X268177Y151784D01*
X268339Y151761D01*
X268478Y151738D01*
X268594Y151727D01*
X268687D01*
Y152479D01*
X268525Y152513D01*
X268386Y152548D01*
X268270Y152594D01*
X268166Y152641D01*
X268096Y152675D01*
X268039Y152710D01*
X268004Y152722D01*
X267992Y152733D01*
X267877Y152860D01*
X267772Y152976D01*
X267691Y153092D01*
X267610Y153208D01*
X267541Y153289D01*
X267495Y153369D01*
X267472Y153416D01*
X267460Y153427D01*
X267321Y153705D01*
X267275Y153844D01*
X267229Y153971D01*
X267194Y154075D01*
X267171Y154156D01*
X267148Y154203D01*
Y154226D01*
X267101Y154353D01*
X267055Y154434D01*
X267009Y154492D01*
X266997Y154503D01*
X266928Y154561D01*
X266835Y154584D01*
X266766Y154596D01*
D02*
G37*
G36*
X294800Y158946D02*
X294233D01*
Y158194D01*
X294360Y158159D01*
X294464Y158113D01*
X294545Y158079D01*
X294615Y158044D01*
X294650Y158009D01*
X294684Y157986D01*
X294707Y157974D01*
Y157963D01*
X294742Y157905D01*
X294765Y157847D01*
X294800Y157708D01*
X294812Y157650D01*
Y157604D01*
Y157570D01*
Y157558D01*
Y156216D01*
Y156077D01*
X294800Y155984D01*
X294788Y155938D01*
X294777Y155915D01*
X294742Y155845D01*
X294696Y155776D01*
X294650Y155730D01*
X294638Y155707D01*
X294603Y155695D01*
X294557Y155672D01*
X294430Y155649D01*
X294360Y155637D01*
X294302Y155626D01*
X294268Y155614D01*
X294256D01*
Y154897D01*
X294360Y154885D01*
X294453Y154850D01*
X294522Y154827D01*
X294580Y154793D01*
X294626Y154770D01*
X294650Y154746D01*
X294673Y154735D01*
Y154723D01*
X294742Y154619D01*
X294777Y154515D01*
X294788Y154480D01*
X294800Y154446D01*
Y154422D01*
Y154411D01*
Y154388D01*
X294812Y154353D01*
Y154249D01*
Y154191D01*
Y154156D01*
Y154122D01*
Y154110D01*
Y153254D01*
X294823Y152999D01*
X294869Y152779D01*
X294939Y152583D01*
X295008Y152421D01*
X295078Y152294D01*
X295147Y152201D01*
X295193Y152143D01*
X295205Y152120D01*
X295367Y151981D01*
X295552Y151889D01*
X295737Y151819D01*
X295922Y151761D01*
X296084Y151738D01*
X296212Y151727D01*
X296258Y151715D01*
X296454D01*
X296570Y151727D01*
X296674Y151738D01*
X296755Y151761D01*
X296825Y151773D01*
X296883Y151784D01*
X296917Y151796D01*
X296929D01*
X297114Y151865D01*
X297195Y151900D01*
X297276Y151946D01*
X297334Y151981D01*
X297380Y152016D01*
X297403Y152027D01*
X297415Y152039D01*
X297577Y152189D01*
X297704Y152328D01*
X297750Y152386D01*
X297797Y152432D01*
X297808Y152467D01*
X297820Y152479D01*
X297878Y152571D01*
X297912Y152652D01*
X297959Y152779D01*
X297970Y152837D01*
X297982Y152872D01*
Y152953D01*
X297959Y152999D01*
X297924Y153080D01*
X297878Y153138D01*
X297866Y153161D01*
X297854D01*
X297808Y153208D01*
X297762Y153231D01*
X297681Y153277D01*
X297623Y153289D01*
X297600D01*
X297531Y153277D01*
X297473Y153254D01*
X297357Y153173D01*
X297311Y153127D01*
X297276Y153092D01*
X297264Y153069D01*
X297253Y153057D01*
X297218Y153022D01*
Y153034D01*
Y153046D01*
Y153057D01*
Y154110D01*
Y154203D01*
X297195Y154295D01*
X297183Y154376D01*
X297160Y154446D01*
X297137Y154515D01*
X297114Y154561D01*
X297102Y154584D01*
X297091Y154596D01*
X296975Y154770D01*
X296859Y154897D01*
X296801Y154955D01*
X296755Y154989D01*
X296732Y155013D01*
X296721Y155024D01*
X296559Y155128D01*
X296408Y155198D01*
X296339Y155232D01*
X296292Y155255D01*
X296258Y155267D01*
X296246D01*
X296038Y155325D01*
X295934Y155336D01*
X295830Y155348D01*
X295737Y155360D01*
X295610D01*
X295760Y155371D01*
X295899Y155394D01*
X296015Y155417D01*
X296119Y155441D01*
X296200Y155464D01*
X296258Y155487D01*
X296292Y155510D01*
X296304D01*
X296489Y155614D01*
X296570Y155672D01*
X296640Y155718D01*
X296686Y155764D01*
X296732Y155799D01*
X296755Y155822D01*
X296767Y155834D01*
X296929Y156031D01*
X297044Y156227D01*
X297137Y156436D01*
X297195Y156632D01*
X297230Y156806D01*
X297241Y156887D01*
Y156945D01*
X297253Y157002D01*
Y157037D01*
Y157060D01*
Y157072D01*
X297241Y157246D01*
X297218Y157396D01*
X297183Y157546D01*
X297137Y157685D01*
X297021Y157928D01*
X296894Y158136D01*
X296767Y158287D01*
X296651Y158403D01*
X296605Y158449D01*
X296570Y158472D01*
X296547Y158495D01*
X296535D01*
X296350Y158611D01*
X296165Y158703D01*
X295980Y158773D01*
X295807Y158831D01*
X295656Y158865D01*
X295540Y158888D01*
X295494D01*
X295459Y158900D01*
X295436D01*
X295274Y158912D01*
X295112Y158923D01*
X294950Y158935D01*
X294800Y158946D01*
D02*
G37*
G36*
X280418Y150297D02*
X280384D01*
X280314Y150285D01*
X280256Y150273D01*
X280164Y150216D01*
X280095Y150146D01*
X280083Y150135D01*
X280071Y150123D01*
X280037Y150065D01*
X280002Y150019D01*
X279956Y149961D01*
X279944Y149938D01*
X279932Y149926D01*
X279886Y149915D01*
X279863D01*
X279817Y149926D01*
X279759Y149938D01*
X279724Y149950D01*
X279701Y149961D01*
X279470Y150042D01*
X279215Y150111D01*
X278961Y150169D01*
X278718Y150216D01*
X278509Y150250D01*
X278417Y150262D01*
X278336Y150273D01*
X278266D01*
X278220Y150285D01*
X278174D01*
Y149533D01*
X278336Y149521D01*
X278475Y149498D01*
X278590Y149475D01*
X278683Y149452D01*
X278764Y149429D01*
X278810Y149417D01*
X278845Y149394D01*
X278856D01*
X278949Y149348D01*
X279042Y149290D01*
X279192Y149174D01*
X279261Y149116D01*
X279308Y149070D01*
X279342Y149035D01*
X279354Y149024D01*
X279400Y148943D01*
X279447Y148862D01*
X279551Y148688D01*
X279585Y148607D01*
X279620Y148538D01*
X279643Y148492D01*
X279655Y148480D01*
X279724Y148353D01*
X279782Y148225D01*
X279828Y148121D01*
X279863Y148029D01*
X279886Y147948D01*
X279909Y147890D01*
X279921Y147855D01*
Y147844D01*
X279944Y147763D01*
X279979Y147682D01*
X280002Y147624D01*
X280025Y147578D01*
X280071Y147520D01*
X280083Y147497D01*
X280164Y147439D01*
X280256Y147416D01*
X280326Y147404D01*
X280361D01*
X280499Y147427D01*
X280592Y147474D01*
X280661Y147555D01*
X280719Y147647D01*
X280742Y147728D01*
X280754Y147809D01*
X280766Y147855D01*
Y147878D01*
Y149845D01*
X280754Y149984D01*
X280719Y150088D01*
X280684Y150146D01*
X280673Y150169D01*
X280638Y150216D01*
X280592Y150239D01*
X280499Y150285D01*
X280453D01*
X280418Y150297D01*
D02*
G37*
G36*
X306266Y150158D02*
X306069D01*
Y149406D01*
X306173Y149394D01*
X306254Y149371D01*
X306335Y149348D01*
X306382Y149325D01*
X306428Y149302D01*
X306451Y149278D01*
X306474Y149267D01*
X306543Y149197D01*
X306578Y149140D01*
X306601Y149093D01*
X306613Y149070D01*
X306625Y149035D01*
X306636Y148978D01*
X306648Y148885D01*
Y148827D01*
Y148793D01*
Y148769D01*
Y148758D01*
Y147150D01*
Y147045D01*
X306636Y146941D01*
X306625Y146860D01*
X306601Y146791D01*
X306590Y146745D01*
X306567Y146710D01*
X306555Y146687D01*
Y146675D01*
X306509Y146606D01*
X306474Y146559D01*
X306439Y146536D01*
X306428Y146525D01*
X306393Y146513D01*
X306347Y146490D01*
X306231Y146455D01*
X306185Y146444D01*
X306138Y146432D01*
X306104Y146421D01*
X306092D01*
Y145692D01*
X306289D01*
X306463Y145703D01*
X306636Y145715D01*
X306775Y145726D01*
X306914Y145738D01*
X307029Y145749D01*
X307134Y145773D01*
X307226Y145784D01*
X307307Y145807D01*
X307377Y145819D01*
X307434Y145831D01*
X307481Y145854D01*
X307527Y145865D01*
X307550Y145877D01*
X307828Y145981D01*
X308071Y146108D01*
X308267Y146236D01*
X308429Y146363D01*
X308557Y146478D01*
X308638Y146571D01*
X308696Y146629D01*
X308707Y146652D01*
X308834Y146860D01*
X308927Y147080D01*
X308985Y147300D01*
X309031Y147508D01*
X309054Y147705D01*
X309066Y147774D01*
X309077Y147844D01*
Y147983D01*
X309066Y148237D01*
X309019Y148480D01*
X308962Y148688D01*
X308892Y148862D01*
X308823Y149012D01*
X308765Y149116D01*
X308719Y149186D01*
X308707Y149209D01*
X308568Y149382D01*
X308418Y149533D01*
X308256Y149660D01*
X308105Y149764D01*
X307967Y149845D01*
X307862Y149903D01*
X307816Y149926D01*
X307782Y149938D01*
X307770Y149950D01*
X307758D01*
X307654Y149984D01*
X307539Y150019D01*
X307272Y150065D01*
X306995Y150111D01*
X306717Y150135D01*
X306463Y150146D01*
X306358D01*
X306266Y150158D01*
D02*
G37*
G36*
X305884D02*
X303385D01*
X303235Y150146D01*
X303130Y150111D01*
X303061Y150065D01*
X303049Y150054D01*
X303038D01*
X302992Y150019D01*
X302968Y149973D01*
X302922Y149892D01*
X302910Y149822D01*
Y149787D01*
X302922Y149683D01*
X302957Y149602D01*
X302992Y149545D01*
X303049Y149498D01*
X303096Y149463D01*
X303130Y149440D01*
X303165Y149417D01*
X303177D01*
X303223Y149394D01*
X303269Y149382D01*
X303315Y149359D01*
X303339Y149348D01*
X303362Y149336D01*
X303373Y149325D01*
X303397Y149267D01*
X303420Y149209D01*
Y149151D01*
Y149140D01*
Y149128D01*
Y144083D01*
X303408Y143991D01*
X303397Y143933D01*
X303385Y143898D01*
X303373Y143887D01*
X303350Y143864D01*
X303339Y143852D01*
X303327D01*
X303304Y143841D01*
X303258Y143829D01*
X303200Y143806D01*
X303188Y143794D01*
X303177D01*
X303084Y143748D01*
X303026Y143702D01*
X302980Y143632D01*
X302945Y143574D01*
X302922Y143517D01*
X302910Y143470D01*
Y143424D01*
X302922Y143354D01*
X302934Y143308D01*
X302980Y143216D01*
X303015Y143169D01*
X303038Y143146D01*
X303142Y143100D01*
X303258Y143077D01*
X303304Y143065D01*
X306034D01*
X306104Y143077D01*
X306173Y143088D01*
X306220Y143100D01*
X306266Y143112D01*
X306289Y143123D01*
X306312Y143135D01*
X306382Y143181D01*
X306428Y143227D01*
X306463Y143285D01*
X306486Y143331D01*
X306509Y143401D01*
Y143424D01*
Y143436D01*
X306497Y143540D01*
X306451Y143621D01*
X306393Y143690D01*
X306324Y143736D01*
X306243Y143771D01*
X306185Y143806D01*
X306138Y143817D01*
X306127D01*
X306046Y143841D01*
X306000Y143852D01*
X305988Y143864D01*
X305977D01*
X305953Y143875D01*
X305930Y143898D01*
X305919Y143921D01*
X305907Y143933D01*
X305896Y143945D01*
Y143968D01*
X305884Y144037D01*
Y144095D01*
Y144107D01*
Y144118D01*
Y150158D01*
D02*
G37*
G36*
X284653D02*
X282154D01*
X282003Y150146D01*
X281899Y150111D01*
X281830Y150065D01*
X281818Y150054D01*
X281807D01*
X281761Y150019D01*
X281737Y149973D01*
X281691Y149892D01*
X281680Y149822D01*
Y149787D01*
X281691Y149683D01*
X281726Y149602D01*
X281761Y149545D01*
X281818Y149498D01*
X281865Y149463D01*
X281899Y149440D01*
X281934Y149417D01*
X281946D01*
X281992Y149394D01*
X282038Y149382D01*
X282084Y149359D01*
X282108Y149348D01*
X282131Y149336D01*
X282142Y149325D01*
X282166Y149267D01*
X282189Y149209D01*
Y149151D01*
Y149140D01*
Y149128D01*
Y144083D01*
X282177Y143991D01*
X282166Y143933D01*
X282154Y143898D01*
X282142Y143887D01*
X282119Y143864D01*
X282108Y143852D01*
X282096D01*
X282073Y143841D01*
X282027Y143829D01*
X281969Y143806D01*
X281957Y143794D01*
X281946D01*
X281853Y143748D01*
X281795Y143702D01*
X281749Y143632D01*
X281714Y143574D01*
X281691Y143517D01*
X281680Y143470D01*
Y143424D01*
X281691Y143354D01*
X281703Y143308D01*
X281749Y143216D01*
X281784Y143169D01*
X281807Y143146D01*
X281911Y143100D01*
X282027Y143077D01*
X282073Y143065D01*
X284804D01*
X284873Y143077D01*
X284942Y143088D01*
X284989Y143100D01*
X285035Y143112D01*
X285058Y143123D01*
X285081Y143135D01*
X285151Y143181D01*
X285197Y143227D01*
X285232Y143285D01*
X285255Y143331D01*
X285278Y143401D01*
Y143424D01*
Y143436D01*
X285266Y143540D01*
X285220Y143621D01*
X285162Y143690D01*
X285093Y143736D01*
X285012Y143771D01*
X284954Y143806D01*
X284908Y143817D01*
X284896D01*
X284815Y143841D01*
X284769Y143852D01*
X284757Y143864D01*
X284746D01*
X284722Y143875D01*
X284699Y143898D01*
X284688Y143921D01*
X284676Y143933D01*
X284665Y143945D01*
Y143968D01*
X284653Y144037D01*
Y144095D01*
Y144107D01*
Y144118D01*
Y150158D01*
D02*
G37*
G36*
X301811D02*
X300411D01*
X300249Y150146D01*
X300134Y150123D01*
X300087Y150100D01*
X300053Y150088D01*
X300041Y150077D01*
X300030D01*
X299983Y150042D01*
X299960Y149996D01*
X299914Y149915D01*
X299902Y149845D01*
Y149822D01*
Y149811D01*
X299914Y149706D01*
X299937Y149637D01*
X299949Y149591D01*
X299960Y149579D01*
X300030Y149521D01*
X300111Y149463D01*
X300180Y149417D01*
X300192Y149406D01*
X300203D01*
X300365Y149302D01*
X300481Y149163D01*
X300573Y149024D01*
X300631Y148885D01*
X300666Y148746D01*
X300677Y148642D01*
X300689Y148596D01*
Y148561D01*
Y148549D01*
Y148538D01*
Y145240D01*
X300677Y144986D01*
X300631Y144755D01*
X300562Y144546D01*
X300492Y144361D01*
X300423Y144211D01*
X300354Y144095D01*
X300330Y144060D01*
X300307Y144026D01*
X300296Y144014D01*
Y144002D01*
X300180Y143945D01*
X300053Y143910D01*
X299914Y143864D01*
X299775Y143841D01*
X299648Y143817D01*
X299555Y143794D01*
X299486Y143783D01*
X299463D01*
Y142938D01*
X299636Y142961D01*
X299787Y142984D01*
X299914Y143019D01*
X300018Y143042D01*
X300111Y143077D01*
X300168Y143088D01*
X300203Y143112D01*
X300215D01*
X300411Y143216D01*
X300573Y143331D01*
X300724Y143459D01*
X300839Y143586D01*
X300932Y143690D01*
X301002Y143783D01*
X301048Y143841D01*
X301059Y143864D01*
X301187Y144060D01*
X301279Y144292D01*
X301349Y144523D01*
X301395Y144743D01*
X301418Y144940D01*
X301430Y145021D01*
X301441Y145090D01*
Y145159D01*
Y145206D01*
Y145229D01*
Y145240D01*
Y148538D01*
X301453Y148735D01*
X301476Y148827D01*
X301499Y148897D01*
X301511Y148966D01*
X301534Y149012D01*
X301545Y149035D01*
Y149047D01*
X301591Y149128D01*
X301649Y149197D01*
X301753Y149302D01*
X301800Y149336D01*
X301835Y149359D01*
X301858Y149382D01*
X301869D01*
X301939Y149417D01*
X301985Y149452D01*
X302031Y149487D01*
X302054Y149498D01*
X302078Y149521D01*
X302089Y149533D01*
X302135Y149579D01*
X302158Y149626D01*
X302205Y149706D01*
X302216Y149776D01*
Y149799D01*
X302205Y149869D01*
X302182Y149926D01*
X302124Y150019D01*
X302054Y150065D01*
X302031Y150088D01*
X302020D01*
X301973Y150123D01*
X301927Y150135D01*
X301892Y150146D01*
X301881D01*
X301811Y150158D01*
D02*
G37*
G36*
X298664D02*
X296154D01*
X296015Y150146D01*
X295899Y150111D01*
X295830Y150065D01*
X295818Y150054D01*
X295807D01*
X295760Y150019D01*
X295737Y149973D01*
X295691Y149880D01*
X295679Y149811D01*
Y149776D01*
X295691Y149683D01*
X295725Y149602D01*
X295760Y149545D01*
X295818Y149498D01*
X295864Y149463D01*
X295899Y149440D01*
X295934Y149417D01*
X295945D01*
X295992Y149394D01*
X296038Y149382D01*
X296084Y149359D01*
X296107Y149348D01*
X296130Y149336D01*
X296142Y149325D01*
X296165Y149267D01*
X296188Y149209D01*
Y149151D01*
Y149140D01*
Y149128D01*
Y145171D01*
X296200Y144928D01*
X296212Y144708D01*
X296246Y144523D01*
X296281Y144373D01*
X296304Y144257D01*
X296339Y144165D01*
X296350Y144118D01*
X296362Y144095D01*
X296431Y143968D01*
X296524Y143852D01*
X296616Y143736D01*
X296721Y143644D01*
X296801Y143574D01*
X296871Y143505D01*
X296917Y143470D01*
X296940Y143459D01*
X297102Y143366D01*
X297253Y143274D01*
X297415Y143204D01*
X297554Y143158D01*
X297681Y143112D01*
X297773Y143077D01*
X297843Y143065D01*
X297866Y143054D01*
X298040Y143019D01*
X298236Y142984D01*
X298421Y142961D01*
X298595Y142950D01*
X298757D01*
X298873Y142938D01*
X299220D01*
Y143760D01*
X299127Y143794D01*
X299046Y143817D01*
X298977Y143841D01*
X298930Y143864D01*
X298896Y143875D01*
X298873D01*
X298861Y143887D01*
X298815Y143933D01*
X298780Y143991D01*
X298757Y144026D01*
X298745Y144049D01*
X298711Y144130D01*
X298688Y144211D01*
X298664Y144280D01*
Y144292D01*
Y144303D01*
Y144373D01*
X298653Y144465D01*
Y144662D01*
Y144755D01*
Y144835D01*
Y144882D01*
Y144905D01*
Y149128D01*
X298664Y149221D01*
X298676Y149278D01*
X298688Y149313D01*
Y149325D01*
X298699Y149348D01*
X298711D01*
X298722Y149359D01*
X298745D01*
X298792Y149382D01*
X298849Y149406D01*
X298861Y149417D01*
X298873D01*
X298965Y149463D01*
X299035Y149510D01*
X299092Y149568D01*
X299127Y149637D01*
X299150Y149683D01*
X299162Y149730D01*
Y149764D01*
Y149776D01*
X299150Y149869D01*
X299127Y149938D01*
X299092Y149984D01*
X299081Y149996D01*
X299011Y150054D01*
X298942Y150100D01*
X298896Y150111D01*
X298884Y150123D01*
X298873D01*
X298664Y150158D01*
D02*
G37*
G36*
X292197Y150285D02*
X292127D01*
Y149568D01*
X292197Y149545D01*
X292254Y149510D01*
X292347Y149475D01*
X292393Y149452D01*
X292405Y149440D01*
X292451Y149394D01*
X292486Y149359D01*
X292509Y149313D01*
X292521Y149302D01*
X292567Y149186D01*
X292590Y149070D01*
X292602Y149012D01*
Y148966D01*
Y148943D01*
Y148931D01*
Y144419D01*
Y144280D01*
X292579Y144165D01*
X292567Y144072D01*
X292544Y143991D01*
X292521Y143933D01*
X292497Y143887D01*
X292486Y143864D01*
X292474Y143852D01*
X292440Y143806D01*
X292405Y143771D01*
X292382Y143760D01*
X292370Y143748D01*
X292347Y143736D01*
X292312Y143725D01*
X292231Y143690D01*
X292162Y143678D01*
X292139Y143667D01*
X292127D01*
Y142938D01*
X292359Y142961D01*
X292590Y142996D01*
X292798Y143042D01*
X292995Y143112D01*
X293180Y143169D01*
X293342Y143250D01*
X293504Y143320D01*
X293643Y143401D01*
X293759Y143470D01*
X293874Y143540D01*
X293967Y143609D01*
X294048Y143667D01*
X294106Y143725D01*
X294152Y143760D01*
X294175Y143783D01*
X294187Y143794D01*
X294372Y143991D01*
X294522Y144211D01*
X294661Y144431D01*
X294777Y144662D01*
X294881Y144893D01*
X294962Y145125D01*
X295031Y145356D01*
X295089Y145576D01*
X295135Y145784D01*
X295159Y145981D01*
X295182Y146154D01*
X295205Y146305D01*
Y146421D01*
X295216Y146513D01*
Y146594D01*
X295205Y146930D01*
X295170Y147242D01*
X295112Y147543D01*
X295055Y147809D01*
X294962Y148075D01*
X294881Y148307D01*
X294777Y148526D01*
X294684Y148712D01*
X294580Y148885D01*
X294476Y149035D01*
X294395Y149163D01*
X294314Y149278D01*
X294245Y149359D01*
X294187Y149417D01*
X294152Y149452D01*
X294141Y149463D01*
X293990Y149602D01*
X293840Y149718D01*
X293689Y149822D01*
X293562Y149903D01*
X293446Y149973D01*
X293354Y150019D01*
X293296Y150042D01*
X293273Y150054D01*
X293088Y150123D01*
X292891Y150181D01*
X292706Y150216D01*
X292521Y150250D01*
X292370Y150262D01*
X292243Y150273D01*
X292197Y150285D01*
D02*
G37*
G36*
X291931D02*
X291688Y150273D01*
X291456Y150239D01*
X291260Y150204D01*
X291097Y150158D01*
X290959Y150123D01*
X290855Y150088D01*
X290797Y150065D01*
X290774Y150054D01*
X290600Y149973D01*
X290438Y149880D01*
X290299Y149776D01*
X290172Y149683D01*
X290056Y149602D01*
X289975Y149533D01*
X289929Y149487D01*
X289906Y149463D01*
X289721Y149255D01*
X289559Y149047D01*
X289420Y148839D01*
X289304Y148642D01*
X289223Y148468D01*
X289189Y148399D01*
X289154Y148341D01*
X289131Y148283D01*
X289119Y148249D01*
X289107Y148225D01*
Y148214D01*
X289026Y147936D01*
X288957Y147659D01*
X288911Y147381D01*
X288888Y147138D01*
X288876Y147022D01*
X288864Y146918D01*
Y146826D01*
X288853Y146745D01*
Y146594D01*
X288864Y146270D01*
X288899Y145958D01*
X288946Y145669D01*
X289015Y145402D01*
X289084Y145148D01*
X289177Y144916D01*
X289258Y144708D01*
X289362Y144523D01*
X289455Y144350D01*
X289547Y144211D01*
X289628Y144083D01*
X289698Y143979D01*
X289767Y143898D01*
X289813Y143841D01*
X289848Y143806D01*
X289860Y143794D01*
X290010Y143655D01*
X290172Y143540D01*
X290346Y143436D01*
X290519Y143343D01*
X290693Y143262D01*
X290866Y143193D01*
X291190Y143077D01*
X291340Y143042D01*
X291479Y143007D01*
X291607Y142984D01*
X291722Y142961D01*
X291803Y142950D01*
X291873D01*
X291919Y142938D01*
X291931D01*
Y143655D01*
X291827Y143690D01*
X291745Y143725D01*
X291688Y143760D01*
X291641Y143794D01*
X291607Y143817D01*
X291583Y143841D01*
X291560Y143864D01*
X291526Y143933D01*
X291502Y144014D01*
X291479Y144199D01*
X291468Y144280D01*
Y144350D01*
Y144396D01*
Y144419D01*
Y148931D01*
Y149024D01*
X291479Y149116D01*
X291491Y149186D01*
X291514Y149244D01*
X291526Y149278D01*
X291537Y149313D01*
X291549Y149336D01*
X291583Y149382D01*
X291641Y149429D01*
X291769Y149498D01*
X291827Y149533D01*
X291884Y149545D01*
X291919Y149568D01*
X291931D01*
Y150285D01*
D02*
G37*
G36*
X280557Y146768D02*
X278451D01*
X278278Y146756D01*
X278209Y146733D01*
X278151Y146721D01*
X278104Y146698D01*
X278070Y146675D01*
X278058Y146664D01*
X278047D01*
X278000Y146629D01*
X277966Y146583D01*
X277919Y146490D01*
X277896Y146421D01*
Y146397D01*
Y146386D01*
X277908Y146282D01*
X277942Y146201D01*
X277989Y146131D01*
X278047Y146085D01*
X278104Y146050D01*
X278151Y146027D01*
X278185Y146004D01*
X278197D01*
X278266Y145993D01*
X278324Y145981D01*
X278359Y145969D01*
X278382Y145958D01*
X278417Y145946D01*
X278451Y145935D01*
X278463Y145923D01*
X278498Y145865D01*
X278509Y145784D01*
X278521Y145726D01*
Y145715D01*
Y145703D01*
Y144222D01*
X278509Y144083D01*
X278486Y143968D01*
X278451Y143898D01*
X278440Y143887D01*
Y143875D01*
X278417Y143829D01*
X278382Y143794D01*
X278359Y143771D01*
X278347Y143760D01*
X278324Y143748D01*
X278278Y143736D01*
X278197Y143702D01*
X278116Y143690D01*
X278093Y143678D01*
X278081D01*
Y142938D01*
X278347Y142950D01*
X278475Y142961D01*
X278579Y142973D01*
X278671Y142984D01*
X278741Y142996D01*
X278787Y143007D01*
X278799D01*
X279053Y143054D01*
X279157Y143088D01*
X279261Y143112D01*
X279342Y143146D01*
X279400Y143158D01*
X279447Y143181D01*
X279458D01*
X279666Y143285D01*
X279770Y143331D01*
X279863Y143389D01*
X279944Y143436D01*
X280013Y143470D01*
X280060Y143493D01*
X280071Y143505D01*
X280199Y143586D01*
X280314Y143667D01*
X280418Y143748D01*
X280511Y143817D01*
X280580Y143875D01*
X280627Y143921D01*
X280661Y143956D01*
X280673Y143968D01*
Y145726D01*
Y145819D01*
X280684Y145877D01*
Y145900D01*
Y145912D01*
X280708Y145935D01*
X280731Y145969D01*
X280754Y145981D01*
X280766Y145993D01*
X280847Y146062D01*
X280904Y146120D01*
X280927Y146154D01*
X280939Y146166D01*
X280974Y146236D01*
X280985Y146305D01*
X280997Y146351D01*
Y146444D01*
X280974Y146513D01*
X280927Y146606D01*
X280881Y146664D01*
X280870Y146675D01*
X280858D01*
X280800Y146710D01*
X280742Y146733D01*
X280615Y146756D01*
X280557Y146768D01*
D02*
G37*
G36*
X277977Y150285D02*
X277838D01*
X277711Y150273D01*
X277607D01*
X277526Y150262D01*
X277456Y150250D01*
X277410D01*
X277376Y150239D01*
X277364D01*
X277190Y150181D01*
X277017Y150123D01*
X276866Y150054D01*
X276728Y149984D01*
X276612Y149926D01*
X276519Y149869D01*
X276473Y149834D01*
X276450Y149822D01*
X276184Y149626D01*
X275964Y149406D01*
X275767Y149186D01*
X275605Y148966D01*
X275478Y148781D01*
X275432Y148688D01*
X275385Y148619D01*
X275362Y148561D01*
X275339Y148515D01*
X275316Y148492D01*
Y148480D01*
X275189Y148156D01*
X275085Y147809D01*
X275015Y147485D01*
X274969Y147184D01*
X274957Y147045D01*
X274946Y146918D01*
X274934Y146802D01*
Y146710D01*
X274923Y146629D01*
Y146525D01*
X274934Y146317D01*
X274946Y146108D01*
X275004Y145726D01*
X275085Y145391D01*
X275131Y145229D01*
X275177Y145090D01*
X275223Y144963D01*
X275270Y144847D01*
X275316Y144743D01*
X275351Y144662D01*
X275385Y144592D01*
X275409Y144546D01*
X275432Y144512D01*
Y144500D01*
X275524Y144326D01*
X275617Y144153D01*
X275733Y144014D01*
X275837Y143875D01*
X275929Y143771D01*
X276010Y143690D01*
X276057Y143644D01*
X276080Y143621D01*
X276253Y143482D01*
X276427Y143378D01*
X276589Y143274D01*
X276751Y143204D01*
X276878Y143146D01*
X276982Y143100D01*
X277052Y143077D01*
X277063Y143065D01*
X277075D01*
X277225Y143019D01*
X277352Y142984D01*
X277387Y142973D01*
X277422Y142961D01*
X277445D01*
X277503Y142950D01*
X277572D01*
X277723Y142938D01*
X277885D01*
Y143667D01*
X277804Y143702D01*
X277734Y143736D01*
X277688Y143760D01*
X277653Y143794D01*
X277607Y143829D01*
X277595Y143841D01*
X277572Y143898D01*
X277561Y143956D01*
X277549Y144083D01*
X277537Y144130D01*
Y144176D01*
Y144211D01*
Y144222D01*
Y148920D01*
X277561Y149093D01*
X277607Y149232D01*
X277676Y149348D01*
X277757Y149429D01*
X277838Y149487D01*
X277908Y149521D01*
X277954Y149545D01*
X277977D01*
Y150285D01*
D02*
G37*
G36*
X285382Y150158D02*
X284815D01*
Y149406D01*
X284942Y149371D01*
X285046Y149325D01*
X285127Y149290D01*
X285197Y149255D01*
X285232Y149221D01*
X285266Y149197D01*
X285289Y149186D01*
Y149174D01*
X285324Y149116D01*
X285347Y149059D01*
X285382Y148920D01*
X285394Y148862D01*
Y148816D01*
Y148781D01*
Y148769D01*
Y147427D01*
Y147288D01*
X285382Y147196D01*
X285370Y147150D01*
X285359Y147126D01*
X285324Y147057D01*
X285278Y146987D01*
X285232Y146941D01*
X285220Y146918D01*
X285185Y146906D01*
X285139Y146883D01*
X285012Y146860D01*
X284942Y146849D01*
X284885Y146837D01*
X284850Y146826D01*
X284838D01*
Y146108D01*
X284942Y146097D01*
X285035Y146062D01*
X285104Y146039D01*
X285162Y146004D01*
X285208Y145981D01*
X285232Y145958D01*
X285255Y145946D01*
Y145935D01*
X285324Y145831D01*
X285359Y145726D01*
X285370Y145692D01*
X285382Y145657D01*
Y145634D01*
Y145622D01*
Y145599D01*
X285394Y145564D01*
Y145460D01*
Y145402D01*
Y145368D01*
Y145333D01*
Y145322D01*
Y144465D01*
X285405Y144211D01*
X285451Y143991D01*
X285521Y143794D01*
X285590Y143632D01*
X285660Y143505D01*
X285729Y143412D01*
X285775Y143354D01*
X285787Y143331D01*
X285949Y143193D01*
X286134Y143100D01*
X286319Y143031D01*
X286504Y142973D01*
X286666Y142950D01*
X286793Y142938D01*
X286840Y142927D01*
X287036D01*
X287152Y142938D01*
X287256Y142950D01*
X287337Y142973D01*
X287407Y142984D01*
X287465Y142996D01*
X287499Y143007D01*
X287511D01*
X287696Y143077D01*
X287777Y143112D01*
X287858Y143158D01*
X287916Y143193D01*
X287962Y143227D01*
X287985Y143239D01*
X287997Y143250D01*
X288159Y143401D01*
X288286Y143540D01*
X288332Y143597D01*
X288379Y143644D01*
X288390Y143678D01*
X288402Y143690D01*
X288460Y143783D01*
X288494Y143864D01*
X288541Y143991D01*
X288552Y144049D01*
X288564Y144083D01*
Y144165D01*
X288541Y144211D01*
X288506Y144292D01*
X288460Y144350D01*
X288448Y144373D01*
X288436D01*
X288390Y144419D01*
X288344Y144442D01*
X288263Y144488D01*
X288205Y144500D01*
X288182D01*
X288112Y144488D01*
X288055Y144465D01*
X287939Y144384D01*
X287893Y144338D01*
X287858Y144303D01*
X287846Y144280D01*
X287835Y144269D01*
X287800Y144234D01*
Y144245D01*
Y144257D01*
Y144269D01*
Y145322D01*
Y145414D01*
X287777Y145507D01*
X287765Y145588D01*
X287742Y145657D01*
X287719Y145726D01*
X287696Y145773D01*
X287684Y145796D01*
X287673Y145807D01*
X287557Y145981D01*
X287441Y146108D01*
X287384Y146166D01*
X287337Y146201D01*
X287314Y146224D01*
X287303Y146236D01*
X287141Y146340D01*
X286990Y146409D01*
X286921Y146444D01*
X286875Y146467D01*
X286840Y146478D01*
X286828D01*
X286620Y146536D01*
X286516Y146548D01*
X286412Y146559D01*
X286319Y146571D01*
X286192D01*
X286342Y146583D01*
X286481Y146606D01*
X286597Y146629D01*
X286701Y146652D01*
X286782Y146675D01*
X286840Y146698D01*
X286875Y146721D01*
X286886D01*
X287071Y146826D01*
X287152Y146883D01*
X287222Y146930D01*
X287268Y146976D01*
X287314Y147011D01*
X287337Y147034D01*
X287349Y147045D01*
X287511Y147242D01*
X287627Y147439D01*
X287719Y147647D01*
X287777Y147844D01*
X287812Y148017D01*
X287823Y148098D01*
Y148156D01*
X287835Y148214D01*
Y148249D01*
Y148272D01*
Y148283D01*
X287823Y148457D01*
X287800Y148607D01*
X287765Y148758D01*
X287719Y148897D01*
X287603Y149140D01*
X287476Y149348D01*
X287349Y149498D01*
X287233Y149614D01*
X287187Y149660D01*
X287152Y149683D01*
X287129Y149706D01*
X287118D01*
X286932Y149822D01*
X286747Y149915D01*
X286562Y149984D01*
X286388Y150042D01*
X286238Y150077D01*
X286122Y150100D01*
X286076D01*
X286041Y150111D01*
X286018D01*
X285856Y150123D01*
X285694Y150135D01*
X285532Y150146D01*
X285382Y150158D01*
D02*
G37*
%LPD*%
D10*
X299592Y270500D02*
G03*
X299592Y270500I-492J0D01*
G01*
X342592Y311000D02*
G03*
X342592Y311000I-492J0D01*
G01*
X300392Y206600D02*
G03*
X300392Y206600I-492J0D01*
G01*
X342292Y244700D02*
G03*
X342292Y244700I-492J0D01*
G01*
D11*
X401445Y233300D02*
G03*
X401445Y233300I-300J0D01*
G01*
Y239800D02*
G03*
X401445Y239800I-300J0D01*
G01*
X400108Y299690D02*
G03*
X400108Y299690I-300J0D01*
G01*
Y305690D02*
G03*
X400108Y305690I-300J0D01*
G01*
D12*
X241213Y186000D02*
Y189000D01*
X317446Y248425D02*
Y251425D01*
X270400Y213600D02*
X273400D01*
X270400Y227100D02*
X273400D01*
X354313Y177600D02*
Y180600D01*
X347813Y184100D02*
Y187100D01*
X376900Y186100D02*
Y189100D01*
X396400Y215613D02*
X399400D01*
X404500Y236300D02*
X407500D01*
X317347Y236925D02*
Y239925D01*
X360599Y184127D02*
Y187127D01*
X389400Y215613D02*
X392400D01*
X382500Y236300D02*
X385500D01*
X317347Y231425D02*
Y234425D01*
X317500Y242925D02*
Y245925D01*
X353600Y316075D02*
Y319075D01*
X358788Y322020D02*
Y325020D01*
X365600Y316075D02*
Y319075D01*
X389100Y284287D02*
X392100D01*
X403525Y302500D02*
X406525D01*
X381525Y303000D02*
X384525D01*
X375100Y249500D02*
Y252500D01*
X394600Y284287D02*
X397600D01*
X267000Y276600D02*
X270000D01*
X317387Y295500D02*
Y298500D01*
Y301000D02*
Y304000D01*
X317448Y306889D02*
Y309889D01*
X317687Y312600D02*
Y315600D01*
X266900Y291100D02*
X269900D01*
D13*
X361250Y146000D02*
X362750Y147500D01*
X361250Y149000D02*
X362750Y147500D01*
X334250D02*
X362750D01*
X334250D02*
Y150000D01*
X334750Y359000D02*
Y361500D01*
Y359000D02*
X363250D01*
X361750Y360500D02*
X363250Y359000D01*
X361750Y357500D02*
X363250Y359000D01*
X418330Y194429D02*
X495811D01*
X418330Y316476D02*
X495811D01*
X418330Y194429D02*
Y316476D01*
X495811Y194429D02*
Y316476D01*
X435343Y136252D02*
Y140189D01*
X415658Y167748D02*
X455027D01*
X415658Y136252D02*
Y167748D01*
X455027Y136252D02*
Y167748D01*
X415658Y136252D02*
X455027D01*
X435358Y373811D02*
Y377748D01*
X415672Y346252D02*
X455043D01*
Y377748D01*
X415672Y346252D02*
Y377748D01*
X455043D01*
X395500Y136252D02*
Y140189D01*
X375815Y167748D02*
X415185D01*
X375815Y136252D02*
Y167748D01*
X415185Y136252D02*
Y167748D01*
X375815Y136252D02*
X415185D01*
X395642Y373811D02*
Y377748D01*
X375957Y346252D02*
X415328D01*
Y377748D01*
X375957Y346252D02*
Y377748D01*
X415328D01*
X260248Y195551D02*
Y317598D01*
X200012D02*
X260248D01*
X200012Y195551D02*
Y317598D01*
Y195551D02*
X260248D01*
X227001Y171499D02*
X225668D01*
X226334D01*
Y168167D01*
X225668Y167501D01*
X225001D01*
X224335Y168167D01*
X228334Y167501D02*
Y171499D01*
X230333D01*
X230999Y170833D01*
Y169500D01*
X230333Y168833D01*
X228334D01*
X232332Y167501D02*
X233665D01*
X232999D01*
Y171499D01*
X232332Y170833D01*
X238834Y179501D02*
Y183499D01*
X240834D01*
X241500Y182833D01*
Y181500D01*
X240834Y180833D01*
X238834D01*
X240167D02*
X241500Y179501D01*
X242833D02*
X244166D01*
X243499D01*
Y183499D01*
X242833Y182833D01*
X415333Y205999D02*
X415999Y206665D01*
Y207998D01*
X415333Y208664D01*
X412667D01*
X412001Y207998D01*
Y206665D01*
X412667Y205999D01*
X415999Y202666D02*
Y203999D01*
X415333Y204666D01*
X412667D01*
X412001Y203999D01*
Y202666D01*
X412667Y202000D01*
X415333D01*
X415999Y202666D01*
X412001Y200667D02*
X415999D01*
X412001Y198001D01*
X415999D01*
X412001Y196668D02*
Y195335D01*
Y196002D01*
X415999D01*
X415333Y196668D01*
X280050Y299799D02*
Y296466D01*
X280716Y295800D01*
X282049D01*
X282716Y296466D01*
Y299799D01*
X286715Y295800D02*
X284049D01*
X286715Y298466D01*
Y299132D01*
X286048Y299799D01*
X284715D01*
X284049Y299132D01*
X288047Y299799D02*
Y295800D01*
X290047D01*
X290713Y296466D01*
Y297133D01*
X290047Y297799D01*
X288047D01*
X290047D01*
X290713Y298466D01*
Y299132D01*
X290047Y299799D01*
X288047D01*
X280900Y235799D02*
Y232466D01*
X281566Y231800D01*
X282899D01*
X283566Y232466D01*
Y235799D01*
X287564Y231800D02*
X284899D01*
X287564Y234466D01*
Y235132D01*
X286898Y235799D01*
X285565D01*
X284899Y235132D01*
X288897Y231800D02*
Y234466D01*
X290230Y235799D01*
X291563Y234466D01*
Y231800D01*
Y233799D01*
X288897D01*
X345002Y255999D02*
Y252667D01*
X345668Y252001D01*
X347001D01*
X347667Y252667D01*
Y255999D01*
X349000Y252001D02*
X350333D01*
X349667D01*
Y255999D01*
X349000Y255333D01*
X352333Y255999D02*
Y252001D01*
X354332D01*
X354998Y252667D01*
Y253334D01*
X354332Y254000D01*
X352333D01*
X354332D01*
X354998Y254666D01*
Y255333D01*
X354332Y255999D01*
X352333D01*
X345002Y248999D02*
Y245667D01*
X345668Y245001D01*
X347001D01*
X347667Y245667D01*
Y248999D01*
X349000Y245001D02*
X350333D01*
X349667D01*
Y248999D01*
X349000Y248333D01*
X352333Y245001D02*
Y247666D01*
X353665Y248999D01*
X354998Y247666D01*
Y245001D01*
Y247000D01*
X352333D01*
X382768Y249001D02*
Y252999D01*
X384768D01*
X385434Y252333D01*
Y251000D01*
X384768Y250334D01*
X382768D01*
X384101D02*
X385434Y249001D01*
X389433Y252999D02*
X388100Y252333D01*
X386767Y251000D01*
Y249667D01*
X387434Y249001D01*
X388766D01*
X389433Y249667D01*
Y250334D01*
X388766Y251000D01*
X386767D01*
X390766Y252999D02*
Y249001D01*
X392765D01*
X393432Y249667D01*
Y250334D01*
X392765Y251000D01*
X390766D01*
X392765D01*
X393432Y251666D01*
Y252333D01*
X392765Y252999D01*
X390766D01*
X384568Y185601D02*
Y189599D01*
X386568D01*
X387234Y188933D01*
Y187600D01*
X386568Y186934D01*
X384568D01*
X385901D02*
X387234Y185601D01*
X391233Y189599D02*
X389900Y188933D01*
X388567Y187600D01*
Y186267D01*
X389234Y185601D01*
X390566D01*
X391233Y186267D01*
Y186934D01*
X390566Y187600D01*
X388567D01*
X392566Y185601D02*
Y188267D01*
X393899Y189599D01*
X395232Y188267D01*
Y185601D01*
Y187600D01*
X392566D01*
X340768Y321001D02*
Y324999D01*
X342768D01*
X343434Y324333D01*
Y323000D01*
X342768Y322334D01*
X340768D01*
X342101D02*
X343434Y321001D01*
X347433Y324999D02*
X344767D01*
Y323000D01*
X346100Y323666D01*
X346766D01*
X347433Y323000D01*
Y321667D01*
X346766Y321001D01*
X345434D01*
X344767Y321667D01*
X348766Y324999D02*
Y321001D01*
X350765D01*
X351432Y321667D01*
Y322334D01*
X350765Y323000D01*
X348766D01*
X350765D01*
X351432Y323666D01*
Y324333D01*
X350765Y324999D01*
X348766D01*
X362168Y177701D02*
Y181699D01*
X364168D01*
X364834Y181033D01*
Y179700D01*
X364168Y179034D01*
X362168D01*
X363501D02*
X364834Y177701D01*
X368833Y181699D02*
X366167D01*
Y179700D01*
X367500Y180367D01*
X368166D01*
X368833Y179700D01*
Y178367D01*
X368166Y177701D01*
X366834D01*
X366167Y178367D01*
X370166Y177701D02*
Y180367D01*
X371499Y181699D01*
X372832Y180367D01*
Y177701D01*
Y179700D01*
X370166D01*
X266475Y308644D02*
X270474D01*
Y306645D01*
X269808Y305978D01*
X268475D01*
X267808Y306645D01*
Y308644D01*
Y307311D02*
X266475Y305978D01*
Y302646D02*
X270474D01*
X268475Y304645D01*
Y301980D01*
X270474Y300647D02*
X266475D01*
Y298647D01*
X267142Y297981D01*
X267808D01*
X268475Y298647D01*
Y300647D01*
Y298647D01*
X269141Y297981D01*
X269808D01*
X270474Y298647D01*
Y300647D01*
X269901Y245432D02*
X273899D01*
Y243432D01*
X273233Y242766D01*
X271900D01*
X271234Y243432D01*
Y245432D01*
Y244099D02*
X269901Y242766D01*
Y239434D02*
X273899D01*
X271900Y241433D01*
Y238767D01*
X269901Y237434D02*
X272566D01*
X273899Y236101D01*
X272566Y234768D01*
X269901D01*
X271900D01*
Y237434D01*
X367268Y321001D02*
Y324999D01*
X369268D01*
X369934Y324333D01*
Y323000D01*
X369268Y322334D01*
X367268D01*
X368601D02*
X369934Y321001D01*
X371267Y324333D02*
X371934Y324999D01*
X373266D01*
X373933Y324333D01*
Y323666D01*
X373266Y323000D01*
X372600D01*
X373266D01*
X373933Y322334D01*
Y321667D01*
X373266Y321001D01*
X371934D01*
X371267Y321667D01*
X375266Y324999D02*
Y321001D01*
X377265D01*
X377932Y321667D01*
Y322334D01*
X377265Y323000D01*
X375266D01*
X377265D01*
X377932Y323666D01*
Y324333D01*
X377265Y324999D01*
X375266D01*
X335368Y178201D02*
Y182199D01*
X337368D01*
X338034Y181533D01*
Y180200D01*
X337368Y179534D01*
X335368D01*
X336701D02*
X338034Y178201D01*
X339367Y181533D02*
X340034Y182199D01*
X341366D01*
X342033Y181533D01*
Y180867D01*
X341366Y180200D01*
X340700D01*
X341366D01*
X342033Y179534D01*
Y178867D01*
X341366Y178201D01*
X340034D01*
X339367Y178867D01*
X343366Y178201D02*
Y180867D01*
X344699Y182199D01*
X346032Y180867D01*
Y178201D01*
Y180200D01*
X343366D01*
X266575Y268991D02*
X270574D01*
Y266991D01*
X269908Y266325D01*
X268575D01*
X267908Y266991D01*
Y268991D01*
Y267658D02*
X266575Y266325D01*
Y262326D02*
Y264992D01*
X269241Y262326D01*
X269908D01*
X270574Y262993D01*
Y264325D01*
X269908Y264992D01*
X270574Y260993D02*
X266575D01*
Y258994D01*
X267242Y258327D01*
X267908D01*
X268575Y258994D01*
Y260993D01*
Y258994D01*
X269241Y258327D01*
X269908D01*
X270574Y258994D01*
Y260993D01*
X269901Y206432D02*
X273899D01*
Y204432D01*
X273233Y203766D01*
X271900D01*
X271234Y204432D01*
Y206432D01*
Y205099D02*
X269901Y203766D01*
Y199767D02*
Y202433D01*
X272566Y199767D01*
X273233D01*
X273899Y200433D01*
Y201766D01*
X273233Y202433D01*
X269901Y198434D02*
X272566D01*
X273899Y197101D01*
X272566Y195768D01*
X269901D01*
X271900D01*
Y198434D01*
X391359Y313499D02*
X388694D01*
Y309501D01*
X391359D01*
X388694Y311500D02*
X390026D01*
X395358Y309501D02*
X392692D01*
X395358Y312166D01*
Y312833D01*
X394692Y313499D01*
X393359D01*
X392692Y312833D01*
X396691Y313499D02*
Y309501D01*
X398690D01*
X399357Y310167D01*
Y310834D01*
X398690Y311500D01*
X396691D01*
X398690D01*
X399357Y312166D01*
Y312833D01*
X398690Y313499D01*
X396691D01*
X392334Y246999D02*
X389668D01*
Y243001D01*
X392334D01*
X389668Y245000D02*
X391001D01*
X396333Y243001D02*
X393667D01*
X396333Y245666D01*
Y246333D01*
X395666Y246999D01*
X394334D01*
X393667Y246333D01*
X397666Y243001D02*
Y245666D01*
X398999Y246999D01*
X400332Y245666D01*
Y243001D01*
Y245000D01*
X397666D01*
X391193Y295999D02*
X388527D01*
Y292001D01*
X391193D01*
X388527Y294000D02*
X389860D01*
X392526Y292001D02*
X393858D01*
X393192D01*
Y295999D01*
X392526Y295333D01*
X395858Y295999D02*
Y292001D01*
X397857D01*
X398524Y292667D01*
Y293334D01*
X397857Y294000D01*
X395858D01*
X397857D01*
X398524Y294666D01*
Y295333D01*
X397857Y295999D01*
X395858D01*
X392667Y229299D02*
X390002D01*
Y225301D01*
X392667D01*
X390002Y227300D02*
X391335D01*
X394000Y225301D02*
X395333D01*
X394667D01*
Y229299D01*
X394000Y228633D01*
X397333Y225301D02*
Y227966D01*
X398665Y229299D01*
X399998Y227966D01*
Y225301D01*
Y227300D01*
X397333D01*
X371333Y370665D02*
X371999Y371331D01*
Y372664D01*
X371333Y373330D01*
X368667D01*
X368001Y372664D01*
Y371331D01*
X368667Y370665D01*
X371999Y367332D02*
Y368665D01*
X371333Y369332D01*
X368667D01*
X368001Y368665D01*
Y367332D01*
X368667Y366666D01*
X371333D01*
X371999Y367332D01*
X368001Y365333D02*
X371999D01*
X368001Y362667D01*
X371999D01*
X368001Y359335D02*
X371999D01*
X370000Y361334D01*
Y358668D01*
X371999Y357335D02*
X368001D01*
Y355336D01*
X368667Y354670D01*
X369334D01*
X370000Y355336D01*
Y357335D01*
Y355336D01*
X370666Y354670D01*
X371333D01*
X371999Y355336D01*
Y357335D01*
X461675Y158165D02*
X462342Y158831D01*
Y160164D01*
X461675Y160830D01*
X459010D01*
X458343Y160164D01*
Y158831D01*
X459010Y158165D01*
X462342Y154832D02*
Y156165D01*
X461675Y156832D01*
X459010D01*
X458343Y156165D01*
Y154832D01*
X459010Y154166D01*
X461675D01*
X462342Y154832D01*
X458343Y152833D02*
X462342D01*
X458343Y150167D01*
X462342D01*
X458343Y146835D02*
X462342D01*
X460343Y148834D01*
Y146168D01*
X458343Y144835D02*
X461009D01*
X462342Y143503D01*
X461009Y142170D01*
X458343D01*
X460343D01*
Y144835D01*
X461333Y369665D02*
X461999Y370331D01*
Y371664D01*
X461333Y372330D01*
X458667D01*
X458001Y371664D01*
Y370331D01*
X458667Y369665D01*
X461999Y366332D02*
Y367665D01*
X461333Y368332D01*
X458667D01*
X458001Y367665D01*
Y366332D01*
X458667Y365666D01*
X461333D01*
X461999Y366332D01*
X458001Y364333D02*
X461999D01*
X458001Y361667D01*
X461999D01*
X461333Y360334D02*
X461999Y359668D01*
Y358335D01*
X461333Y357668D01*
X460666D01*
X460000Y358335D01*
Y359001D01*
Y358335D01*
X459334Y357668D01*
X458667D01*
X458001Y358335D01*
Y359668D01*
X458667Y360334D01*
X461999Y356335D02*
X458001D01*
Y354336D01*
X458667Y353670D01*
X459334D01*
X460000Y354336D01*
Y356335D01*
Y354336D01*
X460666Y353670D01*
X461333D01*
X461999Y354336D01*
Y356335D01*
X372333Y159165D02*
X372999Y159831D01*
Y161164D01*
X372333Y161830D01*
X369667D01*
X369001Y161164D01*
Y159831D01*
X369667Y159165D01*
X372999Y155832D02*
Y157165D01*
X372333Y157832D01*
X369667D01*
X369001Y157165D01*
Y155832D01*
X369667Y155166D01*
X372333D01*
X372999Y155832D01*
X369001Y153833D02*
X372999D01*
X369001Y151167D01*
X372999D01*
X372333Y149834D02*
X372999Y149168D01*
Y147835D01*
X372333Y147168D01*
X371666D01*
X371000Y147835D01*
Y148501D01*
Y147835D01*
X370334Y147168D01*
X369667D01*
X369001Y147835D01*
Y149168D01*
X369667Y149834D01*
X369001Y145835D02*
X371666D01*
X372999Y144503D01*
X371666Y143170D01*
X369001D01*
X371000D01*
Y145835D01*
X205335Y190786D02*
X204668Y191452D01*
X203335D01*
X202669Y190786D01*
Y188120D01*
X203335Y187453D01*
X204668D01*
X205335Y188120D01*
X208667Y191452D02*
X207334D01*
X206668Y190786D01*
Y188120D01*
X207334Y187453D01*
X208667D01*
X209334Y188120D01*
Y190786D01*
X208667Y191452D01*
X210666Y187453D02*
Y191452D01*
X213332Y187453D01*
Y191452D01*
X217331Y187453D02*
X214665D01*
X217331Y190119D01*
Y190786D01*
X216665Y191452D01*
X215332D01*
X214665Y190786D01*
X397433Y275166D02*
X398099Y275832D01*
Y277165D01*
X397433Y277832D01*
X394767D01*
X394101Y277165D01*
Y275832D01*
X394767Y275166D01*
Y273833D02*
X394101Y273166D01*
Y271834D01*
X394767Y271167D01*
X397433D01*
X398099Y271834D01*
Y273166D01*
X397433Y273833D01*
X396766D01*
X396100Y273166D01*
Y271167D01*
X398099Y269834D02*
X394101D01*
Y267835D01*
X394767Y267168D01*
X395434D01*
X396100Y267835D01*
Y269834D01*
Y267835D01*
X396766Y267168D01*
X397433D01*
X398099Y267835D01*
Y269834D01*
X399233Y206278D02*
X399899Y206945D01*
Y208278D01*
X399233Y208944D01*
X396567D01*
X395901Y208278D01*
Y206945D01*
X396567Y206278D01*
Y204945D02*
X395901Y204279D01*
Y202946D01*
X396567Y202280D01*
X399233D01*
X399899Y202946D01*
Y204279D01*
X399233Y204945D01*
X398566D01*
X397900Y204279D01*
Y202280D01*
X395901Y200947D02*
X398566D01*
X399899Y199614D01*
X398566Y198281D01*
X395901D01*
X397900D01*
Y200947D01*
X391933Y274666D02*
X392599Y275332D01*
Y276665D01*
X391933Y277332D01*
X389267D01*
X388601Y276665D01*
Y275332D01*
X389267Y274666D01*
X391933Y273333D02*
X392599Y272666D01*
Y271334D01*
X391933Y270667D01*
X391266D01*
X390600Y271334D01*
X389934Y270667D01*
X389267D01*
X388601Y271334D01*
Y272666D01*
X389267Y273333D01*
X389934D01*
X390600Y272666D01*
X391266Y273333D01*
X391933D01*
X390600Y272666D02*
Y271334D01*
X392599Y269334D02*
X388601D01*
Y267335D01*
X389267Y266668D01*
X389934D01*
X390600Y267335D01*
Y269334D01*
Y267335D01*
X391266Y266668D01*
X391933D01*
X392599Y267335D01*
Y269334D01*
X392308Y206278D02*
X392974Y206945D01*
Y208278D01*
X392308Y208944D01*
X389642D01*
X388975Y208278D01*
Y206945D01*
X389642Y206278D01*
X392308Y204945D02*
X392974Y204279D01*
Y202946D01*
X392308Y202280D01*
X391641D01*
X390975Y202946D01*
X390308Y202280D01*
X389642D01*
X388975Y202946D01*
Y204279D01*
X389642Y204945D01*
X390308D01*
X390975Y204279D01*
X391641Y204945D01*
X392308D01*
X390975Y204279D02*
Y202946D01*
X388975Y200947D02*
X391641D01*
X392974Y199614D01*
X391641Y198281D01*
X388975D01*
X390975D01*
Y200947D01*
X356434Y330833D02*
X355768Y331499D01*
X354435D01*
X353768Y330833D01*
Y328167D01*
X354435Y327501D01*
X355768D01*
X356434Y328167D01*
X357767Y331499D02*
X360433D01*
Y330833D01*
X357767Y328167D01*
Y327501D01*
X361766Y331499D02*
Y327501D01*
X363765D01*
X364432Y328167D01*
Y328834D01*
X363765Y329500D01*
X361766D01*
X363765D01*
X364432Y330166D01*
Y330833D01*
X363765Y331499D01*
X361766D01*
X351534Y174933D02*
X350868Y175599D01*
X349535D01*
X348868Y174933D01*
Y172267D01*
X349535Y171601D01*
X350868D01*
X351534Y172267D01*
X352867Y175599D02*
X355533D01*
Y174933D01*
X352867Y172267D01*
Y171601D01*
X356866D02*
Y174267D01*
X358199Y175599D01*
X359532Y174267D01*
Y171601D01*
Y173600D01*
X356866D01*
X302222Y298333D02*
X301555Y298999D01*
X300222D01*
X299556Y298333D01*
Y295667D01*
X300222Y295001D01*
X301555D01*
X302222Y295667D01*
X306220Y298999D02*
X304887Y298333D01*
X303555Y297000D01*
Y295667D01*
X304221Y295001D01*
X305554D01*
X306220Y295667D01*
Y296334D01*
X305554Y297000D01*
X303555D01*
X307553Y298999D02*
Y295001D01*
X309553D01*
X310219Y295667D01*
Y296334D01*
X309553Y297000D01*
X307553D01*
X309553D01*
X310219Y297666D01*
Y298333D01*
X309553Y298999D01*
X307553D01*
X302334Y234258D02*
X301668Y234925D01*
X300335D01*
X299668Y234258D01*
Y231592D01*
X300335Y230926D01*
X301668D01*
X302334Y231592D01*
X306333Y234925D02*
X305000Y234258D01*
X303667Y232925D01*
Y231592D01*
X304334Y230926D01*
X305666D01*
X306333Y231592D01*
Y232259D01*
X305666Y232925D01*
X303667D01*
X307666Y230926D02*
Y233592D01*
X308999Y234925D01*
X310332Y233592D01*
Y230926D01*
Y232925D01*
X307666D01*
X302522Y303933D02*
X301855Y304599D01*
X300522D01*
X299856Y303933D01*
Y301267D01*
X300522Y300601D01*
X301855D01*
X302522Y301267D01*
X306520Y304599D02*
X303854D01*
Y302600D01*
X305187Y303266D01*
X305854D01*
X306520Y302600D01*
Y301267D01*
X305854Y300601D01*
X304521D01*
X303854Y301267D01*
X307853Y304599D02*
Y300601D01*
X309853D01*
X310519Y301267D01*
Y301934D01*
X309853Y302600D01*
X307853D01*
X309853D01*
X310519Y303266D01*
Y303933D01*
X309853Y304599D01*
X307853D01*
X302181Y239758D02*
X301514Y240425D01*
X300181D01*
X299515Y239758D01*
Y237092D01*
X300181Y236426D01*
X301514D01*
X302181Y237092D01*
X306179Y240425D02*
X303514D01*
Y238425D01*
X304847Y239092D01*
X305513D01*
X306179Y238425D01*
Y237092D01*
X305513Y236426D01*
X304180D01*
X303514Y237092D01*
X307512Y236426D02*
Y239092D01*
X308845Y240425D01*
X310178Y239092D01*
Y236426D01*
Y238425D01*
X307512D01*
X406858Y317666D02*
X407525Y318332D01*
Y319665D01*
X406858Y320332D01*
X404192D01*
X403526Y319665D01*
Y318332D01*
X404192Y317666D01*
X403526Y314334D02*
X407525D01*
X405525Y316333D01*
Y313667D01*
X407525Y312334D02*
X403526D01*
Y310335D01*
X404192Y309668D01*
X404859D01*
X405525Y310335D01*
Y312334D01*
Y310335D01*
X406192Y309668D01*
X406858D01*
X407525Y310335D01*
Y312334D01*
X407333Y251466D02*
X407999Y252132D01*
Y253465D01*
X407333Y254132D01*
X404667D01*
X404001Y253465D01*
Y252132D01*
X404667Y251466D01*
X404001Y248133D02*
X407999D01*
X406000Y250133D01*
Y247467D01*
X404001Y246134D02*
X406666D01*
X407999Y244801D01*
X406666Y243468D01*
X404001D01*
X406000D01*
Y246134D01*
X384358Y318166D02*
X385025Y318832D01*
Y320165D01*
X384358Y320832D01*
X381692D01*
X381026Y320165D01*
Y318832D01*
X381692Y318166D01*
X384358Y316833D02*
X385025Y316166D01*
Y314834D01*
X384358Y314167D01*
X383692D01*
X383025Y314834D01*
Y315500D01*
Y314834D01*
X382359Y314167D01*
X381692D01*
X381026Y314834D01*
Y316166D01*
X381692Y316833D01*
X385025Y312834D02*
X381026D01*
Y310835D01*
X381692Y310168D01*
X382359D01*
X383025Y310835D01*
Y312834D01*
Y310835D01*
X383692Y310168D01*
X384358D01*
X385025Y310835D01*
Y312834D01*
X385533Y226366D02*
X386199Y227032D01*
Y228365D01*
X385533Y229032D01*
X382867D01*
X382201Y228365D01*
Y227032D01*
X382867Y226366D01*
X385533Y225033D02*
X386199Y224366D01*
Y223034D01*
X385533Y222367D01*
X384866D01*
X384200Y223034D01*
Y223700D01*
Y223034D01*
X383534Y222367D01*
X382867D01*
X382201Y223034D01*
Y224366D01*
X382867Y225033D01*
X382201Y221034D02*
X384866D01*
X386199Y219701D01*
X384866Y218368D01*
X382201D01*
X384200D01*
Y221034D01*
X302522Y309933D02*
X301855Y310599D01*
X300522D01*
X299856Y309933D01*
Y307267D01*
X300522Y306601D01*
X301855D01*
X302522Y307267D01*
X306520Y306601D02*
X303854D01*
X306520Y309266D01*
Y309933D01*
X305854Y310599D01*
X304521D01*
X303854Y309933D01*
X307853Y310599D02*
Y306601D01*
X309853D01*
X310519Y307267D01*
Y307934D01*
X309853Y308600D01*
X307853D01*
X309853D01*
X310519Y309266D01*
Y309933D01*
X309853Y310599D01*
X307853D01*
X302181Y245758D02*
X301514Y246425D01*
X300181D01*
X299515Y245758D01*
Y243092D01*
X300181Y242426D01*
X301514D01*
X302181Y243092D01*
X306179Y242426D02*
X303514D01*
X306179Y245092D01*
Y245758D01*
X305513Y246425D01*
X304180D01*
X303514Y245758D01*
X307512Y242426D02*
Y245092D01*
X308845Y246425D01*
X310178Y245092D01*
Y242426D01*
Y244425D01*
X307512D01*
X303355Y315933D02*
X302688Y316599D01*
X301356D01*
X300689Y315933D01*
Y313267D01*
X301356Y312601D01*
X302688D01*
X303355Y313267D01*
X304688Y312601D02*
X306021D01*
X305354D01*
Y316599D01*
X304688Y315933D01*
X308020Y316599D02*
Y312601D01*
X310019D01*
X310686Y313267D01*
Y313934D01*
X310019Y314600D01*
X308020D01*
X310019D01*
X310686Y315266D01*
Y315933D01*
X310019Y316599D01*
X308020D01*
X302614Y251758D02*
X301947Y252425D01*
X300615D01*
X299948Y251758D01*
Y249092D01*
X300615Y248426D01*
X301947D01*
X302614Y249092D01*
X303947Y248426D02*
X305280D01*
X304613D01*
Y252425D01*
X303947Y251758D01*
X307279Y248426D02*
Y251092D01*
X308612Y252425D01*
X309945Y251092D01*
Y248426D01*
Y250425D01*
X307279D01*
D14*
X256500Y361000D02*
X317500D01*
X316096Y139000D02*
X322000D01*
X260883D02*
X279287D01*
X260883Y183000D02*
X322000Y183000D01*
Y139000D02*
Y183000D01*
X260883Y139000D02*
Y183000D01*
X279287Y139000D02*
X316096D01*
D15*
X285600Y292500D02*
X300600D01*
X285600Y272500D02*
Y292500D01*
Y272500D02*
X300600D01*
Y292500D01*
X340600Y258000D02*
Y309000D01*
Y258000D02*
X369600D01*
Y309000D01*
X340600D02*
X369600D01*
X286400Y228600D02*
X301400D01*
X286400Y208600D02*
Y228600D01*
Y208600D02*
X301400D01*
Y228600D01*
X340300Y191700D02*
Y242700D01*
Y191700D02*
X369300D01*
Y242700D01*
X340300D02*
X369300D01*
D16*
X452466Y189632D02*
X451799Y190299D01*
X450466D01*
X449800Y189632D01*
Y186967D01*
X450466Y186300D01*
X451799D01*
X452466Y186967D01*
X453799Y186300D02*
Y188966D01*
X455132Y190299D01*
X456464Y188966D01*
Y186300D01*
Y188299D01*
X453799D01*
X457797Y186300D02*
Y190299D01*
X460463Y186300D01*
Y190299D01*
X461796D02*
Y186300D01*
X463796D01*
X464462Y186967D01*
Y187633D01*
X463796Y188299D01*
X461796D01*
X463796D01*
X464462Y188966D01*
Y189632D01*
X463796Y190299D01*
X461796D01*
X442466Y323632D02*
X441799Y324299D01*
X440466D01*
X439800Y323632D01*
Y320966D01*
X440466Y320300D01*
X441799D01*
X442466Y320966D01*
X443799Y320300D02*
Y322966D01*
X445132Y324299D01*
X446464Y322966D01*
Y320300D01*
Y322299D01*
X443799D01*
X447797Y320300D02*
Y324299D01*
X450463Y320300D01*
Y324299D01*
X451796Y320300D02*
Y322966D01*
X453129Y324299D01*
X454462Y322966D01*
Y320300D01*
Y322299D01*
X451796D01*
X422300Y190299D02*
Y186300D01*
X424299D01*
X424966Y186967D01*
Y187633D01*
X424299Y188299D01*
X422300D01*
X424299D01*
X424966Y188966D01*
Y189632D01*
X424299Y190299D01*
X422300D01*
X428298D02*
X426965D01*
X426299Y189632D01*
Y186967D01*
X426965Y186300D01*
X428298D01*
X428965Y186967D01*
Y189632D01*
X428298Y190299D01*
X430297D02*
X432963D01*
X431630D01*
Y186300D01*
X434296Y190299D02*
X436962D01*
X435629D01*
Y186300D01*
X440294Y190299D02*
X438961D01*
X438295Y189632D01*
Y186967D01*
X438961Y186300D01*
X440294D01*
X440961Y186967D01*
Y189632D01*
X440294Y190299D01*
X442294Y186300D02*
Y190299D01*
X443626Y188966D01*
X444959Y190299D01*
Y186300D01*
X446292Y188966D02*
X446959D01*
Y188299D01*
X446292D01*
Y188966D01*
Y186967D02*
X446959D01*
Y186300D01*
X446292D01*
Y186967D01*
X423800Y324299D02*
X426466D01*
X425133D01*
Y320300D01*
X429798Y324299D02*
X428465D01*
X427799Y323632D01*
Y320966D01*
X428465Y320300D01*
X429798D01*
X430465Y320966D01*
Y323632D01*
X429798Y324299D01*
X431797Y320300D02*
Y324299D01*
X433797D01*
X434463Y323632D01*
Y322299D01*
X433797Y321633D01*
X431797D01*
X435796Y322966D02*
X436463D01*
Y322299D01*
X435796D01*
Y322966D01*
Y320966D02*
X436463D01*
Y320300D01*
X435796D01*
Y320966D01*
X268300Y353300D02*
Y357299D01*
X270299D01*
X270966Y356632D01*
Y355299D01*
X270299Y354633D01*
X268300D01*
X272299Y357299D02*
X273632D01*
X272965D01*
Y353300D01*
X272299D01*
X273632D01*
X275631D02*
Y357299D01*
X278297Y353300D01*
Y357299D01*
X282295Y353300D02*
X279630D01*
X282295Y355966D01*
Y356632D01*
X281629Y357299D01*
X280296D01*
X279630Y356632D01*
X290100Y332600D02*
Y336599D01*
X292766Y332600D01*
Y336599D01*
X296764Y335932D02*
X296098Y336599D01*
X294765D01*
X294099Y335932D01*
Y333266D01*
X294765Y332600D01*
X296098D01*
X296764Y333266D01*
X269824Y336658D02*
X268491D01*
X267824Y335991D01*
Y333326D01*
X268491Y332659D01*
X269824D01*
X270490Y333326D01*
Y335991D01*
X269824Y336658D01*
X272490Y335991D02*
Y335325D01*
X271823D01*
X273156D01*
X272490D01*
Y333326D01*
X273156Y332659D01*
X275155Y336658D02*
Y332659D01*
Y334658D01*
X275822Y335325D01*
X277155D01*
X277821Y334658D01*
Y332659D01*
X281153D02*
X279820D01*
X279154Y333326D01*
Y334658D01*
X279820Y335325D01*
X281153D01*
X281820Y334658D01*
Y333992D01*
X279154D01*
X283153Y335325D02*
Y332659D01*
Y333992D01*
X283819Y334658D01*
X284486Y335325D01*
X285152D01*
X292766Y342932D02*
X292099Y343599D01*
X290766D01*
X290100Y342932D01*
Y340266D01*
X290766Y339600D01*
X292099D01*
X292766Y340266D01*
X294099Y339600D02*
Y342266D01*
X295432Y343599D01*
X296764Y342266D01*
Y339600D01*
Y341599D01*
X294099D01*
X298097Y339600D02*
Y343599D01*
X300763Y339600D01*
Y343599D01*
X302096D02*
Y339600D01*
Y341599D01*
X304762D01*
Y343599D01*
Y339600D01*
X292966Y349632D02*
X292299Y350299D01*
X290966D01*
X290300Y349632D01*
Y346966D01*
X290966Y346300D01*
X292299D01*
X292966Y346966D01*
Y348299D01*
X291633D01*
X294299Y346300D02*
Y350299D01*
X296965Y346300D01*
Y350299D01*
X298297D02*
Y346300D01*
X300297D01*
X300963Y346966D01*
Y349632D01*
X300297Y350299D01*
X298297D01*
X292966Y356632D02*
X292299Y357299D01*
X290966D01*
X290300Y356632D01*
Y353966D01*
X290966Y353300D01*
X292299D01*
X292966Y353966D01*
X294299Y353300D02*
Y355966D01*
X295632Y357299D01*
X296965Y355966D01*
Y353300D01*
Y355299D01*
X294299D01*
X298297Y353300D02*
Y357299D01*
X300963Y353300D01*
Y357299D01*
X302296D02*
Y353300D01*
X304962D01*
X268300Y346300D02*
Y350299D01*
X270299D01*
X270966Y349632D01*
Y348299D01*
X270299Y347633D01*
X268300D01*
X272299Y350299D02*
X273632D01*
X272965D01*
Y346300D01*
X272299D01*
X273632D01*
X275631D02*
Y350299D01*
X278297Y346300D01*
Y350299D01*
X282295D02*
X280963Y349632D01*
X279630Y348299D01*
Y346966D01*
X280296Y346300D01*
X281629D01*
X282295Y346966D01*
Y347633D01*
X281629Y348299D01*
X279630D01*
X268300Y339300D02*
Y343299D01*
X270299D01*
X270966Y342632D01*
Y341299D01*
X270299Y340633D01*
X268300D01*
X272299Y343299D02*
X273632D01*
X272965D01*
Y339300D01*
X272299D01*
X273632D01*
X275631D02*
Y343299D01*
X278297Y339300D01*
Y343299D01*
X279630D02*
X282295D01*
Y342632D01*
X279630Y339966D01*
Y339300D01*
X402466Y173132D02*
X401799Y173799D01*
X400466D01*
X399800Y173132D01*
Y170466D01*
X400466Y169800D01*
X401799D01*
X402466Y170466D01*
Y171799D01*
X401133D01*
X403799Y169800D02*
Y173799D01*
X406464Y169800D01*
Y173799D01*
X407797D02*
Y169800D01*
X409797D01*
X410463Y170466D01*
Y173132D01*
X409797Y173799D01*
X407797D01*
X422466Y173132D02*
X421799Y173799D01*
X420466D01*
X419800Y173132D01*
Y170466D01*
X420466Y169800D01*
X421799D01*
X422466Y170466D01*
Y171799D01*
X421133D01*
X423799Y169800D02*
Y173799D01*
X426465Y169800D01*
Y173799D01*
X427797D02*
Y169800D01*
X429797D01*
X430463Y170466D01*
Y173132D01*
X429797Y173799D01*
X427797D01*
X381466Y173132D02*
X380799Y173799D01*
X379466D01*
X378800Y173132D01*
Y170466D01*
X379466Y169800D01*
X380799D01*
X381466Y170466D01*
X382799Y169800D02*
Y172466D01*
X384132Y173799D01*
X385465Y172466D01*
Y169800D01*
Y171799D01*
X382799D01*
X386797Y169800D02*
Y173799D01*
X389463Y169800D01*
Y173799D01*
X390796D02*
Y169800D01*
X393462D01*
X441466Y173132D02*
X440799Y173799D01*
X439466D01*
X438800Y173132D01*
Y170466D01*
X439466Y169800D01*
X440799D01*
X441466Y170466D01*
X442799Y169800D02*
Y172466D01*
X444132Y173799D01*
X445465Y172466D01*
Y169800D01*
Y171799D01*
X442799D01*
X446797Y169800D02*
Y173799D01*
X449463Y169800D01*
Y173799D01*
X450796D02*
Y169800D01*
X453462D01*
X422466Y342132D02*
X421799Y342799D01*
X420466D01*
X419800Y342132D01*
Y339466D01*
X420466Y338800D01*
X421799D01*
X422466Y339466D01*
Y340799D01*
X421133D01*
X423799Y338800D02*
Y342799D01*
X426465Y338800D01*
Y342799D01*
X427797D02*
Y338800D01*
X429797D01*
X430463Y339466D01*
Y342132D01*
X429797Y342799D01*
X427797D01*
X402466Y342132D02*
X401799Y342799D01*
X400466D01*
X399800Y342132D01*
Y339466D01*
X400466Y338800D01*
X401799D01*
X402466Y339466D01*
Y340799D01*
X401133D01*
X403799Y338800D02*
Y342799D01*
X406464Y338800D01*
Y342799D01*
X407797D02*
Y338800D01*
X409797D01*
X410463Y339466D01*
Y342132D01*
X409797Y342799D01*
X407797D01*
X440466Y342132D02*
X439799Y342799D01*
X438466D01*
X437800Y342132D01*
Y339466D01*
X438466Y338800D01*
X439799D01*
X440466Y339466D01*
X441799Y338800D02*
Y341466D01*
X443132Y342799D01*
X444464Y341466D01*
Y338800D01*
Y340799D01*
X441799D01*
X445797Y338800D02*
Y342799D01*
X448463Y338800D01*
Y342799D01*
X449796D02*
Y338800D01*
Y340799D01*
X452462D01*
Y342799D01*
Y338800D01*
X381466Y342132D02*
X380799Y342799D01*
X379466D01*
X378800Y342132D01*
Y339466D01*
X379466Y338800D01*
X380799D01*
X381466Y339466D01*
X382799Y338800D02*
Y341466D01*
X384132Y342799D01*
X385465Y341466D01*
Y338800D01*
Y340799D01*
X382799D01*
X386797Y338800D02*
Y342799D01*
X389463Y338800D01*
Y342799D01*
X390796D02*
Y338800D01*
X393462D01*
D17*
X340332Y155415D02*
X339249Y156498D01*
X337083D01*
X336000Y155415D01*
Y151083D01*
X337083Y150000D01*
X339249D01*
X340332Y151083D01*
X342498Y150000D02*
Y154332D01*
X344664Y156498D01*
X346830Y154332D01*
Y150000D01*
Y153249D01*
X342498D01*
X348996Y150000D02*
Y156498D01*
X353328Y150000D01*
Y156498D01*
X355494Y150000D02*
Y154332D01*
X357660Y156498D01*
X359826Y154332D01*
Y150000D01*
Y153249D01*
X355494D01*
X340832Y366915D02*
X339749Y367998D01*
X337583D01*
X336500Y366915D01*
Y362583D01*
X337583Y361500D01*
X339749D01*
X340832Y362583D01*
X342998Y361500D02*
Y365832D01*
X345164Y367998D01*
X347330Y365832D01*
Y361500D01*
Y364749D01*
X342998D01*
X349496Y361500D02*
Y367998D01*
X353828Y361500D01*
Y367998D01*
X355994D02*
Y361500D01*
X359243D01*
X360326Y362583D01*
Y363666D01*
X359243Y364749D01*
X355994D01*
X359243D01*
X360326Y365832D01*
Y366915D01*
X359243Y367998D01*
X355994D01*
X261500Y371498D02*
Y364500D01*
X264999D01*
X266165Y365666D01*
Y370331D01*
X264999Y371498D01*
X261500D01*
X268498D02*
Y364500D01*
X271997D01*
X273163Y365666D01*
Y366833D01*
X271997Y367999D01*
X268498D01*
X271997D01*
X273163Y369165D01*
Y370331D01*
X271997Y371498D01*
X268498D01*
X275496Y365666D02*
X276662Y364500D01*
X278994D01*
X280161Y365666D01*
Y370331D01*
X278994Y371498D01*
X276662D01*
X275496Y370331D01*
Y369165D01*
X276662Y367999D01*
X280161D01*
X289491Y371498D02*
X291824D01*
X290657D01*
Y364500D01*
X289491D01*
X291824D01*
X295322D02*
Y369165D01*
X298821D01*
X299988Y367999D01*
Y364500D01*
X303486D02*
Y370331D01*
Y367999D01*
X302320D01*
X304653D01*
X303486D01*
Y370331D01*
X304653Y371498D01*
X309318Y364500D02*
X311650D01*
X312817Y365666D01*
Y367999D01*
X311650Y369165D01*
X309318D01*
X308152Y367999D01*
Y365666D01*
X309318Y364500D01*
X285165Y178331D02*
X283999Y179498D01*
X281666D01*
X280500Y178331D01*
Y173666D01*
X281666Y172500D01*
X283999D01*
X285165Y173666D01*
X287498Y172500D02*
Y177165D01*
X289830Y179498D01*
X292163Y177165D01*
Y172500D01*
Y175999D01*
X287498D01*
X294496Y172500D02*
Y179498D01*
X299161Y172500D01*
Y179498D01*
X273500Y169498D02*
Y162500D01*
X276999D01*
X278165Y163666D01*
Y164833D01*
X276999Y165999D01*
X273500D01*
X276999D01*
X278165Y167165D01*
Y168331D01*
X276999Y169498D01*
X273500D01*
X283997D02*
X281664D01*
X280498Y168331D01*
Y163666D01*
X281664Y162500D01*
X283997D01*
X285163Y163666D01*
Y168331D01*
X283997Y169498D01*
X287495Y162500D02*
Y167165D01*
X289828Y169498D01*
X292161Y167165D01*
Y162500D01*
Y165999D01*
X287495D01*
X294493Y162500D02*
Y169498D01*
X297992D01*
X299158Y168331D01*
Y165999D01*
X297992Y164833D01*
X294493D01*
X296826D02*
X299158Y162500D01*
X301491Y169498D02*
Y162500D01*
X304990D01*
X306156Y163666D01*
Y168331D01*
X304990Y169498D01*
X301491D01*
M02*
