G04*
G04 #@! TF.GenerationSoftware,Altium Limited,Altium Designer,20.1.8 (145)*
G04*
G04 Layer_Color=16711935*
%FSLAX25Y25*%
%MOIN*%
G70*
G04*
G04 #@! TF.SameCoordinates,D3287E22-0F69-463A-97E5-025C8055979C*
G04*
G04*
G04 #@! TF.FilePolarity,Negative*
G04*
G01*
G75*
%ADD23C,0.06800*%
%ADD24R,0.06800X0.06800*%
%ADD25C,0.07099*%
%ADD26C,0.17335*%
%ADD27R,0.07099X0.07099*%
%ADD28C,0.08674*%
%ADD29R,0.08674X0.08674*%
%ADD30C,0.20485*%
%ADD31C,0.05800*%
%ADD32R,0.05800X0.05800*%
%ADD33C,0.03800*%
%ADD34C,0.30800*%
D23*
X229500Y187500D02*
D03*
D24*
Y177500D02*
D03*
D25*
X464000Y260906D02*
D03*
Y271811D02*
D03*
Y250000D02*
D03*
Y239094D02*
D03*
X452819Y233642D02*
D03*
Y244547D02*
D03*
Y266358D02*
D03*
Y255453D02*
D03*
X426205D02*
D03*
Y266358D02*
D03*
Y244547D02*
D03*
Y233642D02*
D03*
X437386Y239094D02*
D03*
Y250000D02*
D03*
Y271811D02*
D03*
Y260906D02*
D03*
D26*
X464000Y206240D02*
D03*
Y304665D02*
D03*
X432504D02*
D03*
Y206240D02*
D03*
D27*
X452819Y277264D02*
D03*
X426205D02*
D03*
D28*
X425500Y152000D02*
D03*
X445200Y362000D02*
D03*
X385658Y152000D02*
D03*
X405485Y362000D02*
D03*
D29*
X445185Y152000D02*
D03*
X425515Y362000D02*
D03*
X405342Y152000D02*
D03*
X385800Y362000D02*
D03*
D30*
X244500Y305768D02*
D03*
Y207382D02*
D03*
D31*
Y235059D02*
D03*
Y244035D02*
D03*
Y253012D02*
D03*
Y261988D02*
D03*
Y270965D02*
D03*
X254500Y275453D02*
D03*
Y266476D02*
D03*
Y257500D02*
D03*
Y248524D02*
D03*
X234500Y275453D02*
D03*
Y266476D02*
D03*
Y257500D02*
D03*
Y248524D02*
D03*
Y239547D02*
D03*
D32*
X254343Y239626D02*
D03*
D33*
X480000Y164250D02*
D03*
X491250Y153000D02*
D03*
X480000Y141750D02*
D03*
X468750Y153000D02*
D03*
X470157Y158905D02*
D03*
X474094Y162843D02*
D03*
Y143157D02*
D03*
X489843Y147095D02*
D03*
X485906Y162843D02*
D03*
X470157Y147095D02*
D03*
X485906Y143157D02*
D03*
X489843Y158905D02*
D03*
X480000Y373250D02*
D03*
X491250Y362000D02*
D03*
X480000Y350750D02*
D03*
X468750Y362000D02*
D03*
X470157Y367905D02*
D03*
X474094Y371843D02*
D03*
Y352157D02*
D03*
X489843Y356095D02*
D03*
X485906Y371843D02*
D03*
X470157Y356095D02*
D03*
X485906Y352157D02*
D03*
X489843Y367905D02*
D03*
X216000Y373250D02*
D03*
X227250Y362000D02*
D03*
X216000Y350750D02*
D03*
X204750Y362000D02*
D03*
X206157Y367905D02*
D03*
X210094Y371843D02*
D03*
Y352157D02*
D03*
X225842Y356095D02*
D03*
X221905Y371843D02*
D03*
X206157Y356095D02*
D03*
X221905Y352157D02*
D03*
X225842Y367905D02*
D03*
X216250Y163250D02*
D03*
X227500Y152000D02*
D03*
X216250Y140750D02*
D03*
X205000Y152000D02*
D03*
X206407Y157905D02*
D03*
X210345Y161843D02*
D03*
Y142157D02*
D03*
X226093Y146095D02*
D03*
X222155Y161843D02*
D03*
X206407Y146095D02*
D03*
X222155Y142157D02*
D03*
X226093Y157905D02*
D03*
D34*
X480000Y153000D02*
D03*
Y362000D02*
D03*
X216000D02*
D03*
X216250Y152000D02*
D03*
M02*
