M48
;Layer_Color=9474304
;FILE_FORMAT=2:5
INCH,LZ
;TYPE=PLATED
T1F00S00C0.01200
T2F00S00C0.01400
T3F00S00C0.03543
T4F00S00C0.04016
T5F00S00C0.04331
T6F00S00C0.05118
T7F00S00C0.12598
T8F00S00C0.15000
%
T01
X0210345Y0142157
X021625Y014075
X0222155Y0142157
X0226093Y0146095
X02275Y0152
X0205
X0206407Y0146095
X0470157Y0147095
X046875Y0153
X0474094Y0143157
X048Y014175
X0485906Y0143157
X0489843Y0147095
X049125Y0153
X0489843Y0158905
X0485906Y0162843
X048Y016425
X0474094Y0162843
X0470157Y0158905
X0226093Y0157905
X0222155Y0161843
X021625Y016325
X0210345Y0161843
X0206407Y0157905
X0210094Y0352157
X0216Y035075
X0221905Y0352157
X0225842Y0356095
X022725Y0362
X0225842Y0367905
X0221905Y0371843
X0216Y037325
X0210094Y0371843
X0206157Y0367905
X020475Y0362
X0206157Y0356095
X0470157
X046875Y0362
X0470157Y0367905
X0474094Y0371843
X048Y037325
X0485906Y0371843
X0489843Y0367905
X049125Y0362
X0489843Y0356095
X0485906Y0352157
X048Y035075
X0474094Y0352157
T02
X03296Y01947
X03132Y02111
X0322947Y0226954
X03256Y023725
X03292Y02396
X033Y0261
X03141Y02546
X03269Y02909
X03257Y02979
X03291Y03085
X0412Y0306
Y0281
Y0256
X0411353Y0239647
X0411Y02125
Y01925
Y01715
X03088Y0275
X0314341Y0318541
X0412Y0333
T03
X02345Y0239547
Y0248524
Y02575
Y0266476
Y0275453
X02445Y0270965
Y0261988
Y0253012
Y0244035
Y0235059
X0254343Y0239626
X02545Y0248524
Y02575
Y0266476
Y0275453
T04
X02295Y01775
Y01875
T05
X0426205Y0233642
Y0244547
Y0255453
Y0266358
Y0277264
X0437386Y0271811
Y0260906
Y025
Y0239094
X0452819Y0244547
Y0233642
X0464Y0239094
Y025
Y0260906
Y0271811
X0452819Y0277264
Y0266358
Y0255453
T06
X0385658Y0152
X0405342
X04255
X0445185
X04452Y0362
X0425515
X0405485
X03858
T07
X0432504Y020624
X0464
Y0304665
X0432504
X02445Y0305768
Y0207382
T08
X021625Y0152
X048Y0153
X0216Y0362
X048
M30
