G04*
G04 #@! TF.GenerationSoftware,Altium Limited,Altium Designer,20.1.8 (145)*
G04*
G04 Layer_Color=16711935*
%FSLAX25Y25*%
%MOIN*%
G70*
G04*
G04 #@! TF.SameCoordinates,D3287E22-0F69-463A-97E5-025C8055979C*
G04*
G04*
G04 #@! TF.FilePolarity,Positive*
G04*
G01*
G75*
%ADD55C,0.00100*%
D55*
X294300Y272650D02*
G03*
X291900Y272650I-1200J0D01*
G01*
X353900Y309100D02*
G03*
X356300Y309100I1200J0D01*
G01*
X295100Y208750D02*
G03*
X292700Y208750I-1200J0D01*
G01*
X353600Y242800D02*
G03*
X356000Y242800I1200J0D01*
G01*
X397605Y233300D02*
G03*
X397605Y233300I-300J0D01*
G01*
Y239800D02*
G03*
X397605Y239800I-300J0D01*
G01*
X396268Y299690D02*
G03*
X396268Y299690I-300J0D01*
G01*
Y305690D02*
G03*
X396268Y305690I-300J0D01*
G01*
X199000Y134497D02*
X497000Y135497D01*
Y379000D01*
X496000D02*
X497000D01*
X199000D02*
X496000D01*
X199000Y134497D02*
Y379000D01*
X301000Y272650D02*
Y292350D01*
X285200Y272650D02*
X301000D01*
X285200D02*
Y292350D01*
X301000D01*
X280900Y274000D02*
X285200D01*
X280900D02*
Y276000D01*
X285200D01*
Y274000D02*
Y276000D01*
X280900Y279000D02*
X285200D01*
X280900D02*
Y281000D01*
X285200D01*
Y279000D02*
Y281000D01*
X280900Y284000D02*
X285200D01*
X280900D02*
Y286000D01*
X285200D01*
Y284000D02*
Y286000D01*
X280900Y289000D02*
X285200D01*
X280900D02*
Y291000D01*
X285200D01*
Y289000D02*
Y291000D01*
X301000D02*
X305300D01*
Y289000D02*
Y291000D01*
X301000Y289000D02*
X305300D01*
X301000D02*
Y291000D01*
Y286000D02*
X305300D01*
Y284000D02*
Y286000D01*
X301000Y284000D02*
X305300D01*
X301000D02*
Y286000D01*
Y281000D02*
X305300D01*
Y279000D02*
Y281000D01*
X301000Y279000D02*
X305300D01*
X301000D02*
Y281000D01*
Y276000D02*
X305300D01*
Y274000D02*
Y276000D01*
X301000Y274000D02*
X305300D01*
X301000D02*
Y276000D01*
X340150Y257900D02*
Y309100D01*
X370050D01*
Y257900D02*
Y309100D01*
X340150Y257900D02*
X370050D01*
Y307000D02*
X376050D01*
Y305000D02*
Y307000D01*
X370050Y305000D02*
X376050D01*
X370050D02*
Y307000D01*
Y302000D02*
X376050D01*
Y300000D02*
Y302000D01*
X370050Y300000D02*
X376050D01*
X370050D02*
Y302000D01*
Y297000D02*
X376050D01*
Y295000D02*
Y297000D01*
X370050Y295000D02*
X376050D01*
X370050D02*
Y297000D01*
Y292000D02*
X376050D01*
Y290000D02*
Y292000D01*
X370050Y290000D02*
X376050D01*
X370050D02*
Y292000D01*
Y287000D02*
X376050D01*
Y285000D02*
Y287000D01*
X370050Y285000D02*
X376050D01*
X370050D02*
Y287000D01*
Y282000D02*
X376050D01*
Y280000D02*
Y282000D01*
X370050Y280000D02*
X376050D01*
X370050D02*
Y282000D01*
Y277000D02*
X376050D01*
Y275000D02*
Y277000D01*
X370050Y275000D02*
X376050D01*
X370050D02*
Y277000D01*
Y272000D02*
X376050D01*
Y270000D02*
Y272000D01*
X370050Y270000D02*
X376050D01*
X370050D02*
Y272000D01*
Y267000D02*
X376050D01*
Y265000D02*
Y267000D01*
X370050Y265000D02*
X376050D01*
X370050D02*
Y267000D01*
Y262000D02*
X376050D01*
Y260000D02*
Y262000D01*
X370050Y260000D02*
X376050D01*
X370050D02*
Y262000D01*
X334150Y260000D02*
X340150D01*
X334150D02*
Y262000D01*
X340150D01*
Y260000D02*
Y262000D01*
X334150Y265000D02*
X340150D01*
X334150D02*
Y267000D01*
X340150D01*
Y265000D02*
Y267000D01*
X334150Y270000D02*
X340150D01*
X334150D02*
Y272000D01*
X340150D01*
Y270000D02*
Y272000D01*
X334150Y275000D02*
X340150D01*
X334150D02*
Y277000D01*
X340150D01*
Y275000D02*
Y277000D01*
X334150Y280000D02*
X340150D01*
X334150D02*
Y282000D01*
X340150D01*
Y280000D02*
Y282000D01*
X334150Y285000D02*
X340150D01*
X334150D02*
Y287000D01*
X340150D01*
Y285000D02*
Y287000D01*
X334150Y290000D02*
X340150D01*
X334150D02*
Y292000D01*
X340150D01*
Y290000D02*
Y292000D01*
X334150Y295000D02*
X340150D01*
X334150D02*
Y297000D01*
X340150D01*
Y295000D02*
Y297000D01*
X334150Y300000D02*
X340150D01*
X334150D02*
Y302000D01*
X340150D01*
Y300000D02*
Y302000D01*
X334150Y305000D02*
X340150D01*
X334150D02*
Y307000D01*
X340150D01*
Y305000D02*
Y307000D01*
X301800Y208750D02*
Y228450D01*
X286000Y208750D02*
X301800D01*
X286000D02*
Y228450D01*
X301800D01*
X281700Y210100D02*
X286000D01*
X281700D02*
Y212100D01*
X286000D01*
Y210100D02*
Y212100D01*
X281700Y215100D02*
X286000D01*
X281700D02*
Y217100D01*
X286000D01*
Y215100D02*
Y217100D01*
X281700Y220100D02*
X286000D01*
X281700D02*
Y222100D01*
X286000D01*
Y220100D02*
Y222100D01*
X281700Y225100D02*
X286000D01*
X281700D02*
Y227100D01*
X286000D01*
Y225100D02*
Y227100D01*
X301800D02*
X306100D01*
Y225100D02*
Y227100D01*
X301800Y225100D02*
X306100D01*
X301800D02*
Y227100D01*
Y222100D02*
X306100D01*
Y220100D02*
Y222100D01*
X301800Y220100D02*
X306100D01*
X301800D02*
Y222100D01*
Y217100D02*
X306100D01*
Y215100D02*
Y217100D01*
X301800Y215100D02*
X306100D01*
X301800D02*
Y217100D01*
Y212100D02*
X306100D01*
Y210100D02*
Y212100D01*
X301800Y210100D02*
X306100D01*
X301800D02*
Y212100D01*
X339850Y191600D02*
Y242800D01*
X369750D01*
Y191600D02*
Y242800D01*
X339850Y191600D02*
X369750D01*
Y240700D02*
X375750D01*
Y238700D02*
Y240700D01*
X369750Y238700D02*
X375750D01*
X369750D02*
Y240700D01*
Y235700D02*
X375750D01*
Y233700D02*
Y235700D01*
X369750Y233700D02*
X375750D01*
X369750D02*
Y235700D01*
Y230700D02*
X375750D01*
Y228700D02*
Y230700D01*
X369750Y228700D02*
X375750D01*
X369750D02*
Y230700D01*
Y225700D02*
X375750D01*
Y223700D02*
Y225700D01*
X369750Y223700D02*
X375750D01*
X369750D02*
Y225700D01*
Y220700D02*
X375750D01*
Y218700D02*
Y220700D01*
X369750Y218700D02*
X375750D01*
X369750D02*
Y220700D01*
Y215700D02*
X375750D01*
Y213700D02*
Y215700D01*
X369750Y213700D02*
X375750D01*
X369750D02*
Y215700D01*
Y210700D02*
X375750D01*
Y208700D02*
Y210700D01*
X369750Y208700D02*
X375750D01*
X369750D02*
Y210700D01*
Y205700D02*
X375750D01*
Y203700D02*
Y205700D01*
X369750Y203700D02*
X375750D01*
X369750D02*
Y205700D01*
Y200700D02*
X375750D01*
Y198700D02*
Y200700D01*
X369750Y198700D02*
X375750D01*
X369750D02*
Y200700D01*
Y195700D02*
X375750D01*
Y193700D02*
Y195700D01*
X369750Y193700D02*
X375750D01*
X369750D02*
Y195700D01*
X333850Y193700D02*
X339850D01*
X333850D02*
Y195700D01*
X339850D01*
Y193700D02*
Y195700D01*
X333850Y198700D02*
X339850D01*
X333850D02*
Y200700D01*
X339850D01*
Y198700D02*
Y200700D01*
X333850Y203700D02*
X339850D01*
X333850D02*
Y205700D01*
X339850D01*
Y203700D02*
Y205700D01*
X333850Y208700D02*
X339850D01*
X333850D02*
Y210700D01*
X339850D01*
Y208700D02*
Y210700D01*
X333850Y213700D02*
X339850D01*
X333850D02*
Y215700D01*
X339850D01*
Y213700D02*
Y215700D01*
X333850Y218700D02*
X339850D01*
X333850D02*
Y220700D01*
X339850D01*
Y218700D02*
Y220700D01*
X333850Y223700D02*
X339850D01*
X333850D02*
Y225700D01*
X339850D01*
Y223700D02*
Y225700D01*
X333850Y228700D02*
X339850D01*
X333850D02*
Y230700D01*
X339850D01*
Y228700D02*
Y230700D01*
X333850Y233700D02*
X339850D01*
X333850D02*
Y235700D01*
X339850D01*
Y233700D02*
Y235700D01*
X333850Y238700D02*
X339850D01*
X333850D02*
Y240700D01*
X339850D01*
Y238700D02*
Y240700D01*
X396121Y231430D02*
Y235170D01*
Y231430D02*
X398090D01*
Y235170D01*
X396121D02*
X398090D01*
X393168Y231430D02*
Y235170D01*
X391200D02*
X393168D01*
X391200Y231430D02*
Y235170D01*
Y231430D02*
X393168D01*
X391200Y235170D02*
X398090D01*
X391200Y231430D02*
Y235170D01*
Y231430D02*
X398090D01*
Y235170D01*
X396121Y237930D02*
Y241670D01*
Y237930D02*
X398090D01*
Y241670D01*
X396121D02*
X398090D01*
X393168Y237930D02*
Y241670D01*
X391200D02*
X393168D01*
X391200Y237930D02*
Y241670D01*
Y237930D02*
X393168D01*
X391200Y241670D02*
X398090D01*
X391200Y237930D02*
Y241670D01*
Y237930D02*
X398090D01*
Y241670D01*
X394784Y297820D02*
Y301560D01*
Y297820D02*
X396753D01*
Y301560D01*
X394784D02*
X396753D01*
X391831Y297820D02*
Y301560D01*
X389863D02*
X391831D01*
X389863Y297820D02*
Y301560D01*
Y297820D02*
X391831D01*
X389863Y301560D02*
X396753D01*
X389863Y297820D02*
Y301560D01*
Y297820D02*
X396753D01*
Y301560D01*
X394784Y303820D02*
Y307560D01*
Y303820D02*
X396753D01*
Y307560D01*
X394784D02*
X396753D01*
X391831Y303820D02*
Y307560D01*
X389863D02*
X391831D01*
X389863Y303820D02*
Y307560D01*
Y303820D02*
X391831D01*
X389863Y307560D02*
X396753D01*
X389863Y303820D02*
Y307560D01*
Y303820D02*
X396753D01*
Y307560D01*
M02*
