G04*
G04 #@! TF.GenerationSoftware,Altium Limited,Altium Designer,20.1.8 (145)*
G04*
G04 Layer_Color=8388736*
%FSLAX25Y25*%
%MOIN*%
G70*
G04*
G04 #@! TF.SameCoordinates,D3287E22-0F69-463A-97E5-025C8055979C*
G04*
G04*
G04 #@! TF.FilePolarity,Negative*
G04*
G01*
G75*
%ADD18R,0.04540X0.04540*%
%ADD19R,0.06900X0.03000*%
%ADD20R,0.08200X0.03000*%
%ADD21R,0.04540X0.04540*%
%ADD22R,0.04169X0.04540*%
%ADD23C,0.06800*%
%ADD24R,0.06800X0.06800*%
%ADD25C,0.07099*%
%ADD26C,0.17335*%
%ADD27R,0.07099X0.07099*%
%ADD28C,0.08674*%
%ADD29R,0.08674X0.08674*%
%ADD30C,0.20485*%
%ADD31C,0.05800*%
%ADD32R,0.05800X0.05800*%
%ADD33C,0.03800*%
%ADD34C,0.30800*%
D18*
X237866Y187500D02*
D03*
X244559D02*
D03*
X320793Y249925D02*
D03*
X314100D02*
D03*
X357659Y179100D02*
D03*
X350966D02*
D03*
X344466Y185600D02*
D03*
X351159D02*
D03*
X373553Y187600D02*
D03*
X380246D02*
D03*
X320693Y238425D02*
D03*
X314000D02*
D03*
X357252Y185627D02*
D03*
X363945D02*
D03*
X320693Y232925D02*
D03*
X314000D02*
D03*
X320847Y244425D02*
D03*
X314154D02*
D03*
X356946Y317575D02*
D03*
X350254D02*
D03*
X355442Y323520D02*
D03*
X362135D02*
D03*
X368947Y317575D02*
D03*
X362253D02*
D03*
X371754Y251000D02*
D03*
X378447D02*
D03*
X320734Y297000D02*
D03*
X314041D02*
D03*
X320734Y302500D02*
D03*
X314041D02*
D03*
X320795Y308389D02*
D03*
X314102D02*
D03*
X321034Y314100D02*
D03*
X314341D02*
D03*
D19*
X282550Y275000D02*
D03*
Y280000D02*
D03*
Y285000D02*
D03*
Y290000D02*
D03*
X303650D02*
D03*
Y285000D02*
D03*
Y280000D02*
D03*
Y275000D02*
D03*
X283350Y211100D02*
D03*
Y216100D02*
D03*
Y221100D02*
D03*
Y226100D02*
D03*
X304450D02*
D03*
Y221100D02*
D03*
Y216100D02*
D03*
Y211100D02*
D03*
D20*
X373750Y306000D02*
D03*
Y301000D02*
D03*
Y296000D02*
D03*
Y291000D02*
D03*
Y286000D02*
D03*
Y281000D02*
D03*
Y276000D02*
D03*
Y271000D02*
D03*
Y266000D02*
D03*
Y261000D02*
D03*
X336450D02*
D03*
Y266000D02*
D03*
Y271000D02*
D03*
Y276000D02*
D03*
Y281000D02*
D03*
Y286000D02*
D03*
Y291000D02*
D03*
Y296000D02*
D03*
Y301000D02*
D03*
Y306000D02*
D03*
X373450Y239700D02*
D03*
Y234700D02*
D03*
Y229700D02*
D03*
Y224700D02*
D03*
Y219700D02*
D03*
Y214700D02*
D03*
Y209700D02*
D03*
Y204700D02*
D03*
Y199700D02*
D03*
Y194700D02*
D03*
X336150D02*
D03*
Y199700D02*
D03*
Y204700D02*
D03*
Y209700D02*
D03*
Y214700D02*
D03*
Y219700D02*
D03*
Y224700D02*
D03*
Y229700D02*
D03*
Y234700D02*
D03*
Y239700D02*
D03*
D21*
X271900Y210254D02*
D03*
Y216947D02*
D03*
Y223753D02*
D03*
Y230447D02*
D03*
X397900Y218959D02*
D03*
Y212266D02*
D03*
X406000Y232954D02*
D03*
Y239647D02*
D03*
X390900Y218959D02*
D03*
Y212266D02*
D03*
X384000Y232954D02*
D03*
Y239647D02*
D03*
X390600Y287634D02*
D03*
Y280941D02*
D03*
X405025Y299153D02*
D03*
Y305847D02*
D03*
X383025Y299654D02*
D03*
Y306347D02*
D03*
X396100Y287634D02*
D03*
Y280941D02*
D03*
X268500Y273253D02*
D03*
Y279946D02*
D03*
X268400Y287754D02*
D03*
Y294446D02*
D03*
D22*
X397806Y233300D02*
D03*
X391484D02*
D03*
X397806Y239800D02*
D03*
X391484D02*
D03*
X396468Y299690D02*
D03*
X390147D02*
D03*
X396468Y305690D02*
D03*
X390147D02*
D03*
D23*
X229500Y187500D02*
D03*
D24*
Y177500D02*
D03*
D25*
X464000Y260906D02*
D03*
Y271811D02*
D03*
Y250000D02*
D03*
Y239094D02*
D03*
X452819Y233642D02*
D03*
Y244547D02*
D03*
Y266358D02*
D03*
Y255453D02*
D03*
X426205D02*
D03*
Y266358D02*
D03*
Y244547D02*
D03*
Y233642D02*
D03*
X437386Y239094D02*
D03*
Y250000D02*
D03*
Y271811D02*
D03*
Y260906D02*
D03*
D26*
X464000Y206240D02*
D03*
Y304665D02*
D03*
X432504D02*
D03*
Y206240D02*
D03*
D27*
X452819Y277264D02*
D03*
X426205D02*
D03*
D28*
X425500Y152000D02*
D03*
X445200Y362000D02*
D03*
X385658Y152000D02*
D03*
X405485Y362000D02*
D03*
D29*
X445185Y152000D02*
D03*
X425515Y362000D02*
D03*
X405342Y152000D02*
D03*
X385800Y362000D02*
D03*
D30*
X244500Y305768D02*
D03*
Y207382D02*
D03*
D31*
Y235059D02*
D03*
Y244035D02*
D03*
Y253012D02*
D03*
Y261988D02*
D03*
Y270965D02*
D03*
X254500Y275453D02*
D03*
Y266476D02*
D03*
Y257500D02*
D03*
Y248524D02*
D03*
X234500Y275453D02*
D03*
Y266476D02*
D03*
Y257500D02*
D03*
Y248524D02*
D03*
Y239547D02*
D03*
D32*
X254343Y239626D02*
D03*
D33*
X480000Y164250D02*
D03*
X491250Y153000D02*
D03*
X480000Y141750D02*
D03*
X468750Y153000D02*
D03*
X470157Y158905D02*
D03*
X474094Y162843D02*
D03*
Y143157D02*
D03*
X489843Y147095D02*
D03*
X485906Y162843D02*
D03*
X470157Y147095D02*
D03*
X485906Y143157D02*
D03*
X489843Y158905D02*
D03*
X480000Y373250D02*
D03*
X491250Y362000D02*
D03*
X480000Y350750D02*
D03*
X468750Y362000D02*
D03*
X470157Y367905D02*
D03*
X474094Y371843D02*
D03*
Y352157D02*
D03*
X489843Y356095D02*
D03*
X485906Y371843D02*
D03*
X470157Y356095D02*
D03*
X485906Y352157D02*
D03*
X489843Y367905D02*
D03*
X216000Y373250D02*
D03*
X227250Y362000D02*
D03*
X216000Y350750D02*
D03*
X204750Y362000D02*
D03*
X206157Y367905D02*
D03*
X210094Y371843D02*
D03*
Y352157D02*
D03*
X225842Y356095D02*
D03*
X221905Y371843D02*
D03*
X206157Y356095D02*
D03*
X221905Y352157D02*
D03*
X225842Y367905D02*
D03*
X216250Y163250D02*
D03*
X227500Y152000D02*
D03*
X216250Y140750D02*
D03*
X205000Y152000D02*
D03*
X206407Y157905D02*
D03*
X210345Y161843D02*
D03*
Y142157D02*
D03*
X226093Y146095D02*
D03*
X222155Y161843D02*
D03*
X206407Y146095D02*
D03*
X222155Y142157D02*
D03*
X226093Y157905D02*
D03*
D34*
X480000Y153000D02*
D03*
Y362000D02*
D03*
X216000D02*
D03*
X216250Y152000D02*
D03*
M02*
