G04*
G04 #@! TF.GenerationSoftware,Altium Limited,Altium Designer,18.0.12 (696)*
G04*
G04 Layer_Color=16711935*
%FSLAX25Y25*%
%MOIN*%
G70*
G01*
G75*
%ADD68R,0.08000X0.14000*%
%ADD71R,0.04240X0.04240*%
%ADD72R,0.04240X0.04240*%
%ADD73R,0.02153X0.04000*%
%ADD77O,0.02862X0.09161*%
%ADD94R,0.01681X0.06799*%
%ADD96R,0.06799X0.06799*%
%ADD97C,0.06799*%
%ADD98C,0.13295*%
%ADD99C,0.06500*%
%ADD100C,0.09358*%
%ADD101C,0.09949*%
%ADD102C,0.08700*%
%ADD103C,0.05500*%
%ADD104C,0.07500*%
%ADD105C,0.13300*%
%ADD106C,0.30500*%
%ADD107C,0.04437*%
%ADD108C,0.07200*%
%ADD109C,0.16500*%
%ADD110C,0.16248*%
%ADD111C,0.05098*%
%ADD112C,0.03500*%
%ADD113C,0.17500*%
%ADD114C,0.08374*%
%ADD115C,0.04500*%
%ADD116C,0.03000*%
%ADD152R,0.02272X0.05421*%
%ADD153R,0.01681X0.01681*%
%ADD154R,0.01681X0.04043*%
%ADD155R,0.04043X0.01681*%
%ADD156R,0.07587X0.07587*%
%ADD157R,0.02468X0.02075*%
%ADD158R,0.02075X0.02468*%
%ADD159R,0.04700X0.09500*%
%ADD160R,0.42500X0.35500*%
%ADD161R,0.06996X0.01681*%
%ADD162R,0.03847X0.02075*%
D68*
X767500Y71500D02*
D03*
X752004D02*
D03*
D71*
X829000Y103847D02*
D03*
Y97154D02*
D03*
X501400Y486654D02*
D03*
Y493347D02*
D03*
X535685Y486307D02*
D03*
Y493000D02*
D03*
X1461663Y299654D02*
D03*
Y306347D02*
D03*
X1552663Y299654D02*
D03*
Y306347D02*
D03*
X1461663Y242154D02*
D03*
Y248847D02*
D03*
X1552663Y242154D02*
D03*
Y248847D02*
D03*
X1461663Y184653D02*
D03*
Y191347D02*
D03*
X1552663Y184653D02*
D03*
Y191347D02*
D03*
X1461663Y127154D02*
D03*
Y133846D02*
D03*
X1552663Y127154D02*
D03*
Y133846D02*
D03*
X1424663Y299654D02*
D03*
Y306347D02*
D03*
X1515663Y299654D02*
D03*
Y306347D02*
D03*
X1424663Y242154D02*
D03*
Y248847D02*
D03*
X1515663Y242154D02*
D03*
Y248847D02*
D03*
X1424663Y184653D02*
D03*
Y191347D02*
D03*
X1515663Y184653D02*
D03*
Y191347D02*
D03*
X1424663Y127154D02*
D03*
Y133846D02*
D03*
X1515663Y127154D02*
D03*
Y133846D02*
D03*
X1678500Y121153D02*
D03*
Y127847D02*
D03*
Y222153D02*
D03*
Y228847D02*
D03*
Y171693D02*
D03*
Y165000D02*
D03*
Y272693D02*
D03*
Y266000D02*
D03*
X1619500Y120653D02*
D03*
Y127347D02*
D03*
Y221654D02*
D03*
Y228346D02*
D03*
Y171846D02*
D03*
Y165154D02*
D03*
Y272847D02*
D03*
Y266154D02*
D03*
X822000Y97154D02*
D03*
Y103847D02*
D03*
X795000Y76153D02*
D03*
Y82846D02*
D03*
X802500Y76153D02*
D03*
Y82846D02*
D03*
X991788Y348807D02*
D03*
Y355500D02*
D03*
X298141Y265154D02*
D03*
Y271847D02*
D03*
X964988Y348807D02*
D03*
Y355500D02*
D03*
X271341Y265154D02*
D03*
Y271847D02*
D03*
X316700Y264653D02*
D03*
Y271346D02*
D03*
X343500Y264653D02*
D03*
Y271346D02*
D03*
X876602Y349153D02*
D03*
Y355847D02*
D03*
X361197Y265307D02*
D03*
Y272000D02*
D03*
X903402Y349153D02*
D03*
Y355847D02*
D03*
X388000Y265307D02*
D03*
Y272000D02*
D03*
X79000Y101284D02*
D03*
Y107976D02*
D03*
X192770Y101284D02*
D03*
Y107976D02*
D03*
X307000Y101284D02*
D03*
Y107976D02*
D03*
X421384Y101284D02*
D03*
Y107976D02*
D03*
X535326Y101284D02*
D03*
Y107976D02*
D03*
X649498Y101284D02*
D03*
Y107976D02*
D03*
X9000Y101284D02*
D03*
Y107976D02*
D03*
X128270Y101284D02*
D03*
Y107976D02*
D03*
X242538Y101284D02*
D03*
Y107976D02*
D03*
X356691Y101284D02*
D03*
Y107976D02*
D03*
X470845Y101284D02*
D03*
Y107976D02*
D03*
X584998Y101284D02*
D03*
Y107976D02*
D03*
X73831Y101284D02*
D03*
Y107976D02*
D03*
X187770Y101284D02*
D03*
Y107976D02*
D03*
X302038Y101284D02*
D03*
Y107976D02*
D03*
X416384Y101284D02*
D03*
Y107976D02*
D03*
X529826Y101284D02*
D03*
Y107976D02*
D03*
X644498Y101284D02*
D03*
Y107976D02*
D03*
X14000Y101284D02*
D03*
Y107976D02*
D03*
X123270Y101284D02*
D03*
Y107976D02*
D03*
X237538Y101284D02*
D03*
Y107976D02*
D03*
X351691Y101284D02*
D03*
Y107976D02*
D03*
X465845Y101284D02*
D03*
Y107976D02*
D03*
X579998Y101284D02*
D03*
Y107976D02*
D03*
X69000Y101284D02*
D03*
Y107976D02*
D03*
X183067Y101284D02*
D03*
Y107976D02*
D03*
X297000Y101284D02*
D03*
Y107976D02*
D03*
X411567Y101284D02*
D03*
Y107976D02*
D03*
X524326Y101284D02*
D03*
Y107976D02*
D03*
X639831Y101284D02*
D03*
Y107976D02*
D03*
X4000Y101284D02*
D03*
Y107976D02*
D03*
X118402Y101284D02*
D03*
Y107976D02*
D03*
X232538Y101284D02*
D03*
Y107976D02*
D03*
X347000Y101284D02*
D03*
Y107976D02*
D03*
X461000Y101284D02*
D03*
Y107976D02*
D03*
X574831Y101284D02*
D03*
Y107976D02*
D03*
X1252000Y122153D02*
D03*
Y128847D02*
D03*
X1260000Y115847D02*
D03*
Y109153D02*
D03*
Y122153D02*
D03*
Y128847D02*
D03*
X1252000Y115347D02*
D03*
Y108653D02*
D03*
X1208500Y122653D02*
D03*
Y129347D02*
D03*
Y115847D02*
D03*
Y109153D02*
D03*
X1215500Y122653D02*
D03*
Y129347D02*
D03*
Y115847D02*
D03*
Y109153D02*
D03*
X1144000Y123653D02*
D03*
Y130347D02*
D03*
Y114347D02*
D03*
Y107653D02*
D03*
X1151500Y123653D02*
D03*
Y130347D02*
D03*
Y114347D02*
D03*
Y107653D02*
D03*
X737500Y69890D02*
D03*
Y63197D02*
D03*
X725500Y69890D02*
D03*
Y63197D02*
D03*
X701500Y69890D02*
D03*
Y63197D02*
D03*
X689500Y69890D02*
D03*
Y63197D02*
D03*
X509400Y493347D02*
D03*
Y486654D02*
D03*
X1468970Y306347D02*
D03*
Y299654D02*
D03*
X1559970Y306347D02*
D03*
Y299654D02*
D03*
X1468970Y248847D02*
D03*
Y242154D02*
D03*
X1559970Y248847D02*
D03*
Y242154D02*
D03*
X1468970Y191347D02*
D03*
Y184653D02*
D03*
X1559970Y191347D02*
D03*
Y184653D02*
D03*
X1468970Y133846D02*
D03*
Y127154D02*
D03*
X1559970Y133846D02*
D03*
Y127154D02*
D03*
X1431663Y306347D02*
D03*
Y299654D02*
D03*
X1522663Y306347D02*
D03*
Y299654D02*
D03*
X1431663Y248847D02*
D03*
Y242154D02*
D03*
X1522663Y248847D02*
D03*
Y242154D02*
D03*
X1431663Y191347D02*
D03*
Y184653D02*
D03*
X1522663Y191347D02*
D03*
Y184653D02*
D03*
X1431663Y133846D02*
D03*
Y127154D02*
D03*
X1522663Y133846D02*
D03*
Y127154D02*
D03*
D72*
X1675347Y189500D02*
D03*
X1668653D02*
D03*
X1675347Y290500D02*
D03*
X1668653D02*
D03*
X1675347Y203500D02*
D03*
X1668653D02*
D03*
X1675347Y304500D02*
D03*
X1668653D02*
D03*
X1622654Y203500D02*
D03*
X1629346D02*
D03*
X1622654Y304500D02*
D03*
X1629346D02*
D03*
X1622654Y189500D02*
D03*
X1629346D02*
D03*
X1622654Y290500D02*
D03*
X1629346D02*
D03*
X844847Y71500D02*
D03*
X838153D02*
D03*
X844847Y79000D02*
D03*
X838153D02*
D03*
X1475663Y320500D02*
D03*
X1468970D02*
D03*
X1566663D02*
D03*
X1559970D02*
D03*
X1475663Y263000D02*
D03*
X1468970D02*
D03*
X1566663D02*
D03*
X1559970D02*
D03*
X1475663Y205500D02*
D03*
X1468970D02*
D03*
X1566663D02*
D03*
X1559970D02*
D03*
X1475663Y148000D02*
D03*
X1468970D02*
D03*
X1566663D02*
D03*
X1559970D02*
D03*
X1468970Y313500D02*
D03*
X1475663D02*
D03*
X1559970D02*
D03*
X1566663D02*
D03*
X1468970Y256000D02*
D03*
X1475663D02*
D03*
X1559970D02*
D03*
X1566663D02*
D03*
X1468970Y198500D02*
D03*
X1475663D02*
D03*
X1559970D02*
D03*
X1566663D02*
D03*
X1468970Y141000D02*
D03*
X1475663D02*
D03*
X1559970D02*
D03*
X1566663D02*
D03*
X1450663Y299500D02*
D03*
X1443970D02*
D03*
X1541663D02*
D03*
X1534970D02*
D03*
X1450663Y242000D02*
D03*
X1443970D02*
D03*
X1541663D02*
D03*
X1534970D02*
D03*
X1450663Y184500D02*
D03*
X1443970D02*
D03*
X1541663D02*
D03*
X1534970D02*
D03*
X1450663Y127000D02*
D03*
X1443970D02*
D03*
X1541663D02*
D03*
X1534970D02*
D03*
X1450663Y337000D02*
D03*
X1443970D02*
D03*
X1541663D02*
D03*
X1534970D02*
D03*
X1450663Y279500D02*
D03*
X1443970D02*
D03*
X1541663D02*
D03*
X1534970D02*
D03*
X1450663Y222000D02*
D03*
X1443970D02*
D03*
X1541663D02*
D03*
X1534970D02*
D03*
X1450663Y164500D02*
D03*
X1443970D02*
D03*
X1541663D02*
D03*
X1534970D02*
D03*
X1417970Y320500D02*
D03*
X1424663D02*
D03*
X1508970D02*
D03*
X1515663D02*
D03*
X1417970Y263000D02*
D03*
X1424663D02*
D03*
X1508970D02*
D03*
X1515663D02*
D03*
X1417970Y205500D02*
D03*
X1424663D02*
D03*
X1508970D02*
D03*
X1515663D02*
D03*
X1417970Y148000D02*
D03*
X1424663D02*
D03*
X1508970D02*
D03*
X1515663D02*
D03*
X1424663Y313500D02*
D03*
X1417970D02*
D03*
X1515663D02*
D03*
X1508970D02*
D03*
X1424663Y256000D02*
D03*
X1417970D02*
D03*
X1515663D02*
D03*
X1508970D02*
D03*
X1424663Y198500D02*
D03*
X1417970D02*
D03*
X1515663D02*
D03*
X1508970D02*
D03*
X1424663Y141000D02*
D03*
X1417970D02*
D03*
X1515663D02*
D03*
X1508970D02*
D03*
X1475663Y327500D02*
D03*
X1468970D02*
D03*
X1566663D02*
D03*
X1559970D02*
D03*
X1475663Y270000D02*
D03*
X1468970D02*
D03*
X1566663D02*
D03*
X1559970D02*
D03*
X1475663Y212500D02*
D03*
X1468970D02*
D03*
X1566663D02*
D03*
X1559970D02*
D03*
X1475663Y155000D02*
D03*
X1468970D02*
D03*
X1566663D02*
D03*
X1559970D02*
D03*
X1417970Y327500D02*
D03*
X1424663D02*
D03*
X1508970D02*
D03*
X1515663D02*
D03*
X1417970Y270000D02*
D03*
X1424663D02*
D03*
X1508970D02*
D03*
X1515663D02*
D03*
X1417970Y212500D02*
D03*
X1424663D02*
D03*
X1508970D02*
D03*
X1515663D02*
D03*
X1417970Y155000D02*
D03*
X1424663D02*
D03*
X1508970D02*
D03*
X1515663D02*
D03*
X1675347Y196500D02*
D03*
X1668653D02*
D03*
X1675347Y297500D02*
D03*
X1668653D02*
D03*
X1622654Y196500D02*
D03*
X1629346D02*
D03*
X1622654Y297500D02*
D03*
X1629346D02*
D03*
X1675347Y182500D02*
D03*
X1668653D02*
D03*
X1675347Y283500D02*
D03*
X1668653D02*
D03*
Y210500D02*
D03*
X1675347D02*
D03*
X1668653Y311500D02*
D03*
X1675347D02*
D03*
X1622654Y210500D02*
D03*
X1629346D02*
D03*
X1622654Y311500D02*
D03*
X1629346D02*
D03*
Y182500D02*
D03*
X1622654D02*
D03*
X1629346Y283500D02*
D03*
X1622654D02*
D03*
X35616Y185260D02*
D03*
X42309D02*
D03*
X149424D02*
D03*
X156116D02*
D03*
X263731D02*
D03*
X270424D02*
D03*
X378038D02*
D03*
X384731D02*
D03*
X491845D02*
D03*
X498538D02*
D03*
X609152Y180496D02*
D03*
X615845D02*
D03*
X35616Y178260D02*
D03*
X42309D02*
D03*
X149424D02*
D03*
X156116D02*
D03*
X263731D02*
D03*
X270424D02*
D03*
X378038D02*
D03*
X384731D02*
D03*
X491845D02*
D03*
X498538D02*
D03*
X609152Y173496D02*
D03*
X615845D02*
D03*
X917965Y377153D02*
D03*
X924658D02*
D03*
X938657D02*
D03*
X931965D02*
D03*
X1443970Y343500D02*
D03*
X1450663D02*
D03*
X1534970D02*
D03*
X1541663D02*
D03*
X1443970Y286000D02*
D03*
X1450663D02*
D03*
X1534970D02*
D03*
X1541663D02*
D03*
X1443970Y228500D02*
D03*
X1450663D02*
D03*
X1534970D02*
D03*
X1541663D02*
D03*
X1443970Y171000D02*
D03*
X1450663D02*
D03*
X1534970D02*
D03*
X1541663D02*
D03*
D73*
X1266500Y127287D02*
D03*
Y110711D02*
D03*
X1269059D02*
D03*
X1271618D02*
D03*
X1274177D02*
D03*
X1269059Y127287D02*
D03*
X1271618D02*
D03*
X1274177D02*
D03*
X1222000D02*
D03*
Y110711D02*
D03*
X1224559D02*
D03*
X1227118D02*
D03*
X1229677D02*
D03*
X1224559Y127287D02*
D03*
X1227118D02*
D03*
X1229677D02*
D03*
D77*
X73963Y153362D02*
D03*
X78963D02*
D03*
X83963D02*
D03*
X88963D02*
D03*
X93963D02*
D03*
X98963D02*
D03*
X103963D02*
D03*
X108963D02*
D03*
X73963Y116669D02*
D03*
X78963D02*
D03*
X83963D02*
D03*
X88963D02*
D03*
X93963D02*
D03*
X98963D02*
D03*
X103963D02*
D03*
X108963D02*
D03*
X187770Y153362D02*
D03*
X192770D02*
D03*
X197770D02*
D03*
X202770D02*
D03*
X207770D02*
D03*
X212770D02*
D03*
X217770D02*
D03*
X222770D02*
D03*
X187770Y116669D02*
D03*
X192770D02*
D03*
X197770D02*
D03*
X202770D02*
D03*
X207770D02*
D03*
X212770D02*
D03*
X217770D02*
D03*
X222770D02*
D03*
X302038Y153362D02*
D03*
X307038D02*
D03*
X312038D02*
D03*
X317038D02*
D03*
X322038D02*
D03*
X327038D02*
D03*
X332038D02*
D03*
X337038D02*
D03*
X302038Y116669D02*
D03*
X307038D02*
D03*
X312038D02*
D03*
X317038D02*
D03*
X322038D02*
D03*
X327038D02*
D03*
X332038D02*
D03*
X337038D02*
D03*
X416384Y153362D02*
D03*
X421384D02*
D03*
X426384D02*
D03*
X431384D02*
D03*
X436384D02*
D03*
X441384D02*
D03*
X446384D02*
D03*
X451384D02*
D03*
X416384Y116669D02*
D03*
X421384D02*
D03*
X426384D02*
D03*
X431384D02*
D03*
X436384D02*
D03*
X441384D02*
D03*
X446384D02*
D03*
X451384D02*
D03*
X530345Y153362D02*
D03*
X535345D02*
D03*
X540345D02*
D03*
X545345D02*
D03*
X550345D02*
D03*
X555345D02*
D03*
X560345D02*
D03*
X565345D02*
D03*
X530345Y116669D02*
D03*
X535345D02*
D03*
X540345D02*
D03*
X545345D02*
D03*
X550345D02*
D03*
X555345D02*
D03*
X560345D02*
D03*
X565345D02*
D03*
X644498Y153362D02*
D03*
X649498D02*
D03*
X654498D02*
D03*
X659498D02*
D03*
X664498D02*
D03*
X669498D02*
D03*
X674498D02*
D03*
X679498D02*
D03*
X644498Y116669D02*
D03*
X649498D02*
D03*
X654498D02*
D03*
X659498D02*
D03*
X664498D02*
D03*
X669498D02*
D03*
X674498D02*
D03*
X679498D02*
D03*
X9463Y153209D02*
D03*
X14463D02*
D03*
X19463D02*
D03*
X24463D02*
D03*
X29463D02*
D03*
X34463D02*
D03*
X39463D02*
D03*
X44463D02*
D03*
X9463Y116516D02*
D03*
X14463D02*
D03*
X19463D02*
D03*
X24463D02*
D03*
X29463D02*
D03*
X34463D02*
D03*
X39463D02*
D03*
X44463D02*
D03*
X123270Y153209D02*
D03*
X128270D02*
D03*
X133270D02*
D03*
X138270D02*
D03*
X143270D02*
D03*
X148270D02*
D03*
X153270D02*
D03*
X158270D02*
D03*
X123270Y116516D02*
D03*
X128270D02*
D03*
X133270D02*
D03*
X138270D02*
D03*
X143270D02*
D03*
X148270D02*
D03*
X153270D02*
D03*
X158270D02*
D03*
X237538Y153209D02*
D03*
X242538D02*
D03*
X247538D02*
D03*
X252538D02*
D03*
X257538D02*
D03*
X262538D02*
D03*
X267538D02*
D03*
X272538D02*
D03*
X237538Y116516D02*
D03*
X242538D02*
D03*
X247538D02*
D03*
X252538D02*
D03*
X257538D02*
D03*
X262538D02*
D03*
X267538D02*
D03*
X272538D02*
D03*
X351691Y153209D02*
D03*
X356691D02*
D03*
X361691D02*
D03*
X366691D02*
D03*
X371691D02*
D03*
X376691D02*
D03*
X381691D02*
D03*
X386691D02*
D03*
X351691Y116516D02*
D03*
X356691D02*
D03*
X361691D02*
D03*
X366691D02*
D03*
X371691D02*
D03*
X376691D02*
D03*
X381691D02*
D03*
X386691D02*
D03*
X465845Y153209D02*
D03*
X470845D02*
D03*
X475845D02*
D03*
X480845D02*
D03*
X485845D02*
D03*
X490845D02*
D03*
X495845D02*
D03*
X500845D02*
D03*
X465845Y116516D02*
D03*
X470845D02*
D03*
X475845D02*
D03*
X480845D02*
D03*
X485845D02*
D03*
X490845D02*
D03*
X495845D02*
D03*
X500845D02*
D03*
X579998Y153209D02*
D03*
X584998D02*
D03*
X589998D02*
D03*
X594998D02*
D03*
X599998D02*
D03*
X604998D02*
D03*
X609998D02*
D03*
X614998D02*
D03*
X579998Y116516D02*
D03*
X584998D02*
D03*
X589998D02*
D03*
X594998D02*
D03*
X599998D02*
D03*
X604998D02*
D03*
X609998D02*
D03*
X614998D02*
D03*
X1634500Y238102D02*
D03*
X1629500D02*
D03*
X1624500D02*
D03*
X1619500D02*
D03*
X1614500D02*
D03*
X1609500D02*
D03*
X1604500D02*
D03*
X1634500Y257000D02*
D03*
X1629500D02*
D03*
X1624500D02*
D03*
X1619500D02*
D03*
X1614500D02*
D03*
X1609500D02*
D03*
X1604500D02*
D03*
X1634500Y137102D02*
D03*
X1629500D02*
D03*
X1624500D02*
D03*
X1619500D02*
D03*
X1614500D02*
D03*
X1609500D02*
D03*
X1604500D02*
D03*
X1634500Y156000D02*
D03*
X1629500D02*
D03*
X1624500D02*
D03*
X1619500D02*
D03*
X1614500D02*
D03*
X1609500D02*
D03*
X1604500D02*
D03*
X1693500Y238102D02*
D03*
X1688500D02*
D03*
X1683500D02*
D03*
X1678500D02*
D03*
X1673500D02*
D03*
X1668500D02*
D03*
X1663500D02*
D03*
X1693500Y257000D02*
D03*
X1688500D02*
D03*
X1683500D02*
D03*
X1678500D02*
D03*
X1673500D02*
D03*
X1668500D02*
D03*
X1663500D02*
D03*
X1693500Y137102D02*
D03*
X1688500D02*
D03*
X1683500D02*
D03*
X1678500D02*
D03*
X1673500D02*
D03*
X1668500D02*
D03*
X1663500D02*
D03*
X1693500Y156000D02*
D03*
X1688500D02*
D03*
X1683500D02*
D03*
X1678500D02*
D03*
X1673500D02*
D03*
X1668500D02*
D03*
X1663500D02*
D03*
D94*
X1159425Y130024D02*
D03*
X1161984D02*
D03*
X1164543D02*
D03*
X1167102D02*
D03*
X1169661D02*
D03*
X1172221D02*
D03*
X1174780D02*
D03*
X1177339D02*
D03*
X1179898D02*
D03*
X1182457D02*
D03*
X1185016D02*
D03*
X1187575D02*
D03*
X1159425Y107976D02*
D03*
X1161984D02*
D03*
X1164543D02*
D03*
X1167102D02*
D03*
X1169661D02*
D03*
X1172221D02*
D03*
X1174780D02*
D03*
X1177339D02*
D03*
X1179898D02*
D03*
X1182457D02*
D03*
X1185016D02*
D03*
X1187575D02*
D03*
D96*
X497996Y421307D02*
D03*
X441881Y421307D02*
D03*
X385767D02*
D03*
D97*
X497996Y401607D02*
D03*
X441881Y401607D02*
D03*
X385767D02*
D03*
X55000Y358381D02*
D03*
Y368381D02*
D03*
Y378381D02*
D03*
Y388381D02*
D03*
Y408381D02*
D03*
Y418381D02*
D03*
Y428381D02*
D03*
X136000Y358381D02*
D03*
Y368381D02*
D03*
Y378381D02*
D03*
Y388381D02*
D03*
Y408381D02*
D03*
Y418381D02*
D03*
Y428381D02*
D03*
D98*
X1684016Y39300D02*
D03*
X1474016D02*
D03*
D99*
X1669016Y74300D02*
D03*
X1659016D02*
D03*
X1649016D02*
D03*
X1679016D02*
D03*
X1644016Y64300D02*
D03*
X1654016D02*
D03*
X1664016D02*
D03*
X1674016D02*
D03*
Y90284D02*
D03*
X1664016D02*
D03*
X1654016D02*
D03*
X1644016D02*
D03*
X1679016Y100284D02*
D03*
X1649016D02*
D03*
X1659016D02*
D03*
X1669016D02*
D03*
X1614016D02*
D03*
X1604016D02*
D03*
X1594016D02*
D03*
X1624016D02*
D03*
X1589016Y90284D02*
D03*
X1599016D02*
D03*
X1609016D02*
D03*
X1619016D02*
D03*
Y64300D02*
D03*
X1609016D02*
D03*
X1599016D02*
D03*
X1589016D02*
D03*
X1624016Y74300D02*
D03*
X1594016D02*
D03*
X1604016D02*
D03*
X1614016D02*
D03*
X1559016Y100284D02*
D03*
X1549016D02*
D03*
X1539016D02*
D03*
X1569016D02*
D03*
X1534016Y90284D02*
D03*
X1544016D02*
D03*
X1554016D02*
D03*
X1564016D02*
D03*
Y64300D02*
D03*
X1554016D02*
D03*
X1544016D02*
D03*
X1534016D02*
D03*
X1569016Y74300D02*
D03*
X1539016D02*
D03*
X1549016D02*
D03*
X1559016D02*
D03*
X1504016Y100284D02*
D03*
X1494016D02*
D03*
X1484016D02*
D03*
X1514016D02*
D03*
X1479016Y90284D02*
D03*
X1489016D02*
D03*
X1499016D02*
D03*
X1509016D02*
D03*
Y64300D02*
D03*
X1499016D02*
D03*
X1489016D02*
D03*
X1479016D02*
D03*
X1514016Y74300D02*
D03*
X1484016D02*
D03*
X1494016D02*
D03*
X1504016D02*
D03*
X136000Y333853D02*
D03*
X126000D02*
D03*
X208770Y313137D02*
D03*
X198770D02*
D03*
X1365547Y31909D02*
D03*
X1354642D02*
D03*
X1376453D02*
D03*
X1387358D02*
D03*
X1392811Y43091D02*
D03*
X1381905D02*
D03*
X1371000D02*
D03*
X1349189D02*
D03*
X1360095D02*
D03*
X1238500Y476777D02*
D03*
Y466777D02*
D03*
Y456777D02*
D03*
X1228500D02*
D03*
Y466777D02*
D03*
Y476777D02*
D03*
X461500Y191499D02*
D03*
X451500D02*
D03*
X441500D02*
D03*
X451500Y201499D02*
D03*
X1310500Y187500D02*
D03*
Y197500D02*
D03*
Y207500D02*
D03*
Y217500D02*
D03*
X1300500D02*
D03*
Y207500D02*
D03*
Y197500D02*
D03*
Y187500D02*
D03*
X567000Y172000D02*
D03*
X557000D02*
D03*
X547000D02*
D03*
X566983Y185000D02*
D03*
X556983D02*
D03*
X546983D02*
D03*
X1310500Y308000D02*
D03*
Y298000D02*
D03*
Y288000D02*
D03*
Y278000D02*
D03*
X1300500D02*
D03*
Y288000D02*
D03*
Y298000D02*
D03*
Y308000D02*
D03*
X1310500Y263000D02*
D03*
Y253000D02*
D03*
Y243000D02*
D03*
Y233000D02*
D03*
X1300500D02*
D03*
Y243000D02*
D03*
Y253000D02*
D03*
Y263000D02*
D03*
X459000Y315917D02*
D03*
Y305917D02*
D03*
Y295917D02*
D03*
X449000D02*
D03*
Y305917D02*
D03*
Y315917D02*
D03*
X45000Y333853D02*
D03*
X55000D02*
D03*
X451500Y174000D02*
D03*
X441500Y164000D02*
D03*
X451500D02*
D03*
X461500D02*
D03*
X793000Y64000D02*
D03*
Y54000D02*
D03*
Y44000D02*
D03*
X767000Y46000D02*
D03*
X757000D02*
D03*
X1131500Y130289D02*
D03*
Y140289D02*
D03*
X1092500Y120000D02*
D03*
X1102500D02*
D03*
X1082500D02*
D03*
X1072500D02*
D03*
X1112500D02*
D03*
X1122500D02*
D03*
X1062500D02*
D03*
Y110000D02*
D03*
X1072500D02*
D03*
X1082500D02*
D03*
X1092500D02*
D03*
X1102500D02*
D03*
X1112500D02*
D03*
X1122500D02*
D03*
X1210000Y171500D02*
D03*
X1200000D02*
D03*
X1190000D02*
D03*
X1238500Y158500D02*
D03*
X1248500D02*
D03*
X1258500D02*
D03*
X1210000D02*
D03*
X1200000D02*
D03*
X1190000D02*
D03*
X1238500Y171500D02*
D03*
X1248500D02*
D03*
X1258500D02*
D03*
X1417500Y58000D02*
D03*
Y68000D02*
D03*
X892492Y12500D02*
D03*
X874776D02*
D03*
X974500Y12760D02*
D03*
X956783D02*
D03*
X534000Y457000D02*
D03*
X503000Y269000D02*
D03*
X985388Y394894D02*
D03*
Y409394D02*
D03*
X978388Y402153D02*
D03*
X971388Y409394D02*
D03*
Y394394D02*
D03*
X897002Y394894D02*
D03*
Y409394D02*
D03*
X890002Y402153D02*
D03*
X883002Y409394D02*
D03*
Y394394D02*
D03*
X381600Y325305D02*
D03*
X374600Y318065D02*
D03*
X381600Y310805D02*
D03*
X367600Y310305D02*
D03*
Y325305D02*
D03*
X337100Y325305D02*
D03*
Y310805D02*
D03*
X330100Y318065D02*
D03*
X323100Y325305D02*
D03*
Y310305D02*
D03*
X291741Y311240D02*
D03*
Y325740D02*
D03*
X284741Y318500D02*
D03*
X277741Y325740D02*
D03*
Y310740D02*
D03*
X483014Y48000D02*
D03*
X444500Y43900D02*
D03*
D100*
X1462933Y21308D02*
D03*
Y100284D02*
D03*
X1466024Y75284D02*
D03*
X1524016Y107292D02*
D03*
X1579016D02*
D03*
X1634016D02*
D03*
X1691909Y62292D02*
D03*
X1695000Y84300D02*
D03*
Y21308D02*
D03*
D101*
X229101Y425717D02*
D03*
X249101D02*
D03*
X279101D02*
D03*
Y345717D02*
D03*
X239101D02*
D03*
X199101D02*
D03*
D102*
X678900Y54303D02*
D03*
X748100D02*
D03*
D103*
X689500Y90303D02*
D03*
X697500D02*
D03*
X705500D02*
D03*
X737500D02*
D03*
X721500D02*
D03*
X729500D02*
D03*
X709500Y80303D02*
D03*
X701508D02*
D03*
X693508D02*
D03*
X717508D02*
D03*
X725508D02*
D03*
X733500D02*
D03*
X205683Y472208D02*
D03*
X318000Y516598D02*
D03*
X364000Y513304D02*
D03*
X347921Y516508D02*
D03*
X1143500Y17000D02*
D03*
X1042500Y36000D02*
D03*
Y16000D02*
D03*
D104*
X743100Y19303D02*
D03*
Y29303D02*
D03*
X683900Y19303D02*
D03*
Y29303D02*
D03*
Y39303D02*
D03*
X516000Y509000D02*
D03*
X535685D02*
D03*
X430158D02*
D03*
X449843D02*
D03*
X492842D02*
D03*
X473158D02*
D03*
D105*
X732500Y54303D02*
D03*
X694500D02*
D03*
D106*
X1587000Y169000D02*
D03*
X954454Y145500D02*
D03*
X656000Y22000D02*
D03*
X23000Y506000D02*
D03*
X1681000D02*
D03*
X17000Y201499D02*
D03*
X615000Y430000D02*
D03*
X1135000Y506000D02*
D03*
X1169500Y221500D02*
D03*
D107*
X991500Y36000D02*
D03*
X1001500D02*
D03*
X991500Y6000D02*
D03*
X1001500D02*
D03*
X1011500D02*
D03*
Y36000D02*
D03*
D108*
X519700Y43900D02*
D03*
X530600D02*
D03*
X552400D02*
D03*
X541500D02*
D03*
X585100D02*
D03*
X596000D02*
D03*
X574200D02*
D03*
X563300D02*
D03*
X525150Y32700D02*
D03*
X536050D02*
D03*
X557850D02*
D03*
X546950D02*
D03*
X590550D02*
D03*
X579650D02*
D03*
X568750D02*
D03*
X546950Y59300D02*
D03*
X536050D02*
D03*
X525150D02*
D03*
X568750D02*
D03*
X557850D02*
D03*
X579650D02*
D03*
X590550D02*
D03*
X563300Y70500D02*
D03*
X574200D02*
D03*
X596000D02*
D03*
X585100D02*
D03*
X541500D02*
D03*
X552400D02*
D03*
X530600D02*
D03*
X519700D02*
D03*
X359967Y43900D02*
D03*
X370867D02*
D03*
X392667D02*
D03*
X381767D02*
D03*
X425367D02*
D03*
X436267D02*
D03*
X414467D02*
D03*
X403567D02*
D03*
X365417Y32700D02*
D03*
X376317D02*
D03*
X398117D02*
D03*
X387217D02*
D03*
X430817D02*
D03*
X419917D02*
D03*
X409017D02*
D03*
X387217Y59300D02*
D03*
X376317D02*
D03*
X365417D02*
D03*
X409017D02*
D03*
X398117D02*
D03*
X419917D02*
D03*
X430817D02*
D03*
X403567Y70500D02*
D03*
X414467D02*
D03*
X436267D02*
D03*
X425367D02*
D03*
X381767D02*
D03*
X392667D02*
D03*
X370867D02*
D03*
X359967D02*
D03*
X200233Y43900D02*
D03*
X211133D02*
D03*
X232933D02*
D03*
X222033D02*
D03*
X265633D02*
D03*
X276533D02*
D03*
X254733D02*
D03*
X243833D02*
D03*
X205683Y32700D02*
D03*
X216583D02*
D03*
X238383D02*
D03*
X227483D02*
D03*
X271083D02*
D03*
X260183D02*
D03*
X249283D02*
D03*
X227483Y59300D02*
D03*
X216583D02*
D03*
X205683D02*
D03*
X249283D02*
D03*
X238383D02*
D03*
X260183D02*
D03*
X271083D02*
D03*
X243833Y70500D02*
D03*
X254733D02*
D03*
X276533D02*
D03*
X265633D02*
D03*
X222033D02*
D03*
X232933D02*
D03*
X211133D02*
D03*
X200233D02*
D03*
X40500Y43900D02*
D03*
X51400D02*
D03*
X73200D02*
D03*
X62300D02*
D03*
X105900D02*
D03*
X116800D02*
D03*
X95000D02*
D03*
X84100D02*
D03*
X45950Y32700D02*
D03*
X56850D02*
D03*
X78650D02*
D03*
X67750D02*
D03*
X111350D02*
D03*
X100450D02*
D03*
X89550D02*
D03*
X67750Y59300D02*
D03*
X56850D02*
D03*
X45950D02*
D03*
X89550D02*
D03*
X78650D02*
D03*
X100450D02*
D03*
X111350D02*
D03*
X84100Y70500D02*
D03*
X95000D02*
D03*
X116800D02*
D03*
X105900D02*
D03*
X62300D02*
D03*
X73200D02*
D03*
X51400D02*
D03*
X40500D02*
D03*
X1188800Y44000D02*
D03*
X1199700D02*
D03*
X1221500D02*
D03*
X1210600D02*
D03*
X1254200D02*
D03*
X1265100D02*
D03*
X1243300D02*
D03*
X1232400D02*
D03*
X1194250Y32800D02*
D03*
X1205150D02*
D03*
X1226950D02*
D03*
X1216050D02*
D03*
X1259650D02*
D03*
X1248750D02*
D03*
X1237850D02*
D03*
X1216050Y59400D02*
D03*
X1205150D02*
D03*
X1194250D02*
D03*
X1237850D02*
D03*
X1226950D02*
D03*
X1248750D02*
D03*
X1259650D02*
D03*
X1232400Y70600D02*
D03*
X1243300D02*
D03*
X1265100D02*
D03*
X1254200D02*
D03*
X1210600D02*
D03*
X1221500D02*
D03*
X1199700D02*
D03*
X1188800D02*
D03*
D109*
X492250Y32700D02*
D03*
Y64200D02*
D03*
X623450D02*
D03*
Y32700D02*
D03*
X332517D02*
D03*
Y64200D02*
D03*
X463717D02*
D03*
Y32700D02*
D03*
X172783D02*
D03*
Y64200D02*
D03*
X303983D02*
D03*
Y32700D02*
D03*
X13050D02*
D03*
Y64200D02*
D03*
X144250D02*
D03*
Y32700D02*
D03*
X1161350Y32800D02*
D03*
Y64300D02*
D03*
X1292550D02*
D03*
Y32800D02*
D03*
D110*
X1321807Y37500D02*
D03*
X1420193D02*
D03*
D111*
X690831Y458789D02*
D03*
X936831Y459339D02*
D03*
Y284339D02*
D03*
D112*
X690831Y284789D02*
D03*
X762831Y459339D02*
D03*
Y284339D02*
D03*
X540524Y486145D02*
D03*
X308808Y390489D02*
D03*
X104000Y378214D02*
D03*
X7000D02*
D03*
X1413000Y357390D02*
D03*
X1443293Y370214D02*
D03*
X1566000Y456193D02*
D03*
X1507000Y373000D02*
D03*
X1509163Y363000D02*
D03*
X1500000Y372307D02*
D03*
X1492100Y365000D02*
D03*
X1490600Y358000D02*
D03*
X1479900Y357436D02*
D03*
Y350000D02*
D03*
X1520106Y353000D02*
D03*
Y363000D02*
D03*
Y373000D02*
D03*
X1479900Y364871D02*
D03*
Y372307D02*
D03*
X1238000Y146500D02*
D03*
X1472500Y436000D02*
D03*
X951842Y381889D02*
D03*
X926000Y393653D02*
D03*
X403500Y217000D02*
D03*
X310000Y272000D02*
D03*
X304500Y272000D02*
D03*
X1534663Y261041D02*
D03*
X1541817Y261000D02*
D03*
X1682631Y120653D02*
D03*
X1542163Y145500D02*
D03*
X1677630Y278810D02*
D03*
X1668000Y266975D02*
D03*
X1675000Y228500D02*
D03*
X1335394Y95500D02*
D03*
X1534663Y203000D02*
D03*
X73200Y172000D02*
D03*
X715000Y355035D02*
D03*
X780439Y23415D02*
D03*
X859000Y181000D02*
D03*
X910235Y86347D02*
D03*
Y80000D02*
D03*
X923000Y97000D02*
D03*
X876500Y67042D02*
D03*
X892000Y111667D02*
D03*
X881000Y42000D02*
D03*
X911465Y58000D02*
D03*
X906500Y49500D02*
D03*
X391000Y185000D02*
D03*
X1683500Y128000D02*
D03*
X346806Y398648D02*
D03*
X152000Y375074D02*
D03*
X225323Y147000D02*
D03*
X185626Y176000D02*
D03*
X1600000Y257000D02*
D03*
X806000Y259500D02*
D03*
X803234Y257175D02*
D03*
X815000Y257000D02*
D03*
X821894Y251515D02*
D03*
X831382Y249026D02*
D03*
X834000Y251500D02*
D03*
X824500Y254000D02*
D03*
X812500D02*
D03*
X793294Y259115D02*
D03*
X420935Y142131D02*
D03*
X434374Y140000D02*
D03*
X425876Y138000D02*
D03*
X466438Y76153D02*
D03*
X385908Y500012D02*
D03*
X383742Y513489D02*
D03*
X152000Y381853D02*
D03*
X474760Y101284D02*
D03*
X475117Y107653D02*
D03*
X424061Y90390D02*
D03*
X404715Y101000D02*
D03*
X433421Y84592D02*
D03*
X406850Y106000D02*
D03*
X1345000Y457000D02*
D03*
X1565831Y159807D02*
D03*
X1566663Y136500D02*
D03*
X570279Y124049D02*
D03*
X66636Y150789D02*
D03*
X120600Y161976D02*
D03*
X392667Y96877D02*
D03*
X332517Y91000D02*
D03*
X288000D02*
D03*
X170000Y90000D02*
D03*
X134000D02*
D03*
X42331Y190760D02*
D03*
X1693000Y361077D02*
D03*
X1682631D02*
D03*
X1672263D02*
D03*
X1661894D02*
D03*
X1608000D02*
D03*
X1617000D02*
D03*
X1626000D02*
D03*
X1635000D02*
D03*
X1604500Y247500D02*
D03*
X1609500Y247551D02*
D03*
X1614000Y273000D02*
D03*
Y266000D02*
D03*
X1534663Y145500D02*
D03*
X1428663Y148000D02*
D03*
X1344840Y372000D02*
D03*
X1552000Y483500D02*
D03*
X1562000Y484949D02*
D03*
X1303000Y395500D02*
D03*
X1247000Y249500D02*
D03*
X1251000Y253000D02*
D03*
X58000Y176000D02*
D03*
X35831Y173260D02*
D03*
X181328Y389054D02*
D03*
Y374698D02*
D03*
X394500Y272000D02*
D03*
X373909Y105331D02*
D03*
X364054Y90788D02*
D03*
X436500Y123500D02*
D03*
X252577Y123614D02*
D03*
X244865Y130500D02*
D03*
X188000Y97211D02*
D03*
X203000Y125000D02*
D03*
X210347Y124000D02*
D03*
X517141Y145455D02*
D03*
X585100Y162000D02*
D03*
X536665Y160558D02*
D03*
X516380Y177000D02*
D03*
X469345Y181000D02*
D03*
X498331Y190260D02*
D03*
X491831Y190760D02*
D03*
X505400Y185000D02*
D03*
X1688000Y165154D02*
D03*
X1678346Y177000D02*
D03*
X1692693Y115000D02*
D03*
X1611750Y167250D02*
D03*
X1614500Y300500D02*
D03*
Y287000D02*
D03*
X1566663Y309000D02*
D03*
X1683500Y247500D02*
D03*
X1521163Y317000D02*
D03*
X199571Y131892D02*
D03*
X189620Y130500D02*
D03*
X238154D02*
D03*
X384000Y197000D02*
D03*
X247000Y102000D02*
D03*
X232500Y97211D02*
D03*
X190823Y125823D02*
D03*
X87000Y103667D02*
D03*
X635000Y101284D02*
D03*
X632500Y107800D02*
D03*
X570000Y85900D02*
D03*
X496000D02*
D03*
X457000Y90000D02*
D03*
X479500Y85900D02*
D03*
X340000Y97000D02*
D03*
Y101284D02*
D03*
X223000Y90303D02*
D03*
X259270Y89500D02*
D03*
X132000Y101284D02*
D03*
X69500Y116479D02*
D03*
X37000Y103667D02*
D03*
X4000Y112260D02*
D03*
X91760Y124000D02*
D03*
X81000Y161000D02*
D03*
X156000Y168202D02*
D03*
X149424Y171424D02*
D03*
X391094Y205405D02*
D03*
X388000Y174000D02*
D03*
X649498Y186500D02*
D03*
X525000Y149714D02*
D03*
X403567Y159500D02*
D03*
X379224Y136776D02*
D03*
X238000Y165000D02*
D03*
X185500Y160458D02*
D03*
X61823Y144000D02*
D03*
X176711Y149000D02*
D03*
X594998Y143760D02*
D03*
X630969Y93500D02*
D03*
X553000Y105240D02*
D03*
X517000Y101284D02*
D03*
X525459Y120000D02*
D03*
X424000Y122653D02*
D03*
X445400Y125000D02*
D03*
X398748Y155500D02*
D03*
Y125500D02*
D03*
X386554Y137000D02*
D03*
X364054Y123653D02*
D03*
X312000Y93000D02*
D03*
X292000Y101284D02*
D03*
X179000D02*
D03*
X210347Y89569D02*
D03*
X259270Y123653D02*
D03*
X234000Y113787D02*
D03*
X244847Y161153D02*
D03*
X197000Y162160D02*
D03*
X108500Y144706D02*
D03*
X156331Y89000D02*
D03*
X128024Y127024D02*
D03*
X74654Y129347D02*
D03*
X128024Y161976D02*
D03*
X121331Y130331D02*
D03*
X98847Y123346D02*
D03*
Y91285D02*
D03*
X79323Y125500D02*
D03*
X73831Y96169D02*
D03*
X28323Y126532D02*
D03*
X41153Y133587D02*
D03*
X47846Y91500D02*
D03*
Y122500D02*
D03*
X19000Y101284D02*
D03*
X431191Y143760D02*
D03*
X384384Y144206D02*
D03*
X1443000Y69800D02*
D03*
X1563000Y45000D02*
D03*
X1678500Y146500D02*
D03*
X741000Y58903D02*
D03*
X721000Y63163D02*
D03*
X701508Y59400D02*
D03*
X685300Y63059D02*
D03*
X576000Y161535D02*
D03*
X650000Y164650D02*
D03*
X652000Y180526D02*
D03*
X642000D02*
D03*
X529806Y170835D02*
D03*
X615831Y167996D02*
D03*
X357000Y213712D02*
D03*
X840822Y246587D02*
D03*
X843500Y249000D02*
D03*
X762000Y266000D02*
D03*
X766000Y265000D02*
D03*
X770000Y264536D02*
D03*
X758000Y268500D02*
D03*
X848481Y301500D02*
D03*
X844881D02*
D03*
X839032D02*
D03*
X835432D02*
D03*
X878000Y195000D02*
D03*
X862706Y186000D02*
D03*
X875531Y188000D02*
D03*
X870528D02*
D03*
X867153Y186000D02*
D03*
X862500Y176500D02*
D03*
X873207Y195091D02*
D03*
X898000Y204000D02*
D03*
X1609500Y146551D02*
D03*
X1604500Y146500D02*
D03*
X818941Y90788D02*
D03*
X529972Y129087D02*
D03*
X536600Y130000D02*
D03*
X519500Y121500D02*
D03*
X508491Y109991D02*
D03*
X504000Y97500D02*
D03*
X521321Y89569D02*
D03*
X566153Y90847D02*
D03*
X570000Y105240D02*
D03*
X576500Y129500D02*
D03*
X585100Y129600D02*
D03*
X791563Y301500D02*
D03*
Y267000D02*
D03*
X797637Y301500D02*
D03*
X801237D02*
D03*
X796000Y261500D02*
D03*
X807086Y301500D02*
D03*
X810686D02*
D03*
X202884Y143760D02*
D03*
X414126Y176000D02*
D03*
X449331Y143760D02*
D03*
X1160000Y136500D02*
D03*
X951909Y311962D02*
D03*
X303831Y170050D02*
D03*
Y176260D02*
D03*
X498331Y172774D02*
D03*
X615831Y186496D02*
D03*
X991500Y57000D02*
D03*
X1001500D02*
D03*
X1011500D02*
D03*
X1645000Y420832D02*
D03*
X1651500Y421500D02*
D03*
X752000Y95702D02*
D03*
X743500Y112000D02*
D03*
X768997Y111500D02*
D03*
X1160500Y91298D02*
D03*
X1312087Y66616D02*
D03*
X1367786Y105000D02*
D03*
X1396500D02*
D03*
X1384000Y54303D02*
D03*
X1349000Y78820D02*
D03*
X1330500Y81000D02*
D03*
X1326500Y85000D02*
D03*
X1316000Y87500D02*
D03*
X1325500Y101000D02*
D03*
X823500Y23500D02*
D03*
X998500Y351000D02*
D03*
X959000D02*
D03*
X909500Y352000D02*
D03*
X883302Y351000D02*
D03*
X264500Y271346D02*
D03*
X355500Y272000D02*
D03*
X350000D02*
D03*
X367900Y293000D02*
D03*
X291441D02*
D03*
X323400D02*
D03*
X381600Y265500D02*
D03*
X278000D02*
D03*
X336800D02*
D03*
X922000Y342500D02*
D03*
X883302Y377067D02*
D03*
X871500Y355847D02*
D03*
X896702Y360000D02*
D03*
X897002Y347000D02*
D03*
X971688Y360000D02*
D03*
Y350000D02*
D03*
X1676000Y473307D02*
D03*
X1524500D02*
D03*
X1635500Y468500D02*
D03*
X1636000Y424000D02*
D03*
X1481000Y468500D02*
D03*
X1485642Y425342D02*
D03*
X1668000Y417000D02*
D03*
X1616000D02*
D03*
X1516000D02*
D03*
X1464500D02*
D03*
X1676500Y403500D02*
D03*
X1636000D02*
D03*
X1611000Y410307D02*
D03*
X1317000Y403000D02*
D03*
X1200500Y188700D02*
D03*
X764500Y116500D02*
D03*
X270331Y173260D02*
D03*
X1619500Y455000D02*
D03*
X1472500Y448000D02*
D03*
X1621847Y432927D02*
D03*
X1472500Y404859D02*
D03*
Y395000D02*
D03*
X1317000Y395500D02*
D03*
X787500Y301500D02*
D03*
X1293500Y134500D02*
D03*
X1251000Y135000D02*
D03*
X1208000D02*
D03*
X1139000Y130500D02*
D03*
X794000Y126000D02*
D03*
Y107000D02*
D03*
X270331Y190260D02*
D03*
X28000Y89500D02*
D03*
X918000Y372307D02*
D03*
X978388Y358653D02*
D03*
X890002D02*
D03*
X374600Y274565D02*
D03*
X330100Y274565D02*
D03*
X284741Y275000D02*
D03*
X752000Y86197D02*
D03*
X767500Y61500D02*
D03*
X768000Y80000D02*
D03*
X1275000Y103500D02*
D03*
X1186500Y117500D02*
D03*
X1160500Y100425D02*
D03*
X1220163Y155000D02*
D03*
X1215500D02*
D03*
X1190266Y135525D02*
D03*
X901500Y4413D02*
D03*
X765500Y136500D02*
D03*
X788500Y286000D02*
D03*
X922500Y49500D02*
D03*
X914500D02*
D03*
X927500Y77500D02*
D03*
X1196000Y190000D02*
D03*
X894000Y444000D02*
D03*
X893311Y301500D02*
D03*
X689000Y360815D02*
D03*
X862500Y343500D02*
D03*
Y303000D02*
D03*
X859000Y27014D02*
D03*
X1619500Y146500D02*
D03*
X1405000Y165500D02*
D03*
X1409500Y144500D02*
D03*
Y129000D02*
D03*
X1678500Y247500D02*
D03*
X1619500D02*
D03*
X1361000Y165500D02*
D03*
X1413500Y144500D02*
D03*
Y129000D02*
D03*
X1555163Y317000D02*
D03*
Y259500D02*
D03*
X1464163Y317000D02*
D03*
Y259500D02*
D03*
X1405000Y138500D02*
D03*
X1555163Y202000D02*
D03*
Y144500D02*
D03*
X1464163Y202000D02*
D03*
Y144500D02*
D03*
X1361000Y138500D02*
D03*
X1697000Y287000D02*
D03*
Y231000D02*
D03*
X1684000Y193000D02*
D03*
X1614500Y127500D02*
D03*
X1342500Y345000D02*
D03*
X1363000Y105000D02*
D03*
X1614500Y193000D02*
D03*
X1583500Y351000D02*
D03*
Y343500D02*
D03*
X1596000Y193000D02*
D03*
X1386500Y345000D02*
D03*
X1560163Y217500D02*
D03*
X1469163D02*
D03*
Y225500D02*
D03*
X1475500Y178500D02*
D03*
X1560163Y160000D02*
D03*
X1469163D02*
D03*
X1382500Y198000D02*
D03*
X1403500Y189500D02*
D03*
X1342500Y198000D02*
D03*
X1457500Y178500D02*
D03*
X1428000D02*
D03*
X1421500D02*
D03*
X1391714Y105000D02*
D03*
X1515663Y217000D02*
D03*
Y159500D02*
D03*
X1464500Y222000D02*
D03*
X1457500D02*
D03*
X1424663Y217000D02*
D03*
X1386500Y198000D02*
D03*
X1424663Y159500D02*
D03*
X1515663Y332000D02*
D03*
Y274500D02*
D03*
X1424663Y332000D02*
D03*
Y274500D02*
D03*
X1386500Y247000D02*
D03*
X1386928Y105000D02*
D03*
X1560163Y332500D02*
D03*
X1469200Y340100D02*
D03*
X1469163Y332500D02*
D03*
X1560163Y275000D02*
D03*
X1469163D02*
D03*
X1398000Y265500D02*
D03*
X1379500Y247000D02*
D03*
X1342500D02*
D03*
X1382143Y105000D02*
D03*
X1684000Y294000D02*
D03*
X1408500Y303000D02*
D03*
X1614500Y228500D02*
D03*
X1383500Y303000D02*
D03*
X1342500Y296000D02*
D03*
X1372571Y105000D02*
D03*
X1614500Y294000D02*
D03*
X1510500Y294500D02*
D03*
X1482516D02*
D03*
X1460500Y293000D02*
D03*
X1418000D02*
D03*
X1386500Y296000D02*
D03*
X1377357Y105000D02*
D03*
X1356000Y144500D02*
D03*
X1335000D02*
D03*
X1374600Y126894D02*
D03*
X1404500Y323500D02*
D03*
X1387500D02*
D03*
X1373500Y328300D02*
D03*
X1360500Y323500D02*
D03*
X1343500D02*
D03*
X1403000Y363500D02*
D03*
X1359000Y364000D02*
D03*
X1404500Y274500D02*
D03*
X1387500D02*
D03*
X1373500Y279300D02*
D03*
X1360500Y274500D02*
D03*
X1343500D02*
D03*
X1403000Y314500D02*
D03*
X1359000Y315000D02*
D03*
X1404500Y225500D02*
D03*
X1387500D02*
D03*
X1373500Y230300D02*
D03*
X1360500Y225500D02*
D03*
X1343500D02*
D03*
X1403000Y265500D02*
D03*
X1359000Y266000D02*
D03*
X1373500Y181300D02*
D03*
X922000Y306000D02*
D03*
X785264Y283154D02*
D03*
X782000Y286500D02*
D03*
X923846Y268500D02*
D03*
X518400Y482433D02*
D03*
X505400Y471000D02*
D03*
X1046591Y327591D02*
D03*
X1069591Y304591D02*
D03*
X1260000Y135000D02*
D03*
Y146500D02*
D03*
X764954Y330954D02*
D03*
X716409Y330591D02*
D03*
X933500Y302900D02*
D03*
X1072137Y307137D02*
D03*
X1049137Y330137D02*
D03*
X767500Y333500D02*
D03*
X713863Y333137D02*
D03*
X949363Y314508D02*
D03*
X933500Y306500D02*
D03*
X690831Y357390D02*
D03*
X1238000Y135000D02*
D03*
X1215500Y146500D02*
D03*
Y135000D02*
D03*
X718954Y328046D02*
D03*
X721500Y325500D02*
D03*
X759863Y325863D02*
D03*
X762409Y328409D02*
D03*
X933500Y295700D02*
D03*
Y299300D02*
D03*
X954454Y309417D02*
D03*
X957000Y306871D02*
D03*
X1041500Y322500D02*
D03*
X1044046Y325046D02*
D03*
X1067046Y302046D02*
D03*
X1064500Y299500D02*
D03*
X948730Y428000D02*
D03*
X941530D02*
D03*
X945130D02*
D03*
X948730Y413000D02*
D03*
X941530D02*
D03*
X945130D02*
D03*
X867153Y443237D02*
D03*
X857930D02*
D03*
X854330D02*
D03*
X848481D02*
D03*
X844881D02*
D03*
X839032D02*
D03*
X811000D02*
D03*
X816535D02*
D03*
X820135D02*
D03*
X825983D02*
D03*
X829583D02*
D03*
X835432D02*
D03*
X914397Y301500D02*
D03*
Y268500D02*
D03*
X906000D02*
D03*
X894334Y240575D02*
D03*
X897000Y243000D02*
D03*
X881894Y240015D02*
D03*
X884500Y242500D02*
D03*
X872000Y242000D02*
D03*
X875000Y244500D02*
D03*
X862500D02*
D03*
X865500Y247500D02*
D03*
X850262Y244147D02*
D03*
X853000Y246500D02*
D03*
X907873Y301500D02*
D03*
X902024Y301275D02*
D03*
X898424D02*
D03*
X889426Y301500D02*
D03*
X885826D02*
D03*
X876377Y301275D02*
D03*
X879977D02*
D03*
X866928D02*
D03*
X870528D02*
D03*
X857930D02*
D03*
X854330D02*
D03*
X829583Y301500D02*
D03*
X825984D02*
D03*
X820135D02*
D03*
X816535D02*
D03*
X778965Y284339D02*
D03*
X775365D02*
D03*
X771765D02*
D03*
X803612Y474100D02*
D03*
X794163Y483500D02*
D03*
Y474100D02*
D03*
X807311Y443237D02*
D03*
X780091Y483091D02*
D03*
X777546Y480546D02*
D03*
X775000Y478000D02*
D03*
X801237Y443237D02*
D03*
X797637D02*
D03*
X792013Y443500D02*
D03*
X784813D02*
D03*
X788413D02*
D03*
X664500Y414309D02*
D03*
X675500Y404859D02*
D03*
X690831Y400500D02*
D03*
X670500Y404859D02*
D03*
X664500Y404859D02*
D03*
X670500Y414308D02*
D03*
Y423757D02*
D03*
X664500D02*
D03*
X670500Y433000D02*
D03*
X664500Y433206D02*
D03*
X670500Y442654D02*
D03*
X664500D02*
D03*
X693000Y411384D02*
D03*
Y407784D02*
D03*
Y420832D02*
D03*
Y417232D02*
D03*
Y430281D02*
D03*
Y426681D02*
D03*
Y439730D02*
D03*
Y436130D02*
D03*
X690831Y310371D02*
D03*
X690831Y348166D02*
D03*
X690831Y395411D02*
D03*
X693000Y449179D02*
D03*
Y445579D02*
D03*
X378038Y174000D02*
D03*
X773215Y456777D02*
D03*
X779000Y461500D02*
D03*
X774300Y436400D02*
D03*
X775500Y440000D02*
D03*
X778965Y457500D02*
D03*
X710536Y94036D02*
D03*
X710500Y98000D02*
D03*
X720500Y386900D02*
D03*
X717000Y389500D02*
D03*
X713000D02*
D03*
X784500Y141500D02*
D03*
X756000D02*
D03*
X784500Y137500D02*
D03*
Y70341D02*
D03*
X675500Y401000D02*
D03*
X772500Y35000D02*
D03*
X675500Y397321D02*
D03*
X775046Y37546D02*
D03*
X675500Y393500D02*
D03*
X778000Y40500D02*
D03*
X1266500Y122653D02*
D03*
X1274177D02*
D03*
X1221921D02*
D03*
X1229677D02*
D03*
X1096500Y144500D02*
D03*
X1646500Y466051D02*
D03*
X1646000Y190000D02*
D03*
X1664000Y452543D02*
D03*
X1646000Y203000D02*
D03*
X1648453Y425000D02*
D03*
X1652000Y190000D02*
D03*
X1654358Y425000D02*
D03*
X1652000Y203000D02*
D03*
Y291000D02*
D03*
X1664000Y458500D02*
D03*
X1652000Y304000D02*
D03*
X1664000Y440732D02*
D03*
Y434827D02*
D03*
X1646000Y291000D02*
D03*
X1652390Y466051D02*
D03*
X1646000Y304000D02*
D03*
X1661300Y376500D02*
D03*
X1657700D02*
D03*
X1654100D02*
D03*
X1650500D02*
D03*
X1636100D02*
D03*
X1639700D02*
D03*
X1643300D02*
D03*
X1646900D02*
D03*
X1565500Y449500D02*
D03*
X1611500Y454904D02*
D03*
X1615154Y432927D02*
D03*
X1660000Y468000D02*
D03*
X1623000Y480000D02*
D03*
X1676000D02*
D03*
X1616000Y410307D02*
D03*
X1669000D02*
D03*
X1679847Y414308D02*
D03*
X1673153D02*
D03*
X1679847Y466000D02*
D03*
X1673153Y466051D02*
D03*
X1576000Y501500D02*
D03*
X1443663Y327500D02*
D03*
Y270000D02*
D03*
X1501390Y467000D02*
D03*
X1495500D02*
D03*
X1456500Y448654D02*
D03*
Y438654D02*
D03*
X1526847Y415500D02*
D03*
Y467433D02*
D03*
X1472516Y480000D02*
D03*
X1524500D02*
D03*
X1509000Y468500D02*
D03*
X1522000Y415500D02*
D03*
X1520154Y467433D02*
D03*
X1501390Y421500D02*
D03*
X1494000Y422500D02*
D03*
X1517000Y410307D02*
D03*
X1464500D02*
D03*
X1512643Y434827D02*
D03*
X1513000Y453500D02*
D03*
Y459500D02*
D03*
X1504000Y424500D02*
D03*
X1498500D02*
D03*
X1514000Y440732D02*
D03*
X1534663Y327500D02*
D03*
Y270000D02*
D03*
Y212500D02*
D03*
Y155000D02*
D03*
X1443663Y212500D02*
D03*
Y155000D02*
D03*
Y145500D02*
D03*
X1451163D02*
D03*
Y260500D02*
D03*
X1443663D02*
D03*
X1451163Y318000D02*
D03*
X1443663D02*
D03*
Y203000D02*
D03*
X1451163D02*
D03*
X1534663Y318000D02*
D03*
X1542163D02*
D03*
Y203000D02*
D03*
X1614500Y247500D02*
D03*
X1663500Y146500D02*
D03*
X1673500D02*
D03*
X1693500D02*
D03*
X1683500D02*
D03*
X1634500Y247500D02*
D03*
X1624500D02*
D03*
X1634500Y146500D02*
D03*
X1624500D02*
D03*
X1614500D02*
D03*
X1663500Y247500D02*
D03*
X1673500D02*
D03*
X1693500D02*
D03*
X1614500Y121000D02*
D03*
X1622500Y178000D02*
D03*
Y215000D02*
D03*
X1675500D02*
D03*
X1614500Y199500D02*
D03*
X1684000Y200000D02*
D03*
X1614500Y186000D02*
D03*
X1629500Y146551D02*
D03*
X1614500Y207000D02*
D03*
X1684000D02*
D03*
X1688500Y146551D02*
D03*
X1668500D02*
D03*
X1684000Y186500D02*
D03*
X1668500Y247551D02*
D03*
X1688500D02*
D03*
X1629500D02*
D03*
X1683500Y222000D02*
D03*
X1675500Y316000D02*
D03*
X1684000Y287500D02*
D03*
Y308000D02*
D03*
Y301000D02*
D03*
X1614500Y308000D02*
D03*
X1622500Y316000D02*
D03*
Y279000D02*
D03*
X1614500Y222000D02*
D03*
X690831Y319820D02*
D03*
X690831Y329269D02*
D03*
X690831Y370214D02*
D03*
X690831Y379663D02*
D03*
X690831Y404859D02*
D03*
X690831Y414308D02*
D03*
X690831Y423757D02*
D03*
X690831Y433206D02*
D03*
X690831Y442654D02*
D03*
X882902Y459339D02*
D03*
X873452Y459339D02*
D03*
X851406Y459339D02*
D03*
X841957Y459339D02*
D03*
X832508Y459339D02*
D03*
X823059Y459339D02*
D03*
X813610Y459500D02*
D03*
X804161Y459339D02*
D03*
X794713Y459339D02*
D03*
X904949Y459500D02*
D03*
X920697Y459338D02*
D03*
X926996Y459339D02*
D03*
X904949Y284500D02*
D03*
X882902D02*
D03*
X873453D02*
D03*
X851406Y284339D02*
D03*
X841957Y284339D02*
D03*
X832508Y284500D02*
D03*
X823059D02*
D03*
X813610D02*
D03*
X804161D02*
D03*
X794713D02*
D03*
X936811Y368653D02*
D03*
X938811Y372153D02*
D03*
X1139000Y114500D02*
D03*
Y124000D02*
D03*
X1186000Y122500D02*
D03*
X1203000Y103500D02*
D03*
X1246000D02*
D03*
X1287000Y119500D02*
D03*
X1244500D02*
D03*
X1251000Y103500D02*
D03*
X1208000D02*
D03*
X1161000Y115000D02*
D03*
Y122500D02*
D03*
X1182500Y114500D02*
D03*
X1201500Y119000D02*
D03*
X1379000Y165500D02*
D03*
Y149000D02*
D03*
X1405000D02*
D03*
X1335000Y165500D02*
D03*
Y149000D02*
D03*
X1361000D02*
D03*
X1335000Y138500D02*
D03*
X816500Y36500D02*
D03*
X817000Y67000D02*
D03*
X821000D02*
D03*
X820619Y36000D02*
D03*
X806746Y78663D02*
D03*
X808500Y82000D02*
D03*
X796500Y49000D02*
D03*
X803000Y104000D02*
D03*
X817000Y109000D02*
D03*
X833500Y104000D02*
D03*
X837000Y92500D02*
D03*
X834500Y95500D02*
D03*
X805000Y122500D02*
D03*
X845000Y67500D02*
D03*
Y83000D02*
D03*
X824000Y55000D02*
D03*
Y42000D02*
D03*
X829000Y91500D02*
D03*
X790000Y83000D02*
D03*
X825000Y67000D02*
D03*
X836500Y33500D02*
D03*
X814500Y33000D02*
D03*
X752000Y91500D02*
D03*
X807500Y39500D02*
D03*
X763000D02*
D03*
X769500Y39000D02*
D03*
X796000Y35000D02*
D03*
X1455663Y343500D02*
D03*
X1418163Y332000D02*
D03*
X1475663Y332500D02*
D03*
X1451163Y323500D02*
D03*
X1475663Y309000D02*
D03*
X1418163D02*
D03*
X1449663Y328000D02*
D03*
X1430163Y317000D02*
D03*
X1454163Y332000D02*
D03*
X1546663Y343500D02*
D03*
X1509163Y332000D02*
D03*
X1566663Y332500D02*
D03*
X1542163Y323500D02*
D03*
X1509163Y309000D02*
D03*
X1540663Y328000D02*
D03*
X1545163Y332000D02*
D03*
X1455663Y286000D02*
D03*
X1418163Y274500D02*
D03*
X1475663Y275000D02*
D03*
X1451163Y266000D02*
D03*
X1475663Y251500D02*
D03*
X1418163D02*
D03*
X1449663Y270500D02*
D03*
X1430163Y259500D02*
D03*
X1454163Y274500D02*
D03*
X1546663Y286000D02*
D03*
X1509163Y274500D02*
D03*
X1566663Y275000D02*
D03*
X1542163Y266000D02*
D03*
X1566663Y251500D02*
D03*
X1509163D02*
D03*
X1540663Y270500D02*
D03*
X1521163Y259500D02*
D03*
X1545163Y274500D02*
D03*
X1455663Y228500D02*
D03*
X1418163Y217000D02*
D03*
X1475663Y217500D02*
D03*
X1451163Y208500D02*
D03*
X1475663Y194000D02*
D03*
X1418163D02*
D03*
X1449663Y213000D02*
D03*
X1430163Y202000D02*
D03*
X1454163Y217000D02*
D03*
X1546663Y228500D02*
D03*
X1509163Y217000D02*
D03*
X1566663Y217500D02*
D03*
X1542163Y208500D02*
D03*
X1566663Y194000D02*
D03*
X1509163D02*
D03*
X1540663Y213000D02*
D03*
X1521163Y202000D02*
D03*
X1545163Y217000D02*
D03*
X1546663Y171000D02*
D03*
X1509163Y159500D02*
D03*
X1542163Y151000D02*
D03*
X1509163Y136500D02*
D03*
X1540663Y155500D02*
D03*
X1521163Y144500D02*
D03*
X1545163Y159500D02*
D03*
X1455663Y171000D02*
D03*
X1418163Y159500D02*
D03*
X1475663Y160000D02*
D03*
X1451163Y151000D02*
D03*
X1475663Y136500D02*
D03*
X1418163D02*
D03*
X1449663Y155500D02*
D03*
X1454163Y159500D02*
D03*
X1379000Y138500D02*
D03*
X1405000Y122000D02*
D03*
X1403000Y216500D02*
D03*
X1359000Y217000D02*
D03*
X1343500Y176500D02*
D03*
X1360500D02*
D03*
X1387500D02*
D03*
X1404500D02*
D03*
X887099Y101850D02*
D03*
X886926Y78480D02*
D03*
Y54980D02*
D03*
X870228Y91480D02*
D03*
X972000Y52500D02*
D03*
X936500Y26000D02*
D03*
X931000D02*
D03*
X936500Y11500D02*
D03*
X931000D02*
D03*
X35331Y190760D02*
D03*
X263831Y190260D02*
D03*
Y173260D02*
D03*
X491831Y172760D02*
D03*
X609331Y167996D02*
D03*
Y186496D02*
D03*
X24231Y143760D02*
D03*
X42331D02*
D03*
X88731D02*
D03*
X138384D02*
D03*
X156331D02*
D03*
X252538D02*
D03*
X270331D02*
D03*
X317038D02*
D03*
X334831D02*
D03*
X366691D02*
D03*
X480845D02*
D03*
X498331D02*
D03*
X562831D02*
D03*
X545345D02*
D03*
X677331D02*
D03*
X659498D02*
D03*
X612331D02*
D03*
D113*
X1034831Y469289D02*
D03*
X664831Y274289D02*
D03*
Y469289D02*
D03*
X1034831Y274289D02*
D03*
D114*
X897433Y22303D02*
D03*
X869835D02*
D03*
X979441Y22563D02*
D03*
X951842D02*
D03*
D115*
X1408500Y403000D02*
D03*
Y395500D02*
D03*
D116*
X1639250Y454904D02*
D03*
Y436404D02*
D03*
X1651750D02*
D03*
Y454904D02*
D03*
X1645500D02*
D03*
Y450279D02*
D03*
Y445653D02*
D03*
Y441028D02*
D03*
Y436404D02*
D03*
X1639250Y450279D02*
D03*
Y445653D02*
D03*
Y441028D02*
D03*
X1651750D02*
D03*
Y445653D02*
D03*
Y450279D02*
D03*
X1500750D02*
D03*
Y445653D02*
D03*
Y441028D02*
D03*
X1488250D02*
D03*
Y445653D02*
D03*
Y450279D02*
D03*
X1494500Y436404D02*
D03*
Y441028D02*
D03*
Y445653D02*
D03*
Y450279D02*
D03*
Y454904D02*
D03*
X1500750D02*
D03*
Y436404D02*
D03*
X1488250D02*
D03*
Y454904D02*
D03*
D152*
X398772Y170150D02*
D03*
X396213D02*
D03*
X393653D02*
D03*
X391094D02*
D03*
X401331D02*
D03*
X403890D02*
D03*
X406449D02*
D03*
X411567D02*
D03*
X409008D02*
D03*
X414126D02*
D03*
Y192000D02*
D03*
X409008D02*
D03*
X411567D02*
D03*
X406449D02*
D03*
X403890D02*
D03*
X401331D02*
D03*
X391094D02*
D03*
X393653D02*
D03*
X396213D02*
D03*
X398772D02*
D03*
X170272Y192760D02*
D03*
X167713D02*
D03*
X165154D02*
D03*
X162594D02*
D03*
X172831D02*
D03*
X175390D02*
D03*
X177949D02*
D03*
X183067D02*
D03*
X180508D02*
D03*
X185626D02*
D03*
Y170909D02*
D03*
X180508D02*
D03*
X183067D02*
D03*
X177949D02*
D03*
X175390D02*
D03*
X172831D02*
D03*
X162594D02*
D03*
X165154D02*
D03*
X167713D02*
D03*
X170272D02*
D03*
X53949Y192760D02*
D03*
X51390D02*
D03*
X48831D02*
D03*
X46272D02*
D03*
X56508D02*
D03*
X59067D02*
D03*
X61626D02*
D03*
X66744D02*
D03*
X64185D02*
D03*
X69303D02*
D03*
Y170909D02*
D03*
X64185D02*
D03*
X66744D02*
D03*
X61626D02*
D03*
X59067D02*
D03*
X56508D02*
D03*
X46272D02*
D03*
X48831D02*
D03*
X51390D02*
D03*
X53949D02*
D03*
X283154Y192760D02*
D03*
X280594D02*
D03*
X278035D02*
D03*
X275476D02*
D03*
X285713D02*
D03*
X288272D02*
D03*
X290831D02*
D03*
X295949D02*
D03*
X293390D02*
D03*
X298508D02*
D03*
Y170909D02*
D03*
X293390D02*
D03*
X295949D02*
D03*
X290831D02*
D03*
X288272D02*
D03*
X285713D02*
D03*
X275476D02*
D03*
X278035D02*
D03*
X280594D02*
D03*
X283154D02*
D03*
X509680Y192760D02*
D03*
X507120D02*
D03*
X504561D02*
D03*
X502002D02*
D03*
X512239D02*
D03*
X514798D02*
D03*
X517357D02*
D03*
X522475D02*
D03*
X519916D02*
D03*
X525034D02*
D03*
Y170909D02*
D03*
X519916D02*
D03*
X522475D02*
D03*
X517357D02*
D03*
X514798D02*
D03*
X512239D02*
D03*
X502002D02*
D03*
X504561D02*
D03*
X507120D02*
D03*
X509680D02*
D03*
X629501Y186500D02*
D03*
X626942D02*
D03*
X624383D02*
D03*
X621824D02*
D03*
X632061D02*
D03*
X634620D02*
D03*
X637179D02*
D03*
X642297D02*
D03*
X639738D02*
D03*
X644856D02*
D03*
Y164650D02*
D03*
X639738D02*
D03*
X642297D02*
D03*
X637179D02*
D03*
X634620D02*
D03*
X632061D02*
D03*
X621824D02*
D03*
X624383D02*
D03*
X626942D02*
D03*
X629501D02*
D03*
D153*
X816973Y74079D02*
D03*
X826815D02*
D03*
Y83921D02*
D03*
X816973D02*
D03*
D154*
X824847Y72898D02*
D03*
X822878D02*
D03*
X820910D02*
D03*
X818941D02*
D03*
X824847Y85084D02*
D03*
X822878D02*
D03*
X820910D02*
D03*
X818941D02*
D03*
D155*
X827978Y76047D02*
D03*
Y78016D02*
D03*
Y79984D02*
D03*
Y81953D02*
D03*
X815792D02*
D03*
Y79984D02*
D03*
Y78016D02*
D03*
Y76047D02*
D03*
D156*
X821894Y79000D02*
D03*
D157*
X825260Y36059D02*
D03*
Y30941D02*
D03*
X832740Y36059D02*
D03*
Y33500D02*
D03*
Y30941D02*
D03*
X784760Y37559D02*
D03*
Y32441D02*
D03*
X792240Y37559D02*
D03*
Y35000D02*
D03*
Y32441D02*
D03*
D158*
X1093859Y132260D02*
D03*
X1098977D02*
D03*
X1093859Y139740D02*
D03*
X1096418D02*
D03*
X1098977D02*
D03*
X520959Y493740D02*
D03*
X515841D02*
D03*
X520959Y486260D02*
D03*
X518400D02*
D03*
X515841D02*
D03*
D159*
X330100Y283565D02*
D03*
X323400D02*
D03*
X316700D02*
D03*
X336800D02*
D03*
X343500D02*
D03*
X991788Y367653D02*
D03*
X985088D02*
D03*
X964988D02*
D03*
X971688D02*
D03*
X978388D02*
D03*
X298141Y284000D02*
D03*
X291441D02*
D03*
X271341D02*
D03*
X278041D02*
D03*
X284741D02*
D03*
X903402Y367653D02*
D03*
X896702D02*
D03*
X876602D02*
D03*
X883302D02*
D03*
X890002D02*
D03*
X388000Y283565D02*
D03*
X381300D02*
D03*
X361200D02*
D03*
X367900D02*
D03*
X374600D02*
D03*
D160*
X330100Y318065D02*
D03*
X978388Y402153D02*
D03*
X284741Y318500D02*
D03*
X890002Y402153D02*
D03*
X374600Y318065D02*
D03*
D161*
X1436392Y313358D02*
D03*
Y315917D02*
D03*
Y318476D02*
D03*
Y321035D02*
D03*
Y323594D02*
D03*
Y326153D02*
D03*
Y328712D02*
D03*
X1458242Y313358D02*
D03*
Y315917D02*
D03*
Y318476D02*
D03*
Y321035D02*
D03*
Y323594D02*
D03*
Y326153D02*
D03*
Y328712D02*
D03*
X1436392Y255858D02*
D03*
Y258417D02*
D03*
Y260976D02*
D03*
Y263535D02*
D03*
Y266094D02*
D03*
Y268653D02*
D03*
Y271212D02*
D03*
X1458242Y255858D02*
D03*
Y258417D02*
D03*
Y260976D02*
D03*
Y263535D02*
D03*
Y266094D02*
D03*
Y268653D02*
D03*
Y271212D02*
D03*
X1436392Y198358D02*
D03*
Y200917D02*
D03*
Y203476D02*
D03*
Y206035D02*
D03*
Y208594D02*
D03*
Y211153D02*
D03*
Y213712D02*
D03*
X1458242Y198358D02*
D03*
Y200917D02*
D03*
Y203476D02*
D03*
Y206035D02*
D03*
Y208594D02*
D03*
Y211153D02*
D03*
Y213712D02*
D03*
X1436392Y140858D02*
D03*
Y143417D02*
D03*
Y145976D02*
D03*
Y148535D02*
D03*
Y151094D02*
D03*
Y153653D02*
D03*
Y156212D02*
D03*
X1458242Y140858D02*
D03*
Y143417D02*
D03*
Y145976D02*
D03*
Y148535D02*
D03*
Y151094D02*
D03*
Y153653D02*
D03*
Y156212D02*
D03*
X1527392Y313358D02*
D03*
Y315917D02*
D03*
Y318476D02*
D03*
Y321035D02*
D03*
Y323594D02*
D03*
Y326153D02*
D03*
Y328712D02*
D03*
X1549242Y313358D02*
D03*
Y315917D02*
D03*
Y318476D02*
D03*
Y321035D02*
D03*
Y323594D02*
D03*
Y326153D02*
D03*
Y328712D02*
D03*
X1527392Y255858D02*
D03*
Y258417D02*
D03*
Y260976D02*
D03*
Y263535D02*
D03*
Y266094D02*
D03*
Y268653D02*
D03*
Y271212D02*
D03*
X1549242Y255858D02*
D03*
Y258417D02*
D03*
Y260976D02*
D03*
Y263535D02*
D03*
Y266094D02*
D03*
Y268653D02*
D03*
Y271212D02*
D03*
X1527392Y198358D02*
D03*
Y200917D02*
D03*
Y203476D02*
D03*
Y206035D02*
D03*
Y208594D02*
D03*
Y211153D02*
D03*
Y213712D02*
D03*
X1549242Y198358D02*
D03*
Y200917D02*
D03*
Y203476D02*
D03*
Y206035D02*
D03*
Y208594D02*
D03*
Y211153D02*
D03*
Y213712D02*
D03*
X1527392Y140858D02*
D03*
Y143417D02*
D03*
Y145976D02*
D03*
Y148535D02*
D03*
Y151094D02*
D03*
Y153653D02*
D03*
Y156212D02*
D03*
X1549242Y140858D02*
D03*
Y143417D02*
D03*
Y145976D02*
D03*
Y148535D02*
D03*
Y151094D02*
D03*
Y153653D02*
D03*
Y156212D02*
D03*
X1638075Y289874D02*
D03*
Y292433D02*
D03*
Y294992D02*
D03*
Y297551D02*
D03*
Y300110D02*
D03*
Y302669D02*
D03*
Y305228D02*
D03*
X1659925Y289874D02*
D03*
Y292433D02*
D03*
Y294992D02*
D03*
Y297551D02*
D03*
Y300110D02*
D03*
Y302669D02*
D03*
Y305228D02*
D03*
X1638075Y188874D02*
D03*
Y191433D02*
D03*
Y193992D02*
D03*
Y196551D02*
D03*
Y199110D02*
D03*
Y201669D02*
D03*
Y204228D02*
D03*
X1659925Y188874D02*
D03*
Y191433D02*
D03*
Y193992D02*
D03*
Y196551D02*
D03*
Y199110D02*
D03*
Y201669D02*
D03*
Y204228D02*
D03*
D162*
X924571Y369213D02*
D03*
Y366653D02*
D03*
Y364094D02*
D03*
X932051D02*
D03*
Y366653D02*
D03*
Y369213D02*
D03*
M02*
