G04*
G04 #@! TF.GenerationSoftware,Altium Limited,Altium Designer,18.0.12 (696)*
G04*
G04 Layer_Physical_Order=3*
G04 Layer_Color=16440176*
%FSLAX25Y25*%
%MOIN*%
G70*
G01*
G75*
%ADD10C,0.01000*%
%ADD11C,0.02000*%
%ADD64C,0.04000*%
%ADD116C,0.03000*%
%ADD119C,0.01800*%
%ADD124C,0.06000*%
%ADD128C,0.05000*%
%ADD129C,0.07000*%
%ADD132C,0.03937*%
%ADD133C,0.06700*%
%ADD139C,0.04000*%
G36*
X1395000Y522500D02*
X1395000Y507500D01*
Y353039D01*
X1392500D01*
X1391720Y352884D01*
X1391058Y352442D01*
X1386082Y347466D01*
X1385525Y347355D01*
X1384698Y346802D01*
X1384145Y345975D01*
X1383951Y345000D01*
X1384145Y344024D01*
X1384698Y343198D01*
X1385525Y342645D01*
X1386500Y342451D01*
X1387475Y342645D01*
X1388302Y343198D01*
X1388855Y344024D01*
X1388961Y344559D01*
X1389126Y344742D01*
X1393345Y348961D01*
X1395000D01*
Y298039D01*
X1387948D01*
X1387475Y298355D01*
X1386500Y298549D01*
X1385525Y298355D01*
X1384698Y297802D01*
X1384145Y296975D01*
X1383951Y296000D01*
X1384145Y295024D01*
X1384698Y294198D01*
X1385525Y293645D01*
X1386500Y293451D01*
X1387475Y293645D01*
X1387929Y293948D01*
X1388174Y293961D01*
X1395000D01*
Y249039D01*
X1387948D01*
X1387475Y249355D01*
X1386500Y249549D01*
X1385525Y249355D01*
X1384698Y248802D01*
X1384145Y247975D01*
X1383951Y247000D01*
X1384145Y246024D01*
X1384698Y245198D01*
X1385525Y244645D01*
X1386500Y244451D01*
X1387475Y244645D01*
X1387929Y244948D01*
X1388174Y244961D01*
X1395000D01*
Y200039D01*
X1387948D01*
X1387475Y200355D01*
X1386500Y200549D01*
X1385525Y200355D01*
X1384840Y199898D01*
X1384500Y199837D01*
X1384160Y199898D01*
X1383475Y200355D01*
X1382500Y200549D01*
X1381525Y200355D01*
X1380698Y199802D01*
X1380145Y198976D01*
X1379951Y198000D01*
X1380145Y197025D01*
X1380698Y196198D01*
X1381525Y195645D01*
X1382500Y195451D01*
X1383475Y195645D01*
X1384160Y196102D01*
X1384500Y196163D01*
X1384840Y196102D01*
X1385525Y195645D01*
X1386500Y195451D01*
X1387475Y195645D01*
X1387929Y195948D01*
X1388174Y195961D01*
X1395000D01*
Y173139D01*
X1375000D01*
X1375000Y179295D01*
X1375302Y179498D01*
X1375855Y180324D01*
X1376049Y181300D01*
X1375855Y182275D01*
X1375302Y183102D01*
X1375000Y183305D01*
X1375000Y228295D01*
X1375302Y228498D01*
X1375855Y229325D01*
X1376049Y230300D01*
X1375855Y231276D01*
X1375302Y232102D01*
X1375000Y232305D01*
X1375000Y277295D01*
X1375302Y277498D01*
X1375855Y278325D01*
X1376049Y279300D01*
X1375855Y280276D01*
X1375302Y281102D01*
X1375000Y281305D01*
X1375000Y326295D01*
X1375302Y326498D01*
X1375855Y327325D01*
X1376049Y328300D01*
X1375855Y329275D01*
X1375302Y330102D01*
X1375000Y330305D01*
X1375000Y507500D01*
X1184000Y507500D01*
X1149807Y473307D01*
X1116306Y473307D01*
X1082113Y507500D01*
X540415Y507500D01*
X540092Y508000D01*
X540224Y509000D01*
X540069Y510175D01*
X539616Y511269D01*
X538894Y512209D01*
X537954Y512931D01*
X536860Y513384D01*
X535685Y513539D01*
X534510Y513384D01*
X533416Y512931D01*
X532476Y512209D01*
X531754Y511269D01*
X531301Y510175D01*
X531146Y509000D01*
X531278Y508000D01*
X530955Y507500D01*
X520730D01*
X520407Y508000D01*
X520539Y509000D01*
X520384Y510175D01*
X519931Y511269D01*
X519209Y512209D01*
X518269Y512931D01*
X517175Y513384D01*
X516000Y513539D01*
X514825Y513384D01*
X513731Y512931D01*
X512791Y512209D01*
X512069Y511269D01*
X511616Y510175D01*
X511461Y509000D01*
X511593Y508000D01*
X511270Y507500D01*
X497572D01*
X497250Y508000D01*
X497381Y509000D01*
X497227Y510175D01*
X496773Y511269D01*
X496052Y512209D01*
X495112Y512931D01*
X494017Y513384D01*
X492842Y513539D01*
X491668Y513384D01*
X490573Y512931D01*
X489633Y512209D01*
X488912Y511269D01*
X488458Y510175D01*
X488304Y509000D01*
X488458Y507825D01*
X488912Y506731D01*
X489633Y505791D01*
X490573Y505069D01*
X491668Y504616D01*
X492842Y504461D01*
X494017Y504616D01*
X495112Y505069D01*
X495278Y505197D01*
X495727Y504976D01*
Y490143D01*
X495373Y489789D01*
X89550Y490022D01*
X89550Y328300D01*
X50000Y328300D01*
Y342652D01*
X50354Y343006D01*
X74000Y342992D01*
X74000Y504153D01*
X385457Y504153D01*
Y511629D01*
X385545Y511687D01*
X386097Y512514D01*
X386291Y513489D01*
X386097Y514465D01*
X385545Y515292D01*
X385457Y515350D01*
Y522500D01*
X1092643Y522500D01*
X1125869Y489000D01*
X1143609Y489000D01*
X1177109Y522500D01*
X1395000Y522500D01*
D02*
G37*
G36*
X540510Y484645D02*
X540490Y484639D01*
X540459Y484620D01*
X540417Y484588D01*
X540298Y484487D01*
X539926Y484132D01*
X539805Y484011D01*
X538390Y485425D01*
X539025Y486130D01*
X540510Y484645D01*
D02*
G37*
G36*
X1674929Y472257D02*
X1674911Y472267D01*
X1674875Y472275D01*
X1674823Y472283D01*
X1674668Y472295D01*
X1674153Y472307D01*
X1673982Y472307D01*
Y474307D01*
X1674929Y474357D01*
Y472257D01*
D02*
G37*
G36*
X1523429D02*
X1523411Y472267D01*
X1523375Y472275D01*
X1523323Y472283D01*
X1523168Y472295D01*
X1522653Y472307D01*
X1522482Y472307D01*
Y474307D01*
X1523429Y474357D01*
Y472257D01*
D02*
G37*
G36*
X1677505Y473355D02*
X1677525Y473329D01*
X1677557Y473291D01*
X1677812Y473021D01*
X1678136Y472693D01*
X1676819Y471182D01*
X1676698Y471302D01*
X1676151Y471787D01*
X1676116Y471805D01*
X1676092Y471810D01*
X1677499Y473369D01*
X1677505Y473355D01*
D02*
G37*
G36*
X1526847Y469982D02*
X1525871Y469788D01*
X1525044Y469236D01*
X1524492Y468409D01*
X1524298Y467433D01*
X1524492Y466458D01*
X1525044Y465631D01*
X1525871Y465078D01*
X1526847Y464884D01*
Y422500D01*
X1556382Y422500D01*
X1556382Y459987D01*
X1588646Y460017D01*
X1589000Y459664D01*
Y427000D01*
X1635627D01*
X1635749Y426550D01*
X1635749Y426548D01*
X1635306Y426411D01*
X1635025Y426355D01*
X1634198Y425802D01*
X1633645Y424975D01*
X1633451Y424000D01*
X1633645Y423025D01*
X1634198Y422198D01*
X1635025Y421645D01*
X1636000Y421451D01*
X1636975Y421645D01*
X1637802Y422198D01*
X1638355Y423025D01*
X1638549Y424000D01*
X1638355Y424975D01*
X1637802Y425802D01*
X1636975Y426355D01*
X1636694Y426411D01*
X1636251Y426548D01*
X1636251Y426550D01*
X1636373Y427000D01*
X1646181D01*
X1646448Y426500D01*
X1646098Y425976D01*
X1645904Y425000D01*
X1646098Y424024D01*
X1646650Y423198D01*
X1647477Y422645D01*
X1648453Y422451D01*
X1649428Y422645D01*
X1650255Y423198D01*
X1650808Y424024D01*
X1651002Y425000D01*
X1650808Y425976D01*
X1650457Y426500D01*
X1650724Y427000D01*
X1652086D01*
X1652354Y426500D01*
X1652003Y425976D01*
X1651809Y425000D01*
X1652003Y424024D01*
X1652556Y423198D01*
X1653383Y422645D01*
X1654358Y422451D01*
X1655334Y422645D01*
X1656161Y423198D01*
X1656713Y424024D01*
X1656907Y425000D01*
X1656713Y425976D01*
X1656363Y426500D01*
X1656630Y427000D01*
X1662000D01*
Y432555D01*
X1662500Y432822D01*
X1663025Y432472D01*
X1664000Y432278D01*
X1664975Y432472D01*
X1665802Y433024D01*
X1666355Y433851D01*
X1666549Y434827D01*
X1666355Y435802D01*
X1665802Y436629D01*
X1664975Y437182D01*
X1664000Y437376D01*
X1663025Y437182D01*
X1662500Y436831D01*
X1662000Y437099D01*
Y438461D01*
X1662500Y438728D01*
X1663025Y438377D01*
X1664000Y438183D01*
X1664975Y438377D01*
X1665802Y438930D01*
X1666355Y439757D01*
X1666549Y440732D01*
X1666355Y441708D01*
X1665802Y442535D01*
X1664975Y443087D01*
X1664000Y443281D01*
X1663025Y443087D01*
X1662500Y442737D01*
X1662000Y443004D01*
Y450272D01*
X1662500Y450539D01*
X1663025Y450188D01*
X1664000Y449994D01*
X1664975Y450188D01*
X1665802Y450741D01*
X1666355Y451568D01*
X1666549Y452543D01*
X1666355Y453519D01*
X1665802Y454346D01*
X1664975Y454898D01*
X1664000Y455092D01*
X1663025Y454898D01*
X1662500Y454548D01*
X1662000Y454815D01*
Y456228D01*
X1662500Y456496D01*
X1663025Y456145D01*
X1664000Y455951D01*
X1664975Y456145D01*
X1665802Y456698D01*
X1666355Y457524D01*
X1666549Y458500D01*
X1666355Y459476D01*
X1665802Y460302D01*
X1664975Y460855D01*
X1664000Y461049D01*
X1663025Y460855D01*
X1662500Y460504D01*
X1662000Y460772D01*
Y464000D01*
X1655000D01*
Y471000D01*
X1674953D01*
X1675025Y470952D01*
X1675709Y470816D01*
X1675766Y470765D01*
X1677794Y468737D01*
X1677794Y468737D01*
X1678191Y468472D01*
X1678169Y467886D01*
X1678044Y467802D01*
X1677492Y466975D01*
X1677298Y466000D01*
X1677492Y465025D01*
X1678044Y464198D01*
X1678871Y463645D01*
X1679847Y463451D01*
Y416857D01*
X1678871Y416663D01*
X1678044Y416111D01*
X1677492Y415284D01*
X1677298Y414308D01*
X1677492Y413333D01*
X1678044Y412506D01*
X1678871Y411953D01*
X1679847Y411759D01*
Y410500D01*
X1671511D01*
X1671355Y411282D01*
X1670802Y412110D01*
X1669975Y412662D01*
X1669000Y412856D01*
X1668025Y412662D01*
X1667198Y412110D01*
X1666645Y411282D01*
X1666489Y410500D01*
X1618511D01*
X1618355Y411282D01*
X1617802Y412110D01*
X1616975Y412662D01*
X1616000Y412856D01*
X1615025Y412662D01*
X1614198Y412110D01*
X1613784Y411491D01*
X1613216D01*
X1612802Y412110D01*
X1611975Y412662D01*
X1611000Y412856D01*
X1610025Y412662D01*
X1609198Y412110D01*
X1608645Y411282D01*
X1608489Y410500D01*
X1519511D01*
X1519355Y411282D01*
X1518802Y412110D01*
X1517975Y412662D01*
X1517000Y412856D01*
X1516528Y412762D01*
X1516141Y413079D01*
Y414257D01*
X1516418Y414534D01*
X1516975Y414645D01*
X1517802Y415198D01*
X1518355Y416024D01*
X1518549Y417000D01*
X1518355Y417976D01*
X1517802Y418802D01*
X1516975Y419355D01*
X1516000Y419549D01*
X1515025Y419355D01*
X1514198Y418802D01*
X1513645Y417976D01*
X1513539Y417441D01*
X1513374Y417258D01*
X1512116Y416000D01*
X1491000D01*
X1491000Y428000D01*
X1510500Y428000D01*
Y432703D01*
X1511000Y432918D01*
X1511668Y432472D01*
X1512643Y432278D01*
X1513619Y432472D01*
X1514446Y433024D01*
X1514998Y433851D01*
X1515192Y434827D01*
X1514998Y435802D01*
X1514446Y436629D01*
X1513619Y437182D01*
X1512643Y437376D01*
X1511668Y437182D01*
X1511000Y436735D01*
X1510500Y436950D01*
X1510500Y451842D01*
X1511000Y451993D01*
X1511198Y451698D01*
X1512025Y451145D01*
X1513000Y450951D01*
X1513975Y451145D01*
X1514802Y451698D01*
X1515355Y452525D01*
X1515549Y453500D01*
X1515355Y454475D01*
X1514802Y455302D01*
X1513975Y455855D01*
X1513000Y456049D01*
X1512025Y455855D01*
X1511198Y455302D01*
X1511000Y455007D01*
X1510500Y455158D01*
Y457842D01*
X1511000Y457993D01*
X1511198Y457698D01*
X1512025Y457145D01*
X1513000Y456951D01*
X1513975Y457145D01*
X1514802Y457698D01*
X1515355Y458525D01*
X1515549Y459500D01*
X1515355Y460475D01*
X1514802Y461302D01*
X1513975Y461855D01*
X1513000Y462049D01*
X1512025Y461855D01*
X1511198Y461302D01*
X1511000Y461007D01*
X1510500Y461158D01*
Y463500D01*
X1505000D01*
X1505000Y471268D01*
X1523052D01*
X1523525Y470952D01*
X1524500Y470758D01*
X1525475Y470952D01*
X1526295Y471500D01*
X1526847D01*
Y469982D01*
D02*
G37*
G36*
X1637634Y469220D02*
X1637000Y468515D01*
X1635515Y470000D01*
X1635535Y470006D01*
X1635566Y470025D01*
X1635608Y470057D01*
X1635726Y470158D01*
X1636098Y470513D01*
X1636220Y470634D01*
X1637634Y469220D01*
D02*
G37*
G36*
X1483134D02*
X1482500Y468515D01*
X1481015Y470000D01*
X1481035Y470006D01*
X1481066Y470025D01*
X1481108Y470057D01*
X1481226Y470158D01*
X1481598Y470513D01*
X1481720Y470634D01*
X1483134Y469220D01*
D02*
G37*
G36*
X1480985Y467000D02*
X1480965Y466994D01*
X1480934Y466975D01*
X1480892Y466943D01*
X1480774Y466842D01*
X1480402Y466487D01*
X1480280Y466366D01*
X1478866Y467780D01*
X1479500Y468485D01*
X1480985Y467000D01*
D02*
G37*
G36*
X1228470Y463777D02*
X1228167Y463770D01*
X1227876Y463743D01*
X1227595Y463696D01*
X1227325Y463628D01*
X1227066Y463540D01*
X1226818Y463432D01*
X1226581Y463304D01*
X1226354Y463155D01*
X1226139Y462986D01*
X1225934Y462797D01*
X1224520Y464212D01*
X1224709Y464416D01*
X1224878Y464632D01*
X1225026Y464858D01*
X1225155Y465095D01*
X1225263Y465343D01*
X1225351Y465602D01*
X1225418Y465872D01*
X1225466Y466153D01*
X1225493Y466445D01*
X1225500Y466747D01*
X1228470Y463777D01*
D02*
G37*
G36*
X1620550Y456071D02*
X1618450D01*
X1618460Y456089D01*
X1618468Y456125D01*
X1618476Y456177D01*
X1618488Y456332D01*
X1618500Y456847D01*
X1618500Y457018D01*
X1620500D01*
X1620550Y456071D01*
D02*
G37*
G36*
X1345991Y455874D02*
X1345978Y455853D01*
X1345966Y455816D01*
X1345955Y455761D01*
X1345946Y455691D01*
X1345931Y455499D01*
X1345920Y454915D01*
X1343920Y455059D01*
X1343894Y455986D01*
X1345991Y455874D01*
D02*
G37*
G36*
X1620540Y453910D02*
X1620532Y453875D01*
X1620524Y453823D01*
X1620513Y453668D01*
X1620501Y453153D01*
X1620500Y452982D01*
X1618500D01*
X1618450Y453929D01*
X1620550D01*
X1620540Y453910D01*
D02*
G37*
G36*
X536081Y454821D02*
X536064Y454750D01*
X536049Y454646D01*
X536025Y454335D01*
X536001Y453306D01*
X536000Y452964D01*
X532000D01*
X531900Y454858D01*
X536100D01*
X536081Y454821D01*
D02*
G37*
G36*
X1473540Y446910D02*
X1473532Y446875D01*
X1473524Y446823D01*
X1473512Y446668D01*
X1473501Y446153D01*
X1473500Y445982D01*
X1471500D01*
X1471450Y446929D01*
X1473550D01*
X1473540Y446910D01*
D02*
G37*
G36*
X895506Y443965D02*
X895525Y443934D01*
X895557Y443892D01*
X895658Y443774D01*
X896014Y443401D01*
X896134Y443280D01*
X894720Y441866D01*
X894015Y442500D01*
X895500Y443985D01*
X895506Y443965D01*
D02*
G37*
G36*
X1473550Y437071D02*
X1471450D01*
X1471459Y437089D01*
X1471468Y437125D01*
X1471476Y437177D01*
X1471488Y437332D01*
X1471500Y437847D01*
X1471500Y438018D01*
X1473500D01*
X1473550Y437071D01*
D02*
G37*
G36*
X1473540Y434910D02*
X1473532Y434875D01*
X1473524Y434823D01*
X1473512Y434668D01*
X1473501Y434153D01*
X1473500Y433982D01*
X1471500D01*
X1471450Y434929D01*
X1473550D01*
X1473540Y434910D01*
D02*
G37*
G36*
X1622023Y434416D02*
X1620361Y433133D01*
X1620358Y433162D01*
X1620341Y433201D01*
X1620312Y433251D01*
X1620270Y433311D01*
X1620215Y433381D01*
X1619972Y433652D01*
X1619745Y433885D01*
X1621408Y435050D01*
X1622023Y434416D01*
D02*
G37*
G36*
X1486709Y424270D02*
X1486625Y424146D01*
X1486550Y424021D01*
X1486486Y423894D01*
X1486431Y423765D01*
X1486386Y423634D01*
X1486352Y423503D01*
X1486327Y423369D01*
X1486312Y423234D01*
X1486307Y423097D01*
X1485307Y422979D01*
X1485301Y423120D01*
X1485283Y423256D01*
X1485254Y423387D01*
X1485213Y423513D01*
X1485159Y423634D01*
X1485094Y423750D01*
X1485017Y423860D01*
X1484929Y423966D01*
X1484828Y424066D01*
X1484716Y424161D01*
X1486803Y424393D01*
X1486709Y424270D01*
D02*
G37*
G36*
X1465550Y418071D02*
X1463450D01*
X1463459Y418089D01*
X1463468Y418125D01*
X1463476Y418177D01*
X1463488Y418332D01*
X1463500Y418847D01*
X1463500Y419018D01*
X1465500D01*
X1465550Y418071D01*
D02*
G37*
G36*
X927133Y413695D02*
X925719Y412281D01*
X922184Y411574D01*
X922438Y411856D01*
X922636Y412139D01*
X922778Y412422D01*
X922863Y412705D01*
X922891Y412988D01*
X922863Y413271D01*
X922778Y413553D01*
X922636Y413836D01*
X922438Y414119D01*
X922184Y414402D01*
X923598Y415816D01*
X923881Y415562D01*
X924164Y415364D01*
X924446Y415222D01*
X924729Y415137D01*
X925012Y415109D01*
X925295Y415137D01*
X925578Y415222D01*
X925861Y415364D01*
X926144Y415562D01*
X926426Y415816D01*
X927133Y413695D01*
D02*
G37*
G36*
X1515985Y415500D02*
X1515965Y415494D01*
X1515934Y415475D01*
X1515892Y415443D01*
X1515774Y415342D01*
X1515401Y414987D01*
X1515280Y414866D01*
X1513866Y416280D01*
X1514500Y416985D01*
X1515985Y415500D01*
D02*
G37*
G36*
X1464485D02*
X1464465Y415494D01*
X1464434Y415475D01*
X1464392Y415443D01*
X1464274Y415342D01*
X1463902Y414987D01*
X1463780Y414866D01*
X1462366Y416280D01*
X1463000Y416985D01*
X1464485Y415500D01*
D02*
G37*
G36*
X1612041Y409218D02*
X1612032Y409182D01*
X1612024Y409130D01*
X1612012Y408975D01*
X1612000Y408460D01*
X1612000Y408289D01*
X1610000D01*
X1609950Y409236D01*
X1612050D01*
X1612041Y409218D01*
D02*
G37*
G36*
X1473550Y405931D02*
X1471450D01*
X1471459Y405949D01*
X1471468Y405984D01*
X1471476Y406036D01*
X1471488Y406192D01*
X1471500Y406706D01*
X1471500Y406877D01*
X1473500D01*
X1473550Y405931D01*
D02*
G37*
G36*
X1315929Y401950D02*
X1315911Y401960D01*
X1315875Y401968D01*
X1315823Y401975D01*
X1315668Y401988D01*
X1315153Y402000D01*
X1314982Y402000D01*
Y404000D01*
X1315929Y404050D01*
Y401950D01*
D02*
G37*
G36*
X1636502Y403094D02*
X1636549Y402429D01*
X1637050D01*
X1636946Y402319D01*
X1636852Y402207D01*
X1636769Y402091D01*
X1636698Y401971D01*
X1636637Y401849D01*
X1636596Y401744D01*
X1636608Y401585D01*
X1636641Y401454D01*
X1636678Y401357D01*
X1636720Y401294D01*
X1636504D01*
X1636500Y401186D01*
X1635500D01*
X1635496Y401294D01*
X1635280D01*
X1635322Y401357D01*
X1635360Y401454D01*
X1635392Y401585D01*
X1635398Y401620D01*
X1635415Y401714D01*
X1635412Y401722D01*
X1635362Y401849D01*
X1635302Y401971D01*
X1635230Y402091D01*
X1635148Y402207D01*
X1635055Y402319D01*
X1634950Y402429D01*
X1635476D01*
X1635491Y402757D01*
X1635500Y403466D01*
X1636500D01*
X1636502Y403094D01*
D02*
G37*
G36*
X1410507Y402866D02*
X1410529Y402747D01*
X1410568Y402624D01*
X1410622Y402496D01*
X1410692Y402363D01*
X1410778Y402226D01*
X1410880Y402085D01*
X1410998Y401939D01*
X1411280Y401634D01*
X1409866Y400220D01*
X1409711Y400369D01*
X1409415Y400620D01*
X1409274Y400722D01*
X1409137Y400808D01*
X1409004Y400878D01*
X1408876Y400932D01*
X1408753Y400971D01*
X1408634Y400993D01*
X1408520Y401000D01*
X1410500Y402980D01*
X1410507Y402866D01*
D02*
G37*
G36*
X1677518Y403139D02*
X1677573Y402816D01*
X1677665Y402531D01*
X1677793Y402284D01*
X1677957Y402075D01*
X1678158Y401904D01*
X1678396Y401771D01*
X1678670Y401676D01*
X1678981Y401619D01*
X1679328Y401600D01*
X1676500Y399600D01*
X1673500Y401600D01*
X1673880Y401619D01*
X1674220Y401676D01*
X1674520Y401771D01*
X1674780Y401904D01*
X1675000Y402075D01*
X1675180Y402284D01*
X1675320Y402531D01*
X1675420Y402816D01*
X1675480Y403139D01*
X1675500Y403500D01*
X1677500D01*
X1677518Y403139D01*
D02*
G37*
G36*
X1612020Y403220D02*
X1612080Y402880D01*
X1612180Y402580D01*
X1612320Y402320D01*
X1612500Y402100D01*
X1612720Y401920D01*
X1612980Y401780D01*
X1613280Y401680D01*
X1613620Y401620D01*
X1614000Y401600D01*
X1611000Y399600D01*
X1608000Y401600D01*
X1608380Y401620D01*
X1608720Y401680D01*
X1609020Y401780D01*
X1609280Y401920D01*
X1609500Y402100D01*
X1609680Y402320D01*
X1609820Y402580D01*
X1609920Y402880D01*
X1609980Y403220D01*
X1610000Y403600D01*
X1612000D01*
X1612020Y403220D01*
D02*
G37*
G36*
X1512149D02*
X1512209Y402880D01*
X1512309Y402580D01*
X1512449Y402320D01*
X1512629Y402100D01*
X1512849Y401920D01*
X1513109Y401780D01*
X1513409Y401680D01*
X1513749Y401620D01*
X1514129Y401600D01*
X1511129Y399600D01*
X1508129Y401600D01*
X1508509Y401620D01*
X1508849Y401680D01*
X1509149Y401780D01*
X1509409Y401920D01*
X1509629Y402100D01*
X1509809Y402320D01*
X1509949Y402580D01*
X1510049Y402880D01*
X1510109Y403220D01*
X1510129Y403600D01*
X1512129D01*
X1512149Y403220D01*
D02*
G37*
G36*
X1486309Y403093D02*
X1486361Y402315D01*
X1486387Y402240D01*
X1486487Y402090D01*
X1486627Y401960D01*
X1486807Y401850D01*
X1487027Y401760D01*
X1487287Y401690D01*
X1487587Y401640D01*
X1487927Y401610D01*
X1488307Y401600D01*
X1485807Y399600D01*
X1483307Y401600D01*
X1483687Y401610D01*
X1484027Y401640D01*
X1484327Y401690D01*
X1484587Y401760D01*
X1484807Y401850D01*
X1484987Y401960D01*
X1485127Y402090D01*
X1485227Y402240D01*
X1485281Y402393D01*
X1485305Y403093D01*
X1485307Y403466D01*
X1486307D01*
X1486309Y403093D01*
D02*
G37*
G36*
X1458520Y403220D02*
X1458580Y402880D01*
X1458680Y402580D01*
X1458820Y402320D01*
X1459000Y402100D01*
X1459220Y401920D01*
X1459480Y401780D01*
X1459780Y401680D01*
X1460120Y401620D01*
X1460500Y401600D01*
X1457500Y399600D01*
X1454500Y401600D01*
X1454880Y401620D01*
X1455220Y401680D01*
X1455520Y401780D01*
X1455780Y401920D01*
X1456000Y402100D01*
X1456180Y402320D01*
X1456320Y402580D01*
X1456420Y402880D01*
X1456480Y403220D01*
X1456500Y403600D01*
X1458500D01*
X1458520Y403220D01*
D02*
G37*
G36*
X1411280Y396866D02*
X1411131Y396711D01*
X1410880Y396415D01*
X1410778Y396273D01*
X1410692Y396137D01*
X1410622Y396004D01*
X1410568Y395876D01*
X1410529Y395753D01*
X1410507Y395634D01*
X1410500Y395520D01*
X1408520Y397500D01*
X1408634Y397507D01*
X1408753Y397529D01*
X1408876Y397568D01*
X1409004Y397622D01*
X1409137Y397692D01*
X1409274Y397778D01*
X1409415Y397880D01*
X1409561Y397998D01*
X1409866Y398280D01*
X1411280Y396866D01*
D02*
G37*
G36*
X1475500Y397000D02*
X1475120Y396980D01*
X1474780Y396920D01*
X1474480Y396820D01*
X1474220Y396680D01*
X1474000Y396500D01*
X1473820Y396280D01*
X1473680Y396020D01*
X1473580Y395720D01*
X1473520Y395380D01*
X1473500Y395000D01*
X1471500D01*
X1471480Y395380D01*
X1471420Y395720D01*
X1471320Y396020D01*
X1471180Y396280D01*
X1471000Y396500D01*
X1470780Y396680D01*
X1470520Y396820D01*
X1470220Y396920D01*
X1469880Y396980D01*
X1469500Y397000D01*
X1472500Y399000D01*
X1475500Y397000D01*
D02*
G37*
G36*
X1301929Y394450D02*
X1301910Y394460D01*
X1301875Y394468D01*
X1301823Y394476D01*
X1301668Y394488D01*
X1301153Y394499D01*
X1300982Y394500D01*
Y396500D01*
X1301929Y396550D01*
Y394450D01*
D02*
G37*
G36*
X927090Y394694D02*
X927125Y394686D01*
X927177Y394678D01*
X927332Y394666D01*
X927847Y394654D01*
X928018Y394654D01*
Y392653D01*
X927071Y392603D01*
Y394704D01*
X927090Y394694D01*
D02*
G37*
G36*
X952932Y382929D02*
X952967Y382921D01*
X953020Y382913D01*
X953175Y382901D01*
X953689Y382889D01*
X953860Y382889D01*
Y380889D01*
X952914Y380839D01*
Y382939D01*
X952932Y382929D01*
D02*
G37*
G36*
X884392Y378107D02*
X884427Y378099D01*
X884479Y378091D01*
X884635Y378079D01*
X885149Y378067D01*
X885320Y378067D01*
Y376067D01*
X884374Y376017D01*
Y378117D01*
X884392Y378107D01*
D02*
G37*
G36*
X1414089Y358431D02*
X1414125Y358422D01*
X1414177Y358415D01*
X1414332Y358403D01*
X1414847Y358391D01*
X1415018Y358390D01*
Y356390D01*
X1414071Y356340D01*
Y358440D01*
X1414089Y358431D01*
D02*
G37*
G36*
X870429Y354797D02*
X870411Y354806D01*
X870375Y354815D01*
X870323Y354822D01*
X870168Y354834D01*
X869653Y354846D01*
X869482Y354847D01*
Y356846D01*
X870429Y356896D01*
Y354797D01*
D02*
G37*
G36*
X716089Y356076D02*
X716125Y356067D01*
X716177Y356060D01*
X716332Y356048D01*
X716847Y356036D01*
X717018Y356035D01*
Y354035D01*
X716071Y353985D01*
Y356085D01*
X716089Y356076D01*
D02*
G37*
G36*
X873006Y355812D02*
X873025Y355781D01*
X873057Y355739D01*
X873158Y355620D01*
X873514Y355248D01*
X873634Y355127D01*
X872220Y353712D01*
X871515Y354346D01*
X873000Y355832D01*
X873006Y355812D01*
D02*
G37*
G36*
X1582429Y349950D02*
X1582411Y349959D01*
X1582375Y349968D01*
X1582323Y349975D01*
X1582168Y349988D01*
X1581653Y349999D01*
X1581482Y350000D01*
Y352000D01*
X1582429Y352050D01*
Y349950D01*
D02*
G37*
G36*
X1388634Y345720D02*
X1388000Y345015D01*
X1386515Y346500D01*
X1386535Y346506D01*
X1386566Y346525D01*
X1386608Y346557D01*
X1386726Y346658D01*
X1387099Y347013D01*
X1387220Y347134D01*
X1388634Y345720D01*
D02*
G37*
G36*
X1584540Y342410D02*
X1584532Y342375D01*
X1584525Y342323D01*
X1584513Y342168D01*
X1584501Y341653D01*
X1584500Y341482D01*
X1582500D01*
X1582450Y342429D01*
X1584550D01*
X1584540Y342410D01*
D02*
G37*
G36*
X863540D02*
X863532Y342375D01*
X863525Y342323D01*
X863513Y342168D01*
X863500Y341653D01*
X863500Y341482D01*
X861500D01*
X861450Y342429D01*
X863550D01*
X863540Y342410D01*
D02*
G37*
G36*
X1470290Y341141D02*
X1470325Y341132D01*
X1470377Y341125D01*
X1470532Y341112D01*
X1471047Y341101D01*
X1471218Y341100D01*
Y339100D01*
X1470271Y339050D01*
Y341150D01*
X1470290Y341141D01*
D02*
G37*
G36*
X1468129Y339050D02*
X1468110Y339059D01*
X1468075Y339068D01*
X1468023Y339075D01*
X1467868Y339088D01*
X1467353Y339100D01*
X1467182Y339100D01*
Y341100D01*
X1468129Y341150D01*
Y339050D01*
D02*
G37*
G36*
X1560148Y334000D02*
X1558663Y332515D01*
X1558657Y332535D01*
X1558638Y332566D01*
X1558607Y332608D01*
X1558505Y332726D01*
X1558150Y333099D01*
X1558029Y333220D01*
X1559443Y334634D01*
X1560148Y334000D01*
D02*
G37*
G36*
X1515648Y333500D02*
X1514163Y332015D01*
X1514157Y332035D01*
X1514138Y332066D01*
X1514106Y332108D01*
X1514005Y332226D01*
X1513650Y332598D01*
X1513529Y332720D01*
X1514943Y334134D01*
X1515648Y333500D01*
D02*
G37*
G36*
X1426797Y332720D02*
X1426163Y332015D01*
X1424678Y333500D01*
X1424698Y333506D01*
X1424729Y333525D01*
X1424771Y333557D01*
X1424889Y333658D01*
X1425262Y334014D01*
X1425383Y334134D01*
X1426797Y332720D01*
D02*
G37*
G36*
X1561204Y331411D02*
X1561195Y331375D01*
X1561188Y331323D01*
X1561176Y331168D01*
X1561164Y330653D01*
X1561163Y330482D01*
X1559163D01*
X1559113Y331429D01*
X1561213D01*
X1561204Y331411D01*
D02*
G37*
G36*
X1470204D02*
X1470195Y331375D01*
X1470188Y331323D01*
X1470176Y331168D01*
X1470164Y330653D01*
X1470163Y330482D01*
X1468163D01*
X1468113Y331429D01*
X1470213D01*
X1470204Y331411D01*
D02*
G37*
G36*
X1516704Y330910D02*
X1516695Y330875D01*
X1516688Y330823D01*
X1516676Y330668D01*
X1516664Y330153D01*
X1516663Y329982D01*
X1514663D01*
X1514613Y330929D01*
X1516713D01*
X1516704Y330910D01*
D02*
G37*
G36*
X1425704D02*
X1425695Y330875D01*
X1425688Y330823D01*
X1425676Y330668D01*
X1425664Y330153D01*
X1425663Y329982D01*
X1423663D01*
X1423613Y330929D01*
X1425713D01*
X1425704Y330910D01*
D02*
G37*
G36*
X452980Y318482D02*
X452791Y318278D01*
X452622Y318062D01*
X452474Y317836D01*
X452345Y317599D01*
X452237Y317351D01*
X452149Y317092D01*
X452082Y316822D01*
X452034Y316541D01*
X452007Y316249D01*
X452000Y315947D01*
X449030Y318917D01*
X449333Y318924D01*
X449624Y318951D01*
X449905Y318998D01*
X450175Y319066D01*
X450434Y319154D01*
X450682Y319262D01*
X450919Y319390D01*
X451146Y319539D01*
X451361Y319708D01*
X451566Y319897D01*
X452980Y318482D01*
D02*
G37*
G36*
X1556204Y315911D02*
X1556195Y315875D01*
X1556188Y315823D01*
X1556176Y315668D01*
X1556164Y315153D01*
X1556163Y314982D01*
X1554163D01*
X1554113Y315929D01*
X1556213D01*
X1556204Y315911D01*
D02*
G37*
G36*
X1465204D02*
X1465195Y315875D01*
X1465188Y315823D01*
X1465176Y315668D01*
X1465164Y315153D01*
X1465163Y314982D01*
X1463163D01*
X1463113Y315929D01*
X1465213D01*
X1465204Y315911D01*
D02*
G37*
G36*
X448970Y312917D02*
X448667Y312910D01*
X448376Y312883D01*
X448095Y312835D01*
X447825Y312768D01*
X447566Y312680D01*
X447318Y312572D01*
X447081Y312443D01*
X446854Y312295D01*
X446639Y312126D01*
X446434Y311937D01*
X445020Y313351D01*
X445209Y313556D01*
X445378Y313771D01*
X445526Y313997D01*
X445655Y314235D01*
X445763Y314483D01*
X445851Y314742D01*
X445918Y315012D01*
X445966Y315293D01*
X445993Y315584D01*
X446000Y315887D01*
X448970Y312917D01*
D02*
G37*
G36*
X1409550Y304071D02*
X1407450D01*
X1407460Y304089D01*
X1407468Y304125D01*
X1407475Y304177D01*
X1407487Y304332D01*
X1407500Y304847D01*
X1407500Y305018D01*
X1409500D01*
X1409550Y304071D01*
D02*
G37*
G36*
X863550D02*
X861450D01*
X861460Y304089D01*
X861468Y304125D01*
X861475Y304177D01*
X861487Y304332D01*
X861500Y304847D01*
X861500Y305018D01*
X863500D01*
X863550Y304071D01*
D02*
G37*
G36*
X1300470Y305000D02*
X1300167Y304993D01*
X1299876Y304966D01*
X1299595Y304918D01*
X1299325Y304851D01*
X1299066Y304763D01*
X1298818Y304655D01*
X1298581Y304526D01*
X1298354Y304378D01*
X1298139Y304209D01*
X1297934Y304020D01*
X1296520Y305434D01*
X1296709Y305639D01*
X1296878Y305854D01*
X1297026Y306081D01*
X1297155Y306318D01*
X1297263Y306566D01*
X1297351Y306825D01*
X1297418Y307095D01*
X1297466Y307376D01*
X1297493Y307667D01*
X1297500Y307970D01*
X1300470Y305000D01*
D02*
G37*
G36*
X894361Y302571D02*
X892261D01*
X892270Y302590D01*
X892279Y302625D01*
X892286Y302677D01*
X892299Y302832D01*
X892311Y303347D01*
X892311Y303518D01*
X894311D01*
X894361Y302571D01*
D02*
G37*
G36*
X788998Y301331D02*
X789015Y301294D01*
X789045Y301247D01*
X789088Y301188D01*
X789213Y301041D01*
X789496Y300740D01*
X789616Y300618D01*
X788039Y299367D01*
X787388Y300004D01*
X788993Y301358D01*
X788998Y301331D01*
D02*
G37*
G36*
X894817Y301465D02*
X894836Y301434D01*
X894868Y301392D01*
X894969Y301274D01*
X895325Y300902D01*
X895445Y300780D01*
X894031Y299366D01*
X893326Y300000D01*
X894811Y301485D01*
X894817Y301465D01*
D02*
G37*
G36*
X1387589Y297041D02*
X1387625Y297032D01*
X1387677Y297024D01*
X1387832Y297012D01*
X1388347Y297001D01*
X1388518Y297000D01*
Y295000D01*
X1387571Y294950D01*
Y297050D01*
X1387589Y297041D01*
D02*
G37*
G36*
X1300470Y295000D02*
X1300167Y294993D01*
X1299876Y294966D01*
X1299595Y294918D01*
X1299325Y294851D01*
X1299066Y294763D01*
X1298818Y294655D01*
X1298581Y294526D01*
X1298354Y294378D01*
X1298139Y294209D01*
X1297934Y294020D01*
X1296520Y295434D01*
X1296709Y295639D01*
X1296878Y295854D01*
X1297026Y296081D01*
X1297155Y296318D01*
X1297263Y296566D01*
X1297351Y296825D01*
X1297418Y297095D01*
X1297466Y297376D01*
X1297493Y297667D01*
X1297500Y297970D01*
X1300470Y295000D01*
D02*
G37*
G36*
X1683985Y295500D02*
X1682500Y294015D01*
X1682494Y294035D01*
X1682475Y294066D01*
X1682443Y294108D01*
X1682342Y294226D01*
X1681986Y294599D01*
X1681866Y294720D01*
X1683280Y296134D01*
X1683985Y295500D01*
D02*
G37*
G36*
X1509429Y293450D02*
X1509410Y293460D01*
X1509375Y293468D01*
X1509323Y293476D01*
X1509168Y293488D01*
X1508653Y293499D01*
X1508482Y293500D01*
Y295500D01*
X1509429Y295550D01*
Y293450D01*
D02*
G37*
G36*
X1483605Y295540D02*
X1483640Y295532D01*
X1483693Y295525D01*
X1483848Y295513D01*
X1484363Y295500D01*
X1484534Y295500D01*
Y293500D01*
X1483587Y293450D01*
Y295550D01*
X1483605Y295540D01*
D02*
G37*
G36*
X1417163Y294982D02*
X1417676Y294534D01*
X1417725Y294505D01*
X1417765Y294489D01*
X1417794Y294486D01*
X1416510Y292824D01*
X1415877Y293439D01*
X1417042Y295101D01*
X1417163Y294982D01*
D02*
G37*
G36*
X292530Y294040D02*
X292565Y294032D01*
X292618Y294024D01*
X292773Y294012D01*
X293288Y294001D01*
X293459Y294000D01*
Y292000D01*
X292512Y291950D01*
Y294050D01*
X292530Y294040D01*
D02*
G37*
G36*
X290369Y291950D02*
X290351Y291960D01*
X290316Y291968D01*
X290264Y291975D01*
X290108Y291987D01*
X289594Y292000D01*
X289423Y292000D01*
Y294000D01*
X290369Y294050D01*
Y291950D01*
D02*
G37*
G36*
X1685506Y293965D02*
X1685525Y293934D01*
X1685557Y293892D01*
X1685658Y293774D01*
X1686013Y293402D01*
X1686134Y293280D01*
X1684720Y291866D01*
X1684015Y292500D01*
X1685500Y293985D01*
X1685506Y293965D01*
D02*
G37*
G36*
X1614485Y292500D02*
X1614465Y292494D01*
X1614434Y292475D01*
X1614392Y292443D01*
X1614274Y292342D01*
X1613902Y291986D01*
X1613780Y291866D01*
X1612366Y293280D01*
X1613000Y293985D01*
X1614485Y292500D01*
D02*
G37*
G36*
X1698050Y288071D02*
X1695950D01*
X1695959Y288089D01*
X1695968Y288125D01*
X1695975Y288177D01*
X1695988Y288332D01*
X1696000Y288847D01*
X1696000Y289018D01*
X1698000D01*
X1698050Y288071D01*
D02*
G37*
G36*
X787319Y287895D02*
X787427Y287811D01*
X787540Y287737D01*
X787659Y287673D01*
X787783Y287619D01*
X787913Y287575D01*
X788047Y287541D01*
X788188Y287517D01*
X788334Y287503D01*
X788485Y287500D01*
X787000Y286015D01*
X786997Y286166D01*
X786983Y286312D01*
X786959Y286453D01*
X786925Y286588D01*
X786881Y286717D01*
X786827Y286841D01*
X786763Y286960D01*
X786689Y287073D01*
X786604Y287181D01*
X786510Y287283D01*
X787217Y287990D01*
X787319Y287895D01*
D02*
G37*
G36*
X1300470Y285000D02*
X1300167Y284993D01*
X1299876Y284966D01*
X1299595Y284918D01*
X1299325Y284851D01*
X1299066Y284763D01*
X1298818Y284655D01*
X1298581Y284526D01*
X1298354Y284378D01*
X1298139Y284209D01*
X1297934Y284020D01*
X1296520Y285434D01*
X1296709Y285639D01*
X1296878Y285854D01*
X1297026Y286081D01*
X1297155Y286318D01*
X1297263Y286566D01*
X1297351Y286825D01*
X1297418Y287095D01*
X1297466Y287376D01*
X1297493Y287667D01*
X1297500Y287970D01*
X1300470Y285000D01*
D02*
G37*
G36*
X1561213Y276071D02*
X1559113D01*
X1559123Y276090D01*
X1559131Y276125D01*
X1559139Y276177D01*
X1559151Y276332D01*
X1559163Y276847D01*
X1559163Y277018D01*
X1561163D01*
X1561213Y276071D01*
D02*
G37*
G36*
X1470213D02*
X1468113D01*
X1468123Y276090D01*
X1468131Y276125D01*
X1468139Y276177D01*
X1468151Y276332D01*
X1468163Y276847D01*
X1468163Y277018D01*
X1470163D01*
X1470213Y276071D01*
D02*
G37*
G36*
X1516713Y275571D02*
X1514613D01*
X1514623Y275589D01*
X1514631Y275625D01*
X1514639Y275677D01*
X1514651Y275832D01*
X1514663Y276347D01*
X1514663Y276518D01*
X1516663D01*
X1516713Y275571D01*
D02*
G37*
G36*
X1425713D02*
X1423613D01*
X1423623Y275589D01*
X1423631Y275625D01*
X1423639Y275677D01*
X1423651Y275832D01*
X1423663Y276347D01*
X1423663Y276518D01*
X1425663D01*
X1425713Y275571D01*
D02*
G37*
G36*
X1300470Y275000D02*
X1300167Y274993D01*
X1299876Y274966D01*
X1299595Y274918D01*
X1299325Y274851D01*
X1299066Y274763D01*
X1298818Y274655D01*
X1298581Y274526D01*
X1298354Y274378D01*
X1298139Y274209D01*
X1297934Y274020D01*
X1296520Y275434D01*
X1296709Y275639D01*
X1296878Y275854D01*
X1297026Y276081D01*
X1297155Y276318D01*
X1297263Y276566D01*
X1297351Y276825D01*
X1297418Y277095D01*
X1297466Y277376D01*
X1297493Y277667D01*
X1297500Y277970D01*
X1300470Y275000D01*
D02*
G37*
G36*
X1424648Y273000D02*
X1424629Y272994D01*
X1424598Y272975D01*
X1424555Y272943D01*
X1424437Y272842D01*
X1424065Y272486D01*
X1423943Y272366D01*
X1422529Y273780D01*
X1423163Y274485D01*
X1424648Y273000D01*
D02*
G37*
G36*
X505100Y271142D02*
X500900D01*
X500919Y271179D01*
X500936Y271250D01*
X500951Y271354D01*
X500975Y271665D01*
X500999Y272694D01*
X501000Y273036D01*
X505000D01*
X505100Y271142D01*
D02*
G37*
G36*
X924656Y270493D02*
X924702Y269814D01*
X924716Y269758D01*
X924733Y269719D01*
X924751Y269696D01*
X922668Y269428D01*
X922655Y270311D01*
X924655Y270663D01*
X924656Y270493D01*
D02*
G37*
G36*
X1614177Y267490D02*
X1612514Y266206D01*
X1612511Y266235D01*
X1612495Y266274D01*
X1612466Y266324D01*
X1612424Y266384D01*
X1612369Y266454D01*
X1612125Y266725D01*
X1611898Y266958D01*
X1613561Y268123D01*
X1614177Y267490D01*
D02*
G37*
G36*
X1666929Y265926D02*
X1666911Y265935D01*
X1666875Y265943D01*
X1666823Y265951D01*
X1666668Y265963D01*
X1666153Y265975D01*
X1665982Y265975D01*
Y267975D01*
X1666929Y268025D01*
Y265926D01*
D02*
G37*
G36*
X1400134Y266220D02*
X1399500Y265515D01*
X1398015Y267000D01*
X1398035Y267006D01*
X1398066Y267025D01*
X1398108Y267057D01*
X1398226Y267158D01*
X1398598Y267513D01*
X1398720Y267634D01*
X1400134Y266220D01*
D02*
G37*
G36*
X1556213Y260571D02*
X1554113D01*
X1554123Y260590D01*
X1554131Y260625D01*
X1554139Y260677D01*
X1554151Y260832D01*
X1554163Y261347D01*
X1554163Y261518D01*
X1556163D01*
X1556213Y260571D01*
D02*
G37*
G36*
X1465213D02*
X1463113D01*
X1463123Y260590D01*
X1463131Y260625D01*
X1463139Y260677D01*
X1463151Y260832D01*
X1463163Y261347D01*
X1463163Y261518D01*
X1465163D01*
X1465213Y260571D01*
D02*
G37*
G36*
X1300470Y260000D02*
X1300167Y259993D01*
X1299876Y259966D01*
X1299595Y259918D01*
X1299325Y259851D01*
X1299066Y259763D01*
X1298818Y259655D01*
X1298581Y259526D01*
X1298354Y259378D01*
X1298139Y259209D01*
X1297934Y259020D01*
X1296520Y260434D01*
X1296709Y260639D01*
X1296878Y260854D01*
X1297026Y261081D01*
X1297155Y261318D01*
X1297263Y261566D01*
X1297351Y261825D01*
X1297418Y262095D01*
X1297466Y262376D01*
X1297493Y262667D01*
X1297500Y262970D01*
X1300470Y260000D01*
D02*
G37*
G36*
X1465253Y260541D02*
X1465288Y260532D01*
X1465340Y260525D01*
X1465496Y260512D01*
X1466010Y260501D01*
X1466181Y260500D01*
Y258500D01*
X1465234Y258450D01*
Y260550D01*
X1465253Y260541D01*
D02*
G37*
G36*
X1554957Y258014D02*
X1554928Y258011D01*
X1554889Y257995D01*
X1554839Y257966D01*
X1554779Y257924D01*
X1554709Y257869D01*
X1554438Y257626D01*
X1554205Y257399D01*
X1553040Y259062D01*
X1553674Y259677D01*
X1554957Y258014D01*
D02*
G37*
G36*
X1464148Y258000D02*
X1464129Y257994D01*
X1464098Y257975D01*
X1464055Y257943D01*
X1463937Y257842D01*
X1463565Y257487D01*
X1463443Y257366D01*
X1462029Y258780D01*
X1462663Y259485D01*
X1464148Y258000D01*
D02*
G37*
G36*
X1249929Y251950D02*
X1249911Y251959D01*
X1249875Y251968D01*
X1249823Y251975D01*
X1249668Y251988D01*
X1249153Y251999D01*
X1248982Y252000D01*
Y254000D01*
X1249929Y254050D01*
Y251950D01*
D02*
G37*
G36*
X1252219Y253887D02*
X1252258Y253870D01*
X1252314Y253856D01*
X1252386Y253843D01*
X1252474Y253833D01*
X1252839Y253813D01*
X1253163Y253809D01*
X1252811Y251809D01*
X1251929Y251822D01*
X1252196Y253905D01*
X1252219Y253887D01*
D02*
G37*
G36*
X1300470Y250000D02*
X1300167Y249993D01*
X1299876Y249966D01*
X1299595Y249918D01*
X1299325Y249851D01*
X1299066Y249763D01*
X1298818Y249655D01*
X1298581Y249526D01*
X1298354Y249378D01*
X1298139Y249209D01*
X1297934Y249020D01*
X1296520Y250434D01*
X1296709Y250639D01*
X1296878Y250854D01*
X1297026Y251081D01*
X1297155Y251318D01*
X1297263Y251566D01*
X1297351Y251825D01*
X1297418Y252095D01*
X1297466Y252376D01*
X1297493Y252667D01*
X1297500Y252970D01*
X1300470Y250000D01*
D02*
G37*
G36*
X1245929Y248450D02*
X1245910Y248460D01*
X1245875Y248468D01*
X1245823Y248476D01*
X1245668Y248487D01*
X1245153Y248499D01*
X1244982Y248500D01*
Y250500D01*
X1245929Y250550D01*
Y248450D01*
D02*
G37*
G36*
X1248506Y249465D02*
X1248525Y249434D01*
X1248557Y249392D01*
X1248658Y249274D01*
X1249014Y248902D01*
X1249134Y248780D01*
X1247720Y247366D01*
X1247015Y248000D01*
X1248500Y249485D01*
X1248506Y249465D01*
D02*
G37*
G36*
X1387589Y248041D02*
X1387625Y248032D01*
X1387677Y248025D01*
X1387832Y248012D01*
X1388347Y248001D01*
X1388518Y248000D01*
Y246000D01*
X1387571Y245950D01*
Y248050D01*
X1387589Y248041D01*
D02*
G37*
G36*
X1678294Y246014D02*
X1678265Y246011D01*
X1678226Y245995D01*
X1678176Y245966D01*
X1678116Y245924D01*
X1678046Y245869D01*
X1677774Y245625D01*
X1677542Y245398D01*
X1676377Y247061D01*
X1677010Y247676D01*
X1678294Y246014D01*
D02*
G37*
G36*
X1621623Y247061D02*
X1620458Y245398D01*
X1620337Y245518D01*
X1619824Y245966D01*
X1619774Y245995D01*
X1619735Y246011D01*
X1619706Y246014D01*
X1620990Y247676D01*
X1621623Y247061D01*
D02*
G37*
G36*
X1619485Y246000D02*
X1619465Y245994D01*
X1619434Y245975D01*
X1619392Y245943D01*
X1619274Y245842D01*
X1618901Y245486D01*
X1618780Y245366D01*
X1617366Y246780D01*
X1618000Y247485D01*
X1619485Y246000D01*
D02*
G37*
G36*
X1300470Y240000D02*
X1300167Y239993D01*
X1299876Y239966D01*
X1299595Y239918D01*
X1299325Y239851D01*
X1299066Y239763D01*
X1298818Y239655D01*
X1298581Y239526D01*
X1298354Y239378D01*
X1298139Y239209D01*
X1297934Y239020D01*
X1296520Y240434D01*
X1296709Y240639D01*
X1296878Y240854D01*
X1297026Y241081D01*
X1297155Y241318D01*
X1297263Y241566D01*
X1297351Y241825D01*
X1297418Y242095D01*
X1297466Y242376D01*
X1297493Y242667D01*
X1297500Y242970D01*
X1300470Y240000D01*
D02*
G37*
G36*
Y230000D02*
X1300167Y229993D01*
X1299876Y229966D01*
X1299595Y229918D01*
X1299325Y229851D01*
X1299066Y229763D01*
X1298818Y229655D01*
X1298581Y229526D01*
X1298354Y229378D01*
X1298139Y229209D01*
X1297934Y229020D01*
X1296520Y230434D01*
X1296709Y230639D01*
X1296878Y230854D01*
X1297026Y231081D01*
X1297155Y231318D01*
X1297263Y231566D01*
X1297351Y231825D01*
X1297418Y232095D01*
X1297466Y232376D01*
X1297493Y232667D01*
X1297500Y232970D01*
X1300470Y230000D01*
D02*
G37*
G36*
X1698041Y229910D02*
X1698032Y229875D01*
X1698025Y229823D01*
X1698013Y229668D01*
X1698001Y229153D01*
X1698000Y228982D01*
X1696000D01*
X1695950Y229929D01*
X1698050D01*
X1698041Y229910D01*
D02*
G37*
G36*
X1676089Y229540D02*
X1676125Y229532D01*
X1676177Y229524D01*
X1676332Y229513D01*
X1676847Y229501D01*
X1677018Y229500D01*
Y227500D01*
X1676071Y227450D01*
Y229550D01*
X1676089Y229540D01*
D02*
G37*
G36*
X1673929Y227450D02*
X1673911Y227460D01*
X1673875Y227468D01*
X1673823Y227476D01*
X1673668Y227487D01*
X1673153Y227500D01*
X1672982Y227500D01*
Y229500D01*
X1673929Y229550D01*
Y227450D01*
D02*
G37*
G36*
X1615590Y229540D02*
X1615625Y229532D01*
X1615677Y229524D01*
X1615832Y229513D01*
X1616347Y229501D01*
X1616518Y229500D01*
Y227500D01*
X1615571Y227450D01*
Y229550D01*
X1615590Y229540D01*
D02*
G37*
G36*
X1470253Y226540D02*
X1470288Y226532D01*
X1470340Y226524D01*
X1470496Y226513D01*
X1471010Y226501D01*
X1471181Y226500D01*
Y224500D01*
X1470234Y224450D01*
Y226550D01*
X1470253Y226540D01*
D02*
G37*
G36*
X1465590Y223041D02*
X1465625Y223032D01*
X1465677Y223025D01*
X1465832Y223012D01*
X1466347Y223001D01*
X1466518Y223000D01*
Y221000D01*
X1465571Y220950D01*
Y223050D01*
X1465590Y223041D01*
D02*
G37*
G36*
X1456429Y220950D02*
X1456411Y220959D01*
X1456375Y220968D01*
X1456323Y220975D01*
X1456168Y220988D01*
X1455653Y221000D01*
X1455482Y221000D01*
Y223000D01*
X1456429Y223050D01*
Y220950D01*
D02*
G37*
G36*
X1560148Y219000D02*
X1558663Y217515D01*
X1558657Y217535D01*
X1558638Y217566D01*
X1558607Y217608D01*
X1558505Y217726D01*
X1558150Y218098D01*
X1558029Y218220D01*
X1559443Y219634D01*
X1560148Y219000D01*
D02*
G37*
G36*
X1515648Y218500D02*
X1514163Y217015D01*
X1514157Y217035D01*
X1514138Y217066D01*
X1514106Y217108D01*
X1514005Y217226D01*
X1513650Y217599D01*
X1513529Y217720D01*
X1514943Y219134D01*
X1515648Y218500D01*
D02*
G37*
G36*
X1426797Y217720D02*
X1426163Y217015D01*
X1424678Y218500D01*
X1424698Y218506D01*
X1424729Y218525D01*
X1424771Y218557D01*
X1424889Y218658D01*
X1425262Y219014D01*
X1425383Y219134D01*
X1426797Y217720D01*
D02*
G37*
G36*
X1561204Y216410D02*
X1561195Y216375D01*
X1561188Y216323D01*
X1561176Y216168D01*
X1561164Y215653D01*
X1561163Y215482D01*
X1559163D01*
X1559113Y216429D01*
X1561213D01*
X1561204Y216410D01*
D02*
G37*
G36*
X1470204D02*
X1470195Y216375D01*
X1470188Y216323D01*
X1470176Y216168D01*
X1470164Y215653D01*
X1470163Y215482D01*
X1468163D01*
X1468113Y216429D01*
X1470213D01*
X1470204Y216410D01*
D02*
G37*
G36*
X1516704Y215911D02*
X1516695Y215875D01*
X1516688Y215823D01*
X1516676Y215668D01*
X1516664Y215153D01*
X1516663Y214982D01*
X1514663D01*
X1514613Y215929D01*
X1516713D01*
X1516704Y215911D01*
D02*
G37*
G36*
X1425704D02*
X1425695Y215875D01*
X1425688Y215823D01*
X1425676Y215668D01*
X1425664Y215153D01*
X1425663Y214982D01*
X1423663D01*
X1423613Y215929D01*
X1425713D01*
X1425704Y215911D01*
D02*
G37*
G36*
X404520Y216320D02*
X404580Y215980D01*
X404680Y215680D01*
X404820Y215420D01*
X405000Y215200D01*
X405220Y215020D01*
X405480Y214880D01*
X405780Y214780D01*
X406120Y214720D01*
X406500Y214700D01*
X403500Y212700D01*
X400500Y214700D01*
X400880Y214720D01*
X401220Y214780D01*
X401520Y214880D01*
X401780Y215020D01*
X402000Y215200D01*
X402180Y215420D01*
X402320Y215680D01*
X402420Y215980D01*
X402480Y216320D01*
X402500Y216700D01*
X404500D01*
X404520Y216320D01*
D02*
G37*
G36*
X358098Y214743D02*
X358134Y214734D01*
X358187Y214726D01*
X358343Y214713D01*
X358858Y214701D01*
X359029Y214700D01*
X359007Y212700D01*
X358063Y212653D01*
X358080Y214753D01*
X358098Y214743D01*
D02*
G37*
G36*
X392184Y206446D02*
X392219Y206437D01*
X392271Y206430D01*
X392427Y206418D01*
X392941Y206406D01*
X393112Y206405D01*
Y204405D01*
X392166Y204356D01*
Y206455D01*
X392184Y206446D01*
D02*
G37*
G36*
X900134Y204720D02*
X899500Y204015D01*
X898015Y205500D01*
X898035Y205506D01*
X898066Y205525D01*
X898108Y205557D01*
X898226Y205658D01*
X898598Y206013D01*
X898720Y206134D01*
X900134Y204720D01*
D02*
G37*
G36*
X1556204Y200910D02*
X1556195Y200875D01*
X1556188Y200823D01*
X1556176Y200668D01*
X1556164Y200153D01*
X1556163Y199982D01*
X1554163D01*
X1554113Y200929D01*
X1556213D01*
X1556204Y200910D01*
D02*
G37*
G36*
X1465204D02*
X1465195Y200875D01*
X1465188Y200823D01*
X1465176Y200668D01*
X1465164Y200153D01*
X1465163Y199982D01*
X1463163D01*
X1463113Y200929D01*
X1465213D01*
X1465204Y200910D01*
D02*
G37*
G36*
X298707Y201707D02*
X299414Y198171D01*
X299131Y198426D01*
X298848Y198624D01*
X298565Y198765D01*
X298282Y198850D01*
X298000Y198878D01*
X297717Y198850D01*
X297434Y198765D01*
X297151Y198624D01*
X296868Y198426D01*
X296585Y198171D01*
X295171Y199585D01*
X295426Y199868D01*
X295624Y200151D01*
X295765Y200434D01*
X295850Y200717D01*
X295878Y200999D01*
X295850Y201282D01*
X295765Y201565D01*
X295624Y201848D01*
X295426Y202131D01*
X295171Y202414D01*
X298707Y201707D01*
D02*
G37*
G36*
X1387589Y199040D02*
X1387625Y199032D01*
X1387677Y199024D01*
X1387832Y199012D01*
X1388347Y199001D01*
X1388518Y199000D01*
Y197000D01*
X1387571Y196950D01*
Y199050D01*
X1387589Y199040D01*
D02*
G37*
G36*
X873192Y196591D02*
X871707Y195106D01*
X871701Y195126D01*
X871682Y195157D01*
X871650Y195199D01*
X871549Y195317D01*
X871194Y195690D01*
X871073Y195811D01*
X872487Y197225D01*
X873192Y196591D01*
D02*
G37*
G36*
X880134Y195720D02*
X879500Y195015D01*
X878015Y196500D01*
X878035Y196506D01*
X878066Y196525D01*
X878108Y196557D01*
X878226Y196658D01*
X878598Y197013D01*
X878720Y197134D01*
X880134Y195720D01*
D02*
G37*
G36*
X877985Y196500D02*
X876500Y195015D01*
X876494Y195035D01*
X876475Y195066D01*
X876443Y195108D01*
X876342Y195226D01*
X875986Y195598D01*
X875866Y195720D01*
X877280Y197134D01*
X877985Y196500D01*
D02*
G37*
G36*
X1425663Y198000D02*
X1423663Y195000D01*
X1423643Y195380D01*
X1423583Y195720D01*
X1423483Y196020D01*
X1423343Y196280D01*
X1423163Y196500D01*
X1422943Y196680D01*
X1422683Y196820D01*
X1422383Y196920D01*
X1422043Y196980D01*
X1421663Y197000D01*
Y199000D01*
X1422043Y199020D01*
X1422383Y199080D01*
X1422683Y199180D01*
X1422943Y199320D01*
X1423163Y199500D01*
X1423343Y199720D01*
X1423483Y199980D01*
X1423583Y200280D01*
X1423643Y200620D01*
X1423663Y201000D01*
X1425663Y198000D01*
D02*
G37*
G36*
X1686134Y193720D02*
X1685500Y193015D01*
X1684015Y194500D01*
X1684035Y194506D01*
X1684066Y194525D01*
X1684108Y194557D01*
X1684226Y194658D01*
X1684599Y195013D01*
X1684720Y195134D01*
X1686134Y193720D01*
D02*
G37*
G36*
X1595985Y194500D02*
X1594500Y193015D01*
X1594494Y193035D01*
X1594475Y193066D01*
X1594443Y193108D01*
X1594342Y193226D01*
X1593987Y193598D01*
X1593866Y193720D01*
X1595280Y195134D01*
X1595985Y194500D01*
D02*
G37*
G36*
X1197050Y191071D02*
X1194950D01*
X1194960Y191089D01*
X1194968Y191125D01*
X1194975Y191177D01*
X1194987Y191332D01*
X1195000Y191847D01*
X1195000Y192018D01*
X1197000D01*
X1197050Y191071D01*
D02*
G37*
G36*
X1614676Y191510D02*
X1614062Y190877D01*
X1612399Y192042D01*
X1612518Y192163D01*
X1612966Y192676D01*
X1612995Y192726D01*
X1613011Y192765D01*
X1613014Y192794D01*
X1614676Y191510D01*
D02*
G37*
G36*
X1685506Y192965D02*
X1685525Y192934D01*
X1685557Y192892D01*
X1685658Y192774D01*
X1686013Y192402D01*
X1686134Y192280D01*
X1684720Y190866D01*
X1684015Y191500D01*
X1685500Y192985D01*
X1685506Y192965D01*
D02*
G37*
G36*
X335827Y193413D02*
X335573Y193130D01*
X335375Y192848D01*
X335233Y192565D01*
X335149Y192282D01*
X335120Y191999D01*
X335149Y191716D01*
X335233Y191433D01*
X335375Y191150D01*
X335573Y190868D01*
X335827Y190585D01*
X333999Y189585D01*
X333710Y189854D01*
X333410Y190094D01*
X333098Y190306D01*
X332774Y190490D01*
X332438Y190646D01*
X332091Y190773D01*
X331732Y190872D01*
X331361Y190942D01*
X330979Y190985D01*
X330585Y190999D01*
Y192999D01*
X330979Y193013D01*
X331361Y193056D01*
X331732Y193126D01*
X332091Y193225D01*
X332438Y193352D01*
X332774Y193508D01*
X333098Y193692D01*
X333410Y193904D01*
X333710Y194144D01*
X333999Y194413D01*
X335827Y193413D01*
D02*
G37*
G36*
X463861Y193390D02*
X464087Y193203D01*
X464319Y193038D01*
X464558Y192895D01*
X464803Y192774D01*
X465055Y192675D01*
X465313Y192598D01*
X465579Y192543D01*
X465850Y192510D01*
X466128Y192499D01*
Y190499D01*
X465850Y190488D01*
X465579Y190455D01*
X465313Y190400D01*
X465055Y190323D01*
X464803Y190224D01*
X464558Y190103D01*
X464319Y189960D01*
X464087Y189795D01*
X463861Y189608D01*
X463642Y189399D01*
Y193599D01*
X463861Y193390D01*
D02*
G37*
G36*
X43837Y190725D02*
X43856Y190694D01*
X43887Y190652D01*
X43989Y190534D01*
X44344Y190161D01*
X44465Y190040D01*
X43051Y188626D01*
X42346Y189260D01*
X43831Y190745D01*
X43837Y190725D01*
D02*
G37*
G36*
X1404589Y190541D02*
X1404625Y190532D01*
X1404677Y190524D01*
X1404832Y190513D01*
X1405347Y190500D01*
X1405518Y190500D01*
Y188500D01*
X1404571Y188450D01*
Y190550D01*
X1404589Y190541D01*
D02*
G37*
G36*
X877665Y188720D02*
X877030Y188015D01*
X875546Y189500D01*
X875565Y189506D01*
X875596Y189525D01*
X875638Y189557D01*
X875757Y189658D01*
X876129Y190014D01*
X876250Y190134D01*
X877665Y188720D01*
D02*
G37*
G36*
X875515Y189500D02*
X874031Y188015D01*
X874024Y188035D01*
X874005Y188066D01*
X873974Y188108D01*
X873872Y188226D01*
X873517Y188599D01*
X873396Y188720D01*
X874811Y190134D01*
X875515Y189500D01*
D02*
G37*
G36*
X870513D02*
X869028Y188015D01*
X869022Y188035D01*
X869003Y188066D01*
X868972Y188108D01*
X868870Y188226D01*
X868515Y188599D01*
X868394Y188720D01*
X869808Y190134D01*
X870513Y189500D01*
D02*
G37*
G36*
X1273500Y191414D02*
X1273502Y191032D01*
X1273533Y190101D01*
X1273575Y189660D01*
X1273602Y189493D01*
X1273633Y189362D01*
X1273668Y189267D01*
X1273707Y189207D01*
X1272293Y187793D01*
X1272233Y187832D01*
X1272138Y187867D01*
X1272007Y187899D01*
X1270468Y187998D01*
X1270086Y188000D01*
X1269500Y190000D01*
X1269880Y190020D01*
X1270220Y190080D01*
X1270520Y190180D01*
X1270780Y190320D01*
X1271000Y190500D01*
X1271180Y190720D01*
X1271320Y190980D01*
X1271420Y191280D01*
X1271480Y191620D01*
X1271500Y192000D01*
X1273500Y191414D01*
D02*
G37*
G36*
X1201589Y189741D02*
X1201625Y189732D01*
X1201677Y189725D01*
X1201832Y189713D01*
X1202347Y189700D01*
X1202518Y189700D01*
Y187700D01*
X1201571Y187650D01*
Y189750D01*
X1201589Y189741D01*
D02*
G37*
G36*
X454512Y191430D02*
X454550Y191368D01*
X454613Y191283D01*
X454816Y191047D01*
X455527Y190302D01*
X455768Y190059D01*
X452940Y187231D01*
X451530Y188499D01*
X454500Y191469D01*
X454512Y191430D01*
D02*
G37*
G36*
X872034Y187965D02*
X872053Y187934D01*
X872085Y187892D01*
X872186Y187774D01*
X872542Y187401D01*
X872662Y187280D01*
X871248Y185866D01*
X870543Y186500D01*
X872028Y187985D01*
X872034Y187965D01*
D02*
G37*
G36*
X648429Y185449D02*
X648319Y185553D01*
X648206Y185646D01*
X648090Y185729D01*
X647970Y185800D01*
X647848Y185861D01*
X647722Y185910D01*
X647592Y185949D01*
X647460Y185976D01*
X647324Y185993D01*
X647185Y185998D01*
X647184Y186998D01*
X647323Y187004D01*
X647459Y187020D01*
X647591Y187048D01*
X647720Y187086D01*
X647846Y187136D01*
X647969Y187196D01*
X648088Y187268D01*
X648204Y187350D01*
X648316Y187444D01*
X648426Y187549D01*
X648429Y185449D01*
D02*
G37*
G36*
X617010Y187443D02*
X617123Y187350D01*
X617239Y187267D01*
X617359Y187196D01*
X617481Y187135D01*
X617607Y187086D01*
X617737Y187048D01*
X617869Y187020D01*
X618005Y187004D01*
X618144Y186998D01*
X618146Y185998D01*
X618007Y185993D01*
X617871Y185976D01*
X617738Y185949D01*
X617609Y185910D01*
X617483Y185860D01*
X617360Y185800D01*
X617241Y185728D01*
X617125Y185646D01*
X617013Y185552D01*
X616903Y185448D01*
X616900Y187548D01*
X617010Y187443D01*
D02*
G37*
G36*
X564622Y188791D02*
X564837Y188622D01*
X565063Y188474D01*
X565301Y188345D01*
X565549Y188237D01*
X565808Y188149D01*
X566078Y188082D01*
X566359Y188034D01*
X566650Y188007D01*
X566953Y188000D01*
X563983Y185030D01*
X563976Y185333D01*
X563949Y185624D01*
X563901Y185905D01*
X563834Y186175D01*
X563746Y186434D01*
X563638Y186682D01*
X563509Y186919D01*
X563361Y187146D01*
X563192Y187361D01*
X563003Y187566D01*
X564417Y188980D01*
X564622Y188791D01*
D02*
G37*
G36*
X615816Y184996D02*
X615796Y184990D01*
X615765Y184971D01*
X615723Y184939D01*
X615604Y184838D01*
X615232Y184483D01*
X615111Y184362D01*
X613697Y185776D01*
X614331Y186481D01*
X615816Y184996D01*
D02*
G37*
G36*
X506490Y186040D02*
X506525Y186032D01*
X506577Y186024D01*
X506732Y186012D01*
X507247Y186001D01*
X507418Y186000D01*
Y184000D01*
X506471Y183950D01*
Y186050D01*
X506490Y186040D01*
D02*
G37*
G36*
X868660Y185965D02*
X868679Y185934D01*
X868710Y185892D01*
X868812Y185774D01*
X869167Y185401D01*
X869288Y185280D01*
X867873Y183866D01*
X867169Y184500D01*
X868653Y185985D01*
X868660Y185965D01*
D02*
G37*
G36*
X864212D02*
X864231Y185934D01*
X864262Y185892D01*
X864364Y185774D01*
X864719Y185401D01*
X864839Y185280D01*
X863425Y183866D01*
X862720Y184500D01*
X864205Y185985D01*
X864212Y185965D01*
D02*
G37*
G36*
X544840Y182900D02*
X544622Y183109D01*
X544396Y183296D01*
X544164Y183461D01*
X543925Y183604D01*
X543680Y183725D01*
X543428Y183824D01*
X543169Y183901D01*
X542904Y183956D01*
X542633Y183989D01*
X542354Y184000D01*
Y186000D01*
X542633Y186011D01*
X542904Y186044D01*
X543169Y186099D01*
X543428Y186176D01*
X543680Y186275D01*
X543925Y186396D01*
X544164Y186539D01*
X544396Y186704D01*
X544622Y186891D01*
X544840Y187100D01*
Y182900D01*
D02*
G37*
G36*
X556953Y182000D02*
X556650Y181993D01*
X556358Y181966D01*
X556078Y181918D01*
X555808Y181851D01*
X555549Y181763D01*
X555301Y181655D01*
X555063Y181526D01*
X554837Y181378D01*
X554622Y181209D01*
X554417Y181020D01*
X553003Y182434D01*
X553192Y182639D01*
X553361Y182854D01*
X553509Y183081D01*
X553638Y183318D01*
X553746Y183566D01*
X553834Y183825D01*
X553901Y184095D01*
X553949Y184376D01*
X553976Y184667D01*
X553983Y184970D01*
X556953Y182000D01*
D02*
G37*
G36*
X568880Y182644D02*
X568694Y182418D01*
X568529Y182185D01*
X568387Y181946D01*
X568266Y181700D01*
X568167Y181448D01*
X568090Y181190D01*
X568035Y180924D01*
X568002Y180653D01*
X567991Y180375D01*
X565991Y180369D01*
X565980Y180647D01*
X565947Y180919D01*
X565892Y181184D01*
X565815Y181442D01*
X565716Y181694D01*
X565594Y181939D01*
X565451Y182177D01*
X565286Y182408D01*
X565098Y182633D01*
X564889Y182852D01*
X569089Y182864D01*
X568880Y182644D01*
D02*
G37*
G36*
X857929Y179950D02*
X857911Y179959D01*
X857875Y179968D01*
X857823Y179975D01*
X857668Y179988D01*
X857153Y179999D01*
X856982Y180000D01*
Y182000D01*
X857929Y182050D01*
Y179950D01*
D02*
G37*
G36*
X470851Y180965D02*
X470870Y180934D01*
X470902Y180892D01*
X471003Y180774D01*
X471358Y180402D01*
X471479Y180280D01*
X470065Y178866D01*
X469360Y179500D01*
X470845Y180985D01*
X470851Y180965D01*
D02*
G37*
G36*
X1421485Y180000D02*
X1420000Y178515D01*
X1419994Y178535D01*
X1419975Y178566D01*
X1419943Y178608D01*
X1419842Y178726D01*
X1419487Y179098D01*
X1419366Y179220D01*
X1420780Y180634D01*
X1421485Y180000D01*
D02*
G37*
G36*
X1474429Y177450D02*
X1474411Y177460D01*
X1474375Y177468D01*
X1474323Y177476D01*
X1474168Y177488D01*
X1473653Y177499D01*
X1473482Y177500D01*
Y179500D01*
X1474429Y179550D01*
Y177450D01*
D02*
G37*
G36*
X1456429D02*
X1456411Y177460D01*
X1456375Y177468D01*
X1456323Y177476D01*
X1456168Y177488D01*
X1455653Y177499D01*
X1455482Y177500D01*
Y179500D01*
X1456429Y179550D01*
Y177450D01*
D02*
G37*
G36*
X1429090Y179541D02*
X1429125Y179532D01*
X1429177Y179525D01*
X1429332Y179513D01*
X1429847Y179500D01*
X1430018Y179500D01*
Y177500D01*
X1429071Y177450D01*
Y179550D01*
X1429090Y179541D01*
D02*
G37*
G36*
X1470183Y181120D02*
X1470243Y180780D01*
X1470343Y180480D01*
X1470483Y180220D01*
X1470663Y180000D01*
X1470883Y179820D01*
X1471143Y179680D01*
X1471443Y179580D01*
X1471783Y179520D01*
X1472163Y179500D01*
Y177500D01*
X1471783Y177480D01*
X1471443Y177420D01*
X1471143Y177320D01*
X1470883Y177180D01*
X1470663Y177000D01*
X1470483Y176780D01*
X1470343Y176520D01*
X1470243Y176220D01*
X1470183Y175880D01*
X1470163Y175500D01*
X1468163Y178500D01*
X1470163Y181500D01*
X1470183Y181120D01*
D02*
G37*
G36*
X517886Y176965D02*
X517905Y176934D01*
X517937Y176892D01*
X518038Y176774D01*
X518394Y176401D01*
X518514Y176280D01*
X517100Y174866D01*
X516395Y175500D01*
X517880Y176985D01*
X517886Y176965D01*
D02*
G37*
G36*
X862485Y175000D02*
X862465Y174994D01*
X862434Y174975D01*
X862392Y174943D01*
X862274Y174842D01*
X861901Y174486D01*
X861780Y174366D01*
X860366Y175780D01*
X861000Y176485D01*
X862485Y175000D01*
D02*
G37*
G36*
X568002Y176353D02*
X568036Y176081D01*
X568091Y175816D01*
X568168Y175558D01*
X568267Y175306D01*
X568388Y175061D01*
X568532Y174823D01*
X568697Y174592D01*
X568884Y174367D01*
X569094Y174148D01*
X564894Y174136D01*
X565102Y174356D01*
X565289Y174582D01*
X565454Y174815D01*
X565596Y175054D01*
X565717Y175300D01*
X565816Y175552D01*
X565893Y175810D01*
X565947Y176076D01*
X565980Y176347D01*
X565991Y176625D01*
X567991Y176631D01*
X568002Y176353D01*
D02*
G37*
G36*
X303816Y174760D02*
X303796Y174754D01*
X303765Y174735D01*
X303723Y174703D01*
X303605Y174602D01*
X303232Y174246D01*
X303111Y174126D01*
X301697Y175540D01*
X302331Y176245D01*
X303816Y174760D01*
D02*
G37*
G36*
X59506Y175965D02*
X59525Y175934D01*
X59557Y175892D01*
X59658Y175774D01*
X60014Y175401D01*
X60134Y175280D01*
X58720Y173866D01*
X58015Y174500D01*
X59500Y175985D01*
X59506Y175965D01*
D02*
G37*
G36*
X272460Y174045D02*
X272339Y173924D01*
X271835Y173348D01*
X271829Y173325D01*
X270296Y174759D01*
X270312Y174766D01*
X270339Y174785D01*
X270379Y174817D01*
X270567Y174989D01*
X270982Y175396D01*
X272460Y174045D01*
D02*
G37*
G36*
X513898Y505000D02*
X514825Y504616D01*
X516000Y504461D01*
X517175Y504616D01*
X518102Y505000D01*
X533583D01*
X534510Y504616D01*
X535685Y504461D01*
X536860Y504616D01*
X537787Y505000D01*
X1079891Y505000D01*
X1114210Y471000D01*
X1151909Y471000D01*
X1185909Y505000D01*
X1372147Y505000D01*
X1372500Y504646D01*
X1372499Y330638D01*
X1371698Y330102D01*
X1371145Y329275D01*
X1370951Y328300D01*
X1371145Y327325D01*
X1371698Y326498D01*
X1372499Y325962D01*
X1372499Y281638D01*
X1371698Y281102D01*
X1371145Y280276D01*
X1370951Y279300D01*
X1371145Y278325D01*
X1371698Y277498D01*
X1372499Y276962D01*
X1372499Y232638D01*
X1371698Y232102D01*
X1371145Y231276D01*
X1370951Y230300D01*
X1371145Y229325D01*
X1371698Y228498D01*
X1372499Y227962D01*
X1372499Y183637D01*
X1371698Y183102D01*
X1371145Y182275D01*
X1370951Y181300D01*
X1371145Y180324D01*
X1371698Y179498D01*
X1372499Y178963D01*
X1372499Y173260D01*
X1352975Y173260D01*
X1352975Y490000D01*
X1192000D01*
X1158562Y456562D01*
X1108072Y456562D01*
X1074839Y490000D01*
X514032Y490000D01*
X514032Y475780D01*
X172500Y475780D01*
X172220Y475780D01*
X172000Y476000D01*
X172000Y475371D01*
X172000Y327591D01*
X131000Y327591D01*
Y343495D01*
X156000Y343517D01*
X156000Y488610D01*
X156354Y488964D01*
X495372Y488770D01*
X495372Y488770D01*
X495373Y488770D01*
X495570Y488809D01*
X495763Y488847D01*
X495763Y488847D01*
X495763Y488847D01*
X495921Y488953D01*
X496094Y489068D01*
X496094Y489068D01*
X496094Y489068D01*
X496447Y489422D01*
X496447Y489422D01*
X496448Y489422D01*
X496555Y489582D01*
X496668Y489752D01*
X496668Y489752D01*
X496669Y489753D01*
X496707Y489945D01*
X496718Y490000D01*
X497572D01*
X497572Y505000D01*
X513898D01*
D02*
G37*
G36*
X498316Y174274D02*
X496831Y172789D01*
X496825Y172809D01*
X496806Y172840D01*
X496774Y172882D01*
X496673Y173000D01*
X496317Y173372D01*
X496197Y173494D01*
X497611Y174908D01*
X498316Y174274D01*
D02*
G37*
G36*
X388905Y172804D02*
X388886Y172781D01*
X388870Y172742D01*
X388856Y172686D01*
X388843Y172614D01*
X388833Y172526D01*
X388812Y172161D01*
X388809Y171837D01*
X386809Y172189D01*
X386822Y173072D01*
X388905Y172804D01*
D02*
G37*
G36*
X1203980Y174066D02*
X1203791Y173861D01*
X1203622Y173646D01*
X1203474Y173419D01*
X1203345Y173182D01*
X1203237Y172934D01*
X1203149Y172675D01*
X1203082Y172405D01*
X1203034Y172124D01*
X1203007Y171833D01*
X1203000Y171530D01*
X1200030Y174500D01*
X1200333Y174507D01*
X1200624Y174534D01*
X1200905Y174582D01*
X1201175Y174649D01*
X1201434Y174737D01*
X1201682Y174845D01*
X1201919Y174974D01*
X1202146Y175122D01*
X1202361Y175291D01*
X1202566Y175480D01*
X1203980Y174066D01*
D02*
G37*
G36*
X270316Y171760D02*
X270296Y171754D01*
X270265Y171735D01*
X270223Y171703D01*
X270105Y171602D01*
X269732Y171246D01*
X269611Y171126D01*
X268197Y172540D01*
X268831Y173245D01*
X270316Y171760D01*
D02*
G37*
G36*
X1612501Y169279D02*
X1612538Y168672D01*
X1612552Y168599D01*
X1612568Y168544D01*
X1612587Y168504D01*
X1612607Y168481D01*
X1610536Y168131D01*
X1610500Y168979D01*
X1612500Y169449D01*
X1612501Y169279D01*
D02*
G37*
G36*
X880809Y376789D02*
X880947Y376091D01*
X881500Y375265D01*
X882327Y374712D01*
X883302Y374518D01*
X884278Y374712D01*
X884731Y375015D01*
X884976Y375028D01*
X889091D01*
X889872Y375183D01*
X890533Y375625D01*
X891697Y376789D01*
X1350500Y376789D01*
X1350500Y345049D01*
Y169000D01*
X1374720Y169000D01*
X1374912Y168538D01*
X1373913Y167539D01*
X1362448D01*
X1361975Y167855D01*
X1361000Y168049D01*
X1360025Y167855D01*
X1359198Y167302D01*
X1358645Y166475D01*
X1358451Y165500D01*
X1358645Y164524D01*
X1359198Y163698D01*
X1360025Y163145D01*
X1361000Y162951D01*
X1361975Y163145D01*
X1362429Y163448D01*
X1362674Y163461D01*
X1374757D01*
X1375538Y163616D01*
X1376199Y164058D01*
X1378602Y166461D01*
X1390600D01*
Y143539D01*
X1377757D01*
X1376977Y143384D01*
X1376315Y142942D01*
X1373913Y140539D01*
X1362448D01*
X1361975Y140855D01*
X1361000Y141049D01*
X1360025Y140855D01*
X1359198Y140302D01*
X1358645Y139476D01*
X1358451Y138500D01*
X1358645Y137524D01*
X1359198Y136698D01*
X1360025Y136145D01*
X1361000Y135951D01*
X1361975Y136145D01*
X1362429Y136448D01*
X1362674Y136461D01*
X1374757D01*
X1375538Y136616D01*
X1376199Y137058D01*
X1378602Y139461D01*
X1390600D01*
Y125000D01*
X1379384D01*
X1379048Y125336D01*
X1378387Y125778D01*
X1377606Y125933D01*
X1377352D01*
X1377035Y126319D01*
X1377149Y126894D01*
X1376955Y127869D01*
X1376402Y128696D01*
X1375575Y129249D01*
X1374600Y129443D01*
X1373625Y129249D01*
X1372798Y128696D01*
X1372245Y127869D01*
X1372051Y126894D01*
X1372165Y126319D01*
X1371848Y125933D01*
X1346208D01*
X1326761Y145380D01*
Y344810D01*
X1327000Y345049D01*
X922000Y345049D01*
X886051D01*
X883075Y348025D01*
X883347Y348460D01*
X884278Y348645D01*
X885105Y349198D01*
X885657Y350025D01*
X885851Y351000D01*
X885657Y351975D01*
X885105Y352802D01*
X884278Y353355D01*
X883302Y353549D01*
X882327Y353355D01*
X881500Y352802D01*
X880947Y351975D01*
X880762Y351045D01*
X880328Y350773D01*
X871355Y359745D01*
X691846D01*
X691798Y359759D01*
X691452Y360326D01*
X691549Y360815D01*
X691355Y361790D01*
X690802Y362617D01*
X689976Y363170D01*
X689000Y363364D01*
X688025Y363170D01*
X687198Y362617D01*
X686645Y361790D01*
X686451Y360815D01*
X686564Y360245D01*
X686154Y359745D01*
X634576D01*
X535331Y260500D01*
X274000D01*
X274000Y279630D01*
X274370Y280000D01*
X499974D01*
Y272478D01*
X499956Y271716D01*
X499947Y271592D01*
X499506Y271017D01*
X499103Y270044D01*
X498966Y269000D01*
X499103Y267956D01*
X499506Y266983D01*
X500147Y266147D01*
X500983Y265506D01*
X501956Y265103D01*
X503000Y264966D01*
X504044Y265103D01*
X505017Y265506D01*
X505853Y266147D01*
X506494Y266983D01*
X506897Y267956D01*
X507034Y269000D01*
X506897Y270044D01*
X506494Y271017D01*
X506101Y271530D01*
X506026Y272944D01*
Y280000D01*
X522778D01*
X619567Y376789D01*
X880809Y376789D01*
D02*
G37*
G36*
X157089Y169243D02*
X157125Y169234D01*
X157177Y169227D01*
X157332Y169215D01*
X157847Y169203D01*
X158018Y169202D01*
Y167202D01*
X157071Y167152D01*
Y169252D01*
X157089Y169243D01*
D02*
G37*
G36*
X154929Y167152D02*
X154911Y167162D01*
X154875Y167170D01*
X154823Y167178D01*
X154668Y167190D01*
X154153Y167202D01*
X153982Y167202D01*
Y169202D01*
X154929Y169252D01*
Y167152D01*
D02*
G37*
G36*
X1240391Y169139D02*
X1240204Y168913D01*
X1240039Y168681D01*
X1239896Y168442D01*
X1239775Y168197D01*
X1239676Y167945D01*
X1239599Y167687D01*
X1239544Y167421D01*
X1239511Y167150D01*
X1239500Y166872D01*
X1237500D01*
X1237489Y167150D01*
X1237456Y167421D01*
X1237401Y167687D01*
X1237324Y167945D01*
X1237225Y168197D01*
X1237104Y168442D01*
X1236961Y168681D01*
X1236796Y168913D01*
X1236609Y169139D01*
X1236400Y169358D01*
X1240600D01*
X1240391Y169139D01*
D02*
G37*
G36*
X1211891D02*
X1211704Y168913D01*
X1211539Y168681D01*
X1211396Y168442D01*
X1211275Y168197D01*
X1211176Y167945D01*
X1211099Y167687D01*
X1211044Y167421D01*
X1211011Y167150D01*
X1211000Y166872D01*
X1209000D01*
X1208989Y167150D01*
X1208956Y167421D01*
X1208901Y167687D01*
X1208824Y167945D01*
X1208725Y168197D01*
X1208604Y168442D01*
X1208461Y168681D01*
X1208296Y168913D01*
X1208109Y169139D01*
X1207900Y169358D01*
X1212100D01*
X1211891Y169139D01*
D02*
G37*
G36*
X1191891D02*
X1191704Y168913D01*
X1191539Y168681D01*
X1191396Y168442D01*
X1191275Y168197D01*
X1191176Y167945D01*
X1191099Y167687D01*
X1191044Y167421D01*
X1191011Y167150D01*
X1191000Y166872D01*
X1189000D01*
X1188989Y167150D01*
X1188956Y167421D01*
X1188901Y167687D01*
X1188824Y167945D01*
X1188725Y168197D01*
X1188604Y168442D01*
X1188461Y168681D01*
X1188296Y168913D01*
X1188109Y169139D01*
X1187900Y169358D01*
X1192100D01*
X1191891Y169139D01*
D02*
G37*
G36*
X1612840Y168290D02*
X1612875Y168282D01*
X1612927Y168274D01*
X1613082Y168263D01*
X1613597Y168251D01*
X1613768Y168250D01*
Y166250D01*
X1612821Y166200D01*
Y168300D01*
X1612840Y168290D01*
D02*
G37*
G36*
X1687163Y167135D02*
X1687676Y166688D01*
X1687725Y166659D01*
X1687765Y166642D01*
X1687794Y166639D01*
X1686510Y164977D01*
X1685877Y165592D01*
X1687042Y167255D01*
X1687163Y167135D01*
D02*
G37*
G36*
X1362090Y166541D02*
X1362125Y166532D01*
X1362177Y166525D01*
X1362332Y166513D01*
X1362847Y166500D01*
X1363018Y166500D01*
Y164500D01*
X1362071Y164450D01*
Y166550D01*
X1362090Y166541D01*
D02*
G37*
G36*
X237047Y166158D02*
X236823Y164070D01*
X236801Y164087D01*
X236762Y164102D01*
X236706Y164116D01*
X236634Y164128D01*
X236441Y164146D01*
X236028Y164159D01*
X235857Y164160D01*
X236149Y166160D01*
X237047Y166158D01*
D02*
G37*
G36*
X459139Y167791D02*
X459354Y167622D01*
X459581Y167474D01*
X459818Y167345D01*
X460066Y167237D01*
X460325Y167149D01*
X460595Y167082D01*
X460876Y167034D01*
X461167Y167007D01*
X461470Y167000D01*
X458500Y164030D01*
X458493Y164333D01*
X458466Y164624D01*
X458418Y164905D01*
X458351Y165175D01*
X458263Y165434D01*
X458155Y165682D01*
X458026Y165919D01*
X457878Y166146D01*
X457709Y166361D01*
X457520Y166566D01*
X458934Y167980D01*
X459139Y167791D01*
D02*
G37*
G36*
X123745Y164160D02*
X122703Y164138D01*
X122183Y164098D01*
X121976Y164071D01*
X121804Y164039D01*
X121667Y164002D01*
X121565Y163960D01*
X121498Y163913D01*
X121331Y165160D01*
Y166160D01*
X123745Y164160D01*
D02*
G37*
G36*
X184505D02*
X184133Y164153D01*
X183814Y164132D01*
X183549Y164096D01*
X183339Y164047D01*
X183182Y163983D01*
X183080Y163905D01*
X183032Y163813D01*
X183038Y163707D01*
X183098Y163587D01*
X183213Y163453D01*
X183173Y163481D01*
X182471Y162780D01*
X182206Y163042D01*
X181072Y164035D01*
X180959Y164105D01*
X180867Y164146D01*
X180798Y164160D01*
X181384Y164746D01*
X180798Y165160D01*
Y166160D01*
X184505Y164160D01*
D02*
G37*
G36*
X1406506Y165465D02*
X1406525Y165434D01*
X1406557Y165392D01*
X1406658Y165274D01*
X1407014Y164901D01*
X1407134Y164780D01*
X1405720Y163366D01*
X1405015Y164000D01*
X1406500Y165485D01*
X1406506Y165465D01*
D02*
G37*
G36*
X121791Y163788D02*
X121778Y162905D01*
X119695Y163173D01*
X119713Y163196D01*
X119729Y163235D01*
X119744Y163290D01*
X119756Y163362D01*
X119767Y163451D01*
X119787Y163815D01*
X119791Y164140D01*
X121791Y163788D01*
D02*
G37*
G36*
X578134Y162255D02*
X577500Y161550D01*
X576015Y163035D01*
X576035Y163042D01*
X576066Y163060D01*
X576108Y163092D01*
X576226Y163194D01*
X576599Y163549D01*
X576720Y163670D01*
X578134Y162255D01*
D02*
G37*
G36*
X1561213Y161071D02*
X1559113D01*
X1559123Y161090D01*
X1559131Y161125D01*
X1559139Y161177D01*
X1559151Y161332D01*
X1559163Y161847D01*
X1559163Y162018D01*
X1561163D01*
X1561213Y161071D01*
D02*
G37*
G36*
X1470213D02*
X1468113D01*
X1468123Y161090D01*
X1468131Y161125D01*
X1468139Y161177D01*
X1468151Y161332D01*
X1468163Y161847D01*
X1468163Y162018D01*
X1470163D01*
X1470213Y161071D01*
D02*
G37*
G36*
X1239511Y162850D02*
X1239544Y162578D01*
X1239599Y162313D01*
X1239676Y162055D01*
X1239775Y161803D01*
X1239896Y161558D01*
X1240039Y161319D01*
X1240204Y161087D01*
X1240391Y160861D01*
X1240600Y160642D01*
X1236400D01*
X1236609Y160861D01*
X1236796Y161087D01*
X1236961Y161319D01*
X1237104Y161558D01*
X1237225Y161803D01*
X1237324Y162055D01*
X1237401Y162313D01*
X1237456Y162578D01*
X1237489Y162850D01*
X1237500Y163128D01*
X1239500D01*
X1239511Y162850D01*
D02*
G37*
G36*
X1211011D02*
X1211044Y162578D01*
X1211099Y162313D01*
X1211176Y162055D01*
X1211275Y161803D01*
X1211396Y161558D01*
X1211539Y161319D01*
X1211704Y161087D01*
X1211891Y160861D01*
X1212100Y160642D01*
X1207900D01*
X1208109Y160861D01*
X1208296Y161087D01*
X1208461Y161319D01*
X1208604Y161558D01*
X1208725Y161803D01*
X1208824Y162055D01*
X1208901Y162313D01*
X1208956Y162578D01*
X1208989Y162850D01*
X1209000Y163128D01*
X1211000D01*
X1211011Y162850D01*
D02*
G37*
G36*
X1191011D02*
X1191044Y162578D01*
X1191099Y162313D01*
X1191176Y162055D01*
X1191275Y161803D01*
X1191396Y161558D01*
X1191539Y161319D01*
X1191704Y161087D01*
X1191891Y160861D01*
X1192100Y160642D01*
X1187900D01*
X1188109Y160861D01*
X1188296Y161087D01*
X1188461Y161319D01*
X1188604Y161558D01*
X1188725Y161803D01*
X1188824Y162055D01*
X1188901Y162313D01*
X1188956Y162578D01*
X1188989Y162850D01*
X1189000Y163128D01*
X1191000D01*
X1191011Y162850D01*
D02*
G37*
G36*
X1516713Y160571D02*
X1514613D01*
X1514623Y160590D01*
X1514631Y160625D01*
X1514639Y160677D01*
X1514651Y160832D01*
X1514663Y161347D01*
X1514663Y161518D01*
X1516663D01*
X1516713Y160571D01*
D02*
G37*
G36*
X1425713D02*
X1423613D01*
X1423623Y160590D01*
X1423631Y160625D01*
X1423639Y160677D01*
X1423651Y160832D01*
X1423663Y161347D01*
X1423663Y161518D01*
X1425663D01*
X1425713Y160571D01*
D02*
G37*
G36*
X184319Y162354D02*
X184427Y162269D01*
X184540Y162195D01*
X184659Y162131D01*
X184783Y162077D01*
X184913Y162033D01*
X185047Y161999D01*
X185188Y161975D01*
X185334Y161962D01*
X185485Y161958D01*
X184000Y160473D01*
X183997Y160625D01*
X183983Y160770D01*
X183959Y160911D01*
X183925Y161046D01*
X183881Y161175D01*
X183827Y161299D01*
X183763Y161418D01*
X183689Y161531D01*
X183605Y161639D01*
X183510Y161741D01*
X184217Y162448D01*
X184319Y162354D01*
D02*
G37*
G36*
X443581Y161821D02*
X443564Y161750D01*
X443549Y161646D01*
X443525Y161335D01*
X443501Y160306D01*
X443500Y159964D01*
X439500D01*
X439400Y161858D01*
X443600D01*
X443581Y161821D01*
D02*
G37*
G36*
X454511Y163881D02*
X454548Y163816D01*
X454611Y163729D01*
X454700Y163620D01*
X455117Y163159D01*
X455764Y162498D01*
X452876Y159729D01*
X451483Y161000D01*
X454499Y163923D01*
X454511Y163881D01*
D02*
G37*
G36*
X575985Y160036D02*
X575965Y160029D01*
X575934Y160010D01*
X575892Y159979D01*
X575774Y159877D01*
X575401Y159522D01*
X575280Y159401D01*
X573866Y160816D01*
X574500Y161521D01*
X575985Y160036D01*
D02*
G37*
G36*
X1197639Y162291D02*
X1197854Y162122D01*
X1198081Y161974D01*
X1198318Y161845D01*
X1198566Y161737D01*
X1198825Y161649D01*
X1199095Y161582D01*
X1199376Y161534D01*
X1199667Y161507D01*
X1199970Y161500D01*
X1197000Y158530D01*
X1196993Y158833D01*
X1196966Y159124D01*
X1196918Y159405D01*
X1196851Y159675D01*
X1196763Y159934D01*
X1196655Y160182D01*
X1196526Y160419D01*
X1196378Y160646D01*
X1196209Y160861D01*
X1196020Y161066D01*
X1197434Y162480D01*
X1197639Y162291D01*
D02*
G37*
G36*
X186445Y159278D02*
X186352Y159165D01*
X186269Y159049D01*
X186198Y158929D01*
X186137Y158807D01*
X186088Y158681D01*
X186049Y158552D01*
X186022Y158419D01*
X186005Y158283D01*
X186000Y158144D01*
X185000D01*
X184994Y158283D01*
X184978Y158419D01*
X184950Y158552D01*
X184912Y158681D01*
X184862Y158807D01*
X184802Y158929D01*
X184731Y159049D01*
X184648Y159165D01*
X184555Y159278D01*
X184450Y159387D01*
X186550D01*
X186445Y159278D01*
D02*
G37*
G36*
X532417Y159604D02*
X532718Y159363D01*
X533030Y159151D01*
X533353Y158967D01*
X533689Y158812D01*
X534036Y158685D01*
X534395Y158586D01*
X534766Y158515D01*
X535148Y158472D01*
X535543Y158458D01*
Y156458D01*
X535148Y156444D01*
X534766Y156402D01*
X534395Y156331D01*
X534036Y156232D01*
X533689Y156105D01*
X533353Y155949D01*
X533030Y155765D01*
X532718Y155553D01*
X532417Y155313D01*
X532128Y155044D01*
X530300Y156044D01*
X530554Y156327D01*
X530753Y156610D01*
X530894Y156893D01*
X530979Y157175D01*
X531007Y157458D01*
X530979Y157741D01*
X530894Y158024D01*
X530753Y158307D01*
X530554Y158590D01*
X530300Y158872D01*
X532128Y159872D01*
X532417Y159604D01*
D02*
G37*
G36*
X1238470Y155500D02*
X1238167Y155493D01*
X1237876Y155466D01*
X1237595Y155418D01*
X1237325Y155351D01*
X1237066Y155263D01*
X1236818Y155155D01*
X1236581Y155026D01*
X1236354Y154878D01*
X1236139Y154709D01*
X1235934Y154520D01*
X1234520Y155934D01*
X1234709Y156139D01*
X1234878Y156354D01*
X1235026Y156581D01*
X1235155Y156818D01*
X1235263Y157066D01*
X1235351Y157325D01*
X1235418Y157595D01*
X1235466Y157876D01*
X1235493Y158167D01*
X1235500Y158470D01*
X1238470Y155500D01*
D02*
G37*
G36*
X68763Y151592D02*
X68643Y151470D01*
X68158Y150925D01*
X68139Y150891D01*
X68134Y150867D01*
X66588Y152289D01*
X66603Y152295D01*
X66630Y152315D01*
X66668Y152347D01*
X66855Y152519D01*
X67269Y152926D01*
X68763Y151592D01*
D02*
G37*
G36*
X65565Y149739D02*
X65546Y149749D01*
X65511Y149757D01*
X65459Y149765D01*
X65303Y149777D01*
X64789Y149789D01*
X64618Y149789D01*
Y151789D01*
X65565Y151839D01*
Y149739D01*
D02*
G37*
G36*
X527134Y150434D02*
X526500Y149729D01*
X525015Y151214D01*
X525035Y151220D01*
X525066Y151239D01*
X525108Y151271D01*
X525226Y151372D01*
X525598Y151728D01*
X525720Y151848D01*
X527134Y150434D01*
D02*
G37*
G36*
X68142Y150755D02*
X68161Y150724D01*
X68192Y150681D01*
X68294Y150563D01*
X68649Y150191D01*
X68770Y150069D01*
X67356Y148655D01*
X66651Y149290D01*
X68136Y150774D01*
X68142Y150755D01*
D02*
G37*
G36*
X51020Y153409D02*
X51080Y153069D01*
X51180Y152769D01*
X51320Y152509D01*
X51500Y152289D01*
X51720Y152109D01*
X51980Y151969D01*
X52280Y151869D01*
X52620Y151809D01*
X53000Y151789D01*
Y149789D01*
X52620Y149771D01*
X52280Y149718D01*
X51980Y149628D01*
X51720Y149503D01*
X51500Y149342D01*
X51320Y149145D01*
X51180Y148913D01*
X51080Y148644D01*
X51020Y148340D01*
X51000Y148000D01*
X49000Y150789D01*
X51000Y153789D01*
X51020Y153409D01*
D02*
G37*
G36*
X526041Y148625D02*
X526032Y148589D01*
X526024Y148537D01*
X526013Y148382D01*
X526000Y147867D01*
X526000Y147696D01*
X524000D01*
X523950Y148643D01*
X526050D01*
X526041Y148625D01*
D02*
G37*
G36*
X1556213Y145571D02*
X1554113D01*
X1554123Y145589D01*
X1554131Y145625D01*
X1554139Y145677D01*
X1554151Y145832D01*
X1554163Y146347D01*
X1554163Y146518D01*
X1556163D01*
X1556213Y145571D01*
D02*
G37*
G36*
X1465213D02*
X1463113D01*
X1463123Y145589D01*
X1463131Y145625D01*
X1463139Y145677D01*
X1463151Y145832D01*
X1463163Y146347D01*
X1463163Y146518D01*
X1465163D01*
X1465213Y145571D01*
D02*
G37*
G36*
X1414550D02*
X1412450D01*
X1412459Y145589D01*
X1412468Y145625D01*
X1412475Y145677D01*
X1412488Y145832D01*
X1412500Y146347D01*
X1412500Y146518D01*
X1414500D01*
X1414550Y145571D01*
D02*
G37*
G36*
X1410550D02*
X1408450D01*
X1408459Y145589D01*
X1408468Y145625D01*
X1408475Y145677D01*
X1408488Y145832D01*
X1408500Y146347D01*
X1408500Y146518D01*
X1410500D01*
X1410550Y145571D01*
D02*
G37*
G36*
X1678294Y145014D02*
X1678265Y145011D01*
X1678226Y144995D01*
X1678176Y144966D01*
X1678116Y144924D01*
X1678046Y144869D01*
X1677774Y144625D01*
X1677542Y144398D01*
X1676377Y146062D01*
X1677010Y146677D01*
X1678294Y145014D01*
D02*
G37*
G36*
X1621623Y146062D02*
X1620458Y144398D01*
X1620337Y144518D01*
X1619824Y144966D01*
X1619774Y144995D01*
X1619735Y145011D01*
X1619706Y145014D01*
X1620990Y146677D01*
X1621623Y146062D01*
D02*
G37*
G36*
X1619485Y145000D02*
X1619465Y144994D01*
X1619434Y144975D01*
X1619392Y144943D01*
X1619274Y144842D01*
X1618901Y144486D01*
X1618780Y144366D01*
X1617366Y145780D01*
X1618000Y146485D01*
X1619485Y145000D01*
D02*
G37*
G36*
X431176Y145260D02*
X429691Y143775D01*
X429685Y143795D01*
X429666Y143825D01*
X429635Y143868D01*
X429533Y143986D01*
X429178Y144358D01*
X429057Y144480D01*
X430472Y145894D01*
X431176Y145260D01*
D02*
G37*
G36*
X368825Y144480D02*
X368191Y143775D01*
X366706Y145260D01*
X366726Y145266D01*
X366757Y145285D01*
X366799Y145317D01*
X366917Y145418D01*
X367290Y145773D01*
X367411Y145894D01*
X368825Y144480D01*
D02*
G37*
G36*
X138369Y145260D02*
X136884Y143775D01*
X136878Y143795D01*
X136859Y143825D01*
X136828Y143868D01*
X136726Y143986D01*
X136371Y144358D01*
X136250Y144480D01*
X137664Y145894D01*
X138369Y145260D01*
D02*
G37*
G36*
X90865Y144480D02*
X90231Y143775D01*
X88746Y145260D01*
X88765Y145266D01*
X88796Y145285D01*
X88838Y145317D01*
X88957Y145418D01*
X89329Y145773D01*
X89451Y145894D01*
X90865Y144480D01*
D02*
G37*
G36*
X658662Y145741D02*
X659174Y145294D01*
X659224Y145265D01*
X659263Y145249D01*
X659292Y145246D01*
X658009Y143583D01*
X657375Y144198D01*
X658540Y145861D01*
X658662Y145741D01*
D02*
G37*
G36*
X594162D02*
X594674Y145294D01*
X594724Y145265D01*
X594763Y145249D01*
X594792Y145246D01*
X593509Y143583D01*
X592875Y144198D01*
X594040Y145861D01*
X594162Y145741D01*
D02*
G37*
G36*
X365855D02*
X366367Y145294D01*
X366417Y145265D01*
X366456Y145249D01*
X366485Y145246D01*
X365202Y143583D01*
X364568Y144198D01*
X365733Y145861D01*
X365855Y145741D01*
D02*
G37*
G36*
X1465253Y145540D02*
X1465288Y145532D01*
X1465340Y145525D01*
X1465496Y145512D01*
X1466010Y145501D01*
X1466181Y145500D01*
Y143500D01*
X1465234Y143450D01*
Y145550D01*
X1465253Y145540D01*
D02*
G37*
G36*
X596088Y144800D02*
X596123Y144792D01*
X596175Y144784D01*
X596331Y144772D01*
X596845Y144760D01*
X597016Y144760D01*
Y142760D01*
X596070Y142710D01*
Y144810D01*
X596088Y144800D01*
D02*
G37*
G36*
X546434D02*
X546470Y144792D01*
X546522Y144784D01*
X546677Y144772D01*
X547192Y144760D01*
X547363Y144760D01*
Y142760D01*
X546416Y142710D01*
Y144810D01*
X546434Y144800D01*
D02*
G37*
G36*
X318127D02*
X318163Y144792D01*
X318215Y144784D01*
X318370Y144772D01*
X318885Y144760D01*
X319056Y144760D01*
Y142760D01*
X318109Y142710D01*
Y144810D01*
X318127Y144800D01*
D02*
G37*
G36*
X251467Y142710D02*
X251448Y142719D01*
X251413Y142728D01*
X251361Y142735D01*
X251205Y142747D01*
X250691Y142759D01*
X250520Y142760D01*
Y144760D01*
X251467Y144810D01*
Y142710D01*
D02*
G37*
G36*
X203974Y144800D02*
X204009Y144792D01*
X204061Y144784D01*
X204217Y144772D01*
X204731Y144760D01*
X204902Y144760D01*
Y142760D01*
X203955Y142710D01*
Y144810D01*
X203974Y144800D01*
D02*
G37*
G36*
X1554957Y143014D02*
X1554928Y143011D01*
X1554889Y142995D01*
X1554839Y142966D01*
X1554779Y142924D01*
X1554709Y142869D01*
X1554438Y142625D01*
X1554205Y142399D01*
X1553040Y144062D01*
X1553674Y144676D01*
X1554957Y143014D01*
D02*
G37*
G36*
X1464148Y143000D02*
X1464129Y142994D01*
X1464098Y142975D01*
X1464055Y142943D01*
X1463937Y142842D01*
X1463565Y142487D01*
X1463443Y142366D01*
X1462029Y143780D01*
X1462663Y144485D01*
X1464148Y143000D01*
D02*
G37*
G36*
X422043Y143153D02*
X422095Y143127D01*
X422161Y143105D01*
X422242Y143085D01*
X422337Y143069D01*
X422573Y143045D01*
X422866Y143033D01*
X423035Y143031D01*
Y141231D01*
X422866Y141230D01*
X422337Y141194D01*
X422242Y141177D01*
X422161Y141158D01*
X422095Y141135D01*
X422043Y141110D01*
X422007Y141081D01*
Y143181D01*
X422043Y143153D01*
D02*
G37*
G36*
X433302Y138950D02*
X433266Y138979D01*
X433214Y139004D01*
X433148Y139026D01*
X433067Y139046D01*
X432972Y139062D01*
X432737Y139086D01*
X432443Y139099D01*
X432274Y139100D01*
Y140900D01*
X432443Y140902D01*
X432972Y140937D01*
X433067Y140954D01*
X433148Y140973D01*
X433214Y140996D01*
X433266Y141022D01*
X433302Y141050D01*
Y138950D01*
D02*
G37*
G36*
X1234020Y142158D02*
X1234080Y141818D01*
X1234180Y141518D01*
X1234320Y141258D01*
X1234500Y141038D01*
X1234720Y140858D01*
X1234980Y140718D01*
X1235280Y140618D01*
X1235620Y140558D01*
X1236000Y140538D01*
X1233000Y138538D01*
X1230000Y140538D01*
X1230380Y140558D01*
X1230720Y140618D01*
X1231020Y140718D01*
X1231280Y140858D01*
X1231500Y141038D01*
X1231680Y141258D01*
X1231820Y141518D01*
X1231920Y141818D01*
X1231980Y142158D01*
X1232000Y142538D01*
X1234000D01*
X1234020Y142158D01*
D02*
G37*
G36*
X1406089Y139541D02*
X1406125Y139532D01*
X1406177Y139524D01*
X1406332Y139513D01*
X1406847Y139500D01*
X1407018Y139500D01*
Y137500D01*
X1406071Y137450D01*
Y139550D01*
X1406089Y139541D01*
D02*
G37*
G36*
X1362090D02*
X1362125Y139532D01*
X1362177Y139524D01*
X1362332Y139513D01*
X1362847Y139500D01*
X1363018Y139500D01*
Y137500D01*
X1362071Y137450D01*
Y139550D01*
X1362090Y139541D01*
D02*
G37*
G36*
X1294550Y135571D02*
X1292450D01*
X1292459Y135590D01*
X1292468Y135625D01*
X1292476Y135677D01*
X1292488Y135832D01*
X1292500Y136347D01*
X1292500Y136518D01*
X1294500D01*
X1294550Y135571D01*
D02*
G37*
G36*
X1251107Y136496D02*
X1249506Y135137D01*
X1249502Y135163D01*
X1249484Y135200D01*
X1249454Y135248D01*
X1249411Y135306D01*
X1249286Y135453D01*
X1249003Y135754D01*
X1248883Y135876D01*
X1250453Y137134D01*
X1251107Y136496D01*
D02*
G37*
G36*
X1210134Y135720D02*
X1209500Y135015D01*
X1208015Y136500D01*
X1208035Y136506D01*
X1208066Y136525D01*
X1208108Y136557D01*
X1208226Y136658D01*
X1208599Y137013D01*
X1208720Y137134D01*
X1210134Y135720D01*
D02*
G37*
G36*
X386539Y135500D02*
X386519Y135494D01*
X386488Y135475D01*
X386446Y135443D01*
X386327Y135342D01*
X385955Y134986D01*
X385834Y134866D01*
X384419Y136280D01*
X385054Y136985D01*
X386539Y135500D01*
D02*
G37*
G36*
X767006Y136465D02*
X767025Y136434D01*
X767057Y136392D01*
X767158Y136274D01*
X767514Y135901D01*
X767634Y135780D01*
X766220Y134366D01*
X765515Y135000D01*
X767000Y136485D01*
X767006Y136465D01*
D02*
G37*
G36*
X43288Y134307D02*
X42654Y133602D01*
X41168Y135087D01*
X41188Y135093D01*
X41219Y135112D01*
X41261Y135143D01*
X41380Y135245D01*
X41752Y135600D01*
X41873Y135721D01*
X43288Y134307D01*
D02*
G37*
G36*
X1207985Y133500D02*
X1207965Y133494D01*
X1207934Y133475D01*
X1207892Y133443D01*
X1207774Y133342D01*
X1207401Y132986D01*
X1207280Y132866D01*
X1205866Y134280D01*
X1206500Y134985D01*
X1207985Y133500D01*
D02*
G37*
G36*
X240288Y131220D02*
X239653Y130515D01*
X238169Y132000D01*
X238188Y132006D01*
X238219Y132025D01*
X238261Y132057D01*
X238380Y132158D01*
X238752Y132513D01*
X238873Y132634D01*
X240288Y131220D01*
D02*
G37*
G36*
X1140090Y131541D02*
X1140125Y131532D01*
X1140177Y131525D01*
X1140332Y131512D01*
X1140847Y131500D01*
X1141018Y131500D01*
Y129500D01*
X1140071Y129450D01*
Y131550D01*
X1140090Y131541D01*
D02*
G37*
G36*
X188610Y129391D02*
X188596Y129396D01*
X188564Y129400D01*
X188515Y129403D01*
X188009Y129414D01*
X187684Y129415D01*
X187532Y131415D01*
X187703Y131416D01*
X188433Y131462D01*
X188470Y131474D01*
X188491Y131488D01*
X188610Y129391D01*
D02*
G37*
G36*
X122355Y131435D02*
X122387Y131431D01*
X122435Y131427D01*
X122942Y131416D01*
X123267Y131415D01*
X123419Y129415D01*
X123248Y129415D01*
X122518Y129369D01*
X122480Y129357D01*
X122459Y129343D01*
X122341Y131439D01*
X122355Y131435D01*
D02*
G37*
G36*
X190839Y131386D02*
X190878Y131370D01*
X190934Y131356D01*
X191006Y131343D01*
X191095Y131333D01*
X191459Y131313D01*
X191783Y131309D01*
X191431Y129309D01*
X190549Y129322D01*
X190816Y131405D01*
X190839Y131386D01*
D02*
G37*
G36*
X120259Y129281D02*
X120241Y129290D01*
X120206Y129299D01*
X120154Y129306D01*
X119998Y129318D01*
X119484Y129330D01*
X119313Y129331D01*
Y131331D01*
X120259Y131381D01*
Y129281D01*
D02*
G37*
G36*
X575429Y128450D02*
X575411Y128460D01*
X575375Y128468D01*
X575323Y128475D01*
X575168Y128488D01*
X574653Y128499D01*
X574482Y128500D01*
Y130500D01*
X575429Y130550D01*
Y128450D01*
D02*
G37*
G36*
X1138985Y129000D02*
X1138965Y128994D01*
X1138934Y128975D01*
X1138892Y128943D01*
X1138774Y128842D01*
X1138402Y128487D01*
X1138280Y128366D01*
X1136866Y129780D01*
X1137500Y130485D01*
X1138985Y129000D01*
D02*
G37*
G36*
X238139D02*
X238119Y128994D01*
X238088Y128975D01*
X238046Y128943D01*
X237927Y128842D01*
X237555Y128487D01*
X237434Y128366D01*
X236019Y129780D01*
X236654Y130485D01*
X238139Y129000D01*
D02*
G37*
G36*
X239167Y130431D02*
X239209Y130340D01*
X239278Y130227D01*
X239327Y130158D01*
X239653Y130485D01*
X239657Y130334D01*
X239671Y130188D01*
X239694Y130047D01*
X239728Y129912D01*
X239772Y129783D01*
X239826Y129659D01*
X239890Y129540D01*
X239965Y129427D01*
X239996Y129387D01*
X240271Y129092D01*
X240534Y128827D01*
X239827Y128120D01*
X239561Y128382D01*
X239165Y128729D01*
X239113Y128763D01*
X238995Y128827D01*
X238871Y128881D01*
X238741Y128925D01*
X238606Y128959D01*
X238466Y128983D01*
X238320Y128997D01*
X238169Y129000D01*
X238489Y129321D01*
X238427Y129376D01*
X238314Y129445D01*
X238223Y129486D01*
X238153Y129500D01*
X239154Y130501D01*
X239167Y130431D01*
D02*
G37*
G36*
X1685634Y128720D02*
X1685000Y128015D01*
X1683515Y129500D01*
X1683535Y129506D01*
X1683566Y129525D01*
X1683608Y129557D01*
X1683726Y129658D01*
X1684098Y130014D01*
X1684220Y130134D01*
X1685634Y128720D01*
D02*
G37*
G36*
X1414590Y130041D02*
X1414625Y130032D01*
X1414677Y130025D01*
X1414832Y130013D01*
X1415347Y130000D01*
X1415518Y130000D01*
Y128000D01*
X1414571Y127950D01*
Y130050D01*
X1414590Y130041D01*
D02*
G37*
G36*
X531191Y129974D02*
X531230Y129958D01*
X531286Y129943D01*
X531358Y129931D01*
X531446Y129920D01*
X531810Y129900D01*
X532135Y129896D01*
X531783Y127896D01*
X530900Y127909D01*
X531168Y129992D01*
X531191Y129974D01*
D02*
G37*
G36*
X577540Y128410D02*
X577532Y128375D01*
X577525Y128323D01*
X577513Y128168D01*
X577500Y127653D01*
X577500Y127482D01*
X575500D01*
X575450Y128429D01*
X577550D01*
X577540Y128410D01*
D02*
G37*
G36*
X75588Y128173D02*
X75572Y128151D01*
X75557Y128112D01*
X75543Y128057D01*
X75532Y127985D01*
X75514Y127792D01*
X75501Y127379D01*
X75500Y127208D01*
X73500Y127488D01*
X73499Y128388D01*
X75588Y128173D01*
D02*
G37*
G36*
X1410992Y128785D02*
X1411008Y128746D01*
X1411038Y128698D01*
X1411080Y128638D01*
X1411204Y128489D01*
X1411379Y128297D01*
X1411606Y128065D01*
X1409970Y126873D01*
X1409343Y127508D01*
X1410988Y128814D01*
X1410992Y128785D01*
D02*
G37*
G36*
X1682840Y126653D02*
X1681186Y126500D01*
Y128500D01*
X1681356Y128501D01*
X1681871Y128533D01*
X1681958Y128548D01*
X1682028Y128565D01*
X1682082Y128585D01*
X1682119Y128608D01*
X1682140Y128633D01*
X1682840Y126653D01*
D02*
G37*
G36*
X1615590Y128541D02*
X1615625Y128532D01*
X1615677Y128524D01*
X1615832Y128513D01*
X1616347Y128500D01*
X1616518Y128500D01*
Y126500D01*
X1615571Y126450D01*
Y128550D01*
X1615590Y128541D01*
D02*
G37*
G36*
X203505Y127175D02*
X203522Y127039D01*
X203550Y126907D01*
X203588Y126778D01*
X203638Y126652D01*
X203698Y126529D01*
X203769Y126409D01*
X203852Y126294D01*
X203945Y126181D01*
X204050Y126071D01*
X201950D01*
X202055Y126181D01*
X202148Y126294D01*
X202231Y126409D01*
X202302Y126529D01*
X202362Y126652D01*
X202412Y126778D01*
X202450Y126907D01*
X202478Y127039D01*
X202495Y127175D01*
X202500Y127314D01*
X203500D01*
X203505Y127175D01*
D02*
G37*
G36*
X569208Y122999D02*
X569190Y123009D01*
X569155Y123017D01*
X569102Y123024D01*
X568947Y123037D01*
X568432Y123048D01*
X568261Y123049D01*
Y125049D01*
X569208Y125099D01*
Y122999D01*
D02*
G37*
G36*
X803929Y121450D02*
X803911Y121459D01*
X803875Y121468D01*
X803823Y121476D01*
X803668Y121487D01*
X803153Y121500D01*
X802982Y121500D01*
Y123500D01*
X803929Y123550D01*
Y121450D01*
D02*
G37*
G36*
X436485Y122000D02*
X436465Y121994D01*
X436434Y121975D01*
X436392Y121943D01*
X436274Y121842D01*
X435901Y121486D01*
X435780Y121366D01*
X434366Y122780D01*
X435000Y123485D01*
X436485Y122000D01*
D02*
G37*
G36*
X806040Y121411D02*
X806032Y121375D01*
X806024Y121323D01*
X806013Y121168D01*
X806001Y120653D01*
X806000Y120482D01*
X804000D01*
X803950Y121429D01*
X806050D01*
X806040Y121411D01*
D02*
G37*
G36*
X520541Y120411D02*
X520532Y120375D01*
X520525Y120323D01*
X520512Y120168D01*
X520501Y119653D01*
X520500Y119482D01*
X518500D01*
X518450Y120429D01*
X520550D01*
X520541Y120411D01*
D02*
G37*
G36*
X1187681Y118446D02*
X1187793Y118352D01*
X1187910Y118270D01*
X1188029Y118198D01*
X1188151Y118138D01*
X1188278Y118088D01*
X1188407Y118050D01*
X1188539Y118022D01*
X1188675Y118006D01*
X1188814Y118000D01*
Y117000D01*
X1188675Y116995D01*
X1188539Y116978D01*
X1188407Y116951D01*
X1188278Y116912D01*
X1188151Y116862D01*
X1188029Y116802D01*
X1187910Y116730D01*
X1187793Y116648D01*
X1187681Y116554D01*
X1187571Y116450D01*
Y118550D01*
X1187681Y118446D01*
D02*
G37*
G36*
X763572Y117678D02*
X763304Y115595D01*
X763281Y115613D01*
X763242Y115630D01*
X763186Y115644D01*
X763114Y115657D01*
X763026Y115667D01*
X762662Y115688D01*
X762337Y115691D01*
X762689Y117691D01*
X763572Y117678D01*
D02*
G37*
G36*
X35463Y114479D02*
X34703Y114439D01*
X34023Y114319D01*
X33423Y114119D01*
X32903Y113839D01*
X32463Y113479D01*
X32103Y113039D01*
X31823Y112519D01*
X31623Y111919D01*
X31503Y111239D01*
X31463Y110479D01*
X27463D01*
X27423Y111239D01*
X27303Y111919D01*
X27103Y112519D01*
X26823Y113039D01*
X26463Y113479D01*
X26023Y113839D01*
X25503Y114119D01*
X24903Y114319D01*
X24223Y114439D01*
X23463Y114479D01*
X29463Y118479D01*
X35463Y114479D01*
D02*
G37*
G36*
X631429Y106750D02*
X631411Y106760D01*
X631375Y106768D01*
X631323Y106775D01*
X631168Y106788D01*
X630653Y106799D01*
X630482Y106800D01*
Y108800D01*
X631429Y108850D01*
Y106750D01*
D02*
G37*
G36*
X374959Y106402D02*
X372860D01*
X372869Y106420D01*
X372877Y106456D01*
X372885Y106508D01*
X372897Y106663D01*
X372909Y107178D01*
X372909Y107349D01*
X374909D01*
X374959Y106402D01*
D02*
G37*
G36*
X834550Y105071D02*
X832450D01*
X832460Y105089D01*
X832468Y105125D01*
X832475Y105177D01*
X832487Y105332D01*
X832500Y105847D01*
X832500Y106018D01*
X834500D01*
X834550Y105071D01*
D02*
G37*
G36*
X1396485Y106500D02*
X1395000Y105015D01*
X1394994Y105035D01*
X1394975Y105066D01*
X1394943Y105108D01*
X1394842Y105226D01*
X1394487Y105598D01*
X1394366Y105720D01*
X1395780Y107134D01*
X1396485Y106500D01*
D02*
G37*
G36*
X1382128D02*
X1380643Y105015D01*
X1380637Y105035D01*
X1380618Y105066D01*
X1380586Y105108D01*
X1380485Y105226D01*
X1380129Y105598D01*
X1380009Y105720D01*
X1381423Y107134D01*
X1382128Y106500D01*
D02*
G37*
G36*
X1377342D02*
X1375857Y105015D01*
X1375851Y105035D01*
X1375832Y105066D01*
X1375800Y105108D01*
X1375699Y105226D01*
X1375344Y105598D01*
X1375223Y105720D01*
X1376637Y107134D01*
X1377342Y106500D01*
D02*
G37*
G36*
X1372556D02*
X1371072Y105015D01*
X1371065Y105035D01*
X1371046Y105066D01*
X1371015Y105108D01*
X1370913Y105226D01*
X1370558Y105598D01*
X1370437Y105720D01*
X1371852Y107134D01*
X1372556Y106500D01*
D02*
G37*
G36*
X1367771D02*
X1366286Y105015D01*
X1366280Y105035D01*
X1366261Y105066D01*
X1366229Y105108D01*
X1366128Y105226D01*
X1365772Y105598D01*
X1365652Y105720D01*
X1367066Y107134D01*
X1367771Y106500D01*
D02*
G37*
G36*
X407940Y107041D02*
X407975Y107032D01*
X408027Y107025D01*
X408183Y107012D01*
X408697Y107001D01*
X408868Y107000D01*
Y105000D01*
X407922Y104950D01*
Y107050D01*
X407940Y107041D01*
D02*
G37*
G36*
X406329Y104594D02*
X404608Y104331D01*
X404487Y106331D01*
X404658Y106332D01*
X405168Y106363D01*
X405253Y106378D01*
X405321Y106395D01*
X405372Y106414D01*
X405406Y106437D01*
X405423Y106462D01*
X406329Y104594D01*
D02*
G37*
G36*
X374999Y106371D02*
X375034Y106363D01*
X375086Y106355D01*
X375242Y106343D01*
X375756Y106331D01*
X375927Y106331D01*
Y104331D01*
X374981Y104281D01*
Y106381D01*
X374999Y106371D01*
D02*
G37*
G36*
X1279000Y103500D02*
X1277000Y101000D01*
X1276990Y101380D01*
X1276960Y101720D01*
X1276910Y102020D01*
X1276840Y102280D01*
X1276750Y102500D01*
X1276640Y102680D01*
X1276528Y102801D01*
X1276410Y102731D01*
X1276293Y102648D01*
X1276181Y102555D01*
X1276071Y102450D01*
Y102979D01*
X1275507Y102998D01*
X1275134Y103000D01*
Y104000D01*
X1275507Y104002D01*
X1276071Y104039D01*
Y104550D01*
X1276181Y104446D01*
X1276293Y104352D01*
X1276410Y104270D01*
X1276528Y104199D01*
X1276640Y104320D01*
X1276750Y104500D01*
X1276840Y104720D01*
X1276910Y104980D01*
X1276960Y105280D01*
X1276990Y105620D01*
X1277000Y106000D01*
X1279000Y103500D01*
D02*
G37*
G36*
X1397589Y106041D02*
X1397625Y106032D01*
X1397677Y106025D01*
X1397832Y106012D01*
X1398347Y106000D01*
X1398518Y106000D01*
Y104000D01*
X1397571Y103950D01*
Y106050D01*
X1397589Y106041D01*
D02*
G37*
G36*
X1361929Y103950D02*
X1361911Y103960D01*
X1361875Y103968D01*
X1361823Y103975D01*
X1361668Y103988D01*
X1361153Y103999D01*
X1360982Y104000D01*
Y106000D01*
X1361929Y106050D01*
Y103950D01*
D02*
G37*
G36*
X89134Y104386D02*
X88500Y103682D01*
X87015Y105167D01*
X87035Y105173D01*
X87066Y105192D01*
X87108Y105223D01*
X87226Y105325D01*
X87599Y105680D01*
X87720Y105801D01*
X89134Y104386D01*
D02*
G37*
G36*
X1249819Y105395D02*
X1249927Y105311D01*
X1250040Y105237D01*
X1250159Y105173D01*
X1250283Y105119D01*
X1250412Y105075D01*
X1250547Y105041D01*
X1250688Y105017D01*
X1250834Y105003D01*
X1250985Y105000D01*
X1249500Y103515D01*
X1249497Y103666D01*
X1249483Y103812D01*
X1249459Y103953D01*
X1249425Y104087D01*
X1249381Y104217D01*
X1249327Y104341D01*
X1249263Y104460D01*
X1249189Y104573D01*
X1249104Y104681D01*
X1249010Y104783D01*
X1249717Y105490D01*
X1249819Y105395D01*
D02*
G37*
G36*
X1209990Y104783D02*
X1209896Y104681D01*
X1209811Y104573D01*
X1209737Y104460D01*
X1209673Y104341D01*
X1209619Y104217D01*
X1209575Y104087D01*
X1209541Y103953D01*
X1209517Y103812D01*
X1209503Y103666D01*
X1209500Y103515D01*
X1208015Y105000D01*
X1208166Y105003D01*
X1208312Y105017D01*
X1208453Y105041D01*
X1208587Y105075D01*
X1208717Y105119D01*
X1208841Y105173D01*
X1208960Y105237D01*
X1209073Y105311D01*
X1209181Y105395D01*
X1209283Y105490D01*
X1209990Y104783D01*
D02*
G37*
G36*
X1206819Y105395D02*
X1206927Y105311D01*
X1207040Y105237D01*
X1207159Y105173D01*
X1207283Y105119D01*
X1207413Y105075D01*
X1207547Y105041D01*
X1207688Y105017D01*
X1207834Y105003D01*
X1207985Y105000D01*
X1206500Y103515D01*
X1206497Y103666D01*
X1206483Y103812D01*
X1206459Y103953D01*
X1206425Y104087D01*
X1206381Y104217D01*
X1206327Y104341D01*
X1206263Y104460D01*
X1206189Y104573D01*
X1206104Y104681D01*
X1206010Y104783D01*
X1206717Y105490D01*
X1206819Y105395D01*
D02*
G37*
G36*
X806014Y108020D02*
X806057Y107638D01*
X806127Y107267D01*
X806226Y106908D01*
X806353Y106561D01*
X806509Y106225D01*
X806693Y105901D01*
X806905Y105589D01*
X807146Y105289D01*
X807414Y105000D01*
X806293Y103293D01*
X806034Y103526D01*
X805776Y103707D01*
X805517Y103836D01*
X805259Y103913D01*
X805000Y103939D01*
X804741Y103913D01*
X804483Y103836D01*
X804224Y103707D01*
X803966Y103526D01*
X803707Y103293D01*
X802586Y105000D01*
X802855Y105289D01*
X803020Y105495D01*
X803015Y105500D01*
X803026Y105503D01*
X803095Y105589D01*
X803307Y105901D01*
X803491Y106225D01*
X803646Y106561D01*
X803774Y106908D01*
X803873Y107267D01*
X803943Y107638D01*
X803986Y108020D01*
X804000Y108414D01*
X806000D01*
X806014Y108020D01*
D02*
G37*
G36*
X247505Y104175D02*
X247522Y104039D01*
X247550Y103907D01*
X247588Y103778D01*
X247638Y103651D01*
X247698Y103529D01*
X247769Y103410D01*
X247852Y103294D01*
X247945Y103181D01*
X248050Y103071D01*
X245950D01*
X246055Y103181D01*
X246148Y103294D01*
X246231Y103410D01*
X246302Y103529D01*
X246362Y103651D01*
X246412Y103778D01*
X246450Y103907D01*
X246478Y104039D01*
X246495Y104175D01*
X246500Y104314D01*
X247500D01*
X247505Y104175D01*
D02*
G37*
G36*
X832429Y102950D02*
X832411Y102960D01*
X832375Y102968D01*
X832323Y102975D01*
X832168Y102988D01*
X831653Y102999D01*
X831482Y103000D01*
Y105000D01*
X832429Y105050D01*
Y102950D01*
D02*
G37*
G36*
X1391116Y107013D02*
X1391488Y106658D01*
X1391606Y106557D01*
X1391649Y106525D01*
X1391680Y106506D01*
X1391699Y106500D01*
X1391714Y105000D01*
X1393214Y104985D01*
X1393220Y104965D01*
X1393239Y104934D01*
X1393271Y104892D01*
X1393372Y104774D01*
X1393728Y104402D01*
X1393848Y104280D01*
X1392434Y102866D01*
X1391729Y103500D01*
X1391714Y105000D01*
X1390214Y105015D01*
X1389580Y105720D01*
X1390994Y107134D01*
X1391116Y107013D01*
D02*
G37*
G36*
X1386330D02*
X1386702Y106658D01*
X1386821Y106557D01*
X1386863Y106525D01*
X1386894Y106506D01*
X1386914Y106500D01*
X1386928Y105000D01*
X1388428Y104985D01*
X1388435Y104965D01*
X1388454Y104934D01*
X1388485Y104892D01*
X1388587Y104774D01*
X1388942Y104402D01*
X1389063Y104280D01*
X1387648Y102866D01*
X1386944Y103500D01*
X1386928Y105000D01*
X1385429Y105015D01*
X1384795Y105720D01*
X1386209Y107134D01*
X1386330Y107013D01*
D02*
G37*
G36*
X1383649Y104965D02*
X1383668Y104934D01*
X1383700Y104892D01*
X1383801Y104774D01*
X1384156Y104402D01*
X1384277Y104280D01*
X1382863Y102866D01*
X1382158Y103500D01*
X1383643Y104985D01*
X1383649Y104965D01*
D02*
G37*
G36*
X1378863D02*
X1378882Y104934D01*
X1378914Y104892D01*
X1379015Y104774D01*
X1379371Y104402D01*
X1379491Y104280D01*
X1378077Y102866D01*
X1377372Y103500D01*
X1378857Y104985D01*
X1378863Y104965D01*
D02*
G37*
G36*
X1374078D02*
X1374096Y104934D01*
X1374128Y104892D01*
X1374230Y104774D01*
X1374585Y104402D01*
X1374706Y104280D01*
X1373291Y102866D01*
X1372586Y103500D01*
X1374071Y104985D01*
X1374078Y104965D01*
D02*
G37*
G36*
X1369292D02*
X1369311Y104934D01*
X1369342Y104892D01*
X1369444Y104774D01*
X1369799Y104402D01*
X1369920Y104280D01*
X1368506Y102866D01*
X1367801Y103500D01*
X1369286Y104985D01*
X1369292Y104965D01*
D02*
G37*
G36*
X1364506D02*
X1364525Y104934D01*
X1364557Y104892D01*
X1364658Y104774D01*
X1365014Y104402D01*
X1365134Y104280D01*
X1363720Y102866D01*
X1363015Y103500D01*
X1364500Y104985D01*
X1364506Y104965D01*
D02*
G37*
G36*
X75520Y106287D02*
X75580Y105947D01*
X75680Y105647D01*
X75820Y105387D01*
X76000Y105167D01*
X76220Y104987D01*
X76480Y104847D01*
X76780Y104747D01*
X77120Y104687D01*
X77500Y104667D01*
X74500Y102667D01*
X71500Y104667D01*
X71880Y104687D01*
X72220Y104747D01*
X72520Y104847D01*
X72780Y104987D01*
X73000Y105167D01*
X73180Y105387D01*
X73320Y105647D01*
X73420Y105947D01*
X73480Y106287D01*
X73500Y106667D01*
X75500D01*
X75520Y106287D01*
D02*
G37*
G36*
X85929Y102617D02*
X85910Y102626D01*
X85875Y102635D01*
X85823Y102642D01*
X85668Y102654D01*
X85153Y102666D01*
X84982Y102667D01*
Y104667D01*
X85929Y104717D01*
Y102617D01*
D02*
G37*
G36*
X38089Y104707D02*
X38125Y104699D01*
X38177Y104691D01*
X38332Y104679D01*
X38847Y104667D01*
X39018Y104667D01*
Y102667D01*
X38071Y102617D01*
Y104717D01*
X38089Y104707D01*
D02*
G37*
G36*
X1273929Y102450D02*
X1273819Y102555D01*
X1273707Y102648D01*
X1273590Y102731D01*
X1273471Y102802D01*
X1273349Y102863D01*
X1273223Y102912D01*
X1273093Y102951D01*
X1272961Y102978D01*
X1272825Y102995D01*
X1272686Y103000D01*
Y104000D01*
X1272825Y104006D01*
X1272961Y104022D01*
X1273093Y104050D01*
X1273223Y104088D01*
X1273349Y104138D01*
X1273471Y104198D01*
X1273590Y104270D01*
X1273707Y104352D01*
X1273819Y104446D01*
X1273929Y104550D01*
Y102450D01*
D02*
G37*
G36*
X1252181Y104446D02*
X1252293Y104352D01*
X1252409Y104270D01*
X1252529Y104198D01*
X1252652Y104138D01*
X1252777Y104088D01*
X1252907Y104050D01*
X1253039Y104022D01*
X1253175Y104006D01*
X1253314Y104000D01*
Y103000D01*
X1253175Y102995D01*
X1253039Y102978D01*
X1252907Y102951D01*
X1252777Y102912D01*
X1252652Y102863D01*
X1252529Y102802D01*
X1252409Y102731D01*
X1252293Y102648D01*
X1252181Y102555D01*
X1252071Y102450D01*
Y104550D01*
X1252181Y104446D01*
D02*
G37*
G36*
X1244929Y102450D02*
X1244819Y102555D01*
X1244707Y102648D01*
X1244590Y102731D01*
X1244471Y102802D01*
X1244349Y102863D01*
X1244223Y102912D01*
X1244093Y102951D01*
X1243961Y102978D01*
X1243825Y102995D01*
X1243686Y103000D01*
Y104000D01*
X1243825Y104006D01*
X1243961Y104022D01*
X1244093Y104050D01*
X1244223Y104088D01*
X1244349Y104138D01*
X1244471Y104198D01*
X1244590Y104270D01*
X1244707Y104352D01*
X1244819Y104446D01*
X1244929Y104550D01*
Y102450D01*
D02*
G37*
G36*
X1201929D02*
X1201819Y102555D01*
X1201707Y102648D01*
X1201591Y102731D01*
X1201471Y102802D01*
X1201348Y102863D01*
X1201223Y102912D01*
X1201093Y102951D01*
X1200961Y102978D01*
X1200825Y102995D01*
X1200686Y103000D01*
Y104000D01*
X1200825Y104006D01*
X1200961Y104022D01*
X1201093Y104050D01*
X1201223Y104088D01*
X1201348Y104138D01*
X1201471Y104198D01*
X1201591Y104270D01*
X1201707Y104352D01*
X1201819Y104446D01*
X1201929Y104550D01*
Y102450D01*
D02*
G37*
G36*
X1607000Y105000D02*
X1606620Y104980D01*
X1606280Y104920D01*
X1605980Y104820D01*
X1605720Y104680D01*
X1605500Y104500D01*
X1605320Y104280D01*
X1605180Y104020D01*
X1605151Y103932D01*
X1605177Y103845D01*
X1605276Y103594D01*
X1605398Y103349D01*
X1605541Y103111D01*
X1605707Y102880D01*
X1605895Y102655D01*
X1606104Y102438D01*
X1601904Y102416D01*
X1602113Y102636D01*
X1602299Y102863D01*
X1602463Y103096D01*
X1602606Y103335D01*
X1602726Y103581D01*
X1602825Y103833D01*
X1602852Y103925D01*
X1602820Y104020D01*
X1602680Y104280D01*
X1602500Y104500D01*
X1602280Y104680D01*
X1602020Y104820D01*
X1601720Y104920D01*
X1601380Y104980D01*
X1601000Y105000D01*
X1604000Y107000D01*
X1607000Y105000D01*
D02*
G37*
G36*
X835006Y103965D02*
X835025Y103934D01*
X835057Y103892D01*
X835158Y103774D01*
X835513Y103402D01*
X835634Y103280D01*
X834220Y101866D01*
X833515Y102500D01*
X835000Y103985D01*
X835006Y103965D01*
D02*
G37*
G36*
X1204503Y103334D02*
X1204517Y103188D01*
X1204541Y103047D01*
X1204575Y102912D01*
X1204619Y102783D01*
X1204673Y102659D01*
X1204737Y102540D01*
X1204811Y102427D01*
X1204895Y102319D01*
X1204990Y102217D01*
X1204283Y101510D01*
X1204181Y101604D01*
X1204073Y101689D01*
X1203960Y101763D01*
X1203841Y101827D01*
X1203717Y101881D01*
X1203588Y101925D01*
X1203453Y101959D01*
X1203312Y101983D01*
X1203166Y101997D01*
X1203015Y102000D01*
X1204500Y103485D01*
X1204503Y103334D01*
D02*
G37*
G36*
X1325485Y102500D02*
X1324000Y101015D01*
X1323994Y101035D01*
X1323975Y101066D01*
X1323943Y101108D01*
X1323842Y101226D01*
X1323487Y101599D01*
X1323366Y101720D01*
X1324780Y103134D01*
X1325485Y102500D01*
D02*
G37*
G36*
X1162490Y101707D02*
X1162395Y101605D01*
X1162311Y101497D01*
X1162237Y101384D01*
X1162173Y101266D01*
X1162119Y101142D01*
X1162075Y101012D01*
X1162041Y100877D01*
X1162017Y100737D01*
X1162003Y100591D01*
X1162000Y100440D01*
X1160515Y101924D01*
X1160666Y101928D01*
X1160812Y101942D01*
X1160953Y101965D01*
X1161088Y101999D01*
X1161217Y102043D01*
X1161341Y102097D01*
X1161460Y102161D01*
X1161573Y102236D01*
X1161681Y102320D01*
X1161783Y102415D01*
X1162490Y101707D01*
D02*
G37*
G36*
X1656655Y104075D02*
X1656870Y103906D01*
X1657096Y103758D01*
X1657334Y103630D01*
X1657582Y103521D01*
X1657841Y103434D01*
X1658111Y103366D01*
X1658391Y103318D01*
X1658683Y103291D01*
X1658986Y103284D01*
X1656016Y100314D01*
X1656009Y100617D01*
X1655982Y100909D01*
X1655934Y101189D01*
X1655866Y101459D01*
X1655779Y101718D01*
X1655671Y101966D01*
X1655542Y102204D01*
X1655394Y102430D01*
X1655225Y102645D01*
X1655036Y102850D01*
X1656450Y104264D01*
X1656655Y104075D01*
D02*
G37*
G36*
X1546655D02*
X1546870Y103906D01*
X1547096Y103758D01*
X1547334Y103630D01*
X1547582Y103521D01*
X1547841Y103434D01*
X1548111Y103366D01*
X1548392Y103318D01*
X1548683Y103291D01*
X1548986Y103284D01*
X1546016Y100314D01*
X1546009Y100617D01*
X1545982Y100909D01*
X1545934Y101189D01*
X1545866Y101459D01*
X1545779Y101718D01*
X1545671Y101966D01*
X1545542Y102204D01*
X1545394Y102430D01*
X1545225Y102645D01*
X1545036Y102850D01*
X1546450Y104264D01*
X1546655Y104075D01*
D02*
G37*
G36*
X506134Y98220D02*
X505500Y97515D01*
X504015Y99000D01*
X504035Y99006D01*
X504066Y99025D01*
X504108Y99057D01*
X504226Y99158D01*
X504599Y99514D01*
X504720Y99634D01*
X506134Y98220D01*
D02*
G37*
G36*
X753050Y96773D02*
X750950D01*
X750959Y96792D01*
X750968Y96827D01*
X750976Y96879D01*
X750987Y97035D01*
X750999Y97549D01*
X751000Y97720D01*
X753000D01*
X753050Y96773D01*
D02*
G37*
G36*
X1497996Y102850D02*
X1497807Y102645D01*
X1497638Y102430D01*
X1497489Y102204D01*
X1497361Y101966D01*
X1497253Y101718D01*
X1497165Y101459D01*
X1497097Y101189D01*
X1497050Y100909D01*
X1497023Y100617D01*
X1497016Y100314D01*
X1494016Y100284D01*
X1493986Y97284D01*
X1493683Y97277D01*
X1493392Y97250D01*
X1493111Y97203D01*
X1492841Y97135D01*
X1492582Y97047D01*
X1492334Y96939D01*
X1492096Y96811D01*
X1491870Y96662D01*
X1491655Y96493D01*
X1491450Y96304D01*
X1490036Y97719D01*
X1490225Y97923D01*
X1490394Y98138D01*
X1490542Y98365D01*
X1490670Y98602D01*
X1490779Y98850D01*
X1490866Y99109D01*
X1490934Y99379D01*
X1490982Y99660D01*
X1491009Y99952D01*
X1491016Y100254D01*
X1494016Y100284D01*
X1494046Y103284D01*
X1494348Y103291D01*
X1494640Y103318D01*
X1494921Y103366D01*
X1495191Y103434D01*
X1495450Y103521D01*
X1495698Y103630D01*
X1495935Y103758D01*
X1496161Y103906D01*
X1496377Y104075D01*
X1496581Y104264D01*
X1497996Y102850D01*
D02*
G37*
G36*
X1512163Y93784D02*
X1511783Y93764D01*
X1511443Y93704D01*
X1511143Y93604D01*
X1510883Y93464D01*
X1510663Y93284D01*
X1510505Y93091D01*
X1510518Y93066D01*
X1510627Y92900D01*
X1510750Y92754D01*
X1510888Y92629D01*
X1510294Y92658D01*
X1510243Y92504D01*
X1510183Y92164D01*
X1510163Y91784D01*
X1508163D01*
X1508143Y92164D01*
X1508083Y92504D01*
X1507994Y92771D01*
X1507383Y92801D01*
X1507532Y92912D01*
X1507664Y93042D01*
X1507760Y93166D01*
X1507663Y93284D01*
X1507443Y93464D01*
X1507183Y93604D01*
X1506883Y93704D01*
X1506543Y93764D01*
X1506163Y93784D01*
X1509163Y95784D01*
X1512163Y93784D01*
D02*
G37*
G36*
X568288Y91566D02*
X567654Y90861D01*
X566168Y92346D01*
X566188Y92353D01*
X566219Y92371D01*
X566261Y92403D01*
X566380Y92505D01*
X566752Y92860D01*
X566873Y92980D01*
X568288Y91566D01*
D02*
G37*
G36*
X1561655Y94075D02*
X1561870Y93906D01*
X1562096Y93758D01*
X1562334Y93629D01*
X1562582Y93521D01*
X1562841Y93433D01*
X1563111Y93366D01*
X1563391Y93318D01*
X1563683Y93291D01*
X1563986Y93284D01*
X1561016Y90314D01*
X1561009Y90617D01*
X1560982Y90909D01*
X1560934Y91189D01*
X1560867Y91459D01*
X1560779Y91718D01*
X1560670Y91966D01*
X1560542Y92204D01*
X1560394Y92430D01*
X1560225Y92645D01*
X1560036Y92850D01*
X1561450Y94264D01*
X1561655Y94075D01*
D02*
G37*
G36*
X458089Y91040D02*
X458125Y91032D01*
X458177Y91025D01*
X458332Y91013D01*
X458847Y91000D01*
X459018Y91000D01*
Y89000D01*
X458071Y88950D01*
Y91050D01*
X458089Y91040D01*
D02*
G37*
G36*
X520597Y90883D02*
X519994Y88871D01*
X519972Y88896D01*
X519934Y88917D01*
X519879Y88937D01*
X519807Y88954D01*
X519720Y88968D01*
X519495Y88988D01*
X519204Y88999D01*
X519033Y89000D01*
X518984Y91000D01*
X520597Y90883D01*
D02*
G37*
G36*
X522411Y90610D02*
X522446Y90601D01*
X522498Y90594D01*
X522654Y90582D01*
X523168Y90570D01*
X523339Y90569D01*
Y88569D01*
X522392Y88519D01*
Y90619D01*
X522411Y90610D01*
D02*
G37*
G36*
X1673986Y87284D02*
X1673683Y87277D01*
X1673391Y87250D01*
X1673111Y87203D01*
X1672841Y87135D01*
X1672582Y87047D01*
X1672334Y86939D01*
X1672096Y86811D01*
X1671870Y86662D01*
X1671655Y86493D01*
X1671450Y86304D01*
X1670036Y87719D01*
X1670225Y87923D01*
X1670394Y88139D01*
X1670542Y88365D01*
X1670671Y88602D01*
X1670779Y88850D01*
X1670867Y89109D01*
X1670934Y89379D01*
X1670982Y89660D01*
X1671009Y89952D01*
X1671016Y90254D01*
X1673986Y87284D01*
D02*
G37*
G36*
X572134Y86620D02*
X571500Y85915D01*
X570015Y87400D01*
X570035Y87406D01*
X570066Y87425D01*
X570108Y87457D01*
X570226Y87558D01*
X570599Y87914D01*
X570720Y88034D01*
X572134Y86620D01*
D02*
G37*
G36*
X1620716Y87813D02*
X1620485Y87639D01*
X1620278Y87453D01*
X1620096Y87255D01*
X1619938Y87045D01*
X1619804Y86822D01*
X1619695Y86587D01*
X1619609Y86340D01*
X1619549Y86080D01*
X1619512Y85808D01*
X1619500Y85524D01*
X1617500Y85895D01*
X1617491Y86166D01*
X1617463Y86435D01*
X1617417Y86702D01*
X1617353Y86968D01*
X1617270Y87233D01*
X1617168Y87496D01*
X1617049Y87758D01*
X1616910Y88019D01*
X1616754Y88277D01*
X1616579Y88535D01*
X1620716Y87813D01*
D02*
G37*
G36*
X909163Y85296D02*
X909145Y85306D01*
X909110Y85315D01*
X909058Y85322D01*
X908902Y85334D01*
X908388Y85346D01*
X908217Y85347D01*
Y87347D01*
X909163Y87397D01*
Y85296D01*
D02*
G37*
G36*
X1328634Y85720D02*
X1328000Y85015D01*
X1326515Y86500D01*
X1326535Y86506D01*
X1326566Y86525D01*
X1326608Y86557D01*
X1326726Y86658D01*
X1327098Y87014D01*
X1327220Y87134D01*
X1328634Y85720D01*
D02*
G37*
G36*
X568929Y84850D02*
X568911Y84860D01*
X568875Y84868D01*
X568823Y84876D01*
X568668Y84887D01*
X568153Y84899D01*
X567982Y84900D01*
Y86900D01*
X568929Y86950D01*
Y84850D01*
D02*
G37*
G36*
X497089Y86940D02*
X497125Y86932D01*
X497177Y86924D01*
X497332Y86913D01*
X497847Y86901D01*
X498018Y86900D01*
Y84900D01*
X497071Y84850D01*
Y86950D01*
X497089Y86940D01*
D02*
G37*
G36*
X494929Y84850D02*
X494910Y84860D01*
X494875Y84868D01*
X494823Y84876D01*
X494668Y84887D01*
X494153Y84899D01*
X493982Y84900D01*
Y86900D01*
X494929Y86950D01*
Y84850D01*
D02*
G37*
G36*
X480589Y86940D02*
X480625Y86932D01*
X480677Y86924D01*
X480832Y86913D01*
X481347Y86901D01*
X481518Y86900D01*
Y84900D01*
X480571Y84850D01*
Y86950D01*
X480589Y86940D01*
D02*
G37*
G36*
X394707Y90240D02*
X394827Y89560D01*
X395027Y88960D01*
X395307Y88440D01*
X395667Y88000D01*
X396107Y87640D01*
X396627Y87360D01*
X397227Y87160D01*
X397907Y87040D01*
X398667Y87000D01*
X392667Y83000D01*
X386667Y87000D01*
X387427Y87040D01*
X388107Y87160D01*
X388707Y87360D01*
X389227Y87640D01*
X389667Y88000D01*
X390027Y88440D01*
X390307Y88960D01*
X390507Y89560D01*
X390627Y90240D01*
X390667Y91000D01*
X394667D01*
X394707Y90240D01*
D02*
G37*
G36*
X334557D02*
X334677Y89560D01*
X334877Y88960D01*
X335157Y88440D01*
X335517Y88000D01*
X335957Y87640D01*
X336477Y87360D01*
X337077Y87160D01*
X337757Y87040D01*
X338517Y87000D01*
X332517Y83000D01*
X326517Y87000D01*
X327277Y87040D01*
X327957Y87160D01*
X328557Y87360D01*
X329077Y87640D01*
X329517Y88000D01*
X329877Y88440D01*
X330157Y88960D01*
X330357Y89560D01*
X330477Y90240D01*
X330517Y91000D01*
X334517D01*
X334557Y90240D01*
D02*
G37*
G36*
X290040D02*
X290160Y89560D01*
X290360Y88960D01*
X290640Y88440D01*
X291000Y88000D01*
X291440Y87640D01*
X291960Y87360D01*
X292560Y87160D01*
X293240Y87040D01*
X294000Y87000D01*
X288000Y83000D01*
X282000Y87000D01*
X282760Y87040D01*
X283440Y87160D01*
X284040Y87360D01*
X284560Y87640D01*
X285000Y88000D01*
X285360Y88440D01*
X285640Y88960D01*
X285840Y89560D01*
X285960Y90240D01*
X286000Y91000D01*
X290000D01*
X290040Y90240D01*
D02*
G37*
G36*
X225040Y89675D02*
X225160Y89114D01*
X225360Y88618D01*
X225640Y88189D01*
X226000Y87826D01*
X226440Y87529D01*
X226960Y87297D01*
X227560Y87132D01*
X228240Y87033D01*
X229000Y87000D01*
X223000Y83000D01*
X217000Y87000D01*
X217760Y87033D01*
X218440Y87132D01*
X219040Y87297D01*
X219560Y87529D01*
X220000Y87826D01*
X220360Y88189D01*
X220640Y88618D01*
X220840Y89114D01*
X220960Y89675D01*
X221000Y90303D01*
X225000D01*
X225040Y89675D01*
D02*
G37*
G36*
X172040Y89430D02*
X172160Y88920D01*
X172360Y88470D01*
X172640Y88080D01*
X173000Y87750D01*
X173440Y87480D01*
X173960Y87270D01*
X174560Y87120D01*
X175240Y87030D01*
X176000Y87000D01*
X170000Y83000D01*
X164000Y87000D01*
X164760Y87030D01*
X165440Y87120D01*
X166040Y87270D01*
X166560Y87480D01*
X167000Y87750D01*
X167360Y88080D01*
X167640Y88470D01*
X167840Y88920D01*
X167960Y89430D01*
X168000Y90000D01*
X172000D01*
X172040Y89430D01*
D02*
G37*
G36*
X136040D02*
X136160Y88920D01*
X136360Y88470D01*
X136640Y88080D01*
X137000Y87750D01*
X137440Y87480D01*
X137960Y87270D01*
X138560Y87120D01*
X139240Y87030D01*
X140000Y87000D01*
X134000Y83000D01*
X128000Y87000D01*
X128760Y87030D01*
X129440Y87120D01*
X130040Y87270D01*
X130560Y87480D01*
X131000Y87750D01*
X131360Y88080D01*
X131640Y88470D01*
X131840Y88920D01*
X131960Y89430D01*
X132000Y90000D01*
X136000D01*
X136040Y89430D01*
D02*
G37*
G36*
X1332442Y85799D02*
X1332743Y85559D01*
X1333055Y85347D01*
X1333379Y85163D01*
X1333714Y85007D01*
X1334062Y84880D01*
X1334421Y84781D01*
X1334791Y84710D01*
X1335174Y84668D01*
X1335568Y84654D01*
Y82654D01*
X1335174Y82640D01*
X1334791Y82597D01*
X1334421Y82526D01*
X1334062Y82427D01*
X1333714Y82300D01*
X1333379Y82145D01*
X1333055Y81961D01*
X1332743Y81749D01*
X1332447Y81512D01*
X1332000Y81015D01*
X1331319Y81696D01*
X1330325Y82240D01*
X1330538Y82476D01*
X1330515Y82500D01*
X1330535Y82506D01*
X1330566Y82525D01*
X1330599Y82551D01*
X1330778Y82805D01*
X1330919Y83088D01*
X1331004Y83371D01*
X1331032Y83654D01*
X1331004Y83937D01*
X1330919Y84219D01*
X1330778Y84502D01*
X1330580Y84785D01*
X1330325Y85068D01*
X1332154Y86068D01*
X1332442Y85799D01*
D02*
G37*
G36*
X1619520Y83120D02*
X1619580Y82780D01*
X1619680Y82480D01*
X1619820Y82220D01*
X1620000Y82000D01*
X1620220Y81820D01*
X1620480Y81680D01*
X1620780Y81580D01*
X1621120Y81520D01*
X1621500Y81500D01*
X1620914Y79500D01*
X1620520Y79486D01*
X1620138Y79444D01*
X1619768Y79373D01*
X1619409Y79275D01*
X1619062Y79148D01*
X1618728Y78993D01*
X1618405Y78811D01*
X1618094Y78600D01*
X1617794Y78360D01*
X1617507Y78093D01*
X1616093Y79507D01*
X1616360Y79795D01*
X1616599Y80094D01*
X1616810Y80405D01*
X1616993Y80728D01*
X1617148Y81062D01*
X1617275Y81409D01*
X1617373Y81768D01*
X1617444Y82138D01*
X1617486Y82520D01*
X1617500Y82914D01*
X1619500Y83500D01*
X1619520Y83120D01*
D02*
G37*
G36*
X1648986Y71300D02*
X1648683Y71293D01*
X1648391Y71266D01*
X1648111Y71218D01*
X1647841Y71151D01*
X1647582Y71063D01*
X1647334Y70955D01*
X1647096Y70826D01*
X1646870Y70678D01*
X1646655Y70509D01*
X1646450Y70320D01*
X1645036Y71734D01*
X1645225Y71939D01*
X1645394Y72154D01*
X1645542Y72381D01*
X1645671Y72618D01*
X1645779Y72866D01*
X1645867Y73125D01*
X1645934Y73395D01*
X1645982Y73676D01*
X1646009Y73967D01*
X1646016Y74270D01*
X1648986Y71300D01*
D02*
G37*
G36*
X1597023Y73967D02*
X1597050Y73676D01*
X1597097Y73395D01*
X1597165Y73125D01*
X1597253Y72866D01*
X1597361Y72618D01*
X1597489Y72381D01*
X1597638Y72154D01*
X1597807Y71939D01*
X1597996Y71734D01*
X1596581Y70320D01*
X1596377Y70509D01*
X1596161Y70678D01*
X1595935Y70826D01*
X1595698Y70955D01*
X1595450Y71063D01*
X1595191Y71151D01*
X1594921Y71218D01*
X1594640Y71266D01*
X1594348Y71293D01*
X1594046Y71300D01*
X1597016Y74270D01*
X1597023Y73967D01*
D02*
G37*
G36*
X1538986Y71300D02*
X1538683Y71293D01*
X1538391Y71266D01*
X1538111Y71218D01*
X1537841Y71151D01*
X1537582Y71063D01*
X1537334Y70955D01*
X1537096Y70826D01*
X1536870Y70678D01*
X1536655Y70509D01*
X1536450Y70320D01*
X1535036Y71734D01*
X1535225Y71939D01*
X1535394Y72154D01*
X1535542Y72381D01*
X1535670Y72618D01*
X1535779Y72866D01*
X1535867Y73125D01*
X1535934Y73395D01*
X1535982Y73676D01*
X1536009Y73967D01*
X1536016Y74270D01*
X1538986Y71300D01*
D02*
G37*
G36*
X1487023Y73967D02*
X1487050Y73676D01*
X1487097Y73395D01*
X1487165Y73125D01*
X1487253Y72866D01*
X1487361Y72618D01*
X1487489Y72381D01*
X1487638Y72154D01*
X1487807Y71939D01*
X1487996Y71734D01*
X1486581Y70320D01*
X1486377Y70509D01*
X1486162Y70678D01*
X1485935Y70826D01*
X1485698Y70955D01*
X1485450Y71063D01*
X1485191Y71151D01*
X1484921Y71218D01*
X1484640Y71266D01*
X1484348Y71293D01*
X1484046Y71300D01*
X1487016Y74270D01*
X1487023Y73967D01*
D02*
G37*
G36*
X1483986Y71300D02*
X1483683Y71293D01*
X1483391Y71266D01*
X1483111Y71218D01*
X1482841Y71151D01*
X1482582Y71063D01*
X1482334Y70955D01*
X1482096Y70826D01*
X1481870Y70678D01*
X1481655Y70509D01*
X1481450Y70320D01*
X1480036Y71734D01*
X1480225Y71939D01*
X1480394Y72154D01*
X1480542Y72381D01*
X1480671Y72618D01*
X1480779Y72866D01*
X1480867Y73125D01*
X1480934Y73395D01*
X1480982Y73676D01*
X1481009Y73967D01*
X1481016Y74270D01*
X1483986Y71300D01*
D02*
G37*
G36*
X1442985Y71300D02*
X1441500Y69815D01*
X1441494Y69835D01*
X1441475Y69866D01*
X1441443Y69908D01*
X1441342Y70026D01*
X1440987Y70398D01*
X1440866Y70520D01*
X1442280Y71934D01*
X1442985Y71300D01*
D02*
G37*
G36*
X1415358Y65900D02*
X1415139Y66109D01*
X1414913Y66296D01*
X1414681Y66461D01*
X1414442Y66604D01*
X1414197Y66725D01*
X1413945Y66824D01*
X1413687Y66901D01*
X1413422Y66956D01*
X1413150Y66989D01*
X1412872Y67000D01*
Y69000D01*
X1413150Y69011D01*
X1413422Y69044D01*
X1413687Y69099D01*
X1413945Y69176D01*
X1414197Y69275D01*
X1414442Y69396D01*
X1414681Y69539D01*
X1414913Y69704D01*
X1415139Y69891D01*
X1415358Y70100D01*
Y65900D01*
D02*
G37*
G36*
X1663986Y61300D02*
X1663683Y61293D01*
X1663391Y61266D01*
X1663111Y61218D01*
X1662841Y61151D01*
X1662582Y61063D01*
X1662334Y60955D01*
X1662096Y60826D01*
X1661870Y60678D01*
X1661655Y60509D01*
X1661450Y60320D01*
X1660036Y61734D01*
X1660225Y61939D01*
X1660394Y62154D01*
X1660542Y62381D01*
X1660670Y62618D01*
X1660779Y62866D01*
X1660867Y63125D01*
X1660934Y63395D01*
X1660982Y63676D01*
X1661009Y63967D01*
X1661016Y64270D01*
X1663986Y61300D01*
D02*
G37*
G36*
X1608986D02*
X1608683Y61293D01*
X1608392Y61266D01*
X1608111Y61218D01*
X1607841Y61151D01*
X1607582Y61063D01*
X1607334Y60955D01*
X1607096Y60826D01*
X1606870Y60678D01*
X1606655Y60509D01*
X1606450Y60320D01*
X1605036Y61734D01*
X1605225Y61939D01*
X1605394Y62154D01*
X1605542Y62381D01*
X1605671Y62618D01*
X1605779Y62866D01*
X1605866Y63125D01*
X1605934Y63395D01*
X1605982Y63676D01*
X1606009Y63967D01*
X1606016Y64270D01*
X1608986Y61300D01*
D02*
G37*
G36*
X555458Y56955D02*
X555374Y57021D01*
X555257Y57079D01*
X555108Y57131D01*
X554926Y57176D01*
X554712Y57214D01*
X554186Y57269D01*
X553530Y57297D01*
X553153Y57300D01*
Y61300D01*
X553530Y61303D01*
X554712Y61386D01*
X554926Y61424D01*
X555108Y61469D01*
X555257Y61521D01*
X555374Y61579D01*
X555458Y61645D01*
Y56955D01*
D02*
G37*
G36*
X549426Y61579D02*
X549543Y61521D01*
X549692Y61469D01*
X549873Y61424D01*
X550088Y61386D01*
X550614Y61331D01*
X551270Y61303D01*
X551648Y61300D01*
Y57300D01*
X551270Y57297D01*
X550088Y57214D01*
X549873Y57176D01*
X549692Y57131D01*
X549543Y57079D01*
X549426Y57021D01*
X549342Y56955D01*
Y61645D01*
X549426Y61579D01*
D02*
G37*
G36*
X395724Y56955D02*
X395640Y57021D01*
X395524Y57079D01*
X395375Y57131D01*
X395193Y57176D01*
X394979Y57214D01*
X394453Y57269D01*
X393796Y57297D01*
X393419Y57300D01*
Y61300D01*
X393796Y61303D01*
X394979Y61386D01*
X395193Y61424D01*
X395375Y61469D01*
X395524Y61521D01*
X395640Y61579D01*
X395724Y61645D01*
Y56955D01*
D02*
G37*
G36*
X389693Y61579D02*
X389809Y61521D01*
X389959Y61469D01*
X390140Y61424D01*
X390354Y61386D01*
X390881Y61331D01*
X391537Y61303D01*
X391914Y61300D01*
Y57300D01*
X391537Y57297D01*
X390354Y57214D01*
X390140Y57176D01*
X389959Y57131D01*
X389809Y57079D01*
X389693Y57021D01*
X389609Y56955D01*
Y61645D01*
X389693Y61579D01*
D02*
G37*
G36*
X235991Y56955D02*
X235907Y57021D01*
X235790Y57079D01*
X235642Y57131D01*
X235460Y57176D01*
X235246Y57214D01*
X234719Y57269D01*
X234063Y57297D01*
X233686Y57300D01*
Y61300D01*
X234063Y61303D01*
X235246Y61386D01*
X235460Y61424D01*
X235642Y61469D01*
X235790Y61521D01*
X235907Y61579D01*
X235991Y61645D01*
Y56955D01*
D02*
G37*
G36*
X229960Y61579D02*
X230076Y61521D01*
X230225Y61469D01*
X230407Y61424D01*
X230621Y61386D01*
X231147Y61331D01*
X231804Y61303D01*
X232181Y61300D01*
Y57300D01*
X231804Y57297D01*
X230621Y57214D01*
X230407Y57176D01*
X230225Y57131D01*
X230076Y57079D01*
X229960Y57021D01*
X229876Y56955D01*
Y61645D01*
X229960Y61579D01*
D02*
G37*
G36*
X76258Y56955D02*
X76174Y57021D01*
X76057Y57079D01*
X75908Y57131D01*
X75726Y57176D01*
X75512Y57214D01*
X74986Y57269D01*
X74330Y57297D01*
X73953Y57300D01*
Y61300D01*
X74330Y61303D01*
X75512Y61386D01*
X75726Y61424D01*
X75908Y61469D01*
X76057Y61521D01*
X76174Y61579D01*
X76258Y61645D01*
Y56955D01*
D02*
G37*
G36*
X70226Y61579D02*
X70343Y61521D01*
X70492Y61469D01*
X70674Y61424D01*
X70888Y61386D01*
X71414Y61331D01*
X72070Y61303D01*
X72448Y61300D01*
Y57300D01*
X72070Y57297D01*
X70888Y57214D01*
X70674Y57176D01*
X70492Y57131D01*
X70343Y57079D01*
X70226Y57021D01*
X70142Y56955D01*
Y61645D01*
X70226Y61579D01*
D02*
G37*
G36*
X546400Y55995D02*
X546279Y55999D01*
X546142Y55974D01*
X545989Y55919D01*
X545818Y55834D01*
X545632Y55720D01*
X545429Y55576D01*
X544974Y55200D01*
X544722Y54968D01*
X544454Y54706D01*
X542186Y58095D01*
X542454Y58365D01*
X543564Y59626D01*
X543613Y59716D01*
X543635Y59784D01*
X546400Y55995D01*
D02*
G37*
G36*
X226934D02*
X226813Y55999D01*
X226676Y55974D01*
X226522Y55919D01*
X226352Y55834D01*
X226165Y55720D01*
X225962Y55576D01*
X225507Y55200D01*
X225255Y54968D01*
X224987Y54706D01*
X222719Y58095D01*
X222987Y58365D01*
X224097Y59626D01*
X224147Y59716D01*
X224168Y59784D01*
X226934Y55995D01*
D02*
G37*
G36*
X826134Y55720D02*
X825500Y55015D01*
X824015Y56500D01*
X824035Y56506D01*
X824066Y56525D01*
X824108Y56557D01*
X824226Y56658D01*
X824599Y57013D01*
X824720Y57134D01*
X826134Y55720D01*
D02*
G37*
G36*
X1219407Y58998D02*
X1219435Y58646D01*
X1219485Y58311D01*
X1219557Y57992D01*
X1219650Y57689D01*
X1219765Y57404D01*
X1219901Y57134D01*
X1220059Y56881D01*
X1220238Y56645D01*
X1220439Y56425D01*
X1219025Y55011D01*
X1218805Y55212D01*
X1218569Y55391D01*
X1218316Y55549D01*
X1218046Y55685D01*
X1217760Y55800D01*
X1217458Y55893D01*
X1217139Y55964D01*
X1216804Y56015D01*
X1216452Y56043D01*
X1216084Y56050D01*
X1219400Y59367D01*
X1219407Y58998D01*
D02*
G37*
G36*
X81987Y59716D02*
X82036Y59626D01*
X82112Y59514D01*
X82216Y59379D01*
X82506Y59041D01*
X83414Y58095D01*
X81146Y54706D01*
X80878Y54968D01*
X80171Y55576D01*
X79968Y55720D01*
X79782Y55834D01*
X79611Y55919D01*
X79458Y55974D01*
X79321Y55999D01*
X79200Y55995D01*
X81965Y59784D01*
X81987Y59716D01*
D02*
G37*
G36*
X401479Y59161D02*
X401520Y59037D01*
X401589Y58895D01*
X401686Y58735D01*
X401811Y58556D01*
X402144Y58145D01*
X402588Y57662D01*
X402852Y57393D01*
X400024Y54564D01*
X399755Y54828D01*
X398860Y55606D01*
X398682Y55731D01*
X398522Y55827D01*
X398380Y55896D01*
X398256Y55937D01*
X398150Y55950D01*
X401467Y59267D01*
X401479Y59161D01*
D02*
G37*
G36*
X825041Y53910D02*
X825032Y53875D01*
X825025Y53823D01*
X825012Y53668D01*
X825000Y53153D01*
X825000Y52982D01*
X823000D01*
X822950Y53929D01*
X825050D01*
X825041Y53910D01*
D02*
G37*
G36*
X927500Y54616D02*
X928914Y51788D01*
X928631Y52042D01*
X928349Y52240D01*
X928066Y52381D01*
X927783Y52466D01*
X927500Y52495D01*
X927217Y52466D01*
X926934Y52381D01*
X926651Y52240D01*
X926369Y52042D01*
X926086Y51788D01*
X924672Y53202D01*
X924926Y53485D01*
X925124Y53767D01*
X925266Y54050D01*
X925350Y54333D01*
X925379Y54616D01*
X925350Y54899D01*
X925266Y55182D01*
X925124Y55465D01*
X924926Y55747D01*
X924672Y56030D01*
X927500Y54616D01*
D02*
G37*
G36*
X924624Y50326D02*
X924504Y50205D01*
X924020Y49657D01*
X924002Y49621D01*
X923997Y49597D01*
X922433Y50999D01*
X922446Y51005D01*
X922472Y51025D01*
X922509Y51057D01*
X922875Y51407D01*
X923106Y51636D01*
X924624Y50326D01*
D02*
G37*
G36*
X906485Y51000D02*
X905000Y49515D01*
X904994Y49535D01*
X904975Y49566D01*
X904943Y49608D01*
X904842Y49726D01*
X904486Y50099D01*
X904366Y50220D01*
X905780Y51634D01*
X906485Y51000D01*
D02*
G37*
G36*
X1598657Y52507D02*
X1598477Y52267D01*
X1598365Y52055D01*
X1598321Y51871D01*
X1598345Y51715D01*
X1598438Y51588D01*
X1598599Y51489D01*
X1598828Y51418D01*
X1599126Y51376D01*
X1599492Y51362D01*
X1595077Y49362D01*
X1592663Y51362D01*
X1593057Y51376D01*
X1593440Y51418D01*
X1593810Y51489D01*
X1594169Y51588D01*
X1594517Y51715D01*
X1594852Y51871D01*
X1595176Y52055D01*
X1595488Y52267D01*
X1595789Y52507D01*
X1596077Y52776D01*
X1598906D01*
X1598657Y52507D01*
D02*
G37*
G36*
X921429Y48450D02*
X921410Y48460D01*
X921375Y48468D01*
X921323Y48476D01*
X921168Y48487D01*
X920653Y48500D01*
X920482Y48500D01*
Y50500D01*
X921429Y50550D01*
Y48450D01*
D02*
G37*
G36*
X915590Y50541D02*
X915625Y50532D01*
X915677Y50524D01*
X915832Y50512D01*
X916347Y50501D01*
X916518Y50500D01*
Y48500D01*
X915571Y48450D01*
Y50550D01*
X915590Y50541D01*
D02*
G37*
G36*
X923540Y48410D02*
X923532Y48375D01*
X923524Y48323D01*
X923512Y48168D01*
X923501Y47653D01*
X923500Y47482D01*
X921500D01*
X921450Y48429D01*
X923550D01*
X923540Y48410D01*
D02*
G37*
G36*
X485193Y50081D02*
X485264Y50064D01*
X485368Y50049D01*
X485679Y50025D01*
X486708Y50001D01*
X487050Y50000D01*
Y46000D01*
X485157Y45900D01*
Y50100D01*
X485193Y50081D01*
D02*
G37*
G36*
X446500Y51051D02*
X444423Y47936D01*
X446500D01*
X446600Y46042D01*
X443161D01*
X442500Y45051D01*
X442460Y45811D01*
X442419Y46042D01*
X442400D01*
X442414Y46070D01*
X442340Y46491D01*
X442140Y47091D01*
X441860Y47611D01*
X441500Y48051D01*
X441060Y48411D01*
X440540Y48691D01*
X439940Y48891D01*
X439260Y49011D01*
X438500Y49051D01*
Y53051D01*
X439260Y53091D01*
X439940Y53211D01*
X440540Y53411D01*
X441060Y53691D01*
X441500Y54051D01*
X441860Y54491D01*
X442140Y55011D01*
X442340Y55611D01*
X442460Y56291D01*
X442500Y57051D01*
X446500Y51051D01*
D02*
G37*
G36*
X825050Y43071D02*
X822950D01*
X822960Y43090D01*
X822968Y43125D01*
X822976Y43177D01*
X822987Y43332D01*
X822999Y43847D01*
X823000Y44018D01*
X825000D01*
X825050Y43071D01*
D02*
G37*
G36*
X1562985Y43500D02*
X1562965Y43494D01*
X1562934Y43475D01*
X1562892Y43443D01*
X1562774Y43342D01*
X1562401Y42987D01*
X1562280Y42866D01*
X1560866Y44280D01*
X1561500Y44985D01*
X1562985Y43500D01*
D02*
G37*
G36*
X825041Y40911D02*
X825032Y40875D01*
X825025Y40823D01*
X825012Y40668D01*
X825000Y40153D01*
X825000Y39982D01*
X823000D01*
X822950Y40929D01*
X825050D01*
X825041Y40911D01*
D02*
G37*
G36*
X446310Y41507D02*
X446273Y41462D01*
X446240Y41383D01*
X446211Y41272D01*
X446186Y41128D01*
X446165Y40951D01*
X446125Y40223D01*
X446117Y39573D01*
X442117Y40277D01*
X442144Y42043D01*
X446310Y41507D01*
D02*
G37*
G36*
X1014241Y37327D02*
X1014093Y37174D01*
X1013845Y36882D01*
X1013744Y36744D01*
X1013659Y36611D01*
X1013589Y36483D01*
X1013536Y36360D01*
X1013498Y36241D01*
X1013475Y36128D01*
X1013468Y36020D01*
X1011520Y37968D01*
X1011628Y37975D01*
X1011741Y37998D01*
X1011860Y38036D01*
X1011983Y38089D01*
X1012111Y38159D01*
X1012244Y38244D01*
X1012383Y38345D01*
X1012526Y38461D01*
X1012827Y38741D01*
X1014241Y37327D01*
D02*
G37*
G36*
X1216568Y37891D02*
X1216624Y37646D01*
X1216716Y37388D01*
X1216845Y37115D01*
X1217011Y36829D01*
X1217214Y36529D01*
X1217454Y36216D01*
X1218044Y35547D01*
X1218395Y35192D01*
X1213705D01*
X1214056Y35547D01*
X1214646Y36216D01*
X1214886Y36529D01*
X1215089Y36829D01*
X1215255Y37115D01*
X1215384Y37388D01*
X1215476Y37646D01*
X1215532Y37891D01*
X1215550Y38122D01*
X1216550D01*
X1216568Y37891D01*
D02*
G37*
G36*
X1002987Y37306D02*
X1003083Y37242D01*
X1003194Y37185D01*
X1003319Y37136D01*
X1003459Y37095D01*
X1003613Y37060D01*
X1003782Y37034D01*
X1003966Y37015D01*
X1004377Y37000D01*
Y35000D01*
X1004164Y34996D01*
X1003782Y34966D01*
X1003613Y34940D01*
X1003459Y34905D01*
X1003319Y34864D01*
X1003194Y34815D01*
X1003083Y34758D01*
X1002987Y34694D01*
X1002906Y34622D01*
Y37378D01*
X1002987Y37306D01*
D02*
G37*
G36*
X1000094Y34622D02*
X1000013Y34694D01*
X999917Y34758D01*
X999806Y34815D01*
X999681Y34864D01*
X999541Y34905D01*
X999387Y34940D01*
X999218Y34966D01*
X999034Y34985D01*
X998623Y35000D01*
Y37000D01*
X998836Y37004D01*
X999218Y37034D01*
X999387Y37060D01*
X999541Y37095D01*
X999681Y37136D01*
X999806Y37185D01*
X999917Y37242D01*
X1000013Y37306D01*
X1000094Y37378D01*
Y34622D01*
D02*
G37*
G36*
X992987Y37306D02*
X993083Y37242D01*
X993194Y37185D01*
X993319Y37136D01*
X993459Y37095D01*
X993613Y37060D01*
X993782Y37034D01*
X993966Y37015D01*
X994377Y37000D01*
Y35000D01*
X994164Y34996D01*
X993782Y34966D01*
X993613Y34940D01*
X993459Y34905D01*
X993319Y34864D01*
X993194Y34815D01*
X993083Y34758D01*
X992987Y34694D01*
X992906Y34622D01*
Y37378D01*
X992987Y37306D01*
D02*
G37*
G36*
X1010094Y35418D02*
X1011480Y34032D01*
X1011372Y34025D01*
X1011259Y34002D01*
X1011140Y33964D01*
X1011017Y33911D01*
X1010889Y33841D01*
X1010756Y33756D01*
X1010617Y33655D01*
X1010474Y33539D01*
X1010173Y33259D01*
X1008759Y34673D01*
X1008907Y34826D01*
X1009041Y34984D01*
X1009034Y34985D01*
X1008623Y35000D01*
Y37000D01*
X1008836Y37004D01*
X1009218Y37034D01*
X1009387Y37060D01*
X1009541Y37095D01*
X1009681Y37136D01*
X1009806Y37185D01*
X1009917Y37242D01*
X1010013Y37306D01*
X1010094Y37378D01*
Y35418D01*
D02*
G37*
G36*
X555458Y30355D02*
X555374Y30421D01*
X555257Y30479D01*
X555108Y30531D01*
X554926Y30576D01*
X554712Y30614D01*
X554186Y30669D01*
X553530Y30697D01*
X553153Y30700D01*
Y34700D01*
X553530Y34703D01*
X554712Y34786D01*
X554926Y34824D01*
X555108Y34869D01*
X555257Y34921D01*
X555374Y34980D01*
X555458Y35045D01*
Y30355D01*
D02*
G37*
G36*
X549426Y34980D02*
X549543Y34921D01*
X549692Y34869D01*
X549873Y34824D01*
X550088Y34786D01*
X550614Y34731D01*
X551270Y34703D01*
X551648Y34700D01*
Y30700D01*
X551270Y30697D01*
X550088Y30614D01*
X549873Y30576D01*
X549692Y30531D01*
X549543Y30479D01*
X549426Y30421D01*
X549342Y30355D01*
Y35045D01*
X549426Y34980D01*
D02*
G37*
G36*
X395724Y30355D02*
X395640Y30421D01*
X395524Y30479D01*
X395375Y30531D01*
X395193Y30576D01*
X394979Y30614D01*
X394453Y30669D01*
X393796Y30697D01*
X393419Y30700D01*
Y34700D01*
X393796Y34703D01*
X394979Y34786D01*
X395193Y34824D01*
X395375Y34869D01*
X395524Y34921D01*
X395640Y34980D01*
X395724Y35045D01*
Y30355D01*
D02*
G37*
G36*
X389693Y34980D02*
X389809Y34921D01*
X389959Y34869D01*
X390140Y34824D01*
X390354Y34786D01*
X390881Y34731D01*
X391537Y34703D01*
X391914Y34700D01*
Y30700D01*
X391537Y30697D01*
X390354Y30614D01*
X390140Y30576D01*
X389959Y30531D01*
X389809Y30479D01*
X389693Y30421D01*
X389609Y30355D01*
Y35045D01*
X389693Y34980D01*
D02*
G37*
G36*
X235991Y30355D02*
X235907Y30421D01*
X235790Y30479D01*
X235642Y30531D01*
X235460Y30576D01*
X235246Y30614D01*
X234719Y30669D01*
X234063Y30697D01*
X233686Y30700D01*
Y34700D01*
X234063Y34703D01*
X235246Y34786D01*
X235460Y34824D01*
X235642Y34869D01*
X235790Y34921D01*
X235907Y34980D01*
X235991Y35045D01*
Y30355D01*
D02*
G37*
G36*
X229960Y34980D02*
X230076Y34921D01*
X230225Y34869D01*
X230407Y34824D01*
X230621Y34786D01*
X231147Y34731D01*
X231804Y34703D01*
X232181Y34700D01*
Y30700D01*
X231804Y30697D01*
X230621Y30614D01*
X230407Y30576D01*
X230225Y30531D01*
X230076Y30479D01*
X229960Y30421D01*
X229876Y30355D01*
Y35045D01*
X229960Y34980D01*
D02*
G37*
G36*
X76258Y30355D02*
X76174Y30421D01*
X76057Y30479D01*
X75908Y30531D01*
X75726Y30576D01*
X75512Y30614D01*
X74986Y30669D01*
X74330Y30697D01*
X73953Y30700D01*
Y34700D01*
X74330Y34703D01*
X75512Y34786D01*
X75726Y34824D01*
X75908Y34869D01*
X76057Y34921D01*
X76174Y34980D01*
X76258Y35045D01*
Y30355D01*
D02*
G37*
G36*
X70226Y34980D02*
X70343Y34921D01*
X70492Y34869D01*
X70674Y34824D01*
X70888Y34786D01*
X71414Y34731D01*
X72070Y34703D01*
X72448Y34700D01*
Y30700D01*
X72070Y30697D01*
X70888Y30614D01*
X70674Y30576D01*
X70492Y30531D01*
X70343Y30479D01*
X70226Y30421D01*
X70142Y30355D01*
Y35045D01*
X70226Y34980D01*
D02*
G37*
G36*
X546400Y29395D02*
X546279Y29399D01*
X546142Y29374D01*
X545989Y29319D01*
X545818Y29234D01*
X545632Y29120D01*
X545429Y28976D01*
X544974Y28600D01*
X544722Y28368D01*
X544454Y28106D01*
X542186Y31495D01*
X542454Y31765D01*
X543564Y33026D01*
X543613Y33116D01*
X543635Y33184D01*
X546400Y29395D01*
D02*
G37*
G36*
X1219407Y32398D02*
X1219435Y32046D01*
X1219485Y31711D01*
X1219557Y31392D01*
X1219650Y31089D01*
X1219765Y30804D01*
X1219901Y30534D01*
X1220059Y30281D01*
X1220238Y30045D01*
X1220439Y29825D01*
X1219025Y28411D01*
X1218805Y28612D01*
X1218569Y28791D01*
X1218316Y28949D01*
X1218046Y29085D01*
X1217760Y29200D01*
X1217458Y29293D01*
X1217139Y29364D01*
X1216804Y29415D01*
X1216452Y29443D01*
X1216084Y29450D01*
X1219400Y32767D01*
X1219407Y32398D01*
D02*
G37*
G36*
X401453Y33116D02*
X401503Y33026D01*
X401579Y32914D01*
X401683Y32779D01*
X401973Y32441D01*
X402881Y31495D01*
X400613Y28106D01*
X400345Y28368D01*
X399638Y28976D01*
X399435Y29120D01*
X399248Y29234D01*
X399078Y29319D01*
X398924Y29374D01*
X398787Y29399D01*
X398666Y29395D01*
X401432Y33184D01*
X401453Y33116D01*
D02*
G37*
G36*
X241746Y32561D02*
X241787Y32437D01*
X241856Y32295D01*
X241953Y32135D01*
X242077Y31956D01*
X242410Y31545D01*
X242855Y31062D01*
X243119Y30793D01*
X240291Y27964D01*
X240022Y28228D01*
X239127Y29006D01*
X238948Y29131D01*
X238788Y29228D01*
X238646Y29296D01*
X238523Y29337D01*
X238417Y29350D01*
X241733Y32667D01*
X241746Y32561D01*
D02*
G37*
G36*
X227450Y29350D02*
X227344Y29337D01*
X227220Y29296D01*
X227078Y29228D01*
X226918Y29131D01*
X226740Y29006D01*
X226329Y28673D01*
X225845Y28228D01*
X225576Y27964D01*
X222747Y30793D01*
X223012Y31062D01*
X223789Y31956D01*
X223914Y32135D01*
X224011Y32295D01*
X224080Y32437D01*
X224120Y32561D01*
X224133Y32667D01*
X227450Y29350D01*
D02*
G37*
G36*
X82013Y32561D02*
X82054Y32437D01*
X82122Y32295D01*
X82219Y32135D01*
X82344Y31956D01*
X82677Y31545D01*
X83122Y31062D01*
X83386Y30793D01*
X80557Y27964D01*
X80288Y28228D01*
X79394Y29006D01*
X79215Y29131D01*
X79055Y29228D01*
X78913Y29296D01*
X78789Y29337D01*
X78684Y29350D01*
X82000Y32667D01*
X82013Y32561D01*
D02*
G37*
G36*
X686685Y31478D02*
X686973Y31231D01*
X687262Y31014D01*
X687554Y30825D01*
X687849Y30666D01*
X688145Y30535D01*
X688444Y30434D01*
X688745Y30361D01*
X689049Y30318D01*
X689354Y30303D01*
Y28303D01*
X689049Y28289D01*
X688745Y28245D01*
X688444Y28173D01*
X688145Y28071D01*
X687849Y27941D01*
X687554Y27781D01*
X687262Y27593D01*
X686973Y27375D01*
X686685Y27129D01*
X686400Y26853D01*
Y31753D01*
X686685Y31478D01*
D02*
G37*
G36*
X131040Y27440D02*
X131160Y26760D01*
X131360Y26160D01*
X131640Y25640D01*
X132000Y25200D01*
X132440Y24840D01*
X132960Y24560D01*
X133560Y24360D01*
X134240Y24240D01*
X135000Y24200D01*
X129000Y20200D01*
X123000Y24200D01*
X123760Y24240D01*
X124440Y24360D01*
X125040Y24560D01*
X125560Y24840D01*
X126000Y25200D01*
X126360Y25640D01*
X126640Y26160D01*
X126840Y26760D01*
X126960Y27440D01*
X127000Y28200D01*
X131000D01*
X131040Y27440D01*
D02*
G37*
G36*
X740177Y23661D02*
X740422Y23477D01*
X740686Y23316D01*
X740969Y23176D01*
X741271Y23059D01*
X741592Y22964D01*
X741932Y22890D01*
X742291Y22839D01*
X742668Y22810D01*
X743065Y22803D01*
X739600Y19338D01*
X739593Y19735D01*
X739564Y20112D01*
X739513Y20471D01*
X739440Y20811D01*
X739344Y21132D01*
X739227Y21434D01*
X739087Y21717D01*
X738926Y21981D01*
X738742Y22226D01*
X738536Y22453D01*
X739951Y23867D01*
X740177Y23661D01*
D02*
G37*
G36*
X745885Y21478D02*
X746173Y21231D01*
X746462Y21014D01*
X746754Y20825D01*
X747049Y20666D01*
X747345Y20535D01*
X747644Y20434D01*
X747945Y20361D01*
X748249Y20318D01*
X748554Y20303D01*
Y18303D01*
X748249Y18289D01*
X747945Y18245D01*
X747644Y18173D01*
X747345Y18071D01*
X747049Y17941D01*
X746754Y17781D01*
X746462Y17593D01*
X746173Y17375D01*
X745885Y17129D01*
X745600Y16853D01*
Y21753D01*
X745885Y21478D01*
D02*
G37*
G36*
X1040715Y14250D02*
X1040562Y14392D01*
X1040399Y14520D01*
X1040225Y14633D01*
X1040041Y14730D01*
X1039846Y14812D01*
X1039640Y14880D01*
X1039423Y14932D01*
X1039196Y14970D01*
X1038958Y14992D01*
X1038709Y15000D01*
Y17000D01*
X1038958Y17007D01*
X1039196Y17030D01*
X1039423Y17067D01*
X1039640Y17120D01*
X1039846Y17188D01*
X1040041Y17270D01*
X1040225Y17368D01*
X1040399Y17480D01*
X1040562Y17607D01*
X1040715Y17750D01*
Y14250D01*
D02*
G37*
G36*
X930985Y13000D02*
X929500Y11515D01*
X929494Y11535D01*
X929475Y11566D01*
X929443Y11608D01*
X929342Y11726D01*
X928986Y12099D01*
X928866Y12220D01*
X930280Y13634D01*
X930985Y13000D01*
D02*
G37*
G36*
X970741Y15121D02*
X970956Y14954D01*
X971165Y14825D01*
X971369Y14733D01*
X971568Y14680D01*
X971761Y14663D01*
X971949Y14685D01*
X972130Y14744D01*
X972307Y14841D01*
X972478Y14976D01*
X972020Y11071D01*
X969525Y13492D01*
X970520Y15326D01*
X970741Y15121D01*
D02*
G37*
G36*
X976861Y14651D02*
X977087Y14464D01*
X977319Y14299D01*
X977558Y14156D01*
X977803Y14035D01*
X978055Y13936D01*
X978313Y13859D01*
X978578Y13804D01*
X978850Y13771D01*
X979128Y13760D01*
Y11760D01*
X978850Y11749D01*
X978578Y11716D01*
X978313Y11661D01*
X978055Y11584D01*
X977803Y11485D01*
X977558Y11364D01*
X977319Y11221D01*
X977087Y11056D01*
X976861Y10869D01*
X976642Y10660D01*
Y14860D01*
X976861Y14651D01*
D02*
G37*
%LPC*%
G36*
X473158Y513539D02*
X471983Y513384D01*
X470888Y512931D01*
X469948Y512209D01*
X469227Y511269D01*
X468773Y510175D01*
X468619Y509000D01*
X468773Y507825D01*
X469227Y506731D01*
X469948Y505791D01*
X470888Y505069D01*
X471983Y504616D01*
X473158Y504461D01*
X474332Y504616D01*
X475427Y505069D01*
X476367Y505791D01*
X477088Y506731D01*
X477542Y507825D01*
X477696Y509000D01*
X477542Y510175D01*
X477088Y511269D01*
X476367Y512209D01*
X475427Y512931D01*
X474332Y513384D01*
X473158Y513539D01*
D02*
G37*
G36*
X449843D02*
X448668Y513384D01*
X447573Y512931D01*
X446633Y512209D01*
X445912Y511269D01*
X445458Y510175D01*
X445304Y509000D01*
X445458Y507825D01*
X445912Y506731D01*
X446633Y505791D01*
X447573Y505069D01*
X448668Y504616D01*
X449843Y504461D01*
X451017Y504616D01*
X452112Y505069D01*
X453052Y505791D01*
X453773Y506731D01*
X454227Y507825D01*
X454381Y509000D01*
X454227Y510175D01*
X453773Y511269D01*
X453052Y512209D01*
X452112Y512931D01*
X451017Y513384D01*
X449843Y513539D01*
D02*
G37*
G36*
X430158D02*
X428983Y513384D01*
X427888Y512931D01*
X426948Y512209D01*
X426227Y511269D01*
X425773Y510175D01*
X425619Y509000D01*
X425773Y507825D01*
X426227Y506731D01*
X426948Y505791D01*
X427888Y505069D01*
X428983Y504616D01*
X430158Y504461D01*
X431332Y504616D01*
X432427Y505069D01*
X433367Y505791D01*
X434088Y506731D01*
X434542Y507825D01*
X434696Y509000D01*
X434542Y510175D01*
X434088Y511269D01*
X433367Y512209D01*
X432427Y512931D01*
X431332Y513384D01*
X430158Y513539D01*
D02*
G37*
G36*
X385908Y502561D02*
X384933Y502367D01*
X384106Y501815D01*
X383553Y500988D01*
X383359Y500012D01*
X383553Y499037D01*
X384106Y498210D01*
X384933Y497657D01*
X385908Y497463D01*
X386884Y497657D01*
X387711Y498210D01*
X388263Y499037D01*
X388457Y500012D01*
X388263Y500988D01*
X387711Y501815D01*
X386884Y502367D01*
X385908Y502561D01*
D02*
G37*
G36*
X55500Y337418D02*
Y334353D01*
X58565D01*
X58507Y334793D01*
X58145Y335668D01*
X57568Y336420D01*
X56815Y336997D01*
X55940Y337360D01*
X55500Y337418D01*
D02*
G37*
G36*
X54500D02*
X54060Y337360D01*
X53184Y336997D01*
X52432Y336420D01*
X51855Y335668D01*
X51493Y334793D01*
X51435Y334353D01*
X54500D01*
Y337418D01*
D02*
G37*
G36*
X58565Y333353D02*
X55500D01*
Y330288D01*
X55940Y330345D01*
X56815Y330708D01*
X57568Y331285D01*
X58145Y332037D01*
X58507Y332913D01*
X58565Y333353D01*
D02*
G37*
G36*
X54500D02*
X51435D01*
X51493Y332913D01*
X51855Y332037D01*
X52432Y331285D01*
X53184Y330708D01*
X54060Y330345D01*
X54500Y330288D01*
Y333353D01*
D02*
G37*
G36*
X1383500Y305549D02*
X1382525Y305355D01*
X1381698Y304802D01*
X1381145Y303976D01*
X1380951Y303000D01*
X1381145Y302025D01*
X1381698Y301198D01*
X1382525Y300645D01*
X1383500Y300451D01*
X1384475Y300645D01*
X1385302Y301198D01*
X1385855Y302025D01*
X1386049Y303000D01*
X1385855Y303976D01*
X1385302Y304802D01*
X1384475Y305355D01*
X1383500Y305549D01*
D02*
G37*
G36*
X1379500Y249549D02*
X1378525Y249355D01*
X1377698Y248802D01*
X1377145Y247975D01*
X1376951Y247000D01*
X1377145Y246024D01*
X1377698Y245198D01*
X1378525Y244645D01*
X1379500Y244451D01*
X1380475Y244645D01*
X1381302Y245198D01*
X1381855Y246024D01*
X1382049Y247000D01*
X1381855Y247975D01*
X1381302Y248802D01*
X1380475Y249355D01*
X1379500Y249549D01*
D02*
G37*
G36*
X1565500Y452049D02*
X1564525Y451855D01*
X1563698Y451302D01*
X1563145Y450476D01*
X1562951Y449500D01*
X1563145Y448525D01*
X1563698Y447698D01*
X1564525Y447145D01*
X1565500Y446951D01*
X1566475Y447145D01*
X1567302Y447698D01*
X1567855Y448525D01*
X1568049Y449500D01*
X1567855Y450476D01*
X1567302Y451302D01*
X1566475Y451855D01*
X1565500Y452049D01*
D02*
G37*
G36*
X1514000Y443281D02*
X1513025Y443087D01*
X1512198Y442535D01*
X1511645Y441708D01*
X1511451Y440732D01*
X1511645Y439757D01*
X1512198Y438930D01*
X1513025Y438377D01*
X1514000Y438183D01*
X1514975Y438377D01*
X1515802Y438930D01*
X1516355Y439757D01*
X1516549Y440732D01*
X1516355Y441708D01*
X1515802Y442535D01*
X1514975Y443087D01*
X1514000Y443281D01*
D02*
G37*
G36*
X1504000Y427049D02*
X1503025Y426855D01*
X1502198Y426302D01*
X1501645Y425476D01*
X1501505Y424771D01*
X1500995D01*
X1500855Y425476D01*
X1500302Y426302D01*
X1499475Y426855D01*
X1498500Y427049D01*
X1497525Y426855D01*
X1496698Y426302D01*
X1496145Y425476D01*
X1495951Y424500D01*
X1496145Y423525D01*
X1496698Y422698D01*
X1497525Y422145D01*
X1498500Y421951D01*
X1499475Y422145D01*
X1500302Y422698D01*
X1500855Y423525D01*
X1500995Y424229D01*
X1501505D01*
X1501645Y423525D01*
X1502198Y422698D01*
X1503025Y422145D01*
X1504000Y421951D01*
X1504975Y422145D01*
X1505802Y422698D01*
X1506355Y423525D01*
X1506549Y424500D01*
X1506355Y425476D01*
X1505802Y426302D01*
X1504975Y426855D01*
X1504000Y427049D01*
D02*
G37*
G36*
X1668000Y419549D02*
X1667025Y419355D01*
X1666198Y418802D01*
X1665645Y417976D01*
X1665451Y417000D01*
X1665645Y416024D01*
X1666198Y415198D01*
X1667025Y414645D01*
X1668000Y414451D01*
X1668975Y414645D01*
X1669802Y415198D01*
X1670355Y416024D01*
X1670549Y417000D01*
X1670355Y417976D01*
X1669802Y418802D01*
X1668975Y419355D01*
X1668000Y419549D01*
D02*
G37*
G36*
X1616000D02*
X1615025Y419355D01*
X1614198Y418802D01*
X1613645Y417976D01*
X1613451Y417000D01*
X1613645Y416024D01*
X1614198Y415198D01*
X1615025Y414645D01*
X1616000Y414451D01*
X1616975Y414645D01*
X1617802Y415198D01*
X1618355Y416024D01*
X1618549Y417000D01*
X1618355Y417976D01*
X1617802Y418802D01*
X1616975Y419355D01*
X1616000Y419549D01*
D02*
G37*
G36*
X1526847Y418049D02*
X1525871Y417855D01*
X1525044Y417302D01*
X1524492Y416475D01*
X1524298Y415500D01*
X1524492Y414525D01*
X1525044Y413698D01*
X1525871Y413145D01*
X1526847Y412951D01*
X1527822Y413145D01*
X1528649Y413698D01*
X1529201Y414525D01*
X1529395Y415500D01*
X1529201Y416475D01*
X1528649Y417302D01*
X1527822Y417855D01*
X1526847Y418049D01*
D02*
G37*
G36*
X1359000Y366549D02*
X1358025Y366355D01*
X1357198Y365802D01*
X1356645Y364976D01*
X1356451Y364000D01*
X1356645Y363024D01*
X1357198Y362198D01*
X1358025Y361645D01*
X1359000Y361451D01*
X1359975Y361645D01*
X1360802Y362198D01*
X1361355Y363024D01*
X1361549Y364000D01*
X1361355Y364976D01*
X1360802Y365802D01*
X1359975Y366355D01*
X1359000Y366549D01*
D02*
G37*
G36*
X136500Y337418D02*
Y334353D01*
X139565D01*
X139507Y334793D01*
X139145Y335668D01*
X138568Y336420D01*
X137815Y336997D01*
X136940Y337360D01*
X136500Y337418D01*
D02*
G37*
G36*
X135500D02*
X135060Y337360D01*
X134185Y336997D01*
X133432Y336420D01*
X132855Y335668D01*
X132493Y334793D01*
X132435Y334353D01*
X135500D01*
Y337418D01*
D02*
G37*
G36*
X139565Y333353D02*
X136500D01*
Y330288D01*
X136940Y330345D01*
X137815Y330708D01*
X138568Y331285D01*
X139145Y332037D01*
X139507Y332913D01*
X139565Y333353D01*
D02*
G37*
G36*
X135500D02*
X132435D01*
X132493Y332913D01*
X132855Y332037D01*
X133432Y331285D01*
X134185Y330708D01*
X135060Y330345D01*
X135500Y330288D01*
Y333353D01*
D02*
G37*
G36*
X1359000Y317549D02*
X1358025Y317355D01*
X1357198Y316802D01*
X1356645Y315975D01*
X1356451Y315000D01*
X1356645Y314024D01*
X1357198Y313198D01*
X1358025Y312645D01*
X1359000Y312451D01*
X1359975Y312645D01*
X1360802Y313198D01*
X1361355Y314024D01*
X1361549Y315000D01*
X1361355Y315975D01*
X1360802Y316802D01*
X1359975Y317355D01*
X1359000Y317549D01*
D02*
G37*
G36*
Y268549D02*
X1358025Y268355D01*
X1357198Y267802D01*
X1356645Y266975D01*
X1356451Y266000D01*
X1356645Y265024D01*
X1357198Y264198D01*
X1358025Y263645D01*
X1359000Y263451D01*
X1359975Y263645D01*
X1360802Y264198D01*
X1361355Y265024D01*
X1361549Y266000D01*
X1361355Y266975D01*
X1360802Y267802D01*
X1359975Y268355D01*
X1359000Y268549D01*
D02*
G37*
G36*
Y219549D02*
X1358025Y219355D01*
X1357198Y218802D01*
X1356645Y217975D01*
X1356451Y217000D01*
X1356645Y216024D01*
X1357198Y215198D01*
X1358025Y214645D01*
X1359000Y214451D01*
X1359975Y214645D01*
X1360802Y215198D01*
X1361355Y216024D01*
X1361549Y217000D01*
X1361355Y217975D01*
X1360802Y218802D01*
X1359975Y219355D01*
X1359000Y219549D01*
D02*
G37*
G36*
X918000Y374856D02*
X917025Y374662D01*
X916198Y374110D01*
X915645Y373283D01*
X915451Y372307D01*
X915645Y371332D01*
X916198Y370505D01*
X917025Y369952D01*
X918000Y369758D01*
X918975Y369952D01*
X919802Y370505D01*
X920355Y371332D01*
X920549Y372307D01*
X920355Y373283D01*
X919802Y374110D01*
X918975Y374662D01*
X918000Y374856D01*
D02*
G37*
G36*
X690831Y372763D02*
X689855Y372569D01*
X689028Y372016D01*
X688476Y371189D01*
X688282Y370214D01*
X688476Y369238D01*
X689028Y368411D01*
X689855Y367859D01*
X690831Y367665D01*
X691806Y367859D01*
X692633Y368411D01*
X693186Y369238D01*
X693380Y370214D01*
X693186Y371189D01*
X692633Y372016D01*
X691806Y372569D01*
X690831Y372763D01*
D02*
G37*
G36*
X938811Y374703D02*
X937836Y374509D01*
X937009Y373956D01*
X936456Y373129D01*
X936262Y372153D01*
X936367Y371624D01*
X935993Y371040D01*
X935836Y371008D01*
X935009Y370456D01*
X934456Y369629D01*
X934262Y368653D01*
X934456Y367678D01*
X935009Y366851D01*
X935836Y366299D01*
X936811Y366105D01*
X937786Y366299D01*
X938613Y366851D01*
X939166Y367678D01*
X939360Y368653D01*
X939255Y369183D01*
X939629Y369767D01*
X939787Y369799D01*
X940613Y370351D01*
X941166Y371178D01*
X941360Y372153D01*
X941166Y373129D01*
X940613Y373956D01*
X939787Y374509D01*
X938811Y374703D01*
D02*
G37*
G36*
X978388Y361203D02*
X977413Y361009D01*
X976586Y360456D01*
X976033Y359629D01*
X975839Y358653D01*
X976033Y357678D01*
X976586Y356851D01*
X977413Y356299D01*
X978388Y356105D01*
X979364Y356299D01*
X980191Y356851D01*
X980743Y357678D01*
X980937Y358653D01*
X980743Y359629D01*
X980191Y360456D01*
X979364Y361009D01*
X978388Y361203D01*
D02*
G37*
G36*
X890002D02*
X889027Y361009D01*
X888200Y360456D01*
X887648Y359629D01*
X887453Y358653D01*
X887648Y357678D01*
X888200Y356851D01*
X889027Y356299D01*
X890002Y356105D01*
X890978Y356299D01*
X891805Y356851D01*
X892357Y357678D01*
X892551Y358653D01*
X892357Y359629D01*
X891805Y360456D01*
X890978Y361009D01*
X890002Y361203D01*
D02*
G37*
G36*
X909500Y354549D02*
X908525Y354355D01*
X907698Y353802D01*
X907145Y352976D01*
X906951Y352000D01*
X907145Y351025D01*
X907698Y350198D01*
X908525Y349645D01*
X909500Y349451D01*
X910475Y349645D01*
X911302Y350198D01*
X911855Y351025D01*
X912049Y352000D01*
X911855Y352976D01*
X911302Y353802D01*
X910475Y354355D01*
X909500Y354549D01*
D02*
G37*
G36*
X998500Y353549D02*
X997525Y353355D01*
X996698Y352802D01*
X996145Y351975D01*
X995951Y351000D01*
X996145Y350025D01*
X996698Y349198D01*
X997525Y348645D01*
X998500Y348451D01*
X999475Y348645D01*
X1000302Y349198D01*
X1000855Y350025D01*
X1001049Y351000D01*
X1000855Y351975D01*
X1000302Y352802D01*
X999475Y353355D01*
X998500Y353549D01*
D02*
G37*
G36*
X959000D02*
X958025Y353355D01*
X957198Y352802D01*
X956645Y351975D01*
X956451Y351000D01*
X956645Y350025D01*
X957198Y349198D01*
X958025Y348645D01*
X959000Y348451D01*
X959975Y348645D01*
X960802Y349198D01*
X961355Y350025D01*
X961549Y351000D01*
X961355Y351975D01*
X960802Y352802D01*
X959975Y353355D01*
X959000Y353549D01*
D02*
G37*
G36*
X1342500Y347549D02*
X1341525Y347355D01*
X1340698Y346802D01*
X1340145Y345975D01*
X1339951Y345000D01*
X1340145Y344024D01*
X1340698Y343198D01*
X1341525Y342645D01*
X1342500Y342451D01*
X1343475Y342645D01*
X1344302Y343198D01*
X1344855Y344024D01*
X1345049Y345000D01*
X1344855Y345975D01*
X1344302Y346802D01*
X1343475Y347355D01*
X1342500Y347549D01*
D02*
G37*
G36*
X1343500Y326049D02*
X1342525Y325855D01*
X1341698Y325302D01*
X1341145Y324476D01*
X1340951Y323500D01*
X1341145Y322524D01*
X1341698Y321698D01*
X1342525Y321145D01*
X1343500Y320951D01*
X1344475Y321145D01*
X1345302Y321698D01*
X1345855Y322524D01*
X1346049Y323500D01*
X1345855Y324476D01*
X1345302Y325302D01*
X1344475Y325855D01*
X1343500Y326049D01*
D02*
G37*
G36*
X1342500Y298549D02*
X1341525Y298355D01*
X1340698Y297802D01*
X1340145Y296975D01*
X1339951Y296000D01*
X1340145Y295024D01*
X1340698Y294198D01*
X1341525Y293645D01*
X1342500Y293451D01*
X1343475Y293645D01*
X1344302Y294198D01*
X1344855Y295024D01*
X1345049Y296000D01*
X1344855Y296975D01*
X1344302Y297802D01*
X1343475Y298355D01*
X1342500Y298549D01*
D02*
G37*
G36*
X284741Y277549D02*
X283765Y277355D01*
X282938Y276802D01*
X282386Y275975D01*
X282192Y275000D01*
X282386Y274025D01*
X282938Y273198D01*
X283765Y272645D01*
X284741Y272451D01*
X285716Y272645D01*
X286543Y273198D01*
X287096Y274025D01*
X287290Y275000D01*
X287096Y275975D01*
X286543Y276802D01*
X285716Y277355D01*
X284741Y277549D01*
D02*
G37*
G36*
X355500Y274549D02*
X354524Y274355D01*
X353698Y273802D01*
X353145Y272975D01*
X353005Y272271D01*
X352495D01*
X352355Y272975D01*
X351802Y273802D01*
X350975Y274355D01*
X350000Y274549D01*
X349025Y274355D01*
X348198Y273802D01*
X347645Y272975D01*
X347451Y272000D01*
X347645Y271024D01*
X348198Y270198D01*
X349025Y269645D01*
X350000Y269451D01*
X350975Y269645D01*
X351802Y270198D01*
X352355Y271024D01*
X352495Y271729D01*
X353005D01*
X353145Y271024D01*
X353698Y270198D01*
X354524Y269645D01*
X355500Y269451D01*
X356475Y269645D01*
X357302Y270198D01*
X357855Y271024D01*
X358049Y272000D01*
X357855Y272975D01*
X357302Y273802D01*
X356475Y274355D01*
X355500Y274549D01*
D02*
G37*
G36*
X310000D02*
X309025Y274355D01*
X308198Y273802D01*
X307645Y272975D01*
X307505Y272271D01*
X306995D01*
X306855Y272975D01*
X306302Y273802D01*
X305475Y274354D01*
X304500Y274549D01*
X303524Y274354D01*
X302698Y273802D01*
X302145Y272975D01*
X301951Y272000D01*
X302145Y271024D01*
X302698Y270197D01*
X303524Y269644D01*
X304500Y269450D01*
X305475Y269644D01*
X306302Y270197D01*
X306855Y271024D01*
X306995Y271729D01*
X307505D01*
X307645Y271024D01*
X308198Y270198D01*
X309025Y269645D01*
X310000Y269451D01*
X310976Y269645D01*
X311802Y270198D01*
X312355Y271024D01*
X312549Y272000D01*
X312355Y272975D01*
X311802Y273802D01*
X310976Y274355D01*
X310000Y274549D01*
D02*
G37*
G36*
X374600Y277114D02*
X373624Y276920D01*
X372798Y276367D01*
X372245Y275540D01*
X372051Y274565D01*
X372245Y273590D01*
X372798Y272763D01*
X373624Y272210D01*
X374600Y272016D01*
X375575Y272210D01*
X376402Y272763D01*
X376955Y273590D01*
X377149Y274565D01*
X376955Y275540D01*
X376402Y276367D01*
X375575Y276920D01*
X374600Y277114D01*
D02*
G37*
G36*
X330100Y277114D02*
X329124Y276920D01*
X328298Y276367D01*
X327745Y275540D01*
X327551Y274565D01*
X327745Y273590D01*
X328298Y272763D01*
X329124Y272210D01*
X330100Y272016D01*
X331076Y272210D01*
X331902Y272763D01*
X332455Y273590D01*
X332649Y274565D01*
X332455Y275540D01*
X331902Y276367D01*
X331076Y276920D01*
X330100Y277114D01*
D02*
G37*
G36*
X1343500Y277049D02*
X1342525Y276855D01*
X1341698Y276302D01*
X1341145Y275476D01*
X1340951Y274500D01*
X1341145Y273524D01*
X1341698Y272698D01*
X1342525Y272145D01*
X1343500Y271951D01*
X1344475Y272145D01*
X1345302Y272698D01*
X1345855Y273524D01*
X1346049Y274500D01*
X1345855Y275476D01*
X1345302Y276302D01*
X1344475Y276855D01*
X1343500Y277049D01*
D02*
G37*
G36*
X394500Y274549D02*
X393525Y274355D01*
X392698Y273802D01*
X392145Y272975D01*
X391951Y272000D01*
X392145Y271024D01*
X392698Y270198D01*
X393525Y269645D01*
X394500Y269451D01*
X395476Y269645D01*
X396302Y270198D01*
X396855Y271024D01*
X397049Y272000D01*
X396855Y272975D01*
X396302Y273802D01*
X395476Y274355D01*
X394500Y274549D01*
D02*
G37*
G36*
X1342500Y249549D02*
X1341525Y249355D01*
X1340698Y248802D01*
X1340145Y247975D01*
X1339951Y247000D01*
X1340145Y246024D01*
X1340698Y245198D01*
X1341525Y244645D01*
X1342500Y244451D01*
X1343475Y244645D01*
X1344302Y245198D01*
X1344855Y246024D01*
X1345049Y247000D01*
X1344855Y247975D01*
X1344302Y248802D01*
X1343475Y249355D01*
X1342500Y249549D01*
D02*
G37*
G36*
X1343500Y228049D02*
X1342525Y227855D01*
X1341698Y227302D01*
X1341145Y226476D01*
X1340951Y225500D01*
X1341145Y224524D01*
X1341698Y223698D01*
X1342525Y223145D01*
X1343500Y222951D01*
X1344475Y223145D01*
X1345302Y223698D01*
X1345855Y224524D01*
X1346049Y225500D01*
X1345855Y226476D01*
X1345302Y227302D01*
X1344475Y227855D01*
X1343500Y228049D01*
D02*
G37*
G36*
X1342500Y200549D02*
X1341525Y200355D01*
X1340698Y199802D01*
X1340145Y198976D01*
X1339951Y198000D01*
X1340145Y197025D01*
X1340698Y196198D01*
X1341525Y195645D01*
X1342500Y195451D01*
X1343475Y195645D01*
X1344302Y196198D01*
X1344855Y197025D01*
X1345049Y198000D01*
X1344855Y198976D01*
X1344302Y199802D01*
X1343475Y200355D01*
X1342500Y200549D01*
D02*
G37*
G36*
X1343500Y179049D02*
X1342525Y178855D01*
X1341698Y178302D01*
X1341145Y177476D01*
X1340951Y176500D01*
X1341145Y175524D01*
X1341698Y174698D01*
X1342525Y174145D01*
X1343500Y173951D01*
X1344475Y174145D01*
X1345302Y174698D01*
X1345855Y175524D01*
X1346049Y176500D01*
X1345855Y177476D01*
X1345302Y178302D01*
X1344475Y178855D01*
X1343500Y179049D01*
D02*
G37*
G36*
X1379000Y151549D02*
X1378025Y151355D01*
X1377198Y150802D01*
X1376645Y149976D01*
X1376451Y149000D01*
X1376645Y148024D01*
X1377198Y147198D01*
X1378025Y146645D01*
X1379000Y146451D01*
X1379975Y146645D01*
X1380802Y147198D01*
X1381355Y148024D01*
X1381549Y149000D01*
X1381355Y149976D01*
X1380802Y150802D01*
X1379975Y151355D01*
X1379000Y151549D01*
D02*
G37*
G36*
X1361000D02*
X1360025Y151355D01*
X1359198Y150802D01*
X1358645Y149976D01*
X1358451Y149000D01*
X1358645Y148024D01*
X1359198Y147198D01*
X1360025Y146645D01*
X1361000Y146451D01*
X1361975Y146645D01*
X1362802Y147198D01*
X1363355Y148024D01*
X1363549Y149000D01*
X1363355Y149976D01*
X1362802Y150802D01*
X1361975Y151355D01*
X1361000Y151549D01*
D02*
G37*
G36*
X1356000Y147049D02*
X1355025Y146855D01*
X1354198Y146302D01*
X1353645Y145475D01*
X1353451Y144500D01*
X1353645Y143525D01*
X1354198Y142698D01*
X1355025Y142145D01*
X1356000Y141951D01*
X1356975Y142145D01*
X1357802Y142698D01*
X1358355Y143525D01*
X1358549Y144500D01*
X1358355Y145475D01*
X1357802Y146302D01*
X1356975Y146855D01*
X1356000Y147049D01*
D02*
G37*
G36*
X1335000Y151549D02*
X1334025Y151355D01*
X1333198Y150802D01*
X1332645Y149976D01*
X1332451Y149000D01*
X1332645Y148024D01*
X1333198Y147198D01*
X1333493Y147000D01*
Y146500D01*
X1333198Y146302D01*
X1332645Y145475D01*
X1332451Y144500D01*
X1332645Y143525D01*
X1333198Y142698D01*
X1334025Y142145D01*
X1335000Y141951D01*
X1335975Y142145D01*
X1336802Y142698D01*
X1337355Y143525D01*
X1337549Y144500D01*
X1337355Y145475D01*
X1336802Y146302D01*
X1336507Y146500D01*
Y147000D01*
X1336802Y147198D01*
X1337355Y148024D01*
X1337549Y149000D01*
X1337355Y149976D01*
X1336802Y150802D01*
X1335975Y151355D01*
X1335000Y151549D01*
D02*
G37*
%LPD*%
D10*
X1275000Y103500D02*
X1278000D01*
X1251000D02*
X1275000D01*
X861959Y303000D02*
X862500D01*
X1216050Y69898D02*
Y100850D01*
X649496Y186498D02*
X649498Y186500D01*
X203000Y125000D02*
Y133979D01*
X247000Y102000D02*
Y121653D01*
X185500Y151479D02*
Y160458D01*
Y151479D02*
X203000Y133979D01*
X238154Y130500D02*
X247000Y121653D01*
X615833Y186498D02*
X649496D01*
X615831Y186496D02*
X615833Y186498D01*
X180798Y165160D02*
X185500Y160458D01*
X1485642Y425342D02*
X1485807Y425176D01*
X1636000Y400600D02*
Y403500D01*
X1485807Y400600D02*
Y425176D01*
X1163575Y103500D02*
X1203000D01*
X1160500Y100425D02*
X1163575Y103500D01*
X1194000Y117500D02*
X1208000Y103500D01*
X1186500Y117500D02*
X1194000D01*
X1216000Y100900D02*
X1218600Y103500D01*
X1205600Y100900D02*
X1216000D01*
X1216050Y32900D02*
Y47770D01*
X1211700Y52120D02*
X1216050Y47770D01*
X1211700Y65548D02*
X1216050Y69898D01*
X1211700Y52120D02*
Y65548D01*
X1216000Y32850D02*
X1216050Y32900D01*
X1248500Y106000D02*
X1251000Y103500D01*
X1210500Y106000D02*
X1248500D01*
X1208000Y103500D02*
X1210500Y106000D01*
X1218600Y103500D02*
X1246000D01*
X1203000D02*
X1205600Y100900D01*
X860959Y304000D02*
X861959Y303000D01*
X785000Y289500D02*
X788500Y286000D01*
X786465Y304000D02*
X860959D01*
X785000Y302536D02*
X786465Y304000D01*
X785000Y289500D02*
Y302536D01*
D11*
X522000Y467621D02*
X540524Y486145D01*
X522000Y388917D02*
Y467621D01*
X449000Y315917D02*
X522000Y388917D01*
X1413000Y357390D02*
X1470390D01*
X1474077Y361077D02*
X1503000D01*
X1470390Y357390D02*
X1474077Y361077D01*
X1503000D02*
X1506687Y357390D01*
X1472500Y354000D02*
X1503907D01*
X1506687Y357390D02*
X1641888D01*
X1503907Y354000D02*
X1508907Y349000D01*
X1469500Y351000D02*
X1472500Y354000D01*
X1530929Y351000D02*
X1583500D01*
X1528929Y349000D02*
X1530929Y351000D01*
X1508907Y349000D02*
X1528929D01*
X1392500Y351000D02*
X1469500D01*
X1386500Y345000D02*
X1392500Y351000D01*
X1293500Y134500D02*
Y158226D01*
X1275500Y176226D02*
X1293500Y158226D01*
X575982Y161518D02*
X576018D01*
Y161553D01*
X878000Y195091D02*
X878091D01*
X1303279Y141230D02*
X1339509Y105000D01*
X1278000Y177261D02*
X1303279Y151983D01*
Y141230D02*
Y151983D01*
X1280500Y178297D02*
X1305779Y153018D01*
Y142265D02*
Y153018D01*
Y142265D02*
X1339151Y108894D01*
X1283200Y179132D02*
X1308279Y154054D01*
Y143301D02*
Y154054D01*
Y143301D02*
X1340186Y111394D01*
X1285700Y180309D02*
X1310779Y155231D01*
Y144337D02*
Y155231D01*
Y144337D02*
X1341222Y113894D01*
X1293500Y133000D02*
X1325500Y101000D01*
X1293500Y133000D02*
Y134500D01*
X1339509Y105000D02*
X1363000D01*
X1339151Y108894D02*
X1363892D01*
X1684000Y294000D02*
X1696500Y281500D01*
X1678500Y299500D02*
X1684000Y294000D01*
X1372571Y105000D02*
X1391767Y85804D01*
X1366178Y111394D02*
X1372571Y105000D01*
X1340186Y111394D02*
X1366178D01*
X1341222Y113894D02*
X1368463D01*
X1469200Y340100D02*
X1552563D01*
X1428521D02*
X1469200D01*
X1382143Y105000D02*
X1394043Y93100D01*
X1370749Y116394D02*
X1382143Y105000D01*
X1342257Y116394D02*
X1370749D01*
X1313279Y145372D02*
X1342257Y116394D01*
X1313279Y145372D02*
Y156266D01*
X1275500Y176226D02*
Y231217D01*
X1233000Y139538D02*
X1246635D01*
X1212538D02*
X1233000D01*
Y153000D02*
X1238500Y158500D01*
X1233000Y139538D02*
Y153000D01*
X1246635Y139538D02*
X1251000Y135173D01*
X1136000Y127500D02*
X1139000Y130500D01*
X1136000Y117136D02*
Y127500D01*
X1109864Y91000D02*
X1136000Y117136D01*
X1011500Y36000D02*
X1066500Y91000D01*
X905000Y80651D02*
X959779Y25872D01*
X1066500Y91000D02*
X1109864D01*
X935340Y423316D02*
X1185039D01*
X1228500Y466777D01*
X1408500Y403000D02*
X1410900Y400600D01*
X1472500Y436000D02*
Y448000D01*
Y404859D02*
Y436000D01*
X1133337Y386939D02*
X1149398Y403000D01*
X953455Y386939D02*
X1133337D01*
X946740Y393653D02*
X953455Y386939D01*
X1154920Y395500D02*
X1303000D01*
X1141309Y381889D02*
X1154920Y395500D01*
X951842Y381889D02*
X1141309D01*
X1367786Y105000D02*
X1397786Y75000D01*
X1363892Y108894D02*
X1367786Y105000D01*
X1611500Y167500D02*
Y189729D01*
Y167500D02*
X1611750Y167250D01*
X926000Y393653D02*
X946740D01*
X421083Y288000D02*
X449000Y315917D01*
X312265Y288000D02*
X421083D01*
X403500Y213700D02*
Y217000D01*
X307265Y293000D02*
X312265Y288000D01*
X291441Y293000D02*
X307265D01*
X284431D02*
X291441D01*
X269841Y278410D02*
X284431Y293000D01*
X1614975Y266975D02*
X1668000D01*
X1614000Y266000D02*
X1614975Y266975D01*
X1683000Y228500D02*
X1696500Y242000D01*
X1675000Y228500D02*
X1683000D01*
X1696500Y242000D02*
Y281500D01*
X1614500Y228500D02*
X1675000D01*
X594998Y143760D02*
X608088D01*
X594728D02*
X594998D01*
X65798Y168202D02*
X155798D01*
X715000Y355035D02*
X852927D01*
X853739Y355847D02*
X871500D01*
X852927Y355035D02*
X853739Y355847D01*
X269841Y229158D02*
Y278410D01*
Y229158D02*
X298000Y200999D01*
X307000Y191999D01*
X50000Y148000D02*
Y150789D01*
Y183090D01*
X824000Y32500D02*
Y42000D01*
X810803Y19303D02*
X824000Y32500D01*
X743100Y19303D02*
X810803D01*
X805757Y181000D02*
X859000D01*
X862706Y186000D02*
X900000Y148705D01*
X761000Y136243D02*
X805757Y181000D01*
X870528Y188000D02*
X905000Y153528D01*
Y86000D02*
Y153528D01*
Y80651D02*
Y86000D01*
X905346Y86347D02*
X910235D01*
X905000Y86000D02*
X905346Y86347D01*
X971672Y12760D02*
X974500D01*
X959779Y24652D02*
X971672Y12760D01*
X959779Y24652D02*
Y25872D01*
X902500Y79616D02*
X927500Y54616D01*
X902500Y79616D02*
Y150654D01*
X867153Y186000D02*
X902500Y150654D01*
X900000Y56000D02*
Y148705D01*
Y56000D02*
X906500Y49500D01*
X824000Y42000D02*
Y55000D01*
X496000Y85900D02*
X570000D01*
X479500D02*
X496000D01*
X925012Y412988D02*
X935340Y423316D01*
X921410Y409385D02*
X925012Y412988D01*
X894000Y444000D02*
X925012Y412988D01*
X921410Y409385D02*
Y409385D01*
X889091Y377067D02*
X921410Y409385D01*
X883302Y377067D02*
X889091D01*
X871500Y355847D02*
X893311Y334035D01*
X1411000Y398000D02*
X1472500D01*
X1408500Y395500D02*
X1411000Y398000D01*
X1676000Y473307D02*
X1676108D01*
X1640307D02*
X1676000D01*
X1481000Y468500D02*
X1485807Y473307D01*
X1464500Y452000D02*
X1481000Y468500D01*
X566983Y185000D02*
X566991Y184991D01*
X562483Y189500D02*
X566983Y185000D01*
X1377357Y105000D02*
X1391757Y90600D01*
X1368463Y113894D02*
X1377357Y105000D01*
X1619500Y455000D02*
Y480743D01*
Y435544D02*
Y455000D01*
X852529Y205999D02*
X870528Y188000D01*
X1208000Y135000D02*
X1212538Y139538D01*
X1203500Y130500D02*
X1208000Y135000D01*
X519500Y121500D02*
Y123653D01*
Y113000D02*
Y121500D01*
X1001500Y36000D02*
X1011500D01*
X991500D02*
X1001500D01*
X974500Y12760D02*
X988260D01*
X1272500Y189000D02*
X1273000Y188500D01*
X591728Y146760D02*
X594728Y143760D01*
X366421D02*
X366691D01*
X363421Y146760D02*
X366421Y143760D01*
X1678229Y146500D02*
X1678500D01*
X1675229Y143500D02*
X1678229Y146500D01*
Y247500D02*
X1678500D01*
X1675229Y244500D02*
X1678229Y247500D01*
X1554893Y259500D02*
X1555163D01*
X1554893Y144500D02*
X1555163D01*
X923655Y268691D02*
X923846Y268500D01*
X1611000Y290500D02*
X1614500Y294000D01*
X1417729Y293000D02*
X1418000D01*
X554473Y127000D02*
X556973Y129500D01*
X564606Y89569D02*
X566037Y91000D01*
X659228Y143760D02*
X659498D01*
X656228Y146760D02*
X659228Y143760D01*
X1344920Y456920D02*
X1345000Y457000D01*
X202757Y121000D02*
X228654D01*
X189535Y130415D02*
X189620Y130500D01*
X121415Y130415D02*
X189535D01*
X1614500Y192729D02*
Y193000D01*
X1611500Y189729D02*
X1614500Y192729D01*
X1616800Y78800D02*
X1618500Y80500D01*
X1440112Y66800D02*
X1471836D01*
X1683229Y128000D02*
X1683500D01*
X1621847Y432927D02*
Y433197D01*
X603350Y174016D02*
X615831Y186496D01*
X533128Y157458D02*
X571923D01*
X529352Y153682D02*
X533128Y157458D01*
X524850Y165737D02*
X533128Y157458D01*
X120791Y164620D02*
X121331Y165160D01*
X45672Y143672D02*
X50000Y148000D01*
X1676500Y400600D02*
X1679328D01*
X1682846Y404118D01*
X1410900Y400600D02*
X1457500D01*
X1333154Y83654D02*
X1339923D01*
X1273000Y175190D02*
Y188500D01*
X1236785Y189000D02*
X1272500D01*
X761000Y117000D02*
X761309Y116691D01*
X566991Y172009D02*
X567000Y172000D01*
X484462Y178131D02*
X492974D01*
X387665Y169500D02*
X387809Y169643D01*
X265273Y168202D02*
X270331Y173260D01*
X1195500Y163000D02*
X1200000Y158500D01*
X1261659Y27950D02*
X1280500Y46791D01*
X566037Y91000D02*
X566307D01*
X121331Y130500D02*
X121415Y130415D01*
X202884Y143760D02*
X252538D01*
X996595Y16000D02*
X1042500D01*
X957279Y23616D02*
Y24836D01*
X800234Y255932D02*
Y288586D01*
X787500Y301320D02*
X800234Y288586D01*
X787500Y301320D02*
Y301500D01*
X855031Y208499D02*
X875531Y188000D01*
X332999Y191999D02*
X349499Y208499D01*
X449043Y205405D02*
X449636Y205999D01*
X391094Y205405D02*
X449043D01*
X566991Y172009D02*
Y184991D01*
X406580Y106000D02*
X419000D01*
X373909Y105331D02*
X405910D01*
X419000Y106000D02*
X436500Y123500D01*
X405910Y105331D02*
X406580Y106000D01*
X521569Y89569D02*
X564606D01*
X521207Y89207D02*
X521569Y89569D01*
X521207Y89207D02*
Y89413D01*
X1344840Y372000D02*
X1344920Y372080D01*
Y456920D01*
X519895Y124049D02*
X570279D01*
X519500Y123653D02*
X519895Y124049D01*
X556973Y129500D02*
X576500D01*
X535357Y127000D02*
X554473D01*
X533461Y128896D02*
X535357Y127000D01*
X121161Y130331D02*
X121331Y130500D01*
X504897Y169760D02*
X515138Y180000D01*
X469345Y181000D02*
X480585Y169760D01*
X515138Y180000D02*
X551983D01*
X480585Y169760D02*
X504897D01*
X134438Y147706D02*
X138384Y143760D01*
X88731D02*
X92677Y147706D01*
X134438D01*
X66636Y150789D02*
X91568Y125857D01*
Y124191D02*
X91760Y124000D01*
X80917Y165160D02*
X121331D01*
X66636Y150789D02*
Y150879D01*
X80917Y165160D01*
X50000Y150789D02*
X66636D01*
X120600Y161976D02*
X120791Y162168D01*
Y164620D01*
X42331Y190760D02*
X50000Y183090D01*
X1614000Y266000D02*
Y266271D01*
X1149398Y403000D02*
X1317000D01*
X878091Y195091D02*
X936000Y253000D01*
X1247000Y249500D02*
X1272500Y224000D01*
X1176334Y238000D02*
X1196000Y218335D01*
X937031Y249500D02*
X1247000D01*
X898000Y204000D02*
X932000Y238000D01*
X1251000Y253000D02*
X1251191Y252809D01*
X287606Y156793D02*
Y160036D01*
X121331Y165160D02*
X180798D01*
X270331Y173331D02*
X298000Y200999D01*
X156202Y168202D02*
X265273D01*
X58000Y176000D02*
X65798Y168202D01*
X373909Y105331D02*
Y124356D01*
X386554Y137000D01*
X271573Y140760D02*
X287606Y156793D01*
X238154Y130500D02*
X248413Y140760D01*
X189811Y130309D02*
X193449D01*
X202757Y121000D01*
X189620Y130500D02*
X189811Y130309D01*
X228654Y121000D02*
X238154Y130500D01*
X611088Y146760D02*
X656228D01*
X608088Y143760D02*
X611088Y146760D01*
X561588D02*
X591728D01*
X558588Y143760D02*
X561588Y146760D01*
X545345Y143760D02*
X558588D01*
X519500Y123653D02*
Y133799D01*
X525000Y139299D01*
Y149714D01*
X551983Y180000D02*
X556983Y185000D01*
X516380Y177000D02*
X524850Y168530D01*
Y165737D02*
Y168530D01*
X528968Y153682D02*
X529352D01*
X505000Y189500D02*
X562483D01*
X493302Y177802D02*
X505000Y189500D01*
X471094Y191499D02*
X484462Y178131D01*
X493302Y177802D02*
X498331Y172774D01*
X461500Y191499D02*
X471094D01*
X505400Y185000D02*
X546983D01*
X525000Y149714D02*
X528968Y153682D01*
X1696500Y141000D02*
Y180500D01*
X1683500Y128000D02*
X1696500Y141000D01*
X1684000Y193000D02*
X1696500Y180500D01*
X1687729Y165154D02*
X1688000D01*
X1685633Y167250D02*
X1687729Y165154D01*
X1611750Y167250D02*
X1685633D01*
X1583500Y205500D02*
Y343500D01*
X1555163Y259500D02*
Y317000D01*
X1560163Y275000D02*
Y332500D01*
X1583500Y205500D02*
X1596000Y193000D01*
X287606Y160036D02*
X303831Y176260D01*
X248413Y140760D02*
X271573D01*
X87000Y103667D02*
X113664Y130331D01*
X74500Y103667D02*
X87000D01*
X591900Y107800D02*
X632500D01*
X570000Y85900D02*
X591900Y107800D01*
X37000Y103667D02*
X74500D01*
Y129193D02*
X74654Y129347D01*
X74500Y103667D02*
Y129193D01*
X113664Y130331D02*
X121161D01*
X91568Y124191D02*
Y125857D01*
X41153Y133587D02*
X45672Y138105D01*
Y143672D01*
X355498Y169500D02*
X387665D01*
X456000D01*
X387809Y173809D02*
X388000Y174000D01*
X387809Y169643D02*
Y173809D01*
X456000Y169500D02*
X461500Y164000D01*
X588480Y174016D02*
X603350D01*
X576018Y161553D02*
X588480Y174016D01*
X571923Y157458D02*
X575982Y161518D01*
X180798Y165160D02*
X237840D01*
X238000Y165000D01*
X270331Y173260D02*
Y173331D01*
X307000Y191999D02*
X332999D01*
X427745Y147206D02*
X431191Y143760D01*
X370138Y147206D02*
X427745D01*
X366691Y143760D02*
X370138Y147206D01*
X333588Y146760D02*
X363421D01*
X317038Y143760D02*
X330588D01*
X333588Y146760D01*
X1468439Y31402D02*
X1549402D01*
X1453015Y50362D02*
X1595077D01*
X1428377Y75000D02*
X1453015Y50362D01*
X1471836Y66800D02*
X1473835Y68800D01*
X1478516D02*
X1484016Y74300D01*
X1421108Y85804D02*
X1440112Y66800D01*
X1391757Y90600D02*
X1422200D01*
X1443000Y69800D01*
X1447688Y69355D02*
X1470855D01*
X1480300Y78800D01*
X1423943Y93100D02*
X1447688Y69355D01*
X1563393Y83284D02*
X1586109Y106000D01*
X1427886Y95800D02*
X1440402Y83284D01*
X1396128Y95800D02*
X1427886D01*
X1494016Y88920D02*
Y91648D01*
X1441438Y85784D02*
X1490880D01*
X1494016Y88920D01*
X1436402Y94355D02*
X1465389D01*
X1465818Y94784D01*
X1396500Y105000D02*
X1425757D01*
X1440402Y83284D02*
X1563393D01*
X1473835Y68800D02*
X1478516D01*
X1488516Y69800D02*
X1534516D01*
X1539016Y74300D01*
X1394043Y93100D02*
X1423943D01*
X1549402Y31402D02*
X1563000Y45000D01*
X1595077Y50362D02*
X1650077D01*
X1595077D02*
X1609016Y64300D01*
X1650077Y50362D02*
X1664016Y64300D01*
X1598516Y69800D02*
X1644516D01*
X1498516Y104784D02*
X1515880D01*
X1533078D02*
X1544516D01*
X1549016Y100284D01*
X1488516Y94784D02*
X1498516Y104784D01*
X1529657Y101363D02*
X1533078Y104784D01*
X1519301Y101363D02*
X1529657D01*
X1515880Y104784D02*
X1519301Y101363D01*
X1465818Y94784D02*
X1488516D01*
X1425757Y105000D02*
X1436402Y94355D01*
X1497152Y94784D02*
X1509163D01*
X1428922Y98300D02*
X1441438Y85784D01*
X1509163Y94784D02*
X1559516D01*
X1509016Y90284D02*
X1509163Y90432D01*
Y94784D01*
X1559516D02*
X1564016Y90284D01*
X1484016Y74300D02*
X1488516Y69800D01*
X1480300Y78800D02*
X1616800D01*
X1494016Y91648D02*
X1497152Y94784D01*
X1594016Y74300D02*
X1598516Y69800D01*
X1644516D02*
X1649016Y74300D01*
X1618500Y80500D02*
X1664231D01*
X1618500Y89768D02*
X1619016Y90284D01*
X1618500Y80500D02*
Y89768D01*
X1664231Y80500D02*
X1674016Y90284D01*
X1619771Y146500D02*
X1622771Y143500D01*
X1604000Y106000D02*
X1624664D01*
X1586109D02*
X1604000D01*
Y100300D02*
X1604016Y100284D01*
X1604000Y100300D02*
Y106000D01*
X1654516Y104784D02*
X1659016Y100284D01*
X1639656Y101363D02*
X1643078Y104784D01*
X1629301Y101363D02*
X1639656D01*
X1643078Y104784D02*
X1654516D01*
X1624664Y106000D02*
X1629301Y101363D01*
X449636Y205999D02*
X852529D01*
X357000Y213712D02*
X357012Y213700D01*
X403500D01*
X349499Y208499D02*
X855031D01*
X875531Y188000D02*
X937031Y249500D01*
X847438Y225562D02*
X878000Y195000D01*
X830604Y225562D02*
X847438D01*
X936000Y253000D02*
X1251000D01*
X761000Y117000D02*
Y136243D01*
X764309Y116691D02*
X764500Y116500D01*
X761309Y116691D02*
X764309D01*
X752000Y108000D02*
X761000Y117000D01*
X854598Y213700D02*
X873207Y195091D01*
X403500Y213700D02*
X854598D01*
X833500Y147500D02*
X862500Y176500D01*
X932000Y238000D02*
X1176334D01*
X1603500Y162165D02*
Y231500D01*
X1570335Y129000D02*
X1603500Y162165D01*
Y231500D02*
X1619500Y247500D01*
X530163Y128896D02*
X533461D01*
X529972Y129087D02*
X530163Y128896D01*
X576500Y101193D02*
Y129500D01*
X566307Y91000D02*
X576500Y101193D01*
X1139000Y130500D02*
X1203500D01*
X332999Y191999D02*
X355498Y169500D01*
X927500Y54616D02*
X957279Y24836D01*
X988260Y12760D02*
X1011500Y36000D01*
X752000Y95702D02*
Y108000D01*
X1395500Y72500D02*
X1427341D01*
X1363000Y105000D02*
X1395500Y72500D01*
X1397786Y75000D02*
X1428377D01*
X1391767Y85804D02*
X1421108D01*
X1398414Y98300D02*
X1428922D01*
X1377606Y123894D02*
X1396500Y105000D01*
X1344328Y121394D02*
X1375321D01*
X1398414Y98300D01*
X1291000Y182363D02*
Y243500D01*
X1343293Y118894D02*
X1373035D01*
X1339923Y83654D02*
X1355577Y68000D01*
X1329154Y87654D02*
X1333154Y83654D01*
X1330500Y81000D02*
X1333154Y83654D01*
X1283000Y134514D02*
X1329154Y88361D01*
X1326500Y85000D02*
X1329154Y87654D01*
X1355577Y68000D02*
X1417500D01*
X893311Y301500D02*
Y334035D01*
X1676108Y473307D02*
X1679236Y470179D01*
X1635500Y468500D02*
X1640307Y473307D01*
X1485807D02*
X1524500D01*
X1679236Y470179D02*
X1679910D01*
X1464500Y417000D02*
Y452000D01*
X1511129Y412129D02*
X1516000Y417000D01*
X1457500Y410000D02*
X1464500Y417000D01*
X1679910Y470179D02*
X1682846Y467243D01*
Y404118D02*
Y467243D01*
X1676500Y400600D02*
Y403500D01*
X1636000Y400600D02*
X1676500D01*
X1611000D02*
Y410307D01*
Y400600D02*
X1636000D01*
X1511129D02*
Y412129D01*
X1485807Y400600D02*
X1511129D01*
X1611000D01*
X1457500D02*
X1485807D01*
X1457500D02*
Y410000D01*
X1273000Y175190D02*
X1283000Y165190D01*
Y134514D02*
Y165190D01*
X1329154Y87654D02*
Y88361D01*
X1272500Y189000D02*
Y224000D01*
X1200500Y188700D02*
X1236485D01*
X1236785Y189000D01*
X1685346Y403083D02*
Y474896D01*
X1619500Y435544D02*
X1621847Y433197D01*
X1677243Y483000D02*
X1685346Y474896D01*
X1619500Y480743D02*
X1621757Y483000D01*
X1677243D01*
X1472500Y398000D02*
X1680264D01*
X1685346Y403083D01*
X1472500Y395000D02*
Y398000D01*
X1251191Y252809D02*
X1253909D01*
X1238500Y158500D02*
Y171500D01*
X800234Y255932D02*
X830604Y225562D01*
X1253909Y252809D02*
X1275500Y231217D01*
X1251000Y135000D02*
Y135173D01*
X504000Y97500D02*
X519500Y113000D01*
X457000Y90000D02*
X520620D01*
X521207Y89413D01*
X1200000Y171500D02*
X1204500Y176000D01*
X1278000Y70891D02*
Y103500D01*
X1280500Y46791D02*
Y159399D01*
X1261399Y178500D02*
X1280500Y159399D01*
X1195500Y173364D02*
X1200636Y178500D01*
X1204500Y176000D02*
X1260364D01*
X1278000Y103500D02*
Y158364D01*
X1260364Y176000D02*
X1278000Y158364D01*
X733100Y29303D02*
X743100Y19303D01*
X683900Y29303D02*
X733100D01*
X779500Y122500D02*
X805000D01*
X765500Y136500D02*
X779500Y122500D01*
X833500Y104000D02*
Y147500D01*
X824000Y55000D02*
X840000Y71000D01*
Y97500D01*
X833500Y104000D02*
X840000Y97500D01*
X805000Y106000D02*
X807000Y104000D01*
X833500D01*
X803000D02*
X805000Y106000D01*
Y122500D01*
X922500Y20000D02*
Y49500D01*
Y20000D02*
X931000Y11500D01*
X988855Y8260D02*
X996595Y16000D01*
X922500Y49616D02*
X927500Y54616D01*
X922500Y49500D02*
Y49616D01*
X914500Y49500D02*
X922500D01*
X972636Y8260D02*
X988855D01*
X957279Y23616D02*
X972636Y8260D01*
X1196000Y190000D02*
Y218335D01*
X1210000Y158500D02*
Y171500D01*
X1220900Y27950D02*
X1261659D01*
X1216000Y32850D02*
X1220900Y27950D01*
X1216050Y59400D02*
X1220900Y54550D01*
X1261659D01*
X1278000Y70891D01*
X1200636Y178500D02*
X1261399D01*
X1195500Y163000D02*
Y173364D01*
X1190000Y158500D02*
Y171500D01*
X923655Y268691D02*
Y271156D01*
X893311Y301500D02*
X923655Y271156D01*
X862500Y303000D02*
Y343500D01*
X1622771Y143500D02*
X1675229D01*
X1619500Y146500D02*
X1619771D01*
X1405000Y165500D02*
X1409500Y161000D01*
Y128757D02*
X1412257Y126000D01*
X1599000D01*
X1619500Y146500D01*
X1409500Y144500D02*
Y161000D01*
Y128757D02*
Y129000D01*
X1619500Y247500D02*
X1619771D01*
X1622771Y244500D02*
X1675229D01*
X1619771Y247500D02*
X1622771Y244500D01*
X1377757Y168500D02*
X1406243D01*
X1413500Y144500D02*
Y161243D01*
X1374757Y165500D02*
X1377757Y168500D01*
X1406243D02*
X1413500Y161243D01*
Y129000D02*
X1570335D01*
X1361000Y165500D02*
X1374757D01*
X1551893Y256500D02*
X1554893Y259500D01*
X1509663Y256500D02*
X1551893D01*
X1464163Y259500D02*
X1506663D01*
X1464163D02*
Y317000D01*
X1506663Y259500D02*
X1509663Y256500D01*
X1460500Y150594D02*
Y255837D01*
X1415921Y138500D02*
X1419921Y142500D01*
X1452406D02*
X1460500Y150594D01*
X1419921Y142500D02*
X1452406D01*
X1405000Y138500D02*
X1415921D01*
X1460500Y255837D02*
X1464163Y259500D01*
X1555163Y144500D02*
Y202000D01*
X1551893Y141500D02*
X1554893Y144500D01*
X1509663Y141500D02*
X1551893D01*
X1506663Y144500D02*
X1509663Y141500D01*
X1464163Y144500D02*
Y202000D01*
X1397757Y141500D02*
X1405757Y133500D01*
X1464163Y144500D02*
X1506663D01*
X1374757Y138500D02*
X1377757Y141500D01*
X1405757Y133500D02*
X1453163D01*
X1464163Y144500D01*
X1361000Y138500D02*
X1374757D01*
X1377757Y141500D02*
X1397757D01*
X1296000Y184434D02*
Y228500D01*
X1293500Y183399D02*
X1318279Y158620D01*
X1373035Y118894D02*
X1396128Y95800D01*
X1283200Y179132D02*
Y270700D01*
X1697000Y287000D02*
Y302278D01*
X1684000Y193000D02*
X1697000Y206000D01*
Y231000D01*
X1682729Y127500D02*
X1683229Y128000D01*
X1614500Y127500D02*
X1682729D01*
X1641888Y357390D02*
X1697000Y302278D01*
X1427341Y72500D02*
X1468439Y31402D01*
X1278000Y177261D02*
Y285500D01*
X1300500Y308000D01*
X1280500Y278000D02*
X1300500Y298000D01*
X1280500Y178297D02*
Y278000D01*
X1469163Y225500D02*
X1552163D01*
X1560163Y217500D01*
X1469163Y178500D02*
Y217500D01*
Y178500D02*
X1475500D01*
X1560163Y160000D02*
Y217500D01*
X1469163Y160000D02*
Y178500D01*
X1410500Y189500D02*
X1421500Y178500D01*
X1403500Y189500D02*
X1410500D01*
X1428000Y178500D02*
X1457500D01*
X1318279Y147443D02*
Y158620D01*
Y147443D02*
X1344328Y121394D01*
X1293500Y236000D02*
X1300500Y243000D01*
X1293500Y183399D02*
Y236000D01*
X1515663Y159500D02*
Y217000D01*
X1510663Y222000D02*
X1515663Y217000D01*
X1464500Y222000D02*
X1510663D01*
X1429663D02*
X1457500D01*
X1424663Y217000D02*
X1429663Y222000D01*
X1424663Y198000D02*
Y217000D01*
X1386500Y198000D02*
X1424663D01*
Y159500D02*
Y198000D01*
X1296000Y228500D02*
X1300500Y233000D01*
X1345364Y123894D02*
X1377606D01*
X1296000Y184434D02*
X1320779Y159656D01*
Y148479D02*
Y159656D01*
Y148479D02*
X1345364Y123894D01*
X1291000Y243500D02*
X1300500Y253000D01*
X1288500Y181045D02*
Y251000D01*
X1515663Y274500D02*
Y332000D01*
X1512163Y335500D02*
X1515663Y332000D01*
X1428163Y335500D02*
X1512163D01*
X1424663Y332000D02*
X1428163Y335500D01*
X1424663Y274500D02*
Y332000D01*
X1397163Y247000D02*
X1424663Y274500D01*
X1386500Y247000D02*
X1397163D01*
X1315779Y146408D02*
Y157585D01*
X1291000Y182363D02*
X1315779Y157585D01*
X1552563Y340100D02*
X1560163Y332500D01*
X1469163Y275000D02*
Y332500D01*
X1421163Y332743D02*
X1428521Y340100D01*
X1398000Y265500D02*
X1404000Y271500D01*
X1405743D01*
X1421163Y286921D01*
Y332743D01*
X1288500Y181045D02*
X1313279Y156266D01*
X1428421Y346500D02*
X1649243D01*
X1678500Y299500D02*
Y317243D01*
X1408500Y303000D02*
Y326579D01*
X1649243Y346500D02*
X1678500Y317243D01*
X1408500Y326579D02*
X1428421Y346500D01*
X1283200Y270700D02*
X1300500Y288000D01*
X1611000Y269271D02*
Y290500D01*
X1482516Y294500D02*
X1510500D01*
X1414729Y296000D02*
X1417729Y293000D01*
X1611000Y269271D02*
X1614000Y266271D01*
X1386500Y296000D02*
X1414729D01*
X1285700Y180309D02*
Y263200D01*
X1300500Y278000D01*
X1288500Y251000D02*
X1300500Y263000D01*
X1315779Y146408D02*
X1343293Y118894D01*
D64*
X503000Y296992D02*
X534000Y327992D01*
Y457000D01*
X431198Y86814D02*
X441500Y97116D01*
X503000Y269000D02*
Y296992D01*
X42000Y85000D02*
X134000D01*
X29463Y116479D02*
X69500D01*
X8219D02*
X29463D01*
Y97537D02*
X42000Y85000D01*
X29463Y97537D02*
Y116479D01*
X332517Y85000D02*
X392667D01*
X288000D02*
X332517D01*
Y91000D01*
X426143Y86814D02*
X431198D01*
X424329Y85000D02*
X426143Y86814D01*
X431198D02*
X433421Y84592D01*
X451500Y163934D02*
X455000Y160433D01*
Y100021D02*
Y160433D01*
X444500Y89521D02*
X455000Y100021D01*
X441500Y126757D02*
Y164000D01*
X441400Y126657D02*
X441500Y126757D01*
X441400Y123343D02*
Y126657D01*
Y123343D02*
X441500Y123243D01*
Y97116D02*
Y123243D01*
X512500Y37077D02*
Y47000D01*
X511500Y48000D02*
X512500Y47000D01*
X130000Y53450D02*
X220903D01*
X85231D02*
X130000D01*
X129000Y22200D02*
X216983D01*
X89150D02*
X129000D01*
Y52450D02*
X130000Y53450D01*
X129000Y22200D02*
Y52450D01*
X431457Y18703D02*
X450000Y37246D01*
Y88657D02*
X467000Y105657D01*
X450000Y37246D02*
Y88657D01*
X406365Y51051D02*
X444500D01*
Y89521D01*
Y43900D02*
Y51051D01*
X512000Y47500D02*
X517950Y53450D01*
X540369D01*
X444117Y43517D02*
X444500Y43900D01*
X444117Y37727D02*
Y43517D01*
X220903Y53450D02*
X226753Y59300D01*
X392667Y85000D02*
X424329D01*
X392667D02*
Y96877D01*
X288000Y85000D02*
Y91000D01*
X170000Y85000D02*
Y90000D01*
X134000Y85000D02*
Y90000D01*
Y85000D02*
X170000D01*
X223000D01*
X288000D01*
X223000D02*
Y90303D01*
X451500Y191499D02*
X467000Y175999D01*
X4000Y112260D02*
X8219Y116479D01*
X238383Y32700D02*
X252380Y18703D01*
X216983Y22200D02*
X227483Y32700D01*
X238383D01*
X78650D02*
X89150Y22200D01*
X67750Y32700D02*
X78650D01*
X226753Y59300D02*
X238383D01*
X67750D02*
X79381D01*
X85231Y53450D01*
X546219Y32700D02*
X557850D01*
X522727Y26850D02*
X540369D01*
X512500Y37077D02*
X522727Y26850D01*
X540369D02*
X546219Y32700D01*
Y59300D02*
X557850D01*
X540369Y53450D02*
X546219Y59300D01*
X483014Y48000D02*
X511500D01*
X404697Y26850D02*
X433240D01*
X444117Y37727D01*
X398117Y59300D02*
X406365Y51051D01*
X387217Y59300D02*
X398117D01*
X398847Y32700D02*
X404697Y26850D01*
X387217Y32700D02*
X398847D01*
X252380Y18703D02*
X431457D01*
X467000Y105657D02*
Y175999D01*
X451500Y163934D02*
Y164000D01*
D116*
X540524Y486145D02*
D03*
X1413000Y357390D02*
D03*
X1566000Y456193D02*
D03*
X1472500Y436000D02*
D03*
X951842Y381889D02*
D03*
X926000Y393653D02*
D03*
X403500Y217000D02*
D03*
X1668000Y266975D02*
D03*
X1675000Y228500D02*
D03*
X715000Y355035D02*
D03*
X859000Y181000D02*
D03*
X910235Y86347D02*
D03*
X906500Y49500D02*
D03*
X1683500Y128000D02*
D03*
X420935Y142131D02*
D03*
X434374Y140000D02*
D03*
X433421Y84592D02*
D03*
X406850Y106000D02*
D03*
X1345000Y457000D02*
D03*
X570279Y124049D02*
D03*
X66636Y150789D02*
D03*
X120600Y161976D02*
D03*
X392667Y96877D02*
D03*
X332517Y91000D02*
D03*
X288000D02*
D03*
X170000Y90000D02*
D03*
X134000D02*
D03*
X42331Y190760D02*
D03*
X1614000Y266000D02*
D03*
X1344840Y372000D02*
D03*
X1303000Y395500D02*
D03*
X1247000Y249500D02*
D03*
X1251000Y253000D02*
D03*
X58000Y176000D02*
D03*
X373909Y105331D02*
D03*
X436500Y123500D02*
D03*
X203000Y125000D02*
D03*
X516380Y177000D02*
D03*
X469345Y181000D02*
D03*
X505400Y185000D02*
D03*
X1688000Y165154D02*
D03*
X1611750Y167250D02*
D03*
X189620Y130500D02*
D03*
X238154D02*
D03*
X247000Y102000D02*
D03*
X87000Y103667D02*
D03*
X632500Y107800D02*
D03*
X570000Y85900D02*
D03*
X496000D02*
D03*
X457000Y90000D02*
D03*
X479500Y85900D02*
D03*
X223000Y90303D02*
D03*
X69500Y116479D02*
D03*
X37000Y103667D02*
D03*
X4000Y112260D02*
D03*
X91760Y124000D02*
D03*
X156000Y168202D02*
D03*
X391094Y205405D02*
D03*
X388000Y174000D02*
D03*
X649498Y186500D02*
D03*
X525000Y149714D02*
D03*
X238000Y165000D02*
D03*
X185500Y160458D02*
D03*
X594998Y143760D02*
D03*
X386554Y137000D02*
D03*
X74654Y129347D02*
D03*
X121331Y130331D02*
D03*
X41153Y133587D02*
D03*
X431191Y143760D02*
D03*
X1443000Y69800D02*
D03*
X1563000Y45000D02*
D03*
X1678500Y146500D02*
D03*
X576000Y161535D02*
D03*
X357000Y213712D02*
D03*
X878000Y195000D02*
D03*
X862706Y186000D02*
D03*
X875531Y188000D02*
D03*
X870528D02*
D03*
X867153Y186000D02*
D03*
X862500Y176500D02*
D03*
X873207Y195091D02*
D03*
X898000Y204000D02*
D03*
X529972Y129087D02*
D03*
X519500Y121500D02*
D03*
X504000Y97500D02*
D03*
X521321Y89569D02*
D03*
X566153Y90847D02*
D03*
X576500Y129500D02*
D03*
X202884Y143760D02*
D03*
X303831Y176260D02*
D03*
X498331Y172774D02*
D03*
X615831Y186496D02*
D03*
X1645000Y420832D02*
D03*
X1651500Y421500D02*
D03*
X752000Y95702D02*
D03*
X1367786Y105000D02*
D03*
X1396500D02*
D03*
X1330500Y81000D02*
D03*
X1326500Y85000D02*
D03*
X1325500Y101000D02*
D03*
X291441Y293000D02*
D03*
X381600Y265500D02*
D03*
X278000D02*
D03*
X336800D02*
D03*
X883302Y377067D02*
D03*
X871500Y355847D02*
D03*
X896702Y360000D02*
D03*
X897002Y347000D02*
D03*
X971688Y360000D02*
D03*
Y350000D02*
D03*
X1676000Y473307D02*
D03*
X1524500D02*
D03*
X1635500Y468500D02*
D03*
X1481000D02*
D03*
X1485642Y425342D02*
D03*
X1516000Y417000D02*
D03*
X1464500D02*
D03*
X1676500Y403500D02*
D03*
X1636000D02*
D03*
X1611000Y410307D02*
D03*
X1317000Y403000D02*
D03*
X1200500Y188700D02*
D03*
X764500Y116500D02*
D03*
X270331Y173260D02*
D03*
X1619500Y455000D02*
D03*
X1472500Y448000D02*
D03*
X1621847Y432927D02*
D03*
X1472500Y404859D02*
D03*
Y395000D02*
D03*
X787500Y301500D02*
D03*
X1293500Y134500D02*
D03*
X1251000Y135000D02*
D03*
X1208000D02*
D03*
X1139000Y130500D02*
D03*
X1275000Y103500D02*
D03*
X1186500Y117500D02*
D03*
X1160500Y100425D02*
D03*
X765500Y136500D02*
D03*
X788500Y286000D02*
D03*
X922500Y49500D02*
D03*
X914500D02*
D03*
X1196000Y190000D02*
D03*
X894000Y444000D02*
D03*
X893311Y301500D02*
D03*
X862500Y343500D02*
D03*
Y303000D02*
D03*
X1619500Y146500D02*
D03*
X1405000Y165500D02*
D03*
X1409500Y144500D02*
D03*
Y129000D02*
D03*
X1678500Y247500D02*
D03*
X1619500D02*
D03*
X1361000Y165500D02*
D03*
X1413500Y144500D02*
D03*
Y129000D02*
D03*
X1555163Y317000D02*
D03*
Y259500D02*
D03*
X1464163Y317000D02*
D03*
Y259500D02*
D03*
X1405000Y138500D02*
D03*
X1555163Y202000D02*
D03*
Y144500D02*
D03*
X1464163Y202000D02*
D03*
Y144500D02*
D03*
X1361000Y138500D02*
D03*
X1697000Y287000D02*
D03*
Y231000D02*
D03*
X1684000Y193000D02*
D03*
X1614500Y127500D02*
D03*
X1363000Y105000D02*
D03*
X1614500Y193000D02*
D03*
X1583500Y351000D02*
D03*
Y343500D02*
D03*
X1596000Y193000D02*
D03*
X1386500Y345000D02*
D03*
X1560163Y217500D02*
D03*
X1469163D02*
D03*
Y225500D02*
D03*
X1475500Y178500D02*
D03*
X1560163Y160000D02*
D03*
X1469163D02*
D03*
X1403500Y189500D02*
D03*
X1457500Y178500D02*
D03*
X1428000D02*
D03*
X1421500D02*
D03*
X1391714Y105000D02*
D03*
X1515663Y217000D02*
D03*
Y159500D02*
D03*
X1464500Y222000D02*
D03*
X1457500D02*
D03*
X1424663Y217000D02*
D03*
X1386500Y198000D02*
D03*
X1424663Y159500D02*
D03*
X1515663Y332000D02*
D03*
Y274500D02*
D03*
X1424663Y332000D02*
D03*
Y274500D02*
D03*
X1386500Y247000D02*
D03*
X1386928Y105000D02*
D03*
X1560163Y332500D02*
D03*
X1469200Y340100D02*
D03*
X1469163Y332500D02*
D03*
X1560163Y275000D02*
D03*
X1469163D02*
D03*
X1398000Y265500D02*
D03*
X1382143Y105000D02*
D03*
X1684000Y294000D02*
D03*
X1408500Y303000D02*
D03*
X1614500Y228500D02*
D03*
X1372571Y105000D02*
D03*
X1614500Y294000D02*
D03*
X1510500Y294500D02*
D03*
X1482516D02*
D03*
X1418000Y293000D02*
D03*
X1386500Y296000D02*
D03*
X1377357Y105000D02*
D03*
X1387500Y323500D02*
D03*
X1360500D02*
D03*
X1387500Y274500D02*
D03*
X1360500D02*
D03*
X1387500Y225500D02*
D03*
X1360500D02*
D03*
X923846Y268500D02*
D03*
X1660000Y468000D02*
D03*
X1673153Y414308D02*
D03*
Y466051D02*
D03*
X1509000Y468500D02*
D03*
X1522000Y415500D02*
D03*
X1520154Y467433D02*
D03*
X1501390Y421500D02*
D03*
X1494000Y422500D02*
D03*
X1203000Y103500D02*
D03*
X1246000D02*
D03*
X1251000D02*
D03*
X1208000D02*
D03*
X1379000Y165500D02*
D03*
X1335000D02*
D03*
Y138500D02*
D03*
X803000Y104000D02*
D03*
X833500D02*
D03*
X805000Y122500D02*
D03*
X824000Y55000D02*
D03*
Y42000D02*
D03*
X1379000Y138500D02*
D03*
X1360500Y176500D02*
D03*
X1387500D02*
D03*
X931000Y11500D02*
D03*
X88731Y143760D02*
D03*
X138384D02*
D03*
X252538D02*
D03*
X317038D02*
D03*
X366691D02*
D03*
X545345D02*
D03*
X659498D02*
D03*
D119*
X428720Y140000D02*
X434374D01*
X426589Y142131D02*
X428720Y140000D01*
X420935Y142131D02*
X426589D01*
D124*
X1649016Y74300D02*
D03*
X1664016Y64300D02*
D03*
X1674016Y90284D02*
D03*
X1659016Y100284D02*
D03*
X1604016D02*
D03*
X1619016Y90284D02*
D03*
X1609016Y64300D02*
D03*
X1594016Y74300D02*
D03*
X1549016Y100284D02*
D03*
X1564016Y90284D02*
D03*
X1539016Y74300D02*
D03*
X1494016Y100284D02*
D03*
X1509016Y90284D02*
D03*
X1484016Y74300D02*
D03*
X136000Y333853D02*
D03*
X1228500Y466777D02*
D03*
X461500Y191499D02*
D03*
X451500D02*
D03*
X567000Y172000D02*
D03*
X566983Y185000D02*
D03*
X556983D02*
D03*
X546983D02*
D03*
X1300500Y278000D02*
D03*
Y288000D02*
D03*
Y298000D02*
D03*
Y308000D02*
D03*
Y233000D02*
D03*
Y243000D02*
D03*
Y253000D02*
D03*
Y263000D02*
D03*
X449000Y315917D02*
D03*
X55000Y333853D02*
D03*
X441500Y164000D02*
D03*
X451500D02*
D03*
X461500D02*
D03*
X1210000Y171500D02*
D03*
X1200000D02*
D03*
X1190000D02*
D03*
X1238500Y158500D02*
D03*
X1210000D02*
D03*
X1200000D02*
D03*
X1190000D02*
D03*
X1238500Y171500D02*
D03*
X1417500Y68000D02*
D03*
X974500Y12760D02*
D03*
X534000Y457000D02*
D03*
X503000Y269000D02*
D03*
X483014Y48000D02*
D03*
X444500Y43900D02*
D03*
D128*
X1042500Y16000D02*
D03*
D129*
X743100Y19303D02*
D03*
X683900Y29303D02*
D03*
D132*
X991500Y36000D02*
D03*
X1001500D02*
D03*
X1011500D02*
D03*
D133*
X557850Y32700D02*
D03*
X546950D02*
D03*
Y59300D02*
D03*
X557850D02*
D03*
X398117Y32700D02*
D03*
X387217D02*
D03*
Y59300D02*
D03*
X398117D02*
D03*
X238383Y32700D02*
D03*
X227483D02*
D03*
Y59300D02*
D03*
X238383D02*
D03*
X78650Y32700D02*
D03*
X67750D02*
D03*
Y59300D02*
D03*
X78650D02*
D03*
X1216050Y32800D02*
D03*
Y59400D02*
D03*
D139*
X1408500Y403000D02*
D03*
Y395500D02*
D03*
M02*
