G04*
G04 #@! TF.GenerationSoftware,Altium Limited,Altium Designer,18.0.12 (696)*
G04*
G04 Layer_Color=8388736*
%FSLAX25Y25*%
%MOIN*%
G70*
G01*
G75*
%ADD44R,0.03937X0.05906*%
%ADD45R,0.02362X0.01968*%
%ADD47R,0.01200X0.03200*%
%ADD48R,0.03200X0.01200*%
%ADD64C,0.04000*%
%ADD65R,0.49713X0.12902*%
%ADD66R,0.14000X0.08000*%
%ADD67R,0.09500X0.08000*%
%ADD68R,0.08000X0.14000*%
%ADD69R,0.04437X0.06799*%
%ADD70R,0.06799X0.04437*%
%ADD71R,0.04240X0.04240*%
%ADD72R,0.04240X0.04240*%
%ADD73R,0.02153X0.04000*%
%ADD74R,0.04437X0.12311*%
%ADD75R,0.05500X0.08768*%
%ADD76R,0.02075X0.05303*%
%ADD77O,0.02862X0.09161*%
%ADD78R,0.11130X0.11130*%
%ADD79R,0.02941X0.05303*%
%ADD80R,0.21693X0.25787*%
%ADD81R,0.12311X0.14279*%
%ADD82R,0.14279X0.12311*%
%ADD83R,0.08500X0.02500*%
%ADD84R,0.02500X0.08500*%
%ADD85O,0.02862X0.08374*%
%ADD86R,0.02075X0.05815*%
%ADD87R,0.06209X0.02665*%
%ADD88R,0.06209X0.02665*%
%ADD89R,0.05618X0.02862*%
%ADD90R,0.06799X0.06012*%
%ADD91R,0.09555X0.05618*%
%ADD92R,0.07587X0.07980*%
%ADD93R,0.02862X0.05618*%
%ADD94R,0.01681X0.06799*%
%ADD95O,0.07390X0.01681*%
%ADD96R,0.06799X0.06799*%
%ADD97C,0.06799*%
%ADD98C,0.13295*%
%ADD99C,0.06500*%
%ADD100C,0.09358*%
%ADD101C,0.09949*%
%ADD102C,0.08700*%
%ADD103C,0.05500*%
%ADD104C,0.07500*%
%ADD105C,0.13300*%
%ADD106C,0.30500*%
%ADD107C,0.04437*%
%ADD108C,0.07200*%
%ADD109C,0.16500*%
%ADD110C,0.16248*%
%ADD111C,0.05098*%
%ADD112C,0.03500*%
%ADD113C,0.17500*%
%ADD114C,0.08374*%
%ADD115C,0.04500*%
%ADD116C,0.03000*%
D44*
X930878Y19390D02*
D03*
Y5610D02*
D03*
X936390Y19390D02*
D03*
Y5610D02*
D03*
X930878D02*
D03*
D45*
X1044000Y104744D02*
D03*
Y110256D02*
D03*
D47*
X1656327Y430103D02*
D03*
X1654358D02*
D03*
X1652390D02*
D03*
X1650421D02*
D03*
X1648453D02*
D03*
X1646484D02*
D03*
X1644516D02*
D03*
X1642547D02*
D03*
X1640579D02*
D03*
X1638610D02*
D03*
X1636642D02*
D03*
X1634673D02*
D03*
Y461203D02*
D03*
X1636642D02*
D03*
X1638610D02*
D03*
X1640579D02*
D03*
X1642547D02*
D03*
X1644516D02*
D03*
X1646484D02*
D03*
X1648453D02*
D03*
X1650421D02*
D03*
X1652390D02*
D03*
X1654358D02*
D03*
X1656327D02*
D03*
X1505327Y430103D02*
D03*
X1503358D02*
D03*
X1501390D02*
D03*
X1499421D02*
D03*
X1497453D02*
D03*
X1495484D02*
D03*
X1493516D02*
D03*
X1491547D02*
D03*
X1489579D02*
D03*
X1487610D02*
D03*
X1485642D02*
D03*
X1483673D02*
D03*
Y461203D02*
D03*
X1485642D02*
D03*
X1487610D02*
D03*
X1489579D02*
D03*
X1491547D02*
D03*
X1493516D02*
D03*
X1495484D02*
D03*
X1497453D02*
D03*
X1499421D02*
D03*
X1501390D02*
D03*
X1503358D02*
D03*
X1505327D02*
D03*
D48*
X1631900Y432858D02*
D03*
Y434827D02*
D03*
Y436795D02*
D03*
Y438764D02*
D03*
Y440732D02*
D03*
Y442701D02*
D03*
Y444669D02*
D03*
Y446638D02*
D03*
Y448606D02*
D03*
Y450575D02*
D03*
Y452543D02*
D03*
Y454512D02*
D03*
Y456480D02*
D03*
Y458449D02*
D03*
X1659100D02*
D03*
Y456480D02*
D03*
Y454512D02*
D03*
Y452543D02*
D03*
Y450575D02*
D03*
Y448606D02*
D03*
Y446638D02*
D03*
Y444669D02*
D03*
Y442701D02*
D03*
Y440732D02*
D03*
Y438764D02*
D03*
Y436795D02*
D03*
Y434827D02*
D03*
Y432858D02*
D03*
X1480900D02*
D03*
Y434827D02*
D03*
Y436795D02*
D03*
Y438764D02*
D03*
Y440732D02*
D03*
Y442701D02*
D03*
Y444669D02*
D03*
Y446638D02*
D03*
Y448606D02*
D03*
Y450575D02*
D03*
Y452543D02*
D03*
Y454512D02*
D03*
Y456480D02*
D03*
Y458449D02*
D03*
X1508100D02*
D03*
Y456480D02*
D03*
Y454512D02*
D03*
Y452543D02*
D03*
Y450575D02*
D03*
Y448606D02*
D03*
Y446638D02*
D03*
Y444669D02*
D03*
Y442701D02*
D03*
Y440732D02*
D03*
Y438764D02*
D03*
Y436795D02*
D03*
Y434827D02*
D03*
Y432858D02*
D03*
D64*
X1116897Y336533D02*
Y322538D01*
X1123895D01*
X1126227Y324870D01*
Y334201D01*
X1123895Y336533D01*
X1116897D01*
X1116564Y342205D02*
Y356200D01*
X1121229Y351535D01*
X1125894Y356200D01*
Y342205D01*
X1126227Y314534D02*
X1123895Y316867D01*
X1119230D01*
X1116897Y314534D01*
Y305204D01*
X1119230Y302871D01*
X1123895D01*
X1126227Y305204D01*
X1116564Y361871D02*
Y371202D01*
X1121229Y375867D01*
X1125894Y371202D01*
Y361871D01*
Y368869D01*
X1116564D01*
D65*
X251000Y511000D02*
D03*
Y450567D02*
D03*
D66*
X302038Y503795D02*
D03*
Y488299D02*
D03*
X364000Y503795D02*
D03*
Y488299D02*
D03*
X205683Y462700D02*
D03*
Y447203D02*
D03*
D67*
X92000Y401601D02*
D03*
Y386105D02*
D03*
X7000Y401601D02*
D03*
Y386105D02*
D03*
X104000Y401601D02*
D03*
Y386105D02*
D03*
X175000Y419748D02*
D03*
Y404252D02*
D03*
X308808Y413876D02*
D03*
Y398380D02*
D03*
X21000Y401601D02*
D03*
Y386105D02*
D03*
D68*
X50252Y450265D02*
D03*
X65748D02*
D03*
X130252D02*
D03*
X145748D02*
D03*
D69*
X1522000Y305228D02*
D03*
X1554016Y250000D02*
D03*
X1522000D02*
D03*
X1554016Y193000D02*
D03*
X1522000D02*
D03*
X1554016Y133000D02*
D03*
X1522000Y132711D02*
D03*
X1465199D02*
D03*
X1432000Y132260D02*
D03*
X1465199Y193000D02*
D03*
X1432000D02*
D03*
X1465199Y250894D02*
D03*
X1432000D02*
D03*
X1465199Y305228D02*
D03*
X1554016D02*
D03*
X1432000Y305000D02*
D03*
X1663500Y257000D02*
D03*
X1634500Y156000D02*
D03*
X1625000D02*
D03*
X1606000D02*
D03*
X1634500Y257000D02*
D03*
X1624500D02*
D03*
X1604500D02*
D03*
X1615500Y156000D02*
D03*
X1614500Y257000D02*
D03*
X1693500Y156000D02*
D03*
X1683500D02*
D03*
X1693500Y257000D02*
D03*
X1683500D02*
D03*
X1663500Y156000D02*
D03*
X1673500D02*
D03*
X1693000Y361000D02*
D03*
X1682631D02*
D03*
X1672263D02*
D03*
X1661894D02*
D03*
X1635000D02*
D03*
X1626000D02*
D03*
X1617000D02*
D03*
X1608000D02*
D03*
X1673500Y257000D02*
D03*
D70*
X1479900Y372307D02*
D03*
Y364871D02*
D03*
Y357436D02*
D03*
X1520106Y373000D02*
D03*
Y363000D02*
D03*
X1479900Y350000D02*
D03*
X1520106Y353000D02*
D03*
X1443293Y370214D02*
D03*
D71*
X917965Y86347D02*
D03*
Y79654D02*
D03*
X935000Y86347D02*
D03*
Y79654D02*
D03*
X176828Y382361D02*
D03*
Y389054D02*
D03*
Y374698D02*
D03*
Y368005D02*
D03*
X403481Y493901D02*
D03*
Y500594D02*
D03*
X156000Y388546D02*
D03*
Y381853D02*
D03*
Y368381D02*
D03*
Y375074D02*
D03*
X76000Y368381D02*
D03*
Y375074D02*
D03*
X906500Y4413D02*
D03*
Y11106D02*
D03*
X914500Y4413D02*
D03*
Y11106D02*
D03*
X922500Y4413D02*
D03*
Y11106D02*
D03*
X807626Y28311D02*
D03*
Y35004D02*
D03*
X809875Y97154D02*
D03*
Y103847D02*
D03*
X786500Y93654D02*
D03*
Y100347D02*
D03*
X810000Y116154D02*
D03*
Y122846D02*
D03*
X787000Y112654D02*
D03*
Y119346D02*
D03*
X763000Y27957D02*
D03*
Y34650D02*
D03*
X784500Y50846D02*
D03*
Y44153D02*
D03*
Y57153D02*
D03*
Y63846D02*
D03*
X1352000Y358846D02*
D03*
Y352153D02*
D03*
Y309846D02*
D03*
Y303153D02*
D03*
Y260846D02*
D03*
Y254153D02*
D03*
Y211846D02*
D03*
Y205153D02*
D03*
X1359000Y352153D02*
D03*
Y358846D02*
D03*
Y303153D02*
D03*
Y309846D02*
D03*
Y254153D02*
D03*
Y260846D02*
D03*
Y205153D02*
D03*
Y211846D02*
D03*
X1403000Y358846D02*
D03*
Y352153D02*
D03*
Y309846D02*
D03*
Y303153D02*
D03*
Y260846D02*
D03*
Y254153D02*
D03*
Y211846D02*
D03*
Y205153D02*
D03*
X1396000Y352153D02*
D03*
Y358846D02*
D03*
Y303153D02*
D03*
Y309846D02*
D03*
Y254153D02*
D03*
Y260846D02*
D03*
Y205153D02*
D03*
Y211846D02*
D03*
X76071Y381853D02*
D03*
Y388546D02*
D03*
X1131500Y116772D02*
D03*
Y110079D02*
D03*
X631000Y88928D02*
D03*
Y82235D02*
D03*
X311503Y88346D02*
D03*
Y81653D02*
D03*
X151476Y88859D02*
D03*
Y82166D02*
D03*
X1154737Y84592D02*
D03*
Y91285D02*
D03*
X748370Y112024D02*
D03*
Y105331D02*
D03*
X1312087Y54559D02*
D03*
Y61252D02*
D03*
X991500Y52106D02*
D03*
Y45413D02*
D03*
X1001500Y52106D02*
D03*
Y45413D02*
D03*
X1011500Y52106D02*
D03*
Y45413D02*
D03*
X958500Y52606D02*
D03*
Y45913D02*
D03*
X864060Y51327D02*
D03*
Y44634D02*
D03*
Y74827D02*
D03*
Y68134D02*
D03*
X864362Y98327D02*
D03*
Y91634D02*
D03*
X906500Y37413D02*
D03*
Y44106D02*
D03*
X914500Y37413D02*
D03*
Y44106D02*
D03*
X922500Y37413D02*
D03*
Y44106D02*
D03*
X1570500Y449500D02*
D03*
Y456193D02*
D03*
Y501847D02*
D03*
Y495154D02*
D03*
X1341000Y332154D02*
D03*
Y338846D02*
D03*
Y283154D02*
D03*
Y289846D02*
D03*
Y234154D02*
D03*
Y240846D02*
D03*
Y185153D02*
D03*
Y191847D02*
D03*
X1385000Y338846D02*
D03*
Y332154D02*
D03*
Y289846D02*
D03*
Y283154D02*
D03*
Y240846D02*
D03*
Y234154D02*
D03*
Y191847D02*
D03*
Y185153D02*
D03*
X1405000Y153894D02*
D03*
Y160587D02*
D03*
X1361000Y153894D02*
D03*
Y160587D02*
D03*
X1405000Y126894D02*
D03*
Y133587D02*
D03*
X1361000Y126894D02*
D03*
Y133587D02*
D03*
X1379000Y153894D02*
D03*
Y160587D02*
D03*
X1335000Y153894D02*
D03*
Y160587D02*
D03*
X1379000Y126894D02*
D03*
Y133587D02*
D03*
X1335000Y126894D02*
D03*
Y133587D02*
D03*
X1293500Y123653D02*
D03*
Y130347D02*
D03*
Y114847D02*
D03*
Y108153D02*
D03*
X1280500Y123653D02*
D03*
Y130347D02*
D03*
X1280559Y114847D02*
D03*
Y108153D02*
D03*
X1238000Y123653D02*
D03*
Y130347D02*
D03*
Y114847D02*
D03*
Y108153D02*
D03*
X1251000Y123653D02*
D03*
Y130347D02*
D03*
Y114847D02*
D03*
Y108153D02*
D03*
X1195000Y123653D02*
D03*
Y130347D02*
D03*
X1208000Y114847D02*
D03*
Y108153D02*
D03*
Y123653D02*
D03*
Y130347D02*
D03*
X1195000Y114847D02*
D03*
Y108153D02*
D03*
X1337500Y78820D02*
D03*
Y85512D02*
D03*
X1344000Y78820D02*
D03*
Y85512D02*
D03*
X966500Y45913D02*
D03*
Y52606D02*
D03*
X859000Y15653D02*
D03*
Y22346D02*
D03*
X1656500Y410307D02*
D03*
Y417000D02*
D03*
X1663500Y410307D02*
D03*
Y417000D02*
D03*
X1642500Y410307D02*
D03*
Y417000D02*
D03*
X1649500Y410307D02*
D03*
Y417000D02*
D03*
X1628500Y480000D02*
D03*
Y473307D02*
D03*
Y410307D02*
D03*
Y417000D02*
D03*
X1621500Y410307D02*
D03*
Y417000D02*
D03*
X1635500Y480000D02*
D03*
Y473307D02*
D03*
X1642500Y480000D02*
D03*
Y473307D02*
D03*
X1635500Y410307D02*
D03*
Y417000D02*
D03*
X1663500Y480000D02*
D03*
Y473307D02*
D03*
X1670500Y480000D02*
D03*
Y473307D02*
D03*
X1656500Y480000D02*
D03*
Y473307D02*
D03*
X1649500Y480000D02*
D03*
Y473307D02*
D03*
X1477500Y480000D02*
D03*
Y473307D02*
D03*
X1483500Y410307D02*
D03*
Y417000D02*
D03*
X1504500Y410307D02*
D03*
Y417000D02*
D03*
X1511500Y410307D02*
D03*
Y417000D02*
D03*
X1490500Y410307D02*
D03*
Y417000D02*
D03*
X1497500Y410307D02*
D03*
Y417000D02*
D03*
X1469500Y410307D02*
D03*
Y417000D02*
D03*
X1476500Y410307D02*
D03*
Y417000D02*
D03*
X1498500Y480000D02*
D03*
Y473307D02*
D03*
X1505500Y480000D02*
D03*
Y473307D02*
D03*
X1519500Y480000D02*
D03*
Y473307D02*
D03*
X1512500Y480000D02*
D03*
Y473307D02*
D03*
X1484500Y480000D02*
D03*
Y473307D02*
D03*
X1491500Y480000D02*
D03*
Y473307D02*
D03*
D72*
X894347Y94036D02*
D03*
X887654D02*
D03*
X893308Y70822D02*
D03*
X886615D02*
D03*
X893980Y47500D02*
D03*
X887287D02*
D03*
X1692693Y121000D02*
D03*
X1686000D02*
D03*
X396951Y514012D02*
D03*
X390258D02*
D03*
X390435Y508512D02*
D03*
X383742D02*
D03*
X403481D02*
D03*
X396788D02*
D03*
X835347Y55000D02*
D03*
X828654D02*
D03*
X835347Y62500D02*
D03*
X828654D02*
D03*
Y47500D02*
D03*
X835347D02*
D03*
X801153Y75000D02*
D03*
X807847D02*
D03*
X835347Y40000D02*
D03*
X828654D02*
D03*
X757654Y112000D02*
D03*
X764347D02*
D03*
X754153Y136500D02*
D03*
X760847D02*
D03*
X464500Y82000D02*
D03*
X471193D02*
D03*
X801280Y50657D02*
D03*
X807973D02*
D03*
X801280Y62657D02*
D03*
X807973D02*
D03*
X757154Y80000D02*
D03*
X763846D02*
D03*
Y91500D02*
D03*
X757154D02*
D03*
X1348654Y323500D02*
D03*
X1355346D02*
D03*
X1348654Y274500D02*
D03*
X1355346D02*
D03*
X1348654Y225500D02*
D03*
X1355346D02*
D03*
X1348654Y176500D02*
D03*
X1355346D02*
D03*
X1392653Y323500D02*
D03*
X1399347D02*
D03*
X1392653Y274500D02*
D03*
X1399347D02*
D03*
X1392653Y225500D02*
D03*
X1399347D02*
D03*
X1392653Y176500D02*
D03*
X1399347D02*
D03*
X536665Y141623D02*
D03*
X529972D02*
D03*
X398748Y137167D02*
D03*
X392055D02*
D03*
X196235Y142667D02*
D03*
X189542D02*
D03*
X81346D02*
D03*
X74654D02*
D03*
X528014Y101667D02*
D03*
X521321D02*
D03*
X364054D02*
D03*
X357361D02*
D03*
X210347D02*
D03*
X203654D02*
D03*
X47846Y103667D02*
D03*
X41153D02*
D03*
X585100Y141623D02*
D03*
X578407D02*
D03*
X445400Y137167D02*
D03*
X438707D02*
D03*
X244847Y142667D02*
D03*
X238154D02*
D03*
X128024Y142456D02*
D03*
X121331D02*
D03*
X572847Y101667D02*
D03*
X566153D02*
D03*
X424061D02*
D03*
X417369D02*
D03*
X259270D02*
D03*
X252577D02*
D03*
X98847Y103667D02*
D03*
X92154D02*
D03*
X536665Y155956D02*
D03*
X529972D02*
D03*
X398748Y151500D02*
D03*
X392055D02*
D03*
X196235Y157000D02*
D03*
X189542D02*
D03*
X81346D02*
D03*
X74654D02*
D03*
X528014Y116000D02*
D03*
X521321D02*
D03*
X364054D02*
D03*
X357361D02*
D03*
X210347D02*
D03*
X203654D02*
D03*
X47846Y118000D02*
D03*
X41153D02*
D03*
X585100Y155956D02*
D03*
X578407D02*
D03*
X445400Y151500D02*
D03*
X438707D02*
D03*
X244847Y157000D02*
D03*
X238154D02*
D03*
X128024Y156789D02*
D03*
X121331D02*
D03*
X572847Y116000D02*
D03*
X566153D02*
D03*
X424061D02*
D03*
X417369D02*
D03*
X259270D02*
D03*
X252577D02*
D03*
X98847Y118000D02*
D03*
X92154D02*
D03*
X536665Y134456D02*
D03*
X529972D02*
D03*
X398748Y130000D02*
D03*
X392055D02*
D03*
X196235Y135500D02*
D03*
X189542D02*
D03*
X81346D02*
D03*
X74654D02*
D03*
X528014Y94500D02*
D03*
X521321D02*
D03*
X364054D02*
D03*
X357361D02*
D03*
X210347D02*
D03*
X203654D02*
D03*
X47846Y96500D02*
D03*
X41153D02*
D03*
X585100Y134456D02*
D03*
X578407D02*
D03*
X445400Y130000D02*
D03*
X438707D02*
D03*
X244847Y135500D02*
D03*
X238154D02*
D03*
X128024Y135289D02*
D03*
X121331D02*
D03*
X572847Y94500D02*
D03*
X566153D02*
D03*
X424061D02*
D03*
X417369D02*
D03*
X259270D02*
D03*
X252577D02*
D03*
X98847Y96500D02*
D03*
X92154D02*
D03*
X536665Y148789D02*
D03*
X529972D02*
D03*
X398748Y144333D02*
D03*
X392055D02*
D03*
X196235Y149833D02*
D03*
X189542D02*
D03*
X81346D02*
D03*
X74654D02*
D03*
X528014Y108833D02*
D03*
X521321D02*
D03*
X364054D02*
D03*
X357361D02*
D03*
X210347D02*
D03*
X203654D02*
D03*
X47846Y110833D02*
D03*
X41153D02*
D03*
X585100Y148789D02*
D03*
X578407D02*
D03*
X445400Y144333D02*
D03*
X438707D02*
D03*
X244847Y149833D02*
D03*
X238154D02*
D03*
X128024Y149623D02*
D03*
X121331D02*
D03*
X572847Y108833D02*
D03*
X566153D02*
D03*
X424061D02*
D03*
X417369D02*
D03*
X259270D02*
D03*
X252577D02*
D03*
X98847Y110833D02*
D03*
X92154D02*
D03*
X1316075Y91524D02*
D03*
X1322768D02*
D03*
X1336347D02*
D03*
X1329653D02*
D03*
X1679847Y440204D02*
D03*
X1673153D02*
D03*
X1679847Y419204D02*
D03*
X1673153D02*
D03*
X1679847Y426203D02*
D03*
X1673153D02*
D03*
X1679847Y447203D02*
D03*
X1673153D02*
D03*
X1615154Y437580D02*
D03*
X1621847D02*
D03*
X1679847Y454204D02*
D03*
X1673153D02*
D03*
X1679847Y461203D02*
D03*
X1673153D02*
D03*
X1679847Y433204D02*
D03*
X1673153D02*
D03*
X1615154Y450654D02*
D03*
X1621847D02*
D03*
X1526847Y441500D02*
D03*
X1520154D02*
D03*
X1526847Y448654D02*
D03*
X1520154D02*
D03*
X1526847Y434500D02*
D03*
X1520154D02*
D03*
X1461154Y438654D02*
D03*
X1467846D02*
D03*
X1526847Y455500D02*
D03*
X1520154D02*
D03*
X1526847Y420653D02*
D03*
X1520154D02*
D03*
X1461154Y448654D02*
D03*
X1467846D02*
D03*
X1526847Y462653D02*
D03*
X1520154D02*
D03*
X1526847Y427579D02*
D03*
X1520154D02*
D03*
D73*
X425876Y149287D02*
D03*
X428435D02*
D03*
X430995D02*
D03*
X425876Y132711D02*
D03*
X428435D02*
D03*
X430995D02*
D03*
X433554D02*
D03*
Y149287D02*
D03*
X379224D02*
D03*
X381783D02*
D03*
X384343D02*
D03*
X379224Y132711D02*
D03*
X381783D02*
D03*
X384343D02*
D03*
X386902D02*
D03*
Y149287D02*
D03*
X61823Y154787D02*
D03*
X64382D02*
D03*
X66941D02*
D03*
X61823Y138211D02*
D03*
X64382D02*
D03*
X66941D02*
D03*
X69500D02*
D03*
Y154787D02*
D03*
X524818Y153743D02*
D03*
Y137167D02*
D03*
X522259D02*
D03*
X519700D02*
D03*
X517141D02*
D03*
X522259Y153743D02*
D03*
X519700D02*
D03*
X517141D02*
D03*
X184388Y154787D02*
D03*
Y138211D02*
D03*
X181829D02*
D03*
X179270D02*
D03*
X176711D02*
D03*
X181829Y154787D02*
D03*
X179270D02*
D03*
X176711D02*
D03*
X516168Y113787D02*
D03*
Y97211D02*
D03*
X513609D02*
D03*
X511050D02*
D03*
X508491D02*
D03*
X513609Y113787D02*
D03*
X511050D02*
D03*
X508491D02*
D03*
X352207D02*
D03*
Y97211D02*
D03*
X349648D02*
D03*
X347089D02*
D03*
X344530D02*
D03*
X349648Y113787D02*
D03*
X347089D02*
D03*
X344530D02*
D03*
X198500D02*
D03*
Y97211D02*
D03*
X195941D02*
D03*
X193382D02*
D03*
X190823D02*
D03*
X195941Y113787D02*
D03*
X193382D02*
D03*
X190823D02*
D03*
X36000Y115787D02*
D03*
Y99211D02*
D03*
X33441D02*
D03*
X30882D02*
D03*
X28323D02*
D03*
X33441Y115787D02*
D03*
X30882D02*
D03*
X28323D02*
D03*
X573253Y153743D02*
D03*
Y137167D02*
D03*
X570694D02*
D03*
X568135D02*
D03*
X565576D02*
D03*
X570694Y153743D02*
D03*
X568135D02*
D03*
X565576D02*
D03*
X233000Y154787D02*
D03*
Y138211D02*
D03*
X230441D02*
D03*
X227882D02*
D03*
X225323D02*
D03*
X230441Y154787D02*
D03*
X227882D02*
D03*
X225323D02*
D03*
X116177Y154577D02*
D03*
Y138000D02*
D03*
X113618D02*
D03*
X111059D02*
D03*
X108500D02*
D03*
X113618Y154577D02*
D03*
X111059D02*
D03*
X108500D02*
D03*
X561000Y113787D02*
D03*
Y97211D02*
D03*
X558441D02*
D03*
X555882D02*
D03*
X553323D02*
D03*
X558441Y113787D02*
D03*
X555882D02*
D03*
X553323D02*
D03*
X412215D02*
D03*
Y97211D02*
D03*
X409656D02*
D03*
X407097D02*
D03*
X404538D02*
D03*
X409656Y113787D02*
D03*
X407097D02*
D03*
X404538D02*
D03*
X247424D02*
D03*
Y97211D02*
D03*
X244865D02*
D03*
X242305D02*
D03*
X239746D02*
D03*
X244865Y113787D02*
D03*
X242305D02*
D03*
X239746D02*
D03*
X87000Y115787D02*
D03*
Y99211D02*
D03*
X84441D02*
D03*
X81882D02*
D03*
X79323D02*
D03*
X84441Y115787D02*
D03*
X81882D02*
D03*
X79323D02*
D03*
X1274177Y127288D02*
D03*
Y110712D02*
D03*
X1271618D02*
D03*
X1269059D02*
D03*
X1266500D02*
D03*
X1271618Y127288D02*
D03*
X1269059D02*
D03*
X1266500D02*
D03*
X1229598D02*
D03*
Y110712D02*
D03*
X1227039D02*
D03*
X1224480D02*
D03*
X1221921D02*
D03*
X1227039Y127288D02*
D03*
X1224480D02*
D03*
X1221921D02*
D03*
D74*
X338885Y398648D02*
D03*
Y419317D02*
D03*
D75*
X1615429Y238172D02*
D03*
X1599858D02*
D03*
X1639000Y238000D02*
D03*
X1623429D02*
D03*
X1673000Y238172D02*
D03*
X1657429D02*
D03*
X1680429D02*
D03*
X1696000D02*
D03*
X1694500Y134200D02*
D03*
X1678929D02*
D03*
X1656654Y134456D02*
D03*
X1672224D02*
D03*
X1623829Y133900D02*
D03*
X1639400D02*
D03*
X1617071D02*
D03*
X1601500D02*
D03*
X1545027D02*
D03*
X1529456D02*
D03*
X1456571Y133235D02*
D03*
X1441000D02*
D03*
X1545500Y194000D02*
D03*
X1529929D02*
D03*
X1456571D02*
D03*
X1441000D02*
D03*
X1530500Y251000D02*
D03*
X1546071D02*
D03*
X1456571D02*
D03*
X1441000D02*
D03*
X1439956Y306000D02*
D03*
X1455527D02*
D03*
X1530500D02*
D03*
X1546071D02*
D03*
D76*
X397523Y500012D02*
D03*
X394964D02*
D03*
X392404D02*
D03*
X389845D02*
D03*
Y489697D02*
D03*
X392404D02*
D03*
X394964D02*
D03*
X397523D02*
D03*
D77*
X386067Y454564D02*
D03*
X391067D02*
D03*
X396067D02*
D03*
X401067D02*
D03*
X386067Y473461D02*
D03*
X391067D02*
D03*
X396067D02*
D03*
X401067D02*
D03*
X1580525Y484949D02*
D03*
X1575525D02*
D03*
X1570525D02*
D03*
X1565525D02*
D03*
X1580525Y466051D02*
D03*
X1575525D02*
D03*
X1570525D02*
D03*
X1565525D02*
D03*
D78*
X347921Y482590D02*
D03*
X318000D02*
D03*
X347921Y506999D02*
D03*
X318000Y507090D02*
D03*
D79*
X1355740Y332343D02*
D03*
X1352000D02*
D03*
X1348260D02*
D03*
Y342657D02*
D03*
X1355740D02*
D03*
X1355740Y283343D02*
D03*
X1352000D02*
D03*
X1348260D02*
D03*
Y293657D02*
D03*
X1355740D02*
D03*
X1355740Y234343D02*
D03*
X1352000D02*
D03*
X1348260D02*
D03*
Y244657D02*
D03*
X1355740D02*
D03*
X1355740Y185343D02*
D03*
X1352000D02*
D03*
X1348260D02*
D03*
Y195658D02*
D03*
X1355740D02*
D03*
X1399740Y332343D02*
D03*
X1396000D02*
D03*
X1392260D02*
D03*
Y342657D02*
D03*
X1399740D02*
D03*
X1399740Y283343D02*
D03*
X1396000D02*
D03*
X1392260D02*
D03*
Y293657D02*
D03*
X1399740D02*
D03*
X1399740Y234343D02*
D03*
X1396000D02*
D03*
X1392260D02*
D03*
Y244657D02*
D03*
X1399740D02*
D03*
X1399740Y185343D02*
D03*
X1396000D02*
D03*
X1392260D02*
D03*
Y195658D02*
D03*
X1399740D02*
D03*
D80*
X1645500Y445653D02*
D03*
X1494500D02*
D03*
D81*
X1131272Y36000D02*
D03*
Y55685D02*
D03*
Y16315D02*
D03*
Y75370D02*
D03*
X1054500D02*
D03*
Y16315D02*
D03*
Y55685D02*
D03*
Y36000D02*
D03*
D82*
X1092886Y86197D02*
D03*
X1073201D02*
D03*
X1112571D02*
D03*
D83*
X699492Y310371D02*
D03*
Y304072D02*
D03*
Y294623D02*
D03*
X682169Y310371D02*
D03*
Y304072D02*
D03*
Y294623D02*
D03*
X699492Y345017D02*
D03*
Y335568D02*
D03*
Y319820D02*
D03*
X682169Y345017D02*
D03*
Y335568D02*
D03*
Y319820D02*
D03*
X699492Y367064D02*
D03*
Y360765D02*
D03*
Y351316D02*
D03*
X682169Y376513D02*
D03*
Y367064D02*
D03*
Y360765D02*
D03*
Y351316D02*
D03*
X699492Y408009D02*
D03*
Y398560D02*
D03*
Y392261D02*
D03*
Y382812D02*
D03*
X682169Y408009D02*
D03*
Y398560D02*
D03*
Y392261D02*
D03*
Y382812D02*
D03*
X699492Y439505D02*
D03*
Y423757D02*
D03*
Y414308D02*
D03*
X682169Y439505D02*
D03*
Y423757D02*
D03*
Y414308D02*
D03*
X699492Y448954D02*
D03*
X682169Y448954D02*
D03*
X699492Y300922D02*
D03*
Y297773D02*
D03*
X682169Y300922D02*
D03*
Y297773D02*
D03*
X699492Y307222D02*
D03*
X682169Y307222D02*
D03*
X699492Y316670D02*
D03*
Y313521D02*
D03*
X682169Y316670D02*
D03*
Y313521D02*
D03*
X699492Y326119D02*
D03*
Y322970D02*
D03*
X682169Y326119D02*
D03*
Y322970D02*
D03*
X699492Y332418D02*
D03*
Y329269D02*
D03*
X682169Y332418D02*
D03*
Y329269D02*
D03*
X699492Y341867D02*
D03*
Y338718D02*
D03*
X682169Y341867D02*
D03*
Y338718D02*
D03*
X699492Y348166D02*
D03*
X682169Y348166D02*
D03*
X699492Y357615D02*
D03*
Y354466D02*
D03*
X682169Y357615D02*
D03*
Y354466D02*
D03*
X699492Y363914D02*
D03*
X682169Y363915D02*
D03*
X699492Y370214D02*
D03*
X682169Y373363D02*
D03*
Y370214D02*
D03*
X699492Y379662D02*
D03*
X682169Y379663D02*
D03*
X699492Y389111D02*
D03*
Y385962D02*
D03*
X682169Y389111D02*
D03*
Y385962D02*
D03*
X699492Y395410D02*
D03*
X682169Y395411D02*
D03*
X699492Y404859D02*
D03*
Y401710D02*
D03*
X682169Y404859D02*
D03*
Y401710D02*
D03*
X699492Y411158D02*
D03*
X682169Y411159D02*
D03*
X699492Y420607D02*
D03*
Y417458D02*
D03*
X682169Y420608D02*
D03*
Y417458D02*
D03*
X699492Y430056D02*
D03*
Y426906D02*
D03*
X682169Y430056D02*
D03*
Y426907D02*
D03*
X699492Y436355D02*
D03*
Y433206D02*
D03*
X682169Y436355D02*
D03*
Y433206D02*
D03*
X699492Y445804D02*
D03*
Y442654D02*
D03*
X682169Y445804D02*
D03*
Y442655D02*
D03*
X699492Y376513D02*
D03*
Y373363D02*
D03*
D84*
X920697Y468000D02*
D03*
X923847D02*
D03*
X920697Y450677D02*
D03*
X923846D02*
D03*
X911248Y468000D02*
D03*
X914398D02*
D03*
X911248Y450677D02*
D03*
X914397D02*
D03*
X904949Y468000D02*
D03*
X908098D02*
D03*
X904949Y450677D02*
D03*
X908098D02*
D03*
X895500Y468000D02*
D03*
X898650D02*
D03*
X895500Y450677D02*
D03*
X898649D02*
D03*
X889201Y468000D02*
D03*
X889200Y450677D02*
D03*
X879752Y468000D02*
D03*
X882902D02*
D03*
X879752Y450677D02*
D03*
X882901D02*
D03*
X873453Y468000D02*
D03*
X873452Y450677D02*
D03*
X864004Y468000D02*
D03*
X867153D02*
D03*
X864004Y450677D02*
D03*
X867153D02*
D03*
X857705Y468000D02*
D03*
X857705Y450677D02*
D03*
X848256Y468000D02*
D03*
X851406D02*
D03*
X848256Y450677D02*
D03*
X851405D02*
D03*
X841957Y468000D02*
D03*
X841957Y450677D02*
D03*
X832508Y468000D02*
D03*
X835658D02*
D03*
X832508Y450677D02*
D03*
X835657D02*
D03*
X826209Y468000D02*
D03*
X826208Y450677D02*
D03*
X816760Y468000D02*
D03*
X819909D02*
D03*
X816760Y450677D02*
D03*
X819909D02*
D03*
X807311Y468000D02*
D03*
X810461D02*
D03*
X807311Y450677D02*
D03*
X810460D02*
D03*
X801012Y468000D02*
D03*
X804161D02*
D03*
X801012Y450677D02*
D03*
X804161D02*
D03*
X791563Y468000D02*
D03*
X794713D02*
D03*
X791563Y450677D02*
D03*
X794713D02*
D03*
X785264Y468000D02*
D03*
X785264Y450677D02*
D03*
X775815Y468000D02*
D03*
X778965D02*
D03*
X775815Y450677D02*
D03*
X778965D02*
D03*
X926996Y468000D02*
D03*
X926996Y450677D02*
D03*
X892350Y468000D02*
D03*
X901799D02*
D03*
X917547D02*
D03*
X892350Y450677D02*
D03*
X901799D02*
D03*
X917547D02*
D03*
X860854Y468000D02*
D03*
X870303D02*
D03*
X876602D02*
D03*
X886051D02*
D03*
X860854Y450677D02*
D03*
X870303D02*
D03*
X876602D02*
D03*
X886051D02*
D03*
X829358Y468000D02*
D03*
X838807D02*
D03*
X845106D02*
D03*
X854555D02*
D03*
X829358Y450677D02*
D03*
X838807D02*
D03*
X845106D02*
D03*
X854555D02*
D03*
X797862Y468000D02*
D03*
X813610D02*
D03*
X823059D02*
D03*
X797862Y450677D02*
D03*
X813610D02*
D03*
X823059D02*
D03*
X772665Y468000D02*
D03*
X782114D02*
D03*
X788413D02*
D03*
X772665Y450677D02*
D03*
X782114D02*
D03*
X788413D02*
D03*
Y275677D02*
D03*
X782114D02*
D03*
X772665D02*
D03*
X788413Y293000D02*
D03*
X782114D02*
D03*
X772665D02*
D03*
X823059Y275677D02*
D03*
X813610D02*
D03*
X797862D02*
D03*
X823059Y293000D02*
D03*
X813610D02*
D03*
X797862D02*
D03*
X854555Y275677D02*
D03*
X845106D02*
D03*
X838807D02*
D03*
X829358D02*
D03*
X854555Y293000D02*
D03*
X845106D02*
D03*
X838807D02*
D03*
X829358D02*
D03*
X886051Y275677D02*
D03*
X876602D02*
D03*
X870303D02*
D03*
X860854D02*
D03*
X886051Y293000D02*
D03*
X876602D02*
D03*
X870303D02*
D03*
X860854D02*
D03*
X917547Y275677D02*
D03*
X901799D02*
D03*
X892350D02*
D03*
X917547Y293000D02*
D03*
X901799D02*
D03*
X892350D02*
D03*
X926996Y275677D02*
D03*
X926996Y293000D02*
D03*
X778965Y275677D02*
D03*
X775815D02*
D03*
X778965Y293000D02*
D03*
X775815D02*
D03*
X785264Y275677D02*
D03*
X785264Y293000D02*
D03*
X794713Y275677D02*
D03*
X791563D02*
D03*
X794713Y293000D02*
D03*
X791563D02*
D03*
X804161Y275677D02*
D03*
X801012D02*
D03*
X804161Y293000D02*
D03*
X801012D02*
D03*
X810460Y275677D02*
D03*
X807311D02*
D03*
X810461Y293000D02*
D03*
X807311D02*
D03*
X819909Y275677D02*
D03*
X816760D02*
D03*
X819909Y293000D02*
D03*
X816760D02*
D03*
X826208Y275677D02*
D03*
X826209Y293000D02*
D03*
X835657Y275677D02*
D03*
X832508D02*
D03*
X835658Y293000D02*
D03*
X832508D02*
D03*
X841957Y275677D02*
D03*
X841957Y293000D02*
D03*
X851405Y275677D02*
D03*
X848256D02*
D03*
X851406Y293000D02*
D03*
X848256D02*
D03*
X857705Y275677D02*
D03*
X857705Y293000D02*
D03*
X867153Y275677D02*
D03*
X864004D02*
D03*
X867153Y293000D02*
D03*
X864004D02*
D03*
X873452Y275677D02*
D03*
X873453Y293000D02*
D03*
X882901Y275677D02*
D03*
X879752D02*
D03*
X882902Y293000D02*
D03*
X879752D02*
D03*
X889200Y275677D02*
D03*
X889201Y293000D02*
D03*
X898649Y275677D02*
D03*
X895500D02*
D03*
X898650Y293000D02*
D03*
X895500D02*
D03*
X908098Y275677D02*
D03*
X904949D02*
D03*
X908098Y293000D02*
D03*
X904949D02*
D03*
X914397Y275677D02*
D03*
X911248D02*
D03*
X914398Y293000D02*
D03*
X911248D02*
D03*
X923846Y275677D02*
D03*
X920697D02*
D03*
X923847Y293000D02*
D03*
X920697D02*
D03*
D85*
X1389000Y91298D02*
D03*
X1384000D02*
D03*
X1379000D02*
D03*
X1374000D02*
D03*
X1369000D02*
D03*
X1364000D02*
D03*
X1359000D02*
D03*
X1354000D02*
D03*
X1389000Y62952D02*
D03*
X1384000D02*
D03*
X1379000D02*
D03*
X1374000D02*
D03*
X1369000D02*
D03*
X1364000D02*
D03*
X1359000D02*
D03*
X1354000D02*
D03*
D86*
X817413Y16740D02*
D03*
X819972D02*
D03*
X825091D02*
D03*
X814854D02*
D03*
X822532D02*
D03*
X780354D02*
D03*
X770118D02*
D03*
X772677D02*
D03*
X777795D02*
D03*
X775236D02*
D03*
D87*
X1387768Y160980D02*
D03*
X1343768D02*
D03*
X1387768Y133980D02*
D03*
X1343768D02*
D03*
X765732Y97760D02*
D03*
D88*
X1387768Y157240D02*
D03*
Y153500D02*
D03*
X1396232D02*
D03*
Y160980D02*
D03*
X1343768Y157240D02*
D03*
Y153500D02*
D03*
X1352232D02*
D03*
Y160980D02*
D03*
X1387768Y130240D02*
D03*
Y126500D02*
D03*
X1396232D02*
D03*
Y133980D02*
D03*
X1343768Y130240D02*
D03*
Y126500D02*
D03*
X1352232D02*
D03*
Y133980D02*
D03*
X765732Y101500D02*
D03*
Y105240D02*
D03*
X757268D02*
D03*
Y97760D02*
D03*
D89*
X802134Y97000D02*
D03*
X793866Y93260D02*
D03*
Y100740D02*
D03*
X802634Y116000D02*
D03*
X794366Y112260D02*
D03*
Y119740D02*
D03*
X880060Y47500D02*
D03*
Y54980D02*
D03*
X871792Y51240D02*
D03*
X880060Y70841D02*
D03*
Y78322D02*
D03*
X871792Y74582D02*
D03*
X880496Y94240D02*
D03*
Y101720D02*
D03*
X872228Y97980D02*
D03*
D90*
X807374Y15854D02*
D03*
X832571D02*
D03*
X762638D02*
D03*
X787835D02*
D03*
D91*
X805209Y6209D02*
D03*
X834736D02*
D03*
X760472D02*
D03*
X790000D02*
D03*
D92*
X815445D02*
D03*
X824500D02*
D03*
X770709D02*
D03*
X779764D02*
D03*
D93*
X757654Y120366D02*
D03*
X753913Y128634D02*
D03*
X761394D02*
D03*
X918114Y72500D02*
D03*
X910634D02*
D03*
X914374Y64232D02*
D03*
X935114Y72500D02*
D03*
X927634D02*
D03*
X931374Y64232D02*
D03*
D94*
X1159425Y107976D02*
D03*
X1161984D02*
D03*
X1164543D02*
D03*
X1167102D02*
D03*
X1169661D02*
D03*
X1172221D02*
D03*
X1174780D02*
D03*
X1177339D02*
D03*
X1179898D02*
D03*
X1182457D02*
D03*
X1185016D02*
D03*
X1187575D02*
D03*
X1159425Y130024D02*
D03*
X1161984D02*
D03*
X1164543D02*
D03*
X1167102D02*
D03*
X1169661D02*
D03*
X1172221D02*
D03*
X1174780D02*
D03*
X1177339D02*
D03*
X1179898D02*
D03*
X1182457D02*
D03*
X1185016D02*
D03*
X1187575D02*
D03*
D95*
X1316075Y117382D02*
D03*
Y115413D02*
D03*
Y113445D02*
D03*
Y111476D02*
D03*
Y109508D02*
D03*
Y107539D02*
D03*
Y105571D02*
D03*
Y103602D02*
D03*
Y101634D02*
D03*
Y99665D02*
D03*
X1337925Y117382D02*
D03*
Y115413D02*
D03*
Y113445D02*
D03*
Y111476D02*
D03*
Y109508D02*
D03*
Y107539D02*
D03*
Y105571D02*
D03*
Y103602D02*
D03*
Y101634D02*
D03*
Y99665D02*
D03*
D96*
X497996Y421307D02*
D03*
X441881Y421307D02*
D03*
X385767D02*
D03*
D97*
X497996Y401607D02*
D03*
X441881Y401607D02*
D03*
X385767D02*
D03*
X55000Y358381D02*
D03*
Y368381D02*
D03*
Y378381D02*
D03*
Y388381D02*
D03*
Y408381D02*
D03*
Y418381D02*
D03*
Y428381D02*
D03*
X136000Y358381D02*
D03*
Y368381D02*
D03*
Y378381D02*
D03*
Y388381D02*
D03*
Y408381D02*
D03*
Y418381D02*
D03*
Y428381D02*
D03*
D98*
X1684016Y39300D02*
D03*
X1474016D02*
D03*
D99*
X1669016Y74300D02*
D03*
X1659016D02*
D03*
X1649016D02*
D03*
X1679016D02*
D03*
X1644016Y64300D02*
D03*
X1654016D02*
D03*
X1664016D02*
D03*
X1674016D02*
D03*
Y90284D02*
D03*
X1664016D02*
D03*
X1654016D02*
D03*
X1644016D02*
D03*
X1679016Y100284D02*
D03*
X1649016D02*
D03*
X1659016D02*
D03*
X1669016D02*
D03*
X1614016D02*
D03*
X1604016D02*
D03*
X1594016D02*
D03*
X1624016D02*
D03*
X1589016Y90284D02*
D03*
X1599016D02*
D03*
X1609016D02*
D03*
X1619016D02*
D03*
Y64300D02*
D03*
X1609016D02*
D03*
X1599016D02*
D03*
X1589016D02*
D03*
X1624016Y74300D02*
D03*
X1594016D02*
D03*
X1604016D02*
D03*
X1614016D02*
D03*
X1559016Y100284D02*
D03*
X1549016D02*
D03*
X1539016D02*
D03*
X1569016D02*
D03*
X1534016Y90284D02*
D03*
X1544016D02*
D03*
X1554016D02*
D03*
X1564016D02*
D03*
Y64300D02*
D03*
X1554016D02*
D03*
X1544016D02*
D03*
X1534016D02*
D03*
X1569016Y74300D02*
D03*
X1539016D02*
D03*
X1549016D02*
D03*
X1559016D02*
D03*
X1504016Y100284D02*
D03*
X1494016D02*
D03*
X1484016D02*
D03*
X1514016D02*
D03*
X1479016Y90284D02*
D03*
X1489016D02*
D03*
X1499016D02*
D03*
X1509016D02*
D03*
Y64300D02*
D03*
X1499016D02*
D03*
X1489016D02*
D03*
X1479016D02*
D03*
X1514016Y74300D02*
D03*
X1484016D02*
D03*
X1494016D02*
D03*
X1504016D02*
D03*
X136000Y333853D02*
D03*
X126000D02*
D03*
X208770Y313137D02*
D03*
X198770D02*
D03*
X1365547Y31909D02*
D03*
X1354642D02*
D03*
X1376453D02*
D03*
X1387358D02*
D03*
X1392811Y43091D02*
D03*
X1381905D02*
D03*
X1371000D02*
D03*
X1349189D02*
D03*
X1360095D02*
D03*
X1238500Y476777D02*
D03*
Y466777D02*
D03*
Y456777D02*
D03*
X1228500D02*
D03*
Y466777D02*
D03*
Y476777D02*
D03*
X461500Y191499D02*
D03*
X451500D02*
D03*
X441500D02*
D03*
X451500Y201499D02*
D03*
X1310500Y187500D02*
D03*
Y197500D02*
D03*
Y207500D02*
D03*
Y217500D02*
D03*
X1300500D02*
D03*
Y207500D02*
D03*
Y197500D02*
D03*
Y187500D02*
D03*
X567000Y172000D02*
D03*
X557000D02*
D03*
X547000D02*
D03*
X566983Y185000D02*
D03*
X556983D02*
D03*
X546983D02*
D03*
X1310500Y308000D02*
D03*
Y298000D02*
D03*
Y288000D02*
D03*
Y278000D02*
D03*
X1300500D02*
D03*
Y288000D02*
D03*
Y298000D02*
D03*
Y308000D02*
D03*
X1310500Y263000D02*
D03*
Y253000D02*
D03*
Y243000D02*
D03*
Y233000D02*
D03*
X1300500D02*
D03*
Y243000D02*
D03*
Y253000D02*
D03*
Y263000D02*
D03*
X459000Y315917D02*
D03*
Y305917D02*
D03*
Y295917D02*
D03*
X449000D02*
D03*
Y305917D02*
D03*
Y315917D02*
D03*
X45000Y333853D02*
D03*
X55000D02*
D03*
X451500Y174000D02*
D03*
X441500Y164000D02*
D03*
X451500D02*
D03*
X461500D02*
D03*
X793000Y64000D02*
D03*
Y54000D02*
D03*
Y44000D02*
D03*
X767000Y46000D02*
D03*
X757000D02*
D03*
X1131500Y130289D02*
D03*
Y140289D02*
D03*
X1092500Y120000D02*
D03*
X1102500D02*
D03*
X1082500D02*
D03*
X1072500D02*
D03*
X1112500D02*
D03*
X1122500D02*
D03*
X1062500D02*
D03*
Y110000D02*
D03*
X1072500D02*
D03*
X1082500D02*
D03*
X1092500D02*
D03*
X1102500D02*
D03*
X1112500D02*
D03*
X1122500D02*
D03*
X1210000Y171500D02*
D03*
X1200000D02*
D03*
X1190000D02*
D03*
X1238500Y158500D02*
D03*
X1248500D02*
D03*
X1258500D02*
D03*
X1210000D02*
D03*
X1200000D02*
D03*
X1190000D02*
D03*
X1238500Y171500D02*
D03*
X1248500D02*
D03*
X1258500D02*
D03*
X1417500Y58000D02*
D03*
Y68000D02*
D03*
X892492Y12500D02*
D03*
X874776D02*
D03*
X974500Y12760D02*
D03*
X956783D02*
D03*
X534000Y457000D02*
D03*
X503000Y269000D02*
D03*
X985388Y394894D02*
D03*
Y409394D02*
D03*
X978388Y402153D02*
D03*
X971388Y409394D02*
D03*
Y394394D02*
D03*
X897002Y394894D02*
D03*
Y409394D02*
D03*
X890002Y402153D02*
D03*
X883002Y409394D02*
D03*
Y394394D02*
D03*
X381600Y325305D02*
D03*
X374600Y318065D02*
D03*
X381600Y310805D02*
D03*
X367600Y310305D02*
D03*
Y325305D02*
D03*
X337100Y325305D02*
D03*
Y310805D02*
D03*
X330100Y318065D02*
D03*
X323100Y325305D02*
D03*
Y310305D02*
D03*
X291741Y311240D02*
D03*
Y325740D02*
D03*
X284741Y318500D02*
D03*
X277741Y325740D02*
D03*
Y310740D02*
D03*
X483014Y48000D02*
D03*
X444500Y43900D02*
D03*
D100*
X1462933Y21308D02*
D03*
Y100284D02*
D03*
X1466024Y75284D02*
D03*
X1524016Y107292D02*
D03*
X1579016D02*
D03*
X1634016D02*
D03*
X1691909Y62292D02*
D03*
X1695000Y84300D02*
D03*
Y21308D02*
D03*
D101*
X229101Y425717D02*
D03*
X249101D02*
D03*
X279101D02*
D03*
Y345717D02*
D03*
X239101D02*
D03*
X199101D02*
D03*
D102*
X678900Y54303D02*
D03*
X748100D02*
D03*
D103*
X689500Y90303D02*
D03*
X697500D02*
D03*
X705500D02*
D03*
X737500D02*
D03*
X721500D02*
D03*
X729500D02*
D03*
X709500Y80303D02*
D03*
X701508D02*
D03*
X693508D02*
D03*
X717508D02*
D03*
X725508D02*
D03*
X733500D02*
D03*
X205683Y472208D02*
D03*
X318000Y516598D02*
D03*
X364000Y513304D02*
D03*
X347921Y516508D02*
D03*
X1143500Y17000D02*
D03*
X1042500Y36000D02*
D03*
Y16000D02*
D03*
D104*
X743100Y19303D02*
D03*
Y29303D02*
D03*
X683900Y19303D02*
D03*
Y29303D02*
D03*
Y39303D02*
D03*
X516000Y509000D02*
D03*
X535685D02*
D03*
X430158D02*
D03*
X449843D02*
D03*
X492842D02*
D03*
X473158D02*
D03*
D105*
X732500Y54303D02*
D03*
X694500D02*
D03*
D106*
X1587000Y169000D02*
D03*
X954454Y145500D02*
D03*
X656000Y22000D02*
D03*
X23000Y506000D02*
D03*
X1681000D02*
D03*
X17000Y201499D02*
D03*
X615000Y430000D02*
D03*
X1135000Y506000D02*
D03*
X1169500Y221500D02*
D03*
D107*
X991500Y36000D02*
D03*
X1001500D02*
D03*
X991500Y6000D02*
D03*
X1001500D02*
D03*
X1011500D02*
D03*
Y36000D02*
D03*
D108*
X519700Y43900D02*
D03*
X530600D02*
D03*
X552400D02*
D03*
X541500D02*
D03*
X585100D02*
D03*
X596000D02*
D03*
X574200D02*
D03*
X563300D02*
D03*
X525150Y32700D02*
D03*
X536050D02*
D03*
X557850D02*
D03*
X546950D02*
D03*
X590550D02*
D03*
X579650D02*
D03*
X568750D02*
D03*
X546950Y59300D02*
D03*
X536050D02*
D03*
X525150D02*
D03*
X568750D02*
D03*
X557850D02*
D03*
X579650D02*
D03*
X590550D02*
D03*
X563300Y70500D02*
D03*
X574200D02*
D03*
X596000D02*
D03*
X585100D02*
D03*
X541500D02*
D03*
X552400D02*
D03*
X530600D02*
D03*
X519700D02*
D03*
X359967Y43900D02*
D03*
X370867D02*
D03*
X392667D02*
D03*
X381767D02*
D03*
X425367D02*
D03*
X436267D02*
D03*
X414467D02*
D03*
X403567D02*
D03*
X365417Y32700D02*
D03*
X376317D02*
D03*
X398117D02*
D03*
X387217D02*
D03*
X430817D02*
D03*
X419917D02*
D03*
X409017D02*
D03*
X387217Y59300D02*
D03*
X376317D02*
D03*
X365417D02*
D03*
X409017D02*
D03*
X398117D02*
D03*
X419917D02*
D03*
X430817D02*
D03*
X403567Y70500D02*
D03*
X414467D02*
D03*
X436267D02*
D03*
X425367D02*
D03*
X381767D02*
D03*
X392667D02*
D03*
X370867D02*
D03*
X359967D02*
D03*
X200233Y43900D02*
D03*
X211133D02*
D03*
X232933D02*
D03*
X222033D02*
D03*
X265633D02*
D03*
X276533D02*
D03*
X254733D02*
D03*
X243833D02*
D03*
X205683Y32700D02*
D03*
X216583D02*
D03*
X238383D02*
D03*
X227483D02*
D03*
X271083D02*
D03*
X260183D02*
D03*
X249283D02*
D03*
X227483Y59300D02*
D03*
X216583D02*
D03*
X205683D02*
D03*
X249283D02*
D03*
X238383D02*
D03*
X260183D02*
D03*
X271083D02*
D03*
X243833Y70500D02*
D03*
X254733D02*
D03*
X276533D02*
D03*
X265633D02*
D03*
X222033D02*
D03*
X232933D02*
D03*
X211133D02*
D03*
X200233D02*
D03*
X40500Y43900D02*
D03*
X51400D02*
D03*
X73200D02*
D03*
X62300D02*
D03*
X105900D02*
D03*
X116800D02*
D03*
X95000D02*
D03*
X84100D02*
D03*
X45950Y32700D02*
D03*
X56850D02*
D03*
X78650D02*
D03*
X67750D02*
D03*
X111350D02*
D03*
X100450D02*
D03*
X89550D02*
D03*
X67750Y59300D02*
D03*
X56850D02*
D03*
X45950D02*
D03*
X89550D02*
D03*
X78650D02*
D03*
X100450D02*
D03*
X111350D02*
D03*
X84100Y70500D02*
D03*
X95000D02*
D03*
X116800D02*
D03*
X105900D02*
D03*
X62300D02*
D03*
X73200D02*
D03*
X51400D02*
D03*
X40500D02*
D03*
X1188800Y44000D02*
D03*
X1199700D02*
D03*
X1221500D02*
D03*
X1210600D02*
D03*
X1254200D02*
D03*
X1265100D02*
D03*
X1243300D02*
D03*
X1232400D02*
D03*
X1194250Y32800D02*
D03*
X1205150D02*
D03*
X1226950D02*
D03*
X1216050D02*
D03*
X1259650D02*
D03*
X1248750D02*
D03*
X1237850D02*
D03*
X1216050Y59400D02*
D03*
X1205150D02*
D03*
X1194250D02*
D03*
X1237850D02*
D03*
X1226950D02*
D03*
X1248750D02*
D03*
X1259650D02*
D03*
X1232400Y70600D02*
D03*
X1243300D02*
D03*
X1265100D02*
D03*
X1254200D02*
D03*
X1210600D02*
D03*
X1221500D02*
D03*
X1199700D02*
D03*
X1188800D02*
D03*
D109*
X492250Y32700D02*
D03*
Y64200D02*
D03*
X623450D02*
D03*
Y32700D02*
D03*
X332517D02*
D03*
Y64200D02*
D03*
X463717D02*
D03*
Y32700D02*
D03*
X172783D02*
D03*
Y64200D02*
D03*
X303983D02*
D03*
Y32700D02*
D03*
X13050D02*
D03*
Y64200D02*
D03*
X144250D02*
D03*
Y32700D02*
D03*
X1161350Y32800D02*
D03*
Y64300D02*
D03*
X1292550D02*
D03*
Y32800D02*
D03*
D110*
X1321807Y37500D02*
D03*
X1420193D02*
D03*
D111*
X690831Y458789D02*
D03*
X936831Y459339D02*
D03*
Y284339D02*
D03*
D112*
X690831Y284789D02*
D03*
X762831Y459339D02*
D03*
Y284339D02*
D03*
X540524Y486145D02*
D03*
X308808Y390489D02*
D03*
X104000Y378214D02*
D03*
X7000D02*
D03*
X1413000Y357390D02*
D03*
X1443293Y370214D02*
D03*
X1566000Y456193D02*
D03*
X1507000Y373000D02*
D03*
X1509163Y363000D02*
D03*
X1500000Y372307D02*
D03*
X1492100Y365000D02*
D03*
X1490600Y358000D02*
D03*
X1479900Y357436D02*
D03*
Y350000D02*
D03*
X1520106Y353000D02*
D03*
Y363000D02*
D03*
Y373000D02*
D03*
X1479900Y364871D02*
D03*
Y372307D02*
D03*
X1238000Y146500D02*
D03*
X1472500Y436000D02*
D03*
X951842Y381889D02*
D03*
X926000Y393653D02*
D03*
X403500Y217000D02*
D03*
X310000Y272000D02*
D03*
X304500Y272000D02*
D03*
X1534663Y261041D02*
D03*
X1541817Y261000D02*
D03*
X1682631Y120653D02*
D03*
X1542163Y145500D02*
D03*
X1677630Y278810D02*
D03*
X1668000Y266975D02*
D03*
X1675000Y228500D02*
D03*
X1335394Y95500D02*
D03*
X1534663Y203000D02*
D03*
X73200Y172000D02*
D03*
X715000Y355035D02*
D03*
X780439Y23415D02*
D03*
X859000Y181000D02*
D03*
X910235Y86347D02*
D03*
Y80000D02*
D03*
X923000Y97000D02*
D03*
X876500Y67042D02*
D03*
X892000Y111667D02*
D03*
X881000Y42000D02*
D03*
X911465Y58000D02*
D03*
X906500Y49500D02*
D03*
X391000Y185000D02*
D03*
X1683500Y128000D02*
D03*
X346806Y398648D02*
D03*
X152000Y375074D02*
D03*
X225323Y147000D02*
D03*
X185626Y176000D02*
D03*
X1600000Y257000D02*
D03*
X806000Y259500D02*
D03*
X803234Y257175D02*
D03*
X815000Y257000D02*
D03*
X821894Y251515D02*
D03*
X831382Y249026D02*
D03*
X834000Y251500D02*
D03*
X824500Y254000D02*
D03*
X812500D02*
D03*
X793294Y259115D02*
D03*
X420935Y142131D02*
D03*
X434374Y140000D02*
D03*
X425876Y138000D02*
D03*
X466438Y76153D02*
D03*
X385908Y500012D02*
D03*
X383742Y513489D02*
D03*
X152000Y381853D02*
D03*
X474760Y101284D02*
D03*
X475117Y107653D02*
D03*
X424061Y90390D02*
D03*
X404715Y101000D02*
D03*
X433421Y84592D02*
D03*
X406850Y106000D02*
D03*
X1345000Y457000D02*
D03*
X1565831Y159807D02*
D03*
X1566663Y136500D02*
D03*
X570279Y124049D02*
D03*
X66636Y150789D02*
D03*
X120600Y161976D02*
D03*
X392667Y96877D02*
D03*
X332517Y91000D02*
D03*
X288000D02*
D03*
X170000Y90000D02*
D03*
X134000D02*
D03*
X42331Y190760D02*
D03*
X1693000Y361077D02*
D03*
X1682631D02*
D03*
X1672263D02*
D03*
X1661894D02*
D03*
X1608000D02*
D03*
X1617000D02*
D03*
X1626000D02*
D03*
X1635000D02*
D03*
X1604500Y247500D02*
D03*
X1609500Y247551D02*
D03*
X1614000Y273000D02*
D03*
Y266000D02*
D03*
X1534663Y145500D02*
D03*
X1428663Y148000D02*
D03*
X1344840Y372000D02*
D03*
X1552000Y483500D02*
D03*
X1562000Y484949D02*
D03*
X1303000Y395500D02*
D03*
X1247000Y249500D02*
D03*
X1251000Y253000D02*
D03*
X58000Y176000D02*
D03*
X35831Y173260D02*
D03*
X181328Y389054D02*
D03*
Y374698D02*
D03*
X394500Y272000D02*
D03*
X373909Y105331D02*
D03*
X364054Y90788D02*
D03*
X436500Y123500D02*
D03*
X252577Y123614D02*
D03*
X244865Y130500D02*
D03*
X188000Y97211D02*
D03*
X203000Y125000D02*
D03*
X210347Y124000D02*
D03*
X517141Y145455D02*
D03*
X585100Y162000D02*
D03*
X536665Y160558D02*
D03*
X516380Y177000D02*
D03*
X469345Y181000D02*
D03*
X498331Y190260D02*
D03*
X491831Y190760D02*
D03*
X505400Y185000D02*
D03*
X1688000Y165154D02*
D03*
X1678346Y177000D02*
D03*
X1692693Y115000D02*
D03*
X1611750Y167250D02*
D03*
X1614500Y300500D02*
D03*
Y287000D02*
D03*
X1566663Y309000D02*
D03*
X1683500Y247500D02*
D03*
X1521163Y317000D02*
D03*
X199571Y131892D02*
D03*
X189620Y130500D02*
D03*
X238154D02*
D03*
X384000Y197000D02*
D03*
X247000Y102000D02*
D03*
X232500Y97211D02*
D03*
X190823Y125823D02*
D03*
X87000Y103667D02*
D03*
X635000Y101284D02*
D03*
X632500Y107800D02*
D03*
X570000Y85900D02*
D03*
X496000D02*
D03*
X457000Y90000D02*
D03*
X479500Y85900D02*
D03*
X340000Y97000D02*
D03*
Y101284D02*
D03*
X223000Y90303D02*
D03*
X259270Y89500D02*
D03*
X132000Y101284D02*
D03*
X69500Y116479D02*
D03*
X37000Y103667D02*
D03*
X4000Y112260D02*
D03*
X91760Y124000D02*
D03*
X81000Y161000D02*
D03*
X156000Y168202D02*
D03*
X149424Y171424D02*
D03*
X391094Y205405D02*
D03*
X388000Y174000D02*
D03*
X649498Y186500D02*
D03*
X525000Y149714D02*
D03*
X403567Y159500D02*
D03*
X379224Y136776D02*
D03*
X238000Y165000D02*
D03*
X185500Y160458D02*
D03*
X61823Y144000D02*
D03*
X176711Y149000D02*
D03*
X594998Y143760D02*
D03*
X630969Y93500D02*
D03*
X553000Y105240D02*
D03*
X517000Y101284D02*
D03*
X525459Y120000D02*
D03*
X424000Y122653D02*
D03*
X445400Y125000D02*
D03*
X398748Y155500D02*
D03*
Y125500D02*
D03*
X386554Y137000D02*
D03*
X364054Y123653D02*
D03*
X312000Y93000D02*
D03*
X292000Y101284D02*
D03*
X179000D02*
D03*
X210347Y89569D02*
D03*
X259270Y123653D02*
D03*
X234000Y113787D02*
D03*
X244847Y161153D02*
D03*
X197000Y162160D02*
D03*
X108500Y144706D02*
D03*
X156331Y89000D02*
D03*
X128024Y127024D02*
D03*
X74654Y129347D02*
D03*
X128024Y161976D02*
D03*
X121331Y130331D02*
D03*
X98847Y123346D02*
D03*
Y91285D02*
D03*
X79323Y125500D02*
D03*
X73831Y96169D02*
D03*
X28323Y126532D02*
D03*
X41153Y133587D02*
D03*
X47846Y91500D02*
D03*
Y122500D02*
D03*
X19000Y101284D02*
D03*
X431191Y143760D02*
D03*
X384384Y144206D02*
D03*
X1443000Y69800D02*
D03*
X1563000Y45000D02*
D03*
X1678500Y146500D02*
D03*
X741000Y58903D02*
D03*
X721000Y63163D02*
D03*
X701508Y59400D02*
D03*
X685300Y63059D02*
D03*
X576000Y161535D02*
D03*
X650000Y164650D02*
D03*
X652000Y180526D02*
D03*
X642000D02*
D03*
X529806Y170835D02*
D03*
X615831Y167996D02*
D03*
X357000Y213712D02*
D03*
X840822Y246587D02*
D03*
X843500Y249000D02*
D03*
X762000Y266000D02*
D03*
X766000Y265000D02*
D03*
X770000Y264536D02*
D03*
X758000Y268500D02*
D03*
X848481Y301500D02*
D03*
X844881D02*
D03*
X839032D02*
D03*
X835432D02*
D03*
X878000Y195000D02*
D03*
X862706Y186000D02*
D03*
X875531Y188000D02*
D03*
X870528D02*
D03*
X867153Y186000D02*
D03*
X862500Y176500D02*
D03*
X873207Y195091D02*
D03*
X898000Y204000D02*
D03*
X1609500Y146551D02*
D03*
X1604500Y146500D02*
D03*
X818941Y90788D02*
D03*
X529972Y129087D02*
D03*
X536600Y130000D02*
D03*
X519500Y121500D02*
D03*
X508491Y109991D02*
D03*
X504000Y97500D02*
D03*
X521321Y89569D02*
D03*
X566153Y90847D02*
D03*
X570000Y105240D02*
D03*
X576500Y129500D02*
D03*
X585100Y129600D02*
D03*
X791563Y301500D02*
D03*
Y267000D02*
D03*
X797637Y301500D02*
D03*
X801237D02*
D03*
X796000Y261500D02*
D03*
X807086Y301500D02*
D03*
X810686D02*
D03*
X202884Y143760D02*
D03*
X414126Y176000D02*
D03*
X449331Y143760D02*
D03*
X1160000Y136500D02*
D03*
X951909Y311962D02*
D03*
X303831Y170050D02*
D03*
Y176260D02*
D03*
X498331Y172774D02*
D03*
X615831Y186496D02*
D03*
X991500Y57000D02*
D03*
X1001500D02*
D03*
X1011500D02*
D03*
X1645000Y420832D02*
D03*
X1651500Y421500D02*
D03*
X752000Y95702D02*
D03*
X743500Y112000D02*
D03*
X768997Y111500D02*
D03*
X1160500Y91298D02*
D03*
X1312087Y66616D02*
D03*
X1367786Y105000D02*
D03*
X1396500D02*
D03*
X1384000Y54303D02*
D03*
X1349000Y78820D02*
D03*
X1330500Y81000D02*
D03*
X1326500Y85000D02*
D03*
X1316000Y87500D02*
D03*
X1325500Y101000D02*
D03*
X823500Y23500D02*
D03*
X998500Y351000D02*
D03*
X959000D02*
D03*
X909500Y352000D02*
D03*
X883302Y351000D02*
D03*
X264500Y271346D02*
D03*
X355500Y272000D02*
D03*
X350000D02*
D03*
X367900Y293000D02*
D03*
X291441D02*
D03*
X323400D02*
D03*
X381600Y265500D02*
D03*
X278000D02*
D03*
X336800D02*
D03*
X922000Y342500D02*
D03*
X883302Y377067D02*
D03*
X871500Y355847D02*
D03*
X896702Y360000D02*
D03*
X897002Y347000D02*
D03*
X971688Y360000D02*
D03*
Y350000D02*
D03*
X1676000Y473307D02*
D03*
X1524500D02*
D03*
X1635500Y468500D02*
D03*
X1636000Y424000D02*
D03*
X1481000Y468500D02*
D03*
X1485642Y425342D02*
D03*
X1668000Y417000D02*
D03*
X1616000D02*
D03*
X1516000D02*
D03*
X1464500D02*
D03*
X1676500Y403500D02*
D03*
X1636000D02*
D03*
X1611000Y410307D02*
D03*
X1317000Y403000D02*
D03*
X1200500Y188700D02*
D03*
X764500Y116500D02*
D03*
X270331Y173260D02*
D03*
X1619500Y455000D02*
D03*
X1472500Y448000D02*
D03*
X1621847Y432927D02*
D03*
X1472500Y404859D02*
D03*
Y395000D02*
D03*
X1317000Y395500D02*
D03*
X787500Y301500D02*
D03*
X1293500Y134500D02*
D03*
X1251000Y135000D02*
D03*
X1208000D02*
D03*
X1139000Y130500D02*
D03*
X794000Y126000D02*
D03*
Y107000D02*
D03*
X270331Y190260D02*
D03*
X28000Y89500D02*
D03*
X918000Y372307D02*
D03*
X978388Y358653D02*
D03*
X890002D02*
D03*
X374600Y274565D02*
D03*
X330100Y274565D02*
D03*
X284741Y275000D02*
D03*
X752000Y86197D02*
D03*
X767500Y61500D02*
D03*
X768000Y80000D02*
D03*
X1275000Y103500D02*
D03*
X1186500Y117500D02*
D03*
X1160500Y100425D02*
D03*
X1220163Y155000D02*
D03*
X1215500D02*
D03*
X1190266Y135525D02*
D03*
X901500Y4413D02*
D03*
X765500Y136500D02*
D03*
X788500Y286000D02*
D03*
X922500Y49500D02*
D03*
X914500D02*
D03*
X927500Y77500D02*
D03*
X1196000Y190000D02*
D03*
X894000Y444000D02*
D03*
X893311Y301500D02*
D03*
X689000Y360815D02*
D03*
X862500Y343500D02*
D03*
Y303000D02*
D03*
X859000Y27014D02*
D03*
X1619500Y146500D02*
D03*
X1405000Y165500D02*
D03*
X1409500Y144500D02*
D03*
Y129000D02*
D03*
X1678500Y247500D02*
D03*
X1619500D02*
D03*
X1361000Y165500D02*
D03*
X1413500Y144500D02*
D03*
Y129000D02*
D03*
X1555163Y317000D02*
D03*
Y259500D02*
D03*
X1464163Y317000D02*
D03*
Y259500D02*
D03*
X1405000Y138500D02*
D03*
X1555163Y202000D02*
D03*
Y144500D02*
D03*
X1464163Y202000D02*
D03*
Y144500D02*
D03*
X1361000Y138500D02*
D03*
X1697000Y287000D02*
D03*
Y231000D02*
D03*
X1684000Y193000D02*
D03*
X1614500Y127500D02*
D03*
X1342500Y345000D02*
D03*
X1363000Y105000D02*
D03*
X1614500Y193000D02*
D03*
X1583500Y351000D02*
D03*
Y343500D02*
D03*
X1596000Y193000D02*
D03*
X1386500Y345000D02*
D03*
X1560163Y217500D02*
D03*
X1469163D02*
D03*
Y225500D02*
D03*
X1475500Y178500D02*
D03*
X1560163Y160000D02*
D03*
X1469163D02*
D03*
X1382500Y198000D02*
D03*
X1403500Y189500D02*
D03*
X1342500Y198000D02*
D03*
X1457500Y178500D02*
D03*
X1428000D02*
D03*
X1421500D02*
D03*
X1391714Y105000D02*
D03*
X1515663Y217000D02*
D03*
Y159500D02*
D03*
X1464500Y222000D02*
D03*
X1457500D02*
D03*
X1424663Y217000D02*
D03*
X1386500Y198000D02*
D03*
X1424663Y159500D02*
D03*
X1515663Y332000D02*
D03*
Y274500D02*
D03*
X1424663Y332000D02*
D03*
Y274500D02*
D03*
X1386500Y247000D02*
D03*
X1386928Y105000D02*
D03*
X1560163Y332500D02*
D03*
X1469200Y340100D02*
D03*
X1469163Y332500D02*
D03*
X1560163Y275000D02*
D03*
X1469163D02*
D03*
X1398000Y265500D02*
D03*
X1379500Y247000D02*
D03*
X1342500D02*
D03*
X1382143Y105000D02*
D03*
X1684000Y294000D02*
D03*
X1408500Y303000D02*
D03*
X1614500Y228500D02*
D03*
X1383500Y303000D02*
D03*
X1342500Y296000D02*
D03*
X1372571Y105000D02*
D03*
X1614500Y294000D02*
D03*
X1510500Y294500D02*
D03*
X1482516D02*
D03*
X1460500Y293000D02*
D03*
X1418000D02*
D03*
X1386500Y296000D02*
D03*
X1377357Y105000D02*
D03*
X1356000Y144500D02*
D03*
X1335000D02*
D03*
X1374600Y126894D02*
D03*
X1404500Y323500D02*
D03*
X1387500D02*
D03*
X1373500Y328300D02*
D03*
X1360500Y323500D02*
D03*
X1343500D02*
D03*
X1403000Y363500D02*
D03*
X1359000Y364000D02*
D03*
X1404500Y274500D02*
D03*
X1387500D02*
D03*
X1373500Y279300D02*
D03*
X1360500Y274500D02*
D03*
X1343500D02*
D03*
X1403000Y314500D02*
D03*
X1359000Y315000D02*
D03*
X1404500Y225500D02*
D03*
X1387500D02*
D03*
X1373500Y230300D02*
D03*
X1360500Y225500D02*
D03*
X1343500D02*
D03*
X1403000Y265500D02*
D03*
X1359000Y266000D02*
D03*
X1373500Y181300D02*
D03*
X922000Y306000D02*
D03*
X785264Y283154D02*
D03*
X782000Y286500D02*
D03*
X923846Y268500D02*
D03*
X518400Y482433D02*
D03*
X505400Y471000D02*
D03*
X1046591Y327591D02*
D03*
X1069591Y304591D02*
D03*
X1260000Y135000D02*
D03*
Y146500D02*
D03*
X764954Y330954D02*
D03*
X716409Y330591D02*
D03*
X933500Y302900D02*
D03*
X1072137Y307137D02*
D03*
X1049137Y330137D02*
D03*
X767500Y333500D02*
D03*
X713863Y333137D02*
D03*
X949363Y314508D02*
D03*
X933500Y306500D02*
D03*
X690831Y357390D02*
D03*
X1238000Y135000D02*
D03*
X1215500Y146500D02*
D03*
Y135000D02*
D03*
X718954Y328046D02*
D03*
X721500Y325500D02*
D03*
X759863Y325863D02*
D03*
X762409Y328409D02*
D03*
X933500Y295700D02*
D03*
Y299300D02*
D03*
X954454Y309417D02*
D03*
X957000Y306871D02*
D03*
X1041500Y322500D02*
D03*
X1044046Y325046D02*
D03*
X1067046Y302046D02*
D03*
X1064500Y299500D02*
D03*
X948730Y428000D02*
D03*
X941530D02*
D03*
X945130D02*
D03*
X948730Y413000D02*
D03*
X941530D02*
D03*
X945130D02*
D03*
X867153Y443237D02*
D03*
X857930D02*
D03*
X854330D02*
D03*
X848481D02*
D03*
X844881D02*
D03*
X839032D02*
D03*
X811000D02*
D03*
X816535D02*
D03*
X820135D02*
D03*
X825983D02*
D03*
X829583D02*
D03*
X835432D02*
D03*
X914397Y301500D02*
D03*
Y268500D02*
D03*
X906000D02*
D03*
X894334Y240575D02*
D03*
X897000Y243000D02*
D03*
X881894Y240015D02*
D03*
X884500Y242500D02*
D03*
X872000Y242000D02*
D03*
X875000Y244500D02*
D03*
X862500D02*
D03*
X865500Y247500D02*
D03*
X850262Y244147D02*
D03*
X853000Y246500D02*
D03*
X907873Y301500D02*
D03*
X902024Y301275D02*
D03*
X898424D02*
D03*
X889426Y301500D02*
D03*
X885826D02*
D03*
X876377Y301275D02*
D03*
X879977D02*
D03*
X866928D02*
D03*
X870528D02*
D03*
X857930D02*
D03*
X854330D02*
D03*
X829583Y301500D02*
D03*
X825984D02*
D03*
X820135D02*
D03*
X816535D02*
D03*
X778965Y284339D02*
D03*
X775365D02*
D03*
X771765D02*
D03*
X803612Y474100D02*
D03*
X794163Y483500D02*
D03*
Y474100D02*
D03*
X807311Y443237D02*
D03*
X780091Y483091D02*
D03*
X777546Y480546D02*
D03*
X775000Y478000D02*
D03*
X801237Y443237D02*
D03*
X797637D02*
D03*
X792013Y443500D02*
D03*
X784813D02*
D03*
X788413D02*
D03*
X664500Y414309D02*
D03*
X675500Y404859D02*
D03*
X690831Y400500D02*
D03*
X670500Y404859D02*
D03*
X664500Y404859D02*
D03*
X670500Y414308D02*
D03*
Y423757D02*
D03*
X664500D02*
D03*
X670500Y433000D02*
D03*
X664500Y433206D02*
D03*
X670500Y442654D02*
D03*
X664500D02*
D03*
X693000Y411384D02*
D03*
Y407784D02*
D03*
Y420832D02*
D03*
Y417232D02*
D03*
Y430281D02*
D03*
Y426681D02*
D03*
Y439730D02*
D03*
Y436130D02*
D03*
X690831Y310371D02*
D03*
X690831Y348166D02*
D03*
X690831Y395411D02*
D03*
X693000Y449179D02*
D03*
Y445579D02*
D03*
X378038Y174000D02*
D03*
X773215Y456777D02*
D03*
X779000Y461500D02*
D03*
X774300Y436400D02*
D03*
X775500Y440000D02*
D03*
X778965Y457500D02*
D03*
X710536Y94036D02*
D03*
X710500Y98000D02*
D03*
X720500Y386900D02*
D03*
X717000Y389500D02*
D03*
X713000D02*
D03*
X784500Y141500D02*
D03*
X756000D02*
D03*
X784500Y137500D02*
D03*
Y70341D02*
D03*
X675500Y401000D02*
D03*
X772500Y35000D02*
D03*
X675500Y397321D02*
D03*
X775046Y37546D02*
D03*
X675500Y393500D02*
D03*
X778000Y40500D02*
D03*
X1266500Y122653D02*
D03*
X1274177D02*
D03*
X1221921D02*
D03*
X1229677D02*
D03*
X1096500Y144500D02*
D03*
X1646500Y466051D02*
D03*
X1646000Y190000D02*
D03*
X1664000Y452543D02*
D03*
X1646000Y203000D02*
D03*
X1648453Y425000D02*
D03*
X1652000Y190000D02*
D03*
X1654358Y425000D02*
D03*
X1652000Y203000D02*
D03*
Y291000D02*
D03*
X1664000Y458500D02*
D03*
X1652000Y304000D02*
D03*
X1664000Y440732D02*
D03*
Y434827D02*
D03*
X1646000Y291000D02*
D03*
X1652390Y466051D02*
D03*
X1646000Y304000D02*
D03*
X1661300Y376500D02*
D03*
X1657700D02*
D03*
X1654100D02*
D03*
X1650500D02*
D03*
X1636100D02*
D03*
X1639700D02*
D03*
X1643300D02*
D03*
X1646900D02*
D03*
X1565500Y449500D02*
D03*
X1611500Y454904D02*
D03*
X1615154Y432927D02*
D03*
X1660000Y468000D02*
D03*
X1623000Y480000D02*
D03*
X1676000D02*
D03*
X1616000Y410307D02*
D03*
X1669000D02*
D03*
X1679847Y414308D02*
D03*
X1673153D02*
D03*
X1679847Y466000D02*
D03*
X1673153Y466051D02*
D03*
X1576000Y501500D02*
D03*
X1443663Y327500D02*
D03*
Y270000D02*
D03*
X1501390Y467000D02*
D03*
X1495500D02*
D03*
X1456500Y448654D02*
D03*
Y438654D02*
D03*
X1526847Y415500D02*
D03*
Y467433D02*
D03*
X1472516Y480000D02*
D03*
X1524500D02*
D03*
X1509000Y468500D02*
D03*
X1522000Y415500D02*
D03*
X1520154Y467433D02*
D03*
X1501390Y421500D02*
D03*
X1494000Y422500D02*
D03*
X1517000Y410307D02*
D03*
X1464500D02*
D03*
X1512643Y434827D02*
D03*
X1513000Y453500D02*
D03*
Y459500D02*
D03*
X1504000Y424500D02*
D03*
X1498500D02*
D03*
X1514000Y440732D02*
D03*
X1534663Y327500D02*
D03*
Y270000D02*
D03*
Y212500D02*
D03*
Y155000D02*
D03*
X1443663Y212500D02*
D03*
Y155000D02*
D03*
Y145500D02*
D03*
X1451163D02*
D03*
Y260500D02*
D03*
X1443663D02*
D03*
X1451163Y318000D02*
D03*
X1443663D02*
D03*
Y203000D02*
D03*
X1451163D02*
D03*
X1534663Y318000D02*
D03*
X1542163D02*
D03*
Y203000D02*
D03*
X1614500Y247500D02*
D03*
X1663500Y146500D02*
D03*
X1673500D02*
D03*
X1693500D02*
D03*
X1683500D02*
D03*
X1634500Y247500D02*
D03*
X1624500D02*
D03*
X1634500Y146500D02*
D03*
X1624500D02*
D03*
X1614500D02*
D03*
X1663500Y247500D02*
D03*
X1673500D02*
D03*
X1693500D02*
D03*
X1614500Y121000D02*
D03*
X1622500Y178000D02*
D03*
Y215000D02*
D03*
X1675500D02*
D03*
X1614500Y199500D02*
D03*
X1684000Y200000D02*
D03*
X1614500Y186000D02*
D03*
X1629500Y146551D02*
D03*
X1614500Y207000D02*
D03*
X1684000D02*
D03*
X1688500Y146551D02*
D03*
X1668500D02*
D03*
X1684000Y186500D02*
D03*
X1668500Y247551D02*
D03*
X1688500D02*
D03*
X1629500D02*
D03*
X1683500Y222000D02*
D03*
X1675500Y316000D02*
D03*
X1684000Y287500D02*
D03*
Y308000D02*
D03*
Y301000D02*
D03*
X1614500Y308000D02*
D03*
X1622500Y316000D02*
D03*
Y279000D02*
D03*
X1614500Y222000D02*
D03*
X690831Y319820D02*
D03*
X690831Y329269D02*
D03*
X690831Y370214D02*
D03*
X690831Y379663D02*
D03*
X690831Y404859D02*
D03*
X690831Y414308D02*
D03*
X690831Y423757D02*
D03*
X690831Y433206D02*
D03*
X690831Y442654D02*
D03*
X882902Y459339D02*
D03*
X873452Y459339D02*
D03*
X851406Y459339D02*
D03*
X841957Y459339D02*
D03*
X832508Y459339D02*
D03*
X823059Y459339D02*
D03*
X813610Y459500D02*
D03*
X804161Y459339D02*
D03*
X794713Y459339D02*
D03*
X904949Y459500D02*
D03*
X920697Y459338D02*
D03*
X926996Y459339D02*
D03*
X904949Y284500D02*
D03*
X882902D02*
D03*
X873453D02*
D03*
X851406Y284339D02*
D03*
X841957Y284339D02*
D03*
X832508Y284500D02*
D03*
X823059D02*
D03*
X813610D02*
D03*
X804161D02*
D03*
X794713D02*
D03*
X936811Y368653D02*
D03*
X938811Y372153D02*
D03*
X1139000Y114500D02*
D03*
Y124000D02*
D03*
X1186000Y122500D02*
D03*
X1203000Y103500D02*
D03*
X1246000D02*
D03*
X1287000Y119500D02*
D03*
X1244500D02*
D03*
X1251000Y103500D02*
D03*
X1208000D02*
D03*
X1161000Y115000D02*
D03*
Y122500D02*
D03*
X1182500Y114500D02*
D03*
X1201500Y119000D02*
D03*
X1379000Y165500D02*
D03*
Y149000D02*
D03*
X1405000D02*
D03*
X1335000Y165500D02*
D03*
Y149000D02*
D03*
X1361000D02*
D03*
X1335000Y138500D02*
D03*
X816500Y36500D02*
D03*
X817000Y67000D02*
D03*
X821000D02*
D03*
X820619Y36000D02*
D03*
X806746Y78663D02*
D03*
X808500Y82000D02*
D03*
X796500Y49000D02*
D03*
X803000Y104000D02*
D03*
X817000Y109000D02*
D03*
X833500Y104000D02*
D03*
X837000Y92500D02*
D03*
X834500Y95500D02*
D03*
X805000Y122500D02*
D03*
X845000Y67500D02*
D03*
Y83000D02*
D03*
X824000Y55000D02*
D03*
Y42000D02*
D03*
X829000Y91500D02*
D03*
X790000Y83000D02*
D03*
X825000Y67000D02*
D03*
X836500Y33500D02*
D03*
X814500Y33000D02*
D03*
X752000Y91500D02*
D03*
X807500Y39500D02*
D03*
X763000D02*
D03*
X769500Y39000D02*
D03*
X796000Y35000D02*
D03*
X1455663Y343500D02*
D03*
X1418163Y332000D02*
D03*
X1475663Y332500D02*
D03*
X1451163Y323500D02*
D03*
X1475663Y309000D02*
D03*
X1418163D02*
D03*
X1449663Y328000D02*
D03*
X1430163Y317000D02*
D03*
X1454163Y332000D02*
D03*
X1546663Y343500D02*
D03*
X1509163Y332000D02*
D03*
X1566663Y332500D02*
D03*
X1542163Y323500D02*
D03*
X1509163Y309000D02*
D03*
X1540663Y328000D02*
D03*
X1545163Y332000D02*
D03*
X1455663Y286000D02*
D03*
X1418163Y274500D02*
D03*
X1475663Y275000D02*
D03*
X1451163Y266000D02*
D03*
X1475663Y251500D02*
D03*
X1418163D02*
D03*
X1449663Y270500D02*
D03*
X1430163Y259500D02*
D03*
X1454163Y274500D02*
D03*
X1546663Y286000D02*
D03*
X1509163Y274500D02*
D03*
X1566663Y275000D02*
D03*
X1542163Y266000D02*
D03*
X1566663Y251500D02*
D03*
X1509163D02*
D03*
X1540663Y270500D02*
D03*
X1521163Y259500D02*
D03*
X1545163Y274500D02*
D03*
X1455663Y228500D02*
D03*
X1418163Y217000D02*
D03*
X1475663Y217500D02*
D03*
X1451163Y208500D02*
D03*
X1475663Y194000D02*
D03*
X1418163D02*
D03*
X1449663Y213000D02*
D03*
X1430163Y202000D02*
D03*
X1454163Y217000D02*
D03*
X1546663Y228500D02*
D03*
X1509163Y217000D02*
D03*
X1566663Y217500D02*
D03*
X1542163Y208500D02*
D03*
X1566663Y194000D02*
D03*
X1509163D02*
D03*
X1540663Y213000D02*
D03*
X1521163Y202000D02*
D03*
X1545163Y217000D02*
D03*
X1546663Y171000D02*
D03*
X1509163Y159500D02*
D03*
X1542163Y151000D02*
D03*
X1509163Y136500D02*
D03*
X1540663Y155500D02*
D03*
X1521163Y144500D02*
D03*
X1545163Y159500D02*
D03*
X1455663Y171000D02*
D03*
X1418163Y159500D02*
D03*
X1475663Y160000D02*
D03*
X1451163Y151000D02*
D03*
X1475663Y136500D02*
D03*
X1418163D02*
D03*
X1449663Y155500D02*
D03*
X1454163Y159500D02*
D03*
X1379000Y138500D02*
D03*
X1405000Y122000D02*
D03*
X1403000Y216500D02*
D03*
X1359000Y217000D02*
D03*
X1343500Y176500D02*
D03*
X1360500D02*
D03*
X1387500D02*
D03*
X1404500D02*
D03*
X887099Y101850D02*
D03*
X886926Y78480D02*
D03*
Y54980D02*
D03*
X870228Y91480D02*
D03*
X972000Y52500D02*
D03*
X936500Y26000D02*
D03*
X931000D02*
D03*
X936500Y11500D02*
D03*
X931000D02*
D03*
X35331Y190760D02*
D03*
X263831Y190260D02*
D03*
Y173260D02*
D03*
X491831Y172760D02*
D03*
X609331Y167996D02*
D03*
Y186496D02*
D03*
X24231Y143760D02*
D03*
X42331D02*
D03*
X88731D02*
D03*
X138384D02*
D03*
X156331D02*
D03*
X252538D02*
D03*
X270331D02*
D03*
X317038D02*
D03*
X334831D02*
D03*
X366691D02*
D03*
X480845D02*
D03*
X498331D02*
D03*
X562831D02*
D03*
X545345D02*
D03*
X677331D02*
D03*
X659498D02*
D03*
X612331D02*
D03*
D113*
X1034831Y469289D02*
D03*
X664831Y274289D02*
D03*
Y469289D02*
D03*
X1034831Y274289D02*
D03*
D114*
X897433Y22303D02*
D03*
X869835D02*
D03*
X979441Y22563D02*
D03*
X951842D02*
D03*
D115*
X1408500Y403000D02*
D03*
Y395500D02*
D03*
D116*
X1639250Y454904D02*
D03*
Y436404D02*
D03*
X1651750D02*
D03*
Y454904D02*
D03*
X1645500D02*
D03*
Y450279D02*
D03*
Y445653D02*
D03*
Y441028D02*
D03*
Y436404D02*
D03*
X1639250Y450279D02*
D03*
Y445653D02*
D03*
Y441028D02*
D03*
X1651750D02*
D03*
Y445653D02*
D03*
Y450279D02*
D03*
X1500750D02*
D03*
Y445653D02*
D03*
Y441028D02*
D03*
X1488250D02*
D03*
Y445653D02*
D03*
Y450279D02*
D03*
X1494500Y436404D02*
D03*
Y441028D02*
D03*
Y445653D02*
D03*
Y450279D02*
D03*
Y454904D02*
D03*
X1500750D02*
D03*
Y436404D02*
D03*
X1488250D02*
D03*
Y454904D02*
D03*
M02*
