G04*
G04 #@! TF.GenerationSoftware,Altium Limited,Altium Designer,18.0.12 (696)*
G04*
G04 Layer_Color=32896*
%FSLAX25Y25*%
%MOIN*%
G70*
G01*
G75*
%ADD10C,0.01000*%
%ADD11C,0.02000*%
%ADD12C,0.00984*%
%ADD16C,0.00787*%
%ADD17C,0.01500*%
%ADD163C,0.01260*%
%ADD164C,0.00630*%
D10*
X830000Y36000D02*
G03*
X830000Y36000I-500J0D01*
G01*
X789500Y37500D02*
G03*
X789500Y37500I-500J0D01*
G01*
X1094418Y136500D02*
G03*
X1094418Y136500I-500J0D01*
G01*
X521400Y489500D02*
G03*
X521400Y489500I-500J0D01*
G01*
X756952Y65500D02*
X762552D01*
X756952Y77500D02*
X762552D01*
X1266500Y114500D02*
X1274000D01*
Y123500D01*
X1222000Y114500D02*
X1229500D01*
Y123500D01*
X404000Y201999D02*
Y198667D01*
X403334Y198000D01*
X402001D01*
X401334Y198667D01*
Y201999D01*
X400001Y198000D02*
X398668D01*
X399335D01*
Y201999D01*
X400001Y201332D01*
X396669D02*
X396003Y201999D01*
X394670D01*
X394003Y201332D01*
Y200666D01*
X394670Y199999D01*
X395336D01*
X394670D01*
X394003Y199333D01*
Y198667D01*
X394670Y198000D01*
X396003D01*
X396669Y198667D01*
X390004Y201332D02*
X390671Y201999D01*
X392004D01*
X392670Y201332D01*
Y198667D01*
X392004Y198000D01*
X390671D01*
X390004Y198667D01*
X175000Y201999D02*
Y198667D01*
X174334Y198000D01*
X173001D01*
X172334Y198667D01*
Y201999D01*
X171001Y198000D02*
X169668D01*
X170335D01*
Y201999D01*
X171001Y201332D01*
X167669D02*
X167003Y201999D01*
X165670D01*
X165003Y201332D01*
Y200666D01*
X165670Y199999D01*
X166336D01*
X165670D01*
X165003Y199333D01*
Y198667D01*
X165670Y198000D01*
X167003D01*
X167669Y198667D01*
X161004Y201999D02*
X163670D01*
Y198000D01*
X161004D01*
X163670Y199999D02*
X162337D01*
X116999Y123653D02*
X113666D01*
X113000Y124320D01*
Y125653D01*
X113666Y126319D01*
X116999D01*
X113000Y127652D02*
Y128985D01*
Y128319D01*
X116999D01*
X116332Y127652D01*
X116999Y133650D02*
Y130984D01*
X114999D01*
X115666Y132317D01*
Y132984D01*
X114999Y133650D01*
X113666D01*
X113000Y132984D01*
Y131651D01*
X113666Y130984D01*
X116999Y137649D02*
Y134983D01*
X114999D01*
Y136316D01*
Y134983D01*
X113000D01*
X336000Y342999D02*
Y339666D01*
X335334Y339000D01*
X334001D01*
X333334Y339666D01*
Y342999D01*
X332001Y342332D02*
X331335Y342999D01*
X330002D01*
X329335Y342332D01*
Y341666D01*
X330002Y340999D01*
X330668D01*
X330002D01*
X329335Y340333D01*
Y339666D01*
X330002Y339000D01*
X331335D01*
X332001Y339666D01*
X328003D02*
X327336Y339000D01*
X326003D01*
X325337Y339666D01*
Y342332D01*
X326003Y342999D01*
X327336D01*
X328003Y342332D01*
Y341666D01*
X327336Y340999D01*
X325337D01*
X1654501Y154000D02*
X1657834D01*
X1658500Y153333D01*
Y152001D01*
X1657834Y151334D01*
X1654501D01*
X1658500Y148002D02*
X1654501D01*
X1656501Y150001D01*
Y147336D01*
X1655168Y146003D02*
X1654501Y145336D01*
Y144003D01*
X1655168Y143337D01*
X1655834D01*
X1656501Y144003D01*
X1657167Y143337D01*
X1657834D01*
X1658500Y144003D01*
Y145336D01*
X1657834Y146003D01*
X1657167D01*
X1656501Y145336D01*
X1655834Y146003D01*
X1655168D01*
X1656501Y145336D02*
Y144003D01*
X1654501Y142004D02*
X1658500D01*
Y140005D01*
X1657834Y139338D01*
X1657167D01*
X1656501Y140005D01*
Y142004D01*
Y140005D01*
X1655834Y139338D01*
X1655168D01*
X1654501Y140005D01*
Y142004D01*
Y255000D02*
X1657834D01*
X1658500Y254334D01*
Y253001D01*
X1657834Y252334D01*
X1654501D01*
X1658500Y249002D02*
X1654501D01*
X1656501Y251001D01*
Y248336D01*
X1655168Y247003D02*
X1654501Y246336D01*
Y245003D01*
X1655168Y244337D01*
X1655834D01*
X1656501Y245003D01*
X1657167Y244337D01*
X1657834D01*
X1658500Y245003D01*
Y246336D01*
X1657834Y247003D01*
X1657167D01*
X1656501Y246336D01*
X1655834Y247003D01*
X1655168D01*
X1656501Y246336D02*
Y245003D01*
X1658500Y243004D02*
X1655834D01*
X1654501Y241671D01*
X1655834Y240338D01*
X1658500D01*
X1656501D01*
Y243004D01*
X1641001Y154000D02*
X1644334D01*
X1645000Y153333D01*
Y152001D01*
X1644334Y151334D01*
X1641001D01*
X1645000Y148002D02*
X1641001D01*
X1643001Y150001D01*
Y147336D01*
X1641001Y146003D02*
Y143337D01*
X1641668D01*
X1644334Y146003D01*
X1645000D01*
X1641001Y142004D02*
X1645000D01*
Y140005D01*
X1644334Y139338D01*
X1643667D01*
X1643001Y140005D01*
Y142004D01*
Y140005D01*
X1642334Y139338D01*
X1641668D01*
X1641001Y140005D01*
Y142004D01*
Y255000D02*
X1644334D01*
X1645000Y254334D01*
Y253001D01*
X1644334Y252334D01*
X1641001D01*
X1645000Y249002D02*
X1641001D01*
X1643001Y251001D01*
Y248336D01*
X1641001Y247003D02*
Y244337D01*
X1641668D01*
X1644334Y247003D01*
X1645000D01*
Y243004D02*
X1642334D01*
X1641001Y241671D01*
X1642334Y240338D01*
X1645000D01*
X1643001D01*
Y243004D01*
X1656500Y183499D02*
Y180166D01*
X1655834Y179500D01*
X1654501D01*
X1653834Y180166D01*
Y183499D01*
X1650502Y179500D02*
Y183499D01*
X1652501Y181499D01*
X1649836D01*
X1645837Y183499D02*
X1647170Y182832D01*
X1648503Y181499D01*
Y180166D01*
X1647836Y179500D01*
X1646503D01*
X1645837Y180166D01*
Y180833D01*
X1646503Y181499D01*
X1648503D01*
X1644504Y183499D02*
Y179500D01*
X1642505D01*
X1641838Y180166D01*
Y180833D01*
X1642505Y181499D01*
X1644504D01*
X1642505D01*
X1641838Y182166D01*
Y182832D01*
X1642505Y183499D01*
X1644504D01*
X1656500Y284499D02*
Y281166D01*
X1655834Y280500D01*
X1654501D01*
X1653834Y281166D01*
Y284499D01*
X1650502Y280500D02*
Y284499D01*
X1652501Y282499D01*
X1649836D01*
X1645837Y284499D02*
X1647170Y283832D01*
X1648503Y282499D01*
Y281166D01*
X1647836Y280500D01*
X1646503D01*
X1645837Y281166D01*
Y281833D01*
X1646503Y282499D01*
X1648503D01*
X1644504Y280500D02*
Y283166D01*
X1643171Y284499D01*
X1641838Y283166D01*
Y280500D01*
Y282499D01*
X1644504D01*
X1694500Y188000D02*
Y191999D01*
X1692501D01*
X1691834Y191332D01*
Y189999D01*
X1692501Y189333D01*
X1694500D01*
X1693167D02*
X1691834Y188000D01*
X1687836Y191999D02*
X1689168Y191332D01*
X1690501Y189999D01*
Y188666D01*
X1689835Y188000D01*
X1688502D01*
X1687836Y188666D01*
Y189333D01*
X1688502Y189999D01*
X1690501D01*
X1686503Y191332D02*
X1685836Y191999D01*
X1684503D01*
X1683837Y191332D01*
Y188666D01*
X1684503Y188000D01*
X1685836D01*
X1686503Y188666D01*
Y191332D01*
X1682504Y191999D02*
Y188000D01*
X1680504D01*
X1679838Y188666D01*
Y189333D01*
X1680504Y189999D01*
X1682504D01*
X1680504D01*
X1679838Y190666D01*
Y191332D01*
X1680504Y191999D01*
X1682504D01*
X1694500Y289000D02*
Y292999D01*
X1692501D01*
X1691834Y292332D01*
Y290999D01*
X1692501Y290333D01*
X1694500D01*
X1693167D02*
X1691834Y289000D01*
X1687836Y292999D02*
X1689168Y292332D01*
X1690501Y290999D01*
Y289666D01*
X1689835Y289000D01*
X1688502D01*
X1687836Y289666D01*
Y290333D01*
X1688502Y290999D01*
X1690501D01*
X1686503Y292332D02*
X1685836Y292999D01*
X1684503D01*
X1683837Y292332D01*
Y289666D01*
X1684503Y289000D01*
X1685836D01*
X1686503Y289666D01*
Y292332D01*
X1682504Y289000D02*
Y291666D01*
X1681171Y292999D01*
X1679838Y291666D01*
Y289000D01*
Y290999D01*
X1682504D01*
X1694500Y202000D02*
Y205999D01*
X1692501D01*
X1691834Y205332D01*
Y203999D01*
X1692501Y203333D01*
X1694500D01*
X1693167D02*
X1691834Y202000D01*
X1687836Y205999D02*
X1690501D01*
Y203999D01*
X1689168Y204666D01*
X1688502D01*
X1687836Y203999D01*
Y202666D01*
X1688502Y202000D01*
X1689835D01*
X1690501Y202666D01*
X1686503D02*
X1685836Y202000D01*
X1684503D01*
X1683837Y202666D01*
Y205332D01*
X1684503Y205999D01*
X1685836D01*
X1686503Y205332D01*
Y204666D01*
X1685836Y203999D01*
X1683837D01*
X1682504Y205999D02*
Y202000D01*
X1680504D01*
X1679838Y202666D01*
Y203333D01*
X1680504Y203999D01*
X1682504D01*
X1680504D01*
X1679838Y204666D01*
Y205332D01*
X1680504Y205999D01*
X1682504D01*
X1694500Y303000D02*
Y306999D01*
X1692501D01*
X1691834Y306332D01*
Y304999D01*
X1692501Y304333D01*
X1694500D01*
X1693167D02*
X1691834Y303000D01*
X1687836Y306999D02*
X1690501D01*
Y304999D01*
X1689168Y305666D01*
X1688502D01*
X1687836Y304999D01*
Y303666D01*
X1688502Y303000D01*
X1689835D01*
X1690501Y303666D01*
X1686503D02*
X1685836Y303000D01*
X1684503D01*
X1683837Y303666D01*
Y306332D01*
X1684503Y306999D01*
X1685836D01*
X1686503Y306332D01*
Y305666D01*
X1685836Y304999D01*
X1683837D01*
X1682504Y303000D02*
Y305666D01*
X1681171Y306999D01*
X1679838Y305666D01*
Y303000D01*
Y304999D01*
X1682504D01*
X1618500Y201500D02*
Y205499D01*
X1616501D01*
X1615834Y204832D01*
Y203499D01*
X1616501Y202833D01*
X1618500D01*
X1617167D02*
X1615834Y201500D01*
X1611835Y205499D02*
X1614501D01*
Y203499D01*
X1613168Y204166D01*
X1612502D01*
X1611835Y203499D01*
Y202167D01*
X1612502Y201500D01*
X1613835D01*
X1614501Y202167D01*
X1610503Y204832D02*
X1609836Y205499D01*
X1608503D01*
X1607837Y204832D01*
Y204166D01*
X1608503Y203499D01*
X1607837Y202833D01*
Y202167D01*
X1608503Y201500D01*
X1609836D01*
X1610503Y202167D01*
Y202833D01*
X1609836Y203499D01*
X1610503Y204166D01*
Y204832D01*
X1609836Y203499D02*
X1608503D01*
X1606504Y205499D02*
Y201500D01*
X1604505D01*
X1603838Y202167D01*
Y202833D01*
X1604505Y203499D01*
X1606504D01*
X1604505D01*
X1603838Y204166D01*
Y204832D01*
X1604505Y205499D01*
X1606504D01*
X1618500Y302500D02*
Y306499D01*
X1616501D01*
X1615834Y305832D01*
Y304499D01*
X1616501Y303833D01*
X1618500D01*
X1617167D02*
X1615834Y302500D01*
X1611835Y306499D02*
X1614501D01*
Y304499D01*
X1613168Y305166D01*
X1612502D01*
X1611835Y304499D01*
Y303166D01*
X1612502Y302500D01*
X1613835D01*
X1614501Y303166D01*
X1610503Y305832D02*
X1609836Y306499D01*
X1608503D01*
X1607837Y305832D01*
Y305166D01*
X1608503Y304499D01*
X1607837Y303833D01*
Y303166D01*
X1608503Y302500D01*
X1609836D01*
X1610503Y303166D01*
Y303833D01*
X1609836Y304499D01*
X1610503Y305166D01*
Y305832D01*
X1609836Y304499D02*
X1608503D01*
X1606504Y302500D02*
Y305166D01*
X1605171Y306499D01*
X1603838Y305166D01*
Y302500D01*
Y304499D01*
X1606504D01*
X1618500Y187500D02*
Y191499D01*
X1616501D01*
X1615834Y190832D01*
Y189499D01*
X1616501Y188833D01*
X1618500D01*
X1617167D02*
X1615834Y187500D01*
X1611835Y191499D02*
X1614501D01*
Y189499D01*
X1613168Y190166D01*
X1612502D01*
X1611835Y189499D01*
Y188166D01*
X1612502Y187500D01*
X1613835D01*
X1614501Y188166D01*
X1610503Y191499D02*
X1607837D01*
Y190832D01*
X1610503Y188166D01*
Y187500D01*
X1606504Y191499D02*
Y187500D01*
X1604505D01*
X1603838Y188166D01*
Y188833D01*
X1604505Y189499D01*
X1606504D01*
X1604505D01*
X1603838Y190166D01*
Y190832D01*
X1604505Y191499D01*
X1606504D01*
X1618500Y288500D02*
Y292499D01*
X1616501D01*
X1615834Y291832D01*
Y290499D01*
X1616501Y289833D01*
X1618500D01*
X1617167D02*
X1615834Y288500D01*
X1611835Y292499D02*
X1614501D01*
Y290499D01*
X1613168Y291166D01*
X1612502D01*
X1611835Y290499D01*
Y289166D01*
X1612502Y288500D01*
X1613835D01*
X1614501Y289166D01*
X1610503Y292499D02*
X1607837D01*
Y291832D01*
X1610503Y289166D01*
Y288500D01*
X1606504D02*
Y291166D01*
X1605171Y292499D01*
X1603838Y291166D01*
Y288500D01*
Y290499D01*
X1606504D01*
X1695334Y198332D02*
X1696001Y198999D01*
X1697334D01*
X1698000Y198332D01*
Y195667D01*
X1697334Y195000D01*
X1696001D01*
X1695334Y195667D01*
X1694001Y195000D02*
X1692668D01*
X1693335D01*
Y198999D01*
X1694001Y198332D01*
X1690669D02*
X1690003Y198999D01*
X1688670D01*
X1688003Y198332D01*
Y197666D01*
X1688670Y196999D01*
X1688003Y196333D01*
Y195667D01*
X1688670Y195000D01*
X1690003D01*
X1690669Y195667D01*
Y196333D01*
X1690003Y196999D01*
X1690669Y197666D01*
Y198332D01*
X1690003Y196999D02*
X1688670D01*
X1686670Y198332D02*
X1686004Y198999D01*
X1684671D01*
X1684005Y198332D01*
Y197666D01*
X1684671Y196999D01*
X1684005Y196333D01*
Y195667D01*
X1684671Y195000D01*
X1686004D01*
X1686670Y195667D01*
Y196333D01*
X1686004Y196999D01*
X1686670Y197666D01*
Y198332D01*
X1686004Y196999D02*
X1684671D01*
X1682672Y198999D02*
Y195000D01*
X1680672D01*
X1680006Y195667D01*
Y196333D01*
X1680672Y196999D01*
X1682672D01*
X1680672D01*
X1680006Y197666D01*
Y198332D01*
X1680672Y198999D01*
X1682672D01*
X1695334Y299332D02*
X1696001Y299999D01*
X1697334D01*
X1698000Y299332D01*
Y296666D01*
X1697334Y296000D01*
X1696001D01*
X1695334Y296666D01*
X1694001Y296000D02*
X1692668D01*
X1693335D01*
Y299999D01*
X1694001Y299332D01*
X1690669D02*
X1690003Y299999D01*
X1688670D01*
X1688003Y299332D01*
Y298666D01*
X1688670Y297999D01*
X1688003Y297333D01*
Y296666D01*
X1688670Y296000D01*
X1690003D01*
X1690669Y296666D01*
Y297333D01*
X1690003Y297999D01*
X1690669Y298666D01*
Y299332D01*
X1690003Y297999D02*
X1688670D01*
X1686670Y299332D02*
X1686004Y299999D01*
X1684671D01*
X1684005Y299332D01*
Y298666D01*
X1684671Y297999D01*
X1684005Y297333D01*
Y296666D01*
X1684671Y296000D01*
X1686004D01*
X1686670Y296666D01*
Y297333D01*
X1686004Y297999D01*
X1686670Y298666D01*
Y299332D01*
X1686004Y297999D02*
X1684671D01*
X1682672Y296000D02*
Y298666D01*
X1681339Y299999D01*
X1680006Y298666D01*
Y296000D01*
Y297999D01*
X1682672D01*
X1615834Y197832D02*
X1616501Y198499D01*
X1617834D01*
X1618500Y197832D01*
Y195167D01*
X1617834Y194500D01*
X1616501D01*
X1615834Y195167D01*
X1614501Y194500D02*
X1613168D01*
X1613835D01*
Y198499D01*
X1614501Y197832D01*
X1611169D02*
X1610503Y198499D01*
X1609170D01*
X1608503Y197832D01*
Y197166D01*
X1609170Y196499D01*
X1608503Y195833D01*
Y195167D01*
X1609170Y194500D01*
X1610503D01*
X1611169Y195167D01*
Y195833D01*
X1610503Y196499D01*
X1611169Y197166D01*
Y197832D01*
X1610503Y196499D02*
X1609170D01*
X1607170Y198499D02*
X1604505D01*
Y197832D01*
X1607170Y195167D01*
Y194500D01*
X1603172Y198499D02*
Y194500D01*
X1601172D01*
X1600506Y195167D01*
Y195833D01*
X1601172Y196499D01*
X1603172D01*
X1601172D01*
X1600506Y197166D01*
Y197832D01*
X1601172Y198499D01*
X1603172D01*
X1615834Y298832D02*
X1616501Y299499D01*
X1617834D01*
X1618500Y298832D01*
Y296166D01*
X1617834Y295500D01*
X1616501D01*
X1615834Y296166D01*
X1614501Y295500D02*
X1613168D01*
X1613835D01*
Y299499D01*
X1614501Y298832D01*
X1611169D02*
X1610503Y299499D01*
X1609170D01*
X1608503Y298832D01*
Y298166D01*
X1609170Y297499D01*
X1608503Y296833D01*
Y296166D01*
X1609170Y295500D01*
X1610503D01*
X1611169Y296166D01*
Y296833D01*
X1610503Y297499D01*
X1611169Y298166D01*
Y298832D01*
X1610503Y297499D02*
X1609170D01*
X1607170Y299499D02*
X1604505D01*
Y298832D01*
X1607170Y296166D01*
Y295500D01*
X1603172D02*
Y298166D01*
X1601839Y299499D01*
X1600506Y298166D01*
Y295500D01*
Y297499D01*
X1603172D01*
X1695334Y183832D02*
X1696001Y184499D01*
X1697334D01*
X1698000Y183832D01*
Y181167D01*
X1697334Y180500D01*
X1696001D01*
X1695334Y181167D01*
X1694001Y180500D02*
X1692668D01*
X1693335D01*
Y184499D01*
X1694001Y183832D01*
X1690669D02*
X1690003Y184499D01*
X1688670D01*
X1688003Y183832D01*
Y183166D01*
X1688670Y182499D01*
X1688003Y181833D01*
Y181167D01*
X1688670Y180500D01*
X1690003D01*
X1690669Y181167D01*
Y181833D01*
X1690003Y182499D01*
X1690669Y183166D01*
Y183832D01*
X1690003Y182499D02*
X1688670D01*
X1684005Y184499D02*
X1685337Y183832D01*
X1686670Y182499D01*
Y181167D01*
X1686004Y180500D01*
X1684671D01*
X1684005Y181167D01*
Y181833D01*
X1684671Y182499D01*
X1686670D01*
X1682672Y184499D02*
Y180500D01*
X1680672D01*
X1680006Y181167D01*
Y181833D01*
X1680672Y182499D01*
X1682672D01*
X1680672D01*
X1680006Y183166D01*
Y183832D01*
X1680672Y184499D01*
X1682672D01*
X1695334Y284832D02*
X1696001Y285499D01*
X1697334D01*
X1698000Y284832D01*
Y282166D01*
X1697334Y281500D01*
X1696001D01*
X1695334Y282166D01*
X1694001Y281500D02*
X1692668D01*
X1693335D01*
Y285499D01*
X1694001Y284832D01*
X1690669D02*
X1690003Y285499D01*
X1688670D01*
X1688003Y284832D01*
Y284166D01*
X1688670Y283499D01*
X1688003Y282833D01*
Y282166D01*
X1688670Y281500D01*
X1690003D01*
X1690669Y282166D01*
Y282833D01*
X1690003Y283499D01*
X1690669Y284166D01*
Y284832D01*
X1690003Y283499D02*
X1688670D01*
X1684005Y285499D02*
X1685337Y284832D01*
X1686670Y283499D01*
Y282166D01*
X1686004Y281500D01*
X1684671D01*
X1684005Y282166D01*
Y282833D01*
X1684671Y283499D01*
X1686670D01*
X1682672Y281500D02*
Y284166D01*
X1681339Y285499D01*
X1680006Y284166D01*
Y281500D01*
Y283499D01*
X1682672D01*
X1695334Y212332D02*
X1696001Y212999D01*
X1697334D01*
X1698000Y212332D01*
Y209666D01*
X1697334Y209000D01*
X1696001D01*
X1695334Y209666D01*
X1694001Y209000D02*
X1692668D01*
X1693335D01*
Y212999D01*
X1694001Y212332D01*
X1690669D02*
X1690003Y212999D01*
X1688670D01*
X1688003Y212332D01*
Y211666D01*
X1688670Y210999D01*
X1688003Y210333D01*
Y209666D01*
X1688670Y209000D01*
X1690003D01*
X1690669Y209666D01*
Y210333D01*
X1690003Y210999D01*
X1690669Y211666D01*
Y212332D01*
X1690003Y210999D02*
X1688670D01*
X1684005Y212999D02*
X1686670D01*
Y210999D01*
X1685337Y211666D01*
X1684671D01*
X1684005Y210999D01*
Y209666D01*
X1684671Y209000D01*
X1686004D01*
X1686670Y209666D01*
X1682672Y212999D02*
Y209000D01*
X1680672D01*
X1680006Y209666D01*
Y210333D01*
X1680672Y210999D01*
X1682672D01*
X1680672D01*
X1680006Y211666D01*
Y212332D01*
X1680672Y212999D01*
X1682672D01*
X1695334Y313332D02*
X1696001Y313999D01*
X1697334D01*
X1698000Y313332D01*
Y310666D01*
X1697334Y310000D01*
X1696001D01*
X1695334Y310666D01*
X1694001Y310000D02*
X1692668D01*
X1693335D01*
Y313999D01*
X1694001Y313332D01*
X1690669D02*
X1690003Y313999D01*
X1688670D01*
X1688003Y313332D01*
Y312666D01*
X1688670Y311999D01*
X1688003Y311333D01*
Y310666D01*
X1688670Y310000D01*
X1690003D01*
X1690669Y310666D01*
Y311333D01*
X1690003Y311999D01*
X1690669Y312666D01*
Y313332D01*
X1690003Y311999D02*
X1688670D01*
X1684005Y313999D02*
X1686670D01*
Y311999D01*
X1685337Y312666D01*
X1684671D01*
X1684005Y311999D01*
Y310666D01*
X1684671Y310000D01*
X1686004D01*
X1686670Y310666D01*
X1682672Y310000D02*
Y312666D01*
X1681339Y313999D01*
X1680006Y312666D01*
Y310000D01*
Y311999D01*
X1682672D01*
X1670834Y125832D02*
X1671501Y126499D01*
X1672834D01*
X1673500Y125832D01*
Y123167D01*
X1672834Y122500D01*
X1671501D01*
X1670834Y123167D01*
X1669501Y122500D02*
X1668168D01*
X1668835D01*
Y126499D01*
X1669501Y125832D01*
X1666169D02*
X1665503Y126499D01*
X1664170D01*
X1663503Y125832D01*
Y125166D01*
X1664170Y124499D01*
X1663503Y123833D01*
Y123167D01*
X1664170Y122500D01*
X1665503D01*
X1666169Y123167D01*
Y123833D01*
X1665503Y124499D01*
X1666169Y125166D01*
Y125832D01*
X1665503Y124499D02*
X1664170D01*
X1660171Y122500D02*
Y126499D01*
X1662170Y124499D01*
X1659505D01*
X1658172Y126499D02*
Y122500D01*
X1656172D01*
X1655506Y123167D01*
Y123833D01*
X1656172Y124499D01*
X1658172D01*
X1656172D01*
X1655506Y125166D01*
Y125832D01*
X1656172Y126499D01*
X1658172D01*
X1670834Y226832D02*
X1671501Y227499D01*
X1672834D01*
X1673500Y226832D01*
Y224166D01*
X1672834Y223500D01*
X1671501D01*
X1670834Y224166D01*
X1669501Y223500D02*
X1668168D01*
X1668835D01*
Y227499D01*
X1669501Y226832D01*
X1666169D02*
X1665503Y227499D01*
X1664170D01*
X1663503Y226832D01*
Y226166D01*
X1664170Y225499D01*
X1663503Y224833D01*
Y224166D01*
X1664170Y223500D01*
X1665503D01*
X1666169Y224166D01*
Y224833D01*
X1665503Y225499D01*
X1666169Y226166D01*
Y226832D01*
X1665503Y225499D02*
X1664170D01*
X1660171Y223500D02*
Y227499D01*
X1662170Y225499D01*
X1659505D01*
X1658172Y223500D02*
Y226166D01*
X1656839Y227499D01*
X1655506Y226166D01*
Y223500D01*
Y225499D01*
X1658172D01*
X1670834Y169832D02*
X1671501Y170499D01*
X1672834D01*
X1673500Y169832D01*
Y167166D01*
X1672834Y166500D01*
X1671501D01*
X1670834Y167166D01*
X1669501Y166500D02*
X1668168D01*
X1668835D01*
Y170499D01*
X1669501Y169832D01*
X1666169D02*
X1665503Y170499D01*
X1664170D01*
X1663503Y169832D01*
Y169166D01*
X1664170Y168499D01*
X1663503Y167833D01*
Y167166D01*
X1664170Y166500D01*
X1665503D01*
X1666169Y167166D01*
Y167833D01*
X1665503Y168499D01*
X1666169Y169166D01*
Y169832D01*
X1665503Y168499D02*
X1664170D01*
X1662170Y169832D02*
X1661504Y170499D01*
X1660171D01*
X1659505Y169832D01*
Y169166D01*
X1660171Y168499D01*
X1660837D01*
X1660171D01*
X1659505Y167833D01*
Y167166D01*
X1660171Y166500D01*
X1661504D01*
X1662170Y167166D01*
X1658172Y170499D02*
Y166500D01*
X1656172D01*
X1655506Y167166D01*
Y167833D01*
X1656172Y168499D01*
X1658172D01*
X1656172D01*
X1655506Y169166D01*
Y169832D01*
X1656172Y170499D01*
X1658172D01*
X1670834Y270832D02*
X1671501Y271499D01*
X1672834D01*
X1673500Y270832D01*
Y268166D01*
X1672834Y267500D01*
X1671501D01*
X1670834Y268166D01*
X1669501Y267500D02*
X1668168D01*
X1668835D01*
Y271499D01*
X1669501Y270832D01*
X1666169D02*
X1665503Y271499D01*
X1664170D01*
X1663503Y270832D01*
Y270166D01*
X1664170Y269499D01*
X1663503Y268833D01*
Y268166D01*
X1664170Y267500D01*
X1665503D01*
X1666169Y268166D01*
Y268833D01*
X1665503Y269499D01*
X1666169Y270166D01*
Y270832D01*
X1665503Y269499D02*
X1664170D01*
X1662170Y270832D02*
X1661504Y271499D01*
X1660171D01*
X1659505Y270832D01*
Y270166D01*
X1660171Y269499D01*
X1660837D01*
X1660171D01*
X1659505Y268833D01*
Y268166D01*
X1660171Y267500D01*
X1661504D01*
X1662170Y268166D01*
X1658172Y267500D02*
Y270166D01*
X1656839Y271499D01*
X1655506Y270166D01*
Y267500D01*
Y269499D01*
X1658172D01*
X1615834Y211832D02*
X1616501Y212499D01*
X1617834D01*
X1618500Y211832D01*
Y209166D01*
X1617834Y208500D01*
X1616501D01*
X1615834Y209166D01*
X1614501Y208500D02*
X1613168D01*
X1613835D01*
Y212499D01*
X1614501Y211832D01*
X1611169D02*
X1610503Y212499D01*
X1609170D01*
X1608503Y211832D01*
Y211166D01*
X1609170Y210499D01*
X1608503Y209833D01*
Y209166D01*
X1609170Y208500D01*
X1610503D01*
X1611169Y209166D01*
Y209833D01*
X1610503Y210499D01*
X1611169Y211166D01*
Y211832D01*
X1610503Y210499D02*
X1609170D01*
X1604505Y208500D02*
X1607170D01*
X1604505Y211166D01*
Y211832D01*
X1605171Y212499D01*
X1606504D01*
X1607170Y211832D01*
X1603172Y212499D02*
Y208500D01*
X1601172D01*
X1600506Y209166D01*
Y209833D01*
X1601172Y210499D01*
X1603172D01*
X1601172D01*
X1600506Y211166D01*
Y211832D01*
X1601172Y212499D01*
X1603172D01*
X1615834Y312832D02*
X1616501Y313499D01*
X1617834D01*
X1618500Y312832D01*
Y310166D01*
X1617834Y309500D01*
X1616501D01*
X1615834Y310166D01*
X1614501Y309500D02*
X1613168D01*
X1613835D01*
Y313499D01*
X1614501Y312832D01*
X1611169D02*
X1610503Y313499D01*
X1609170D01*
X1608503Y312832D01*
Y312166D01*
X1609170Y311499D01*
X1608503Y310833D01*
Y310166D01*
X1609170Y309500D01*
X1610503D01*
X1611169Y310166D01*
Y310833D01*
X1610503Y311499D01*
X1611169Y312166D01*
Y312832D01*
X1610503Y311499D02*
X1609170D01*
X1604505Y309500D02*
X1607170D01*
X1604505Y312166D01*
Y312832D01*
X1605171Y313499D01*
X1606504D01*
X1607170Y312832D01*
X1603172Y309500D02*
Y312166D01*
X1601839Y313499D01*
X1600506Y312166D01*
Y309500D01*
Y311499D01*
X1603172D01*
X1615834Y183832D02*
X1616501Y184499D01*
X1617834D01*
X1618500Y183832D01*
Y181167D01*
X1617834Y180500D01*
X1616501D01*
X1615834Y181167D01*
X1614501Y180500D02*
X1613168D01*
X1613835D01*
Y184499D01*
X1614501Y183832D01*
X1611169D02*
X1610503Y184499D01*
X1609170D01*
X1608503Y183832D01*
Y183166D01*
X1609170Y182499D01*
X1608503Y181833D01*
Y181167D01*
X1609170Y180500D01*
X1610503D01*
X1611169Y181167D01*
Y181833D01*
X1610503Y182499D01*
X1611169Y183166D01*
Y183832D01*
X1610503Y182499D02*
X1609170D01*
X1607170Y180500D02*
X1605837D01*
X1606504D01*
Y184499D01*
X1607170Y183832D01*
X1603838Y184499D02*
Y180500D01*
X1601839D01*
X1601172Y181167D01*
Y181833D01*
X1601839Y182499D01*
X1603838D01*
X1601839D01*
X1601172Y183166D01*
Y183832D01*
X1601839Y184499D01*
X1603838D01*
X1615834Y284832D02*
X1616501Y285499D01*
X1617834D01*
X1618500Y284832D01*
Y282166D01*
X1617834Y281500D01*
X1616501D01*
X1615834Y282166D01*
X1614501Y281500D02*
X1613168D01*
X1613835D01*
Y285499D01*
X1614501Y284832D01*
X1611169D02*
X1610503Y285499D01*
X1609170D01*
X1608503Y284832D01*
Y284166D01*
X1609170Y283499D01*
X1608503Y282833D01*
Y282166D01*
X1609170Y281500D01*
X1610503D01*
X1611169Y282166D01*
Y282833D01*
X1610503Y283499D01*
X1611169Y284166D01*
Y284832D01*
X1610503Y283499D02*
X1609170D01*
X1607170Y281500D02*
X1605837D01*
X1606504D01*
Y285499D01*
X1607170Y284832D01*
X1603838Y281500D02*
Y284166D01*
X1602505Y285499D01*
X1601172Y284166D01*
Y281500D01*
Y283499D01*
X1603838D01*
X1639334Y125832D02*
X1640001Y126499D01*
X1641334D01*
X1642000Y125832D01*
Y123167D01*
X1641334Y122500D01*
X1640001D01*
X1639334Y123167D01*
X1638001Y122500D02*
X1636668D01*
X1637335D01*
Y126499D01*
X1638001Y125832D01*
X1634669D02*
X1634003Y126499D01*
X1632670D01*
X1632003Y125832D01*
Y125166D01*
X1632670Y124499D01*
X1632003Y123833D01*
Y123167D01*
X1632670Y122500D01*
X1634003D01*
X1634669Y123167D01*
Y123833D01*
X1634003Y124499D01*
X1634669Y125166D01*
Y125832D01*
X1634003Y124499D02*
X1632670D01*
X1630670Y125832D02*
X1630004Y126499D01*
X1628671D01*
X1628004Y125832D01*
Y123167D01*
X1628671Y122500D01*
X1630004D01*
X1630670Y123167D01*
Y125832D01*
X1626672Y126499D02*
Y122500D01*
X1624672D01*
X1624006Y123167D01*
Y123833D01*
X1624672Y124499D01*
X1626672D01*
X1624672D01*
X1624006Y125166D01*
Y125832D01*
X1624672Y126499D01*
X1626672D01*
X1639334Y226832D02*
X1640001Y227499D01*
X1641334D01*
X1642000Y226832D01*
Y224166D01*
X1641334Y223500D01*
X1640001D01*
X1639334Y224166D01*
X1638001Y223500D02*
X1636668D01*
X1637335D01*
Y227499D01*
X1638001Y226832D01*
X1634669D02*
X1634003Y227499D01*
X1632670D01*
X1632003Y226832D01*
Y226166D01*
X1632670Y225499D01*
X1632003Y224833D01*
Y224166D01*
X1632670Y223500D01*
X1634003D01*
X1634669Y224166D01*
Y224833D01*
X1634003Y225499D01*
X1634669Y226166D01*
Y226832D01*
X1634003Y225499D02*
X1632670D01*
X1630670Y226832D02*
X1630004Y227499D01*
X1628671D01*
X1628004Y226832D01*
Y224166D01*
X1628671Y223500D01*
X1630004D01*
X1630670Y224166D01*
Y226832D01*
X1626672Y223500D02*
Y226166D01*
X1625339Y227499D01*
X1624006Y226166D01*
Y223500D01*
Y225499D01*
X1626672D01*
X1639834Y170332D02*
X1640501Y170999D01*
X1641834D01*
X1642500Y170332D01*
Y167666D01*
X1641834Y167000D01*
X1640501D01*
X1639834Y167666D01*
X1638501Y167000D02*
X1637168D01*
X1637835D01*
Y170999D01*
X1638501Y170332D01*
X1635169Y170999D02*
X1632503D01*
Y170332D01*
X1635169Y167666D01*
Y167000D01*
X1631170Y167666D02*
X1630504Y167000D01*
X1629171D01*
X1628505Y167666D01*
Y170332D01*
X1629171Y170999D01*
X1630504D01*
X1631170Y170332D01*
Y169666D01*
X1630504Y168999D01*
X1628505D01*
X1627172Y170999D02*
Y167000D01*
X1625172D01*
X1624506Y167666D01*
Y168333D01*
X1625172Y168999D01*
X1627172D01*
X1625172D01*
X1624506Y169666D01*
Y170332D01*
X1625172Y170999D01*
X1627172D01*
X1639834Y271332D02*
X1640501Y271999D01*
X1641834D01*
X1642500Y271332D01*
Y268666D01*
X1641834Y268000D01*
X1640501D01*
X1639834Y268666D01*
X1638501Y268000D02*
X1637168D01*
X1637835D01*
Y271999D01*
X1638501Y271332D01*
X1635169Y271999D02*
X1632503D01*
Y271332D01*
X1635169Y268666D01*
Y268000D01*
X1631170Y268666D02*
X1630504Y268000D01*
X1629171D01*
X1628505Y268666D01*
Y271332D01*
X1629171Y271999D01*
X1630504D01*
X1631170Y271332D01*
Y270666D01*
X1630504Y269999D01*
X1628505D01*
X1627172Y268000D02*
Y270666D01*
X1625839Y271999D01*
X1624506Y270666D01*
Y268000D01*
Y269999D01*
X1627172D01*
X938334Y383921D02*
X939001Y384587D01*
X940333D01*
X941000Y383921D01*
Y381255D01*
X940333Y380589D01*
X939001D01*
X938334Y381255D01*
X937001Y383921D02*
X936335Y384587D01*
X935002D01*
X934336Y383921D01*
Y383254D01*
X935002Y382588D01*
X934336Y381922D01*
Y381255D01*
X935002Y380589D01*
X936335D01*
X937001Y381255D01*
Y381922D01*
X936335Y382588D01*
X937001Y383254D01*
Y383921D01*
X936335Y382588D02*
X935002D01*
X930337Y384587D02*
X933003D01*
Y382588D01*
X931670Y383254D01*
X931003D01*
X930337Y382588D01*
Y381255D01*
X931003Y380589D01*
X932336D01*
X933003Y381255D01*
X924228Y383721D02*
X924894Y384387D01*
X926227D01*
X926894Y383721D01*
Y381055D01*
X926227Y380389D01*
X924894D01*
X924228Y381055D01*
X922895Y383721D02*
X922229Y384387D01*
X920896D01*
X920229Y383721D01*
Y383054D01*
X920896Y382388D01*
X920229Y381721D01*
Y381055D01*
X920896Y380389D01*
X922229D01*
X922895Y381055D01*
Y381721D01*
X922229Y382388D01*
X922895Y383054D01*
Y383721D01*
X922229Y382388D02*
X920896D01*
X916230Y384387D02*
X917563Y383721D01*
X918896Y382388D01*
Y381055D01*
X918230Y380389D01*
X916897D01*
X916230Y381055D01*
Y381721D01*
X916897Y382388D01*
X918896D01*
X818715Y53977D02*
Y50645D01*
X818049Y49979D01*
X816716D01*
X816050Y50645D01*
Y53977D01*
X812717Y49979D02*
Y53977D01*
X814717Y51978D01*
X812051D01*
X808719Y49979D02*
Y53977D01*
X810718Y51978D01*
X808052D01*
X634824Y195589D02*
Y192256D01*
X634158Y191590D01*
X632825D01*
X632159Y192256D01*
Y195589D01*
X630826Y191590D02*
X629493D01*
X630159D01*
Y195589D01*
X630826Y194922D01*
X627493D02*
X626827Y195589D01*
X625494D01*
X624828Y194922D01*
Y194256D01*
X625494Y193589D01*
X626160D01*
X625494D01*
X624828Y192923D01*
Y192256D01*
X625494Y191590D01*
X626827D01*
X627493Y192256D01*
X623495Y191590D02*
Y194256D01*
X622162Y195589D01*
X620829Y194256D01*
Y191590D01*
Y193589D01*
X623495D01*
X515002Y201999D02*
Y198667D01*
X514336Y198000D01*
X513003D01*
X512336Y198667D01*
Y201999D01*
X511004Y198000D02*
X509671D01*
X510337D01*
Y201999D01*
X511004Y201332D01*
X507671D02*
X507005Y201999D01*
X505672D01*
X505006Y201332D01*
Y200666D01*
X505672Y199999D01*
X506339D01*
X505672D01*
X505006Y199333D01*
Y198667D01*
X505672Y198000D01*
X507005D01*
X507671Y198667D01*
X503673Y201999D02*
Y198000D01*
X501673D01*
X501007Y198667D01*
Y199333D01*
X501673Y199999D01*
X503673D01*
X501673D01*
X501007Y200666D01*
Y201332D01*
X501673Y201999D01*
X503673D01*
X288476D02*
Y198667D01*
X287810Y198000D01*
X286477D01*
X285811Y198667D01*
Y201999D01*
X284478Y198000D02*
X283145D01*
X283811D01*
Y201999D01*
X284478Y201332D01*
X281145D02*
X280479Y201999D01*
X279146D01*
X278480Y201332D01*
Y200666D01*
X279146Y199999D01*
X279813D01*
X279146D01*
X278480Y199333D01*
Y198667D01*
X279146Y198000D01*
X280479D01*
X281145Y198667D01*
X277147Y201999D02*
Y198000D01*
X275147D01*
X274481Y198667D01*
Y201332D01*
X275147Y201999D01*
X277147D01*
X143104Y179592D02*
X143771Y180259D01*
X145104D01*
X145770Y179592D01*
Y176926D01*
X145104Y176260D01*
X143771D01*
X143104Y176926D01*
X141771D02*
X141105Y176260D01*
X139772D01*
X139106Y176926D01*
Y179592D01*
X139772Y180259D01*
X141105D01*
X141771Y179592D01*
Y178926D01*
X141105Y178259D01*
X139106D01*
X137773Y176260D02*
X136440D01*
X137106D01*
Y180259D01*
X137773Y179592D01*
X131775Y180259D02*
X134440D01*
Y176260D01*
X131775D01*
X134440Y178259D02*
X133107D01*
X52747Y123653D02*
X49415D01*
X48749Y124320D01*
Y125653D01*
X49415Y126319D01*
X52747D01*
X48749Y127652D02*
Y128985D01*
Y128319D01*
X52747D01*
X52081Y127652D01*
X48749Y133650D02*
Y130984D01*
X51415Y133650D01*
X52081D01*
X52747Y132984D01*
Y131651D01*
X52081Y130984D01*
X52747Y137649D02*
Y134983D01*
X50748D01*
Y136316D01*
Y134983D01*
X48749D01*
X166593Y123000D02*
X163261D01*
X162594Y123667D01*
Y124999D01*
X163261Y125666D01*
X166593D01*
X162594Y126999D02*
Y128332D01*
Y127665D01*
X166593D01*
X165927Y126999D01*
X162594Y132997D02*
Y130331D01*
X165260Y132997D01*
X165927D01*
X166593Y132330D01*
Y130997D01*
X165927Y130331D01*
X166593Y136995D02*
Y134330D01*
X162594D01*
Y136995D01*
X164594Y134330D02*
Y135663D01*
X508560Y124000D02*
X505228D01*
X504561Y124667D01*
Y125999D01*
X505228Y126666D01*
X508560D01*
X504561Y127999D02*
Y129332D01*
Y128665D01*
X508560D01*
X507894Y127999D01*
X504561Y133997D02*
Y131331D01*
X507227Y133997D01*
X507894D01*
X508560Y133330D01*
Y131997D01*
X507894Y131331D01*
X508560Y135330D02*
X504561D01*
Y137329D01*
X505228Y137996D01*
X505894D01*
X506561Y137329D01*
Y135330D01*
Y137329D01*
X507227Y137996D01*
X507894D01*
X508560Y137329D01*
Y135330D01*
X833500Y26999D02*
Y23000D01*
X831501D01*
X830834Y23666D01*
Y26332D01*
X831501Y26999D01*
X833500D01*
X829501Y26332D02*
X828835Y26999D01*
X827502D01*
X826836Y26332D01*
Y25666D01*
X827502Y24999D01*
X826836Y24333D01*
Y23666D01*
X827502Y23000D01*
X828835D01*
X829501Y23666D01*
Y24333D01*
X828835Y24999D01*
X829501Y25666D01*
Y26332D01*
X828835Y24999D02*
X827502D01*
X791500Y26999D02*
Y23000D01*
X789501D01*
X788834Y23666D01*
Y26332D01*
X789501Y26999D01*
X791500D01*
X787501D02*
X784835D01*
Y26332D01*
X787501Y23666D01*
Y23000D01*
X516001Y479000D02*
X520000D01*
Y477001D01*
X519334Y476334D01*
X516668D01*
X516001Y477001D01*
Y479000D01*
X520000Y475001D02*
Y473668D01*
Y474335D01*
X516001D01*
X516668Y475001D01*
X984648Y427152D02*
Y423820D01*
X983981Y423153D01*
X982648D01*
X981982Y423820D01*
Y427152D01*
X978650Y423153D02*
Y427152D01*
X980649Y425153D01*
X977983D01*
X976650Y426486D02*
X975984Y427152D01*
X974651D01*
X973985Y426486D01*
Y423820D01*
X974651Y423153D01*
X975984D01*
X976650Y423820D01*
Y426486D01*
X972652Y427152D02*
Y423153D01*
X970652D01*
X969986Y423820D01*
Y424486D01*
X970652Y425153D01*
X972652D01*
X970652D01*
X969986Y425819D01*
Y426486D01*
X970652Y427152D01*
X972652D01*
X303255Y342845D02*
Y339513D01*
X302588Y338846D01*
X301255D01*
X300589Y339513D01*
Y342845D01*
X297256Y338846D02*
Y342845D01*
X299256Y340846D01*
X296590D01*
X295257Y342179D02*
X294591Y342845D01*
X293258D01*
X292591Y342179D01*
Y339513D01*
X293258Y338846D01*
X294591D01*
X295257Y339513D01*
Y342179D01*
X291258Y338846D02*
Y341512D01*
X289926Y342845D01*
X288593Y341512D01*
Y338846D01*
Y340846D01*
X291258D01*
X896262Y427152D02*
Y423820D01*
X895595Y423153D01*
X894262D01*
X893596Y423820D01*
Y427152D01*
X892263Y426486D02*
X891597Y427152D01*
X890264D01*
X889597Y426486D01*
Y425819D01*
X890264Y425153D01*
X890930D01*
X890264D01*
X889597Y424486D01*
Y423820D01*
X890264Y423153D01*
X891597D01*
X892263Y423820D01*
X888264Y427152D02*
X885599D01*
Y426486D01*
X888264Y423820D01*
Y423153D01*
X884266Y427152D02*
Y423153D01*
X882266D01*
X881600Y423820D01*
Y424486D01*
X882266Y425153D01*
X884266D01*
X882266D01*
X881600Y425819D01*
Y426486D01*
X882266Y427152D01*
X884266D01*
X381000Y342999D02*
Y339666D01*
X380334Y339000D01*
X379001D01*
X378334Y339666D01*
Y342999D01*
X377001Y342332D02*
X376335Y342999D01*
X375002D01*
X374336Y342332D01*
Y341666D01*
X375002Y340999D01*
X375668D01*
X375002D01*
X374336Y340333D01*
Y339666D01*
X375002Y339000D01*
X376335D01*
X377001Y339666D01*
X373003Y342999D02*
X370337D01*
Y342332D01*
X373003Y339666D01*
Y339000D01*
X369004D02*
Y341666D01*
X367671Y342999D01*
X366338Y341666D01*
Y339000D01*
Y340999D01*
X369004D01*
X933811Y359652D02*
Y356320D01*
X933145Y355654D01*
X931812D01*
X931145Y356320D01*
Y359652D01*
X929812Y358986D02*
X929146Y359652D01*
X927813D01*
X927147Y358986D01*
Y358319D01*
X927813Y357653D01*
X928479D01*
X927813D01*
X927147Y356986D01*
Y356320D01*
X927813Y355654D01*
X929146D01*
X929812Y356320D01*
X923814Y355654D02*
Y359652D01*
X925814Y357653D01*
X923148D01*
X230999Y123653D02*
X227666D01*
X227000Y124320D01*
Y125653D01*
X227666Y126319D01*
X230999D01*
X227000Y127652D02*
Y128985D01*
Y128319D01*
X230999D01*
X230332Y127652D01*
X230999Y133650D02*
Y130984D01*
X228999D01*
X229666Y132317D01*
Y132984D01*
X228999Y133650D01*
X227666D01*
X227000Y132984D01*
Y131651D01*
X227666Y130984D01*
X230999Y137649D02*
Y134983D01*
X227000D01*
Y137649D01*
X228999Y134983D02*
Y136316D01*
X344999Y124000D02*
X341666D01*
X341000Y124667D01*
Y125999D01*
X341666Y126666D01*
X344999D01*
X341000Y127999D02*
Y129332D01*
Y128665D01*
X344999D01*
X344332Y127999D01*
X344999Y133997D02*
Y131331D01*
X342999D01*
X343666Y132664D01*
Y133330D01*
X342999Y133997D01*
X341666D01*
X341000Y133330D01*
Y131997D01*
X341666Y131331D01*
X344999Y135330D02*
X341000D01*
Y137329D01*
X341666Y137996D01*
X344332D01*
X344999Y137329D01*
Y135330D01*
X458999Y123653D02*
X455666D01*
X455000Y124320D01*
Y125653D01*
X455666Y126319D01*
X458999D01*
X455000Y127652D02*
Y128985D01*
Y128319D01*
X458999D01*
X458332Y127652D01*
X458999Y133650D02*
Y130984D01*
X456999D01*
X457666Y132317D01*
Y132984D01*
X456999Y133650D01*
X455666D01*
X455000Y132984D01*
Y131651D01*
X455666Y130984D01*
X458332Y137649D02*
X458999Y136983D01*
Y135650D01*
X458332Y134983D01*
X455666D01*
X455000Y135650D01*
Y136983D01*
X455666Y137649D01*
X572999Y123653D02*
X569666D01*
X569000Y124320D01*
Y125653D01*
X569666Y126319D01*
X572999D01*
X569000Y127652D02*
Y128985D01*
Y128319D01*
X572999D01*
X572332Y127652D01*
X572999Y133650D02*
Y130984D01*
X570999D01*
X571666Y132317D01*
Y132984D01*
X570999Y133650D01*
X569666D01*
X569000Y132984D01*
Y131651D01*
X569666Y130984D01*
X572999Y134983D02*
X569000D01*
Y136983D01*
X569666Y137649D01*
X570333D01*
X570999Y136983D01*
Y134983D01*
Y136983D01*
X571666Y137649D01*
X572332D01*
X572999Y136983D01*
Y134983D01*
X687899Y124000D02*
X684566D01*
X683900Y124667D01*
Y125999D01*
X684566Y126666D01*
X687899D01*
X683900Y127999D02*
Y129332D01*
Y128665D01*
X687899D01*
X687232Y127999D01*
X687899Y133997D02*
Y131331D01*
X685899D01*
X686566Y132664D01*
Y133330D01*
X685899Y133997D01*
X684566D01*
X683900Y133330D01*
Y131997D01*
X684566Y131331D01*
X683900Y135330D02*
X686566D01*
X687899Y136663D01*
X686566Y137996D01*
X683900D01*
X685899D01*
Y135330D01*
X59272Y201999D02*
Y198667D01*
X58605Y198000D01*
X57272D01*
X56606Y198667D01*
Y201999D01*
X55273Y198000D02*
X53940D01*
X54606D01*
Y201999D01*
X55273Y201332D01*
X51941D02*
X51274Y201999D01*
X49941D01*
X49275Y201332D01*
Y200666D01*
X49941Y199999D01*
X50608D01*
X49941D01*
X49275Y199333D01*
Y198667D01*
X49941Y198000D01*
X51274D01*
X51941Y198667D01*
X45276Y201999D02*
X47942D01*
Y199999D01*
X46609D01*
X47942D01*
Y198000D01*
X280532Y124000D02*
X277200D01*
X276533Y124667D01*
Y125999D01*
X277200Y126666D01*
X280532D01*
X276533Y127999D02*
Y129332D01*
Y128665D01*
X280532D01*
X279866Y127999D01*
X276533Y133997D02*
Y131331D01*
X279199Y133997D01*
X279866D01*
X280532Y133330D01*
Y131997D01*
X279866Y131331D01*
X280532Y135330D02*
X276533D01*
Y137329D01*
X277200Y137996D01*
X279866D01*
X280532Y137329D01*
Y135330D01*
X394690Y123653D02*
X391358D01*
X390691Y124320D01*
Y125653D01*
X391358Y126319D01*
X394690D01*
X390691Y127652D02*
Y128985D01*
Y128319D01*
X394690D01*
X394024Y127652D01*
X390691Y133650D02*
Y130984D01*
X393357Y133650D01*
X394024D01*
X394690Y132984D01*
Y131651D01*
X394024Y130984D01*
Y137649D02*
X394690Y136983D01*
Y135650D01*
X394024Y134983D01*
X391358D01*
X390691Y135650D01*
Y136983D01*
X391358Y137649D01*
X622999Y124000D02*
X619666D01*
X619000Y124667D01*
Y125999D01*
X619666Y126666D01*
X622999D01*
X619000Y127999D02*
Y129332D01*
Y128665D01*
X622999D01*
X622332Y127999D01*
X619000Y133997D02*
Y131331D01*
X621666Y133997D01*
X622332D01*
X622999Y133330D01*
Y131997D01*
X622332Y131331D01*
X619000Y135330D02*
X621666D01*
X622999Y136663D01*
X621666Y137996D01*
X619000D01*
X620999D01*
Y135330D01*
X1281999Y113500D02*
X1278666D01*
X1278000Y114166D01*
Y115499D01*
X1278666Y116166D01*
X1281999D01*
X1278000Y117499D02*
Y118832D01*
Y118165D01*
X1281999D01*
X1281332Y117499D01*
X1278000Y120831D02*
Y122164D01*
Y121497D01*
X1281999D01*
X1281332Y120831D01*
X1237499Y113457D02*
X1234167D01*
X1233500Y114123D01*
Y115456D01*
X1234167Y116122D01*
X1237499D01*
X1233500Y117455D02*
Y118788D01*
Y118122D01*
X1237499D01*
X1236832Y117455D01*
Y120788D02*
X1237499Y121454D01*
Y122787D01*
X1236832Y123453D01*
X1234167D01*
X1233500Y122787D01*
Y121454D01*
X1234167Y120788D01*
X1236832D01*
X1195499Y115500D02*
X1192167D01*
X1191500Y116166D01*
Y117499D01*
X1192167Y118166D01*
X1195499D01*
X1192167Y119499D02*
X1191500Y120165D01*
Y121498D01*
X1192167Y122164D01*
X1194832D01*
X1195499Y121498D01*
Y120165D01*
X1194832Y119499D01*
X1194166D01*
X1193499Y120165D01*
Y122164D01*
X1452663Y308499D02*
Y305166D01*
X1451997Y304500D01*
X1450664D01*
X1449997Y305166D01*
Y308499D01*
X1448664Y307832D02*
X1447998Y308499D01*
X1446665D01*
X1445999Y307832D01*
Y307166D01*
X1446665Y306499D01*
X1447332D01*
X1446665D01*
X1445999Y305833D01*
Y305166D01*
X1446665Y304500D01*
X1447998D01*
X1448664Y305166D01*
X1444666Y308499D02*
Y304500D01*
Y306499D01*
X1442000D01*
Y308499D01*
Y304500D01*
X1543663Y308499D02*
Y305166D01*
X1542997Y304500D01*
X1541664D01*
X1540997Y305166D01*
Y308499D01*
X1539664Y307832D02*
X1538998Y308499D01*
X1537665D01*
X1536999Y307832D01*
Y307166D01*
X1537665Y306499D01*
X1538332D01*
X1537665D01*
X1536999Y305833D01*
Y305166D01*
X1537665Y304500D01*
X1538998D01*
X1539664Y305166D01*
X1533000Y307832D02*
X1533667Y308499D01*
X1534999D01*
X1535666Y307832D01*
Y305166D01*
X1534999Y304500D01*
X1533667D01*
X1533000Y305166D01*
Y306499D01*
X1534333D01*
X1452663Y250999D02*
Y247666D01*
X1451997Y247000D01*
X1450664D01*
X1449997Y247666D01*
Y250999D01*
X1448664Y250332D02*
X1447998Y250999D01*
X1446665D01*
X1445999Y250332D01*
Y249666D01*
X1446665Y248999D01*
X1447332D01*
X1446665D01*
X1445999Y248333D01*
Y247666D01*
X1446665Y247000D01*
X1447998D01*
X1448664Y247666D01*
X1442000Y250999D02*
X1444666D01*
Y248999D01*
X1443333D01*
X1444666D01*
Y247000D01*
X1543663Y250999D02*
Y247666D01*
X1542997Y247000D01*
X1541664D01*
X1540997Y247666D01*
Y250999D01*
X1539664Y250332D02*
X1538998Y250999D01*
X1537665D01*
X1536999Y250332D01*
Y249666D01*
X1537665Y248999D01*
X1538332D01*
X1537665D01*
X1536999Y248333D01*
Y247666D01*
X1537665Y247000D01*
X1538998D01*
X1539664Y247666D01*
X1533000Y250999D02*
X1535666D01*
Y247000D01*
X1533000D01*
X1535666Y248999D02*
X1534333D01*
X1452663Y193499D02*
Y190166D01*
X1451997Y189500D01*
X1450664D01*
X1449997Y190166D01*
Y193499D01*
X1448664Y192832D02*
X1447998Y193499D01*
X1446665D01*
X1445999Y192832D01*
Y192166D01*
X1446665Y191499D01*
X1447332D01*
X1446665D01*
X1445999Y190833D01*
Y190166D01*
X1446665Y189500D01*
X1447998D01*
X1448664Y190166D01*
X1444666Y193499D02*
Y189500D01*
X1442667D01*
X1442000Y190166D01*
Y192832D01*
X1442667Y193499D01*
X1444666D01*
X1543663D02*
Y190166D01*
X1542997Y189500D01*
X1541664D01*
X1540997Y190166D01*
Y193499D01*
X1539664Y192832D02*
X1538998Y193499D01*
X1537665D01*
X1536999Y192832D01*
Y192166D01*
X1537665Y191499D01*
X1538332D01*
X1537665D01*
X1536999Y190833D01*
Y190166D01*
X1537665Y189500D01*
X1538998D01*
X1539664Y190166D01*
X1533000Y192832D02*
X1533667Y193499D01*
X1534999D01*
X1535666Y192832D01*
Y190166D01*
X1534999Y189500D01*
X1533667D01*
X1533000Y190166D01*
X1452663Y135999D02*
Y132667D01*
X1451997Y132000D01*
X1450664D01*
X1449997Y132667D01*
Y135999D01*
X1448664Y135332D02*
X1447998Y135999D01*
X1446665D01*
X1445999Y135332D01*
Y134666D01*
X1446665Y133999D01*
X1447332D01*
X1446665D01*
X1445999Y133333D01*
Y132667D01*
X1446665Y132000D01*
X1447998D01*
X1448664Y132667D01*
X1444666Y135999D02*
Y132000D01*
X1442667D01*
X1442000Y132667D01*
Y133333D01*
X1442667Y133999D01*
X1444666D01*
X1442667D01*
X1442000Y134666D01*
Y135332D01*
X1442667Y135999D01*
X1444666D01*
X1543663D02*
Y132667D01*
X1542997Y132000D01*
X1541664D01*
X1540997Y132667D01*
Y135999D01*
X1539664Y135332D02*
X1538998Y135999D01*
X1537665D01*
X1536999Y135332D01*
Y134666D01*
X1537665Y133999D01*
X1538332D01*
X1537665D01*
X1536999Y133333D01*
Y132667D01*
X1537665Y132000D01*
X1538998D01*
X1539664Y132667D01*
X1535666Y132000D02*
Y134666D01*
X1534333Y135999D01*
X1533000Y134666D01*
Y132000D01*
Y133999D01*
X1535666D01*
X827000Y108500D02*
X830999D01*
Y110499D01*
X830332Y111166D01*
X828999D01*
X828333Y110499D01*
Y108500D01*
Y109833D02*
X827000Y111166D01*
X830999Y115164D02*
Y112499D01*
X828999D01*
X829666Y113832D01*
Y114498D01*
X828999Y115164D01*
X827666D01*
X827000Y114498D01*
Y113165D01*
X827666Y112499D01*
X830999Y119163D02*
X830332Y117830D01*
X828999Y116497D01*
X827666D01*
X827000Y117164D01*
Y118497D01*
X827666Y119163D01*
X828333D01*
X828999Y118497D01*
Y116497D01*
X859000Y69500D02*
Y73499D01*
X857001D01*
X856334Y72832D01*
Y71499D01*
X857001Y70833D01*
X859000D01*
X857667D02*
X856334Y69500D01*
X852335Y73499D02*
X855001D01*
Y71499D01*
X853668Y72166D01*
X853002D01*
X852335Y71499D01*
Y70166D01*
X853002Y69500D01*
X854335D01*
X855001Y70166D01*
X848337Y73499D02*
X851003D01*
Y71499D01*
X849670Y72166D01*
X849003D01*
X848337Y71499D01*
Y70166D01*
X849003Y69500D01*
X850336D01*
X851003Y70166D01*
X858500Y77000D02*
Y80999D01*
X856501D01*
X855834Y80332D01*
Y78999D01*
X856501Y78333D01*
X858500D01*
X857167D02*
X855834Y77000D01*
X851836Y80999D02*
X854501D01*
Y78999D01*
X853168Y79666D01*
X852502D01*
X851836Y78999D01*
Y77666D01*
X852502Y77000D01*
X853835D01*
X854501Y77666D01*
X848503Y77000D02*
Y80999D01*
X850503Y78999D01*
X847837D01*
X503400Y482000D02*
X499401D01*
Y480001D01*
X500068Y479334D01*
X501401D01*
X502067Y480001D01*
Y482000D01*
Y480667D02*
X503400Y479334D01*
Y478001D02*
Y476668D01*
Y477335D01*
X499401D01*
X500068Y478001D01*
X499401Y474669D02*
Y472003D01*
X500068D01*
X502734Y474669D01*
X503400D01*
X537685Y481653D02*
X533686D01*
Y479654D01*
X534353Y478988D01*
X535686D01*
X536352Y479654D01*
Y481653D01*
Y480321D02*
X537685Y478988D01*
Y477655D02*
Y476322D01*
Y476988D01*
X533686D01*
X534353Y477655D01*
Y474323D02*
X533686Y473656D01*
Y472323D01*
X534353Y471657D01*
X535019D01*
X535686Y472323D01*
Y472990D01*
Y472323D01*
X536352Y471657D01*
X537018D01*
X537685Y472323D01*
Y473656D01*
X537018Y474323D01*
X1490663Y318500D02*
Y322499D01*
X1488664D01*
X1487997Y321832D01*
Y320499D01*
X1488664Y319833D01*
X1490663D01*
X1489330D02*
X1487997Y318500D01*
X1486664Y319166D02*
X1485998Y318500D01*
X1484665D01*
X1483999Y319166D01*
Y321832D01*
X1484665Y322499D01*
X1485998D01*
X1486664Y321832D01*
Y321166D01*
X1485998Y320499D01*
X1483999D01*
X1482666Y322499D02*
Y318500D01*
Y320499D01*
X1480000D01*
Y322499D01*
Y318500D01*
X1581663D02*
Y322499D01*
X1579664D01*
X1578997Y321832D01*
Y320499D01*
X1579664Y319833D01*
X1581663D01*
X1580330D02*
X1578997Y318500D01*
X1577664Y319166D02*
X1576998Y318500D01*
X1575665D01*
X1574999Y319166D01*
Y321832D01*
X1575665Y322499D01*
X1576998D01*
X1577664Y321832D01*
Y321166D01*
X1576998Y320499D01*
X1574999D01*
X1571000Y321832D02*
X1571667Y322499D01*
X1572999D01*
X1573666Y321832D01*
Y319166D01*
X1572999Y318500D01*
X1571667D01*
X1571000Y319166D01*
Y320499D01*
X1572333D01*
X1490663Y261000D02*
Y264999D01*
X1488664D01*
X1487997Y264332D01*
Y262999D01*
X1488664Y262333D01*
X1490663D01*
X1489330D02*
X1487997Y261000D01*
X1486664Y261666D02*
X1485998Y261000D01*
X1484665D01*
X1483999Y261666D01*
Y264332D01*
X1484665Y264999D01*
X1485998D01*
X1486664Y264332D01*
Y263666D01*
X1485998Y262999D01*
X1483999D01*
X1480000Y264999D02*
X1482666D01*
Y262999D01*
X1481333D01*
X1482666D01*
Y261000D01*
X1581663D02*
Y264999D01*
X1579664D01*
X1578997Y264332D01*
Y262999D01*
X1579664Y262333D01*
X1581663D01*
X1580330D02*
X1578997Y261000D01*
X1577664Y261666D02*
X1576998Y261000D01*
X1575665D01*
X1574999Y261666D01*
Y264332D01*
X1575665Y264999D01*
X1576998D01*
X1577664Y264332D01*
Y263666D01*
X1576998Y262999D01*
X1574999D01*
X1571000Y264999D02*
X1573666D01*
Y261000D01*
X1571000D01*
X1573666Y262999D02*
X1572333D01*
X1490663Y203500D02*
Y207499D01*
X1488664D01*
X1487997Y206832D01*
Y205499D01*
X1488664Y204833D01*
X1490663D01*
X1489330D02*
X1487997Y203500D01*
X1486664Y204167D02*
X1485998Y203500D01*
X1484665D01*
X1483999Y204167D01*
Y206832D01*
X1484665Y207499D01*
X1485998D01*
X1486664Y206832D01*
Y206166D01*
X1485998Y205499D01*
X1483999D01*
X1482666Y207499D02*
Y203500D01*
X1480667D01*
X1480000Y204167D01*
Y206832D01*
X1480667Y207499D01*
X1482666D01*
X1581663Y203500D02*
Y207499D01*
X1579664D01*
X1578997Y206832D01*
Y205499D01*
X1579664Y204833D01*
X1581663D01*
X1580330D02*
X1578997Y203500D01*
X1577664Y204167D02*
X1576998Y203500D01*
X1575665D01*
X1574999Y204167D01*
Y206832D01*
X1575665Y207499D01*
X1576998D01*
X1577664Y206832D01*
Y206166D01*
X1576998Y205499D01*
X1574999D01*
X1571000Y206832D02*
X1571667Y207499D01*
X1572999D01*
X1573666Y206832D01*
Y204167D01*
X1572999Y203500D01*
X1571667D01*
X1571000Y204167D01*
X1490663Y146000D02*
Y149999D01*
X1488664D01*
X1487997Y149332D01*
Y147999D01*
X1488664Y147333D01*
X1490663D01*
X1489330D02*
X1487997Y146000D01*
X1486664Y146667D02*
X1485998Y146000D01*
X1484665D01*
X1483999Y146667D01*
Y149332D01*
X1484665Y149999D01*
X1485998D01*
X1486664Y149332D01*
Y148666D01*
X1485998Y147999D01*
X1483999D01*
X1482666Y149999D02*
Y146000D01*
X1480667D01*
X1480000Y146667D01*
Y147333D01*
X1480667Y147999D01*
X1482666D01*
X1480667D01*
X1480000Y148666D01*
Y149332D01*
X1480667Y149999D01*
X1482666D01*
X1581663Y146000D02*
Y149999D01*
X1579664D01*
X1578997Y149332D01*
Y147999D01*
X1579664Y147333D01*
X1581663D01*
X1580330D02*
X1578997Y146000D01*
X1577664Y146667D02*
X1576998Y146000D01*
X1575665D01*
X1574999Y146667D01*
Y149332D01*
X1575665Y149999D01*
X1576998D01*
X1577664Y149332D01*
Y148666D01*
X1576998Y147999D01*
X1574999D01*
X1573666Y146000D02*
Y148666D01*
X1572333Y149999D01*
X1571000Y148666D01*
Y146000D01*
Y147999D01*
X1573666D01*
X1490663Y311500D02*
Y315499D01*
X1488664D01*
X1487997Y314832D01*
Y313499D01*
X1488664Y312833D01*
X1490663D01*
X1489330D02*
X1487997Y311500D01*
X1486664Y314832D02*
X1485998Y315499D01*
X1484665D01*
X1483999Y314832D01*
Y314166D01*
X1484665Y313499D01*
X1483999Y312833D01*
Y312166D01*
X1484665Y311500D01*
X1485998D01*
X1486664Y312166D01*
Y312833D01*
X1485998Y313499D01*
X1486664Y314166D01*
Y314832D01*
X1485998Y313499D02*
X1484665D01*
X1482666Y315499D02*
Y311500D01*
Y313499D01*
X1480000D01*
Y315499D01*
Y311500D01*
X1581663D02*
Y315499D01*
X1579664D01*
X1578997Y314832D01*
Y313499D01*
X1579664Y312833D01*
X1581663D01*
X1580330D02*
X1578997Y311500D01*
X1577664Y314832D02*
X1576998Y315499D01*
X1575665D01*
X1574999Y314832D01*
Y314166D01*
X1575665Y313499D01*
X1574999Y312833D01*
Y312166D01*
X1575665Y311500D01*
X1576998D01*
X1577664Y312166D01*
Y312833D01*
X1576998Y313499D01*
X1577664Y314166D01*
Y314832D01*
X1576998Y313499D02*
X1575665D01*
X1571000Y314832D02*
X1571667Y315499D01*
X1572999D01*
X1573666Y314832D01*
Y312166D01*
X1572999Y311500D01*
X1571667D01*
X1571000Y312166D01*
Y313499D01*
X1572333D01*
X1490663Y254000D02*
Y257999D01*
X1488664D01*
X1487997Y257332D01*
Y255999D01*
X1488664Y255333D01*
X1490663D01*
X1489330D02*
X1487997Y254000D01*
X1486664Y257332D02*
X1485998Y257999D01*
X1484665D01*
X1483999Y257332D01*
Y256666D01*
X1484665Y255999D01*
X1483999Y255333D01*
Y254666D01*
X1484665Y254000D01*
X1485998D01*
X1486664Y254666D01*
Y255333D01*
X1485998Y255999D01*
X1486664Y256666D01*
Y257332D01*
X1485998Y255999D02*
X1484665D01*
X1480000Y257999D02*
X1482666D01*
Y255999D01*
X1481333D01*
X1482666D01*
Y254000D01*
X1581663D02*
Y257999D01*
X1579664D01*
X1578997Y257332D01*
Y255999D01*
X1579664Y255333D01*
X1581663D01*
X1580330D02*
X1578997Y254000D01*
X1577664Y257332D02*
X1576998Y257999D01*
X1575665D01*
X1574999Y257332D01*
Y256666D01*
X1575665Y255999D01*
X1574999Y255333D01*
Y254666D01*
X1575665Y254000D01*
X1576998D01*
X1577664Y254666D01*
Y255333D01*
X1576998Y255999D01*
X1577664Y256666D01*
Y257332D01*
X1576998Y255999D02*
X1575665D01*
X1571000Y257999D02*
X1573666D01*
Y254000D01*
X1571000D01*
X1573666Y255999D02*
X1572333D01*
X1490663Y196500D02*
Y200499D01*
X1488664D01*
X1487997Y199832D01*
Y198499D01*
X1488664Y197833D01*
X1490663D01*
X1489330D02*
X1487997Y196500D01*
X1486664Y199832D02*
X1485998Y200499D01*
X1484665D01*
X1483999Y199832D01*
Y199166D01*
X1484665Y198499D01*
X1483999Y197833D01*
Y197167D01*
X1484665Y196500D01*
X1485998D01*
X1486664Y197167D01*
Y197833D01*
X1485998Y198499D01*
X1486664Y199166D01*
Y199832D01*
X1485998Y198499D02*
X1484665D01*
X1482666Y200499D02*
Y196500D01*
X1480667D01*
X1480000Y197167D01*
Y199832D01*
X1480667Y200499D01*
X1482666D01*
X1581663Y196500D02*
Y200499D01*
X1579664D01*
X1578997Y199832D01*
Y198499D01*
X1579664Y197833D01*
X1581663D01*
X1580330D02*
X1578997Y196500D01*
X1577664Y199832D02*
X1576998Y200499D01*
X1575665D01*
X1574999Y199832D01*
Y199166D01*
X1575665Y198499D01*
X1574999Y197833D01*
Y197167D01*
X1575665Y196500D01*
X1576998D01*
X1577664Y197167D01*
Y197833D01*
X1576998Y198499D01*
X1577664Y199166D01*
Y199832D01*
X1576998Y198499D02*
X1575665D01*
X1571000Y199832D02*
X1571667Y200499D01*
X1572999D01*
X1573666Y199832D01*
Y197167D01*
X1572999Y196500D01*
X1571667D01*
X1571000Y197167D01*
X1490663Y139000D02*
Y142999D01*
X1488664D01*
X1487997Y142332D01*
Y140999D01*
X1488664Y140333D01*
X1490663D01*
X1489330D02*
X1487997Y139000D01*
X1486664Y142332D02*
X1485998Y142999D01*
X1484665D01*
X1483999Y142332D01*
Y141666D01*
X1484665Y140999D01*
X1483999Y140333D01*
Y139666D01*
X1484665Y139000D01*
X1485998D01*
X1486664Y139666D01*
Y140333D01*
X1485998Y140999D01*
X1486664Y141666D01*
Y142332D01*
X1485998Y140999D02*
X1484665D01*
X1482666Y142999D02*
Y139000D01*
X1480667D01*
X1480000Y139666D01*
Y140333D01*
X1480667Y140999D01*
X1482666D01*
X1480667D01*
X1480000Y141666D01*
Y142332D01*
X1480667Y142999D01*
X1482666D01*
X1581663Y139000D02*
Y142999D01*
X1579664D01*
X1578997Y142332D01*
Y140999D01*
X1579664Y140333D01*
X1581663D01*
X1580330D02*
X1578997Y139000D01*
X1577664Y142332D02*
X1576998Y142999D01*
X1575665D01*
X1574999Y142332D01*
Y141666D01*
X1575665Y140999D01*
X1574999Y140333D01*
Y139666D01*
X1575665Y139000D01*
X1576998D01*
X1577664Y139666D01*
Y140333D01*
X1576998Y140999D01*
X1577664Y141666D01*
Y142332D01*
X1576998Y140999D02*
X1575665D01*
X1573666Y139000D02*
Y141666D01*
X1572333Y142999D01*
X1571000Y141666D01*
Y139000D01*
Y140999D01*
X1573666D01*
X1466663Y291500D02*
Y295499D01*
X1464664D01*
X1463997Y294832D01*
Y293499D01*
X1464664Y292833D01*
X1466663D01*
X1465330D02*
X1463997Y291500D01*
X1462665Y295499D02*
X1459999D01*
Y294832D01*
X1462665Y292166D01*
Y291500D01*
X1458666Y295499D02*
Y291500D01*
Y293499D01*
X1456000D01*
Y295499D01*
Y291500D01*
X1557663D02*
Y295499D01*
X1555664D01*
X1554997Y294832D01*
Y293499D01*
X1555664Y292833D01*
X1557663D01*
X1556330D02*
X1554997Y291500D01*
X1553664Y295499D02*
X1550999D01*
Y294832D01*
X1553664Y292166D01*
Y291500D01*
X1547000Y294832D02*
X1547666Y295499D01*
X1548999D01*
X1549666Y294832D01*
Y292166D01*
X1548999Y291500D01*
X1547666D01*
X1547000Y292166D01*
Y293499D01*
X1548333D01*
X1466663Y234000D02*
Y237999D01*
X1464664D01*
X1463997Y237332D01*
Y235999D01*
X1464664Y235333D01*
X1466663D01*
X1465330D02*
X1463997Y234000D01*
X1462665Y237999D02*
X1459999D01*
Y237332D01*
X1462665Y234666D01*
Y234000D01*
X1456000Y237999D02*
X1458666D01*
Y235999D01*
X1457333D01*
X1458666D01*
Y234000D01*
X1557663D02*
Y237999D01*
X1555664D01*
X1554997Y237332D01*
Y235999D01*
X1555664Y235333D01*
X1557663D01*
X1556330D02*
X1554997Y234000D01*
X1553664Y237999D02*
X1550999D01*
Y237332D01*
X1553664Y234666D01*
Y234000D01*
X1547000Y237999D02*
X1549666D01*
Y234000D01*
X1547000D01*
X1549666Y235999D02*
X1548333D01*
X1466663Y176500D02*
Y180499D01*
X1464664D01*
X1463997Y179832D01*
Y178499D01*
X1464664Y177833D01*
X1466663D01*
X1465330D02*
X1463997Y176500D01*
X1462665Y180499D02*
X1459999D01*
Y179832D01*
X1462665Y177166D01*
Y176500D01*
X1458666Y180499D02*
Y176500D01*
X1456666D01*
X1456000Y177166D01*
Y179832D01*
X1456666Y180499D01*
X1458666D01*
X1557663Y176500D02*
Y180499D01*
X1555664D01*
X1554997Y179832D01*
Y178499D01*
X1555664Y177833D01*
X1557663D01*
X1556330D02*
X1554997Y176500D01*
X1553664Y180499D02*
X1550999D01*
Y179832D01*
X1553664Y177166D01*
Y176500D01*
X1547000Y179832D02*
X1547666Y180499D01*
X1548999D01*
X1549666Y179832D01*
Y177166D01*
X1548999Y176500D01*
X1547666D01*
X1547000Y177166D01*
X1466663Y119000D02*
Y122999D01*
X1464664D01*
X1463997Y122332D01*
Y120999D01*
X1464664Y120333D01*
X1466663D01*
X1465330D02*
X1463997Y119000D01*
X1462665Y122999D02*
X1459999D01*
Y122332D01*
X1462665Y119667D01*
Y119000D01*
X1458666Y122999D02*
Y119000D01*
X1456666D01*
X1456000Y119667D01*
Y120333D01*
X1456666Y120999D01*
X1458666D01*
X1456666D01*
X1456000Y121666D01*
Y122332D01*
X1456666Y122999D01*
X1458666D01*
X1557663Y119000D02*
Y122999D01*
X1555664D01*
X1554997Y122332D01*
Y120999D01*
X1555664Y120333D01*
X1557663D01*
X1556330D02*
X1554997Y119000D01*
X1553664Y122999D02*
X1550999D01*
Y122332D01*
X1553664Y119667D01*
Y119000D01*
X1549666D02*
Y121666D01*
X1548333Y122999D01*
X1547000Y121666D01*
Y119000D01*
Y120999D01*
X1549666D01*
X1452663Y291500D02*
Y295499D01*
X1450664D01*
X1449997Y294832D01*
Y293499D01*
X1450664Y292833D01*
X1452663D01*
X1451330D02*
X1449997Y291500D01*
X1445999Y295499D02*
X1447332Y294832D01*
X1448664Y293499D01*
Y292166D01*
X1447998Y291500D01*
X1446665D01*
X1445999Y292166D01*
Y292833D01*
X1446665Y293499D01*
X1448664D01*
X1444666Y295499D02*
Y291500D01*
Y293499D01*
X1442000D01*
Y295499D01*
Y291500D01*
X1543663D02*
Y295499D01*
X1541664D01*
X1540997Y294832D01*
Y293499D01*
X1541664Y292833D01*
X1543663D01*
X1542330D02*
X1540997Y291500D01*
X1536999Y295499D02*
X1538332Y294832D01*
X1539664Y293499D01*
Y292166D01*
X1538998Y291500D01*
X1537665D01*
X1536999Y292166D01*
Y292833D01*
X1537665Y293499D01*
X1539664D01*
X1533000Y294832D02*
X1533667Y295499D01*
X1534999D01*
X1535666Y294832D01*
Y292166D01*
X1534999Y291500D01*
X1533667D01*
X1533000Y292166D01*
Y293499D01*
X1534333D01*
X1452663Y234000D02*
Y237999D01*
X1450664D01*
X1449997Y237332D01*
Y235999D01*
X1450664Y235333D01*
X1452663D01*
X1451330D02*
X1449997Y234000D01*
X1445999Y237999D02*
X1447332Y237332D01*
X1448664Y235999D01*
Y234666D01*
X1447998Y234000D01*
X1446665D01*
X1445999Y234666D01*
Y235333D01*
X1446665Y235999D01*
X1448664D01*
X1442000Y237999D02*
X1444666D01*
Y235999D01*
X1443333D01*
X1444666D01*
Y234000D01*
X1543663D02*
Y237999D01*
X1541664D01*
X1540997Y237332D01*
Y235999D01*
X1541664Y235333D01*
X1543663D01*
X1542330D02*
X1540997Y234000D01*
X1536999Y237999D02*
X1538332Y237332D01*
X1539664Y235999D01*
Y234666D01*
X1538998Y234000D01*
X1537665D01*
X1536999Y234666D01*
Y235333D01*
X1537665Y235999D01*
X1539664D01*
X1533000Y237999D02*
X1535666D01*
Y234000D01*
X1533000D01*
X1535666Y235999D02*
X1534333D01*
X1452663Y176500D02*
Y180499D01*
X1450664D01*
X1449997Y179832D01*
Y178499D01*
X1450664Y177833D01*
X1452663D01*
X1451330D02*
X1449997Y176500D01*
X1445999Y180499D02*
X1447332Y179832D01*
X1448664Y178499D01*
Y177166D01*
X1447998Y176500D01*
X1446665D01*
X1445999Y177166D01*
Y177833D01*
X1446665Y178499D01*
X1448664D01*
X1444666Y180499D02*
Y176500D01*
X1442667D01*
X1442000Y177166D01*
Y179832D01*
X1442667Y180499D01*
X1444666D01*
X1543663Y176500D02*
Y180499D01*
X1541664D01*
X1540997Y179832D01*
Y178499D01*
X1541664Y177833D01*
X1543663D01*
X1542330D02*
X1540997Y176500D01*
X1536999Y180499D02*
X1538332Y179832D01*
X1539664Y178499D01*
Y177166D01*
X1538998Y176500D01*
X1537665D01*
X1536999Y177166D01*
Y177833D01*
X1537665Y178499D01*
X1539664D01*
X1533000Y179832D02*
X1533667Y180499D01*
X1534999D01*
X1535666Y179832D01*
Y177166D01*
X1534999Y176500D01*
X1533667D01*
X1533000Y177166D01*
X1452663Y119000D02*
Y122999D01*
X1450664D01*
X1449997Y122332D01*
Y120999D01*
X1450664Y120333D01*
X1452663D01*
X1451330D02*
X1449997Y119000D01*
X1445999Y122999D02*
X1447332Y122332D01*
X1448664Y120999D01*
Y119667D01*
X1447998Y119000D01*
X1446665D01*
X1445999Y119667D01*
Y120333D01*
X1446665Y120999D01*
X1448664D01*
X1444666Y122999D02*
Y119000D01*
X1442667D01*
X1442000Y119667D01*
Y120333D01*
X1442667Y120999D01*
X1444666D01*
X1442667D01*
X1442000Y121666D01*
Y122332D01*
X1442667Y122999D01*
X1444666D01*
X1543663Y119000D02*
Y122999D01*
X1541664D01*
X1540997Y122332D01*
Y120999D01*
X1541664Y120333D01*
X1543663D01*
X1542330D02*
X1540997Y119000D01*
X1536999Y122999D02*
X1538332Y122332D01*
X1539664Y120999D01*
Y119667D01*
X1538998Y119000D01*
X1537665D01*
X1536999Y119667D01*
Y120333D01*
X1537665Y120999D01*
X1539664D01*
X1535666Y119000D02*
Y121666D01*
X1534333Y122999D01*
X1533000Y121666D01*
Y119000D01*
Y120999D01*
X1535666D01*
X1440163Y335000D02*
Y338999D01*
X1438164D01*
X1437497Y338332D01*
Y336999D01*
X1438164Y336333D01*
X1440163D01*
X1438830D02*
X1437497Y335000D01*
X1433499Y338999D02*
X1436164D01*
Y336999D01*
X1434832Y337666D01*
X1434165D01*
X1433499Y336999D01*
Y335666D01*
X1434165Y335000D01*
X1435498D01*
X1436164Y335666D01*
X1432166Y338999D02*
Y335000D01*
Y336999D01*
X1429500D01*
Y338999D01*
Y335000D01*
X1531163D02*
Y338999D01*
X1529164D01*
X1528497Y338332D01*
Y336999D01*
X1529164Y336333D01*
X1531163D01*
X1529830D02*
X1528497Y335000D01*
X1524499Y338999D02*
X1527164D01*
Y336999D01*
X1525832Y337666D01*
X1525165D01*
X1524499Y336999D01*
Y335666D01*
X1525165Y335000D01*
X1526498D01*
X1527164Y335666D01*
X1520500Y338332D02*
X1521167Y338999D01*
X1522499D01*
X1523166Y338332D01*
Y335666D01*
X1522499Y335000D01*
X1521167D01*
X1520500Y335666D01*
Y336999D01*
X1521833D01*
X1440163Y277500D02*
Y281499D01*
X1438164D01*
X1437497Y280832D01*
Y279499D01*
X1438164Y278833D01*
X1440163D01*
X1438830D02*
X1437497Y277500D01*
X1433499Y281499D02*
X1436164D01*
Y279499D01*
X1434832Y280166D01*
X1434165D01*
X1433499Y279499D01*
Y278166D01*
X1434165Y277500D01*
X1435498D01*
X1436164Y278166D01*
X1429500Y281499D02*
X1432166D01*
Y279499D01*
X1430833D01*
X1432166D01*
Y277500D01*
X1531163D02*
Y281499D01*
X1529164D01*
X1528497Y280832D01*
Y279499D01*
X1529164Y278833D01*
X1531163D01*
X1529830D02*
X1528497Y277500D01*
X1524499Y281499D02*
X1527164D01*
Y279499D01*
X1525832Y280166D01*
X1525165D01*
X1524499Y279499D01*
Y278166D01*
X1525165Y277500D01*
X1526498D01*
X1527164Y278166D01*
X1520500Y281499D02*
X1523166D01*
Y277500D01*
X1520500D01*
X1523166Y279499D02*
X1521833D01*
X1440163Y220000D02*
Y223999D01*
X1438164D01*
X1437497Y223332D01*
Y221999D01*
X1438164Y221333D01*
X1440163D01*
X1438830D02*
X1437497Y220000D01*
X1433499Y223999D02*
X1436164D01*
Y221999D01*
X1434832Y222666D01*
X1434165D01*
X1433499Y221999D01*
Y220666D01*
X1434165Y220000D01*
X1435498D01*
X1436164Y220666D01*
X1432166Y223999D02*
Y220000D01*
X1430167D01*
X1429500Y220666D01*
Y223332D01*
X1430167Y223999D01*
X1432166D01*
X1531163Y220000D02*
Y223999D01*
X1529164D01*
X1528497Y223332D01*
Y221999D01*
X1529164Y221333D01*
X1531163D01*
X1529830D02*
X1528497Y220000D01*
X1524499Y223999D02*
X1527164D01*
Y221999D01*
X1525832Y222666D01*
X1525165D01*
X1524499Y221999D01*
Y220666D01*
X1525165Y220000D01*
X1526498D01*
X1527164Y220666D01*
X1520500Y223332D02*
X1521167Y223999D01*
X1522499D01*
X1523166Y223332D01*
Y220666D01*
X1522499Y220000D01*
X1521167D01*
X1520500Y220666D01*
X1440163Y162500D02*
Y166499D01*
X1438164D01*
X1437497Y165832D01*
Y164499D01*
X1438164Y163833D01*
X1440163D01*
X1438830D02*
X1437497Y162500D01*
X1433499Y166499D02*
X1436164D01*
Y164499D01*
X1434832Y165166D01*
X1434165D01*
X1433499Y164499D01*
Y163166D01*
X1434165Y162500D01*
X1435498D01*
X1436164Y163166D01*
X1432166Y166499D02*
Y162500D01*
X1430167D01*
X1429500Y163166D01*
Y163833D01*
X1430167Y164499D01*
X1432166D01*
X1430167D01*
X1429500Y165166D01*
Y165832D01*
X1430167Y166499D01*
X1432166D01*
X1531163Y162500D02*
Y166499D01*
X1529164D01*
X1528497Y165832D01*
Y164499D01*
X1529164Y163833D01*
X1531163D01*
X1529830D02*
X1528497Y162500D01*
X1524499Y166499D02*
X1527164D01*
Y164499D01*
X1525832Y165166D01*
X1525165D01*
X1524499Y164499D01*
Y163166D01*
X1525165Y162500D01*
X1526498D01*
X1527164Y163166D01*
X1523166Y162500D02*
Y165166D01*
X1521833Y166499D01*
X1520500Y165166D01*
Y162500D01*
Y164499D01*
X1523166D01*
X1420163Y301000D02*
Y304999D01*
X1418164D01*
X1417497Y304332D01*
Y302999D01*
X1418164Y302333D01*
X1420163D01*
X1418830D02*
X1417497Y301000D01*
X1414165D02*
Y304999D01*
X1416164Y302999D01*
X1413499D01*
X1412166Y304999D02*
Y301000D01*
Y302999D01*
X1409500D01*
Y304999D01*
Y301000D01*
X1511163D02*
Y304999D01*
X1509164D01*
X1508497Y304332D01*
Y302999D01*
X1509164Y302333D01*
X1511163D01*
X1509830D02*
X1508497Y301000D01*
X1505165D02*
Y304999D01*
X1507164Y302999D01*
X1504499D01*
X1500500Y304332D02*
X1501167Y304999D01*
X1502499D01*
X1503166Y304332D01*
Y301666D01*
X1502499Y301000D01*
X1501167D01*
X1500500Y301666D01*
Y302999D01*
X1501833D01*
X1420163Y243500D02*
Y247499D01*
X1418164D01*
X1417497Y246832D01*
Y245499D01*
X1418164Y244833D01*
X1420163D01*
X1418830D02*
X1417497Y243500D01*
X1414165D02*
Y247499D01*
X1416164Y245499D01*
X1413499D01*
X1409500Y247499D02*
X1412166D01*
Y245499D01*
X1410833D01*
X1412166D01*
Y243500D01*
X1511163D02*
Y247499D01*
X1509164D01*
X1508497Y246832D01*
Y245499D01*
X1509164Y244833D01*
X1511163D01*
X1509830D02*
X1508497Y243500D01*
X1505165D02*
Y247499D01*
X1507164Y245499D01*
X1504499D01*
X1500500Y247499D02*
X1503166D01*
Y243500D01*
X1500500D01*
X1503166Y245499D02*
X1501833D01*
X1420163Y186000D02*
Y189999D01*
X1418164D01*
X1417497Y189332D01*
Y187999D01*
X1418164Y187333D01*
X1420163D01*
X1418830D02*
X1417497Y186000D01*
X1414165D02*
Y189999D01*
X1416164Y187999D01*
X1413499D01*
X1412166Y189999D02*
Y186000D01*
X1410166D01*
X1409500Y186667D01*
Y189332D01*
X1410166Y189999D01*
X1412166D01*
X1511163Y186000D02*
Y189999D01*
X1509164D01*
X1508497Y189332D01*
Y187999D01*
X1509164Y187333D01*
X1511163D01*
X1509830D02*
X1508497Y186000D01*
X1505165D02*
Y189999D01*
X1507164Y187999D01*
X1504499D01*
X1500500Y189332D02*
X1501167Y189999D01*
X1502499D01*
X1503166Y189332D01*
Y186667D01*
X1502499Y186000D01*
X1501167D01*
X1500500Y186667D01*
X1420163Y128500D02*
Y132499D01*
X1418164D01*
X1417497Y131832D01*
Y130499D01*
X1418164Y129833D01*
X1420163D01*
X1418830D02*
X1417497Y128500D01*
X1414165D02*
Y132499D01*
X1416164Y130499D01*
X1413499D01*
X1412166Y132499D02*
Y128500D01*
X1410166D01*
X1409500Y129166D01*
Y129833D01*
X1410166Y130499D01*
X1412166D01*
X1410166D01*
X1409500Y131166D01*
Y131832D01*
X1410166Y132499D01*
X1412166D01*
X1511163Y128500D02*
Y132499D01*
X1509164D01*
X1508497Y131832D01*
Y130499D01*
X1509164Y129833D01*
X1511163D01*
X1509830D02*
X1508497Y128500D01*
X1505165D02*
Y132499D01*
X1507164Y130499D01*
X1504499D01*
X1503166Y128500D02*
Y131166D01*
X1501833Y132499D01*
X1500500Y131166D01*
Y128500D01*
Y130499D01*
X1503166D01*
X1414163Y318500D02*
Y322499D01*
X1412164D01*
X1411497Y321832D01*
Y320499D01*
X1412164Y319833D01*
X1414163D01*
X1412830D02*
X1411497Y318500D01*
X1410165Y321832D02*
X1409498Y322499D01*
X1408165D01*
X1407499Y321832D01*
Y321166D01*
X1408165Y320499D01*
X1408832D01*
X1408165D01*
X1407499Y319833D01*
Y319166D01*
X1408165Y318500D01*
X1409498D01*
X1410165Y319166D01*
X1406166Y322499D02*
Y318500D01*
Y320499D01*
X1403500D01*
Y322499D01*
Y318500D01*
X1505163D02*
Y322499D01*
X1503164D01*
X1502497Y321832D01*
Y320499D01*
X1503164Y319833D01*
X1505163D01*
X1503830D02*
X1502497Y318500D01*
X1501165Y321832D02*
X1500498Y322499D01*
X1499165D01*
X1498499Y321832D01*
Y321166D01*
X1499165Y320499D01*
X1499832D01*
X1499165D01*
X1498499Y319833D01*
Y319166D01*
X1499165Y318500D01*
X1500498D01*
X1501165Y319166D01*
X1494500Y321832D02*
X1495166Y322499D01*
X1496499D01*
X1497166Y321832D01*
Y319166D01*
X1496499Y318500D01*
X1495166D01*
X1494500Y319166D01*
Y320499D01*
X1495833D01*
X1414163Y261000D02*
Y264999D01*
X1412164D01*
X1411497Y264332D01*
Y262999D01*
X1412164Y262333D01*
X1414163D01*
X1412830D02*
X1411497Y261000D01*
X1410165Y264332D02*
X1409498Y264999D01*
X1408165D01*
X1407499Y264332D01*
Y263666D01*
X1408165Y262999D01*
X1408832D01*
X1408165D01*
X1407499Y262333D01*
Y261666D01*
X1408165Y261000D01*
X1409498D01*
X1410165Y261666D01*
X1403500Y264999D02*
X1406166D01*
Y262999D01*
X1404833D01*
X1406166D01*
Y261000D01*
X1505163D02*
Y264999D01*
X1503164D01*
X1502497Y264332D01*
Y262999D01*
X1503164Y262333D01*
X1505163D01*
X1503830D02*
X1502497Y261000D01*
X1501165Y264332D02*
X1500498Y264999D01*
X1499165D01*
X1498499Y264332D01*
Y263666D01*
X1499165Y262999D01*
X1499832D01*
X1499165D01*
X1498499Y262333D01*
Y261666D01*
X1499165Y261000D01*
X1500498D01*
X1501165Y261666D01*
X1494500Y264999D02*
X1497166D01*
Y261000D01*
X1494500D01*
X1497166Y262999D02*
X1495833D01*
X1414163Y203500D02*
Y207499D01*
X1412164D01*
X1411497Y206832D01*
Y205499D01*
X1412164Y204833D01*
X1414163D01*
X1412830D02*
X1411497Y203500D01*
X1410165Y206832D02*
X1409498Y207499D01*
X1408165D01*
X1407499Y206832D01*
Y206166D01*
X1408165Y205499D01*
X1408832D01*
X1408165D01*
X1407499Y204833D01*
Y204167D01*
X1408165Y203500D01*
X1409498D01*
X1410165Y204167D01*
X1406166Y207499D02*
Y203500D01*
X1404167D01*
X1403500Y204167D01*
Y206832D01*
X1404167Y207499D01*
X1406166D01*
X1505163Y203500D02*
Y207499D01*
X1503164D01*
X1502497Y206832D01*
Y205499D01*
X1503164Y204833D01*
X1505163D01*
X1503830D02*
X1502497Y203500D01*
X1501165Y206832D02*
X1500498Y207499D01*
X1499165D01*
X1498499Y206832D01*
Y206166D01*
X1499165Y205499D01*
X1499832D01*
X1499165D01*
X1498499Y204833D01*
Y204167D01*
X1499165Y203500D01*
X1500498D01*
X1501165Y204167D01*
X1494500Y206832D02*
X1495166Y207499D01*
X1496499D01*
X1497166Y206832D01*
Y204167D01*
X1496499Y203500D01*
X1495166D01*
X1494500Y204167D01*
X1414163Y146000D02*
Y149999D01*
X1412164D01*
X1411497Y149332D01*
Y147999D01*
X1412164Y147333D01*
X1414163D01*
X1412830D02*
X1411497Y146000D01*
X1410165Y149332D02*
X1409498Y149999D01*
X1408165D01*
X1407499Y149332D01*
Y148666D01*
X1408165Y147999D01*
X1408832D01*
X1408165D01*
X1407499Y147333D01*
Y146667D01*
X1408165Y146000D01*
X1409498D01*
X1410165Y146667D01*
X1406166Y149999D02*
Y146000D01*
X1404167D01*
X1403500Y146667D01*
Y147333D01*
X1404167Y147999D01*
X1406166D01*
X1404167D01*
X1403500Y148666D01*
Y149332D01*
X1404167Y149999D01*
X1406166D01*
X1505163Y146000D02*
Y149999D01*
X1503164D01*
X1502497Y149332D01*
Y147999D01*
X1503164Y147333D01*
X1505163D01*
X1503830D02*
X1502497Y146000D01*
X1501165Y149332D02*
X1500498Y149999D01*
X1499165D01*
X1498499Y149332D01*
Y148666D01*
X1499165Y147999D01*
X1499832D01*
X1499165D01*
X1498499Y147333D01*
Y146667D01*
X1499165Y146000D01*
X1500498D01*
X1501165Y146667D01*
X1497166Y146000D02*
Y148666D01*
X1495833Y149999D01*
X1494500Y148666D01*
Y146000D01*
Y147999D01*
X1497166D01*
X1414163Y311500D02*
Y315499D01*
X1412164D01*
X1411497Y314832D01*
Y313499D01*
X1412164Y312833D01*
X1414163D01*
X1412830D02*
X1411497Y311500D01*
X1407499D02*
X1410165D01*
X1407499Y314166D01*
Y314832D01*
X1408165Y315499D01*
X1409498D01*
X1410165Y314832D01*
X1406166Y315499D02*
Y311500D01*
Y313499D01*
X1403500D01*
Y315499D01*
Y311500D01*
X1505163D02*
Y315499D01*
X1503164D01*
X1502497Y314832D01*
Y313499D01*
X1503164Y312833D01*
X1505163D01*
X1503830D02*
X1502497Y311500D01*
X1498499D02*
X1501165D01*
X1498499Y314166D01*
Y314832D01*
X1499165Y315499D01*
X1500498D01*
X1501165Y314832D01*
X1494500D02*
X1495166Y315499D01*
X1496499D01*
X1497166Y314832D01*
Y312166D01*
X1496499Y311500D01*
X1495166D01*
X1494500Y312166D01*
Y313499D01*
X1495833D01*
X1414163Y254000D02*
Y257999D01*
X1412164D01*
X1411497Y257332D01*
Y255999D01*
X1412164Y255333D01*
X1414163D01*
X1412830D02*
X1411497Y254000D01*
X1407499D02*
X1410165D01*
X1407499Y256666D01*
Y257332D01*
X1408165Y257999D01*
X1409498D01*
X1410165Y257332D01*
X1403500Y257999D02*
X1406166D01*
Y255999D01*
X1404833D01*
X1406166D01*
Y254000D01*
X1505163D02*
Y257999D01*
X1503164D01*
X1502497Y257332D01*
Y255999D01*
X1503164Y255333D01*
X1505163D01*
X1503830D02*
X1502497Y254000D01*
X1498499D02*
X1501165D01*
X1498499Y256666D01*
Y257332D01*
X1499165Y257999D01*
X1500498D01*
X1501165Y257332D01*
X1494500Y257999D02*
X1497166D01*
Y254000D01*
X1494500D01*
X1497166Y255999D02*
X1495833D01*
X1414163Y196500D02*
Y200499D01*
X1412164D01*
X1411497Y199832D01*
Y198499D01*
X1412164Y197833D01*
X1414163D01*
X1412830D02*
X1411497Y196500D01*
X1407499D02*
X1410165D01*
X1407499Y199166D01*
Y199832D01*
X1408165Y200499D01*
X1409498D01*
X1410165Y199832D01*
X1406166Y200499D02*
Y196500D01*
X1404167D01*
X1403500Y197167D01*
Y199832D01*
X1404167Y200499D01*
X1406166D01*
X1505163Y196500D02*
Y200499D01*
X1503164D01*
X1502497Y199832D01*
Y198499D01*
X1503164Y197833D01*
X1505163D01*
X1503830D02*
X1502497Y196500D01*
X1498499D02*
X1501165D01*
X1498499Y199166D01*
Y199832D01*
X1499165Y200499D01*
X1500498D01*
X1501165Y199832D01*
X1494500D02*
X1495166Y200499D01*
X1496499D01*
X1497166Y199832D01*
Y197167D01*
X1496499Y196500D01*
X1495166D01*
X1494500Y197167D01*
X1414163Y139000D02*
Y142999D01*
X1412164D01*
X1411497Y142332D01*
Y140999D01*
X1412164Y140333D01*
X1414163D01*
X1412830D02*
X1411497Y139000D01*
X1407499D02*
X1410165D01*
X1407499Y141666D01*
Y142332D01*
X1408165Y142999D01*
X1409498D01*
X1410165Y142332D01*
X1406166Y142999D02*
Y139000D01*
X1404167D01*
X1403500Y139666D01*
Y140333D01*
X1404167Y140999D01*
X1406166D01*
X1404167D01*
X1403500Y141666D01*
Y142332D01*
X1404167Y142999D01*
X1406166D01*
X1505163Y139000D02*
Y142999D01*
X1503164D01*
X1502497Y142332D01*
Y140999D01*
X1503164Y140333D01*
X1505163D01*
X1503830D02*
X1502497Y139000D01*
X1498499D02*
X1501165D01*
X1498499Y141666D01*
Y142332D01*
X1499165Y142999D01*
X1500498D01*
X1501165Y142332D01*
X1497166Y139000D02*
Y141666D01*
X1495833Y142999D01*
X1494500Y141666D01*
Y139000D01*
Y140999D01*
X1497166D01*
X1091000Y138499D02*
Y134500D01*
X1089001D01*
X1088334Y135167D01*
Y137832D01*
X1089001Y138499D01*
X1091000D01*
X1087001Y137832D02*
X1086335Y138499D01*
X1085002D01*
X1084336Y137832D01*
Y137166D01*
X1085002Y136499D01*
X1085668D01*
X1085002D01*
X1084336Y135833D01*
Y135167D01*
X1085002Y134500D01*
X1086335D01*
X1087001Y135167D01*
X1482497Y339332D02*
X1483164Y339999D01*
X1484497D01*
X1485163Y339332D01*
Y336666D01*
X1484497Y336000D01*
X1483164D01*
X1482497Y336666D01*
X1481164Y336000D02*
X1479832D01*
X1480498D01*
Y339999D01*
X1481164Y339332D01*
X1477832Y336666D02*
X1477166Y336000D01*
X1475833D01*
X1475167Y336666D01*
Y339332D01*
X1475833Y339999D01*
X1477166D01*
X1477832Y339332D01*
Y338666D01*
X1477166Y337999D01*
X1475167D01*
X1473833Y339332D02*
X1473167Y339999D01*
X1471834D01*
X1471168Y339332D01*
Y336666D01*
X1471834Y336000D01*
X1473167D01*
X1473833Y336666D01*
Y339332D01*
X1469835Y339999D02*
Y336000D01*
Y337999D01*
X1467169D01*
Y339999D01*
Y336000D01*
X1573497Y339332D02*
X1574164Y339999D01*
X1575497D01*
X1576163Y339332D01*
Y336666D01*
X1575497Y336000D01*
X1574164D01*
X1573497Y336666D01*
X1572165Y336000D02*
X1570832D01*
X1571498D01*
Y339999D01*
X1572165Y339332D01*
X1568832Y336666D02*
X1568166Y336000D01*
X1566833D01*
X1566166Y336666D01*
Y339332D01*
X1566833Y339999D01*
X1568166D01*
X1568832Y339332D01*
Y338666D01*
X1568166Y337999D01*
X1566166D01*
X1564834Y339332D02*
X1564167Y339999D01*
X1562834D01*
X1562168Y339332D01*
Y336666D01*
X1562834Y336000D01*
X1564167D01*
X1564834Y336666D01*
Y339332D01*
X1558169D02*
X1558836Y339999D01*
X1560168D01*
X1560835Y339332D01*
Y336666D01*
X1560168Y336000D01*
X1558836D01*
X1558169Y336666D01*
Y337999D01*
X1559502D01*
X1482497Y281832D02*
X1483164Y282499D01*
X1484497D01*
X1485163Y281832D01*
Y279166D01*
X1484497Y278500D01*
X1483164D01*
X1482497Y279166D01*
X1481164Y278500D02*
X1479832D01*
X1480498D01*
Y282499D01*
X1481164Y281832D01*
X1477832Y279166D02*
X1477166Y278500D01*
X1475833D01*
X1475167Y279166D01*
Y281832D01*
X1475833Y282499D01*
X1477166D01*
X1477832Y281832D01*
Y281166D01*
X1477166Y280499D01*
X1475167D01*
X1473833Y281832D02*
X1473167Y282499D01*
X1471834D01*
X1471168Y281832D01*
Y279166D01*
X1471834Y278500D01*
X1473167D01*
X1473833Y279166D01*
Y281832D01*
X1467169Y282499D02*
X1469835D01*
Y280499D01*
X1468502D01*
X1469835D01*
Y278500D01*
X1573497Y281832D02*
X1574164Y282499D01*
X1575497D01*
X1576163Y281832D01*
Y279166D01*
X1575497Y278500D01*
X1574164D01*
X1573497Y279166D01*
X1572165Y278500D02*
X1570832D01*
X1571498D01*
Y282499D01*
X1572165Y281832D01*
X1568832Y279166D02*
X1568166Y278500D01*
X1566833D01*
X1566166Y279166D01*
Y281832D01*
X1566833Y282499D01*
X1568166D01*
X1568832Y281832D01*
Y281166D01*
X1568166Y280499D01*
X1566166D01*
X1564834Y281832D02*
X1564167Y282499D01*
X1562834D01*
X1562168Y281832D01*
Y279166D01*
X1562834Y278500D01*
X1564167D01*
X1564834Y279166D01*
Y281832D01*
X1558169Y282499D02*
X1560835D01*
Y278500D01*
X1558169D01*
X1560835Y280499D02*
X1559502D01*
X1482497Y224332D02*
X1483164Y224999D01*
X1484497D01*
X1485163Y224332D01*
Y221666D01*
X1484497Y221000D01*
X1483164D01*
X1482497Y221666D01*
X1481164Y221000D02*
X1479832D01*
X1480498D01*
Y224999D01*
X1481164Y224332D01*
X1477832Y221666D02*
X1477166Y221000D01*
X1475833D01*
X1475167Y221666D01*
Y224332D01*
X1475833Y224999D01*
X1477166D01*
X1477832Y224332D01*
Y223666D01*
X1477166Y222999D01*
X1475167D01*
X1473833Y224332D02*
X1473167Y224999D01*
X1471834D01*
X1471168Y224332D01*
Y221666D01*
X1471834Y221000D01*
X1473167D01*
X1473833Y221666D01*
Y224332D01*
X1469835Y224999D02*
Y221000D01*
X1467836D01*
X1467169Y221666D01*
Y224332D01*
X1467836Y224999D01*
X1469835D01*
X1573497Y224332D02*
X1574164Y224999D01*
X1575497D01*
X1576163Y224332D01*
Y221666D01*
X1575497Y221000D01*
X1574164D01*
X1573497Y221666D01*
X1572165Y221000D02*
X1570832D01*
X1571498D01*
Y224999D01*
X1572165Y224332D01*
X1568832Y221666D02*
X1568166Y221000D01*
X1566833D01*
X1566166Y221666D01*
Y224332D01*
X1566833Y224999D01*
X1568166D01*
X1568832Y224332D01*
Y223666D01*
X1568166Y222999D01*
X1566166D01*
X1564834Y224332D02*
X1564167Y224999D01*
X1562834D01*
X1562168Y224332D01*
Y221666D01*
X1562834Y221000D01*
X1564167D01*
X1564834Y221666D01*
Y224332D01*
X1558169D02*
X1558836Y224999D01*
X1560168D01*
X1560835Y224332D01*
Y221666D01*
X1560168Y221000D01*
X1558836D01*
X1558169Y221666D01*
X1482497Y166832D02*
X1483164Y167499D01*
X1484497D01*
X1485163Y166832D01*
Y164166D01*
X1484497Y163500D01*
X1483164D01*
X1482497Y164166D01*
X1481164Y163500D02*
X1479832D01*
X1480498D01*
Y167499D01*
X1481164Y166832D01*
X1477832Y164166D02*
X1477166Y163500D01*
X1475833D01*
X1475167Y164166D01*
Y166832D01*
X1475833Y167499D01*
X1477166D01*
X1477832Y166832D01*
Y166166D01*
X1477166Y165499D01*
X1475167D01*
X1473833Y166832D02*
X1473167Y167499D01*
X1471834D01*
X1471168Y166832D01*
Y164166D01*
X1471834Y163500D01*
X1473167D01*
X1473833Y164166D01*
Y166832D01*
X1469835Y167499D02*
Y163500D01*
X1467836D01*
X1467169Y164166D01*
Y164833D01*
X1467836Y165499D01*
X1469835D01*
X1467836D01*
X1467169Y166166D01*
Y166832D01*
X1467836Y167499D01*
X1469835D01*
X1566334Y166332D02*
X1567001Y166999D01*
X1568334D01*
X1569000Y166332D01*
Y163666D01*
X1568334Y163000D01*
X1567001D01*
X1566334Y163666D01*
X1565001Y163000D02*
X1563668D01*
X1564335D01*
Y166999D01*
X1565001Y166332D01*
X1561669Y163666D02*
X1561003Y163000D01*
X1559670D01*
X1559003Y163666D01*
Y166332D01*
X1559670Y166999D01*
X1561003D01*
X1561669Y166332D01*
Y165666D01*
X1561003Y164999D01*
X1559003D01*
X1557670Y166332D02*
X1557004Y166999D01*
X1555671D01*
X1555005Y166332D01*
Y163666D01*
X1555671Y163000D01*
X1557004D01*
X1557670Y163666D01*
Y166332D01*
X1553672Y163000D02*
Y165666D01*
X1552339Y166999D01*
X1551006Y165666D01*
Y163000D01*
Y164999D01*
X1553672D01*
X1422997Y338332D02*
X1423664Y338999D01*
X1424997D01*
X1425663Y338332D01*
Y335666D01*
X1424997Y335000D01*
X1423664D01*
X1422997Y335666D01*
X1421665Y335000D02*
X1420332D01*
X1420998D01*
Y338999D01*
X1421665Y338332D01*
X1418332D02*
X1417666Y338999D01*
X1416333D01*
X1415666Y338332D01*
Y337666D01*
X1416333Y336999D01*
X1415666Y336333D01*
Y335666D01*
X1416333Y335000D01*
X1417666D01*
X1418332Y335666D01*
Y336333D01*
X1417666Y336999D01*
X1418332Y337666D01*
Y338332D01*
X1417666Y336999D02*
X1416333D01*
X1414334Y335666D02*
X1413667Y335000D01*
X1412334D01*
X1411668Y335666D01*
Y338332D01*
X1412334Y338999D01*
X1413667D01*
X1414334Y338332D01*
Y337666D01*
X1413667Y336999D01*
X1411668D01*
X1410335Y338999D02*
Y335000D01*
Y336999D01*
X1407669D01*
Y338999D01*
Y335000D01*
X1513997Y338332D02*
X1514664Y338999D01*
X1515997D01*
X1516663Y338332D01*
Y335666D01*
X1515997Y335000D01*
X1514664D01*
X1513997Y335666D01*
X1512665Y335000D02*
X1511332D01*
X1511998D01*
Y338999D01*
X1512665Y338332D01*
X1509332D02*
X1508666Y338999D01*
X1507333D01*
X1506666Y338332D01*
Y337666D01*
X1507333Y336999D01*
X1506666Y336333D01*
Y335666D01*
X1507333Y335000D01*
X1508666D01*
X1509332Y335666D01*
Y336333D01*
X1508666Y336999D01*
X1509332Y337666D01*
Y338332D01*
X1508666Y336999D02*
X1507333D01*
X1505334Y335666D02*
X1504667Y335000D01*
X1503334D01*
X1502668Y335666D01*
Y338332D01*
X1503334Y338999D01*
X1504667D01*
X1505334Y338332D01*
Y337666D01*
X1504667Y336999D01*
X1502668D01*
X1498669Y338332D02*
X1499335Y338999D01*
X1500668D01*
X1501335Y338332D01*
Y335666D01*
X1500668Y335000D01*
X1499335D01*
X1498669Y335666D01*
Y336999D01*
X1500002D01*
X1422997Y280832D02*
X1423664Y281499D01*
X1424997D01*
X1425663Y280832D01*
Y278166D01*
X1424997Y277500D01*
X1423664D01*
X1422997Y278166D01*
X1421665Y277500D02*
X1420332D01*
X1420998D01*
Y281499D01*
X1421665Y280832D01*
X1418332D02*
X1417666Y281499D01*
X1416333D01*
X1415666Y280832D01*
Y280166D01*
X1416333Y279499D01*
X1415666Y278833D01*
Y278166D01*
X1416333Y277500D01*
X1417666D01*
X1418332Y278166D01*
Y278833D01*
X1417666Y279499D01*
X1418332Y280166D01*
Y280832D01*
X1417666Y279499D02*
X1416333D01*
X1414334Y278166D02*
X1413667Y277500D01*
X1412334D01*
X1411668Y278166D01*
Y280832D01*
X1412334Y281499D01*
X1413667D01*
X1414334Y280832D01*
Y280166D01*
X1413667Y279499D01*
X1411668D01*
X1407669Y281499D02*
X1410335D01*
Y279499D01*
X1409002D01*
X1410335D01*
Y277500D01*
X1513997Y280832D02*
X1514664Y281499D01*
X1515997D01*
X1516663Y280832D01*
Y278166D01*
X1515997Y277500D01*
X1514664D01*
X1513997Y278166D01*
X1512665Y277500D02*
X1511332D01*
X1511998D01*
Y281499D01*
X1512665Y280832D01*
X1509332D02*
X1508666Y281499D01*
X1507333D01*
X1506666Y280832D01*
Y280166D01*
X1507333Y279499D01*
X1506666Y278833D01*
Y278166D01*
X1507333Y277500D01*
X1508666D01*
X1509332Y278166D01*
Y278833D01*
X1508666Y279499D01*
X1509332Y280166D01*
Y280832D01*
X1508666Y279499D02*
X1507333D01*
X1505334Y278166D02*
X1504667Y277500D01*
X1503334D01*
X1502668Y278166D01*
Y280832D01*
X1503334Y281499D01*
X1504667D01*
X1505334Y280832D01*
Y280166D01*
X1504667Y279499D01*
X1502668D01*
X1498669Y281499D02*
X1501335D01*
Y277500D01*
X1498669D01*
X1501335Y279499D02*
X1500002D01*
X1422997Y223332D02*
X1423664Y223999D01*
X1424997D01*
X1425663Y223332D01*
Y220666D01*
X1424997Y220000D01*
X1423664D01*
X1422997Y220666D01*
X1421665Y220000D02*
X1420332D01*
X1420998D01*
Y223999D01*
X1421665Y223332D01*
X1418332D02*
X1417666Y223999D01*
X1416333D01*
X1415666Y223332D01*
Y222666D01*
X1416333Y221999D01*
X1415666Y221333D01*
Y220666D01*
X1416333Y220000D01*
X1417666D01*
X1418332Y220666D01*
Y221333D01*
X1417666Y221999D01*
X1418332Y222666D01*
Y223332D01*
X1417666Y221999D02*
X1416333D01*
X1414334Y220666D02*
X1413667Y220000D01*
X1412334D01*
X1411668Y220666D01*
Y223332D01*
X1412334Y223999D01*
X1413667D01*
X1414334Y223332D01*
Y222666D01*
X1413667Y221999D01*
X1411668D01*
X1410335Y223999D02*
Y220000D01*
X1408335D01*
X1407669Y220666D01*
Y223332D01*
X1408335Y223999D01*
X1410335D01*
X1513997Y223332D02*
X1514664Y223999D01*
X1515997D01*
X1516663Y223332D01*
Y220666D01*
X1515997Y220000D01*
X1514664D01*
X1513997Y220666D01*
X1512665Y220000D02*
X1511332D01*
X1511998D01*
Y223999D01*
X1512665Y223332D01*
X1509332D02*
X1508666Y223999D01*
X1507333D01*
X1506666Y223332D01*
Y222666D01*
X1507333Y221999D01*
X1506666Y221333D01*
Y220666D01*
X1507333Y220000D01*
X1508666D01*
X1509332Y220666D01*
Y221333D01*
X1508666Y221999D01*
X1509332Y222666D01*
Y223332D01*
X1508666Y221999D02*
X1507333D01*
X1505334Y220666D02*
X1504667Y220000D01*
X1503334D01*
X1502668Y220666D01*
Y223332D01*
X1503334Y223999D01*
X1504667D01*
X1505334Y223332D01*
Y222666D01*
X1504667Y221999D01*
X1502668D01*
X1498669Y223332D02*
X1499335Y223999D01*
X1500668D01*
X1501335Y223332D01*
Y220666D01*
X1500668Y220000D01*
X1499335D01*
X1498669Y220666D01*
X1422997Y165832D02*
X1423664Y166499D01*
X1424997D01*
X1425663Y165832D01*
Y163166D01*
X1424997Y162500D01*
X1423664D01*
X1422997Y163166D01*
X1421665Y162500D02*
X1420332D01*
X1420998D01*
Y166499D01*
X1421665Y165832D01*
X1418332D02*
X1417666Y166499D01*
X1416333D01*
X1415666Y165832D01*
Y165166D01*
X1416333Y164499D01*
X1415666Y163833D01*
Y163166D01*
X1416333Y162500D01*
X1417666D01*
X1418332Y163166D01*
Y163833D01*
X1417666Y164499D01*
X1418332Y165166D01*
Y165832D01*
X1417666Y164499D02*
X1416333D01*
X1414334Y163166D02*
X1413667Y162500D01*
X1412334D01*
X1411668Y163166D01*
Y165832D01*
X1412334Y166499D01*
X1413667D01*
X1414334Y165832D01*
Y165166D01*
X1413667Y164499D01*
X1411668D01*
X1410335Y166499D02*
Y162500D01*
X1408335D01*
X1407669Y163166D01*
Y163833D01*
X1408335Y164499D01*
X1410335D01*
X1408335D01*
X1407669Y165166D01*
Y165832D01*
X1408335Y166499D01*
X1410335D01*
X1513997Y165832D02*
X1514664Y166499D01*
X1515997D01*
X1516663Y165832D01*
Y163166D01*
X1515997Y162500D01*
X1514664D01*
X1513997Y163166D01*
X1512665Y162500D02*
X1511332D01*
X1511998D01*
Y166499D01*
X1512665Y165832D01*
X1509332D02*
X1508666Y166499D01*
X1507333D01*
X1506666Y165832D01*
Y165166D01*
X1507333Y164499D01*
X1506666Y163833D01*
Y163166D01*
X1507333Y162500D01*
X1508666D01*
X1509332Y163166D01*
Y163833D01*
X1508666Y164499D01*
X1509332Y165166D01*
Y165832D01*
X1508666Y164499D02*
X1507333D01*
X1505334Y163166D02*
X1504667Y162500D01*
X1503334D01*
X1502668Y163166D01*
Y165832D01*
X1503334Y166499D01*
X1504667D01*
X1505334Y165832D01*
Y165166D01*
X1504667Y164499D01*
X1502668D01*
X1501335Y162500D02*
Y165166D01*
X1500002Y166499D01*
X1498669Y165166D01*
Y162500D01*
Y164499D01*
X1501335D01*
X823332Y111166D02*
X823999Y110499D01*
Y109167D01*
X823332Y108500D01*
X820667D01*
X820000Y109167D01*
Y110499D01*
X820667Y111166D01*
X820000Y112499D02*
Y113832D01*
Y113165D01*
X823999D01*
X823332Y112499D01*
X823999Y115831D02*
Y118497D01*
X823332D01*
X820667Y115831D01*
X820000D01*
X823999Y122495D02*
X823332Y121163D01*
X821999Y119830D01*
X820667D01*
X820000Y120496D01*
Y121829D01*
X820667Y122495D01*
X821333D01*
X821999Y121829D01*
Y119830D01*
X796175Y88916D02*
X796841Y88249D01*
Y86917D01*
X796175Y86250D01*
X793509D01*
X792842Y86917D01*
Y88249D01*
X793509Y88916D01*
X792842Y90249D02*
Y91582D01*
Y90915D01*
X796841D01*
X796175Y90249D01*
X796841Y93581D02*
Y96247D01*
X796175D01*
X793509Y93581D01*
X792842D01*
X796841Y100245D02*
Y97580D01*
X794842D01*
X795508Y98913D01*
Y99579D01*
X794842Y100245D01*
X793509D01*
X792842Y99579D01*
Y98246D01*
X793509Y97580D01*
X803675Y88916D02*
X804341Y88249D01*
Y86917D01*
X803675Y86250D01*
X801009D01*
X800342Y86917D01*
Y88249D01*
X801009Y88916D01*
X800342Y90249D02*
Y91582D01*
Y90915D01*
X804341D01*
X803675Y90249D01*
X804341Y93581D02*
Y96247D01*
X803675D01*
X801009Y93581D01*
X800342D01*
Y99579D02*
X804341D01*
X802342Y97580D01*
Y100245D01*
X773668Y75366D02*
X773001Y76032D01*
Y77365D01*
X773668Y78031D01*
X776334D01*
X777000Y77365D01*
Y76032D01*
X776334Y75366D01*
X777000Y74033D02*
Y72700D01*
Y73366D01*
X773001D01*
X773668Y74033D01*
X773001Y70701D02*
Y68035D01*
X773668D01*
X776334Y70701D01*
X777000D01*
X773668Y66702D02*
X773001Y66035D01*
Y64702D01*
X773668Y64036D01*
X776334D01*
X777000Y64702D01*
Y66035D01*
X776334Y66702D01*
X773668D01*
X989956Y342823D02*
X989290Y343489D01*
Y344822D01*
X989956Y345489D01*
X992622D01*
X993288Y344822D01*
Y343489D01*
X992622Y342823D01*
X993288Y341490D02*
Y340157D01*
Y340823D01*
X989290D01*
X989956Y341490D01*
X989290Y335492D02*
X989956Y336825D01*
X991289Y338158D01*
X992622D01*
X993288Y337491D01*
Y336158D01*
X992622Y335492D01*
X991955D01*
X991289Y336158D01*
Y338158D01*
X993288Y332160D02*
X989290D01*
X991289Y334159D01*
Y331493D01*
X989290Y330160D02*
X993288D01*
Y328161D01*
X992622Y327494D01*
X991955D01*
X991289Y328161D01*
Y330160D01*
Y328161D01*
X990623Y327494D01*
X989956D01*
X989290Y328161D01*
Y330160D01*
X296668Y259334D02*
X296001Y260001D01*
Y261334D01*
X296668Y262000D01*
X299334D01*
X300000Y261334D01*
Y260001D01*
X299334Y259334D01*
X300000Y258001D02*
Y256668D01*
Y257335D01*
X296001D01*
X296668Y258001D01*
X296001Y252003D02*
X296668Y253336D01*
X298001Y254669D01*
X299334D01*
X300000Y254003D01*
Y252670D01*
X299334Y252003D01*
X298667D01*
X298001Y252670D01*
Y254669D01*
X300000Y248671D02*
X296001D01*
X298001Y250670D01*
Y248005D01*
X300000Y246672D02*
X297334D01*
X296001Y245339D01*
X297334Y244006D01*
X300000D01*
X298001D01*
Y246672D01*
X963668Y342383D02*
X963001Y343050D01*
Y344383D01*
X963668Y345049D01*
X966333D01*
X967000Y344383D01*
Y343050D01*
X966333Y342383D01*
X967000Y341050D02*
Y339717D01*
Y340384D01*
X963001D01*
X963668Y341050D01*
X963001Y335052D02*
X963668Y336385D01*
X965001Y337718D01*
X966333D01*
X967000Y337052D01*
Y335719D01*
X966333Y335052D01*
X965667D01*
X965001Y335719D01*
Y337718D01*
X963668Y333719D02*
X963001Y333053D01*
Y331720D01*
X963668Y331053D01*
X964334D01*
X965001Y331720D01*
Y332386D01*
Y331720D01*
X965667Y331053D01*
X966333D01*
X967000Y331720D01*
Y333053D01*
X966333Y333719D01*
X963001Y329721D02*
X967000D01*
Y327721D01*
X966333Y327055D01*
X965667D01*
X965001Y327721D01*
Y329721D01*
Y327721D01*
X964334Y327055D01*
X963668D01*
X963001Y327721D01*
Y329721D01*
X270177Y259334D02*
X269510Y260001D01*
Y261334D01*
X270177Y262000D01*
X272843D01*
X273509Y261334D01*
Y260001D01*
X272843Y259334D01*
X273509Y258001D02*
Y256668D01*
Y257335D01*
X269510D01*
X270177Y258001D01*
X269510Y252003D02*
X270177Y253336D01*
X271510Y254669D01*
X272843D01*
X273509Y254003D01*
Y252670D01*
X272843Y252003D01*
X272176D01*
X271510Y252670D01*
Y254669D01*
X270177Y250670D02*
X269510Y250004D01*
Y248671D01*
X270177Y248005D01*
X270843D01*
X271510Y248671D01*
Y249337D01*
Y248671D01*
X272176Y248005D01*
X272843D01*
X273509Y248671D01*
Y250004D01*
X272843Y250670D01*
X273509Y246672D02*
X270843D01*
X269510Y245339D01*
X270843Y244006D01*
X273509D01*
X271510D01*
Y246672D01*
X315668Y259334D02*
X315001Y260001D01*
Y261334D01*
X315668Y262000D01*
X318334D01*
X319000Y261334D01*
Y260001D01*
X318334Y259334D01*
X319000Y258001D02*
Y256668D01*
Y257335D01*
X315001D01*
X315668Y258001D01*
X315001Y252003D02*
X315668Y253336D01*
X317001Y254669D01*
X318334D01*
X319000Y254003D01*
Y252670D01*
X318334Y252003D01*
X317667D01*
X317001Y252670D01*
Y254669D01*
X319000Y248005D02*
Y250670D01*
X316334Y248005D01*
X315668D01*
X315001Y248671D01*
Y250004D01*
X315668Y250670D01*
X342668Y259334D02*
X342001Y260001D01*
Y261334D01*
X342668Y262000D01*
X345334D01*
X346000Y261334D01*
Y260001D01*
X345334Y259334D01*
X346000Y258001D02*
Y256668D01*
Y257335D01*
X342001D01*
X342668Y258001D01*
X342001Y252003D02*
X342668Y253336D01*
X344001Y254669D01*
X345334D01*
X346000Y254003D01*
Y252670D01*
X345334Y252003D01*
X344667D01*
X344001Y252670D01*
Y254669D01*
X346000Y250670D02*
Y249337D01*
Y250004D01*
X342001D01*
X342668Y250670D01*
X875371Y343323D02*
X874704Y343989D01*
Y345322D01*
X875371Y345989D01*
X878037D01*
X878703Y345322D01*
Y343989D01*
X878037Y343323D01*
X878703Y341990D02*
Y340657D01*
Y341323D01*
X874704D01*
X875371Y341990D01*
X874704Y335992D02*
Y338658D01*
X876704D01*
X876037Y337325D01*
Y336658D01*
X876704Y335992D01*
X878037D01*
X878703Y336658D01*
Y337991D01*
X878037Y338658D01*
X875371Y334659D02*
X874704Y333993D01*
Y332660D01*
X875371Y331993D01*
X876037D01*
X876704Y332660D01*
X877370Y331993D01*
X878037D01*
X878703Y332660D01*
Y333993D01*
X878037Y334659D01*
X877370D01*
X876704Y333993D01*
X876037Y334659D01*
X875371D01*
X876704Y333993D02*
Y332660D01*
X874704Y330660D02*
X878703D01*
Y328661D01*
X878037Y327994D01*
X877370D01*
X876704Y328661D01*
Y330660D01*
Y328661D01*
X876037Y327994D01*
X875371D01*
X874704Y328661D01*
Y330660D01*
X359668Y259334D02*
X359001Y260001D01*
Y261334D01*
X359668Y262000D01*
X362334D01*
X363000Y261334D01*
Y260001D01*
X362334Y259334D01*
X363000Y258001D02*
Y256668D01*
Y257335D01*
X359001D01*
X359668Y258001D01*
X359001Y252003D02*
Y254669D01*
X361001D01*
X360334Y253336D01*
Y252670D01*
X361001Y252003D01*
X362334D01*
X363000Y252670D01*
Y254003D01*
X362334Y254669D01*
X359668Y250670D02*
X359001Y250004D01*
Y248671D01*
X359668Y248005D01*
X360334D01*
X361001Y248671D01*
X361667Y248005D01*
X362334D01*
X363000Y248671D01*
Y250004D01*
X362334Y250670D01*
X361667D01*
X361001Y250004D01*
X360334Y250670D01*
X359668D01*
X361001Y250004D02*
Y248671D01*
X363000Y246672D02*
X360334D01*
X359001Y245339D01*
X360334Y244006D01*
X363000D01*
X361001D01*
Y246672D01*
X901916Y343323D02*
X901249Y343989D01*
Y345322D01*
X901916Y345989D01*
X904582D01*
X905248Y345322D01*
Y343989D01*
X904582Y343323D01*
X905248Y341990D02*
Y340657D01*
Y341323D01*
X901249D01*
X901916Y341990D01*
X901249Y335992D02*
Y338658D01*
X903249D01*
X902582Y337325D01*
Y336658D01*
X903249Y335992D01*
X904582D01*
X905248Y336658D01*
Y337991D01*
X904582Y338658D01*
X901249Y334659D02*
Y331993D01*
X901916D01*
X904582Y334659D01*
X905248D01*
X901249Y330660D02*
X905248D01*
Y328661D01*
X904582Y327994D01*
X903915D01*
X903249Y328661D01*
Y330660D01*
Y328661D01*
X902582Y327994D01*
X901916D01*
X901249Y328661D01*
Y330660D01*
X386470Y259334D02*
X385804Y260001D01*
Y261334D01*
X386470Y262000D01*
X389136D01*
X389802Y261334D01*
Y260001D01*
X389136Y259334D01*
X389802Y258001D02*
Y256668D01*
Y257335D01*
X385804D01*
X386470Y258001D01*
X385804Y252003D02*
Y254669D01*
X387803D01*
X387137Y253336D01*
Y252670D01*
X387803Y252003D01*
X389136D01*
X389802Y252670D01*
Y254003D01*
X389136Y254669D01*
X385804Y250670D02*
Y248005D01*
X386470D01*
X389136Y250670D01*
X389802D01*
Y246672D02*
X387137D01*
X385804Y245339D01*
X387137Y244006D01*
X389802D01*
X387803D01*
Y246672D01*
X78498Y95334D02*
X77832Y96001D01*
Y97334D01*
X78498Y98000D01*
X81164D01*
X81831Y97334D01*
Y96001D01*
X81164Y95334D01*
X81831Y94001D02*
Y92668D01*
Y93335D01*
X77832D01*
X78498Y94001D01*
Y90669D02*
X77832Y90003D01*
Y88670D01*
X78498Y88003D01*
X81164D01*
X81831Y88670D01*
Y90003D01*
X81164Y90669D01*
X78498D01*
Y86670D02*
X77832Y86004D01*
Y84671D01*
X78498Y84004D01*
X81164D01*
X81831Y84671D01*
Y86004D01*
X81164Y86670D01*
X78498D01*
X77832Y80006D02*
Y82672D01*
X79831D01*
Y81339D01*
Y82672D01*
X81831D01*
X192052Y95334D02*
X191385Y96001D01*
Y97334D01*
X192052Y98000D01*
X194718D01*
X195384Y97334D01*
Y96001D01*
X194718Y95334D01*
X195384Y94001D02*
Y92668D01*
Y93335D01*
X191385D01*
X192052Y94001D01*
Y90669D02*
X191385Y90003D01*
Y88670D01*
X192052Y88003D01*
X194718D01*
X195384Y88670D01*
Y90003D01*
X194718Y90669D01*
X192052D01*
Y86670D02*
X191385Y86004D01*
Y84671D01*
X192052Y84004D01*
X194718D01*
X195384Y84671D01*
Y86004D01*
X194718Y86670D01*
X192052D01*
X191385Y80006D02*
Y82672D01*
X195384D01*
Y80006D01*
X193385Y82672D02*
Y81339D01*
X306206Y95334D02*
X305539Y96001D01*
Y97334D01*
X306206Y98000D01*
X308871D01*
X309538Y97334D01*
Y96001D01*
X308871Y95334D01*
X309538Y94001D02*
Y92668D01*
Y93335D01*
X305539D01*
X306206Y94001D01*
Y90669D02*
X305539Y90003D01*
Y88670D01*
X306206Y88003D01*
X308871D01*
X309538Y88670D01*
Y90003D01*
X308871Y90669D01*
X306206D01*
Y86670D02*
X305539Y86004D01*
Y84671D01*
X306206Y84004D01*
X308871D01*
X309538Y84671D01*
Y86004D01*
X308871Y86670D01*
X306206D01*
X305539Y82672D02*
X309538D01*
Y80672D01*
X308871Y80006D01*
X306206D01*
X305539Y80672D01*
Y82672D01*
X421668Y95334D02*
X421001Y96001D01*
Y97334D01*
X421668Y98000D01*
X424334D01*
X425000Y97334D01*
Y96001D01*
X424334Y95334D01*
X425000Y94001D02*
Y92668D01*
Y93335D01*
X421001D01*
X421668Y94001D01*
Y90669D02*
X421001Y90003D01*
Y88670D01*
X421668Y88003D01*
X424334D01*
X425000Y88670D01*
Y90003D01*
X424334Y90669D01*
X421668D01*
Y86670D02*
X421001Y86004D01*
Y84671D01*
X421668Y84004D01*
X424334D01*
X425000Y84671D01*
Y86004D01*
X424334Y86670D01*
X421668D01*
Y80006D02*
X421001Y80672D01*
Y82005D01*
X421668Y82672D01*
X424334D01*
X425000Y82005D01*
Y80672D01*
X424334Y80006D01*
X534513Y95334D02*
X533846Y96001D01*
Y97334D01*
X534513Y98000D01*
X537178D01*
X537845Y97334D01*
Y96001D01*
X537178Y95334D01*
X537845Y94001D02*
Y92668D01*
Y93335D01*
X533846D01*
X534513Y94001D01*
Y90669D02*
X533846Y90003D01*
Y88670D01*
X534513Y88003D01*
X537178D01*
X537845Y88670D01*
Y90003D01*
X537178Y90669D01*
X534513D01*
Y86670D02*
X533846Y86004D01*
Y84671D01*
X534513Y84004D01*
X537178D01*
X537845Y84671D01*
Y86004D01*
X537178Y86670D01*
X534513D01*
X533846Y82672D02*
X537845D01*
Y80672D01*
X537178Y80006D01*
X536512D01*
X535846Y80672D01*
Y82672D01*
Y80672D01*
X535179Y80006D01*
X534513D01*
X533846Y80672D01*
Y82672D01*
X648668Y95334D02*
X648001Y96001D01*
Y97334D01*
X648668Y98000D01*
X651334D01*
X652000Y97334D01*
Y96001D01*
X651334Y95334D01*
X652000Y94001D02*
Y92668D01*
Y93335D01*
X648001D01*
X648668Y94001D01*
Y90669D02*
X648001Y90003D01*
Y88670D01*
X648668Y88003D01*
X651334D01*
X652000Y88670D01*
Y90003D01*
X651334Y90669D01*
X648668D01*
Y86670D02*
X648001Y86004D01*
Y84671D01*
X648668Y84004D01*
X651334D01*
X652000Y84671D01*
Y86004D01*
X651334Y86670D01*
X648668D01*
X652000Y82672D02*
X649334D01*
X648001Y81339D01*
X649334Y80006D01*
X652000D01*
X650001D01*
Y82672D01*
X7668Y95334D02*
X7001Y96001D01*
Y97334D01*
X7668Y98000D01*
X10334D01*
X11000Y97334D01*
Y96001D01*
X10334Y95334D01*
Y94001D02*
X11000Y93335D01*
Y92002D01*
X10334Y91335D01*
X7668D01*
X7001Y92002D01*
Y93335D01*
X7668Y94001D01*
X8334D01*
X9001Y93335D01*
Y91335D01*
X10334Y90003D02*
X11000Y89336D01*
Y88003D01*
X10334Y87337D01*
X7668D01*
X7001Y88003D01*
Y89336D01*
X7668Y90003D01*
X8334D01*
X9001Y89336D01*
Y87337D01*
X7001Y83338D02*
Y86004D01*
X9001D01*
Y84671D01*
Y86004D01*
X11000D01*
X127668Y94488D02*
X127001Y95154D01*
Y96487D01*
X127668Y97154D01*
X130333D01*
X131000Y96487D01*
Y95154D01*
X130333Y94488D01*
Y93155D02*
X131000Y92488D01*
Y91155D01*
X130333Y90489D01*
X127668D01*
X127001Y91155D01*
Y92488D01*
X127668Y93155D01*
X128334D01*
X129001Y92488D01*
Y90489D01*
X130333Y89156D02*
X131000Y88490D01*
Y87157D01*
X130333Y86490D01*
X127668D01*
X127001Y87157D01*
Y88490D01*
X127668Y89156D01*
X128334D01*
X129001Y88490D01*
Y86490D01*
X127001Y82492D02*
Y85157D01*
X131000D01*
Y82492D01*
X129001Y85157D02*
Y83824D01*
X242668Y95334D02*
X242001Y96001D01*
Y97334D01*
X242668Y98000D01*
X245334D01*
X246000Y97334D01*
Y96001D01*
X245334Y95334D01*
Y94001D02*
X246000Y93335D01*
Y92002D01*
X245334Y91335D01*
X242668D01*
X242001Y92002D01*
Y93335D01*
X242668Y94001D01*
X243334D01*
X244001Y93335D01*
Y91335D01*
X245334Y90003D02*
X246000Y89336D01*
Y88003D01*
X245334Y87337D01*
X242668D01*
X242001Y88003D01*
Y89336D01*
X242668Y90003D01*
X243334D01*
X244001Y89336D01*
Y87337D01*
X242001Y86004D02*
X246000D01*
Y84004D01*
X245334Y83338D01*
X242668D01*
X242001Y84004D01*
Y86004D01*
X355859Y95334D02*
X355193Y96001D01*
Y97334D01*
X355859Y98000D01*
X358525D01*
X359191Y97334D01*
Y96001D01*
X358525Y95334D01*
Y94001D02*
X359191Y93335D01*
Y92002D01*
X358525Y91335D01*
X355859D01*
X355193Y92002D01*
Y93335D01*
X355859Y94001D01*
X356525D01*
X357192Y93335D01*
Y91335D01*
X358525Y90003D02*
X359191Y89336D01*
Y88003D01*
X358525Y87337D01*
X355859D01*
X355193Y88003D01*
Y89336D01*
X355859Y90003D01*
X356525D01*
X357192Y89336D01*
Y87337D01*
X355859Y83338D02*
X355193Y84004D01*
Y85337D01*
X355859Y86004D01*
X358525D01*
X359191Y85337D01*
Y84004D01*
X358525Y83338D01*
X469825Y95350D02*
X469159Y96016D01*
Y97349D01*
X469825Y98016D01*
X472491D01*
X473158Y97349D01*
Y96016D01*
X472491Y95350D01*
Y94017D02*
X473158Y93351D01*
Y92018D01*
X472491Y91351D01*
X469825D01*
X469159Y92018D01*
Y93351D01*
X469825Y94017D01*
X470492D01*
X471158Y93351D01*
Y91351D01*
X472491Y90018D02*
X473158Y89352D01*
Y88019D01*
X472491Y87353D01*
X469825D01*
X469159Y88019D01*
Y89352D01*
X469825Y90018D01*
X470492D01*
X471158Y89352D01*
Y87353D01*
X469159Y86020D02*
X473158D01*
Y84020D01*
X472491Y83354D01*
X471825D01*
X471158Y84020D01*
Y86020D01*
Y84020D01*
X470492Y83354D01*
X469825D01*
X469159Y84020D01*
Y86020D01*
X584668Y95334D02*
X584001Y96001D01*
Y97334D01*
X584668Y98000D01*
X587334D01*
X588000Y97334D01*
Y96001D01*
X587334Y95334D01*
Y94001D02*
X588000Y93335D01*
Y92002D01*
X587334Y91335D01*
X584668D01*
X584001Y92002D01*
Y93335D01*
X584668Y94001D01*
X585334D01*
X586001Y93335D01*
Y91335D01*
X587334Y90003D02*
X588000Y89336D01*
Y88003D01*
X587334Y87337D01*
X584668D01*
X584001Y88003D01*
Y89336D01*
X584668Y90003D01*
X585334D01*
X586001Y89336D01*
Y87337D01*
X588000Y86004D02*
X585334D01*
X584001Y84671D01*
X585334Y83338D01*
X588000D01*
X586001D01*
Y86004D01*
X72668Y95334D02*
X72001Y96001D01*
Y97334D01*
X72668Y98000D01*
X75334D01*
X76000Y97334D01*
Y96001D01*
X75334Y95334D01*
Y94001D02*
X76000Y93335D01*
Y92002D01*
X75334Y91335D01*
X72668D01*
X72001Y92002D01*
Y93335D01*
X72668Y94001D01*
X73334D01*
X74001Y93335D01*
Y91335D01*
X72668Y90003D02*
X72001Y89336D01*
Y88003D01*
X72668Y87337D01*
X73334D01*
X74001Y88003D01*
X74667Y87337D01*
X75334D01*
X76000Y88003D01*
Y89336D01*
X75334Y90003D01*
X74667D01*
X74001Y89336D01*
X73334Y90003D01*
X72668D01*
X74001Y89336D02*
Y88003D01*
X72001Y83338D02*
Y86004D01*
X74001D01*
Y84671D01*
Y86004D01*
X76000D01*
X186498Y95334D02*
X185832Y96001D01*
Y97334D01*
X186498Y98000D01*
X189164D01*
X189831Y97334D01*
Y96001D01*
X189164Y95334D01*
Y94001D02*
X189831Y93335D01*
Y92002D01*
X189164Y91335D01*
X186498D01*
X185832Y92002D01*
Y93335D01*
X186498Y94001D01*
X187165D01*
X187831Y93335D01*
Y91335D01*
X186498Y90003D02*
X185832Y89336D01*
Y88003D01*
X186498Y87337D01*
X187165D01*
X187831Y88003D01*
X188498Y87337D01*
X189164D01*
X189831Y88003D01*
Y89336D01*
X189164Y90003D01*
X188498D01*
X187831Y89336D01*
X187165Y90003D01*
X186498D01*
X187831Y89336D02*
Y88003D01*
X185832Y83338D02*
Y86004D01*
X189831D01*
Y83338D01*
X187831Y86004D02*
Y84671D01*
X300668Y95334D02*
X300001Y96001D01*
Y97334D01*
X300668Y98000D01*
X303334D01*
X304000Y97334D01*
Y96001D01*
X303334Y95334D01*
Y94001D02*
X304000Y93335D01*
Y92002D01*
X303334Y91335D01*
X300668D01*
X300001Y92002D01*
Y93335D01*
X300668Y94001D01*
X301334D01*
X302001Y93335D01*
Y91335D01*
X300668Y90003D02*
X300001Y89336D01*
Y88003D01*
X300668Y87337D01*
X301334D01*
X302001Y88003D01*
X302667Y87337D01*
X303334D01*
X304000Y88003D01*
Y89336D01*
X303334Y90003D01*
X302667D01*
X302001Y89336D01*
X301334Y90003D01*
X300668D01*
X302001Y89336D02*
Y88003D01*
X300001Y86004D02*
X304000D01*
Y84004D01*
X303334Y83338D01*
X300668D01*
X300001Y84004D01*
Y86004D01*
X415498Y95334D02*
X414832Y96001D01*
Y97334D01*
X415498Y98000D01*
X418164D01*
X418831Y97334D01*
Y96001D01*
X418164Y95334D01*
Y94001D02*
X418831Y93335D01*
Y92002D01*
X418164Y91335D01*
X415498D01*
X414832Y92002D01*
Y93335D01*
X415498Y94001D01*
X416165D01*
X416831Y93335D01*
Y91335D01*
X415498Y90003D02*
X414832Y89336D01*
Y88003D01*
X415498Y87337D01*
X416165D01*
X416831Y88003D01*
X417498Y87337D01*
X418164D01*
X418831Y88003D01*
Y89336D01*
X418164Y90003D01*
X417498D01*
X416831Y89336D01*
X416165Y90003D01*
X415498D01*
X416831Y89336D02*
Y88003D01*
X415498Y83338D02*
X414832Y84004D01*
Y85337D01*
X415498Y86004D01*
X418164D01*
X418831Y85337D01*
Y84004D01*
X418164Y83338D01*
X528668Y95334D02*
X528001Y96001D01*
Y97334D01*
X528668Y98000D01*
X531334D01*
X532000Y97334D01*
Y96001D01*
X531334Y95334D01*
Y94001D02*
X532000Y93335D01*
Y92002D01*
X531334Y91335D01*
X528668D01*
X528001Y92002D01*
Y93335D01*
X528668Y94001D01*
X529334D01*
X530001Y93335D01*
Y91335D01*
X528668Y90003D02*
X528001Y89336D01*
Y88003D01*
X528668Y87337D01*
X529334D01*
X530001Y88003D01*
X530667Y87337D01*
X531334D01*
X532000Y88003D01*
Y89336D01*
X531334Y90003D01*
X530667D01*
X530001Y89336D01*
X529334Y90003D01*
X528668D01*
X530001Y89336D02*
Y88003D01*
X528001Y86004D02*
X532000D01*
Y84004D01*
X531334Y83338D01*
X530667D01*
X530001Y84004D01*
Y86004D01*
Y84004D01*
X529334Y83338D01*
X528668D01*
X528001Y84004D01*
Y86004D01*
X642668Y95334D02*
X642001Y96001D01*
Y97334D01*
X642668Y98000D01*
X645334D01*
X646000Y97334D01*
Y96001D01*
X645334Y95334D01*
Y94001D02*
X646000Y93335D01*
Y92002D01*
X645334Y91335D01*
X642668D01*
X642001Y92002D01*
Y93335D01*
X642668Y94001D01*
X643334D01*
X644001Y93335D01*
Y91335D01*
X642668Y90003D02*
X642001Y89336D01*
Y88003D01*
X642668Y87337D01*
X643334D01*
X644001Y88003D01*
X644667Y87337D01*
X645334D01*
X646000Y88003D01*
Y89336D01*
X645334Y90003D01*
X644667D01*
X644001Y89336D01*
X643334Y90003D01*
X642668D01*
X644001Y89336D02*
Y88003D01*
X646000Y86004D02*
X643334D01*
X642001Y84671D01*
X643334Y83338D01*
X646000D01*
X644001D01*
Y86004D01*
X13398Y95334D02*
X12732Y96001D01*
Y97334D01*
X13398Y98000D01*
X16064D01*
X16731Y97334D01*
Y96001D01*
X16064Y95334D01*
Y94001D02*
X16731Y93335D01*
Y92002D01*
X16064Y91335D01*
X13398D01*
X12732Y92002D01*
Y93335D01*
X13398Y94001D01*
X14065D01*
X14731Y93335D01*
Y91335D01*
X12732Y90003D02*
Y87337D01*
X13398D01*
X16064Y90003D01*
X16731D01*
X12732Y83338D02*
Y86004D01*
X14731D01*
Y84671D01*
Y86004D01*
X16731D01*
X122052Y94704D02*
X121386Y95371D01*
Y96704D01*
X122052Y97370D01*
X124718D01*
X125384Y96704D01*
Y95371D01*
X124718Y94704D01*
Y93371D02*
X125384Y92705D01*
Y91372D01*
X124718Y90706D01*
X122052D01*
X121386Y91372D01*
Y92705D01*
X122052Y93371D01*
X122718D01*
X123385Y92705D01*
Y90706D01*
X121386Y89373D02*
Y86707D01*
X122052D01*
X124718Y89373D01*
X125384D01*
X121386Y82708D02*
Y85374D01*
X125384D01*
Y82708D01*
X123385Y85374D02*
Y84041D01*
X236498Y95334D02*
X235832Y96001D01*
Y97334D01*
X236498Y98000D01*
X239164D01*
X239831Y97334D01*
Y96001D01*
X239164Y95334D01*
Y94001D02*
X239831Y93335D01*
Y92002D01*
X239164Y91335D01*
X236498D01*
X235832Y92002D01*
Y93335D01*
X236498Y94001D01*
X237165D01*
X237831Y93335D01*
Y91335D01*
X235832Y90003D02*
Y87337D01*
X236498D01*
X239164Y90003D01*
X239831D01*
X235832Y86004D02*
X239831D01*
Y84004D01*
X239164Y83338D01*
X236498D01*
X235832Y84004D01*
Y86004D01*
X350668Y95334D02*
X350001Y96001D01*
Y97334D01*
X350668Y98000D01*
X353334D01*
X354000Y97334D01*
Y96001D01*
X353334Y95334D01*
Y94001D02*
X354000Y93335D01*
Y92002D01*
X353334Y91335D01*
X350668D01*
X350001Y92002D01*
Y93335D01*
X350668Y94001D01*
X351334D01*
X352001Y93335D01*
Y91335D01*
X350001Y90003D02*
Y87337D01*
X350668D01*
X353334Y90003D01*
X354000D01*
X350668Y83338D02*
X350001Y84004D01*
Y85337D01*
X350668Y86004D01*
X353334D01*
X354000Y85337D01*
Y84004D01*
X353334Y83338D01*
X464513Y95311D02*
X463846Y95977D01*
Y97310D01*
X464513Y97976D01*
X467178D01*
X467845Y97310D01*
Y95977D01*
X467178Y95311D01*
Y93978D02*
X467845Y93311D01*
Y91978D01*
X467178Y91312D01*
X464513D01*
X463846Y91978D01*
Y93311D01*
X464513Y93978D01*
X465179D01*
X465845Y93311D01*
Y91312D01*
X463846Y89979D02*
Y87313D01*
X464513D01*
X467178Y89979D01*
X467845D01*
X463846Y85980D02*
X467845D01*
Y83981D01*
X467178Y83314D01*
X466512D01*
X465845Y83981D01*
Y85980D01*
Y83981D01*
X465179Y83314D01*
X464513D01*
X463846Y83981D01*
Y85980D01*
X578668Y95334D02*
X578001Y96001D01*
Y97334D01*
X578668Y98000D01*
X581334D01*
X582000Y97334D01*
Y96001D01*
X581334Y95334D01*
Y94001D02*
X582000Y93335D01*
Y92002D01*
X581334Y91335D01*
X578668D01*
X578001Y92002D01*
Y93335D01*
X578668Y94001D01*
X579334D01*
X580001Y93335D01*
Y91335D01*
X578001Y90003D02*
Y87337D01*
X578668D01*
X581334Y90003D01*
X582000D01*
Y86004D02*
X579334D01*
X578001Y84671D01*
X579334Y83338D01*
X582000D01*
X580001D01*
Y86004D01*
X66998Y95334D02*
X66332Y96001D01*
Y97334D01*
X66998Y98000D01*
X69664D01*
X70331Y97334D01*
Y96001D01*
X69664Y95334D01*
Y94001D02*
X70331Y93335D01*
Y92002D01*
X69664Y91335D01*
X66998D01*
X66332Y92002D01*
Y93335D01*
X66998Y94001D01*
X67665D01*
X68331Y93335D01*
Y91335D01*
X66332Y87337D02*
X66998Y88670D01*
X68331Y90003D01*
X69664D01*
X70331Y89336D01*
Y88003D01*
X69664Y87337D01*
X68998D01*
X68331Y88003D01*
Y90003D01*
X66332Y83338D02*
Y86004D01*
X68331D01*
Y84671D01*
Y86004D01*
X70331D01*
X180998Y95334D02*
X180332Y96001D01*
Y97334D01*
X180998Y98000D01*
X183664D01*
X184331Y97334D01*
Y96001D01*
X183664Y95334D01*
Y94001D02*
X184331Y93335D01*
Y92002D01*
X183664Y91335D01*
X180998D01*
X180332Y92002D01*
Y93335D01*
X180998Y94001D01*
X181665D01*
X182331Y93335D01*
Y91335D01*
X180332Y87337D02*
X180998Y88670D01*
X182331Y90003D01*
X183664D01*
X184331Y89336D01*
Y88003D01*
X183664Y87337D01*
X182998D01*
X182331Y88003D01*
Y90003D01*
X180332Y83338D02*
Y86004D01*
X184331D01*
Y83338D01*
X182331Y86004D02*
Y84671D01*
X294668Y95334D02*
X294001Y96001D01*
Y97334D01*
X294668Y98000D01*
X297334D01*
X298000Y97334D01*
Y96001D01*
X297334Y95334D01*
Y94001D02*
X298000Y93335D01*
Y92002D01*
X297334Y91335D01*
X294668D01*
X294001Y92002D01*
Y93335D01*
X294668Y94001D01*
X295334D01*
X296001Y93335D01*
Y91335D01*
X294001Y87337D02*
X294668Y88670D01*
X296001Y90003D01*
X297334D01*
X298000Y89336D01*
Y88003D01*
X297334Y87337D01*
X296667D01*
X296001Y88003D01*
Y90003D01*
X294001Y86004D02*
X298000D01*
Y84004D01*
X297334Y83338D01*
X294668D01*
X294001Y84004D01*
Y86004D01*
X409735Y95334D02*
X409068Y96001D01*
Y97334D01*
X409735Y98000D01*
X412400D01*
X413067Y97334D01*
Y96001D01*
X412400Y95334D01*
Y94001D02*
X413067Y93335D01*
Y92002D01*
X412400Y91335D01*
X409735D01*
X409068Y92002D01*
Y93335D01*
X409735Y94001D01*
X410401D01*
X411068Y93335D01*
Y91335D01*
X409068Y87337D02*
X409735Y88670D01*
X411068Y90003D01*
X412400D01*
X413067Y89336D01*
Y88003D01*
X412400Y87337D01*
X411734D01*
X411068Y88003D01*
Y90003D01*
X409735Y83338D02*
X409068Y84004D01*
Y85337D01*
X409735Y86004D01*
X412400D01*
X413067Y85337D01*
Y84004D01*
X412400Y83338D01*
X522668Y95334D02*
X522001Y96001D01*
Y97334D01*
X522668Y98000D01*
X525334D01*
X526000Y97334D01*
Y96001D01*
X525334Y95334D01*
Y94001D02*
X526000Y93335D01*
Y92002D01*
X525334Y91335D01*
X522668D01*
X522001Y92002D01*
Y93335D01*
X522668Y94001D01*
X523334D01*
X524001Y93335D01*
Y91335D01*
X522001Y87337D02*
X522668Y88670D01*
X524001Y90003D01*
X525334D01*
X526000Y89336D01*
Y88003D01*
X525334Y87337D01*
X524667D01*
X524001Y88003D01*
Y90003D01*
X522001Y86004D02*
X526000D01*
Y84004D01*
X525334Y83338D01*
X524667D01*
X524001Y84004D01*
Y86004D01*
Y84004D01*
X523334Y83338D01*
X522668D01*
X522001Y84004D01*
Y86004D01*
X636668Y95334D02*
X636001Y96001D01*
Y97334D01*
X636668Y98000D01*
X639334D01*
X640000Y97334D01*
Y96001D01*
X639334Y95334D01*
Y94001D02*
X640000Y93335D01*
Y92002D01*
X639334Y91335D01*
X636668D01*
X636001Y92002D01*
Y93335D01*
X636668Y94001D01*
X637334D01*
X638001Y93335D01*
Y91335D01*
X636001Y87337D02*
X636668Y88670D01*
X638001Y90003D01*
X639334D01*
X640000Y89336D01*
Y88003D01*
X639334Y87337D01*
X638667D01*
X638001Y88003D01*
Y90003D01*
X640000Y86004D02*
X637334D01*
X636001Y84671D01*
X637334Y83338D01*
X640000D01*
X638001D01*
Y86004D01*
X1668Y95334D02*
X1001Y96001D01*
Y97334D01*
X1668Y98000D01*
X4334D01*
X5000Y97334D01*
Y96001D01*
X4334Y95334D01*
Y94001D02*
X5000Y93335D01*
Y92002D01*
X4334Y91335D01*
X1668D01*
X1001Y92002D01*
Y93335D01*
X1668Y94001D01*
X2334D01*
X3001Y93335D01*
Y91335D01*
X1001Y87337D02*
Y90003D01*
X3001D01*
X2334Y88670D01*
Y88003D01*
X3001Y87337D01*
X4334D01*
X5000Y88003D01*
Y89336D01*
X4334Y90003D01*
X1001Y83338D02*
Y86004D01*
X3001D01*
Y84671D01*
Y86004D01*
X5000D01*
X116668Y94704D02*
X116001Y95371D01*
Y96704D01*
X116668Y97370D01*
X119334D01*
X120000Y96704D01*
Y95371D01*
X119334Y94704D01*
Y93371D02*
X120000Y92705D01*
Y91372D01*
X119334Y90706D01*
X116668D01*
X116001Y91372D01*
Y92705D01*
X116668Y93371D01*
X117334D01*
X118001Y92705D01*
Y90706D01*
X116001Y86707D02*
Y89373D01*
X118001D01*
X117334Y88040D01*
Y87373D01*
X118001Y86707D01*
X119334D01*
X120000Y87373D01*
Y88706D01*
X119334Y89373D01*
X116001Y82708D02*
Y85374D01*
X120000D01*
Y82708D01*
X118001Y85374D02*
Y84041D01*
X230668Y95334D02*
X230001Y96001D01*
Y97334D01*
X230668Y98000D01*
X233334D01*
X234000Y97334D01*
Y96001D01*
X233334Y95334D01*
Y94001D02*
X234000Y93335D01*
Y92002D01*
X233334Y91335D01*
X230668D01*
X230001Y92002D01*
Y93335D01*
X230668Y94001D01*
X231334D01*
X232001Y93335D01*
Y91335D01*
X230001Y87337D02*
Y90003D01*
X232001D01*
X231334Y88670D01*
Y88003D01*
X232001Y87337D01*
X233334D01*
X234000Y88003D01*
Y89336D01*
X233334Y90003D01*
X230001Y86004D02*
X234000D01*
Y84004D01*
X233334Y83338D01*
X230668D01*
X230001Y84004D01*
Y86004D01*
X344668Y95334D02*
X344001Y96001D01*
Y97334D01*
X344668Y98000D01*
X347334D01*
X348000Y97334D01*
Y96001D01*
X347334Y95334D01*
Y94001D02*
X348000Y93335D01*
Y92002D01*
X347334Y91335D01*
X344668D01*
X344001Y92002D01*
Y93335D01*
X344668Y94001D01*
X345334D01*
X346001Y93335D01*
Y91335D01*
X344001Y87337D02*
Y90003D01*
X346001D01*
X345334Y88670D01*
Y88003D01*
X346001Y87337D01*
X347334D01*
X348000Y88003D01*
Y89336D01*
X347334Y90003D01*
X344668Y83338D02*
X344001Y84004D01*
Y85337D01*
X344668Y86004D01*
X347334D01*
X348000Y85337D01*
Y84004D01*
X347334Y83338D01*
X458668Y95334D02*
X458001Y96001D01*
Y97334D01*
X458668Y98000D01*
X461334D01*
X462000Y97334D01*
Y96001D01*
X461334Y95334D01*
Y94001D02*
X462000Y93335D01*
Y92002D01*
X461334Y91335D01*
X458668D01*
X458001Y92002D01*
Y93335D01*
X458668Y94001D01*
X459334D01*
X460001Y93335D01*
Y91335D01*
X458001Y87337D02*
Y90003D01*
X460001D01*
X459334Y88670D01*
Y88003D01*
X460001Y87337D01*
X461334D01*
X462000Y88003D01*
Y89336D01*
X461334Y90003D01*
X458001Y86004D02*
X462000D01*
Y84004D01*
X461334Y83338D01*
X460667D01*
X460001Y84004D01*
Y86004D01*
Y84004D01*
X459334Y83338D01*
X458668D01*
X458001Y84004D01*
Y86004D01*
X572668Y95334D02*
X572001Y96001D01*
Y97334D01*
X572668Y98000D01*
X575334D01*
X576000Y97334D01*
Y96001D01*
X575334Y95334D01*
Y94001D02*
X576000Y93335D01*
Y92002D01*
X575334Y91335D01*
X572668D01*
X572001Y92002D01*
Y93335D01*
X572668Y94001D01*
X573334D01*
X574001Y93335D01*
Y91335D01*
X572001Y87337D02*
Y90003D01*
X574001D01*
X573334Y88670D01*
Y88003D01*
X574001Y87337D01*
X575334D01*
X576000Y88003D01*
Y89336D01*
X575334Y90003D01*
X576000Y86004D02*
X573334D01*
X572001Y84671D01*
X573334Y83338D01*
X576000D01*
X574001D01*
Y86004D01*
X29297Y186592D02*
X29964Y187259D01*
X31297D01*
X31963Y186592D01*
Y183926D01*
X31297Y183260D01*
X29964D01*
X29297Y183926D01*
X27964D02*
X27298Y183260D01*
X25965D01*
X25299Y183926D01*
Y186592D01*
X25965Y187259D01*
X27298D01*
X27964Y186592D01*
Y185926D01*
X27298Y185259D01*
X25299D01*
X21300Y183260D02*
X23966D01*
X21300Y185926D01*
Y186592D01*
X21966Y187259D01*
X23299D01*
X23966Y186592D01*
X17301Y187259D02*
X19967D01*
Y185259D01*
X18634D01*
X19967D01*
Y183260D01*
X143104Y186592D02*
X143771Y187259D01*
X145104D01*
X145770Y186592D01*
Y183926D01*
X145104Y183260D01*
X143771D01*
X143104Y183926D01*
X141771D02*
X141105Y183260D01*
X139772D01*
X139106Y183926D01*
Y186592D01*
X139772Y187259D01*
X141105D01*
X141771Y186592D01*
Y185926D01*
X141105Y185259D01*
X139106D01*
X135107Y183260D02*
X137773D01*
X135107Y185926D01*
Y186592D01*
X135773Y187259D01*
X137106D01*
X137773Y186592D01*
X131108Y187259D02*
X133774D01*
Y183260D01*
X131108D01*
X133774Y185259D02*
X132441D01*
X257411Y186592D02*
X258078Y187259D01*
X259411D01*
X260077Y186592D01*
Y183926D01*
X259411Y183260D01*
X258078D01*
X257411Y183926D01*
X256079D02*
X255412Y183260D01*
X254079D01*
X253413Y183926D01*
Y186592D01*
X254079Y187259D01*
X255412D01*
X256079Y186592D01*
Y185926D01*
X255412Y185259D01*
X253413D01*
X249414Y183260D02*
X252080D01*
X249414Y185926D01*
Y186592D01*
X250080Y187259D01*
X251413D01*
X252080Y186592D01*
X248081Y187259D02*
Y183260D01*
X246082D01*
X245415Y183926D01*
Y186592D01*
X246082Y187259D01*
X248081D01*
X371718Y186592D02*
X372385Y187259D01*
X373718D01*
X374384Y186592D01*
Y183926D01*
X373718Y183260D01*
X372385D01*
X371718Y183926D01*
X370386D02*
X369719Y183260D01*
X368386D01*
X367720Y183926D01*
Y186592D01*
X368386Y187259D01*
X369719D01*
X370386Y186592D01*
Y185926D01*
X369719Y185259D01*
X367720D01*
X363721Y183260D02*
X366387D01*
X363721Y185926D01*
Y186592D01*
X364387Y187259D01*
X365720D01*
X366387Y186592D01*
X359722D02*
X360389Y187259D01*
X361722D01*
X362388Y186592D01*
Y183926D01*
X361722Y183260D01*
X360389D01*
X359722Y183926D01*
X485526Y186592D02*
X486192Y187259D01*
X487525D01*
X488191Y186592D01*
Y183926D01*
X487525Y183260D01*
X486192D01*
X485526Y183926D01*
X484193D02*
X483526Y183260D01*
X482193D01*
X481527Y183926D01*
Y186592D01*
X482193Y187259D01*
X483526D01*
X484193Y186592D01*
Y185926D01*
X483526Y185259D01*
X481527D01*
X477528Y183260D02*
X480194D01*
X477528Y185926D01*
Y186592D01*
X478195Y187259D01*
X479528D01*
X480194Y186592D01*
X476195Y187259D02*
Y183260D01*
X474196D01*
X473529Y183926D01*
Y184593D01*
X474196Y185259D01*
X476195D01*
X474196D01*
X473529Y185926D01*
Y186592D01*
X474196Y187259D01*
X476195D01*
X602833Y181828D02*
X603499Y182495D01*
X604832D01*
X605498Y181828D01*
Y179163D01*
X604832Y178496D01*
X603499D01*
X602833Y179163D01*
X601500D02*
X600833Y178496D01*
X599500D01*
X598834Y179163D01*
Y181828D01*
X599500Y182495D01*
X600833D01*
X601500Y181828D01*
Y181162D01*
X600833Y180495D01*
X598834D01*
X594835Y178496D02*
X597501D01*
X594835Y181162D01*
Y181828D01*
X595502Y182495D01*
X596835D01*
X597501Y181828D01*
X593502Y178496D02*
Y181162D01*
X592169Y182495D01*
X590836Y181162D01*
Y178496D01*
Y180495D01*
X593502D01*
X29297Y179592D02*
X29964Y180259D01*
X31297D01*
X31963Y179592D01*
Y176926D01*
X31297Y176260D01*
X29964D01*
X29297Y176926D01*
X27964D02*
X27298Y176260D01*
X25965D01*
X25299Y176926D01*
Y179592D01*
X25965Y180259D01*
X27298D01*
X27964Y179592D01*
Y178926D01*
X27298Y178259D01*
X25299D01*
X23966Y176260D02*
X22633D01*
X23299D01*
Y180259D01*
X23966Y179592D01*
X17967Y180259D02*
X20633D01*
Y178259D01*
X19300D01*
X20633D01*
Y176260D01*
X257411Y179592D02*
X258078Y180259D01*
X259411D01*
X260077Y179592D01*
Y176926D01*
X259411Y176260D01*
X258078D01*
X257411Y176926D01*
X256079D02*
X255412Y176260D01*
X254079D01*
X253413Y176926D01*
Y179592D01*
X254079Y180259D01*
X255412D01*
X256079Y179592D01*
Y178926D01*
X255412Y178259D01*
X253413D01*
X252080Y176260D02*
X250747D01*
X251413D01*
Y180259D01*
X252080Y179592D01*
X248747Y180259D02*
Y176260D01*
X246748D01*
X246082Y176926D01*
Y179592D01*
X246748Y180259D01*
X248747D01*
X371718Y179592D02*
X372385Y180259D01*
X373718D01*
X374384Y179592D01*
Y176926D01*
X373718Y176260D01*
X372385D01*
X371718Y176926D01*
X370386D02*
X369719Y176260D01*
X368386D01*
X367720Y176926D01*
Y179592D01*
X368386Y180259D01*
X369719D01*
X370386Y179592D01*
Y178926D01*
X369719Y178259D01*
X367720D01*
X366387Y176260D02*
X365054D01*
X365720D01*
Y180259D01*
X366387Y179592D01*
X360389D02*
X361055Y180259D01*
X362388D01*
X363055Y179592D01*
Y176926D01*
X362388Y176260D01*
X361055D01*
X360389Y176926D01*
X485526Y179592D02*
X486192Y180259D01*
X487525D01*
X488191Y179592D01*
Y176926D01*
X487525Y176260D01*
X486192D01*
X485526Y176926D01*
X484193D02*
X483526Y176260D01*
X482193D01*
X481527Y176926D01*
Y179592D01*
X482193Y180259D01*
X483526D01*
X484193Y179592D01*
Y178926D01*
X483526Y178259D01*
X481527D01*
X480194Y176260D02*
X478861D01*
X479528D01*
Y180259D01*
X480194Y179592D01*
X476862Y180259D02*
Y176260D01*
X474862D01*
X474196Y176926D01*
Y177593D01*
X474862Y178259D01*
X476862D01*
X474862D01*
X474196Y178926D01*
Y179592D01*
X474862Y180259D01*
X476862D01*
X602833Y174828D02*
X603499Y175495D01*
X604832D01*
X605498Y174828D01*
Y172162D01*
X604832Y171496D01*
X603499D01*
X602833Y172162D01*
X601500D02*
X600833Y171496D01*
X599500D01*
X598834Y172162D01*
Y174828D01*
X599500Y175495D01*
X600833D01*
X601500Y174828D01*
Y174162D01*
X600833Y173495D01*
X598834D01*
X597501Y171496D02*
X596168D01*
X596835D01*
Y175495D01*
X597501Y174828D01*
X594169Y171496D02*
Y174162D01*
X592836Y175495D01*
X591503Y174162D01*
Y171496D01*
Y173495D01*
X594169D01*
X1253332Y135666D02*
X1253999Y134999D01*
Y133667D01*
X1253332Y133000D01*
X1250667D01*
X1250000Y133667D01*
Y134999D01*
X1250667Y135666D01*
X1253332Y136999D02*
X1253999Y137665D01*
Y138998D01*
X1253332Y139664D01*
X1252666D01*
X1251999Y138998D01*
X1251333Y139664D01*
X1250667D01*
X1250000Y138998D01*
Y137665D01*
X1250667Y136999D01*
X1251333D01*
X1251999Y137665D01*
X1252666Y136999D01*
X1253332D01*
X1251999Y137665D02*
Y138998D01*
X1250000Y142997D02*
X1253999D01*
X1251999Y140997D01*
Y143663D01*
X1261332Y97166D02*
X1261999Y96499D01*
Y95166D01*
X1261332Y94500D01*
X1258667D01*
X1258000Y95166D01*
Y96499D01*
X1258667Y97166D01*
X1261332Y98499D02*
X1261999Y99165D01*
Y100498D01*
X1261332Y101164D01*
X1260666D01*
X1259999Y100498D01*
X1259333Y101164D01*
X1258667D01*
X1258000Y100498D01*
Y99165D01*
X1258667Y98499D01*
X1259333D01*
X1259999Y99165D01*
X1260666Y98499D01*
X1261332D01*
X1259999Y99165D02*
Y100498D01*
X1261332Y102497D02*
X1261999Y103164D01*
Y104497D01*
X1261332Y105163D01*
X1260666D01*
X1259999Y104497D01*
Y103830D01*
Y104497D01*
X1259333Y105163D01*
X1258667D01*
X1258000Y104497D01*
Y103164D01*
X1258667Y102497D01*
X1261332Y136012D02*
X1261999Y135346D01*
Y134013D01*
X1261332Y133346D01*
X1258667D01*
X1258000Y134013D01*
Y135346D01*
X1258667Y136012D01*
X1261332Y137345D02*
X1261999Y138012D01*
Y139345D01*
X1261332Y140011D01*
X1260666D01*
X1259999Y139345D01*
X1259333Y140011D01*
X1258667D01*
X1258000Y139345D01*
Y138012D01*
X1258667Y137345D01*
X1259333D01*
X1259999Y138012D01*
X1260666Y137345D01*
X1261332D01*
X1259999Y138012D02*
Y139345D01*
X1258000Y144010D02*
Y141344D01*
X1260666Y144010D01*
X1261332D01*
X1261999Y143343D01*
Y142010D01*
X1261332Y141344D01*
X1253832Y98166D02*
X1254499Y97499D01*
Y96166D01*
X1253832Y95500D01*
X1251167D01*
X1250500Y96166D01*
Y97499D01*
X1251167Y98166D01*
X1253832Y99499D02*
X1254499Y100165D01*
Y101498D01*
X1253832Y102164D01*
X1253166D01*
X1252499Y101498D01*
X1251833Y102164D01*
X1251167D01*
X1250500Y101498D01*
Y100165D01*
X1251167Y99499D01*
X1251833D01*
X1252499Y100165D01*
X1253166Y99499D01*
X1253832D01*
X1252499Y100165D02*
Y101498D01*
X1250500Y103497D02*
Y104830D01*
Y104164D01*
X1254499D01*
X1253832Y103497D01*
X1209832Y136166D02*
X1210499Y135499D01*
Y134167D01*
X1209832Y133500D01*
X1207166D01*
X1206500Y134167D01*
Y135499D01*
X1207166Y136166D01*
X1209832Y137499D02*
X1210499Y138165D01*
Y139498D01*
X1209832Y140164D01*
X1209166D01*
X1208499Y139498D01*
X1207833Y140164D01*
X1207166D01*
X1206500Y139498D01*
Y138165D01*
X1207166Y137499D01*
X1207833D01*
X1208499Y138165D01*
X1209166Y137499D01*
X1209832D01*
X1208499Y138165D02*
Y139498D01*
X1209832Y141497D02*
X1210499Y142164D01*
Y143497D01*
X1209832Y144163D01*
X1207166D01*
X1206500Y143497D01*
Y142164D01*
X1207166Y141497D01*
X1209832D01*
Y97166D02*
X1210499Y96499D01*
Y95166D01*
X1209832Y94500D01*
X1207166D01*
X1206500Y95166D01*
Y96499D01*
X1207166Y97166D01*
X1210499Y98499D02*
Y101164D01*
X1209832D01*
X1207166Y98499D01*
X1206500D01*
X1207166Y102497D02*
X1206500Y103164D01*
Y104497D01*
X1207166Y105163D01*
X1209832D01*
X1210499Y104497D01*
Y103164D01*
X1209832Y102497D01*
X1209166D01*
X1208499Y103164D01*
Y105163D01*
X1216832Y136166D02*
X1217499Y135499D01*
Y134167D01*
X1216832Y133500D01*
X1214167D01*
X1213500Y134167D01*
Y135499D01*
X1214167Y136166D01*
X1217499Y137499D02*
Y140164D01*
X1216832D01*
X1214167Y137499D01*
X1213500D01*
X1216832Y141497D02*
X1217499Y142164D01*
Y143497D01*
X1216832Y144163D01*
X1216166D01*
X1215499Y143497D01*
X1214833Y144163D01*
X1214167D01*
X1213500Y143497D01*
Y142164D01*
X1214167Y141497D01*
X1214833D01*
X1215499Y142164D01*
X1216166Y141497D01*
X1216832D01*
X1215499Y142164D02*
Y143497D01*
X1216832Y97166D02*
X1217499Y96499D01*
Y95166D01*
X1216832Y94500D01*
X1214167D01*
X1213500Y95166D01*
Y96499D01*
X1214167Y97166D01*
X1217499Y98499D02*
Y101164D01*
X1216832D01*
X1214167Y98499D01*
X1213500D01*
X1217499Y102497D02*
Y105163D01*
X1216832D01*
X1214167Y102497D01*
X1213500D01*
X1145332Y137166D02*
X1145999Y136499D01*
Y135167D01*
X1145332Y134500D01*
X1142667D01*
X1142000Y135167D01*
Y136499D01*
X1142667Y137166D01*
X1145999Y138499D02*
Y141165D01*
X1145332D01*
X1142667Y138499D01*
X1142000D01*
X1145999Y145163D02*
X1145332Y143830D01*
X1143999Y142497D01*
X1142667D01*
X1142000Y143164D01*
Y144497D01*
X1142667Y145163D01*
X1143333D01*
X1143999Y144497D01*
Y142497D01*
X1145332Y94666D02*
X1145999Y93999D01*
Y92666D01*
X1145332Y92000D01*
X1142667D01*
X1142000Y92666D01*
Y93999D01*
X1142667Y94666D01*
X1145999Y95999D02*
Y98664D01*
X1145332D01*
X1142667Y95999D01*
X1142000D01*
X1145999Y102663D02*
Y99997D01*
X1143999D01*
X1144666Y101330D01*
Y101997D01*
X1143999Y102663D01*
X1142667D01*
X1142000Y101997D01*
Y100664D01*
X1142667Y99997D01*
X1152832Y137166D02*
X1153499Y136499D01*
Y135167D01*
X1152832Y134500D01*
X1150167D01*
X1149500Y135167D01*
Y136499D01*
X1150167Y137166D01*
X1153499Y138499D02*
Y141165D01*
X1152832D01*
X1150167Y138499D01*
X1149500D01*
Y144497D02*
X1153499D01*
X1151499Y142497D01*
Y145163D01*
X1152832Y94666D02*
X1153499Y93999D01*
Y92666D01*
X1152832Y92000D01*
X1150167D01*
X1149500Y92666D01*
Y93999D01*
X1150167Y94666D01*
X1153499Y95999D02*
Y98664D01*
X1152832D01*
X1150167Y95999D01*
X1149500D01*
X1152832Y99997D02*
X1153499Y100664D01*
Y101997D01*
X1152832Y102663D01*
X1152166D01*
X1151499Y101997D01*
Y101330D01*
Y101997D01*
X1150833Y102663D01*
X1150167D01*
X1149500Y101997D01*
Y100664D01*
X1150167Y99997D01*
X742168Y68878D02*
X741501Y69544D01*
Y70877D01*
X742168Y71543D01*
X744834D01*
X745500Y70877D01*
Y69544D01*
X744834Y68878D01*
X741501Y64879D02*
X742168Y66212D01*
X743501Y67545D01*
X744834D01*
X745500Y66878D01*
Y65545D01*
X744834Y64879D01*
X744167D01*
X743501Y65545D01*
Y67545D01*
X742168Y63546D02*
X741501Y62879D01*
Y61546D01*
X742168Y60880D01*
X744834D01*
X745500Y61546D01*
Y62879D01*
X744834Y63546D01*
X742168D01*
X730168Y68878D02*
X729501Y69544D01*
Y70877D01*
X730168Y71543D01*
X732834D01*
X733500Y70877D01*
Y69544D01*
X732834Y68878D01*
X729501Y64879D02*
Y67545D01*
X731501D01*
X730834Y66212D01*
Y65545D01*
X731501Y64879D01*
X732834D01*
X733500Y65545D01*
Y66878D01*
X732834Y67545D01*
Y63546D02*
X733500Y62879D01*
Y61546D01*
X732834Y60880D01*
X730168D01*
X729501Y61546D01*
Y62879D01*
X730168Y63546D01*
X730834D01*
X731501Y62879D01*
Y60880D01*
X706168Y68878D02*
X705501Y69544D01*
Y70877D01*
X706168Y71543D01*
X708834D01*
X709500Y70877D01*
Y69544D01*
X708834Y68878D01*
X705501Y64879D02*
Y67545D01*
X707501D01*
X706834Y66212D01*
Y65545D01*
X707501Y64879D01*
X708834D01*
X709500Y65545D01*
Y66878D01*
X708834Y67545D01*
X706168Y63546D02*
X705501Y62879D01*
Y61546D01*
X706168Y60880D01*
X706834D01*
X707501Y61546D01*
X708167Y60880D01*
X708834D01*
X709500Y61546D01*
Y62879D01*
X708834Y63546D01*
X708167D01*
X707501Y62879D01*
X706834Y63546D01*
X706168D01*
X707501Y62879D02*
Y61546D01*
X694168Y68878D02*
X693501Y69544D01*
Y70877D01*
X694168Y71543D01*
X696834D01*
X697500Y70877D01*
Y69544D01*
X696834Y68878D01*
X693501Y64879D02*
Y67545D01*
X695501D01*
X694834Y66212D01*
Y65545D01*
X695501Y64879D01*
X696834D01*
X697500Y65545D01*
Y66878D01*
X696834Y67545D01*
X693501Y63546D02*
Y60880D01*
X694168D01*
X696834Y63546D01*
X697500D01*
X508068Y479334D02*
X507401Y480001D01*
Y481334D01*
X508068Y482000D01*
X510734D01*
X511400Y481334D01*
Y480001D01*
X510734Y479334D01*
X507401Y475336D02*
Y478001D01*
X509401D01*
X508734Y476668D01*
Y476002D01*
X509401Y475336D01*
X510734D01*
X511400Y476002D01*
Y477335D01*
X510734Y478001D01*
X511400Y474003D02*
Y472670D01*
Y473336D01*
X507401D01*
X508068Y474003D01*
X1484997Y304332D02*
X1485664Y304999D01*
X1486997D01*
X1487663Y304332D01*
Y301666D01*
X1486997Y301000D01*
X1485664D01*
X1484997Y301666D01*
X1481665Y301000D02*
Y304999D01*
X1483665Y302999D01*
X1480999D01*
X1479666Y301666D02*
X1478999Y301000D01*
X1477666D01*
X1477000Y301666D01*
Y304332D01*
X1477666Y304999D01*
X1478999D01*
X1479666Y304332D01*
Y303666D01*
X1478999Y302999D01*
X1477000D01*
X1475667Y304999D02*
Y301000D01*
Y302999D01*
X1473001D01*
Y304999D01*
Y301000D01*
X1575997Y304332D02*
X1576664Y304999D01*
X1577997D01*
X1578663Y304332D01*
Y301666D01*
X1577997Y301000D01*
X1576664D01*
X1575997Y301666D01*
X1572665Y301000D02*
Y304999D01*
X1574664Y302999D01*
X1571999D01*
X1570666Y301666D02*
X1569999Y301000D01*
X1568666D01*
X1568000Y301666D01*
Y304332D01*
X1568666Y304999D01*
X1569999D01*
X1570666Y304332D01*
Y303666D01*
X1569999Y302999D01*
X1568000D01*
X1564001Y304332D02*
X1564668Y304999D01*
X1566001D01*
X1566667Y304332D01*
Y301666D01*
X1566001Y301000D01*
X1564668D01*
X1564001Y301666D01*
Y302999D01*
X1565334D01*
X1484997Y246832D02*
X1485664Y247499D01*
X1486997D01*
X1487663Y246832D01*
Y244166D01*
X1486997Y243500D01*
X1485664D01*
X1484997Y244166D01*
X1481665Y243500D02*
Y247499D01*
X1483665Y245499D01*
X1480999D01*
X1479666Y244166D02*
X1478999Y243500D01*
X1477666D01*
X1477000Y244166D01*
Y246832D01*
X1477666Y247499D01*
X1478999D01*
X1479666Y246832D01*
Y246166D01*
X1478999Y245499D01*
X1477000D01*
X1473001Y247499D02*
X1475667D01*
Y245499D01*
X1474334D01*
X1475667D01*
Y243500D01*
X1575997Y246832D02*
X1576664Y247499D01*
X1577997D01*
X1578663Y246832D01*
Y244166D01*
X1577997Y243500D01*
X1576664D01*
X1575997Y244166D01*
X1572665Y243500D02*
Y247499D01*
X1574664Y245499D01*
X1571999D01*
X1570666Y244166D02*
X1569999Y243500D01*
X1568666D01*
X1568000Y244166D01*
Y246832D01*
X1568666Y247499D01*
X1569999D01*
X1570666Y246832D01*
Y246166D01*
X1569999Y245499D01*
X1568000D01*
X1564001Y247499D02*
X1566667D01*
Y243500D01*
X1564001D01*
X1566667Y245499D02*
X1565334D01*
X1484997Y189332D02*
X1485664Y189999D01*
X1486997D01*
X1487663Y189332D01*
Y186667D01*
X1486997Y186000D01*
X1485664D01*
X1484997Y186667D01*
X1481665Y186000D02*
Y189999D01*
X1483665Y187999D01*
X1480999D01*
X1479666Y186667D02*
X1478999Y186000D01*
X1477666D01*
X1477000Y186667D01*
Y189332D01*
X1477666Y189999D01*
X1478999D01*
X1479666Y189332D01*
Y188666D01*
X1478999Y187999D01*
X1477000D01*
X1475667Y189999D02*
Y186000D01*
X1473668D01*
X1473001Y186667D01*
Y189332D01*
X1473668Y189999D01*
X1475667D01*
X1575997Y189332D02*
X1576664Y189999D01*
X1577997D01*
X1578663Y189332D01*
Y186667D01*
X1577997Y186000D01*
X1576664D01*
X1575997Y186667D01*
X1572665Y186000D02*
Y189999D01*
X1574664Y187999D01*
X1571999D01*
X1570666Y186667D02*
X1569999Y186000D01*
X1568666D01*
X1568000Y186667D01*
Y189332D01*
X1568666Y189999D01*
X1569999D01*
X1570666Y189332D01*
Y188666D01*
X1569999Y187999D01*
X1568000D01*
X1564001Y189332D02*
X1564668Y189999D01*
X1566001D01*
X1566667Y189332D01*
Y186667D01*
X1566001Y186000D01*
X1564668D01*
X1564001Y186667D01*
X1484997Y131832D02*
X1485664Y132499D01*
X1486997D01*
X1487663Y131832D01*
Y129166D01*
X1486997Y128500D01*
X1485664D01*
X1484997Y129166D01*
X1481665Y128500D02*
Y132499D01*
X1483665Y130499D01*
X1480999D01*
X1479666Y129166D02*
X1478999Y128500D01*
X1477666D01*
X1477000Y129166D01*
Y131832D01*
X1477666Y132499D01*
X1478999D01*
X1479666Y131832D01*
Y131166D01*
X1478999Y130499D01*
X1477000D01*
X1475667Y132499D02*
Y128500D01*
X1473668D01*
X1473001Y129166D01*
Y129833D01*
X1473668Y130499D01*
X1475667D01*
X1473668D01*
X1473001Y131166D01*
Y131832D01*
X1473668Y132499D01*
X1475667D01*
X1575997Y131832D02*
X1576664Y132499D01*
X1577997D01*
X1578663Y131832D01*
Y129166D01*
X1577997Y128500D01*
X1576664D01*
X1575997Y129166D01*
X1572665Y128500D02*
Y132499D01*
X1574664Y130499D01*
X1571999D01*
X1570666Y129166D02*
X1569999Y128500D01*
X1568666D01*
X1568000Y129166D01*
Y131832D01*
X1568666Y132499D01*
X1569999D01*
X1570666Y131832D01*
Y131166D01*
X1569999Y130499D01*
X1568000D01*
X1566667Y128500D02*
Y131166D01*
X1565334Y132499D01*
X1564001Y131166D01*
Y128500D01*
Y130499D01*
X1566667D01*
X1437497Y344832D02*
X1438164Y345499D01*
X1439497D01*
X1440163Y344832D01*
Y342166D01*
X1439497Y341500D01*
X1438164D01*
X1437497Y342166D01*
X1434165Y341500D02*
Y345499D01*
X1436164Y343499D01*
X1433499D01*
X1432166Y344832D02*
X1431499Y345499D01*
X1430167D01*
X1429500Y344832D01*
Y344166D01*
X1430167Y343499D01*
X1429500Y342833D01*
Y342166D01*
X1430167Y341500D01*
X1431499D01*
X1432166Y342166D01*
Y342833D01*
X1431499Y343499D01*
X1432166Y344166D01*
Y344832D01*
X1431499Y343499D02*
X1430167D01*
X1428167Y345499D02*
Y341500D01*
Y343499D01*
X1425501D01*
Y345499D01*
Y341500D01*
X1528497Y344832D02*
X1529164Y345499D01*
X1530497D01*
X1531163Y344832D01*
Y342166D01*
X1530497Y341500D01*
X1529164D01*
X1528497Y342166D01*
X1525165Y341500D02*
Y345499D01*
X1527164Y343499D01*
X1524499D01*
X1523166Y344832D02*
X1522499Y345499D01*
X1521167D01*
X1520500Y344832D01*
Y344166D01*
X1521167Y343499D01*
X1520500Y342833D01*
Y342166D01*
X1521167Y341500D01*
X1522499D01*
X1523166Y342166D01*
Y342833D01*
X1522499Y343499D01*
X1523166Y344166D01*
Y344832D01*
X1522499Y343499D02*
X1521167D01*
X1516501Y344832D02*
X1517168Y345499D01*
X1518501D01*
X1519167Y344832D01*
Y342166D01*
X1518501Y341500D01*
X1517168D01*
X1516501Y342166D01*
Y343499D01*
X1517834D01*
X1437497Y287332D02*
X1438164Y287999D01*
X1439497D01*
X1440163Y287332D01*
Y284666D01*
X1439497Y284000D01*
X1438164D01*
X1437497Y284666D01*
X1434165Y284000D02*
Y287999D01*
X1436164Y285999D01*
X1433499D01*
X1432166Y287332D02*
X1431499Y287999D01*
X1430167D01*
X1429500Y287332D01*
Y286666D01*
X1430167Y285999D01*
X1429500Y285333D01*
Y284666D01*
X1430167Y284000D01*
X1431499D01*
X1432166Y284666D01*
Y285333D01*
X1431499Y285999D01*
X1432166Y286666D01*
Y287332D01*
X1431499Y285999D02*
X1430167D01*
X1425501Y287999D02*
X1428167D01*
Y285999D01*
X1426834D01*
X1428167D01*
Y284000D01*
X1528497Y287332D02*
X1529164Y287999D01*
X1530497D01*
X1531163Y287332D01*
Y284666D01*
X1530497Y284000D01*
X1529164D01*
X1528497Y284666D01*
X1525165Y284000D02*
Y287999D01*
X1527164Y285999D01*
X1524499D01*
X1523166Y287332D02*
X1522499Y287999D01*
X1521167D01*
X1520500Y287332D01*
Y286666D01*
X1521167Y285999D01*
X1520500Y285333D01*
Y284666D01*
X1521167Y284000D01*
X1522499D01*
X1523166Y284666D01*
Y285333D01*
X1522499Y285999D01*
X1523166Y286666D01*
Y287332D01*
X1522499Y285999D02*
X1521167D01*
X1516501Y287999D02*
X1519167D01*
Y284000D01*
X1516501D01*
X1519167Y285999D02*
X1517834D01*
X1437497Y229832D02*
X1438164Y230499D01*
X1439497D01*
X1440163Y229832D01*
Y227166D01*
X1439497Y226500D01*
X1438164D01*
X1437497Y227166D01*
X1434165Y226500D02*
Y230499D01*
X1436164Y228499D01*
X1433499D01*
X1432166Y229832D02*
X1431499Y230499D01*
X1430167D01*
X1429500Y229832D01*
Y229166D01*
X1430167Y228499D01*
X1429500Y227833D01*
Y227166D01*
X1430167Y226500D01*
X1431499D01*
X1432166Y227166D01*
Y227833D01*
X1431499Y228499D01*
X1432166Y229166D01*
Y229832D01*
X1431499Y228499D02*
X1430167D01*
X1428167Y230499D02*
Y226500D01*
X1426168D01*
X1425501Y227166D01*
Y229832D01*
X1426168Y230499D01*
X1428167D01*
X1528497Y229832D02*
X1529164Y230499D01*
X1530497D01*
X1531163Y229832D01*
Y227166D01*
X1530497Y226500D01*
X1529164D01*
X1528497Y227166D01*
X1525165Y226500D02*
Y230499D01*
X1527164Y228499D01*
X1524499D01*
X1523166Y229832D02*
X1522499Y230499D01*
X1521167D01*
X1520500Y229832D01*
Y229166D01*
X1521167Y228499D01*
X1520500Y227833D01*
Y227166D01*
X1521167Y226500D01*
X1522499D01*
X1523166Y227166D01*
Y227833D01*
X1522499Y228499D01*
X1523166Y229166D01*
Y229832D01*
X1522499Y228499D02*
X1521167D01*
X1516501Y229832D02*
X1517168Y230499D01*
X1518501D01*
X1519167Y229832D01*
Y227166D01*
X1518501Y226500D01*
X1517168D01*
X1516501Y227166D01*
X1437497Y172332D02*
X1438164Y172999D01*
X1439497D01*
X1440163Y172332D01*
Y169667D01*
X1439497Y169000D01*
X1438164D01*
X1437497Y169667D01*
X1434165Y169000D02*
Y172999D01*
X1436164Y170999D01*
X1433499D01*
X1432166Y172332D02*
X1431499Y172999D01*
X1430167D01*
X1429500Y172332D01*
Y171666D01*
X1430167Y170999D01*
X1429500Y170333D01*
Y169667D01*
X1430167Y169000D01*
X1431499D01*
X1432166Y169667D01*
Y170333D01*
X1431499Y170999D01*
X1432166Y171666D01*
Y172332D01*
X1431499Y170999D02*
X1430167D01*
X1428167Y172999D02*
Y169000D01*
X1426168D01*
X1425501Y169667D01*
Y170333D01*
X1426168Y170999D01*
X1428167D01*
X1426168D01*
X1425501Y171666D01*
Y172332D01*
X1426168Y172999D01*
X1428167D01*
X1528497Y172332D02*
X1529164Y172999D01*
X1530497D01*
X1531163Y172332D01*
Y169667D01*
X1530497Y169000D01*
X1529164D01*
X1528497Y169667D01*
X1525165Y169000D02*
Y172999D01*
X1527164Y170999D01*
X1524499D01*
X1523166Y172332D02*
X1522499Y172999D01*
X1521167D01*
X1520500Y172332D01*
Y171666D01*
X1521167Y170999D01*
X1520500Y170333D01*
Y169667D01*
X1521167Y169000D01*
X1522499D01*
X1523166Y169667D01*
Y170333D01*
X1522499Y170999D01*
X1523166Y171666D01*
Y172332D01*
X1522499Y170999D02*
X1521167D01*
X1519167Y169000D02*
Y171666D01*
X1517834Y172999D01*
X1516501Y171666D01*
Y169000D01*
Y170999D01*
X1519167D01*
X1436497Y294832D02*
X1437164Y295499D01*
X1438497D01*
X1439163Y294832D01*
Y292166D01*
X1438497Y291500D01*
X1437164D01*
X1436497Y292166D01*
X1433165Y291500D02*
Y295499D01*
X1435165Y293499D01*
X1432499D01*
X1431166Y295499D02*
X1428500D01*
Y294832D01*
X1431166Y292166D01*
Y291500D01*
X1427167Y295499D02*
Y291500D01*
Y293499D01*
X1424501D01*
Y295499D01*
Y291500D01*
X1527497Y294832D02*
X1528164Y295499D01*
X1529497D01*
X1530163Y294832D01*
Y292166D01*
X1529497Y291500D01*
X1528164D01*
X1527497Y292166D01*
X1524165Y291500D02*
Y295499D01*
X1526165Y293499D01*
X1523499D01*
X1522166Y295499D02*
X1519500D01*
Y294832D01*
X1522166Y292166D01*
Y291500D01*
X1515501Y294832D02*
X1516168Y295499D01*
X1517501D01*
X1518167Y294832D01*
Y292166D01*
X1517501Y291500D01*
X1516168D01*
X1515501Y292166D01*
Y293499D01*
X1516834D01*
X1436497Y237332D02*
X1437164Y237999D01*
X1438497D01*
X1439163Y237332D01*
Y234666D01*
X1438497Y234000D01*
X1437164D01*
X1436497Y234666D01*
X1433165Y234000D02*
Y237999D01*
X1435165Y235999D01*
X1432499D01*
X1431166Y237999D02*
X1428500D01*
Y237332D01*
X1431166Y234666D01*
Y234000D01*
X1424501Y237999D02*
X1427167D01*
Y235999D01*
X1425834D01*
X1427167D01*
Y234000D01*
X1527497Y237332D02*
X1528164Y237999D01*
X1529497D01*
X1530163Y237332D01*
Y234666D01*
X1529497Y234000D01*
X1528164D01*
X1527497Y234666D01*
X1524165Y234000D02*
Y237999D01*
X1526165Y235999D01*
X1523499D01*
X1522166Y237999D02*
X1519500D01*
Y237332D01*
X1522166Y234666D01*
Y234000D01*
X1515501Y237999D02*
X1518167D01*
Y234000D01*
X1515501D01*
X1518167Y235999D02*
X1516834D01*
X1436497Y179832D02*
X1437164Y180499D01*
X1438497D01*
X1439163Y179832D01*
Y177166D01*
X1438497Y176500D01*
X1437164D01*
X1436497Y177166D01*
X1433165Y176500D02*
Y180499D01*
X1435165Y178499D01*
X1432499D01*
X1431166Y180499D02*
X1428500D01*
Y179832D01*
X1431166Y177166D01*
Y176500D01*
X1427167Y180499D02*
Y176500D01*
X1425168D01*
X1424501Y177166D01*
Y179832D01*
X1425168Y180499D01*
X1427167D01*
X1527497Y179832D02*
X1528164Y180499D01*
X1529497D01*
X1530163Y179832D01*
Y177166D01*
X1529497Y176500D01*
X1528164D01*
X1527497Y177166D01*
X1524165Y176500D02*
Y180499D01*
X1526165Y178499D01*
X1523499D01*
X1522166Y180499D02*
X1519500D01*
Y179832D01*
X1522166Y177166D01*
Y176500D01*
X1515501Y179832D02*
X1516168Y180499D01*
X1517501D01*
X1518167Y179832D01*
Y177166D01*
X1517501Y176500D01*
X1516168D01*
X1515501Y177166D01*
X1436497Y122332D02*
X1437164Y122999D01*
X1438497D01*
X1439163Y122332D01*
Y119667D01*
X1438497Y119000D01*
X1437164D01*
X1436497Y119667D01*
X1433165Y119000D02*
Y122999D01*
X1435165Y120999D01*
X1432499D01*
X1431166Y122999D02*
X1428500D01*
Y122332D01*
X1431166Y119667D01*
Y119000D01*
X1427167Y122999D02*
Y119000D01*
X1425168D01*
X1424501Y119667D01*
Y120333D01*
X1425168Y120999D01*
X1427167D01*
X1425168D01*
X1424501Y121666D01*
Y122332D01*
X1425168Y122999D01*
X1427167D01*
X1527497Y122332D02*
X1528164Y122999D01*
X1529497D01*
X1530163Y122332D01*
Y119667D01*
X1529497Y119000D01*
X1528164D01*
X1527497Y119667D01*
X1524165Y119000D02*
Y122999D01*
X1526165Y120999D01*
X1523499D01*
X1522166Y122999D02*
X1519500D01*
Y122332D01*
X1522166Y119667D01*
Y119000D01*
X1518167D02*
Y121666D01*
X1516834Y122999D01*
X1515501Y121666D01*
Y119000D01*
Y120999D01*
X1518167D01*
D11*
X1268500Y122000D02*
G03*
X1268500Y122000I-1000J0D01*
G01*
X1224000D02*
G03*
X1224000Y122000I-1000J0D01*
G01*
D12*
X71109Y153362D02*
G03*
X71109Y153362I-492J0D01*
G01*
X184916D02*
G03*
X184916Y153362I-492J0D01*
G01*
X299183D02*
G03*
X299183Y153362I-492J0D01*
G01*
X413530D02*
G03*
X413530Y153362I-492J0D01*
G01*
X527491D02*
G03*
X527491Y153362I-492J0D01*
G01*
X641644D02*
G03*
X641644Y153362I-492J0D01*
G01*
X6609Y153209D02*
G03*
X6609Y153209I-492J0D01*
G01*
X120416D02*
G03*
X120416Y153209I-492J0D01*
G01*
X234683D02*
G03*
X234683Y153209I-492J0D01*
G01*
X348837D02*
G03*
X348837Y153209I-492J0D01*
G01*
X462991D02*
G03*
X462991Y153209I-492J0D01*
G01*
X577144D02*
G03*
X577144Y153209I-492J0D01*
G01*
X1436884Y310602D02*
G03*
X1436884Y310602I-492J0D01*
G01*
Y253102D02*
G03*
X1436884Y253102I-492J0D01*
G01*
Y195602D02*
G03*
X1436884Y195602I-492J0D01*
G01*
Y138102D02*
G03*
X1436884Y138102I-492J0D01*
G01*
X1527884Y310602D02*
G03*
X1527884Y310602I-492J0D01*
G01*
Y253102D02*
G03*
X1527884Y253102I-492J0D01*
G01*
Y195602D02*
G03*
X1527884Y195602I-492J0D01*
G01*
Y138102D02*
G03*
X1527884Y138102I-492J0D01*
G01*
X1638339Y238102D02*
G03*
X1638339Y238102I-492J0D01*
G01*
Y137102D02*
G03*
X1638339Y137102I-492J0D01*
G01*
X1697339Y238102D02*
G03*
X1697339Y238102I-492J0D01*
G01*
Y137102D02*
G03*
X1697339Y137102I-492J0D01*
G01*
X1638567Y287118D02*
G03*
X1638567Y287118I-492J0D01*
G01*
Y186118D02*
G03*
X1638567Y186118I-492J0D01*
G01*
X932543Y372165D02*
G03*
X932543Y372165I-492J0D01*
G01*
X1157161Y130024D02*
G03*
X1157161Y130024I-492J0D01*
G01*
D16*
X829409Y71879D02*
G03*
X829409Y71879I-394J0D01*
G01*
X1449351Y310996D02*
G03*
X1445283Y310996I-2034J0D01*
G01*
X1449351Y253496D02*
G03*
X1445283Y253496I-2034J0D01*
G01*
X1449351Y195995D02*
G03*
X1445283Y195995I-2034J0D01*
G01*
X1449351Y138496D02*
G03*
X1445283Y138496I-2034J0D01*
G01*
X1540351Y310996D02*
G03*
X1536283Y310996I-2034J0D01*
G01*
X1540351Y253496D02*
G03*
X1536283Y253496I-2034J0D01*
G01*
X1540351Y195995D02*
G03*
X1536283Y195995I-2034J0D01*
G01*
X1540351Y138496D02*
G03*
X1536283Y138496I-2034J0D01*
G01*
X1651034Y287512D02*
G03*
X1646966Y287512I-2034J0D01*
G01*
X1651034Y186512D02*
G03*
X1646966Y186512I-2034J0D01*
G01*
X1157752Y116900D02*
G03*
X1157752Y121100I0J2100D01*
G01*
X390094Y194800D02*
X414794D01*
Y167300D02*
Y194800D01*
X390094Y167300D02*
Y194800D01*
Y167300D02*
X414794D01*
X161594Y168060D02*
X186294D01*
X161594D02*
Y195560D01*
X186294Y168060D02*
Y195560D01*
X161594D02*
X186294D01*
X71778Y147457D02*
X111148D01*
X71778Y123362D02*
X111148D01*
X71778D02*
Y147457D01*
X111148Y123362D02*
Y147457D01*
X185585D02*
X224955D01*
X185585Y123362D02*
X224955D01*
X185585D02*
Y147457D01*
X224955Y123362D02*
Y147457D01*
X299853D02*
X339223D01*
X299853Y123362D02*
X339223D01*
X299853D02*
Y147457D01*
X339223Y123362D02*
Y147457D01*
X414199D02*
X453569D01*
X414199Y123362D02*
X453569D01*
X414199D02*
Y147457D01*
X453569Y123362D02*
Y147457D01*
X528160D02*
X567530D01*
X528160Y123362D02*
X567530D01*
X528160D02*
Y147457D01*
X567530Y123362D02*
Y147457D01*
X642313D02*
X681683D01*
X642313Y123362D02*
X681683D01*
X642313D02*
Y147457D01*
X681683Y123362D02*
Y147457D01*
X7278Y147303D02*
X46648D01*
X7278Y123209D02*
X46648D01*
X7278D02*
Y147303D01*
X46648Y123209D02*
Y147303D01*
X121085D02*
X160455D01*
X121085Y123209D02*
X160455D01*
X121085D02*
Y147303D01*
X160455Y123209D02*
Y147303D01*
X235353D02*
X274723D01*
X235353Y123209D02*
X274723D01*
X235353D02*
Y147303D01*
X274723Y123209D02*
Y147303D01*
X349506D02*
X388876D01*
X349506Y123209D02*
X388876D01*
X349506D02*
Y147303D01*
X388876Y123209D02*
Y147303D01*
X463660D02*
X503030D01*
X463660Y123209D02*
X503030D01*
X463660D02*
Y147303D01*
X503030Y123209D02*
Y147303D01*
X577813D02*
X617183D01*
X577813Y123209D02*
X617183D01*
X577813D02*
Y147303D01*
X617183Y123209D02*
Y147303D01*
X45272Y168060D02*
X69972D01*
X45272D02*
Y195560D01*
X69972Y168060D02*
Y195560D01*
X45272D02*
X69972D01*
X274476Y168060D02*
X299176D01*
X274476D02*
Y195560D01*
X299176Y168060D02*
Y195560D01*
X274476D02*
X299176D01*
X501002Y168060D02*
X525702D01*
X501002D02*
Y195560D01*
X525702Y168060D02*
Y195560D01*
X501002D02*
X525702D01*
X620824Y161800D02*
X645524D01*
X620824D02*
Y189300D01*
X645524Y161800D02*
Y189300D01*
X620824D02*
X645524D01*
X1441214Y310996D02*
X1445283D01*
X1449351D02*
X1453419D01*
X1441214Y331074D02*
X1453419D01*
X1441214Y310996D02*
Y331074D01*
X1453419Y310996D02*
Y331074D01*
X1441214Y253496D02*
X1445283D01*
X1449351D02*
X1453419D01*
X1441214Y273574D02*
X1453419D01*
X1441214Y253496D02*
Y273574D01*
X1453419Y253496D02*
Y273574D01*
X1441214Y195995D02*
X1445283D01*
X1449351D02*
X1453419D01*
X1441214Y216074D02*
X1453419D01*
X1441214Y195995D02*
Y216074D01*
X1453419Y195995D02*
Y216074D01*
X1441214Y138496D02*
X1445283D01*
X1449351D02*
X1453419D01*
X1441214Y158574D02*
X1453419D01*
X1441214Y138496D02*
Y158574D01*
X1453419Y138496D02*
Y158574D01*
X1532214Y310996D02*
X1536283D01*
X1540351D02*
X1544419D01*
X1532214Y331074D02*
X1544419D01*
X1532214Y310996D02*
Y331074D01*
X1544419Y310996D02*
Y331074D01*
X1532214Y253496D02*
X1536283D01*
X1540351D02*
X1544419D01*
X1532214Y273574D02*
X1544419D01*
X1532214Y253496D02*
Y273574D01*
X1544419Y253496D02*
Y273574D01*
X1532214Y195995D02*
X1536283D01*
X1540351D02*
X1544419D01*
X1532214Y216074D02*
X1544419D01*
X1532214Y195995D02*
Y216074D01*
X1544419Y195995D02*
Y216074D01*
X1532214Y138496D02*
X1536283D01*
X1540351D02*
X1544419D01*
X1532214Y158574D02*
X1544419D01*
X1532214Y138496D02*
Y158574D01*
X1544419Y138496D02*
Y158574D01*
X1602177Y244008D02*
X1636823D01*
X1602177Y251095D02*
X1636823D01*
Y244008D02*
Y251095D01*
X1602177Y244008D02*
Y251095D01*
Y143008D02*
X1636823D01*
X1602177Y150094D02*
X1636823D01*
Y143008D02*
Y150094D01*
X1602177Y143008D02*
Y150094D01*
X1661177Y244008D02*
X1695823D01*
X1661177Y251095D02*
X1695823D01*
Y244008D02*
Y251095D01*
X1661177Y244008D02*
Y251095D01*
Y143008D02*
X1695823D01*
X1661177Y150094D02*
X1695823D01*
Y143008D02*
Y150094D01*
X1661177Y143008D02*
Y150094D01*
X1642898Y287512D02*
X1646966D01*
X1651034D02*
X1655102D01*
X1642898Y307591D02*
X1655102D01*
X1642898Y287512D02*
Y307591D01*
X1655102Y287512D02*
Y307591D01*
X1642898Y186512D02*
X1646966D01*
X1651034D02*
X1655102D01*
X1642898Y206591D02*
X1655102D01*
X1642898Y186512D02*
Y206591D01*
X1655102Y186512D02*
Y206591D01*
X927721Y362323D02*
Y370984D01*
X928902Y362323D02*
Y370984D01*
X927721Y362323D02*
X928902D01*
X927721Y370984D02*
X928902D01*
X1157752Y121100D02*
Y125299D01*
Y112701D02*
Y116900D01*
X1189248Y112701D02*
Y125299D01*
X1157752D02*
X1189248D01*
X1157752Y112701D02*
X1189248D01*
D17*
X1672000Y188000D02*
Y191000D01*
Y289000D02*
Y292000D01*
Y202000D02*
Y205000D01*
Y303000D02*
Y306000D01*
X1626000Y202000D02*
Y205000D01*
Y303000D02*
Y306000D01*
Y188000D02*
Y191000D01*
Y289000D02*
Y292000D01*
X827500Y100500D02*
X830500D01*
X841500Y70000D02*
Y73000D01*
Y77500D02*
Y80500D01*
X499900Y490000D02*
X502900D01*
X534185Y489653D02*
X537185D01*
X1472317Y319000D02*
Y322000D01*
X1563317Y319000D02*
Y322000D01*
X1472317Y261500D02*
Y264500D01*
X1563317Y261500D02*
Y264500D01*
X1472317Y204000D02*
Y207000D01*
X1563317Y204000D02*
Y207000D01*
X1472317Y146500D02*
Y149500D01*
X1563317Y146500D02*
Y149500D01*
X1472317Y312000D02*
Y315000D01*
X1563317Y312000D02*
Y315000D01*
X1472317Y254500D02*
Y257500D01*
X1563317Y254500D02*
Y257500D01*
X1472317Y197000D02*
Y200000D01*
X1563317Y197000D02*
Y200000D01*
X1472317Y139500D02*
Y142500D01*
X1563317Y139500D02*
Y142500D01*
X1460163Y303000D02*
X1463163D01*
X1551163D02*
X1554163D01*
X1460163Y245500D02*
X1463163D01*
X1551163D02*
X1554163D01*
X1460163Y188000D02*
X1463163D01*
X1551163D02*
X1554163D01*
X1460163Y130500D02*
X1463163D01*
X1551163D02*
X1554163D01*
X1447317Y298000D02*
Y301000D01*
X1538317Y298000D02*
Y301000D01*
X1447317Y240500D02*
Y243500D01*
X1538317Y240500D02*
Y243500D01*
X1447317Y183000D02*
Y186000D01*
X1538317Y183000D02*
Y186000D01*
X1447317Y125500D02*
Y128500D01*
X1538317Y125500D02*
Y128500D01*
X1447317Y335500D02*
Y338500D01*
X1538317Y335500D02*
Y338500D01*
X1447317Y278000D02*
Y281000D01*
X1538317Y278000D02*
Y281000D01*
X1447317Y220500D02*
Y223500D01*
X1538317Y220500D02*
Y223500D01*
X1447317Y163000D02*
Y166000D01*
X1538317Y163000D02*
Y166000D01*
X1423163Y303000D02*
X1426163D01*
X1514163D02*
X1517163D01*
X1423163Y245500D02*
X1426163D01*
X1514163D02*
X1517163D01*
X1423163Y188000D02*
X1426163D01*
X1514163D02*
X1517163D01*
X1423163Y130500D02*
X1426163D01*
X1514163D02*
X1517163D01*
X1421317Y319000D02*
Y322000D01*
X1512317Y319000D02*
Y322000D01*
X1421317Y261500D02*
Y264500D01*
X1512317Y261500D02*
Y264500D01*
X1421317Y204000D02*
Y207000D01*
X1512317Y204000D02*
Y207000D01*
X1421317Y146500D02*
Y149500D01*
X1512317Y146500D02*
Y149500D01*
X1421317Y312000D02*
Y315000D01*
X1512317Y312000D02*
Y315000D01*
X1421317Y254500D02*
Y257500D01*
X1512317Y254500D02*
Y257500D01*
X1421317Y197000D02*
Y200000D01*
X1512317Y197000D02*
Y200000D01*
X1421317Y139500D02*
Y142500D01*
X1512317Y139500D02*
Y142500D01*
X1472317Y326000D02*
Y329000D01*
X1563317Y326000D02*
Y329000D01*
X1472317Y268500D02*
Y271500D01*
X1563317Y268500D02*
Y271500D01*
X1472317Y211000D02*
Y214000D01*
X1563317Y211000D02*
Y214000D01*
X1472317Y153500D02*
Y156500D01*
X1563317Y153500D02*
Y156500D01*
X1421317Y326000D02*
Y329000D01*
X1512317Y326000D02*
Y329000D01*
X1421317Y268500D02*
Y271500D01*
X1512317Y268500D02*
Y271500D01*
X1421317Y211000D02*
Y214000D01*
X1512317Y211000D02*
Y214000D01*
X1421317Y153500D02*
Y156500D01*
X1512317Y153500D02*
Y156500D01*
X1672000Y195000D02*
Y198000D01*
Y296000D02*
Y299000D01*
X1626000Y195000D02*
Y198000D01*
Y296000D02*
Y299000D01*
X1672000Y181000D02*
Y184000D01*
Y282000D02*
Y285000D01*
Y209000D02*
Y212000D01*
Y310000D02*
Y313000D01*
X1677000Y124500D02*
X1680000D01*
X1677000Y225500D02*
X1680000D01*
X1677000Y168347D02*
X1680000D01*
X1677000Y269346D02*
X1680000D01*
X1626000Y209000D02*
Y212000D01*
Y310000D02*
Y313000D01*
Y181000D02*
Y184000D01*
Y282000D02*
Y285000D01*
X1618000Y124000D02*
X1621000D01*
X1618000Y225000D02*
X1621000D01*
X1618000Y168500D02*
X1621000D01*
X1618000Y269500D02*
X1621000D01*
X820500Y100500D02*
X823500D01*
X793500Y79500D02*
X796500D01*
X801000D02*
X804000D01*
X990288Y352153D02*
X993288D01*
X296641Y268500D02*
X299641D01*
X963488Y352153D02*
X966488D01*
X269841Y268500D02*
X272841D01*
X315200Y268000D02*
X318200D01*
X342000D02*
X345000D01*
X875102Y352500D02*
X878102D01*
X359697Y268653D02*
X362697D01*
X901902Y352500D02*
X904902D01*
X386500Y268653D02*
X389500D01*
X77500Y104630D02*
X80500D01*
X191270D02*
X194270D01*
X305500D02*
X308500D01*
X419884D02*
X422884D01*
X533826D02*
X536826D01*
X647998D02*
X650998D01*
X7500D02*
X10500D01*
X126770D02*
X129770D01*
X241038D02*
X244038D01*
X355191D02*
X358191D01*
X469345D02*
X472345D01*
X583498D02*
X586498D01*
X72331D02*
X75331D01*
X186270D02*
X189270D01*
X300538D02*
X303538D01*
X414884D02*
X417884D01*
X528326D02*
X531326D01*
X642998D02*
X645998D01*
X12500D02*
X15500D01*
X121770D02*
X124770D01*
X236038D02*
X239038D01*
X350191D02*
X353191D01*
X464345D02*
X467345D01*
X578498D02*
X581498D01*
X67500D02*
X70500D01*
X181567D02*
X184567D01*
X295500D02*
X298500D01*
X410067D02*
X413067D01*
X522826D02*
X525826D01*
X638331D02*
X641331D01*
X2500D02*
X5500D01*
X116902D02*
X119902D01*
X231038D02*
X234038D01*
X345500D02*
X348500D01*
X459500D02*
X462500D01*
X573331D02*
X576331D01*
X38963Y183760D02*
Y186760D01*
X152770Y183760D02*
Y186760D01*
X267077Y183760D02*
Y186760D01*
X381384Y183760D02*
Y186760D01*
X495191Y183760D02*
Y186760D01*
X612498Y178996D02*
Y181996D01*
X38963Y176760D02*
Y179760D01*
X152770Y176760D02*
Y179760D01*
X267077Y176760D02*
Y179760D01*
X381384Y176760D02*
Y179760D01*
X495191Y176760D02*
Y179760D01*
X612498Y171996D02*
Y174996D01*
X921311Y375654D02*
Y378654D01*
X935311Y375654D02*
Y378654D01*
X1250500Y125500D02*
X1253500D01*
X1258500Y112500D02*
X1261500D01*
X1258500Y125500D02*
X1261500D01*
X1250500Y112000D02*
X1253500D01*
X1207000Y126000D02*
X1210000D01*
X1207000Y112500D02*
X1210000D01*
X1214000Y126000D02*
X1217000D01*
X1214000Y112500D02*
X1217000D01*
X1142500Y127000D02*
X1145500D01*
X1142500Y111000D02*
X1145500D01*
X1150000Y127000D02*
X1153000D01*
X1150000Y111000D02*
X1153000D01*
X736000Y66543D02*
X739000D01*
X724000D02*
X727000D01*
X700000D02*
X703000D01*
X688000D02*
X691000D01*
X507900Y490000D02*
X510900D01*
X1467470Y303000D02*
X1470470D01*
X1558470D02*
X1561470D01*
X1467470Y245500D02*
X1470470D01*
X1558470D02*
X1561470D01*
X1467470Y188000D02*
X1470470D01*
X1558470D02*
X1561470D01*
X1467470Y130500D02*
X1470470D01*
X1558470D02*
X1561470D01*
X1447317Y342000D02*
Y345000D01*
X1538317Y342000D02*
Y345000D01*
X1447317Y284500D02*
Y287500D01*
X1538317Y284500D02*
Y287500D01*
X1447317Y227000D02*
Y230000D01*
X1538317Y227000D02*
Y230000D01*
X1447317Y169500D02*
Y172500D01*
X1538317Y169500D02*
Y172500D01*
X1430163Y303000D02*
X1433163D01*
X1521163D02*
X1524163D01*
X1430163Y245500D02*
X1433163D01*
X1521163D02*
X1524163D01*
X1430163Y188000D02*
X1433163D01*
X1521163D02*
X1524163D01*
X1430163Y130500D02*
X1433163D01*
X1521163D02*
X1524163D01*
D163*
X387885Y191800D02*
G03*
X387885Y191800I-591J0D01*
G01*
X159385Y192560D02*
G03*
X159385Y192560I-591J0D01*
G01*
X43062D02*
G03*
X43062Y192560I-591J0D01*
G01*
X272267D02*
G03*
X272267Y192560I-591J0D01*
G01*
X498793D02*
G03*
X498793Y192560I-591J0D01*
G01*
X618615Y186300D02*
G03*
X618615Y186300I-591J0D01*
G01*
D164*
X816015Y84890D02*
X827826D01*
X816015Y73079D02*
Y84890D01*
Y73079D02*
X827826D01*
Y84890D01*
M02*
