M48
;Layer_Color=9474304
;FILE_FORMAT=2:5
INCH,LZ
;TYPE=PLATED
T1F00S00C0.01500
T2F00S00C0.02800
T3F00S00C0.03500
T4F00S00C0.03543
T5F00S00C0.03600
T7F00S00C0.04331
T8F00S00C0.05000
T9F00S00C0.05118
T10F00S00C0.05512
T11F00S00C0.06200
T12F00S00C0.06299
T13F00S00C0.06400
T14F00S00C0.10500
T15F00S00C0.12598
T16F00S00C0.15000
;TYPE=NON_PLATED
T17F00S00C0.12800
%
T01
X0973094Y0110158
X0979Y010875
X0984906Y0110158
X0988842Y0114094
X099025Y012
X0988842Y0125906
X0984906Y0129842
X0979Y013125
X0973094Y0129842
X0969158Y0125906
X096775Y012
X0969158Y0114094
X0698842Y0194095
X070025Y02
X0698842Y0205906
X0694906Y0209842
X0689Y021125
X0683095Y0209842
X0679157Y0205906
X067775Y02
X0679157Y0194095
X0683095Y0190157
X0689Y018875
X0694906Y0190157
Y0440158
X0689Y043875
X0683095Y0440158
X0679157Y0444095
X067775Y045
X0679157Y0455905
X0683095Y0459842
X0689Y046125
X0694906Y0459842
X0698842Y0455905
X070025Y045
X0698842Y0444095
Y0694095
X070025Y07
X0698842Y0705905
X0694906Y0709842
X0689Y071125
X0683095Y0709842
X0679157Y0705905
X067775Y07
X0679157Y0694095
X0683095Y0690158
X0689Y068875
X0694906Y0690158
X0969158Y0694095
X096775Y07
X0969158Y0705905
X0973094Y0709842
X0979Y071125
X0984906Y0709842
X0988842Y0705905
X099025Y07
X0988842Y0694095
X0984906Y0690158
X0979Y068875
X0973094Y0690158
T02
X09305Y01245
X0927609Y0231691
X07889Y02629
X07995Y0285748
X0763Y0275
X07756Y02304
X07575Y02225
X0757Y017
X07501Y0351
X0772
X07622Y0393
X07853Y03812
X0798Y04215
X0927Y0409
Y0587
X0799Y0552
X07841Y05187
X0784Y04806
X07698Y04828
X07601Y05319
X0845858Y06445
T03
X0688Y0080094
X0698
X06975Y0096094
X07075
X07175
X07275
X07325Y0106094
X07225
X07125
X07025
X07075Y0120594
X07175
X07275
X07325Y0130594
X07225
X07125
X07025
X06975Y0120594
X0698Y0146094
X0688
X0732
X0742
Y0080094
X0732
T04
X0813992Y0076094
X0822968
X0831945
X0840921
X0849898
X0845409Y0086094
X0836433
X0827457
X081848
X0822968Y0096094
X0831945
X0840921
X0849819Y0095937
X0854386Y0086094
X0813992Y0096094
T05
X0935Y00703
Y009
X0834031Y06808
Y07005
T07
X0717677Y0269823
X0714677Y0402677
X0718Y054
T08
X0900189Y0229693
Y0243079
X0910189Y0249772
Y0236386
Y0223
X07415Y03125
X07315Y04475
X08575
X0900189Y0421193
Y0407807
X0910189Y04145
Y0427886
Y0401114
X08675Y03125
X08575Y05825
X0900189Y0584921
Y0598307
X0910189Y0605
Y0591614
Y0578228
X07315Y05825
T09
X0910157Y0709
X0929842
T10
X0705354Y02575
Y0282146
X073
Y02575
X0727Y0390354
Y0415
X0702354
Y0390354
X0705677Y0527677
X0730323
Y0552323
X0705677
T11
X0683Y0124594
X0747
T12
X08068Y01186
X08322Y01189
X0857Y01187
X0997Y0143
X0784Y0281
X0745Y0224
X0729Y02065
X0723Y0351
X0775Y0412
X0676Y0423
X0994Y0327
X0995Y0507
X078Y0539
X0723Y0487
X0715Y069
T13
X0683Y0091594
X0747
T14
X0927189Y0187
Y0287
Y03645
Y04645
Y0542
Y0642
T15
X0783677Y0086094
X0882063
T16
X0979Y012
X0689Y02
Y045
Y07
X0979
T17
X069Y0063594
X074
M30
