G04*
G04 #@! TF.GenerationSoftware,Altium Limited,Altium Designer,22.2.1 (43)*
G04*
G04 Layer_Color=16711935*
%FSLAX25Y25*%
%MOIN*%
G70*
G04*
G04 #@! TF.SameCoordinates,B7F5EF95-5692-4611-82A2-9B7BC1A05186*
G04*
G04*
G04 #@! TF.FilePolarity,Positive*
G04*
G01*
G75*
%ADD11C,0.01181*%
%ADD13C,0.02000*%
%ADD14C,0.00787*%
%ADD15C,0.01102*%
%ADD17C,0.00500*%
%ADD71C,0.00000*%
%ADD72C,0.00100*%
%ADD73C,0.00394*%
D11*
X753590Y664504D02*
G03*
X753590Y664504I-591J0D01*
G01*
D13*
X699000Y88594D02*
G03*
X699000Y88594I-1500J0D01*
G01*
D14*
X776968Y524905D02*
G03*
X776968Y524905I-394J0D01*
G01*
X778968Y387405D02*
G03*
X778968Y387405I-394J0D01*
G01*
X782469Y268905D02*
G03*
X782469Y268905I-394J0D01*
G01*
X796152Y274658D02*
X865837D01*
X796152Y206942D02*
Y274658D01*
Y206942D02*
X865837D01*
Y274658D01*
X863342Y346142D02*
Y413858D01*
X793657Y346142D02*
X863342D01*
X793657D02*
Y413858D01*
X863342D01*
X863937Y481142D02*
Y548858D01*
X794252Y481142D02*
X863937D01*
X794252D02*
Y548858D01*
X863937D01*
D15*
X935512Y703094D02*
G03*
X935512Y703094I-551J0D01*
G01*
D17*
X735284Y669228D02*
Y726315D01*
X770716Y669228D02*
Y726315D01*
X735284Y669228D02*
X770716D01*
X735284Y726315D02*
X770716D01*
X757844Y501323D02*
X777155D01*
X757844Y516677D02*
X777155D01*
X757844Y501323D02*
Y516677D01*
X777155Y501323D02*
Y516677D01*
X759844Y363823D02*
X779155D01*
X759844Y379177D02*
X779155D01*
X759844Y363823D02*
Y379177D01*
X779155Y363823D02*
Y379177D01*
X782655Y245323D02*
Y260677D01*
X763344Y245323D02*
Y260677D01*
X782655D01*
X763344Y245323D02*
X782655D01*
X900315Y725929D02*
X939685D01*
X900315Y693252D02*
Y725929D01*
Y693252D02*
X939685D01*
Y725929D01*
D71*
X960600Y80150D02*
G03*
X960600Y80150I-25600J0D01*
G01*
X859632Y690650D02*
G03*
X859632Y690650I-25600J0D01*
G01*
X905689Y611364D02*
G03*
X905689Y611364I-800J0D01*
G01*
Y434250D02*
G03*
X905689Y434250I-800J0D01*
G01*
Y256136D02*
G03*
X905689Y256136I-800J0D01*
G01*
D72*
X841250Y447500D02*
X857500D01*
X731500D02*
X747750D01*
Y464000D02*
X841250D01*
X747750Y431000D02*
Y464000D01*
Y431000D02*
X841250D01*
Y464000D01*
X935000Y48550D02*
Y53550D01*
X932500Y51050D02*
X937500D01*
X682500Y42094D02*
Y152894D01*
X747500D01*
Y42094D02*
Y152894D01*
X682500Y42094D02*
X747500D01*
X834031Y659050D02*
Y664050D01*
X831532Y661550D02*
X836532D01*
X917889Y570864D02*
Y612364D01*
X903889Y570864D02*
Y612364D01*
Y570864D02*
X922889D01*
Y612364D01*
X903889D02*
X922889D01*
X917889Y393750D02*
Y435250D01*
X903889Y393750D02*
Y435250D01*
Y393750D02*
X922889D01*
Y435250D01*
X903889D02*
X922889D01*
X903889Y257136D02*
X922889D01*
Y215636D02*
Y257136D01*
X903889Y215636D02*
X922889D01*
X903889D02*
Y257136D01*
X917889Y215636D02*
Y257136D01*
X841250Y566000D02*
Y599000D01*
X747750Y566000D02*
X841250D01*
X747750D02*
Y599000D01*
X841250D01*
X731500Y582500D02*
X747750D01*
X841250D02*
X857500D01*
X851250Y296000D02*
Y329000D01*
X757750Y296000D02*
X851250D01*
X757750D02*
Y329000D01*
X851250D01*
X741500Y312500D02*
X757750D01*
X851250D02*
X867500D01*
X921638Y593489D02*
Y591823D01*
Y592656D01*
X919139D01*
Y590990D02*
X920805D01*
X921638Y590157D01*
X920805Y589324D01*
X919139D01*
X920389D01*
Y590990D01*
X921638Y588491D02*
X919139D01*
Y587241D01*
X919555Y586825D01*
X919972D01*
X920389Y587241D01*
Y588491D01*
Y587241D01*
X920805Y586825D01*
X921222D01*
X921638Y587241D01*
Y588491D01*
Y416375D02*
Y414709D01*
Y415542D01*
X919139D01*
Y413876D02*
X920805D01*
X921638Y413043D01*
X920805Y412210D01*
X919139D01*
X920389D01*
Y413876D01*
X921638Y411377D02*
X919139D01*
Y410127D01*
X919555Y409711D01*
X919972D01*
X920389Y410127D01*
Y411377D01*
Y410127D01*
X920805Y409711D01*
X921222D01*
X921638Y410127D01*
Y411377D01*
Y238261D02*
Y236595D01*
Y237428D01*
X919139D01*
Y235762D02*
X920805D01*
X921638Y234929D01*
X920805Y234096D01*
X919139D01*
X920389D01*
Y235762D01*
X921638Y233262D02*
X919139D01*
Y232013D01*
X919555Y231596D01*
X919972D01*
X920389Y232013D01*
Y233262D01*
Y232013D01*
X920805Y231596D01*
X921222D01*
X921638Y232013D01*
Y233262D01*
D73*
X738311Y167342D02*
Y172658D01*
X746579Y167342D02*
Y172658D01*
X738311D02*
X746579D01*
X738311Y167342D02*
X746579D01*
X726329Y180035D02*
X731841D01*
X726329Y188697D02*
X731841D01*
X726329Y180035D02*
Y188697D01*
X731841Y180035D02*
Y188697D01*
X710996D02*
X716508D01*
X710996Y180035D02*
X716508D01*
Y188697D01*
X710996Y180035D02*
Y188697D01*
X756996Y180035D02*
X762508D01*
X756996Y188697D02*
X762508D01*
X756996Y180035D02*
Y188697D01*
X762508Y180035D02*
Y188697D01*
X741663Y188965D02*
X747175D01*
X741663Y180303D02*
X747175D01*
Y188965D01*
X741663Y180303D02*
Y188965D01*
X922866Y111343D02*
X931134D01*
X922866Y116657D02*
X931134D01*
Y111343D02*
Y116657D01*
X922866Y111343D02*
Y116657D01*
X843242Y659934D02*
X848557D01*
X843242Y651666D02*
X848557D01*
Y659934D01*
X843242Y651666D02*
Y659934D01*
X929842Y602434D02*
X935157D01*
X929842Y594166D02*
X935157D01*
Y602434D01*
X929842Y594166D02*
Y602434D01*
X919343Y602534D02*
X924658D01*
X919343Y594266D02*
X924658D01*
Y602534D01*
X919343Y594266D02*
Y602534D01*
X929642Y247434D02*
X934958D01*
X929642Y239166D02*
X934958D01*
Y247434D01*
X929642Y239166D02*
Y247434D01*
Y425679D02*
X934958D01*
X929642Y417411D02*
X934958D01*
Y425679D01*
X929642Y417411D02*
Y425679D01*
X920043Y247434D02*
X925358D01*
X920043Y239166D02*
X925358D01*
Y247434D01*
X920043Y239166D02*
Y247434D01*
X919143Y425679D02*
X924457D01*
X919143Y417411D02*
X924457D01*
Y425679D01*
X919143Y417411D02*
Y425679D01*
X725756Y500669D02*
Y509331D01*
X720244Y500669D02*
Y509331D01*
X725756D01*
X720244Y500669D02*
X725756D01*
X717756Y363669D02*
Y372331D01*
X712244Y363669D02*
Y372331D01*
X717756D01*
X712244Y363669D02*
X717756D01*
X720756Y233669D02*
Y242331D01*
X715244Y233669D02*
Y242331D01*
X720756D01*
X715244Y233669D02*
X720756D01*
X776066Y486443D02*
X784334D01*
X776066Y491757D02*
X784334D01*
Y486443D02*
Y491757D01*
X776066Y486443D02*
Y491757D01*
X757266Y353658D02*
X765534D01*
X757266Y348342D02*
X765534D01*
X757266D02*
Y353658D01*
X765534Y348342D02*
Y353658D01*
X760366Y233658D02*
X768634D01*
X760366Y228343D02*
X768634D01*
X760366D02*
Y233658D01*
X768634Y228343D02*
Y233658D01*
X742566Y534158D02*
X750834D01*
X742566Y528842D02*
X750834D01*
X742566D02*
Y534158D01*
X750834Y528842D02*
Y534158D01*
X742666Y396058D02*
X750934D01*
X742666Y390742D02*
X750934D01*
X742666D02*
Y396058D01*
X750934Y390742D02*
Y396058D01*
X746866Y277058D02*
X755134D01*
X746866Y271743D02*
X755134D01*
X746866D02*
Y277058D01*
X755134Y271743D02*
Y277058D01*
M02*
