G04 #@! TF.GenerationSoftware,KiCad,Pcbnew,9.0.6*
G04 #@! TF.CreationDate,2026-01-23T12:37:49-06:00*
G04 #@! TF.ProjectId,aei,6165692e-6b69-4636-9164-5f7063625858,rev?*
G04 #@! TF.SameCoordinates,Original*
G04 #@! TF.FileFunction,Copper,L1,Top*
G04 #@! TF.FilePolarity,Positive*
%FSLAX46Y46*%
G04 Gerber Fmt 4.6, Leading zero omitted, Abs format (unit mm)*
G04 Created by KiCad (PCBNEW 9.0.6) date 2026-01-23 12:37:49*
%MOMM*%
%LPD*%
G01*
G04 APERTURE LIST*
G04 Aperture macros list*
%AMRoundRect*
0 Rectangle with rounded corners*
0 $1 Rounding radius*
0 $2 $3 $4 $5 $6 $7 $8 $9 X,Y pos of 4 corners*
0 Add a 4 corners polygon primitive as box body*
4,1,4,$2,$3,$4,$5,$6,$7,$8,$9,$2,$3,0*
0 Add four circle primitives for the rounded corners*
1,1,$1+$1,$2,$3*
1,1,$1+$1,$4,$5*
1,1,$1+$1,$6,$7*
1,1,$1+$1,$8,$9*
0 Add four rect primitives between the rounded corners*
20,1,$1+$1,$2,$3,$4,$5,0*
20,1,$1+$1,$4,$5,$6,$7,0*
20,1,$1+$1,$6,$7,$8,$9,0*
20,1,$1+$1,$8,$9,$2,$3,0*%
G04 Aperture macros list end*
G04 #@! TA.AperFunction,ComponentPad*
%ADD10C,3.600000*%
G04 #@! TD*
G04 #@! TA.AperFunction,ConnectorPad*
%ADD11C,5.600000*%
G04 #@! TD*
G04 #@! TA.AperFunction,ComponentPad*
%ADD12C,2.000000*%
G04 #@! TD*
G04 #@! TA.AperFunction,SMDPad,CuDef*
%ADD13RoundRect,0.237500X-0.300000X-0.237500X0.300000X-0.237500X0.300000X0.237500X-0.300000X0.237500X0*%
G04 #@! TD*
G04 #@! TA.AperFunction,SMDPad,CuDef*
%ADD14RoundRect,0.237500X-0.287500X-0.237500X0.287500X-0.237500X0.287500X0.237500X-0.287500X0.237500X0*%
G04 #@! TD*
G04 #@! TA.AperFunction,ComponentPad*
%ADD15R,1.500000X1.500000*%
G04 #@! TD*
G04 #@! TA.AperFunction,ComponentPad*
%ADD16C,1.500000*%
G04 #@! TD*
G04 #@! TA.AperFunction,ComponentPad*
%ADD17C,2.300000*%
G04 #@! TD*
G04 #@! TA.AperFunction,SMDPad,CuDef*
%ADD18RoundRect,0.237500X0.300000X0.237500X-0.300000X0.237500X-0.300000X-0.237500X0.300000X-0.237500X0*%
G04 #@! TD*
G04 #@! TA.AperFunction,ComponentPad*
%ADD19R,1.508000X1.508000*%
G04 #@! TD*
G04 #@! TA.AperFunction,ComponentPad*
%ADD20C,1.508000*%
G04 #@! TD*
G04 #@! TA.AperFunction,SMDPad,CuDef*
%ADD21RoundRect,0.237500X0.237500X-0.300000X0.237500X0.300000X-0.237500X0.300000X-0.237500X-0.300000X0*%
G04 #@! TD*
G04 #@! TA.AperFunction,ComponentPad*
%ADD22RoundRect,0.250000X-1.050000X1.050000X-1.050000X-1.050000X1.050000X-1.050000X1.050000X1.050000X0*%
G04 #@! TD*
G04 #@! TA.AperFunction,ComponentPad*
%ADD23C,2.600000*%
G04 #@! TD*
G04 #@! TA.AperFunction,ComponentPad*
%ADD24RoundRect,0.250000X1.050000X-1.050000X1.050000X1.050000X-1.050000X1.050000X-1.050000X-1.050000X0*%
G04 #@! TD*
G04 #@! TA.AperFunction,SMDPad,CuDef*
%ADD25RoundRect,0.237500X0.287500X0.237500X-0.287500X0.237500X-0.287500X-0.237500X0.287500X-0.237500X0*%
G04 #@! TD*
G04 #@! TA.AperFunction,SMDPad,CuDef*
%ADD26RoundRect,0.250000X-0.400000X-0.625000X0.400000X-0.625000X0.400000X0.625000X-0.400000X0.625000X0*%
G04 #@! TD*
G04 #@! TA.AperFunction,SMDPad,CuDef*
%ADD27R,1.981200X0.558800*%
G04 #@! TD*
G04 #@! TA.AperFunction,SMDPad,CuDef*
%ADD28RoundRect,0.237500X-0.250000X-0.237500X0.250000X-0.237500X0.250000X0.237500X-0.250000X0.237500X0*%
G04 #@! TD*
G04 #@! TA.AperFunction,ComponentPad*
%ADD29R,1.222000X1.222000*%
G04 #@! TD*
G04 #@! TA.AperFunction,ComponentPad*
%ADD30C,1.222000*%
G04 #@! TD*
G04 #@! TA.AperFunction,ComponentPad*
%ADD31R,2.600000X2.600000*%
G04 #@! TD*
G04 #@! TA.AperFunction,SMDPad,CuDef*
%ADD32R,2.700000X2.700000*%
G04 #@! TD*
G04 #@! TA.AperFunction,ViaPad*
%ADD33C,0.600000*%
G04 #@! TD*
G04 #@! TA.AperFunction,Conductor*
%ADD34C,0.500000*%
G04 #@! TD*
G04 #@! TA.AperFunction,Conductor*
%ADD35C,1.500000*%
G04 #@! TD*
G04 #@! TA.AperFunction,Conductor*
%ADD36C,1.000000*%
G04 #@! TD*
G04 #@! TA.AperFunction,Conductor*
%ADD37C,0.200000*%
G04 #@! TD*
G04 APERTURE END LIST*
D10*
X80500000Y-41000000D03*
D11*
X80500000Y-41000000D03*
D12*
X129180000Y-57430000D03*
D13*
X118077500Y-70440000D03*
X119802500Y-70440000D03*
D10*
X146940000Y-41180000D03*
D11*
X146940000Y-41180000D03*
D14*
X83430000Y-94860000D03*
X85180000Y-94860000D03*
D15*
X119840000Y-46055000D03*
D16*
X120856000Y-47835000D03*
X121872000Y-46055000D03*
X122888000Y-47835000D03*
X123904000Y-46055000D03*
X124920000Y-47835000D03*
X125936000Y-46055000D03*
X126952000Y-47835000D03*
D17*
X115270000Y-46945000D03*
X131530000Y-46945000D03*
D12*
X95310000Y-67650000D03*
X129070000Y-71890000D03*
X129210000Y-61210000D03*
D18*
X105172500Y-59730000D03*
X103447500Y-59730000D03*
D12*
X95260000Y-58000000D03*
X101730000Y-118820000D03*
X80200000Y-89420000D03*
D19*
X121260000Y-112970000D03*
D20*
X121260000Y-110430000D03*
X121260000Y-107890000D03*
X121260000Y-102810000D03*
X121260000Y-100270000D03*
X121260000Y-97730000D03*
X121260000Y-95190000D03*
D10*
X147070000Y-118060000D03*
D11*
X147070000Y-118060000D03*
D21*
X104950000Y-57190000D03*
X104950000Y-55465000D03*
D22*
X82697500Y-105040000D03*
D23*
X82697500Y-110040000D03*
D24*
X140172500Y-82300000D03*
D23*
X140172500Y-77300000D03*
X140172500Y-72300000D03*
X140172500Y-67300000D03*
X140172500Y-62300000D03*
X140172500Y-57300000D03*
D25*
X85172500Y-84710000D03*
X83422500Y-84710000D03*
D26*
X100720000Y-79690000D03*
X103820000Y-79690000D03*
D27*
X109340000Y-66610000D03*
X109340000Y-67880000D03*
X109340000Y-69150000D03*
X109340000Y-70420000D03*
X109340000Y-71690000D03*
X109340000Y-72960000D03*
X109340000Y-74230000D03*
X114267600Y-74230000D03*
X114267600Y-72960000D03*
X114267600Y-71690000D03*
X114267600Y-70420000D03*
X114267600Y-69150000D03*
X114267600Y-67880000D03*
X114267600Y-66610000D03*
D12*
X95360000Y-73150000D03*
D28*
X87260000Y-89640000D03*
X89085000Y-89640000D03*
D18*
X106672500Y-73140000D03*
X104947500Y-73140000D03*
D12*
X80220000Y-79800000D03*
D27*
X109282400Y-56020000D03*
X109282400Y-57290000D03*
X109282400Y-58560000D03*
X109282400Y-59830000D03*
X109282400Y-61100000D03*
X109282400Y-62370000D03*
X109282400Y-63640000D03*
X114210000Y-63640000D03*
X114210000Y-62370000D03*
X114210000Y-61100000D03*
X114210000Y-59830000D03*
X114210000Y-58560000D03*
X114210000Y-57290000D03*
X114210000Y-56020000D03*
D19*
X131880000Y-113190000D03*
D20*
X131880000Y-110650000D03*
X131880000Y-108110000D03*
X131880000Y-103030000D03*
X131880000Y-100490000D03*
X131880000Y-97950000D03*
X131880000Y-95410000D03*
D29*
X101600000Y-88160000D03*
D30*
X99060000Y-85620000D03*
X101600000Y-83080000D03*
D12*
X96040000Y-48650000D03*
X129130000Y-67920000D03*
X80010000Y-99670000D03*
D28*
X87217500Y-84710000D03*
X89042500Y-84710000D03*
D12*
X129100000Y-75620000D03*
X95420000Y-53050000D03*
X95260000Y-63180000D03*
D13*
X118427500Y-59950000D03*
X120152500Y-59950000D03*
D18*
X105532500Y-70340000D03*
X103807500Y-70340000D03*
D25*
X85132500Y-89600000D03*
X83382500Y-89600000D03*
D31*
X86570000Y-48140000D03*
D23*
X86570000Y-53140000D03*
X86570000Y-58140000D03*
X86570000Y-63140000D03*
X86570000Y-68140000D03*
X86570000Y-73140000D03*
D12*
X80240000Y-94910000D03*
X80150000Y-84670000D03*
D32*
X97800000Y-104230000D03*
X97800000Y-110430000D03*
X105400000Y-110430000D03*
X105400000Y-104230000D03*
D12*
X106530000Y-118900000D03*
D28*
X87147500Y-94810000D03*
X88972500Y-94810000D03*
D10*
X80500000Y-118500000D03*
D11*
X80500000Y-118500000D03*
D33*
X103280000Y-73240000D03*
X100910000Y-70360000D03*
X121280000Y-69740000D03*
X101600000Y-70360000D03*
X122760000Y-59200000D03*
X118720000Y-64350000D03*
X112710000Y-54670000D03*
X101600000Y-59730000D03*
X112710000Y-53940000D03*
X122305000Y-59655000D03*
X102200000Y-59730000D03*
X121280000Y-70380000D03*
X102360000Y-73240000D03*
X118070000Y-63780000D03*
X116540000Y-69670000D03*
X117280000Y-59830000D03*
X116540000Y-59830000D03*
X116510000Y-70430000D03*
X116540000Y-71060000D03*
X106770000Y-70400000D03*
X107370000Y-70420000D03*
X106580000Y-59750000D03*
X107420000Y-59770000D03*
X107010000Y-57290000D03*
X106360000Y-57290000D03*
D34*
X101730000Y-107900000D02*
X101730000Y-118820000D01*
X121260000Y-110430000D02*
X121280000Y-110430000D01*
D35*
X111600000Y-110430000D02*
X105400000Y-104230000D01*
X121500000Y-110650000D02*
X131880000Y-110650000D01*
X121260000Y-110430000D02*
X111600000Y-110430000D01*
D34*
X101730000Y-118820000D02*
X101400000Y-118490000D01*
X105400000Y-104230000D02*
X101730000Y-107900000D01*
X121280000Y-110430000D02*
X121500000Y-110650000D01*
X130780000Y-77300000D02*
X140172500Y-77300000D01*
D36*
X122305000Y-59655000D02*
X122760000Y-59200000D01*
X121280000Y-69740000D02*
X121280000Y-70380000D01*
X120290000Y-70370000D02*
X119560000Y-70370000D01*
X100910000Y-70360000D02*
X101600000Y-70360000D01*
X104847500Y-73240000D02*
X104947500Y-73140000D01*
D34*
X97835000Y-55465000D02*
X95420000Y-53050000D01*
D36*
X112710000Y-54670000D02*
X112710000Y-53940000D01*
X122010000Y-59950000D02*
X122305000Y-59655000D01*
X114060000Y-56020000D02*
X112710000Y-54670000D01*
X120152500Y-59950000D02*
X122010000Y-59950000D01*
X120300000Y-70380000D02*
X120290000Y-70370000D01*
D34*
X129100000Y-75620000D02*
X128930000Y-75620000D01*
D36*
X114210000Y-63640000D02*
X117930000Y-63640000D01*
X101600000Y-70360000D02*
X103787500Y-70360000D01*
X114210000Y-56020000D02*
X114060000Y-56020000D01*
X118150000Y-63780000D02*
X118720000Y-64350000D01*
D34*
X95330000Y-53140000D02*
X95420000Y-53050000D01*
D36*
X114210000Y-63640000D02*
X114210000Y-66552400D01*
X102200000Y-59730000D02*
X101600000Y-59730000D01*
D34*
X104950000Y-55465000D02*
X97835000Y-55465000D01*
D36*
X118070000Y-63780000D02*
X118150000Y-63780000D01*
D34*
X127540000Y-74230000D02*
X114267600Y-74230000D01*
X103787500Y-70360000D02*
X103807500Y-70340000D01*
D36*
X117930000Y-63640000D02*
X118070000Y-63780000D01*
X103447500Y-59730000D02*
X102200000Y-59730000D01*
X102360000Y-73240000D02*
X103280000Y-73240000D01*
D34*
X129100000Y-75620000D02*
X130780000Y-77300000D01*
X114210000Y-66552400D02*
X114267600Y-66610000D01*
X128930000Y-75620000D02*
X127540000Y-74230000D01*
D36*
X103280000Y-73240000D02*
X104847500Y-73240000D01*
X121280000Y-70380000D02*
X120300000Y-70380000D01*
D34*
X128930000Y-75850000D02*
X128970000Y-75890000D01*
X86570000Y-53140000D02*
X95330000Y-53140000D01*
X83202500Y-89420000D02*
X83382500Y-89600000D01*
X80200000Y-89420000D02*
X83202500Y-89420000D01*
D36*
X118307500Y-59830000D02*
X118427500Y-59950000D01*
X116540000Y-69670000D02*
X116540000Y-70939000D01*
X116540000Y-59830000D02*
X114210000Y-59830000D01*
X117280000Y-59830000D02*
X118307500Y-59830000D01*
X114267600Y-70420000D02*
X117785000Y-70420000D01*
X116540000Y-59830000D02*
X117280000Y-59830000D01*
X116540000Y-59830000D02*
X118307500Y-59830000D01*
D34*
X83382500Y-84670000D02*
X83422500Y-84710000D01*
X80150000Y-84670000D02*
X83382500Y-84670000D01*
D37*
X117785000Y-70420000D02*
X117835000Y-70370000D01*
D34*
X80240000Y-94910000D02*
X83380000Y-94910000D01*
D36*
X107420000Y-59770000D02*
X109222400Y-59770000D01*
X105192500Y-59750000D02*
X105172500Y-59730000D01*
X107370000Y-70420000D02*
X105612500Y-70420000D01*
X106580000Y-59750000D02*
X109202400Y-59750000D01*
D34*
X109222400Y-59770000D02*
X109282400Y-59830000D01*
X83380000Y-94910000D02*
X83430000Y-94860000D01*
D36*
X109340000Y-70420000D02*
X107370000Y-70420000D01*
X107800000Y-59830000D02*
X109567300Y-59830000D01*
X109202400Y-59750000D02*
X109222400Y-59770000D01*
X106580000Y-59750000D02*
X105192500Y-59750000D01*
D34*
X105612500Y-70420000D02*
X105532500Y-70340000D01*
D36*
X107720000Y-59750000D02*
X107800000Y-59830000D01*
D35*
X107130000Y-112990000D02*
X121240000Y-112990000D01*
D34*
X121240000Y-112990000D02*
X121260000Y-112970000D01*
X121480000Y-113190000D02*
X121260000Y-112970000D01*
D35*
X105400000Y-111260000D02*
X107130000Y-112990000D01*
D34*
X105400000Y-117770000D02*
X105400000Y-110430000D01*
D35*
X131880000Y-113190000D02*
X121480000Y-113190000D01*
D34*
X106530000Y-118900000D02*
X105400000Y-117770000D01*
X105400000Y-110430000D02*
X105400000Y-111260000D01*
X86570000Y-73140000D02*
X95350000Y-73140000D01*
X96790000Y-71720000D02*
X110370000Y-71720000D01*
X95350000Y-73140000D02*
X95360000Y-73150000D01*
X95360000Y-73150000D02*
X96790000Y-71720000D01*
X95120000Y-58140000D02*
X95260000Y-58000000D01*
X95260000Y-58000000D02*
X95820000Y-58560000D01*
X108867300Y-58560000D02*
X109567300Y-58560000D01*
X108942400Y-58560000D02*
X108902400Y-58600000D01*
X86570000Y-58140000D02*
X95120000Y-58140000D01*
X109282400Y-58560000D02*
X108942400Y-58560000D01*
X95820000Y-58560000D02*
X109282400Y-58560000D01*
X95220000Y-63140000D02*
X95260000Y-63180000D01*
X95260000Y-63180000D02*
X97340000Y-61100000D01*
X86570000Y-63140000D02*
X95220000Y-63140000D01*
X97340000Y-61100000D02*
X109282400Y-61100000D01*
X94820000Y-68140000D02*
X95310000Y-67650000D01*
X96810000Y-69150000D02*
X109340000Y-69150000D01*
X86570000Y-68140000D02*
X94820000Y-68140000D01*
X95310000Y-67650000D02*
X96810000Y-69150000D01*
X129040000Y-57290000D02*
X129180000Y-57430000D01*
X114921200Y-57290000D02*
X117280000Y-54931200D01*
X114494900Y-58560000D02*
X114494900Y-57290000D01*
X129180000Y-57430000D02*
X140042500Y-57430000D01*
X114210000Y-57290000D02*
X114921200Y-57290000D01*
X117280000Y-48615000D02*
X119840000Y-46055000D01*
X140042500Y-57430000D02*
X140172500Y-57300000D01*
X114210000Y-57290000D02*
X129040000Y-57290000D01*
X117280000Y-54931200D02*
X117280000Y-48615000D01*
X85172500Y-84710000D02*
X87217500Y-84710000D01*
X85132500Y-89600000D02*
X87220000Y-89600000D01*
X87220000Y-89600000D02*
X87260000Y-89640000D01*
X130590000Y-62300000D02*
X140172500Y-62300000D01*
X129100000Y-61100000D02*
X129210000Y-61210000D01*
X129210000Y-61210000D02*
X129210000Y-60630000D01*
X114210000Y-61100000D02*
X129100000Y-61100000D01*
X129210000Y-61210000D02*
X129500000Y-61210000D01*
X129500000Y-61210000D02*
X130590000Y-62300000D01*
X114494900Y-61100000D02*
X114494900Y-62370000D01*
X109340000Y-67880000D02*
X110620000Y-67880000D01*
X110570000Y-57290000D02*
X111530000Y-58250000D01*
X109282400Y-57290000D02*
X110570000Y-57290000D01*
X110980000Y-62370000D02*
X109282400Y-62370000D01*
X105050000Y-57290000D02*
X104950000Y-57190000D01*
X111530000Y-58250000D02*
X111530000Y-61820000D01*
D36*
X106672500Y-77877500D02*
X106672500Y-73140000D01*
X106672500Y-73140000D02*
X106712500Y-73100000D01*
D34*
X106310000Y-57190000D02*
X106910000Y-56590000D01*
X109282400Y-62370000D02*
X108380400Y-62370000D01*
X107380000Y-66631200D02*
X108628800Y-67880000D01*
D36*
X103960000Y-83920000D02*
X103960000Y-79830000D01*
X103960000Y-79830000D02*
X103820000Y-79690000D01*
D34*
X111230000Y-72340000D02*
X110610000Y-72960000D01*
X107380000Y-63370400D02*
X107380000Y-66631200D01*
X106360000Y-57290000D02*
X105050000Y-57290000D01*
X110620000Y-67880000D02*
X111230000Y-68490000D01*
X107010000Y-57290000D02*
X106360000Y-57290000D01*
D36*
X103820000Y-78990000D02*
X103847500Y-78962500D01*
X102260000Y-85620000D02*
X103960000Y-83920000D01*
X106712500Y-73100000D02*
X109200000Y-73100000D01*
D34*
X110610000Y-72960000D02*
X109340000Y-72960000D01*
D36*
X105587500Y-78962500D02*
X106672500Y-77877500D01*
X103820000Y-79690000D02*
X103820000Y-78990000D01*
X109282400Y-57290000D02*
X105430000Y-57290000D01*
D34*
X108628800Y-67880000D02*
X109340000Y-67880000D01*
X100130000Y-48750000D02*
X96520000Y-48750000D01*
X111530000Y-61820000D02*
X110980000Y-62370000D01*
X106910000Y-56590000D02*
X106910000Y-55530000D01*
X111230000Y-68490000D02*
X111230000Y-72340000D01*
D36*
X99060000Y-85620000D02*
X102260000Y-85620000D01*
X103847500Y-78962500D02*
X105587500Y-78962500D01*
D34*
X108380400Y-62370000D02*
X107380000Y-63370400D01*
X104950000Y-57190000D02*
X106310000Y-57190000D01*
X106910000Y-55530000D02*
X100130000Y-48750000D01*
X101600000Y-83080000D02*
X101600000Y-81210000D01*
D37*
X99910000Y-79800000D02*
X100050000Y-79660000D01*
D34*
X101600000Y-81210000D02*
X100050000Y-79660000D01*
X80220000Y-79800000D02*
X99910000Y-79800000D01*
X87097500Y-94860000D02*
X87147500Y-94810000D01*
X85180000Y-94860000D02*
X87097500Y-94860000D01*
X139552500Y-67920000D02*
X140172500Y-67300000D01*
X129130000Y-67920000D02*
X139552500Y-67920000D01*
X114267600Y-69150000D02*
X114267600Y-67880000D01*
X114267600Y-67880000D02*
X129090000Y-67880000D01*
X129090000Y-67880000D02*
X129130000Y-67920000D01*
X139762500Y-71890000D02*
X140172500Y-72300000D01*
X114450000Y-71690000D02*
X114650000Y-71890000D01*
X114267600Y-72960000D02*
X114267600Y-71690000D01*
X129070000Y-71890000D02*
X139762500Y-71890000D01*
X114267600Y-71690000D02*
X114450000Y-71690000D01*
X114650000Y-71890000D02*
X129070000Y-71890000D01*
D35*
X83267500Y-106500000D02*
X95530000Y-106500000D01*
X82697500Y-105930000D02*
X83267500Y-106500000D01*
X95530000Y-106500000D02*
X97800000Y-104230000D01*
X82697500Y-105040000D02*
X82697500Y-105930000D01*
X82697500Y-110040000D02*
X82697500Y-109430000D01*
X82697500Y-109430000D02*
X83847500Y-108280000D01*
X83847500Y-108280000D02*
X95650000Y-108280000D01*
X95650000Y-108280000D02*
X97800000Y-110430000D01*
G04 #@! TA.AperFunction,Conductor*
G36*
X90490756Y-83398286D02*
G01*
X90557504Y-83418931D01*
X90602496Y-83472387D01*
X90612935Y-83519221D01*
X90789999Y-90709999D01*
X90789999Y-90709998D01*
X90790000Y-90710000D01*
X94382940Y-90603757D01*
X94450532Y-90621452D01*
X94497828Y-90672880D01*
X94510604Y-90727113D01*
X94559418Y-100987800D01*
X94540052Y-101054932D01*
X94487466Y-101100938D01*
X94437822Y-101112367D01*
X86820830Y-101259983D01*
X86819116Y-101260004D01*
X77939236Y-101309337D01*
X77872088Y-101290025D01*
X77826041Y-101237476D01*
X77814671Y-101190881D01*
X77805586Y-100987800D01*
X77655770Y-97638993D01*
X77672439Y-97571145D01*
X77723145Y-97523076D01*
X77779122Y-97509456D01*
X87150000Y-97470000D01*
X87147790Y-95909675D01*
X87167380Y-95842607D01*
X87220119Y-95796778D01*
X87271788Y-95785499D01*
X87446676Y-95785499D01*
X87547753Y-95775174D01*
X87711516Y-95720908D01*
X87858350Y-95630340D01*
X87980340Y-95508350D01*
X88070908Y-95361516D01*
X88125174Y-95197753D01*
X88135500Y-95096677D01*
X88135499Y-94523324D01*
X88125174Y-94422247D01*
X88070908Y-94258484D01*
X87980340Y-94111650D01*
X87858350Y-93989660D01*
X87711516Y-93899092D01*
X87547753Y-93844826D01*
X87547751Y-93844825D01*
X87446684Y-93834500D01*
X87268675Y-93834500D01*
X87201636Y-93814815D01*
X87155881Y-93762011D01*
X87144675Y-93710676D01*
X87140467Y-90739675D01*
X87160057Y-90672607D01*
X87212796Y-90626778D01*
X87264464Y-90615499D01*
X87559176Y-90615499D01*
X87660253Y-90605174D01*
X87824016Y-90550908D01*
X87970850Y-90460340D01*
X88092840Y-90338350D01*
X88183408Y-90191516D01*
X88237674Y-90027753D01*
X88248000Y-89926677D01*
X88247999Y-89353324D01*
X88237674Y-89252247D01*
X88183408Y-89088484D01*
X88092840Y-88941650D01*
X87970850Y-88819660D01*
X87824016Y-88729092D01*
X87660253Y-88674826D01*
X87660251Y-88674825D01*
X87559184Y-88664500D01*
X87261352Y-88664500D01*
X87194313Y-88644815D01*
X87148558Y-88592011D01*
X87137352Y-88540676D01*
X87133484Y-85809675D01*
X87153074Y-85742607D01*
X87205813Y-85696778D01*
X87257482Y-85685499D01*
X87516676Y-85685499D01*
X87617753Y-85675174D01*
X87781516Y-85620908D01*
X87928350Y-85530340D01*
X88050340Y-85408350D01*
X88140908Y-85261516D01*
X88195174Y-85097753D01*
X88205500Y-84996677D01*
X88205499Y-84423324D01*
X88195174Y-84322247D01*
X88140908Y-84158484D01*
X88050340Y-84011650D01*
X87928350Y-83889660D01*
X87781516Y-83799092D01*
X87617753Y-83744826D01*
X87617751Y-83744825D01*
X87516684Y-83734500D01*
X87254369Y-83734500D01*
X87245768Y-83731974D01*
X87236896Y-83733263D01*
X87212762Y-83722282D01*
X87187330Y-83714815D01*
X87181460Y-83708041D01*
X87173299Y-83704328D01*
X87158932Y-83682042D01*
X87141575Y-83662011D01*
X87139299Y-83651588D01*
X87135442Y-83645604D01*
X87130369Y-83610676D01*
X87130178Y-83475970D01*
X87149768Y-83408905D01*
X87202507Y-83363075D01*
X87255955Y-83351809D01*
X90490756Y-83398286D01*
G37*
G04 #@! TD.AperFunction*
M02*
