G04 #@! TF.GenerationSoftware,KiCad,Pcbnew,9.0.6*
G04 #@! TF.CreationDate,2026-01-23T12:37:49-06:00*
G04 #@! TF.ProjectId,aei,6165692e-6b69-4636-9164-5f7063625858,rev?*
G04 #@! TF.SameCoordinates,Original*
G04 #@! TF.FileFunction,Legend,Bot*
G04 #@! TF.FilePolarity,Positive*
%FSLAX46Y46*%
G04 Gerber Fmt 4.6, Leading zero omitted, Abs format (unit mm)*
G04 Created by KiCad (PCBNEW 9.0.6) date 2026-01-23 12:37:49*
%MOMM*%
%LPD*%
G01*
G04 APERTURE LIST*
G04 Aperture macros list*
%AMRoundRect*
0 Rectangle with rounded corners*
0 $1 Rounding radius*
0 $2 $3 $4 $5 $6 $7 $8 $9 X,Y pos of 4 corners*
0 Add a 4 corners polygon primitive as box body*
4,1,4,$2,$3,$4,$5,$6,$7,$8,$9,$2,$3,0*
0 Add four circle primitives for the rounded corners*
1,1,$1+$1,$2,$3*
1,1,$1+$1,$4,$5*
1,1,$1+$1,$6,$7*
1,1,$1+$1,$8,$9*
0 Add four rect primitives between the rounded corners*
20,1,$1+$1,$2,$3,$4,$5,0*
20,1,$1+$1,$4,$5,$6,$7,0*
20,1,$1+$1,$6,$7,$8,$9,0*
20,1,$1+$1,$8,$9,$2,$3,0*%
G04 Aperture macros list end*
%ADD10C,0.150000*%
%ADD11C,0.120000*%
%ADD12C,0.152400*%
%ADD13C,3.600000*%
%ADD14C,5.600000*%
%ADD15C,2.000000*%
%ADD16C,3.250000*%
%ADD17R,1.500000X1.500000*%
%ADD18C,1.500000*%
%ADD19C,2.300000*%
%ADD20RoundRect,0.102000X0.754000X-0.754000X0.754000X0.754000X-0.754000X0.754000X-0.754000X-0.754000X0*%
%ADD21C,1.712000*%
%ADD22RoundRect,0.250000X-1.050000X1.050000X-1.050000X-1.050000X1.050000X-1.050000X1.050000X1.050000X0*%
%ADD23C,2.600000*%
%ADD24RoundRect,0.250000X1.050000X-1.050000X1.050000X1.050000X-1.050000X1.050000X-1.050000X-1.050000X0*%
%ADD25RoundRect,0.102000X0.611000X-0.611000X0.611000X0.611000X-0.611000X0.611000X-0.611000X-0.611000X0*%
%ADD26C,1.426000*%
%ADD27R,2.600000X2.600000*%
%ADD28RoundRect,0.250000X0.475000X-0.337500X0.475000X0.337500X-0.475000X0.337500X-0.475000X-0.337500X0*%
%ADD29RoundRect,0.250000X-0.650000X0.412500X-0.650000X-0.412500X0.650000X-0.412500X0.650000X0.412500X0*%
%ADD30R,2.286000X1.016000*%
%ADD31R,11.252200X9.448800*%
%ADD32RoundRect,0.237500X-0.237500X0.300000X-0.237500X-0.300000X0.237500X-0.300000X0.237500X0.300000X0*%
G04 APERTURE END LIST*
D10*
X115349580Y-98313333D02*
X115397200Y-98265714D01*
X115397200Y-98265714D02*
X115444819Y-98122857D01*
X115444819Y-98122857D02*
X115444819Y-98027619D01*
X115444819Y-98027619D02*
X115397200Y-97884762D01*
X115397200Y-97884762D02*
X115301961Y-97789524D01*
X115301961Y-97789524D02*
X115206723Y-97741905D01*
X115206723Y-97741905D02*
X115016247Y-97694286D01*
X115016247Y-97694286D02*
X114873390Y-97694286D01*
X114873390Y-97694286D02*
X114682914Y-97741905D01*
X114682914Y-97741905D02*
X114587676Y-97789524D01*
X114587676Y-97789524D02*
X114492438Y-97884762D01*
X114492438Y-97884762D02*
X114444819Y-98027619D01*
X114444819Y-98027619D02*
X114444819Y-98122857D01*
X114444819Y-98122857D02*
X114492438Y-98265714D01*
X114492438Y-98265714D02*
X114540057Y-98313333D01*
X114444819Y-98646667D02*
X114444819Y-99265714D01*
X114444819Y-99265714D02*
X114825771Y-98932381D01*
X114825771Y-98932381D02*
X114825771Y-99075238D01*
X114825771Y-99075238D02*
X114873390Y-99170476D01*
X114873390Y-99170476D02*
X114921009Y-99218095D01*
X114921009Y-99218095D02*
X115016247Y-99265714D01*
X115016247Y-99265714D02*
X115254342Y-99265714D01*
X115254342Y-99265714D02*
X115349580Y-99218095D01*
X115349580Y-99218095D02*
X115397200Y-99170476D01*
X115397200Y-99170476D02*
X115444819Y-99075238D01*
X115444819Y-99075238D02*
X115444819Y-98789524D01*
X115444819Y-98789524D02*
X115397200Y-98694286D01*
X115397200Y-98694286D02*
X115349580Y-98646667D01*
X137769580Y-97953333D02*
X137817200Y-97905714D01*
X137817200Y-97905714D02*
X137864819Y-97762857D01*
X137864819Y-97762857D02*
X137864819Y-97667619D01*
X137864819Y-97667619D02*
X137817200Y-97524762D01*
X137817200Y-97524762D02*
X137721961Y-97429524D01*
X137721961Y-97429524D02*
X137626723Y-97381905D01*
X137626723Y-97381905D02*
X137436247Y-97334286D01*
X137436247Y-97334286D02*
X137293390Y-97334286D01*
X137293390Y-97334286D02*
X137102914Y-97381905D01*
X137102914Y-97381905D02*
X137007676Y-97429524D01*
X137007676Y-97429524D02*
X136912438Y-97524762D01*
X136912438Y-97524762D02*
X136864819Y-97667619D01*
X136864819Y-97667619D02*
X136864819Y-97762857D01*
X136864819Y-97762857D02*
X136912438Y-97905714D01*
X136912438Y-97905714D02*
X136960057Y-97953333D01*
X137198152Y-98810476D02*
X137864819Y-98810476D01*
X136817200Y-98572381D02*
X137531485Y-98334286D01*
X137531485Y-98334286D02*
X137531485Y-98953333D01*
X114979580Y-111133333D02*
X115027200Y-111085714D01*
X115027200Y-111085714D02*
X115074819Y-110942857D01*
X115074819Y-110942857D02*
X115074819Y-110847619D01*
X115074819Y-110847619D02*
X115027200Y-110704762D01*
X115027200Y-110704762D02*
X114931961Y-110609524D01*
X114931961Y-110609524D02*
X114836723Y-110561905D01*
X114836723Y-110561905D02*
X114646247Y-110514286D01*
X114646247Y-110514286D02*
X114503390Y-110514286D01*
X114503390Y-110514286D02*
X114312914Y-110561905D01*
X114312914Y-110561905D02*
X114217676Y-110609524D01*
X114217676Y-110609524D02*
X114122438Y-110704762D01*
X114122438Y-110704762D02*
X114074819Y-110847619D01*
X114074819Y-110847619D02*
X114074819Y-110942857D01*
X114074819Y-110942857D02*
X114122438Y-111085714D01*
X114122438Y-111085714D02*
X114170057Y-111133333D01*
X114170057Y-111514286D02*
X114122438Y-111561905D01*
X114122438Y-111561905D02*
X114074819Y-111657143D01*
X114074819Y-111657143D02*
X114074819Y-111895238D01*
X114074819Y-111895238D02*
X114122438Y-111990476D01*
X114122438Y-111990476D02*
X114170057Y-112038095D01*
X114170057Y-112038095D02*
X114265295Y-112085714D01*
X114265295Y-112085714D02*
X114360533Y-112085714D01*
X114360533Y-112085714D02*
X114503390Y-112038095D01*
X114503390Y-112038095D02*
X115074819Y-111466667D01*
X115074819Y-111466667D02*
X115074819Y-112085714D01*
X110159580Y-87823333D02*
X110207200Y-87775714D01*
X110207200Y-87775714D02*
X110254819Y-87632857D01*
X110254819Y-87632857D02*
X110254819Y-87537619D01*
X110254819Y-87537619D02*
X110207200Y-87394762D01*
X110207200Y-87394762D02*
X110111961Y-87299524D01*
X110111961Y-87299524D02*
X110016723Y-87251905D01*
X110016723Y-87251905D02*
X109826247Y-87204286D01*
X109826247Y-87204286D02*
X109683390Y-87204286D01*
X109683390Y-87204286D02*
X109492914Y-87251905D01*
X109492914Y-87251905D02*
X109397676Y-87299524D01*
X109397676Y-87299524D02*
X109302438Y-87394762D01*
X109302438Y-87394762D02*
X109254819Y-87537619D01*
X109254819Y-87537619D02*
X109254819Y-87632857D01*
X109254819Y-87632857D02*
X109302438Y-87775714D01*
X109302438Y-87775714D02*
X109350057Y-87823333D01*
X109254819Y-88156667D02*
X109254819Y-88823333D01*
X109254819Y-88823333D02*
X110254819Y-88394762D01*
X94389580Y-107233333D02*
X94437200Y-107185714D01*
X94437200Y-107185714D02*
X94484819Y-107042857D01*
X94484819Y-107042857D02*
X94484819Y-106947619D01*
X94484819Y-106947619D02*
X94437200Y-106804762D01*
X94437200Y-106804762D02*
X94341961Y-106709524D01*
X94341961Y-106709524D02*
X94246723Y-106661905D01*
X94246723Y-106661905D02*
X94056247Y-106614286D01*
X94056247Y-106614286D02*
X93913390Y-106614286D01*
X93913390Y-106614286D02*
X93722914Y-106661905D01*
X93722914Y-106661905D02*
X93627676Y-106709524D01*
X93627676Y-106709524D02*
X93532438Y-106804762D01*
X93532438Y-106804762D02*
X93484819Y-106947619D01*
X93484819Y-106947619D02*
X93484819Y-107042857D01*
X93484819Y-107042857D02*
X93532438Y-107185714D01*
X93532438Y-107185714D02*
X93580057Y-107233333D01*
X94484819Y-107709524D02*
X94484819Y-107900000D01*
X94484819Y-107900000D02*
X94437200Y-107995238D01*
X94437200Y-107995238D02*
X94389580Y-108042857D01*
X94389580Y-108042857D02*
X94246723Y-108138095D01*
X94246723Y-108138095D02*
X94056247Y-108185714D01*
X94056247Y-108185714D02*
X93675295Y-108185714D01*
X93675295Y-108185714D02*
X93580057Y-108138095D01*
X93580057Y-108138095D02*
X93532438Y-108090476D01*
X93532438Y-108090476D02*
X93484819Y-107995238D01*
X93484819Y-107995238D02*
X93484819Y-107804762D01*
X93484819Y-107804762D02*
X93532438Y-107709524D01*
X93532438Y-107709524D02*
X93580057Y-107661905D01*
X93580057Y-107661905D02*
X93675295Y-107614286D01*
X93675295Y-107614286D02*
X93913390Y-107614286D01*
X93913390Y-107614286D02*
X94008628Y-107661905D01*
X94008628Y-107661905D02*
X94056247Y-107709524D01*
X94056247Y-107709524D02*
X94103866Y-107804762D01*
X94103866Y-107804762D02*
X94103866Y-107995238D01*
X94103866Y-107995238D02*
X94056247Y-108090476D01*
X94056247Y-108090476D02*
X94008628Y-108138095D01*
X94008628Y-108138095D02*
X93913390Y-108185714D01*
X132135180Y-85021904D02*
X131325657Y-85021904D01*
X131325657Y-85021904D02*
X131230419Y-84974285D01*
X131230419Y-84974285D02*
X131182800Y-84926666D01*
X131182800Y-84926666D02*
X131135180Y-84831428D01*
X131135180Y-84831428D02*
X131135180Y-84640952D01*
X131135180Y-84640952D02*
X131182800Y-84545714D01*
X131182800Y-84545714D02*
X131230419Y-84498095D01*
X131230419Y-84498095D02*
X131325657Y-84450476D01*
X131325657Y-84450476D02*
X132135180Y-84450476D01*
X132135180Y-84069523D02*
X132135180Y-83450476D01*
X132135180Y-83450476D02*
X131754228Y-83783809D01*
X131754228Y-83783809D02*
X131754228Y-83640952D01*
X131754228Y-83640952D02*
X131706609Y-83545714D01*
X131706609Y-83545714D02*
X131658990Y-83498095D01*
X131658990Y-83498095D02*
X131563752Y-83450476D01*
X131563752Y-83450476D02*
X131325657Y-83450476D01*
X131325657Y-83450476D02*
X131230419Y-83498095D01*
X131230419Y-83498095D02*
X131182800Y-83545714D01*
X131182800Y-83545714D02*
X131135180Y-83640952D01*
X131135180Y-83640952D02*
X131135180Y-83926666D01*
X131135180Y-83926666D02*
X131182800Y-84021904D01*
X131182800Y-84021904D02*
X131230419Y-84069523D01*
X116825180Y-90849999D02*
X116587085Y-90849999D01*
X116682323Y-91088094D02*
X116587085Y-90849999D01*
X116587085Y-90849999D02*
X116682323Y-90611904D01*
X116396609Y-90992856D02*
X116587085Y-90849999D01*
X116587085Y-90849999D02*
X116396609Y-90707142D01*
X116875180Y-90839999D02*
X116637085Y-90839999D01*
X116732323Y-91078094D02*
X116637085Y-90839999D01*
X116637085Y-90839999D02*
X116732323Y-90601904D01*
X116446609Y-90982856D02*
X116637085Y-90839999D01*
X116637085Y-90839999D02*
X116446609Y-90697142D01*
X139449580Y-111563333D02*
X139497200Y-111515714D01*
X139497200Y-111515714D02*
X139544819Y-111372857D01*
X139544819Y-111372857D02*
X139544819Y-111277619D01*
X139544819Y-111277619D02*
X139497200Y-111134762D01*
X139497200Y-111134762D02*
X139401961Y-111039524D01*
X139401961Y-111039524D02*
X139306723Y-110991905D01*
X139306723Y-110991905D02*
X139116247Y-110944286D01*
X139116247Y-110944286D02*
X138973390Y-110944286D01*
X138973390Y-110944286D02*
X138782914Y-110991905D01*
X138782914Y-110991905D02*
X138687676Y-111039524D01*
X138687676Y-111039524D02*
X138592438Y-111134762D01*
X138592438Y-111134762D02*
X138544819Y-111277619D01*
X138544819Y-111277619D02*
X138544819Y-111372857D01*
X138544819Y-111372857D02*
X138592438Y-111515714D01*
X138592438Y-111515714D02*
X138640057Y-111563333D01*
X139544819Y-112515714D02*
X139544819Y-111944286D01*
X139544819Y-112230000D02*
X138544819Y-112230000D01*
X138544819Y-112230000D02*
X138687676Y-112134762D01*
X138687676Y-112134762D02*
X138782914Y-112039524D01*
X138782914Y-112039524D02*
X138830533Y-111944286D01*
X110629580Y-84205833D02*
X110677200Y-84158214D01*
X110677200Y-84158214D02*
X110724819Y-84015357D01*
X110724819Y-84015357D02*
X110724819Y-83920119D01*
X110724819Y-83920119D02*
X110677200Y-83777262D01*
X110677200Y-83777262D02*
X110581961Y-83682024D01*
X110581961Y-83682024D02*
X110486723Y-83634405D01*
X110486723Y-83634405D02*
X110296247Y-83586786D01*
X110296247Y-83586786D02*
X110153390Y-83586786D01*
X110153390Y-83586786D02*
X109962914Y-83634405D01*
X109962914Y-83634405D02*
X109867676Y-83682024D01*
X109867676Y-83682024D02*
X109772438Y-83777262D01*
X109772438Y-83777262D02*
X109724819Y-83920119D01*
X109724819Y-83920119D02*
X109724819Y-84015357D01*
X109724819Y-84015357D02*
X109772438Y-84158214D01*
X109772438Y-84158214D02*
X109820057Y-84205833D01*
X110153390Y-84777262D02*
X110105771Y-84682024D01*
X110105771Y-84682024D02*
X110058152Y-84634405D01*
X110058152Y-84634405D02*
X109962914Y-84586786D01*
X109962914Y-84586786D02*
X109915295Y-84586786D01*
X109915295Y-84586786D02*
X109820057Y-84634405D01*
X109820057Y-84634405D02*
X109772438Y-84682024D01*
X109772438Y-84682024D02*
X109724819Y-84777262D01*
X109724819Y-84777262D02*
X109724819Y-84967738D01*
X109724819Y-84967738D02*
X109772438Y-85062976D01*
X109772438Y-85062976D02*
X109820057Y-85110595D01*
X109820057Y-85110595D02*
X109915295Y-85158214D01*
X109915295Y-85158214D02*
X109962914Y-85158214D01*
X109962914Y-85158214D02*
X110058152Y-85110595D01*
X110058152Y-85110595D02*
X110105771Y-85062976D01*
X110105771Y-85062976D02*
X110153390Y-84967738D01*
X110153390Y-84967738D02*
X110153390Y-84777262D01*
X110153390Y-84777262D02*
X110201009Y-84682024D01*
X110201009Y-84682024D02*
X110248628Y-84634405D01*
X110248628Y-84634405D02*
X110343866Y-84586786D01*
X110343866Y-84586786D02*
X110534342Y-84586786D01*
X110534342Y-84586786D02*
X110629580Y-84634405D01*
X110629580Y-84634405D02*
X110677200Y-84682024D01*
X110677200Y-84682024D02*
X110724819Y-84777262D01*
X110724819Y-84777262D02*
X110724819Y-84967738D01*
X110724819Y-84967738D02*
X110677200Y-85062976D01*
X110677200Y-85062976D02*
X110629580Y-85110595D01*
X110629580Y-85110595D02*
X110534342Y-85158214D01*
X110534342Y-85158214D02*
X110343866Y-85158214D01*
X110343866Y-85158214D02*
X110248628Y-85110595D01*
X110248628Y-85110595D02*
X110201009Y-85062976D01*
X110201009Y-85062976D02*
X110153390Y-84967738D01*
D11*
X116205000Y-99181252D02*
X116205000Y-98658748D01*
X117675000Y-99181252D02*
X117675000Y-98658748D01*
X134645000Y-98411252D02*
X134645000Y-97888748D01*
X136115000Y-98411252D02*
X136115000Y-97888748D01*
X116110000Y-110688748D02*
X116110000Y-112111252D01*
X117930000Y-110688748D02*
X117930000Y-112111252D01*
X111075000Y-88388752D02*
X111075000Y-87866248D01*
X112545000Y-88388752D02*
X112545000Y-87866248D01*
X90840000Y-106308748D02*
X90840000Y-107731252D01*
X92660000Y-106308748D02*
X92660000Y-107731252D01*
D12*
X118711160Y-82403800D02*
X117367500Y-82403800D01*
X118711160Y-83369000D02*
X117367500Y-83369000D01*
X118711160Y-84105600D02*
X117367500Y-84105600D01*
X118711160Y-85070800D02*
X117367500Y-85070800D01*
X118711160Y-85807400D02*
X117367500Y-85807400D01*
X118711160Y-86772600D02*
X117367500Y-86772600D01*
X118711160Y-87509200D02*
X117367500Y-87509200D01*
X118711160Y-88474400D02*
X117367500Y-88474400D01*
X118711160Y-89211000D02*
X117367500Y-89211000D01*
X118711160Y-90176200D02*
X117367500Y-90176200D01*
D11*
X135860000Y-110858748D02*
X135860000Y-112281252D01*
X137680000Y-110858748D02*
X137680000Y-112281252D01*
X111190000Y-84226233D02*
X111190000Y-84518767D01*
X112210000Y-84226233D02*
X112210000Y-84518767D01*
%LPC*%
D13*
X80500000Y-41000000D03*
D14*
X80500000Y-41000000D03*
D15*
X129180000Y-57430000D03*
D13*
X146940000Y-41180000D03*
D14*
X146940000Y-41180000D03*
D16*
X117050000Y-43515000D03*
X129750000Y-43515000D03*
D17*
X119840000Y-46055000D03*
D18*
X120856000Y-47835000D03*
X121872000Y-46055000D03*
X122888000Y-47835000D03*
X123904000Y-46055000D03*
X124920000Y-47835000D03*
X125936000Y-46055000D03*
X126952000Y-47835000D03*
D19*
X115270000Y-46945000D03*
X131530000Y-46945000D03*
D15*
X95310000Y-67650000D03*
X129070000Y-71890000D03*
X129210000Y-61210000D03*
X95260000Y-58000000D03*
X101730000Y-118820000D03*
X80200000Y-89420000D03*
D20*
X121260000Y-112970000D03*
D21*
X121260000Y-110430000D03*
X121260000Y-107890000D03*
X121260000Y-102810000D03*
X121260000Y-100270000D03*
X121260000Y-97730000D03*
X121260000Y-95190000D03*
D13*
X147070000Y-118060000D03*
D14*
X147070000Y-118060000D03*
D22*
X82697500Y-105040000D03*
D23*
X82697500Y-110040000D03*
D24*
X140172500Y-82300000D03*
D23*
X140172500Y-77300000D03*
X140172500Y-72300000D03*
X140172500Y-67300000D03*
X140172500Y-62300000D03*
X140172500Y-57300000D03*
D15*
X95360000Y-73150000D03*
X80220000Y-79800000D03*
D20*
X131880000Y-113190000D03*
D21*
X131880000Y-110650000D03*
X131880000Y-108110000D03*
X131880000Y-103030000D03*
X131880000Y-100490000D03*
X131880000Y-97950000D03*
X131880000Y-95410000D03*
D25*
X101600000Y-88160000D03*
D26*
X99060000Y-85620000D03*
X101600000Y-83080000D03*
D15*
X96040000Y-48650000D03*
X129130000Y-67920000D03*
X80010000Y-99670000D03*
X129100000Y-75620000D03*
X95420000Y-53050000D03*
X95260000Y-63180000D03*
D27*
X86570000Y-48140000D03*
D23*
X86570000Y-53140000D03*
X86570000Y-58140000D03*
X86570000Y-63140000D03*
X86570000Y-68140000D03*
X86570000Y-73140000D03*
D15*
X80240000Y-94910000D03*
X80150000Y-84670000D03*
X106530000Y-118900000D03*
D13*
X80500000Y-118500000D03*
D14*
X80500000Y-118500000D03*
D28*
X116940000Y-99957500D03*
X116940000Y-97882500D03*
X135380000Y-99187500D03*
X135380000Y-97112500D03*
D29*
X117020000Y-109837500D03*
X117020000Y-112962500D03*
D28*
X111810000Y-89165000D03*
X111810000Y-87090000D03*
D29*
X91750000Y-105457500D03*
X91750000Y-108582500D03*
D30*
X115868900Y-89693600D03*
X115868900Y-87991800D03*
X115868900Y-86290000D03*
X115868900Y-84588200D03*
X115868900Y-82886400D03*
D31*
X124670000Y-86290000D03*
D29*
X136770000Y-110007500D03*
X136770000Y-113132500D03*
D32*
X111700000Y-83510000D03*
X111700000Y-85235000D03*
%LPD*%
M02*
