M48
; DRILL file {KiCad 9.0.6} date 2026-01-23T12:37:45-0600
; FORMAT={-:-/ absolute / metric / decimal}
; #@! TF.CreationDate,2026-01-23T12:37:45-06:00
; #@! TF.GenerationSoftware,Kicad,Pcbnew,9.0.6
; #@! TF.FileFunction,Plated,1,4,PTH
FMAT,2
METRIC
; #@! TA.AperFunction,Plated,PTH,ViaDrill
T1C0.300
; #@! TA.AperFunction,Plated,PTH,ComponentDrill
T2C0.714
; #@! TA.AperFunction,Plated,PTH,ComponentDrill
T3C0.890
; #@! TA.AperFunction,Plated,PTH,ComponentDrill
T4C1.000
; #@! TA.AperFunction,Plated,PTH,ComponentDrill
T5C1.300
; #@! TA.AperFunction,Plated,PTH,ComponentDrill
T6C1.570
; #@! TA.AperFunction,Plated,PTH,ComponentDrill
T7C3.200
%
G90
G05
T1
X100.91Y-70.36
X101.6Y-59.73
X101.6Y-70.36
X102.2Y-59.73
X102.36Y-73.24
X103.28Y-73.24
X106.36Y-57.29
X106.58Y-59.75
X106.77Y-70.4
X107.01Y-57.29
X107.37Y-70.42
X107.42Y-59.77
X112.71Y-53.94
X112.71Y-54.67
X116.51Y-70.43
X116.54Y-59.83
X116.54Y-69.67
X116.54Y-71.06
X117.28Y-59.83
X118.07Y-63.78
X118.72Y-64.35
X121.28Y-69.74
X121.28Y-70.38
X122.305Y-59.655
X122.76Y-59.2
T2
X99.06Y-85.62
X101.6Y-83.08
X101.6Y-88.16
T3
X119.84Y-46.055
X120.856Y-47.835
X121.872Y-46.055
X122.888Y-47.835
X123.904Y-46.055
X124.92Y-47.835
X125.936Y-46.055
X126.952Y-47.835
T4
X80.01Y-99.67
X80.15Y-84.67
X80.2Y-89.42
X80.22Y-79.8
X80.24Y-94.91
X95.26Y-58.0
X95.26Y-63.18
X95.31Y-67.65
X95.36Y-73.15
X95.42Y-53.05
X96.04Y-48.65
X101.73Y-118.82
X106.53Y-118.9
X121.26Y-95.19
X121.26Y-97.73
X121.26Y-100.27
X121.26Y-102.81
X121.26Y-107.89
X121.26Y-110.43
X121.26Y-112.97
X129.07Y-71.89
X129.1Y-75.62
X129.13Y-67.92
X129.18Y-57.43
X129.21Y-61.21
X131.88Y-95.41
X131.88Y-97.95
X131.88Y-100.49
X131.88Y-103.03
X131.88Y-108.11
X131.88Y-110.65
X131.88Y-113.19
T5
X82.697Y-105.04
X82.697Y-110.04
X86.57Y-48.14
X86.57Y-53.14
X86.57Y-58.14
X86.57Y-63.14
X86.57Y-68.14
X86.57Y-73.14
X140.172Y-57.3
X140.172Y-62.3
X140.172Y-67.3
X140.172Y-72.3
X140.172Y-77.3
X140.172Y-82.3
T6
X115.27Y-46.945
X131.53Y-46.945
T7
X80.5Y-41.0
X80.5Y-118.5
X146.94Y-41.18
X147.07Y-118.06
M30
