G04 #@! TF.GenerationSoftware,KiCad,Pcbnew,9.0.6*
G04 #@! TF.CreationDate,2026-01-23T12:37:49-06:00*
G04 #@! TF.ProjectId,aei,6165692e-6b69-4636-9164-5f7063625858,rev?*
G04 #@! TF.SameCoordinates,Original*
G04 #@! TF.FileFunction,Copper,L2,Inr*
G04 #@! TF.FilePolarity,Positive*
%FSLAX46Y46*%
G04 Gerber Fmt 4.6, Leading zero omitted, Abs format (unit mm)*
G04 Created by KiCad (PCBNEW 9.0.6) date 2026-01-23 12:37:49*
%MOMM*%
%LPD*%
G01*
G04 APERTURE LIST*
G04 Aperture macros list*
%AMRoundRect*
0 Rectangle with rounded corners*
0 $1 Rounding radius*
0 $2 $3 $4 $5 $6 $7 $8 $9 X,Y pos of 4 corners*
0 Add a 4 corners polygon primitive as box body*
4,1,4,$2,$3,$4,$5,$6,$7,$8,$9,$2,$3,0*
0 Add four circle primitives for the rounded corners*
1,1,$1+$1,$2,$3*
1,1,$1+$1,$4,$5*
1,1,$1+$1,$6,$7*
1,1,$1+$1,$8,$9*
0 Add four rect primitives between the rounded corners*
20,1,$1+$1,$2,$3,$4,$5,0*
20,1,$1+$1,$4,$5,$6,$7,0*
20,1,$1+$1,$6,$7,$8,$9,0*
20,1,$1+$1,$8,$9,$2,$3,0*%
G04 Aperture macros list end*
G04 #@! TA.AperFunction,ComponentPad*
%ADD10C,3.600000*%
G04 #@! TD*
G04 #@! TA.AperFunction,ComponentPad*
%ADD11C,2.000000*%
G04 #@! TD*
G04 #@! TA.AperFunction,ComponentPad*
%ADD12R,1.500000X1.500000*%
G04 #@! TD*
G04 #@! TA.AperFunction,ComponentPad*
%ADD13C,1.500000*%
G04 #@! TD*
G04 #@! TA.AperFunction,ComponentPad*
%ADD14C,2.300000*%
G04 #@! TD*
G04 #@! TA.AperFunction,ComponentPad*
%ADD15R,1.508000X1.508000*%
G04 #@! TD*
G04 #@! TA.AperFunction,ComponentPad*
%ADD16C,1.508000*%
G04 #@! TD*
G04 #@! TA.AperFunction,ComponentPad*
%ADD17RoundRect,0.250000X-1.050000X1.050000X-1.050000X-1.050000X1.050000X-1.050000X1.050000X1.050000X0*%
G04 #@! TD*
G04 #@! TA.AperFunction,ComponentPad*
%ADD18C,2.600000*%
G04 #@! TD*
G04 #@! TA.AperFunction,ComponentPad*
%ADD19RoundRect,0.250000X1.050000X-1.050000X1.050000X1.050000X-1.050000X1.050000X-1.050000X-1.050000X0*%
G04 #@! TD*
G04 #@! TA.AperFunction,ComponentPad*
%ADD20R,1.222000X1.222000*%
G04 #@! TD*
G04 #@! TA.AperFunction,ComponentPad*
%ADD21C,1.222000*%
G04 #@! TD*
G04 #@! TA.AperFunction,ComponentPad*
%ADD22R,2.600000X2.600000*%
G04 #@! TD*
G04 #@! TA.AperFunction,ViaPad*
%ADD23C,0.600000*%
G04 #@! TD*
G04 APERTURE END LIST*
D10*
X80500000Y-41000000D03*
D11*
X129180000Y-57430000D03*
D10*
X146940000Y-41180000D03*
D12*
X119840000Y-46055000D03*
D13*
X120856000Y-47835000D03*
X121872000Y-46055000D03*
X122888000Y-47835000D03*
X123904000Y-46055000D03*
X124920000Y-47835000D03*
X125936000Y-46055000D03*
X126952000Y-47835000D03*
D14*
X115270000Y-46945000D03*
X131530000Y-46945000D03*
D11*
X95310000Y-67650000D03*
X129070000Y-71890000D03*
X129210000Y-61210000D03*
X95260000Y-58000000D03*
X101730000Y-118820000D03*
X80200000Y-89420000D03*
D15*
X121260000Y-112970000D03*
D16*
X121260000Y-110430000D03*
X121260000Y-107890000D03*
X121260000Y-102810000D03*
X121260000Y-100270000D03*
X121260000Y-97730000D03*
X121260000Y-95190000D03*
D10*
X147070000Y-118060000D03*
D17*
X82697500Y-105040000D03*
D18*
X82697500Y-110040000D03*
D19*
X140172500Y-82300000D03*
D18*
X140172500Y-77300000D03*
X140172500Y-72300000D03*
X140172500Y-67300000D03*
X140172500Y-62300000D03*
X140172500Y-57300000D03*
D11*
X95360000Y-73150000D03*
X80220000Y-79800000D03*
D15*
X131880000Y-113190000D03*
D16*
X131880000Y-110650000D03*
X131880000Y-108110000D03*
X131880000Y-103030000D03*
X131880000Y-100490000D03*
X131880000Y-97950000D03*
X131880000Y-95410000D03*
D20*
X101600000Y-88160000D03*
D21*
X99060000Y-85620000D03*
X101600000Y-83080000D03*
D11*
X96040000Y-48650000D03*
X129130000Y-67920000D03*
X80010000Y-99670000D03*
X129100000Y-75620000D03*
X95420000Y-53050000D03*
X95260000Y-63180000D03*
D22*
X86570000Y-48140000D03*
D18*
X86570000Y-53140000D03*
X86570000Y-58140000D03*
X86570000Y-63140000D03*
X86570000Y-68140000D03*
X86570000Y-73140000D03*
D11*
X80240000Y-94910000D03*
X80150000Y-84670000D03*
X106530000Y-118900000D03*
D10*
X80500000Y-118500000D03*
D23*
X103280000Y-73240000D03*
X100910000Y-70360000D03*
X121280000Y-69740000D03*
X101600000Y-70360000D03*
X122760000Y-59200000D03*
X118720000Y-64350000D03*
X112710000Y-54670000D03*
X101600000Y-59730000D03*
X112710000Y-53940000D03*
X122305000Y-59655000D03*
X102200000Y-59730000D03*
X121280000Y-70380000D03*
X102360000Y-73240000D03*
X118070000Y-63780000D03*
X116540000Y-69670000D03*
X117280000Y-59830000D03*
X116540000Y-59830000D03*
X116510000Y-70430000D03*
X116540000Y-71060000D03*
X106770000Y-70400000D03*
X107370000Y-70420000D03*
X106580000Y-59750000D03*
X107420000Y-59770000D03*
X107010000Y-57290000D03*
X106360000Y-57290000D03*
G04 #@! TA.AperFunction,Conductor*
G36*
X150322539Y-38020185D02*
G01*
X150368294Y-38072989D01*
X150379500Y-38124500D01*
X150379500Y-104815586D01*
X150359815Y-104882625D01*
X150307011Y-104928380D01*
X150255332Y-104939586D01*
X84621831Y-104850748D01*
X84554818Y-104830973D01*
X84509135Y-104778107D01*
X84497999Y-104726748D01*
X84497999Y-103939998D01*
X84497998Y-103939981D01*
X84487499Y-103837203D01*
X84487498Y-103837200D01*
X84432314Y-103670666D01*
X84340212Y-103521344D01*
X84216156Y-103397288D01*
X84066834Y-103305186D01*
X83900297Y-103250001D01*
X83900295Y-103250000D01*
X83797510Y-103239500D01*
X81597498Y-103239500D01*
X81597481Y-103239501D01*
X81494703Y-103250000D01*
X81494700Y-103250001D01*
X81328168Y-103305185D01*
X81328163Y-103305187D01*
X81178842Y-103397289D01*
X81054789Y-103521342D01*
X80962687Y-103670663D01*
X80962686Y-103670666D01*
X80907501Y-103837203D01*
X80907501Y-103837204D01*
X80907500Y-103837204D01*
X80897000Y-103939983D01*
X80897000Y-104721538D01*
X80877315Y-104788577D01*
X80824511Y-104834332D01*
X80772832Y-104845538D01*
X77624332Y-104841277D01*
X77557319Y-104821502D01*
X77511636Y-104768636D01*
X77500500Y-104717277D01*
X77500500Y-100171263D01*
X120005500Y-100171263D01*
X120005500Y-100368736D01*
X120036389Y-100563763D01*
X120097408Y-100751558D01*
X120097409Y-100751561D01*
X120113817Y-100783763D01*
X120187058Y-100927504D01*
X120303115Y-101087246D01*
X120442753Y-101226884D01*
X120592234Y-101335486D01*
X120602499Y-101342944D01*
X120772404Y-101429516D01*
X120823199Y-101477490D01*
X120839994Y-101545311D01*
X120817456Y-101611446D01*
X120772404Y-101650483D01*
X120680151Y-101697490D01*
X120602495Y-101737058D01*
X120442753Y-101853115D01*
X120303115Y-101992753D01*
X120187058Y-102152495D01*
X120097408Y-102328441D01*
X120036389Y-102516236D01*
X120005500Y-102711263D01*
X120005500Y-102908736D01*
X120036389Y-103103763D01*
X120083905Y-103250000D01*
X120097409Y-103291561D01*
X120151281Y-103397289D01*
X120187058Y-103467504D01*
X120303115Y-103627246D01*
X120442753Y-103766884D01*
X120592234Y-103875486D01*
X120602499Y-103882944D01*
X120778439Y-103972591D01*
X120903637Y-104013270D01*
X120966236Y-104033610D01*
X121161264Y-104064500D01*
X121161269Y-104064500D01*
X121358736Y-104064500D01*
X121553763Y-104033610D01*
X121741561Y-103972591D01*
X121917501Y-103882944D01*
X122007192Y-103817779D01*
X122077246Y-103766884D01*
X122077248Y-103766881D01*
X122077252Y-103766879D01*
X122216879Y-103627252D01*
X122216881Y-103627248D01*
X122216884Y-103627246D01*
X122293825Y-103521344D01*
X122332944Y-103467501D01*
X122422591Y-103291561D01*
X122483610Y-103103763D01*
X122514500Y-102908736D01*
X122514500Y-102711263D01*
X122483610Y-102516236D01*
X122463270Y-102453637D01*
X122422591Y-102328439D01*
X122332944Y-102152499D01*
X122325486Y-102142234D01*
X122216884Y-101992753D01*
X122077246Y-101853115D01*
X121917505Y-101737058D01*
X121871486Y-101713610D01*
X121747593Y-101650482D01*
X121696800Y-101602510D01*
X121680005Y-101534689D01*
X121702542Y-101468554D01*
X121747593Y-101429517D01*
X121917501Y-101342944D01*
X121966627Y-101307252D01*
X122077246Y-101226884D01*
X122077248Y-101226881D01*
X122077252Y-101226879D01*
X122216879Y-101087252D01*
X122216881Y-101087248D01*
X122216884Y-101087246D01*
X122267779Y-101017192D01*
X122332944Y-100927501D01*
X122422591Y-100751561D01*
X122483610Y-100563763D01*
X122510932Y-100391263D01*
X130625500Y-100391263D01*
X130625500Y-100588736D01*
X130656389Y-100783763D01*
X130703093Y-100927501D01*
X130717409Y-100971561D01*
X130807056Y-101147501D01*
X130807058Y-101147504D01*
X130923115Y-101307246D01*
X131062753Y-101446884D01*
X131183609Y-101534689D01*
X131222499Y-101562944D01*
X131392404Y-101649516D01*
X131443199Y-101697490D01*
X131459994Y-101765311D01*
X131437456Y-101831446D01*
X131392404Y-101870483D01*
X131235321Y-101950522D01*
X131222495Y-101957058D01*
X131062753Y-102073115D01*
X130923115Y-102212753D01*
X130807058Y-102372495D01*
X130717408Y-102548441D01*
X130656389Y-102736236D01*
X130625500Y-102931263D01*
X130625500Y-103128736D01*
X130656389Y-103323763D01*
X130703093Y-103467501D01*
X130717409Y-103511561D01*
X130807056Y-103687501D01*
X130807058Y-103687504D01*
X130923115Y-103847246D01*
X131062753Y-103986884D01*
X131212234Y-104095486D01*
X131222499Y-104102944D01*
X131398439Y-104192591D01*
X131523637Y-104233270D01*
X131586236Y-104253610D01*
X131781264Y-104284500D01*
X131781269Y-104284500D01*
X131978736Y-104284500D01*
X132173763Y-104253610D01*
X132361561Y-104192591D01*
X132537501Y-104102944D01*
X132632932Y-104033610D01*
X132697246Y-103986884D01*
X132697248Y-103986881D01*
X132697252Y-103986879D01*
X132836879Y-103847252D01*
X132836881Y-103847248D01*
X132836884Y-103847246D01*
X132895273Y-103766879D01*
X132952944Y-103687501D01*
X133042591Y-103511561D01*
X133103610Y-103323763D01*
X133106552Y-103305186D01*
X133134500Y-103128736D01*
X133134500Y-102931263D01*
X133103610Y-102736236D01*
X133083270Y-102673637D01*
X133042591Y-102548439D01*
X132952944Y-102372499D01*
X132945486Y-102362234D01*
X132836884Y-102212753D01*
X132697246Y-102073115D01*
X132537505Y-101957058D01*
X132531119Y-101953804D01*
X132367593Y-101870482D01*
X132316800Y-101822510D01*
X132300005Y-101754689D01*
X132322542Y-101688554D01*
X132367593Y-101649517D01*
X132537501Y-101562944D01*
X132632932Y-101493610D01*
X132697246Y-101446884D01*
X132697248Y-101446881D01*
X132697252Y-101446879D01*
X132836879Y-101307252D01*
X132836881Y-101307248D01*
X132836884Y-101307246D01*
X132895273Y-101226879D01*
X132952944Y-101147501D01*
X133042591Y-100971561D01*
X133103610Y-100783763D01*
X133108711Y-100751558D01*
X133134500Y-100588736D01*
X133134500Y-100391263D01*
X133103610Y-100196236D01*
X133083270Y-100133637D01*
X133042591Y-100008439D01*
X132952944Y-99832499D01*
X132945486Y-99822234D01*
X132836884Y-99672753D01*
X132697246Y-99533115D01*
X132537504Y-99417058D01*
X132537503Y-99417057D01*
X132537501Y-99417056D01*
X132361561Y-99327409D01*
X132361558Y-99327408D01*
X132173763Y-99266389D01*
X131978736Y-99235500D01*
X131978731Y-99235500D01*
X131781269Y-99235500D01*
X131781264Y-99235500D01*
X131586236Y-99266389D01*
X131398441Y-99327408D01*
X131222495Y-99417058D01*
X131062753Y-99533115D01*
X130923115Y-99672753D01*
X130807058Y-99832495D01*
X130717408Y-100008441D01*
X130656389Y-100196236D01*
X130625500Y-100391263D01*
X122510932Y-100391263D01*
X122514500Y-100368735D01*
X122514500Y-100171263D01*
X122483610Y-99976236D01*
X122463270Y-99913637D01*
X122422591Y-99788439D01*
X122332944Y-99612499D01*
X122325486Y-99602234D01*
X122216884Y-99452753D01*
X122077246Y-99313115D01*
X121917504Y-99197058D01*
X121917503Y-99197057D01*
X121917501Y-99197056D01*
X121741561Y-99107409D01*
X121741558Y-99107408D01*
X121553763Y-99046389D01*
X121358736Y-99015500D01*
X121358731Y-99015500D01*
X121161269Y-99015500D01*
X121161264Y-99015500D01*
X120966236Y-99046389D01*
X120778441Y-99107408D01*
X120602495Y-99197058D01*
X120442753Y-99313115D01*
X120303115Y-99452753D01*
X120187058Y-99612495D01*
X120097408Y-99788441D01*
X120036389Y-99976236D01*
X120005500Y-100171263D01*
X77500500Y-100171263D01*
X77500500Y-94791902D01*
X78739500Y-94791902D01*
X78739500Y-95028097D01*
X78776446Y-95261368D01*
X78849433Y-95485996D01*
X78943984Y-95671561D01*
X78956657Y-95696433D01*
X79095483Y-95887510D01*
X79262490Y-96054517D01*
X79453567Y-96193343D01*
X79552991Y-96244002D01*
X79664003Y-96300566D01*
X79664005Y-96300566D01*
X79664008Y-96300568D01*
X79784412Y-96339689D01*
X79888631Y-96373553D01*
X80121903Y-96410500D01*
X80121908Y-96410500D01*
X80358097Y-96410500D01*
X80591368Y-96373553D01*
X80655882Y-96352591D01*
X80815992Y-96300568D01*
X81026433Y-96193343D01*
X81217510Y-96054517D01*
X81384517Y-95887510D01*
X81523343Y-95696433D01*
X81630568Y-95485992D01*
X81703553Y-95261368D01*
X81730496Y-95091263D01*
X120005500Y-95091263D01*
X120005500Y-95288736D01*
X120036389Y-95483763D01*
X120097408Y-95671558D01*
X120097409Y-95671561D01*
X120113817Y-95703763D01*
X120187058Y-95847504D01*
X120303115Y-96007246D01*
X120442753Y-96146884D01*
X120592234Y-96255486D01*
X120602499Y-96262944D01*
X120778439Y-96352591D01*
X120903637Y-96393270D01*
X120966236Y-96413610D01*
X121161264Y-96444500D01*
X121161269Y-96444500D01*
X121358736Y-96444500D01*
X121553763Y-96413610D01*
X121741561Y-96352591D01*
X121917501Y-96262944D01*
X122013301Y-96193342D01*
X122077246Y-96146884D01*
X122077248Y-96146881D01*
X122077252Y-96146879D01*
X122216879Y-96007252D01*
X122216881Y-96007248D01*
X122216884Y-96007246D01*
X122267779Y-95937192D01*
X122332944Y-95847501D01*
X122422591Y-95671561D01*
X122483610Y-95483763D01*
X122510932Y-95311263D01*
X130625500Y-95311263D01*
X130625500Y-95508736D01*
X130656389Y-95703763D01*
X130703093Y-95847501D01*
X130717409Y-95891561D01*
X130807056Y-96067501D01*
X130807058Y-96067504D01*
X130923115Y-96227246D01*
X131062753Y-96366884D01*
X131212234Y-96475486D01*
X131222499Y-96482944D01*
X131398439Y-96572591D01*
X131523637Y-96613270D01*
X131586236Y-96633610D01*
X131781264Y-96664500D01*
X131781269Y-96664500D01*
X131978736Y-96664500D01*
X132173763Y-96633610D01*
X132361561Y-96572591D01*
X132537501Y-96482944D01*
X132632932Y-96413610D01*
X132697246Y-96366884D01*
X132697248Y-96366881D01*
X132697252Y-96366879D01*
X132836879Y-96227252D01*
X132836881Y-96227248D01*
X132836884Y-96227246D01*
X132895273Y-96146879D01*
X132952944Y-96067501D01*
X133042591Y-95891561D01*
X133103610Y-95703763D01*
X133108711Y-95671558D01*
X133134500Y-95508736D01*
X133134500Y-95311263D01*
X133103610Y-95116236D01*
X133074970Y-95028092D01*
X133042591Y-94928439D01*
X132952944Y-94752499D01*
X132945486Y-94742234D01*
X132836884Y-94592753D01*
X132697246Y-94453115D01*
X132537504Y-94337058D01*
X132537503Y-94337057D01*
X132537501Y-94337056D01*
X132361561Y-94247409D01*
X132361558Y-94247408D01*
X132173763Y-94186389D01*
X131978736Y-94155500D01*
X131978731Y-94155500D01*
X131781269Y-94155500D01*
X131781264Y-94155500D01*
X131586236Y-94186389D01*
X131398441Y-94247408D01*
X131222495Y-94337058D01*
X131062753Y-94453115D01*
X130923115Y-94592753D01*
X130807058Y-94752495D01*
X130717408Y-94928441D01*
X130656389Y-95116236D01*
X130625500Y-95311263D01*
X122510932Y-95311263D01*
X122514500Y-95288735D01*
X122514500Y-95091263D01*
X122483610Y-94896236D01*
X122463270Y-94833637D01*
X122422591Y-94708439D01*
X122332944Y-94532499D01*
X122325486Y-94522234D01*
X122216884Y-94372753D01*
X122077246Y-94233115D01*
X121917504Y-94117058D01*
X121917503Y-94117057D01*
X121917501Y-94117056D01*
X121741561Y-94027409D01*
X121741558Y-94027408D01*
X121553763Y-93966389D01*
X121358736Y-93935500D01*
X121358731Y-93935500D01*
X121161269Y-93935500D01*
X121161264Y-93935500D01*
X120966236Y-93966389D01*
X120778441Y-94027408D01*
X120602495Y-94117058D01*
X120442753Y-94233115D01*
X120303115Y-94372753D01*
X120187058Y-94532495D01*
X120097408Y-94708441D01*
X120036389Y-94896236D01*
X120005500Y-95091263D01*
X81730496Y-95091263D01*
X81734321Y-95067111D01*
X81734338Y-95067000D01*
X81740500Y-95028092D01*
X81740500Y-94791902D01*
X81703553Y-94558631D01*
X81630566Y-94334003D01*
X81555352Y-94186389D01*
X81523343Y-94123567D01*
X81384517Y-93932490D01*
X81217510Y-93765483D01*
X81026433Y-93626657D01*
X80815996Y-93519433D01*
X80591368Y-93446446D01*
X80358097Y-93409500D01*
X80358092Y-93409500D01*
X80121908Y-93409500D01*
X80121903Y-93409500D01*
X79888631Y-93446446D01*
X79664003Y-93519433D01*
X79453566Y-93626657D01*
X79344550Y-93705862D01*
X79262490Y-93765483D01*
X79262488Y-93765485D01*
X79262487Y-93765485D01*
X79095485Y-93932487D01*
X79095485Y-93932488D01*
X79095483Y-93932490D01*
X79070854Y-93966389D01*
X78956657Y-94123566D01*
X78849433Y-94334003D01*
X78776446Y-94558631D01*
X78739500Y-94791902D01*
X77500500Y-94791902D01*
X77500500Y-89301902D01*
X78699500Y-89301902D01*
X78699500Y-89538097D01*
X78736446Y-89771368D01*
X78809433Y-89995996D01*
X78916657Y-90206433D01*
X79055483Y-90397510D01*
X79222490Y-90564517D01*
X79413567Y-90703343D01*
X79512991Y-90754002D01*
X79624003Y-90810566D01*
X79624005Y-90810566D01*
X79624008Y-90810568D01*
X79744412Y-90849689D01*
X79848631Y-90883553D01*
X80081903Y-90920500D01*
X80081908Y-90920500D01*
X80318097Y-90920500D01*
X80551368Y-90883553D01*
X80775992Y-90810568D01*
X80986433Y-90703343D01*
X81177510Y-90564517D01*
X81344517Y-90397510D01*
X81483343Y-90206433D01*
X81590568Y-89995992D01*
X81663553Y-89771368D01*
X81700500Y-89538097D01*
X81700500Y-89301902D01*
X81663553Y-89068631D01*
X81590566Y-88844003D01*
X81483342Y-88633566D01*
X81344517Y-88442490D01*
X81177510Y-88275483D01*
X80986433Y-88136657D01*
X80775996Y-88029433D01*
X80551368Y-87956446D01*
X80318097Y-87919500D01*
X80318092Y-87919500D01*
X80081908Y-87919500D01*
X80081903Y-87919500D01*
X79848631Y-87956446D01*
X79624003Y-88029433D01*
X79413566Y-88136657D01*
X79304550Y-88215862D01*
X79222490Y-88275483D01*
X79222488Y-88275485D01*
X79222487Y-88275485D01*
X79055485Y-88442487D01*
X79055485Y-88442488D01*
X79055483Y-88442490D01*
X78995862Y-88524550D01*
X78916657Y-88633566D01*
X78809433Y-88844003D01*
X78736446Y-89068631D01*
X78699500Y-89301902D01*
X77500500Y-89301902D01*
X77500500Y-84551902D01*
X78649500Y-84551902D01*
X78649500Y-84788097D01*
X78686446Y-85021368D01*
X78759433Y-85245996D01*
X78817382Y-85359726D01*
X78866657Y-85456433D01*
X79005483Y-85647510D01*
X79172490Y-85814517D01*
X79363567Y-85953343D01*
X79462991Y-86004002D01*
X79574003Y-86060566D01*
X79574005Y-86060566D01*
X79574008Y-86060568D01*
X79694412Y-86099689D01*
X79798631Y-86133553D01*
X80031903Y-86170500D01*
X80031908Y-86170500D01*
X80268097Y-86170500D01*
X80501368Y-86133553D01*
X80725992Y-86060568D01*
X80936433Y-85953343D01*
X81127510Y-85814517D01*
X81294517Y-85647510D01*
X81378060Y-85532523D01*
X97948500Y-85532523D01*
X97948500Y-85707476D01*
X97965453Y-85814517D01*
X97975869Y-85880277D01*
X97999609Y-85953342D01*
X98029934Y-86046670D01*
X98109362Y-86202557D01*
X98212189Y-86344087D01*
X98212193Y-86344092D01*
X98335907Y-86467806D01*
X98335912Y-86467810D01*
X98477442Y-86570637D01*
X98477444Y-86570638D01*
X98477447Y-86570640D01*
X98633332Y-86650067D01*
X98799723Y-86704131D01*
X98972523Y-86731500D01*
X98972524Y-86731500D01*
X99147476Y-86731500D01*
X99147477Y-86731500D01*
X99320277Y-86704131D01*
X99486668Y-86650067D01*
X99642553Y-86570640D01*
X99784094Y-86467805D01*
X99907805Y-86344094D01*
X100010640Y-86202553D01*
X100090067Y-86046668D01*
X100144131Y-85880277D01*
X100171500Y-85707477D01*
X100171500Y-85532523D01*
X100144131Y-85359723D01*
X100090067Y-85193332D01*
X100010640Y-85037447D01*
X100010638Y-85037444D01*
X100010637Y-85037442D01*
X99907810Y-84895912D01*
X99907806Y-84895907D01*
X99784092Y-84772193D01*
X99784087Y-84772189D01*
X99642557Y-84669362D01*
X99486670Y-84589934D01*
X99486669Y-84589933D01*
X99486668Y-84589933D01*
X99320277Y-84535869D01*
X99320275Y-84535868D01*
X99320274Y-84535868D01*
X99187533Y-84514844D01*
X99147477Y-84508500D01*
X98972523Y-84508500D01*
X98932466Y-84514844D01*
X98799726Y-84535868D01*
X98633329Y-84589934D01*
X98477442Y-84669362D01*
X98335912Y-84772189D01*
X98335907Y-84772193D01*
X98212193Y-84895907D01*
X98212189Y-84895912D01*
X98109362Y-85037442D01*
X98029934Y-85193329D01*
X97975868Y-85359726D01*
X97948500Y-85532523D01*
X81378060Y-85532523D01*
X81433343Y-85456433D01*
X81540568Y-85245992D01*
X81613553Y-85021368D01*
X81650500Y-84788097D01*
X81650500Y-84551902D01*
X81613553Y-84318631D01*
X81542677Y-84100499D01*
X81540568Y-84094008D01*
X81540566Y-84094005D01*
X81540566Y-84094003D01*
X81433342Y-83883566D01*
X81294517Y-83692490D01*
X81127510Y-83525483D01*
X80936433Y-83386657D01*
X80725996Y-83279433D01*
X80501368Y-83206446D01*
X80268097Y-83169500D01*
X80268092Y-83169500D01*
X80031908Y-83169500D01*
X80031903Y-83169500D01*
X79798631Y-83206446D01*
X79574003Y-83279433D01*
X79363566Y-83386657D01*
X79254550Y-83465862D01*
X79172490Y-83525483D01*
X79172488Y-83525485D01*
X79172487Y-83525485D01*
X79005485Y-83692487D01*
X79005485Y-83692488D01*
X79005483Y-83692490D01*
X78945862Y-83774550D01*
X78866657Y-83883566D01*
X78759433Y-84094003D01*
X78686446Y-84318631D01*
X78649500Y-84551902D01*
X77500500Y-84551902D01*
X77500500Y-82992523D01*
X100488500Y-82992523D01*
X100488500Y-83167477D01*
X100515869Y-83340277D01*
X100568675Y-83502797D01*
X100569934Y-83506670D01*
X100649362Y-83662557D01*
X100752189Y-83804087D01*
X100752193Y-83804092D01*
X100875907Y-83927806D01*
X100875912Y-83927810D01*
X101017442Y-84030637D01*
X101017444Y-84030638D01*
X101017447Y-84030640D01*
X101173332Y-84110067D01*
X101339723Y-84164131D01*
X101512523Y-84191500D01*
X101512524Y-84191500D01*
X101687476Y-84191500D01*
X101687477Y-84191500D01*
X101860277Y-84164131D01*
X102026668Y-84110067D01*
X102182553Y-84030640D01*
X102324094Y-83927805D01*
X102447805Y-83804094D01*
X102550640Y-83662553D01*
X102630067Y-83506668D01*
X102684131Y-83340277D01*
X102711500Y-83167477D01*
X102711500Y-82992523D01*
X102684131Y-82819723D01*
X102630067Y-82653332D01*
X102550640Y-82497447D01*
X102550638Y-82497444D01*
X102550637Y-82497442D01*
X102447810Y-82355912D01*
X102447806Y-82355907D01*
X102324092Y-82232193D01*
X102324087Y-82232189D01*
X102182557Y-82129362D01*
X102026670Y-82049934D01*
X102026669Y-82049933D01*
X102026668Y-82049933D01*
X101860277Y-81995869D01*
X101860275Y-81995868D01*
X101860274Y-81995868D01*
X101727533Y-81974844D01*
X101687477Y-81968500D01*
X101512523Y-81968500D01*
X101472466Y-81974844D01*
X101339726Y-81995868D01*
X101173329Y-82049934D01*
X101017442Y-82129362D01*
X100875912Y-82232189D01*
X100875907Y-82232193D01*
X100752193Y-82355907D01*
X100752189Y-82355912D01*
X100649362Y-82497442D01*
X100569934Y-82653329D01*
X100515868Y-82819726D01*
X100488500Y-82992523D01*
X77500500Y-82992523D01*
X77500500Y-79681902D01*
X78719500Y-79681902D01*
X78719500Y-79918097D01*
X78756446Y-80151368D01*
X78829433Y-80375996D01*
X78892362Y-80499500D01*
X78936657Y-80586433D01*
X79075483Y-80777510D01*
X79242490Y-80944517D01*
X79433567Y-81083343D01*
X79460769Y-81097203D01*
X79644003Y-81190566D01*
X79644005Y-81190566D01*
X79644008Y-81190568D01*
X79764412Y-81229689D01*
X79868631Y-81263553D01*
X80101903Y-81300500D01*
X80101908Y-81300500D01*
X80338097Y-81300500D01*
X80571368Y-81263553D01*
X80767016Y-81199983D01*
X138372000Y-81199983D01*
X138372000Y-83400001D01*
X138372001Y-83400018D01*
X138382500Y-83502796D01*
X138382501Y-83502799D01*
X138435439Y-83662553D01*
X138437686Y-83669334D01*
X138529788Y-83818656D01*
X138653844Y-83942712D01*
X138803166Y-84034814D01*
X138969703Y-84089999D01*
X139072491Y-84100500D01*
X141272508Y-84100499D01*
X141375297Y-84089999D01*
X141541834Y-84034814D01*
X141691156Y-83942712D01*
X141815212Y-83818656D01*
X141907314Y-83669334D01*
X141962499Y-83502797D01*
X141973000Y-83400009D01*
X141972999Y-81199992D01*
X141962499Y-81097203D01*
X141907314Y-80930666D01*
X141815212Y-80781344D01*
X141691156Y-80657288D01*
X141541834Y-80565186D01*
X141375297Y-80510001D01*
X141375295Y-80510000D01*
X141272510Y-80499500D01*
X139072498Y-80499500D01*
X139072481Y-80499501D01*
X138969703Y-80510000D01*
X138969700Y-80510001D01*
X138803168Y-80565185D01*
X138803163Y-80565187D01*
X138653842Y-80657289D01*
X138529789Y-80781342D01*
X138437687Y-80930663D01*
X138437686Y-80930666D01*
X138382501Y-81097203D01*
X138382501Y-81097204D01*
X138382500Y-81097204D01*
X138372000Y-81199983D01*
X80767016Y-81199983D01*
X80795992Y-81190568D01*
X81006433Y-81083343D01*
X81197510Y-80944517D01*
X81364517Y-80777510D01*
X81503343Y-80586433D01*
X81610568Y-80375992D01*
X81683553Y-80151368D01*
X81720500Y-79918097D01*
X81720500Y-79681902D01*
X81683553Y-79448631D01*
X81610566Y-79224003D01*
X81503342Y-79013566D01*
X81364517Y-78822490D01*
X81197510Y-78655483D01*
X81006433Y-78516657D01*
X80795996Y-78409433D01*
X80571368Y-78336446D01*
X80338097Y-78299500D01*
X80338092Y-78299500D01*
X80101908Y-78299500D01*
X80101903Y-78299500D01*
X79868631Y-78336446D01*
X79644003Y-78409433D01*
X79433566Y-78516657D01*
X79324550Y-78595862D01*
X79242490Y-78655483D01*
X79242488Y-78655485D01*
X79242487Y-78655485D01*
X79075485Y-78822487D01*
X79075485Y-78822488D01*
X79075483Y-78822490D01*
X79015862Y-78904550D01*
X78936657Y-79013566D01*
X78829433Y-79224003D01*
X78756446Y-79448631D01*
X78719500Y-79681902D01*
X77500500Y-79681902D01*
X77500500Y-73021995D01*
X84769500Y-73021995D01*
X84769500Y-73258004D01*
X84769501Y-73258020D01*
X84800306Y-73492010D01*
X84861394Y-73719993D01*
X84951714Y-73938045D01*
X84951719Y-73938056D01*
X84992452Y-74008606D01*
X85069727Y-74142450D01*
X85069729Y-74142453D01*
X85069730Y-74142454D01*
X85213406Y-74329697D01*
X85213412Y-74329704D01*
X85380295Y-74496587D01*
X85380301Y-74496592D01*
X85567550Y-74640273D01*
X85698918Y-74716118D01*
X85771943Y-74758280D01*
X85771948Y-74758282D01*
X85771951Y-74758284D01*
X85990007Y-74848606D01*
X86217986Y-74909693D01*
X86451989Y-74940500D01*
X86451996Y-74940500D01*
X86688004Y-74940500D01*
X86688011Y-74940500D01*
X86922014Y-74909693D01*
X87149993Y-74848606D01*
X87368049Y-74758284D01*
X87572450Y-74640273D01*
X87759699Y-74496592D01*
X87926592Y-74329699D01*
X88070273Y-74142450D01*
X88188284Y-73938049D01*
X88278606Y-73719993D01*
X88339693Y-73492014D01*
X88370500Y-73258011D01*
X88370500Y-73031902D01*
X93859500Y-73031902D01*
X93859500Y-73268097D01*
X93896446Y-73501368D01*
X93969433Y-73725996D01*
X94067410Y-73918284D01*
X94076657Y-73936433D01*
X94215483Y-74127510D01*
X94382490Y-74294517D01*
X94573567Y-74433343D01*
X94672991Y-74484002D01*
X94784003Y-74540566D01*
X94784005Y-74540566D01*
X94784008Y-74540568D01*
X94904412Y-74579689D01*
X95008631Y-74613553D01*
X95241903Y-74650500D01*
X95241908Y-74650500D01*
X95478097Y-74650500D01*
X95711368Y-74613553D01*
X95935992Y-74540568D01*
X96146433Y-74433343D01*
X96337510Y-74294517D01*
X96504517Y-74127510D01*
X96643343Y-73936433D01*
X96750568Y-73725992D01*
X96823553Y-73501368D01*
X96825401Y-73489699D01*
X96860500Y-73268097D01*
X96860500Y-73031902D01*
X96823553Y-72798631D01*
X96750566Y-72574003D01*
X96671088Y-72418020D01*
X96643343Y-72363567D01*
X96504517Y-72172490D01*
X96337510Y-72005483D01*
X96146433Y-71866657D01*
X96134347Y-71860499D01*
X95935996Y-71759433D01*
X95711368Y-71686446D01*
X95478097Y-71649500D01*
X95478092Y-71649500D01*
X95241908Y-71649500D01*
X95241903Y-71649500D01*
X95008631Y-71686446D01*
X94784003Y-71759433D01*
X94573566Y-71866657D01*
X94464550Y-71945862D01*
X94382490Y-72005483D01*
X94382488Y-72005485D01*
X94382487Y-72005485D01*
X94215485Y-72172487D01*
X94215485Y-72172488D01*
X94215483Y-72172490D01*
X94165440Y-72241368D01*
X94076657Y-72363566D01*
X93969433Y-72574003D01*
X93896446Y-72798631D01*
X93859500Y-73031902D01*
X88370500Y-73031902D01*
X88370500Y-73021989D01*
X88339693Y-72787986D01*
X88278606Y-72560007D01*
X88188284Y-72341951D01*
X88188282Y-72341948D01*
X88188280Y-72341943D01*
X88095933Y-72181995D01*
X88070273Y-72137550D01*
X87926592Y-71950301D01*
X87926587Y-71950295D01*
X87759704Y-71783412D01*
X87759697Y-71783406D01*
X87572454Y-71639730D01*
X87572453Y-71639729D01*
X87572450Y-71639727D01*
X87490957Y-71592677D01*
X87368056Y-71521719D01*
X87368045Y-71521714D01*
X87149993Y-71431394D01*
X86922010Y-71370306D01*
X86688020Y-71339501D01*
X86688017Y-71339500D01*
X86688011Y-71339500D01*
X86451989Y-71339500D01*
X86451983Y-71339500D01*
X86451979Y-71339501D01*
X86217989Y-71370306D01*
X85990006Y-71431394D01*
X85771954Y-71521714D01*
X85771943Y-71521719D01*
X85567545Y-71639730D01*
X85380302Y-71783406D01*
X85380295Y-71783412D01*
X85213412Y-71950295D01*
X85213406Y-71950302D01*
X85069730Y-72137545D01*
X84951719Y-72341943D01*
X84951714Y-72341954D01*
X84861394Y-72560006D01*
X84800306Y-72787989D01*
X84769501Y-73021979D01*
X84769500Y-73021995D01*
X77500500Y-73021995D01*
X77500500Y-70321153D01*
X105969500Y-70321153D01*
X105969500Y-70478846D01*
X106000261Y-70633489D01*
X106000264Y-70633501D01*
X106060602Y-70779172D01*
X106060609Y-70779185D01*
X106148210Y-70910288D01*
X106148213Y-70910292D01*
X106259707Y-71021786D01*
X106259711Y-71021789D01*
X106390814Y-71109390D01*
X106390827Y-71109397D01*
X106536498Y-71169735D01*
X106536503Y-71169737D01*
X106691153Y-71200499D01*
X106691156Y-71200500D01*
X106691158Y-71200500D01*
X106848844Y-71200500D01*
X106848845Y-71200499D01*
X107003497Y-71169737D01*
X107003507Y-71169732D01*
X107009325Y-71167969D01*
X107010123Y-71170600D01*
X107067798Y-71164363D01*
X107093309Y-71171845D01*
X107136503Y-71189737D01*
X107291153Y-71220499D01*
X107291156Y-71220500D01*
X107291158Y-71220500D01*
X107448844Y-71220500D01*
X107448845Y-71220499D01*
X107603497Y-71189737D01*
X107749179Y-71129394D01*
X107880289Y-71041789D01*
X107991789Y-70930289D01*
X108079394Y-70799179D01*
X108139737Y-70653497D01*
X108170500Y-70498842D01*
X108170500Y-70351153D01*
X115709500Y-70351153D01*
X115709500Y-70508846D01*
X115740260Y-70663488D01*
X115740262Y-70663493D01*
X115740263Y-70663497D01*
X115759022Y-70708786D01*
X115769367Y-70733761D01*
X115776835Y-70803230D01*
X115771742Y-70820582D01*
X115772032Y-70820670D01*
X115770261Y-70826505D01*
X115739500Y-70981153D01*
X115739500Y-71138846D01*
X115770261Y-71293489D01*
X115770264Y-71293501D01*
X115830602Y-71439172D01*
X115830609Y-71439185D01*
X115918210Y-71570288D01*
X115918213Y-71570292D01*
X116029707Y-71681786D01*
X116029711Y-71681789D01*
X116160814Y-71769390D01*
X116160827Y-71769397D01*
X116306498Y-71829735D01*
X116306503Y-71829737D01*
X116461153Y-71860499D01*
X116461156Y-71860500D01*
X116461158Y-71860500D01*
X116618844Y-71860500D01*
X116618845Y-71860499D01*
X116773497Y-71829737D01*
X116913124Y-71771902D01*
X127569500Y-71771902D01*
X127569500Y-72008097D01*
X127606446Y-72241368D01*
X127679433Y-72465996D01*
X127774213Y-72652010D01*
X127786657Y-72676433D01*
X127925483Y-72867510D01*
X128092490Y-73034517D01*
X128283567Y-73173343D01*
X128382991Y-73224002D01*
X128494003Y-73280566D01*
X128494005Y-73280566D01*
X128494008Y-73280568D01*
X128561354Y-73302450D01*
X128718631Y-73353553D01*
X128951903Y-73390500D01*
X128951908Y-73390500D01*
X129188097Y-73390500D01*
X129421368Y-73353553D01*
X129645992Y-73280568D01*
X129856433Y-73173343D01*
X130047510Y-73034517D01*
X130214517Y-72867510D01*
X130353343Y-72676433D01*
X130460568Y-72465992D01*
X130533553Y-72241368D01*
X130542957Y-72181995D01*
X138372000Y-72181995D01*
X138372000Y-72418004D01*
X138372001Y-72418020D01*
X138402806Y-72652010D01*
X138463894Y-72879993D01*
X138554214Y-73098045D01*
X138554219Y-73098056D01*
X138597686Y-73173342D01*
X138672227Y-73302450D01*
X138672229Y-73302453D01*
X138672230Y-73302454D01*
X138815906Y-73489697D01*
X138815912Y-73489704D01*
X138982795Y-73656587D01*
X138982801Y-73656592D01*
X139170050Y-73800273D01*
X139301418Y-73876118D01*
X139374443Y-73918280D01*
X139374448Y-73918282D01*
X139374451Y-73918284D01*
X139592507Y-74008606D01*
X139820486Y-74069693D01*
X140054489Y-74100500D01*
X140054496Y-74100500D01*
X140290504Y-74100500D01*
X140290511Y-74100500D01*
X140524514Y-74069693D01*
X140752493Y-74008606D01*
X140970549Y-73918284D01*
X141174950Y-73800273D01*
X141362199Y-73656592D01*
X141529092Y-73489699D01*
X141672773Y-73302450D01*
X141790784Y-73098049D01*
X141881106Y-72879993D01*
X141942193Y-72652014D01*
X141973000Y-72418011D01*
X141973000Y-72181989D01*
X141942193Y-71947986D01*
X141881106Y-71720007D01*
X141790784Y-71501951D01*
X141790782Y-71501948D01*
X141790780Y-71501943D01*
X141714779Y-71370307D01*
X141672773Y-71297550D01*
X141543743Y-71129394D01*
X141529093Y-71110302D01*
X141529087Y-71110295D01*
X141362204Y-70943412D01*
X141362197Y-70943406D01*
X141174954Y-70799730D01*
X141174953Y-70799729D01*
X141174950Y-70799727D01*
X141060694Y-70733761D01*
X140970556Y-70681719D01*
X140970545Y-70681714D01*
X140752493Y-70591394D01*
X140524510Y-70530306D01*
X140290520Y-70499501D01*
X140290517Y-70499500D01*
X140290511Y-70499500D01*
X140054489Y-70499500D01*
X140054483Y-70499500D01*
X140054479Y-70499501D01*
X139820489Y-70530306D01*
X139592506Y-70591394D01*
X139374454Y-70681714D01*
X139374443Y-70681719D01*
X139170045Y-70799730D01*
X138982802Y-70943406D01*
X138982795Y-70943412D01*
X138815912Y-71110295D01*
X138815906Y-71110302D01*
X138672230Y-71297545D01*
X138554219Y-71501943D01*
X138554214Y-71501954D01*
X138463894Y-71720006D01*
X138402806Y-71947989D01*
X138372001Y-72181979D01*
X138372000Y-72181995D01*
X130542957Y-72181995D01*
X130549997Y-72137545D01*
X130570500Y-72008097D01*
X130570500Y-71771902D01*
X130533553Y-71538631D01*
X130460566Y-71314003D01*
X130384320Y-71164363D01*
X130353343Y-71103567D01*
X130214517Y-70912490D01*
X130047510Y-70745483D01*
X129856433Y-70606657D01*
X129826478Y-70591394D01*
X129645996Y-70499433D01*
X129421368Y-70426446D01*
X129188097Y-70389500D01*
X129188092Y-70389500D01*
X128951908Y-70389500D01*
X128951903Y-70389500D01*
X128718631Y-70426446D01*
X128494003Y-70499433D01*
X128283566Y-70606657D01*
X128197308Y-70669328D01*
X128092490Y-70745483D01*
X128092488Y-70745485D01*
X128092487Y-70745485D01*
X127925485Y-70912487D01*
X127925485Y-70912488D01*
X127925483Y-70912490D01*
X127912549Y-70930292D01*
X127786657Y-71103566D01*
X127679433Y-71314003D01*
X127606446Y-71538631D01*
X127569500Y-71771902D01*
X116913124Y-71771902D01*
X116919179Y-71769394D01*
X117050289Y-71681789D01*
X117050292Y-71681786D01*
X117052724Y-71679355D01*
X117161786Y-71570292D01*
X117161789Y-71570289D01*
X117249394Y-71439179D01*
X117309737Y-71293497D01*
X117340500Y-71138842D01*
X117340500Y-70981158D01*
X117340500Y-70981155D01*
X117340499Y-70981153D01*
X117326841Y-70912490D01*
X117309737Y-70826503D01*
X117307321Y-70820670D01*
X117280633Y-70756238D01*
X117273164Y-70686769D01*
X117278260Y-70669416D01*
X117277968Y-70669328D01*
X117279732Y-70663507D01*
X117279737Y-70663497D01*
X117310500Y-70508842D01*
X117310500Y-70351158D01*
X117310500Y-70351155D01*
X117310499Y-70351153D01*
X117279738Y-70196510D01*
X117279737Y-70196503D01*
X117253708Y-70133665D01*
X117246240Y-70064196D01*
X117253707Y-70038765D01*
X117309737Y-69903497D01*
X117340500Y-69748842D01*
X117340500Y-69591158D01*
X117340500Y-69591155D01*
X117340499Y-69591153D01*
X117309737Y-69436503D01*
X117309735Y-69436498D01*
X117249397Y-69290827D01*
X117249390Y-69290814D01*
X117161789Y-69159711D01*
X117161786Y-69159707D01*
X117050292Y-69048213D01*
X117050288Y-69048210D01*
X116919185Y-68960609D01*
X116919172Y-68960602D01*
X116773501Y-68900264D01*
X116773489Y-68900261D01*
X116618845Y-68869500D01*
X116618842Y-68869500D01*
X116461158Y-68869500D01*
X116461155Y-68869500D01*
X116306510Y-68900261D01*
X116306498Y-68900264D01*
X116160827Y-68960602D01*
X116160814Y-68960609D01*
X116029711Y-69048210D01*
X116029707Y-69048213D01*
X115918213Y-69159707D01*
X115918210Y-69159711D01*
X115830609Y-69290814D01*
X115830602Y-69290827D01*
X115770264Y-69436498D01*
X115770261Y-69436510D01*
X115739500Y-69591153D01*
X115739500Y-69748846D01*
X115770260Y-69903488D01*
X115770262Y-69903493D01*
X115770263Y-69903497D01*
X115772837Y-69909711D01*
X115796291Y-69966335D01*
X115803758Y-70035804D01*
X115796290Y-70061238D01*
X115740264Y-70196498D01*
X115740261Y-70196510D01*
X115709500Y-70351153D01*
X108170500Y-70351153D01*
X108170500Y-70341158D01*
X108170500Y-70341155D01*
X108170499Y-70341153D01*
X108166521Y-70321153D01*
X108139737Y-70186503D01*
X108131451Y-70166498D01*
X108079397Y-70040827D01*
X108079390Y-70040814D01*
X107991789Y-69909711D01*
X107991786Y-69909707D01*
X107880292Y-69798213D01*
X107880288Y-69798210D01*
X107749185Y-69710609D01*
X107749172Y-69710602D01*
X107603501Y-69650264D01*
X107603489Y-69650261D01*
X107448845Y-69619500D01*
X107448842Y-69619500D01*
X107291158Y-69619500D01*
X107291155Y-69619500D01*
X107136505Y-69650261D01*
X107130670Y-69652032D01*
X107129884Y-69649443D01*
X107071960Y-69655592D01*
X107046690Y-69648154D01*
X107003497Y-69630263D01*
X107003493Y-69630262D01*
X107003488Y-69630260D01*
X106848845Y-69599500D01*
X106848842Y-69599500D01*
X106691158Y-69599500D01*
X106691155Y-69599500D01*
X106536510Y-69630261D01*
X106536498Y-69630264D01*
X106390827Y-69690602D01*
X106390814Y-69690609D01*
X106259711Y-69778210D01*
X106259707Y-69778213D01*
X106148213Y-69889707D01*
X106148210Y-69889711D01*
X106060609Y-70020814D01*
X106060602Y-70020827D01*
X106000264Y-70166498D01*
X106000261Y-70166510D01*
X105969500Y-70321153D01*
X77500500Y-70321153D01*
X77500500Y-68021995D01*
X84769500Y-68021995D01*
X84769500Y-68258004D01*
X84769501Y-68258020D01*
X84800306Y-68492010D01*
X84861394Y-68719993D01*
X84951714Y-68938045D01*
X84951719Y-68938056D01*
X84992452Y-69008606D01*
X85069727Y-69142450D01*
X85069729Y-69142453D01*
X85069730Y-69142454D01*
X85213406Y-69329697D01*
X85213412Y-69329704D01*
X85380295Y-69496587D01*
X85380301Y-69496592D01*
X85567550Y-69640273D01*
X85698918Y-69716118D01*
X85771943Y-69758280D01*
X85771948Y-69758282D01*
X85771951Y-69758284D01*
X85990007Y-69848606D01*
X86217986Y-69909693D01*
X86451989Y-69940500D01*
X86451996Y-69940500D01*
X86688004Y-69940500D01*
X86688011Y-69940500D01*
X86922014Y-69909693D01*
X87149993Y-69848606D01*
X87368049Y-69758284D01*
X87572450Y-69640273D01*
X87759699Y-69496592D01*
X87926592Y-69329699D01*
X88070273Y-69142450D01*
X88188284Y-68938049D01*
X88278606Y-68719993D01*
X88339693Y-68492014D01*
X88370500Y-68258011D01*
X88370500Y-68021989D01*
X88339693Y-67787986D01*
X88278606Y-67560007D01*
X88266964Y-67531902D01*
X93809500Y-67531902D01*
X93809500Y-67768097D01*
X93846446Y-68001368D01*
X93919433Y-68225996D01*
X93958389Y-68302450D01*
X94026657Y-68436433D01*
X94165483Y-68627510D01*
X94332490Y-68794517D01*
X94523567Y-68933343D01*
X94577066Y-68960602D01*
X94734003Y-69040566D01*
X94734005Y-69040566D01*
X94734008Y-69040568D01*
X94854412Y-69079689D01*
X94958631Y-69113553D01*
X95191903Y-69150500D01*
X95191908Y-69150500D01*
X95428097Y-69150500D01*
X95661368Y-69113553D01*
X95885992Y-69040568D01*
X96096433Y-68933343D01*
X96287510Y-68794517D01*
X96454517Y-68627510D01*
X96593343Y-68436433D01*
X96700568Y-68225992D01*
X96773553Y-68001368D01*
X96792777Y-67879993D01*
X96805146Y-67801902D01*
X127629500Y-67801902D01*
X127629500Y-68038097D01*
X127666446Y-68271368D01*
X127739433Y-68495996D01*
X127821259Y-68656587D01*
X127846657Y-68706433D01*
X127985483Y-68897510D01*
X128152490Y-69064517D01*
X128343567Y-69203343D01*
X128442991Y-69254002D01*
X128554003Y-69310566D01*
X128554005Y-69310566D01*
X128554008Y-69310568D01*
X128674412Y-69349689D01*
X128778631Y-69383553D01*
X129011903Y-69420500D01*
X129011908Y-69420500D01*
X129248097Y-69420500D01*
X129481368Y-69383553D01*
X129705992Y-69310568D01*
X129916433Y-69203343D01*
X130107510Y-69064517D01*
X130274517Y-68897510D01*
X130413343Y-68706433D01*
X130520568Y-68495992D01*
X130593553Y-68271368D01*
X130621004Y-68098049D01*
X130630500Y-68038097D01*
X130630500Y-67801902D01*
X130593553Y-67568631D01*
X130520566Y-67344003D01*
X130464631Y-67234225D01*
X130438018Y-67181995D01*
X138372000Y-67181995D01*
X138372000Y-67418004D01*
X138372001Y-67418020D01*
X138402806Y-67652010D01*
X138463894Y-67879993D01*
X138554214Y-68098045D01*
X138554219Y-68098056D01*
X138625177Y-68220957D01*
X138672227Y-68302450D01*
X138672229Y-68302453D01*
X138672230Y-68302454D01*
X138815906Y-68489697D01*
X138815912Y-68489704D01*
X138982795Y-68656587D01*
X138982801Y-68656592D01*
X139170050Y-68800273D01*
X139289955Y-68869500D01*
X139374443Y-68918280D01*
X139374448Y-68918282D01*
X139374451Y-68918284D01*
X139592507Y-69008606D01*
X139820486Y-69069693D01*
X140054489Y-69100500D01*
X140054496Y-69100500D01*
X140290504Y-69100500D01*
X140290511Y-69100500D01*
X140524514Y-69069693D01*
X140752493Y-69008606D01*
X140970549Y-68918284D01*
X141174950Y-68800273D01*
X141362199Y-68656592D01*
X141529092Y-68489699D01*
X141672773Y-68302450D01*
X141790784Y-68098049D01*
X141881106Y-67879993D01*
X141942193Y-67652014D01*
X141973000Y-67418011D01*
X141973000Y-67181989D01*
X141942193Y-66947986D01*
X141881106Y-66720007D01*
X141790784Y-66501951D01*
X141790782Y-66501948D01*
X141790780Y-66501943D01*
X141714779Y-66370307D01*
X141672773Y-66297550D01*
X141587520Y-66186446D01*
X141529093Y-66110302D01*
X141529087Y-66110295D01*
X141362204Y-65943412D01*
X141362197Y-65943406D01*
X141174954Y-65799730D01*
X141174953Y-65799729D01*
X141174950Y-65799727D01*
X141093457Y-65752677D01*
X140970556Y-65681719D01*
X140970545Y-65681714D01*
X140752493Y-65591394D01*
X140524510Y-65530306D01*
X140290520Y-65499501D01*
X140290517Y-65499500D01*
X140290511Y-65499500D01*
X140054489Y-65499500D01*
X140054483Y-65499500D01*
X140054479Y-65499501D01*
X139820489Y-65530306D01*
X139592506Y-65591394D01*
X139374454Y-65681714D01*
X139374443Y-65681719D01*
X139170045Y-65799730D01*
X138982802Y-65943406D01*
X138982795Y-65943412D01*
X138815912Y-66110295D01*
X138815906Y-66110302D01*
X138672230Y-66297545D01*
X138554219Y-66501943D01*
X138554214Y-66501954D01*
X138463894Y-66720006D01*
X138402806Y-66947989D01*
X138372001Y-67181979D01*
X138372000Y-67181995D01*
X130438018Y-67181995D01*
X130415372Y-67137550D01*
X130413343Y-67133567D01*
X130274517Y-66942490D01*
X130107510Y-66775483D01*
X129916433Y-66636657D01*
X129705996Y-66529433D01*
X129481368Y-66456446D01*
X129248097Y-66419500D01*
X129248092Y-66419500D01*
X129011908Y-66419500D01*
X129011903Y-66419500D01*
X128778631Y-66456446D01*
X128554003Y-66529433D01*
X128343566Y-66636657D01*
X128294247Y-66672490D01*
X128152490Y-66775483D01*
X128152488Y-66775485D01*
X128152487Y-66775485D01*
X127985485Y-66942487D01*
X127985485Y-66942488D01*
X127985483Y-66942490D01*
X127925862Y-67024550D01*
X127846657Y-67133566D01*
X127739433Y-67344003D01*
X127666446Y-67568631D01*
X127629500Y-67801902D01*
X96805146Y-67801902D01*
X96808989Y-67777638D01*
X96808989Y-67777637D01*
X96810500Y-67768098D01*
X96810500Y-67531902D01*
X96773553Y-67298631D01*
X96719920Y-67133567D01*
X96700568Y-67074008D01*
X96700566Y-67074005D01*
X96700566Y-67074003D01*
X96593342Y-66863566D01*
X96454517Y-66672490D01*
X96287510Y-66505483D01*
X96096433Y-66366657D01*
X95885996Y-66259433D01*
X95661368Y-66186446D01*
X95428097Y-66149500D01*
X95428092Y-66149500D01*
X95191908Y-66149500D01*
X95191903Y-66149500D01*
X94958631Y-66186446D01*
X94734003Y-66259433D01*
X94523566Y-66366657D01*
X94450835Y-66419500D01*
X94332490Y-66505483D01*
X94332488Y-66505485D01*
X94332487Y-66505485D01*
X94165485Y-66672487D01*
X94165485Y-66672488D01*
X94165483Y-66672490D01*
X94130960Y-66720007D01*
X94026657Y-66863566D01*
X93919433Y-67074003D01*
X93846446Y-67298631D01*
X93809500Y-67531902D01*
X88266964Y-67531902D01*
X88188284Y-67341951D01*
X88188282Y-67341948D01*
X88188280Y-67341943D01*
X88095933Y-67181995D01*
X88070273Y-67137550D01*
X87926592Y-66950301D01*
X87926587Y-66950295D01*
X87759704Y-66783412D01*
X87759697Y-66783406D01*
X87572454Y-66639730D01*
X87572453Y-66639729D01*
X87572450Y-66639727D01*
X87490957Y-66592677D01*
X87368056Y-66521719D01*
X87368045Y-66521714D01*
X87149993Y-66431394D01*
X86922010Y-66370306D01*
X86688020Y-66339501D01*
X86688017Y-66339500D01*
X86688011Y-66339500D01*
X86451989Y-66339500D01*
X86451983Y-66339500D01*
X86451979Y-66339501D01*
X86217989Y-66370306D01*
X85990006Y-66431394D01*
X85771954Y-66521714D01*
X85771943Y-66521719D01*
X85580909Y-66632014D01*
X85572868Y-66636657D01*
X85567545Y-66639730D01*
X85380302Y-66783406D01*
X85380295Y-66783412D01*
X85213412Y-66950295D01*
X85213406Y-66950302D01*
X85069730Y-67137545D01*
X84951719Y-67341943D01*
X84951714Y-67341954D01*
X84861394Y-67560006D01*
X84800306Y-67787989D01*
X84769501Y-68021979D01*
X84769500Y-68021995D01*
X77500500Y-68021995D01*
X77500500Y-63021995D01*
X84769500Y-63021995D01*
X84769500Y-63258004D01*
X84769501Y-63258020D01*
X84800306Y-63492010D01*
X84861394Y-63719993D01*
X84951714Y-63938045D01*
X84951719Y-63938056D01*
X84992452Y-64008606D01*
X85069727Y-64142450D01*
X85069729Y-64142453D01*
X85069730Y-64142454D01*
X85213406Y-64329697D01*
X85213412Y-64329704D01*
X85380295Y-64496587D01*
X85380301Y-64496592D01*
X85567550Y-64640273D01*
X85698918Y-64716118D01*
X85771943Y-64758280D01*
X85771948Y-64758282D01*
X85771951Y-64758284D01*
X85990007Y-64848606D01*
X86217986Y-64909693D01*
X86451989Y-64940500D01*
X86451996Y-64940500D01*
X86688004Y-64940500D01*
X86688011Y-64940500D01*
X86922014Y-64909693D01*
X87149993Y-64848606D01*
X87368049Y-64758284D01*
X87572450Y-64640273D01*
X87759699Y-64496592D01*
X87926592Y-64329699D01*
X88070273Y-64142450D01*
X88188284Y-63938049D01*
X88278606Y-63719993D01*
X88339693Y-63492014D01*
X88370500Y-63258011D01*
X88370500Y-63061902D01*
X93759500Y-63061902D01*
X93759500Y-63298097D01*
X93796446Y-63531368D01*
X93869433Y-63755996D01*
X93962198Y-63938056D01*
X93976657Y-63966433D01*
X94115483Y-64157510D01*
X94282490Y-64324517D01*
X94473567Y-64463343D01*
X94538812Y-64496587D01*
X94684003Y-64570566D01*
X94684005Y-64570566D01*
X94684008Y-64570568D01*
X94804412Y-64609689D01*
X94908631Y-64643553D01*
X95141903Y-64680500D01*
X95141908Y-64680500D01*
X95378097Y-64680500D01*
X95611368Y-64643553D01*
X95621475Y-64640269D01*
X95835992Y-64570568D01*
X96046433Y-64463343D01*
X96237510Y-64324517D01*
X96404517Y-64157510D01*
X96543343Y-63966433D01*
X96650568Y-63755992D01*
X96723553Y-63531368D01*
X96730153Y-63489697D01*
X96760500Y-63298097D01*
X96760500Y-63061902D01*
X96723553Y-62828631D01*
X96685169Y-62710500D01*
X96650568Y-62604008D01*
X96650566Y-62604005D01*
X96650566Y-62604003D01*
X96555802Y-62418020D01*
X96543343Y-62393567D01*
X96404517Y-62202490D01*
X96237510Y-62035483D01*
X96046433Y-61896657D01*
X95835996Y-61789433D01*
X95611368Y-61716446D01*
X95378097Y-61679500D01*
X95378092Y-61679500D01*
X95141908Y-61679500D01*
X95141903Y-61679500D01*
X94908631Y-61716446D01*
X94684003Y-61789433D01*
X94473566Y-61896657D01*
X94399731Y-61950302D01*
X94282490Y-62035483D01*
X94282488Y-62035485D01*
X94282487Y-62035485D01*
X94115485Y-62202487D01*
X94115485Y-62202488D01*
X94115483Y-62202490D01*
X94055862Y-62284550D01*
X93976657Y-62393566D01*
X93869433Y-62604003D01*
X93796446Y-62828631D01*
X93759500Y-63061902D01*
X88370500Y-63061902D01*
X88370500Y-63021989D01*
X88339693Y-62787986D01*
X88278606Y-62560007D01*
X88188284Y-62341951D01*
X88188282Y-62341948D01*
X88188280Y-62341943D01*
X88107766Y-62202490D01*
X88070273Y-62137550D01*
X87926592Y-61950301D01*
X87926587Y-61950295D01*
X87759704Y-61783412D01*
X87759697Y-61783406D01*
X87572454Y-61639730D01*
X87572453Y-61639729D01*
X87572450Y-61639727D01*
X87490957Y-61592677D01*
X87368056Y-61521719D01*
X87368045Y-61521714D01*
X87149993Y-61431394D01*
X86922010Y-61370306D01*
X86688020Y-61339501D01*
X86688017Y-61339500D01*
X86688011Y-61339500D01*
X86451989Y-61339500D01*
X86451983Y-61339500D01*
X86451979Y-61339501D01*
X86217989Y-61370306D01*
X85990006Y-61431394D01*
X85771954Y-61521714D01*
X85771943Y-61521719D01*
X85567545Y-61639730D01*
X85380302Y-61783406D01*
X85380295Y-61783412D01*
X85213412Y-61950295D01*
X85213406Y-61950302D01*
X85069730Y-62137545D01*
X84951719Y-62341943D01*
X84951714Y-62341954D01*
X84861394Y-62560006D01*
X84800306Y-62787989D01*
X84769501Y-63021979D01*
X84769500Y-63021995D01*
X77500500Y-63021995D01*
X77500500Y-61091902D01*
X127709500Y-61091902D01*
X127709500Y-61328097D01*
X127746446Y-61561368D01*
X127819433Y-61785996D01*
X127903152Y-61950302D01*
X127926657Y-61996433D01*
X128065483Y-62187510D01*
X128232490Y-62354517D01*
X128423567Y-62493343D01*
X128522991Y-62544002D01*
X128634003Y-62600566D01*
X128634005Y-62600566D01*
X128634008Y-62600568D01*
X128754412Y-62639689D01*
X128858631Y-62673553D01*
X129091903Y-62710500D01*
X129091908Y-62710500D01*
X129328097Y-62710500D01*
X129561368Y-62673553D01*
X129785992Y-62600568D01*
X129996433Y-62493343D01*
X130187510Y-62354517D01*
X130354517Y-62187510D01*
X130358524Y-62181995D01*
X138372000Y-62181995D01*
X138372000Y-62418004D01*
X138372001Y-62418020D01*
X138402806Y-62652010D01*
X138463894Y-62879993D01*
X138554214Y-63098045D01*
X138554219Y-63098056D01*
X138625177Y-63220957D01*
X138672227Y-63302450D01*
X138672229Y-63302453D01*
X138672230Y-63302454D01*
X138815906Y-63489697D01*
X138815912Y-63489704D01*
X138982795Y-63656587D01*
X138982801Y-63656592D01*
X139170050Y-63800273D01*
X139301418Y-63876118D01*
X139374443Y-63918280D01*
X139374448Y-63918282D01*
X139374451Y-63918284D01*
X139592507Y-64008606D01*
X139820486Y-64069693D01*
X140054489Y-64100500D01*
X140054496Y-64100500D01*
X140290504Y-64100500D01*
X140290511Y-64100500D01*
X140524514Y-64069693D01*
X140752493Y-64008606D01*
X140970549Y-63918284D01*
X141174950Y-63800273D01*
X141362199Y-63656592D01*
X141529092Y-63489699D01*
X141672773Y-63302450D01*
X141790784Y-63098049D01*
X141881106Y-62879993D01*
X141942193Y-62652014D01*
X141973000Y-62418011D01*
X141973000Y-62181989D01*
X141942193Y-61947986D01*
X141881106Y-61720007D01*
X141790784Y-61501951D01*
X141790782Y-61501948D01*
X141790780Y-61501943D01*
X141714779Y-61370307D01*
X141672773Y-61297550D01*
X141529092Y-61110301D01*
X141529087Y-61110295D01*
X141362204Y-60943412D01*
X141362197Y-60943406D01*
X141174954Y-60799730D01*
X141174953Y-60799729D01*
X141174950Y-60799727D01*
X141093457Y-60752677D01*
X140970556Y-60681719D01*
X140970545Y-60681714D01*
X140752493Y-60591394D01*
X140559707Y-60539737D01*
X140524514Y-60530307D01*
X140524513Y-60530306D01*
X140524510Y-60530306D01*
X140290520Y-60499501D01*
X140290517Y-60499500D01*
X140290511Y-60499500D01*
X140054489Y-60499500D01*
X140054483Y-60499500D01*
X140054479Y-60499501D01*
X139820489Y-60530306D01*
X139592506Y-60591394D01*
X139374454Y-60681714D01*
X139374443Y-60681719D01*
X139170045Y-60799730D01*
X138982802Y-60943406D01*
X138982795Y-60943412D01*
X138815912Y-61110295D01*
X138815906Y-61110302D01*
X138672230Y-61297545D01*
X138554219Y-61501943D01*
X138554214Y-61501954D01*
X138463894Y-61720006D01*
X138402806Y-61947989D01*
X138372001Y-62181979D01*
X138372000Y-62181995D01*
X130358524Y-62181995D01*
X130493343Y-61996433D01*
X130600568Y-61785992D01*
X130673553Y-61561368D01*
X130694139Y-61431394D01*
X130710500Y-61328097D01*
X130710500Y-61091902D01*
X130673553Y-60858631D01*
X130616069Y-60681716D01*
X130600568Y-60634008D01*
X130600566Y-60634005D01*
X130600566Y-60634003D01*
X130517774Y-60471516D01*
X130493343Y-60423567D01*
X130354517Y-60232490D01*
X130187510Y-60065483D01*
X129996433Y-59926657D01*
X129785996Y-59819433D01*
X129561368Y-59746446D01*
X129328097Y-59709500D01*
X129328092Y-59709500D01*
X129091908Y-59709500D01*
X129091903Y-59709500D01*
X128858631Y-59746446D01*
X128634003Y-59819433D01*
X128423566Y-59926657D01*
X128345328Y-59983501D01*
X128232490Y-60065483D01*
X128232488Y-60065485D01*
X128232487Y-60065485D01*
X128065485Y-60232487D01*
X128065485Y-60232488D01*
X128065483Y-60232490D01*
X128045287Y-60260288D01*
X127926657Y-60423566D01*
X127819433Y-60634003D01*
X127746446Y-60858631D01*
X127709500Y-61091902D01*
X77500500Y-61091902D01*
X77500500Y-58021995D01*
X84769500Y-58021995D01*
X84769500Y-58258004D01*
X84769501Y-58258020D01*
X84800306Y-58492010D01*
X84861394Y-58719993D01*
X84951714Y-58938045D01*
X84951719Y-58938056D01*
X84992452Y-59008606D01*
X85069727Y-59142450D01*
X85069729Y-59142453D01*
X85069730Y-59142454D01*
X85213406Y-59329697D01*
X85213412Y-59329704D01*
X85380295Y-59496587D01*
X85380302Y-59496593D01*
X85432314Y-59536503D01*
X85567550Y-59640273D01*
X85687455Y-59709500D01*
X85771943Y-59758280D01*
X85771948Y-59758282D01*
X85771951Y-59758284D01*
X85990007Y-59848606D01*
X86217986Y-59909693D01*
X86451989Y-59940500D01*
X86451996Y-59940500D01*
X86688004Y-59940500D01*
X86688011Y-59940500D01*
X86922014Y-59909693D01*
X87149993Y-59848606D01*
X87368049Y-59758284D01*
X87518964Y-59671153D01*
X105779500Y-59671153D01*
X105779500Y-59828846D01*
X105810261Y-59983489D01*
X105810264Y-59983501D01*
X105870602Y-60129172D01*
X105870609Y-60129185D01*
X105958210Y-60260288D01*
X105958213Y-60260292D01*
X106069707Y-60371786D01*
X106069711Y-60371789D01*
X106200814Y-60459390D01*
X106200827Y-60459397D01*
X106346498Y-60519735D01*
X106346503Y-60519737D01*
X106464439Y-60543196D01*
X106501153Y-60550499D01*
X106501156Y-60550500D01*
X106501158Y-60550500D01*
X106658844Y-60550500D01*
X106658845Y-60550499D01*
X106813497Y-60519737D01*
X106929914Y-60471515D01*
X106999380Y-60464047D01*
X107035820Y-60476720D01*
X107040815Y-60479390D01*
X107040821Y-60479394D01*
X107040827Y-60479396D01*
X107040828Y-60479397D01*
X107138216Y-60519736D01*
X107186503Y-60539737D01*
X107341153Y-60570499D01*
X107341156Y-60570500D01*
X107341158Y-60570500D01*
X107498844Y-60570500D01*
X107498845Y-60570499D01*
X107653497Y-60539737D01*
X107799179Y-60479394D01*
X107930289Y-60391789D01*
X108041789Y-60280289D01*
X108129394Y-60149179D01*
X108189737Y-60003497D01*
X108220500Y-59848842D01*
X108220500Y-59751153D01*
X115739500Y-59751153D01*
X115739500Y-59908846D01*
X115770261Y-60063489D01*
X115770264Y-60063501D01*
X115830602Y-60209172D01*
X115830609Y-60209185D01*
X115918210Y-60340288D01*
X115918213Y-60340292D01*
X116029707Y-60451786D01*
X116029711Y-60451789D01*
X116160814Y-60539390D01*
X116160827Y-60539397D01*
X116286361Y-60591394D01*
X116306503Y-60599737D01*
X116461153Y-60630499D01*
X116461156Y-60630500D01*
X116461158Y-60630500D01*
X116618844Y-60630500D01*
X116618845Y-60630499D01*
X116773497Y-60599737D01*
X116862548Y-60562850D01*
X116932016Y-60555382D01*
X116957448Y-60562849D01*
X117046503Y-60599737D01*
X117201153Y-60630499D01*
X117201156Y-60630500D01*
X117201158Y-60630500D01*
X117358844Y-60630500D01*
X117358845Y-60630499D01*
X117513497Y-60599737D01*
X117659179Y-60539394D01*
X117790289Y-60451789D01*
X117901789Y-60340289D01*
X117989394Y-60209179D01*
X118049737Y-60063497D01*
X118080500Y-59908842D01*
X118080500Y-59751158D01*
X118080500Y-59751155D01*
X118080499Y-59751153D01*
X118068565Y-59691158D01*
X118049737Y-59596503D01*
X118037388Y-59566690D01*
X117989397Y-59450827D01*
X117989390Y-59450814D01*
X117901789Y-59319711D01*
X117901786Y-59319707D01*
X117790292Y-59208213D01*
X117790288Y-59208210D01*
X117659185Y-59120609D01*
X117659172Y-59120602D01*
X117513501Y-59060264D01*
X117513489Y-59060261D01*
X117358845Y-59029500D01*
X117358842Y-59029500D01*
X117201158Y-59029500D01*
X117201155Y-59029500D01*
X117046505Y-59060261D01*
X117046502Y-59060263D01*
X116957451Y-59097148D01*
X116887982Y-59104616D01*
X116862549Y-59097148D01*
X116773497Y-59060263D01*
X116773494Y-59060261D01*
X116618845Y-59029500D01*
X116618842Y-59029500D01*
X116461158Y-59029500D01*
X116461155Y-59029500D01*
X116306510Y-59060261D01*
X116306498Y-59060264D01*
X116160827Y-59120602D01*
X116160814Y-59120609D01*
X116029711Y-59208210D01*
X116029707Y-59208213D01*
X115918213Y-59319707D01*
X115918210Y-59319711D01*
X115830609Y-59450814D01*
X115830602Y-59450827D01*
X115770264Y-59596498D01*
X115770261Y-59596510D01*
X115739500Y-59751153D01*
X108220500Y-59751153D01*
X108220500Y-59691158D01*
X108220500Y-59691155D01*
X108220499Y-59691153D01*
X108201671Y-59596498D01*
X108189737Y-59536503D01*
X108173206Y-59496593D01*
X108129397Y-59390827D01*
X108129390Y-59390814D01*
X108041789Y-59259711D01*
X108041786Y-59259707D01*
X107930292Y-59148213D01*
X107930288Y-59148210D01*
X107799185Y-59060609D01*
X107799172Y-59060602D01*
X107653501Y-59000264D01*
X107653489Y-59000261D01*
X107498845Y-58969500D01*
X107498842Y-58969500D01*
X107341158Y-58969500D01*
X107341155Y-58969500D01*
X107186510Y-59000261D01*
X107186498Y-59000264D01*
X107070087Y-59048483D01*
X107000618Y-59055952D01*
X106964183Y-59043281D01*
X106959184Y-59040609D01*
X106959179Y-59040606D01*
X106881924Y-59008606D01*
X106813501Y-58980264D01*
X106813489Y-58980261D01*
X106658845Y-58949500D01*
X106658842Y-58949500D01*
X106501158Y-58949500D01*
X106501155Y-58949500D01*
X106346510Y-58980261D01*
X106346498Y-58980264D01*
X106200827Y-59040602D01*
X106200814Y-59040609D01*
X106069711Y-59128210D01*
X106069707Y-59128213D01*
X105958213Y-59239707D01*
X105958210Y-59239711D01*
X105870609Y-59370814D01*
X105870602Y-59370827D01*
X105810264Y-59516498D01*
X105810261Y-59516510D01*
X105779500Y-59671153D01*
X87518964Y-59671153D01*
X87572450Y-59640273D01*
X87635687Y-59591749D01*
X87668346Y-59566690D01*
X87733757Y-59516498D01*
X87759699Y-59496592D01*
X87926592Y-59329699D01*
X88070273Y-59142450D01*
X88188284Y-58938049D01*
X88278606Y-58719993D01*
X88339693Y-58492014D01*
X88370500Y-58258011D01*
X88370500Y-58021989D01*
X88352057Y-57881902D01*
X93759500Y-57881902D01*
X93759500Y-58118097D01*
X93796446Y-58351368D01*
X93869433Y-58575996D01*
X93942804Y-58719993D01*
X93976657Y-58786433D01*
X94115483Y-58977510D01*
X94282490Y-59144517D01*
X94473567Y-59283343D01*
X94564542Y-59329697D01*
X94684003Y-59390566D01*
X94684005Y-59390566D01*
X94684008Y-59390568D01*
X94804412Y-59429689D01*
X94908631Y-59463553D01*
X95141903Y-59500500D01*
X95141908Y-59500500D01*
X95378097Y-59500500D01*
X95611368Y-59463553D01*
X95650574Y-59450814D01*
X95835992Y-59390568D01*
X96046433Y-59283343D01*
X96237510Y-59144517D01*
X96404517Y-58977510D01*
X96543343Y-58786433D01*
X96650568Y-58575992D01*
X96723553Y-58351368D01*
X96738339Y-58258011D01*
X96760500Y-58118097D01*
X96760500Y-57881902D01*
X96723553Y-57648631D01*
X96650566Y-57424003D01*
X96567695Y-57261361D01*
X96543342Y-57213566D01*
X96541589Y-57211153D01*
X105559500Y-57211153D01*
X105559500Y-57368846D01*
X105590261Y-57523489D01*
X105590264Y-57523501D01*
X105650602Y-57669172D01*
X105650609Y-57669185D01*
X105738210Y-57800288D01*
X105738213Y-57800292D01*
X105849707Y-57911786D01*
X105849711Y-57911789D01*
X105980814Y-57999390D01*
X105980827Y-57999397D01*
X106126498Y-58059735D01*
X106126503Y-58059737D01*
X106281153Y-58090499D01*
X106281156Y-58090500D01*
X106281158Y-58090500D01*
X106438844Y-58090500D01*
X106438845Y-58090499D01*
X106593497Y-58059737D01*
X106637546Y-58041490D01*
X106707015Y-58034021D01*
X106732454Y-58041491D01*
X106776497Y-58059735D01*
X106776499Y-58059735D01*
X106776503Y-58059737D01*
X106931153Y-58090499D01*
X106931156Y-58090500D01*
X106931158Y-58090500D01*
X107088844Y-58090500D01*
X107088845Y-58090499D01*
X107243497Y-58059737D01*
X107389179Y-57999394D01*
X107520289Y-57911789D01*
X107631789Y-57800289D01*
X107719394Y-57669179D01*
X107779737Y-57523497D01*
X107810500Y-57368842D01*
X107810500Y-57311902D01*
X127679500Y-57311902D01*
X127679500Y-57548097D01*
X127716446Y-57781368D01*
X127789433Y-58005996D01*
X127846552Y-58118097D01*
X127896657Y-58216433D01*
X128035483Y-58407510D01*
X128202490Y-58574517D01*
X128393567Y-58713343D01*
X128492991Y-58764002D01*
X128604003Y-58820566D01*
X128604005Y-58820566D01*
X128604008Y-58820568D01*
X128724412Y-58859689D01*
X128828631Y-58893553D01*
X129061903Y-58930500D01*
X129061908Y-58930500D01*
X129298097Y-58930500D01*
X129531368Y-58893553D01*
X129755992Y-58820568D01*
X129966433Y-58713343D01*
X130157510Y-58574517D01*
X130324517Y-58407510D01*
X130463343Y-58216433D01*
X130570568Y-58005992D01*
X130643553Y-57781368D01*
X130664041Y-57652014D01*
X130680500Y-57548097D01*
X130680500Y-57311902D01*
X130662353Y-57197328D01*
X130659924Y-57181995D01*
X138372000Y-57181995D01*
X138372000Y-57418004D01*
X138372001Y-57418020D01*
X138402361Y-57648632D01*
X138402807Y-57652014D01*
X138407406Y-57669179D01*
X138463894Y-57879993D01*
X138554214Y-58098045D01*
X138554219Y-58098056D01*
X138622565Y-58216433D01*
X138672227Y-58302450D01*
X138672229Y-58302453D01*
X138672230Y-58302454D01*
X138815906Y-58489697D01*
X138815912Y-58489704D01*
X138982795Y-58656587D01*
X138982801Y-58656592D01*
X139170050Y-58800273D01*
X139301418Y-58876118D01*
X139374443Y-58918280D01*
X139374448Y-58918282D01*
X139374451Y-58918284D01*
X139592507Y-59008606D01*
X139820486Y-59069693D01*
X140054489Y-59100500D01*
X140054496Y-59100500D01*
X140290504Y-59100500D01*
X140290511Y-59100500D01*
X140524514Y-59069693D01*
X140752493Y-59008606D01*
X140970549Y-58918284D01*
X141174950Y-58800273D01*
X141362199Y-58656592D01*
X141529092Y-58489699D01*
X141672773Y-58302450D01*
X141790784Y-58098049D01*
X141881106Y-57879993D01*
X141942193Y-57652014D01*
X141973000Y-57418011D01*
X141973000Y-57181989D01*
X141942193Y-56947986D01*
X141881106Y-56720007D01*
X141790784Y-56501951D01*
X141790782Y-56501948D01*
X141790780Y-56501943D01*
X141714779Y-56370307D01*
X141672773Y-56297550D01*
X141529092Y-56110301D01*
X141529087Y-56110295D01*
X141362204Y-55943412D01*
X141362197Y-55943406D01*
X141174954Y-55799730D01*
X141174953Y-55799729D01*
X141174950Y-55799727D01*
X141093457Y-55752677D01*
X140970556Y-55681719D01*
X140970545Y-55681714D01*
X140752493Y-55591394D01*
X140524510Y-55530306D01*
X140290520Y-55499501D01*
X140290517Y-55499500D01*
X140290511Y-55499500D01*
X140054489Y-55499500D01*
X140054483Y-55499500D01*
X140054479Y-55499501D01*
X139820489Y-55530306D01*
X139592506Y-55591394D01*
X139374454Y-55681714D01*
X139374443Y-55681719D01*
X139170045Y-55799730D01*
X138982802Y-55943406D01*
X138982795Y-55943412D01*
X138815912Y-56110295D01*
X138815906Y-56110302D01*
X138672230Y-56297545D01*
X138554219Y-56501943D01*
X138554214Y-56501954D01*
X138463894Y-56720006D01*
X138402806Y-56947989D01*
X138372001Y-57181979D01*
X138372000Y-57181995D01*
X130659924Y-57181995D01*
X130643553Y-57078631D01*
X130601103Y-56947986D01*
X130570568Y-56854008D01*
X130570566Y-56854005D01*
X130570566Y-56854003D01*
X130502291Y-56720007D01*
X130463343Y-56643567D01*
X130324517Y-56452490D01*
X130157510Y-56285483D01*
X129966433Y-56146657D01*
X129755996Y-56039433D01*
X129531368Y-55966446D01*
X129298097Y-55929500D01*
X129298092Y-55929500D01*
X129061908Y-55929500D01*
X129061903Y-55929500D01*
X128828631Y-55966446D01*
X128604003Y-56039433D01*
X128393566Y-56146657D01*
X128284550Y-56225862D01*
X128202490Y-56285483D01*
X128202488Y-56285485D01*
X128202487Y-56285485D01*
X128035485Y-56452487D01*
X128035485Y-56452488D01*
X128035483Y-56452490D01*
X127999545Y-56501954D01*
X127896657Y-56643566D01*
X127789433Y-56854003D01*
X127716446Y-57078631D01*
X127679500Y-57311902D01*
X107810500Y-57311902D01*
X107810500Y-57211158D01*
X107810500Y-57211155D01*
X107810499Y-57211153D01*
X107795857Y-57137545D01*
X107779737Y-57056503D01*
X107779735Y-57056498D01*
X107719397Y-56910827D01*
X107719390Y-56910814D01*
X107631789Y-56779711D01*
X107631786Y-56779707D01*
X107520292Y-56668213D01*
X107520288Y-56668210D01*
X107389185Y-56580609D01*
X107389172Y-56580602D01*
X107243501Y-56520264D01*
X107243489Y-56520261D01*
X107088845Y-56489500D01*
X107088842Y-56489500D01*
X106931158Y-56489500D01*
X106931155Y-56489500D01*
X106776511Y-56520260D01*
X106776506Y-56520262D01*
X106776504Y-56520262D01*
X106776503Y-56520263D01*
X106732449Y-56538510D01*
X106662982Y-56545978D01*
X106637552Y-56538511D01*
X106593497Y-56520263D01*
X106593493Y-56520262D01*
X106593488Y-56520260D01*
X106438845Y-56489500D01*
X106438842Y-56489500D01*
X106281158Y-56489500D01*
X106281155Y-56489500D01*
X106126510Y-56520261D01*
X106126498Y-56520264D01*
X105980827Y-56580602D01*
X105980814Y-56580609D01*
X105849711Y-56668210D01*
X105849707Y-56668213D01*
X105738213Y-56779707D01*
X105738210Y-56779711D01*
X105650609Y-56910814D01*
X105650602Y-56910827D01*
X105590264Y-57056498D01*
X105590261Y-57056510D01*
X105559500Y-57211153D01*
X96541589Y-57211153D01*
X96404517Y-57022490D01*
X96237510Y-56855483D01*
X96046433Y-56716657D01*
X95835996Y-56609433D01*
X95611368Y-56536446D01*
X95378097Y-56499500D01*
X95378092Y-56499500D01*
X95141908Y-56499500D01*
X95141903Y-56499500D01*
X94908631Y-56536446D01*
X94684003Y-56609433D01*
X94473566Y-56716657D01*
X94386786Y-56779707D01*
X94282490Y-56855483D01*
X94282488Y-56855485D01*
X94282487Y-56855485D01*
X94115485Y-57022487D01*
X94115485Y-57022488D01*
X94115483Y-57022490D01*
X94090775Y-57056498D01*
X93976657Y-57213566D01*
X93869433Y-57424003D01*
X93796446Y-57648631D01*
X93759500Y-57881902D01*
X88352057Y-57881902D01*
X88339693Y-57787986D01*
X88278606Y-57560007D01*
X88188284Y-57341951D01*
X88188282Y-57341948D01*
X88188280Y-57341943D01*
X88114161Y-57213567D01*
X88070273Y-57137550D01*
X88008080Y-57056498D01*
X87926593Y-56950302D01*
X87926587Y-56950295D01*
X87759704Y-56783412D01*
X87759697Y-56783406D01*
X87572454Y-56639730D01*
X87572453Y-56639729D01*
X87572450Y-56639727D01*
X87470055Y-56580609D01*
X87368056Y-56521719D01*
X87368045Y-56521714D01*
X87149993Y-56431394D01*
X86922010Y-56370306D01*
X86688020Y-56339501D01*
X86688017Y-56339500D01*
X86688011Y-56339500D01*
X86451989Y-56339500D01*
X86451983Y-56339500D01*
X86451979Y-56339501D01*
X86217989Y-56370306D01*
X85990006Y-56431394D01*
X85771954Y-56521714D01*
X85771943Y-56521719D01*
X85567545Y-56639730D01*
X85380302Y-56783406D01*
X85380295Y-56783412D01*
X85213412Y-56950295D01*
X85213406Y-56950302D01*
X85069730Y-57137545D01*
X84951719Y-57341943D01*
X84951714Y-57341954D01*
X84861394Y-57560006D01*
X84800306Y-57787989D01*
X84769501Y-58021979D01*
X84769500Y-58021995D01*
X77500500Y-58021995D01*
X77500500Y-49793563D01*
X77500514Y-49791715D01*
X77545224Y-46792135D01*
X84769500Y-46792135D01*
X84769500Y-49487870D01*
X84769501Y-49487876D01*
X84775908Y-49547483D01*
X84826202Y-49682328D01*
X84826206Y-49682335D01*
X84912452Y-49797544D01*
X84912455Y-49797547D01*
X85027664Y-49883793D01*
X85027671Y-49883797D01*
X85162517Y-49934091D01*
X85162516Y-49934091D01*
X85169444Y-49934835D01*
X85222127Y-49940500D01*
X87917872Y-49940499D01*
X87977483Y-49934091D01*
X88112331Y-49883796D01*
X88227546Y-49797546D01*
X88313796Y-49682331D01*
X88364091Y-49547483D01*
X88370500Y-49487873D01*
X88370499Y-48531902D01*
X94539500Y-48531902D01*
X94539500Y-48768097D01*
X94576446Y-49001368D01*
X94649433Y-49225996D01*
X94756657Y-49436433D01*
X94895483Y-49627510D01*
X95062490Y-49794517D01*
X95253567Y-49933343D01*
X95352991Y-49984002D01*
X95464003Y-50040566D01*
X95464005Y-50040566D01*
X95464008Y-50040568D01*
X95584412Y-50079689D01*
X95688631Y-50113553D01*
X95921903Y-50150500D01*
X95921908Y-50150500D01*
X96158097Y-50150500D01*
X96391368Y-50113553D01*
X96615992Y-50040568D01*
X96826433Y-49933343D01*
X97017510Y-49794517D01*
X97184517Y-49627510D01*
X97323343Y-49436433D01*
X97430568Y-49225992D01*
X97503553Y-49001368D01*
X97504739Y-48993882D01*
X97540500Y-48768097D01*
X97540500Y-48531902D01*
X97503553Y-48298631D01*
X97469689Y-48194412D01*
X97430568Y-48074008D01*
X97430566Y-48074005D01*
X97430566Y-48074003D01*
X97323342Y-47863566D01*
X97284461Y-47810051D01*
X97184517Y-47672490D01*
X97017510Y-47505483D01*
X96826433Y-47366657D01*
X96745036Y-47325183D01*
X96615996Y-47259433D01*
X96391368Y-47186446D01*
X96158097Y-47149500D01*
X96158092Y-47149500D01*
X95921908Y-47149500D01*
X95921903Y-47149500D01*
X95688631Y-47186446D01*
X95464003Y-47259433D01*
X95253566Y-47366657D01*
X95155906Y-47437612D01*
X95062490Y-47505483D01*
X95062488Y-47505485D01*
X95062487Y-47505485D01*
X94895485Y-47672487D01*
X94895485Y-47672488D01*
X94895483Y-47672490D01*
X94848921Y-47736577D01*
X94756657Y-47863566D01*
X94649433Y-48074003D01*
X94576446Y-48298631D01*
X94539500Y-48531902D01*
X88370499Y-48531902D01*
X88370499Y-48127826D01*
X88370499Y-46815097D01*
X113619500Y-46815097D01*
X113619500Y-47074902D01*
X113660140Y-47331493D01*
X113740422Y-47578576D01*
X113858368Y-47810054D01*
X113947996Y-47933417D01*
X114011069Y-48020229D01*
X114194771Y-48203931D01*
X114404949Y-48356634D01*
X114552445Y-48431787D01*
X114636423Y-48474577D01*
X114636425Y-48474577D01*
X114636428Y-48474579D01*
X114883507Y-48554860D01*
X115015706Y-48575797D01*
X115140098Y-48595500D01*
X115140103Y-48595500D01*
X115399902Y-48595500D01*
X115513298Y-48577539D01*
X115656493Y-48554860D01*
X115903572Y-48474579D01*
X116135051Y-48356634D01*
X116345229Y-48203931D01*
X116528931Y-48020229D01*
X116681634Y-47810051D01*
X116799579Y-47578572D01*
X116879860Y-47331493D01*
X116906618Y-47162546D01*
X116920500Y-47074902D01*
X116920500Y-46815097D01*
X116898487Y-46676116D01*
X116879860Y-46558507D01*
X116799579Y-46311428D01*
X116799577Y-46311425D01*
X116799577Y-46311423D01*
X116756787Y-46227445D01*
X116681634Y-46079949D01*
X116528931Y-45869771D01*
X116345229Y-45686069D01*
X116135051Y-45533366D01*
X116062764Y-45496534D01*
X115903576Y-45415422D01*
X115656493Y-45335140D01*
X115399902Y-45294500D01*
X115399897Y-45294500D01*
X115140103Y-45294500D01*
X115140098Y-45294500D01*
X114883506Y-45335140D01*
X114636423Y-45415422D01*
X114404945Y-45533368D01*
X114194774Y-45686066D01*
X114194768Y-45686071D01*
X114011071Y-45869768D01*
X114011066Y-45869774D01*
X113858368Y-46079945D01*
X113740422Y-46311423D01*
X113660140Y-46558506D01*
X113619500Y-46815097D01*
X88370499Y-46815097D01*
X88370499Y-46810231D01*
X88370499Y-46792129D01*
X88370498Y-46792123D01*
X88370497Y-46792116D01*
X88364091Y-46732517D01*
X88343055Y-46676117D01*
X88313797Y-46597671D01*
X88313793Y-46597664D01*
X88227547Y-46482455D01*
X88227544Y-46482452D01*
X88112335Y-46396206D01*
X88112328Y-46396202D01*
X87977482Y-46345908D01*
X87977483Y-46345908D01*
X87917883Y-46339501D01*
X87917881Y-46339500D01*
X87917873Y-46339500D01*
X87917864Y-46339500D01*
X85222129Y-46339500D01*
X85222123Y-46339501D01*
X85162516Y-46345908D01*
X85027671Y-46396202D01*
X85027664Y-46396206D01*
X84912455Y-46482452D01*
X84912452Y-46482455D01*
X84826206Y-46597664D01*
X84826202Y-46597671D01*
X84775908Y-46732517D01*
X84769501Y-46792116D01*
X84769501Y-46792123D01*
X84769500Y-46792135D01*
X77545224Y-46792135D01*
X77545301Y-46786958D01*
X77595903Y-43392065D01*
X115174500Y-43392065D01*
X115174500Y-43637934D01*
X115201227Y-43840939D01*
X115206591Y-43881677D01*
X115206592Y-43881679D01*
X115270222Y-44119152D01*
X115270225Y-44119162D01*
X115364303Y-44346285D01*
X115364306Y-44346292D01*
X115487233Y-44559208D01*
X115487235Y-44559211D01*
X115487236Y-44559212D01*
X115636897Y-44754254D01*
X115636903Y-44754261D01*
X115810738Y-44928096D01*
X115810745Y-44928102D01*
X115925335Y-45016030D01*
X116005792Y-45077767D01*
X116218708Y-45200694D01*
X116445847Y-45294778D01*
X116683323Y-45358409D01*
X116927073Y-45390500D01*
X116927080Y-45390500D01*
X117172920Y-45390500D01*
X117172927Y-45390500D01*
X117416677Y-45358409D01*
X117654153Y-45294778D01*
X117745031Y-45257135D01*
X118589500Y-45257135D01*
X118589500Y-46852870D01*
X118589501Y-46852876D01*
X118595908Y-46912483D01*
X118646202Y-47047328D01*
X118646206Y-47047335D01*
X118732452Y-47162544D01*
X118732455Y-47162547D01*
X118847664Y-47248793D01*
X118847671Y-47248797D01*
X118876188Y-47259433D01*
X118982517Y-47299091D01*
X119042127Y-47305500D01*
X119542519Y-47305499D01*
X119609558Y-47325183D01*
X119655313Y-47377987D01*
X119665257Y-47447146D01*
X119660450Y-47467817D01*
X119636291Y-47542169D01*
X119636291Y-47542172D01*
X119605500Y-47736577D01*
X119605500Y-47933422D01*
X119636290Y-48127826D01*
X119697117Y-48315029D01*
X119778411Y-48474577D01*
X119786476Y-48490405D01*
X119902172Y-48649646D01*
X120041354Y-48788828D01*
X120200595Y-48904524D01*
X120283455Y-48946743D01*
X120375970Y-48993882D01*
X120375972Y-48993882D01*
X120375975Y-48993884D01*
X120476317Y-49026487D01*
X120563173Y-49054709D01*
X120757578Y-49085500D01*
X120757583Y-49085500D01*
X120954422Y-49085500D01*
X121148826Y-49054709D01*
X121336025Y-48993884D01*
X121511405Y-48904524D01*
X121670646Y-48788828D01*
X121809828Y-48649646D01*
X121925524Y-48490405D01*
X122014884Y-48315025D01*
X122075709Y-48127826D01*
X122084234Y-48074003D01*
X122106500Y-47933422D01*
X122106500Y-47736577D01*
X122075709Y-47542175D01*
X122075709Y-47542174D01*
X122042282Y-47439299D01*
X122040287Y-47369462D01*
X122076367Y-47309629D01*
X122139068Y-47278800D01*
X122140652Y-47278537D01*
X122164826Y-47274709D01*
X122352025Y-47213884D01*
X122527405Y-47124524D01*
X122686646Y-47008828D01*
X122800319Y-46895155D01*
X122861642Y-46861670D01*
X122931334Y-46866654D01*
X122975681Y-46895155D01*
X123089354Y-47008828D01*
X123248595Y-47124524D01*
X123323214Y-47162544D01*
X123423970Y-47213882D01*
X123423972Y-47213882D01*
X123423975Y-47213884D01*
X123524317Y-47246487D01*
X123611173Y-47274709D01*
X123805578Y-47305500D01*
X123805583Y-47305500D01*
X124002422Y-47305500D01*
X124196826Y-47274709D01*
X124276574Y-47248797D01*
X124384025Y-47213884D01*
X124559405Y-47124524D01*
X124718646Y-47008828D01*
X124832319Y-46895155D01*
X124893642Y-46861670D01*
X124963334Y-46866654D01*
X125007681Y-46895155D01*
X125121354Y-47008828D01*
X125280595Y-47124524D01*
X125355214Y-47162544D01*
X125455970Y-47213882D01*
X125455972Y-47213882D01*
X125455975Y-47213884D01*
X125643174Y-47274709D01*
X125667181Y-47278511D01*
X125730315Y-47308438D01*
X125767247Y-47367749D01*
X125766251Y-47437612D01*
X125765715Y-47439302D01*
X125732291Y-47542169D01*
X125732291Y-47542172D01*
X125701500Y-47736577D01*
X125701500Y-47933422D01*
X125732290Y-48127826D01*
X125793117Y-48315029D01*
X125874411Y-48474577D01*
X125882476Y-48490405D01*
X125998172Y-48649646D01*
X126137354Y-48788828D01*
X126296595Y-48904524D01*
X126379455Y-48946743D01*
X126471970Y-48993882D01*
X126471972Y-48993882D01*
X126471975Y-48993884D01*
X126572317Y-49026487D01*
X126659173Y-49054709D01*
X126853578Y-49085500D01*
X126853583Y-49085500D01*
X127050422Y-49085500D01*
X127244826Y-49054709D01*
X127432025Y-48993884D01*
X127607405Y-48904524D01*
X127766646Y-48788828D01*
X127905828Y-48649646D01*
X128021524Y-48490405D01*
X128110884Y-48315025D01*
X128171709Y-48127826D01*
X128180234Y-48074003D01*
X128202500Y-47933422D01*
X128202500Y-47736577D01*
X128171709Y-47542173D01*
X128138284Y-47439302D01*
X128110884Y-47354975D01*
X128110882Y-47354972D01*
X128110882Y-47354970D01*
X128025015Y-47186447D01*
X128021524Y-47179595D01*
X127905828Y-47020354D01*
X127766646Y-46881172D01*
X127675702Y-46815097D01*
X129879500Y-46815097D01*
X129879500Y-47074902D01*
X129920140Y-47331493D01*
X130000422Y-47578576D01*
X130118368Y-47810054D01*
X130207996Y-47933417D01*
X130271069Y-48020229D01*
X130454771Y-48203931D01*
X130664949Y-48356634D01*
X130812445Y-48431787D01*
X130896423Y-48474577D01*
X130896425Y-48474577D01*
X130896428Y-48474579D01*
X131143507Y-48554860D01*
X131275706Y-48575797D01*
X131400098Y-48595500D01*
X131400103Y-48595500D01*
X131659902Y-48595500D01*
X131773298Y-48577539D01*
X131916493Y-48554860D01*
X132163572Y-48474579D01*
X132395051Y-48356634D01*
X132605229Y-48203931D01*
X132788931Y-48020229D01*
X132941634Y-47810051D01*
X133059579Y-47578572D01*
X133139860Y-47331493D01*
X133166618Y-47162546D01*
X133180500Y-47074902D01*
X133180500Y-46815097D01*
X133158487Y-46676116D01*
X133139860Y-46558507D01*
X133059579Y-46311428D01*
X133059577Y-46311425D01*
X133059577Y-46311423D01*
X133016787Y-46227445D01*
X132941634Y-46079949D01*
X132788931Y-45869771D01*
X132605229Y-45686069D01*
X132395051Y-45533366D01*
X132322764Y-45496534D01*
X132163576Y-45415422D01*
X131916493Y-45335140D01*
X131659902Y-45294500D01*
X131659897Y-45294500D01*
X131400103Y-45294500D01*
X131400098Y-45294500D01*
X131143506Y-45335140D01*
X130896423Y-45415422D01*
X130664945Y-45533368D01*
X130454774Y-45686066D01*
X130454768Y-45686071D01*
X130271071Y-45869768D01*
X130271066Y-45869774D01*
X130118368Y-46079945D01*
X130000422Y-46311423D01*
X129920140Y-46558506D01*
X129879500Y-46815097D01*
X127675702Y-46815097D01*
X127607405Y-46765476D01*
X127432025Y-46676116D01*
X127244826Y-46615291D01*
X127244824Y-46615290D01*
X127220816Y-46611488D01*
X127157682Y-46581558D01*
X127120751Y-46522247D01*
X127121749Y-46452384D01*
X127122284Y-46450696D01*
X127139991Y-46396202D01*
X127155709Y-46347826D01*
X127161475Y-46311423D01*
X127186500Y-46153422D01*
X127186500Y-45956577D01*
X127155709Y-45762173D01*
X127094882Y-45574970D01*
X127013588Y-45415422D01*
X127005524Y-45399595D01*
X126889828Y-45240354D01*
X126750646Y-45101172D01*
X126591405Y-44985476D01*
X126416029Y-44896117D01*
X126228826Y-44835290D01*
X126034422Y-44804500D01*
X126034417Y-44804500D01*
X125837583Y-44804500D01*
X125837578Y-44804500D01*
X125643173Y-44835290D01*
X125455970Y-44896117D01*
X125280594Y-44985476D01*
X125223660Y-45026842D01*
X125121354Y-45101172D01*
X125121352Y-45101174D01*
X125121351Y-45101174D01*
X125007681Y-45214845D01*
X124946358Y-45248330D01*
X124876666Y-45243346D01*
X124832319Y-45214845D01*
X124718648Y-45101174D01*
X124718646Y-45101172D01*
X124559405Y-44985476D01*
X124384029Y-44896117D01*
X124196826Y-44835290D01*
X124002422Y-44804500D01*
X124002417Y-44804500D01*
X123805583Y-44804500D01*
X123805578Y-44804500D01*
X123611173Y-44835290D01*
X123423970Y-44896117D01*
X123248594Y-44985476D01*
X123191660Y-45026842D01*
X123089354Y-45101172D01*
X123089352Y-45101174D01*
X123089351Y-45101174D01*
X122975681Y-45214845D01*
X122914358Y-45248330D01*
X122844666Y-45243346D01*
X122800319Y-45214845D01*
X122686648Y-45101174D01*
X122686646Y-45101172D01*
X122527405Y-44985476D01*
X122352029Y-44896117D01*
X122164826Y-44835290D01*
X121970422Y-44804500D01*
X121970417Y-44804500D01*
X121773583Y-44804500D01*
X121773578Y-44804500D01*
X121579173Y-44835290D01*
X121391970Y-44896117D01*
X121216590Y-44985478D01*
X121159658Y-45026842D01*
X121093851Y-45050322D01*
X121025798Y-45034496D01*
X120987509Y-45000837D01*
X120947546Y-44947454D01*
X120947544Y-44947452D01*
X120947543Y-44947451D01*
X120832335Y-44861206D01*
X120832328Y-44861202D01*
X120697482Y-44810908D01*
X120697483Y-44810908D01*
X120637883Y-44804501D01*
X120637881Y-44804500D01*
X120637873Y-44804500D01*
X120637864Y-44804500D01*
X119042129Y-44804500D01*
X119042123Y-44804501D01*
X118982516Y-44810908D01*
X118847671Y-44861202D01*
X118847664Y-44861206D01*
X118732455Y-44947452D01*
X118732452Y-44947455D01*
X118646206Y-45062664D01*
X118646202Y-45062671D01*
X118595908Y-45197517D01*
X118589501Y-45257116D01*
X118589500Y-45257135D01*
X117745031Y-45257135D01*
X117881292Y-45200694D01*
X118094208Y-45077767D01*
X118289256Y-44928101D01*
X118463101Y-44754256D01*
X118612767Y-44559208D01*
X118735694Y-44346292D01*
X118829778Y-44119153D01*
X118893409Y-43881677D01*
X118925500Y-43637927D01*
X118925500Y-43392073D01*
X118925499Y-43392065D01*
X127874500Y-43392065D01*
X127874500Y-43637934D01*
X127901227Y-43840939D01*
X127906591Y-43881677D01*
X127906592Y-43881679D01*
X127970222Y-44119152D01*
X127970225Y-44119162D01*
X128064303Y-44346285D01*
X128064306Y-44346292D01*
X128187233Y-44559208D01*
X128187235Y-44559211D01*
X128187236Y-44559212D01*
X128336897Y-44754254D01*
X128336903Y-44754261D01*
X128510738Y-44928096D01*
X128510745Y-44928102D01*
X128625335Y-45016030D01*
X128705792Y-45077767D01*
X128918708Y-45200694D01*
X129145847Y-45294778D01*
X129383323Y-45358409D01*
X129627073Y-45390500D01*
X129627080Y-45390500D01*
X129872920Y-45390500D01*
X129872927Y-45390500D01*
X130116677Y-45358409D01*
X130354153Y-45294778D01*
X130581292Y-45200694D01*
X130794208Y-45077767D01*
X130989256Y-44928101D01*
X131163101Y-44754256D01*
X131312767Y-44559208D01*
X131435694Y-44346292D01*
X131529778Y-44119153D01*
X131593409Y-43881677D01*
X131625500Y-43637927D01*
X131625500Y-43392073D01*
X131593409Y-43148323D01*
X131529778Y-42910847D01*
X131435694Y-42683708D01*
X131312767Y-42470792D01*
X131167005Y-42280832D01*
X131163102Y-42275745D01*
X131163096Y-42275738D01*
X130989261Y-42101903D01*
X130989254Y-42101897D01*
X130794212Y-41952236D01*
X130794211Y-41952235D01*
X130794208Y-41952233D01*
X130581292Y-41829306D01*
X130581285Y-41829303D01*
X130354162Y-41735225D01*
X130354155Y-41735223D01*
X130354153Y-41735222D01*
X130116677Y-41671591D01*
X130075939Y-41666227D01*
X129872934Y-41639500D01*
X129872927Y-41639500D01*
X129627073Y-41639500D01*
X129627065Y-41639500D01*
X129395059Y-41670045D01*
X129383323Y-41671591D01*
X129145847Y-41735222D01*
X129145837Y-41735225D01*
X128918714Y-41829303D01*
X128918705Y-41829307D01*
X128705787Y-41952236D01*
X128510745Y-42101897D01*
X128510738Y-42101903D01*
X128336903Y-42275738D01*
X128336897Y-42275745D01*
X128187236Y-42470787D01*
X128064307Y-42683705D01*
X128064303Y-42683714D01*
X127970225Y-42910837D01*
X127970222Y-42910847D01*
X127906592Y-43148320D01*
X127906590Y-43148331D01*
X127874500Y-43392065D01*
X118925499Y-43392065D01*
X118893409Y-43148323D01*
X118829778Y-42910847D01*
X118735694Y-42683708D01*
X118612767Y-42470792D01*
X118467005Y-42280832D01*
X118463102Y-42275745D01*
X118463096Y-42275738D01*
X118289261Y-42101903D01*
X118289254Y-42101897D01*
X118094212Y-41952236D01*
X118094211Y-41952235D01*
X118094208Y-41952233D01*
X117881292Y-41829306D01*
X117881285Y-41829303D01*
X117654162Y-41735225D01*
X117654155Y-41735223D01*
X117654153Y-41735222D01*
X117416677Y-41671591D01*
X117375939Y-41666227D01*
X117172934Y-41639500D01*
X117172927Y-41639500D01*
X116927073Y-41639500D01*
X116927065Y-41639500D01*
X116695059Y-41670045D01*
X116683323Y-41671591D01*
X116445847Y-41735222D01*
X116445837Y-41735225D01*
X116218714Y-41829303D01*
X116218705Y-41829307D01*
X116005787Y-41952236D01*
X115810745Y-42101897D01*
X115810738Y-42101903D01*
X115636903Y-42275738D01*
X115636897Y-42275745D01*
X115487236Y-42470787D01*
X115364307Y-42683705D01*
X115364303Y-42683714D01*
X115270225Y-42910837D01*
X115270222Y-42910847D01*
X115206592Y-43148320D01*
X115206590Y-43148331D01*
X115174500Y-43392065D01*
X77595903Y-43392065D01*
X77597796Y-43265075D01*
X77633805Y-40849223D01*
X78199500Y-40849223D01*
X78199500Y-41150776D01*
X78199501Y-41150793D01*
X78238861Y-41449766D01*
X78316913Y-41741060D01*
X78432314Y-42019661D01*
X78432318Y-42019671D01*
X78583099Y-42280831D01*
X78766679Y-42520078D01*
X78766685Y-42520085D01*
X78979914Y-42733314D01*
X78979921Y-42733320D01*
X79219168Y-42916900D01*
X79480328Y-43067681D01*
X79480329Y-43067681D01*
X79480332Y-43067683D01*
X79666072Y-43144619D01*
X79758939Y-43183086D01*
X79758940Y-43183086D01*
X79758942Y-43183087D01*
X80050232Y-43261138D01*
X80349217Y-43300500D01*
X80349224Y-43300500D01*
X80650776Y-43300500D01*
X80650783Y-43300500D01*
X80949768Y-43261138D01*
X81241058Y-43183087D01*
X81519668Y-43067683D01*
X81780832Y-42916900D01*
X82020080Y-42733319D01*
X82233319Y-42520080D01*
X82416900Y-42280832D01*
X82567683Y-42019668D01*
X82683087Y-41741058D01*
X82761138Y-41449768D01*
X82800500Y-41150783D01*
X82800500Y-41029223D01*
X144639500Y-41029223D01*
X144639500Y-41330776D01*
X144639501Y-41330793D01*
X144678861Y-41629766D01*
X144756913Y-41921060D01*
X144872314Y-42199661D01*
X144872318Y-42199671D01*
X145023099Y-42460831D01*
X145206679Y-42700078D01*
X145206685Y-42700085D01*
X145419914Y-42913314D01*
X145419921Y-42913320D01*
X145659168Y-43096900D01*
X145920328Y-43247681D01*
X145920329Y-43247681D01*
X145920332Y-43247683D01*
X146047839Y-43300498D01*
X146198939Y-43363086D01*
X146198940Y-43363086D01*
X146198942Y-43363087D01*
X146490232Y-43441138D01*
X146789217Y-43480500D01*
X146789224Y-43480500D01*
X147090776Y-43480500D01*
X147090783Y-43480500D01*
X147389768Y-43441138D01*
X147681058Y-43363087D01*
X147959668Y-43247683D01*
X148220832Y-43096900D01*
X148460080Y-42913319D01*
X148673319Y-42700080D01*
X148856900Y-42460832D01*
X149007683Y-42199668D01*
X149123087Y-41921058D01*
X149201138Y-41629768D01*
X149240500Y-41330783D01*
X149240500Y-41029217D01*
X149201138Y-40730232D01*
X149123087Y-40438942D01*
X149007683Y-40160332D01*
X148903763Y-39980338D01*
X148856900Y-39899168D01*
X148673320Y-39659921D01*
X148673314Y-39659914D01*
X148460085Y-39446685D01*
X148460078Y-39446679D01*
X148220831Y-39263099D01*
X147959671Y-39112318D01*
X147959661Y-39112314D01*
X147681060Y-38996913D01*
X147389766Y-38918861D01*
X147090793Y-38879501D01*
X147090788Y-38879500D01*
X147090783Y-38879500D01*
X146789217Y-38879500D01*
X146789211Y-38879500D01*
X146789206Y-38879501D01*
X146490233Y-38918861D01*
X146198939Y-38996913D01*
X145920338Y-39112314D01*
X145920328Y-39112318D01*
X145659168Y-39263099D01*
X145419921Y-39446679D01*
X145419914Y-39446685D01*
X145206685Y-39659914D01*
X145206679Y-39659921D01*
X145023099Y-39899168D01*
X144872318Y-40160328D01*
X144872314Y-40160338D01*
X144756913Y-40438939D01*
X144678861Y-40730233D01*
X144639501Y-41029206D01*
X144639500Y-41029223D01*
X82800500Y-41029223D01*
X82800500Y-40849217D01*
X82761138Y-40550232D01*
X82683087Y-40258942D01*
X82567683Y-39980332D01*
X82416900Y-39719168D01*
X82233319Y-39479920D01*
X82233314Y-39479914D01*
X82020085Y-39266685D01*
X82020078Y-39266679D01*
X81780831Y-39083099D01*
X81519671Y-38932318D01*
X81519661Y-38932314D01*
X81241060Y-38816913D01*
X80949766Y-38738861D01*
X80650793Y-38699501D01*
X80650788Y-38699500D01*
X80650783Y-38699500D01*
X80349217Y-38699500D01*
X80349211Y-38699500D01*
X80349206Y-38699501D01*
X80050233Y-38738861D01*
X79758939Y-38816913D01*
X79480338Y-38932314D01*
X79480328Y-38932318D01*
X79219168Y-39083099D01*
X78979921Y-39266679D01*
X78979914Y-39266685D01*
X78766685Y-39479914D01*
X78766679Y-39479921D01*
X78583099Y-39719168D01*
X78432318Y-39980328D01*
X78432314Y-39980338D01*
X78316913Y-40258939D01*
X78238861Y-40550233D01*
X78199501Y-40849206D01*
X78199500Y-40849223D01*
X77633805Y-40849223D01*
X77674445Y-38122650D01*
X77695126Y-38055913D01*
X77748606Y-38010950D01*
X77798431Y-38000500D01*
X150255500Y-38000500D01*
X150322539Y-38020185D01*
G37*
G04 #@! TD.AperFunction*
M02*
