G04 #@! TF.GenerationSoftware,KiCad,Pcbnew,9.0.6*
G04 #@! TF.CreationDate,2026-01-23T12:37:49-06:00*
G04 #@! TF.ProjectId,aei,6165692e-6b69-4636-9164-5f7063625858,rev?*
G04 #@! TF.SameCoordinates,Original*
G04 #@! TF.FileFunction,Copper,L4,Bot*
G04 #@! TF.FilePolarity,Positive*
%FSLAX46Y46*%
G04 Gerber Fmt 4.6, Leading zero omitted, Abs format (unit mm)*
G04 Created by KiCad (PCBNEW 9.0.6) date 2026-01-23 12:37:49*
%MOMM*%
%LPD*%
G01*
G04 APERTURE LIST*
G04 Aperture macros list*
%AMRoundRect*
0 Rectangle with rounded corners*
0 $1 Rounding radius*
0 $2 $3 $4 $5 $6 $7 $8 $9 X,Y pos of 4 corners*
0 Add a 4 corners polygon primitive as box body*
4,1,4,$2,$3,$4,$5,$6,$7,$8,$9,$2,$3,0*
0 Add four circle primitives for the rounded corners*
1,1,$1+$1,$2,$3*
1,1,$1+$1,$4,$5*
1,1,$1+$1,$6,$7*
1,1,$1+$1,$8,$9*
0 Add four rect primitives between the rounded corners*
20,1,$1+$1,$2,$3,$4,$5,0*
20,1,$1+$1,$4,$5,$6,$7,0*
20,1,$1+$1,$6,$7,$8,$9,0*
20,1,$1+$1,$8,$9,$2,$3,0*%
G04 Aperture macros list end*
G04 #@! TA.AperFunction,ComponentPad*
%ADD10C,3.600000*%
G04 #@! TD*
G04 #@! TA.AperFunction,ConnectorPad*
%ADD11C,5.600000*%
G04 #@! TD*
G04 #@! TA.AperFunction,ComponentPad*
%ADD12C,2.000000*%
G04 #@! TD*
G04 #@! TA.AperFunction,ComponentPad*
%ADD13R,1.500000X1.500000*%
G04 #@! TD*
G04 #@! TA.AperFunction,ComponentPad*
%ADD14C,1.500000*%
G04 #@! TD*
G04 #@! TA.AperFunction,ComponentPad*
%ADD15C,2.300000*%
G04 #@! TD*
G04 #@! TA.AperFunction,ComponentPad*
%ADD16R,1.508000X1.508000*%
G04 #@! TD*
G04 #@! TA.AperFunction,ComponentPad*
%ADD17C,1.508000*%
G04 #@! TD*
G04 #@! TA.AperFunction,ComponentPad*
%ADD18RoundRect,0.250000X-1.050000X1.050000X-1.050000X-1.050000X1.050000X-1.050000X1.050000X1.050000X0*%
G04 #@! TD*
G04 #@! TA.AperFunction,ComponentPad*
%ADD19C,2.600000*%
G04 #@! TD*
G04 #@! TA.AperFunction,ComponentPad*
%ADD20RoundRect,0.250000X1.050000X-1.050000X1.050000X1.050000X-1.050000X1.050000X-1.050000X-1.050000X0*%
G04 #@! TD*
G04 #@! TA.AperFunction,ComponentPad*
%ADD21R,1.222000X1.222000*%
G04 #@! TD*
G04 #@! TA.AperFunction,ComponentPad*
%ADD22C,1.222000*%
G04 #@! TD*
G04 #@! TA.AperFunction,ComponentPad*
%ADD23R,2.600000X2.600000*%
G04 #@! TD*
G04 #@! TA.AperFunction,SMDPad,CuDef*
%ADD24RoundRect,0.250000X0.475000X-0.337500X0.475000X0.337500X-0.475000X0.337500X-0.475000X-0.337500X0*%
G04 #@! TD*
G04 #@! TA.AperFunction,SMDPad,CuDef*
%ADD25RoundRect,0.250000X-0.650000X0.412500X-0.650000X-0.412500X0.650000X-0.412500X0.650000X0.412500X0*%
G04 #@! TD*
G04 #@! TA.AperFunction,SMDPad,CuDef*
%ADD26R,2.286000X1.016000*%
G04 #@! TD*
G04 #@! TA.AperFunction,SMDPad,CuDef*
%ADD27R,11.252200X9.448800*%
G04 #@! TD*
G04 #@! TA.AperFunction,SMDPad,CuDef*
%ADD28RoundRect,0.237500X-0.237500X0.300000X-0.237500X-0.300000X0.237500X-0.300000X0.237500X0.300000X0*%
G04 #@! TD*
G04 #@! TA.AperFunction,ViaPad*
%ADD29C,0.600000*%
G04 #@! TD*
G04 #@! TA.AperFunction,Conductor*
%ADD30C,1.500000*%
G04 #@! TD*
G04 #@! TA.AperFunction,Conductor*
%ADD31C,0.500000*%
G04 #@! TD*
G04 #@! TA.AperFunction,Conductor*
%ADD32C,1.000000*%
G04 #@! TD*
G04 APERTURE END LIST*
D10*
X80500000Y-41000000D03*
D11*
X80500000Y-41000000D03*
D12*
X129180000Y-57430000D03*
D10*
X146940000Y-41180000D03*
D11*
X146940000Y-41180000D03*
D13*
X119840000Y-46055000D03*
D14*
X120856000Y-47835000D03*
X121872000Y-46055000D03*
X122888000Y-47835000D03*
X123904000Y-46055000D03*
X124920000Y-47835000D03*
X125936000Y-46055000D03*
X126952000Y-47835000D03*
D15*
X115270000Y-46945000D03*
X131530000Y-46945000D03*
D12*
X95310000Y-67650000D03*
X129070000Y-71890000D03*
X129210000Y-61210000D03*
X95260000Y-58000000D03*
X101730000Y-118820000D03*
X80200000Y-89420000D03*
D16*
X121260000Y-112970000D03*
D17*
X121260000Y-110430000D03*
X121260000Y-107890000D03*
X121260000Y-102810000D03*
X121260000Y-100270000D03*
X121260000Y-97730000D03*
X121260000Y-95190000D03*
D10*
X147070000Y-118060000D03*
D11*
X147070000Y-118060000D03*
D18*
X82697500Y-105040000D03*
D19*
X82697500Y-110040000D03*
D20*
X140172500Y-82300000D03*
D19*
X140172500Y-77300000D03*
X140172500Y-72300000D03*
X140172500Y-67300000D03*
X140172500Y-62300000D03*
X140172500Y-57300000D03*
D12*
X95360000Y-73150000D03*
X80220000Y-79800000D03*
D16*
X131880000Y-113190000D03*
D17*
X131880000Y-110650000D03*
X131880000Y-108110000D03*
X131880000Y-103030000D03*
X131880000Y-100490000D03*
X131880000Y-97950000D03*
X131880000Y-95410000D03*
D21*
X101600000Y-88160000D03*
D22*
X99060000Y-85620000D03*
X101600000Y-83080000D03*
D12*
X96040000Y-48650000D03*
X129130000Y-67920000D03*
X80010000Y-99670000D03*
X129100000Y-75620000D03*
X95420000Y-53050000D03*
X95260000Y-63180000D03*
D23*
X86570000Y-48140000D03*
D19*
X86570000Y-53140000D03*
X86570000Y-58140000D03*
X86570000Y-63140000D03*
X86570000Y-68140000D03*
X86570000Y-73140000D03*
D12*
X80240000Y-94910000D03*
X80150000Y-84670000D03*
X106530000Y-118900000D03*
D10*
X80500000Y-118500000D03*
D11*
X80500000Y-118500000D03*
D24*
X116940000Y-99957500D03*
X116940000Y-97882500D03*
X135380000Y-99187500D03*
X135380000Y-97112500D03*
D25*
X117020000Y-109837500D03*
X117020000Y-112962500D03*
D24*
X111810000Y-89165000D03*
X111810000Y-87090000D03*
D25*
X91750000Y-105457500D03*
X91750000Y-108582500D03*
D26*
X115868900Y-89693600D03*
X115868900Y-87991800D03*
X115868900Y-86290000D03*
X115868900Y-84588200D03*
X115868900Y-82886400D03*
D27*
X124670000Y-86290000D03*
D25*
X136770000Y-110007500D03*
X136770000Y-113132500D03*
D28*
X111700000Y-83510000D03*
X111700000Y-85235000D03*
D29*
X103280000Y-73240000D03*
X100910000Y-70360000D03*
X121280000Y-69740000D03*
X101600000Y-70360000D03*
X122760000Y-59200000D03*
X118720000Y-64350000D03*
X112710000Y-54670000D03*
X101600000Y-59730000D03*
X112710000Y-53940000D03*
X122305000Y-59655000D03*
X102200000Y-59730000D03*
X121280000Y-70380000D03*
X102360000Y-73240000D03*
X118070000Y-63780000D03*
X116540000Y-69670000D03*
X117280000Y-59830000D03*
X116540000Y-59830000D03*
X116510000Y-70430000D03*
X116540000Y-71060000D03*
X106770000Y-70400000D03*
X107370000Y-70420000D03*
X106580000Y-59750000D03*
X107420000Y-59770000D03*
X107010000Y-57290000D03*
X106360000Y-57290000D03*
D30*
X136127500Y-110650000D02*
X136770000Y-110007500D01*
X131880000Y-110650000D02*
X136127500Y-110650000D01*
X117612500Y-110430000D02*
X117020000Y-109837500D01*
X121260000Y-110430000D02*
X117612500Y-110430000D01*
D31*
X111930000Y-86290000D02*
X111810000Y-86410000D01*
D32*
X121260000Y-97730000D02*
X117092500Y-97730000D01*
D31*
X111810000Y-85345000D02*
X111700000Y-85235000D01*
X131182500Y-86290000D02*
X124670000Y-86290000D01*
X115868900Y-86290000D02*
X124670000Y-86290000D01*
D32*
X111810000Y-87090000D02*
X111810000Y-85345000D01*
X116940000Y-94020000D02*
X124670000Y-86290000D01*
X115868900Y-86290000D02*
X111930000Y-86290000D01*
D31*
X117092500Y-97730000D02*
X116940000Y-97882500D01*
X140172500Y-77300000D02*
X131182500Y-86290000D01*
D32*
X116940000Y-97882500D02*
X116940000Y-94020000D01*
X115110000Y-90452500D02*
X115400000Y-90162500D01*
X82830000Y-82870000D02*
X82830000Y-48300000D01*
D31*
X80721900Y-89941900D02*
X80200000Y-89420000D01*
X120947500Y-99957500D02*
X121260000Y-100270000D01*
D32*
X82860000Y-82900000D02*
X82830000Y-82870000D01*
X115110000Y-98970000D02*
X115110000Y-90452500D01*
X110626000Y-90349000D02*
X81129000Y-90349000D01*
X82860000Y-86760000D02*
X82860000Y-82900000D01*
X82990000Y-48140000D02*
X83430000Y-47700000D01*
X111810000Y-89165000D02*
X110626000Y-90349000D01*
X115400000Y-99260000D02*
X115110000Y-98970000D01*
X115868900Y-89693600D02*
X112338600Y-89693600D01*
X83430000Y-47700000D02*
X86130000Y-47700000D01*
X116940000Y-99957500D02*
X120947500Y-99957500D01*
X86130000Y-47700000D02*
X86570000Y-48140000D01*
X80200000Y-89420000D02*
X82860000Y-86760000D01*
X115868900Y-89693600D02*
X115868900Y-87991800D01*
X112338600Y-89693600D02*
X111810000Y-89165000D01*
X116097500Y-99957500D02*
X115400000Y-99260000D01*
X81129000Y-90349000D02*
X80200000Y-89420000D01*
X116940000Y-99957500D02*
X116097500Y-99957500D01*
X134770000Y-100490000D02*
X131880000Y-100490000D01*
X135380000Y-99880000D02*
X135380000Y-99187500D01*
X135380000Y-99880000D02*
X134770000Y-100490000D01*
D31*
X131880000Y-95410000D02*
X131880000Y-95650000D01*
D32*
X131880000Y-95650000D02*
X132120000Y-95890000D01*
X132120000Y-95890000D02*
X134157500Y-95890000D01*
X134157500Y-95890000D02*
X135380000Y-97112500D01*
D30*
X121260000Y-112970000D02*
X117027500Y-112970000D01*
X136712500Y-113190000D02*
X136770000Y-113132500D01*
D31*
X117020000Y-112962500D02*
X117042500Y-112940000D01*
X117027500Y-112970000D02*
X117020000Y-112962500D01*
X121230000Y-112940000D02*
X121260000Y-112970000D01*
D30*
X131880000Y-113190000D02*
X136712500Y-113190000D01*
D32*
X103610000Y-81070000D02*
X109875000Y-81070000D01*
D31*
X111700000Y-82895000D02*
X111700000Y-83510000D01*
D32*
X115868900Y-82886400D02*
X112323600Y-82886400D01*
X101600000Y-83080000D02*
X103610000Y-81070000D01*
X112323600Y-82886400D02*
X111700000Y-83510000D01*
D31*
X115868900Y-84588200D02*
X115867100Y-84590000D01*
D32*
X109875000Y-81070000D02*
X111700000Y-82895000D01*
X115868900Y-82886400D02*
X115868900Y-84588200D01*
D31*
X131230000Y-65820000D02*
X131230000Y-49920000D01*
X131230000Y-49920000D02*
X127365000Y-46055000D01*
X127365000Y-46055000D02*
X125936000Y-46055000D01*
X129130000Y-67920000D02*
X131230000Y-65820000D01*
X126952000Y-69772000D02*
X126952000Y-47835000D01*
X129070000Y-71890000D02*
X126952000Y-69772000D01*
D30*
X91262500Y-105457500D02*
X91750000Y-104970000D01*
D31*
X82087500Y-105040000D02*
X81947500Y-105180000D01*
D30*
X83115000Y-105457500D02*
X91262500Y-105457500D01*
D31*
X82697500Y-105040000D02*
X82087500Y-105040000D01*
D30*
X82697500Y-105040000D02*
X83115000Y-105457500D01*
X83717500Y-108410000D02*
X82697500Y-109430000D01*
X91090000Y-108410000D02*
X83717500Y-108410000D01*
X82697500Y-109430000D02*
X82697500Y-110040000D01*
D31*
X91750000Y-109070000D02*
X91090000Y-108410000D01*
M02*
