G04 #@! TF.GenerationSoftware,KiCad,Pcbnew,9.0.6*
G04 #@! TF.CreationDate,2026-01-23T12:37:49-06:00*
G04 #@! TF.ProjectId,aei,6165692e-6b69-4636-9164-5f7063625858,rev?*
G04 #@! TF.SameCoordinates,Original*
G04 #@! TF.FileFunction,Paste,Top*
G04 #@! TF.FilePolarity,Positive*
%FSLAX46Y46*%
G04 Gerber Fmt 4.6, Leading zero omitted, Abs format (unit mm)*
G04 Created by KiCad (PCBNEW 9.0.6) date 2026-01-23 12:37:49*
%MOMM*%
%LPD*%
G01*
G04 APERTURE LIST*
G04 Aperture macros list*
%AMRoundRect*
0 Rectangle with rounded corners*
0 $1 Rounding radius*
0 $2 $3 $4 $5 $6 $7 $8 $9 X,Y pos of 4 corners*
0 Add a 4 corners polygon primitive as box body*
4,1,4,$2,$3,$4,$5,$6,$7,$8,$9,$2,$3,0*
0 Add four circle primitives for the rounded corners*
1,1,$1+$1,$2,$3*
1,1,$1+$1,$4,$5*
1,1,$1+$1,$6,$7*
1,1,$1+$1,$8,$9*
0 Add four rect primitives between the rounded corners*
20,1,$1+$1,$2,$3,$4,$5,0*
20,1,$1+$1,$4,$5,$6,$7,0*
20,1,$1+$1,$6,$7,$8,$9,0*
20,1,$1+$1,$8,$9,$2,$3,0*%
G04 Aperture macros list end*
%ADD10RoundRect,0.237500X-0.300000X-0.237500X0.300000X-0.237500X0.300000X0.237500X-0.300000X0.237500X0*%
%ADD11RoundRect,0.237500X-0.287500X-0.237500X0.287500X-0.237500X0.287500X0.237500X-0.287500X0.237500X0*%
%ADD12RoundRect,0.237500X0.300000X0.237500X-0.300000X0.237500X-0.300000X-0.237500X0.300000X-0.237500X0*%
%ADD13RoundRect,0.237500X0.237500X-0.300000X0.237500X0.300000X-0.237500X0.300000X-0.237500X-0.300000X0*%
%ADD14RoundRect,0.237500X0.287500X0.237500X-0.287500X0.237500X-0.287500X-0.237500X0.287500X-0.237500X0*%
%ADD15RoundRect,0.250000X-0.400000X-0.625000X0.400000X-0.625000X0.400000X0.625000X-0.400000X0.625000X0*%
%ADD16R,1.981200X0.558800*%
%ADD17RoundRect,0.237500X-0.250000X-0.237500X0.250000X-0.237500X0.250000X0.237500X-0.250000X0.237500X0*%
%ADD18R,2.700000X2.700000*%
G04 APERTURE END LIST*
D10*
X118077500Y-70440000D03*
X119802500Y-70440000D03*
D11*
X83430000Y-94860000D03*
X85180000Y-94860000D03*
D12*
X105172500Y-59730000D03*
X103447500Y-59730000D03*
D13*
X104950000Y-57190000D03*
X104950000Y-55465000D03*
D14*
X85172500Y-84710000D03*
X83422500Y-84710000D03*
D15*
X100720000Y-79690000D03*
X103820000Y-79690000D03*
D16*
X109340000Y-66610000D03*
X109340000Y-67880000D03*
X109340000Y-69150000D03*
X109340000Y-70420000D03*
X109340000Y-71690000D03*
X109340000Y-72960000D03*
X109340000Y-74230000D03*
X114267600Y-74230000D03*
X114267600Y-72960000D03*
X114267600Y-71690000D03*
X114267600Y-70420000D03*
X114267600Y-69150000D03*
X114267600Y-67880000D03*
X114267600Y-66610000D03*
D17*
X87260000Y-89640000D03*
X89085000Y-89640000D03*
D12*
X106672500Y-73140000D03*
X104947500Y-73140000D03*
D16*
X109282400Y-56020000D03*
X109282400Y-57290000D03*
X109282400Y-58560000D03*
X109282400Y-59830000D03*
X109282400Y-61100000D03*
X109282400Y-62370000D03*
X109282400Y-63640000D03*
X114210000Y-63640000D03*
X114210000Y-62370000D03*
X114210000Y-61100000D03*
X114210000Y-59830000D03*
X114210000Y-58560000D03*
X114210000Y-57290000D03*
X114210000Y-56020000D03*
D17*
X87217500Y-84710000D03*
X89042500Y-84710000D03*
D10*
X118427500Y-59950000D03*
X120152500Y-59950000D03*
D12*
X105532500Y-70340000D03*
X103807500Y-70340000D03*
D14*
X85132500Y-89600000D03*
X83382500Y-89600000D03*
D18*
X97800000Y-104230000D03*
X97800000Y-110430000D03*
X105400000Y-110430000D03*
X105400000Y-104230000D03*
D17*
X87147500Y-94810000D03*
X88972500Y-94810000D03*
M02*
