G04 #@! TF.GenerationSoftware,KiCad,Pcbnew,9.0.6*
G04 #@! TF.CreationDate,2026-01-23T12:37:49-06:00*
G04 #@! TF.ProjectId,aei,6165692e-6b69-4636-9164-5f7063625858,rev?*
G04 #@! TF.SameCoordinates,Original*
G04 #@! TF.FileFunction,Copper,L3,Inr*
G04 #@! TF.FilePolarity,Positive*
%FSLAX46Y46*%
G04 Gerber Fmt 4.6, Leading zero omitted, Abs format (unit mm)*
G04 Created by KiCad (PCBNEW 9.0.6) date 2026-01-23 12:37:49*
%MOMM*%
%LPD*%
G01*
G04 APERTURE LIST*
G04 Aperture macros list*
%AMRoundRect*
0 Rectangle with rounded corners*
0 $1 Rounding radius*
0 $2 $3 $4 $5 $6 $7 $8 $9 X,Y pos of 4 corners*
0 Add a 4 corners polygon primitive as box body*
4,1,4,$2,$3,$4,$5,$6,$7,$8,$9,$2,$3,0*
0 Add four circle primitives for the rounded corners*
1,1,$1+$1,$2,$3*
1,1,$1+$1,$4,$5*
1,1,$1+$1,$6,$7*
1,1,$1+$1,$8,$9*
0 Add four rect primitives between the rounded corners*
20,1,$1+$1,$2,$3,$4,$5,0*
20,1,$1+$1,$4,$5,$6,$7,0*
20,1,$1+$1,$6,$7,$8,$9,0*
20,1,$1+$1,$8,$9,$2,$3,0*%
G04 Aperture macros list end*
G04 #@! TA.AperFunction,ComponentPad*
%ADD10C,3.600000*%
G04 #@! TD*
G04 #@! TA.AperFunction,ComponentPad*
%ADD11C,2.000000*%
G04 #@! TD*
G04 #@! TA.AperFunction,ComponentPad*
%ADD12R,1.500000X1.500000*%
G04 #@! TD*
G04 #@! TA.AperFunction,ComponentPad*
%ADD13C,1.500000*%
G04 #@! TD*
G04 #@! TA.AperFunction,ComponentPad*
%ADD14C,2.300000*%
G04 #@! TD*
G04 #@! TA.AperFunction,ComponentPad*
%ADD15R,1.508000X1.508000*%
G04 #@! TD*
G04 #@! TA.AperFunction,ComponentPad*
%ADD16C,1.508000*%
G04 #@! TD*
G04 #@! TA.AperFunction,ComponentPad*
%ADD17RoundRect,0.250000X-1.050000X1.050000X-1.050000X-1.050000X1.050000X-1.050000X1.050000X1.050000X0*%
G04 #@! TD*
G04 #@! TA.AperFunction,ComponentPad*
%ADD18C,2.600000*%
G04 #@! TD*
G04 #@! TA.AperFunction,ComponentPad*
%ADD19RoundRect,0.250000X1.050000X-1.050000X1.050000X1.050000X-1.050000X1.050000X-1.050000X-1.050000X0*%
G04 #@! TD*
G04 #@! TA.AperFunction,ComponentPad*
%ADD20R,1.222000X1.222000*%
G04 #@! TD*
G04 #@! TA.AperFunction,ComponentPad*
%ADD21C,1.222000*%
G04 #@! TD*
G04 #@! TA.AperFunction,ComponentPad*
%ADD22R,2.600000X2.600000*%
G04 #@! TD*
G04 #@! TA.AperFunction,ViaPad*
%ADD23C,0.600000*%
G04 #@! TD*
G04 #@! TA.AperFunction,Conductor*
%ADD24C,0.500000*%
G04 #@! TD*
G04 #@! TA.AperFunction,Conductor*
%ADD25C,1.000000*%
G04 #@! TD*
G04 APERTURE END LIST*
D10*
X80500000Y-41000000D03*
D11*
X129180000Y-57430000D03*
D10*
X146940000Y-41180000D03*
D12*
X119840000Y-46055000D03*
D13*
X120856000Y-47835000D03*
X121872000Y-46055000D03*
X122888000Y-47835000D03*
X123904000Y-46055000D03*
X124920000Y-47835000D03*
X125936000Y-46055000D03*
X126952000Y-47835000D03*
D14*
X115270000Y-46945000D03*
X131530000Y-46945000D03*
D11*
X95310000Y-67650000D03*
X129070000Y-71890000D03*
X129210000Y-61210000D03*
X95260000Y-58000000D03*
X101730000Y-118820000D03*
X80200000Y-89420000D03*
D15*
X121260000Y-112970000D03*
D16*
X121260000Y-110430000D03*
X121260000Y-107890000D03*
X121260000Y-102810000D03*
X121260000Y-100270000D03*
X121260000Y-97730000D03*
X121260000Y-95190000D03*
D10*
X147070000Y-118060000D03*
D17*
X82697500Y-105040000D03*
D18*
X82697500Y-110040000D03*
D19*
X140172500Y-82300000D03*
D18*
X140172500Y-77300000D03*
X140172500Y-72300000D03*
X140172500Y-67300000D03*
X140172500Y-62300000D03*
X140172500Y-57300000D03*
D11*
X95360000Y-73150000D03*
X80220000Y-79800000D03*
D15*
X131880000Y-113190000D03*
D16*
X131880000Y-110650000D03*
X131880000Y-108110000D03*
X131880000Y-103030000D03*
X131880000Y-100490000D03*
X131880000Y-97950000D03*
X131880000Y-95410000D03*
D20*
X101600000Y-88160000D03*
D21*
X99060000Y-85620000D03*
X101600000Y-83080000D03*
D11*
X96040000Y-48650000D03*
X129130000Y-67920000D03*
X80010000Y-99670000D03*
X129100000Y-75620000D03*
X95420000Y-53050000D03*
X95260000Y-63180000D03*
D22*
X86570000Y-48140000D03*
D18*
X86570000Y-53140000D03*
X86570000Y-58140000D03*
X86570000Y-63140000D03*
X86570000Y-68140000D03*
X86570000Y-73140000D03*
D11*
X80240000Y-94910000D03*
X80150000Y-84670000D03*
X106530000Y-118900000D03*
D10*
X80500000Y-118500000D03*
D23*
X103280000Y-73240000D03*
X100910000Y-70360000D03*
X121280000Y-69740000D03*
X101600000Y-70360000D03*
X122760000Y-59200000D03*
X118720000Y-64350000D03*
X112710000Y-54670000D03*
X101600000Y-59730000D03*
X112710000Y-53940000D03*
X122305000Y-59655000D03*
X102200000Y-59730000D03*
X121280000Y-70380000D03*
X102360000Y-73240000D03*
X118070000Y-63780000D03*
X116540000Y-69670000D03*
X117280000Y-59830000D03*
X116540000Y-59830000D03*
X116510000Y-70430000D03*
X116540000Y-71060000D03*
X106770000Y-70400000D03*
X107370000Y-70420000D03*
X106580000Y-59750000D03*
X107420000Y-59770000D03*
X107010000Y-57290000D03*
X106360000Y-57290000D03*
D24*
X80150000Y-84670000D02*
X78170000Y-86650000D01*
X129830000Y-100490000D02*
X131880000Y-100490000D01*
X80880000Y-97410000D02*
X86470000Y-91820000D01*
D25*
X116540000Y-69670000D02*
X116540000Y-59830000D01*
D24*
X121160000Y-91820000D02*
X129830000Y-100490000D01*
D25*
X116540000Y-70660000D02*
X116540000Y-71060000D01*
X116540000Y-72790000D02*
X133850000Y-90100000D01*
X116540000Y-70660000D02*
X116540000Y-69670000D01*
D24*
X78170000Y-96200000D02*
X79380000Y-97410000D01*
X79380000Y-97410000D02*
X80880000Y-97410000D01*
D25*
X116540000Y-59830000D02*
X117280000Y-59830000D01*
X116540000Y-71060000D02*
X116540000Y-72790000D01*
D24*
X78170000Y-86650000D02*
X78170000Y-96200000D01*
D25*
X133850000Y-98520000D02*
X131880000Y-100490000D01*
X133850000Y-90100000D02*
X133850000Y-98520000D01*
D24*
X86470000Y-91820000D02*
X121160000Y-91820000D01*
D25*
X106600000Y-59770000D02*
X106580000Y-59750000D01*
D24*
X121980000Y-89950000D02*
X123110000Y-91080000D01*
D25*
X106770000Y-74360000D02*
X127820000Y-95410000D01*
X106770000Y-70400000D02*
X106770000Y-74360000D01*
X127820000Y-95410000D02*
X131880000Y-95410000D01*
D24*
X123110000Y-91080000D02*
X123110000Y-91150000D01*
D25*
X107630000Y-70400000D02*
X106770000Y-70400000D01*
X107420000Y-59770000D02*
X106770000Y-60420000D01*
X107420000Y-59770000D02*
X106600000Y-59770000D01*
X106770000Y-60420000D02*
X106770000Y-70740000D01*
D24*
X80240000Y-94910000D02*
X85200000Y-89950000D01*
X85200000Y-89950000D02*
X121980000Y-89950000D01*
X129210000Y-61210000D02*
X120856000Y-52856000D01*
X129210000Y-61210000D02*
X128351000Y-61210000D01*
X120856000Y-52856000D02*
X120856000Y-47835000D01*
X107010000Y-57290000D02*
X105620000Y-57290000D01*
X105620000Y-57290000D02*
X105360000Y-57030000D01*
D25*
X98449000Y-85009000D02*
X99060000Y-85620000D01*
X101620000Y-57270000D02*
X101350000Y-57540000D01*
D24*
X105360000Y-57030000D02*
X103680000Y-57030000D01*
D25*
X101350000Y-57580000D02*
X98449000Y-60481000D01*
X98449000Y-60481000D02*
X98449000Y-85009000D01*
X107010000Y-57290000D02*
X103680000Y-57290000D01*
X101350000Y-57540000D02*
X101350000Y-57580000D01*
X103660000Y-57270000D02*
X101620000Y-57270000D01*
X103680000Y-57290000D02*
X103660000Y-57270000D01*
M02*
