G04*
G04 #@! TF.GenerationSoftware,Altium Limited,Altium Designer,22.2.1 (43)*
G04*
G04 Layer_Color=8421504*
%FSLAX25Y25*%
%MOIN*%
G70*
G04*
G04 #@! TF.SameCoordinates,550063A1-71E6-411B-B153-969BAF3FA875*
G04*
G04*
G04 #@! TF.FilePolarity,Positive*
G04*
G01*
G75*
%ADD18R,0.04134X0.05315*%
%ADD19R,0.06102X0.05315*%
%ADD20R,0.05315X0.04134*%
%ADD21R,0.12402X0.49213*%
G04:AMPARAMS|DCode=22|XSize=77.56mil|YSize=23.62mil|CornerRadius=2.95mil|HoleSize=0mil|Usage=FLASHONLY|Rotation=270.000|XOffset=0mil|YOffset=0mil|HoleType=Round|Shape=RoundedRectangle|*
%AMROUNDEDRECTD22*
21,1,0.07756,0.01772,0,0,270.0*
21,1,0.07165,0.02362,0,0,270.0*
1,1,0.00591,-0.00886,-0.03583*
1,1,0.00591,-0.00886,0.03583*
1,1,0.00591,0.00886,0.03583*
1,1,0.00591,0.00886,-0.03583*
%
%ADD22ROUNDEDRECTD22*%
D18*
X739000Y170000D02*
D03*
X745890D02*
D03*
X930445Y114000D02*
D03*
X923555D02*
D03*
X783645Y489100D02*
D03*
X776755D02*
D03*
X757955Y351000D02*
D03*
X764845D02*
D03*
X761055Y231000D02*
D03*
X767945D02*
D03*
X743255Y531500D02*
D03*
X750145D02*
D03*
X743355Y393400D02*
D03*
X750245D02*
D03*
X747555Y274400D02*
D03*
X754445D02*
D03*
D19*
X729085Y180232D02*
D03*
Y188500D02*
D03*
X713752D02*
D03*
Y180232D02*
D03*
X759752D02*
D03*
Y188500D02*
D03*
X744419Y188768D02*
D03*
Y180500D02*
D03*
X723000Y509134D02*
D03*
Y500866D02*
D03*
X715000Y372134D02*
D03*
Y363866D02*
D03*
X718000Y242134D02*
D03*
Y233866D02*
D03*
D20*
X845900Y659245D02*
D03*
Y652355D02*
D03*
X922000Y594955D02*
D03*
X932500Y601745D02*
D03*
Y594855D02*
D03*
X922000Y601845D02*
D03*
X932300Y246745D02*
D03*
Y239855D02*
D03*
Y424990D02*
D03*
Y418100D02*
D03*
X922700Y246745D02*
D03*
Y239855D02*
D03*
X921800Y424990D02*
D03*
Y418100D02*
D03*
D21*
X800778Y240800D02*
D03*
X861211D02*
D03*
X858716Y380000D02*
D03*
X798283D02*
D03*
X859311Y515000D02*
D03*
X798878D02*
D03*
D22*
X775000Y499276D02*
D03*
X770000D02*
D03*
X765000D02*
D03*
X760000D02*
D03*
Y518724D02*
D03*
X765000D02*
D03*
X770000D02*
D03*
X775000D02*
D03*
X777000Y361776D02*
D03*
X772000D02*
D03*
X767000D02*
D03*
X762000D02*
D03*
Y381224D02*
D03*
X767000D02*
D03*
X772000D02*
D03*
X777000D02*
D03*
X780500Y262724D02*
D03*
X775500D02*
D03*
X770500D02*
D03*
X765500D02*
D03*
Y243276D02*
D03*
X770500D02*
D03*
X775500D02*
D03*
X780500D02*
D03*
M02*
