G04*
G04 #@! TF.GenerationSoftware,Altium Limited,Altium Designer,22.2.1 (43)*
G04*
G04 Layer_Color=65535*
%FSLAX25Y25*%
%MOIN*%
G70*
G04*
G04 #@! TF.SameCoordinates,550063A1-71E6-411B-B153-969BAF3FA875*
G04*
G04*
G04 #@! TF.FilePolarity,Positive*
G04*
G01*
G75*
%ADD10C,0.00600*%
%ADD11C,0.01181*%
%ADD12C,0.01000*%
%ADD13C,0.02000*%
%ADD14C,0.00787*%
%ADD15C,0.01102*%
%ADD16C,0.01500*%
%ADD17C,0.00500*%
G36*
X737402Y627250D02*
Y616000D01*
X696646D01*
X696795Y616015D01*
X696928Y616030D01*
X697032Y616059D01*
X697120Y616074D01*
X697194Y616089D01*
X697239Y616104D01*
X697254D01*
X697491Y616192D01*
X697594Y616237D01*
X697698Y616296D01*
X697772Y616341D01*
X697831Y616385D01*
X697861Y616400D01*
X697876Y616415D01*
X698083Y616607D01*
X698246Y616785D01*
X698305Y616859D01*
X698364Y616918D01*
X698379Y616963D01*
X698394Y616978D01*
X698468Y617096D01*
X698513Y617200D01*
X698572Y617362D01*
X698587Y617437D01*
X698601Y617481D01*
Y617585D01*
X698572Y617644D01*
X698527Y617748D01*
X698468Y617822D01*
X698453Y617851D01*
X698439D01*
X698379Y617910D01*
X698320Y617940D01*
X698216Y617999D01*
X698142Y618014D01*
X698113D01*
X698024Y617999D01*
X697950Y617970D01*
X697802Y617866D01*
X697743Y617807D01*
X697698Y617762D01*
X697683Y617733D01*
X697668Y617718D01*
X697624Y617673D01*
Y617688D01*
Y617703D01*
Y617718D01*
Y619066D01*
Y619184D01*
X697594Y619303D01*
X697579Y619406D01*
X697550Y619495D01*
X697520Y619584D01*
X697491Y619643D01*
X697476Y619673D01*
X697461Y619688D01*
X697313Y619910D01*
X697165Y620073D01*
X697091Y620147D01*
X697032Y620191D01*
X697002Y620221D01*
X696987Y620236D01*
X696780Y620369D01*
X696587Y620458D01*
X696498Y620502D01*
X696439Y620532D01*
X696395Y620547D01*
X696380D01*
X696113Y620621D01*
X695980Y620636D01*
X695847Y620650D01*
X695728Y620665D01*
X695565D01*
X695758Y620680D01*
X695936Y620710D01*
X696084Y620739D01*
X696217Y620769D01*
X696321Y620798D01*
X696395Y620828D01*
X696439Y620858D01*
X696454D01*
X696691Y620991D01*
X696795Y621065D01*
X696883Y621124D01*
X696943Y621183D01*
X697002Y621228D01*
X697032Y621257D01*
X697046Y621272D01*
X697254Y621524D01*
X697402Y621776D01*
X697520Y622043D01*
X697594Y622294D01*
X697639Y622516D01*
X697654Y622620D01*
Y622694D01*
X697668Y622768D01*
Y622813D01*
Y622842D01*
Y622857D01*
X697654Y623079D01*
X697624Y623272D01*
X697579Y623464D01*
X697520Y623642D01*
X697372Y623953D01*
X697209Y624220D01*
X697046Y624412D01*
X696898Y624560D01*
X696839Y624619D01*
X696795Y624649D01*
X696765Y624679D01*
X696750D01*
X696513Y624827D01*
X696276Y624945D01*
X696039Y625034D01*
X695817Y625108D01*
X695625Y625153D01*
X695476Y625182D01*
X695417D01*
X695373Y625197D01*
X695343D01*
X695136Y625212D01*
X694929Y625227D01*
X694721Y625241D01*
X694529Y625256D01*
X693803D01*
Y624294D01*
X693966Y624249D01*
X694099Y624190D01*
X694203Y624146D01*
X694292Y624101D01*
X694336Y624057D01*
X694381Y624027D01*
X694410Y624012D01*
Y623997D01*
X694455Y623923D01*
X694484Y623849D01*
X694529Y623672D01*
X694544Y623597D01*
Y623538D01*
Y623494D01*
Y623479D01*
Y621761D01*
Y621583D01*
X694529Y621465D01*
X694514Y621406D01*
X694499Y621376D01*
X694455Y621287D01*
X694395Y621198D01*
X694336Y621139D01*
X694321Y621109D01*
X694277Y621095D01*
X694218Y621065D01*
X694055Y621035D01*
X693966Y621021D01*
X693892Y621006D01*
X693847Y620991D01*
X693833D01*
Y620073D01*
X693966Y620058D01*
X694084Y620014D01*
X694173Y619984D01*
X694247Y619940D01*
X694307Y619910D01*
X694336Y619880D01*
X694366Y619865D01*
Y619851D01*
X694455Y619717D01*
X694499Y619584D01*
X694514Y619540D01*
X694529Y619495D01*
Y619465D01*
Y619451D01*
Y619421D01*
X694544Y619377D01*
Y619243D01*
Y619169D01*
Y619125D01*
Y619080D01*
Y619066D01*
Y617970D01*
X694558Y617644D01*
X694618Y617362D01*
X694706Y617111D01*
X694795Y616903D01*
X694884Y616741D01*
X694973Y616622D01*
X695032Y616548D01*
X695047Y616518D01*
X695254Y616341D01*
X695491Y616222D01*
X695728Y616133D01*
X695965Y616059D01*
X696173Y616030D01*
X696336Y616015D01*
X696395Y616000D01*
X668598D01*
Y627250D01*
Y642000D01*
X737402D01*
Y627250D01*
D02*
G37*
G36*
X757479Y673488D02*
X759218D01*
Y672757D01*
X757479D01*
Y671000D01*
X756739D01*
Y672757D01*
X755000D01*
Y673488D01*
X756739D01*
Y675227D01*
X757479D01*
Y673488D01*
D02*
G37*
G36*
X758433Y696000D02*
X756000D01*
Y696786D01*
X758433D01*
Y696000D01*
D02*
G37*
%LPC*%
G36*
X700882Y636506D02*
X697994D01*
Y635484D01*
X698290Y635440D01*
X698542Y635380D01*
X698764Y635306D01*
X698942Y635218D01*
X699090Y635143D01*
X699179Y635084D01*
X699253Y635040D01*
X699268Y635025D01*
X699431Y634877D01*
X699564Y634714D01*
X699683Y634536D01*
X699771Y634359D01*
X699846Y634196D01*
X699905Y634077D01*
X699934Y633988D01*
X699949Y633973D01*
Y633959D01*
X700008Y633811D01*
X700053Y633722D01*
X700097Y633662D01*
X700112Y633648D01*
X700201Y633603D01*
X700305Y633588D01*
X700379Y633573D01*
X700408D01*
X700571Y633588D01*
X700675Y633648D01*
X700749Y633692D01*
X700764Y633707D01*
X700838Y633825D01*
X700867Y633944D01*
X700882Y634033D01*
Y634062D01*
Y634077D01*
Y636506D01*
D02*
G37*
G36*
X684784D02*
X681896D01*
Y635484D01*
X682192Y635440D01*
X682444Y635380D01*
X682666Y635306D01*
X682844Y635218D01*
X682992Y635143D01*
X683081Y635084D01*
X683155Y635040D01*
X683169Y635025D01*
X683332Y634877D01*
X683466Y634714D01*
X683584Y634536D01*
X683673Y634359D01*
X683747Y634196D01*
X683806Y634077D01*
X683836Y633988D01*
X683851Y633973D01*
Y633959D01*
X683910Y633811D01*
X683954Y633722D01*
X683999Y633662D01*
X684014Y633648D01*
X684102Y633603D01*
X684206Y633588D01*
X684280Y633573D01*
X684310D01*
X684473Y633588D01*
X684576Y633648D01*
X684650Y633692D01*
X684665Y633707D01*
X684739Y633825D01*
X684769Y633944D01*
X684784Y634033D01*
Y634062D01*
Y634077D01*
Y636506D01*
D02*
G37*
G36*
X714863Y636639D02*
X714774D01*
Y635691D01*
X715040Y635617D01*
X715277Y635543D01*
X715470Y635454D01*
X715648Y635380D01*
X715766Y635306D01*
X715870Y635262D01*
X715929Y635218D01*
X715944Y635203D01*
X716033Y635040D01*
X716122Y634892D01*
X716181Y634758D01*
X716240Y634655D01*
X716299Y634566D01*
X716329Y634492D01*
X716359Y634447D01*
Y634433D01*
X716462Y634196D01*
X716536Y634003D01*
X716566Y633914D01*
X716581Y633855D01*
X716596Y633811D01*
Y633796D01*
X716625Y633692D01*
X716640Y633603D01*
X716670Y633544D01*
Y633529D01*
X716714Y633470D01*
X716744Y633426D01*
X716773Y633396D01*
X716788Y633381D01*
X716907Y633307D01*
X717025Y633277D01*
X717099Y633262D01*
X717129D01*
X717218Y633277D01*
X717292Y633292D01*
X717410Y633351D01*
X717484Y633396D01*
X717514Y633426D01*
X717603Y633559D01*
X717647Y633692D01*
X717662Y633737D01*
Y633781D01*
Y633811D01*
Y633825D01*
Y635958D01*
X717647Y636165D01*
X717603Y636313D01*
X717588Y636373D01*
X717558Y636417D01*
X717543Y636432D01*
Y636447D01*
X717499Y636506D01*
X717440Y636550D01*
X717321Y636610D01*
X717218Y636624D01*
X717173D01*
X717099Y636610D01*
X717025Y636595D01*
X716907Y636521D01*
X716832Y636432D01*
X716803Y636417D01*
Y636402D01*
X716655Y636195D01*
X716551D01*
X716492Y636210D01*
X716447Y636225D01*
X716433D01*
X716255Y636299D01*
X716092Y636358D01*
X715944Y636417D01*
X715826Y636461D01*
X715737Y636491D01*
X715663Y636506D01*
X715618Y636521D01*
X715603D01*
X715485Y636550D01*
X715351Y636580D01*
X715085Y636610D01*
X714952Y636624D01*
X714863Y636639D01*
D02*
G37*
G36*
X673809D02*
X673721D01*
Y635691D01*
X673987Y635617D01*
X674224Y635543D01*
X674417Y635454D01*
X674594Y635380D01*
X674713Y635306D01*
X674817Y635262D01*
X674876Y635218D01*
X674891Y635203D01*
X674979Y635040D01*
X675068Y634892D01*
X675128Y634758D01*
X675187Y634655D01*
X675246Y634566D01*
X675276Y634492D01*
X675305Y634447D01*
Y634433D01*
X675409Y634196D01*
X675483Y634003D01*
X675513Y633914D01*
X675527Y633855D01*
X675542Y633811D01*
Y633796D01*
X675572Y633692D01*
X675587Y633603D01*
X675616Y633544D01*
Y633529D01*
X675661Y633470D01*
X675690Y633426D01*
X675720Y633396D01*
X675735Y633381D01*
X675853Y633307D01*
X675972Y633277D01*
X676046Y633262D01*
X676075D01*
X676164Y633277D01*
X676238Y633292D01*
X676357Y633351D01*
X676431Y633396D01*
X676461Y633426D01*
X676549Y633559D01*
X676594Y633692D01*
X676609Y633737D01*
Y633781D01*
Y633811D01*
Y633825D01*
Y635958D01*
X676594Y636165D01*
X676549Y636313D01*
X676535Y636373D01*
X676505Y636417D01*
X676490Y636432D01*
Y636447D01*
X676446Y636506D01*
X676386Y636550D01*
X676268Y636610D01*
X676164Y636624D01*
X676120D01*
X676046Y636610D01*
X675972Y636595D01*
X675853Y636521D01*
X675779Y636432D01*
X675750Y636417D01*
Y636402D01*
X675601Y636195D01*
X675498D01*
X675439Y636210D01*
X675394Y636225D01*
X675379D01*
X675202Y636299D01*
X675039Y636358D01*
X674891Y636417D01*
X674772Y636461D01*
X674683Y636491D01*
X674609Y636506D01*
X674565Y636521D01*
X674550D01*
X674432Y636550D01*
X674298Y636580D01*
X674032Y636610D01*
X673898Y636624D01*
X673809Y636639D01*
D02*
G37*
G36*
X735167Y636506D02*
X733494D01*
X733301Y636491D01*
X733153Y636447D01*
X733064Y636402D01*
X733049Y636387D01*
X733035D01*
X732946Y636284D01*
X732901Y636165D01*
X732887Y636076D01*
Y636047D01*
Y636032D01*
X732901Y635928D01*
X732916Y635840D01*
X732931Y635780D01*
X732946Y635765D01*
X733020Y635691D01*
X733094Y635632D01*
X733168Y635588D01*
X733198Y635573D01*
X733331Y635499D01*
X733435Y635425D01*
X733523Y635351D01*
X733583Y635291D01*
X733642Y635218D01*
X733672Y635173D01*
X733701Y635143D01*
Y635129D01*
X733746Y635025D01*
X733790Y634906D01*
X733834Y634655D01*
X733849Y634551D01*
Y634462D01*
Y634403D01*
Y634373D01*
Y632552D01*
X734812Y631293D01*
Y634373D01*
Y634536D01*
X734827Y634669D01*
X734856Y634803D01*
X734871Y634906D01*
X734901Y634995D01*
X734915Y635055D01*
X734930Y635099D01*
Y635114D01*
X734990Y635203D01*
X735049Y635277D01*
X735197Y635410D01*
X735256Y635454D01*
X735315Y635484D01*
X735345Y635514D01*
X735360D01*
X735449Y635558D01*
X735523Y635603D01*
X735641Y635677D01*
X735701Y635721D01*
X735715Y635736D01*
X735775Y635825D01*
X735789Y635914D01*
X735804Y635988D01*
Y636017D01*
X735789Y636151D01*
X735745Y636239D01*
X735701Y636299D01*
X735686Y636313D01*
X735612Y636373D01*
X735523Y636432D01*
X735330Y636476D01*
X735241Y636491D01*
X735167Y636506D01*
D02*
G37*
G36*
X692811D02*
X691108D01*
X690900Y636491D01*
X690752Y636447D01*
X690693Y636417D01*
X690649Y636387D01*
X690634Y636373D01*
X690619D01*
X690560Y636328D01*
X690515Y636269D01*
X690471Y636151D01*
X690441Y636047D01*
Y636017D01*
Y636002D01*
X690456Y635884D01*
X690485Y635795D01*
X690545Y635706D01*
X690604Y635647D01*
X690649Y635603D01*
X690708Y635573D01*
X690737Y635558D01*
X690752D01*
X690960Y635484D01*
X691078Y635410D01*
X691167Y635336D01*
X691226Y635277D01*
X691241Y635262D01*
Y635247D01*
X691270Y635143D01*
X691300Y635069D01*
Y635010D01*
Y634995D01*
Y634966D01*
X691285Y634936D01*
X691256Y634832D01*
X691241Y634743D01*
X691226Y634714D01*
Y634699D01*
X690471Y631944D01*
X690945Y630597D01*
X692085Y634373D01*
X692144Y634536D01*
X692189Y634684D01*
X692248Y634803D01*
X692292Y634906D01*
X692337Y634980D01*
X692366Y635040D01*
X692381Y635069D01*
X692396Y635084D01*
X692455Y635173D01*
X692529Y635247D01*
X692589Y635306D01*
X692633Y635351D01*
X692707Y635410D01*
X692737Y635425D01*
X693018Y635573D01*
X693151Y635647D01*
X693255Y635706D01*
X693299Y635751D01*
X693314Y635765D01*
X693359Y635854D01*
X693373Y635943D01*
X693388Y636002D01*
Y636032D01*
X693373Y636121D01*
X693359Y636195D01*
X693270Y636313D01*
X693196Y636387D01*
X693166Y636417D01*
X693151D01*
X693092Y636447D01*
X693033Y636476D01*
X692885Y636491D01*
X692811Y636506D01*
D02*
G37*
G36*
X699327Y633959D02*
X699283D01*
X699149Y633944D01*
X699046Y633899D01*
X698986Y633840D01*
X698957Y633825D01*
X698883Y633707D01*
X698824Y633573D01*
X698809Y633514D01*
X698794Y633470D01*
X698779Y633440D01*
Y633426D01*
X698749Y633307D01*
X698705Y633203D01*
X698675Y633114D01*
X698631Y633026D01*
X698601Y632966D01*
X698572Y632922D01*
X698557Y632907D01*
X698542Y632892D01*
X698468Y632818D01*
X698379Y632744D01*
X698187Y632626D01*
X698098Y632566D01*
X698039Y632522D01*
X697979Y632507D01*
X697965Y632492D01*
Y631559D01*
X698098Y631515D01*
X698202Y631470D01*
X698305Y631426D01*
X698379Y631367D01*
X698439Y631322D01*
X698483Y631278D01*
X698498Y631263D01*
X698513Y631248D01*
X698572Y631159D01*
X698631Y631071D01*
X698720Y630863D01*
X698749Y630774D01*
X698779Y630700D01*
X698794Y630641D01*
Y630626D01*
X698853Y630464D01*
X698912Y630345D01*
X698957Y630286D01*
X698972Y630256D01*
X699075Y630182D01*
X699179Y630152D01*
X699268Y630138D01*
X699298D01*
X699386Y630152D01*
X699475Y630167D01*
X699579Y630227D01*
X699653Y630271D01*
X699668Y630301D01*
X699697Y630375D01*
X699727Y630449D01*
X699757Y630612D01*
X699771Y630686D01*
Y630745D01*
Y630789D01*
Y630804D01*
Y633262D01*
Y633381D01*
X699757Y633470D01*
X699742Y633544D01*
Y633603D01*
X699727Y633648D01*
X699712Y633677D01*
X699697Y633707D01*
X699653Y633796D01*
X699594Y633855D01*
X699520Y633899D01*
X699446Y633929D01*
X699386Y633944D01*
X699327Y633959D01*
D02*
G37*
G36*
X683229D02*
X683184D01*
X683051Y633944D01*
X682947Y633899D01*
X682888Y633840D01*
X682858Y633825D01*
X682784Y633707D01*
X682725Y633573D01*
X682710Y633514D01*
X682695Y633470D01*
X682681Y633440D01*
Y633426D01*
X682651Y633307D01*
X682607Y633203D01*
X682577Y633114D01*
X682533Y633026D01*
X682503Y632966D01*
X682473Y632922D01*
X682458Y632907D01*
X682444Y632892D01*
X682370Y632818D01*
X682281Y632744D01*
X682088Y632626D01*
X681999Y632566D01*
X681940Y632522D01*
X681881Y632507D01*
X681866Y632492D01*
Y631559D01*
X681999Y631515D01*
X682103Y631470D01*
X682207Y631426D01*
X682281Y631367D01*
X682340Y631322D01*
X682384Y631278D01*
X682399Y631263D01*
X682414Y631248D01*
X682473Y631159D01*
X682533Y631071D01*
X682621Y630863D01*
X682651Y630774D01*
X682681Y630700D01*
X682695Y630641D01*
Y630626D01*
X682755Y630464D01*
X682814Y630345D01*
X682858Y630286D01*
X682873Y630256D01*
X682977Y630182D01*
X683081Y630152D01*
X683169Y630138D01*
X683199D01*
X683288Y630152D01*
X683377Y630167D01*
X683480Y630227D01*
X683555Y630271D01*
X683569Y630301D01*
X683599Y630375D01*
X683629Y630449D01*
X683658Y630612D01*
X683673Y630686D01*
Y630745D01*
Y630789D01*
Y630804D01*
Y633262D01*
Y633381D01*
X683658Y633470D01*
X683643Y633544D01*
Y633603D01*
X683629Y633648D01*
X683614Y633677D01*
X683599Y633707D01*
X683555Y633796D01*
X683495Y633855D01*
X683421Y633899D01*
X683347Y633929D01*
X683288Y633944D01*
X683229Y633959D01*
D02*
G37*
G36*
X731302Y636506D02*
X728221D01*
X728073Y636491D01*
X727970D01*
X727881Y636476D01*
X727822Y636461D01*
X727777D01*
X727747Y636447D01*
X727659Y636387D01*
X727599Y636328D01*
X727555Y636284D01*
X727540Y636254D01*
X727496Y636165D01*
X727481Y636076D01*
X727466Y636017D01*
Y635988D01*
X727481Y635884D01*
X727510Y635795D01*
X727525Y635736D01*
X727540Y635721D01*
X727614Y635647D01*
X727688Y635603D01*
X727747Y635573D01*
X727762Y635558D01*
X727955Y635484D01*
X728058Y635440D01*
X728133Y635395D01*
X728177Y635366D01*
X728192Y635351D01*
X728221Y635321D01*
X728251Y635277D01*
X728325Y635173D01*
X728384Y635084D01*
X728399Y635055D01*
Y635040D01*
X732812Y627427D01*
X734812D01*
Y630434D01*
X731302Y636506D01*
D02*
G37*
G36*
X728384Y634225D02*
Y629501D01*
X728370Y629219D01*
X728310Y628982D01*
X728236Y628790D01*
X728162Y628642D01*
X728073Y628523D01*
X727999Y628449D01*
X727940Y628405D01*
X727925Y628390D01*
X727822Y628331D01*
X727718Y628286D01*
X727659Y628242D01*
X727599Y628212D01*
X727555Y628183D01*
X727525Y628153D01*
X727510Y628138D01*
X727466Y628064D01*
X727451Y627975D01*
X727436Y627916D01*
Y627886D01*
X727451Y627812D01*
X727466Y627738D01*
X727555Y627620D01*
X727659Y627546D01*
X727792Y627487D01*
X727925Y627457D01*
X728044Y627442D01*
X728118Y627427D01*
X729776D01*
X729880Y627442D01*
X729969Y627457D01*
X730028Y627487D01*
X730088Y627501D01*
X730117Y627516D01*
X730147Y627531D01*
X730206Y627590D01*
X730265Y627649D01*
X730310Y627768D01*
X730339Y627857D01*
Y627872D01*
Y627886D01*
X730324Y627975D01*
X730295Y628064D01*
X730221Y628183D01*
X730132Y628257D01*
X730102Y628286D01*
X730088D01*
X729895Y628390D01*
X729717Y628523D01*
X729584Y628657D01*
X729539Y628716D01*
X729510Y628760D01*
X729480Y628790D01*
Y628805D01*
X729436Y628908D01*
X729406Y629027D01*
X729362Y629249D01*
Y629353D01*
X729347Y629427D01*
Y629486D01*
Y629501D01*
Y632981D01*
X728384Y634225D01*
D02*
G37*
G36*
X705651Y636506D02*
X702452D01*
X702259Y636491D01*
X702126Y636447D01*
X702037Y636387D01*
X702023Y636373D01*
X702008D01*
X701948Y636328D01*
X701919Y636269D01*
X701860Y636165D01*
X701845Y636076D01*
Y636032D01*
X701860Y635899D01*
X701904Y635795D01*
X701948Y635721D01*
X702023Y635662D01*
X702082Y635617D01*
X702126Y635588D01*
X702171Y635558D01*
X702185D01*
X702245Y635529D01*
X702304Y635514D01*
X702363Y635484D01*
X702393Y635469D01*
X702422Y635454D01*
X702437Y635440D01*
X702467Y635366D01*
X702496Y635291D01*
Y635218D01*
Y635203D01*
Y635188D01*
Y628731D01*
X702482Y628612D01*
X702467Y628538D01*
X702452Y628494D01*
X702437Y628479D01*
X702408Y628449D01*
X702393Y628435D01*
X702378D01*
X702348Y628420D01*
X702289Y628405D01*
X702215Y628375D01*
X702200Y628360D01*
X702185D01*
X702067Y628301D01*
X701993Y628242D01*
X701934Y628153D01*
X701889Y628079D01*
X701860Y628005D01*
X701845Y627946D01*
Y627886D01*
X701860Y627798D01*
X701874Y627738D01*
X701934Y627620D01*
X701978Y627561D01*
X702008Y627531D01*
X702141Y627472D01*
X702289Y627442D01*
X702348Y627427D01*
X705843D01*
X705932Y627442D01*
X706021Y627457D01*
X706080Y627472D01*
X706140Y627487D01*
X706169Y627501D01*
X706199Y627516D01*
X706288Y627575D01*
X706347Y627635D01*
X706391Y627709D01*
X706421Y627768D01*
X706451Y627857D01*
Y627886D01*
Y627901D01*
X706436Y628035D01*
X706377Y628138D01*
X706303Y628227D01*
X706214Y628286D01*
X706110Y628331D01*
X706036Y628375D01*
X705977Y628390D01*
X705962D01*
X705858Y628420D01*
X705799Y628435D01*
X705784Y628449D01*
X705769D01*
X705740Y628464D01*
X705710Y628494D01*
X705695Y628523D01*
X705681Y628538D01*
X705666Y628553D01*
Y628583D01*
X705651Y628671D01*
Y628746D01*
Y628760D01*
Y628775D01*
Y636506D01*
D02*
G37*
G36*
X700541Y630449D02*
X700497D01*
X700364Y630434D01*
X700275Y630404D01*
X700201Y630360D01*
X700186Y630345D01*
X700112Y630241D01*
X700053Y630123D01*
X700023Y630034D01*
X700008Y630004D01*
Y629989D01*
X699949Y629841D01*
X699905Y629723D01*
X699846Y629619D01*
X699801Y629516D01*
X699757Y629456D01*
X699727Y629397D01*
X699712Y629367D01*
X699697Y629353D01*
X699579Y629175D01*
X699446Y629027D01*
X699386Y628968D01*
X699342Y628923D01*
X699312Y628894D01*
X699298Y628879D01*
X699105Y628731D01*
X698942Y628627D01*
X698868Y628597D01*
X698824Y628568D01*
X698794Y628553D01*
X698779D01*
X698675Y628509D01*
X698557Y628479D01*
X698305Y628420D01*
X698187Y628390D01*
X698098Y628375D01*
X698039Y628360D01*
X698009D01*
Y627427D01*
X700971D01*
Y629827D01*
X700956Y630019D01*
X700912Y630167D01*
X700867Y630256D01*
X700852Y630286D01*
X700808Y630345D01*
X700749Y630375D01*
X700630Y630434D01*
X700541Y630449D01*
D02*
G37*
G36*
X697713Y636506D02*
X694514D01*
X694321Y636491D01*
X694188Y636447D01*
X694099Y636387D01*
X694084Y636373D01*
X694070D01*
X694010Y636328D01*
X693981Y636269D01*
X693922Y636165D01*
X693907Y636076D01*
Y636032D01*
X693922Y635899D01*
X693966Y635795D01*
X694010Y635721D01*
X694084Y635662D01*
X694144Y635617D01*
X694188Y635588D01*
X694233Y635558D01*
X694247D01*
X694307Y635529D01*
X694366Y635514D01*
X694425Y635484D01*
X694455Y635469D01*
X694484Y635454D01*
X694499Y635440D01*
X694529Y635366D01*
X694558Y635291D01*
Y635218D01*
Y635203D01*
Y635188D01*
Y628731D01*
X694544Y628612D01*
X694529Y628538D01*
X694514Y628494D01*
X694499Y628479D01*
X694469Y628449D01*
X694455Y628435D01*
X694440D01*
X694410Y628420D01*
X694351Y628405D01*
X694277Y628375D01*
X694262Y628360D01*
X694247D01*
X694129Y628301D01*
X694055Y628242D01*
X693996Y628153D01*
X693951Y628079D01*
X693922Y628005D01*
X693907Y627946D01*
Y627886D01*
X693922Y627798D01*
X693936Y627738D01*
X693996Y627620D01*
X694040Y627561D01*
X694070Y627531D01*
X694203Y627472D01*
X694351Y627442D01*
X694410Y627427D01*
X697713D01*
Y636506D01*
D02*
G37*
G36*
X689167D02*
X686013D01*
X685909Y636491D01*
X685820Y636476D01*
X685746Y636447D01*
X685687Y636432D01*
X685643Y636402D01*
X685628Y636387D01*
X685613D01*
X685539Y636328D01*
X685480Y636254D01*
X685450Y636195D01*
X685421Y636121D01*
X685406Y636062D01*
X685391Y636017D01*
Y635973D01*
X685406Y635840D01*
X685435Y635751D01*
X685465Y635691D01*
X685480Y635677D01*
X685569Y635617D01*
X685672Y635558D01*
X685761Y635514D01*
X685776Y635499D01*
X685791D01*
X685835Y635469D01*
X685865Y635440D01*
X685880Y635425D01*
Y635410D01*
X685909Y635366D01*
X685939Y635306D01*
X685954Y635262D01*
X685968Y635232D01*
X688279Y627427D01*
X690204D01*
X690841Y629812D01*
X689345Y635069D01*
X689330Y635129D01*
Y635188D01*
Y635232D01*
Y635247D01*
Y635321D01*
X689345Y635380D01*
X689360Y635410D01*
Y635425D01*
X689404Y635469D01*
X689464Y635514D01*
X689523Y635529D01*
X689538Y635543D01*
X689641Y635603D01*
X689715Y635677D01*
X689775Y635765D01*
X689804Y635840D01*
X689834Y635914D01*
X689849Y635958D01*
Y636002D01*
Y636017D01*
X689834Y636091D01*
X689819Y636165D01*
X689789Y636210D01*
X689775Y636225D01*
X689730Y636299D01*
X689686Y636358D01*
X689641Y636387D01*
X689627Y636402D01*
X689552Y636447D01*
X689478Y636461D01*
X689419Y636476D01*
X689404D01*
X689360Y636491D01*
X689286D01*
X689167Y636506D01*
D02*
G37*
G36*
X684443Y630449D02*
X684399D01*
X684265Y630434D01*
X684176Y630404D01*
X684102Y630360D01*
X684088Y630345D01*
X684014Y630241D01*
X683954Y630123D01*
X683925Y630034D01*
X683910Y630004D01*
Y629989D01*
X683851Y629841D01*
X683806Y629723D01*
X683747Y629619D01*
X683703Y629516D01*
X683658Y629456D01*
X683629Y629397D01*
X683614Y629367D01*
X683599Y629353D01*
X683480Y629175D01*
X683347Y629027D01*
X683288Y628968D01*
X683244Y628923D01*
X683214Y628894D01*
X683199Y628879D01*
X683006Y628731D01*
X682844Y628627D01*
X682769Y628597D01*
X682725Y628568D01*
X682695Y628553D01*
X682681D01*
X682577Y628509D01*
X682458Y628479D01*
X682207Y628420D01*
X682088Y628390D01*
X681999Y628375D01*
X681940Y628360D01*
X681911D01*
Y627427D01*
X684873D01*
Y629827D01*
X684858Y630019D01*
X684813Y630167D01*
X684769Y630256D01*
X684754Y630286D01*
X684710Y630345D01*
X684650Y630375D01*
X684532Y630434D01*
X684443Y630449D01*
D02*
G37*
G36*
X681614Y636506D02*
X678415D01*
X678223Y636491D01*
X678090Y636447D01*
X678001Y636387D01*
X677986Y636373D01*
X677971D01*
X677912Y636328D01*
X677882Y636269D01*
X677823Y636165D01*
X677808Y636076D01*
Y636032D01*
X677823Y635899D01*
X677867Y635795D01*
X677912Y635721D01*
X677986Y635662D01*
X678045Y635617D01*
X678090Y635588D01*
X678134Y635558D01*
X678149D01*
X678208Y635529D01*
X678267Y635514D01*
X678327Y635484D01*
X678356Y635469D01*
X678386Y635454D01*
X678401Y635440D01*
X678430Y635366D01*
X678460Y635291D01*
Y635218D01*
Y635203D01*
Y635188D01*
Y628731D01*
X678445Y628612D01*
X678430Y628538D01*
X678415Y628494D01*
X678401Y628479D01*
X678371Y628449D01*
X678356Y628435D01*
X678341D01*
X678312Y628420D01*
X678253Y628405D01*
X678178Y628375D01*
X678164Y628360D01*
X678149D01*
X678030Y628301D01*
X677956Y628242D01*
X677897Y628153D01*
X677853Y628079D01*
X677823Y628005D01*
X677808Y627946D01*
Y627886D01*
X677823Y627798D01*
X677838Y627738D01*
X677897Y627620D01*
X677942Y627561D01*
X677971Y627531D01*
X678104Y627472D01*
X678253Y627442D01*
X678312Y627427D01*
X681614D01*
Y636506D01*
D02*
G37*
G36*
X722875Y636669D02*
X722786D01*
Y635751D01*
X722875Y635721D01*
X722949Y635677D01*
X723068Y635632D01*
X723127Y635603D01*
X723142Y635588D01*
X723201Y635529D01*
X723245Y635484D01*
X723275Y635425D01*
X723290Y635410D01*
X723349Y635262D01*
X723379Y635114D01*
X723393Y635040D01*
Y634980D01*
Y634951D01*
Y634936D01*
Y629160D01*
Y628982D01*
X723364Y628834D01*
X723349Y628716D01*
X723319Y628612D01*
X723290Y628538D01*
X723260Y628479D01*
X723245Y628449D01*
X723231Y628435D01*
X723186Y628375D01*
X723142Y628331D01*
X723112Y628316D01*
X723097Y628301D01*
X723068Y628286D01*
X723023Y628272D01*
X722919Y628227D01*
X722831Y628212D01*
X722801Y628197D01*
X722786D01*
Y627264D01*
X723082Y627294D01*
X723379Y627339D01*
X723645Y627398D01*
X723897Y627487D01*
X724134Y627561D01*
X724341Y627664D01*
X724548Y627753D01*
X724726Y627857D01*
X724874Y627946D01*
X725023Y628035D01*
X725141Y628124D01*
X725245Y628197D01*
X725319Y628272D01*
X725378Y628316D01*
X725408Y628346D01*
X725422Y628360D01*
X725659Y628612D01*
X725852Y628894D01*
X726030Y629175D01*
X726178Y629471D01*
X726311Y629767D01*
X726415Y630064D01*
X726504Y630360D01*
X726578Y630641D01*
X726637Y630908D01*
X726666Y631159D01*
X726696Y631382D01*
X726726Y631574D01*
Y631722D01*
X726740Y631841D01*
Y631944D01*
X726726Y632374D01*
X726681Y632774D01*
X726607Y633159D01*
X726533Y633499D01*
X726415Y633840D01*
X726311Y634136D01*
X726178Y634418D01*
X726059Y634655D01*
X725926Y634877D01*
X725793Y635069D01*
X725689Y635232D01*
X725585Y635380D01*
X725496Y635484D01*
X725422Y635558D01*
X725378Y635603D01*
X725363Y635617D01*
X725171Y635795D01*
X724978Y635943D01*
X724786Y636076D01*
X724623Y636180D01*
X724474Y636269D01*
X724356Y636328D01*
X724282Y636358D01*
X724252Y636373D01*
X724015Y636461D01*
X723764Y636536D01*
X723527Y636580D01*
X723290Y636624D01*
X723097Y636639D01*
X722934Y636654D01*
X722875Y636669D01*
D02*
G37*
G36*
X722534D02*
X722223Y636654D01*
X721927Y636610D01*
X721675Y636565D01*
X721468Y636506D01*
X721290Y636461D01*
X721157Y636417D01*
X721083Y636387D01*
X721053Y636373D01*
X720831Y636269D01*
X720624Y636151D01*
X720446Y636017D01*
X720283Y635899D01*
X720135Y635795D01*
X720031Y635706D01*
X719972Y635647D01*
X719943Y635617D01*
X719706Y635351D01*
X719498Y635084D01*
X719321Y634818D01*
X719172Y634566D01*
X719069Y634344D01*
X719024Y634255D01*
X718980Y634181D01*
X718950Y634107D01*
X718936Y634062D01*
X718921Y634033D01*
Y634018D01*
X718817Y633662D01*
X718728Y633307D01*
X718669Y632951D01*
X718639Y632641D01*
X718624Y632492D01*
X718610Y632359D01*
Y632241D01*
X718595Y632137D01*
Y631944D01*
X718610Y631530D01*
X718654Y631130D01*
X718713Y630760D01*
X718802Y630419D01*
X718891Y630093D01*
X719010Y629797D01*
X719113Y629530D01*
X719247Y629293D01*
X719365Y629071D01*
X719484Y628894D01*
X719587Y628731D01*
X719676Y628597D01*
X719765Y628494D01*
X719824Y628420D01*
X719869Y628375D01*
X719883Y628360D01*
X720076Y628183D01*
X720283Y628035D01*
X720505Y627901D01*
X720728Y627783D01*
X720950Y627679D01*
X721172Y627590D01*
X721587Y627442D01*
X721779Y627398D01*
X721957Y627353D01*
X722120Y627324D01*
X722268Y627294D01*
X722371Y627279D01*
X722460D01*
X722520Y627264D01*
X722534D01*
Y628183D01*
X722401Y628227D01*
X722297Y628272D01*
X722223Y628316D01*
X722164Y628360D01*
X722120Y628390D01*
X722090Y628420D01*
X722060Y628449D01*
X722016Y628538D01*
X721986Y628642D01*
X721957Y628879D01*
X721942Y628982D01*
Y629071D01*
Y629131D01*
Y629160D01*
Y634936D01*
Y635055D01*
X721957Y635173D01*
X721972Y635262D01*
X722001Y635336D01*
X722016Y635380D01*
X722031Y635425D01*
X722046Y635454D01*
X722090Y635514D01*
X722164Y635573D01*
X722327Y635662D01*
X722401Y635706D01*
X722475Y635721D01*
X722520Y635751D01*
X722534D01*
Y636669D01*
D02*
G37*
G36*
X714552D02*
X714078Y636624D01*
X713663Y636550D01*
X713308Y636447D01*
X713145Y636402D01*
X713012Y636343D01*
X712878Y636284D01*
X712760Y636239D01*
X712671Y636195D01*
X712597Y636151D01*
X712538Y636106D01*
X712478Y636091D01*
X712464Y636062D01*
X712449D01*
X712241Y635899D01*
X712064Y635736D01*
X711916Y635558D01*
X711782Y635380D01*
X711693Y635232D01*
X711619Y635114D01*
X711575Y635040D01*
X711560Y635025D01*
Y635010D01*
X711456Y634758D01*
X711382Y634507D01*
X711323Y634270D01*
X711294Y634062D01*
X711264Y633870D01*
X711249Y633722D01*
Y633588D01*
X711264Y633307D01*
X711308Y633055D01*
X711368Y632803D01*
X711442Y632566D01*
X711545Y632359D01*
X711649Y632152D01*
X711767Y631974D01*
X711886Y631811D01*
X712005Y631663D01*
X712123Y631530D01*
X712227Y631426D01*
X712330Y631322D01*
X712404Y631248D01*
X712464Y631204D01*
X712508Y631174D01*
X712523Y631159D01*
X712715Y631026D01*
X712893Y630923D01*
X712967Y630878D01*
X713026Y630849D01*
X713056Y630819D01*
X713071D01*
X713204Y630760D01*
X713367Y630686D01*
X713559Y630597D01*
X713737Y630508D01*
X713915Y630434D01*
X714048Y630375D01*
X714108Y630345D01*
X714152Y630330D01*
X714167Y630315D01*
X714182D01*
X714419Y630197D01*
X714626Y630108D01*
X714789Y630019D01*
X714922Y629945D01*
X715011Y629886D01*
X715085Y629841D01*
X715115Y629812D01*
X715129Y629797D01*
X715248Y629693D01*
X715322Y629575D01*
X715381Y629471D01*
X715426Y629367D01*
X715455Y629279D01*
X715470Y629205D01*
Y629160D01*
Y629145D01*
X715455Y629027D01*
X715440Y628908D01*
X715396Y628805D01*
X715366Y628731D01*
X715322Y628671D01*
X715277Y628627D01*
X715263Y628597D01*
X715248Y628583D01*
X715159Y628509D01*
X715026Y628435D01*
X714759Y628316D01*
X714626Y628272D01*
X714522Y628242D01*
X714448Y628227D01*
X714419Y628212D01*
Y627264D01*
X714626D01*
X714804Y627279D01*
X714981Y627309D01*
X715129Y627324D01*
X715263Y627353D01*
X715351Y627368D01*
X715426Y627383D01*
X715440D01*
X715618Y627427D01*
X715781Y627487D01*
X715944Y627546D01*
X716062Y627590D01*
X716181Y627635D01*
X716255Y627679D01*
X716314Y627694D01*
X716329Y627709D01*
X716596Y627872D01*
X716832Y628064D01*
X717040Y628257D01*
X717203Y628435D01*
X717336Y628597D01*
X717440Y628731D01*
X717499Y628820D01*
X717514Y628834D01*
Y628849D01*
X717662Y629131D01*
X717766Y629397D01*
X717854Y629664D01*
X717899Y629916D01*
X717929Y630123D01*
X717958Y630286D01*
Y630434D01*
X717943Y630641D01*
X717914Y630849D01*
X717869Y631056D01*
X717810Y631234D01*
X717662Y631589D01*
X717499Y631885D01*
X717410Y632019D01*
X717336Y632122D01*
X717247Y632226D01*
X717188Y632315D01*
X717129Y632374D01*
X717084Y632418D01*
X717055Y632448D01*
X717040Y632463D01*
X716966Y632566D01*
X716892Y632655D01*
X716714Y632818D01*
X716640Y632877D01*
X716581Y632922D01*
X716536Y632937D01*
X716522Y632951D01*
X716388Y633026D01*
X716240Y633114D01*
X716092Y633188D01*
X715944Y633262D01*
X715811Y633337D01*
X715707Y633381D01*
X715633Y633411D01*
X715603Y633426D01*
X715440Y633499D01*
X715277Y633559D01*
X715026Y633677D01*
X714804Y633781D01*
X714641Y633855D01*
X714522Y633914D01*
X714448Y633959D01*
X714404Y633988D01*
X714389D01*
X714270Y634062D01*
X714167Y634136D01*
X714078Y634196D01*
X714004Y634255D01*
X713945Y634314D01*
X713915Y634359D01*
X713900Y634373D01*
X713885Y634388D01*
X713797Y634566D01*
X713752Y634729D01*
Y634788D01*
X713737Y634847D01*
Y634877D01*
Y634892D01*
X713752Y634995D01*
X713767Y635084D01*
X713826Y635232D01*
X713856Y635291D01*
X713885Y635336D01*
X713915Y635351D01*
Y635366D01*
X713989Y635440D01*
X714093Y635499D01*
X714300Y635603D01*
X714404Y635647D01*
X714478Y635677D01*
X714537Y635691D01*
X714552D01*
Y636669D01*
D02*
G37*
G36*
X711753Y630937D02*
X711649D01*
X711590Y630908D01*
X711471Y630849D01*
X711412Y630789D01*
X711382Y630774D01*
Y630760D01*
X711308Y630626D01*
X711264Y630493D01*
Y630449D01*
X711249Y630404D01*
Y627901D01*
X711264Y627798D01*
X711323Y627620D01*
X711397Y627501D01*
X711501Y627427D01*
X711590Y627368D01*
X711664Y627353D01*
X711723Y627339D01*
X711738D01*
X711812Y627353D01*
X711886Y627368D01*
X711990Y627427D01*
X712064Y627487D01*
X712093Y627516D01*
X712182Y627620D01*
X712227Y627679D01*
X712256Y627709D01*
X712301Y627724D01*
X712345Y627738D01*
X712434D01*
X712478Y627724D01*
X712508Y627709D01*
X712523Y627694D01*
X712612Y627664D01*
X712715Y627620D01*
X712804Y627575D01*
X712819Y627561D01*
X712834D01*
X713086Y627457D01*
X713337Y627383D01*
X713559Y627339D01*
X713767Y627309D01*
X713945Y627279D01*
X714093Y627264D01*
X714211D01*
Y628227D01*
X714004Y628272D01*
X713826Y628316D01*
X713678Y628375D01*
X713545Y628435D01*
X713456Y628479D01*
X713382Y628523D01*
X713337Y628538D01*
X713323Y628553D01*
X713174Y628716D01*
X713041Y628864D01*
X712937Y629012D01*
X712834Y629160D01*
X712745Y629264D01*
X712686Y629367D01*
X712656Y629427D01*
X712641Y629442D01*
X712464Y629797D01*
X712404Y629975D01*
X712345Y630138D01*
X712301Y630271D01*
X712271Y630375D01*
X712241Y630434D01*
Y630464D01*
X712182Y630626D01*
X712123Y630730D01*
X712064Y630804D01*
X712049Y630819D01*
X711960Y630893D01*
X711842Y630923D01*
X711753Y630937D01*
D02*
G37*
G36*
X673498Y636669D02*
X673025Y636624D01*
X672610Y636550D01*
X672254Y636447D01*
X672091Y636402D01*
X671958Y636343D01*
X671825Y636284D01*
X671706Y636239D01*
X671618Y636195D01*
X671544Y636151D01*
X671484Y636106D01*
X671425Y636091D01*
X671410Y636062D01*
X671395D01*
X671188Y635899D01*
X671010Y635736D01*
X670862Y635558D01*
X670729Y635380D01*
X670640Y635232D01*
X670566Y635114D01*
X670522Y635040D01*
X670507Y635025D01*
Y635010D01*
X670403Y634758D01*
X670329Y634507D01*
X670270Y634270D01*
X670240Y634062D01*
X670211Y633870D01*
X670196Y633722D01*
Y633588D01*
X670211Y633307D01*
X670255Y633055D01*
X670314Y632803D01*
X670388Y632566D01*
X670492Y632359D01*
X670596Y632152D01*
X670714Y631974D01*
X670833Y631811D01*
X670951Y631663D01*
X671070Y631530D01*
X671173Y631426D01*
X671277Y631322D01*
X671351Y631248D01*
X671410Y631204D01*
X671455Y631174D01*
X671469Y631159D01*
X671662Y631026D01*
X671840Y630923D01*
X671914Y630878D01*
X671973Y630849D01*
X672003Y630819D01*
X672017D01*
X672151Y630760D01*
X672314Y630686D01*
X672506Y630597D01*
X672684Y630508D01*
X672862Y630434D01*
X672995Y630375D01*
X673054Y630345D01*
X673099Y630330D01*
X673113Y630315D01*
X673128D01*
X673365Y630197D01*
X673572Y630108D01*
X673735Y630019D01*
X673869Y629945D01*
X673958Y629886D01*
X674032Y629841D01*
X674061Y629812D01*
X674076Y629797D01*
X674194Y629693D01*
X674269Y629575D01*
X674328Y629471D01*
X674372Y629367D01*
X674402Y629279D01*
X674417Y629205D01*
Y629160D01*
Y629145D01*
X674402Y629027D01*
X674387Y628908D01*
X674343Y628805D01*
X674313Y628731D01*
X674269Y628671D01*
X674224Y628627D01*
X674209Y628597D01*
X674194Y628583D01*
X674106Y628509D01*
X673972Y628435D01*
X673706Y628316D01*
X673572Y628272D01*
X673469Y628242D01*
X673395Y628227D01*
X673365Y628212D01*
Y627264D01*
X673572D01*
X673750Y627279D01*
X673928Y627309D01*
X674076Y627324D01*
X674209Y627353D01*
X674298Y627368D01*
X674372Y627383D01*
X674387D01*
X674565Y627427D01*
X674728Y627487D01*
X674891Y627546D01*
X675009Y627590D01*
X675128Y627635D01*
X675202Y627679D01*
X675261Y627694D01*
X675276Y627709D01*
X675542Y627872D01*
X675779Y628064D01*
X675987Y628257D01*
X676150Y628435D01*
X676283Y628597D01*
X676386Y628731D01*
X676446Y628820D01*
X676461Y628834D01*
Y628849D01*
X676609Y629131D01*
X676712Y629397D01*
X676801Y629664D01*
X676846Y629916D01*
X676875Y630123D01*
X676905Y630286D01*
Y630434D01*
X676890Y630641D01*
X676860Y630849D01*
X676816Y631056D01*
X676757Y631234D01*
X676609Y631589D01*
X676446Y631885D01*
X676357Y632019D01*
X676283Y632122D01*
X676194Y632226D01*
X676135Y632315D01*
X676075Y632374D01*
X676031Y632418D01*
X676001Y632448D01*
X675987Y632463D01*
X675913Y632566D01*
X675839Y632655D01*
X675661Y632818D01*
X675587Y632877D01*
X675527Y632922D01*
X675483Y632937D01*
X675468Y632951D01*
X675335Y633026D01*
X675187Y633114D01*
X675039Y633188D01*
X674891Y633262D01*
X674757Y633337D01*
X674654Y633381D01*
X674580Y633411D01*
X674550Y633426D01*
X674387Y633499D01*
X674224Y633559D01*
X673972Y633677D01*
X673750Y633781D01*
X673587Y633855D01*
X673469Y633914D01*
X673395Y633959D01*
X673350Y633988D01*
X673336D01*
X673217Y634062D01*
X673113Y634136D01*
X673025Y634196D01*
X672951Y634255D01*
X672891Y634314D01*
X672862Y634359D01*
X672847Y634373D01*
X672832Y634388D01*
X672743Y634566D01*
X672699Y634729D01*
Y634788D01*
X672684Y634847D01*
Y634877D01*
Y634892D01*
X672699Y634995D01*
X672714Y635084D01*
X672773Y635232D01*
X672802Y635291D01*
X672832Y635336D01*
X672862Y635351D01*
Y635366D01*
X672936Y635440D01*
X673039Y635499D01*
X673247Y635603D01*
X673350Y635647D01*
X673424Y635677D01*
X673484Y635691D01*
X673498D01*
Y636669D01*
D02*
G37*
G36*
X670699Y630937D02*
X670596D01*
X670537Y630908D01*
X670418Y630849D01*
X670359Y630789D01*
X670329Y630774D01*
Y630760D01*
X670255Y630626D01*
X670211Y630493D01*
Y630449D01*
X670196Y630404D01*
Y627901D01*
X670211Y627798D01*
X670270Y627620D01*
X670344Y627501D01*
X670448Y627427D01*
X670537Y627368D01*
X670611Y627353D01*
X670670Y627339D01*
X670685D01*
X670759Y627353D01*
X670833Y627368D01*
X670936Y627427D01*
X671010Y627487D01*
X671040Y627516D01*
X671129Y627620D01*
X671173Y627679D01*
X671203Y627709D01*
X671247Y627724D01*
X671292Y627738D01*
X671381D01*
X671425Y627724D01*
X671455Y627709D01*
X671469Y627694D01*
X671558Y627664D01*
X671662Y627620D01*
X671751Y627575D01*
X671766Y627561D01*
X671780D01*
X672032Y627457D01*
X672284Y627383D01*
X672506Y627339D01*
X672714Y627309D01*
X672891Y627279D01*
X673039Y627264D01*
X673158D01*
Y628227D01*
X672951Y628272D01*
X672773Y628316D01*
X672625Y628375D01*
X672491Y628435D01*
X672402Y628479D01*
X672329Y628523D01*
X672284Y628538D01*
X672269Y628553D01*
X672121Y628716D01*
X671988Y628864D01*
X671884Y629012D01*
X671780Y629160D01*
X671692Y629264D01*
X671632Y629367D01*
X671603Y629427D01*
X671588Y629442D01*
X671410Y629797D01*
X671351Y629975D01*
X671292Y630138D01*
X671247Y630271D01*
X671218Y630375D01*
X671188Y630434D01*
Y630464D01*
X671129Y630626D01*
X671070Y630730D01*
X671010Y630804D01*
X670996Y630819D01*
X670907Y630893D01*
X670788Y630923D01*
X670699Y630937D01*
D02*
G37*
G36*
X706584Y636506D02*
X705858D01*
Y635543D01*
X706021Y635499D01*
X706154Y635440D01*
X706258Y635395D01*
X706347Y635351D01*
X706391Y635306D01*
X706436Y635277D01*
X706465Y635262D01*
Y635247D01*
X706510Y635173D01*
X706540Y635099D01*
X706584Y634921D01*
X706599Y634847D01*
Y634788D01*
Y634743D01*
Y634729D01*
Y633011D01*
Y632833D01*
X706584Y632715D01*
X706569Y632655D01*
X706554Y632626D01*
X706510Y632537D01*
X706451Y632448D01*
X706391Y632389D01*
X706377Y632359D01*
X706332Y632344D01*
X706273Y632315D01*
X706110Y632285D01*
X706021Y632270D01*
X705947Y632256D01*
X705903Y632241D01*
X705888D01*
Y631322D01*
X706021Y631308D01*
X706140Y631263D01*
X706229Y631234D01*
X706303Y631189D01*
X706362Y631159D01*
X706391Y631130D01*
X706421Y631115D01*
Y631100D01*
X706510Y630967D01*
X706554Y630834D01*
X706569Y630789D01*
X706584Y630745D01*
Y630715D01*
Y630700D01*
Y630671D01*
X706599Y630626D01*
Y630493D01*
Y630419D01*
Y630375D01*
Y630330D01*
Y630315D01*
Y629219D01*
X706614Y628894D01*
X706673Y628612D01*
X706762Y628360D01*
X706851Y628153D01*
X706940Y627990D01*
X707028Y627872D01*
X707088Y627798D01*
X707102Y627768D01*
X707310Y627590D01*
X707547Y627472D01*
X707784Y627383D01*
X708021Y627309D01*
X708228Y627279D01*
X708391Y627264D01*
X708450Y627250D01*
X708702D01*
X708850Y627264D01*
X708983Y627279D01*
X709087Y627309D01*
X709176Y627324D01*
X709250Y627339D01*
X709294Y627353D01*
X709309D01*
X709546Y627442D01*
X709650Y627487D01*
X709753Y627546D01*
X709827Y627590D01*
X709887Y627635D01*
X709916Y627649D01*
X709931Y627664D01*
X710138Y627857D01*
X710301Y628035D01*
X710361Y628109D01*
X710420Y628168D01*
X710435Y628212D01*
X710449Y628227D01*
X710524Y628346D01*
X710568Y628449D01*
X710627Y628612D01*
X710642Y628686D01*
X710657Y628731D01*
Y628834D01*
X710627Y628894D01*
X710583Y628997D01*
X710524Y629071D01*
X710509Y629101D01*
X710494D01*
X710435Y629160D01*
X710375Y629190D01*
X710272Y629249D01*
X710198Y629264D01*
X710168D01*
X710079Y629249D01*
X710005Y629219D01*
X709857Y629116D01*
X709798Y629057D01*
X709753Y629012D01*
X709739Y628982D01*
X709724Y628968D01*
X709679Y628923D01*
Y628938D01*
Y628953D01*
Y628968D01*
Y630315D01*
Y630434D01*
X709650Y630552D01*
X709635Y630656D01*
X709605Y630745D01*
X709576Y630834D01*
X709546Y630893D01*
X709531Y630923D01*
X709516Y630937D01*
X709368Y631159D01*
X709220Y631322D01*
X709146Y631396D01*
X709087Y631441D01*
X709057Y631470D01*
X709043Y631485D01*
X708835Y631619D01*
X708643Y631707D01*
X708554Y631752D01*
X708495Y631781D01*
X708450Y631796D01*
X708435D01*
X708169Y631870D01*
X708035Y631885D01*
X707902Y631900D01*
X707784Y631915D01*
X707621D01*
X707813Y631930D01*
X707991Y631959D01*
X708139Y631989D01*
X708272Y632019D01*
X708376Y632048D01*
X708450Y632078D01*
X708495Y632107D01*
X708509D01*
X708746Y632241D01*
X708850Y632315D01*
X708939Y632374D01*
X708998Y632433D01*
X709057Y632478D01*
X709087Y632507D01*
X709102Y632522D01*
X709309Y632774D01*
X709457Y633026D01*
X709576Y633292D01*
X709650Y633544D01*
X709694Y633766D01*
X709709Y633870D01*
Y633944D01*
X709724Y634018D01*
Y634062D01*
Y634092D01*
Y634107D01*
X709709Y634329D01*
X709679Y634521D01*
X709635Y634714D01*
X709576Y634892D01*
X709427Y635203D01*
X709265Y635469D01*
X709102Y635662D01*
X708954Y635810D01*
X708894Y635869D01*
X708850Y635899D01*
X708820Y635928D01*
X708806D01*
X708569Y636076D01*
X708332Y636195D01*
X708095Y636284D01*
X707872Y636358D01*
X707680Y636402D01*
X707532Y636432D01*
X707473D01*
X707428Y636447D01*
X707399D01*
X707191Y636461D01*
X706984Y636476D01*
X706777Y636491D01*
X706584Y636506D01*
D02*
G37*
G36*
X688175Y625434D02*
X688131D01*
X688042Y625419D01*
X687968Y625404D01*
X687849Y625330D01*
X687760Y625241D01*
X687746Y625227D01*
X687731Y625212D01*
X687686Y625138D01*
X687642Y625078D01*
X687583Y625004D01*
X687568Y624975D01*
X687553Y624960D01*
X687494Y624945D01*
X687464D01*
X687405Y624960D01*
X687331Y624975D01*
X687287Y624990D01*
X687257Y625004D01*
X686961Y625108D01*
X686635Y625197D01*
X686309Y625271D01*
X685998Y625330D01*
X685732Y625375D01*
X685613Y625389D01*
X685509Y625404D01*
X685421D01*
X685361Y625419D01*
X685302D01*
Y624457D01*
X685509Y624442D01*
X685687Y624412D01*
X685835Y624382D01*
X685954Y624353D01*
X686057Y624323D01*
X686117Y624308D01*
X686161Y624279D01*
X686176D01*
X686294Y624220D01*
X686413Y624146D01*
X686605Y623997D01*
X686694Y623923D01*
X686753Y623864D01*
X686798Y623820D01*
X686813Y623805D01*
X686872Y623701D01*
X686931Y623597D01*
X687064Y623375D01*
X687109Y623272D01*
X687153Y623183D01*
X687183Y623124D01*
X687198Y623109D01*
X687287Y622946D01*
X687361Y622783D01*
X687420Y622650D01*
X687464Y622531D01*
X687494Y622428D01*
X687524Y622354D01*
X687538Y622309D01*
Y622294D01*
X687568Y622191D01*
X687612Y622087D01*
X687642Y622013D01*
X687672Y621954D01*
X687731Y621880D01*
X687746Y621850D01*
X687849Y621776D01*
X687968Y621746D01*
X688057Y621732D01*
X688101D01*
X688279Y621761D01*
X688397Y621820D01*
X688486Y621924D01*
X688560Y622043D01*
X688590Y622146D01*
X688605Y622250D01*
X688620Y622309D01*
Y622339D01*
Y624856D01*
X688605Y625034D01*
X688560Y625167D01*
X688516Y625241D01*
X688501Y625271D01*
X688457Y625330D01*
X688397Y625360D01*
X688279Y625419D01*
X688220D01*
X688175Y625434D01*
D02*
G37*
G36*
X721261Y625256D02*
X721009D01*
Y624294D01*
X721142Y624279D01*
X721246Y624249D01*
X721350Y624220D01*
X721409Y624190D01*
X721468Y624160D01*
X721498Y624131D01*
X721527Y624116D01*
X721616Y624027D01*
X721661Y623953D01*
X721690Y623894D01*
X721705Y623864D01*
X721720Y623820D01*
X721735Y623746D01*
X721749Y623627D01*
Y623553D01*
Y623509D01*
Y623479D01*
Y623464D01*
Y621406D01*
Y621272D01*
X721735Y621139D01*
X721720Y621035D01*
X721690Y620947D01*
X721675Y620887D01*
X721646Y620843D01*
X721631Y620813D01*
Y620798D01*
X721572Y620710D01*
X721527Y620650D01*
X721483Y620621D01*
X721468Y620606D01*
X721424Y620591D01*
X721364Y620562D01*
X721216Y620517D01*
X721157Y620502D01*
X721098Y620487D01*
X721053Y620473D01*
X721039D01*
Y619540D01*
X721290D01*
X721513Y619554D01*
X721735Y619569D01*
X721912Y619584D01*
X722090Y619599D01*
X722238Y619614D01*
X722371Y619643D01*
X722490Y619658D01*
X722594Y619688D01*
X722683Y619702D01*
X722756Y619717D01*
X722816Y619747D01*
X722875Y619762D01*
X722905Y619777D01*
X723260Y619910D01*
X723571Y620073D01*
X723823Y620236D01*
X724030Y620399D01*
X724193Y620547D01*
X724297Y620665D01*
X724371Y620739D01*
X724386Y620769D01*
X724548Y621035D01*
X724667Y621317D01*
X724741Y621598D01*
X724800Y621865D01*
X724830Y622117D01*
X724845Y622205D01*
X724860Y622294D01*
Y622472D01*
X724845Y622798D01*
X724786Y623109D01*
X724712Y623375D01*
X724623Y623597D01*
X724534Y623790D01*
X724460Y623923D01*
X724401Y624012D01*
X724386Y624042D01*
X724208Y624264D01*
X724015Y624457D01*
X723808Y624619D01*
X723616Y624753D01*
X723438Y624856D01*
X723305Y624930D01*
X723245Y624960D01*
X723201Y624975D01*
X723186Y624990D01*
X723171D01*
X723038Y625034D01*
X722890Y625078D01*
X722549Y625138D01*
X722194Y625197D01*
X721838Y625227D01*
X721513Y625241D01*
X721379D01*
X721261Y625256D01*
D02*
G37*
G36*
X720772D02*
X717573D01*
X717381Y625241D01*
X717247Y625197D01*
X717158Y625138D01*
X717143Y625123D01*
X717129D01*
X717069Y625078D01*
X717040Y625019D01*
X716981Y624916D01*
X716966Y624827D01*
Y624782D01*
X716981Y624649D01*
X717025Y624545D01*
X717069Y624471D01*
X717143Y624412D01*
X717203Y624368D01*
X717247Y624338D01*
X717292Y624308D01*
X717307D01*
X717366Y624279D01*
X717425Y624264D01*
X717484Y624234D01*
X717514Y624220D01*
X717543Y624205D01*
X717558Y624190D01*
X717588Y624116D01*
X717618Y624042D01*
Y623968D01*
Y623953D01*
Y623938D01*
Y617481D01*
X717603Y617362D01*
X717588Y617288D01*
X717573Y617244D01*
X717558Y617229D01*
X717529Y617200D01*
X717514Y617185D01*
X717499D01*
X717469Y617170D01*
X717410Y617155D01*
X717336Y617126D01*
X717321Y617111D01*
X717307D01*
X717188Y617052D01*
X717114Y616992D01*
X717055Y616903D01*
X717010Y616829D01*
X716981Y616755D01*
X716966Y616696D01*
Y616637D01*
X716981Y616548D01*
X716995Y616489D01*
X717055Y616370D01*
X717099Y616311D01*
X717129Y616281D01*
X717262Y616222D01*
X717410Y616192D01*
X717469Y616178D01*
X720964D01*
X721053Y616192D01*
X721142Y616207D01*
X721202Y616222D01*
X721261Y616237D01*
X721290Y616252D01*
X721320Y616267D01*
X721409Y616326D01*
X721468Y616385D01*
X721513Y616459D01*
X721542Y616518D01*
X721572Y616607D01*
Y616637D01*
Y616652D01*
X721557Y616785D01*
X721498Y616889D01*
X721424Y616978D01*
X721335Y617037D01*
X721231Y617081D01*
X721157Y617126D01*
X721098Y617140D01*
X721083D01*
X720979Y617170D01*
X720920Y617185D01*
X720905Y617200D01*
X720891D01*
X720861Y617214D01*
X720831Y617244D01*
X720816Y617274D01*
X720802Y617288D01*
X720787Y617303D01*
Y617333D01*
X720772Y617422D01*
Y617496D01*
Y617511D01*
Y617525D01*
Y625256D01*
D02*
G37*
G36*
X693596D02*
X690397D01*
X690204Y625241D01*
X690071Y625197D01*
X689982Y625138D01*
X689967Y625123D01*
X689952D01*
X689893Y625078D01*
X689863Y625019D01*
X689804Y624916D01*
X689789Y624827D01*
Y624782D01*
X689804Y624649D01*
X689849Y624545D01*
X689893Y624471D01*
X689967Y624412D01*
X690026Y624368D01*
X690071Y624338D01*
X690115Y624308D01*
X690130D01*
X690189Y624279D01*
X690249Y624264D01*
X690308Y624234D01*
X690337Y624220D01*
X690367Y624205D01*
X690382Y624190D01*
X690412Y624116D01*
X690441Y624042D01*
Y623968D01*
Y623953D01*
Y623938D01*
Y617481D01*
X690426Y617362D01*
X690412Y617288D01*
X690397Y617244D01*
X690382Y617229D01*
X690352Y617200D01*
X690337Y617185D01*
X690323D01*
X690293Y617170D01*
X690234Y617155D01*
X690160Y617126D01*
X690145Y617111D01*
X690130D01*
X690012Y617052D01*
X689938Y616992D01*
X689878Y616903D01*
X689834Y616829D01*
X689804Y616755D01*
X689789Y616696D01*
Y616637D01*
X689804Y616548D01*
X689819Y616489D01*
X689878Y616370D01*
X689923Y616311D01*
X689952Y616281D01*
X690086Y616222D01*
X690234Y616192D01*
X690293Y616178D01*
X693788D01*
X693877Y616192D01*
X693966Y616207D01*
X694025Y616222D01*
X694084Y616237D01*
X694114Y616252D01*
X694144Y616267D01*
X694233Y616326D01*
X694292Y616385D01*
X694336Y616459D01*
X694366Y616518D01*
X694395Y616607D01*
Y616637D01*
Y616652D01*
X694381Y616785D01*
X694321Y616889D01*
X694247Y616978D01*
X694158Y617037D01*
X694055Y617081D01*
X693981Y617126D01*
X693922Y617140D01*
X693907D01*
X693803Y617170D01*
X693744Y617185D01*
X693729Y617200D01*
X693714D01*
X693684Y617214D01*
X693655Y617244D01*
X693640Y617274D01*
X693625Y617288D01*
X693610Y617303D01*
Y617333D01*
X693596Y617422D01*
Y617496D01*
Y617511D01*
Y617525D01*
Y625256D01*
D02*
G37*
G36*
X715559D02*
X713767D01*
X713559Y625241D01*
X713411Y625212D01*
X713352Y625182D01*
X713308Y625167D01*
X713293Y625153D01*
X713278D01*
X713219Y625108D01*
X713189Y625049D01*
X713130Y624945D01*
X713115Y624856D01*
Y624827D01*
Y624812D01*
X713130Y624679D01*
X713160Y624590D01*
X713174Y624531D01*
X713189Y624516D01*
X713278Y624442D01*
X713382Y624368D01*
X713471Y624308D01*
X713485Y624294D01*
X713500D01*
X713708Y624160D01*
X713856Y623983D01*
X713974Y623805D01*
X714048Y623627D01*
X714093Y623449D01*
X714108Y623316D01*
X714122Y623257D01*
Y623212D01*
Y623198D01*
Y623183D01*
Y618962D01*
X714108Y618636D01*
X714048Y618340D01*
X713959Y618073D01*
X713870Y617836D01*
X713782Y617644D01*
X713693Y617496D01*
X713663Y617451D01*
X713634Y617407D01*
X713619Y617392D01*
Y617377D01*
X713471Y617303D01*
X713308Y617259D01*
X713130Y617200D01*
X712952Y617170D01*
X712789Y617140D01*
X712671Y617111D01*
X712582Y617096D01*
X712552D01*
Y616015D01*
X712775Y616044D01*
X712967Y616074D01*
X713130Y616118D01*
X713263Y616148D01*
X713382Y616192D01*
X713456Y616207D01*
X713500Y616237D01*
X713515D01*
X713767Y616370D01*
X713974Y616518D01*
X714167Y616681D01*
X714315Y616844D01*
X714433Y616978D01*
X714522Y617096D01*
X714581Y617170D01*
X714596Y617200D01*
X714759Y617451D01*
X714878Y617748D01*
X714966Y618044D01*
X715026Y618325D01*
X715055Y618577D01*
X715070Y618681D01*
X715085Y618770D01*
Y618858D01*
Y618918D01*
Y618947D01*
Y618962D01*
Y623183D01*
X715100Y623435D01*
X715129Y623553D01*
X715159Y623642D01*
X715174Y623731D01*
X715203Y623790D01*
X715218Y623820D01*
Y623835D01*
X715277Y623938D01*
X715351Y624027D01*
X715485Y624160D01*
X715544Y624205D01*
X715589Y624234D01*
X715618Y624264D01*
X715633D01*
X715722Y624308D01*
X715781Y624353D01*
X715840Y624397D01*
X715870Y624412D01*
X715900Y624442D01*
X715914Y624457D01*
X715974Y624516D01*
X716003Y624575D01*
X716062Y624679D01*
X716077Y624767D01*
Y624797D01*
X716062Y624886D01*
X716033Y624960D01*
X715959Y625078D01*
X715870Y625138D01*
X715840Y625167D01*
X715826D01*
X715766Y625212D01*
X715707Y625227D01*
X715663Y625241D01*
X715648D01*
X715559Y625256D01*
D02*
G37*
G36*
X711531D02*
X708317D01*
X708139Y625241D01*
X707991Y625197D01*
X707902Y625138D01*
X707887Y625123D01*
X707872D01*
X707813Y625078D01*
X707784Y625019D01*
X707724Y624901D01*
X707710Y624812D01*
Y624767D01*
X707724Y624649D01*
X707769Y624545D01*
X707813Y624471D01*
X707887Y624412D01*
X707946Y624368D01*
X707991Y624338D01*
X708035Y624308D01*
X708050D01*
X708110Y624279D01*
X708169Y624264D01*
X708228Y624234D01*
X708257Y624220D01*
X708287Y624205D01*
X708302Y624190D01*
X708332Y624116D01*
X708361Y624042D01*
Y623968D01*
Y623953D01*
Y623938D01*
Y618873D01*
X708376Y618562D01*
X708391Y618281D01*
X708435Y618044D01*
X708480Y617851D01*
X708509Y617703D01*
X708554Y617585D01*
X708569Y617525D01*
X708583Y617496D01*
X708672Y617333D01*
X708791Y617185D01*
X708909Y617037D01*
X709043Y616918D01*
X709146Y616829D01*
X709235Y616741D01*
X709294Y616696D01*
X709324Y616681D01*
X709531Y616563D01*
X709724Y616444D01*
X709931Y616355D01*
X710109Y616296D01*
X710272Y616237D01*
X710390Y616192D01*
X710479Y616178D01*
X710509Y616163D01*
X710731Y616118D01*
X710983Y616074D01*
X711220Y616044D01*
X711442Y616030D01*
X711649D01*
X711797Y616015D01*
X712241D01*
Y617066D01*
X712123Y617111D01*
X712019Y617140D01*
X711930Y617170D01*
X711871Y617200D01*
X711827Y617214D01*
X711797D01*
X711782Y617229D01*
X711723Y617288D01*
X711679Y617362D01*
X711649Y617407D01*
X711634Y617437D01*
X711590Y617540D01*
X711560Y617644D01*
X711531Y617733D01*
Y617748D01*
Y617762D01*
Y617851D01*
X711516Y617970D01*
Y618222D01*
Y618340D01*
Y618444D01*
Y618503D01*
Y618533D01*
Y623938D01*
X711531Y624057D01*
X711545Y624131D01*
X711560Y624175D01*
Y624190D01*
X711575Y624220D01*
X711590D01*
X711605Y624234D01*
X711634D01*
X711693Y624264D01*
X711767Y624294D01*
X711782Y624308D01*
X711797D01*
X711916Y624368D01*
X712005Y624427D01*
X712079Y624501D01*
X712123Y624590D01*
X712153Y624649D01*
X712167Y624708D01*
Y624753D01*
Y624767D01*
X712153Y624886D01*
X712123Y624975D01*
X712079Y625034D01*
X712064Y625049D01*
X711975Y625123D01*
X711886Y625182D01*
X711827Y625197D01*
X711812Y625212D01*
X711797D01*
X711531Y625256D01*
D02*
G37*
G36*
X703252Y625419D02*
X703163D01*
Y624501D01*
X703252Y624471D01*
X703326Y624427D01*
X703444Y624382D01*
X703504Y624353D01*
X703518Y624338D01*
X703578Y624279D01*
X703622Y624234D01*
X703652Y624175D01*
X703666Y624160D01*
X703726Y624012D01*
X703755Y623864D01*
X703770Y623790D01*
Y623731D01*
Y623701D01*
Y623686D01*
Y617910D01*
Y617733D01*
X703741Y617585D01*
X703726Y617466D01*
X703696Y617362D01*
X703666Y617288D01*
X703637Y617229D01*
X703622Y617200D01*
X703607Y617185D01*
X703563Y617126D01*
X703518Y617081D01*
X703489Y617066D01*
X703474Y617052D01*
X703444Y617037D01*
X703400Y617022D01*
X703296Y616978D01*
X703207Y616963D01*
X703178Y616948D01*
X703163D01*
Y616015D01*
X703459Y616044D01*
X703755Y616089D01*
X704022Y616148D01*
X704274Y616237D01*
X704511Y616311D01*
X704718Y616415D01*
X704925Y616503D01*
X705103Y616607D01*
X705251Y616696D01*
X705399Y616785D01*
X705518Y616874D01*
X705621Y616948D01*
X705695Y617022D01*
X705755Y617066D01*
X705784Y617096D01*
X705799Y617111D01*
X706036Y617362D01*
X706229Y617644D01*
X706406Y617925D01*
X706554Y618222D01*
X706688Y618518D01*
X706791Y618814D01*
X706880Y619110D01*
X706954Y619391D01*
X707014Y619658D01*
X707043Y619910D01*
X707073Y620132D01*
X707102Y620325D01*
Y620473D01*
X707117Y620591D01*
Y620695D01*
X707102Y621124D01*
X707058Y621524D01*
X706984Y621909D01*
X706910Y622250D01*
X706791Y622590D01*
X706688Y622887D01*
X706554Y623168D01*
X706436Y623405D01*
X706303Y623627D01*
X706169Y623820D01*
X706066Y623983D01*
X705962Y624131D01*
X705873Y624234D01*
X705799Y624308D01*
X705755Y624353D01*
X705740Y624368D01*
X705547Y624545D01*
X705355Y624693D01*
X705162Y624827D01*
X704999Y624930D01*
X704851Y625019D01*
X704733Y625078D01*
X704659Y625108D01*
X704629Y625123D01*
X704392Y625212D01*
X704140Y625286D01*
X703903Y625330D01*
X703666Y625375D01*
X703474Y625389D01*
X703311Y625404D01*
X703252Y625419D01*
D02*
G37*
G36*
X702911D02*
X702600Y625404D01*
X702304Y625360D01*
X702052Y625316D01*
X701845Y625256D01*
X701667Y625212D01*
X701534Y625167D01*
X701460Y625138D01*
X701430Y625123D01*
X701208Y625019D01*
X701001Y624901D01*
X700823Y624767D01*
X700660Y624649D01*
X700512Y624545D01*
X700408Y624457D01*
X700349Y624397D01*
X700319Y624368D01*
X700082Y624101D01*
X699875Y623835D01*
X699697Y623568D01*
X699549Y623316D01*
X699446Y623094D01*
X699401Y623005D01*
X699357Y622931D01*
X699327Y622857D01*
X699312Y622813D01*
X699298Y622783D01*
Y622768D01*
X699194Y622413D01*
X699105Y622057D01*
X699046Y621702D01*
X699016Y621391D01*
X699001Y621243D01*
X698986Y621109D01*
Y620991D01*
X698972Y620887D01*
Y620695D01*
X698986Y620280D01*
X699031Y619880D01*
X699090Y619510D01*
X699179Y619169D01*
X699268Y618844D01*
X699386Y618547D01*
X699490Y618281D01*
X699623Y618044D01*
X699742Y617822D01*
X699860Y617644D01*
X699964Y617481D01*
X700053Y617348D01*
X700142Y617244D01*
X700201Y617170D01*
X700245Y617126D01*
X700260Y617111D01*
X700453Y616933D01*
X700660Y616785D01*
X700882Y616652D01*
X701104Y616533D01*
X701327Y616430D01*
X701549Y616341D01*
X701963Y616192D01*
X702156Y616148D01*
X702334Y616104D01*
X702496Y616074D01*
X702645Y616044D01*
X702748Y616030D01*
X702837D01*
X702896Y616015D01*
X702911D01*
Y616933D01*
X702778Y616978D01*
X702674Y617022D01*
X702600Y617066D01*
X702541Y617111D01*
X702496Y617140D01*
X702467Y617170D01*
X702437Y617200D01*
X702393Y617288D01*
X702363Y617392D01*
X702334Y617629D01*
X702319Y617733D01*
Y617822D01*
Y617881D01*
Y617910D01*
Y623686D01*
Y623805D01*
X702334Y623923D01*
X702348Y624012D01*
X702378Y624086D01*
X702393Y624131D01*
X702408Y624175D01*
X702422Y624205D01*
X702467Y624264D01*
X702541Y624323D01*
X702704Y624412D01*
X702778Y624457D01*
X702852Y624471D01*
X702896Y624501D01*
X702911D01*
Y625419D01*
D02*
G37*
G36*
X688353Y620917D02*
X685658D01*
X685435Y620902D01*
X685347Y620872D01*
X685272Y620858D01*
X685213Y620828D01*
X685169Y620798D01*
X685154Y620784D01*
X685139D01*
X685080Y620739D01*
X685036Y620680D01*
X684976Y620562D01*
X684947Y620473D01*
Y620443D01*
Y620428D01*
X684961Y620295D01*
X685006Y620191D01*
X685065Y620102D01*
X685139Y620043D01*
X685213Y619999D01*
X685272Y619969D01*
X685317Y619940D01*
X685332D01*
X685421Y619925D01*
X685495Y619910D01*
X685539Y619895D01*
X685569Y619880D01*
X685613Y619865D01*
X685658Y619851D01*
X685672Y619836D01*
X685717Y619762D01*
X685732Y619658D01*
X685746Y619584D01*
Y619569D01*
Y619554D01*
Y617659D01*
X685732Y617481D01*
X685702Y617333D01*
X685658Y617244D01*
X685643Y617229D01*
Y617214D01*
X685613Y617155D01*
X685569Y617111D01*
X685539Y617081D01*
X685524Y617066D01*
X685495Y617052D01*
X685435Y617037D01*
X685332Y616992D01*
X685228Y616978D01*
X685198Y616963D01*
X685184D01*
Y616015D01*
X685524Y616030D01*
X685687Y616044D01*
X685820Y616059D01*
X685939Y616074D01*
X686028Y616089D01*
X686087Y616104D01*
X686102D01*
X686428Y616163D01*
X686561Y616207D01*
X686694Y616237D01*
X686798Y616281D01*
X686872Y616296D01*
X686931Y616326D01*
X686946D01*
X687213Y616459D01*
X687346Y616518D01*
X687464Y616592D01*
X687568Y616652D01*
X687657Y616696D01*
X687716Y616726D01*
X687731Y616741D01*
X687894Y616844D01*
X688042Y616948D01*
X688175Y617052D01*
X688294Y617140D01*
X688382Y617214D01*
X688442Y617274D01*
X688486Y617318D01*
X688501Y617333D01*
Y619584D01*
Y619702D01*
X688516Y619777D01*
Y619806D01*
Y619821D01*
X688545Y619851D01*
X688575Y619895D01*
X688605Y619910D01*
X688620Y619925D01*
X688723Y620014D01*
X688797Y620088D01*
X688827Y620132D01*
X688842Y620147D01*
X688886Y620236D01*
X688901Y620325D01*
X688916Y620384D01*
Y620502D01*
X688886Y620591D01*
X688827Y620710D01*
X688768Y620784D01*
X688753Y620798D01*
X688738D01*
X688664Y620843D01*
X688590Y620872D01*
X688427Y620902D01*
X688353Y620917D01*
D02*
G37*
G36*
X685050Y625419D02*
X684873D01*
X684710Y625404D01*
X684576D01*
X684473Y625389D01*
X684384Y625375D01*
X684325D01*
X684280Y625360D01*
X684265D01*
X684043Y625286D01*
X683821Y625212D01*
X683629Y625123D01*
X683451Y625034D01*
X683303Y624960D01*
X683184Y624886D01*
X683125Y624842D01*
X683095Y624827D01*
X682755Y624575D01*
X682473Y624294D01*
X682222Y624012D01*
X682014Y623731D01*
X681851Y623494D01*
X681792Y623375D01*
X681733Y623286D01*
X681703Y623212D01*
X681674Y623153D01*
X681644Y623124D01*
Y623109D01*
X681481Y622694D01*
X681348Y622250D01*
X681259Y621835D01*
X681200Y621450D01*
X681185Y621272D01*
X681170Y621109D01*
X681155Y620961D01*
Y620843D01*
X681140Y620739D01*
Y620606D01*
X681155Y620339D01*
X681170Y620073D01*
X681244Y619584D01*
X681348Y619155D01*
X681407Y618947D01*
X681466Y618770D01*
X681526Y618607D01*
X681585Y618459D01*
X681644Y618325D01*
X681688Y618222D01*
X681733Y618133D01*
X681763Y618073D01*
X681792Y618029D01*
Y618014D01*
X681911Y617792D01*
X682029Y617570D01*
X682177Y617392D01*
X682310Y617214D01*
X682429Y617081D01*
X682533Y616978D01*
X682592Y616918D01*
X682621Y616889D01*
X682844Y616711D01*
X683066Y616578D01*
X683273Y616444D01*
X683480Y616355D01*
X683643Y616281D01*
X683777Y616222D01*
X683865Y616192D01*
X683880Y616178D01*
X683895D01*
X684088Y616118D01*
X684250Y616074D01*
X684295Y616059D01*
X684339Y616044D01*
X684369D01*
X684443Y616030D01*
X684532D01*
X684725Y616015D01*
X684932D01*
Y616948D01*
X684828Y616992D01*
X684739Y617037D01*
X684680Y617066D01*
X684636Y617111D01*
X684576Y617155D01*
X684561Y617170D01*
X684532Y617244D01*
X684517Y617318D01*
X684502Y617481D01*
X684487Y617540D01*
Y617599D01*
Y617644D01*
Y617659D01*
Y623672D01*
X684517Y623894D01*
X684576Y624072D01*
X684665Y624220D01*
X684769Y624323D01*
X684873Y624397D01*
X684961Y624442D01*
X685021Y624471D01*
X685050D01*
Y625419D01*
D02*
G37*
%LPD*%
D10*
X860131Y690650D02*
G03*
X860131Y690650I-26100J0D01*
G01*
X961100Y80150D02*
G03*
X961100Y80150I-26100J0D01*
G01*
X910989Y619864D02*
G03*
X910989Y619864I-800J0D01*
G01*
Y442750D02*
G03*
X910989Y442750I-800J0D01*
G01*
Y264636D02*
G03*
X910989Y264636I-800J0D01*
G01*
X831532Y661550D02*
X836532D01*
X834031Y659050D02*
Y664050D01*
X747250Y464500D02*
X841750D01*
X747250Y430500D02*
Y464500D01*
Y430500D02*
X841750D01*
Y464500D01*
X935000Y48550D02*
Y53550D01*
X932500Y51050D02*
X937500D01*
X748000Y129911D02*
Y153394D01*
X682000Y97013D02*
Y119278D01*
X748000Y97013D02*
Y119278D01*
X682000Y129911D02*
Y153394D01*
X748000D01*
Y41594D02*
Y86176D01*
X682000Y41594D02*
Y86176D01*
Y41594D02*
X748000D01*
X903389Y570364D02*
Y581330D01*
X918389Y570864D02*
Y612364D01*
X903389Y601898D02*
Y612864D01*
Y570364D02*
X923389D01*
Y612864D01*
X903389D02*
X923389D01*
X903389Y588512D02*
Y594716D01*
Y393250D02*
Y404216D01*
X918389Y393750D02*
Y435250D01*
X903389Y424784D02*
Y435750D01*
Y393250D02*
X923389D01*
Y435750D01*
X903389D02*
X923389D01*
X903389Y411398D02*
Y417602D01*
Y233284D02*
Y239488D01*
Y257636D02*
X923389D01*
Y215136D02*
Y257636D01*
X903389Y215136D02*
X923389D01*
X903389Y246670D02*
Y257636D01*
X918389Y215636D02*
Y257136D01*
X903389Y215136D02*
Y226102D01*
X841750Y565500D02*
Y599500D01*
X747250Y565500D02*
X841750D01*
X747250D02*
Y599500D01*
X841750D01*
X851750Y295500D02*
Y329500D01*
X757250Y295500D02*
X851750D01*
X757250D02*
Y329500D01*
X851750D01*
D11*
X753590Y664504D02*
G03*
X753590Y664504I-591J0D01*
G01*
D12*
X720700Y690000D02*
G03*
X720700Y690000I-5700J0D01*
G01*
X734700Y206500D02*
G03*
X734700Y206500I-5700J0D01*
G01*
X728504Y288575D02*
G03*
X706850Y288575I-10827J-18753D01*
G01*
X698925Y280650D02*
G03*
X698925Y258996I18753J-10827D01*
G01*
X706850Y251070D02*
G03*
X728504Y251070I10827J18753D01*
G01*
X736430Y258996D02*
G03*
X736430Y280650I-18753J10827D01*
G01*
X725504Y421430D02*
G03*
X703850Y421430I-10827J-18753D01*
G01*
X695925Y413504D02*
G03*
X695925Y391850I18753J-10827D01*
G01*
X703850Y383925D02*
G03*
X725504Y383925I10827J18753D01*
G01*
X733430Y391850D02*
G03*
X733430Y413504I-18753J10827D01*
G01*
X728827Y558752D02*
G03*
X707173Y558752I-10827J-18753D01*
G01*
X736753Y529173D02*
G03*
X736753Y550827I-18753J10827D01*
G01*
X707173Y521247D02*
G03*
X728827Y521247I10827J18753D01*
G01*
X699248Y550827D02*
G03*
X699248Y529173I18753J-10827D01*
G01*
X785700Y539000D02*
G03*
X785700Y539000I-5700J0D01*
G01*
X1000700Y507000D02*
G03*
X1000700Y507000I-5700J0D01*
G01*
X862700Y118700D02*
G03*
X862700Y118700I-5700J0D01*
G01*
X780700Y412000D02*
G03*
X780700Y412000I-5700J0D01*
G01*
X999700Y327000D02*
G03*
X999700Y327000I-5700J0D01*
G01*
X837900Y118900D02*
G03*
X837900Y118900I-5700J0D01*
G01*
X789700Y281000D02*
G03*
X789700Y281000I-5700J0D01*
G01*
X1002700Y143000D02*
G03*
X1002700Y143000I-5700J0D01*
G01*
X681700Y423000D02*
G03*
X681700Y423000I-5700J0D01*
G01*
X812500Y118600D02*
G03*
X812500Y118600I-5700J0D01*
G01*
X728700Y487000D02*
G03*
X728700Y487000I-5700J0D01*
G01*
Y351000D02*
G03*
X728700Y351000I-5700J0D01*
G01*
X750700Y224000D02*
G03*
X750700Y224000I-5700J0D01*
G01*
X893894Y41606D02*
Y101842D01*
X771846Y41606D02*
X893894D01*
X771846D02*
Y101842D01*
X893894D01*
X753000Y146730D02*
Y150063D01*
X754666Y151729D01*
X756332Y150063D01*
Y146730D01*
Y149230D01*
X753000D01*
X757998Y146730D02*
Y150063D01*
X760498D01*
X761331Y149230D01*
Y146730D01*
X763830Y150063D02*
X765496D01*
X766329Y149230D01*
Y146730D01*
X763830D01*
X762997Y147563D01*
X763830Y148397D01*
X766329D01*
X767995Y146730D02*
X769661D01*
X768828D01*
Y151729D01*
X767995D01*
X772994Y146730D02*
X774660D01*
X775493Y147563D01*
Y149230D01*
X774660Y150063D01*
X772994D01*
X772160Y149230D01*
Y147563D01*
X772994Y146730D01*
X778825Y145064D02*
X779658D01*
X780491Y145897D01*
Y150063D01*
X777992D01*
X777159Y149230D01*
Y147563D01*
X777992Y146730D01*
X780491D01*
X753000Y136666D02*
X755499D01*
X756332Y137499D01*
X755499Y138332D01*
X753833D01*
X753000Y139165D01*
X753833Y139998D01*
X756332D01*
X760498Y136666D02*
X758831D01*
X757998Y137499D01*
Y139165D01*
X758831Y139998D01*
X760498D01*
X761331Y139165D01*
Y138332D01*
X757998D01*
X762997Y136666D02*
Y139998D01*
X765496D01*
X766329Y139165D01*
Y136666D01*
X767995D02*
X770494D01*
X771327Y137499D01*
X770494Y138332D01*
X768828D01*
X767995Y139165D01*
X768828Y139998D01*
X771327D01*
X772994Y136666D02*
X774660D01*
X773827D01*
Y139998D01*
X772994D01*
X777159Y136666D02*
Y139998D01*
X779658D01*
X780491Y139165D01*
Y136666D01*
X783823Y135000D02*
X784656D01*
X785490Y135833D01*
Y139998D01*
X782990D01*
X782157Y139165D01*
Y137499D01*
X782990Y136666D01*
X785490D01*
X877000Y107000D02*
Y112998D01*
X879999D01*
X880999Y111998D01*
Y109999D01*
X879999Y108999D01*
X877000D01*
X882998Y112998D02*
Y107000D01*
X884997Y108999D01*
X886997Y107000D01*
Y112998D01*
X888996Y107000D02*
Y112998D01*
X890996Y110999D01*
X892995Y112998D01*
Y107000D01*
X667500Y662500D02*
Y666499D01*
X669499D01*
X670166Y665832D01*
Y664499D01*
X669499Y663833D01*
X667500D01*
X668833D02*
X670166Y662500D01*
X674164Y666499D02*
X671499D01*
Y662500D01*
X674164D01*
X671499Y664499D02*
X672832D01*
X675497Y666499D02*
Y663833D01*
X676830Y662500D01*
X678163Y663833D01*
Y666499D01*
X682162Y662500D02*
X679496D01*
X682162Y665166D01*
Y665832D01*
X681496Y666499D01*
X680163D01*
X679496Y665832D01*
X683495D02*
X684161Y666499D01*
X685494D01*
X686161Y665832D01*
Y663166D01*
X685494Y662500D01*
X684161D01*
X683495Y663166D01*
Y665832D01*
X690159Y662500D02*
X687494D01*
X690159Y665166D01*
Y665832D01*
X689493Y666499D01*
X688160D01*
X687494Y665832D01*
X694158Y662500D02*
X691492D01*
X694158Y665166D01*
Y665832D01*
X693492Y666499D01*
X692159D01*
X691492Y665832D01*
X695491Y662500D02*
X696824D01*
X696157D01*
Y666499D01*
X695491Y665832D01*
X698823D02*
X699490Y666499D01*
X700823D01*
X701489Y665832D01*
Y663166D01*
X700823Y662500D01*
X699490D01*
X698823Y663166D01*
Y665832D01*
X705488Y662500D02*
X702822D01*
X705488Y665166D01*
Y665832D01*
X704821Y666499D01*
X703488D01*
X702822Y665832D01*
X706821D02*
X707487Y666499D01*
X708820D01*
X709486Y665832D01*
Y663166D01*
X708820Y662500D01*
X707487D01*
X706821Y663166D01*
Y665832D01*
X713485D02*
X712819Y666499D01*
X711486D01*
X710819Y665832D01*
Y663166D01*
X711486Y662500D01*
X712819D01*
X713485Y663166D01*
X946499Y722998D02*
X945499Y723998D01*
X943500D01*
X942500Y722998D01*
Y719000D01*
X943500Y718000D01*
X945499D01*
X946499Y719000D01*
Y720999D01*
X944499D01*
X948498Y718000D02*
Y723998D01*
X952497Y718000D01*
Y723998D01*
X954496D02*
Y718000D01*
X957495D01*
X958495Y719000D01*
Y722998D01*
X957495Y723998D01*
X954496D01*
X873500Y720499D02*
X877499D01*
X875499Y722498D02*
Y718500D01*
X879498Y717500D02*
X881497D01*
X880498D01*
Y723498D01*
X879498Y722498D01*
X888495Y717500D02*
X884496D01*
X888495Y721499D01*
Y722498D01*
X887496Y723498D01*
X885496D01*
X884496Y722498D01*
X890495Y723498D02*
Y719499D01*
X892494Y717500D01*
X894493Y719499D01*
Y723498D01*
X673503Y172999D02*
X672504Y173999D01*
X670504D01*
X669504Y172999D01*
Y169001D01*
X670504Y168001D01*
X672504D01*
X673503Y169001D01*
X678502Y173999D02*
X676502D01*
X675503Y172999D01*
Y169001D01*
X676502Y168001D01*
X678502D01*
X679501Y169001D01*
Y172999D01*
X678502Y173999D01*
X681501Y168001D02*
Y173999D01*
X685499Y168001D01*
Y173999D01*
X687499Y168001D02*
Y173999D01*
X691497Y168001D01*
Y173999D01*
X693497Y172999D02*
X694496Y173999D01*
X696496D01*
X697496Y172999D01*
Y172000D01*
X696496Y171000D01*
X695496D01*
X696496D01*
X697496Y170000D01*
Y169001D01*
X696496Y168001D01*
X694496D01*
X693497Y169001D01*
X742334Y162333D02*
X741667Y162999D01*
X740334D01*
X739668Y162333D01*
Y159667D01*
X740334Y159001D01*
X741667D01*
X742334Y159667D01*
X743667D02*
X744333Y159001D01*
X745666D01*
X746332Y159667D01*
Y162333D01*
X745666Y162999D01*
X744333D01*
X743667Y162333D01*
Y161667D01*
X744333Y161000D01*
X746332D01*
X710668Y170001D02*
Y173999D01*
X712667D01*
X713334Y173333D01*
Y172000D01*
X712667Y171334D01*
X710668D01*
X712001D02*
X713334Y170001D01*
X717332D02*
X714667D01*
X717332Y172667D01*
Y173333D01*
X716666Y173999D01*
X715333D01*
X714667Y173333D01*
X721668Y194001D02*
Y197999D01*
X723667D01*
X724334Y197333D01*
Y196000D01*
X723667Y195334D01*
X721668D01*
X723001D02*
X724334Y194001D01*
X725667Y197333D02*
X726333Y197999D01*
X727666D01*
X728332Y197333D01*
Y196667D01*
X727666Y196000D01*
X726999D01*
X727666D01*
X728332Y195334D01*
Y194667D01*
X727666Y194001D01*
X726333D01*
X725667Y194667D01*
X740668Y195001D02*
Y198999D01*
X742667D01*
X743334Y198333D01*
Y197000D01*
X742667Y196334D01*
X740668D01*
X742001D02*
X743334Y195001D01*
X746666D02*
Y198999D01*
X744666Y197000D01*
X747332D01*
X756668Y195001D02*
Y198999D01*
X758667D01*
X759334Y198333D01*
Y197000D01*
X758667Y196334D01*
X756668D01*
X758001D02*
X759334Y195001D01*
X763332Y198999D02*
X760667D01*
Y197000D01*
X761999Y197667D01*
X762666D01*
X763332Y197000D01*
Y195667D01*
X762666Y195001D01*
X761333D01*
X760667Y195667D01*
X750668Y209999D02*
X753334D01*
X752001D01*
Y206001D01*
X754667D02*
Y209999D01*
X756666D01*
X757333Y209333D01*
Y208000D01*
X756666Y207334D01*
X754667D01*
X761332Y209999D02*
X759999Y209333D01*
X758666Y208000D01*
Y206667D01*
X759332Y206001D01*
X760665D01*
X761332Y206667D01*
Y207334D01*
X760665Y208000D01*
X758666D01*
X940704Y115819D02*
X939704Y116819D01*
X937705D01*
X936705Y115819D01*
Y111820D01*
X937705Y110821D01*
X939704D01*
X940704Y111820D01*
X946702Y116819D02*
X942703D01*
Y113820D01*
X944703Y114820D01*
X945702D01*
X946702Y113820D01*
Y111820D01*
X945702Y110821D01*
X943703D01*
X942703Y111820D01*
X977081Y74235D02*
X976081Y75235D01*
X974082D01*
X973082Y74235D01*
Y70237D01*
X974082Y69237D01*
X976081D01*
X977081Y70237D01*
X979080Y74235D02*
X980080Y75235D01*
X982079D01*
X983079Y74235D01*
Y73236D01*
X982079Y72236D01*
X983079Y71236D01*
Y70237D01*
X982079Y69237D01*
X980080D01*
X979080Y70237D01*
Y71236D01*
X980080Y72236D01*
X979080Y73236D01*
Y74235D01*
X980080Y72236D02*
X982079D01*
X859423Y657603D02*
X858423Y658602D01*
X856424D01*
X855424Y657603D01*
Y653604D01*
X856424Y652604D01*
X858423D01*
X859423Y653604D01*
X865421Y658602D02*
X863421Y657603D01*
X861422Y655603D01*
Y653604D01*
X862422Y652604D01*
X864421D01*
X865421Y653604D01*
Y654603D01*
X864421Y655603D01*
X861422D01*
X933917Y578198D02*
X934917Y579198D01*
Y581197D01*
X933917Y582197D01*
X929919D01*
X928919Y581197D01*
Y579198D01*
X929919Y578198D01*
X928919Y572200D02*
Y576199D01*
X932918Y572200D01*
X933917D01*
X934917Y573200D01*
Y575199D01*
X933917Y576199D01*
X928919Y570201D02*
X932918D01*
X934917Y568201D01*
X932918Y566202D01*
X928919D01*
X931918D01*
Y570201D01*
X933995Y400265D02*
X934995Y401265D01*
Y403264D01*
X933995Y404264D01*
X929996D01*
X928996Y403264D01*
Y401265D01*
X929996Y400265D01*
X928996Y394267D02*
Y398266D01*
X932995Y394267D01*
X933995D01*
X934995Y395267D01*
Y397266D01*
X933995Y398266D01*
X934995Y392268D02*
X928996D01*
Y389269D01*
X929996Y388269D01*
X930996D01*
X931995Y389269D01*
Y392268D01*
Y389269D01*
X932995Y388269D01*
X933995D01*
X934995Y389269D01*
Y392268D01*
X933999Y224499D02*
X934999Y225498D01*
Y227498D01*
X933999Y228497D01*
X930001D01*
X929001Y227498D01*
Y225498D01*
X930001Y224499D01*
X929001Y218501D02*
Y222499D01*
X933000Y218501D01*
X933999D01*
X934999Y219500D01*
Y221500D01*
X933999Y222499D01*
Y212503D02*
X934999Y213502D01*
Y215502D01*
X933999Y216501D01*
X930001D01*
X929001Y215502D01*
Y213502D01*
X930001Y212503D01*
X924499Y627399D02*
X925499Y628399D01*
Y630398D01*
X924499Y631398D01*
X920501D01*
X919501Y630398D01*
Y628399D01*
X920501Y627399D01*
X919501Y625399D02*
Y623400D01*
Y624400D01*
X925499D01*
X924499Y625399D01*
X919501Y620401D02*
X923500D01*
X925499Y618402D01*
X923500Y616402D01*
X919501D01*
X922500D01*
Y620401D01*
X923799Y449544D02*
X924799Y450543D01*
Y452543D01*
X923799Y453543D01*
X919801D01*
X918801Y452543D01*
Y450543D01*
X919801Y449544D01*
X918801Y447544D02*
Y445545D01*
Y446545D01*
X924799D01*
X923799Y447544D01*
X924799Y442546D02*
X918801D01*
Y439547D01*
X919801Y438547D01*
X920800D01*
X921800Y439547D01*
Y442546D01*
Y439547D01*
X922800Y438547D01*
X923799D01*
X924799Y439547D01*
Y442546D01*
X924999Y272499D02*
X925999Y273499D01*
Y275498D01*
X924999Y276498D01*
X921001D01*
X920001Y275498D01*
Y273499D01*
X921001Y272499D01*
X920001Y270499D02*
Y268500D01*
Y269500D01*
X925999D01*
X924999Y270499D01*
Y261502D02*
X925999Y262502D01*
Y264502D01*
X924999Y265501D01*
X921001D01*
X920001Y264502D01*
Y262502D01*
X921001Y261502D01*
X702002Y503001D02*
Y508999D01*
X705001D01*
X706001Y507999D01*
Y506000D01*
X705001Y505000D01*
X702002D01*
X704002D02*
X706001Y503001D01*
X708001D02*
X710000D01*
X709000D01*
Y508999D01*
X708001Y507999D01*
X712999Y503001D02*
Y507000D01*
X714998Y508999D01*
X716998Y507000D01*
Y503001D01*
Y506000D01*
X712999D01*
X695002Y369001D02*
Y374999D01*
X698001D01*
X699001Y373999D01*
Y372000D01*
X698001Y371000D01*
X695002D01*
X697002D02*
X699001Y369001D01*
X701000D02*
X703000D01*
X702000D01*
Y374999D01*
X701000Y373999D01*
X705999Y374999D02*
Y369001D01*
X708998D01*
X709998Y370001D01*
Y371000D01*
X708998Y372000D01*
X705999D01*
X708998D01*
X709998Y373000D01*
Y373999D01*
X708998Y374999D01*
X705999D01*
X696502Y238501D02*
Y244499D01*
X699502D01*
X700501Y243499D01*
Y241500D01*
X699502Y240500D01*
X696502D01*
X698502D02*
X700501Y238501D01*
X702500D02*
X704500D01*
X703500D01*
Y244499D01*
X702500Y243499D01*
X711498D02*
X710498Y244499D01*
X708498D01*
X707499Y243499D01*
Y239501D01*
X708498Y238501D01*
X710498D01*
X711498Y239501D01*
X752423Y490135D02*
X751423Y491135D01*
X749424D01*
X748424Y490135D01*
Y486136D01*
X749424Y485137D01*
X751423D01*
X752423Y486136D01*
X754422Y490135D02*
X755422Y491135D01*
X757421D01*
X758421Y490135D01*
Y489136D01*
X757421Y488136D01*
X756421D01*
X757421D01*
X758421Y487136D01*
Y486136D01*
X757421Y485137D01*
X755422D01*
X754422Y486136D01*
X760420Y485137D02*
Y489136D01*
X762420Y491135D01*
X764419Y489136D01*
Y485137D01*
Y488136D01*
X760420D01*
X757353Y345010D02*
X756353Y346009D01*
X754354D01*
X753354Y345010D01*
Y341011D01*
X754354Y340011D01*
X756353D01*
X757353Y341011D01*
X759352Y345010D02*
X760352Y346009D01*
X762351D01*
X763351Y345010D01*
Y344010D01*
X762351Y343010D01*
X761352D01*
X762351D01*
X763351Y342011D01*
Y341011D01*
X762351Y340011D01*
X760352D01*
X759352Y341011D01*
X765350Y346009D02*
Y340011D01*
X768349D01*
X769349Y341011D01*
Y342011D01*
X768349Y343010D01*
X765350D01*
X768349D01*
X769349Y344010D01*
Y345010D01*
X768349Y346009D01*
X765350D01*
X748554Y238995D02*
X747554Y239994D01*
X745555D01*
X744556Y238995D01*
Y234996D01*
X745555Y233996D01*
X747554D01*
X748554Y234996D01*
X750554Y238995D02*
X751553Y239994D01*
X753553D01*
X754552Y238995D01*
Y237995D01*
X753553Y236995D01*
X752553D01*
X753553D01*
X754552Y235996D01*
Y234996D01*
X753553Y233996D01*
X751553D01*
X750554Y234996D01*
X760550Y238995D02*
X759551Y239994D01*
X757551D01*
X756552Y238995D01*
Y234996D01*
X757551Y233996D01*
X759551D01*
X760550Y234996D01*
X747463Y544138D02*
X746463Y545138D01*
X744464D01*
X743464Y544138D01*
Y540140D01*
X744464Y539140D01*
X746463D01*
X747463Y540140D01*
X752461Y539140D02*
Y545138D01*
X749462Y542139D01*
X753461D01*
X755460Y539140D02*
Y543139D01*
X757459Y545138D01*
X759459Y543139D01*
Y539140D01*
Y542139D01*
X755460D01*
X742801Y404399D02*
X741802Y405399D01*
X739802D01*
X738803Y404399D01*
Y400401D01*
X739802Y399401D01*
X741802D01*
X742801Y400401D01*
X747800Y399401D02*
Y405399D01*
X744801Y402400D01*
X748799D01*
X750799Y405399D02*
Y399401D01*
X753798D01*
X754797Y400401D01*
Y401400D01*
X753798Y402400D01*
X750799D01*
X753798D01*
X754797Y403400D01*
Y404399D01*
X753798Y405399D01*
X750799D01*
X746501Y285399D02*
X745502Y286399D01*
X743502D01*
X742503Y285399D01*
Y281401D01*
X743502Y280401D01*
X745502D01*
X746501Y281401D01*
X751500Y280401D02*
Y286399D01*
X748501Y283400D01*
X752499D01*
X758497Y285399D02*
X757498Y286399D01*
X755498D01*
X754499Y285399D01*
Y281401D01*
X755498Y280401D01*
X757498D01*
X758497Y281401D01*
X770669Y552499D02*
X773335D01*
X772002D01*
Y548501D01*
X774668D02*
Y552499D01*
X776667D01*
X777334Y551833D01*
Y550500D01*
X776667Y549834D01*
X774668D01*
X781332Y548501D02*
X778666D01*
X781332Y551166D01*
Y551833D01*
X780666Y552499D01*
X779333D01*
X778666Y551833D01*
X782665Y548501D02*
Y551166D01*
X783998Y552499D01*
X785331Y551166D01*
Y548501D01*
Y550500D01*
X782665D01*
X990252Y520000D02*
X992251D01*
X991251D01*
Y517000D01*
X993251D02*
Y520000D01*
X994750D01*
X995250Y519500D01*
Y518500D01*
X994750Y518000D01*
X993251D01*
X996250Y517000D02*
X997249D01*
X996750D01*
Y520000D01*
X996250Y519500D01*
X998749Y517000D02*
Y519000D01*
X999749Y520000D01*
X1000748Y519000D01*
Y517000D01*
Y518500D01*
X998749D01*
X855035Y129335D02*
Y133334D01*
X857034D01*
X857701Y132668D01*
Y131335D01*
X857034Y130668D01*
X855035D01*
X859034Y133334D02*
Y129335D01*
X860367Y130668D01*
X861700Y129335D01*
Y133334D01*
X863033Y129335D02*
Y133334D01*
X864365Y132001D01*
X865698Y133334D01*
Y129335D01*
X867031D02*
Y132001D01*
X868364Y133334D01*
X869697Y132001D01*
Y129335D01*
Y131335D01*
X867031D01*
X766669Y425999D02*
X769335D01*
X768002D01*
Y422001D01*
X770668D02*
Y425999D01*
X772667D01*
X773334Y425333D01*
Y424000D01*
X772667Y423334D01*
X770668D01*
X777332Y422001D02*
X774667D01*
X777332Y424666D01*
Y425333D01*
X776666Y425999D01*
X775333D01*
X774667Y425333D01*
X778665Y425999D02*
Y422001D01*
X780664D01*
X781331Y422667D01*
Y423334D01*
X780664Y424000D01*
X778665D01*
X780664D01*
X781331Y424666D01*
Y425333D01*
X780664Y425999D01*
X778665D01*
X992428Y317944D02*
X994427D01*
X993427D01*
Y314945D01*
X995427D02*
Y317944D01*
X996926D01*
X997426Y317444D01*
Y316444D01*
X996926Y315944D01*
X995427D01*
X998426Y314945D02*
X999425D01*
X998925D01*
Y317944D01*
X998426Y317444D01*
X1000925Y317944D02*
Y314945D01*
X1002424D01*
X1002924Y315445D01*
Y315944D01*
X1002424Y316444D01*
X1000925D01*
X1002424D01*
X1002924Y316944D01*
Y317444D01*
X1002424Y317944D01*
X1000925D01*
X824462Y129205D02*
Y133204D01*
X826462D01*
X827128Y132537D01*
Y131204D01*
X826462Y130538D01*
X824462D01*
X828461Y133204D02*
Y129205D01*
X829794Y130538D01*
X831127Y129205D01*
Y133204D01*
X832460Y129205D02*
Y133204D01*
X833792Y131871D01*
X835125Y133204D01*
Y129205D01*
X836458Y133204D02*
Y129205D01*
X838458D01*
X839124Y129871D01*
Y130538D01*
X838458Y131204D01*
X836458D01*
X838458D01*
X839124Y131871D01*
Y132537D01*
X838458Y133204D01*
X836458D01*
X776169Y292999D02*
X778835D01*
X777502D01*
Y289001D01*
X780168D02*
Y292999D01*
X782167D01*
X782834Y292333D01*
Y291000D01*
X782167Y290334D01*
X780168D01*
X786832Y289001D02*
X784166D01*
X786832Y291666D01*
Y292333D01*
X786166Y292999D01*
X784833D01*
X784166Y292333D01*
X790831D02*
X790165Y292999D01*
X788832D01*
X788165Y292333D01*
Y289667D01*
X788832Y289001D01*
X790165D01*
X790831Y289667D01*
X973752Y145500D02*
X975751D01*
X974751D01*
Y142500D01*
X976751D02*
Y145500D01*
X978250D01*
X978750Y145000D01*
Y144000D01*
X978250Y143500D01*
X976751D01*
X979750Y142500D02*
X980749D01*
X980250D01*
Y145500D01*
X979750Y145000D01*
X984248D02*
X983749Y145500D01*
X982749D01*
X982249Y145000D01*
Y143000D01*
X982749Y142500D01*
X983749D01*
X984248Y143000D01*
X669668Y411999D02*
X672334D01*
X671001D01*
Y408001D01*
X673667D02*
Y411999D01*
X675666D01*
X676333Y411333D01*
Y410000D01*
X675666Y409334D01*
X673667D01*
X680332Y411999D02*
X677666D01*
Y410000D01*
X678999Y410666D01*
X679665D01*
X680332Y410000D01*
Y408667D01*
X679665Y408001D01*
X678332D01*
X677666Y408667D01*
X795519Y129270D02*
Y133269D01*
X797518D01*
X798185Y132603D01*
Y131270D01*
X797518Y130603D01*
X795519D01*
X799518Y133269D02*
Y129270D01*
X800851Y130603D01*
X802184Y129270D01*
Y133269D01*
X803516Y129270D02*
Y133269D01*
X804849Y131936D01*
X806182Y133269D01*
Y129270D01*
X810181Y132603D02*
X809514Y133269D01*
X808181D01*
X807515Y132603D01*
Y129937D01*
X808181Y129270D01*
X809514D01*
X810181Y129937D01*
X705668Y679999D02*
X708334D01*
X707001D01*
Y676001D01*
X709667D02*
Y679999D01*
X711666D01*
X712333Y679333D01*
Y678000D01*
X711666Y677334D01*
X709667D01*
X715665Y676001D02*
Y679999D01*
X713666Y678000D01*
X716332D01*
X699669Y494999D02*
X702335D01*
X701002D01*
Y491001D01*
X703668D02*
Y494999D01*
X705667D01*
X706334Y494333D01*
Y493000D01*
X705667Y492334D01*
X703668D01*
X707666Y494333D02*
X708333Y494999D01*
X709666D01*
X710332Y494333D01*
Y493666D01*
X709666Y493000D01*
X708999D01*
X709666D01*
X710332Y492334D01*
Y491667D01*
X709666Y491001D01*
X708333D01*
X707666Y491667D01*
X711665Y491001D02*
Y493666D01*
X712998Y494999D01*
X714331Y493666D01*
Y491001D01*
Y493000D01*
X711665D01*
X722669Y363999D02*
X725335D01*
X724002D01*
Y360001D01*
X726668D02*
Y363999D01*
X728667D01*
X729334Y363333D01*
Y362000D01*
X728667Y361334D01*
X726668D01*
X730666Y363333D02*
X731333Y363999D01*
X732666D01*
X733332Y363333D01*
Y362666D01*
X732666Y362000D01*
X731999D01*
X732666D01*
X733332Y361334D01*
Y360667D01*
X732666Y360001D01*
X731333D01*
X730666Y360667D01*
X734665Y363999D02*
Y360001D01*
X736664D01*
X737331Y360667D01*
Y361334D01*
X736664Y362000D01*
X734665D01*
X736664D01*
X737331Y362666D01*
Y363333D01*
X736664Y363999D01*
X734665D01*
X717669Y224999D02*
X720335D01*
X719002D01*
Y221001D01*
X721668D02*
Y224999D01*
X723667D01*
X724334Y224333D01*
Y223000D01*
X723667Y222334D01*
X721668D01*
X725667Y224333D02*
X726333Y224999D01*
X727666D01*
X728332Y224333D01*
Y223666D01*
X727666Y223000D01*
X726999D01*
X727666D01*
X728332Y222334D01*
Y221667D01*
X727666Y221001D01*
X726333D01*
X725667Y221667D01*
X732331Y224333D02*
X731665Y224999D01*
X730332D01*
X729665Y224333D01*
Y221667D01*
X730332Y221001D01*
X731665D01*
X732331Y221667D01*
X885191Y145999D02*
Y140001D01*
Y143000D01*
X889190D01*
Y145999D01*
Y140001D01*
X895188Y144999D02*
X894188Y145999D01*
X892189D01*
X891189Y144999D01*
Y144000D01*
X892189Y143000D01*
X894188D01*
X895188Y142000D01*
Y141001D01*
X894188Y140001D01*
X892189D01*
X891189Y141001D01*
X897187Y140001D02*
X899187D01*
X898187D01*
Y145999D01*
X897187Y144999D01*
X877989Y506298D02*
Y500300D01*
Y503299D01*
X881988D01*
Y506298D01*
Y500300D01*
X887986Y505298D02*
X886986Y506298D01*
X884987D01*
X883987Y505298D01*
Y504299D01*
X884987Y503299D01*
X886986D01*
X887986Y502299D01*
Y501300D01*
X886986Y500300D01*
X884987D01*
X883987Y501300D01*
X893984Y500300D02*
X889985D01*
X893984Y504299D01*
Y505298D01*
X892984Y506298D01*
X890985D01*
X889985Y505298D01*
X877900Y683798D02*
Y677800D01*
Y680799D01*
X881899D01*
Y683798D01*
Y677800D01*
X887897Y682798D02*
X886897Y683798D01*
X884898D01*
X883898Y682798D01*
Y681799D01*
X884898Y680799D01*
X886897D01*
X887897Y679799D01*
Y678800D01*
X886897Y677800D01*
X884898D01*
X883898Y678800D01*
X889896Y682798D02*
X890896Y683798D01*
X892895D01*
X893895Y682798D01*
Y681799D01*
X892895Y680799D01*
X891895D01*
X892895D01*
X893895Y679799D01*
Y678800D01*
X892895Y677800D01*
X890896D01*
X889896Y678800D01*
X714501Y568001D02*
Y571999D01*
X713502Y572999D01*
X711502D01*
X710502Y571999D01*
Y568001D01*
X711502Y567001D01*
X713502D01*
X712502Y569000D02*
X714501Y567001D01*
X713502D02*
X714501Y568001D01*
X716501Y567001D02*
X718500D01*
X717500D01*
Y572999D01*
X716501Y571999D01*
X721499Y567001D02*
Y571000D01*
X723498Y572999D01*
X725498Y571000D01*
Y567001D01*
Y570000D01*
X721499D01*
X712001Y433501D02*
Y437499D01*
X711001Y438499D01*
X709002D01*
X708002Y437499D01*
Y433501D01*
X709002Y432501D01*
X711001D01*
X710002Y434500D02*
X712001Y432501D01*
X711001D02*
X712001Y433501D01*
X714001Y432501D02*
X716000D01*
X715000D01*
Y438499D01*
X714001Y437499D01*
X718999Y438499D02*
Y432501D01*
X721998D01*
X722998Y433501D01*
Y434500D01*
X721998Y435500D01*
X718999D01*
X721998D01*
X722998Y436500D01*
Y437499D01*
X721998Y438499D01*
X718999D01*
X715001Y299001D02*
Y302999D01*
X714002Y303999D01*
X712002D01*
X711002Y302999D01*
Y299001D01*
X712002Y298001D01*
X714002D01*
X713002Y300000D02*
X715001Y298001D01*
X714002D02*
X715001Y299001D01*
X717000Y298001D02*
X719000D01*
X718000D01*
Y303999D01*
X717000Y302999D01*
X725998D02*
X724998Y303999D01*
X722999D01*
X721999Y302999D01*
Y299001D01*
X722999Y298001D01*
X724998D01*
X725998Y299001D01*
X809700Y721599D02*
X808701Y722599D01*
X806701D01*
X805702Y721599D01*
Y717601D01*
X806701Y716601D01*
X808701D01*
X809700Y717601D01*
X811700Y722599D02*
X815698D01*
Y721599D01*
X811700Y717601D01*
Y716601D01*
X890691Y563999D02*
Y559001D01*
X891691Y558001D01*
X893690D01*
X894690Y559001D01*
Y563999D01*
X896690Y558001D02*
X898689D01*
X897689D01*
Y563999D01*
X896690Y562999D01*
X901688Y558001D02*
Y562000D01*
X903687Y563999D01*
X905687Y562000D01*
Y558001D01*
Y561000D01*
X901688D01*
X889691Y387499D02*
Y382501D01*
X890691Y381501D01*
X892690D01*
X893690Y382501D01*
Y387499D01*
X895689Y381501D02*
X897689D01*
X896689D01*
Y387499D01*
X895689Y386499D01*
X900688Y387499D02*
Y381501D01*
X903687D01*
X904687Y382501D01*
Y383500D01*
X903687Y384500D01*
X900688D01*
X903687D01*
X904687Y385500D01*
Y386499D01*
X903687Y387499D01*
X900688D01*
X890691Y207499D02*
Y202501D01*
X891691Y201501D01*
X893690D01*
X894690Y202501D01*
Y207499D01*
X896690Y201501D02*
X898689D01*
X897689D01*
Y207499D01*
X896690Y206499D01*
X905687D02*
X904687Y207499D01*
X902687D01*
X901688Y206499D01*
Y202501D01*
X902687Y201501D01*
X904687D01*
X905687Y202501D01*
X781501Y496503D02*
X786499D01*
X787499Y497502D01*
Y499502D01*
X786499Y500501D01*
X781501D01*
X787499Y506499D02*
Y502501D01*
X783500Y506499D01*
X782501D01*
X781501Y505500D01*
Y503500D01*
X782501Y502501D01*
X787499Y508499D02*
X783500D01*
X781501Y510498D01*
X783500Y512497D01*
X787499D01*
X784500D01*
Y508499D01*
X771877Y397943D02*
Y392945D01*
X772877Y391945D01*
X774876D01*
X775876Y392945D01*
Y397943D01*
X781874Y391945D02*
X777875D01*
X781874Y395944D01*
Y396943D01*
X780874Y397943D01*
X778875D01*
X777875Y396943D01*
X783873Y397943D02*
Y391945D01*
X786872D01*
X787872Y392945D01*
Y393944D01*
X786872Y394944D01*
X783873D01*
X786872D01*
X787872Y395944D01*
Y396943D01*
X786872Y397943D01*
X783873D01*
X777984Y236382D02*
Y231383D01*
X778984Y230383D01*
X780983D01*
X781983Y231383D01*
Y236382D01*
X787981Y230383D02*
X783983D01*
X787981Y234382D01*
Y235382D01*
X786981Y236382D01*
X784982D01*
X783983Y235382D01*
X793979D02*
X792980Y236382D01*
X790980D01*
X789981Y235382D01*
Y231383D01*
X790980Y230383D01*
X792980D01*
X793979Y231383D01*
X785007Y556001D02*
Y561999D01*
X788006D01*
X789006Y560999D01*
Y559000D01*
X788006Y558000D01*
X785007D01*
X787007D02*
X789006Y556001D01*
X791005D02*
X794004D01*
X795004Y557001D01*
X794004Y558000D01*
X792005D01*
X791005Y559000D01*
X792005Y560000D01*
X795004D01*
X800002Y556001D02*
X798003D01*
X797003Y557001D01*
Y559000D01*
X798003Y560000D01*
X800002D01*
X801002Y559000D01*
Y558000D01*
X797003D01*
X803001Y556001D02*
Y560000D01*
X806001D01*
X807000Y559000D01*
Y556001D01*
X809000D02*
X811998D01*
X812998Y557001D01*
X811998Y558000D01*
X809999D01*
X809000Y559000D01*
X809999Y560000D01*
X812998D01*
X817997Y556001D02*
X815997D01*
X814998Y557001D01*
Y559000D01*
X815997Y560000D01*
X817997D01*
X818996Y559000D01*
Y558000D01*
X814998D01*
X820996Y556001D02*
X822995D01*
X821995D01*
Y561999D01*
X820996Y560999D01*
X825994Y556001D02*
Y560000D01*
X827993Y561999D01*
X829993Y560000D01*
Y556001D01*
Y559000D01*
X825994D01*
X789007Y421001D02*
Y426999D01*
X792006D01*
X793006Y425999D01*
Y424000D01*
X792006Y423000D01*
X789007D01*
X791007D02*
X793006Y421001D01*
X795005D02*
X798004D01*
X799004Y422001D01*
X798004Y423000D01*
X796005D01*
X795005Y424000D01*
X796005Y425000D01*
X799004D01*
X804002Y421001D02*
X802003D01*
X801003Y422001D01*
Y424000D01*
X802003Y425000D01*
X804002D01*
X805002Y424000D01*
Y423000D01*
X801003D01*
X807001Y421001D02*
Y425000D01*
X810001D01*
X811000Y424000D01*
Y421001D01*
X813000D02*
X815998D01*
X816998Y422001D01*
X815998Y423000D01*
X813999D01*
X813000Y424000D01*
X813999Y425000D01*
X816998D01*
X821997Y421001D02*
X819997D01*
X818998Y422001D01*
Y424000D01*
X819997Y425000D01*
X821997D01*
X822996Y424000D01*
Y423000D01*
X818998D01*
X824996Y421001D02*
X826995D01*
X825995D01*
Y426999D01*
X824996Y425999D01*
X829994Y426999D02*
Y421001D01*
X832993D01*
X833993Y422001D01*
Y423000D01*
X832993Y424000D01*
X829994D01*
X832993D01*
X833993Y425000D01*
Y425999D01*
X832993Y426999D01*
X829994D01*
X802007Y287001D02*
Y292999D01*
X805006D01*
X806006Y291999D01*
Y290000D01*
X805006Y289000D01*
X802007D01*
X804007D02*
X806006Y287001D01*
X808005D02*
X811004D01*
X812004Y288001D01*
X811004Y289000D01*
X809005D01*
X808005Y290000D01*
X809005Y291000D01*
X812004D01*
X817002Y287001D02*
X815003D01*
X814003Y288001D01*
Y290000D01*
X815003Y291000D01*
X817002D01*
X818002Y290000D01*
Y289000D01*
X814003D01*
X820002Y287001D02*
Y291000D01*
X823001D01*
X824000Y290000D01*
Y287001D01*
X826000D02*
X828999D01*
X829998Y288001D01*
X828999Y289000D01*
X826999D01*
X826000Y290000D01*
X826999Y291000D01*
X829998D01*
X834997Y287001D02*
X832997D01*
X831998Y288001D01*
Y290000D01*
X832997Y291000D01*
X834997D01*
X835996Y290000D01*
Y289000D01*
X831998D01*
X837996Y287001D02*
X839995D01*
X838995D01*
Y292999D01*
X837996Y291999D01*
X846993D02*
X845993Y292999D01*
X843994D01*
X842994Y291999D01*
Y288001D01*
X843994Y287001D01*
X845993D01*
X846993Y288001D01*
X851097Y559499D02*
Y553501D01*
X855096D01*
X857095D02*
X859094D01*
X858095D01*
Y559499D01*
X857095Y558499D01*
X862093Y553501D02*
Y557500D01*
X864093Y559499D01*
X866092Y557500D01*
Y553501D01*
Y556500D01*
X862093D01*
X851202Y422999D02*
Y417001D01*
X855201D01*
X857201D02*
X859200D01*
X858200D01*
Y422999D01*
X857201Y421999D01*
X862199Y422999D02*
Y417001D01*
X865198D01*
X866198Y418001D01*
Y419000D01*
X865198Y420000D01*
X862199D01*
X865198D01*
X866198Y421000D01*
Y421999D01*
X865198Y422999D01*
X862199D01*
X857502Y284999D02*
Y279001D01*
X861501D01*
X863500D02*
X865500D01*
X864500D01*
Y284999D01*
X863500Y283999D01*
X872498D02*
X871498Y284999D01*
X869499D01*
X868499Y283999D01*
Y280001D01*
X869499Y279001D01*
X871498D01*
X872498Y280001D01*
X776299Y110298D02*
X775299Y111298D01*
X773300D01*
X772300Y110298D01*
Y106300D01*
X773300Y105300D01*
X775299D01*
X776299Y106300D01*
X781297Y111298D02*
X779298D01*
X778298Y110298D01*
Y106300D01*
X779298Y105300D01*
X781297D01*
X782297Y106300D01*
Y110298D01*
X781297Y111298D01*
X784296Y105300D02*
Y111298D01*
X788295Y105300D01*
Y111298D01*
X790294Y105300D02*
Y111298D01*
X794293Y105300D01*
Y111298D01*
X800291Y105300D02*
X796292D01*
X800291Y109299D01*
Y110298D01*
X799291Y111298D01*
X797292D01*
X796292Y110298D01*
X951000Y695599D02*
X949001D01*
X950000D01*
Y690601D01*
X949001Y689601D01*
X948001D01*
X947001Y690601D01*
X952999Y689601D02*
X954999D01*
X953999D01*
Y695599D01*
X952999Y694599D01*
X709503Y717499D02*
X708503Y718499D01*
X706504D01*
X705504Y717499D01*
Y713501D01*
X706504Y712501D01*
X708503D01*
X709503Y713501D01*
X714501Y718499D02*
X712502D01*
X711502Y717499D01*
Y713501D01*
X712502Y712501D01*
X714501D01*
X715501Y713501D01*
Y717499D01*
X714501Y718499D01*
X717500Y712501D02*
Y718499D01*
X721499Y712501D01*
Y718499D01*
X723498Y712501D02*
Y718499D01*
X727497Y712501D01*
Y718499D01*
X729496Y712501D02*
X731496D01*
X730496D01*
Y718499D01*
X729496Y717499D01*
D13*
X676500Y96094D02*
G03*
X676500Y96094I-1500J0D01*
G01*
X671000Y650999D02*
Y648000D01*
X672000Y647000D01*
X674999D01*
Y650999D01*
X676998Y652998D02*
X678997D01*
X677998D01*
Y647000D01*
X676998D01*
X678997D01*
X681996D02*
Y650999D01*
X684996D01*
X685995Y649999D01*
Y647000D01*
X687994Y650999D02*
X689994Y647000D01*
X691993Y650999D01*
X696992Y647000D02*
X694992D01*
X693993Y648000D01*
Y649999D01*
X694992Y650999D01*
X696992D01*
X697991Y649999D01*
Y648999D01*
X693993D01*
X699991Y650999D02*
Y647000D01*
Y648999D01*
X700990Y649999D01*
X701990Y650999D01*
X702990D01*
X706988Y651998D02*
Y650999D01*
X705989D01*
X707988D01*
X706988D01*
Y648000D01*
X707988Y647000D01*
X713986D02*
X711987D01*
X710987Y648000D01*
Y649999D01*
X711987Y650999D01*
X713986D01*
X714986Y649999D01*
Y648999D01*
X710987D01*
X716985Y650999D02*
Y647000D01*
Y648999D01*
X717985Y649999D01*
X718985Y650999D01*
X719984D01*
X666000Y473000D02*
Y480498D01*
X669749D01*
X670998Y479248D01*
Y476749D01*
X669749Y475499D01*
X666000D01*
X673498Y480498D02*
Y473000D01*
Y476749D01*
X674747Y477998D01*
X677246D01*
X678496Y476749D01*
Y473000D01*
X682245Y477998D02*
X684744D01*
X685993Y476749D01*
Y473000D01*
X682245D01*
X680995Y474250D01*
X682245Y475499D01*
X685993D01*
X688493Y473000D02*
X692241D01*
X693491Y474250D01*
X692241Y475499D01*
X689742D01*
X688493Y476749D01*
X689742Y477998D01*
X693491D01*
X699739Y473000D02*
X697240D01*
X695990Y474250D01*
Y476749D01*
X697240Y477998D01*
X699739D01*
X700989Y476749D01*
Y475499D01*
X695990D01*
X710986Y480498D02*
Y473000D01*
X714734D01*
X715984Y474250D01*
Y475499D01*
X714734Y476749D01*
X710986D01*
X714734D01*
X715984Y477998D01*
Y479248D01*
X714734Y480498D01*
X710986D01*
X666000Y325000D02*
Y332498D01*
X669749D01*
X670998Y331248D01*
Y328749D01*
X669749Y327499D01*
X666000D01*
X673498Y332498D02*
Y325000D01*
Y328749D01*
X674747Y329998D01*
X677246D01*
X678496Y328749D01*
Y325000D01*
X682245Y329998D02*
X684744D01*
X685993Y328749D01*
Y325000D01*
X682245D01*
X680995Y326250D01*
X682245Y327499D01*
X685993D01*
X688493Y325000D02*
X692241D01*
X693491Y326250D01*
X692241Y327499D01*
X689742D01*
X688493Y328749D01*
X689742Y329998D01*
X693491D01*
X699739Y325000D02*
X697240D01*
X695990Y326250D01*
Y328749D01*
X697240Y329998D01*
X699739D01*
X700989Y328749D01*
Y327499D01*
X695990D01*
X715984Y331248D02*
X714734Y332498D01*
X712235D01*
X710986Y331248D01*
Y326250D01*
X712235Y325000D01*
X714734D01*
X715984Y326250D01*
X666000Y591000D02*
Y598498D01*
X669749D01*
X670998Y597248D01*
Y594749D01*
X669749Y593499D01*
X666000D01*
X673498Y598498D02*
Y591000D01*
Y594749D01*
X674747Y595998D01*
X677246D01*
X678496Y594749D01*
Y591000D01*
X682245Y595998D02*
X684744D01*
X685993Y594749D01*
Y591000D01*
X682245D01*
X680995Y592250D01*
X682245Y593499D01*
X685993D01*
X688493Y591000D02*
X692241D01*
X693491Y592250D01*
X692241Y593499D01*
X689742D01*
X688493Y594749D01*
X689742Y595998D01*
X693491D01*
X699739Y591000D02*
X697240D01*
X695990Y592250D01*
Y594749D01*
X697240Y595998D01*
X699739D01*
X700989Y594749D01*
Y593499D01*
X695990D01*
X710986Y591000D02*
Y595998D01*
X713485Y598498D01*
X715984Y595998D01*
Y591000D01*
Y594749D01*
X710986D01*
D14*
X776968Y524905D02*
G03*
X776968Y524905I-394J0D01*
G01*
X778968Y387405D02*
G03*
X778968Y387405I-394J0D01*
G01*
X782469Y268905D02*
G03*
X782469Y268905I-394J0D01*
G01*
X726428Y184169D02*
Y184563D01*
X731743Y184169D02*
Y184563D01*
X716409Y184169D02*
Y184563D01*
X711095Y184169D02*
Y184563D01*
X757094Y184169D02*
Y184563D01*
X762409Y184169D02*
Y184563D01*
X747076Y184437D02*
Y184831D01*
X741761Y184437D02*
Y184831D01*
X796152Y274658D02*
X865837D01*
X796152Y206942D02*
Y214717D01*
Y266883D02*
Y274658D01*
Y206942D02*
X865837D01*
Y214717D01*
Y266883D02*
Y274658D01*
X863342Y406083D02*
Y413858D01*
Y346142D02*
Y353917D01*
X793657Y346142D02*
X863342D01*
X793657Y406083D02*
Y413858D01*
Y346142D02*
Y353917D01*
Y413858D02*
X863342D01*
X863937Y541083D02*
Y548858D01*
Y481142D02*
Y488917D01*
X794252Y481142D02*
X863937D01*
X794252Y541083D02*
Y548858D01*
Y481142D02*
Y488917D01*
Y548858D02*
X863937D01*
X725658Y504803D02*
Y505197D01*
X720342Y504803D02*
Y505197D01*
X717658Y367803D02*
Y368197D01*
X712343Y367803D02*
Y368197D01*
X720657Y237803D02*
Y238197D01*
X715343Y237803D02*
Y238197D01*
D15*
X935512Y703094D02*
G03*
X935512Y703094I-551J0D01*
G01*
D16*
X670000Y337500D02*
X850000D01*
X670000Y469000D02*
X850000Y469000D01*
X670000Y603000D02*
X850000Y603000D01*
X665000Y658000D02*
X741000D01*
Y612000D02*
Y658000D01*
X665000Y612000D02*
X741000D01*
X665000D02*
Y658000D01*
X746500Y649225D02*
Y654224D01*
X748999D01*
X749832Y653391D01*
Y651724D01*
X748999Y650891D01*
X746500D01*
X748166D02*
X749832Y649225D01*
X752331Y652558D02*
X753998D01*
X754831Y651724D01*
Y649225D01*
X752331D01*
X751498Y650058D01*
X752331Y650891D01*
X754831D01*
X757330Y653391D02*
Y652558D01*
X756497D01*
X758163D01*
X757330D01*
Y650058D01*
X758163Y649225D01*
X763161D02*
X761495D01*
X760662Y650058D01*
Y651724D01*
X761495Y652558D01*
X763161D01*
X763994Y651724D01*
Y650891D01*
X760662D01*
X768993Y654224D02*
Y649225D01*
X766494D01*
X765660Y650058D01*
Y651724D01*
X766494Y652558D01*
X768993D01*
X775657Y654224D02*
Y650891D01*
X777323Y649225D01*
X778990Y650891D01*
Y654224D01*
X780656D02*
Y649225D01*
X783155D01*
X783988Y650058D01*
Y653391D01*
X783155Y654224D01*
X780656D01*
X788986Y653391D02*
X788153Y654224D01*
X786487D01*
X785654Y653391D01*
Y650058D01*
X786487Y649225D01*
X788153D01*
X788986Y650058D01*
X790652Y650891D02*
X793985D01*
X790652Y652558D02*
X793985D01*
X800649Y649225D02*
X802315D01*
X801482D01*
Y654224D01*
X800649Y653391D01*
X808147Y649225D02*
X804814D01*
X808147Y652558D01*
Y653391D01*
X807314Y654224D01*
X805647D01*
X804814Y653391D01*
X809813Y654224D02*
Y650891D01*
X811479Y649225D01*
X813145Y650891D01*
Y654224D01*
X746500Y639627D02*
Y644626D01*
X748166Y642959D01*
X749832Y644626D01*
Y639627D01*
X752331Y642959D02*
X753998D01*
X754831Y642126D01*
Y639627D01*
X752331D01*
X751498Y640460D01*
X752331Y641293D01*
X754831D01*
X756497Y642959D02*
X759829Y639627D01*
X758163Y641293D01*
X759829Y642959D01*
X756497Y639627D01*
X766494Y642959D02*
Y639627D01*
Y641293D01*
X767327Y642126D01*
X768160Y642959D01*
X768993D01*
X772325D02*
X773991D01*
X774824Y642126D01*
Y639627D01*
X772325D01*
X771492Y640460D01*
X772325Y641293D01*
X774824D01*
X777323Y643793D02*
Y642959D01*
X776490D01*
X778156D01*
X777323D01*
Y640460D01*
X778156Y639627D01*
X780656D02*
X782322D01*
X781489D01*
Y642959D01*
X780656D01*
X784821Y639627D02*
Y642959D01*
X787320D01*
X788153Y642126D01*
Y639627D01*
X791485Y637961D02*
X792318D01*
X793152Y638794D01*
Y642959D01*
X790652D01*
X789819Y642126D01*
Y640460D01*
X790652Y639627D01*
X793152D01*
X794818D02*
X797317D01*
X798150Y640460D01*
X797317Y641293D01*
X795651D01*
X794818Y642126D01*
X795651Y642959D01*
X798150D01*
X799816D02*
X800649D01*
Y642126D01*
X799816D01*
Y642959D01*
Y640460D02*
X800649D01*
Y639627D01*
X799816D01*
Y640460D01*
X746500Y633361D02*
X749832D01*
X751498D02*
X754831D01*
X756497D02*
X759829D01*
X761495D02*
X764827D01*
X766494D02*
X769826D01*
X771492D02*
X774824D01*
X776490D02*
X779822D01*
X781489D02*
X784821D01*
X786487D02*
X789819D01*
X791485D02*
X794818D01*
X796484D02*
X799816D01*
X801482D02*
X804814D01*
X806481D02*
X809813D01*
X811479D02*
X814811D01*
X816477D02*
X819810D01*
X746500Y627763D02*
Y622764D01*
X748999D01*
X749832Y623597D01*
Y626930D01*
X748999Y627763D01*
X746500D01*
X754831Y626930D02*
X753998Y627763D01*
X752331D01*
X751498Y626930D01*
Y623597D01*
X752331Y622764D01*
X753998D01*
X754831Y623597D01*
X761495Y624430D02*
X764827D01*
X761495Y626096D02*
X764827D01*
X771492Y622764D02*
X773158D01*
X772325D01*
Y627763D01*
X771492Y626930D01*
X778990Y622764D02*
X775657D01*
X778990Y626096D01*
Y626930D01*
X778156Y627763D01*
X776490D01*
X775657Y626930D01*
X780656Y627763D02*
Y624430D01*
X782322Y622764D01*
X783988Y624430D01*
Y627763D01*
X785654Y625263D02*
X788986D01*
X790652Y626930D02*
X791485Y627763D01*
X793152D01*
X793985Y626930D01*
Y626096D01*
X793152Y625263D01*
X792318D01*
X793152D01*
X793985Y624430D01*
Y623597D01*
X793152Y622764D01*
X791485D01*
X790652Y623597D01*
X798983Y627763D02*
X797317Y626930D01*
X795651Y625263D01*
Y623597D01*
X796484Y622764D01*
X798150D01*
X798983Y623597D01*
Y624430D01*
X798150Y625263D01*
X795651D01*
X800649Y627763D02*
Y622764D01*
X802315Y624430D01*
X803981Y622764D01*
Y627763D01*
X746500Y613166D02*
Y616498D01*
X748166Y618164D01*
X749832Y616498D01*
Y613166D01*
Y615665D01*
X746500D01*
X754831Y617332D02*
X753998Y618164D01*
X752331D01*
X751498Y617332D01*
Y613999D01*
X752331Y613166D01*
X753998D01*
X754831Y613999D01*
X761495Y618164D02*
X763161D01*
X762328D01*
Y613166D01*
X761495D01*
X763161D01*
X765660Y612333D02*
X768993D01*
X770659Y611500D02*
Y616498D01*
X773158D01*
X773991Y615665D01*
Y613999D01*
X773158Y613166D01*
X770659D01*
X775657Y618164D02*
Y613166D01*
Y615665D01*
X776490Y616498D01*
X778156D01*
X778990Y615665D01*
Y613166D01*
X781489Y616498D02*
X783155D01*
X783988Y615665D01*
Y613166D01*
X781489D01*
X780656Y613999D01*
X781489Y614832D01*
X783988D01*
X785654Y613166D02*
X788153D01*
X788986Y613999D01*
X788153Y614832D01*
X786487D01*
X785654Y615665D01*
X786487Y616498D01*
X788986D01*
X793152Y613166D02*
X791485D01*
X790652Y613999D01*
Y615665D01*
X791485Y616498D01*
X793152D01*
X793985Y615665D01*
Y614832D01*
X790652D01*
X800649D02*
X803981D01*
X800649Y616498D02*
X803981D01*
X813145Y613166D02*
Y618164D01*
X810646Y615665D01*
X813978D01*
X815644Y613166D02*
Y616498D01*
X817310Y618164D01*
X818976Y616498D01*
Y613166D01*
Y615665D01*
X815644D01*
X820643Y616498D02*
Y613166D01*
Y614832D01*
X821476Y615665D01*
X822309Y616498D01*
X823142D01*
X825641Y613166D02*
Y616498D01*
X826474D01*
X827307Y615665D01*
Y613166D01*
Y615665D01*
X828140Y616498D01*
X828973Y615665D01*
Y613166D01*
X830639D02*
X833139D01*
X833972Y613999D01*
X833139Y614832D01*
X831472D01*
X830639Y615665D01*
X831472Y616498D01*
X833972D01*
D17*
X735284Y726315D02*
X770716D01*
Y669228D02*
Y726315D01*
X763630Y669228D02*
X770716D01*
X735284D02*
Y726315D01*
Y669228D02*
X742370D01*
X877189Y674500D02*
X977189D01*
X877189Y509500D02*
X977189D01*
X937689Y552000D02*
Y632000D01*
Y197000D02*
Y277000D01*
X877189Y154500D02*
X977189D01*
X877189Y319500D02*
X977189D01*
X877189Y497000D02*
X977189D01*
X877189Y332000D02*
X977189D01*
X937689Y374500D02*
Y454500D01*
X757559Y501323D02*
Y516677D01*
X777441Y501323D02*
Y516677D01*
X759559Y363823D02*
Y379177D01*
X779441Y363823D02*
Y379177D01*
X782941Y245323D02*
Y260677D01*
X763059Y245323D02*
Y260677D01*
X939685Y693252D02*
Y725929D01*
X900315D02*
X939685D01*
X900315Y693252D02*
Y725929D01*
Y693252D02*
X939685D01*
M02*
