G04*
G04 #@! TF.GenerationSoftware,Altium Limited,Altium Designer,22.2.1 (43)*
G04*
G04 Layer_Color=16711935*
%FSLAX25Y25*%
%MOIN*%
G70*
G04*
G04 #@! TF.SameCoordinates,550063A1-71E6-411B-B153-969BAF3FA875*
G04*
G04*
G04 #@! TF.FilePolarity,Positive*
G04*
G01*
G75*
%ADD14C,0.00787*%
G36*
X669900Y164794D02*
X759900D01*
Y28994D01*
X669900D01*
Y164794D01*
D02*
G37*
G36*
X935389Y269636D02*
Y203136D01*
X884189D01*
Y269636D01*
X935389D01*
D02*
G37*
G36*
Y447750D02*
Y381250D01*
X884189D01*
Y447750D01*
X935389D01*
D02*
G37*
G36*
Y624864D02*
Y558364D01*
X884189D01*
Y624864D01*
X935389D01*
D02*
G37*
G36*
X833557Y240465D02*
X831337D01*
Y239224D01*
X831038D01*
Y240800D01*
X833557D01*
Y240465D01*
D02*
G37*
G36*
X832934Y238714D02*
X832942Y238707D01*
X832946Y238692D01*
X832956Y238674D01*
X832967Y238652D01*
X832982Y238627D01*
X833018Y238565D01*
X833058Y238492D01*
X833109Y238420D01*
X833167Y238343D01*
X833229Y238267D01*
X833233Y238263D01*
X833237Y238259D01*
X833248Y238248D01*
X833259Y238234D01*
X833295Y238201D01*
X833339Y238157D01*
X833390Y238114D01*
X833448Y238066D01*
X833506Y238026D01*
X833568Y237990D01*
Y237790D01*
X831038D01*
Y238099D01*
X833007D01*
X833004Y238103D01*
X832989Y238121D01*
X832967Y238143D01*
X832942Y238179D01*
X832909Y238219D01*
X832873Y238270D01*
X832833Y238329D01*
X832793Y238394D01*
Y238398D01*
X832789Y238401D01*
X832774Y238423D01*
X832756Y238459D01*
X832734Y238503D01*
X832709Y238554D01*
X832683Y238609D01*
X832658Y238663D01*
X832636Y238718D01*
X832934D01*
Y238714D01*
D02*
G37*
G36*
X832381Y236964D02*
X832418D01*
X832454Y236960D01*
X832501Y236956D01*
X832549Y236949D01*
X832654Y236931D01*
X832771Y236905D01*
X832887Y236869D01*
X833000Y236818D01*
X833004Y236814D01*
X833015Y236811D01*
X833029Y236803D01*
X833047Y236789D01*
X833073Y236774D01*
X833102Y236756D01*
X833167Y236709D01*
X833240Y236647D01*
X833313Y236574D01*
X833386Y236490D01*
X833448Y236392D01*
X833451Y236388D01*
X833455Y236377D01*
X833462Y236363D01*
X833473Y236345D01*
X833484Y236316D01*
X833495Y236286D01*
X833510Y236250D01*
X833524Y236210D01*
X833539Y236166D01*
X833553Y236119D01*
X833575Y236017D01*
X833593Y235901D01*
X833601Y235781D01*
Y235744D01*
X833597Y235719D01*
X833593Y235686D01*
X833590Y235646D01*
X833586Y235606D01*
X833575Y235558D01*
X833553Y235460D01*
X833521Y235351D01*
X833499Y235296D01*
X833473Y235245D01*
X833440Y235194D01*
X833408Y235143D01*
X833404Y235140D01*
X833401Y235133D01*
X833390Y235118D01*
X833371Y235100D01*
X833353Y235082D01*
X833328Y235056D01*
X833299Y235031D01*
X833269Y235001D01*
X833233Y234972D01*
X833189Y234943D01*
X833146Y234910D01*
X833098Y234881D01*
X833044Y234856D01*
X832989Y234827D01*
X832931Y234805D01*
X832865Y234783D01*
X832789Y235111D01*
X832793D01*
X832800Y235114D01*
X832814Y235122D01*
X832833Y235129D01*
X832854Y235136D01*
X832884Y235147D01*
X832942Y235176D01*
X833007Y235213D01*
X833073Y235256D01*
X833135Y235311D01*
X833189Y235369D01*
X833197Y235376D01*
X833211Y235398D01*
X833229Y235435D01*
X833255Y235482D01*
X833277Y235544D01*
X833299Y235613D01*
X833313Y235697D01*
X833317Y235788D01*
Y235817D01*
X833313Y235835D01*
Y235861D01*
X833309Y235890D01*
X833299Y235959D01*
X833284Y236035D01*
X833259Y236115D01*
X833222Y236199D01*
X833175Y236276D01*
Y236279D01*
X833167Y236283D01*
X833149Y236308D01*
X833120Y236341D01*
X833076Y236381D01*
X833022Y236428D01*
X832960Y236472D01*
X832884Y236512D01*
X832800Y236548D01*
X832796D01*
X832789Y236552D01*
X832778Y236556D01*
X832760Y236559D01*
X832738Y236567D01*
X832712Y236574D01*
X832651Y236585D01*
X832578Y236599D01*
X832498Y236614D01*
X832410Y236621D01*
X832316Y236625D01*
X832312D01*
X832301D01*
X832283D01*
X832261D01*
X832236Y236621D01*
X832203D01*
X832166Y236618D01*
X832127Y236614D01*
X832039Y236603D01*
X831944Y236585D01*
X831850Y236563D01*
X831755Y236534D01*
X831752D01*
X831744Y236530D01*
X831733Y236523D01*
X831715Y236516D01*
X831672Y236494D01*
X831621Y236461D01*
X831562Y236421D01*
X831500Y236370D01*
X831446Y236312D01*
X831395Y236243D01*
Y236239D01*
X831391Y236232D01*
X831384Y236221D01*
X831377Y236206D01*
X831369Y236188D01*
X831358Y236166D01*
X831337Y236115D01*
X831315Y236050D01*
X831297Y235977D01*
X831282Y235897D01*
X831278Y235813D01*
Y235788D01*
X831282Y235766D01*
Y235740D01*
X831286Y235715D01*
X831300Y235649D01*
X831318Y235573D01*
X831347Y235497D01*
X831388Y235417D01*
X831409Y235376D01*
X831439Y235340D01*
X831442Y235336D01*
X831446Y235333D01*
X831457Y235322D01*
X831468Y235307D01*
X831486Y235293D01*
X831508Y235275D01*
X831530Y235253D01*
X831559Y235234D01*
X831591Y235213D01*
X831628Y235187D01*
X831664Y235165D01*
X831708Y235143D01*
X831755Y235125D01*
X831806Y235107D01*
X831861Y235089D01*
X831919Y235074D01*
X831835Y234739D01*
X831832D01*
X831817Y234743D01*
X831795Y234750D01*
X831766Y234761D01*
X831733Y234772D01*
X831693Y234787D01*
X831650Y234805D01*
X831602Y234827D01*
X831500Y234878D01*
X831398Y234943D01*
X831347Y234983D01*
X831297Y235023D01*
X831253Y235067D01*
X831209Y235118D01*
X831206Y235122D01*
X831198Y235129D01*
X831191Y235147D01*
X831176Y235165D01*
X831158Y235194D01*
X831140Y235224D01*
X831122Y235264D01*
X831104Y235304D01*
X831082Y235351D01*
X831064Y235402D01*
X831045Y235456D01*
X831027Y235515D01*
X831013Y235577D01*
X831005Y235642D01*
X830998Y235711D01*
X830994Y235784D01*
Y235824D01*
X830998Y235853D01*
Y235886D01*
X831002Y235926D01*
X831009Y235970D01*
X831016Y236021D01*
X831034Y236126D01*
X831064Y236235D01*
X831104Y236345D01*
X831129Y236396D01*
X831158Y236447D01*
X831162Y236450D01*
X831166Y236457D01*
X831176Y236472D01*
X831191Y236487D01*
X831206Y236508D01*
X831227Y236534D01*
X831253Y236563D01*
X831282Y236592D01*
X831315Y236621D01*
X831347Y236654D01*
X831431Y236720D01*
X831530Y236782D01*
X831639Y236836D01*
X831642D01*
X831653Y236843D01*
X831672Y236847D01*
X831693Y236858D01*
X831722Y236865D01*
X831759Y236876D01*
X831799Y236891D01*
X831843Y236902D01*
X831890Y236912D01*
X831944Y236927D01*
X832057Y236945D01*
X832185Y236960D01*
X832316Y236967D01*
X832319D01*
X832334D01*
X832356D01*
X832381Y236964D01*
D02*
G37*
G36*
X831019Y379665D02*
X828798D01*
Y378424D01*
X828500D01*
Y380000D01*
X831019D01*
Y379665D01*
D02*
G37*
G36*
X830396Y377914D02*
X830404Y377907D01*
X830407Y377892D01*
X830418Y377874D01*
X830429Y377852D01*
X830444Y377827D01*
X830480Y377765D01*
X830520Y377692D01*
X830571Y377620D01*
X830629Y377543D01*
X830691Y377467D01*
X830695Y377463D01*
X830698Y377459D01*
X830709Y377448D01*
X830720Y377434D01*
X830757Y377401D01*
X830800Y377357D01*
X830851Y377314D01*
X830910Y377266D01*
X830968Y377226D01*
X831030Y377190D01*
Y376990D01*
X828500D01*
Y377299D01*
X830469D01*
X830466Y377303D01*
X830451Y377321D01*
X830429Y377343D01*
X830404Y377379D01*
X830371Y377419D01*
X830334Y377470D01*
X830295Y377529D01*
X830254Y377594D01*
Y377598D01*
X830251Y377601D01*
X830236Y377623D01*
X830218Y377660D01*
X830196Y377703D01*
X830171Y377754D01*
X830145Y377809D01*
X830120Y377863D01*
X830098Y377918D01*
X830396D01*
Y377914D01*
D02*
G37*
G36*
X831019Y375093D02*
X831015Y375068D01*
Y375039D01*
X831008Y374973D01*
X831001Y374900D01*
X830986Y374824D01*
X830968Y374747D01*
X830942Y374678D01*
Y374675D01*
X830939Y374671D01*
X830928Y374649D01*
X830910Y374617D01*
X830884Y374580D01*
X830851Y374536D01*
X830811Y374489D01*
X830760Y374445D01*
X830706Y374405D01*
X830698Y374402D01*
X830677Y374391D01*
X830648Y374373D01*
X830604Y374354D01*
X830553Y374336D01*
X830498Y374318D01*
X830436Y374307D01*
X830375Y374303D01*
X830367D01*
X830349D01*
X830316Y374307D01*
X830276Y374314D01*
X830229Y374325D01*
X830178Y374343D01*
X830127Y374365D01*
X830072Y374394D01*
X830065Y374398D01*
X830051Y374409D01*
X830021Y374431D01*
X829992Y374460D01*
X829956Y374496D01*
X829916Y374540D01*
X829879Y374595D01*
X829843Y374657D01*
Y374653D01*
X829840Y374646D01*
X829836Y374635D01*
X829828Y374620D01*
X829814Y374576D01*
X829788Y374525D01*
X829756Y374471D01*
X829716Y374409D01*
X829668Y374354D01*
X829610Y374303D01*
X829603Y374300D01*
X829581Y374285D01*
X829548Y374263D01*
X829505Y374242D01*
X829446Y374220D01*
X829385Y374198D01*
X829312Y374183D01*
X829232Y374180D01*
X829228D01*
X829224D01*
X829202D01*
X829166Y374183D01*
X829122Y374191D01*
X829071Y374198D01*
X829017Y374212D01*
X828959Y374231D01*
X828900Y374256D01*
X828893Y374260D01*
X828875Y374271D01*
X828849Y374285D01*
X828813Y374307D01*
X828777Y374336D01*
X828736Y374365D01*
X828697Y374402D01*
X828664Y374442D01*
X828660Y374445D01*
X828649Y374460D01*
X828635Y374485D01*
X828620Y374518D01*
X828598Y374558D01*
X828576Y374605D01*
X828558Y374657D01*
X828540Y374718D01*
Y374726D01*
X828533Y374747D01*
X828529Y374784D01*
X828522Y374831D01*
X828514Y374889D01*
X828507Y374959D01*
X828504Y375035D01*
X828500Y375122D01*
Y376083D01*
X831019D01*
Y375093D01*
D02*
G37*
G36*
X831613Y514665D02*
X829393D01*
Y513424D01*
X829094D01*
Y515000D01*
X831613D01*
Y514665D01*
D02*
G37*
G36*
X830991Y512914D02*
X830998Y512907D01*
X831002Y512892D01*
X831013Y512874D01*
X831024Y512852D01*
X831038Y512827D01*
X831075Y512765D01*
X831115Y512692D01*
X831166Y512619D01*
X831224Y512543D01*
X831286Y512467D01*
X831289Y512463D01*
X831293Y512459D01*
X831304Y512448D01*
X831315Y512434D01*
X831351Y512401D01*
X831395Y512357D01*
X831446Y512314D01*
X831504Y512266D01*
X831562Y512226D01*
X831624Y512190D01*
Y511990D01*
X829094D01*
Y512299D01*
X831064D01*
X831060Y512303D01*
X831046Y512321D01*
X831024Y512343D01*
X830998Y512379D01*
X830965Y512419D01*
X830929Y512470D01*
X830889Y512529D01*
X830849Y512594D01*
Y512598D01*
X830845Y512601D01*
X830831Y512623D01*
X830812Y512660D01*
X830791Y512703D01*
X830765Y512754D01*
X830740Y512809D01*
X830714Y512863D01*
X830692Y512918D01*
X830991D01*
Y512914D01*
D02*
G37*
G36*
X831613Y510385D02*
Y510020D01*
X829094Y508990D01*
Y509369D01*
X829859Y509664D01*
Y510719D01*
X829094Y510992D01*
Y511345D01*
X831613Y510385D01*
D02*
G37*
%LPC*%
G36*
X830720Y375748D02*
X829963D01*
Y375130D01*
X829967Y375082D01*
X829970Y375031D01*
X829974Y374980D01*
X829981Y374929D01*
X829989Y374889D01*
X829992Y374882D01*
X829996Y374868D01*
X830007Y374846D01*
X830021Y374817D01*
X830036Y374788D01*
X830058Y374755D01*
X830087Y374722D01*
X830116Y374696D01*
X830120Y374693D01*
X830131Y374686D01*
X830153Y374675D01*
X830178Y374664D01*
X830207Y374653D01*
X830243Y374642D01*
X830287Y374635D01*
X830334Y374631D01*
X830342D01*
X830356D01*
X830378Y374635D01*
X830407Y374638D01*
X830444Y374646D01*
X830480Y374657D01*
X830517Y374671D01*
X830553Y374693D01*
X830557Y374696D01*
X830567Y374704D01*
X830586Y374718D01*
X830604Y374737D01*
X830626Y374762D01*
X830648Y374791D01*
X830669Y374828D01*
X830684Y374868D01*
Y374871D01*
X830691Y374889D01*
X830695Y374915D01*
X830702Y374955D01*
X830709Y375010D01*
X830713Y375072D01*
X830720Y375151D01*
Y375748D01*
D02*
G37*
G36*
X829665D02*
X828798D01*
Y375031D01*
X828802Y374955D01*
X828806Y374922D01*
X828809Y374893D01*
Y374889D01*
X828813Y374875D01*
X828817Y374853D01*
X828824Y374828D01*
X828846Y374766D01*
X828875Y374704D01*
X828878Y374700D01*
X828886Y374689D01*
X828897Y374675D01*
X828911Y374657D01*
X828933Y374638D01*
X828955Y374613D01*
X828984Y374595D01*
X829017Y374573D01*
X829021Y374569D01*
X829031Y374566D01*
X829053Y374558D01*
X829079Y374547D01*
X829108Y374536D01*
X829144Y374529D01*
X829188Y374525D01*
X829232Y374522D01*
X829239D01*
X829253D01*
X829283Y374525D01*
X829315Y374533D01*
X829352Y374540D01*
X829392Y374555D01*
X829432Y374573D01*
X829472Y374598D01*
X829475Y374602D01*
X829490Y374613D01*
X829508Y374627D01*
X829530Y374649D01*
X829556Y374678D01*
X829581Y374715D01*
X829603Y374755D01*
X829621Y374802D01*
X829625Y374809D01*
X829628Y374824D01*
X829636Y374857D01*
X829643Y374897D01*
X829650Y374948D01*
X829657Y375010D01*
X829665Y375086D01*
Y375748D01*
D02*
G37*
G36*
X830132Y510621D02*
Y509769D01*
X830823Y510031D01*
X830827D01*
X830838Y510035D01*
X830856Y510042D01*
X830878Y510050D01*
X830904Y510061D01*
X830936Y510072D01*
X830973Y510082D01*
X831009Y510097D01*
X831093Y510126D01*
X831180Y510155D01*
X831268Y510184D01*
X831351Y510210D01*
X831348D01*
X831340Y510213D01*
X831326D01*
X831311Y510221D01*
X831286Y510224D01*
X831260Y510232D01*
X831198Y510246D01*
X831126Y510264D01*
X831046Y510290D01*
X830958Y510315D01*
X830867Y510348D01*
X830132Y510621D01*
D02*
G37*
%LPD*%
D14*
X794183Y275052D02*
X867805D01*
X794183Y206548D02*
Y275052D01*
Y206548D02*
X867805D01*
Y275052D01*
X865311Y345748D02*
Y414252D01*
X791689Y345748D02*
X865311D01*
X791689D02*
Y414252D01*
X865311D01*
X865905Y480748D02*
Y549252D01*
X792283Y480748D02*
X865905D01*
X792283D02*
Y549252D01*
X865905D01*
M02*
