G04*
G04 #@! TF.GenerationSoftware,Altium Limited,Altium Designer,20.1.12 (249)*
G04*
G04 Layer_Color=65535*
%FSLAX25Y25*%
%MOIN*%
G70*
G04*
G04 #@! TF.SameCoordinates,69E86C78-A60B-413B-87A9-659EDA75703A*
G04*
G04*
G04 #@! TF.FilePolarity,Positive*
G04*
G01*
G75*
%ADD10C,0.02000*%
%ADD11C,0.02362*%
%ADD12C,0.00984*%
%ADD13C,0.01800*%
%ADD14C,0.01000*%
%ADD15C,0.01200*%
%ADD16C,0.00787*%
D10*
X371000Y403500D02*
G03*
X371000Y403500I-1000J0D01*
G01*
X418500Y433500D02*
G03*
X418500Y433500I-1000J0D01*
G01*
D11*
X404429Y193862D02*
G03*
X404429Y193862I-1181J0D01*
G01*
X415630Y363268D02*
G03*
X415630Y363268I-1181J0D01*
G01*
X587795Y197638D02*
G03*
X587795Y197638I-1181J0D01*
G01*
Y397638D02*
G03*
X587795Y397638I-1181J0D01*
G01*
D12*
X409992Y202500D02*
G03*
X409992Y202500I-492J0D01*
G01*
X419638Y244760D02*
G03*
X419638Y244760I-492J0D01*
G01*
X474291Y310650D02*
G03*
X474291Y310650I-492J0D01*
G01*
X424193Y359154D02*
G03*
X424193Y359154I-492J0D01*
G01*
X582146Y189272D02*
G03*
X582146Y189272I-492J0D01*
G01*
Y389272D02*
G03*
X582146Y389272I-492J0D01*
G01*
D13*
X415805Y237968D02*
G03*
X415805Y237968I-900J0D01*
G01*
D14*
X310512Y373484D02*
X370748D01*
Y251437D02*
Y373484D01*
X310512Y251437D02*
Y373484D01*
Y251437D02*
X370748D01*
X365128Y406981D02*
Y483023D01*
X390000Y406981D02*
Y483023D01*
X365128Y406981D02*
X390000D01*
X365128Y483023D02*
X390000D01*
X407500Y176500D02*
Y198500D01*
X367500Y176500D02*
Y198500D01*
Y176500D02*
X407500D01*
X367500Y198500D02*
X407500D01*
X397421Y482835D02*
X422167D01*
X397421Y437165D02*
X422167D01*
Y482835D01*
X397421Y437165D02*
Y482835D01*
X471800Y345900D02*
Y359000D01*
X453200Y346000D02*
Y358900D01*
X459100Y343700D02*
X465900D01*
X459100Y361300D02*
X465900D01*
X318501Y378833D02*
X317835Y379499D01*
X316502D01*
X315835Y378833D01*
Y376167D01*
X316502Y375501D01*
X317835D01*
X318501Y376167D01*
X321834Y379499D02*
X320501D01*
X319834Y378833D01*
Y376167D01*
X320501Y375501D01*
X321834D01*
X322500Y376167D01*
Y378833D01*
X321834Y379499D01*
X323833Y375501D02*
Y379499D01*
X326499Y375501D01*
Y379499D01*
X327832Y375501D02*
X329165D01*
X328498D01*
Y379499D01*
X327832Y378833D01*
X449834Y336333D02*
X449168Y336999D01*
X447835D01*
X447168Y336333D01*
Y333667D01*
X447835Y333001D01*
X449168D01*
X449834Y333667D01*
X451167Y336333D02*
X451834Y336999D01*
X453166D01*
X453833Y336333D01*
Y335666D01*
X453166Y335000D01*
X452500D01*
X453166D01*
X453833Y334334D01*
Y333667D01*
X453166Y333001D01*
X451834D01*
X451167Y333667D01*
X455166D02*
X455832Y333001D01*
X457165D01*
X457832Y333667D01*
Y336333D01*
X457165Y336999D01*
X455832D01*
X455166Y336333D01*
Y335666D01*
X455832Y335000D01*
X457832D01*
X352053Y385300D02*
Y389299D01*
X354053D01*
X354719Y388632D01*
Y387299D01*
X354053Y386633D01*
X352053D01*
X353386D02*
X354719Y385300D01*
X356052D02*
X357385D01*
X356719D01*
Y389299D01*
X356052Y388632D01*
X365600Y490552D02*
Y487220D01*
X366266Y486553D01*
X367599D01*
X368266Y487220D01*
Y490552D01*
X369599D02*
X372265D01*
Y489886D01*
X369599Y487220D01*
Y486553D01*
X396832Y220999D02*
Y217001D01*
X394833D01*
X394166Y217667D01*
Y219000D01*
X394833Y219666D01*
X396832D01*
X395499D02*
X394166Y220999D01*
X392833Y217667D02*
X392167Y217001D01*
X390834D01*
X390168Y217667D01*
Y218334D01*
X390834Y219000D01*
X391501D01*
X390834D01*
X390168Y219666D01*
Y220333D01*
X390834Y220999D01*
X392167D01*
X392833Y220333D01*
X363500Y216899D02*
X366166D01*
X364833D01*
Y212900D01*
X367499D02*
X368832D01*
X368165D01*
Y216899D01*
X367499Y216232D01*
X420501Y231668D02*
X423833D01*
X424499Y232334D01*
Y233667D01*
X423833Y234334D01*
X420501D01*
X424499Y238332D02*
Y235666D01*
X421834Y238332D01*
X421167D01*
X420501Y237666D01*
Y236333D01*
X421167Y235666D01*
X468667Y299834D02*
X468001Y299168D01*
Y297835D01*
X468667Y297168D01*
X471333D01*
X471999Y297835D01*
Y299168D01*
X471333Y299834D01*
X471999Y303166D02*
X468001D01*
X470000Y301167D01*
Y303833D01*
X468667Y305166D02*
X468001Y305832D01*
Y307165D01*
X468667Y307832D01*
X471333D01*
X471999Y307165D01*
Y305832D01*
X471333Y305166D01*
X468667D01*
X475002Y334499D02*
Y331167D01*
X475668Y330501D01*
X477001D01*
X477667Y331167D01*
Y334499D01*
X479000Y330501D02*
X480333D01*
X479667D01*
Y334499D01*
X479000Y333833D01*
X484998Y330501D02*
X482333D01*
X484998Y333166D01*
Y333833D01*
X484332Y334499D01*
X482999D01*
X482333Y333833D01*
X480501Y370332D02*
X484499D01*
Y368332D01*
X483833Y367666D01*
X482500D01*
X481834Y368332D01*
Y370332D01*
Y368999D02*
X480501Y367666D01*
X483833Y366333D02*
X484499Y365666D01*
Y364334D01*
X483833Y363667D01*
X483166D01*
X482500Y364334D01*
Y365000D01*
Y364334D01*
X481834Y363667D01*
X481167D01*
X480501Y364334D01*
Y365666D01*
X481167Y366333D01*
X483833Y362334D02*
X484499Y361668D01*
Y360335D01*
X483833Y359668D01*
X483166D01*
X482500Y360335D01*
X481834Y359668D01*
X481167D01*
X480501Y360335D01*
Y361668D01*
X481167Y362334D01*
X481834D01*
X482500Y361668D01*
X483166Y362334D01*
X483833D01*
X482500Y361668D02*
Y360335D01*
X498667Y309834D02*
X498001Y309168D01*
Y307835D01*
X498667Y307168D01*
X501333D01*
X501999Y307835D01*
Y309168D01*
X501333Y309834D01*
X498667Y311167D02*
X498001Y311834D01*
Y313166D01*
X498667Y313833D01*
X499333D01*
X500000Y313166D01*
Y312500D01*
Y313166D01*
X500666Y313833D01*
X501333D01*
X501999Y313166D01*
Y311834D01*
X501333Y311167D01*
X498001Y317832D02*
X498667Y316499D01*
X500000Y315166D01*
X501333D01*
X501999Y315832D01*
Y317165D01*
X501333Y317832D01*
X500666D01*
X500000Y317165D01*
Y315166D01*
X433666Y248167D02*
X434333Y247501D01*
X435666D01*
X436332Y248167D01*
Y250833D01*
X435666Y251499D01*
X434333D01*
X433666Y250833D01*
X432334Y248167D02*
X431667Y247501D01*
X430334D01*
X429668Y248167D01*
Y248834D01*
X430334Y249500D01*
X431001D01*
X430334D01*
X429668Y250166D01*
Y250833D01*
X430334Y251499D01*
X431667D01*
X432334Y250833D01*
X449834Y313833D02*
X449168Y314499D01*
X447835D01*
X447168Y313833D01*
Y311167D01*
X447835Y310501D01*
X449168D01*
X449834Y311167D01*
X451167Y313833D02*
X451834Y314499D01*
X453166D01*
X453833Y313833D01*
Y313166D01*
X453166Y312500D01*
X452500D01*
X453166D01*
X453833Y311834D01*
Y311167D01*
X453166Y310501D01*
X451834D01*
X451167Y311167D01*
X455166Y313833D02*
X455832Y314499D01*
X457165D01*
X457832Y313833D01*
Y313166D01*
X457165Y312500D01*
X457832Y311834D01*
Y311167D01*
X457165Y310501D01*
X455832D01*
X455166Y311167D01*
Y311834D01*
X455832Y312500D01*
X455166Y313166D01*
Y313833D01*
X455832Y312500D02*
X457165D01*
X397900Y490299D02*
Y486966D01*
X398566Y486300D01*
X399899D01*
X400566Y486966D01*
Y490299D01*
X401899Y486300D02*
X403232D01*
X402565D01*
Y490299D01*
X401899Y489632D01*
X405231D02*
X405897Y490299D01*
X407230D01*
X407897Y489632D01*
Y486966D01*
X407230Y486300D01*
X405897D01*
X405231Y486966D01*
Y489632D01*
X394834Y406999D02*
Y403667D01*
X395501Y403001D01*
X396834D01*
X397500Y403667D01*
Y406999D01*
X398833Y403001D02*
X400166D01*
X399499D01*
Y406999D01*
X398833Y406333D01*
X446167Y352500D02*
X445501Y351834D01*
Y350501D01*
X446167Y349834D01*
X446834D01*
X447500Y350501D01*
Y351834D01*
X448166Y352500D01*
X448833D01*
X449499Y351834D01*
Y350501D01*
X448833Y349834D01*
X449499Y353833D02*
Y355166D01*
Y354499D01*
X445501D01*
X446167Y353833D01*
X376167Y354334D02*
X375501Y353667D01*
Y352334D01*
X376167Y351668D01*
X378833D01*
X379499Y352334D01*
Y353667D01*
X378833Y354334D01*
X379499Y358332D02*
Y355666D01*
X376834Y358332D01*
X376167D01*
X375501Y357666D01*
Y356333D01*
X376167Y355666D01*
X428832Y212999D02*
Y209001D01*
X426833D01*
X426166Y209667D01*
Y211000D01*
X426833Y211666D01*
X428832D01*
X427499D02*
X426166Y212999D01*
X422168Y209001D02*
X424833D01*
Y211000D01*
X423501Y210334D01*
X422834D01*
X422168Y211000D01*
Y212333D01*
X422834Y212999D01*
X424167D01*
X424833Y212333D01*
X428832Y220999D02*
Y217001D01*
X426833D01*
X426166Y217667D01*
Y219000D01*
X426833Y219666D01*
X428832D01*
X427499D02*
X426166Y220999D01*
X422834D02*
Y217001D01*
X424833Y219000D01*
X422168D01*
X390666Y251167D02*
X391333Y250501D01*
X392666D01*
X393332Y251167D01*
Y253833D01*
X392666Y254499D01*
X391333D01*
X390666Y253833D01*
X387334Y254499D02*
Y250501D01*
X389334Y252500D01*
X386668D01*
X431167Y355000D02*
X430501Y354334D01*
Y353001D01*
X431167Y352334D01*
X433833D01*
X434499Y353001D01*
Y354334D01*
X433833Y355000D01*
X434499Y356333D02*
Y357666D01*
Y356999D01*
X430501D01*
X431167Y356333D01*
X493667Y309834D02*
X493001Y309168D01*
Y307835D01*
X493667Y307168D01*
X496333D01*
X496999Y307835D01*
Y309168D01*
X496333Y309834D01*
X493667Y311167D02*
X493001Y311834D01*
Y313166D01*
X493667Y313833D01*
X494334D01*
X495000Y313166D01*
Y312500D01*
Y313166D01*
X495666Y313833D01*
X496333D01*
X496999Y313166D01*
Y311834D01*
X496333Y311167D01*
X493001Y315166D02*
Y317832D01*
X493667D01*
X496333Y315166D01*
X496999D01*
X393332Y259499D02*
Y255501D01*
X391333D01*
X390666Y256167D01*
Y257500D01*
X391333Y258166D01*
X393332D01*
X391999D02*
X390666Y259499D01*
X386668D02*
X389334D01*
X386668Y256834D01*
Y256167D01*
X387334Y255501D01*
X388667D01*
X389334Y256167D01*
X388001Y301999D02*
X386668D01*
X387334D01*
Y298667D01*
X386668Y298001D01*
X386001D01*
X385335Y298667D01*
X389334Y298001D02*
Y301999D01*
X391333D01*
X391999Y301333D01*
Y300000D01*
X391333Y299334D01*
X389334D01*
X393332Y298001D02*
X394665D01*
X393999D01*
Y301999D01*
X393332Y301333D01*
X387334Y341999D02*
X386001D01*
X386668D01*
Y338667D01*
X386001Y338001D01*
X385335D01*
X384668Y338667D01*
X388667Y338001D02*
Y341999D01*
X390666D01*
X391333Y341333D01*
Y340000D01*
X390666Y339334D01*
X388667D01*
X392666Y341999D02*
X395332D01*
Y341333D01*
X392666Y338667D01*
Y338001D01*
X387334Y281999D02*
X386001D01*
X386668D01*
Y278667D01*
X386001Y278001D01*
X385335D01*
X384668Y278667D01*
X388667Y278001D02*
Y281999D01*
X390666D01*
X391333Y281333D01*
Y280000D01*
X390666Y279334D01*
X388667D01*
X392666Y281333D02*
X393332Y281999D01*
X394665D01*
X395332Y281333D01*
Y280666D01*
X394665Y280000D01*
X393999D01*
X394665D01*
X395332Y279334D01*
Y278667D01*
X394665Y278001D01*
X393332D01*
X392666Y278667D01*
X387334Y321999D02*
X386001D01*
X386668D01*
Y318667D01*
X386001Y318001D01*
X385335D01*
X384668Y318667D01*
X388667Y318001D02*
Y321999D01*
X390666D01*
X391333Y321333D01*
Y320000D01*
X390666Y319334D01*
X388667D01*
X395332Y321999D02*
X392666D01*
Y320000D01*
X393999Y320666D01*
X394665D01*
X395332Y320000D01*
Y318667D01*
X394665Y318001D01*
X393332D01*
X392666Y318667D01*
X387334Y311999D02*
X386001D01*
X386668D01*
Y308667D01*
X386001Y308001D01*
X385335D01*
X384668Y308667D01*
X388667Y308001D02*
Y311999D01*
X390666D01*
X391333Y311333D01*
Y310000D01*
X390666Y309334D01*
X388667D01*
X394665Y308001D02*
Y311999D01*
X392666Y310000D01*
X395332D01*
X387334Y351999D02*
X386001D01*
X386668D01*
Y348667D01*
X386001Y348001D01*
X385335D01*
X384668Y348667D01*
X388667Y348001D02*
Y351999D01*
X390666D01*
X391333Y351333D01*
Y350000D01*
X390666Y349334D01*
X388667D01*
X392666Y351333D02*
X393332Y351999D01*
X394665D01*
X395332Y351333D01*
Y350666D01*
X394665Y350000D01*
X395332Y349334D01*
Y348667D01*
X394665Y348001D01*
X393332D01*
X392666Y348667D01*
Y349334D01*
X393332Y350000D01*
X392666Y350666D01*
Y351333D01*
X393332Y350000D02*
X394665D01*
X387334Y331999D02*
X386001D01*
X386668D01*
Y328667D01*
X386001Y328001D01*
X385335D01*
X384668Y328667D01*
X388667Y328001D02*
Y331999D01*
X390666D01*
X391333Y331333D01*
Y330000D01*
X390666Y329334D01*
X388667D01*
X395332Y331999D02*
X393999Y331333D01*
X392666Y330000D01*
Y328667D01*
X393332Y328001D01*
X394665D01*
X395332Y328667D01*
Y329334D01*
X394665Y330000D01*
X392666D01*
X344668Y478001D02*
Y481999D01*
X346001Y480666D01*
X347334Y481999D01*
Y478001D01*
X348667Y481999D02*
Y478001D01*
Y480000D01*
X351333D01*
Y481999D01*
Y478001D01*
X355332D02*
X352666D01*
X355332Y480666D01*
Y481333D01*
X354665Y481999D01*
X353332D01*
X352666Y481333D01*
X387334Y291999D02*
X386001D01*
X386668D01*
Y288667D01*
X386001Y288001D01*
X385335D01*
X384668Y288667D01*
X388667Y288001D02*
Y291999D01*
X390666D01*
X391333Y291333D01*
Y290000D01*
X390666Y289334D01*
X388667D01*
X395332Y288001D02*
X392666D01*
X395332Y290666D01*
Y291333D01*
X394665Y291999D01*
X393332D01*
X392666Y291333D01*
X581700Y421699D02*
Y418366D01*
X582366Y417700D01*
X583699D01*
X584366Y418366D01*
Y421699D01*
X587698Y417700D02*
Y421699D01*
X585699Y419699D01*
X588365D01*
X574168Y201999D02*
Y198667D01*
X574834Y198001D01*
X576167D01*
X576834Y198667D01*
Y201999D01*
X578166Y201333D02*
X578833Y201999D01*
X580166D01*
X580832Y201333D01*
Y200666D01*
X580166Y200000D01*
X579499D01*
X580166D01*
X580832Y199334D01*
Y198667D01*
X580166Y198001D01*
X578833D01*
X578166Y198667D01*
X619668Y408001D02*
Y411999D01*
X621668D01*
X622334Y411333D01*
Y410000D01*
X621668Y409334D01*
X619668D01*
X621001D02*
X622334Y408001D01*
X623667Y411333D02*
X624334Y411999D01*
X625666D01*
X626333Y411333D01*
Y410666D01*
X625666Y410000D01*
X625000D01*
X625666D01*
X626333Y409334D01*
Y408667D01*
X625666Y408001D01*
X624334D01*
X623667Y408667D01*
X627666Y411999D02*
X630332D01*
Y411333D01*
X627666Y408667D01*
Y408001D01*
X632168Y423001D02*
Y426999D01*
X634168D01*
X634834Y426333D01*
Y425000D01*
X634168Y424334D01*
X632168D01*
X633501D02*
X634834Y423001D01*
X636167Y426333D02*
X636834Y426999D01*
X638166D01*
X638833Y426333D01*
Y425666D01*
X638166Y425000D01*
X637500D01*
X638166D01*
X638833Y424334D01*
Y423667D01*
X638166Y423001D01*
X636834D01*
X636167Y423667D01*
X642832Y426999D02*
X641499Y426333D01*
X640166Y425000D01*
Y423667D01*
X640832Y423001D01*
X642165D01*
X642832Y423667D01*
Y424334D01*
X642165Y425000D01*
X640166D01*
X619668Y208001D02*
Y211999D01*
X621668D01*
X622334Y211333D01*
Y210000D01*
X621668Y209334D01*
X619668D01*
X621001D02*
X622334Y208001D01*
X623667Y211333D02*
X624334Y211999D01*
X625666D01*
X626333Y211333D01*
Y210666D01*
X625666Y210000D01*
X625000D01*
X625666D01*
X626333Y209334D01*
Y208667D01*
X625666Y208001D01*
X624334D01*
X623667Y208667D01*
X630332Y211999D02*
X627666D01*
Y210000D01*
X628999Y210666D01*
X629665D01*
X630332Y210000D01*
Y208667D01*
X629665Y208001D01*
X628332D01*
X627666Y208667D01*
X632168Y223001D02*
Y226999D01*
X634168D01*
X634834Y226333D01*
Y225000D01*
X634168Y224334D01*
X632168D01*
X633501D02*
X634834Y223001D01*
X636167Y226333D02*
X636834Y226999D01*
X638166D01*
X638833Y226333D01*
Y225666D01*
X638166Y225000D01*
X637500D01*
X638166D01*
X638833Y224334D01*
Y223667D01*
X638166Y223001D01*
X636834D01*
X636167Y223667D01*
X642165Y223001D02*
Y226999D01*
X640166Y225000D01*
X642832D01*
X632168Y408001D02*
Y411999D01*
X634168D01*
X634834Y411333D01*
Y410000D01*
X634168Y409334D01*
X632168D01*
X633501D02*
X634834Y408001D01*
X636167Y411333D02*
X636834Y411999D01*
X638166D01*
X638833Y411333D01*
Y410666D01*
X638166Y410000D01*
X637500D01*
X638166D01*
X638833Y409334D01*
Y408667D01*
X638166Y408001D01*
X636834D01*
X636167Y408667D01*
X642832Y408001D02*
X640166D01*
X642832Y410666D01*
Y411333D01*
X642165Y411999D01*
X640832D01*
X640166Y411333D01*
X632168Y208001D02*
Y211999D01*
X634168D01*
X634834Y211333D01*
Y210000D01*
X634168Y209334D01*
X632168D01*
X633501D02*
X634834Y208001D01*
X636167Y211333D02*
X636834Y211999D01*
X638166D01*
X638833Y211333D01*
Y210666D01*
X638166Y210000D01*
X637500D01*
X638166D01*
X638833Y209334D01*
Y208667D01*
X638166Y208001D01*
X636834D01*
X636167Y208667D01*
X640166Y211333D02*
X640832Y211999D01*
X642165D01*
X642832Y211333D01*
Y208667D01*
X642165Y208001D01*
X640832D01*
X640166Y208667D01*
Y211333D01*
X569668Y408001D02*
Y411999D01*
X571668D01*
X572334Y411333D01*
Y410000D01*
X571668Y409334D01*
X569668D01*
X571001D02*
X572334Y408001D01*
X576333D02*
X573667D01*
X576333Y410666D01*
Y411333D01*
X575666Y411999D01*
X574334D01*
X573667Y411333D01*
X577666Y408667D02*
X578332Y408001D01*
X579665D01*
X580332Y408667D01*
Y411333D01*
X579665Y411999D01*
X578332D01*
X577666Y411333D01*
Y410666D01*
X578332Y410000D01*
X580332D01*
X557168Y423001D02*
Y426999D01*
X559168D01*
X559834Y426333D01*
Y425000D01*
X559168Y424334D01*
X557168D01*
X558501D02*
X559834Y423001D01*
X563833D02*
X561167D01*
X563833Y425666D01*
Y426333D01*
X563166Y426999D01*
X561834D01*
X561167Y426333D01*
X565166D02*
X565832Y426999D01*
X567165D01*
X567832Y426333D01*
Y425666D01*
X567165Y425000D01*
X567832Y424334D01*
Y423667D01*
X567165Y423001D01*
X565832D01*
X565166Y423667D01*
Y424334D01*
X565832Y425000D01*
X565166Y425666D01*
Y426333D01*
X565832Y425000D02*
X567165D01*
X569668Y208001D02*
Y211999D01*
X571668D01*
X572334Y211333D01*
Y210000D01*
X571668Y209334D01*
X569668D01*
X571001D02*
X572334Y208001D01*
X576333D02*
X573667D01*
X576333Y210666D01*
Y211333D01*
X575666Y211999D01*
X574334D01*
X573667Y211333D01*
X577666Y211999D02*
X580332D01*
Y211333D01*
X577666Y208667D01*
Y208001D01*
X557168Y223001D02*
Y226999D01*
X559168D01*
X559834Y226333D01*
Y225000D01*
X559168Y224334D01*
X557168D01*
X558501D02*
X559834Y223001D01*
X563833D02*
X561167D01*
X563833Y225666D01*
Y226333D01*
X563166Y226999D01*
X561834D01*
X561167Y226333D01*
X567832Y226999D02*
X566499Y226333D01*
X565166Y225000D01*
Y223667D01*
X565832Y223001D01*
X567165D01*
X567832Y223667D01*
Y224334D01*
X567165Y225000D01*
X565166D01*
X557168Y408001D02*
Y411999D01*
X559168D01*
X559834Y411333D01*
Y410000D01*
X559168Y409334D01*
X557168D01*
X558501D02*
X559834Y408001D01*
X563833D02*
X561167D01*
X563833Y410666D01*
Y411333D01*
X563166Y411999D01*
X561834D01*
X561167Y411333D01*
X567165Y408001D02*
Y411999D01*
X565166Y410000D01*
X567832D01*
X557168Y208001D02*
Y211999D01*
X559168D01*
X559834Y211333D01*
Y210000D01*
X559168Y209334D01*
X557168D01*
X558501D02*
X559834Y208001D01*
X563833D02*
X561167D01*
X563833Y210666D01*
Y211333D01*
X563166Y211999D01*
X561834D01*
X561167Y211333D01*
X567832Y208001D02*
X565166D01*
X567832Y210666D01*
Y211333D01*
X567165Y211999D01*
X565832D01*
X565166Y211333D01*
X620335Y388001D02*
Y391999D01*
X622334D01*
X623001Y391333D01*
Y390000D01*
X622334Y389334D01*
X620335D01*
X621668D02*
X623001Y388001D01*
X626999D02*
X624334D01*
X626999Y390666D01*
Y391333D01*
X626333Y391999D01*
X625000D01*
X624334Y391333D01*
X628332Y388001D02*
X629665D01*
X628999D01*
Y391999D01*
X628332Y391333D01*
X632168Y373001D02*
Y376999D01*
X634168D01*
X634834Y376333D01*
Y375000D01*
X634168Y374334D01*
X632168D01*
X633501D02*
X634834Y373001D01*
X638833D02*
X636167D01*
X638833Y375666D01*
Y376333D01*
X638166Y376999D01*
X636834D01*
X636167Y376333D01*
X640166D02*
X640832Y376999D01*
X642165D01*
X642832Y376333D01*
Y373667D01*
X642165Y373001D01*
X640832D01*
X640166Y373667D01*
Y376333D01*
X620002Y188001D02*
Y191999D01*
X622001D01*
X622667Y191333D01*
Y190000D01*
X622001Y189333D01*
X620002D01*
X621335D02*
X622667Y188001D01*
X624000D02*
X625333D01*
X624667D01*
Y191999D01*
X624000Y191333D01*
X627333Y188667D02*
X627999Y188001D01*
X629332D01*
X629998Y188667D01*
Y191333D01*
X629332Y191999D01*
X627999D01*
X627333Y191333D01*
Y190666D01*
X627999Y190000D01*
X629998D01*
X632502Y173001D02*
Y176999D01*
X634501D01*
X635167Y176333D01*
Y175000D01*
X634501Y174334D01*
X632502D01*
X633835D02*
X635167Y173001D01*
X636500D02*
X637833D01*
X637167D01*
Y176999D01*
X636500Y176333D01*
X639833D02*
X640499Y176999D01*
X641832D01*
X642498Y176333D01*
Y175666D01*
X641832Y175000D01*
X642498Y174334D01*
Y173667D01*
X641832Y173001D01*
X640499D01*
X639833Y173667D01*
Y174334D01*
X640499Y175000D01*
X639833Y175666D01*
Y176333D01*
X640499Y175000D02*
X641832D01*
X632502Y388001D02*
Y391999D01*
X634501D01*
X635167Y391333D01*
Y390000D01*
X634501Y389334D01*
X632502D01*
X633835D02*
X635167Y388001D01*
X636500D02*
X637833D01*
X637167D01*
Y391999D01*
X636500Y391333D01*
X642498Y391999D02*
X641165Y391333D01*
X639833Y390000D01*
Y388667D01*
X640499Y388001D01*
X641832D01*
X642498Y388667D01*
Y389334D01*
X641832Y390000D01*
X639833D01*
X632502Y188001D02*
Y191999D01*
X634501D01*
X635167Y191333D01*
Y190000D01*
X634501Y189333D01*
X632502D01*
X633835D02*
X635167Y188001D01*
X636500D02*
X637833D01*
X637167D01*
Y191999D01*
X636500Y191333D01*
X641832Y188001D02*
Y191999D01*
X639833Y190000D01*
X642498D01*
X570002Y388001D02*
Y391999D01*
X572001D01*
X572667Y391333D01*
Y390000D01*
X572001Y389334D01*
X570002D01*
X571335D02*
X572667Y388001D01*
X574000D02*
X575333D01*
X574667D01*
Y391999D01*
X574000Y391333D01*
X577333D02*
X577999Y391999D01*
X579332D01*
X579998Y391333D01*
Y390666D01*
X579332Y390000D01*
X578665D01*
X579332D01*
X579998Y389334D01*
Y388667D01*
X579332Y388001D01*
X577999D01*
X577333Y388667D01*
X557502Y373001D02*
Y376999D01*
X559501D01*
X560167Y376333D01*
Y375000D01*
X559501Y374334D01*
X557502D01*
X558835D02*
X560167Y373001D01*
X561500D02*
X562833D01*
X562167D01*
Y376999D01*
X561500Y376333D01*
X567498Y373001D02*
X564833D01*
X567498Y375666D01*
Y376333D01*
X566832Y376999D01*
X565499D01*
X564833Y376333D01*
X570668Y188001D02*
Y191999D01*
X572667D01*
X573334Y191333D01*
Y190000D01*
X572667Y189333D01*
X570668D01*
X572001D02*
X573334Y188001D01*
X574667D02*
X576000D01*
X575333D01*
Y191999D01*
X574667Y191333D01*
X577999Y188001D02*
X579332D01*
X578665D01*
Y191999D01*
X577999Y191333D01*
X557502Y173001D02*
Y176999D01*
X559501D01*
X560167Y176333D01*
Y175000D01*
X559501Y174334D01*
X557502D01*
X558835D02*
X560167Y173001D01*
X561500D02*
X562833D01*
X562167D01*
Y176999D01*
X561500Y176333D01*
X564833D02*
X565499Y176999D01*
X566832D01*
X567498Y176333D01*
Y173667D01*
X566832Y173001D01*
X565499D01*
X564833Y173667D01*
Y176333D01*
X559168Y388001D02*
Y391999D01*
X561167D01*
X561834Y391333D01*
Y390000D01*
X561167Y389334D01*
X559168D01*
X560501D02*
X561834Y388001D01*
X563167Y391333D02*
X563833Y391999D01*
X565166D01*
X565832Y391333D01*
Y390666D01*
X565166Y390000D01*
X565832Y389334D01*
Y388667D01*
X565166Y388001D01*
X563833D01*
X563167Y388667D01*
Y389334D01*
X563833Y390000D01*
X563167Y390666D01*
Y391333D01*
X563833Y390000D02*
X565166D01*
X559168Y188001D02*
Y191999D01*
X561167D01*
X561834Y191333D01*
Y190000D01*
X561167Y189333D01*
X559168D01*
X560501D02*
X561834Y188001D01*
X565832Y191999D02*
X564499Y191333D01*
X563167Y190000D01*
Y188667D01*
X563833Y188001D01*
X565166D01*
X565832Y188667D01*
Y189333D01*
X565166Y190000D01*
X563167D01*
X654668Y478001D02*
Y481999D01*
X656001Y480666D01*
X657334Y481999D01*
Y478001D01*
X658667Y481999D02*
Y478001D01*
Y480000D01*
X661333D01*
Y481999D01*
Y478001D01*
X664665D02*
Y481999D01*
X662666Y480000D01*
X665332D01*
X654668Y118001D02*
Y121999D01*
X656001Y120667D01*
X657334Y121999D01*
Y118001D01*
X658667Y121999D02*
Y118001D01*
Y120000D01*
X661333D01*
Y121999D01*
Y118001D01*
X662666Y121333D02*
X663332Y121999D01*
X664665D01*
X665332Y121333D01*
Y120667D01*
X664665Y120000D01*
X663999D01*
X664665D01*
X665332Y119334D01*
Y118667D01*
X664665Y118001D01*
X663332D01*
X662666Y118667D01*
X345335Y118001D02*
Y121999D01*
X346668Y120667D01*
X348001Y121999D01*
Y118001D01*
X349334Y121999D02*
Y118001D01*
Y120000D01*
X351999D01*
Y121999D01*
Y118001D01*
X353332D02*
X354665D01*
X353999D01*
Y121999D01*
X353332Y121333D01*
X649334Y476999D02*
X648001D01*
X648667D01*
Y473667D01*
X648001Y473001D01*
X647334D01*
X646668Y473667D01*
X650667Y476333D02*
X651333Y476999D01*
X652666D01*
X653332Y476333D01*
Y475666D01*
X652666Y475000D01*
X653332Y474334D01*
Y473667D01*
X652666Y473001D01*
X651333D01*
X650667Y473667D01*
Y474334D01*
X651333Y475000D01*
X650667Y475666D01*
Y476333D01*
X651333Y475000D02*
X652666D01*
X549334Y476999D02*
X548001D01*
X548667D01*
Y473667D01*
X548001Y473001D01*
X547334D01*
X546668Y473667D01*
X550667Y476999D02*
X553332D01*
Y476333D01*
X550667Y473667D01*
Y473001D01*
X649334Y376999D02*
X648001D01*
X648667D01*
Y373667D01*
X648001Y373001D01*
X647334D01*
X646668Y373667D01*
X653332Y376999D02*
X651999Y376333D01*
X650667Y375000D01*
Y373667D01*
X651333Y373001D01*
X652666D01*
X653332Y373667D01*
Y374334D01*
X652666Y375000D01*
X650667D01*
X549334Y376999D02*
X548001D01*
X548667D01*
Y373667D01*
X548001Y373001D01*
X547334D01*
X546668Y373667D01*
X553332Y376999D02*
X550667D01*
Y375000D01*
X551999Y375666D01*
X552666D01*
X553332Y375000D01*
Y373667D01*
X552666Y373001D01*
X551333D01*
X550667Y373667D01*
X649334Y276999D02*
X648001D01*
X648667D01*
Y273667D01*
X648001Y273001D01*
X647334D01*
X646668Y273667D01*
X652666Y273001D02*
Y276999D01*
X650667Y275000D01*
X653332D01*
X549334Y276999D02*
X548001D01*
X548667D01*
Y273667D01*
X548001Y273001D01*
X547334D01*
X546668Y273667D01*
X550667Y276333D02*
X551333Y276999D01*
X552666D01*
X553332Y276333D01*
Y275666D01*
X552666Y275000D01*
X551999D01*
X552666D01*
X553332Y274334D01*
Y273667D01*
X552666Y273001D01*
X551333D01*
X550667Y273667D01*
X649334Y176999D02*
X648001D01*
X648667D01*
Y173667D01*
X648001Y173001D01*
X647334D01*
X646668Y173667D01*
X653332Y173001D02*
X650667D01*
X653332Y175666D01*
Y176333D01*
X652666Y176999D01*
X651333D01*
X650667Y176333D01*
X550000Y176999D02*
X548667D01*
X549334D01*
Y173667D01*
X548667Y173001D01*
X548001D01*
X547334Y173667D01*
X551333Y173001D02*
X552666D01*
X551999D01*
Y176999D01*
X551333Y176333D01*
X647667Y411333D02*
X647001Y411999D01*
X645668D01*
X645002Y411333D01*
Y408667D01*
X645668Y408001D01*
X647001D01*
X647667Y408667D01*
X649000Y408001D02*
X650333D01*
X649667D01*
Y411999D01*
X649000Y411333D01*
X652333Y408667D02*
X652999Y408001D01*
X654332D01*
X654998Y408667D01*
Y411333D01*
X654332Y411999D01*
X652999D01*
X652333Y411333D01*
Y410666D01*
X652999Y410000D01*
X654998D01*
X647667Y211333D02*
X647001Y211999D01*
X645668D01*
X645002Y211333D01*
Y208667D01*
X645668Y208001D01*
X647001D01*
X647667Y208667D01*
X649000Y208001D02*
X650333D01*
X649667D01*
Y211999D01*
X649000Y211333D01*
X652333Y211999D02*
X654998D01*
Y211333D01*
X652333Y208667D01*
Y208001D01*
X547667Y411333D02*
X547001Y411999D01*
X545668D01*
X545002Y411333D01*
Y408667D01*
X545668Y408001D01*
X547001D01*
X547667Y408667D01*
X549000Y408001D02*
X550333D01*
X549667D01*
Y411999D01*
X549000Y411333D01*
X554998Y411999D02*
X552333D01*
Y410000D01*
X553665Y410666D01*
X554332D01*
X554998Y410000D01*
Y408667D01*
X554332Y408001D01*
X552999D01*
X552333Y408667D01*
X547667Y211333D02*
X547001Y211999D01*
X545668D01*
X545002Y211333D01*
Y208667D01*
X545668Y208001D01*
X547001D01*
X547667Y208667D01*
X549000Y208001D02*
X550333D01*
X549667D01*
Y211999D01*
X549000Y211333D01*
X552333D02*
X552999Y211999D01*
X554332D01*
X554998Y211333D01*
Y210666D01*
X554332Y210000D01*
X553665D01*
X554332D01*
X554998Y209334D01*
Y208667D01*
X554332Y208001D01*
X552999D01*
X552333Y208667D01*
X648334Y391333D02*
X647667Y391999D01*
X646335D01*
X645668Y391333D01*
Y388667D01*
X646335Y388001D01*
X647667D01*
X648334Y388667D01*
X649667Y388001D02*
X651000D01*
X650333D01*
Y391999D01*
X649667Y391333D01*
X652999Y388001D02*
X654332D01*
X653665D01*
Y391999D01*
X652999Y391333D01*
X649334Y191333D02*
X648667Y191999D01*
X647334D01*
X646668Y191333D01*
Y188667D01*
X647334Y188001D01*
X648667D01*
X649334Y188667D01*
X650667D02*
X651333Y188001D01*
X652666D01*
X653332Y188667D01*
Y191333D01*
X652666Y191999D01*
X651333D01*
X650667Y191333D01*
Y190666D01*
X651333Y190000D01*
X653332D01*
X549334Y391333D02*
X548667Y391999D01*
X547334D01*
X546668Y391333D01*
Y388667D01*
X547334Y388001D01*
X548667D01*
X549334Y388667D01*
X550667Y391999D02*
X553332D01*
Y391333D01*
X550667Y388667D01*
Y388001D01*
X549334Y191333D02*
X548667Y191999D01*
X547334D01*
X546668Y191333D01*
Y188667D01*
X547334Y188001D01*
X548667D01*
X549334Y188667D01*
X553332Y191999D02*
X550667D01*
Y190000D01*
X551999Y190666D01*
X552666D01*
X553332Y190000D01*
Y188667D01*
X552666Y188001D01*
X551333D01*
X550667Y188667D01*
D15*
X465000Y333500D02*
Y336500D01*
X356653Y378500D02*
Y381500D01*
X403500Y217500D02*
Y220500D01*
X473500Y302500D02*
X476500D01*
X473500Y365000D02*
X476500D01*
X498500Y325000D02*
X501500D01*
X422500Y248500D02*
Y251500D01*
X465000Y311000D02*
Y314000D01*
X376000Y365000D02*
X379000D01*
X415500Y209500D02*
Y212500D01*
Y217500D02*
Y220500D01*
X400000Y251000D02*
Y254000D01*
X431000Y365000D02*
X434000D01*
X493500Y325000D02*
X496500D01*
X400000Y256000D02*
Y259000D01*
X550000Y183500D02*
Y186500D01*
X625000Y413500D02*
Y416500D01*
X637500Y418500D02*
Y421500D01*
X625000Y213500D02*
Y216500D01*
X637500Y218500D02*
Y221500D01*
Y413500D02*
Y416500D01*
Y213500D02*
Y216500D01*
X575000Y413500D02*
Y416500D01*
X562500Y418500D02*
Y421500D01*
X575000Y213500D02*
Y216500D01*
X562500Y218500D02*
Y221500D01*
Y413500D02*
Y416500D01*
Y213500D02*
Y216500D01*
X625000Y383500D02*
Y386500D01*
X637500Y378500D02*
Y381500D01*
X625000Y183500D02*
Y186500D01*
X637500Y178500D02*
Y181500D01*
Y383500D02*
Y386500D01*
Y183500D02*
Y186500D01*
X575000Y383500D02*
Y386500D01*
X562500Y378500D02*
Y381500D01*
X575000Y183500D02*
Y186500D01*
X562500Y178500D02*
Y181500D01*
Y383500D02*
Y386500D01*
Y183500D02*
Y186500D01*
X650000Y413500D02*
Y416500D01*
Y213500D02*
Y216500D01*
X550000Y413500D02*
Y416500D01*
Y213500D02*
Y216500D01*
X650000Y383500D02*
Y386500D01*
Y183500D02*
Y186500D01*
X550000Y383500D02*
Y386500D01*
D16*
X401429Y240528D02*
X417571D01*
X401429Y231472D02*
Y240528D01*
Y231472D02*
X417571D01*
Y240528D01*
X473209Y313209D02*
X474980D01*
X473209D02*
Y314980D01*
Y325020D02*
Y326791D01*
X474980D01*
X485020D02*
X486791D01*
Y325020D02*
Y326791D01*
X485020Y313209D02*
X486791D01*
Y314980D01*
X391614Y400669D02*
X418386D01*
X391614Y359331D02*
X418386D01*
X391614D02*
Y400669D01*
X418386Y359331D02*
Y400669D01*
X617323Y393701D02*
Y406299D01*
X582677Y393701D02*
Y406299D01*
X617323D01*
X582677Y393701D02*
X617323D01*
Y193701D02*
Y206299D01*
X582677Y193701D02*
Y206299D01*
Y193701D02*
X617323D01*
X582677Y206299D02*
X617323D01*
M02*
