G04*
G04 #@! TF.GenerationSoftware,Altium Limited,Altium Designer,18.1.9 (240)*
G04*
G04 Layer_Color=16711935*
%FSLAX25Y25*%
%MOIN*%
G70*
G01*
G75*
%ADD15C,0.00394*%
%ADD18C,0.00100*%
%ADD20C,0.00600*%
%ADD24C,0.00300*%
D15*
X1596756Y321942D02*
G03*
X1596756Y321942I-1969J0D01*
G01*
X1523587Y184108D02*
G03*
X1523587Y184108I-1969J0D01*
G01*
X1595799Y211689D02*
G03*
X1595799Y211689I-1969J0D01*
G01*
X1491546Y321463D02*
G03*
X1491546Y321463I-1969J0D01*
G01*
X1491146Y211225D02*
G03*
X1491146Y211225I-1969J0D01*
G01*
X1629197Y294826D02*
G03*
X1629197Y294826I-1969J0D01*
G01*
X1628240Y184572D02*
G03*
X1628240Y184572I-1969J0D01*
G01*
X1523987Y294346D02*
G03*
X1523987Y294346I-1969J0D01*
G01*
X77290Y148244D02*
G03*
X77290Y148244I-1969J0D01*
G01*
X191097D02*
G03*
X191097Y148244I-1969J0D01*
G01*
X305365D02*
G03*
X305365Y148244I-1969J0D01*
G01*
X419711D02*
G03*
X419711Y148244I-1969J0D01*
G01*
X533672D02*
G03*
X533672Y148244I-1969J0D01*
G01*
X647825D02*
G03*
X647825Y148244I-1969J0D01*
G01*
X12790Y148091D02*
G03*
X12790Y148091I-1969J0D01*
G01*
X126597D02*
G03*
X126597Y148091I-1969J0D01*
G01*
X240865D02*
G03*
X240865Y148091I-1969J0D01*
G01*
X355018D02*
G03*
X355018Y148091I-1969J0D01*
G01*
X469172D02*
G03*
X469172Y148091I-1969J0D01*
G01*
X583325D02*
G03*
X583325Y148091I-1969J0D01*
G01*
X1360827Y71587D02*
G03*
X1360827Y71587I-1969J0D01*
G01*
X401834Y468343D02*
G03*
X401834Y468343I-1969J0D01*
G01*
X1582583Y291234D02*
X1598331D01*
X1582583Y325486D02*
X1598331D01*
X1582583Y291234D02*
Y325486D01*
X1598331Y291234D02*
Y325486D01*
X1542512Y469850D02*
Y481661D01*
X1537000Y469850D02*
Y481661D01*
X1542512D01*
X1537000Y469850D02*
X1542512D01*
X1606612Y469450D02*
Y481261D01*
X1601100Y469450D02*
Y481261D01*
X1606612D01*
X1601100Y469450D02*
X1606612D01*
X1518075Y180565D02*
Y214817D01*
X1533823Y180565D02*
Y214817D01*
X1518075Y180565D02*
X1533823D01*
X1518075Y214817D02*
X1533823D01*
X1597374Y180980D02*
Y215232D01*
X1581626Y180980D02*
Y215232D01*
X1597374D01*
X1581626Y180980D02*
X1597374D01*
X1493120Y290755D02*
Y325007D01*
X1477372Y290755D02*
Y325007D01*
X1493120D01*
X1477372Y290755D02*
X1493120D01*
X1492721Y180516D02*
Y214768D01*
X1476972Y180516D02*
Y214768D01*
X1492721D01*
X1476972Y180516D02*
X1492721D01*
X1623685Y291282D02*
Y325534D01*
X1639433Y291282D02*
Y325534D01*
X1623685Y291282D02*
X1639433D01*
X1623685Y325534D02*
X1639433D01*
X1622728Y181029D02*
Y215281D01*
X1638476Y181029D02*
Y215281D01*
X1622728Y181029D02*
X1638476D01*
X1622728Y215281D02*
X1638476D01*
X1518475Y290803D02*
Y325055D01*
X1534223Y290803D02*
Y325055D01*
X1518475Y290803D02*
X1534223D01*
X1518475Y325055D02*
X1534223D01*
X111148Y118362D02*
Y151787D01*
X71778Y118362D02*
Y151787D01*
Y118362D02*
X111148D01*
X71778Y151787D02*
X111148D01*
X224955Y118362D02*
Y151787D01*
X185585Y118362D02*
Y151787D01*
Y118362D02*
X224955D01*
X185585Y151787D02*
X224955D01*
X339223Y118362D02*
Y151787D01*
X299853Y118362D02*
Y151787D01*
Y118362D02*
X339223D01*
X299853Y151787D02*
X339223D01*
X453569Y118362D02*
Y151787D01*
X414199Y118362D02*
Y151787D01*
Y118362D02*
X453569D01*
X414199Y151787D02*
X453569D01*
X567530Y118362D02*
Y151787D01*
X528160Y118362D02*
Y151787D01*
Y118362D02*
X567530D01*
X528160Y151787D02*
X567530D01*
X681683Y118362D02*
Y151787D01*
X642313Y118362D02*
Y151787D01*
Y118362D02*
X681683D01*
X642313Y151787D02*
X681683D01*
X46648Y118209D02*
Y151634D01*
X7278Y118209D02*
Y151634D01*
Y118209D02*
X46648D01*
X7278Y151634D02*
X46648D01*
X160455Y118209D02*
Y151634D01*
X121085Y118209D02*
Y151634D01*
Y118209D02*
X160455D01*
X121085Y151634D02*
X160455D01*
X274723Y118209D02*
Y151634D01*
X235353Y118209D02*
Y151634D01*
Y118209D02*
X274723D01*
X235353Y151634D02*
X274723D01*
X388876Y118209D02*
Y151634D01*
X349506Y118209D02*
Y151634D01*
Y118209D02*
X388876D01*
X349506Y151634D02*
X388876D01*
X503030Y118209D02*
Y151634D01*
X463660Y118209D02*
Y151634D01*
Y118209D02*
X503030D01*
X463660Y151634D02*
X503030D01*
X617183Y118209D02*
Y151634D01*
X577813Y118209D02*
Y151634D01*
Y118209D02*
X617183D01*
X577813Y151634D02*
X617183D01*
X1394685Y68044D02*
Y83792D01*
X1355315Y68044D02*
Y83792D01*
X1394685D01*
X1355315Y68044D02*
X1394685D01*
X383724Y456138D02*
Y471886D01*
X403409Y456138D02*
Y471886D01*
X383724Y456138D02*
X403409D01*
X383724Y471886D02*
X403409D01*
X925555Y362323D02*
X931067D01*
X925555Y370984D02*
X931067D01*
X925555Y362323D02*
Y370984D01*
X931067Y362323D02*
Y370984D01*
X795244Y91094D02*
X800756D01*
X795244Y102905D02*
X800756D01*
Y91094D02*
Y102905D01*
X795244Y91094D02*
Y102905D01*
X795744Y110094D02*
X801256D01*
X795744Y121906D02*
X801256D01*
Y110094D02*
Y121906D01*
X795744Y110094D02*
Y121906D01*
X751748Y121744D02*
Y127256D01*
X763559Y121744D02*
Y127256D01*
X751748Y121744D02*
X763559D01*
X751748Y127256D02*
X763559D01*
X908469Y71122D02*
X920280D01*
X908469Y65610D02*
X920280D01*
Y71122D01*
X908469Y65610D02*
Y71122D01*
X925469D02*
X937280D01*
X925469Y65610D02*
X937280D01*
Y71122D01*
X925469Y65610D02*
Y71122D01*
X878682Y45335D02*
Y57146D01*
X873170Y45335D02*
Y57146D01*
Y45335D02*
X878682D01*
X873170Y57146D02*
X878682D01*
Y68676D02*
Y80487D01*
X873170Y68676D02*
Y80487D01*
Y68676D02*
X878682D01*
X873170Y80487D02*
X878682D01*
X879118Y92075D02*
Y103886D01*
X873606Y92075D02*
Y103886D01*
Y92075D02*
X879118D01*
X873606Y103886D02*
X879118D01*
D18*
X1659500Y429704D02*
Y461603D01*
X1631500Y429704D02*
X1659500D01*
X1631500D02*
Y461603D01*
X1659500D01*
X1631500Y432258D02*
Y433458D01*
Y432258D02*
Y433458D01*
Y434227D02*
Y435427D01*
Y434227D02*
Y435427D01*
Y436195D02*
Y437395D01*
Y436195D02*
Y437395D01*
Y438164D02*
Y439364D01*
Y438164D02*
Y439364D01*
Y440132D02*
Y441332D01*
Y440132D02*
Y441332D01*
Y442101D02*
Y443301D01*
Y442101D02*
Y443301D01*
Y444069D02*
Y445269D01*
Y444069D02*
Y445269D01*
Y446038D02*
Y447238D01*
Y446038D02*
Y447238D01*
Y448006D02*
Y449206D01*
Y448006D02*
Y449206D01*
Y449975D02*
Y451175D01*
Y449975D02*
Y451175D01*
Y451943D02*
Y453143D01*
Y451943D02*
Y453143D01*
Y453912D02*
Y455112D01*
Y453912D02*
Y455112D01*
Y455880D02*
Y457080D01*
Y455880D02*
Y457080D01*
Y457849D02*
Y459049D01*
Y457849D02*
Y459049D01*
X1634073Y461603D02*
X1635273D01*
X1634073D02*
X1635273D01*
X1636042D02*
X1637242D01*
X1636042D02*
X1637242D01*
X1638010D02*
X1639210D01*
X1638010D02*
X1639210D01*
X1639979D02*
X1641179D01*
X1639979D02*
X1641179D01*
X1641947D02*
X1643147D01*
X1641947D02*
X1643147D01*
X1643916D02*
X1645116D01*
X1643916D02*
X1645116D01*
X1645884D02*
X1647084D01*
X1645884D02*
X1647084D01*
X1647853D02*
X1649053D01*
X1647853D02*
X1649053D01*
X1649821D02*
X1651021D01*
X1649821D02*
X1651021D01*
X1651790D02*
X1652990D01*
X1651790D02*
X1652990D01*
X1653758D02*
X1654958D01*
X1653758D02*
X1654958D01*
X1655727D02*
X1656927D01*
X1655727D02*
X1656927D01*
X1659500Y457849D02*
Y459049D01*
Y457849D02*
Y459049D01*
Y455880D02*
Y457080D01*
Y455880D02*
Y457080D01*
Y453912D02*
Y455112D01*
Y453912D02*
Y455112D01*
Y451943D02*
Y453143D01*
Y451943D02*
Y453143D01*
Y449975D02*
Y451175D01*
Y449975D02*
Y451175D01*
Y448006D02*
Y449206D01*
Y448006D02*
Y449206D01*
Y446038D02*
Y447238D01*
Y446038D02*
Y447238D01*
Y444069D02*
Y445269D01*
Y444069D02*
Y445269D01*
Y442101D02*
Y443301D01*
Y442101D02*
Y443301D01*
Y440132D02*
Y441332D01*
Y440132D02*
Y441332D01*
Y438164D02*
Y439364D01*
Y438164D02*
Y439364D01*
Y436195D02*
Y437395D01*
Y436195D02*
Y437395D01*
Y434227D02*
Y435427D01*
Y434227D02*
Y435427D01*
Y432258D02*
Y433458D01*
Y432258D02*
Y433458D01*
X1655727Y429704D02*
X1656927D01*
X1655727D02*
X1656927D01*
X1653758D02*
X1654958D01*
X1653758D02*
X1654958D01*
X1651790D02*
X1652990D01*
X1651790D02*
X1652990D01*
X1649821D02*
X1651021D01*
X1649821D02*
X1651021D01*
X1647853D02*
X1649053D01*
X1647853D02*
X1649053D01*
X1645884D02*
X1647084D01*
X1645884D02*
X1647084D01*
X1643916D02*
X1645116D01*
X1643916D02*
X1645116D01*
X1641947D02*
X1643147D01*
X1641947D02*
X1643147D01*
X1639979D02*
X1641179D01*
X1639979D02*
X1641179D01*
X1638010D02*
X1639210D01*
X1638010D02*
X1639210D01*
X1636042D02*
X1637242D01*
X1636042D02*
X1637242D01*
X1634073D02*
X1635273D01*
X1634073D02*
X1635273D01*
X1654500D02*
X1659500Y434703D01*
X1508500Y429704D02*
Y461603D01*
X1480500Y429704D02*
X1508500D01*
X1480500D02*
Y461603D01*
X1508500D01*
X1480500Y432258D02*
Y433458D01*
Y432258D02*
Y433458D01*
Y434227D02*
Y435427D01*
Y434227D02*
Y435427D01*
Y436195D02*
Y437395D01*
Y436195D02*
Y437395D01*
Y438164D02*
Y439364D01*
Y438164D02*
Y439364D01*
Y440132D02*
Y441332D01*
Y440132D02*
Y441332D01*
Y442101D02*
Y443301D01*
Y442101D02*
Y443301D01*
Y444069D02*
Y445269D01*
Y444069D02*
Y445269D01*
Y446038D02*
Y447238D01*
Y446038D02*
Y447238D01*
Y448006D02*
Y449206D01*
Y448006D02*
Y449206D01*
Y449975D02*
Y451175D01*
Y449975D02*
Y451175D01*
Y451943D02*
Y453143D01*
Y451943D02*
Y453143D01*
Y453912D02*
Y455112D01*
Y453912D02*
Y455112D01*
Y455880D02*
Y457080D01*
Y455880D02*
Y457080D01*
Y457849D02*
Y459049D01*
Y457849D02*
Y459049D01*
X1483073Y461603D02*
X1484273D01*
X1483073D02*
X1484273D01*
X1485042D02*
X1486242D01*
X1485042D02*
X1486242D01*
X1487010D02*
X1488210D01*
X1487010D02*
X1488210D01*
X1488979D02*
X1490179D01*
X1488979D02*
X1490179D01*
X1490947D02*
X1492147D01*
X1490947D02*
X1492147D01*
X1492916D02*
X1494116D01*
X1492916D02*
X1494116D01*
X1494884D02*
X1496084D01*
X1494884D02*
X1496084D01*
X1496853D02*
X1498053D01*
X1496853D02*
X1498053D01*
X1498821D02*
X1500021D01*
X1498821D02*
X1500021D01*
X1500790D02*
X1501990D01*
X1500790D02*
X1501990D01*
X1502758D02*
X1503958D01*
X1502758D02*
X1503958D01*
X1504727D02*
X1505927D01*
X1504727D02*
X1505927D01*
X1508500Y457849D02*
Y459049D01*
Y457849D02*
Y459049D01*
Y455880D02*
Y457080D01*
Y455880D02*
Y457080D01*
Y453912D02*
Y455112D01*
Y453912D02*
Y455112D01*
Y451943D02*
Y453143D01*
Y451943D02*
Y453143D01*
Y449975D02*
Y451175D01*
Y449975D02*
Y451175D01*
Y448006D02*
Y449206D01*
Y448006D02*
Y449206D01*
Y446038D02*
Y447238D01*
Y446038D02*
Y447238D01*
Y444069D02*
Y445269D01*
Y444069D02*
Y445269D01*
Y442101D02*
Y443301D01*
Y442101D02*
Y443301D01*
Y440132D02*
Y441332D01*
Y440132D02*
Y441332D01*
Y438164D02*
Y439364D01*
Y438164D02*
Y439364D01*
Y436195D02*
Y437395D01*
Y436195D02*
Y437395D01*
Y434227D02*
Y435427D01*
Y434227D02*
Y435427D01*
Y432258D02*
Y433458D01*
Y432258D02*
Y433458D01*
X1504727Y429704D02*
X1505927D01*
X1504727D02*
X1505927D01*
X1502758D02*
X1503958D01*
X1502758D02*
X1503958D01*
X1500790D02*
X1501990D01*
X1500790D02*
X1501990D01*
X1498821D02*
X1500021D01*
X1498821D02*
X1500021D01*
X1496853D02*
X1498053D01*
X1496853D02*
X1498053D01*
X1494884D02*
X1496084D01*
X1494884D02*
X1496084D01*
X1492916D02*
X1494116D01*
X1492916D02*
X1494116D01*
X1490947D02*
X1492147D01*
X1490947D02*
X1492147D01*
X1488979D02*
X1490179D01*
X1488979D02*
X1490179D01*
X1487010D02*
X1488210D01*
X1487010D02*
X1488210D01*
X1485042D02*
X1486242D01*
X1485042D02*
X1486242D01*
X1483073D02*
X1484273D01*
X1483073D02*
X1484273D01*
X1503500D02*
X1508500Y434703D01*
D20*
X759674Y272528D02*
X939988D01*
Y296149D01*
X759674D02*
X939988D01*
X759674Y272528D02*
Y296149D01*
Y447528D02*
Y471149D01*
X939988D01*
Y447528D02*
Y471149D01*
X759674Y447528D02*
X939988D01*
X702642Y281631D02*
Y461946D01*
X679020D02*
X702642D01*
X679020Y281631D02*
Y461946D01*
Y281631D02*
X702642D01*
D24*
X1657500Y427709D02*
X1654168Y431041D01*
X1657500D02*
X1654168Y427709D01*
X1657500Y429375D02*
X1654168D01*
X1655834Y431041D02*
Y427709D01*
X1506500D02*
X1503168Y431041D01*
X1506500D02*
X1503168Y427709D01*
X1506500Y429375D02*
X1503168D01*
X1504834Y431041D02*
Y427709D01*
M02*
