G04*
G04 #@! TF.GenerationSoftware,Altium Limited,Altium Designer,18.1.9 (240)*
G04*
G04 Layer_Color=32768*
%FSLAX25Y25*%
%MOIN*%
G70*
G01*
G75*
%ADD15C,0.00394*%
%ADD20C,0.00600*%
%ADD172C,0.00197*%
D15*
X1590457Y306391D02*
Y310328D01*
X1588488Y308360D02*
X1592425D01*
X1546055Y469457D02*
Y482055D01*
X1533457Y469457D02*
Y482055D01*
X1546055D01*
X1533457Y469457D02*
X1546055D01*
X1537787Y475756D02*
X1541724D01*
X1539756Y473787D02*
Y477724D01*
X1610155Y469057D02*
Y481655D01*
X1597557Y469057D02*
Y481655D01*
X1610155D01*
X1597557Y469057D02*
X1610155D01*
X1601887Y475356D02*
X1605824D01*
X1603856Y473387D02*
Y477324D01*
X1523980Y197691D02*
X1527917D01*
X1525949Y195722D02*
Y199659D01*
X1587531Y198106D02*
X1591469D01*
X1589500Y196138D02*
Y200075D01*
X1483278Y307881D02*
X1487215D01*
X1485246Y305912D02*
Y309849D01*
X1482878Y197642D02*
X1486815D01*
X1484846Y195674D02*
Y199611D01*
X1629590Y308408D02*
X1633528D01*
X1631559Y306440D02*
Y310377D01*
X1628634Y198155D02*
X1632571D01*
X1630602Y196186D02*
Y200123D01*
X1524380Y307929D02*
X1528317D01*
X1526349Y305961D02*
Y309898D01*
X89495Y143913D02*
X93432D01*
X91463Y141945D02*
Y145882D01*
X112132Y110862D02*
Y158677D01*
X70794Y110862D02*
Y158677D01*
Y110862D02*
X112132D01*
X70794Y158677D02*
X112132D01*
X203302Y143913D02*
X207239D01*
X205270Y141945D02*
Y145882D01*
X225939Y110862D02*
Y158677D01*
X184601Y110862D02*
Y158677D01*
Y110862D02*
X225939D01*
X184601Y158677D02*
X225939D01*
X317569Y143913D02*
X321506D01*
X319538Y141945D02*
Y145882D01*
X340207Y110862D02*
Y158677D01*
X298868Y110862D02*
Y158677D01*
Y110862D02*
X340207D01*
X298868Y158677D02*
X340207D01*
X431916Y143913D02*
X435853D01*
X433884Y141945D02*
Y145882D01*
X454554Y110862D02*
Y158677D01*
X413215Y110862D02*
Y158677D01*
Y110862D02*
X454554D01*
X413215Y158677D02*
X454554D01*
X545876Y143913D02*
X549813D01*
X547845Y141945D02*
Y145882D01*
X568514Y110862D02*
Y158677D01*
X527176Y110862D02*
Y158677D01*
Y110862D02*
X568514D01*
X527176Y158677D02*
X568514D01*
X660030Y143913D02*
X663967D01*
X661998Y141945D02*
Y145882D01*
X682668Y110862D02*
Y158677D01*
X641329Y110862D02*
Y158677D01*
Y110862D02*
X682668D01*
X641329Y158677D02*
X682668D01*
X24994Y143760D02*
X28931D01*
X26963Y141791D02*
Y145728D01*
X47632Y110709D02*
Y158524D01*
X6294Y110709D02*
Y158524D01*
Y110709D02*
X47632D01*
X6294Y158524D02*
X47632D01*
X138802Y143760D02*
X142739D01*
X140770Y141791D02*
Y145728D01*
X161439Y110709D02*
Y158524D01*
X120101Y110709D02*
Y158524D01*
Y110709D02*
X161439D01*
X120101Y158524D02*
X161439D01*
X253069Y143760D02*
X257006D01*
X255038Y141791D02*
Y145728D01*
X275707Y110709D02*
Y158524D01*
X234368Y110709D02*
Y158524D01*
Y110709D02*
X275707D01*
X234368Y158524D02*
X275707D01*
X367223Y143760D02*
X371160D01*
X369191Y141791D02*
Y145728D01*
X389861Y110709D02*
Y158524D01*
X348522Y110709D02*
Y158524D01*
Y110709D02*
X389861D01*
X348522Y158524D02*
X389861D01*
X481376Y143760D02*
X485313D01*
X483345Y141791D02*
Y145728D01*
X504014Y110709D02*
Y158524D01*
X462676Y110709D02*
Y158524D01*
Y110709D02*
X504014D01*
X462676Y158524D02*
X504014D01*
X595530Y143760D02*
X599467D01*
X597498Y141791D02*
Y145728D01*
X618168Y110709D02*
Y158524D01*
X576829Y110709D02*
Y158524D01*
Y110709D02*
X618168D01*
X576829Y158524D02*
X618168D01*
X1373032Y75918D02*
X1376968D01*
X1375000Y73950D02*
Y77887D01*
X1395669Y61154D02*
Y90682D01*
X1354331Y61154D02*
Y90682D01*
X1395669D01*
X1354331Y61154D02*
X1395669D01*
X391598Y464012D02*
X395535D01*
X393567Y462044D02*
Y465981D01*
X382740Y449249D02*
Y478776D01*
X404393Y449249D02*
Y478776D01*
X382740Y449249D02*
X404393D01*
X382740Y478776D02*
X404393D01*
X928311Y364685D02*
Y368622D01*
X926342Y366653D02*
X930280D01*
X921913Y361339D02*
X934709D01*
X921913Y371969D02*
X934709D01*
X921913Y361339D02*
Y371969D01*
X934709Y361339D02*
Y371969D01*
X798000Y95031D02*
Y98968D01*
X796032Y97000D02*
X799968D01*
X790323Y90110D02*
X805677D01*
X790323Y103890D02*
X805677D01*
Y90110D02*
Y103890D01*
X790323Y90110D02*
Y103890D01*
X798500Y114032D02*
Y117968D01*
X796531Y116000D02*
X800469D01*
X790823Y109110D02*
X806177D01*
X790823Y122890D02*
X806177D01*
Y109110D02*
Y122890D01*
X790823Y109110D02*
Y122890D01*
X755685Y124500D02*
X759622D01*
X757654Y122531D02*
Y126469D01*
X750764Y116823D02*
Y132177D01*
X764543Y116823D02*
Y132177D01*
X750764Y116823D02*
X764543D01*
X750764Y132177D02*
X764543D01*
X907484Y76043D02*
X921264D01*
X907484Y60689D02*
X921264D01*
Y76043D01*
X907484Y60689D02*
Y76043D01*
X914374Y66398D02*
Y70335D01*
X912405Y68366D02*
X916343D01*
X924484Y76043D02*
X938264D01*
X924484Y60689D02*
X938264D01*
Y76043D01*
X924484Y60689D02*
Y76043D01*
X931374Y66398D02*
Y70335D01*
X929405Y68366D02*
X933342D01*
X883603Y44350D02*
Y58130D01*
X868249Y44350D02*
Y58130D01*
Y44350D02*
X883603D01*
X868249Y58130D02*
X883603D01*
X873958Y51240D02*
X877894D01*
X875926Y49272D02*
Y53209D01*
X883603Y67692D02*
Y81471D01*
X868249Y67692D02*
Y81471D01*
Y67692D02*
X883603D01*
X868249Y81471D02*
X883603D01*
X873958Y74582D02*
X877894D01*
X875926Y72613D02*
Y76550D01*
X884039Y91091D02*
Y104870D01*
X868685Y91091D02*
Y104870D01*
Y91091D02*
X884039D01*
X868685Y104870D02*
X884039D01*
X874394Y97980D02*
X878331D01*
X876362Y96012D02*
Y99949D01*
D20*
X328485Y422517D02*
X333535D01*
X325985Y420017D02*
X328485Y422517D01*
X325985Y396417D02*
Y420017D01*
X344235Y422617D02*
Y425417D01*
X333535D02*
X344235D01*
Y393017D02*
Y396317D01*
X333535Y393017D02*
X344235D01*
X333535D02*
Y396417D01*
Y422517D02*
Y425417D01*
X344235Y422617D02*
X351885D01*
Y396317D02*
Y422617D01*
X344235Y396317D02*
X351885D01*
X325985Y396417D02*
X333535D01*
D172*
X1575890Y290053D02*
X1605024D01*
X1575890Y326667D02*
X1605024D01*
X1575890Y290053D02*
Y326667D01*
X1605024Y290053D02*
Y326667D01*
X1511382Y179384D02*
Y215998D01*
X1540516Y179384D02*
Y215998D01*
X1511382Y179384D02*
X1540516D01*
X1511382Y215998D02*
X1540516D01*
X1604067Y179799D02*
Y216413D01*
X1574933Y179799D02*
Y216413D01*
X1604067D01*
X1574933Y179799D02*
X1604067D01*
X1499813Y289574D02*
Y326188D01*
X1470679Y289574D02*
Y326188D01*
X1499813D01*
X1470679Y289574D02*
X1499813D01*
X1499413Y179335D02*
Y215949D01*
X1470280Y179335D02*
Y215949D01*
X1499413D01*
X1470280Y179335D02*
X1499413D01*
X1616992Y290101D02*
Y326715D01*
X1646126Y290101D02*
Y326715D01*
X1616992Y290101D02*
X1646126D01*
X1616992Y326715D02*
X1646126D01*
X1616035Y179848D02*
Y216462D01*
X1645169Y179848D02*
Y216462D01*
X1616035Y179848D02*
X1645169D01*
X1616035Y216462D02*
X1645169D01*
X1511782Y289622D02*
Y326236D01*
X1540916Y289622D02*
Y326236D01*
X1511782Y289622D02*
X1540916D01*
X1511782Y326236D02*
X1540916D01*
M02*
