G04*
G04 #@! TF.GenerationSoftware,Altium Limited,Altium Designer,18.1.9 (240)*
G04*
G04 Layer_Color=255*
%FSLAX25Y25*%
%MOIN*%
G70*
G01*
G75*
%ADD34R,0.03740X0.03740*%
%ADD35R,0.03740X0.03740*%
%ADD46O,0.02362X0.08661*%
%ADD50R,0.07500X0.13500*%
%ADD51R,0.01654X0.03500*%
%ADD63R,0.01181X0.06299*%
%ADD116C,0.03000*%
%ADD120C,0.06000*%
%ADD121C,0.08858*%
%ADD122C,0.12795*%
%ADD123C,0.03937*%
%ADD124C,0.30000*%
%ADD125R,0.06299X0.06299*%
%ADD126C,0.06299*%
%ADD127C,0.06700*%
%ADD128C,0.16000*%
%ADD129C,0.15748*%
%ADD130C,0.07874*%
%ADD131C,0.07000*%
%ADD132C,0.05000*%
%ADD133C,0.08200*%
%ADD134C,0.17000*%
%ADD135C,0.04598*%
%ADD136C,0.09449*%
%ADD140O,0.05709X0.02362*%
%ADD141R,0.02441X0.04803*%
%ADD142R,0.03347X0.02362*%
%ADD143R,0.05000X0.08268*%
%ADD144R,0.06496X0.01181*%
%ADD145R,0.04200X0.09000*%
%ADD146R,0.42000X0.35000*%
%ADD147R,0.01575X0.04921*%
%ADD148R,0.01181X0.01181*%
%ADD149R,0.01181X0.03543*%
%ADD150R,0.03543X0.01181*%
%ADD151R,0.07087X0.07087*%
%ADD152R,0.01968X0.01575*%
%ADD153R,0.01575X0.01968*%
%ADD154R,0.03347X0.01575*%
D34*
X1395413Y285405D02*
D03*
Y278713D02*
D03*
X1394707Y237260D02*
D03*
Y230567D02*
D03*
X1343673Y278153D02*
D03*
Y284846D02*
D03*
X1344467Y228153D02*
D03*
Y234846D02*
D03*
X1586500Y165654D02*
D03*
Y172346D02*
D03*
X1624303Y166119D02*
D03*
Y172812D02*
D03*
X1598949Y166119D02*
D03*
Y172812D02*
D03*
X1637046Y166654D02*
D03*
Y173346D02*
D03*
X1482000Y282252D02*
D03*
Y275559D02*
D03*
X1494695Y282587D02*
D03*
Y275894D02*
D03*
X1530500Y282587D02*
D03*
Y275894D02*
D03*
X1518403Y282252D02*
D03*
Y275559D02*
D03*
X1588054Y276153D02*
D03*
Y282846D02*
D03*
X1599905Y276373D02*
D03*
Y283066D02*
D03*
X1634798Y277153D02*
D03*
Y283846D02*
D03*
X1623000Y276654D02*
D03*
Y283347D02*
D03*
X1489500Y172348D02*
D03*
Y165655D02*
D03*
X1502300Y172346D02*
D03*
Y165654D02*
D03*
X1528071Y172812D02*
D03*
Y166119D02*
D03*
X1515221Y172348D02*
D03*
Y165655D02*
D03*
X829000Y97154D02*
D03*
Y103847D02*
D03*
X544000Y500347D02*
D03*
Y493653D02*
D03*
X822000Y103847D02*
D03*
Y97154D02*
D03*
X795000Y82846D02*
D03*
Y76153D02*
D03*
X802500Y82846D02*
D03*
Y76153D02*
D03*
X991788Y355500D02*
D03*
Y348807D02*
D03*
X298141Y271847D02*
D03*
Y265154D02*
D03*
X964988Y355500D02*
D03*
Y348807D02*
D03*
X261000Y284068D02*
D03*
Y277375D02*
D03*
X316700Y271346D02*
D03*
Y264653D02*
D03*
X343500Y271346D02*
D03*
Y264653D02*
D03*
X876602Y355847D02*
D03*
Y349153D02*
D03*
X361197Y272000D02*
D03*
Y265307D02*
D03*
X903402Y355847D02*
D03*
Y349153D02*
D03*
X388000Y272000D02*
D03*
Y265307D02*
D03*
X79000Y107976D02*
D03*
Y101284D02*
D03*
X192770Y107976D02*
D03*
Y101284D02*
D03*
X307000Y107976D02*
D03*
Y101284D02*
D03*
X421384Y107976D02*
D03*
Y101284D02*
D03*
X535326Y107976D02*
D03*
Y101284D02*
D03*
X649498Y107976D02*
D03*
Y101284D02*
D03*
X9000Y107976D02*
D03*
Y101284D02*
D03*
X128270Y107976D02*
D03*
Y101284D02*
D03*
X242538Y107976D02*
D03*
Y101284D02*
D03*
X356691Y107976D02*
D03*
Y101284D02*
D03*
X470845Y107976D02*
D03*
Y101284D02*
D03*
X584998Y107976D02*
D03*
Y101284D02*
D03*
X73831Y107976D02*
D03*
Y101284D02*
D03*
X187770Y107976D02*
D03*
Y101284D02*
D03*
X302038Y107976D02*
D03*
Y101284D02*
D03*
X416384Y107976D02*
D03*
Y101284D02*
D03*
X529826Y107976D02*
D03*
Y101284D02*
D03*
X644498Y107976D02*
D03*
Y101284D02*
D03*
X14000Y107976D02*
D03*
Y101284D02*
D03*
X123270Y107976D02*
D03*
Y101284D02*
D03*
X237538Y107976D02*
D03*
Y101284D02*
D03*
X351691Y107976D02*
D03*
Y101284D02*
D03*
X465845Y107976D02*
D03*
Y101284D02*
D03*
X579998Y107976D02*
D03*
Y101284D02*
D03*
X69000Y107976D02*
D03*
Y101284D02*
D03*
X183067Y107976D02*
D03*
Y101284D02*
D03*
X297000Y107976D02*
D03*
Y101284D02*
D03*
X411567Y107976D02*
D03*
Y101284D02*
D03*
X524326Y107976D02*
D03*
Y101284D02*
D03*
X639831Y107976D02*
D03*
Y101284D02*
D03*
X4000Y107976D02*
D03*
Y101284D02*
D03*
X118402Y107976D02*
D03*
Y101284D02*
D03*
X232538Y107976D02*
D03*
Y101284D02*
D03*
X347000Y107976D02*
D03*
Y101284D02*
D03*
X461000Y107976D02*
D03*
Y101284D02*
D03*
X574831Y107976D02*
D03*
Y101284D02*
D03*
X1252000Y128847D02*
D03*
Y122153D02*
D03*
X1260000Y109153D02*
D03*
Y115847D02*
D03*
Y128847D02*
D03*
Y122153D02*
D03*
X1252000Y108653D02*
D03*
Y115347D02*
D03*
X1208500Y129347D02*
D03*
Y122653D02*
D03*
Y109153D02*
D03*
Y115847D02*
D03*
X1215500Y129347D02*
D03*
Y122653D02*
D03*
Y109153D02*
D03*
Y115847D02*
D03*
X1144000Y130347D02*
D03*
Y123653D02*
D03*
Y107653D02*
D03*
Y114347D02*
D03*
X1151500Y130347D02*
D03*
Y123653D02*
D03*
Y107653D02*
D03*
Y114347D02*
D03*
X737500Y63197D02*
D03*
Y69890D02*
D03*
X725500Y63197D02*
D03*
Y69890D02*
D03*
X701500Y63197D02*
D03*
Y69890D02*
D03*
X689500Y63197D02*
D03*
Y69890D02*
D03*
X537000Y493653D02*
D03*
Y500347D02*
D03*
D35*
X1388327Y252500D02*
D03*
X1395020D02*
D03*
X1387313Y230567D02*
D03*
X1380620D02*
D03*
X1388120Y201000D02*
D03*
X1394813D02*
D03*
X1380620Y237000D02*
D03*
X1387313D02*
D03*
X1336020Y284894D02*
D03*
X1329327D02*
D03*
Y277500D02*
D03*
X1336020D02*
D03*
X1337313Y234500D02*
D03*
X1330620D02*
D03*
Y227000D02*
D03*
X1337313D02*
D03*
X1340020Y250765D02*
D03*
X1333327D02*
D03*
X1340313Y199000D02*
D03*
X1333620D02*
D03*
X1380827Y286305D02*
D03*
X1387520D02*
D03*
Y278906D02*
D03*
X1380827D02*
D03*
X1599400Y260500D02*
D03*
X1592707D02*
D03*
X1590347Y250726D02*
D03*
X1583654D02*
D03*
X1621307Y260500D02*
D03*
X1628000D02*
D03*
X1630307Y250726D02*
D03*
X1637000D02*
D03*
X1583654Y243726D02*
D03*
X1590347D02*
D03*
Y236395D02*
D03*
X1583654D02*
D03*
X1590347Y229186D02*
D03*
X1583654D02*
D03*
X1630307Y243726D02*
D03*
X1637000D02*
D03*
Y236226D02*
D03*
X1630307D02*
D03*
Y229186D02*
D03*
X1637000D02*
D03*
X1488453Y370274D02*
D03*
X1495146D02*
D03*
X1532747Y353500D02*
D03*
X1526054D02*
D03*
X1486093Y360500D02*
D03*
X1479400D02*
D03*
X1523746Y370274D02*
D03*
X1517054D02*
D03*
X1526054Y360500D02*
D03*
X1532747D02*
D03*
X1486093Y353500D02*
D03*
X1479400D02*
D03*
Y346169D02*
D03*
X1486093D02*
D03*
Y338961D02*
D03*
X1479400D02*
D03*
X1526054Y346000D02*
D03*
X1532747D02*
D03*
X1526054Y338961D02*
D03*
X1532747D02*
D03*
X1600357Y370754D02*
D03*
X1593664D02*
D03*
X1591303Y346648D02*
D03*
X1584610D02*
D03*
Y353979D02*
D03*
X1591303D02*
D03*
Y360979D02*
D03*
X1584610D02*
D03*
X1622264Y370754D02*
D03*
X1628957D02*
D03*
X1631264Y353979D02*
D03*
X1637957D02*
D03*
Y346479D02*
D03*
X1631264D02*
D03*
Y360979D02*
D03*
X1637957D02*
D03*
X1591303Y339440D02*
D03*
X1584610D02*
D03*
X1631264D02*
D03*
X1637957D02*
D03*
X1485693Y243262D02*
D03*
X1479000D02*
D03*
X1485693Y250262D02*
D03*
X1479000D02*
D03*
Y235931D02*
D03*
X1485693D02*
D03*
Y228722D02*
D03*
X1479000D02*
D03*
X1525653Y235762D02*
D03*
X1532347D02*
D03*
X1525653Y228722D02*
D03*
X1532347D02*
D03*
Y243262D02*
D03*
X1525653D02*
D03*
Y250262D02*
D03*
X1532347D02*
D03*
X1488054Y260036D02*
D03*
X1494746D02*
D03*
X1523347D02*
D03*
X1516654D02*
D03*
X859359Y32000D02*
D03*
X866052D02*
D03*
X838153Y71500D02*
D03*
X844847D02*
D03*
X838153Y79000D02*
D03*
X844847D02*
D03*
X513346Y500059D02*
D03*
X506653D02*
D03*
X42309Y178260D02*
D03*
X35616D02*
D03*
X156000Y178143D02*
D03*
X149307D02*
D03*
X270331Y178167D02*
D03*
X263638D02*
D03*
X384731Y178260D02*
D03*
X378038D02*
D03*
X498331Y178053D02*
D03*
X491638D02*
D03*
X616024Y173317D02*
D03*
X609331D02*
D03*
X35653Y185546D02*
D03*
X42347D02*
D03*
X149153Y185000D02*
D03*
X155847D02*
D03*
X263638Y185353D02*
D03*
X270331D02*
D03*
X378038Y185260D02*
D03*
X384731D02*
D03*
X491845D02*
D03*
X498538D02*
D03*
X609331Y180675D02*
D03*
X616024D02*
D03*
X924658Y377153D02*
D03*
X917965D02*
D03*
X931965D02*
D03*
X938657D02*
D03*
D46*
X108963Y116669D02*
D03*
X103963D02*
D03*
X98963D02*
D03*
X93963D02*
D03*
X88963D02*
D03*
X83963D02*
D03*
X78963D02*
D03*
X73963D02*
D03*
X108963Y153362D02*
D03*
X103963D02*
D03*
X98963D02*
D03*
X93963D02*
D03*
X88963D02*
D03*
X83963D02*
D03*
X78963D02*
D03*
X73963D02*
D03*
X222770Y116669D02*
D03*
X217770D02*
D03*
X212770D02*
D03*
X207770D02*
D03*
X202770D02*
D03*
X197770D02*
D03*
X192770D02*
D03*
X187770D02*
D03*
X222770Y153362D02*
D03*
X217770D02*
D03*
X212770D02*
D03*
X207770D02*
D03*
X202770D02*
D03*
X197770D02*
D03*
X192770D02*
D03*
X187770D02*
D03*
X337038Y116669D02*
D03*
X332038D02*
D03*
X327038D02*
D03*
X322038D02*
D03*
X317038D02*
D03*
X312038D02*
D03*
X307038D02*
D03*
X302038D02*
D03*
X337038Y153362D02*
D03*
X332038D02*
D03*
X327038D02*
D03*
X322038D02*
D03*
X317038D02*
D03*
X312038D02*
D03*
X307038D02*
D03*
X302038D02*
D03*
X451384Y116669D02*
D03*
X446384D02*
D03*
X441384D02*
D03*
X436384D02*
D03*
X431384D02*
D03*
X426384D02*
D03*
X421384D02*
D03*
X416384D02*
D03*
X451384Y153362D02*
D03*
X446384D02*
D03*
X441384D02*
D03*
X436384D02*
D03*
X431384D02*
D03*
X426384D02*
D03*
X421384D02*
D03*
X416384D02*
D03*
X565345Y116669D02*
D03*
X560345D02*
D03*
X555345D02*
D03*
X550345D02*
D03*
X545345D02*
D03*
X540345D02*
D03*
X535345D02*
D03*
X530345D02*
D03*
X565345Y153362D02*
D03*
X560345D02*
D03*
X555345D02*
D03*
X550345D02*
D03*
X545345D02*
D03*
X540345D02*
D03*
X535345D02*
D03*
X530345D02*
D03*
X679498Y116669D02*
D03*
X674498D02*
D03*
X669498D02*
D03*
X664498D02*
D03*
X659498D02*
D03*
X654498D02*
D03*
X649498D02*
D03*
X644498D02*
D03*
X679498Y153362D02*
D03*
X674498D02*
D03*
X669498D02*
D03*
X664498D02*
D03*
X659498D02*
D03*
X654498D02*
D03*
X649498D02*
D03*
X644498D02*
D03*
X44463Y116516D02*
D03*
X39463D02*
D03*
X34463D02*
D03*
X29463D02*
D03*
X24463D02*
D03*
X19463D02*
D03*
X14463D02*
D03*
X9463D02*
D03*
X44463Y153209D02*
D03*
X39463D02*
D03*
X34463D02*
D03*
X29463D02*
D03*
X24463D02*
D03*
X19463D02*
D03*
X14463D02*
D03*
X9463D02*
D03*
X158270Y116516D02*
D03*
X153270D02*
D03*
X148270D02*
D03*
X143270D02*
D03*
X138270D02*
D03*
X133270D02*
D03*
X128270D02*
D03*
X123270D02*
D03*
X158270Y153209D02*
D03*
X153270D02*
D03*
X148270D02*
D03*
X143270D02*
D03*
X138270D02*
D03*
X133270D02*
D03*
X128270D02*
D03*
X123270D02*
D03*
X272538Y116516D02*
D03*
X267538D02*
D03*
X262538D02*
D03*
X257538D02*
D03*
X252538D02*
D03*
X247538D02*
D03*
X242538D02*
D03*
X237538D02*
D03*
X272538Y153209D02*
D03*
X267538D02*
D03*
X262538D02*
D03*
X257538D02*
D03*
X252538D02*
D03*
X247538D02*
D03*
X242538D02*
D03*
X237538D02*
D03*
X386691Y116516D02*
D03*
X381691D02*
D03*
X376691D02*
D03*
X371691D02*
D03*
X366691D02*
D03*
X361691D02*
D03*
X356691D02*
D03*
X351691D02*
D03*
X386691Y153209D02*
D03*
X381691D02*
D03*
X376691D02*
D03*
X371691D02*
D03*
X366691D02*
D03*
X361691D02*
D03*
X356691D02*
D03*
X351691D02*
D03*
X500845Y116516D02*
D03*
X495845D02*
D03*
X490845D02*
D03*
X485845D02*
D03*
X480845D02*
D03*
X475845D02*
D03*
X470845D02*
D03*
X465845D02*
D03*
X500845Y153209D02*
D03*
X495845D02*
D03*
X490845D02*
D03*
X485845D02*
D03*
X480845D02*
D03*
X475845D02*
D03*
X470845D02*
D03*
X465845D02*
D03*
X614998Y116516D02*
D03*
X609998D02*
D03*
X604998D02*
D03*
X599998D02*
D03*
X594998D02*
D03*
X589998D02*
D03*
X584998D02*
D03*
X579998D02*
D03*
X614998Y153209D02*
D03*
X609998D02*
D03*
X604998D02*
D03*
X599998D02*
D03*
X594998D02*
D03*
X589998D02*
D03*
X584998D02*
D03*
X579998D02*
D03*
D50*
X767500Y71500D02*
D03*
X752004D02*
D03*
D51*
X1266500Y127287D02*
D03*
Y110711D02*
D03*
X1269059D02*
D03*
X1271618D02*
D03*
X1274177D02*
D03*
X1269059Y127287D02*
D03*
X1271618D02*
D03*
X1274177D02*
D03*
X1222000D02*
D03*
Y110711D02*
D03*
X1224559D02*
D03*
X1227118D02*
D03*
X1229677D02*
D03*
X1224559Y127287D02*
D03*
X1227118D02*
D03*
X1229677D02*
D03*
D63*
X1159425Y130024D02*
D03*
X1161984D02*
D03*
X1164543D02*
D03*
X1167102D02*
D03*
X1169661D02*
D03*
X1172221D02*
D03*
X1174780D02*
D03*
X1177339D02*
D03*
X1179898D02*
D03*
X1182457D02*
D03*
X1185016D02*
D03*
X1187575D02*
D03*
X1159425Y107976D02*
D03*
X1161984D02*
D03*
X1164543D02*
D03*
X1167102D02*
D03*
X1169661D02*
D03*
X1172221D02*
D03*
X1174780D02*
D03*
X1177339D02*
D03*
X1179898D02*
D03*
X1182457D02*
D03*
X1185016D02*
D03*
X1187575D02*
D03*
D116*
X762831Y284339D02*
D03*
Y459339D02*
D03*
X690831Y284789D02*
D03*
D120*
X1400000Y313500D02*
D03*
X1410000D02*
D03*
X1420000D02*
D03*
X1430000D02*
D03*
Y323500D02*
D03*
X1420000D02*
D03*
X1410000D02*
D03*
X1400000D02*
D03*
X1504016Y74300D02*
D03*
X1494016D02*
D03*
X1484016D02*
D03*
X1514016D02*
D03*
X1479016Y64300D02*
D03*
X1489016D02*
D03*
X1499016D02*
D03*
X1509016D02*
D03*
Y90284D02*
D03*
X1499016D02*
D03*
X1489016D02*
D03*
X1479016D02*
D03*
X1514016Y100284D02*
D03*
X1484016D02*
D03*
X1494016D02*
D03*
X1504016D02*
D03*
X1559016Y74300D02*
D03*
X1549016D02*
D03*
X1539016D02*
D03*
X1569016D02*
D03*
X1534016Y64300D02*
D03*
X1544016D02*
D03*
X1554016D02*
D03*
X1564016D02*
D03*
Y90284D02*
D03*
X1554016D02*
D03*
X1544016D02*
D03*
X1534016D02*
D03*
X1569016Y100284D02*
D03*
X1539016D02*
D03*
X1549016D02*
D03*
X1559016D02*
D03*
X1614016Y74300D02*
D03*
X1604016D02*
D03*
X1594016D02*
D03*
X1624016D02*
D03*
X1589016Y64300D02*
D03*
X1599016D02*
D03*
X1609016D02*
D03*
X1619016D02*
D03*
Y90284D02*
D03*
X1609016D02*
D03*
X1599016D02*
D03*
X1589016D02*
D03*
X1624016Y100284D02*
D03*
X1594016D02*
D03*
X1604016D02*
D03*
X1614016D02*
D03*
X1669016D02*
D03*
X1659016D02*
D03*
X1649016D02*
D03*
X1679016D02*
D03*
X1644016Y90284D02*
D03*
X1654016D02*
D03*
X1664016D02*
D03*
X1674016D02*
D03*
Y64300D02*
D03*
X1664016D02*
D03*
X1654016D02*
D03*
X1644016D02*
D03*
X1679016Y74300D02*
D03*
X1649016D02*
D03*
X1659016D02*
D03*
X1669016D02*
D03*
X1581000Y493000D02*
D03*
Y483000D02*
D03*
X1571000D02*
D03*
Y493000D02*
D03*
X1118000Y448606D02*
D03*
Y438606D02*
D03*
X1108000D02*
D03*
Y448606D02*
D03*
X1375547Y31909D02*
D03*
X1364642D02*
D03*
X1386453D02*
D03*
X1397358D02*
D03*
X1402811Y43091D02*
D03*
X1391905D02*
D03*
X1381000D02*
D03*
X1359189D02*
D03*
X1370094D02*
D03*
X974500Y12760D02*
D03*
X956783D02*
D03*
X871000Y12498D02*
D03*
X853284D02*
D03*
X136000Y333853D02*
D03*
X126000D02*
D03*
X171995Y307500D02*
D03*
Y317500D02*
D03*
X461500Y191499D02*
D03*
X451500D02*
D03*
X441500D02*
D03*
X451500Y201499D02*
D03*
X567000Y172000D02*
D03*
X557000D02*
D03*
X547000D02*
D03*
X566983Y185000D02*
D03*
X556983D02*
D03*
X546983D02*
D03*
X459000Y315917D02*
D03*
Y305917D02*
D03*
Y295917D02*
D03*
X449000D02*
D03*
Y305917D02*
D03*
Y315917D02*
D03*
X45000Y333853D02*
D03*
X55000D02*
D03*
X451500Y174000D02*
D03*
X441500Y164000D02*
D03*
X451500D02*
D03*
X461500D02*
D03*
X793000Y64000D02*
D03*
Y54000D02*
D03*
Y44000D02*
D03*
X767000Y46000D02*
D03*
X757000D02*
D03*
X1131500Y130289D02*
D03*
Y140289D02*
D03*
X1092500Y120000D02*
D03*
X1102500D02*
D03*
X1082500D02*
D03*
X1072500D02*
D03*
X1112500D02*
D03*
X1122500D02*
D03*
X1062500D02*
D03*
Y110000D02*
D03*
X1072500D02*
D03*
X1082500D02*
D03*
X1092500D02*
D03*
X1102500D02*
D03*
X1112500D02*
D03*
X1122500D02*
D03*
X1210000Y171500D02*
D03*
X1200000D02*
D03*
X1190000D02*
D03*
X1238500Y158500D02*
D03*
X1248500D02*
D03*
X1258500D02*
D03*
X1210000D02*
D03*
X1200000D02*
D03*
X1190000D02*
D03*
X1238500Y171500D02*
D03*
X1248500D02*
D03*
X1258500D02*
D03*
X1417500Y58000D02*
D03*
Y68000D02*
D03*
D121*
X1695000Y21308D02*
D03*
Y84300D02*
D03*
X1691909Y62292D02*
D03*
X1634016Y107292D02*
D03*
X1579016D02*
D03*
X1524016D02*
D03*
X1466024Y75284D02*
D03*
X1462933Y100284D02*
D03*
Y21308D02*
D03*
D122*
X1474016Y39300D02*
D03*
X1684016D02*
D03*
D123*
X1013500Y4752D02*
D03*
X1003500D02*
D03*
X1013500Y34752D02*
D03*
X1003500D02*
D03*
D124*
X1422500Y171500D02*
D03*
X1417500Y364000D02*
D03*
X1681000Y171500D02*
D03*
X954454Y145500D02*
D03*
X656000Y22000D02*
D03*
X23000Y506000D02*
D03*
X1681000D02*
D03*
X17000Y201499D02*
D03*
X615000Y430000D02*
D03*
X1135000Y506000D02*
D03*
X1169500Y221500D02*
D03*
D125*
X497996Y421307D02*
D03*
X441881Y421307D02*
D03*
X385767D02*
D03*
D126*
X497996Y401607D02*
D03*
X441881Y401607D02*
D03*
X385767D02*
D03*
X55000Y358381D02*
D03*
Y368381D02*
D03*
Y378381D02*
D03*
Y388381D02*
D03*
Y408381D02*
D03*
Y418381D02*
D03*
Y428381D02*
D03*
X136000Y358381D02*
D03*
Y368381D02*
D03*
Y378381D02*
D03*
Y388381D02*
D03*
Y408381D02*
D03*
Y418381D02*
D03*
Y428381D02*
D03*
D127*
X519700Y43900D02*
D03*
X530600D02*
D03*
X552400D02*
D03*
X541500D02*
D03*
X585100D02*
D03*
X596000D02*
D03*
X574200D02*
D03*
X563300D02*
D03*
X525150Y32700D02*
D03*
X536050D02*
D03*
X557850D02*
D03*
X546950D02*
D03*
X590550D02*
D03*
X579650D02*
D03*
X568750D02*
D03*
X546950Y59300D02*
D03*
X536050D02*
D03*
X525150D02*
D03*
X568750D02*
D03*
X557850D02*
D03*
X579650D02*
D03*
X590550D02*
D03*
X563300Y70500D02*
D03*
X574200D02*
D03*
X596000D02*
D03*
X585100D02*
D03*
X541500D02*
D03*
X552400D02*
D03*
X530600D02*
D03*
X519700D02*
D03*
X359967Y43900D02*
D03*
X370867D02*
D03*
X392667D02*
D03*
X381767D02*
D03*
X425367D02*
D03*
X436267D02*
D03*
X414467D02*
D03*
X403567D02*
D03*
X365417Y32700D02*
D03*
X376317D02*
D03*
X398117D02*
D03*
X387217D02*
D03*
X430817D02*
D03*
X419917D02*
D03*
X409017D02*
D03*
X387217Y59300D02*
D03*
X376317D02*
D03*
X365417D02*
D03*
X409017D02*
D03*
X398117D02*
D03*
X419917D02*
D03*
X430817D02*
D03*
X403567Y70500D02*
D03*
X414467D02*
D03*
X436267D02*
D03*
X425367D02*
D03*
X381767D02*
D03*
X392667D02*
D03*
X370867D02*
D03*
X359967D02*
D03*
X200233Y43900D02*
D03*
X211133D02*
D03*
X232933D02*
D03*
X222033D02*
D03*
X265633D02*
D03*
X276533D02*
D03*
X254733D02*
D03*
X243833D02*
D03*
X205683Y32700D02*
D03*
X216583D02*
D03*
X238383D02*
D03*
X227483D02*
D03*
X271083D02*
D03*
X260183D02*
D03*
X249283D02*
D03*
X227483Y59300D02*
D03*
X216583D02*
D03*
X205683D02*
D03*
X249283D02*
D03*
X238383D02*
D03*
X260183D02*
D03*
X271083D02*
D03*
X243833Y70500D02*
D03*
X254733D02*
D03*
X276533D02*
D03*
X265633D02*
D03*
X222033D02*
D03*
X232933D02*
D03*
X211133D02*
D03*
X200233D02*
D03*
X40500Y43900D02*
D03*
X51400D02*
D03*
X73200D02*
D03*
X62300D02*
D03*
X105900D02*
D03*
X116800D02*
D03*
X95000D02*
D03*
X84100D02*
D03*
X45950Y32700D02*
D03*
X56850D02*
D03*
X78650D02*
D03*
X67750D02*
D03*
X111350D02*
D03*
X100450D02*
D03*
X89550D02*
D03*
X67750Y59300D02*
D03*
X56850D02*
D03*
X45950D02*
D03*
X89550D02*
D03*
X78650D02*
D03*
X100450D02*
D03*
X111350D02*
D03*
X84100Y70500D02*
D03*
X95000D02*
D03*
X116800D02*
D03*
X105900D02*
D03*
X62300D02*
D03*
X73200D02*
D03*
X51400D02*
D03*
X40500D02*
D03*
X1188800Y44000D02*
D03*
X1199700D02*
D03*
X1221500D02*
D03*
X1210600D02*
D03*
X1254200D02*
D03*
X1265100D02*
D03*
X1243300D02*
D03*
X1232400D02*
D03*
X1194250Y32800D02*
D03*
X1205150D02*
D03*
X1226950D02*
D03*
X1216050D02*
D03*
X1259650D02*
D03*
X1248750D02*
D03*
X1237850D02*
D03*
X1216050Y59400D02*
D03*
X1205150D02*
D03*
X1194250D02*
D03*
X1237850D02*
D03*
X1226950D02*
D03*
X1248750D02*
D03*
X1259650D02*
D03*
X1232400Y70600D02*
D03*
X1243300D02*
D03*
X1265100D02*
D03*
X1254200D02*
D03*
X1210600D02*
D03*
X1221500D02*
D03*
X1199700D02*
D03*
X1188800D02*
D03*
D128*
X492250Y32700D02*
D03*
Y64200D02*
D03*
X623450D02*
D03*
Y32700D02*
D03*
X332517D02*
D03*
Y64200D02*
D03*
X463717D02*
D03*
Y32700D02*
D03*
X172783D02*
D03*
Y64200D02*
D03*
X303983D02*
D03*
Y32700D02*
D03*
X13050D02*
D03*
Y64200D02*
D03*
X144250D02*
D03*
Y32700D02*
D03*
X1161350Y32800D02*
D03*
Y64300D02*
D03*
X1292550D02*
D03*
Y32800D02*
D03*
D129*
X1331807Y37500D02*
D03*
X1430193D02*
D03*
D130*
X979441Y22563D02*
D03*
X951842D02*
D03*
X875941Y22302D02*
D03*
X848343D02*
D03*
D131*
X683900Y39303D02*
D03*
Y29303D02*
D03*
Y19303D02*
D03*
X743100Y29303D02*
D03*
Y19303D02*
D03*
X515660Y509000D02*
D03*
X535345D02*
D03*
X430158D02*
D03*
X449843D02*
D03*
X473158D02*
D03*
X492842D02*
D03*
D132*
X733500Y80303D02*
D03*
X725508D02*
D03*
X717508D02*
D03*
X693508D02*
D03*
X701508D02*
D03*
X709500D02*
D03*
X729500Y90303D02*
D03*
X721500D02*
D03*
X737500D02*
D03*
X705500D02*
D03*
X697500D02*
D03*
X689500D02*
D03*
D133*
X748100Y54303D02*
D03*
X678900D02*
D03*
D134*
X1034831Y274289D02*
D03*
X664831Y469289D02*
D03*
Y274289D02*
D03*
X1034831Y469289D02*
D03*
D135*
X936831Y284339D02*
D03*
Y459339D02*
D03*
X690831Y458789D02*
D03*
D136*
X229101Y425717D02*
D03*
X249101D02*
D03*
X279101D02*
D03*
Y345717D02*
D03*
X239101D02*
D03*
X199101D02*
D03*
D140*
X1579728Y293360D02*
D03*
Y298360D02*
D03*
Y303360D02*
D03*
Y308360D02*
D03*
Y313360D02*
D03*
Y318360D02*
D03*
Y323360D02*
D03*
X1601185Y293360D02*
D03*
Y298360D02*
D03*
Y303360D02*
D03*
Y308360D02*
D03*
Y313360D02*
D03*
Y318360D02*
D03*
Y323360D02*
D03*
X1515221Y182691D02*
D03*
Y187691D02*
D03*
Y192691D02*
D03*
Y197691D02*
D03*
Y202691D02*
D03*
Y207691D02*
D03*
Y212691D02*
D03*
X1536677Y182691D02*
D03*
Y187691D02*
D03*
Y192691D02*
D03*
Y197691D02*
D03*
Y202691D02*
D03*
Y207691D02*
D03*
Y212691D02*
D03*
X1600228Y213106D02*
D03*
Y208106D02*
D03*
Y203106D02*
D03*
Y198106D02*
D03*
Y193106D02*
D03*
Y188106D02*
D03*
Y183106D02*
D03*
X1578772Y213106D02*
D03*
Y208106D02*
D03*
Y203106D02*
D03*
Y198106D02*
D03*
Y193106D02*
D03*
Y188106D02*
D03*
Y183106D02*
D03*
X1495975Y322881D02*
D03*
Y317881D02*
D03*
Y312881D02*
D03*
Y307881D02*
D03*
Y302881D02*
D03*
Y297881D02*
D03*
Y292881D02*
D03*
X1474518Y322881D02*
D03*
Y317881D02*
D03*
Y312881D02*
D03*
Y307881D02*
D03*
Y302881D02*
D03*
Y297881D02*
D03*
Y292881D02*
D03*
X1495575Y212642D02*
D03*
Y207642D02*
D03*
Y202642D02*
D03*
Y197642D02*
D03*
Y192642D02*
D03*
Y187642D02*
D03*
Y182642D02*
D03*
X1474118Y212642D02*
D03*
Y207642D02*
D03*
Y202642D02*
D03*
Y197642D02*
D03*
Y192642D02*
D03*
Y187642D02*
D03*
Y182642D02*
D03*
X1620831Y293408D02*
D03*
Y298408D02*
D03*
Y303408D02*
D03*
Y308408D02*
D03*
Y313408D02*
D03*
Y318408D02*
D03*
Y323408D02*
D03*
X1642287Y293408D02*
D03*
Y298408D02*
D03*
Y303408D02*
D03*
Y308408D02*
D03*
Y313408D02*
D03*
Y318408D02*
D03*
Y323408D02*
D03*
X1619874Y183155D02*
D03*
Y188155D02*
D03*
Y193155D02*
D03*
Y198155D02*
D03*
Y203155D02*
D03*
Y208155D02*
D03*
Y213155D02*
D03*
X1641331Y183155D02*
D03*
Y188155D02*
D03*
Y193155D02*
D03*
Y198155D02*
D03*
Y203155D02*
D03*
Y208155D02*
D03*
Y213155D02*
D03*
X1515621Y292929D02*
D03*
Y297929D02*
D03*
Y302929D02*
D03*
Y307929D02*
D03*
Y312929D02*
D03*
Y317929D02*
D03*
Y322929D02*
D03*
X1537077Y292929D02*
D03*
Y297929D02*
D03*
Y302929D02*
D03*
Y307929D02*
D03*
Y312929D02*
D03*
Y317929D02*
D03*
Y322929D02*
D03*
D141*
X1387933Y270657D02*
D03*
X1395413D02*
D03*
Y260343D02*
D03*
X1391673D02*
D03*
X1387933D02*
D03*
X1336433Y269855D02*
D03*
X1343913D02*
D03*
Y259541D02*
D03*
X1340173D02*
D03*
X1336433D02*
D03*
X1337227Y218158D02*
D03*
X1344707D02*
D03*
Y207842D02*
D03*
X1340967D02*
D03*
X1337227D02*
D03*
X1387227Y221071D02*
D03*
X1394707D02*
D03*
Y210756D02*
D03*
X1390967D02*
D03*
X1387227D02*
D03*
D142*
X1543988Y479496D02*
D03*
Y472016D02*
D03*
X1535524Y475756D02*
D03*
X1608088Y479096D02*
D03*
Y471616D02*
D03*
X1599624Y475356D02*
D03*
D143*
X1512500Y124500D02*
D03*
X1528071D02*
D03*
X1543000Y139300D02*
D03*
X1527429D02*
D03*
X1480716Y124500D02*
D03*
X1496287D02*
D03*
X1512000Y139300D02*
D03*
X1496429D02*
D03*
X1544000Y124500D02*
D03*
X1559571D02*
D03*
X1575000Y139000D02*
D03*
X1559429D02*
D03*
X1449209Y124500D02*
D03*
X1464780D02*
D03*
X1480500Y139000D02*
D03*
X1464929D02*
D03*
X1666516Y125523D02*
D03*
X1682087D02*
D03*
X1694000Y139039D02*
D03*
X1678429D02*
D03*
X1606516Y139000D02*
D03*
X1590945D02*
D03*
X1575500Y125500D02*
D03*
X1591071D02*
D03*
X1637000Y139500D02*
D03*
X1621429D02*
D03*
X1606516Y125000D02*
D03*
X1622087D02*
D03*
X1637500Y125200D02*
D03*
X1653071D02*
D03*
X1666500Y139000D02*
D03*
X1650929D02*
D03*
D144*
X1621425Y248072D02*
D03*
Y245513D02*
D03*
Y242954D02*
D03*
Y240395D02*
D03*
Y237836D02*
D03*
Y235277D02*
D03*
Y232718D02*
D03*
X1599575Y248072D02*
D03*
Y245513D02*
D03*
Y242954D02*
D03*
Y240395D02*
D03*
Y237836D02*
D03*
Y235277D02*
D03*
Y232718D02*
D03*
X1517172Y357846D02*
D03*
Y355287D02*
D03*
Y352728D02*
D03*
Y350169D02*
D03*
Y347610D02*
D03*
Y345051D02*
D03*
Y342492D02*
D03*
X1495321Y357846D02*
D03*
Y355287D02*
D03*
Y352728D02*
D03*
Y350169D02*
D03*
Y347610D02*
D03*
Y345051D02*
D03*
Y342492D02*
D03*
X1622382Y358326D02*
D03*
Y355766D02*
D03*
Y353207D02*
D03*
Y350648D02*
D03*
Y348089D02*
D03*
Y345530D02*
D03*
Y342971D02*
D03*
X1600532Y358326D02*
D03*
Y355766D02*
D03*
Y353207D02*
D03*
Y350648D02*
D03*
Y348089D02*
D03*
Y345530D02*
D03*
Y342971D02*
D03*
X1516772Y247608D02*
D03*
Y245049D02*
D03*
Y242490D02*
D03*
Y239931D02*
D03*
Y237372D02*
D03*
Y234813D02*
D03*
Y232254D02*
D03*
X1494921Y247608D02*
D03*
Y245049D02*
D03*
Y242490D02*
D03*
Y239931D02*
D03*
Y237372D02*
D03*
Y234813D02*
D03*
Y232254D02*
D03*
D145*
X978388Y367653D02*
D03*
X971688D02*
D03*
X964988D02*
D03*
X985088D02*
D03*
X991788D02*
D03*
X284741Y284000D02*
D03*
X278041D02*
D03*
X271341D02*
D03*
X291441D02*
D03*
X298141D02*
D03*
X330100Y283565D02*
D03*
X323400D02*
D03*
X316700D02*
D03*
X336800D02*
D03*
X343500D02*
D03*
X890002Y367653D02*
D03*
X883302D02*
D03*
X876602D02*
D03*
X896702D02*
D03*
X903402D02*
D03*
X374600Y283565D02*
D03*
X367900D02*
D03*
X361200D02*
D03*
X381300D02*
D03*
X388000D02*
D03*
D146*
X978388Y402153D02*
D03*
X284741Y318500D02*
D03*
X330100Y318065D02*
D03*
X890002Y402153D02*
D03*
X374600Y318065D02*
D03*
D147*
X53949Y170909D02*
D03*
X51390D02*
D03*
X48831D02*
D03*
X46272D02*
D03*
X56508D02*
D03*
X59067D02*
D03*
X61626D02*
D03*
X66744D02*
D03*
X64185D02*
D03*
X69303D02*
D03*
Y192760D02*
D03*
X64185D02*
D03*
X66744D02*
D03*
X61626D02*
D03*
X59067D02*
D03*
X56508D02*
D03*
X46272D02*
D03*
X48831D02*
D03*
X51390D02*
D03*
X53949D02*
D03*
X170272Y170909D02*
D03*
X167713D02*
D03*
X165154D02*
D03*
X162594D02*
D03*
X172831D02*
D03*
X175390D02*
D03*
X177949D02*
D03*
X183067D02*
D03*
X180508D02*
D03*
X185626D02*
D03*
Y192760D02*
D03*
X180508D02*
D03*
X183067D02*
D03*
X177949D02*
D03*
X175390D02*
D03*
X172831D02*
D03*
X162594D02*
D03*
X165154D02*
D03*
X167713D02*
D03*
X170272D02*
D03*
X283154Y170909D02*
D03*
X280594D02*
D03*
X278035D02*
D03*
X275476D02*
D03*
X285713D02*
D03*
X288272D02*
D03*
X290831D02*
D03*
X295949D02*
D03*
X293390D02*
D03*
X298508D02*
D03*
Y192760D02*
D03*
X293390D02*
D03*
X295949D02*
D03*
X290831D02*
D03*
X288272D02*
D03*
X285713D02*
D03*
X275476D02*
D03*
X278035D02*
D03*
X280594D02*
D03*
X283154D02*
D03*
X398772Y170150D02*
D03*
X396213D02*
D03*
X393653D02*
D03*
X391094D02*
D03*
X401331D02*
D03*
X403890D02*
D03*
X406449D02*
D03*
X411567D02*
D03*
X409008D02*
D03*
X414126D02*
D03*
Y192000D02*
D03*
X409008D02*
D03*
X411567D02*
D03*
X406449D02*
D03*
X403890D02*
D03*
X401331D02*
D03*
X391094D02*
D03*
X393653D02*
D03*
X396213D02*
D03*
X398772D02*
D03*
X509680Y170909D02*
D03*
X507120D02*
D03*
X504561D02*
D03*
X502002D02*
D03*
X512239D02*
D03*
X514798D02*
D03*
X517357D02*
D03*
X522475D02*
D03*
X519916D02*
D03*
X525034D02*
D03*
Y192760D02*
D03*
X519916D02*
D03*
X522475D02*
D03*
X517357D02*
D03*
X514798D02*
D03*
X512239D02*
D03*
X502002D02*
D03*
X504561D02*
D03*
X507120D02*
D03*
X509680D02*
D03*
X629501Y164650D02*
D03*
X626942D02*
D03*
X624383D02*
D03*
X621824D02*
D03*
X632061D02*
D03*
X634620D02*
D03*
X637179D02*
D03*
X642297D02*
D03*
X639738D02*
D03*
X644856D02*
D03*
Y186500D02*
D03*
X639738D02*
D03*
X642297D02*
D03*
X637179D02*
D03*
X634620D02*
D03*
X632061D02*
D03*
X621824D02*
D03*
X624383D02*
D03*
X626942D02*
D03*
X629501D02*
D03*
D148*
X816973Y74079D02*
D03*
X826815D02*
D03*
Y83921D02*
D03*
X816973D02*
D03*
D149*
X824847Y72898D02*
D03*
X822878D02*
D03*
X820910D02*
D03*
X818941D02*
D03*
X824847Y85084D02*
D03*
X822878D02*
D03*
X820910D02*
D03*
X818941D02*
D03*
D150*
X827978Y76047D02*
D03*
Y78016D02*
D03*
Y79984D02*
D03*
Y81953D02*
D03*
X815792D02*
D03*
Y79984D02*
D03*
Y78016D02*
D03*
Y76047D02*
D03*
D151*
X821894Y79000D02*
D03*
D152*
X825260Y36059D02*
D03*
Y30941D02*
D03*
X832740Y36059D02*
D03*
Y33500D02*
D03*
Y30941D02*
D03*
X784760Y37559D02*
D03*
Y32441D02*
D03*
X792240Y37559D02*
D03*
Y35000D02*
D03*
Y32441D02*
D03*
X521078Y500059D02*
D03*
Y494941D02*
D03*
X528558Y500059D02*
D03*
Y497500D02*
D03*
Y494941D02*
D03*
D153*
X1093859Y132260D02*
D03*
X1098977D02*
D03*
X1093859Y139740D02*
D03*
X1096418D02*
D03*
X1098977D02*
D03*
D154*
X924571Y369213D02*
D03*
Y366653D02*
D03*
Y364094D02*
D03*
X932051D02*
D03*
Y366653D02*
D03*
Y369213D02*
D03*
M02*
