G04*
G04 #@! TF.GenerationSoftware,Altium Limited,Altium Designer,18.1.9 (240)*
G04*
G04 Layer_Color=16711935*
%FSLAX25Y25*%
%MOIN*%
G70*
G01*
G75*
%ADD11C,0.01000*%
%ADD15C,0.00394*%
%ADD18C,0.00100*%
D11*
X522996Y411307D02*
G03*
X522996Y411307I-25000J0D01*
G01*
X466881Y411307D02*
G03*
X466881Y411307I-25000J0D01*
G01*
X410767D02*
G03*
X410767Y411307I-25000J0D01*
G01*
D15*
X1519213Y124500D02*
X1520787D01*
X1520000Y123713D02*
Y125287D01*
X1534713Y139300D02*
X1536287D01*
X1535500Y138513D02*
Y140087D01*
X1487428Y124500D02*
X1489003D01*
X1488216Y123713D02*
Y125287D01*
X1503713Y139300D02*
X1505287D01*
X1504500Y138513D02*
Y140087D01*
X1550713Y124500D02*
X1552287D01*
X1551500Y123713D02*
Y125287D01*
X1566713Y139000D02*
X1568287D01*
X1567500Y138213D02*
Y139787D01*
X1455922Y124500D02*
X1457497D01*
X1456709Y123713D02*
Y125287D01*
X1472213Y139000D02*
X1473787D01*
X1473000Y138213D02*
Y139787D01*
X1673228Y125523D02*
X1674803D01*
X1674016Y124735D02*
Y126310D01*
X1685713Y139039D02*
X1687287D01*
X1686500Y138251D02*
Y139826D01*
X1598228Y139000D02*
X1599803D01*
X1599016Y138213D02*
Y139787D01*
X1582213Y125500D02*
X1583787D01*
X1583000Y124713D02*
Y126287D01*
X1628713Y139500D02*
X1630287D01*
X1629500Y138713D02*
Y140287D01*
X1613228Y125000D02*
X1614803D01*
X1614016Y124213D02*
Y125787D01*
X1644213Y125200D02*
X1645787D01*
X1645000Y124413D02*
Y125987D01*
X1658213Y139000D02*
X1659787D01*
X1659000Y138213D02*
Y139787D01*
D18*
X0Y525000D02*
X1700000D01*
Y0D02*
Y525000D01*
X0Y0D02*
X1700000D01*
X0D02*
Y525000D01*
M02*
