G04*
G04 #@! TF.GenerationSoftware,Altium Limited,Altium Designer,18.1.9 (240)*
G04*
G04 Layer_Color=8388736*
%FSLAX25Y25*%
%MOIN*%
G70*
G01*
G75*
%ADD20O,0.02572X0.06706*%
%ADD21R,0.05131X0.03162*%
%ADD22R,0.04540X0.04540*%
%ADD23R,0.04540X0.04540*%
%ADD24C,0.08674*%
%ADD25C,0.12611*%
%ADD26C,0.25800*%
%ADD27C,0.20485*%
%ADD28C,0.07493*%
%ADD29C,0.03000*%
D20*
X412957Y358417D02*
D03*
X410398D02*
D03*
X407839D02*
D03*
X405279D02*
D03*
X402720D02*
D03*
X400161D02*
D03*
X397602D02*
D03*
X395043D02*
D03*
X412957Y335583D02*
D03*
X410398D02*
D03*
X407839D02*
D03*
X405279D02*
D03*
X402720D02*
D03*
X400161D02*
D03*
X397602D02*
D03*
X395043D02*
D03*
D21*
X358882Y358240D02*
D03*
Y354500D02*
D03*
Y350760D02*
D03*
X369118D02*
D03*
Y358240D02*
D03*
D22*
X606653Y222500D02*
D03*
X613346D02*
D03*
X456653D02*
D03*
X463346D02*
D03*
X306653D02*
D03*
X313347D02*
D03*
X156653D02*
D03*
X163347D02*
D03*
X606653Y247500D02*
D03*
X613346D02*
D03*
X456653D02*
D03*
X463346D02*
D03*
X306653D02*
D03*
X313347D02*
D03*
X156653D02*
D03*
X163347D02*
D03*
X613346Y215000D02*
D03*
X606653D02*
D03*
X463346D02*
D03*
X456653D02*
D03*
X313347D02*
D03*
X306653D02*
D03*
X163347D02*
D03*
X156653D02*
D03*
X613346Y255000D02*
D03*
X606653D02*
D03*
X463346D02*
D03*
X456653D02*
D03*
X313347D02*
D03*
X306653D02*
D03*
X163347D02*
D03*
X156653D02*
D03*
X397630Y371500D02*
D03*
X390937D02*
D03*
X397630Y380000D02*
D03*
X390937D02*
D03*
X376346Y341500D02*
D03*
X369654D02*
D03*
D23*
X377500Y351654D02*
D03*
Y358347D02*
D03*
D24*
X610000Y160000D02*
D03*
X460000D02*
D03*
X310000D02*
D03*
X160000D02*
D03*
X610000Y310000D02*
D03*
X460000D02*
D03*
X310000D02*
D03*
X160000D02*
D03*
D25*
X597677Y172323D02*
D03*
X622323D02*
D03*
Y147677D02*
D03*
X597677D02*
D03*
X447677Y172323D02*
D03*
X472323D02*
D03*
Y147677D02*
D03*
X447677D02*
D03*
X297677Y172323D02*
D03*
X322323D02*
D03*
Y147677D02*
D03*
X297677D02*
D03*
X147677Y172323D02*
D03*
X172323D02*
D03*
Y147677D02*
D03*
X147677D02*
D03*
X597677Y322323D02*
D03*
X622323D02*
D03*
Y297677D02*
D03*
X597677D02*
D03*
X447677Y322323D02*
D03*
X472323D02*
D03*
Y297677D02*
D03*
X447677D02*
D03*
X297677Y322323D02*
D03*
X322323D02*
D03*
Y297677D02*
D03*
X297677D02*
D03*
X147677Y322323D02*
D03*
X172323D02*
D03*
Y297677D02*
D03*
X147677D02*
D03*
D26*
X645000Y425000D02*
D03*
Y125000D02*
D03*
X125000Y425000D02*
D03*
Y125000D02*
D03*
D27*
X450551Y412500D02*
D03*
X319449D02*
D03*
D28*
X346831Y406910D02*
D03*
X357736D02*
D03*
X368642D02*
D03*
X379547D02*
D03*
X423169D02*
D03*
X412264D02*
D03*
X401358D02*
D03*
X390453D02*
D03*
X395905Y418090D02*
D03*
X406811D02*
D03*
X417717D02*
D03*
X385000D02*
D03*
X374095D02*
D03*
X363189D02*
D03*
X352283D02*
D03*
D29*
X425000Y353500D02*
D03*
X431500Y352000D02*
D03*
X415000Y342035D02*
D03*
X407500Y325000D02*
D03*
X400500D02*
D03*
X410398Y328000D02*
D03*
X398000Y328500D02*
D03*
X401000Y348000D02*
D03*
X398000Y351000D02*
D03*
X399500Y342500D02*
D03*
X422000Y368500D02*
D03*
X410398Y343898D02*
D03*
X386500Y371500D02*
D03*
Y380000D02*
D03*
X353500Y354500D02*
D03*
X378394Y346500D02*
D03*
X383000Y353000D02*
D03*
M02*
