M48
;Layer_Color=9474304
;FILE_FORMAT=2:5
INCH,LZ
;TYPE=PLATED
T1F00S00C0.01000
T2F00S00C0.03937
T3F00S00C0.04331
T4F00S00C0.06299
T5F00S00C0.12008
T6F00S00C0.12500
%
T01
X03535Y03545
X0383Y0353
X0378394Y03465
X0401Y0348
X0398Y0351
X03995Y03425
X0410398Y0343898
X0415Y0342035
X0410398Y0328
X04075Y0325
X04005
X0398Y03285
X0425Y03535
X04315Y0352
X0422Y03685
X03865Y03715
Y038
T02
X0346831Y040691
X0357736
X0368642
X0379547
X0390453
X0401358
X0412264
X0423169
X0417717Y041809
X0406811
X0395905
X0385
X0374095
X0363189
X0352283
T03
X061Y016
Y031
X046
Y016
X031
X016
Y031
X031
T04
X0147677Y0147677
X0172323
X0297677
X0322323
X0447677
X0472323
X0597677
X0622323
Y0172323
X0597677
X0472323
Y0297677
X0597677
X0622323
X0447677
Y0172323
X0322323
Y0297677
X0297677
Y0172323
X0172323
Y0297677
X0147677
Y0172323
Y0322323
X0172323
X0297677
X0322323
X0447677
X0472323
X0597677
X0622323
T05
X0319449Y04125
X0450551
T06
X0125Y0125
X0645
X0125Y0425
X0645
M30
