M48
;Layer_Color=9474304
;FILE_FORMAT=2:5
INCH,LZ
;TYPE=PLATED
T1F00S00C0.01400
T2F00S00C0.01575
T3F00S00C0.03543
T4F00S00C0.03937
T5F00S00C0.04016
T6F00S00C0.05118
T7F00S00C0.05200
T8F00S00C0.08500
T9F00S00C0.12598
T10F00S00C0.15000
%
T01
X0310157Y0114094
X030875Y012
X0310157Y0125906
X0314094Y0129842
X032Y013125
X0325905Y0129842
X0329842Y0125906
X033125Y012
X0329842Y0114094
X0325905Y0110158
X032Y010875
X0314094Y0110158
X0554Y0112
X0668157Y0114094
X066675Y012
X0668157Y0125906
X0672094Y0129842
X0678Y013125
X0683906Y0129842
X0687843Y0125906
X068925Y012
X0687843Y0114094
X0683906Y0110158
X0678Y010875
X0672094Y0110158
X06805Y0295
X0689
X0627Y0297
Y0307
X0569
X0556575Y0257
X0596Y0244
X0604Y0232
Y0214
X0588Y0218
X0583Y0185
X0564
X0555Y017
X0481Y0179
X0471Y0181
X0474Y0174
Y0224
X0459Y0204
Y0194
X0439Y0177
X0419Y0194
Y0204
X0398Y0192
X0404Y0174
Y0224
X0419Y0276
Y0282
X0446Y0269
Y0261
X0459Y0276
Y0282
Y0313
Y0325
X0466
Y0319
X0419Y0316
Y0325
X0404Y0374
X0398Y0392
X0419Y0394
Y0404
X041Y0417
X0397
X0404Y0424
X0439Y0421
X0468Y0418
X0459Y0404
Y0394
X0325905Y0468157
X032Y046675
X0314094Y0468157
X0471Y0421
X0474Y0424
Y0374
X0549Y0371
X0555Y0374
X0553Y0364
X0571Y0384
X0576Y0382
X0569Y0407
Y0419
X0599Y0344
X0559Y0317424
X0627Y0317
X0629Y0348
Y0402
Y0408
X0634Y0426
Y0431
Y0435961
Y0451
X065Y0421
X0653Y0417
X0676734Y0410734
X0683Y0408
X069Y0409
X0689Y0393
X068
X0678Y046675
X0672094Y0468157
X0683906
X0687843Y0472094
X068925Y0478
X0687843Y0483906
X0683906Y0487843
X0678Y048925
X0672094Y0487843
X0668157Y0483906
X066675Y0478
X0668157Y0472094
X0329842
X033125Y0478
X0329842Y0483906
X0325905Y0487843
X032Y048925
X0314094Y0487843
X0310157Y0483906
X030875Y0478
X0310157Y0472094
T02
X0584Y023
T03
X0639Y0325095
Y0334071
Y0343047
Y0352024
Y0361
X0649Y0356512
Y0365488
X0659Y0361
Y0352024
Y0343047
Y0334071
Y0325095
X0649Y0329583
Y0338559
Y0347535
T04
X0628Y0182
Y0192
Y0202
Y0212
X0674257Y0212018
Y0202018
Y0182018
Y0172018
X0674Y0162
T05
X0653Y0249
X0663
X0673
Y0263
X0663
X0653
X06Y0409
X059
X058
Y0423
X059
X06
Y0437
X059
X058
Y0451
X059
X06
Y0465
X059
X058
Y0479
X059
X06
T06
X0321Y0150575
Y017026
Y0189945
Y020963
Y0229315
Y0249
Y0350575
Y037026
Y0389945
Y040963
Y0429315
Y0449
T07
X0369Y0149
X0509
Y0249
X0369
Y0349
Y0449
X0509
Y0349
T08
X03555Y01355
X03825
X04955
X05225
Y01625
X04955
Y02355
X05225
Y02625
X04955
X03825
Y02355
X03555
Y02625
Y01625
X03825
Y03355
Y03625
X03555
Y03355
Y04355
X03825
Y04625
X03555
X04955
X05225
Y04355
X04955
Y03625
X05225
Y03355
X04955
T09
X0649Y0294858
Y0393244
T10
X032Y012
X0678
Y0478
X032
M30
