G04*
G04 #@! TF.GenerationSoftware,Altium Limited,Altium Designer,22.1.2 (22)*
G04*
G04 Layer_Color=8388736*
%FSLAX25Y25*%
%MOIN*%
G70*
G04*
G04 #@! TF.SameCoordinates,8EC6406F-258D-449A-8705-EE3481E119B6*
G04*
G04*
G04 #@! TF.FilePolarity,Negative*
G04*
G01*
G75*
%ADD26O,0.01890X0.06614*%
%ADD27R,0.09265X0.06706*%
%ADD28R,0.04540X0.04540*%
%ADD29R,0.04737X0.07099*%
%ADD30R,0.04540X0.04540*%
%ADD31O,0.01417X0.03661*%
%ADD32O,0.03661X0.01417*%
%ADD33R,0.03950X0.03950*%
%ADD34R,0.06902X0.04737*%
%ADD35R,0.07099X0.04737*%
%ADD36C,0.06706*%
%ADD37C,0.20485*%
%ADD38C,0.06800*%
%ADD39R,0.06800X0.06800*%
%ADD40C,0.30800*%
%ADD41C,0.03800*%
%ADD42C,0.07099*%
%ADD43C,0.13800*%
%ADD44C,0.08674*%
%ADD45R,0.08674X0.08674*%
%ADD46C,0.09800*%
%ADD47R,0.07099X0.07099*%
D26*
X579957Y390630D02*
D03*
X577398D02*
D03*
X574839D02*
D03*
X572280D02*
D03*
X569721D02*
D03*
X567161D02*
D03*
X564602D02*
D03*
X562043D02*
D03*
X579957Y369370D02*
D03*
X577398D02*
D03*
X574839D02*
D03*
X572280D02*
D03*
X569721D02*
D03*
X567161D02*
D03*
X564602D02*
D03*
X562043D02*
D03*
D27*
X612240Y297000D02*
D03*
Y307000D02*
D03*
Y317000D02*
D03*
Y327000D02*
D03*
Y337000D02*
D03*
Y347000D02*
D03*
X579760Y297000D02*
D03*
Y307000D02*
D03*
Y317000D02*
D03*
Y327000D02*
D03*
Y337000D02*
D03*
Y347000D02*
D03*
D28*
X563654Y399000D02*
D03*
X570346D02*
D03*
X569554Y181942D02*
D03*
X576247D02*
D03*
X598246D02*
D03*
X591553D02*
D03*
X660347Y426000D02*
D03*
X653653D02*
D03*
X660347Y434000D02*
D03*
X653653D02*
D03*
X660347Y442000D02*
D03*
X653653D02*
D03*
D29*
X548000Y430000D02*
D03*
X538000Y395000D02*
D03*
X543000Y412000D02*
D03*
D30*
X601000Y236653D02*
D03*
Y243347D02*
D03*
X684000Y167347D02*
D03*
Y176654D02*
D03*
X610000Y190347D02*
D03*
X619000D02*
D03*
X590000Y250346D02*
D03*
X552575D02*
D03*
X560575D02*
D03*
Y243653D02*
D03*
X552575D02*
D03*
X590000D02*
D03*
X619000Y183653D02*
D03*
X610000D02*
D03*
X619000Y212347D02*
D03*
Y205654D02*
D03*
X684000Y183346D02*
D03*
Y205654D02*
D03*
Y212347D02*
D03*
Y160653D02*
D03*
D31*
X586953Y224193D02*
D03*
X584984D02*
D03*
X583016D02*
D03*
X581047D02*
D03*
Y235807D02*
D03*
X583016D02*
D03*
X584984D02*
D03*
X586953D02*
D03*
D32*
X578193Y232953D02*
D03*
Y229016D02*
D03*
Y227047D02*
D03*
X589807D02*
D03*
Y229016D02*
D03*
Y230984D02*
D03*
Y232953D02*
D03*
X578193Y230984D02*
D03*
D33*
X584000Y230000D02*
D03*
D03*
D34*
X570565Y188643D02*
D03*
X591235D02*
D03*
Y201242D02*
D03*
X570565D02*
D03*
D35*
X459000Y308000D02*
D03*
Y289000D02*
D03*
D36*
X649000Y356512D02*
D03*
X659000Y325095D02*
D03*
X639000Y361000D02*
D03*
X649000Y365488D02*
D03*
Y347535D02*
D03*
Y338559D02*
D03*
Y329583D02*
D03*
X659000Y361000D02*
D03*
Y334071D02*
D03*
Y343047D02*
D03*
Y352024D02*
D03*
X639000D02*
D03*
Y343047D02*
D03*
Y334071D02*
D03*
Y325095D02*
D03*
D37*
X649000Y393244D02*
D03*
Y294858D02*
D03*
D38*
X653000Y263000D02*
D03*
X600000Y409000D02*
D03*
Y423000D02*
D03*
Y437000D02*
D03*
X653000Y249000D02*
D03*
X590000Y437000D02*
D03*
Y423000D02*
D03*
Y409000D02*
D03*
X663000Y263000D02*
D03*
Y249000D02*
D03*
X600000Y479000D02*
D03*
X590000D02*
D03*
X600000Y465000D02*
D03*
X590000D02*
D03*
X600000Y451000D02*
D03*
X590000D02*
D03*
D39*
X673000Y249000D02*
D03*
Y263000D02*
D03*
X580000Y479000D02*
D03*
Y465000D02*
D03*
Y437000D02*
D03*
Y423000D02*
D03*
Y409000D02*
D03*
Y451000D02*
D03*
D40*
X678000Y120000D02*
D03*
X320000D02*
D03*
X678000Y478000D02*
D03*
X320000D02*
D03*
D41*
X678000Y108750D02*
D03*
X668157Y114094D02*
D03*
Y125906D02*
D03*
X678000Y131250D02*
D03*
X687843Y114094D02*
D03*
Y125906D02*
D03*
X666750Y120000D02*
D03*
X672094Y110158D02*
D03*
Y129842D02*
D03*
X683906Y110158D02*
D03*
Y129842D02*
D03*
X689250Y120000D02*
D03*
X320000Y108750D02*
D03*
X310157Y114094D02*
D03*
Y125906D02*
D03*
X320000Y131250D02*
D03*
X329842Y114094D02*
D03*
Y125906D02*
D03*
X308750Y120000D02*
D03*
X314094Y110158D02*
D03*
Y129842D02*
D03*
X325905Y110158D02*
D03*
Y129842D02*
D03*
X331250Y120000D02*
D03*
X678000Y466750D02*
D03*
X668157Y472094D02*
D03*
Y483906D02*
D03*
X678000Y489250D02*
D03*
X687843Y472094D02*
D03*
Y483906D02*
D03*
X666750Y478000D02*
D03*
X672094Y468157D02*
D03*
Y487843D02*
D03*
X683906Y468157D02*
D03*
Y487843D02*
D03*
X689250Y478000D02*
D03*
X320000Y466750D02*
D03*
X310157Y472094D02*
D03*
Y483906D02*
D03*
X320000Y489250D02*
D03*
X329842Y472094D02*
D03*
Y483906D02*
D03*
X308750Y478000D02*
D03*
X314094Y468157D02*
D03*
Y487843D02*
D03*
X325905Y468157D02*
D03*
Y487843D02*
D03*
X331250Y478000D02*
D03*
D42*
X674257Y172018D02*
D03*
X628000Y192000D02*
D03*
Y182000D02*
D03*
Y202000D02*
D03*
X674000Y162000D02*
D03*
X674257Y202018D02*
D03*
Y182018D02*
D03*
D43*
X382500Y435500D02*
D03*
Y462500D02*
D03*
X355500D02*
D03*
Y435500D02*
D03*
X522500Y462500D02*
D03*
Y435500D02*
D03*
X495500D02*
D03*
Y462500D02*
D03*
X382500Y335500D02*
D03*
Y362500D02*
D03*
X355500D02*
D03*
Y335500D02*
D03*
X522500Y362500D02*
D03*
Y335500D02*
D03*
X495500D02*
D03*
Y362500D02*
D03*
X382500Y235500D02*
D03*
Y262500D02*
D03*
X355500D02*
D03*
Y235500D02*
D03*
X522500Y262500D02*
D03*
Y235500D02*
D03*
X495500D02*
D03*
Y262500D02*
D03*
X382500Y135500D02*
D03*
Y162500D02*
D03*
X355500D02*
D03*
Y135500D02*
D03*
X522500Y162500D02*
D03*
Y135500D02*
D03*
X495500D02*
D03*
Y162500D02*
D03*
D44*
X321000Y370260D02*
D03*
Y350575D02*
D03*
Y170260D02*
D03*
Y150575D02*
D03*
Y189945D02*
D03*
Y209630D02*
D03*
Y229315D02*
D03*
Y389945D02*
D03*
Y409630D02*
D03*
Y429315D02*
D03*
D45*
Y249000D02*
D03*
Y449000D02*
D03*
D46*
X509000Y149000D02*
D03*
X369000D02*
D03*
X509000Y249000D02*
D03*
X369000D02*
D03*
X509000Y349000D02*
D03*
X369000D02*
D03*
X509000Y449000D02*
D03*
X369000D02*
D03*
D47*
X628000Y212000D02*
D03*
X674257Y212018D02*
D03*
M02*
