M48
;Layer_Color=9474304
;FILE_FORMAT=2:5
INCH,LZ
;TYPE=PLATED
T1F00S00C0.01500
T2F00S00C0.02800
T3F00S00C0.03500
T4F00S00C0.03543
T5F00S00C0.03600
T7F00S00C0.04331
T8F00S00C0.05000
T9F00S00C0.05118
T10F00S00C0.05512
T11F00S00C0.06200
T12F00S00C0.06299
T13F00S00C0.06400
T14F00S00C0.10500
T15F00S00C0.12598
T16F00S00C0.15000
;TYPE=NON_PLATED
T17F00S00C0.12800
%
T01
X0968095Y0114252
X0974Y0112845
X0979906Y0114252
X0983842Y0118189
X098525Y0124094
X0983842Y013
X0979906Y0133937
X0974Y0135345
X0968095Y0133937
X0964157Y013
X096275Y0124094
X0964157Y0118189
X0674843Y0244094
X067625Y025
X0674843Y0255906
X0670905Y0259842
X0665Y026125
X0659094Y0259842
X0655158Y0255906
X065375Y025
X0655158Y0244094
X0659094Y0240158
X0665Y023875
X0670905Y0240158
X0670342Y0489094
X067175Y0495
X0670342Y0500906
X0666405Y0504843
X06605Y050625
X0654595Y0504843
X0650658Y0500906
X064925Y0495
X0650658Y0489094
X0654595Y0485157
X06605Y048375
X0666405Y0485157
X0665Y069475
X0659094Y0696158
X0655158Y0700095
X065375Y0706
X0655158Y0711905
X0659094Y0715842
X0665Y071725
X0670905Y0715842
X0674843Y0711905
X067625Y0706
X0674843Y0700095
X0670905Y0696158
X0968095
X0974Y069475
X0979906Y0696158
X0983842Y0700095
X098525Y0706
X0983842Y0711905
X0979906Y0715842
X0974Y071725
X0968095Y0715842
X0964157Y0711905
X096275Y0706
X0964157Y0700095
T02
X0792Y0231
X079Y0259
X0915494Y0262
X0764346Y0281446
X07682Y02309
X0747Y0205
X07724Y03514
X0760346Y0399646
X0788Y0378
X0792Y0345
X09Y0433
X079Y0482
X0788Y0519
X0899Y0615
X0759Y0552
X0770075Y0489825
X0836425Y0626375
X0876Y0644
T03
X0668Y014
X0678
X06775Y0156
X06875
X06975
X07075
X0712Y014
X0722
X07125Y0166
X07025
X06925
X06825
X06775Y01805
X06875
X06975
X07075
X07025Y01905
X06925
X06825
X0678Y0206
X0668
X0712
X0722
X07125Y01905
T04
X0797929Y0136
X0806905
X0815882
X0824858
X0833835
X0838323Y0146
X0829346
X082037
X0811394
X0802417
X0797929Y0156
X0806905
X0815882
X0824858
X0833756Y0155842
T05
X079Y06803
Y07
X085
Y06803
T07
X0717677Y0269823
X0714677Y0402677
X0718Y054
T08
X0912Y0229693
Y0243079
X0922Y0249772
Y0236386
Y0223
X07415Y03125
X07315Y04475
X08575
X0912Y0416693
Y0403307
X0922Y041
Y0396614
Y0423386
X08675Y03125
X08575Y05825
X0912Y0584921
Y0598307
X0922Y0605
Y0591614
Y0578228
X07315Y05825
T09
X0979Y0226495
Y024618
X066Y0295158
Y0314843
Y0402157
Y0421842
X0979Y041918
Y0399495
Y0585315
Y0605
X066Y0564843
Y0545157
X0910157Y0709
X0929842
T10
X0705354Y02575
Y0282146
X073
Y02575
X0727Y0390354
Y0415
X0702354
Y0390354
X0705677Y0527677
X0730323
Y0552323
X0705677
T11
X0663Y01845
X0727
T12
X08Y0184
X0826
X0853
X089Y0231
X0784Y0281
X077Y0214
X0723Y0351
X0663Y0356
X0775Y0412
X0885Y04
X089Y0585
X0858Y0618
X078Y0539
X0723Y0485
X0695Y069
T13
X0663Y01515
X0727
T14
X0939Y0187
Y0287
Y036
Y046
Y0542
Y0642
T15
X0767614Y0146
X0866
T16
X0974Y0124094
X0665Y025
X06605Y0495
X0665Y0706
X0974
T17
X067Y01235
X072
M30
