G04*
G04 #@! TF.GenerationSoftware,Altium Limited,Altium Designer,21.2.2 (38)*
G04*
G04 Layer_Physical_Order=2*
G04 Layer_Color=16711680*
%FSLAX25Y25*%
%MOIN*%
G70*
G04*
G04 #@! TF.SameCoordinates,792C9601-BB9D-439A-8D0C-CF73BBC84E9B*
G04*
G04*
G04 #@! TF.FilePolarity,Positive*
G04*
G01*
G75*
%ADD10C,0.01000*%
%ADD29R,0.07000X0.07000*%
%ADD30C,0.07000*%
%ADD35C,0.05600*%
%ADD36R,0.05600X0.05600*%
%ADD47R,0.07000X0.07000*%
%ADD49C,0.08268*%
%ADD50C,0.09449*%
%ADD51C,0.07874*%
%ADD52C,0.14500*%
%ADD53C,0.05500*%
%ADD54C,0.08400*%
%ADD55C,0.08200*%
%ADD56C,0.12800*%
%ADD57C,0.19685*%
%ADD58C,0.05000*%
%ADD59R,0.05000X0.05000*%
%ADD60R,0.07677X0.07677*%
%ADD61C,0.07677*%
%ADD62R,0.07677X0.07677*%
%ADD63C,0.03000*%
%ADD64C,0.30000*%
%ADD65O,0.19685X0.09843*%
%ADD66O,0.17717X0.08858*%
G36*
X998000Y102000D02*
X642000D01*
Y728000D01*
X998000D01*
Y102000D01*
D02*
G37*
%LPC*%
G36*
X934681Y713839D02*
X930343D01*
Y709500D01*
X934681D01*
Y713839D01*
D02*
G37*
G36*
X929343D02*
X925004D01*
Y709500D01*
X929343D01*
Y713839D01*
D02*
G37*
G36*
X975259Y722000D02*
X974500D01*
Y706500D01*
X990000D01*
Y707259D01*
X989606Y709747D01*
X988828Y712142D01*
X987684Y714386D01*
X986204Y716423D01*
X984423Y718204D01*
X982386Y719684D01*
X980142Y720828D01*
X977747Y721606D01*
X975259Y722000D01*
D02*
G37*
G36*
X973500D02*
X972741D01*
X970253Y721606D01*
X967858Y720828D01*
X965614Y719684D01*
X963577Y718204D01*
X961796Y716423D01*
X960316Y714386D01*
X959172Y712142D01*
X958394Y709747D01*
X958000Y707259D01*
Y706500D01*
X973500D01*
Y722000D01*
D02*
G37*
G36*
X666259D02*
X665500D01*
Y706500D01*
X681000D01*
Y707259D01*
X680606Y709747D01*
X679828Y712142D01*
X678684Y714386D01*
X677204Y716423D01*
X675423Y718204D01*
X673386Y719684D01*
X671142Y720828D01*
X668747Y721606D01*
X666259Y722000D01*
D02*
G37*
G36*
X664500D02*
X663741D01*
X661253Y721606D01*
X658858Y720828D01*
X656614Y719684D01*
X654577Y718204D01*
X652796Y716423D01*
X651316Y714386D01*
X650172Y712142D01*
X649394Y709747D01*
X649000Y707259D01*
Y706500D01*
X664500D01*
Y722000D01*
D02*
G37*
G36*
X910742Y713439D02*
X909573D01*
X908444Y713136D01*
X907432Y712552D01*
X906606Y711725D01*
X906021Y710713D01*
X905719Y709584D01*
Y708416D01*
X906021Y707287D01*
X906606Y706275D01*
X907432Y705448D01*
X908444Y704864D01*
X909573Y704561D01*
X910742D01*
X911871Y704864D01*
X912883Y705448D01*
X913709Y706275D01*
X914294Y707287D01*
X914596Y708416D01*
Y709584D01*
X914294Y710713D01*
X913709Y711725D01*
X912883Y712552D01*
X911871Y713136D01*
X910742Y713439D01*
D02*
G37*
G36*
X934681Y708500D02*
X930343D01*
Y704161D01*
X934681D01*
Y708500D01*
D02*
G37*
G36*
X929343D02*
X925004D01*
Y704161D01*
X929343D01*
Y708500D01*
D02*
G37*
G36*
X850500Y703800D02*
X850500D01*
Y700500D01*
X853800D01*
Y700500D01*
X853541Y701467D01*
X853041Y702333D01*
X852333Y703041D01*
X851467Y703541D01*
X850500Y703800D01*
D02*
G37*
G36*
X790500D02*
X790500D01*
Y700500D01*
X793800D01*
Y700500D01*
X793541Y701467D01*
X793041Y702333D01*
X792333Y703041D01*
X791467Y703541D01*
X790500Y703800D01*
D02*
G37*
G36*
X849500D02*
X849500D01*
X848533Y703541D01*
X847667Y703041D01*
X846959Y702333D01*
X846459Y701467D01*
X846200Y700500D01*
Y700500D01*
X849500D01*
Y703800D01*
D02*
G37*
G36*
X789500D02*
X789500D01*
X788533Y703541D01*
X787667Y703041D01*
X786959Y702333D01*
X786459Y701467D01*
X786200Y700500D01*
Y700500D01*
X789500D01*
Y703800D01*
D02*
G37*
G36*
X737429Y701476D02*
X733500D01*
Y696500D01*
X742839D01*
X742719Y697417D01*
X742171Y698738D01*
X741301Y699872D01*
X740167Y700742D01*
X738846Y701289D01*
X737429Y701476D01*
D02*
G37*
G36*
X732500D02*
X728571D01*
X727154Y701289D01*
X725833Y700742D01*
X724699Y699872D01*
X723829Y698738D01*
X723281Y697417D01*
X723161Y696500D01*
X732500D01*
Y701476D01*
D02*
G37*
G36*
X853800Y699500D02*
X850500D01*
Y696200D01*
X850500D01*
X851467Y696459D01*
X852333Y696959D01*
X853041Y697667D01*
X853541Y698533D01*
X853800Y699500D01*
Y699500D01*
D02*
G37*
G36*
X849500D02*
X846200D01*
Y699500D01*
X846459Y698533D01*
X846959Y697667D01*
X847667Y696959D01*
X848533Y696459D01*
X849500Y696200D01*
X849500D01*
Y699500D01*
D02*
G37*
G36*
X793800D02*
X790500D01*
Y696200D01*
X790500D01*
X791467Y696459D01*
X792333Y696959D01*
X793041Y697667D01*
X793541Y698533D01*
X793800Y699500D01*
Y699500D01*
D02*
G37*
G36*
X789500D02*
X786200D01*
Y699500D01*
X786459Y698533D01*
X786959Y697667D01*
X787667Y696959D01*
X788533Y696459D01*
X789500Y696200D01*
X789500D01*
Y699500D01*
D02*
G37*
G36*
X742839Y695500D02*
X733500D01*
Y690524D01*
X737429D01*
X738846Y690711D01*
X740167Y691258D01*
X741301Y692128D01*
X742171Y693262D01*
X742719Y694583D01*
X742839Y695500D01*
D02*
G37*
G36*
X732500D02*
X723161D01*
X723281Y694583D01*
X723829Y693262D01*
X724699Y692128D01*
X725833Y691258D01*
X727154Y690711D01*
X728571Y690524D01*
X732500D01*
Y695500D01*
D02*
G37*
G36*
X990000Y705500D02*
X974500D01*
Y690000D01*
X975259D01*
X977747Y690394D01*
X980142Y691172D01*
X982386Y692316D01*
X984423Y693796D01*
X986204Y695577D01*
X987684Y697614D01*
X988828Y699858D01*
X989606Y702253D01*
X990000Y704741D01*
Y705500D01*
D02*
G37*
G36*
X973500D02*
X958000D01*
Y704741D01*
X958394Y702253D01*
X959172Y699858D01*
X960316Y697614D01*
X961796Y695577D01*
X963577Y693796D01*
X965614Y692316D01*
X967858Y691172D01*
X970253Y690394D01*
X972741Y690000D01*
X973500D01*
Y705500D01*
D02*
G37*
G36*
X681000D02*
X665500D01*
Y690000D01*
X666259D01*
X668747Y690394D01*
X671142Y691172D01*
X673386Y692316D01*
X675423Y693796D01*
X677204Y695577D01*
X678684Y697614D01*
X679828Y699858D01*
X680606Y702253D01*
X681000Y704741D01*
Y705500D01*
D02*
G37*
G36*
X664500D02*
X649000D01*
Y704741D01*
X649394Y702253D01*
X650172Y699858D01*
X651316Y697614D01*
X652796Y695577D01*
X654577Y693796D01*
X656614Y692316D01*
X658858Y691172D01*
X661253Y690394D01*
X663741Y690000D01*
X664500D01*
Y705500D01*
D02*
G37*
G36*
X695623Y694734D02*
X694377D01*
X693173Y694411D01*
X692093Y693788D01*
X691212Y692907D01*
X690589Y691827D01*
X690266Y690623D01*
Y689377D01*
X690589Y688173D01*
X691212Y687093D01*
X692093Y686212D01*
X693173Y685589D01*
X694377Y685266D01*
X695623D01*
X696827Y685589D01*
X697907Y686212D01*
X698788Y687093D01*
X699411Y688173D01*
X699734Y689377D01*
Y690623D01*
X699411Y691827D01*
X698788Y692907D01*
X697907Y693788D01*
X696827Y694411D01*
X695623Y694734D01*
D02*
G37*
G36*
X853400Y683700D02*
X846600D01*
Y676900D01*
X853400D01*
Y683700D01*
D02*
G37*
G36*
X793400D02*
X786600D01*
Y676900D01*
X793400D01*
Y683700D01*
D02*
G37*
G36*
X737921Y677947D02*
X728079D01*
X726637Y677757D01*
X725294Y677201D01*
X724141Y676316D01*
X723256Y675162D01*
X722700Y673819D01*
X722510Y672378D01*
X722700Y670937D01*
X723256Y669593D01*
X724141Y668440D01*
X725294Y667555D01*
X726637Y666999D01*
X728079Y666809D01*
X737921D01*
X739363Y666999D01*
X740706Y667555D01*
X741859Y668440D01*
X742744Y669593D01*
X743300Y670937D01*
X743490Y672378D01*
X743300Y673819D01*
X742744Y675162D01*
X741859Y676316D01*
X740706Y677201D01*
X739363Y677757D01*
X737921Y677947D01*
D02*
G37*
G36*
X876500Y647490D02*
Y644500D01*
X879490D01*
X879261Y645351D01*
X878801Y646149D01*
X878149Y646801D01*
X877351Y647261D01*
X876500Y647490D01*
D02*
G37*
G36*
X875500D02*
X874649Y647261D01*
X873851Y646801D01*
X873199Y646149D01*
X872738Y645351D01*
X872511Y644500D01*
X875500D01*
Y647490D01*
D02*
G37*
G36*
X879490Y643500D02*
X876500D01*
Y640511D01*
X877351Y640738D01*
X878149Y641199D01*
X878801Y641851D01*
X879261Y642649D01*
X879490Y643500D01*
D02*
G37*
G36*
X875500D02*
X872511D01*
X872738Y642649D01*
X873199Y641851D01*
X873851Y641199D01*
X874649Y640738D01*
X875500Y640511D01*
Y643500D01*
D02*
G37*
G36*
X939773Y649850D02*
X938227D01*
X936710Y649548D01*
X935282Y648957D01*
X933996Y648098D01*
X932903Y647004D01*
X932043Y645718D01*
X931452Y644290D01*
X931150Y642773D01*
Y641227D01*
X931452Y639710D01*
X932043Y638282D01*
X932903Y636996D01*
X933996Y635903D01*
X935282Y635043D01*
X936710Y634452D01*
X938227Y634150D01*
X939773D01*
X941290Y634452D01*
X942718Y635043D01*
X944004Y635903D01*
X945098Y636996D01*
X945957Y638282D01*
X946548Y639710D01*
X946850Y641227D01*
Y642773D01*
X946548Y644290D01*
X945957Y645718D01*
X945098Y647004D01*
X944004Y648098D01*
X942718Y648957D01*
X941290Y649548D01*
X939773Y649850D01*
D02*
G37*
G36*
X836833Y629475D02*
X836017D01*
X835229Y629263D01*
X834522Y628855D01*
X833945Y628278D01*
X833537Y627571D01*
X833325Y626783D01*
Y625967D01*
X833537Y625178D01*
X833575Y625111D01*
X797207Y588743D01*
X796964Y588379D01*
X796878Y587950D01*
X796878Y587950D01*
Y216465D01*
X753935Y173522D01*
X687565D01*
X683422Y177665D01*
Y179300D01*
X683922Y179366D01*
X684006Y179052D01*
X684499Y178198D01*
X685197Y177499D01*
X686053Y177006D01*
X687000Y176752D01*
Y180500D01*
Y184248D01*
X686053Y183994D01*
X685197Y183501D01*
X684499Y182802D01*
X684006Y181948D01*
X683922Y181634D01*
X683422Y181700D01*
Y187279D01*
X683793Y187378D01*
X684557Y187819D01*
X685181Y188443D01*
X685622Y189207D01*
X685850Y190059D01*
Y190941D01*
X685622Y191793D01*
X685181Y192557D01*
X684557Y193181D01*
X683793Y193622D01*
X682941Y193850D01*
X682059D01*
X681207Y193622D01*
X680443Y193181D01*
X679819Y192557D01*
X679378Y191793D01*
X679150Y190941D01*
Y190059D01*
X679378Y189207D01*
X679819Y188443D01*
X680443Y187819D01*
X681178Y187395D01*
Y182629D01*
X680678Y182495D01*
X680501Y182802D01*
X679803Y183501D01*
X678947Y183994D01*
X678000Y184248D01*
Y180500D01*
Y176752D01*
X678947Y177006D01*
X679803Y177499D01*
X680501Y178198D01*
X680678Y178505D01*
X681178Y178371D01*
Y177200D01*
X681178Y177200D01*
X681264Y176771D01*
X681507Y176407D01*
X686307Y171607D01*
X686307Y171607D01*
X686671Y171364D01*
X687100Y171278D01*
X687100Y171278D01*
X754400D01*
X754400Y171278D01*
X754829Y171364D01*
X755193Y171607D01*
X798793Y215207D01*
X798793Y215207D01*
X799036Y215571D01*
X799122Y216000D01*
X799122Y216000D01*
Y587485D01*
X835161Y623525D01*
X835229Y623486D01*
X836017Y623275D01*
X836833D01*
X837622Y623486D01*
X838329Y623894D01*
X838906Y624471D01*
X839314Y625178D01*
X839525Y625967D01*
Y626783D01*
X839314Y627571D01*
X838906Y628278D01*
X838329Y628855D01*
X837622Y629263D01*
X836833Y629475D01*
D02*
G37*
G36*
X899500Y618490D02*
Y615500D01*
X902489D01*
X902262Y616351D01*
X901801Y617149D01*
X901149Y617801D01*
X900351Y618261D01*
X899500Y618490D01*
D02*
G37*
G36*
X898500D02*
X897649Y618261D01*
X896851Y617801D01*
X896199Y617149D01*
X895739Y616351D01*
X895510Y615500D01*
X898500D01*
Y618490D01*
D02*
G37*
G36*
X858623Y622734D02*
X857377D01*
X856173Y622411D01*
X855093Y621788D01*
X854212Y620907D01*
X853589Y619827D01*
X853266Y618623D01*
Y617377D01*
X853589Y616173D01*
X854212Y615093D01*
X855093Y614212D01*
X856173Y613589D01*
X857377Y613266D01*
X858623D01*
X859827Y613589D01*
X860907Y614212D01*
X861788Y615093D01*
X862411Y616173D01*
X862734Y617377D01*
Y618623D01*
X862411Y619827D01*
X861788Y620907D01*
X860907Y621788D01*
X859827Y622411D01*
X858623Y622734D01*
D02*
G37*
G36*
X902489Y614500D02*
X899500D01*
Y611511D01*
X900351Y611738D01*
X901149Y612199D01*
X901801Y612851D01*
X902262Y613649D01*
X902489Y614500D01*
D02*
G37*
G36*
X898500D02*
X895510D01*
X895739Y613649D01*
X896199Y612851D01*
X896851Y612199D01*
X897649Y611738D01*
X898500Y611511D01*
Y614500D01*
D02*
G37*
G36*
X926100Y609100D02*
X917900D01*
Y600900D01*
X926100D01*
Y609100D01*
D02*
G37*
G36*
X979584Y609439D02*
X978416D01*
X977287Y609136D01*
X976275Y608552D01*
X975448Y607725D01*
X974864Y606713D01*
X974561Y605584D01*
Y604416D01*
X974864Y603287D01*
X975448Y602275D01*
X976275Y601448D01*
X977287Y600864D01*
X978416Y600561D01*
X979584D01*
X980713Y600864D01*
X981725Y601448D01*
X982552Y602275D01*
X983136Y603287D01*
X983439Y604416D01*
Y605584D01*
X983136Y606713D01*
X982552Y607725D01*
X981725Y608552D01*
X980713Y609136D01*
X979584Y609439D01*
D02*
G37*
G36*
X912540Y602407D02*
X911460D01*
X910417Y602128D01*
X909482Y601588D01*
X908719Y600824D01*
X908179Y599890D01*
X907900Y598847D01*
Y597767D01*
X908179Y596725D01*
X908719Y595790D01*
X909482Y595026D01*
X910417Y594487D01*
X911460Y594207D01*
X912540D01*
X913583Y594487D01*
X914517Y595026D01*
X915281Y595790D01*
X915821Y596725D01*
X916100Y597767D01*
Y598847D01*
X915821Y599890D01*
X915281Y600824D01*
X914517Y601588D01*
X913583Y602128D01*
X912540Y602407D01*
D02*
G37*
G36*
X922592Y596114D02*
X922500D01*
Y592114D01*
X926500D01*
Y592207D01*
X926193Y593351D01*
X925601Y594377D01*
X924763Y595215D01*
X923737Y595808D01*
X922592Y596114D01*
D02*
G37*
G36*
X921500D02*
X921408D01*
X920263Y595808D01*
X919237Y595215D01*
X918399Y594377D01*
X917807Y593351D01*
X917500Y592207D01*
Y592114D01*
X921500D01*
Y596114D01*
D02*
G37*
G36*
X926500Y591114D02*
X922500D01*
Y587114D01*
X922592D01*
X923737Y587421D01*
X924763Y588013D01*
X925601Y588851D01*
X926193Y589877D01*
X926500Y591022D01*
Y591114D01*
D02*
G37*
G36*
X921500D02*
X917500D01*
Y591022D01*
X917807Y589877D01*
X918399Y588851D01*
X919237Y588013D01*
X920263Y587421D01*
X921408Y587114D01*
X921500D01*
Y591114D01*
D02*
G37*
G36*
X983439Y589753D02*
X974561D01*
Y580876D01*
X983439D01*
Y589753D01*
D02*
G37*
G36*
X890623Y589734D02*
X889377D01*
X888173Y589411D01*
X887093Y588788D01*
X886212Y587907D01*
X885589Y586827D01*
X885266Y585623D01*
Y584377D01*
X885589Y583173D01*
X886212Y582093D01*
X887093Y581212D01*
X888173Y580589D01*
X889377Y580266D01*
X890623D01*
X891827Y580589D01*
X892907Y581212D01*
X893788Y582093D01*
X894411Y583173D01*
X894734Y584377D01*
Y585623D01*
X894411Y586827D01*
X893788Y587907D01*
X892907Y588788D01*
X891827Y589411D01*
X890623Y589734D01*
D02*
G37*
G36*
X861600Y586600D02*
X853400D01*
Y578400D01*
X861600D01*
Y586600D01*
D02*
G37*
G36*
X732040D02*
X730960D01*
X729917Y586321D01*
X728982Y585781D01*
X728219Y585017D01*
X727679Y584083D01*
X727400Y583040D01*
Y581960D01*
X727679Y580918D01*
X728219Y579983D01*
X728982Y579219D01*
X729917Y578679D01*
X730960Y578400D01*
X732040D01*
X733082Y578679D01*
X734018Y579219D01*
X734781Y579983D01*
X735321Y580918D01*
X735600Y581960D01*
Y583040D01*
X735321Y584083D01*
X734781Y585017D01*
X734018Y585781D01*
X733082Y586321D01*
X732040Y586600D01*
D02*
G37*
G36*
X922540Y582328D02*
X921460D01*
X920417Y582049D01*
X919483Y581509D01*
X918719Y580746D01*
X918179Y579811D01*
X917900Y578768D01*
Y577689D01*
X918179Y576646D01*
X918719Y575711D01*
X919483Y574948D01*
X920417Y574408D01*
X921460Y574128D01*
X922540D01*
X923582Y574408D01*
X924518Y574948D01*
X925281Y575711D01*
X925821Y576646D01*
X926100Y577689D01*
Y578768D01*
X925821Y579811D01*
X925281Y580746D01*
X924518Y581509D01*
X923582Y582049D01*
X922540Y582328D01*
D02*
G37*
G36*
X664439Y569281D02*
X655561D01*
Y560404D01*
X664439D01*
Y569281D01*
D02*
G37*
G36*
X731076Y558047D02*
X730823D01*
Y552823D01*
X736047D01*
Y553077D01*
X735657Y554532D01*
X734903Y555838D01*
X733838Y556904D01*
X732532Y557657D01*
X731076Y558047D01*
D02*
G37*
G36*
X729823D02*
X729569D01*
X728113Y557657D01*
X726808Y556904D01*
X725742Y555838D01*
X724989Y554532D01*
X724598Y553077D01*
Y552823D01*
X729823D01*
Y558047D01*
D02*
G37*
G36*
X706431D02*
X706177D01*
Y552823D01*
X711402D01*
Y553077D01*
X711012Y554532D01*
X710258Y555838D01*
X709192Y556904D01*
X707887Y557657D01*
X706431Y558047D01*
D02*
G37*
G36*
X705177D02*
X704923D01*
X703468Y557657D01*
X702162Y556904D01*
X701096Y555838D01*
X700343Y554532D01*
X699953Y553077D01*
Y552823D01*
X705177D01*
Y558047D01*
D02*
G37*
G36*
X759408Y555100D02*
X758592D01*
X757803Y554889D01*
X757097Y554481D01*
X756519Y553903D01*
X756111Y553197D01*
X755900Y552408D01*
Y551592D01*
X756111Y550803D01*
X756150Y550736D01*
X744407Y538993D01*
X744164Y538629D01*
X744078Y538200D01*
X744078Y538200D01*
Y426800D01*
X744078Y426800D01*
X744164Y426371D01*
X744407Y426007D01*
X744407Y426007D01*
X745392Y425022D01*
X745407Y425000D01*
X759225Y411182D01*
Y402555D01*
X759150Y402535D01*
X758443Y402127D01*
X757866Y401550D01*
X757458Y400843D01*
X757246Y400055D01*
Y399238D01*
X757269Y399155D01*
X751207Y393093D01*
X750964Y392729D01*
X750878Y392300D01*
X750878Y392300D01*
Y293793D01*
X750878Y293793D01*
X750964Y293364D01*
X751207Y293000D01*
X761496Y282710D01*
X761458Y282643D01*
X761246Y281855D01*
Y281038D01*
X761458Y280250D01*
X761496Y280183D01*
X746207Y264893D01*
X745964Y264529D01*
X745878Y264100D01*
X745878Y264100D01*
Y207909D01*
X745803Y207889D01*
X745097Y207481D01*
X744519Y206903D01*
X744111Y206197D01*
X743900Y205408D01*
Y204592D01*
X744111Y203803D01*
X744519Y203097D01*
X745097Y202519D01*
X745803Y202111D01*
X746592Y201900D01*
X747408D01*
X748197Y202111D01*
X748903Y202519D01*
X749481Y203097D01*
X749889Y203803D01*
X750100Y204592D01*
Y205408D01*
X749889Y206197D01*
X749481Y206903D01*
X748903Y207481D01*
X748197Y207889D01*
X748122Y207909D01*
Y263635D01*
X763083Y278596D01*
X763150Y278558D01*
X763938Y278346D01*
X764754D01*
X765543Y278558D01*
X766250Y278966D01*
X766827Y279543D01*
X767235Y280250D01*
X767446Y281038D01*
Y281855D01*
X767235Y282643D01*
X766827Y283350D01*
X766250Y283927D01*
X765543Y284335D01*
X764754Y284546D01*
X763938D01*
X763150Y284335D01*
X763083Y284296D01*
X753122Y294257D01*
Y391835D01*
X758449Y397163D01*
X759150Y396758D01*
X759938Y396546D01*
X760754D01*
X761543Y396758D01*
X762250Y397166D01*
X762827Y397743D01*
X763235Y398450D01*
X763446Y399238D01*
Y400055D01*
X763235Y400843D01*
X762827Y401550D01*
X762250Y402127D01*
X761543Y402535D01*
X761468Y402555D01*
Y411646D01*
X761468Y411646D01*
X761383Y412076D01*
X761139Y412439D01*
X747808Y425771D01*
X747793Y425793D01*
X746322Y427265D01*
Y537735D01*
X757736Y549150D01*
X757803Y549111D01*
X758592Y548900D01*
X759408D01*
X760197Y549111D01*
X760903Y549519D01*
X761481Y550097D01*
X761889Y550803D01*
X762100Y551592D01*
Y552408D01*
X761889Y553197D01*
X761481Y553903D01*
X760903Y554481D01*
X760197Y554889D01*
X759408Y555100D01*
D02*
G37*
G36*
X736047Y551823D02*
X730823D01*
Y546598D01*
X731076D01*
X732532Y546988D01*
X733838Y547742D01*
X734903Y548808D01*
X735657Y550113D01*
X736047Y551569D01*
Y551823D01*
D02*
G37*
G36*
X729823D02*
X724598D01*
Y551569D01*
X724989Y550113D01*
X725742Y548808D01*
X726808Y547742D01*
X728113Y546988D01*
X729569Y546598D01*
X729823D01*
Y551823D01*
D02*
G37*
G36*
X711402Y551823D02*
X706177D01*
Y546598D01*
X706431D01*
X707887Y546988D01*
X709192Y547742D01*
X710258Y548808D01*
X711012Y550113D01*
X711402Y551569D01*
Y551823D01*
D02*
G37*
G36*
X705177D02*
X699953D01*
Y551569D01*
X700343Y550113D01*
X701096Y548808D01*
X702162Y547742D01*
X703468Y546988D01*
X704923Y546598D01*
X705177D01*
Y551823D01*
D02*
G37*
G36*
X718597Y544537D02*
X717403D01*
X716249Y544228D01*
X715214Y543631D01*
X714369Y542786D01*
X713772Y541751D01*
X713603Y541122D01*
X702000D01*
X702000Y541122D01*
X701571Y541036D01*
X701207Y540793D01*
X690207Y529793D01*
X689964Y529429D01*
X689878Y529000D01*
X689878Y529000D01*
Y424465D01*
X671207Y405793D01*
X670964Y405429D01*
X670878Y405000D01*
X670878Y405000D01*
Y339000D01*
X670878Y339000D01*
X670964Y338571D01*
X671207Y338207D01*
X682878Y326535D01*
Y236465D01*
X656207Y209793D01*
X655964Y209429D01*
X655878Y209000D01*
X655878Y209000D01*
Y176500D01*
X655878Y176500D01*
X655964Y176071D01*
X656207Y175707D01*
X674467Y157447D01*
X674378Y157293D01*
X674150Y156441D01*
Y155559D01*
X674378Y154707D01*
X674819Y153943D01*
X675443Y153319D01*
X676207Y152878D01*
X677059Y152650D01*
X677941D01*
X678793Y152878D01*
X679557Y153319D01*
X680181Y153943D01*
X680622Y154707D01*
X680850Y155559D01*
Y156441D01*
X680622Y157293D01*
X680181Y158057D01*
X679557Y158681D01*
X678793Y159122D01*
X677941Y159350D01*
X677059D01*
X676207Y159122D01*
X676053Y159033D01*
X658122Y176965D01*
Y182615D01*
X658620Y182686D01*
X659239Y181614D01*
X660114Y180739D01*
X661186Y180120D01*
X662381Y179800D01*
X663619D01*
X664814Y180120D01*
X665886Y180739D01*
X666761Y181614D01*
X667380Y182686D01*
X667700Y183881D01*
Y185119D01*
X667380Y186314D01*
X666761Y187386D01*
X665886Y188261D01*
X664814Y188880D01*
X663619Y189200D01*
X662381D01*
X661186Y188880D01*
X660114Y188261D01*
X659239Y187386D01*
X658620Y186314D01*
X658122Y186385D01*
Y208535D01*
X684793Y235207D01*
X684793Y235207D01*
X685036Y235571D01*
X685122Y236000D01*
X685122Y236000D01*
Y327000D01*
X685036Y327429D01*
X684793Y327793D01*
X684793Y327793D01*
X673122Y339465D01*
Y404535D01*
X691793Y423207D01*
X691793Y423207D01*
X692036Y423571D01*
X692122Y424000D01*
X692122Y424000D01*
Y528535D01*
X702465Y538878D01*
X713603D01*
X713772Y538249D01*
X714369Y537214D01*
X715214Y536370D01*
X716249Y535772D01*
X717403Y535463D01*
X718597D01*
X719751Y535772D01*
X720786Y536370D01*
X721630Y537214D01*
X722228Y538249D01*
X722537Y539403D01*
Y540597D01*
X722228Y541751D01*
X721630Y542786D01*
X720786Y543631D01*
X719751Y544228D01*
X718597Y544537D01*
D02*
G37*
G36*
X660584Y549596D02*
X659416D01*
X658287Y549294D01*
X657275Y548709D01*
X656448Y547883D01*
X655864Y546871D01*
X655561Y545742D01*
Y544573D01*
X655864Y543444D01*
X656448Y542432D01*
X657275Y541606D01*
X658287Y541021D01*
X659416Y540719D01*
X660584D01*
X661713Y541021D01*
X662725Y541606D01*
X663552Y542432D01*
X664136Y543444D01*
X664439Y544573D01*
Y545742D01*
X664136Y546871D01*
X663552Y547883D01*
X662725Y548709D01*
X661713Y549294D01*
X660584Y549596D01*
D02*
G37*
G36*
X780623Y543734D02*
X779377D01*
X778173Y543411D01*
X777093Y542788D01*
X776212Y541907D01*
X775589Y540827D01*
X775266Y539623D01*
Y538377D01*
X775589Y537173D01*
X776212Y536093D01*
X777093Y535212D01*
X778173Y534589D01*
X779377Y534266D01*
X780623D01*
X781827Y534589D01*
X782907Y535212D01*
X783788Y536093D01*
X784411Y537173D01*
X784734Y538377D01*
Y539623D01*
X784411Y540827D01*
X783788Y541907D01*
X782907Y542788D01*
X781827Y543411D01*
X780623Y543734D01*
D02*
G37*
G36*
X939773Y549850D02*
X938227D01*
X936710Y549548D01*
X935282Y548957D01*
X933996Y548098D01*
X932903Y547004D01*
X932043Y545718D01*
X931452Y544290D01*
X931150Y542773D01*
Y541227D01*
X931452Y539710D01*
X932043Y538282D01*
X932903Y536996D01*
X933996Y535903D01*
X935282Y535043D01*
X936710Y534452D01*
X938227Y534150D01*
X939773D01*
X941290Y534452D01*
X942718Y535043D01*
X944004Y535903D01*
X945098Y536996D01*
X945957Y538282D01*
X946548Y539710D01*
X946850Y541227D01*
Y542773D01*
X946548Y544290D01*
X945957Y545718D01*
X945098Y547004D01*
X944004Y548098D01*
X942718Y548957D01*
X941290Y549548D01*
X939773Y549850D01*
D02*
G37*
G36*
X731076Y533402D02*
X730823D01*
Y528177D01*
X736047D01*
Y528431D01*
X735657Y529887D01*
X734903Y531192D01*
X733838Y532258D01*
X732532Y533011D01*
X731076Y533402D01*
D02*
G37*
G36*
X729823D02*
X729569D01*
X728113Y533011D01*
X726808Y532258D01*
X725742Y531192D01*
X724989Y529887D01*
X724598Y528431D01*
Y528177D01*
X729823D01*
Y533402D01*
D02*
G37*
G36*
X706431D02*
X706177D01*
Y528177D01*
X711402D01*
Y528431D01*
X711012Y529887D01*
X710258Y531192D01*
X709192Y532258D01*
X707887Y533011D01*
X706431Y533402D01*
D02*
G37*
G36*
X705177D02*
X704923D01*
X703468Y533011D01*
X702162Y532258D01*
X701096Y531192D01*
X700343Y529887D01*
X699953Y528431D01*
Y528177D01*
X705177D01*
Y533402D01*
D02*
G37*
G36*
X736047Y527177D02*
X730823D01*
Y521953D01*
X731076D01*
X732532Y522343D01*
X733838Y523097D01*
X734903Y524162D01*
X735657Y525468D01*
X736047Y526924D01*
Y527177D01*
D02*
G37*
G36*
X729823D02*
X724598D01*
Y526924D01*
X724989Y525468D01*
X725742Y524162D01*
X726808Y523097D01*
X728113Y522343D01*
X729569Y521953D01*
X729823D01*
Y527177D01*
D02*
G37*
G36*
X711402Y527177D02*
X706177D01*
Y521953D01*
X706431D01*
X707887Y522343D01*
X709192Y523097D01*
X710258Y524162D01*
X711012Y525468D01*
X711402Y526924D01*
Y527177D01*
D02*
G37*
G36*
X705177D02*
X699953D01*
Y526924D01*
X700343Y525468D01*
X701096Y524162D01*
X702162Y523097D01*
X703468Y522343D01*
X704923Y521953D01*
X705177D01*
Y527177D01*
D02*
G37*
G36*
X788500Y522490D02*
Y519500D01*
X791490D01*
X791261Y520351D01*
X790801Y521149D01*
X790149Y521801D01*
X789351Y522261D01*
X788500Y522490D01*
D02*
G37*
G36*
X787500D02*
X786649Y522261D01*
X785851Y521801D01*
X785199Y521149D01*
X784738Y520351D01*
X784511Y519500D01*
X787500D01*
Y522490D01*
D02*
G37*
G36*
X791490Y518500D02*
X788500D01*
Y515511D01*
X789351Y515738D01*
X790149Y516199D01*
X790801Y516851D01*
X791261Y517649D01*
X791490Y518500D01*
D02*
G37*
G36*
X787500D02*
X784511D01*
X784738Y517649D01*
X785199Y516851D01*
X785851Y516199D01*
X786649Y515738D01*
X787500Y515511D01*
Y518500D01*
D02*
G37*
G36*
X661759Y511000D02*
X661000D01*
Y495500D01*
X676500D01*
Y496259D01*
X676106Y498747D01*
X675328Y501142D01*
X674184Y503386D01*
X672704Y505423D01*
X670923Y507204D01*
X668886Y508684D01*
X666642Y509828D01*
X664247Y510606D01*
X661759Y511000D01*
D02*
G37*
G36*
X660000D02*
X659241D01*
X656753Y510606D01*
X654358Y509828D01*
X652114Y508684D01*
X650077Y507204D01*
X648296Y505423D01*
X646816Y503386D01*
X645672Y501142D01*
X644894Y498747D01*
X644500Y496259D01*
Y495500D01*
X660000D01*
Y511000D01*
D02*
G37*
G36*
X790500Y485490D02*
Y482500D01*
X793490D01*
X793261Y483351D01*
X792801Y484149D01*
X792149Y484801D01*
X791351Y485261D01*
X790500Y485490D01*
D02*
G37*
G36*
X789500D02*
X788649Y485261D01*
X787851Y484801D01*
X787199Y484149D01*
X786738Y483351D01*
X786511Y482500D01*
X789500D01*
Y485490D01*
D02*
G37*
G36*
X723623Y489734D02*
X722377D01*
X721173Y489411D01*
X720093Y488788D01*
X719212Y487907D01*
X718589Y486827D01*
X718266Y485623D01*
Y484377D01*
X718589Y483173D01*
X719212Y482093D01*
X720093Y481212D01*
X721173Y480589D01*
X722377Y480266D01*
X723623D01*
X724827Y480589D01*
X725907Y481212D01*
X726788Y482093D01*
X727411Y483173D01*
X727734Y484377D01*
Y485623D01*
X727411Y486827D01*
X726788Y487907D01*
X725907Y488788D01*
X724827Y489411D01*
X723623Y489734D01*
D02*
G37*
G36*
X676500Y494500D02*
X661000D01*
Y479000D01*
X661759D01*
X664247Y479394D01*
X666642Y480172D01*
X668886Y481316D01*
X670923Y482796D01*
X672704Y484577D01*
X674184Y486614D01*
X675328Y488858D01*
X676106Y491253D01*
X676500Y493741D01*
Y494500D01*
D02*
G37*
G36*
X660000D02*
X644500D01*
Y493741D01*
X644894Y491253D01*
X645672Y488858D01*
X646816Y486614D01*
X648296Y484577D01*
X650077Y482796D01*
X652114Y481316D01*
X654358Y480172D01*
X656753Y479394D01*
X659241Y479000D01*
X660000D01*
Y494500D01*
D02*
G37*
G36*
X793490Y481500D02*
X790500D01*
Y478511D01*
X791351Y478738D01*
X792149Y479199D01*
X792801Y479851D01*
X793261Y480649D01*
X793490Y481500D01*
D02*
G37*
G36*
X789500D02*
X786511D01*
X786738Y480649D01*
X787199Y479851D01*
X787851Y479199D01*
X788649Y478738D01*
X789500Y478511D01*
Y481500D01*
D02*
G37*
G36*
X939773Y467850D02*
X938227D01*
X936710Y467548D01*
X935282Y466957D01*
X933996Y466097D01*
X932903Y465004D01*
X932043Y463718D01*
X931452Y462290D01*
X931150Y460773D01*
Y459227D01*
X931452Y457710D01*
X932043Y456282D01*
X932903Y454996D01*
X933996Y453902D01*
X935282Y453043D01*
X936710Y452452D01*
X938227Y452150D01*
X939773D01*
X941290Y452452D01*
X942718Y453043D01*
X944004Y453902D01*
X945098Y454996D01*
X945957Y456282D01*
X946548Y457710D01*
X946850Y459227D01*
Y460773D01*
X946548Y462290D01*
X945957Y463718D01*
X945098Y465004D01*
X944004Y466097D01*
X942718Y466957D01*
X941290Y467548D01*
X939773Y467850D01*
D02*
G37*
G36*
X861600Y451600D02*
X853400D01*
Y443400D01*
X861600D01*
Y451600D01*
D02*
G37*
G36*
X732040D02*
X730960D01*
X729917Y451321D01*
X728982Y450781D01*
X728219Y450017D01*
X727679Y449083D01*
X727400Y448040D01*
Y446960D01*
X727679Y445918D01*
X728219Y444982D01*
X728982Y444219D01*
X729917Y443679D01*
X730960Y443400D01*
X732040D01*
X733082Y443679D01*
X734017Y444219D01*
X734781Y444982D01*
X735321Y445918D01*
X735600Y446960D01*
Y448040D01*
X735321Y449083D01*
X734781Y450017D01*
X734017Y450781D01*
X733082Y451321D01*
X732040Y451600D01*
D02*
G37*
G36*
X900500Y436489D02*
Y433500D01*
X903489D01*
X903261Y434351D01*
X902801Y435149D01*
X902149Y435801D01*
X901351Y436262D01*
X900500Y436489D01*
D02*
G37*
G36*
X899500D02*
X898649Y436262D01*
X897851Y435801D01*
X897199Y435149D01*
X896739Y434351D01*
X896511Y433500D01*
X899500D01*
Y436489D01*
D02*
G37*
G36*
X903489Y432500D02*
X900500D01*
Y429510D01*
X901351Y429739D01*
X902149Y430199D01*
X902801Y430851D01*
X903261Y431649D01*
X903489Y432500D01*
D02*
G37*
G36*
X899500D02*
X896511D01*
X896739Y431649D01*
X897199Y430851D01*
X897851Y430199D01*
X898649Y429739D01*
X899500Y429510D01*
Y432500D01*
D02*
G37*
G36*
X926100Y427486D02*
X917900D01*
Y419286D01*
X926100D01*
Y427486D01*
D02*
G37*
G36*
X664439Y426281D02*
X655561D01*
Y417404D01*
X664439D01*
Y426281D01*
D02*
G37*
G36*
X727754Y420724D02*
X727500D01*
Y415500D01*
X732724D01*
Y415754D01*
X732334Y417209D01*
X731581Y418515D01*
X730515Y419581D01*
X729210Y420334D01*
X727754Y420724D01*
D02*
G37*
G36*
X726500D02*
X726246D01*
X724790Y420334D01*
X723485Y419581D01*
X722419Y418515D01*
X721666Y417209D01*
X721276Y415754D01*
Y415500D01*
X726500D01*
Y420724D01*
D02*
G37*
G36*
X703108D02*
X702854D01*
Y415500D01*
X708079D01*
Y415754D01*
X707689Y417209D01*
X706935Y418515D01*
X705869Y419581D01*
X704564Y420334D01*
X703108Y420724D01*
D02*
G37*
G36*
X701854D02*
X701601D01*
X700145Y420334D01*
X698840Y419581D01*
X697774Y418515D01*
X697020Y417209D01*
X696630Y415754D01*
Y415500D01*
X701854D01*
Y420724D01*
D02*
G37*
G36*
X979584Y423619D02*
X978416D01*
X977287Y423316D01*
X976275Y422732D01*
X975448Y421905D01*
X974864Y420893D01*
X974561Y419764D01*
Y418596D01*
X974864Y417467D01*
X975448Y416455D01*
X976275Y415628D01*
X977287Y415044D01*
X978416Y414741D01*
X979584D01*
X980713Y415044D01*
X981725Y415628D01*
X982552Y416455D01*
X983136Y417467D01*
X983439Y418596D01*
Y419764D01*
X983136Y420893D01*
X982552Y421905D01*
X981725Y422732D01*
X980713Y423316D01*
X979584Y423619D01*
D02*
G37*
G36*
X912540Y420793D02*
X911460D01*
X910417Y420513D01*
X909482Y419974D01*
X908719Y419210D01*
X908179Y418275D01*
X907900Y417233D01*
Y416153D01*
X908179Y415110D01*
X908719Y414176D01*
X909482Y413412D01*
X910417Y412872D01*
X911460Y412593D01*
X912540D01*
X913583Y412872D01*
X914517Y413412D01*
X915281Y414176D01*
X915821Y415110D01*
X916100Y416153D01*
Y417233D01*
X915821Y418275D01*
X915281Y419210D01*
X914517Y419974D01*
X913583Y420513D01*
X912540Y420793D01*
D02*
G37*
G36*
X922592Y414500D02*
X922500D01*
Y410500D01*
X926500D01*
Y410592D01*
X926193Y411737D01*
X925601Y412763D01*
X924763Y413601D01*
X923737Y414193D01*
X922592Y414500D01*
D02*
G37*
G36*
X921500D02*
X921408D01*
X920263Y414193D01*
X919237Y413601D01*
X918399Y412763D01*
X917807Y411737D01*
X917500Y410592D01*
Y410500D01*
X921500D01*
Y414500D01*
D02*
G37*
G36*
X732724D02*
X727500D01*
Y409276D01*
X727754D01*
X729210Y409666D01*
X730515Y410419D01*
X731581Y411485D01*
X732334Y412790D01*
X732724Y414246D01*
Y414500D01*
D02*
G37*
G36*
X726500D02*
X721276D01*
Y414246D01*
X721666Y412790D01*
X722419Y411485D01*
X723485Y410419D01*
X724790Y409666D01*
X726246Y409276D01*
X726500D01*
Y414500D01*
D02*
G37*
G36*
X708079D02*
X702854D01*
Y409276D01*
X703108D01*
X704564Y409666D01*
X705869Y410419D01*
X706935Y411485D01*
X707689Y412790D01*
X708079Y414246D01*
Y414500D01*
D02*
G37*
G36*
X701854D02*
X696630D01*
Y414246D01*
X697020Y412790D01*
X697774Y411485D01*
X698840Y410419D01*
X700145Y409666D01*
X701601Y409276D01*
X701854D01*
Y414500D01*
D02*
G37*
G36*
X775623Y416734D02*
X774377D01*
X773173Y416411D01*
X772093Y415788D01*
X771212Y414907D01*
X770589Y413827D01*
X770266Y412623D01*
Y411377D01*
X770589Y410173D01*
X771212Y409093D01*
X772093Y408212D01*
X773173Y407589D01*
X774377Y407266D01*
X775623D01*
X776827Y407589D01*
X777907Y408212D01*
X778788Y409093D01*
X779411Y410173D01*
X779734Y411377D01*
Y412623D01*
X779411Y413827D01*
X778788Y414907D01*
X777907Y415788D01*
X776827Y416411D01*
X775623Y416734D01*
D02*
G37*
G36*
X926500Y409500D02*
X922500D01*
Y405500D01*
X922592D01*
X923737Y405807D01*
X924763Y406399D01*
X925601Y407237D01*
X926193Y408263D01*
X926500Y409408D01*
Y409500D01*
D02*
G37*
G36*
X921500D02*
X917500D01*
Y409408D01*
X917807Y408263D01*
X918399Y407237D01*
X919237Y406399D01*
X920263Y405807D01*
X921408Y405500D01*
X921500D01*
Y409500D01*
D02*
G37*
G36*
X715274Y407214D02*
X714080D01*
X712926Y406905D01*
X711891Y406308D01*
X711047Y405463D01*
X710449Y404428D01*
X710281Y403799D01*
X693677D01*
X693677Y403799D01*
X693248Y403713D01*
X692884Y403470D01*
X676207Y386793D01*
X675964Y386429D01*
X675878Y386000D01*
X675878Y386000D01*
Y344000D01*
X675878Y344000D01*
X675964Y343571D01*
X676207Y343207D01*
X689878Y329535D01*
Y210465D01*
X670207Y190793D01*
X669964Y190429D01*
X669878Y190000D01*
X669878Y190000D01*
Y170000D01*
X669878Y170000D01*
X669964Y169571D01*
X670207Y169207D01*
X681478Y157935D01*
Y149400D01*
X681478Y149400D01*
X681564Y148971D01*
X681807Y148607D01*
X685207Y145207D01*
X685207Y145207D01*
X685571Y144964D01*
X686000Y144878D01*
X686000Y144878D01*
X697500D01*
X697500Y144878D01*
X697929Y144964D01*
X698293Y145207D01*
X706053Y152967D01*
X706207Y152878D01*
X707059Y152650D01*
X707941D01*
X708793Y152878D01*
X709557Y153319D01*
X710181Y153943D01*
X710622Y154707D01*
X710850Y155559D01*
Y156441D01*
X710622Y157293D01*
X710181Y158057D01*
X709557Y158681D01*
X708793Y159122D01*
X707941Y159350D01*
X707059D01*
X706207Y159122D01*
X705443Y158681D01*
X704819Y158057D01*
X704378Y157293D01*
X704150Y156441D01*
Y155559D01*
X704378Y154707D01*
X704467Y154553D01*
X697035Y147122D01*
X686465D01*
X683722Y149865D01*
Y155226D01*
X684222Y155292D01*
X684378Y154707D01*
X684819Y153943D01*
X685443Y153319D01*
X686207Y152878D01*
X687059Y152650D01*
X687941D01*
X688793Y152878D01*
X689557Y153319D01*
X690181Y153943D01*
X690622Y154707D01*
X690850Y155559D01*
Y156441D01*
X690622Y157293D01*
X690181Y158057D01*
X689557Y158681D01*
X688793Y159122D01*
X687941Y159350D01*
X687059D01*
X686207Y159122D01*
X685443Y158681D01*
X684819Y158057D01*
X684378Y157293D01*
X684222Y156708D01*
X683722Y156774D01*
Y158400D01*
X683722Y158400D01*
X683636Y158829D01*
X683393Y159193D01*
X683393Y159193D01*
X680119Y162467D01*
X680426Y162867D01*
X681052Y162506D01*
X682000Y162252D01*
Y165500D01*
X678752D01*
X679006Y164552D01*
X679367Y163926D01*
X678967Y163619D01*
X672122Y170465D01*
Y189535D01*
X691793Y209207D01*
X691793Y209207D01*
X692036Y209571D01*
X692122Y210000D01*
X692122Y210000D01*
Y330000D01*
X692122Y330000D01*
X692036Y330429D01*
X691793Y330793D01*
X678122Y344465D01*
Y385535D01*
X694142Y401556D01*
X710281D01*
X710449Y400926D01*
X711047Y399891D01*
X711891Y399047D01*
X712926Y398449D01*
X714080Y398140D01*
X715274D01*
X716428Y398449D01*
X717463Y399047D01*
X718308Y399891D01*
X718905Y400926D01*
X719214Y402080D01*
Y403274D01*
X718905Y404428D01*
X718308Y405463D01*
X717463Y406308D01*
X716428Y406905D01*
X715274Y407214D01*
D02*
G37*
G36*
X912540Y407407D02*
X911460D01*
X910417Y407128D01*
X909482Y406588D01*
X908719Y405825D01*
X908179Y404890D01*
X907900Y403847D01*
Y402767D01*
X908179Y401724D01*
X908418Y401311D01*
X899207Y392100D01*
X898964Y391736D01*
X898878Y391307D01*
X898878Y391307D01*
Y215465D01*
X848535Y165122D01*
X823882D01*
X823882Y165122D01*
X823453Y165036D01*
X823089Y164793D01*
X823089Y164793D01*
X817146Y158850D01*
X817078Y158889D01*
X816290Y159100D01*
X815474D01*
X814685Y158889D01*
X813978Y158481D01*
X813401Y157903D01*
X812993Y157197D01*
X812782Y156408D01*
Y155592D01*
X812993Y154803D01*
X813401Y154097D01*
X813978Y153519D01*
X814685Y153111D01*
X815474Y152900D01*
X816290D01*
X817078Y153111D01*
X817785Y153519D01*
X818363Y154097D01*
X818771Y154803D01*
X818982Y155592D01*
Y156408D01*
X818771Y157197D01*
X818732Y157264D01*
X824346Y162878D01*
X849000D01*
X849000Y162878D01*
X849429Y162964D01*
X849793Y163207D01*
X900793Y214207D01*
X900793Y214207D01*
X901036Y214571D01*
X901122Y215000D01*
X901122Y215000D01*
Y390842D01*
X910004Y399725D01*
X910417Y399486D01*
X911460Y399207D01*
X912540D01*
X913583Y399486D01*
X914517Y400026D01*
X915281Y400790D01*
X915821Y401724D01*
X916100Y402767D01*
Y403847D01*
X915821Y404890D01*
X915281Y405825D01*
X914517Y406588D01*
X913583Y407128D01*
X912540Y407407D01*
D02*
G37*
G36*
X660584Y406596D02*
X659416D01*
X658287Y406294D01*
X657275Y405709D01*
X656448Y404883D01*
X655864Y403871D01*
X655561Y402742D01*
Y401573D01*
X655864Y400444D01*
X656448Y399432D01*
X657275Y398606D01*
X658287Y398021D01*
X659416Y397719D01*
X660584D01*
X661713Y398021D01*
X662725Y398606D01*
X663552Y399432D01*
X664136Y400444D01*
X664439Y401573D01*
Y402742D01*
X664136Y403871D01*
X663552Y404883D01*
X662725Y405709D01*
X661713Y406294D01*
X660584Y406596D01*
D02*
G37*
G36*
X885623Y404734D02*
X884377D01*
X883173Y404411D01*
X882093Y403788D01*
X881212Y402907D01*
X880589Y401827D01*
X880266Y400623D01*
Y399377D01*
X880589Y398173D01*
X881212Y397093D01*
X882093Y396212D01*
X883173Y395589D01*
X884377Y395266D01*
X885623D01*
X886827Y395589D01*
X887907Y396212D01*
X888788Y397093D01*
X889411Y398173D01*
X889734Y399377D01*
Y400623D01*
X889411Y401827D01*
X888788Y402907D01*
X887907Y403788D01*
X886827Y404411D01*
X885623Y404734D01*
D02*
G37*
G36*
X983439Y403933D02*
X974561D01*
Y395056D01*
X983439D01*
Y403933D01*
D02*
G37*
G36*
X922540Y400714D02*
X921460D01*
X920417Y400435D01*
X919483Y399895D01*
X918719Y399132D01*
X918179Y398197D01*
X917900Y397154D01*
Y396074D01*
X918179Y395032D01*
X918719Y394097D01*
X919483Y393333D01*
X920417Y392794D01*
X921460Y392514D01*
X922540D01*
X923582Y392794D01*
X924518Y393333D01*
X925281Y394097D01*
X925821Y395032D01*
X926100Y396074D01*
Y397154D01*
X925821Y398197D01*
X925281Y399132D01*
X924518Y399895D01*
X923582Y400435D01*
X922540Y400714D01*
D02*
G37*
G36*
X727754Y396079D02*
X727500D01*
Y390854D01*
X732724D01*
Y391108D01*
X732334Y392564D01*
X731581Y393869D01*
X730515Y394935D01*
X729210Y395689D01*
X727754Y396079D01*
D02*
G37*
G36*
X726500D02*
X726246D01*
X724790Y395689D01*
X723485Y394935D01*
X722419Y393869D01*
X721666Y392564D01*
X721276Y391108D01*
Y390854D01*
X726500D01*
Y396079D01*
D02*
G37*
G36*
X703108D02*
X702854D01*
Y390854D01*
X708079D01*
Y391108D01*
X707689Y392564D01*
X706935Y393869D01*
X705869Y394935D01*
X704564Y395689D01*
X703108Y396079D01*
D02*
G37*
G36*
X701854D02*
X701601D01*
X700145Y395689D01*
X698840Y394935D01*
X697774Y393869D01*
X697020Y392564D01*
X696630Y391108D01*
Y390854D01*
X701854D01*
Y396079D01*
D02*
G37*
G36*
X732724Y389854D02*
X727500D01*
Y384630D01*
X727754D01*
X729210Y385020D01*
X730515Y385774D01*
X731581Y386840D01*
X732334Y388145D01*
X732724Y389601D01*
Y389854D01*
D02*
G37*
G36*
X726500D02*
X721276D01*
Y389601D01*
X721666Y388145D01*
X722419Y386840D01*
X723485Y385774D01*
X724790Y385020D01*
X726246Y384630D01*
X726500D01*
Y389854D01*
D02*
G37*
G36*
X708079D02*
X702854D01*
Y384630D01*
X703108D01*
X704564Y385020D01*
X705869Y385774D01*
X706935Y386840D01*
X707689Y388145D01*
X708079Y389601D01*
Y389854D01*
D02*
G37*
G36*
X701854D02*
X696630D01*
Y389601D01*
X697020Y388145D01*
X697774Y386840D01*
X698840Y385774D01*
X700145Y385020D01*
X701601Y384630D01*
X701854D01*
Y389854D01*
D02*
G37*
G36*
X788500Y381489D02*
Y378500D01*
X791490D01*
X791261Y379351D01*
X790801Y380149D01*
X790149Y380801D01*
X789351Y381261D01*
X788500Y381489D01*
D02*
G37*
G36*
X787500D02*
X786649Y381261D01*
X785851Y380801D01*
X785199Y380149D01*
X784738Y379351D01*
X784511Y378500D01*
X787500D01*
Y381489D01*
D02*
G37*
G36*
X791490Y377500D02*
X788500D01*
Y374511D01*
X789351Y374739D01*
X790149Y375199D01*
X790801Y375851D01*
X791261Y376649D01*
X791490Y377500D01*
D02*
G37*
G36*
X787500D02*
X784511D01*
X784738Y376649D01*
X785199Y375851D01*
X785851Y375199D01*
X786649Y374739D01*
X787500Y374511D01*
Y377500D01*
D02*
G37*
G36*
X939773Y367850D02*
X938227D01*
X936710Y367548D01*
X935282Y366957D01*
X933996Y366097D01*
X932903Y365004D01*
X932043Y363718D01*
X931452Y362290D01*
X931150Y360773D01*
Y359227D01*
X931452Y357710D01*
X932043Y356282D01*
X932903Y354996D01*
X933996Y353903D01*
X935282Y353043D01*
X936710Y352452D01*
X938227Y352150D01*
X939773D01*
X941290Y352452D01*
X942718Y353043D01*
X944004Y353903D01*
X945098Y354996D01*
X945957Y356282D01*
X946548Y357710D01*
X946850Y359227D01*
Y360773D01*
X946548Y362290D01*
X945957Y363718D01*
X945098Y365004D01*
X944004Y366097D01*
X942718Y366957D01*
X941290Y367548D01*
X939773Y367850D01*
D02*
G37*
G36*
X663623Y360734D02*
X662377D01*
X661173Y360411D01*
X660093Y359788D01*
X659212Y358907D01*
X658589Y357827D01*
X658266Y356623D01*
Y355377D01*
X658589Y354173D01*
X659212Y353093D01*
X660093Y352212D01*
X661173Y351589D01*
X662377Y351266D01*
X663623D01*
X664827Y351589D01*
X665907Y352212D01*
X666788Y353093D01*
X667411Y354173D01*
X667734Y355377D01*
Y356623D01*
X667411Y357827D01*
X666788Y358907D01*
X665907Y359788D01*
X664827Y360411D01*
X663623Y360734D01*
D02*
G37*
G36*
X723623Y355734D02*
X722377D01*
X721173Y355411D01*
X720093Y354788D01*
X719212Y353907D01*
X718589Y352827D01*
X718266Y351623D01*
Y350377D01*
X718589Y349173D01*
X719212Y348093D01*
X720093Y347212D01*
X721173Y346589D01*
X722377Y346266D01*
X723623D01*
X724827Y346589D01*
X725907Y347212D01*
X726788Y348093D01*
X727411Y349173D01*
X727734Y350377D01*
Y351623D01*
X727411Y352827D01*
X726788Y353907D01*
X725907Y354788D01*
X724827Y355411D01*
X723623Y355734D01*
D02*
G37*
G36*
X792500Y348489D02*
Y345500D01*
X795490D01*
X795261Y346351D01*
X794801Y347149D01*
X794149Y347801D01*
X793351Y348261D01*
X792500Y348489D01*
D02*
G37*
G36*
X791500D02*
X790649Y348261D01*
X789851Y347801D01*
X789199Y347149D01*
X788738Y346351D01*
X788511Y345500D01*
X791500D01*
Y348489D01*
D02*
G37*
G36*
X795490Y344500D02*
X792500D01*
Y341511D01*
X793351Y341739D01*
X794149Y342199D01*
X794801Y342851D01*
X795261Y343649D01*
X795490Y344500D01*
D02*
G37*
G36*
X791500D02*
X788511D01*
X788738Y343649D01*
X789199Y342851D01*
X789851Y342199D01*
X790649Y341739D01*
X791500Y341511D01*
Y344500D01*
D02*
G37*
G36*
X664439Y319281D02*
X655561D01*
Y310404D01*
X664439D01*
Y319281D01*
D02*
G37*
G36*
X871600Y316600D02*
X863400D01*
Y308400D01*
X871600D01*
Y316600D01*
D02*
G37*
G36*
X742040D02*
X740960D01*
X739918Y316321D01*
X738982Y315781D01*
X738219Y315018D01*
X737679Y314083D01*
X737400Y313040D01*
Y311960D01*
X737679Y310917D01*
X738219Y309982D01*
X738982Y309219D01*
X739918Y308679D01*
X740960Y308400D01*
X742040D01*
X743083Y308679D01*
X744018Y309219D01*
X744781Y309982D01*
X745321Y310917D01*
X745600Y311960D01*
Y313040D01*
X745321Y314083D01*
X744781Y315018D01*
X744018Y315781D01*
X743083Y316321D01*
X742040Y316600D01*
D02*
G37*
G36*
X660584Y299596D02*
X659416D01*
X658287Y299294D01*
X657275Y298709D01*
X656448Y297883D01*
X655864Y296871D01*
X655561Y295742D01*
Y294573D01*
X655864Y293444D01*
X656448Y292432D01*
X657275Y291606D01*
X658287Y291021D01*
X659416Y290719D01*
X660584D01*
X661713Y291021D01*
X662725Y291606D01*
X663552Y292432D01*
X664136Y293444D01*
X664439Y294573D01*
Y295742D01*
X664136Y296871D01*
X663552Y297883D01*
X662725Y298709D01*
X661713Y299294D01*
X660584Y299596D01*
D02*
G37*
G36*
X730754Y287870D02*
X730500D01*
Y282646D01*
X735724D01*
Y282899D01*
X735334Y284355D01*
X734581Y285661D01*
X733515Y286726D01*
X732210Y287480D01*
X730754Y287870D01*
D02*
G37*
G36*
X729500D02*
X729246D01*
X727790Y287480D01*
X726485Y286726D01*
X725419Y285661D01*
X724666Y284355D01*
X724276Y282899D01*
Y282646D01*
X729500D01*
Y287870D01*
D02*
G37*
G36*
X706108D02*
X705854D01*
Y282646D01*
X711079D01*
Y282899D01*
X710689Y284355D01*
X709935Y285661D01*
X708869Y286726D01*
X707564Y287480D01*
X706108Y287870D01*
D02*
G37*
G36*
X704854D02*
X704601D01*
X703145Y287480D01*
X701839Y286726D01*
X700774Y285661D01*
X700020Y284355D01*
X699630Y282899D01*
Y282646D01*
X704854D01*
Y287870D01*
D02*
G37*
G36*
X939773Y294850D02*
X938227D01*
X936710Y294548D01*
X935282Y293957D01*
X933996Y293097D01*
X932903Y292004D01*
X932043Y290718D01*
X931452Y289290D01*
X931150Y287773D01*
Y286227D01*
X931452Y284710D01*
X932043Y283282D01*
X932903Y281996D01*
X933996Y280903D01*
X935282Y280043D01*
X936710Y279452D01*
X938227Y279150D01*
X939773D01*
X941290Y279452D01*
X942718Y280043D01*
X944004Y280903D01*
X945098Y281996D01*
X945957Y283282D01*
X946548Y284710D01*
X946850Y286227D01*
Y287773D01*
X946548Y289290D01*
X945957Y290718D01*
X945098Y292004D01*
X944004Y293097D01*
X942718Y293957D01*
X941290Y294548D01*
X939773Y294850D01*
D02*
G37*
G36*
X735724Y281646D02*
X730500D01*
Y276421D01*
X730754D01*
X732210Y276811D01*
X733515Y277565D01*
X734581Y278631D01*
X735334Y279936D01*
X735724Y281392D01*
Y281646D01*
D02*
G37*
G36*
X729500D02*
X724276D01*
Y281392D01*
X724666Y279936D01*
X725419Y278631D01*
X726485Y277565D01*
X727790Y276811D01*
X729246Y276421D01*
X729500D01*
Y281646D01*
D02*
G37*
G36*
X711079D02*
X705854D01*
Y276421D01*
X706108D01*
X707564Y276811D01*
X708869Y277565D01*
X709935Y278631D01*
X710689Y279936D01*
X711079Y281392D01*
Y281646D01*
D02*
G37*
G36*
X704854D02*
X699630D01*
Y281392D01*
X700020Y279936D01*
X700774Y278631D01*
X701839Y277565D01*
X703145Y276811D01*
X704601Y276421D01*
X704854D01*
Y281646D01*
D02*
G37*
G36*
X784623Y285734D02*
X783377D01*
X782173Y285411D01*
X781093Y284788D01*
X780212Y283907D01*
X779589Y282827D01*
X779266Y281623D01*
Y280377D01*
X779589Y279173D01*
X780212Y278093D01*
X781093Y277212D01*
X782173Y276589D01*
X783377Y276266D01*
X784623D01*
X785827Y276589D01*
X786907Y277212D01*
X787788Y278093D01*
X788411Y279173D01*
X788734Y280377D01*
Y281623D01*
X788411Y282827D01*
X787788Y283907D01*
X786907Y284788D01*
X785827Y285411D01*
X784623Y285734D01*
D02*
G37*
G36*
X915994Y265490D02*
Y262500D01*
X918984D01*
X918756Y263351D01*
X918295Y264149D01*
X917644Y264801D01*
X916845Y265262D01*
X915994Y265490D01*
D02*
G37*
G36*
X914994D02*
X914143Y265262D01*
X913345Y264801D01*
X912694Y264149D01*
X912233Y263351D01*
X912005Y262500D01*
X914994D01*
Y265490D01*
D02*
G37*
G36*
X790500Y262490D02*
Y259500D01*
X793490D01*
X793261Y260351D01*
X792801Y261149D01*
X792149Y261801D01*
X791351Y262262D01*
X790500Y262490D01*
D02*
G37*
G36*
X789500D02*
X788649Y262262D01*
X787851Y261801D01*
X787199Y261149D01*
X786738Y260351D01*
X786511Y259500D01*
X789500D01*
Y262490D01*
D02*
G37*
G36*
X918984Y261500D02*
X915994D01*
Y258510D01*
X916845Y258738D01*
X917644Y259199D01*
X918295Y259851D01*
X918756Y260649D01*
X918984Y261500D01*
D02*
G37*
G36*
X914994D02*
X912005D01*
X912233Y260649D01*
X912694Y259851D01*
X913345Y259199D01*
X914143Y258738D01*
X914994Y258510D01*
Y261500D01*
D02*
G37*
G36*
X730754Y263224D02*
X730500D01*
Y258000D01*
X735724D01*
Y258254D01*
X735334Y259710D01*
X734581Y261015D01*
X733515Y262081D01*
X732210Y262834D01*
X730754Y263224D01*
D02*
G37*
G36*
X729500D02*
X729246D01*
X727790Y262834D01*
X726485Y262081D01*
X725419Y261015D01*
X724666Y259710D01*
X724276Y258254D01*
Y258000D01*
X729500D01*
Y263224D01*
D02*
G37*
G36*
X706108D02*
X705854D01*
Y258000D01*
X711079D01*
Y258254D01*
X710689Y259710D01*
X709935Y261015D01*
X708869Y262081D01*
X707564Y262834D01*
X706108Y263224D01*
D02*
G37*
G36*
X704854D02*
X704601D01*
X703145Y262834D01*
X701839Y262081D01*
X700774Y261015D01*
X700020Y259710D01*
X699630Y258254D01*
Y258000D01*
X704854D01*
Y263224D01*
D02*
G37*
G36*
X793490Y258500D02*
X790500D01*
Y255510D01*
X791351Y255738D01*
X792149Y256199D01*
X792801Y256851D01*
X793261Y257649D01*
X793490Y258500D01*
D02*
G37*
G36*
X789500D02*
X786511D01*
X786738Y257649D01*
X787199Y256851D01*
X787851Y256199D01*
X788649Y255738D01*
X789500Y255510D01*
Y258500D01*
D02*
G37*
G36*
X735724Y257000D02*
X730500D01*
Y251776D01*
X730754D01*
X732210Y252166D01*
X733515Y252919D01*
X734581Y253985D01*
X735334Y255290D01*
X735724Y256746D01*
Y257000D01*
D02*
G37*
G36*
X729500D02*
X724276D01*
Y256746D01*
X724666Y255290D01*
X725419Y253985D01*
X726485Y252919D01*
X727790Y252166D01*
X729246Y251776D01*
X729500D01*
Y257000D01*
D02*
G37*
G36*
X711079D02*
X705854D01*
Y251776D01*
X706108D01*
X707564Y252166D01*
X708869Y252919D01*
X709935Y253985D01*
X710689Y255290D01*
X711079Y256746D01*
Y257000D01*
D02*
G37*
G36*
X704854D02*
X699630D01*
Y256746D01*
X700020Y255290D01*
X700774Y253985D01*
X701839Y252919D01*
X703145Y252166D01*
X704601Y251776D01*
X704854D01*
Y257000D01*
D02*
G37*
G36*
X666259Y266000D02*
X665500D01*
Y250500D01*
X681000D01*
Y251259D01*
X680606Y253747D01*
X679828Y256142D01*
X678684Y258386D01*
X677204Y260423D01*
X675423Y262204D01*
X673386Y263684D01*
X671142Y264828D01*
X668747Y265606D01*
X666259Y266000D01*
D02*
G37*
G36*
X664500D02*
X663741D01*
X661253Y265606D01*
X658858Y264828D01*
X656614Y263684D01*
X654577Y262204D01*
X652796Y260423D01*
X651316Y258386D01*
X650172Y256142D01*
X649394Y253747D01*
X649000Y251259D01*
Y250500D01*
X664500D01*
Y266000D01*
D02*
G37*
G36*
X926100Y253872D02*
X917900D01*
Y245672D01*
X926100D01*
Y253872D01*
D02*
G37*
G36*
X979584Y250619D02*
X978416D01*
X977287Y250316D01*
X976275Y249732D01*
X975448Y248905D01*
X974864Y247893D01*
X974561Y246764D01*
Y245596D01*
X974864Y244467D01*
X975448Y243455D01*
X976275Y242628D01*
X977287Y242044D01*
X978416Y241741D01*
X979584D01*
X980713Y242044D01*
X981725Y242628D01*
X982552Y243455D01*
X983136Y244467D01*
X983439Y245596D01*
Y246764D01*
X983136Y247893D01*
X982552Y248905D01*
X981725Y249732D01*
X980713Y250316D01*
X979584Y250619D01*
D02*
G37*
G36*
X912540Y247179D02*
X911460D01*
X910417Y246899D01*
X909482Y246360D01*
X908719Y245596D01*
X908179Y244661D01*
X907900Y243618D01*
Y242539D01*
X908179Y241496D01*
X908719Y240561D01*
X909482Y239798D01*
X910417Y239258D01*
X911460Y238979D01*
X912540D01*
X913583Y239258D01*
X914517Y239798D01*
X915281Y240561D01*
X915821Y241496D01*
X916100Y242539D01*
Y243618D01*
X915821Y244661D01*
X915281Y245596D01*
X914517Y246360D01*
X913583Y246899D01*
X912540Y247179D01*
D02*
G37*
G36*
X922592Y240886D02*
X922500D01*
Y236886D01*
X926500D01*
Y236978D01*
X926193Y238123D01*
X925601Y239149D01*
X924763Y239987D01*
X923737Y240579D01*
X922592Y240886D01*
D02*
G37*
G36*
X921500D02*
X921408D01*
X920263Y240579D01*
X919237Y239987D01*
X918399Y239149D01*
X917807Y238123D01*
X917500Y236978D01*
Y236886D01*
X921500D01*
Y240886D01*
D02*
G37*
G36*
X681000Y249500D02*
X665500D01*
Y234000D01*
X666259D01*
X668747Y234394D01*
X671142Y235172D01*
X673386Y236316D01*
X675423Y237796D01*
X677204Y239577D01*
X678684Y241614D01*
X679828Y243858D01*
X680606Y246253D01*
X681000Y248741D01*
Y249500D01*
D02*
G37*
G36*
X664500D02*
X649000D01*
Y248741D01*
X649394Y246253D01*
X650172Y243858D01*
X651316Y241614D01*
X652796Y239577D01*
X654577Y237796D01*
X656614Y236316D01*
X658858Y235172D01*
X661253Y234394D01*
X663741Y234000D01*
X664500D01*
Y249500D01*
D02*
G37*
G36*
X926500Y235886D02*
X922500D01*
Y231886D01*
X922592D01*
X923737Y232192D01*
X924763Y232785D01*
X925601Y233623D01*
X926193Y234649D01*
X926500Y235793D01*
Y235886D01*
D02*
G37*
G36*
X921500D02*
X917500D01*
Y235793D01*
X917807Y234649D01*
X918399Y233623D01*
X919237Y232785D01*
X920263Y232192D01*
X921408Y231886D01*
X921500D01*
Y235886D01*
D02*
G37*
G36*
X792500Y234489D02*
Y231500D01*
X795490D01*
X795261Y232351D01*
X794801Y233149D01*
X794149Y233801D01*
X793351Y234261D01*
X792500Y234489D01*
D02*
G37*
G36*
X791500D02*
X790649Y234261D01*
X789851Y233801D01*
X789199Y233149D01*
X788738Y232351D01*
X788511Y231500D01*
X791500D01*
Y234489D01*
D02*
G37*
G36*
X770483Y492925D02*
X769667D01*
X768878Y492714D01*
X768172Y492306D01*
X767594Y491728D01*
X767186Y491022D01*
X766975Y490233D01*
Y489417D01*
X767186Y488628D01*
X767594Y487922D01*
X768172Y487344D01*
X768878Y486936D01*
X769667Y486725D01*
X770483D01*
X771272Y486936D01*
X771339Y486975D01*
X783978Y474335D01*
Y417300D01*
Y407765D01*
X771607Y395393D01*
X771364Y395029D01*
X771278Y394600D01*
X771278Y394600D01*
Y354309D01*
X771203Y354289D01*
X770497Y353881D01*
X769919Y353303D01*
X769511Y352597D01*
X769300Y351808D01*
Y350992D01*
X769511Y350203D01*
X769919Y349497D01*
X770497Y348919D01*
X771203Y348511D01*
X771278Y348491D01*
Y331865D01*
X769207Y329793D01*
X768964Y329429D01*
X768878Y329000D01*
X768878Y329000D01*
Y234445D01*
X768608Y234000D01*
X767792D01*
X767003Y233789D01*
X766297Y233381D01*
X765719Y232803D01*
X765311Y232097D01*
X765100Y231308D01*
Y230492D01*
X765311Y229703D01*
X765719Y228997D01*
X766297Y228419D01*
X767003Y228011D01*
X767792Y227800D01*
X768608D01*
X769397Y228011D01*
X770103Y228419D01*
X770681Y228997D01*
X771089Y229703D01*
X771300Y230492D01*
Y231308D01*
X771089Y232097D01*
X770762Y232662D01*
X770793Y232693D01*
X770793Y232693D01*
X771036Y233057D01*
X771122Y233486D01*
Y328535D01*
X773193Y330607D01*
X773193Y330607D01*
X773436Y330971D01*
X773522Y331400D01*
Y348491D01*
X773597Y348511D01*
X774303Y348919D01*
X774881Y349497D01*
X775289Y350203D01*
X775500Y350992D01*
Y351808D01*
X775289Y352597D01*
X774881Y353303D01*
X774303Y353881D01*
X773597Y354289D01*
X773522Y354309D01*
Y394135D01*
X785893Y406507D01*
X785893Y406507D01*
X786136Y406871D01*
X786222Y407300D01*
Y417300D01*
Y474800D01*
X786222Y474800D01*
X786136Y475229D01*
X785893Y475593D01*
X785893Y475593D01*
X772925Y488561D01*
X772964Y488628D01*
X773175Y489417D01*
Y490233D01*
X772964Y491022D01*
X772556Y491728D01*
X771978Y492306D01*
X771272Y492714D01*
X770483Y492925D01*
D02*
G37*
G36*
X795490Y230500D02*
X792500D01*
Y227510D01*
X793351Y227738D01*
X794149Y228199D01*
X794801Y228851D01*
X795261Y229649D01*
X795490Y230500D01*
D02*
G37*
G36*
X791500D02*
X788511D01*
X788738Y229649D01*
X789199Y228851D01*
X789851Y228199D01*
X790649Y227738D01*
X791500Y227510D01*
Y230500D01*
D02*
G37*
G36*
X890623Y235734D02*
X889377D01*
X888173Y235411D01*
X887093Y234788D01*
X886212Y233907D01*
X885589Y232827D01*
X885266Y231623D01*
Y230377D01*
X885589Y229173D01*
X886212Y228093D01*
X887093Y227212D01*
X888173Y226589D01*
X889377Y226266D01*
X890623D01*
X891827Y226589D01*
X892907Y227212D01*
X893788Y228093D01*
X894411Y229173D01*
X894734Y230377D01*
Y231623D01*
X894411Y232827D01*
X893788Y233907D01*
X892907Y234788D01*
X891827Y235411D01*
X890623Y235734D01*
D02*
G37*
G36*
X912540Y233793D02*
X911460D01*
X910417Y233513D01*
X909482Y232974D01*
X908719Y232210D01*
X908179Y231276D01*
X907900Y230233D01*
Y229153D01*
X908179Y228110D01*
X908719Y227175D01*
X909482Y226412D01*
X910417Y225872D01*
X911460Y225593D01*
X912540D01*
X913583Y225872D01*
X914517Y226412D01*
X915281Y227175D01*
X915821Y228110D01*
X916100Y229153D01*
Y230233D01*
X915821Y231276D01*
X915281Y232210D01*
X914517Y232974D01*
X913583Y233513D01*
X912540Y233793D01*
D02*
G37*
G36*
X983439Y230933D02*
X974561D01*
Y222056D01*
X983439D01*
Y230933D01*
D02*
G37*
G36*
X922540Y227100D02*
X921460D01*
X920417Y226821D01*
X919483Y226281D01*
X918719Y225518D01*
X918179Y224583D01*
X917900Y223540D01*
Y222460D01*
X918179Y221417D01*
X918719Y220482D01*
X919483Y219719D01*
X920417Y219179D01*
X921460Y218900D01*
X922540D01*
X923582Y219179D01*
X924518Y219719D01*
X925281Y220482D01*
X925821Y221417D01*
X926100Y222460D01*
Y223540D01*
X925821Y224583D01*
X925281Y225518D01*
X924518Y226281D01*
X923582Y226821D01*
X922540Y227100D01*
D02*
G37*
G36*
X770623Y218734D02*
X769377D01*
X768173Y218411D01*
X767093Y217788D01*
X766212Y216907D01*
X765589Y215827D01*
X765266Y214623D01*
Y213377D01*
X765589Y212173D01*
X766212Y211093D01*
X767093Y210212D01*
X768173Y209589D01*
X769377Y209266D01*
X770623D01*
X771827Y209589D01*
X772907Y210212D01*
X773788Y211093D01*
X774411Y212173D01*
X774734Y213377D01*
Y214623D01*
X774411Y215827D01*
X773788Y216907D01*
X772907Y217788D01*
X771827Y218411D01*
X770623Y218734D01*
D02*
G37*
G36*
X718274Y274360D02*
X717080D01*
X715926Y274051D01*
X714891Y273453D01*
X714047Y272609D01*
X713449Y271574D01*
X713140Y270420D01*
Y269226D01*
X713449Y268072D01*
X714047Y267037D01*
X714891Y266192D01*
X715926Y265595D01*
X716556Y265426D01*
Y196142D01*
X713947Y193533D01*
X713793Y193622D01*
X712941Y193850D01*
X712059D01*
X711207Y193622D01*
X710443Y193181D01*
X709819Y192557D01*
X709378Y191793D01*
X709150Y190941D01*
Y190059D01*
X709378Y189207D01*
X709819Y188443D01*
X710443Y187819D01*
X711207Y187378D01*
X712059Y187150D01*
X712941D01*
X713793Y187378D01*
X714557Y187819D01*
X715181Y188443D01*
X715622Y189207D01*
X715850Y190059D01*
Y190941D01*
X715622Y191793D01*
X715533Y191947D01*
X718470Y194884D01*
X718470Y194884D01*
X718713Y195248D01*
X718799Y195677D01*
X718799Y195677D01*
Y203845D01*
X719299Y203979D01*
X719319Y203943D01*
X719943Y203319D01*
X720707Y202878D01*
X721559Y202650D01*
X722441D01*
X723293Y202878D01*
X724057Y203319D01*
X724681Y203943D01*
X725122Y204707D01*
X725350Y205559D01*
Y206441D01*
X725122Y207293D01*
X724681Y208057D01*
X724057Y208681D01*
X723293Y209122D01*
X722441Y209350D01*
X721559D01*
X720707Y209122D01*
X719943Y208681D01*
X719319Y208057D01*
X719299Y208021D01*
X718799Y208155D01*
Y265426D01*
X719428Y265595D01*
X720463Y266192D01*
X721308Y267037D01*
X721905Y268072D01*
X722214Y269226D01*
Y270420D01*
X721905Y271574D01*
X721308Y272609D01*
X720463Y273453D01*
X719428Y274051D01*
X718274Y274360D01*
D02*
G37*
G36*
X712441Y209350D02*
X711559D01*
X710707Y209122D01*
X709943Y208681D01*
X709319Y208057D01*
X708878Y207293D01*
X708650Y206441D01*
Y205559D01*
X708878Y204707D01*
X709319Y203943D01*
X709943Y203319D01*
X710707Y202878D01*
X711559Y202650D01*
X712441D01*
X713293Y202878D01*
X714057Y203319D01*
X714681Y203943D01*
X715122Y204707D01*
X715350Y205559D01*
Y206441D01*
X715122Y207293D01*
X714681Y208057D01*
X714057Y208681D01*
X713293Y209122D01*
X712441Y209350D01*
D02*
G37*
G36*
X678441D02*
X677559D01*
X676707Y209122D01*
X675943Y208681D01*
X675319Y208057D01*
X674878Y207293D01*
X674650Y206441D01*
Y205559D01*
X674878Y204707D01*
X675319Y203943D01*
X675943Y203319D01*
X676707Y202878D01*
X677559Y202650D01*
X678441D01*
X679293Y202878D01*
X680057Y203319D01*
X680681Y203943D01*
X681122Y204707D01*
X681350Y205559D01*
Y206441D01*
X681122Y207293D01*
X680681Y208057D01*
X680057Y208681D01*
X679293Y209122D01*
X678441Y209350D01*
D02*
G37*
G36*
X668441D02*
X667559D01*
X666707Y209122D01*
X665943Y208681D01*
X665319Y208057D01*
X664878Y207293D01*
X664650Y206441D01*
Y205559D01*
X664878Y204707D01*
X665319Y203943D01*
X665943Y203319D01*
X666707Y202878D01*
X667559Y202650D01*
X668441D01*
X669293Y202878D01*
X670057Y203319D01*
X670681Y203943D01*
X671122Y204707D01*
X671350Y205559D01*
Y206441D01*
X671122Y207293D01*
X670681Y208057D01*
X670057Y208681D01*
X669293Y209122D01*
X668441Y209350D01*
D02*
G37*
G36*
X702941Y193850D02*
X702059D01*
X701207Y193622D01*
X700443Y193181D01*
X699819Y192557D01*
X699378Y191793D01*
X699150Y190941D01*
Y190059D01*
X699378Y189207D01*
X699819Y188443D01*
X700443Y187819D01*
X701207Y187378D01*
X702059Y187150D01*
X702941D01*
X703793Y187378D01*
X704557Y187819D01*
X705181Y188443D01*
X705622Y189207D01*
X705850Y190059D01*
Y190941D01*
X705622Y191793D01*
X705181Y192557D01*
X704557Y193181D01*
X703793Y193622D01*
X702941Y193850D01*
D02*
G37*
G36*
X692941D02*
X692059D01*
X691207Y193622D01*
X690443Y193181D01*
X689819Y192557D01*
X689378Y191793D01*
X689150Y190941D01*
Y190059D01*
X689378Y189207D01*
X689819Y188443D01*
X690443Y187819D01*
X691207Y187378D01*
X692059Y187150D01*
X692941D01*
X693793Y187378D01*
X694557Y187819D01*
X695181Y188443D01*
X695622Y189207D01*
X695850Y190059D01*
Y190941D01*
X695622Y191793D01*
X695181Y192557D01*
X694557Y193181D01*
X693793Y193622D01*
X692941Y193850D01*
D02*
G37*
G36*
X708000Y184248D02*
Y181000D01*
X711248D01*
X710994Y181948D01*
X710501Y182802D01*
X709802Y183501D01*
X708948Y183994D01*
X708000Y184248D01*
D02*
G37*
G36*
X707000D02*
X706052Y183994D01*
X705197Y183501D01*
X704499Y182802D01*
X704006Y181948D01*
X703752Y181000D01*
X707000D01*
Y184248D01*
D02*
G37*
G36*
X698000D02*
Y181000D01*
X701248D01*
X700994Y181948D01*
X700501Y182802D01*
X699802Y183501D01*
X698947Y183994D01*
X698000Y184248D01*
D02*
G37*
G36*
X697000D02*
X696053Y183994D01*
X695197Y183501D01*
X694499Y182802D01*
X694006Y181948D01*
X693752Y181000D01*
X697000D01*
Y184248D01*
D02*
G37*
G36*
X688000D02*
Y181000D01*
X691248D01*
X690994Y181948D01*
X690501Y182802D01*
X689803Y183501D01*
X688947Y183994D01*
X688000Y184248D01*
D02*
G37*
G36*
X677000D02*
X676053Y183994D01*
X675198Y183501D01*
X674499Y182802D01*
X674006Y181948D01*
X673752Y181000D01*
X677000D01*
Y184248D01*
D02*
G37*
G36*
X727619Y189200D02*
X726381D01*
X725186Y188880D01*
X724114Y188261D01*
X723239Y187386D01*
X722620Y186314D01*
X722300Y185119D01*
Y183881D01*
X722620Y182686D01*
X723239Y181614D01*
X724114Y180739D01*
X725186Y180120D01*
X726381Y179800D01*
X727619D01*
X728814Y180120D01*
X729886Y180739D01*
X730761Y181614D01*
X731380Y182686D01*
X731700Y183881D01*
Y185119D01*
X731380Y186314D01*
X730761Y187386D01*
X729886Y188261D01*
X728814Y188880D01*
X727619Y189200D01*
D02*
G37*
G36*
X853623Y188734D02*
X852377D01*
X851173Y188411D01*
X850093Y187788D01*
X849212Y186907D01*
X848589Y185827D01*
X848266Y184623D01*
Y183377D01*
X848589Y182173D01*
X849212Y181093D01*
X850093Y180212D01*
X851173Y179589D01*
X852377Y179266D01*
X853623D01*
X854827Y179589D01*
X855907Y180212D01*
X856788Y181093D01*
X857411Y182173D01*
X857734Y183377D01*
Y184623D01*
X857411Y185827D01*
X856788Y186907D01*
X855907Y187788D01*
X854827Y188411D01*
X853623Y188734D01*
D02*
G37*
G36*
X826623D02*
X825377D01*
X824173Y188411D01*
X823093Y187788D01*
X822212Y186907D01*
X821589Y185827D01*
X821266Y184623D01*
Y183377D01*
X821589Y182173D01*
X822212Y181093D01*
X823093Y180212D01*
X824173Y179589D01*
X825377Y179266D01*
X826623D01*
X827827Y179589D01*
X828907Y180212D01*
X829788Y181093D01*
X830411Y182173D01*
X830734Y183377D01*
Y184623D01*
X830411Y185827D01*
X829788Y186907D01*
X828907Y187788D01*
X827827Y188411D01*
X826623Y188734D01*
D02*
G37*
G36*
X800623D02*
X799377D01*
X798173Y188411D01*
X797093Y187788D01*
X796212Y186907D01*
X795589Y185827D01*
X795266Y184623D01*
Y183377D01*
X795589Y182173D01*
X796212Y181093D01*
X797093Y180212D01*
X798173Y179589D01*
X799377Y179266D01*
X800623D01*
X801827Y179589D01*
X802907Y180212D01*
X803788Y181093D01*
X804411Y182173D01*
X804734Y183377D01*
Y184623D01*
X804411Y185827D01*
X803788Y186907D01*
X802907Y187788D01*
X801827Y188411D01*
X800623Y188734D01*
D02*
G37*
G36*
X939773Y194850D02*
X938227D01*
X936710Y194548D01*
X935282Y193957D01*
X933996Y193097D01*
X932903Y192004D01*
X932043Y190718D01*
X931452Y189290D01*
X931150Y187773D01*
Y186227D01*
X931452Y184710D01*
X932043Y183282D01*
X932903Y181996D01*
X933996Y180903D01*
X935282Y180043D01*
X936710Y179452D01*
X938227Y179150D01*
X939773D01*
X941290Y179452D01*
X942718Y180043D01*
X944004Y180903D01*
X945098Y181996D01*
X945957Y183282D01*
X946548Y184710D01*
X946850Y186227D01*
Y187773D01*
X946548Y189290D01*
X945957Y190718D01*
X945098Y192004D01*
X944004Y193097D01*
X942718Y193957D01*
X941290Y194548D01*
X939773Y194850D01*
D02*
G37*
G36*
X711248Y180000D02*
X708000D01*
Y176752D01*
X708948Y177006D01*
X709802Y177499D01*
X710501Y178198D01*
X710994Y179052D01*
X711248Y180000D01*
D02*
G37*
G36*
X707000D02*
X703752D01*
X704006Y179052D01*
X704499Y178198D01*
X705197Y177499D01*
X706052Y177006D01*
X707000Y176752D01*
Y180000D01*
D02*
G37*
G36*
X701248D02*
X698000D01*
Y176752D01*
X698947Y177006D01*
X699802Y177499D01*
X700501Y178198D01*
X700994Y179052D01*
X701248Y180000D01*
D02*
G37*
G36*
X697000D02*
X693752D01*
X694006Y179052D01*
X694499Y178198D01*
X695197Y177499D01*
X696053Y177006D01*
X697000Y176752D01*
Y180000D01*
D02*
G37*
G36*
X691248D02*
X688000D01*
Y176752D01*
X688947Y177006D01*
X689803Y177499D01*
X690501Y178198D01*
X690994Y179052D01*
X691248Y180000D01*
D02*
G37*
G36*
X677000D02*
X673752D01*
X674006Y179052D01*
X674499Y178198D01*
X675198Y177499D01*
X676053Y177006D01*
X677000Y176752D01*
Y180000D01*
D02*
G37*
G36*
X713000Y169748D02*
Y166500D01*
X716248D01*
X715994Y167447D01*
X715501Y168303D01*
X714803Y169001D01*
X713947Y169494D01*
X713000Y169748D01*
D02*
G37*
G36*
X712000D02*
X711053Y169494D01*
X710197Y169001D01*
X709499Y168303D01*
X709006Y167447D01*
X708752Y166500D01*
X712000D01*
Y169748D01*
D02*
G37*
G36*
X703000D02*
Y166500D01*
X706248D01*
X705994Y167447D01*
X705501Y168303D01*
X704803Y169001D01*
X703947Y169494D01*
X703000Y169748D01*
D02*
G37*
G36*
X702000D02*
X701053Y169494D01*
X700198Y169001D01*
X699499Y168303D01*
X699006Y167447D01*
X698752Y166500D01*
X702000D01*
Y169748D01*
D02*
G37*
G36*
X693000D02*
Y166500D01*
X696248D01*
X695994Y167447D01*
X695501Y168303D01*
X694803Y169001D01*
X693948Y169494D01*
X693000Y169748D01*
D02*
G37*
G36*
X692000D02*
X691052Y169494D01*
X690198Y169001D01*
X689499Y168303D01*
X689006Y167447D01*
X688752Y166500D01*
X692000D01*
Y169748D01*
D02*
G37*
G36*
X683000D02*
Y166500D01*
X686248D01*
X685994Y167447D01*
X685501Y168303D01*
X684802Y169001D01*
X683948Y169494D01*
X683000Y169748D01*
D02*
G37*
G36*
X682000D02*
X681052Y169494D01*
X680197Y169001D01*
X679499Y168303D01*
X679006Y167447D01*
X678752Y166500D01*
X682000D01*
Y169748D01*
D02*
G37*
G36*
X716248Y165500D02*
X713000D01*
Y162252D01*
X713947Y162506D01*
X714803Y162999D01*
X715501Y163698D01*
X715994Y164552D01*
X716248Y165500D01*
D02*
G37*
G36*
X712000D02*
X708752D01*
X709006Y164552D01*
X709499Y163698D01*
X710197Y162999D01*
X711053Y162506D01*
X712000Y162252D01*
Y165500D01*
D02*
G37*
G36*
X706248D02*
X703000D01*
Y162252D01*
X703947Y162506D01*
X704803Y162999D01*
X705501Y163698D01*
X705994Y164552D01*
X706248Y165500D01*
D02*
G37*
G36*
X702000D02*
X698752D01*
X699006Y164552D01*
X699499Y163698D01*
X700198Y162999D01*
X701053Y162506D01*
X702000Y162252D01*
Y165500D01*
D02*
G37*
G36*
X696248D02*
X693000D01*
Y162252D01*
X693948Y162506D01*
X694803Y162999D01*
X695501Y163698D01*
X695994Y164552D01*
X696248Y165500D01*
D02*
G37*
G36*
X692000D02*
X688752D01*
X689006Y164552D01*
X689499Y163698D01*
X690198Y162999D01*
X691052Y162506D01*
X692000Y162252D01*
Y165500D01*
D02*
G37*
G36*
X686248D02*
X683000D01*
Y162252D01*
X683948Y162506D01*
X684802Y162999D01*
X685501Y163698D01*
X685994Y164552D01*
X686248Y165500D01*
D02*
G37*
G36*
X912540Y589021D02*
X911460D01*
X910417Y588742D01*
X909482Y588202D01*
X908719Y587439D01*
X908179Y586504D01*
X907900Y585461D01*
Y584381D01*
X908179Y583339D01*
X908719Y582404D01*
X909482Y581640D01*
X910417Y581101D01*
X910878Y580977D01*
Y535200D01*
X910878Y535200D01*
X910964Y534771D01*
X911207Y534407D01*
X924807Y520807D01*
X924807Y520807D01*
X925171Y520564D01*
X925600Y520478D01*
X942335D01*
X954278Y508535D01*
Y396665D01*
X902207Y344593D01*
X901964Y344229D01*
X901878Y343800D01*
X901878Y343800D01*
Y212465D01*
X846378Y156964D01*
X836856D01*
Y158942D01*
X830656D01*
Y152743D01*
X836856D01*
Y154721D01*
X846842D01*
X846843Y154721D01*
X847272Y154806D01*
X847636Y155050D01*
X903793Y211207D01*
X903793Y211207D01*
X904036Y211571D01*
X904122Y212000D01*
X904122Y212000D01*
Y343335D01*
X956193Y395407D01*
X956436Y395771D01*
X956522Y396200D01*
X956522Y396200D01*
Y509000D01*
X956522Y509000D01*
X956436Y509429D01*
X956193Y509793D01*
X956193Y509793D01*
X943593Y522393D01*
X943229Y522636D01*
X942800Y522722D01*
X942800Y522722D01*
X926065D01*
X913122Y535665D01*
Y580977D01*
X913583Y581101D01*
X914517Y581640D01*
X915281Y582404D01*
X915821Y583339D01*
X916100Y584381D01*
Y585461D01*
X915821Y586504D01*
X915281Y587439D01*
X914517Y588202D01*
X913583Y588742D01*
X912540Y589021D01*
D02*
G37*
G36*
X825266Y159100D02*
X824450D01*
X823662Y158889D01*
X822955Y158481D01*
X822378Y157903D01*
X821970Y157197D01*
X821758Y156408D01*
Y155592D01*
X821970Y154803D01*
X822378Y154097D01*
X822955Y153519D01*
X823662Y153111D01*
X824450Y152900D01*
X825266D01*
X826055Y153111D01*
X826762Y153519D01*
X827339Y154097D01*
X827747Y154803D01*
X827958Y155592D01*
Y156408D01*
X827747Y157197D01*
X827339Y157903D01*
X826762Y158481D01*
X826055Y158889D01*
X825266Y159100D01*
D02*
G37*
G36*
X807314D02*
X806497D01*
X805709Y158889D01*
X805002Y158481D01*
X804425Y157903D01*
X804017Y157197D01*
X803806Y156408D01*
Y155592D01*
X804017Y154803D01*
X804425Y154097D01*
X805002Y153519D01*
X805709Y153111D01*
X806497Y152900D01*
X807314D01*
X808102Y153111D01*
X808809Y153519D01*
X809386Y154097D01*
X809794Y154803D01*
X810005Y155592D01*
Y156408D01*
X809794Y157197D01*
X809386Y157903D01*
X808809Y158481D01*
X808102Y158889D01*
X807314Y159100D01*
D02*
G37*
G36*
X798337D02*
X797521D01*
X796733Y158889D01*
X796026Y158481D01*
X795448Y157903D01*
X795040Y157197D01*
X794829Y156408D01*
Y155592D01*
X795040Y154803D01*
X795448Y154097D01*
X796026Y153519D01*
X796733Y153111D01*
X797521Y152900D01*
X798337D01*
X799126Y153111D01*
X799832Y153519D01*
X800410Y154097D01*
X800818Y154803D01*
X801029Y155592D01*
Y156408D01*
X800818Y157197D01*
X800410Y157903D01*
X799832Y158481D01*
X799126Y158889D01*
X798337Y159100D01*
D02*
G37*
G36*
X697941Y159350D02*
X697059D01*
X696207Y159122D01*
X695443Y158681D01*
X694819Y158057D01*
X694378Y157293D01*
X694150Y156441D01*
Y155559D01*
X694378Y154707D01*
X694819Y153943D01*
X695443Y153319D01*
X696207Y152878D01*
X697059Y152650D01*
X697941D01*
X698793Y152878D01*
X699557Y153319D01*
X700181Y153943D01*
X700622Y154707D01*
X700850Y155559D01*
Y156441D01*
X700622Y157293D01*
X700181Y158057D01*
X699557Y158681D01*
X698793Y159122D01*
X697941Y159350D01*
D02*
G37*
G36*
X727632Y156300D02*
X726368D01*
X725147Y155973D01*
X724053Y155341D01*
X723159Y154447D01*
X722527Y153353D01*
X722200Y152132D01*
Y150868D01*
X722527Y149647D01*
X723159Y148553D01*
X724053Y147659D01*
X725147Y147027D01*
X726368Y146700D01*
X727632D01*
X728853Y147027D01*
X729947Y147659D01*
X730841Y148553D01*
X731473Y149647D01*
X731800Y150868D01*
Y152132D01*
X731473Y153353D01*
X730841Y154447D01*
X729947Y155341D01*
X728853Y155973D01*
X727632Y156300D01*
D02*
G37*
G36*
X663632D02*
X662368D01*
X661147Y155973D01*
X660053Y155341D01*
X659159Y154447D01*
X658527Y153353D01*
X658200Y152132D01*
Y150868D01*
X658527Y149647D01*
X659159Y148553D01*
X660053Y147659D01*
X661147Y147027D01*
X662368Y146700D01*
X663632D01*
X664853Y147027D01*
X665947Y147659D01*
X666841Y148553D01*
X667473Y149647D01*
X667800Y150868D01*
Y152132D01*
X667473Y153353D01*
X666841Y154447D01*
X665947Y155341D01*
X664853Y155973D01*
X663632Y156300D01*
D02*
G37*
G36*
X829846Y149489D02*
Y146500D01*
X832836D01*
X832608Y147351D01*
X832147Y148149D01*
X831495Y148801D01*
X830697Y149261D01*
X829846Y149489D01*
D02*
G37*
G36*
X828846D02*
X827995Y149261D01*
X827197Y148801D01*
X826546Y148149D01*
X826085Y147351D01*
X825857Y146500D01*
X828846D01*
Y149489D01*
D02*
G37*
G36*
X838731Y149100D02*
X837915D01*
X837126Y148889D01*
X836419Y148481D01*
X835842Y147903D01*
X835434Y147197D01*
X835223Y146408D01*
Y145592D01*
X835434Y144803D01*
X835842Y144097D01*
X836419Y143519D01*
X837126Y143111D01*
X837915Y142900D01*
X838731D01*
X839519Y143111D01*
X840226Y143519D01*
X840803Y144097D01*
X841212Y144803D01*
X841423Y145592D01*
Y146408D01*
X841212Y147197D01*
X840803Y147903D01*
X840226Y148481D01*
X839519Y148889D01*
X838731Y149100D01*
D02*
G37*
G36*
X820778D02*
X819962D01*
X819174Y148889D01*
X818467Y148481D01*
X817889Y147903D01*
X817481Y147197D01*
X817270Y146408D01*
Y145592D01*
X817481Y144803D01*
X817889Y144097D01*
X818467Y143519D01*
X819174Y143111D01*
X819962Y142900D01*
X820778D01*
X821567Y143111D01*
X822274Y143519D01*
X822851Y144097D01*
X823259Y144803D01*
X823470Y145592D01*
Y146408D01*
X823259Y147197D01*
X822851Y147903D01*
X822274Y148481D01*
X821567Y148889D01*
X820778Y149100D01*
D02*
G37*
G36*
X811802D02*
X810985D01*
X810197Y148889D01*
X809490Y148481D01*
X808913Y147903D01*
X808505Y147197D01*
X808294Y146408D01*
Y145592D01*
X808505Y144803D01*
X808913Y144097D01*
X809490Y143519D01*
X810197Y143111D01*
X810985Y142900D01*
X811802D01*
X812590Y143111D01*
X813297Y143519D01*
X813874Y144097D01*
X814282Y144803D01*
X814494Y145592D01*
Y146408D01*
X814282Y147197D01*
X813874Y147903D01*
X813297Y148481D01*
X812590Y148889D01*
X811802Y149100D01*
D02*
G37*
G36*
X802825D02*
X802009D01*
X801221Y148889D01*
X800514Y148481D01*
X799937Y147903D01*
X799529Y147197D01*
X799317Y146408D01*
Y145592D01*
X799529Y144803D01*
X799937Y144097D01*
X800514Y143519D01*
X801221Y143111D01*
X802009Y142900D01*
X802825D01*
X803614Y143111D01*
X804321Y143519D01*
X804898Y144097D01*
X805306Y144803D01*
X805517Y145592D01*
Y146408D01*
X805306Y147197D01*
X804898Y147903D01*
X804321Y148481D01*
X803614Y148889D01*
X802825Y149100D01*
D02*
G37*
G36*
X832836Y145500D02*
X829846D01*
Y142510D01*
X830697Y142738D01*
X831495Y143199D01*
X832147Y143851D01*
X832608Y144649D01*
X832836Y145500D01*
D02*
G37*
G36*
X828846D02*
X825857D01*
X826085Y144649D01*
X826546Y143851D01*
X827197Y143199D01*
X827995Y142738D01*
X828846Y142510D01*
Y145500D01*
D02*
G37*
G36*
X722441Y143350D02*
X721559D01*
X720707Y143122D01*
X719943Y142681D01*
X719319Y142057D01*
X718878Y141293D01*
X718650Y140441D01*
Y139559D01*
X718878Y138707D01*
X719319Y137943D01*
X719943Y137319D01*
X720707Y136878D01*
X721559Y136650D01*
X722441D01*
X723293Y136878D01*
X724057Y137319D01*
X724681Y137943D01*
X725122Y138707D01*
X725350Y139559D01*
Y140441D01*
X725122Y141293D01*
X724681Y142057D01*
X724057Y142681D01*
X723293Y143122D01*
X722441Y143350D01*
D02*
G37*
G36*
X712441D02*
X711559D01*
X710707Y143122D01*
X709943Y142681D01*
X709319Y142057D01*
X708878Y141293D01*
X708650Y140441D01*
Y139559D01*
X708878Y138707D01*
X709319Y137943D01*
X709943Y137319D01*
X710707Y136878D01*
X711559Y136650D01*
X712441D01*
X713293Y136878D01*
X714057Y137319D01*
X714681Y137943D01*
X715122Y138707D01*
X715350Y139559D01*
Y140441D01*
X715122Y141293D01*
X714681Y142057D01*
X714057Y142681D01*
X713293Y143122D01*
X712441Y143350D01*
D02*
G37*
G36*
X678441D02*
X677559D01*
X676707Y143122D01*
X675943Y142681D01*
X675319Y142057D01*
X674878Y141293D01*
X674650Y140441D01*
Y139559D01*
X674878Y138707D01*
X675319Y137943D01*
X675943Y137319D01*
X676707Y136878D01*
X677559Y136650D01*
X678441D01*
X679293Y136878D01*
X680057Y137319D01*
X680681Y137943D01*
X681122Y138707D01*
X681350Y139559D01*
Y140441D01*
X681122Y141293D01*
X680681Y142057D01*
X680057Y142681D01*
X679293Y143122D01*
X678441Y143350D01*
D02*
G37*
G36*
X668441D02*
X667559D01*
X666707Y143122D01*
X665943Y142681D01*
X665319Y142057D01*
X664878Y141293D01*
X664650Y140441D01*
Y139559D01*
X664878Y138707D01*
X665319Y137943D01*
X665943Y137319D01*
X666707Y136878D01*
X667559Y136650D01*
X668441D01*
X669293Y136878D01*
X670057Y137319D01*
X670681Y137943D01*
X671122Y138707D01*
X671350Y139559D01*
Y140441D01*
X671122Y141293D01*
X670681Y142057D01*
X670057Y142681D01*
X669293Y143122D01*
X668441Y143350D01*
D02*
G37*
G36*
X866822Y156442D02*
X865178D01*
X863555Y156185D01*
X861991Y155677D01*
X860527Y154931D01*
X859197Y153965D01*
X858035Y152803D01*
X857069Y151473D01*
X856322Y150008D01*
X855815Y148445D01*
X855557Y146822D01*
Y145178D01*
X855815Y143555D01*
X856322Y141991D01*
X857069Y140527D01*
X858035Y139197D01*
X859197Y138035D01*
X860527Y137069D01*
X861991Y136322D01*
X863555Y135815D01*
X865178Y135557D01*
X866822D01*
X868445Y135815D01*
X870008Y136322D01*
X871473Y137069D01*
X872803Y138035D01*
X873965Y139197D01*
X874931Y140527D01*
X875677Y141991D01*
X876185Y143555D01*
X876443Y145178D01*
Y146822D01*
X876185Y148445D01*
X875677Y150008D01*
X874931Y151473D01*
X873965Y152803D01*
X872803Y153965D01*
X871473Y154931D01*
X870008Y155677D01*
X868445Y156185D01*
X866822Y156442D01*
D02*
G37*
G36*
X768436D02*
X766792D01*
X765169Y156185D01*
X763606Y155677D01*
X762141Y154931D01*
X760811Y153965D01*
X759649Y152803D01*
X758683Y151473D01*
X757937Y150008D01*
X757429Y148445D01*
X757172Y146822D01*
Y145178D01*
X757429Y143555D01*
X757937Y141991D01*
X758683Y140527D01*
X759649Y139197D01*
X760811Y138035D01*
X762141Y137069D01*
X763606Y136322D01*
X765169Y135815D01*
X766792Y135557D01*
X768436D01*
X770059Y135815D01*
X771623Y136322D01*
X773087Y137069D01*
X774417Y138035D01*
X775579Y139197D01*
X776545Y140527D01*
X777292Y141991D01*
X777800Y143555D01*
X778057Y145178D01*
Y146822D01*
X777800Y148445D01*
X777292Y150008D01*
X776545Y151473D01*
X775579Y152803D01*
X774417Y153965D01*
X773087Y154931D01*
X771623Y155677D01*
X770059Y156185D01*
X768436Y156442D01*
D02*
G37*
G36*
X834243Y139100D02*
X833426D01*
X832638Y138889D01*
X831931Y138481D01*
X831354Y137903D01*
X830946Y137197D01*
X830735Y136408D01*
Y135592D01*
X830946Y134803D01*
X831354Y134097D01*
X831931Y133519D01*
X832638Y133111D01*
X833426Y132900D01*
X834243D01*
X835031Y133111D01*
X835738Y133519D01*
X836315Y134097D01*
X836723Y134803D01*
X836935Y135592D01*
Y136408D01*
X836723Y137197D01*
X836315Y137903D01*
X835738Y138481D01*
X835031Y138889D01*
X834243Y139100D01*
D02*
G37*
G36*
X825266D02*
X824450D01*
X823662Y138889D01*
X822955Y138481D01*
X822378Y137903D01*
X821970Y137197D01*
X821758Y136408D01*
Y135592D01*
X821970Y134803D01*
X822378Y134097D01*
X822955Y133519D01*
X823662Y133111D01*
X824450Y132900D01*
X825266D01*
X826055Y133111D01*
X826762Y133519D01*
X827339Y134097D01*
X827747Y134803D01*
X827958Y135592D01*
Y136408D01*
X827747Y137197D01*
X827339Y137903D01*
X826762Y138481D01*
X826055Y138889D01*
X825266Y139100D01*
D02*
G37*
G36*
X816290D02*
X815474D01*
X814685Y138889D01*
X813978Y138481D01*
X813401Y137903D01*
X812993Y137197D01*
X812782Y136408D01*
Y135592D01*
X812993Y134803D01*
X813401Y134097D01*
X813978Y133519D01*
X814685Y133111D01*
X815474Y132900D01*
X816290D01*
X817078Y133111D01*
X817785Y133519D01*
X818363Y134097D01*
X818771Y134803D01*
X818982Y135592D01*
Y136408D01*
X818771Y137197D01*
X818363Y137903D01*
X817785Y138481D01*
X817078Y138889D01*
X816290Y139100D01*
D02*
G37*
G36*
X807314D02*
X806497D01*
X805709Y138889D01*
X805002Y138481D01*
X804425Y137903D01*
X804017Y137197D01*
X803806Y136408D01*
Y135592D01*
X804017Y134803D01*
X804425Y134097D01*
X805002Y133519D01*
X805709Y133111D01*
X806497Y132900D01*
X807314D01*
X808102Y133111D01*
X808809Y133519D01*
X809386Y134097D01*
X809794Y134803D01*
X810005Y135592D01*
Y136408D01*
X809794Y137197D01*
X809386Y137903D01*
X808809Y138481D01*
X808102Y138889D01*
X807314Y139100D01*
D02*
G37*
G36*
X798337D02*
X797521D01*
X796733Y138889D01*
X796026Y138481D01*
X795448Y137903D01*
X795040Y137197D01*
X794829Y136408D01*
Y135592D01*
X795040Y134803D01*
X795448Y134097D01*
X796026Y133519D01*
X796733Y133111D01*
X797521Y132900D01*
X798337D01*
X799126Y133111D01*
X799832Y133519D01*
X800410Y134097D01*
X800818Y134803D01*
X801029Y135592D01*
Y136408D01*
X800818Y137197D01*
X800410Y137903D01*
X799832Y138481D01*
X799126Y138889D01*
X798337Y139100D01*
D02*
G37*
G36*
X975259Y140094D02*
X974500D01*
Y124594D01*
X990000D01*
Y125354D01*
X989606Y127841D01*
X988828Y130236D01*
X987684Y132480D01*
X986204Y134518D01*
X984423Y136299D01*
X982386Y137779D01*
X980142Y138922D01*
X977747Y139700D01*
X975259Y140094D01*
D02*
G37*
G36*
X973500D02*
X972741D01*
X970253Y139700D01*
X967858Y138922D01*
X965614Y137779D01*
X963577Y136299D01*
X961796Y134518D01*
X960316Y132480D01*
X959172Y130236D01*
X958394Y127841D01*
X958000Y125354D01*
Y124594D01*
X973500D01*
Y140094D01*
D02*
G37*
G36*
X720689Y130500D02*
X719311D01*
X717958Y130231D01*
X716684Y129703D01*
X715538Y128937D01*
X714563Y127962D01*
X713797Y126816D01*
X713269Y125542D01*
X713000Y124189D01*
Y122811D01*
X713269Y121458D01*
X713797Y120184D01*
X714563Y119038D01*
X715538Y118063D01*
X716684Y117297D01*
X717958Y116769D01*
X719311Y116500D01*
X720689D01*
X722042Y116769D01*
X723316Y117297D01*
X724462Y118063D01*
X725437Y119038D01*
X726203Y120184D01*
X726731Y121458D01*
X727000Y122811D01*
Y124189D01*
X726731Y125542D01*
X726203Y126816D01*
X725437Y127962D01*
X724462Y128937D01*
X723316Y129703D01*
X722042Y130231D01*
X720689Y130500D01*
D02*
G37*
G36*
X670689D02*
X669311D01*
X667958Y130231D01*
X666684Y129703D01*
X665538Y128937D01*
X664563Y127962D01*
X663797Y126816D01*
X663269Y125542D01*
X663000Y124189D01*
Y122811D01*
X663269Y121458D01*
X663797Y120184D01*
X664563Y119038D01*
X665538Y118063D01*
X666684Y117297D01*
X667958Y116769D01*
X669311Y116500D01*
X670689D01*
X672042Y116769D01*
X673316Y117297D01*
X674462Y118063D01*
X675437Y119038D01*
X676203Y120184D01*
X676731Y121458D01*
X677000Y122811D01*
Y124189D01*
X676731Y125542D01*
X676203Y126816D01*
X675437Y127962D01*
X674462Y128937D01*
X673316Y129703D01*
X672042Y130231D01*
X670689Y130500D01*
D02*
G37*
G36*
X990000Y123594D02*
X974500D01*
Y108095D01*
X975259D01*
X977747Y108489D01*
X980142Y109267D01*
X982386Y110410D01*
X984423Y111890D01*
X986204Y113671D01*
X987684Y115709D01*
X988828Y117953D01*
X989606Y120348D01*
X990000Y122835D01*
Y123594D01*
D02*
G37*
G36*
X973500D02*
X958000D01*
Y122835D01*
X958394Y120348D01*
X959172Y117953D01*
X960316Y115709D01*
X961796Y113671D01*
X963577Y111890D01*
X965614Y110410D01*
X967858Y109267D01*
X970253Y108489D01*
X972741Y108095D01*
X973500D01*
Y123594D01*
D02*
G37*
%LPD*%
D10*
X772400Y331400D02*
Y394600D01*
X770000Y329000D02*
X772400Y331400D01*
X746200Y425793D02*
X760346Y411646D01*
Y399646D02*
Y411646D01*
X772400Y394600D02*
X785100Y407300D01*
X693677Y402677D02*
X714677D01*
X677000Y386000D02*
X693677Y402677D01*
X677000Y344000D02*
Y386000D01*
X752000Y392300D02*
X759346Y399646D01*
X760346D01*
X785100Y417300D02*
Y474800D01*
Y407300D02*
Y417300D01*
X745200Y426800D02*
X747000Y425000D01*
X702000Y540000D02*
X718000D01*
X691000Y529000D02*
X702000Y540000D01*
X691000Y424000D02*
Y529000D01*
X745200Y538200D02*
X758125Y551125D01*
X745200Y426800D02*
Y538200D01*
X768200Y231686D02*
X770000Y233486D01*
Y329000D01*
X768200Y230900D02*
Y231686D01*
X900000Y391307D02*
X912000Y403307D01*
X849000Y164000D02*
X900000Y215000D01*
Y391307D01*
X846843Y155843D02*
X903000Y212000D01*
Y343800D02*
X955400Y396200D01*
X903000Y212000D02*
Y343800D01*
X798000Y216000D02*
Y587950D01*
X754400Y172400D02*
X798000Y216000D01*
Y587950D02*
X836425Y626375D01*
X687100Y172400D02*
X754400D01*
X823882Y164000D02*
X849000D01*
X815882Y156000D02*
X823882Y164000D01*
X833756Y155843D02*
X846843D01*
X747000Y264100D02*
X764346Y281446D01*
X747000Y205000D02*
Y264100D01*
X925600Y521600D02*
X942800D01*
X955400Y396200D02*
Y509000D01*
X942800Y521600D02*
X955400Y509000D01*
X912000Y535200D02*
X925600Y521600D01*
X912000Y535200D02*
Y584921D01*
X682300Y177200D02*
Y190300D01*
X682500Y190500D01*
X682300Y177200D02*
X687100Y172400D01*
X770075Y489825D02*
X785100Y474800D01*
X752000Y293793D02*
X764346Y281446D01*
X752000Y293793D02*
Y392300D01*
X717677Y195677D02*
Y269823D01*
X712500Y190500D02*
X717677Y195677D01*
X682600Y149400D02*
Y158400D01*
X671000Y170000D02*
X682600Y158400D01*
Y149400D02*
X686000Y146000D01*
X697500D01*
X707500Y156000D01*
X671000Y170000D02*
Y190000D01*
X691000Y210000D01*
X657000Y209000D02*
X684000Y236000D01*
Y327000D01*
X657000Y176500D02*
Y209000D01*
Y176500D02*
X677500Y156000D01*
X672000Y339000D02*
X684000Y327000D01*
X672000Y339000D02*
Y405000D01*
X691000Y210000D02*
Y330000D01*
X677000Y344000D02*
X691000Y330000D01*
X672000Y405000D02*
X691000Y424000D01*
D29*
X922000Y249772D02*
D03*
Y423386D02*
D03*
Y605000D02*
D03*
D30*
X912000Y243079D02*
D03*
X922000Y236386D02*
D03*
X912000Y229693D02*
D03*
X922000Y223000D02*
D03*
Y396614D02*
D03*
X912000Y403307D02*
D03*
X922000Y410000D02*
D03*
X912000Y416693D02*
D03*
X922000Y578228D02*
D03*
X912000Y584921D02*
D03*
X922000Y591614D02*
D03*
X912000Y598307D02*
D03*
X741500Y312500D02*
D03*
X731500Y447500D02*
D03*
X731500Y582500D02*
D03*
D35*
X790000Y700000D02*
D03*
X850000D02*
D03*
D36*
X790000Y680300D02*
D03*
X850000D02*
D03*
D47*
X867500Y312500D02*
D03*
X857500Y447500D02*
D03*
X857500Y582500D02*
D03*
D49*
X800000Y184000D02*
D03*
X826000D02*
D03*
X853000D02*
D03*
X784000Y281000D02*
D03*
X663000Y356000D02*
D03*
X723000Y485000D02*
D03*
X780000Y539000D02*
D03*
X723000Y351000D02*
D03*
X890000Y585000D02*
D03*
X695000Y690000D02*
D03*
X775000Y412000D02*
D03*
X885000Y400000D02*
D03*
X890000Y231000D02*
D03*
X858000Y618000D02*
D03*
X770000Y214000D02*
D03*
D50*
X730323Y527677D02*
D03*
Y552323D02*
D03*
X705677D02*
D03*
Y527677D02*
D03*
X705354Y282146D02*
D03*
X730000D02*
D03*
Y257500D02*
D03*
X705354D02*
D03*
X702354Y415000D02*
D03*
X727000D02*
D03*
Y390354D02*
D03*
X702354D02*
D03*
D51*
X718000Y540000D02*
D03*
X717677Y269823D02*
D03*
X714677Y402677D02*
D03*
D52*
X939000Y187000D02*
D03*
Y287000D02*
D03*
Y542000D02*
D03*
Y642000D02*
D03*
Y460000D02*
D03*
Y360000D02*
D03*
D53*
X677500Y156000D02*
D03*
X682500Y166000D02*
D03*
X687500Y156000D02*
D03*
X692500Y166000D02*
D03*
X697500Y156000D02*
D03*
X702500Y166000D02*
D03*
X707500Y156000D02*
D03*
X712500Y166000D02*
D03*
X677500Y180500D02*
D03*
X682500Y190500D02*
D03*
X687500Y180500D02*
D03*
X692500Y190500D02*
D03*
X697500Y180500D02*
D03*
X702500Y190500D02*
D03*
X707500Y180500D02*
D03*
X712500Y190500D02*
D03*
X668000Y206000D02*
D03*
X722000D02*
D03*
X678000D02*
D03*
X712000D02*
D03*
X668000Y140000D02*
D03*
X678000D02*
D03*
X712000D02*
D03*
X722000D02*
D03*
D54*
X663000Y151500D02*
D03*
X727000D02*
D03*
D55*
X663000Y184500D02*
D03*
X727000D02*
D03*
D56*
X670000Y123500D02*
D03*
X720000D02*
D03*
D57*
X767614Y146000D02*
D03*
X866000D02*
D03*
D58*
X838323D02*
D03*
X829346D02*
D03*
X820370D02*
D03*
X811394D02*
D03*
X802417D02*
D03*
X797929Y156000D02*
D03*
X806905D02*
D03*
X815882D02*
D03*
X824858D02*
D03*
X797929Y136000D02*
D03*
X806905D02*
D03*
X815882D02*
D03*
X824858D02*
D03*
X833835D02*
D03*
X876000Y644000D02*
D03*
X792000Y231000D02*
D03*
X788000Y378000D02*
D03*
X792000Y345000D02*
D03*
X760346Y399646D02*
D03*
X772400Y351400D02*
D03*
X759000Y552000D02*
D03*
X770075Y489825D02*
D03*
X788000Y519000D02*
D03*
X915494Y262000D02*
D03*
X790000Y482000D02*
D03*
Y259000D02*
D03*
X747000Y205000D02*
D03*
X900000Y433000D02*
D03*
X899000Y615000D02*
D03*
X836425Y626375D02*
D03*
X768200Y230900D02*
D03*
X764346Y281446D02*
D03*
D59*
X833756Y155842D02*
D03*
D60*
X929842Y709000D02*
D03*
D61*
X910157D02*
D03*
X979000Y246180D02*
D03*
Y419180D02*
D03*
Y605000D02*
D03*
X660000Y545157D02*
D03*
Y402157D02*
D03*
Y295158D02*
D03*
D62*
X979000Y226495D02*
D03*
Y399495D02*
D03*
Y585315D02*
D03*
X660000Y564843D02*
D03*
Y421842D02*
D03*
Y314843D02*
D03*
D63*
X974000Y135345D02*
D03*
X985250Y124094D02*
D03*
X974000Y112845D02*
D03*
X962750Y124094D02*
D03*
X964157Y130000D02*
D03*
X968095Y133937D02*
D03*
Y114252D02*
D03*
X983842Y118189D02*
D03*
X979906Y133937D02*
D03*
X964157Y118189D02*
D03*
X979906Y114252D02*
D03*
X983842Y130000D02*
D03*
X660500Y506250D02*
D03*
X671750Y495000D02*
D03*
X660500Y483750D02*
D03*
X649250Y495000D02*
D03*
X650658Y500906D02*
D03*
X654595Y504843D02*
D03*
Y485157D02*
D03*
X670342Y489094D02*
D03*
X666405Y504843D02*
D03*
X650658Y489094D02*
D03*
X666405Y485157D02*
D03*
X670342Y500906D02*
D03*
X665000Y261250D02*
D03*
X676250Y250000D02*
D03*
X665000Y238750D02*
D03*
X653750Y250000D02*
D03*
X655158Y255906D02*
D03*
X659094Y259842D02*
D03*
Y240158D02*
D03*
X674843Y244094D02*
D03*
X670905Y259842D02*
D03*
X655158Y244094D02*
D03*
X670905Y240158D02*
D03*
X674843Y255906D02*
D03*
X665000Y717250D02*
D03*
X676250Y706000D02*
D03*
X665000Y694750D02*
D03*
X653750Y706000D02*
D03*
X655158Y711905D02*
D03*
X659094Y715842D02*
D03*
Y696158D02*
D03*
X674843Y700095D02*
D03*
X670905Y715842D02*
D03*
X655158Y700095D02*
D03*
X670905Y696158D02*
D03*
X674843Y711905D02*
D03*
X974000Y717250D02*
D03*
X985250Y706000D02*
D03*
X974000Y694750D02*
D03*
X962750Y706000D02*
D03*
X964157Y711905D02*
D03*
X968095Y715842D02*
D03*
Y696158D02*
D03*
X983842Y700095D02*
D03*
X979906Y715842D02*
D03*
X964157Y700095D02*
D03*
X979906Y696158D02*
D03*
X983842Y711905D02*
D03*
D64*
X974000Y124094D02*
D03*
X660500Y495000D02*
D03*
X665000Y250000D02*
D03*
Y706000D02*
D03*
X974000D02*
D03*
D65*
X733000Y672378D02*
D03*
D66*
Y696000D02*
D03*
M02*
