G04*
G04 #@! TF.GenerationSoftware,Altium Limited,Altium Designer,21.2.2 (38)*
G04*
G04 Layer_Color=16711935*
%FSLAX25Y25*%
%MOIN*%
G70*
G04*
G04 #@! TF.SameCoordinates,C702BCCC-9178-47BC-8446-E92931C6D717*
G04*
G04*
G04 #@! TF.FilePolarity,Negative*
G04*
G01*
G75*
%ADD25C,0.06300*%
%ADD26C,0.09200*%
%ADD27C,0.09000*%
%ADD28C,0.13600*%
%ADD29C,0.05600*%
%ADD30R,0.05600X0.05600*%
%ADD31C,0.07000*%
%ADD32R,0.07000X0.07000*%
%ADD33C,0.20485*%
%ADD34C,0.05800*%
%ADD35R,0.05800X0.05800*%
%ADD36R,0.08477X0.08477*%
%ADD37C,0.08477*%
%ADD38R,0.08477X0.08477*%
%ADD39C,0.03800*%
%ADD40C,0.30800*%
%ADD41O,0.20485X0.10642*%
%ADD42O,0.18517X0.09658*%
%ADD43C,0.08674*%
%ADD44C,0.10249*%
%ADD45R,0.07000X0.07000*%
%ADD46C,0.09068*%
%ADD47C,0.15300*%
D25*
X677500Y156000D02*
D03*
X682500Y166000D02*
D03*
X687500Y156000D02*
D03*
X692500Y166000D02*
D03*
X697500Y156000D02*
D03*
X702500Y166000D02*
D03*
X707500Y156000D02*
D03*
X712500Y166000D02*
D03*
X677500Y180500D02*
D03*
X682500Y190500D02*
D03*
X687500Y180500D02*
D03*
X692500Y190500D02*
D03*
X697500Y180500D02*
D03*
X702500Y190500D02*
D03*
X707500Y180500D02*
D03*
X712500Y190500D02*
D03*
X668000Y206000D02*
D03*
X722000D02*
D03*
X678000D02*
D03*
X712000D02*
D03*
X668000Y140000D02*
D03*
X678000D02*
D03*
X712000D02*
D03*
X722000D02*
D03*
D26*
X663000Y151500D02*
D03*
X727000D02*
D03*
D27*
X663000Y184500D02*
D03*
X727000D02*
D03*
D28*
X670000Y123500D02*
D03*
X720000D02*
D03*
D29*
X790000Y700000D02*
D03*
X850000D02*
D03*
D30*
X790000Y680300D02*
D03*
X850000D02*
D03*
D31*
X922000Y223000D02*
D03*
X912000Y229693D02*
D03*
X922000Y236386D02*
D03*
X912000Y243079D02*
D03*
X922000Y396614D02*
D03*
X912000Y403307D02*
D03*
X922000Y410000D02*
D03*
X912000Y416693D02*
D03*
X922000Y578228D02*
D03*
X912000Y584921D02*
D03*
X922000Y591614D02*
D03*
X912000Y598307D02*
D03*
X741500Y312500D02*
D03*
X731500Y447500D02*
D03*
X731500Y582500D02*
D03*
D32*
X922000Y249772D02*
D03*
Y423386D02*
D03*
Y605000D02*
D03*
D33*
X767614Y146000D02*
D03*
X866000D02*
D03*
D34*
X838323D02*
D03*
X829346D02*
D03*
X820370D02*
D03*
X811394D02*
D03*
X802417D02*
D03*
X797929Y156000D02*
D03*
X806905D02*
D03*
X815882D02*
D03*
X824858D02*
D03*
X797929Y136000D02*
D03*
X806905D02*
D03*
X815882D02*
D03*
X824858D02*
D03*
X833835D02*
D03*
X747000Y205000D02*
D03*
X903000Y257000D02*
D03*
X900000Y433000D02*
D03*
X876000Y644000D02*
D03*
X899000Y615000D02*
D03*
X836425Y626375D02*
D03*
X768200Y230900D02*
D03*
X771075Y500825D02*
D03*
X771400Y364400D02*
D03*
X760346Y552454D02*
D03*
X759346Y412646D02*
D03*
X764346Y281446D02*
D03*
D35*
X833756Y155842D02*
D03*
D36*
X929842Y709000D02*
D03*
D37*
X910157D02*
D03*
X979000Y246180D02*
D03*
Y419180D02*
D03*
Y605000D02*
D03*
X660000Y545157D02*
D03*
Y402157D02*
D03*
Y295158D02*
D03*
D38*
X979000Y226495D02*
D03*
Y399495D02*
D03*
Y585315D02*
D03*
X660000Y564843D02*
D03*
Y421842D02*
D03*
Y314843D02*
D03*
D39*
X974000Y135345D02*
D03*
X985250Y124094D02*
D03*
X974000Y112845D02*
D03*
X962750Y124094D02*
D03*
X964157Y130000D02*
D03*
X968095Y133937D02*
D03*
Y114252D02*
D03*
X983842Y118189D02*
D03*
X979906Y133937D02*
D03*
X964157Y118189D02*
D03*
X979906Y114252D02*
D03*
X983842Y130000D02*
D03*
X660500Y506250D02*
D03*
X671750Y495000D02*
D03*
X660500Y483750D02*
D03*
X649250Y495000D02*
D03*
X650658Y500906D02*
D03*
X654595Y504843D02*
D03*
Y485157D02*
D03*
X670342Y489094D02*
D03*
X666405Y504843D02*
D03*
X650658Y489094D02*
D03*
X666405Y485157D02*
D03*
X670342Y500906D02*
D03*
X665000Y261250D02*
D03*
X676250Y250000D02*
D03*
X665000Y238750D02*
D03*
X653750Y250000D02*
D03*
X655158Y255906D02*
D03*
X659094Y259842D02*
D03*
Y240158D02*
D03*
X674843Y244094D02*
D03*
X670905Y259842D02*
D03*
X655158Y244094D02*
D03*
X670905Y240158D02*
D03*
X674843Y255906D02*
D03*
X665000Y717250D02*
D03*
X676250Y706000D02*
D03*
X665000Y694750D02*
D03*
X653750Y706000D02*
D03*
X655158Y711905D02*
D03*
X659094Y715842D02*
D03*
Y696158D02*
D03*
X674843Y700095D02*
D03*
X670905Y715842D02*
D03*
X655158Y700095D02*
D03*
X670905Y696158D02*
D03*
X674843Y711905D02*
D03*
X974000Y717250D02*
D03*
X985250Y706000D02*
D03*
X974000Y694750D02*
D03*
X962750Y706000D02*
D03*
X964157Y711905D02*
D03*
X968095Y715842D02*
D03*
Y696158D02*
D03*
X983842Y700095D02*
D03*
X979906Y715842D02*
D03*
X964157Y700095D02*
D03*
X979906Y696158D02*
D03*
X983842Y711905D02*
D03*
D40*
X974000Y124094D02*
D03*
X660500Y495000D02*
D03*
X665000Y250000D02*
D03*
Y706000D02*
D03*
X974000D02*
D03*
D41*
X733000Y672378D02*
D03*
D42*
Y696000D02*
D03*
D43*
X717677Y269823D02*
D03*
X711500Y374500D02*
D03*
X717677Y517323D02*
D03*
D44*
X705354Y282146D02*
D03*
X730000D02*
D03*
Y257500D02*
D03*
X705354D02*
D03*
X699177Y386823D02*
D03*
X723823D02*
D03*
Y362177D02*
D03*
X699177D02*
D03*
X705354Y505000D02*
D03*
Y529646D02*
D03*
X730000D02*
D03*
Y505000D02*
D03*
D45*
X867500Y312500D02*
D03*
X857500Y447500D02*
D03*
X857500Y582500D02*
D03*
D46*
X771000Y213000D02*
D03*
X773500Y348500D02*
D03*
X772200Y485900D02*
D03*
X857087Y618898D02*
D03*
D47*
X939000Y642000D02*
D03*
Y542000D02*
D03*
Y460000D02*
D03*
Y360000D02*
D03*
Y287000D02*
D03*
Y187000D02*
D03*
M02*
