G04*
G04 #@! TF.GenerationSoftware,Altium Limited,Altium Designer,21.2.2 (38)*
G04*
G04 Layer_Physical_Order=1*
G04 Layer_Color=255*
%FSLAX25Y25*%
%MOIN*%
G70*
G04*
G04 #@! TF.SameCoordinates,792C9601-BB9D-439A-8D0C-CF73BBC84E9B*
G04*
G04*
G04 #@! TF.FilePolarity,Positive*
G04*
G01*
G75*
%ADD10C,0.01000*%
%ADD18R,0.12402X0.49213*%
G04:AMPARAMS|DCode=19|XSize=77.56mil|YSize=23.62mil|CornerRadius=2.95mil|HoleSize=0mil|Usage=FLASHONLY|Rotation=270.000|XOffset=0mil|YOffset=0mil|HoleType=Round|Shape=RoundedRectangle|*
%AMROUNDEDRECTD19*
21,1,0.07756,0.01772,0,0,270.0*
21,1,0.07165,0.02362,0,0,270.0*
1,1,0.00591,-0.00886,-0.03583*
1,1,0.00591,-0.00886,0.03583*
1,1,0.00591,0.00886,0.03583*
1,1,0.00591,0.00886,-0.03583*
%
%ADD19ROUNDEDRECTD19*%
%ADD20R,0.03740X0.03740*%
%ADD21R,0.03740X0.03740*%
%ADD29R,0.07000X0.07000*%
%ADD30C,0.07000*%
%ADD35C,0.05600*%
%ADD36R,0.05600X0.05600*%
%ADD47R,0.07000X0.07000*%
%ADD48C,0.06000*%
%ADD49C,0.08268*%
%ADD50C,0.09449*%
%ADD51C,0.07874*%
%ADD52C,0.14500*%
%ADD53C,0.05500*%
%ADD54C,0.08400*%
%ADD55C,0.08200*%
%ADD56C,0.12800*%
%ADD57C,0.19685*%
%ADD58C,0.05000*%
%ADD59R,0.05000X0.05000*%
%ADD60R,0.07677X0.07677*%
%ADD61C,0.07677*%
%ADD62R,0.07677X0.07677*%
%ADD63C,0.03000*%
%ADD64C,0.30000*%
%ADD65O,0.19685X0.09843*%
%ADD66O,0.17717X0.08858*%
G36*
X998000Y102000D02*
X642000D01*
Y728000D01*
X998000D01*
Y102000D01*
D02*
G37*
%LPC*%
G36*
X910795Y713839D02*
X910657D01*
Y709500D01*
X914996D01*
Y709637D01*
X914666Y710868D01*
X914029Y711971D01*
X913128Y712872D01*
X912025Y713509D01*
X910795Y713839D01*
D02*
G37*
G36*
X909657D02*
X909521D01*
X908290Y713509D01*
X907187Y712872D01*
X906286Y711971D01*
X905649Y710868D01*
X905319Y709637D01*
Y709500D01*
X909657D01*
Y713839D01*
D02*
G37*
G36*
X934281Y713439D02*
X925404D01*
Y704561D01*
X934281D01*
Y713439D01*
D02*
G37*
G36*
X914996Y708500D02*
X910657D01*
Y704161D01*
X910795D01*
X912025Y704491D01*
X913128Y705128D01*
X914029Y706029D01*
X914666Y707132D01*
X914996Y708363D01*
Y708500D01*
D02*
G37*
G36*
X909657D02*
X905319D01*
Y708363D01*
X905649Y707132D01*
X906286Y706029D01*
X907187Y705128D01*
X908290Y704491D01*
X909521Y704161D01*
X909657D01*
Y708500D01*
D02*
G37*
G36*
X850448Y703400D02*
X849552D01*
X848688Y703168D01*
X847912Y702721D01*
X847279Y702088D01*
X846832Y701312D01*
X846600Y700448D01*
Y699552D01*
X846832Y698688D01*
X847279Y697912D01*
X847912Y697279D01*
X848688Y696832D01*
X849552Y696600D01*
X850448D01*
X851312Y696832D01*
X852088Y697279D01*
X852721Y697912D01*
X853168Y698688D01*
X853400Y699552D01*
Y700448D01*
X853168Y701312D01*
X852721Y702088D01*
X852088Y702721D01*
X851312Y703168D01*
X850448Y703400D01*
D02*
G37*
G36*
X790448D02*
X789552D01*
X788688Y703168D01*
X787912Y702721D01*
X787279Y702088D01*
X786832Y701312D01*
X786600Y700448D01*
Y699552D01*
X786832Y698688D01*
X787279Y697912D01*
X787912Y697279D01*
X788688Y696832D01*
X789552Y696600D01*
X790448D01*
X791312Y696832D01*
X792088Y697279D01*
X792721Y697912D01*
X793168Y698688D01*
X793400Y699552D01*
Y700448D01*
X793168Y701312D01*
X792721Y702088D01*
X792088Y702721D01*
X791312Y703168D01*
X790448Y703400D01*
D02*
G37*
G36*
X737429Y701073D02*
X728571D01*
X727258Y700900D01*
X726035Y700393D01*
X724984Y699587D01*
X724178Y698536D01*
X723671Y697313D01*
X723498Y696000D01*
X723671Y694687D01*
X724178Y693464D01*
X724984Y692413D01*
X726035Y691607D01*
X727258Y691100D01*
X728571Y690928D01*
X737429D01*
X738742Y691100D01*
X739965Y691607D01*
X741016Y692413D01*
X741822Y693464D01*
X742329Y694687D01*
X742502Y696000D01*
X742329Y697313D01*
X741822Y698536D01*
X741016Y699587D01*
X739965Y700393D01*
X738742Y700900D01*
X737429Y701073D01*
D02*
G37*
G36*
X695676Y695134D02*
X695500D01*
Y690500D01*
X700134D01*
Y690676D01*
X699784Y691982D01*
X699108Y693152D01*
X698152Y694108D01*
X696982Y694784D01*
X695676Y695134D01*
D02*
G37*
G36*
X694500D02*
X694324D01*
X693018Y694784D01*
X691848Y694108D01*
X690892Y693152D01*
X690216Y691982D01*
X689866Y690676D01*
Y690500D01*
X694500D01*
Y695134D01*
D02*
G37*
G36*
X975228Y721600D02*
X972772D01*
X970347Y721216D01*
X968012Y720457D01*
X965824Y719342D01*
X963837Y717899D01*
X962101Y716163D01*
X960658Y714176D01*
X959543Y711988D01*
X958784Y709653D01*
X958400Y707228D01*
Y704772D01*
X958784Y702347D01*
X959543Y700012D01*
X960658Y697824D01*
X962101Y695837D01*
X963837Y694101D01*
X965824Y692658D01*
X968012Y691543D01*
X970347Y690784D01*
X972772Y690400D01*
X975228D01*
X977653Y690784D01*
X979988Y691543D01*
X982176Y692658D01*
X984163Y694101D01*
X985899Y695837D01*
X987342Y697824D01*
X988457Y700012D01*
X989216Y702347D01*
X989600Y704772D01*
Y707228D01*
X989216Y709653D01*
X988457Y711988D01*
X987342Y714176D01*
X985899Y716163D01*
X984163Y717899D01*
X982176Y719342D01*
X979988Y720457D01*
X977653Y721216D01*
X975228Y721600D01*
D02*
G37*
G36*
X666228D02*
X663772D01*
X661347Y721216D01*
X659012Y720457D01*
X656824Y719342D01*
X654837Y717899D01*
X653101Y716163D01*
X651658Y714176D01*
X650543Y711988D01*
X649784Y709653D01*
X649400Y707228D01*
Y704772D01*
X649784Y702347D01*
X650543Y700012D01*
X651658Y697824D01*
X653101Y695837D01*
X654837Y694101D01*
X656824Y692658D01*
X659012Y691543D01*
X661347Y690784D01*
X663772Y690400D01*
X666228D01*
X668653Y690784D01*
X670988Y691543D01*
X673176Y692658D01*
X675163Y694101D01*
X676899Y695837D01*
X678342Y697824D01*
X679457Y700012D01*
X680216Y702347D01*
X680600Y704772D01*
Y707228D01*
X680216Y709653D01*
X679457Y711988D01*
X678342Y714176D01*
X676899Y716163D01*
X675163Y717899D01*
X673176Y719342D01*
X670988Y720457D01*
X668653Y721216D01*
X666228Y721600D01*
D02*
G37*
G36*
X700134Y689500D02*
X695500D01*
Y684866D01*
X695676D01*
X696982Y685216D01*
X698152Y685892D01*
X699108Y686848D01*
X699784Y688018D01*
X700134Y689324D01*
Y689500D01*
D02*
G37*
G36*
X694500D02*
X689866D01*
Y689324D01*
X690216Y688018D01*
X690892Y686848D01*
X691848Y685892D01*
X693018Y685216D01*
X694324Y684866D01*
X694500D01*
Y689500D01*
D02*
G37*
G36*
X853800Y684100D02*
X850500D01*
Y680800D01*
X853800D01*
Y684100D01*
D02*
G37*
G36*
X793800D02*
X790500D01*
Y680800D01*
X793800D01*
Y684100D01*
D02*
G37*
G36*
X849500D02*
X846200D01*
Y680800D01*
X849500D01*
Y684100D01*
D02*
G37*
G36*
X789500D02*
X786200D01*
Y680800D01*
X789500D01*
Y684100D01*
D02*
G37*
G36*
X853800Y679800D02*
X850500D01*
Y676500D01*
X853800D01*
Y679800D01*
D02*
G37*
G36*
X849500D02*
X846200D01*
Y676500D01*
X849500D01*
Y679800D01*
D02*
G37*
G36*
X793800D02*
X790500D01*
Y676500D01*
X793800D01*
Y679800D01*
D02*
G37*
G36*
X789500D02*
X786200D01*
Y676500D01*
X789500D01*
Y679800D01*
D02*
G37*
G36*
X737921Y678328D02*
X733500D01*
Y672878D01*
X743822D01*
X743757Y673539D01*
X743418Y674655D01*
X742868Y675683D01*
X742129Y676585D01*
X741227Y677325D01*
X740198Y677875D01*
X739082Y678214D01*
X737921Y678328D01*
D02*
G37*
G36*
X732500D02*
X728079D01*
X726918Y678214D01*
X725802Y677875D01*
X724773Y677325D01*
X723872Y676585D01*
X723132Y675683D01*
X722582Y674655D01*
X722243Y673539D01*
X722178Y672878D01*
X732500D01*
Y678328D01*
D02*
G37*
G36*
X743822Y671878D02*
X733500D01*
Y666428D01*
X737921D01*
X739082Y666542D01*
X740198Y666881D01*
X741227Y667431D01*
X742129Y668171D01*
X742868Y669072D01*
X743418Y670101D01*
X743757Y671217D01*
X743822Y671878D01*
D02*
G37*
G36*
X732500D02*
X722178D01*
X722243Y671217D01*
X722582Y670101D01*
X723132Y669072D01*
X723872Y668171D01*
X724773Y667431D01*
X725802Y666881D01*
X726918Y666542D01*
X728079Y666428D01*
X732500D01*
Y671878D01*
D02*
G37*
G36*
X868470Y648604D02*
X863530D01*
Y647255D01*
X854470D01*
Y648604D01*
X849530D01*
Y643664D01*
X849716D01*
X849776Y643575D01*
Y642000D01*
X849716Y641911D01*
X849530D01*
Y640563D01*
X838895D01*
Y641911D01*
X838709D01*
X838649Y642000D01*
Y643575D01*
X838709Y643664D01*
X838895D01*
Y648604D01*
X833955D01*
Y647222D01*
X832923D01*
X832923Y647222D01*
X832494Y647136D01*
X832130Y646893D01*
X832130Y646893D01*
X825799Y640563D01*
X823895D01*
Y641911D01*
X823709D01*
X823649Y642000D01*
Y643264D01*
X824295D01*
Y645634D01*
X821425D01*
X818555D01*
Y643264D01*
X819201D01*
Y642000D01*
X819141Y641911D01*
X818955D01*
Y636971D01*
X823895D01*
Y638319D01*
X826264D01*
X826264Y638319D01*
X826693Y638405D01*
X827057Y638648D01*
X833387Y644978D01*
X833955D01*
Y643664D01*
X834142D01*
X834201Y643575D01*
Y642000D01*
X834142Y641911D01*
X833955D01*
Y636971D01*
X835304D01*
Y629284D01*
X835229Y629263D01*
X834522Y628855D01*
X833945Y628278D01*
X833537Y627571D01*
X833325Y626783D01*
Y625967D01*
X833537Y625178D01*
X833945Y624471D01*
X834522Y623894D01*
X835229Y623486D01*
X836017Y623275D01*
X836833D01*
X837622Y623486D01*
X838329Y623894D01*
X838906Y624471D01*
X839314Y625178D01*
X839525Y625967D01*
Y626783D01*
X839314Y627571D01*
X838906Y628278D01*
X838329Y628855D01*
X837622Y629263D01*
X837547Y629284D01*
Y636971D01*
X838895D01*
Y638319D01*
X849530D01*
Y636971D01*
X850878D01*
Y623984D01*
X850878Y623984D01*
X850964Y623555D01*
X851207Y623191D01*
X853948Y620450D01*
X853589Y619827D01*
X853266Y618623D01*
Y617377D01*
X853589Y616173D01*
X854212Y615093D01*
X855093Y614212D01*
X856173Y613589D01*
X857377Y613266D01*
X858623D01*
X859827Y613589D01*
X860907Y614212D01*
X861788Y615093D01*
X862411Y616173D01*
X862734Y617377D01*
Y618623D01*
X862411Y619827D01*
X861788Y620907D01*
X860907Y621788D01*
X859827Y622411D01*
X858623Y622734D01*
X857377D01*
X856173Y622411D01*
X855530Y622040D01*
X853122Y624449D01*
Y636971D01*
X854470D01*
Y641911D01*
X854284D01*
X854224Y642000D01*
Y643575D01*
X854284Y643664D01*
X854470D01*
Y645012D01*
X863530D01*
Y643664D01*
X863716D01*
X863776Y643575D01*
Y642000D01*
X863716Y641911D01*
X863530D01*
Y636971D01*
X868470D01*
Y638319D01*
X871441D01*
X871441Y638319D01*
X871870Y638405D01*
X872234Y638648D01*
X874736Y641150D01*
X874803Y641111D01*
X875592Y640900D01*
X876408D01*
X877197Y641111D01*
X877903Y641519D01*
X878481Y642097D01*
X878889Y642803D01*
X879100Y643592D01*
Y644408D01*
X878889Y645197D01*
X878481Y645903D01*
X877903Y646481D01*
X877197Y646889D01*
X876408Y647100D01*
X875592D01*
X874803Y646889D01*
X874097Y646481D01*
X873519Y645903D01*
X873111Y645197D01*
X872900Y644408D01*
Y643592D01*
X873111Y642803D01*
X873150Y642736D01*
X870976Y640563D01*
X868470D01*
Y641911D01*
X868284D01*
X868224Y642000D01*
Y643575D01*
X868284Y643664D01*
X868470D01*
Y648604D01*
D02*
G37*
G36*
X824295Y649004D02*
X821925D01*
Y646634D01*
X824295D01*
Y649004D01*
D02*
G37*
G36*
X820925D02*
X818555D01*
Y646634D01*
X820925D01*
Y649004D01*
D02*
G37*
G36*
X939773Y649850D02*
X938227D01*
X936710Y649548D01*
X935282Y648957D01*
X933996Y648098D01*
X932903Y647004D01*
X932043Y645718D01*
X931452Y644290D01*
X931150Y642773D01*
Y641227D01*
X931452Y639710D01*
X932043Y638282D01*
X932903Y636996D01*
X933996Y635903D01*
X935282Y635043D01*
X936710Y634452D01*
X938227Y634150D01*
X939773D01*
X941290Y634452D01*
X942718Y635043D01*
X944004Y635903D01*
X945098Y636996D01*
X945957Y638282D01*
X946548Y639710D01*
X946850Y641227D01*
Y642773D01*
X946548Y644290D01*
X945957Y645718D01*
X945098Y647004D01*
X944004Y648098D01*
X942718Y648957D01*
X941290Y649548D01*
X939773Y649850D01*
D02*
G37*
G36*
X912870Y618217D02*
X910500D01*
Y615846D01*
X912870D01*
Y618217D01*
D02*
G37*
G36*
X909500D02*
X907130D01*
Y615846D01*
X909500D01*
Y618217D01*
D02*
G37*
G36*
X899408Y618100D02*
X898592D01*
X897803Y617889D01*
X897097Y617481D01*
X896519Y616903D01*
X896111Y616197D01*
X895900Y615408D01*
Y614592D01*
X896111Y613803D01*
X896519Y613097D01*
X897097Y612519D01*
X897803Y612111D01*
X897878Y612091D01*
Y611000D01*
X897878Y611000D01*
X897964Y610571D01*
X898207Y610207D01*
X900553Y607861D01*
X900917Y607617D01*
X901346Y607532D01*
X901346Y607532D01*
X907530D01*
Y606183D01*
X912470D01*
Y611124D01*
X912284D01*
X912224Y611213D01*
Y612476D01*
X912870D01*
Y614847D01*
X910000D01*
X907130D01*
Y612476D01*
X907776D01*
Y611213D01*
X907716Y611124D01*
X907530D01*
Y609775D01*
X901811D01*
X900122Y611465D01*
Y612091D01*
X900197Y612111D01*
X900903Y612519D01*
X901481Y613097D01*
X901889Y613803D01*
X902100Y614592D01*
Y615408D01*
X901889Y616197D01*
X901481Y616903D01*
X900903Y617481D01*
X900197Y617889D01*
X899408Y618100D01*
D02*
G37*
G36*
X926500Y609500D02*
X922500D01*
Y605500D01*
X926500D01*
Y609500D01*
D02*
G37*
G36*
X921500D02*
X917500D01*
Y605500D01*
X921500D01*
Y609500D01*
D02*
G37*
G36*
X906000Y661631D02*
X905060Y661507D01*
X904185Y661145D01*
X903432Y660568D01*
X903432Y660568D01*
X873433Y630568D01*
X872855Y629815D01*
X872493Y628940D01*
X872369Y628000D01*
Y545693D01*
X866882Y540206D01*
X858416D01*
Y489794D01*
X872017D01*
Y535071D01*
X878568Y541621D01*
X878568Y541621D01*
X879145Y542374D01*
X879507Y543249D01*
X879631Y544189D01*
Y626496D01*
X907504Y654369D01*
X954496D01*
X975369Y633496D01*
Y607588D01*
X974864Y606713D01*
X974561Y605584D01*
Y604416D01*
X974864Y603287D01*
X975448Y602275D01*
X976275Y601448D01*
X977287Y600864D01*
X978416Y600561D01*
X979584D01*
X980713Y600864D01*
X981725Y601448D01*
X982552Y602275D01*
X983136Y603287D01*
X983439Y604416D01*
Y605584D01*
X983136Y606713D01*
X982631Y607588D01*
Y635000D01*
X982507Y635940D01*
X982145Y636816D01*
X981567Y637568D01*
X958568Y660568D01*
X957815Y661145D01*
X956940Y661507D01*
X956000Y661631D01*
X906000D01*
X906000Y661631D01*
D02*
G37*
G36*
X926500Y604500D02*
X922500D01*
Y600500D01*
X926500D01*
Y604500D01*
D02*
G37*
G36*
X921500D02*
X917500D01*
Y600500D01*
X921500D01*
Y604500D01*
D02*
G37*
G36*
X922540Y595714D02*
X921460D01*
X920417Y595435D01*
X919483Y594895D01*
X918719Y594132D01*
X918179Y593197D01*
X917900Y592154D01*
Y591074D01*
X918179Y590032D01*
X918719Y589097D01*
X919483Y588333D01*
X920417Y587794D01*
X921460Y587514D01*
X922540D01*
X923582Y587794D01*
X924518Y588333D01*
X925281Y589097D01*
X925821Y590032D01*
X926100Y591074D01*
Y592154D01*
X925821Y593197D01*
X925281Y594132D01*
X924518Y594895D01*
X923582Y595435D01*
X922540Y595714D01*
D02*
G37*
G36*
X945566Y632731D02*
X894900D01*
X893960Y632607D01*
X893085Y632245D01*
X892332Y631668D01*
X892332Y631668D01*
X884733Y624068D01*
X884155Y623315D01*
X883793Y622440D01*
X883669Y621500D01*
Y601822D01*
X883793Y600882D01*
X884155Y600006D01*
X884733Y599254D01*
X888247Y595740D01*
X888247Y595740D01*
X888878Y595255D01*
Y589600D01*
X888173Y589411D01*
X887093Y588788D01*
X886212Y587907D01*
X885589Y586827D01*
X885266Y585623D01*
Y584377D01*
X885589Y583173D01*
X886212Y582093D01*
X887093Y581212D01*
X888173Y580589D01*
X889377Y580266D01*
X890623D01*
X891827Y580589D01*
X892907Y581212D01*
X893788Y582093D01*
X894411Y583173D01*
X894734Y584377D01*
Y585623D01*
X894411Y586827D01*
X893788Y587907D01*
X892907Y588788D01*
X891827Y589411D01*
X891122Y589600D01*
Y594676D01*
X910089D01*
X910417Y594487D01*
X911460Y594207D01*
X912540D01*
X913583Y594487D01*
X914517Y595026D01*
X915281Y595790D01*
X915821Y596725D01*
X916100Y597767D01*
Y598847D01*
X915821Y599890D01*
X915281Y600824D01*
X914517Y601588D01*
X913583Y602128D01*
X912540Y602407D01*
X911460D01*
X910417Y602128D01*
X910089Y601938D01*
X892319D01*
X890931Y603326D01*
Y619996D01*
X896404Y625469D01*
X944062D01*
X955818Y613713D01*
Y594551D01*
X955941Y593611D01*
X956304Y592736D01*
X956881Y591984D01*
X966338Y582527D01*
X967090Y581950D01*
X967965Y581588D01*
X968905Y581464D01*
X974561D01*
Y580876D01*
X983439D01*
Y589753D01*
X974561D01*
Y588726D01*
X970409D01*
X963080Y596055D01*
Y615217D01*
X962956Y616157D01*
X962593Y617033D01*
X962016Y617785D01*
X948134Y631668D01*
X947382Y632245D01*
X946506Y632607D01*
X945566Y632731D01*
D02*
G37*
G36*
X912540Y589021D02*
X911460D01*
X910417Y588742D01*
X909482Y588202D01*
X908719Y587439D01*
X908179Y586504D01*
X907900Y585461D01*
Y584381D01*
X908179Y583339D01*
X908719Y582404D01*
X909482Y581640D01*
X910417Y581101D01*
X911460Y580821D01*
X912540D01*
X913583Y581101D01*
X914517Y581640D01*
X915281Y582404D01*
X915821Y583339D01*
X916100Y584381D01*
Y585461D01*
X915821Y586504D01*
X915281Y587439D01*
X914517Y588202D01*
X913583Y588742D01*
X912540Y589021D01*
D02*
G37*
G36*
X922540Y582328D02*
X921460D01*
X920417Y582049D01*
X919483Y581509D01*
X918719Y580746D01*
X918179Y579811D01*
X917900Y578768D01*
Y577689D01*
X918179Y576646D01*
X918719Y575711D01*
X919483Y574948D01*
X920417Y574408D01*
X921460Y574128D01*
X922540D01*
X923582Y574408D01*
X924518Y574948D01*
X925281Y575711D01*
X925821Y576646D01*
X926100Y577689D01*
Y578768D01*
X925821Y579811D01*
X925281Y580746D01*
X924518Y581509D01*
X923582Y582049D01*
X922540Y582328D01*
D02*
G37*
G36*
X731024Y557647D02*
X729622D01*
X728268Y557284D01*
X727054Y556583D01*
X726062Y555592D01*
X725361Y554378D01*
X724998Y553024D01*
Y551622D01*
X725361Y550268D01*
X726062Y549054D01*
X727054Y548062D01*
X728268Y547361D01*
X729622Y546998D01*
X731024D01*
X732378Y547361D01*
X733592Y548062D01*
X734583Y549054D01*
X735284Y550268D01*
X735647Y551622D01*
Y553024D01*
X735284Y554378D01*
X734583Y555592D01*
X733592Y556583D01*
X732378Y557284D01*
X731024Y557647D01*
D02*
G37*
G36*
X706378D02*
X704976D01*
X703622Y557284D01*
X702408Y556583D01*
X701417Y555592D01*
X700716Y554378D01*
X700353Y553024D01*
Y551622D01*
X700716Y550268D01*
X701417Y549054D01*
X702408Y548062D01*
X703622Y547361D01*
X704976Y546998D01*
X706378D01*
X707732Y547361D01*
X708946Y548062D01*
X709938Y549054D01*
X710639Y550268D01*
X711002Y551622D01*
Y553024D01*
X710639Y554378D01*
X709938Y555592D01*
X708946Y556583D01*
X707732Y557284D01*
X706378Y557647D01*
D02*
G37*
G36*
X939773Y549850D02*
X938227D01*
X936710Y549548D01*
X935282Y548957D01*
X933996Y548098D01*
X932903Y547004D01*
X932043Y545718D01*
X931452Y544290D01*
X931150Y542773D01*
Y541227D01*
X931452Y539710D01*
X932043Y538282D01*
X932903Y536996D01*
X933996Y535903D01*
X935282Y535043D01*
X936710Y534452D01*
X938227Y534150D01*
X939773D01*
X941290Y534452D01*
X942718Y535043D01*
X944004Y535903D01*
X945098Y536996D01*
X945957Y538282D01*
X946548Y539710D01*
X946850Y541227D01*
Y542773D01*
X946548Y544290D01*
X945957Y545718D01*
X945098Y547004D01*
X944004Y548098D01*
X942718Y548957D01*
X941290Y549548D01*
X939773Y549850D01*
D02*
G37*
G36*
X759408Y555100D02*
X758592D01*
X757803Y554889D01*
X757097Y554481D01*
X756519Y553903D01*
X756111Y553197D01*
X755900Y552408D01*
Y551592D01*
X756111Y550803D01*
X756519Y550097D01*
X757097Y549519D01*
X757803Y549111D01*
X758225Y548998D01*
Y531470D01*
X756876D01*
Y531284D01*
X756787Y531224D01*
X755213D01*
X755124Y531284D01*
Y531470D01*
X750183D01*
Y528799D01*
X735535D01*
X735284Y529732D01*
X734583Y530946D01*
X733592Y531938D01*
X732378Y532639D01*
X731024Y533002D01*
X729622D01*
X728268Y532639D01*
X727054Y531938D01*
X726062Y530946D01*
X725361Y529732D01*
X724998Y528378D01*
Y526976D01*
X725361Y525622D01*
X726062Y524408D01*
X727054Y523417D01*
X728268Y522716D01*
X729622Y522353D01*
X731024D01*
X732378Y522716D01*
X733592Y523417D01*
X734583Y524408D01*
X735284Y525622D01*
X735535Y526556D01*
X750183D01*
Y526530D01*
X755124D01*
Y526716D01*
X755213Y526776D01*
X756787D01*
X756876Y526716D01*
Y526530D01*
X758878D01*
Y523173D01*
X758765Y523150D01*
X758469Y522953D01*
X758271Y522656D01*
X758201Y522307D01*
Y515142D01*
X758271Y514792D01*
X758469Y514496D01*
X758765Y514298D01*
X759114Y514229D01*
X760886D01*
X761235Y514298D01*
X761531Y514496D01*
X761729Y514792D01*
X761799Y515142D01*
Y522307D01*
X761729Y522656D01*
X761531Y522953D01*
X761235Y523150D01*
X761122Y523173D01*
Y526530D01*
X761817D01*
Y531470D01*
X760468D01*
Y549268D01*
X760903Y549519D01*
X761481Y550097D01*
X761889Y550803D01*
X762100Y551592D01*
Y552408D01*
X761889Y553197D01*
X761481Y553903D01*
X760903Y554481D01*
X760197Y554889D01*
X759408Y555100D01*
D02*
G37*
G36*
X861600Y586600D02*
X853400D01*
Y578400D01*
X853869D01*
Y564004D01*
X830102Y540238D01*
X807984D01*
X807747Y540206D01*
X797983D01*
Y539109D01*
X797961Y539000D01*
X797983Y538891D01*
Y523257D01*
X797521Y523065D01*
X791793Y528793D01*
X784046Y536540D01*
X784411Y537173D01*
X784734Y538377D01*
Y539623D01*
X784411Y540827D01*
X783788Y541907D01*
X782907Y542788D01*
X781827Y543411D01*
X780623Y543734D01*
X779377D01*
X778173Y543411D01*
X777093Y542788D01*
X776212Y541907D01*
X775589Y540827D01*
X775266Y539623D01*
Y538377D01*
X775589Y537173D01*
X776212Y536093D01*
X777093Y535212D01*
X778173Y534589D01*
X779377Y534266D01*
X780623D01*
X781827Y534589D01*
X782460Y534954D01*
X787830Y529584D01*
X787639Y529122D01*
X773000D01*
X773000Y529122D01*
X772571Y529036D01*
X772207Y528793D01*
X769207Y525793D01*
X768964Y525429D01*
X768878Y525000D01*
X768878Y525000D01*
Y523173D01*
X768765Y523150D01*
X768469Y522953D01*
X768271Y522656D01*
X768201Y522307D01*
Y515142D01*
X768271Y514792D01*
X768469Y514496D01*
X768765Y514298D01*
X769114Y514229D01*
X770886D01*
X771235Y514298D01*
X771531Y514496D01*
X771729Y514792D01*
X771799Y515142D01*
Y522307D01*
X771729Y522656D01*
X771531Y522953D01*
X771235Y523150D01*
X771122Y523173D01*
Y524535D01*
X773465Y526878D01*
X790535D01*
X797983Y519431D01*
Y489794D01*
X811584D01*
Y532975D01*
X831606D01*
X832546Y533099D01*
X833422Y533462D01*
X834174Y534039D01*
X860067Y559932D01*
X860645Y560684D01*
X861007Y561560D01*
X861131Y562500D01*
Y578400D01*
X861600D01*
Y586600D01*
D02*
G37*
G36*
X706378Y533002D02*
X704976D01*
X703622Y532639D01*
X702408Y531938D01*
X701417Y530946D01*
X700716Y529732D01*
X700353Y528378D01*
Y526976D01*
X700716Y525622D01*
X701417Y524408D01*
X702408Y523417D01*
X703622Y522716D01*
X704976Y522353D01*
X706378D01*
X707732Y522716D01*
X708946Y523417D01*
X709938Y524408D01*
X710639Y525622D01*
X711002Y526976D01*
Y528378D01*
X710639Y529732D01*
X709938Y530946D01*
X708946Y531938D01*
X707732Y532639D01*
X706378Y533002D01*
D02*
G37*
G36*
X775886Y523220D02*
X774114D01*
X773765Y523150D01*
X773469Y522953D01*
X773271Y522656D01*
X773201Y522307D01*
Y515142D01*
X773271Y514792D01*
X773469Y514496D01*
X773765Y514298D01*
X774114Y514229D01*
X775886D01*
X776235Y514298D01*
X776531Y514496D01*
X776729Y514792D01*
X776799Y515142D01*
Y517878D01*
X785091D01*
X785111Y517803D01*
X785519Y517097D01*
X786097Y516519D01*
X786803Y516111D01*
X787592Y515900D01*
X788408D01*
X789197Y516111D01*
X789903Y516519D01*
X790481Y517097D01*
X790889Y517803D01*
X791100Y518592D01*
Y519408D01*
X790889Y520197D01*
X790481Y520903D01*
X789903Y521481D01*
X789197Y521889D01*
X788408Y522100D01*
X787592D01*
X786803Y521889D01*
X786097Y521481D01*
X785519Y520903D01*
X785111Y520197D01*
X785091Y520122D01*
X776799D01*
Y522307D01*
X776729Y522656D01*
X776531Y522953D01*
X776235Y523150D01*
X775886Y523220D01*
D02*
G37*
G36*
X732040Y586600D02*
X730960D01*
X729917Y586321D01*
X729589Y586131D01*
X667500D01*
X666560Y586007D01*
X665685Y585645D01*
X664932Y585068D01*
X657432Y577568D01*
X656855Y576816D01*
X656493Y575940D01*
X656369Y575000D01*
Y569281D01*
X655561D01*
Y560404D01*
X664439D01*
Y569281D01*
X663631D01*
Y573496D01*
X669004Y578869D01*
X729589D01*
X729917Y578679D01*
X730960Y578400D01*
X732040D01*
X733082Y578679D01*
X734018Y579219D01*
X734781Y579983D01*
X735321Y580918D01*
X735578Y581878D01*
X744535D01*
X763878Y562535D01*
Y523173D01*
X763765Y523150D01*
X763469Y522953D01*
X763271Y522656D01*
X763201Y522307D01*
Y515142D01*
X763271Y514792D01*
X763469Y514496D01*
X763765Y514298D01*
X764114Y514229D01*
X765886D01*
X766235Y514298D01*
X766531Y514496D01*
X766729Y514792D01*
X766799Y515142D01*
Y522307D01*
X766729Y522656D01*
X766531Y522953D01*
X766235Y523150D01*
X766122Y523173D01*
Y563000D01*
X766122Y563000D01*
X766036Y563429D01*
X765793Y563793D01*
X765793Y563793D01*
X745793Y583793D01*
X745429Y584036D01*
X745000Y584122D01*
X745000Y584122D01*
X735298D01*
X734781Y585017D01*
X734018Y585781D01*
X733082Y586321D01*
X732040Y586600D01*
D02*
G37*
G36*
X775886Y503771D02*
X774114D01*
X773765Y503702D01*
X773469Y503504D01*
X773271Y503208D01*
X773201Y502858D01*
Y495693D01*
X773271Y495344D01*
X773469Y495048D01*
X773765Y494850D01*
X774114Y494780D01*
X775886D01*
X776235Y494850D01*
X776531Y495048D01*
X776729Y495344D01*
X776799Y495693D01*
Y502858D01*
X776729Y503208D01*
X776531Y503504D01*
X776235Y503702D01*
X775886Y503771D01*
D02*
G37*
G36*
X718597Y544537D02*
X717403D01*
X716249Y544228D01*
X715214Y543631D01*
X714369Y542786D01*
X713772Y541751D01*
X713463Y540597D01*
Y539403D01*
X713772Y538249D01*
X714369Y537214D01*
X715214Y536370D01*
X716249Y535772D01*
X716878Y535604D01*
Y528000D01*
X716878Y528000D01*
X716964Y527571D01*
X717207Y527207D01*
X729207Y515207D01*
X729207Y515207D01*
X729571Y514964D01*
X730000Y514878D01*
X738882D01*
X747530Y506230D01*
Y502876D01*
X747716D01*
X747776Y502787D01*
Y501213D01*
X747716Y501124D01*
X747530D01*
Y497770D01*
X735882Y486122D01*
X727600D01*
X727411Y486827D01*
X726788Y487907D01*
X725907Y488788D01*
X724827Y489411D01*
X723623Y489734D01*
X722377D01*
X721173Y489411D01*
X720093Y488788D01*
X719212Y487907D01*
X718589Y486827D01*
X718266Y485623D01*
Y484377D01*
X718589Y483173D01*
X719212Y482093D01*
X720093Y481212D01*
X721173Y480589D01*
X722377Y480266D01*
X723623D01*
X724827Y480589D01*
X725907Y481212D01*
X726788Y482093D01*
X727411Y483173D01*
X727600Y483878D01*
X736346D01*
X736346Y483878D01*
X736776Y483964D01*
X737140Y484207D01*
X749116Y496183D01*
X752470D01*
Y498154D01*
X758201D01*
Y495693D01*
X758271Y495344D01*
X758469Y495048D01*
X758765Y494850D01*
X759114Y494780D01*
X760886D01*
X761235Y494850D01*
X761531Y495048D01*
X761729Y495344D01*
X761799Y495693D01*
Y498154D01*
X763201D01*
Y495693D01*
X763271Y495344D01*
X763469Y495048D01*
X763765Y494850D01*
X764114Y494780D01*
X765886D01*
X766235Y494850D01*
X766531Y495048D01*
X766729Y495344D01*
X766799Y495693D01*
Y502858D01*
X766729Y503208D01*
X766531Y503504D01*
X766235Y503702D01*
X765886Y503771D01*
X764114D01*
X763765Y503702D01*
X763469Y503504D01*
X763271Y503208D01*
X763201Y502858D01*
Y500397D01*
X761799D01*
Y502858D01*
X761729Y503208D01*
X761531Y503504D01*
X761235Y503702D01*
X760886Y503771D01*
X759114D01*
X758765Y503702D01*
X758469Y503504D01*
X758271Y503208D01*
X758201Y502858D01*
Y500397D01*
X752470D01*
Y501124D01*
X752284D01*
X752224Y501213D01*
Y502787D01*
X752284Y502876D01*
X752470D01*
Y507817D01*
X749116D01*
X740139Y516793D01*
X739776Y517036D01*
X739347Y517122D01*
X739346Y517122D01*
X730465D01*
X719122Y528465D01*
Y535604D01*
X719751Y535772D01*
X720786Y536370D01*
X721630Y537214D01*
X722228Y538249D01*
X722537Y539403D01*
Y540597D01*
X722228Y541751D01*
X721630Y542786D01*
X720786Y543631D01*
X719751Y544228D01*
X718597Y544537D01*
D02*
G37*
G36*
X661728Y510600D02*
X659272D01*
X656847Y510216D01*
X654512Y509457D01*
X652324Y508342D01*
X650337Y506899D01*
X648601Y505163D01*
X647158Y503176D01*
X646043Y500988D01*
X645284Y498653D01*
X644900Y496228D01*
Y493772D01*
X645284Y491347D01*
X646043Y489012D01*
X647158Y486824D01*
X648601Y484837D01*
X650337Y483101D01*
X652324Y481658D01*
X654512Y480543D01*
X656847Y479784D01*
X659272Y479400D01*
X661728D01*
X664153Y479784D01*
X666488Y480543D01*
X668676Y481658D01*
X670663Y483101D01*
X672399Y484837D01*
X673842Y486824D01*
X674957Y489012D01*
X675716Y491347D01*
X676100Y493772D01*
Y496228D01*
X675716Y498653D01*
X674957Y500988D01*
X673842Y503176D01*
X672399Y505163D01*
X670663Y506899D01*
X668676Y508342D01*
X666488Y509457D01*
X664153Y510216D01*
X661728Y510600D01*
D02*
G37*
G36*
X770886Y503771D02*
X769114D01*
X768765Y503702D01*
X768469Y503504D01*
X768271Y503208D01*
X768201Y502858D01*
Y495693D01*
X768271Y495344D01*
X768469Y495048D01*
X768765Y494850D01*
X768916Y494819D01*
Y492724D01*
X768878Y492714D01*
X768172Y492306D01*
X767594Y491728D01*
X767186Y491022D01*
X766975Y490233D01*
Y489417D01*
X767186Y488628D01*
X767594Y487922D01*
X768172Y487344D01*
X768878Y486936D01*
X769667Y486725D01*
X770483D01*
X771272Y486936D01*
X771978Y487344D01*
X772556Y487922D01*
X772964Y488628D01*
X772984Y488703D01*
X775083D01*
Y487330D01*
X780024D01*
Y487516D01*
X780113Y487576D01*
X781687D01*
X781776Y487516D01*
Y487330D01*
X785130D01*
X788038Y484422D01*
X787519Y483903D01*
X787111Y483197D01*
X786900Y482408D01*
Y481592D01*
X787111Y480803D01*
X787519Y480097D01*
X788097Y479519D01*
X788803Y479111D01*
X789592Y478900D01*
X790408D01*
X791197Y479111D01*
X791903Y479519D01*
X792481Y480097D01*
X792889Y480803D01*
X793100Y481592D01*
Y482408D01*
X792889Y483197D01*
X792481Y483903D01*
X791903Y484481D01*
X791197Y484889D01*
X790408Y485100D01*
X790299D01*
X790271Y485241D01*
X790028Y485605D01*
X790028Y485605D01*
X786717Y488916D01*
Y492270D01*
X781776D01*
Y492084D01*
X781687Y492024D01*
X780113D01*
X780024Y492084D01*
Y492270D01*
X775083D01*
Y490947D01*
X772984D01*
X772964Y491022D01*
X772556Y491728D01*
X771978Y492306D01*
X771272Y492714D01*
X771159Y492744D01*
Y494835D01*
X771235Y494850D01*
X771531Y495048D01*
X771729Y495344D01*
X771799Y495693D01*
Y502858D01*
X771729Y503208D01*
X771531Y503504D01*
X771235Y503702D01*
X770886Y503771D01*
D02*
G37*
G36*
X939773Y467850D02*
X938227D01*
X936710Y467548D01*
X935282Y466957D01*
X933996Y466097D01*
X932903Y465004D01*
X932043Y463718D01*
X931452Y462290D01*
X931150Y460773D01*
Y459227D01*
X931452Y457710D01*
X932043Y456282D01*
X932903Y454996D01*
X933996Y453902D01*
X935282Y453043D01*
X936710Y452452D01*
X938227Y452150D01*
X939773D01*
X941290Y452452D01*
X942718Y453043D01*
X944004Y453902D01*
X945098Y454996D01*
X945957Y456282D01*
X946548Y457710D01*
X946850Y459227D01*
Y460773D01*
X946548Y462290D01*
X945957Y463718D01*
X945098Y465004D01*
X944004Y466097D01*
X942718Y466957D01*
X941290Y467548D01*
X939773Y467850D01*
D02*
G37*
G36*
X912870Y438216D02*
X910500D01*
Y435847D01*
X912870D01*
Y438216D01*
D02*
G37*
G36*
X909500D02*
X907130D01*
Y435847D01*
X909500D01*
Y438216D01*
D02*
G37*
G36*
X900408Y436100D02*
X899592D01*
X898803Y435889D01*
X898097Y435481D01*
X897519Y434903D01*
X897111Y434197D01*
X896900Y433408D01*
Y432592D01*
X897111Y431803D01*
X897519Y431097D01*
X898097Y430519D01*
X898803Y430111D01*
X899592Y429900D01*
X900408D01*
X901197Y430111D01*
X901264Y430150D01*
X903553Y427861D01*
X903553Y427860D01*
X903917Y427617D01*
X904346Y427532D01*
X904346Y427532D01*
X907530D01*
Y426184D01*
X912470D01*
Y431124D01*
X912284D01*
X912224Y431213D01*
Y432476D01*
X912870D01*
Y434846D01*
X910000D01*
X907130D01*
Y432476D01*
X907776D01*
Y431213D01*
X907716Y431124D01*
X907530D01*
Y429775D01*
X904811D01*
X902850Y431736D01*
X902889Y431803D01*
X903100Y432592D01*
Y433408D01*
X902889Y434197D01*
X902481Y434903D01*
X901903Y435481D01*
X901197Y435889D01*
X900408Y436100D01*
D02*
G37*
G36*
X926500Y427886D02*
X922500D01*
Y423886D01*
X926500D01*
Y427886D01*
D02*
G37*
G36*
X921500D02*
X917500D01*
Y423886D01*
X921500D01*
Y427886D01*
D02*
G37*
G36*
X926500Y422886D02*
X922500D01*
Y418886D01*
X926500D01*
Y422886D01*
D02*
G37*
G36*
X921500D02*
X917500D01*
Y418886D01*
X921500D01*
Y422886D01*
D02*
G37*
G36*
X901000Y481631D02*
X900060Y481507D01*
X899185Y481145D01*
X898433Y480568D01*
X898432Y480568D01*
X871432Y453568D01*
X870855Y452815D01*
X870493Y451940D01*
X870369Y451000D01*
Y407393D01*
X866682Y403706D01*
X858216D01*
Y353294D01*
X871817D01*
Y381464D01*
X871848Y381701D01*
X871848Y381701D01*
Y398602D01*
X876567Y403322D01*
X876567Y403322D01*
X877145Y404074D01*
X877507Y404950D01*
X877631Y405889D01*
Y449496D01*
X902504Y474369D01*
X946496D01*
X975369Y445496D01*
Y421768D01*
X974864Y420893D01*
X974561Y419764D01*
Y418596D01*
X974864Y417467D01*
X975448Y416455D01*
X976275Y415628D01*
X977287Y415044D01*
X978416Y414741D01*
X979584D01*
X980713Y415044D01*
X981725Y415628D01*
X982552Y416455D01*
X983136Y417467D01*
X983439Y418596D01*
Y419764D01*
X983136Y420893D01*
X982631Y421768D01*
Y447000D01*
X982507Y447940D01*
X982145Y448815D01*
X981567Y449568D01*
X950568Y480568D01*
X949815Y481145D01*
X948940Y481507D01*
X948000Y481631D01*
X901000D01*
X901000Y481631D01*
D02*
G37*
G36*
X727701Y420324D02*
X726299D01*
X724945Y419962D01*
X723731Y419261D01*
X722739Y418269D01*
X722038Y417055D01*
X721676Y415701D01*
Y414299D01*
X722038Y412945D01*
X722739Y411731D01*
X723731Y410739D01*
X724945Y410038D01*
X726299Y409676D01*
X727701D01*
X729055Y410038D01*
X730269Y410739D01*
X731261Y411731D01*
X731962Y412945D01*
X732324Y414299D01*
Y415701D01*
X731962Y417055D01*
X731261Y418269D01*
X730269Y419261D01*
X729055Y419962D01*
X727701Y420324D01*
D02*
G37*
G36*
X703055D02*
X701653D01*
X700299Y419962D01*
X699085Y419261D01*
X698094Y418269D01*
X697393Y417055D01*
X697030Y415701D01*
Y414299D01*
X697393Y412945D01*
X698094Y411731D01*
X699085Y410739D01*
X700299Y410038D01*
X701653Y409676D01*
X703055D01*
X704410Y410038D01*
X705624Y410739D01*
X706615Y411731D01*
X707316Y412945D01*
X707679Y414299D01*
Y415701D01*
X707316Y417055D01*
X706615Y418269D01*
X705624Y419261D01*
X704410Y419962D01*
X703055Y420324D01*
D02*
G37*
G36*
X922540Y414100D02*
X921460D01*
X920417Y413821D01*
X919483Y413281D01*
X918719Y412517D01*
X918179Y411583D01*
X917900Y410540D01*
Y409460D01*
X918179Y408418D01*
X918719Y407482D01*
X919483Y406719D01*
X920417Y406179D01*
X921460Y405900D01*
X922540D01*
X923582Y406179D01*
X924518Y406719D01*
X925281Y407482D01*
X925821Y408418D01*
X926100Y409460D01*
Y410540D01*
X925821Y411583D01*
X925281Y412517D01*
X924518Y413281D01*
X923582Y413821D01*
X922540Y414100D01*
D02*
G37*
G36*
X861600Y451600D02*
X853400D01*
Y443400D01*
X853869D01*
Y424004D01*
X833602Y403737D01*
X807784D01*
X807547Y403706D01*
X797783D01*
Y399753D01*
X797321Y399562D01*
X784090Y412793D01*
X783726Y413036D01*
X783297Y413122D01*
X783297Y413122D01*
X779600D01*
X779411Y413827D01*
X778788Y414907D01*
X777907Y415788D01*
X776827Y416411D01*
X775623Y416734D01*
X774377D01*
X773173Y416411D01*
X772093Y415788D01*
X771212Y414907D01*
X770589Y413827D01*
X770266Y412623D01*
Y411377D01*
X770589Y410173D01*
X771212Y409093D01*
X771843Y408462D01*
X771207Y407826D01*
X770964Y407463D01*
X770878Y407033D01*
X770878Y407033D01*
Y385673D01*
X770765Y385650D01*
X770469Y385453D01*
X770271Y385156D01*
X770201Y384807D01*
Y377642D01*
X770271Y377292D01*
X770469Y376996D01*
X770765Y376798D01*
X771114Y376729D01*
X772886D01*
X773235Y376798D01*
X773531Y376996D01*
X773729Y377292D01*
X773799Y377642D01*
Y384807D01*
X773729Y385156D01*
X773531Y385453D01*
X773235Y385650D01*
X773122Y385673D01*
Y406569D01*
X773937Y407384D01*
X774377Y407266D01*
X775623D01*
X776827Y407589D01*
X777907Y408212D01*
X778788Y409093D01*
X779411Y410173D01*
X779600Y410878D01*
X782832D01*
X796675Y397035D01*
X797039Y396792D01*
X797469Y396707D01*
X797783Y396361D01*
Y353294D01*
X811384D01*
Y396475D01*
X835106D01*
X836046Y396599D01*
X836922Y396962D01*
X837674Y397539D01*
X860067Y419932D01*
X860645Y420684D01*
X861007Y421560D01*
X861131Y422500D01*
Y443400D01*
X861600D01*
Y451600D01*
D02*
G37*
G36*
X912540Y407407D02*
X911460D01*
X910417Y407128D01*
X909482Y406588D01*
X908719Y405825D01*
X908179Y404890D01*
X907900Y403847D01*
Y402767D01*
X908179Y401724D01*
X908719Y400790D01*
X909482Y400026D01*
X910417Y399486D01*
X911460Y399207D01*
X912540D01*
X913583Y399486D01*
X914517Y400026D01*
X915281Y400790D01*
X915821Y401724D01*
X916100Y402767D01*
Y403847D01*
X915821Y404890D01*
X915281Y405825D01*
X914517Y406588D01*
X913583Y407128D01*
X912540Y407407D01*
D02*
G37*
G36*
X944500Y451131D02*
X893515D01*
X892575Y451007D01*
X891699Y450645D01*
X890947Y450068D01*
X890947Y450068D01*
X887432Y446553D01*
X886855Y445801D01*
X886493Y444925D01*
X886369Y443985D01*
Y426000D01*
X886493Y425060D01*
X886855Y424185D01*
X887432Y423432D01*
X896739Y414125D01*
X896739Y414125D01*
X896891Y414009D01*
X896924Y413510D01*
X887460Y404046D01*
X886827Y404411D01*
X885623Y404734D01*
X884377D01*
X883173Y404411D01*
X882093Y403788D01*
X881212Y402907D01*
X880589Y401827D01*
X880266Y400623D01*
Y399377D01*
X880589Y398173D01*
X881212Y397093D01*
X882093Y396212D01*
X883173Y395589D01*
X884377Y395266D01*
X885623D01*
X886827Y395589D01*
X887907Y396212D01*
X888788Y397093D01*
X889411Y398173D01*
X889734Y399377D01*
Y400623D01*
X889411Y401827D01*
X889046Y402460D01*
X899648Y413062D01*
X910089D01*
X910417Y412872D01*
X911460Y412593D01*
X912540D01*
X913583Y412872D01*
X914517Y413412D01*
X915281Y414176D01*
X915821Y415110D01*
X916100Y416153D01*
Y417233D01*
X915821Y418275D01*
X915281Y419210D01*
X914517Y419974D01*
X913583Y420513D01*
X912540Y420793D01*
X911460D01*
X910417Y420513D01*
X910089Y420324D01*
X900811D01*
X893631Y427504D01*
Y442481D01*
X895019Y443869D01*
X942996D01*
X954369Y432496D01*
Y404000D01*
X954493Y403060D01*
X954855Y402184D01*
X955433Y401433D01*
X959937Y396927D01*
X960006Y396875D01*
X960061Y396809D01*
X960381Y396587D01*
X960690Y396350D01*
X960769Y396318D01*
X960840Y396268D01*
X961206Y396137D01*
X961565Y395988D01*
X961650Y395976D01*
X961732Y395947D01*
X962119Y395915D01*
X962505Y395864D01*
X962590Y395875D01*
X962676Y395868D01*
X973171Y396363D01*
X974061Y396523D01*
X974206Y396505D01*
X974561Y396280D01*
Y395056D01*
X983439D01*
Y403933D01*
X974561D01*
Y403689D01*
X974152Y403401D01*
X973773Y403538D01*
X972829Y403617D01*
X963937Y403198D01*
X961631Y405504D01*
Y434000D01*
X961507Y434940D01*
X961145Y435815D01*
X960567Y436568D01*
X960567Y436568D01*
X947068Y450068D01*
X946315Y450645D01*
X945440Y451007D01*
X944500Y451131D01*
D02*
G37*
G36*
X760754Y402746D02*
X759938D01*
X759150Y402535D01*
X758443Y402127D01*
X757866Y401550D01*
X757458Y400843D01*
X757246Y400055D01*
Y399238D01*
X757458Y398450D01*
X757866Y397743D01*
X758443Y397166D01*
X759150Y396758D01*
X759225Y396738D01*
Y393470D01*
X757876D01*
Y393284D01*
X757787Y393224D01*
X756213D01*
X756124Y393284D01*
Y393470D01*
X751184D01*
Y391476D01*
X732212D01*
X731962Y392409D01*
X731261Y393624D01*
X730269Y394615D01*
X729055Y395316D01*
X727701Y395679D01*
X726299D01*
X724945Y395316D01*
X723731Y394615D01*
X722739Y393624D01*
X722038Y392409D01*
X721676Y391055D01*
Y389653D01*
X722038Y388299D01*
X722739Y387085D01*
X723731Y386094D01*
X724945Y385393D01*
X726299Y385030D01*
X727701D01*
X729055Y385393D01*
X730269Y386094D01*
X731261Y387085D01*
X731962Y388299D01*
X732212Y389233D01*
X751184D01*
Y388530D01*
X756124D01*
Y388716D01*
X756213Y388776D01*
X757787D01*
X757876Y388716D01*
Y388530D01*
X760878D01*
Y385673D01*
X760765Y385650D01*
X760469Y385453D01*
X760271Y385156D01*
X760201Y384807D01*
Y378273D01*
X760197Y378254D01*
X760201Y378234D01*
Y377642D01*
X760271Y377292D01*
X760469Y376996D01*
X760765Y376798D01*
X761114Y376729D01*
X762886D01*
X763235Y376798D01*
X763531Y376996D01*
X763729Y377292D01*
X763799Y377642D01*
Y384807D01*
X763729Y385156D01*
X763531Y385453D01*
X763235Y385650D01*
X763122Y385673D01*
Y389346D01*
X763036Y389776D01*
X762816Y390104D01*
Y393470D01*
X761468D01*
Y396738D01*
X761543Y396758D01*
X762250Y397166D01*
X762827Y397743D01*
X763235Y398450D01*
X763446Y399238D01*
Y400055D01*
X763235Y400843D01*
X762827Y401550D01*
X762250Y402127D01*
X761543Y402535D01*
X760754Y402746D01*
D02*
G37*
G36*
X922540Y400714D02*
X921460D01*
X920417Y400435D01*
X919483Y399895D01*
X918719Y399132D01*
X918179Y398197D01*
X917900Y397154D01*
Y396074D01*
X918179Y395032D01*
X918719Y394097D01*
X919483Y393333D01*
X920417Y392794D01*
X921460Y392514D01*
X922540D01*
X923582Y392794D01*
X924518Y393333D01*
X925281Y394097D01*
X925821Y395032D01*
X926100Y396074D01*
Y397154D01*
X925821Y398197D01*
X925281Y399132D01*
X924518Y399895D01*
X923582Y400435D01*
X922540Y400714D01*
D02*
G37*
G36*
X703055Y395679D02*
X701653D01*
X700299Y395316D01*
X699085Y394615D01*
X698094Y393624D01*
X697393Y392409D01*
X697030Y391055D01*
Y389653D01*
X697393Y388299D01*
X698094Y387085D01*
X699085Y386094D01*
X700299Y385393D01*
X701653Y385030D01*
X703055D01*
X704410Y385393D01*
X705624Y386094D01*
X706615Y387085D01*
X707316Y388299D01*
X707679Y389653D01*
Y391055D01*
X707316Y392409D01*
X706615Y393624D01*
X705624Y394615D01*
X704410Y395316D01*
X703055Y395679D01*
D02*
G37*
G36*
X732040Y451600D02*
X730960D01*
X729917Y451321D01*
X729590Y451131D01*
X672500D01*
X671560Y451008D01*
X670685Y450645D01*
X669933Y450068D01*
X657432Y437568D01*
X656855Y436816D01*
X656493Y435940D01*
X656369Y435000D01*
Y426281D01*
X655561D01*
Y417404D01*
X664439D01*
Y426281D01*
X663631D01*
Y433496D01*
X674004Y443869D01*
X729589D01*
X729917Y443679D01*
X730960Y443400D01*
X732040D01*
X733082Y443679D01*
X734017Y444219D01*
X734781Y444982D01*
X735321Y445918D01*
X735444Y446378D01*
X754035D01*
X764878Y435535D01*
Y384921D01*
X764878Y384921D01*
X764964Y384492D01*
X765201Y384137D01*
Y377642D01*
X765271Y377292D01*
X765469Y376996D01*
X765765Y376798D01*
X766114Y376729D01*
X767886D01*
X768235Y376798D01*
X768531Y376996D01*
X768729Y377292D01*
X768799Y377642D01*
Y384807D01*
X768729Y385156D01*
X768531Y385453D01*
X768235Y385650D01*
X767886Y385720D01*
X767122D01*
Y436000D01*
X767122Y436000D01*
X767036Y436429D01*
X766793Y436793D01*
X766793Y436793D01*
X755293Y448293D01*
X754929Y448536D01*
X754500Y448622D01*
X754500Y448622D01*
X735444D01*
X735321Y449083D01*
X734781Y450017D01*
X734017Y450781D01*
X733082Y451321D01*
X732040Y451600D01*
D02*
G37*
G36*
X777886Y385720D02*
X776114D01*
X775765Y385650D01*
X775469Y385453D01*
X775271Y385156D01*
X775201Y384807D01*
Y377642D01*
X775271Y377292D01*
X775469Y376996D01*
X775765Y376798D01*
X776114Y376729D01*
X777886D01*
X778235Y376798D01*
X778461Y376949D01*
X785072D01*
X785111Y376803D01*
X785519Y376097D01*
X786097Y375519D01*
X786803Y375111D01*
X787592Y374900D01*
X788408D01*
X789197Y375111D01*
X789903Y375519D01*
X790481Y376097D01*
X790889Y376803D01*
X791100Y377592D01*
Y378408D01*
X790889Y379197D01*
X790481Y379903D01*
X789903Y380481D01*
X789197Y380889D01*
X788408Y381100D01*
X787592D01*
X786803Y380889D01*
X786097Y380481D01*
X785519Y379903D01*
X785111Y379197D01*
X785110Y379192D01*
X778799D01*
Y384807D01*
X778729Y385156D01*
X778531Y385453D01*
X778235Y385650D01*
X777886Y385720D01*
D02*
G37*
G36*
Y366271D02*
X776114D01*
X775765Y366202D01*
X775469Y366004D01*
X775271Y365708D01*
X775201Y365358D01*
Y358193D01*
X775271Y357844D01*
X775469Y357547D01*
X775765Y357350D01*
X776114Y357280D01*
X777886D01*
X778235Y357350D01*
X778531Y357547D01*
X778729Y357844D01*
X778799Y358193D01*
Y365358D01*
X778729Y365708D01*
X778531Y366004D01*
X778235Y366202D01*
X777886Y366271D01*
D02*
G37*
G36*
X715274Y407214D02*
X714080D01*
X712926Y406905D01*
X711891Y406308D01*
X711047Y405463D01*
X710449Y404428D01*
X710140Y403274D01*
Y402080D01*
X710449Y400926D01*
X711047Y399891D01*
X711891Y399047D01*
X712926Y398449D01*
X713556Y398281D01*
Y379323D01*
X713556Y379323D01*
X713641Y378894D01*
X713884Y378530D01*
X723861Y368553D01*
X723861Y368553D01*
X724224Y368310D01*
X724653Y368225D01*
X724654Y368225D01*
X748530D01*
Y366876D01*
X748716D01*
X748776Y366787D01*
Y365213D01*
X748716Y365124D01*
X748530D01*
Y361770D01*
X738882Y352121D01*
X727600D01*
X727411Y352827D01*
X726788Y353907D01*
X725907Y354788D01*
X724827Y355411D01*
X723623Y355734D01*
X722377D01*
X721173Y355411D01*
X720093Y354788D01*
X719212Y353907D01*
X718589Y352827D01*
X718266Y351623D01*
Y350377D01*
X718589Y349173D01*
X719212Y348093D01*
X720093Y347212D01*
X721173Y346589D01*
X722377Y346266D01*
X723623D01*
X724827Y346589D01*
X725907Y347212D01*
X726788Y348093D01*
X727411Y349173D01*
X727600Y349879D01*
X739346D01*
X739347Y349878D01*
X739776Y349964D01*
X740139Y350207D01*
X750116Y360184D01*
X753470D01*
Y361532D01*
X760201D01*
Y358193D01*
X760271Y357844D01*
X760469Y357547D01*
X760765Y357350D01*
X761114Y357280D01*
X762886D01*
X763235Y357350D01*
X763531Y357547D01*
X763729Y357844D01*
X763799Y358193D01*
Y360654D01*
X765201D01*
Y358193D01*
X765271Y357844D01*
X765469Y357547D01*
X765765Y357350D01*
X766114Y357280D01*
X767886D01*
X768235Y357350D01*
X768531Y357547D01*
X768729Y357844D01*
X768799Y358193D01*
Y365358D01*
X768729Y365708D01*
X768531Y366004D01*
X768235Y366202D01*
X767886Y366271D01*
X766114D01*
X765765Y366202D01*
X765469Y366004D01*
X765271Y365708D01*
X765201Y365358D01*
Y362897D01*
X763799D01*
Y365358D01*
X763729Y365708D01*
X763531Y366004D01*
X763235Y366202D01*
X762886Y366271D01*
X761114D01*
X760765Y366202D01*
X760469Y366004D01*
X760271Y365708D01*
X760201Y365358D01*
Y363775D01*
X753470D01*
Y365124D01*
X753284D01*
X753224Y365213D01*
Y366787D01*
X753284Y366876D01*
X753470D01*
Y371816D01*
X748530D01*
Y370468D01*
X725118D01*
X715799Y379787D01*
Y398281D01*
X716428Y398449D01*
X717463Y399047D01*
X718308Y399891D01*
X718905Y400926D01*
X719214Y402080D01*
Y403274D01*
X718905Y404428D01*
X718308Y405463D01*
X717463Y406308D01*
X716428Y406905D01*
X715274Y407214D01*
D02*
G37*
G36*
X939773Y367850D02*
X938227D01*
X936710Y367548D01*
X935282Y366957D01*
X933996Y366097D01*
X932903Y365004D01*
X932043Y363718D01*
X931452Y362290D01*
X931150Y360773D01*
Y359227D01*
X931452Y357710D01*
X932043Y356282D01*
X932903Y354996D01*
X933996Y353903D01*
X935282Y353043D01*
X936710Y352452D01*
X938227Y352150D01*
X939773D01*
X941290Y352452D01*
X942718Y353043D01*
X944004Y353903D01*
X945098Y354996D01*
X945957Y356282D01*
X946548Y357710D01*
X946850Y359227D01*
Y360773D01*
X946548Y362290D01*
X945957Y363718D01*
X945098Y365004D01*
X944004Y366097D01*
X942718Y366957D01*
X941290Y367548D01*
X939773Y367850D01*
D02*
G37*
G36*
X660584Y549596D02*
X659416D01*
X658287Y549294D01*
X657275Y548709D01*
X656448Y547883D01*
X655864Y546871D01*
X655561Y545742D01*
Y544573D01*
X655864Y543444D01*
X656448Y542432D01*
X657275Y541606D01*
X658287Y541021D01*
X659416Y540719D01*
X660584D01*
X661713Y541021D01*
X662588Y541526D01*
X672339D01*
X679369Y534496D01*
Y482504D01*
X672496Y475631D01*
X659000D01*
X658060Y475507D01*
X657185Y475145D01*
X656432Y474568D01*
X647432Y465568D01*
X646855Y464816D01*
X646493Y463940D01*
X646369Y463000D01*
Y412157D01*
X646493Y411218D01*
X646855Y410342D01*
X647432Y409590D01*
X654865Y402157D01*
X647432Y394725D01*
X646855Y393973D01*
X646493Y393097D01*
X646369Y392157D01*
Y356000D01*
Y305157D01*
X646493Y304218D01*
X646855Y303342D01*
X647432Y302590D01*
X655603Y294420D01*
X655864Y293444D01*
X656448Y292432D01*
X657275Y291606D01*
X658287Y291021D01*
X659416Y290719D01*
X660584D01*
X661713Y291021D01*
X662725Y291606D01*
X663552Y292432D01*
X664136Y293444D01*
X664439Y294573D01*
Y295742D01*
X664136Y296871D01*
X663552Y297883D01*
X662725Y298709D01*
X661713Y299294D01*
X660738Y299555D01*
X653631Y306661D01*
Y354878D01*
X658400D01*
X658589Y354173D01*
X659212Y353093D01*
X660093Y352212D01*
X661173Y351589D01*
X662377Y351266D01*
X663623D01*
X664827Y351589D01*
X665907Y352212D01*
X666788Y353093D01*
X667411Y354173D01*
X667734Y355377D01*
Y356623D01*
X667411Y357827D01*
X666788Y358907D01*
X665907Y359788D01*
X664827Y360411D01*
X663623Y360734D01*
X662377D01*
X661173Y360411D01*
X660093Y359788D01*
X659212Y358907D01*
X658589Y357827D01*
X658400Y357121D01*
X653631D01*
Y390653D01*
X660738Y397760D01*
X661713Y398021D01*
X662725Y398606D01*
X663552Y399432D01*
X664136Y400444D01*
X664439Y401573D01*
Y402742D01*
X664136Y403871D01*
X663552Y404883D01*
X662725Y405709D01*
X661713Y406294D01*
X660738Y406555D01*
X653631Y413661D01*
Y461496D01*
X660504Y468369D01*
X674000D01*
X674940Y468493D01*
X675815Y468855D01*
X676568Y469432D01*
X685568Y478432D01*
X686145Y479184D01*
X686507Y480060D01*
X686631Y481000D01*
Y536000D01*
X686507Y536940D01*
X686145Y537816D01*
X685568Y538568D01*
X676410Y547725D01*
X675658Y548302D01*
X674782Y548665D01*
X673843Y548788D01*
X662588D01*
X661713Y549294D01*
X660584Y549596D01*
D02*
G37*
G36*
X772886Y366271D02*
X771114D01*
X770765Y366202D01*
X770469Y366004D01*
X770271Y365708D01*
X770201Y365358D01*
Y358193D01*
X770271Y357844D01*
X770469Y357547D01*
X770765Y357350D01*
X771078Y357287D01*
Y354217D01*
X770497Y353881D01*
X769919Y353303D01*
X769511Y352597D01*
X769300Y351808D01*
Y350992D01*
X769511Y350203D01*
X769919Y349497D01*
X770497Y348919D01*
X771203Y348511D01*
X771992Y348300D01*
X772808D01*
X773597Y348511D01*
X774303Y348919D01*
X774881Y349497D01*
X775289Y350203D01*
X775309Y350278D01*
X778784D01*
Y349230D01*
X782515D01*
X782624Y349208D01*
X782732Y349230D01*
X783724D01*
Y349416D01*
X783813Y349476D01*
X785387D01*
X785476Y349416D01*
Y349230D01*
X788050D01*
Y347829D01*
X788050Y347828D01*
X788135Y347399D01*
X788378Y347035D01*
X789150Y346264D01*
X789111Y346197D01*
X788900Y345408D01*
Y344592D01*
X789111Y343804D01*
X789519Y343097D01*
X790097Y342519D01*
X790803Y342111D01*
X791592Y341900D01*
X792408D01*
X793197Y342111D01*
X793903Y342519D01*
X794481Y343097D01*
X794889Y343804D01*
X795100Y344592D01*
Y345408D01*
X794889Y346197D01*
X794481Y346903D01*
X793903Y347481D01*
X793197Y347889D01*
X792408Y348100D01*
X791592D01*
X790803Y347889D01*
X790736Y347850D01*
X790293Y348293D01*
Y349230D01*
X790416D01*
Y354170D01*
X785476D01*
Y353984D01*
X785387Y353924D01*
X783813D01*
X783724Y353984D01*
Y354170D01*
X778784D01*
Y352521D01*
X775309D01*
X775289Y352597D01*
X774881Y353303D01*
X774303Y353881D01*
X773597Y354289D01*
X773322Y354362D01*
Y357407D01*
X773531Y357547D01*
X773729Y357844D01*
X773799Y358193D01*
Y365358D01*
X773729Y365708D01*
X773531Y366004D01*
X773235Y366202D01*
X772886Y366271D01*
D02*
G37*
G36*
X939773Y294850D02*
X938227D01*
X936710Y294548D01*
X935282Y293957D01*
X933996Y293097D01*
X932903Y292004D01*
X932043Y290718D01*
X931452Y289290D01*
X931150Y287773D01*
Y286227D01*
X931452Y284710D01*
X932043Y283282D01*
X932903Y281996D01*
X933996Y280903D01*
X935282Y280043D01*
X936710Y279452D01*
X938227Y279150D01*
X939773D01*
X941290Y279452D01*
X942718Y280043D01*
X944004Y280903D01*
X945098Y281996D01*
X945957Y283282D01*
X946548Y284710D01*
X946850Y286227D01*
Y287773D01*
X946548Y289290D01*
X945957Y290718D01*
X945098Y292004D01*
X944004Y293097D01*
X942718Y293957D01*
X941290Y294548D01*
X939773Y294850D01*
D02*
G37*
G36*
X706055Y287470D02*
X704653D01*
X703299Y287107D01*
X702085Y286406D01*
X701094Y285415D01*
X700393Y284201D01*
X700030Y282847D01*
Y281445D01*
X700393Y280090D01*
X701094Y278876D01*
X702085Y277885D01*
X703299Y277184D01*
X704653Y276821D01*
X706055D01*
X707409Y277184D01*
X708624Y277885D01*
X709615Y278876D01*
X710316Y280090D01*
X710679Y281445D01*
Y282847D01*
X710316Y284201D01*
X709615Y285415D01*
X708624Y286406D01*
X707409Y287107D01*
X706055Y287470D01*
D02*
G37*
G36*
X871600Y316600D02*
X863400D01*
Y308400D01*
X863869D01*
Y296504D01*
X833402Y266038D01*
X809884D01*
X809647Y266006D01*
X801469D01*
X788371Y279104D01*
X788411Y279173D01*
X788734Y280377D01*
Y281623D01*
X788411Y282827D01*
X787788Y283907D01*
X786907Y284788D01*
X785827Y285411D01*
X784623Y285734D01*
X783377D01*
X782173Y285411D01*
X781093Y284788D01*
X780212Y283907D01*
X779589Y282827D01*
X779266Y281623D01*
Y280377D01*
X779589Y279173D01*
X779954Y278540D01*
X774707Y273293D01*
X774464Y272929D01*
X774378Y272500D01*
X774378Y272500D01*
Y267173D01*
X774265Y267150D01*
X773969Y266952D01*
X773771Y266656D01*
X773701Y266307D01*
Y259142D01*
X773771Y258792D01*
X773969Y258496D01*
X774265Y258298D01*
X774614Y258229D01*
X776386D01*
X776735Y258298D01*
X777031Y258496D01*
X777229Y258792D01*
X777299Y259142D01*
Y266307D01*
X777229Y266656D01*
X777031Y266952D01*
X776735Y267150D01*
X776622Y267173D01*
Y272035D01*
X781540Y276954D01*
X782173Y276589D01*
X783377Y276266D01*
X784623D01*
X785827Y276589D01*
X786907Y277212D01*
X786999Y277304D01*
X799883Y264420D01*
Y215594D01*
X813484D01*
Y258775D01*
X834906D01*
X835846Y258899D01*
X836722Y259262D01*
X837474Y259839D01*
X870068Y292432D01*
X870645Y293184D01*
X871007Y294060D01*
X871131Y295000D01*
Y308400D01*
X871600D01*
Y316600D01*
D02*
G37*
G36*
X910470Y268163D02*
X905530D01*
Y263223D01*
X905716D01*
X905776Y263134D01*
Y261870D01*
X905130D01*
Y259500D01*
X908000D01*
X910870D01*
Y261870D01*
X910224D01*
Y263134D01*
X910269Y263201D01*
X911696D01*
X912414Y262483D01*
X912394Y262408D01*
Y261592D01*
X912606Y260803D01*
X913014Y260097D01*
X913591Y259519D01*
X914298Y259111D01*
X915086Y258900D01*
X915903D01*
X916691Y259111D01*
X917398Y259519D01*
X917975Y260097D01*
X918383Y260803D01*
X918594Y261592D01*
Y262408D01*
X918383Y263197D01*
X917975Y263903D01*
X917398Y264481D01*
X916691Y264889D01*
X915903Y265100D01*
X915086D01*
X914298Y264889D01*
X913591Y264481D01*
X913590Y264479D01*
X912953Y265116D01*
X912590Y265359D01*
X912160Y265444D01*
X912160Y265444D01*
X910470D01*
Y268163D01*
D02*
G37*
G36*
X664439Y319281D02*
X655561D01*
Y310404D01*
X664439D01*
Y311211D01*
X737383D01*
X737683Y310911D01*
X738219Y309982D01*
X738982Y309219D01*
X739918Y308679D01*
X740960Y308400D01*
X742040D01*
X743083Y308679D01*
X744018Y309219D01*
X744781Y309982D01*
X745321Y310917D01*
X745444Y311379D01*
X762035D01*
X769378Y304035D01*
Y267173D01*
X769265Y267150D01*
X768969Y266952D01*
X768771Y266656D01*
X768701Y266307D01*
Y259142D01*
X768771Y258792D01*
X768969Y258496D01*
X769265Y258298D01*
X769614Y258229D01*
X771386D01*
X771735Y258298D01*
X772031Y258496D01*
X772229Y258792D01*
X772299Y259142D01*
Y266307D01*
X772229Y266656D01*
X772031Y266952D01*
X771735Y267150D01*
X771622Y267173D01*
Y304500D01*
X771622Y304500D01*
X771536Y304929D01*
X771293Y305293D01*
X771293Y305293D01*
X763293Y313293D01*
X762929Y313536D01*
X762500Y313622D01*
X762500Y313621D01*
X745444D01*
X745321Y314083D01*
X744781Y315018D01*
X744018Y315781D01*
X743083Y316321D01*
X742347Y316518D01*
X741455Y317410D01*
X740702Y317987D01*
X739827Y318350D01*
X738887Y318474D01*
X664439D01*
Y319281D01*
D02*
G37*
G36*
X730701Y287470D02*
X729299D01*
X727945Y287107D01*
X726731Y286406D01*
X725739Y285415D01*
X725038Y284201D01*
X724676Y282847D01*
Y281445D01*
X725038Y280090D01*
X725739Y278876D01*
X726731Y277885D01*
X727945Y277184D01*
X729299Y276821D01*
X730701D01*
X732055Y277184D01*
X733269Y277885D01*
X734261Y278876D01*
X734962Y280090D01*
X735212Y281024D01*
X748043D01*
X755184Y273884D01*
Y270530D01*
X760124D01*
Y270716D01*
X760213Y270776D01*
X761787D01*
X761876Y270716D01*
Y270530D01*
X763225D01*
Y266575D01*
X763225Y266575D01*
X763310Y266146D01*
X763553Y265782D01*
X763701Y265634D01*
Y259662D01*
X763697Y259642D01*
X763701Y259622D01*
Y259142D01*
X763771Y258792D01*
X763969Y258496D01*
X764265Y258298D01*
X764614Y258229D01*
X766386D01*
X766735Y258298D01*
X767031Y258496D01*
X767229Y258792D01*
X767299Y259142D01*
Y266307D01*
X767229Y266656D01*
X767031Y266952D01*
X766735Y267150D01*
X766386Y267220D01*
X765468D01*
Y270530D01*
X766817D01*
Y275470D01*
X765468D01*
Y278538D01*
X765543Y278558D01*
X766250Y278966D01*
X766827Y279543D01*
X767235Y280250D01*
X767446Y281038D01*
Y281855D01*
X767235Y282643D01*
X766827Y283350D01*
X766250Y283927D01*
X765543Y284335D01*
X764754Y284546D01*
X763938D01*
X763150Y284335D01*
X762443Y283927D01*
X761866Y283350D01*
X761458Y282643D01*
X761246Y281855D01*
Y281038D01*
X761458Y280250D01*
X761866Y279543D01*
X762443Y278966D01*
X763150Y278558D01*
X763225Y278538D01*
Y275470D01*
X761876D01*
Y275284D01*
X761787Y275224D01*
X760213D01*
X760124Y275284D01*
Y275470D01*
X756770D01*
X749301Y282939D01*
X748937Y283182D01*
X748508Y283267D01*
X748508Y283267D01*
X735212D01*
X734962Y284201D01*
X734261Y285415D01*
X733269Y286406D01*
X732055Y287107D01*
X730701Y287470D01*
D02*
G37*
G36*
X910870Y258500D02*
X908500D01*
Y256130D01*
X910870D01*
Y258500D01*
D02*
G37*
G36*
X907500D02*
X905130D01*
Y256130D01*
X907500D01*
Y258500D01*
D02*
G37*
G36*
X781386Y267220D02*
X779614D01*
X779265Y267150D01*
X778969Y266952D01*
X778771Y266656D01*
X778701Y266307D01*
Y259142D01*
X778771Y258792D01*
X778969Y258496D01*
X779265Y258298D01*
X779614Y258229D01*
X781386D01*
X781672Y258286D01*
X786982D01*
X787111Y257803D01*
X787519Y257097D01*
X788097Y256519D01*
X788803Y256111D01*
X789592Y255900D01*
X790408D01*
X791197Y256111D01*
X791903Y256519D01*
X792481Y257097D01*
X792889Y257803D01*
X793100Y258592D01*
Y259408D01*
X792889Y260197D01*
X792481Y260903D01*
X791903Y261481D01*
X791197Y261889D01*
X790408Y262100D01*
X789592D01*
X788803Y261889D01*
X788097Y261481D01*
X787519Y260903D01*
X787303Y260529D01*
X782299D01*
Y266307D01*
X782229Y266656D01*
X782031Y266952D01*
X781735Y267150D01*
X781386Y267220D01*
D02*
G37*
G36*
X730701Y262824D02*
X729299D01*
X727945Y262461D01*
X726731Y261761D01*
X725739Y260769D01*
X725038Y259555D01*
X724676Y258201D01*
Y256799D01*
X725038Y255445D01*
X725739Y254231D01*
X726731Y253239D01*
X727945Y252538D01*
X729299Y252176D01*
X730701D01*
X732055Y252538D01*
X733269Y253239D01*
X734261Y254231D01*
X734962Y255445D01*
X735324Y256799D01*
Y258201D01*
X734962Y259555D01*
X734261Y260769D01*
X733269Y261761D01*
X732055Y262461D01*
X730701Y262824D01*
D02*
G37*
G36*
X706055D02*
X704653D01*
X703299Y262461D01*
X702085Y261761D01*
X701094Y260769D01*
X700393Y259555D01*
X700030Y258201D01*
Y256799D01*
X700393Y255445D01*
X701094Y254231D01*
X702085Y253239D01*
X703299Y252538D01*
X704653Y252176D01*
X706055D01*
X707409Y252538D01*
X708624Y253239D01*
X709615Y254231D01*
X710316Y255445D01*
X710679Y256799D01*
Y258201D01*
X710316Y259555D01*
X709615Y260769D01*
X708624Y261761D01*
X707409Y262461D01*
X706055Y262824D01*
D02*
G37*
G36*
X926500Y254272D02*
X922500D01*
Y250272D01*
X926500D01*
Y254272D01*
D02*
G37*
G36*
X921500D02*
X917500D01*
Y250272D01*
X921500D01*
Y254272D01*
D02*
G37*
G36*
X926500Y249272D02*
X922500D01*
Y245272D01*
X926500D01*
Y249272D01*
D02*
G37*
G36*
X921500D02*
X917500D01*
Y245272D01*
X921500D01*
Y249272D01*
D02*
G37*
G36*
X960000Y306131D02*
X897500D01*
X896560Y306007D01*
X895685Y305645D01*
X894932Y305067D01*
X866839Y276974D01*
X866262Y276222D01*
X865899Y275346D01*
X865775Y274406D01*
Y266006D01*
X860316D01*
Y215594D01*
X873917D01*
Y266006D01*
X873038D01*
Y272902D01*
X899004Y298869D01*
X958496D01*
X975369Y281996D01*
Y248768D01*
X974864Y247893D01*
X974561Y246764D01*
Y245596D01*
X974864Y244467D01*
X975448Y243455D01*
X976275Y242628D01*
X977287Y242044D01*
X978416Y241741D01*
X979584D01*
X980713Y242044D01*
X981725Y242628D01*
X982552Y243455D01*
X983136Y244467D01*
X983439Y245596D01*
Y246764D01*
X983136Y247893D01*
X982631Y248768D01*
Y283500D01*
X982631Y283500D01*
X982507Y284440D01*
X982145Y285315D01*
X981567Y286068D01*
X962568Y305067D01*
X961815Y305645D01*
X960940Y306007D01*
X960000Y306131D01*
D02*
G37*
G36*
X781386Y247771D02*
X779614D01*
X779265Y247702D01*
X778969Y247504D01*
X778771Y247208D01*
X778701Y246858D01*
Y239693D01*
X778771Y239344D01*
X778969Y239048D01*
X779265Y238850D01*
X779614Y238780D01*
X781386D01*
X781735Y238850D01*
X782031Y239048D01*
X782229Y239344D01*
X782299Y239693D01*
Y246858D01*
X782229Y247208D01*
X782031Y247504D01*
X781735Y247702D01*
X781386Y247771D01*
D02*
G37*
G36*
X718274Y274360D02*
X717080D01*
X715926Y274051D01*
X714891Y273453D01*
X714047Y272609D01*
X713449Y271574D01*
X713140Y270420D01*
Y269226D01*
X713449Y268072D01*
X714047Y267037D01*
X714891Y266192D01*
X715926Y265595D01*
X717080Y265286D01*
X718274D01*
X719428Y265595D01*
X720463Y266192D01*
X721308Y267037D01*
X721905Y268072D01*
X722074Y268701D01*
X733713D01*
X749532Y252882D01*
Y248470D01*
X748183D01*
Y243530D01*
X753124D01*
Y243716D01*
X753213Y243776D01*
X754787D01*
X754876Y243716D01*
Y243530D01*
X756225D01*
Y226654D01*
X756225Y226654D01*
X756310Y226224D01*
X756553Y225861D01*
X765954Y216460D01*
X765589Y215827D01*
X765266Y214623D01*
Y213377D01*
X765589Y212173D01*
X766212Y211093D01*
X767093Y210212D01*
X768173Y209589D01*
X769377Y209266D01*
X770623D01*
X771827Y209589D01*
X772907Y210212D01*
X773788Y211093D01*
X774411Y212173D01*
X774734Y213377D01*
Y214623D01*
X774411Y215827D01*
X773788Y216907D01*
X772907Y217788D01*
X771827Y218411D01*
X770623Y218734D01*
X769377D01*
X768173Y218411D01*
X767540Y218046D01*
X758468Y227118D01*
Y243530D01*
X759817D01*
Y244879D01*
X763701D01*
Y239693D01*
X763771Y239344D01*
X763969Y239048D01*
X764265Y238850D01*
X764614Y238780D01*
X766386D01*
X766735Y238850D01*
X767031Y239048D01*
X767229Y239344D01*
X767299Y239693D01*
Y242154D01*
X768701D01*
Y239693D01*
X768771Y239344D01*
X768969Y239048D01*
X769265Y238850D01*
X769614Y238780D01*
X771386D01*
X771735Y238850D01*
X772031Y239048D01*
X772229Y239344D01*
X772299Y239693D01*
Y246858D01*
X772229Y247208D01*
X772031Y247504D01*
X771735Y247702D01*
X771386Y247771D01*
X769614D01*
X769265Y247702D01*
X768969Y247504D01*
X768771Y247208D01*
X768701Y246858D01*
Y244397D01*
X767299D01*
Y246858D01*
X767229Y247208D01*
X767031Y247504D01*
X766735Y247702D01*
X766386Y247771D01*
X764614D01*
X764265Y247702D01*
X763969Y247504D01*
X763771Y247208D01*
X763754Y247122D01*
X759817D01*
Y248470D01*
X754876D01*
Y248284D01*
X754787Y248224D01*
X753213D01*
X753124Y248284D01*
Y248470D01*
X752132D01*
X752024Y248492D01*
X751775Y248932D01*
Y253346D01*
X751775Y253346D01*
X751690Y253776D01*
X751447Y254139D01*
X751447Y254139D01*
X734970Y270616D01*
X734606Y270859D01*
X734177Y270944D01*
X734177Y270944D01*
X722074D01*
X721905Y271574D01*
X721308Y272609D01*
X720463Y273453D01*
X719428Y274051D01*
X718274Y274360D01*
D02*
G37*
G36*
X666228Y265600D02*
X663772D01*
X661347Y265216D01*
X659012Y264457D01*
X656824Y263342D01*
X654837Y261899D01*
X653101Y260163D01*
X651658Y258176D01*
X650543Y255988D01*
X649784Y253653D01*
X649400Y251228D01*
Y248772D01*
X649784Y246347D01*
X650543Y244012D01*
X651658Y241824D01*
X653101Y239837D01*
X654837Y238101D01*
X656824Y236658D01*
X659012Y235543D01*
X661347Y234784D01*
X663772Y234400D01*
X666228D01*
X668653Y234784D01*
X670988Y235543D01*
X673176Y236658D01*
X675163Y238101D01*
X676899Y239837D01*
X678342Y241824D01*
X679457Y244012D01*
X680216Y246347D01*
X680600Y248772D01*
Y251228D01*
X680216Y253653D01*
X679457Y255988D01*
X678342Y258176D01*
X676899Y260163D01*
X675163Y261899D01*
X673176Y263342D01*
X670988Y264457D01*
X668653Y265216D01*
X666228Y265600D01*
D02*
G37*
G36*
X922540Y240486D02*
X921460D01*
X920417Y240206D01*
X919483Y239667D01*
X918719Y238903D01*
X918179Y237968D01*
X917900Y236926D01*
Y235846D01*
X918179Y234803D01*
X918719Y233868D01*
X919483Y233105D01*
X920417Y232565D01*
X921460Y232286D01*
X922540D01*
X923582Y232565D01*
X924518Y233105D01*
X925281Y233868D01*
X925821Y234803D01*
X926100Y235846D01*
Y236926D01*
X925821Y237968D01*
X925281Y238903D01*
X924518Y239667D01*
X923582Y240206D01*
X922540Y240486D01*
D02*
G37*
G36*
X776386Y247771D02*
X774614D01*
X774265Y247702D01*
X773969Y247504D01*
X773771Y247208D01*
X773701Y246858D01*
Y239693D01*
X773771Y239344D01*
X773969Y239048D01*
X774265Y238850D01*
X774378Y238827D01*
Y233470D01*
X773183D01*
Y232021D01*
X771109D01*
X771089Y232097D01*
X770681Y232803D01*
X770103Y233381D01*
X769397Y233789D01*
X768608Y234000D01*
X767792D01*
X767003Y233789D01*
X766297Y233381D01*
X765719Y232803D01*
X765311Y232097D01*
X765100Y231308D01*
Y230492D01*
X765311Y229703D01*
X765719Y228997D01*
X766297Y228419D01*
X767003Y228011D01*
X767792Y227800D01*
X768608D01*
X769397Y228011D01*
X770103Y228419D01*
X770681Y228997D01*
X771089Y229703D01*
X771109Y229779D01*
X773183D01*
Y228530D01*
X775902D01*
Y226976D01*
X775902Y226976D01*
X775987Y226547D01*
X776231Y226183D01*
X780778Y221635D01*
Y208565D01*
X777335Y205121D01*
X770000D01*
X770000Y205122D01*
X769571Y205036D01*
X769207Y204793D01*
X713535Y149122D01*
X695965D01*
X690533Y154553D01*
X690622Y154707D01*
X690850Y155559D01*
Y156441D01*
X690622Y157293D01*
X690181Y158057D01*
X689557Y158681D01*
X688793Y159122D01*
X687941Y159350D01*
X687059D01*
X686207Y159122D01*
X685443Y158681D01*
X684819Y158057D01*
X684378Y157293D01*
X684150Y156441D01*
Y155559D01*
X684378Y154707D01*
X684819Y153943D01*
X685443Y153319D01*
X686207Y152878D01*
X687059Y152650D01*
X687941D01*
X688793Y152878D01*
X688947Y152967D01*
X694707Y147207D01*
X694707Y147207D01*
X695071Y146964D01*
X695500Y146878D01*
X695500Y146878D01*
X714000D01*
X714000Y146878D01*
X714429Y146964D01*
X714793Y147207D01*
X770465Y202878D01*
X777800D01*
X777800Y202878D01*
X778229Y202964D01*
X778593Y203207D01*
X782693Y207307D01*
X782693Y207307D01*
X782936Y207671D01*
X783022Y208100D01*
X783022Y208100D01*
Y222100D01*
X783022Y222100D01*
X782936Y222529D01*
X782693Y222893D01*
X782693Y222893D01*
X778145Y227441D01*
Y228731D01*
X778213Y228776D01*
X779787D01*
X779876Y228716D01*
Y228530D01*
X784817D01*
Y229878D01*
X789091D01*
X789111Y229803D01*
X789519Y229097D01*
X790097Y228519D01*
X790803Y228111D01*
X791592Y227900D01*
X792408D01*
X793197Y228111D01*
X793903Y228519D01*
X794481Y229097D01*
X794889Y229803D01*
X795100Y230592D01*
Y231408D01*
X794889Y232197D01*
X794481Y232903D01*
X793903Y233481D01*
X793197Y233889D01*
X792408Y234100D01*
X791592D01*
X790803Y233889D01*
X790097Y233481D01*
X789519Y232903D01*
X789111Y232197D01*
X789091Y232121D01*
X784817D01*
Y233470D01*
X779876D01*
Y233284D01*
X779787Y233224D01*
X778213D01*
X778124Y233284D01*
Y233470D01*
X776622D01*
Y238827D01*
X776735Y238850D01*
X777031Y239048D01*
X777229Y239344D01*
X777299Y239693D01*
Y246858D01*
X777229Y247208D01*
X777031Y247504D01*
X776735Y247702D01*
X776386Y247771D01*
D02*
G37*
G36*
X943600Y278031D02*
X891515D01*
X890575Y277907D01*
X889699Y277545D01*
X888947Y276968D01*
X888947Y276968D01*
X885433Y273453D01*
X884855Y272701D01*
X884493Y271825D01*
X884369Y270885D01*
Y248000D01*
X884493Y247060D01*
X884855Y246184D01*
X885433Y245432D01*
X890354Y240511D01*
X891106Y239934D01*
X891981Y239571D01*
X892921Y239448D01*
X892921Y239448D01*
X906130D01*
X906321Y238986D01*
X899457Y232121D01*
X894600D01*
X894411Y232827D01*
X893788Y233907D01*
X892907Y234788D01*
X891827Y235411D01*
X890623Y235734D01*
X889377D01*
X888173Y235411D01*
X887093Y234788D01*
X886212Y233907D01*
X885589Y232827D01*
X885266Y231623D01*
Y230377D01*
X885589Y229173D01*
X886212Y228093D01*
X887093Y227212D01*
X888173Y226589D01*
X889377Y226266D01*
X890623D01*
X891827Y226589D01*
X892907Y227212D01*
X893788Y228093D01*
X894411Y229173D01*
X894600Y229878D01*
X899921D01*
X899921Y229878D01*
X900350Y229964D01*
X900714Y230207D01*
X909955Y239448D01*
X910089D01*
X910417Y239258D01*
X911460Y238979D01*
X912540D01*
X913583Y239258D01*
X914517Y239798D01*
X915281Y240561D01*
X915821Y241496D01*
X916100Y242539D01*
Y243618D01*
X915821Y244661D01*
X915281Y245596D01*
X914517Y246360D01*
X913583Y246899D01*
X912540Y247179D01*
X911460D01*
X910417Y246899D01*
X910089Y246710D01*
X894425D01*
X891631Y249504D01*
Y269381D01*
X893019Y270769D01*
X942096D01*
X952369Y260496D01*
Y236000D01*
X952493Y235060D01*
X952855Y234185D01*
X953432Y233433D01*
X962938Y223927D01*
X963690Y223350D01*
X964565Y222988D01*
X965505Y222864D01*
X974561D01*
Y222056D01*
X983439D01*
Y230933D01*
X974561D01*
Y230126D01*
X967009D01*
X959631Y237504D01*
Y262000D01*
X959631Y262000D01*
X959507Y262940D01*
X959145Y263815D01*
X958568Y264567D01*
X946167Y276968D01*
X945415Y277545D01*
X944540Y277907D01*
X943600Y278031D01*
D02*
G37*
G36*
X922540Y227100D02*
X921460D01*
X920417Y226821D01*
X919483Y226281D01*
X918719Y225518D01*
X918179Y224583D01*
X917900Y223540D01*
Y222460D01*
X918179Y221417D01*
X918719Y220482D01*
X919483Y219719D01*
X920417Y219179D01*
X921460Y218900D01*
X922540D01*
X923582Y219179D01*
X924518Y219719D01*
X925281Y220482D01*
X925821Y221417D01*
X926100Y222460D01*
Y223540D01*
X925821Y224583D01*
X925281Y225518D01*
X924518Y226281D01*
X923582Y226821D01*
X922540Y227100D01*
D02*
G37*
G36*
X722441Y209350D02*
X721559D01*
X720707Y209122D01*
X719943Y208681D01*
X719319Y208057D01*
X718878Y207293D01*
X718650Y206441D01*
Y205559D01*
X718878Y204707D01*
X719319Y203943D01*
X719943Y203319D01*
X720707Y202878D01*
X721559Y202650D01*
X722441D01*
X723293Y202878D01*
X724057Y203319D01*
X724681Y203943D01*
X725122Y204707D01*
X725350Y205559D01*
Y206441D01*
X725122Y207293D01*
X724681Y208057D01*
X724057Y208681D01*
X723293Y209122D01*
X722441Y209350D01*
D02*
G37*
G36*
X712441D02*
X711559D01*
X710707Y209122D01*
X709943Y208681D01*
X709319Y208057D01*
X708878Y207293D01*
X708650Y206441D01*
Y205559D01*
X708878Y204707D01*
X709319Y203943D01*
X709943Y203319D01*
X710707Y202878D01*
X711559Y202650D01*
X712441D01*
X713293Y202878D01*
X714057Y203319D01*
X714681Y203943D01*
X715122Y204707D01*
X715350Y205559D01*
Y206441D01*
X715122Y207293D01*
X714681Y208057D01*
X714057Y208681D01*
X713293Y209122D01*
X712441Y209350D01*
D02*
G37*
G36*
X678441D02*
X677559D01*
X676707Y209122D01*
X675943Y208681D01*
X675319Y208057D01*
X674878Y207293D01*
X674650Y206441D01*
Y205559D01*
X674878Y204707D01*
X675319Y203943D01*
X675943Y203319D01*
X676707Y202878D01*
X677559Y202650D01*
X678441D01*
X679293Y202878D01*
X680057Y203319D01*
X680681Y203943D01*
X681122Y204707D01*
X681350Y205559D01*
Y206441D01*
X681122Y207293D01*
X680681Y208057D01*
X680057Y208681D01*
X679293Y209122D01*
X678441Y209350D01*
D02*
G37*
G36*
X668441D02*
X667559D01*
X666707Y209122D01*
X665943Y208681D01*
X665319Y208057D01*
X664878Y207293D01*
X664650Y206441D01*
Y205559D01*
X664878Y204707D01*
X665319Y203943D01*
X665943Y203319D01*
X666707Y202878D01*
X667559Y202650D01*
X668441D01*
X669293Y202878D01*
X670057Y203319D01*
X670681Y203943D01*
X671122Y204707D01*
X671350Y205559D01*
Y206441D01*
X671122Y207293D01*
X670681Y208057D01*
X670057Y208681D01*
X669293Y209122D01*
X668441Y209350D01*
D02*
G37*
G36*
X712941Y193850D02*
X712059D01*
X711207Y193622D01*
X710443Y193181D01*
X709819Y192557D01*
X709378Y191793D01*
X709150Y190941D01*
Y190059D01*
X709378Y189207D01*
X709819Y188443D01*
X710443Y187819D01*
X711207Y187378D01*
X712059Y187150D01*
X712941D01*
X713793Y187378D01*
X714557Y187819D01*
X715181Y188443D01*
X715622Y189207D01*
X715850Y190059D01*
Y190941D01*
X715622Y191793D01*
X715181Y192557D01*
X714557Y193181D01*
X713793Y193622D01*
X712941Y193850D01*
D02*
G37*
G36*
X702941D02*
X702059D01*
X701207Y193622D01*
X700443Y193181D01*
X699819Y192557D01*
X699378Y191793D01*
X699150Y190941D01*
Y190059D01*
X699378Y189207D01*
X699819Y188443D01*
X700443Y187819D01*
X701207Y187378D01*
X702059Y187150D01*
X702941D01*
X703793Y187378D01*
X704557Y187819D01*
X705181Y188443D01*
X705622Y189207D01*
X705850Y190059D01*
Y190941D01*
X705622Y191793D01*
X705181Y192557D01*
X704557Y193181D01*
X703793Y193622D01*
X702941Y193850D01*
D02*
G37*
G36*
X692941D02*
X692059D01*
X691207Y193622D01*
X690443Y193181D01*
X689819Y192557D01*
X689378Y191793D01*
X689150Y190941D01*
Y190059D01*
X689378Y189207D01*
X689819Y188443D01*
X690443Y187819D01*
X691207Y187378D01*
X692059Y187150D01*
X692941D01*
X693793Y187378D01*
X694557Y187819D01*
X695181Y188443D01*
X695622Y189207D01*
X695850Y190059D01*
Y190941D01*
X695622Y191793D01*
X695181Y192557D01*
X694557Y193181D01*
X693793Y193622D01*
X692941Y193850D01*
D02*
G37*
G36*
X682941D02*
X682059D01*
X681207Y193622D01*
X680443Y193181D01*
X679819Y192557D01*
X679378Y191793D01*
X679150Y190941D01*
Y190059D01*
X679378Y189207D01*
X679819Y188443D01*
X680443Y187819D01*
X681207Y187378D01*
X682059Y187150D01*
X682941D01*
X683793Y187378D01*
X684557Y187819D01*
X685181Y188443D01*
X685622Y189207D01*
X685850Y190059D01*
Y190941D01*
X685622Y191793D01*
X685181Y192557D01*
X684557Y193181D01*
X683793Y193622D01*
X682941Y193850D01*
D02*
G37*
G36*
X727619Y189200D02*
X726381D01*
X725186Y188880D01*
X724114Y188261D01*
X723239Y187386D01*
X722620Y186314D01*
X722300Y185119D01*
Y183881D01*
X722620Y182686D01*
X723239Y181614D01*
X724114Y180739D01*
X725186Y180120D01*
X726381Y179800D01*
X727619D01*
X728814Y180120D01*
X729886Y180739D01*
X730761Y181614D01*
X731380Y182686D01*
X731700Y183881D01*
Y185119D01*
X731380Y186314D01*
X730761Y187386D01*
X729886Y188261D01*
X728814Y188880D01*
X727619Y189200D01*
D02*
G37*
G36*
X663619D02*
X662381D01*
X661186Y188880D01*
X660114Y188261D01*
X659239Y187386D01*
X658620Y186314D01*
X658300Y185119D01*
Y183881D01*
X658620Y182686D01*
X659239Y181614D01*
X660114Y180739D01*
X661186Y180120D01*
X662381Y179800D01*
X663619D01*
X664814Y180120D01*
X665886Y180739D01*
X666761Y181614D01*
X667380Y182686D01*
X667700Y183881D01*
Y185119D01*
X667380Y186314D01*
X666761Y187386D01*
X665886Y188261D01*
X664814Y188880D01*
X663619Y189200D01*
D02*
G37*
G36*
X939773Y194850D02*
X938227D01*
X936710Y194548D01*
X935282Y193957D01*
X933996Y193097D01*
X932903Y192004D01*
X932043Y190718D01*
X931452Y189290D01*
X931150Y187773D01*
Y186227D01*
X931452Y184710D01*
X932043Y183282D01*
X932903Y181996D01*
X933996Y180903D01*
X935282Y180043D01*
X936710Y179452D01*
X938227Y179150D01*
X939773D01*
X941290Y179452D01*
X942718Y180043D01*
X944004Y180903D01*
X945098Y181996D01*
X945957Y183282D01*
X946548Y184710D01*
X946850Y186227D01*
Y187773D01*
X946548Y189290D01*
X945957Y190718D01*
X945098Y192004D01*
X944004Y193097D01*
X942718Y193957D01*
X941290Y194548D01*
X939773Y194850D01*
D02*
G37*
G36*
X707941Y183850D02*
X707059D01*
X706207Y183622D01*
X705443Y183181D01*
X704819Y182557D01*
X704378Y181793D01*
X704150Y180941D01*
Y180059D01*
X704378Y179207D01*
X704819Y178443D01*
X705443Y177819D01*
X706207Y177378D01*
X707059Y177150D01*
X707941D01*
X708793Y177378D01*
X709557Y177819D01*
X710181Y178443D01*
X710622Y179207D01*
X710850Y180059D01*
Y180941D01*
X710622Y181793D01*
X710181Y182557D01*
X709557Y183181D01*
X708793Y183622D01*
X707941Y183850D01*
D02*
G37*
G36*
X697941D02*
X697059D01*
X696207Y183622D01*
X695443Y183181D01*
X694819Y182557D01*
X694378Y181793D01*
X694150Y180941D01*
Y180059D01*
X694378Y179207D01*
X694819Y178443D01*
X695443Y177819D01*
X696207Y177378D01*
X697059Y177150D01*
X697941D01*
X698793Y177378D01*
X699557Y177819D01*
X700181Y178443D01*
X700622Y179207D01*
X700850Y180059D01*
Y180941D01*
X700622Y181793D01*
X700181Y182557D01*
X699557Y183181D01*
X698793Y183622D01*
X697941Y183850D01*
D02*
G37*
G36*
X687941D02*
X687059D01*
X686207Y183622D01*
X685443Y183181D01*
X684819Y182557D01*
X684378Y181793D01*
X684150Y180941D01*
Y180059D01*
X684378Y179207D01*
X684819Y178443D01*
X685443Y177819D01*
X686207Y177378D01*
X687059Y177150D01*
X687941D01*
X688793Y177378D01*
X689557Y177819D01*
X690181Y178443D01*
X690622Y179207D01*
X690850Y180059D01*
Y180941D01*
X690622Y181793D01*
X690181Y182557D01*
X689557Y183181D01*
X688793Y183622D01*
X687941Y183850D01*
D02*
G37*
G36*
X677941D02*
X677059D01*
X676207Y183622D01*
X675443Y183181D01*
X674819Y182557D01*
X674378Y181793D01*
X674150Y180941D01*
Y180059D01*
X674378Y179207D01*
X674819Y178443D01*
X675443Y177819D01*
X676207Y177378D01*
X677059Y177150D01*
X677941D01*
X678793Y177378D01*
X679557Y177819D01*
X680181Y178443D01*
X680622Y179207D01*
X680850Y180059D01*
Y180941D01*
X680622Y181793D01*
X680181Y182557D01*
X679557Y183181D01*
X678793Y183622D01*
X677941Y183850D01*
D02*
G37*
G36*
X712941Y169350D02*
X712059D01*
X711207Y169122D01*
X710443Y168681D01*
X709819Y168057D01*
X709378Y167293D01*
X709150Y166441D01*
Y165559D01*
X709378Y164707D01*
X709819Y163943D01*
X710443Y163319D01*
X711207Y162878D01*
X712059Y162650D01*
X712941D01*
X713793Y162878D01*
X714557Y163319D01*
X715181Y163943D01*
X715622Y164707D01*
X715850Y165559D01*
Y166441D01*
X715622Y167293D01*
X715181Y168057D01*
X714557Y168681D01*
X713793Y169122D01*
X712941Y169350D01*
D02*
G37*
G36*
X702941D02*
X702059D01*
X701207Y169122D01*
X700443Y168681D01*
X699819Y168057D01*
X699378Y167293D01*
X699150Y166441D01*
Y165559D01*
X699378Y164707D01*
X699819Y163943D01*
X700443Y163319D01*
X701207Y162878D01*
X702059Y162650D01*
X702941D01*
X703793Y162878D01*
X704557Y163319D01*
X705181Y163943D01*
X705622Y164707D01*
X705850Y165559D01*
Y166441D01*
X705622Y167293D01*
X705181Y168057D01*
X704557Y168681D01*
X703793Y169122D01*
X702941Y169350D01*
D02*
G37*
G36*
X692941D02*
X692059D01*
X691207Y169122D01*
X690443Y168681D01*
X689819Y168057D01*
X689378Y167293D01*
X689150Y166441D01*
Y165559D01*
X689378Y164707D01*
X689819Y163943D01*
X690443Y163319D01*
X691207Y162878D01*
X692059Y162650D01*
X692941D01*
X693793Y162878D01*
X694557Y163319D01*
X695181Y163943D01*
X695622Y164707D01*
X695850Y165559D01*
Y166441D01*
X695622Y167293D01*
X695181Y168057D01*
X694557Y168681D01*
X693793Y169122D01*
X692941Y169350D01*
D02*
G37*
G36*
X682941D02*
X682059D01*
X681207Y169122D01*
X680443Y168681D01*
X679819Y168057D01*
X679378Y167293D01*
X679150Y166441D01*
Y165559D01*
X679378Y164707D01*
X679819Y163943D01*
X680443Y163319D01*
X681207Y162878D01*
X682059Y162650D01*
X682941D01*
X683793Y162878D01*
X684557Y163319D01*
X685181Y163943D01*
X685622Y164707D01*
X685850Y165559D01*
Y166441D01*
X685622Y167293D01*
X685181Y168057D01*
X684557Y168681D01*
X683793Y169122D01*
X682941Y169350D01*
D02*
G37*
G36*
X747408Y208100D02*
X746592D01*
X745803Y207889D01*
X745097Y207481D01*
X744519Y206903D01*
X744111Y206197D01*
X743900Y205408D01*
Y204592D01*
X744111Y203803D01*
X744519Y203097D01*
X745097Y202519D01*
X745803Y202111D01*
X745878Y202091D01*
Y186465D01*
X721535Y162122D01*
X702500D01*
X702500Y162122D01*
X702071Y162036D01*
X701707Y161793D01*
X701707Y161793D01*
X698947Y159033D01*
X698793Y159122D01*
X697941Y159350D01*
X697059D01*
X696207Y159122D01*
X695443Y158681D01*
X694819Y158057D01*
X694378Y157293D01*
X694150Y156441D01*
Y155559D01*
X694378Y154707D01*
X694819Y153943D01*
X695443Y153319D01*
X696207Y152878D01*
X697059Y152650D01*
X697941D01*
X698793Y152878D01*
X699557Y153319D01*
X700181Y153943D01*
X700622Y154707D01*
X700850Y155559D01*
Y156441D01*
X700622Y157293D01*
X700533Y157447D01*
X702965Y159878D01*
X722000D01*
X722000Y159878D01*
X722429Y159964D01*
X722793Y160207D01*
X747793Y185207D01*
X747793Y185207D01*
X748036Y185571D01*
X748122Y186000D01*
X748122Y186000D01*
Y202091D01*
X748197Y202111D01*
X748903Y202519D01*
X749481Y203097D01*
X749889Y203803D01*
X750100Y204592D01*
Y205408D01*
X749889Y206197D01*
X749481Y206903D01*
X748903Y207481D01*
X748197Y207889D01*
X747408Y208100D01*
D02*
G37*
G36*
X826623Y188734D02*
X825377D01*
X824173Y188411D01*
X823093Y187788D01*
X822212Y186907D01*
X821589Y185827D01*
X821266Y184623D01*
Y183377D01*
X821589Y182173D01*
X822212Y181093D01*
X823093Y180212D01*
X824173Y179589D01*
X824878Y179400D01*
Y166583D01*
X817146Y158850D01*
X817078Y158889D01*
X816290Y159100D01*
X815474D01*
X814685Y158889D01*
X813978Y158481D01*
X813401Y157903D01*
X812993Y157197D01*
X812782Y156408D01*
Y155592D01*
X812993Y154803D01*
X813401Y154097D01*
X813978Y153519D01*
X814685Y153111D01*
X815474Y152900D01*
X816290D01*
X817078Y153111D01*
X817785Y153519D01*
X818363Y154097D01*
X818771Y154803D01*
X818982Y155592D01*
Y156408D01*
X818771Y157197D01*
X818732Y157264D01*
X826793Y165325D01*
X826793Y165325D01*
X827036Y165689D01*
X827122Y166118D01*
X827122Y166118D01*
Y179400D01*
X827827Y179589D01*
X828907Y180212D01*
X829788Y181093D01*
X830411Y182173D01*
X830734Y183377D01*
Y184623D01*
X830411Y185827D01*
X829788Y186907D01*
X828907Y187788D01*
X827827Y188411D01*
X826623Y188734D01*
D02*
G37*
G36*
X825266Y159100D02*
X824450D01*
X823662Y158889D01*
X822955Y158481D01*
X822378Y157903D01*
X821970Y157197D01*
X821758Y156408D01*
Y155592D01*
X821970Y154803D01*
X822378Y154097D01*
X822955Y153519D01*
X823662Y153111D01*
X824450Y152900D01*
X825266D01*
X826055Y153111D01*
X826762Y153519D01*
X827339Y154097D01*
X827747Y154803D01*
X827958Y155592D01*
Y156408D01*
X827747Y157197D01*
X827339Y157903D01*
X826762Y158481D01*
X826055Y158889D01*
X825266Y159100D01*
D02*
G37*
G36*
X807314D02*
X806497D01*
X805709Y158889D01*
X805002Y158481D01*
X804425Y157903D01*
X804017Y157197D01*
X803806Y156408D01*
Y155592D01*
X804017Y154803D01*
X804425Y154097D01*
X805002Y153519D01*
X805709Y153111D01*
X806497Y152900D01*
X807314D01*
X808102Y153111D01*
X808809Y153519D01*
X809386Y154097D01*
X809794Y154803D01*
X810005Y155592D01*
Y156408D01*
X809794Y157197D01*
X809386Y157903D01*
X808809Y158481D01*
X808102Y158889D01*
X807314Y159100D01*
D02*
G37*
G36*
X853623Y188734D02*
X852377D01*
X851173Y188411D01*
X850093Y187788D01*
X849212Y186907D01*
X848589Y185827D01*
X848266Y184623D01*
Y183377D01*
X848589Y182173D01*
X849212Y181093D01*
X850093Y180212D01*
X851173Y179589D01*
X851878Y179400D01*
Y175551D01*
X835270Y158942D01*
X830656D01*
Y152743D01*
X836856D01*
Y157356D01*
X853793Y174294D01*
X853793Y174294D01*
X854036Y174657D01*
X854122Y175087D01*
Y179400D01*
X854827Y179589D01*
X855907Y180212D01*
X856788Y181093D01*
X857411Y182173D01*
X857734Y183377D01*
Y184623D01*
X857411Y185827D01*
X856788Y186907D01*
X855907Y187788D01*
X854827Y188411D01*
X853623Y188734D01*
D02*
G37*
G36*
X707941Y159350D02*
X707059D01*
X706207Y159122D01*
X705443Y158681D01*
X704819Y158057D01*
X704378Y157293D01*
X704150Y156441D01*
Y155559D01*
X704378Y154707D01*
X704819Y153943D01*
X705443Y153319D01*
X706207Y152878D01*
X707059Y152650D01*
X707941D01*
X708793Y152878D01*
X709557Y153319D01*
X710181Y153943D01*
X710622Y154707D01*
X710850Y155559D01*
Y156441D01*
X710622Y157293D01*
X710181Y158057D01*
X709557Y158681D01*
X708793Y159122D01*
X707941Y159350D01*
D02*
G37*
G36*
X677941D02*
X677059D01*
X676207Y159122D01*
X675443Y158681D01*
X674819Y158057D01*
X674378Y157293D01*
X674150Y156441D01*
Y155559D01*
X674378Y154707D01*
X674819Y153943D01*
X675443Y153319D01*
X676207Y152878D01*
X677059Y152650D01*
X677941D01*
X678793Y152878D01*
X679557Y153319D01*
X680181Y153943D01*
X680622Y154707D01*
X680850Y155559D01*
Y156441D01*
X680622Y157293D01*
X680181Y158057D01*
X679557Y158681D01*
X678793Y159122D01*
X677941Y159350D01*
D02*
G37*
G36*
X912540Y233793D02*
X911460D01*
X910417Y233513D01*
X909482Y232974D01*
X908719Y232210D01*
X908179Y231276D01*
X907900Y230233D01*
Y229153D01*
X908179Y228110D01*
X908719Y227175D01*
X909482Y226412D01*
X910417Y225872D01*
X910878Y225749D01*
Y213365D01*
X879508Y181994D01*
X879207Y181793D01*
X879207Y181793D01*
X848935Y151522D01*
X803994D01*
X800779Y154736D01*
X800818Y154803D01*
X801029Y155592D01*
Y156408D01*
X800818Y157197D01*
X800410Y157903D01*
X799832Y158481D01*
X799816Y158490D01*
Y179266D01*
X800623D01*
X801827Y179589D01*
X802907Y180212D01*
X803788Y181093D01*
X804411Y182173D01*
X804734Y183377D01*
Y184623D01*
X804411Y185827D01*
X803788Y186907D01*
X802907Y187788D01*
X801827Y188411D01*
X800623Y188734D01*
X799377D01*
X798173Y188411D01*
X797093Y187788D01*
X796212Y186907D01*
X795589Y185827D01*
X795266Y184623D01*
Y183377D01*
X795589Y182173D01*
X796212Y181093D01*
X797093Y180212D01*
X797573Y179935D01*
Y159100D01*
X797521D01*
X796733Y158889D01*
X796026Y158481D01*
X795448Y157903D01*
X795040Y157197D01*
X794829Y156408D01*
Y155592D01*
X795040Y154803D01*
X795448Y154097D01*
X796026Y153519D01*
X796733Y153111D01*
X797521Y152900D01*
X798337D01*
X799126Y153111D01*
X799193Y153150D01*
X802736Y149607D01*
X802736Y149607D01*
X802746Y149600D01*
X802595Y149100D01*
X802009D01*
X801221Y148889D01*
X800514Y148481D01*
X799937Y147903D01*
X799529Y147197D01*
X799317Y146408D01*
Y145592D01*
X799529Y144803D01*
X799937Y144097D01*
X800514Y143519D01*
X801221Y143111D01*
X802009Y142900D01*
X802825D01*
X803614Y143111D01*
X804321Y143519D01*
X804898Y144097D01*
X805306Y144803D01*
X805517Y145592D01*
Y146408D01*
X805306Y147197D01*
X804898Y147903D01*
X804321Y148481D01*
X803805Y148778D01*
X803939Y149278D01*
X809872D01*
X810006Y148778D01*
X809490Y148481D01*
X808913Y147903D01*
X808505Y147197D01*
X808294Y146408D01*
Y145592D01*
X808505Y144803D01*
X808913Y144097D01*
X809490Y143519D01*
X810197Y143111D01*
X810985Y142900D01*
X811802D01*
X812590Y143111D01*
X813297Y143519D01*
X813874Y144097D01*
X814282Y144803D01*
X814494Y145592D01*
Y146408D01*
X814282Y147197D01*
X813874Y147903D01*
X813297Y148481D01*
X812781Y148778D01*
X812915Y149278D01*
X818849D01*
X818982Y148778D01*
X818467Y148481D01*
X817889Y147903D01*
X817481Y147197D01*
X817270Y146408D01*
Y145592D01*
X817481Y144803D01*
X817889Y144097D01*
X818467Y143519D01*
X819174Y143111D01*
X819962Y142900D01*
X820778D01*
X821567Y143111D01*
X822274Y143519D01*
X822851Y144097D01*
X823259Y144803D01*
X823470Y145592D01*
Y146408D01*
X823259Y147197D01*
X822851Y147903D01*
X822274Y148481D01*
X821758Y148778D01*
X821892Y149278D01*
X827825D01*
X827959Y148778D01*
X827443Y148481D01*
X826866Y147903D01*
X826458Y147197D01*
X826246Y146408D01*
Y145592D01*
X826458Y144803D01*
X826866Y144097D01*
X827443Y143519D01*
X828150Y143111D01*
X828938Y142900D01*
X829755D01*
X830543Y143111D01*
X831250Y143519D01*
X831827Y144097D01*
X832235Y144803D01*
X832446Y145592D01*
Y146408D01*
X832235Y147197D01*
X831827Y147903D01*
X831250Y148481D01*
X830734Y148778D01*
X830868Y149278D01*
X836801D01*
X836935Y148778D01*
X836419Y148481D01*
X835842Y147903D01*
X835434Y147197D01*
X835223Y146408D01*
Y145592D01*
X835434Y144803D01*
X835842Y144097D01*
X836419Y143519D01*
X837126Y143111D01*
X837915Y142900D01*
X838731D01*
X839519Y143111D01*
X840226Y143519D01*
X840803Y144097D01*
X841212Y144803D01*
X841423Y145592D01*
Y146408D01*
X841212Y147197D01*
X840803Y147903D01*
X840226Y148481D01*
X839710Y148778D01*
X839844Y149278D01*
X849400D01*
X849400Y149278D01*
X849829Y149364D01*
X850193Y149607D01*
X880592Y180006D01*
X880893Y180207D01*
X912793Y212107D01*
X912793Y212107D01*
X913036Y212471D01*
X913122Y212900D01*
Y225749D01*
X913583Y225872D01*
X914517Y226412D01*
X915281Y227175D01*
X915821Y228110D01*
X916100Y229153D01*
Y230233D01*
X915821Y231276D01*
X915281Y232210D01*
X914517Y232974D01*
X913583Y233513D01*
X912540Y233793D01*
D02*
G37*
G36*
X727632Y156300D02*
X726368D01*
X725147Y155973D01*
X724053Y155341D01*
X723159Y154447D01*
X722527Y153353D01*
X722200Y152132D01*
Y150868D01*
X722527Y149647D01*
X723159Y148553D01*
X724053Y147659D01*
X725147Y147027D01*
X726368Y146700D01*
X727632D01*
X728853Y147027D01*
X729947Y147659D01*
X730841Y148553D01*
X731473Y149647D01*
X731800Y150868D01*
Y152132D01*
X731473Y153353D01*
X730841Y154447D01*
X729947Y155341D01*
X728853Y155973D01*
X727632Y156300D01*
D02*
G37*
G36*
X663632D02*
X662368D01*
X661147Y155973D01*
X660053Y155341D01*
X659159Y154447D01*
X658527Y153353D01*
X658200Y152132D01*
Y150868D01*
X658527Y149647D01*
X659159Y148553D01*
X660053Y147659D01*
X661147Y147027D01*
X662368Y146700D01*
X663632D01*
X664853Y147027D01*
X665947Y147659D01*
X666841Y148553D01*
X667473Y149647D01*
X667800Y150868D01*
Y152132D01*
X667473Y153353D01*
X666841Y154447D01*
X665947Y155341D01*
X664853Y155973D01*
X663632Y156300D01*
D02*
G37*
G36*
X722441Y143350D02*
X721559D01*
X720707Y143122D01*
X719943Y142681D01*
X719319Y142057D01*
X718878Y141293D01*
X718650Y140441D01*
Y139559D01*
X718878Y138707D01*
X719319Y137943D01*
X719943Y137319D01*
X720707Y136878D01*
X721559Y136650D01*
X722441D01*
X723293Y136878D01*
X724057Y137319D01*
X724681Y137943D01*
X725122Y138707D01*
X725350Y139559D01*
Y140441D01*
X725122Y141293D01*
X724681Y142057D01*
X724057Y142681D01*
X723293Y143122D01*
X722441Y143350D01*
D02*
G37*
G36*
X712441D02*
X711559D01*
X710707Y143122D01*
X709943Y142681D01*
X709319Y142057D01*
X708878Y141293D01*
X708650Y140441D01*
Y139559D01*
X708878Y138707D01*
X709319Y137943D01*
X709943Y137319D01*
X710707Y136878D01*
X711559Y136650D01*
X712441D01*
X713293Y136878D01*
X714057Y137319D01*
X714681Y137943D01*
X715122Y138707D01*
X715350Y139559D01*
Y140441D01*
X715122Y141293D01*
X714681Y142057D01*
X714057Y142681D01*
X713293Y143122D01*
X712441Y143350D01*
D02*
G37*
G36*
X678441D02*
X677559D01*
X676707Y143122D01*
X675943Y142681D01*
X675319Y142057D01*
X674878Y141293D01*
X674650Y140441D01*
Y139559D01*
X674878Y138707D01*
X675319Y137943D01*
X675943Y137319D01*
X676707Y136878D01*
X677559Y136650D01*
X678441D01*
X679293Y136878D01*
X680057Y137319D01*
X680681Y137943D01*
X681122Y138707D01*
X681350Y139559D01*
Y140441D01*
X681122Y141293D01*
X680681Y142057D01*
X680057Y142681D01*
X679293Y143122D01*
X678441Y143350D01*
D02*
G37*
G36*
X668441D02*
X667559D01*
X666707Y143122D01*
X665943Y142681D01*
X665319Y142057D01*
X664878Y141293D01*
X664650Y140441D01*
Y139559D01*
X664878Y138707D01*
X665319Y137943D01*
X665943Y137319D01*
X666707Y136878D01*
X667559Y136650D01*
X668441D01*
X669293Y136878D01*
X670057Y137319D01*
X670681Y137943D01*
X671122Y138707D01*
X671350Y139559D01*
Y140441D01*
X671122Y141293D01*
X670681Y142057D01*
X670057Y142681D01*
X669293Y143122D01*
X668441Y143350D01*
D02*
G37*
G36*
X866822Y156442D02*
X865178D01*
X863555Y156185D01*
X861991Y155677D01*
X860527Y154931D01*
X859197Y153965D01*
X858035Y152803D01*
X857069Y151473D01*
X856322Y150008D01*
X855815Y148445D01*
X855557Y146822D01*
Y145178D01*
X855815Y143555D01*
X856322Y141991D01*
X857069Y140527D01*
X858035Y139197D01*
X859197Y138035D01*
X860527Y137069D01*
X861991Y136322D01*
X863555Y135815D01*
X865178Y135557D01*
X866822D01*
X868445Y135815D01*
X870008Y136322D01*
X871473Y137069D01*
X872803Y138035D01*
X873965Y139197D01*
X874931Y140527D01*
X875677Y141991D01*
X876185Y143555D01*
X876443Y145178D01*
Y146822D01*
X876185Y148445D01*
X875677Y150008D01*
X874931Y151473D01*
X873965Y152803D01*
X872803Y153965D01*
X871473Y154931D01*
X870008Y155677D01*
X868445Y156185D01*
X866822Y156442D01*
D02*
G37*
G36*
X768436D02*
X766792D01*
X765169Y156185D01*
X763606Y155677D01*
X762141Y154931D01*
X760811Y153965D01*
X759649Y152803D01*
X758683Y151473D01*
X757937Y150008D01*
X757429Y148445D01*
X757172Y146822D01*
Y145178D01*
X757429Y143555D01*
X757937Y141991D01*
X758683Y140527D01*
X759649Y139197D01*
X760811Y138035D01*
X762141Y137069D01*
X763606Y136322D01*
X765169Y135815D01*
X766792Y135557D01*
X768436D01*
X770059Y135815D01*
X771623Y136322D01*
X773087Y137069D01*
X774417Y138035D01*
X775579Y139197D01*
X776545Y140527D01*
X777292Y141991D01*
X777800Y143555D01*
X778057Y145178D01*
Y146822D01*
X777800Y148445D01*
X777292Y150008D01*
X776545Y151473D01*
X775579Y152803D01*
X774417Y153965D01*
X773087Y154931D01*
X771623Y155677D01*
X770059Y156185D01*
X768436Y156442D01*
D02*
G37*
G36*
X834243Y139100D02*
X833426D01*
X832638Y138889D01*
X831931Y138481D01*
X831354Y137903D01*
X830946Y137197D01*
X830735Y136408D01*
Y135592D01*
X830946Y134803D01*
X831354Y134097D01*
X831931Y133519D01*
X832638Y133111D01*
X833426Y132900D01*
X834243D01*
X835031Y133111D01*
X835738Y133519D01*
X836315Y134097D01*
X836723Y134803D01*
X836935Y135592D01*
Y136408D01*
X836723Y137197D01*
X836315Y137903D01*
X835738Y138481D01*
X835031Y138889D01*
X834243Y139100D01*
D02*
G37*
G36*
X825266D02*
X824450D01*
X823662Y138889D01*
X822955Y138481D01*
X822378Y137903D01*
X821970Y137197D01*
X821758Y136408D01*
Y135592D01*
X821970Y134803D01*
X822378Y134097D01*
X822955Y133519D01*
X823662Y133111D01*
X824450Y132900D01*
X825266D01*
X826055Y133111D01*
X826762Y133519D01*
X827339Y134097D01*
X827747Y134803D01*
X827958Y135592D01*
Y136408D01*
X827747Y137197D01*
X827339Y137903D01*
X826762Y138481D01*
X826055Y138889D01*
X825266Y139100D01*
D02*
G37*
G36*
X816290D02*
X815474D01*
X814685Y138889D01*
X813978Y138481D01*
X813401Y137903D01*
X812993Y137197D01*
X812782Y136408D01*
Y135592D01*
X812993Y134803D01*
X813401Y134097D01*
X813978Y133519D01*
X814685Y133111D01*
X815474Y132900D01*
X816290D01*
X817078Y133111D01*
X817785Y133519D01*
X818363Y134097D01*
X818771Y134803D01*
X818982Y135592D01*
Y136408D01*
X818771Y137197D01*
X818363Y137903D01*
X817785Y138481D01*
X817078Y138889D01*
X816290Y139100D01*
D02*
G37*
G36*
X807314D02*
X806497D01*
X805709Y138889D01*
X805002Y138481D01*
X804425Y137903D01*
X804017Y137197D01*
X803806Y136408D01*
Y135592D01*
X804017Y134803D01*
X804425Y134097D01*
X805002Y133519D01*
X805709Y133111D01*
X806497Y132900D01*
X807314D01*
X808102Y133111D01*
X808809Y133519D01*
X809386Y134097D01*
X809794Y134803D01*
X810005Y135592D01*
Y136408D01*
X809794Y137197D01*
X809386Y137903D01*
X808809Y138481D01*
X808102Y138889D01*
X807314Y139100D01*
D02*
G37*
G36*
X798337D02*
X797521D01*
X796733Y138889D01*
X796026Y138481D01*
X795448Y137903D01*
X795040Y137197D01*
X794829Y136408D01*
Y135592D01*
X795040Y134803D01*
X795448Y134097D01*
X796026Y133519D01*
X796733Y133111D01*
X797521Y132900D01*
X798337D01*
X799126Y133111D01*
X799832Y133519D01*
X800410Y134097D01*
X800818Y134803D01*
X801029Y135592D01*
Y136408D01*
X800818Y137197D01*
X800410Y137903D01*
X799832Y138481D01*
X799126Y138889D01*
X798337Y139100D01*
D02*
G37*
G36*
X720689Y130500D02*
X719311D01*
X717958Y130231D01*
X716684Y129703D01*
X715538Y128937D01*
X714563Y127962D01*
X713797Y126816D01*
X713269Y125542D01*
X713000Y124189D01*
Y122811D01*
X713269Y121458D01*
X713797Y120184D01*
X714563Y119038D01*
X715538Y118063D01*
X716684Y117297D01*
X717958Y116769D01*
X719311Y116500D01*
X720689D01*
X722042Y116769D01*
X723316Y117297D01*
X724462Y118063D01*
X725437Y119038D01*
X726203Y120184D01*
X726731Y121458D01*
X727000Y122811D01*
Y124189D01*
X726731Y125542D01*
X726203Y126816D01*
X725437Y127962D01*
X724462Y128937D01*
X723316Y129703D01*
X722042Y130231D01*
X720689Y130500D01*
D02*
G37*
G36*
X670689D02*
X669311D01*
X667958Y130231D01*
X666684Y129703D01*
X665538Y128937D01*
X664563Y127962D01*
X663797Y126816D01*
X663269Y125542D01*
X663000Y124189D01*
Y122811D01*
X663269Y121458D01*
X663797Y120184D01*
X664563Y119038D01*
X665538Y118063D01*
X666684Y117297D01*
X667958Y116769D01*
X669311Y116500D01*
X670689D01*
X672042Y116769D01*
X673316Y117297D01*
X674462Y118063D01*
X675437Y119038D01*
X676203Y120184D01*
X676731Y121458D01*
X677000Y122811D01*
Y124189D01*
X676731Y125542D01*
X676203Y126816D01*
X675437Y127962D01*
X674462Y128937D01*
X673316Y129703D01*
X672042Y130231D01*
X670689Y130500D01*
D02*
G37*
G36*
X975228Y139694D02*
X972772D01*
X970347Y139310D01*
X968012Y138552D01*
X965824Y137437D01*
X963837Y135994D01*
X962101Y134257D01*
X960658Y132271D01*
X959543Y130083D01*
X958784Y127747D01*
X958400Y125322D01*
Y122867D01*
X958784Y120441D01*
X959543Y118106D01*
X960658Y115918D01*
X962101Y113932D01*
X963837Y112196D01*
X965824Y110752D01*
X968012Y109637D01*
X970347Y108879D01*
X972772Y108494D01*
X975228D01*
X977653Y108879D01*
X979988Y109637D01*
X982176Y110752D01*
X984163Y112196D01*
X985899Y113932D01*
X987342Y115918D01*
X988457Y118106D01*
X989216Y120441D01*
X989600Y122867D01*
Y125322D01*
X989216Y127747D01*
X988457Y130083D01*
X987342Y132271D01*
X985899Y134257D01*
X984163Y135994D01*
X982176Y137437D01*
X979988Y138552D01*
X977653Y139310D01*
X975228Y139694D01*
D02*
G37*
%LPD*%
D10*
X650000Y356000D02*
X663000D01*
X753008Y390354D02*
X753653Y391000D01*
X727000Y390354D02*
X753008D01*
X871441Y639441D02*
X876000Y644000D01*
X866000Y639441D02*
X871441D01*
X782346Y231000D02*
X792000D01*
X791000Y528000D02*
X805000Y514000D01*
X780000Y539000D02*
X791000Y528000D01*
X784246Y489800D02*
X789235Y484812D01*
Y482765D02*
Y484812D01*
Y482765D02*
X790000Y482000D01*
X852000Y623984D02*
Y639441D01*
Y623984D02*
X858992Y616992D01*
X853000Y175087D02*
Y184000D01*
X833756Y155842D02*
X853000Y175087D01*
X826000Y166118D02*
Y184000D01*
X815882Y156000D02*
X826000Y166118D01*
X798694Y156765D02*
Y182694D01*
X800000Y184000D01*
X797929Y156000D02*
X798694Y156765D01*
X885000Y400000D02*
X901693Y416693D01*
X912000D01*
X890000Y231000D02*
X899921D01*
X912000Y243079D01*
X890000Y597492D02*
X890815Y598307D01*
X890000Y585000D02*
Y597492D01*
X804583Y389299D02*
Y392128D01*
X783297Y412000D02*
X797469Y397828D01*
X798883D02*
X804583Y392128D01*
X775000Y412000D02*
X783297D01*
X797469Y397828D02*
X798883D01*
X806683Y240800D02*
Y259206D01*
X784889Y281000D02*
X806683Y259206D01*
X784000Y281000D02*
X784889D01*
X775500Y272500D02*
X784000Y281000D01*
X775500Y262724D02*
Y272500D01*
X767000Y381224D02*
Y383921D01*
X766000Y384921D02*
X767000Y383921D01*
X754500Y447500D02*
X766000Y436000D01*
Y384921D02*
Y436000D01*
X772000Y407033D02*
X775000Y410033D01*
Y412000D01*
X772000Y381224D02*
Y407033D01*
X723000Y351000D02*
X739347D01*
X751000Y362653D01*
X724653Y369346D02*
X751000D01*
X762000Y361776D02*
Y361972D01*
Y361776D02*
Y361776D01*
X761319Y362653D02*
X762000Y361972D01*
X751000Y362653D02*
X761319D01*
X736346Y485000D02*
X750000Y498654D01*
X750622Y499276D01*
X760000D01*
X714677Y379323D02*
X724653Y369346D01*
X714677Y379323D02*
Y402677D01*
X762000Y361776D02*
X767000D01*
X777681Y378071D02*
X787929D01*
X777000Y378752D02*
X777681Y378071D01*
X787929D02*
X788000Y378000D01*
X761319Y378254D02*
X762000Y378935D01*
Y381224D01*
X777000Y378752D02*
Y381224D01*
X764346Y266575D02*
Y281446D01*
X768200Y230900D02*
X775754D01*
X760346Y391000D02*
Y399646D01*
Y391000D02*
X762000Y389346D01*
X772200Y351600D02*
Y361576D01*
X772400Y351400D02*
X780954D01*
X772200Y351600D02*
X772400Y351400D01*
X780954D02*
X781254Y351700D01*
X772000Y361776D02*
X772200Y361576D01*
X762000Y381224D02*
Y389346D01*
X792000Y345000D02*
Y345000D01*
X789172Y347828D02*
X792000Y345000D01*
X789172Y347828D02*
Y350475D01*
X781254Y351700D02*
X782624Y350330D01*
X787947Y351700D02*
X789172Y350475D01*
X760000Y518724D02*
Y528346D01*
Y516028D02*
Y518724D01*
X765500Y262724D02*
Y265421D01*
Y260323D02*
Y262724D01*
X731500Y582500D02*
X732000Y583000D01*
X745000D01*
X765000Y563000D01*
X730323Y527677D02*
X751331D01*
X752654Y529000D01*
X759346D02*
Y551654D01*
X759000Y552000D02*
X759346Y551654D01*
X760000Y499276D02*
X760000Y499276D01*
X723000Y485000D02*
X736346D01*
X730000Y516000D02*
X739347D01*
X750000Y505346D01*
X718000Y528000D02*
X730000Y516000D01*
X718000Y528000D02*
Y540000D01*
X759346Y529000D02*
X760000Y528346D01*
Y499276D02*
X765000D01*
X770000Y525000D02*
X773000Y528000D01*
X770000Y518724D02*
Y525000D01*
X770075Y489825D02*
X777529D01*
X770038Y489862D02*
X770075Y489825D01*
X770038Y489862D02*
Y499238D01*
X770000Y499276D02*
X770038Y499238D01*
X765000Y516028D02*
Y563000D01*
X775000Y518724D02*
X775276Y519000D01*
X777529Y489825D02*
X777554Y489800D01*
X784000Y490046D02*
X784246Y489800D01*
X775276Y519000D02*
X788000D01*
X908000Y265693D02*
X909370Y264323D01*
X912160D01*
X914483Y262000D01*
X915494D01*
X789593Y259407D02*
X790000Y259000D01*
X781181Y259407D02*
X789593D01*
X780500Y260089D02*
Y262724D01*
Y260089D02*
X781181Y259407D01*
X747000Y186000D02*
Y205000D01*
X722000Y161000D02*
X747000Y186000D01*
X702500Y161000D02*
X722000D01*
X697500Y156000D02*
X702500Y161000D01*
X757000Y272346D02*
X757654Y273000D01*
X804583Y378500D02*
Y389299D01*
X731146Y281000D02*
X732291Y282146D01*
X804783Y515000D02*
Y533299D01*
X773000Y528000D02*
X791000D01*
X799083Y539000D02*
X804783Y533299D01*
X732291Y282146D02*
X748508D01*
X757654Y273000D01*
X730000Y282146D02*
X731146Y281000D01*
X900000Y433000D02*
X904346Y428654D01*
X910000D01*
X899000Y611000D02*
Y615000D01*
Y611000D02*
X901346Y608654D01*
X910000D01*
X777024Y226976D02*
X781900Y222100D01*
Y208100D02*
Y222100D01*
X777800Y204000D02*
X781900Y208100D01*
X714000Y148000D02*
X770000Y204000D01*
X777800D01*
X695500Y148000D02*
X714000D01*
X880100Y181000D02*
X912000Y212900D01*
X880000Y181000D02*
X880100D01*
X912000Y212900D02*
Y229693D01*
X803529Y150400D02*
X849400D01*
X880000Y181000D01*
X797929Y156000D02*
X803529Y150400D01*
X836425Y626375D02*
Y639441D01*
X775754Y230900D02*
X777024Y229630D01*
Y226976D02*
Y229630D01*
X770500Y262724D02*
Y304500D01*
X762500Y312500D02*
X770500Y304500D01*
X757346Y226654D02*
X771000Y213000D01*
X757346Y226654D02*
Y246000D01*
X764819D01*
X852000Y646134D02*
X866000D01*
X836425Y639441D02*
X852000D01*
X836391Y646100D02*
X836425Y646134D01*
X832923Y646100D02*
X836391D01*
X826264Y639441D02*
X832923Y646100D01*
X821425Y639441D02*
X826264D01*
X734177Y269823D02*
X750654Y253346D01*
X717677Y269823D02*
X734177D01*
X750654Y246000D02*
X752024Y247370D01*
X750654Y246000D02*
Y253346D01*
X775500Y231154D02*
X775654Y231000D01*
X687500Y156000D02*
X695500Y148000D01*
X764346Y266575D02*
X765500Y265421D01*
X775500Y231154D02*
Y243276D01*
X764819Y246000D02*
X765500Y245319D01*
Y243276D02*
Y245319D01*
Y243276D02*
X770500D01*
X805000Y242483D02*
X806683Y240800D01*
X741500Y312500D02*
X762500D01*
X731500Y447500D02*
X754500D01*
X764819Y259642D02*
X765500Y260323D01*
D18*
X806684Y240800D02*
D03*
X867117D02*
D03*
X865016Y378500D02*
D03*
X804583D02*
D03*
X865217Y515000D02*
D03*
X804784D02*
D03*
D19*
X777000Y381224D02*
D03*
X772000D02*
D03*
X767000D02*
D03*
X762000D02*
D03*
Y361776D02*
D03*
X767000D02*
D03*
X772000D02*
D03*
X777000D02*
D03*
X775000Y518724D02*
D03*
X770000D02*
D03*
X765000D02*
D03*
X760000D02*
D03*
Y499276D02*
D03*
X765000D02*
D03*
X770000D02*
D03*
X775000D02*
D03*
X780500Y243276D02*
D03*
X775500D02*
D03*
X770500D02*
D03*
X765500D02*
D03*
Y262724D02*
D03*
X770500D02*
D03*
X775500D02*
D03*
X780500D02*
D03*
D20*
X787947Y351700D02*
D03*
X781253D02*
D03*
X760347Y391000D02*
D03*
X753653D02*
D03*
X777554Y489800D02*
D03*
X784246D02*
D03*
X752654Y529000D02*
D03*
X759346D02*
D03*
X757346Y246000D02*
D03*
X750654D02*
D03*
X782346Y231000D02*
D03*
X775654D02*
D03*
X764347Y273000D02*
D03*
X757654D02*
D03*
D21*
X750000Y505346D02*
D03*
Y498654D02*
D03*
X821425Y646134D02*
D03*
Y639441D02*
D03*
X836425Y646134D02*
D03*
Y639441D02*
D03*
X852000D02*
D03*
Y646134D02*
D03*
X866000D02*
D03*
Y639441D02*
D03*
X751000Y362653D02*
D03*
Y369346D02*
D03*
X908000Y265693D02*
D03*
Y259000D02*
D03*
X910000Y435347D02*
D03*
Y428653D02*
D03*
Y608653D02*
D03*
Y615346D02*
D03*
D29*
X922000Y249772D02*
D03*
Y423386D02*
D03*
Y605000D02*
D03*
D30*
X912000Y243079D02*
D03*
X922000Y236386D02*
D03*
X912000Y229693D02*
D03*
X922000Y223000D02*
D03*
Y396614D02*
D03*
X912000Y403307D02*
D03*
X922000Y410000D02*
D03*
X912000Y416693D02*
D03*
X922000Y578228D02*
D03*
X912000Y584921D02*
D03*
X922000Y591614D02*
D03*
X912000Y598307D02*
D03*
X741500Y312500D02*
D03*
X731500Y447500D02*
D03*
X731500Y582500D02*
D03*
D35*
X790000Y700000D02*
D03*
X850000D02*
D03*
D36*
X790000Y680300D02*
D03*
X850000D02*
D03*
D47*
X867500Y312500D02*
D03*
X857500Y447500D02*
D03*
X857500Y582500D02*
D03*
D48*
X650000Y356000D02*
Y392157D01*
Y305157D02*
Y356000D01*
X890000Y426000D02*
X899307Y416693D01*
X890000Y426000D02*
Y443985D01*
X893515Y447500D01*
X944500D01*
X958000Y434000D01*
Y404000D02*
Y434000D01*
Y404000D02*
X962505Y399495D01*
X973000Y399990D01*
X806683Y259206D02*
Y259206D01*
X804583Y389299D02*
Y396906D01*
X804783Y533299D02*
Y533406D01*
X888000Y248000D02*
Y270885D01*
X892921Y243079D02*
X912000D01*
X891515Y274400D02*
X943600D01*
X888000Y270885D02*
X891515Y274400D01*
X888000Y248000D02*
X892921Y243079D01*
X943600Y274400D02*
X956000Y262000D01*
X887300Y621500D02*
X894900Y629100D01*
X887300Y601822D02*
Y621500D01*
X894900Y629100D02*
X945566D01*
X890815Y598307D02*
X912000D01*
X887300Y601822D02*
X890815Y598307D01*
X945566Y629100D02*
X959449Y615217D01*
X968905Y585095D02*
X979000D01*
X741229Y312500D02*
X741500D01*
X660000Y314842D02*
X738887D01*
X741229Y312500D01*
X867500Y295000D02*
Y312500D01*
X834906Y262406D02*
X867500Y295000D01*
X809884Y262406D02*
X834906D01*
X874000Y405889D02*
Y451000D01*
X868217Y381701D02*
Y400106D01*
X865016Y378500D02*
X868217Y381701D01*
X874000Y451000D02*
X901000Y478000D01*
X868217Y400106D02*
X874000Y405889D01*
X901000Y478000D02*
X948000D01*
X733000Y672378D02*
X736881D01*
X865216Y533406D02*
X876000Y544189D01*
Y628000D02*
X906000Y658000D01*
X876000Y544189D02*
Y628000D01*
X956000Y658000D02*
X979000Y635000D01*
Y605000D02*
Y635000D01*
X959449Y594551D02*
Y615217D01*
X979000Y246180D02*
Y283500D01*
X960000Y302500D02*
X979000Y283500D01*
X965505Y226495D02*
X979000D01*
X956000Y236000D02*
X965505Y226495D01*
X979000Y419180D02*
Y447000D01*
X948000Y478000D02*
X979000Y447000D01*
X673843Y545157D02*
X683000Y536000D01*
X660000Y545157D02*
X673843D01*
X683000Y481000D02*
Y536000D01*
X674000Y472000D02*
X683000Y481000D01*
X659000Y472000D02*
X674000D01*
X650000Y463000D02*
X659000Y472000D01*
X650000Y412157D02*
Y463000D01*
Y412157D02*
X660000Y402157D01*
X667500Y582500D02*
X731500D01*
X660000Y575000D02*
X667500Y582500D01*
X660000Y564843D02*
Y575000D01*
Y435000D02*
X672500Y447500D01*
X731500D01*
X660000Y421843D02*
Y435000D01*
X650000Y392157D02*
X660000Y402157D01*
X650000Y305157D02*
X660000Y295157D01*
X806683Y259206D02*
X809884Y262406D01*
X804583Y396906D02*
X807784Y400106D01*
X835106D01*
X857500Y422500D01*
Y447500D01*
X804783Y533406D02*
X807984Y536606D01*
X831606D01*
X857500Y562500D01*
Y582500D01*
X869406Y243090D02*
Y274406D01*
X867116Y240800D02*
X869406Y243090D01*
Y274406D02*
X897500Y302500D01*
X960000D01*
X865216Y515000D02*
Y533406D01*
X906000Y658000D02*
X956000D01*
X959449Y594551D02*
X968905Y585095D01*
X956000Y236000D02*
Y262000D01*
X899307Y416693D02*
X912000D01*
D49*
X800000Y184000D02*
D03*
X826000D02*
D03*
X853000D02*
D03*
X784000Y281000D02*
D03*
X663000Y356000D02*
D03*
X723000Y485000D02*
D03*
X780000Y539000D02*
D03*
X723000Y351000D02*
D03*
X890000Y585000D02*
D03*
X695000Y690000D02*
D03*
X775000Y412000D02*
D03*
X885000Y400000D02*
D03*
X890000Y231000D02*
D03*
X858000Y618000D02*
D03*
X770000Y214000D02*
D03*
D50*
X730323Y527677D02*
D03*
Y552323D02*
D03*
X705677D02*
D03*
Y527677D02*
D03*
X705354Y282146D02*
D03*
X730000D02*
D03*
Y257500D02*
D03*
X705354D02*
D03*
X702354Y415000D02*
D03*
X727000D02*
D03*
Y390354D02*
D03*
X702354D02*
D03*
D51*
X718000Y540000D02*
D03*
X717677Y269823D02*
D03*
X714677Y402677D02*
D03*
D52*
X939000Y187000D02*
D03*
Y287000D02*
D03*
Y542000D02*
D03*
Y642000D02*
D03*
Y460000D02*
D03*
Y360000D02*
D03*
D53*
X677500Y156000D02*
D03*
X682500Y166000D02*
D03*
X687500Y156000D02*
D03*
X692500Y166000D02*
D03*
X697500Y156000D02*
D03*
X702500Y166000D02*
D03*
X707500Y156000D02*
D03*
X712500Y166000D02*
D03*
X677500Y180500D02*
D03*
X682500Y190500D02*
D03*
X687500Y180500D02*
D03*
X692500Y190500D02*
D03*
X697500Y180500D02*
D03*
X702500Y190500D02*
D03*
X707500Y180500D02*
D03*
X712500Y190500D02*
D03*
X668000Y206000D02*
D03*
X722000D02*
D03*
X678000D02*
D03*
X712000D02*
D03*
X668000Y140000D02*
D03*
X678000D02*
D03*
X712000D02*
D03*
X722000D02*
D03*
D54*
X663000Y151500D02*
D03*
X727000D02*
D03*
D55*
X663000Y184500D02*
D03*
X727000D02*
D03*
D56*
X670000Y123500D02*
D03*
X720000D02*
D03*
D57*
X767614Y146000D02*
D03*
X866000D02*
D03*
D58*
X838323D02*
D03*
X829346D02*
D03*
X820370D02*
D03*
X811394D02*
D03*
X802417D02*
D03*
X797929Y156000D02*
D03*
X806905D02*
D03*
X815882D02*
D03*
X824858D02*
D03*
X797929Y136000D02*
D03*
X806905D02*
D03*
X815882D02*
D03*
X824858D02*
D03*
X833835D02*
D03*
X876000Y644000D02*
D03*
X792000Y231000D02*
D03*
X788000Y378000D02*
D03*
X792000Y345000D02*
D03*
X760346Y399646D02*
D03*
X772400Y351400D02*
D03*
X759000Y552000D02*
D03*
X770075Y489825D02*
D03*
X788000Y519000D02*
D03*
X915494Y262000D02*
D03*
X790000Y482000D02*
D03*
Y259000D02*
D03*
X747000Y205000D02*
D03*
X900000Y433000D02*
D03*
X899000Y615000D02*
D03*
X836425Y626375D02*
D03*
X768200Y230900D02*
D03*
X764346Y281446D02*
D03*
D59*
X833756Y155842D02*
D03*
D60*
X929842Y709000D02*
D03*
D61*
X910157D02*
D03*
X979000Y246180D02*
D03*
Y419180D02*
D03*
Y605000D02*
D03*
X660000Y545157D02*
D03*
Y402157D02*
D03*
Y295158D02*
D03*
D62*
X979000Y226495D02*
D03*
Y399495D02*
D03*
Y585315D02*
D03*
X660000Y564843D02*
D03*
Y421842D02*
D03*
Y314843D02*
D03*
D63*
X974000Y135345D02*
D03*
X985250Y124094D02*
D03*
X974000Y112845D02*
D03*
X962750Y124094D02*
D03*
X964157Y130000D02*
D03*
X968095Y133937D02*
D03*
Y114252D02*
D03*
X983842Y118189D02*
D03*
X979906Y133937D02*
D03*
X964157Y118189D02*
D03*
X979906Y114252D02*
D03*
X983842Y130000D02*
D03*
X660500Y506250D02*
D03*
X671750Y495000D02*
D03*
X660500Y483750D02*
D03*
X649250Y495000D02*
D03*
X650658Y500906D02*
D03*
X654595Y504843D02*
D03*
Y485157D02*
D03*
X670342Y489094D02*
D03*
X666405Y504843D02*
D03*
X650658Y489094D02*
D03*
X666405Y485157D02*
D03*
X670342Y500906D02*
D03*
X665000Y261250D02*
D03*
X676250Y250000D02*
D03*
X665000Y238750D02*
D03*
X653750Y250000D02*
D03*
X655158Y255906D02*
D03*
X659094Y259842D02*
D03*
Y240158D02*
D03*
X674843Y244094D02*
D03*
X670905Y259842D02*
D03*
X655158Y244094D02*
D03*
X670905Y240158D02*
D03*
X674843Y255906D02*
D03*
X665000Y717250D02*
D03*
X676250Y706000D02*
D03*
X665000Y694750D02*
D03*
X653750Y706000D02*
D03*
X655158Y711905D02*
D03*
X659094Y715842D02*
D03*
Y696158D02*
D03*
X674843Y700095D02*
D03*
X670905Y715842D02*
D03*
X655158Y700095D02*
D03*
X670905Y696158D02*
D03*
X674843Y711905D02*
D03*
X974000Y717250D02*
D03*
X985250Y706000D02*
D03*
X974000Y694750D02*
D03*
X962750Y706000D02*
D03*
X964157Y711905D02*
D03*
X968095Y715842D02*
D03*
Y696158D02*
D03*
X983842Y700095D02*
D03*
X979906Y715842D02*
D03*
X964157Y700095D02*
D03*
X979906Y696158D02*
D03*
X983842Y711905D02*
D03*
D64*
X974000Y124094D02*
D03*
X660500Y495000D02*
D03*
X665000Y250000D02*
D03*
Y706000D02*
D03*
X974000D02*
D03*
D65*
X733000Y672378D02*
D03*
D66*
Y696000D02*
D03*
M02*
