G04*
G04 #@! TF.GenerationSoftware,Altium Limited,Altium Designer,21.1.1 (26)*
G04*
G04 Layer_Color=8421504*
%FSLAX25Y25*%
%MOIN*%
G70*
G04*
G04 #@! TF.SameCoordinates,6EF8526F-0482-4719-AD29-3D8887788FD4*
G04*
G04*
G04 #@! TF.FilePolarity,Positive*
G04*
G01*
G75*
%ADD27R,0.03740X0.03740*%
%ADD28R,0.03740X0.03740*%
%ADD29O,0.06299X0.01575*%
%ADD30R,0.01181X0.03150*%
%ADD31R,0.06299X0.02717*%
%ADD32R,0.05906X0.03937*%
%ADD33O,0.01575X0.06299*%
%ADD34O,0.04134X0.01575*%
%ADD35R,0.03150X0.01575*%
%ADD36R,0.02000X0.08000*%
%ADD37R,0.08000X0.02000*%
%ADD38R,0.06693X0.04528*%
%ADD39O,0.02362X0.05709*%
%ADD40R,0.03937X0.02362*%
%ADD41R,0.21260X0.11417*%
%ADD42R,0.10630X0.10630*%
%ADD43C,0.03937*%
%ADD44R,0.11811X0.03937*%
%ADD45R,0.07500X0.13500*%
D27*
X637653Y433000D02*
D03*
X644347D02*
D03*
X637653Y457000D02*
D03*
X644347D02*
D03*
X643653Y475500D02*
D03*
X650347D02*
D03*
X635653Y383500D02*
D03*
X642346D02*
D03*
X538441Y591430D02*
D03*
X531748D02*
D03*
X489681Y591500D02*
D03*
X482988D02*
D03*
X215154Y319500D02*
D03*
X221847D02*
D03*
X246905Y655047D02*
D03*
X240212D02*
D03*
X246905Y631047D02*
D03*
X240212D02*
D03*
X221847Y326000D02*
D03*
X215154D02*
D03*
X221847Y332724D02*
D03*
X215154D02*
D03*
X206846D02*
D03*
X200153D02*
D03*
X387709Y553943D02*
D03*
X394402D02*
D03*
X387709Y540750D02*
D03*
X394402D02*
D03*
X439518Y552760D02*
D03*
X446211D02*
D03*
X371709Y553943D02*
D03*
X378402D02*
D03*
X371709Y540750D02*
D03*
X378402D02*
D03*
X446109Y544992D02*
D03*
X439416D02*
D03*
X461048Y293654D02*
D03*
X467741D02*
D03*
X363523Y294753D02*
D03*
X370216D02*
D03*
X627827Y286680D02*
D03*
X634520D02*
D03*
D28*
X671630Y588522D02*
D03*
Y595215D02*
D03*
X637146Y588654D02*
D03*
Y595346D02*
D03*
X601193Y590604D02*
D03*
Y597297D02*
D03*
X568130Y588154D02*
D03*
Y594846D02*
D03*
X197346Y353071D02*
D03*
Y346378D02*
D03*
X204000Y353071D02*
D03*
Y346378D02*
D03*
X342500Y568153D02*
D03*
Y574847D02*
D03*
X435102Y562169D02*
D03*
Y568862D02*
D03*
X321790Y252701D02*
D03*
Y259394D02*
D03*
X495065Y268551D02*
D03*
Y261858D02*
D03*
X443789Y268551D02*
D03*
Y261858D02*
D03*
X393089Y269035D02*
D03*
Y262342D02*
D03*
X341191Y269035D02*
D03*
Y262342D02*
D03*
X300029Y237653D02*
D03*
Y244346D02*
D03*
X250029Y237937D02*
D03*
Y244630D02*
D03*
X199530Y237937D02*
D03*
Y244630D02*
D03*
X149877Y237937D02*
D03*
Y244630D02*
D03*
X300029Y230063D02*
D03*
Y223370D02*
D03*
X250029Y230063D02*
D03*
Y223370D02*
D03*
X199530Y230063D02*
D03*
Y223370D02*
D03*
X149877Y230063D02*
D03*
Y223370D02*
D03*
X637965Y332846D02*
D03*
Y326153D02*
D03*
X638998Y239872D02*
D03*
Y233179D02*
D03*
Y275068D02*
D03*
Y268376D02*
D03*
X329789Y252701D02*
D03*
Y259394D02*
D03*
D29*
X671630Y565543D02*
D03*
Y568102D02*
D03*
Y570661D02*
D03*
Y573220D02*
D03*
Y575779D02*
D03*
Y578339D02*
D03*
Y580898D02*
D03*
Y583457D02*
D03*
X650370Y565543D02*
D03*
Y568102D02*
D03*
Y570661D02*
D03*
Y573220D02*
D03*
Y575779D02*
D03*
Y578339D02*
D03*
Y580898D02*
D03*
Y583457D02*
D03*
X533630Y565543D02*
D03*
Y568102D02*
D03*
Y570661D02*
D03*
Y573220D02*
D03*
Y575779D02*
D03*
Y578339D02*
D03*
Y580898D02*
D03*
Y583457D02*
D03*
X512370Y565543D02*
D03*
Y568102D02*
D03*
Y570661D02*
D03*
Y573220D02*
D03*
Y575779D02*
D03*
Y578339D02*
D03*
Y580898D02*
D03*
Y583457D02*
D03*
X477870D02*
D03*
Y580898D02*
D03*
Y578339D02*
D03*
Y575779D02*
D03*
Y573220D02*
D03*
Y570661D02*
D03*
Y568102D02*
D03*
Y565543D02*
D03*
X499130Y583457D02*
D03*
Y580898D02*
D03*
Y578339D02*
D03*
Y575779D02*
D03*
Y573220D02*
D03*
Y570661D02*
D03*
Y568102D02*
D03*
Y565543D02*
D03*
X637130D02*
D03*
Y568102D02*
D03*
Y570661D02*
D03*
Y573220D02*
D03*
Y575779D02*
D03*
Y578339D02*
D03*
Y580898D02*
D03*
Y583457D02*
D03*
X615870Y565543D02*
D03*
Y568102D02*
D03*
Y570661D02*
D03*
Y573220D02*
D03*
Y575779D02*
D03*
Y578339D02*
D03*
Y580898D02*
D03*
Y583457D02*
D03*
X602630Y565543D02*
D03*
Y568102D02*
D03*
Y570661D02*
D03*
Y573220D02*
D03*
Y575779D02*
D03*
Y578339D02*
D03*
Y580898D02*
D03*
Y583457D02*
D03*
X581370Y565543D02*
D03*
Y568102D02*
D03*
Y570661D02*
D03*
Y573220D02*
D03*
Y575779D02*
D03*
Y578339D02*
D03*
Y580898D02*
D03*
Y583457D02*
D03*
X546870D02*
D03*
Y580898D02*
D03*
Y578339D02*
D03*
Y575779D02*
D03*
Y573220D02*
D03*
Y570661D02*
D03*
Y568102D02*
D03*
Y565543D02*
D03*
X568130Y583457D02*
D03*
Y580898D02*
D03*
Y578339D02*
D03*
Y575779D02*
D03*
Y573220D02*
D03*
Y570661D02*
D03*
Y568102D02*
D03*
Y565543D02*
D03*
D30*
X246511Y647362D02*
D03*
X244542D02*
D03*
X242574D02*
D03*
X240605D02*
D03*
X246511Y639921D02*
D03*
X244542D02*
D03*
X242574D02*
D03*
X240605D02*
D03*
D31*
X243558Y643642D02*
D03*
D32*
X524758Y268551D02*
D03*
X504285D02*
D03*
X524758Y275047D02*
D03*
X504285Y262055D02*
D03*
X524758D02*
D03*
X504285Y275047D02*
D03*
X473577Y268551D02*
D03*
X453104D02*
D03*
X473577Y275047D02*
D03*
X453104Y262055D02*
D03*
X473577D02*
D03*
X453104Y275047D02*
D03*
X422396Y268551D02*
D03*
X401923D02*
D03*
X422396Y275047D02*
D03*
X401923Y262055D02*
D03*
X422396D02*
D03*
X401923Y275047D02*
D03*
X371215Y268551D02*
D03*
X350742D02*
D03*
X371215Y275047D02*
D03*
X350742Y262055D02*
D03*
X371215D02*
D03*
X350742Y275047D02*
D03*
D33*
X263955Y223370D02*
D03*
X266514D02*
D03*
X269073D02*
D03*
X271632D02*
D03*
X274191D02*
D03*
X276750D02*
D03*
X279309D02*
D03*
X281868D02*
D03*
X284427D02*
D03*
X286986D02*
D03*
X289545D02*
D03*
X292104D02*
D03*
X263955Y244630D02*
D03*
X266514D02*
D03*
X269073D02*
D03*
X271632D02*
D03*
X274191D02*
D03*
X276750D02*
D03*
X279309D02*
D03*
X281868D02*
D03*
X284427D02*
D03*
X286986D02*
D03*
X289545D02*
D03*
X292104D02*
D03*
X214193Y223370D02*
D03*
X216752D02*
D03*
X219311D02*
D03*
X221870D02*
D03*
X224429D02*
D03*
X226989D02*
D03*
X229548D02*
D03*
X232107D02*
D03*
X234666D02*
D03*
X237225D02*
D03*
X239784D02*
D03*
X242343D02*
D03*
X214193Y244630D02*
D03*
X216752D02*
D03*
X219311D02*
D03*
X221870D02*
D03*
X224429D02*
D03*
X226989D02*
D03*
X229548D02*
D03*
X232107D02*
D03*
X234666D02*
D03*
X237225D02*
D03*
X239784D02*
D03*
X242343D02*
D03*
X163955Y223370D02*
D03*
X166514D02*
D03*
X169073D02*
D03*
X171632D02*
D03*
X174191D02*
D03*
X176750D02*
D03*
X179309D02*
D03*
X181868D02*
D03*
X184427D02*
D03*
X186986D02*
D03*
X189545D02*
D03*
X192104D02*
D03*
X163955Y244630D02*
D03*
X166514D02*
D03*
X169073D02*
D03*
X171632D02*
D03*
X174191D02*
D03*
X176750D02*
D03*
X179309D02*
D03*
X181868D02*
D03*
X184427D02*
D03*
X186986D02*
D03*
X189545D02*
D03*
X192104D02*
D03*
X113955Y223370D02*
D03*
X116514D02*
D03*
X119073D02*
D03*
X121632D02*
D03*
X124191D02*
D03*
X126750D02*
D03*
X129309D02*
D03*
X131868D02*
D03*
X134427D02*
D03*
X136986D02*
D03*
X139545D02*
D03*
X142104D02*
D03*
X113955Y244630D02*
D03*
X116514D02*
D03*
X119073D02*
D03*
X121632D02*
D03*
X124191D02*
D03*
X126750D02*
D03*
X129309D02*
D03*
X131868D02*
D03*
X134427D02*
D03*
X136986D02*
D03*
X139545D02*
D03*
X142104D02*
D03*
X647041Y219529D02*
D03*
X649600D02*
D03*
X652159D02*
D03*
X654718D02*
D03*
X657277D02*
D03*
X659836D02*
D03*
X662395D02*
D03*
X664954D02*
D03*
X647041Y240789D02*
D03*
X649600D02*
D03*
X652159D02*
D03*
X654718D02*
D03*
X657277D02*
D03*
X659836D02*
D03*
X662395D02*
D03*
X664954D02*
D03*
X668575Y317130D02*
D03*
X666016D02*
D03*
X663457D02*
D03*
X660898D02*
D03*
X658339D02*
D03*
X655780D02*
D03*
X653221D02*
D03*
X650661D02*
D03*
X648102D02*
D03*
X645543D02*
D03*
X642984D02*
D03*
X640425D02*
D03*
X668575Y295870D02*
D03*
X666016D02*
D03*
X663457D02*
D03*
X660898D02*
D03*
X658339D02*
D03*
X655780D02*
D03*
X653221D02*
D03*
X650661D02*
D03*
X648102D02*
D03*
X645543D02*
D03*
X642984D02*
D03*
X640425D02*
D03*
X647041Y253809D02*
D03*
X649600D02*
D03*
X652159D02*
D03*
X654718D02*
D03*
X657277D02*
D03*
X659836D02*
D03*
X662395D02*
D03*
X664954D02*
D03*
X647041Y275068D02*
D03*
X649600D02*
D03*
X652159D02*
D03*
X654718D02*
D03*
X657277D02*
D03*
X659836D02*
D03*
X662395D02*
D03*
X664954D02*
D03*
D34*
X212539Y363878D02*
D03*
Y361319D02*
D03*
Y358760D02*
D03*
Y356201D02*
D03*
X222972Y363878D02*
D03*
Y361319D02*
D03*
Y358760D02*
D03*
Y356201D02*
D03*
D35*
X330104Y269232D02*
D03*
Y271791D02*
D03*
Y274350D02*
D03*
X321640D02*
D03*
Y271791D02*
D03*
Y269232D02*
D03*
D36*
X502039Y341323D02*
D03*
X505189D02*
D03*
X502039Y324000D02*
D03*
X505189D02*
D03*
X492591Y341323D02*
D03*
X495740D02*
D03*
X492590Y324000D02*
D03*
X495740D02*
D03*
X486292Y341323D02*
D03*
X489441D02*
D03*
X486291Y324000D02*
D03*
X489441D02*
D03*
X476843Y341323D02*
D03*
X479992D02*
D03*
X476842Y324000D02*
D03*
X479992D02*
D03*
X470543Y341323D02*
D03*
X470543Y324000D02*
D03*
X461095Y341323D02*
D03*
X464244D02*
D03*
X461094Y324000D02*
D03*
X464244D02*
D03*
X454795Y341323D02*
D03*
X454795Y324000D02*
D03*
X445347Y341323D02*
D03*
X448496D02*
D03*
X445346Y324000D02*
D03*
X448496D02*
D03*
X439047Y341323D02*
D03*
X439047Y324000D02*
D03*
X429599Y341323D02*
D03*
X432748D02*
D03*
X429598Y324000D02*
D03*
X432748D02*
D03*
X423299Y341323D02*
D03*
X423299Y324000D02*
D03*
X413850Y341323D02*
D03*
X417000D02*
D03*
X413850Y324000D02*
D03*
X417000D02*
D03*
X407551Y341323D02*
D03*
X407551Y324000D02*
D03*
X398102Y341323D02*
D03*
X401252D02*
D03*
X398102Y324000D02*
D03*
X401252D02*
D03*
X388654Y341323D02*
D03*
X391803D02*
D03*
X388654Y324000D02*
D03*
X391803D02*
D03*
X382354Y341323D02*
D03*
X385504D02*
D03*
X382354Y324000D02*
D03*
X385504D02*
D03*
X372906Y341323D02*
D03*
X376055D02*
D03*
X372906Y324000D02*
D03*
X376055D02*
D03*
X366606Y341323D02*
D03*
X366606Y324000D02*
D03*
X357158Y341323D02*
D03*
X360307D02*
D03*
X357158Y324000D02*
D03*
X360307D02*
D03*
X508339Y341323D02*
D03*
X508338Y324000D02*
D03*
X473693Y341323D02*
D03*
X483142D02*
D03*
X498890D02*
D03*
X473693Y324000D02*
D03*
X483142D02*
D03*
X498890D02*
D03*
X442197Y341323D02*
D03*
X451646D02*
D03*
X457945D02*
D03*
X467394D02*
D03*
X442197Y324000D02*
D03*
X451646D02*
D03*
X457945D02*
D03*
X467394D02*
D03*
X410701Y341323D02*
D03*
X420150D02*
D03*
X426449D02*
D03*
X435898D02*
D03*
X410701Y324000D02*
D03*
X420150D02*
D03*
X426449D02*
D03*
X435898D02*
D03*
X379205Y341323D02*
D03*
X394953D02*
D03*
X404402D02*
D03*
X379205Y324000D02*
D03*
X394953D02*
D03*
X404402D02*
D03*
X354008Y341323D02*
D03*
X363457D02*
D03*
X369756D02*
D03*
X354008Y324000D02*
D03*
X363457D02*
D03*
X369756D02*
D03*
Y499000D02*
D03*
X363457D02*
D03*
X354008D02*
D03*
X369756Y516323D02*
D03*
X363457D02*
D03*
X354008D02*
D03*
X404402Y499000D02*
D03*
X394953D02*
D03*
X379205D02*
D03*
X404402Y516323D02*
D03*
X394953D02*
D03*
X379205D02*
D03*
X435898Y499000D02*
D03*
X426449D02*
D03*
X420150D02*
D03*
X410701D02*
D03*
X435898Y516323D02*
D03*
X426449D02*
D03*
X420150D02*
D03*
X410701D02*
D03*
X467394Y499000D02*
D03*
X457945D02*
D03*
X451646D02*
D03*
X442197D02*
D03*
X467394Y516323D02*
D03*
X457945D02*
D03*
X451646D02*
D03*
X442197D02*
D03*
X498890Y499000D02*
D03*
X483142D02*
D03*
X473693D02*
D03*
X498890Y516323D02*
D03*
X483142D02*
D03*
X473693D02*
D03*
X508338Y499000D02*
D03*
X508339Y516323D02*
D03*
X360307Y499000D02*
D03*
X357158D02*
D03*
X360307Y516323D02*
D03*
X357158D02*
D03*
X366606Y499000D02*
D03*
X366606Y516323D02*
D03*
X376055Y499000D02*
D03*
X372906D02*
D03*
X376055Y516323D02*
D03*
X372906D02*
D03*
X385504Y499000D02*
D03*
X382354D02*
D03*
X385504Y516323D02*
D03*
X382354D02*
D03*
X391803Y499000D02*
D03*
X388654D02*
D03*
X391803Y516323D02*
D03*
X388654D02*
D03*
X401252Y499000D02*
D03*
X398102D02*
D03*
X401252Y516323D02*
D03*
X398102D02*
D03*
X407551Y499000D02*
D03*
X407551Y516323D02*
D03*
X417000Y499000D02*
D03*
X413850D02*
D03*
X417000Y516323D02*
D03*
X413850D02*
D03*
X423299Y499000D02*
D03*
X423299Y516323D02*
D03*
X432748Y499000D02*
D03*
X429598D02*
D03*
X432748Y516323D02*
D03*
X429599D02*
D03*
X439047Y499000D02*
D03*
X439047Y516323D02*
D03*
X448496Y499000D02*
D03*
X445346D02*
D03*
X448496Y516323D02*
D03*
X445347D02*
D03*
X454795Y499000D02*
D03*
X454795Y516323D02*
D03*
X464244Y499000D02*
D03*
X461094D02*
D03*
X464244Y516323D02*
D03*
X461095D02*
D03*
X470543Y499000D02*
D03*
X470543Y516323D02*
D03*
X479992Y499000D02*
D03*
X476842D02*
D03*
X479992Y516323D02*
D03*
X476843D02*
D03*
X489441Y499000D02*
D03*
X486291D02*
D03*
X489441Y516323D02*
D03*
X486292D02*
D03*
X495740Y499000D02*
D03*
X492590D02*
D03*
X495740Y516323D02*
D03*
X492591D02*
D03*
X505189Y499000D02*
D03*
X502039D02*
D03*
X505189Y516323D02*
D03*
X502039D02*
D03*
D37*
X263512Y490978D02*
D03*
Y494127D02*
D03*
X280835Y490977D02*
D03*
Y494127D02*
D03*
X263512Y481529D02*
D03*
Y484678D02*
D03*
X280835Y481529D02*
D03*
Y484678D02*
D03*
X263512Y475230D02*
D03*
Y478379D02*
D03*
X280835Y475229D02*
D03*
Y478379D02*
D03*
X263512Y465781D02*
D03*
Y468930D02*
D03*
X280835Y465780D02*
D03*
Y468930D02*
D03*
X263512Y459481D02*
D03*
X280835Y459481D02*
D03*
X263512Y450033D02*
D03*
Y453182D02*
D03*
X280835Y450033D02*
D03*
Y453182D02*
D03*
X263512Y443734D02*
D03*
X280835Y443733D02*
D03*
X263512Y434285D02*
D03*
Y437434D02*
D03*
X280835Y434284D02*
D03*
Y437434D02*
D03*
X263512Y427985D02*
D03*
X280835Y427985D02*
D03*
X263512Y418537D02*
D03*
Y421686D02*
D03*
X280835Y418537D02*
D03*
Y421686D02*
D03*
X263512Y412237D02*
D03*
X280835Y412237D02*
D03*
X263512Y402789D02*
D03*
Y405938D02*
D03*
X280835Y402788D02*
D03*
Y405938D02*
D03*
X263512Y396489D02*
D03*
X280835Y396489D02*
D03*
X263512Y387041D02*
D03*
Y390190D02*
D03*
X280835Y387040D02*
D03*
Y390190D02*
D03*
X263512Y377592D02*
D03*
Y380741D02*
D03*
X280835Y377592D02*
D03*
Y380741D02*
D03*
X263512Y371292D02*
D03*
Y374442D02*
D03*
X280835Y371292D02*
D03*
Y374442D02*
D03*
X263512Y361844D02*
D03*
Y364993D02*
D03*
X280835Y361844D02*
D03*
Y364993D02*
D03*
X263512Y355544D02*
D03*
X280835Y355544D02*
D03*
X263512Y346096D02*
D03*
Y349245D02*
D03*
X280835Y346096D02*
D03*
Y349245D02*
D03*
X263512Y497277D02*
D03*
X280835Y497276D02*
D03*
X263512Y462631D02*
D03*
Y472080D02*
D03*
Y487828D02*
D03*
X280835Y462631D02*
D03*
Y472080D02*
D03*
Y487828D02*
D03*
X263512Y431135D02*
D03*
Y440584D02*
D03*
Y446883D02*
D03*
Y456332D02*
D03*
X280835Y431135D02*
D03*
Y440584D02*
D03*
Y446883D02*
D03*
Y456332D02*
D03*
X263512Y399639D02*
D03*
Y409088D02*
D03*
Y415387D02*
D03*
Y424836D02*
D03*
X280835Y399639D02*
D03*
Y409088D02*
D03*
Y415387D02*
D03*
Y424836D02*
D03*
X263512Y368143D02*
D03*
Y383891D02*
D03*
Y393340D02*
D03*
X280835Y368143D02*
D03*
Y383891D02*
D03*
Y393340D02*
D03*
X263512Y342946D02*
D03*
Y352395D02*
D03*
Y358694D02*
D03*
X280835Y342946D02*
D03*
Y352395D02*
D03*
Y358694D02*
D03*
D38*
X588514Y140587D02*
D03*
Y151413D02*
D03*
X599853Y140587D02*
D03*
Y151413D02*
D03*
X747800Y141587D02*
D03*
Y152413D02*
D03*
X760000Y141587D02*
D03*
Y152413D02*
D03*
X428406Y139587D02*
D03*
Y150413D02*
D03*
X441405Y139587D02*
D03*
Y150413D02*
D03*
X588000Y174587D02*
D03*
Y185413D02*
D03*
X600467Y174587D02*
D03*
Y185413D02*
D03*
X268000Y141000D02*
D03*
Y151827D02*
D03*
X279300Y140587D02*
D03*
Y151413D02*
D03*
X428594Y174587D02*
D03*
Y185413D02*
D03*
X441000Y174587D02*
D03*
Y185413D02*
D03*
X109693Y139922D02*
D03*
Y150749D02*
D03*
X122029Y139922D02*
D03*
Y150749D02*
D03*
X268000Y174587D02*
D03*
Y185413D02*
D03*
X280000Y174587D02*
D03*
Y185413D02*
D03*
D39*
X224500Y393453D02*
D03*
X219500D02*
D03*
X214500D02*
D03*
X209500D02*
D03*
X224500Y371996D02*
D03*
X219500D02*
D03*
X214500D02*
D03*
X209500D02*
D03*
D40*
X350776Y575240D02*
D03*
Y567760D02*
D03*
X360225Y571500D02*
D03*
X441566Y569256D02*
D03*
Y561776D02*
D03*
X451015Y565516D02*
D03*
D41*
X151000Y506012D02*
D03*
Y544988D02*
D03*
D42*
X218421Y491000D02*
D03*
X188500D02*
D03*
X218421Y515410D02*
D03*
X188500Y515500D02*
D03*
D43*
X272173Y517611D02*
D03*
X528500Y332661D02*
D03*
X315000Y299217D02*
D03*
X528000Y507661D02*
D03*
X135000Y665000D02*
D03*
X110000Y200000D02*
D03*
X754000Y175000D02*
D03*
D44*
X200331Y414500D02*
D03*
X221000D02*
D03*
D45*
X120252Y480000D02*
D03*
X135748D02*
D03*
X203643Y448133D02*
D03*
X219139D02*
D03*
M02*
