G04*
G04 #@! TF.GenerationSoftware,Altium Limited,Altium Designer,21.1.1 (26)*
G04*
G04 Layer_Physical_Order=6*
G04 Layer_Color=16711680*
%FSLAX25Y25*%
%MOIN*%
G70*
G04*
G04 #@! TF.SameCoordinates,6EF8526F-0482-4719-AD29-3D8887788FD4*
G04*
G04*
G04 #@! TF.FilePolarity,Positive*
G04*
G01*
G75*
%ADD14C,0.01000*%
%ADD16C,0.03000*%
%ADD20C,0.00600*%
%ADD21C,0.02000*%
%ADD27R,0.03740X0.03740*%
%ADD28R,0.03740X0.03740*%
%ADD29O,0.06299X0.01575*%
%ADD33O,0.01575X0.06299*%
%ADD35R,0.03150X0.01575*%
%ADD38R,0.06693X0.04528*%
%ADD39O,0.02362X0.05709*%
%ADD40R,0.03937X0.02362*%
%ADD43C,0.03937*%
%ADD45R,0.07500X0.13500*%
%ADD94C,0.05000*%
%ADD95C,0.06000*%
%ADD98C,0.07500*%
%ADD99C,0.03000*%
%ADD100C,0.30000*%
%ADD101R,0.06000X0.06000*%
%ADD102C,0.06000*%
%ADD103C,0.12795*%
%ADD104C,0.08858*%
%ADD105R,0.06000X0.06000*%
%ADD106C,0.11811*%
%ADD107C,0.05906*%
%ADD108C,0.06400*%
%ADD109R,0.06400X0.06400*%
%ADD110C,0.18000*%
%ADD111R,0.05906X0.05906*%
%ADD112C,0.07000*%
%ADD113R,0.05000X0.05000*%
%ADD114C,0.05000*%
%ADD115C,0.08200*%
%ADD116R,0.09449X0.09449*%
%ADD117C,0.09449*%
%ADD118C,0.06299*%
%ADD119R,0.06299X0.06299*%
%ADD120C,0.07874*%
%ADD121C,0.17000*%
%ADD122C,0.04598*%
%ADD123R,0.06299X0.06299*%
%ADD124C,0.16535*%
%ADD125R,0.07874X0.07874*%
%ADD126C,0.02600*%
%ADD127C,0.04000*%
%ADD128C,0.08000*%
%ADD130C,0.08000*%
%ADD131O,0.02362X0.03937*%
%ADD132R,0.08465X0.03543*%
%ADD133R,0.08465X0.12598*%
%ADD134R,0.06299X0.03937*%
%ADD135R,0.03347X0.02362*%
%ADD136R,0.04528X0.06693*%
%ADD137O,0.02362X0.08661*%
%ADD138O,0.00984X0.03150*%
%ADD139O,0.03150X0.00984*%
%ADD140R,0.25197X0.20866*%
%ADD141R,0.01575X0.03150*%
%ADD142C,0.12500*%
%ADD143R,0.02362X0.03347*%
%ADD144R,0.03347X0.02362*%
%ADD145R,0.11024X0.09055*%
%ADD146R,0.09055X0.11024*%
%ADD147R,0.07500X0.09000*%
%ADD148R,0.06299X0.11811*%
%ADD149R,0.24410X0.22835*%
%ADD150R,0.13500X0.07500*%
%ADD151O,0.05709X0.02362*%
%ADD152R,0.42000X0.35000*%
%ADD153R,0.04200X0.09000*%
G36*
X630969Y291988D02*
X603031D01*
Y305012D01*
X630969D01*
Y291988D01*
D02*
G37*
%LPC*%
G36*
X628482Y302305D02*
X626296D01*
X623413Y298078D01*
Y302305D01*
X626296D01*
X621195D01*
Y294695D01*
X623413D01*
X626275Y298890D01*
Y294695D01*
X625130D01*
X628482D01*
Y302305D01*
D02*
G37*
G36*
X619644D02*
X615616D01*
X615532Y302294D01*
X615428Y302284D01*
X615303Y302274D01*
X615168Y302253D01*
X615022Y302232D01*
X614720Y302159D01*
X614554Y302107D01*
X614397Y302045D01*
X614252Y301972D01*
X614096Y301899D01*
X613960Y301795D01*
X613835Y301691D01*
X613825Y301680D01*
X613804Y301659D01*
X613773Y301628D01*
X613731Y301576D01*
X613690Y301514D01*
X613627Y301441D01*
X613575Y301347D01*
X613513Y301254D01*
X613450Y301129D01*
X613398Y301004D01*
X613336Y300858D01*
X613294Y300712D01*
X613252Y300535D01*
X613221Y300358D01*
X613200Y300171D01*
X613190Y299963D01*
Y299848D01*
X613200Y299775D01*
X613211Y299671D01*
X613232Y299567D01*
X613252Y299442D01*
X613273Y299307D01*
X613356Y299015D01*
X613419Y298870D01*
X613481Y298713D01*
X613565Y298568D01*
X613658Y298422D01*
X613763Y298287D01*
X613887Y298162D01*
X613898Y298151D01*
X613919Y298130D01*
X613960Y298099D01*
X614012Y298058D01*
X614085Y298016D01*
X614179Y297954D01*
X614283Y297901D01*
X614408Y297839D01*
X614554Y297777D01*
X614710Y297725D01*
X614876Y297662D01*
X615064Y297620D01*
X615272Y297579D01*
X615501Y297548D01*
X615740Y297527D01*
X616001Y297516D01*
X617281D01*
Y294695D01*
X613190D01*
X619644D01*
Y302305D01*
D02*
G37*
G36*
X611972D02*
X607943D01*
X607860Y302294D01*
X607756Y302284D01*
X607631Y302274D01*
X607496Y302253D01*
X607350Y302232D01*
X607048Y302159D01*
X606882Y302107D01*
X606725Y302045D01*
X606580Y301972D01*
X606423Y301899D01*
X606288Y301795D01*
X606163Y301691D01*
X606153Y301680D01*
X606132Y301659D01*
X606101Y301628D01*
X606059Y301576D01*
X606017Y301514D01*
X605955Y301441D01*
X605903Y301347D01*
X605840Y301254D01*
X605778Y301129D01*
X605726Y301004D01*
X605663Y300858D01*
X605622Y300712D01*
X605580Y300535D01*
X605549Y300358D01*
X605528Y300171D01*
X605518Y299963D01*
Y299848D01*
X605528Y299775D01*
X605539Y299671D01*
X605559Y299567D01*
X605580Y299442D01*
X605601Y299307D01*
X605684Y299015D01*
X605747Y298870D01*
X605809Y298713D01*
X605893Y298568D01*
X605986Y298422D01*
X606090Y298287D01*
X606215Y298162D01*
X606226Y298151D01*
X606247Y298130D01*
X606288Y298099D01*
X606340Y298058D01*
X606413Y298016D01*
X606507Y297954D01*
X606611Y297901D01*
X606736Y297839D01*
X606882Y297777D01*
X607038Y297725D01*
X607204Y297662D01*
X607392Y297620D01*
X607600Y297579D01*
X607829Y297548D01*
X608068Y297527D01*
X608328Y297516D01*
X609609D01*
Y294695D01*
X605518D01*
X611972D01*
Y302305D01*
D02*
G37*
%LPD*%
G36*
X617281Y299057D02*
X616594D01*
X616479Y299067D01*
X616334Y299088D01*
X616178Y299109D01*
X616021Y299151D01*
X615876Y299213D01*
X615761Y299286D01*
X615751Y299296D01*
X615720Y299328D01*
X615667Y299380D01*
X615616Y299452D01*
X615574Y299536D01*
X615522Y299640D01*
X615490Y299754D01*
X615480Y299890D01*
Y299911D01*
Y299952D01*
X615490Y300015D01*
X615511Y300108D01*
X615543Y300202D01*
X615584Y300306D01*
X615636Y300410D01*
X615720Y300504D01*
X615730Y300514D01*
X615772Y300546D01*
X615834Y300587D01*
X615917Y300629D01*
X616042Y300671D01*
X616198Y300712D01*
X616386Y300743D01*
X616615Y300754D01*
X617281D01*
Y299057D01*
D02*
G37*
G36*
X609609D02*
X608922D01*
X608807Y299067D01*
X608662Y299088D01*
X608505Y299109D01*
X608349Y299151D01*
X608204Y299213D01*
X608089Y299286D01*
X608079Y299296D01*
X608047Y299328D01*
X607995Y299380D01*
X607943Y299452D01*
X607902Y299536D01*
X607850Y299640D01*
X607818Y299754D01*
X607808Y299890D01*
Y299911D01*
Y299952D01*
X607818Y300015D01*
X607839Y300108D01*
X607870Y300202D01*
X607912Y300306D01*
X607964Y300410D01*
X608047Y300504D01*
X608058Y300514D01*
X608099Y300546D01*
X608162Y300587D01*
X608245Y300629D01*
X608370Y300671D01*
X608526Y300712D01*
X608714Y300743D01*
X608943Y300754D01*
X609609D01*
Y299057D01*
D02*
G37*
D14*
X282240Y683500D02*
Y688815D01*
Y678185D02*
Y683500D01*
X274760D02*
Y688815D01*
Y678185D02*
Y683500D01*
X282240D01*
X278500Y688815D02*
Y693000D01*
X262000Y676346D02*
X268347D01*
X270185Y678185D01*
X274760D01*
X248238Y689347D02*
X274228D01*
X274760Y688815D01*
X247706Y689879D02*
X248238Y689347D01*
X262000Y654184D02*
X283070Y633114D01*
X262000Y654184D02*
Y669654D01*
X342000Y451500D02*
X353000Y462500D01*
Y474653D01*
X342000Y424000D02*
Y451500D01*
X334037Y416037D02*
X342000Y424000D01*
X326694Y416037D02*
X334037D01*
X360347Y481347D02*
X360500Y481500D01*
X353000Y481347D02*
X360347D01*
X278500Y673500D02*
Y678185D01*
X129000Y189000D02*
Y195153D01*
X129347Y195500D01*
X561110Y573500D02*
X564500D01*
X565500Y574500D02*
Y577032D01*
X564500Y573500D02*
X565500Y574500D01*
Y577032D02*
X566468Y578000D01*
X560831Y573220D02*
X561110Y573500D01*
X567378Y561787D02*
Y561878D01*
X573161Y567661D02*
Y570500D01*
X567378Y561878D02*
X573161Y567661D01*
X337500Y279000D02*
Y289500D01*
X331000Y272500D02*
X337500Y279000D01*
X331000Y268000D02*
Y272500D01*
X325872Y265689D02*
X328689D01*
X331000Y268000D01*
X337500Y289500D02*
X340000Y292000D01*
X149000Y228000D02*
X152768Y231768D01*
Y258800D01*
X325559Y566941D02*
Y610389D01*
Y566941D02*
X360500Y532000D01*
Y486500D02*
Y532000D01*
X283070Y633114D02*
X302834D01*
X325559Y610389D01*
X288846Y405500D02*
Y408847D01*
X290500Y410500D02*
Y413300D01*
X288846Y408847D02*
X290500Y410500D01*
X200500Y305500D02*
Y340000D01*
X196500Y301500D02*
X200500Y305500D01*
X178847Y301500D02*
X196500D01*
X200500Y340000D02*
X219500Y359000D01*
X249500D01*
X172500Y364000D02*
X175500D01*
X171559Y359768D02*
Y363059D01*
X172500Y364000D01*
X149500Y320500D02*
X152768Y317232D01*
Y313559D02*
Y317232D01*
X175000Y325000D02*
X175125Y325125D01*
Y328500D01*
X189000D01*
X173000D02*
X175125D01*
X187000Y313846D02*
Y318500D01*
X183500Y322000D02*
X187000Y318500D01*
X171000Y322000D02*
X183500D01*
X166500D02*
X173000Y328500D01*
X166500Y314500D02*
Y322000D01*
X189000Y328500D02*
X194000Y323500D01*
Y313846D02*
Y323500D01*
X166500Y314500D02*
X167441Y313559D01*
X170768D01*
X169000Y333500D02*
X186000D01*
X156500Y321000D02*
X169000Y333500D01*
X156500Y312000D02*
Y321000D01*
X186000Y333500D02*
X190000Y337500D01*
Y376000D01*
X160846Y301500D02*
X167350D01*
X172153D01*
X167350Y296650D02*
Y301500D01*
X157973Y307855D02*
X158559Y308441D01*
X160216Y302131D02*
Y304784D01*
X157973Y307027D02*
X160216Y304784D01*
X157973Y307027D02*
Y307855D01*
X158559Y308441D02*
X161232D01*
X160216Y302131D02*
X160846Y301500D01*
X161232Y313559D02*
X161291Y313500D01*
X164000D01*
X165500Y312000D01*
Y310000D02*
Y312000D01*
Y310000D02*
X167059Y308441D01*
X170768D01*
X157500Y311000D02*
X161232D01*
X156500Y312000D02*
X157500Y311000D01*
X149500Y301500D02*
X154154D01*
X145500Y305500D02*
X149500Y301500D01*
X145500Y305500D02*
Y311500D01*
X147559Y313559D02*
X152768D01*
X145500Y311500D02*
X147559Y313559D01*
X170768Y311000D02*
X173500D01*
X179232Y313559D02*
X186713D01*
X173500Y311000D02*
X176059Y313559D01*
X179232D01*
X183500Y378500D02*
X184000Y378000D01*
X188000D01*
X190000Y376000D01*
X148500Y308500D02*
X148559Y308441D01*
X152768D01*
X178261Y306000D02*
X178847Y305414D01*
X177000Y306000D02*
X178261D01*
X178847Y301500D02*
Y305414D01*
X175973Y307855D02*
X176559Y308441D01*
X175973Y307027D02*
Y307855D01*
Y307027D02*
X177000Y306000D01*
X176559Y308441D02*
X179232D01*
X187000Y307154D02*
X194000D01*
X183846D02*
X187000D01*
X183000Y308000D02*
Y310000D01*
Y308000D02*
X183846Y307154D01*
X182000Y311000D02*
X183000Y310000D01*
X179232Y311000D02*
X182000D01*
X186713Y313559D02*
X187000Y313846D01*
X178500Y341000D02*
Y344500D01*
X177000Y346000D02*
X178500Y344500D01*
X171346Y346000D02*
X177000D01*
X171000Y386500D02*
X173500Y384000D01*
X152500Y378000D02*
X161000Y386500D01*
X171000D01*
X173500Y378500D02*
Y384000D01*
X135000Y397000D02*
X168500D01*
X182000Y380000D02*
Y383500D01*
X168500Y397000D02*
X182000Y383500D01*
Y380000D02*
X183500Y378500D01*
X132653Y394654D02*
X135000Y397000D01*
X132653Y390750D02*
Y394654D01*
Y383500D02*
Y390750D01*
X171346Y346000D02*
Y353000D01*
X155000Y354000D02*
Y370000D01*
X163500Y378500D01*
X147500Y346500D02*
X155000Y354000D01*
X158500Y367000D02*
X164500Y373000D01*
X158500Y348500D02*
Y367000D01*
Y348500D02*
X161000Y346000D01*
X164654D01*
X165500Y356000D02*
X166441Y356941D01*
Y362414D01*
X165500Y353847D02*
Y356000D01*
X164654Y353000D02*
X165500Y353847D01*
X169000Y359768D02*
Y363000D01*
X166441Y365559D02*
X169000Y363000D01*
X166441Y365559D02*
Y371059D01*
X161000Y363000D02*
X165855D01*
X166441Y362414D01*
X164500Y373000D02*
X166441Y371059D01*
X169000Y368232D02*
Y372500D01*
X152500Y373713D02*
Y378000D01*
X143394Y364606D02*
X152500Y373713D01*
X143394Y361685D02*
Y364606D01*
X142000Y366000D02*
X143394Y364606D01*
X137500Y366000D02*
X142000D01*
X136000Y364500D02*
X137500Y366000D01*
X136000Y361772D02*
Y364500D01*
X135913Y361685D02*
X136000Y361772D01*
X127689Y359221D02*
X130153Y361685D01*
X135913D01*
X127689Y353000D02*
Y359221D01*
Y353000D02*
X128689Y352000D01*
X132567D01*
X117370Y346500D02*
X147500D01*
X116000Y347870D02*
X117370Y346500D01*
X116000Y347870D02*
Y354658D01*
X142808Y368701D02*
X143394Y369287D01*
X135913Y368701D02*
X142808D01*
X143394Y369287D02*
Y372315D01*
X135913D02*
Y376370D01*
Y368701D02*
Y372315D01*
X132653Y379630D02*
Y383500D01*
Y379630D02*
X135913Y376370D01*
X123685Y366657D02*
X133870D01*
X135913Y368701D01*
X116000Y374342D02*
X123685Y366657D01*
X423000Y649500D02*
X433000D01*
X426928Y638000D02*
X432428Y632500D01*
X423000Y638000D02*
X426928D01*
X432428Y632500D02*
X433000D01*
X428134Y595890D02*
X433860D01*
X423623Y623123D02*
X433000Y632500D01*
X423623Y600401D02*
Y623123D01*
X441321Y588429D02*
X508748D01*
X433860Y595890D02*
X441321Y588429D01*
X423623Y600401D02*
X428134Y595890D01*
X464046Y621254D02*
X471646Y613654D01*
X457899Y621254D02*
X464046D01*
X471646Y613654D02*
X491598D01*
X446000Y633153D02*
Y646000D01*
Y633153D02*
X457899Y621254D01*
X494648Y607549D02*
X498020Y604177D01*
X491598Y613654D02*
X494648Y610603D01*
Y607549D02*
Y610603D01*
X433000Y649500D02*
X442500D01*
X446000Y646000D01*
X461346Y612500D02*
Y617000D01*
X435102Y604252D02*
Y613100D01*
X435028Y604177D02*
X435102Y604252D01*
X522000Y554000D02*
Y559500D01*
X532000Y569500D01*
X518000Y550000D02*
X522000Y554000D01*
X469500Y550000D02*
X518000D01*
X458500Y539000D02*
X469500Y550000D01*
X458500Y519000D02*
Y539000D01*
Y519000D02*
X460500Y517000D01*
X472500D01*
X474500Y519000D01*
Y523340D01*
X475830Y524670D01*
X526500Y547500D02*
X532000Y553000D01*
X492500Y547500D02*
X526500D01*
X482000Y537000D02*
X492500Y547500D01*
X532000Y602500D02*
X543000D01*
X547500Y560000D02*
Y598000D01*
X543000Y602500D02*
X547500Y598000D01*
X543000Y555500D02*
X547500Y560000D01*
X543000Y538000D02*
Y555500D01*
X519500Y514500D02*
X543000Y538000D01*
X455500Y514500D02*
X519500D01*
X453000Y517000D02*
X455500Y514500D01*
X453000Y517000D02*
Y522425D01*
X450776Y524650D02*
X453000Y522425D01*
X544500Y560500D02*
Y582000D01*
X540500Y556500D02*
X544500Y560500D01*
X540500Y586000D02*
X544500Y582000D01*
X532000Y586000D02*
X540500D01*
Y544500D02*
Y556500D01*
X520650Y524650D02*
X540500Y544500D01*
X498020Y524650D02*
X520650D01*
X505000Y537437D02*
X508748Y541185D01*
X505000Y534500D02*
Y537437D01*
X479000Y540000D02*
X482000Y537000D01*
X501000Y527630D02*
Y536500D01*
X498020Y524650D02*
X501000Y527630D01*
X463500Y536500D02*
X467000Y540000D01*
X479000D01*
X474000Y526500D02*
X475830Y524670D01*
X482251D01*
X474000Y526500D02*
Y530500D01*
X471000Y533500D02*
X474000Y530500D01*
X482251Y524670D02*
X482272Y524650D01*
X471000Y533500D02*
Y537000D01*
X463500Y527673D02*
X466524Y524650D01*
X463500Y527673D02*
Y536500D01*
X445500Y537000D02*
X450500Y532000D01*
X445500Y537000D02*
Y540000D01*
X450500Y524925D02*
Y532000D01*
Y524925D02*
X450776Y524650D01*
X497000Y561500D02*
Y569000D01*
X500681Y572681D02*
X508748D01*
X497000Y569000D02*
X500681Y572681D01*
X432677Y527000D02*
X435028Y524650D01*
X427500Y527000D02*
X432677D01*
X351847Y561154D02*
Y588000D01*
X358000Y555000D02*
X369000D01*
X351847Y561154D02*
X358000Y555000D01*
X360653Y562153D02*
Y567161D01*
X359500Y561000D02*
X360653Y562153D01*
X357000Y561000D02*
X359500D01*
X375500Y561500D02*
X405000D01*
X369000Y555000D02*
X375500Y561500D01*
X405000D02*
X414000Y570500D01*
X374263Y551000D02*
X380163Y556900D01*
X373600Y552600D02*
X379500Y558500D01*
X407663Y556900D02*
X415163Y564400D01*
X380163Y556900D02*
X407663D01*
X407000Y558500D02*
X414500Y566000D01*
X379500Y558500D02*
X407000D01*
X351847Y588000D02*
Y596000D01*
X340500Y588000D02*
X345153D01*
X341500Y596000D02*
X345153D01*
X334500Y603000D02*
X341500Y596000D01*
X334500Y603000D02*
Y635500D01*
X326740Y639815D02*
X330185D01*
X334500Y635500D01*
X349663Y552600D02*
X373600D01*
X349000Y551000D02*
X374263D01*
X310000Y649000D02*
X322000D01*
X326740Y639815D02*
Y644260D01*
X322000Y649000D02*
X326740Y644260D01*
X306000Y653000D02*
X310000Y649000D01*
X300000Y653000D02*
X306000D01*
X298000Y651000D02*
X300000Y653000D01*
X320783Y645500D02*
X323000Y643284D01*
X316000Y645500D02*
X320783D01*
X323000Y639815D02*
Y643284D01*
X307528Y643472D02*
X315000Y636000D01*
Y631000D02*
Y636000D01*
Y631000D02*
X316815Y629185D01*
X319260D01*
X308190Y645072D02*
X313448Y639815D01*
X319260D01*
X421086Y569468D02*
X424299Y572681D01*
X421086Y566586D02*
Y569468D01*
X331600Y570663D02*
Y632163D01*
X414500Y566000D02*
X420500D01*
X421086Y566586D01*
X319260Y635886D02*
Y639815D01*
X328463Y635300D02*
X331600Y632163D01*
Y570663D02*
X349663Y552600D01*
X319260Y635886D02*
X319846Y635300D01*
X328463D01*
X420500Y564400D02*
X421086Y563814D01*
X415163Y564400D02*
X420500D01*
X421086Y560147D02*
Y563814D01*
X330000Y570000D02*
Y631500D01*
X421086Y560147D02*
X424299Y556933D01*
X319846Y633700D02*
X327800D01*
X319260Y633114D02*
X319846Y633700D01*
X327800D02*
X330000Y631500D01*
Y570000D02*
X349000Y551000D01*
X319260Y629185D02*
Y633114D01*
X306016Y645072D02*
X308190D01*
X302879Y640335D02*
X306016Y643472D01*
X307528D01*
X302879Y648209D02*
X306016Y645072D01*
X323000Y624500D02*
Y629185D01*
X321000Y622500D02*
X323000Y624500D01*
X298000Y645298D02*
Y651000D01*
X293037Y640335D02*
X298000Y645298D01*
X414000Y570500D02*
Y585000D01*
X417429Y588429D01*
X424299D01*
X557392Y557478D02*
X562978D01*
X563000Y557500D01*
X557370Y557457D02*
X557392Y557478D01*
X603500Y504000D02*
X612500Y495000D01*
Y494711D02*
Y495000D01*
X589413Y504000D02*
X603500D01*
X637671Y562685D02*
X644260D01*
X644370Y562575D01*
X637500Y562856D02*
X637671Y562685D01*
X535252Y460335D02*
Y468811D01*
Y460335D02*
X535587Y460000D01*
X529306Y395087D02*
X529852Y394541D01*
X533566D02*
X534586Y393520D01*
X536328D02*
X536437Y393411D01*
X529852Y394541D02*
X533566D01*
X534586Y393520D02*
X536328D01*
X709157Y562602D02*
X714743D01*
X709130Y562575D02*
X709157Y562602D01*
X714743D02*
X714770Y562629D01*
X682397Y562556D02*
X687851D01*
X687870Y562575D01*
X682379Y562537D02*
X682397Y562556D01*
X670798Y562575D02*
X670835Y562537D01*
X665630Y562575D02*
X670798D01*
X615846Y570500D02*
X619466D01*
X621545Y572579D01*
X607232Y561513D02*
X609979D01*
X610032Y561461D01*
X606869Y561875D02*
X607232Y561513D01*
X562334Y562575D02*
X564161D01*
X557370D02*
X562334D01*
Y565834D02*
X562500Y566000D01*
X562334Y562575D02*
Y565834D01*
X578667Y562537D02*
X584463D01*
X578630Y562575D02*
X578667Y562537D01*
X584463D02*
X584500Y562500D01*
X702248Y570098D02*
X702355Y570205D01*
X702248Y565778D02*
Y570098D01*
X695841Y565778D02*
Y569959D01*
X695725Y570076D02*
X695841Y569959D01*
X693924Y557457D02*
X694967Y558500D01*
X687870Y557457D02*
X693924D01*
X694967Y558500D02*
X695400D01*
X703216Y561707D02*
Y562536D01*
Y561707D02*
X704908Y560016D01*
X703216Y562536D02*
X704441Y563761D01*
X704908Y560016D02*
X709130D01*
X709020Y562685D02*
X709130Y562575D01*
X704441Y563761D02*
X705516Y562685D01*
X704441Y564589D02*
X705980Y566129D01*
X705516Y562685D02*
X709020D01*
X704441Y563761D02*
Y564589D01*
X705980Y566129D02*
X707990D01*
X709048Y567186D01*
Y570205D01*
X692691Y560016D02*
X693959Y561283D01*
Y562112D01*
X692800Y563271D02*
X692800D01*
X693959Y562112D01*
X687870Y560016D02*
X692691D01*
X689032Y566580D02*
Y570076D01*
X690069Y565542D02*
X691500D01*
X689032Y566580D02*
X690069Y565542D01*
X692800Y563271D02*
Y564242D01*
X687980Y562685D02*
X692214D01*
X692800Y563271D01*
X691500Y565542D02*
X692800Y564242D01*
X687870Y562575D02*
X687980Y562685D01*
X644370Y557457D02*
X650827D01*
X651870Y558500D02*
X652212D01*
X650827Y557457D02*
X651870Y558500D01*
X656199Y562557D02*
Y565542D01*
Y562557D02*
X658740Y560016D01*
X665630D01*
X660705Y562575D02*
X665630D01*
X658819Y564461D02*
X660705Y562575D01*
X658819Y564461D02*
Y569772D01*
X659547Y570500D01*
X656199Y574008D02*
X658961D01*
X659547Y574594D02*
Y578000D01*
X658961Y574008D02*
X659547Y574594D01*
X656199Y565543D02*
X656199Y565542D01*
X652853Y566129D02*
X653439Y565543D01*
X652853Y566129D02*
Y570500D01*
X653439Y565543D02*
X656199D01*
X647228Y576205D02*
X649023Y578000D01*
X652853D01*
X647228Y573114D02*
Y576205D01*
Y573114D02*
X649213Y571129D01*
Y562575D02*
Y571129D01*
X644370Y560016D02*
X649165D01*
X650000Y560851D01*
Y561787D01*
X644370Y562575D02*
X649213D01*
X650000Y561787D01*
X613075Y588952D02*
X615846Y586180D01*
X612716Y588952D02*
X613075D01*
X615846Y578000D02*
Y586180D01*
X609154Y566580D02*
Y570500D01*
X600870Y557457D02*
X600892Y557479D01*
X607651D02*
X607673Y557501D01*
X600892Y557479D02*
X607651D01*
X614587Y562792D02*
X615846Y564051D01*
X614587Y561964D02*
Y562792D01*
Y561964D02*
X616535Y560016D01*
X622130D01*
X615846Y564051D02*
Y570500D01*
Y564051D02*
X617323Y562575D01*
X622130D01*
X606869Y561046D02*
Y561875D01*
X605504Y563161D02*
X605583D01*
X605839Y560016D02*
X606869Y561046D01*
X605583Y563161D02*
X606869Y561875D01*
X600870Y560016D02*
X605839D01*
X603162Y572404D02*
X605504Y570061D01*
X603162Y576062D02*
X605099Y578000D01*
X603162Y572404D02*
Y576062D01*
X605099Y578000D02*
X609154D01*
X605504Y563161D02*
Y570061D01*
X604918Y562575D02*
X605504Y563161D01*
X600870Y562575D02*
X604918D01*
X573478Y564465D02*
X578630Y569617D01*
X573478Y563637D02*
X574540Y562575D01*
X573478Y563637D02*
Y564465D01*
X578630Y569617D02*
Y576446D01*
X574540Y562575D02*
X578630D01*
X567794Y561787D02*
X569566Y560016D01*
X578630D01*
X567378Y561787D02*
X567794D01*
X573161Y578000D02*
X577076D01*
X578630Y576446D01*
X563576Y560016D02*
X564161Y560602D01*
X557370Y560016D02*
X563576D01*
X564161Y560602D02*
Y562575D01*
X566468Y564882D01*
Y570500D01*
X491709Y402192D02*
X493439Y400461D01*
X510466D01*
X512500Y402495D01*
X491709Y402192D02*
Y405900D01*
X512500Y402495D02*
Y405653D01*
X502227Y402861D02*
Y405900D01*
X679423Y110002D02*
X698800Y129379D01*
X661074Y110002D02*
X679423D01*
X698800Y129379D02*
Y144000D01*
X504256Y108500D02*
X517200D01*
X538800Y130100D02*
Y144000D01*
X517200Y108500D02*
X538800Y130100D01*
X461605Y370442D02*
X462663Y371500D01*
X468500D01*
X546500Y460087D02*
Y469000D01*
X467587Y476087D02*
X476000Y484500D01*
X554000D02*
X557000Y487500D01*
X476000Y484500D02*
X554000D01*
X467587Y460000D02*
Y476087D01*
X557000Y491653D02*
X557346Y492000D01*
X557000Y487500D02*
Y491653D01*
X544347Y407000D02*
X548553D01*
X544341Y414096D02*
X548548D01*
X544347Y421500D02*
X548553D01*
X544347Y428500D02*
X548553D01*
X544347Y435500D02*
X548553D01*
X544347Y443000D02*
X548553D01*
X544347Y450500D02*
X548553D01*
X526500Y464347D02*
Y468553D01*
X520000Y464347D02*
Y468553D01*
X513274Y464404D02*
Y468610D01*
X507000Y464347D02*
Y468553D01*
X500500Y464347D02*
Y468553D01*
X494000Y464347D02*
Y468553D01*
X487500Y464347D02*
Y468553D01*
X465454Y450076D02*
X469661D01*
X465454Y442880D02*
X469661D01*
X465447Y435500D02*
X469654D01*
X465447Y428500D02*
X469654D01*
X465447Y421500D02*
X469654D01*
X465447Y414500D02*
X469654D01*
X465454Y406900D02*
X469661D01*
X536654Y444000D02*
X537653Y443000D01*
X527874Y440874D02*
X531000Y444000D01*
X536654D01*
X537653Y443000D02*
Y450500D01*
X737929Y485000D02*
X744482D01*
X737929Y480000D02*
X744482D01*
X741500Y490000D02*
X742770Y488730D01*
X744270D01*
X744500Y488500D01*
X737929Y490000D02*
X741500D01*
X753433Y488500D02*
X754933Y490000D01*
X759386D01*
X753000Y488500D02*
X753433D01*
X622054Y370882D02*
X624882D01*
X627500Y373500D01*
X621665Y370493D02*
X622054Y370882D01*
X601772Y493500D02*
X613272Y482000D01*
X625500D02*
X627500Y480000D01*
X613272Y482000D02*
X625500D01*
X624839Y477161D02*
X627500Y474500D01*
X621808Y477161D02*
X624839D01*
X589413Y493500D02*
X601772D01*
X563146Y495878D02*
X567378D01*
X567500Y496000D01*
X563024Y495756D02*
X563146Y495878D01*
X655000Y405272D02*
X655250Y405522D01*
Y412750D02*
X655500Y413000D01*
X655250Y405522D02*
Y412750D01*
X655000Y393728D02*
Y399000D01*
X621665Y461643D02*
X621807Y461500D01*
X621731Y444500D02*
X627416D01*
X622115Y455400D02*
X627416D01*
X621665Y444434D02*
X621731Y444500D01*
X621807Y461500D02*
X627416D01*
X621665Y454950D02*
X622115Y455400D01*
X621665Y437742D02*
X621923Y438000D01*
X627416D01*
X737929Y461167D02*
X744488D01*
X737929Y466167D02*
X744482D01*
X497238Y409500D02*
X499961Y412222D01*
X493586Y409500D02*
X497238D01*
X493000Y408914D02*
X493586Y409500D01*
X493000Y407191D02*
Y408914D01*
X491709Y405900D02*
X493000Y407191D01*
X480500Y414500D02*
X483500Y417500D01*
Y419181D02*
X487476Y423158D01*
X483500Y417500D02*
Y419181D01*
X476346Y414500D02*
X480500D01*
X546413Y460000D02*
X546500Y460087D01*
X512500Y405653D02*
X512847Y406000D01*
X511772Y407075D02*
X512847Y406000D01*
X529219D02*
X529306Y405913D01*
X512847Y406000D02*
X529219D01*
X532032Y422779D02*
X533311Y421500D01*
X530754Y424057D02*
X532032Y422779D01*
Y422911D02*
X533895Y424775D01*
Y424775D01*
X532032Y422779D02*
Y422911D01*
X533462Y424775D02*
X533895D01*
X511772Y407075D02*
Y416366D01*
X476354Y406900D02*
X481597D01*
X476354Y450076D02*
X481597D01*
X501034Y424231D02*
X505866Y429063D01*
X497992Y421189D02*
X501034Y424231D01*
X496203Y429063D02*
X501034Y424231D01*
X491201Y429063D02*
X496203D01*
X498925Y437972D02*
X506850Y430047D01*
X497992Y438905D02*
X498925Y437972D01*
X495921Y434969D02*
X498925Y437972D01*
X491201Y434969D02*
X495921D01*
X505866Y435953D02*
X509311Y432508D01*
X497992Y438905D02*
Y443728D01*
X505866Y435953D02*
Y443728D01*
X509311Y432508D02*
X511772Y434969D01*
X506850Y430047D02*
X509311Y432508D01*
X516057Y434969D02*
X522500D01*
X511772D02*
X516057D01*
X515709Y435317D02*
X516057Y434969D01*
X515709Y435317D02*
Y443728D01*
X513937Y425126D02*
X522500D01*
X511772D02*
X513937D01*
X517874Y421189D01*
X509803Y427095D02*
X511772Y425126D01*
X506850Y430047D02*
X509803Y427095D01*
X517874Y421189D02*
X522500D01*
X517874D02*
X518949Y420114D01*
Y419806D02*
X519535Y419220D01*
X522500D01*
X518949Y419806D02*
Y420114D01*
X505866Y429063D02*
X506850Y430047D01*
X497992Y416366D02*
Y421189D01*
X505866Y416366D02*
Y429063D01*
X509803Y416366D02*
Y427095D01*
X502227Y405900D02*
X506053D01*
X498401D02*
X502227D01*
X506053D02*
X506153Y406000D01*
X469654Y406908D02*
X469661Y406900D01*
X469654Y435500D02*
X469661Y435508D01*
X544341Y407006D02*
X544347Y407000D01*
X544341Y421494D02*
X544347Y421500D01*
X476354Y442880D02*
Y450076D01*
X499961Y412222D02*
Y416366D01*
X528022Y429063D02*
X530754Y426332D01*
X522500Y429063D02*
X528022D01*
X530754Y424057D02*
Y426332D01*
X533311Y421500D02*
X537653D01*
X537648Y414096D02*
X537653Y414102D01*
Y421500D01*
X522500Y440874D02*
X527874D01*
X535587Y455666D02*
X537653Y453599D01*
X535587Y455666D02*
Y460000D01*
X537653Y450500D02*
Y453599D01*
X476354Y442880D02*
X485287D01*
X487293Y440874D01*
X491201D01*
X487476Y424775D02*
X487828Y425126D01*
X491201D01*
X487476Y423158D02*
Y424775D01*
X476346Y414500D02*
X476354Y414492D01*
Y406900D02*
Y414492D01*
X487476Y423158D02*
X491201D01*
X566461Y402976D02*
X572121D01*
X566461Y411151D02*
X572121D01*
X566461Y419325D02*
X572121D01*
X566461Y427500D02*
X572121D01*
X566461Y435675D02*
X572121D01*
X566461Y443850D02*
X572121D01*
X566461Y452024D02*
X572121D01*
X572083Y460161D02*
X572121Y460199D01*
X566423Y460161D02*
X572083D01*
X655000Y455970D02*
X657886Y453084D01*
X658209D01*
X655000Y455970D02*
Y460228D01*
Y426728D02*
X655036Y426692D01*
Y421098D02*
X655072Y421061D01*
X655036Y421098D02*
Y426692D01*
X655000Y372272D02*
Y379466D01*
X737929Y442333D02*
X744571D01*
X737929Y418500D02*
X738019Y418411D01*
X744482D01*
X744571Y418321D01*
X744488Y427417D02*
X744571Y427500D01*
X737929Y427333D02*
X738013Y427417D01*
X744488D01*
X655000Y438772D02*
Y445061D01*
X654999Y493229D02*
Y499157D01*
Y493229D02*
X655000Y493228D01*
X654998Y499158D02*
X654999Y499157D01*
X655000Y471772D02*
Y478500D01*
X621790Y377311D02*
X627416D01*
X621665Y377186D02*
X621790Y377311D01*
X622106Y387760D02*
X627237D01*
X621665Y388201D02*
X622106Y387760D01*
X621747Y394811D02*
X627237D01*
X621665Y394894D02*
X621747Y394811D01*
X621712Y403861D02*
X627237D01*
X621774Y410711D02*
X627237D01*
X621665Y410602D02*
X621774Y410711D01*
X621671Y421611D02*
X627237D01*
X621665Y421617D02*
X621671Y421611D01*
X621866Y428511D02*
X627237D01*
X621665Y428310D02*
X621866Y428511D01*
X621801Y470461D02*
X627401D01*
X621665Y470325D02*
X621801Y470461D01*
X621665Y477018D02*
X621808Y477161D01*
X621713Y487986D02*
X627401D01*
X621665Y488033D02*
X621713Y487986D01*
X627401Y494726D02*
X627416Y494711D01*
X621665Y494726D02*
X627401D01*
X737929Y451167D02*
X744571D01*
X737929Y456167D02*
X744482D01*
X737929Y403500D02*
X744482D01*
X738006Y408423D02*
X744405D01*
X737929Y408500D02*
X738006Y408423D01*
X744405D02*
X744482Y408346D01*
X737929Y475000D02*
X744482D01*
X737929Y437333D02*
X744571D01*
X737929Y432333D02*
X744571D01*
X738019Y413589D02*
X744482D01*
X737929Y413500D02*
X738019Y413589D01*
X744482D02*
X744571Y413679D01*
X753000Y418500D02*
X759386D01*
X753000Y485000D02*
X759386D01*
X753000Y480000D02*
X759386D01*
X753000Y475000D02*
X759386D01*
X753000Y466167D02*
X759386D01*
X753000Y461167D02*
X759386D01*
X753000Y456167D02*
X759386D01*
X753000Y451167D02*
X759386D01*
X753000Y442333D02*
X759386D01*
X753000Y437333D02*
X759386D01*
X753000Y432333D02*
X759386D01*
X753000Y427333D02*
X759386D01*
X753000Y413500D02*
X759386D01*
X753000Y408500D02*
X759386D01*
X753000Y403500D02*
X759386D01*
X225264Y168000D02*
X226508Y169244D01*
X227000D01*
X198000Y168000D02*
X225264D01*
X222723Y173723D02*
X223756Y174756D01*
X219523Y173723D02*
X222723D01*
X223756Y174756D02*
X227000D01*
X218800Y173000D02*
X219523Y173723D01*
X582000Y163000D02*
X590000D01*
X596052Y156948D01*
Y143052D02*
Y156948D01*
Y143052D02*
X629103Y110002D01*
X546405Y205595D02*
Y215000D01*
Y205595D02*
X579000Y173000D01*
Y166000D02*
Y173000D01*
Y166000D02*
X582000Y163000D01*
X551405Y206297D02*
X600000Y157702D01*
X551405Y206297D02*
Y215000D01*
X600000Y143000D02*
Y157702D01*
Y143000D02*
X627000Y116000D01*
X655562D01*
X556405Y205595D02*
Y215000D01*
Y205595D02*
X603000Y159000D01*
Y144929D02*
Y159000D01*
Y144929D02*
X626024Y121906D01*
X655562D01*
X281964Y215000D02*
Y221263D01*
X297101Y230101D02*
Y254399D01*
X262500Y225000D02*
X278227D01*
X251964Y251693D02*
X251982Y251711D01*
X286964Y215000D02*
Y219964D01*
X284312Y260978D02*
X286678D01*
X258950Y237038D02*
X258992Y236996D01*
X276548Y243300D02*
X276964Y243716D01*
X261964Y251693D02*
Y258482D01*
X293000Y258500D02*
X297101Y254399D01*
X286964Y219964D02*
X297101Y230101D01*
X286964Y251693D02*
Y260692D01*
X286678Y260978D02*
X286964Y260692D01*
X256964Y245286D02*
X258950Y243300D01*
X267182D02*
X276548D01*
X256964Y245286D02*
Y251693D01*
X258992Y236996D02*
X259000Y236988D01*
X276964Y243716D02*
Y251693D01*
X258950Y237038D02*
Y243300D01*
X266964Y243518D02*
X267182Y243300D01*
X281964Y251693D02*
Y258630D01*
X271964Y251693D02*
Y259591D01*
X258950Y243300D02*
X267182D01*
X281964Y258630D02*
X284312Y260978D01*
X259000Y228500D02*
Y236988D01*
X251982Y258482D02*
X252000Y258500D01*
X259000Y228500D02*
X262500Y225000D01*
X251982Y251711D02*
Y258482D01*
X278227Y225000D02*
X281964Y221263D01*
X266964Y243518D02*
Y251693D01*
X270192Y261362D02*
X271964Y259591D01*
X139654Y357500D02*
Y361685D01*
Y352394D02*
Y357500D01*
X132500D02*
X139654D01*
X139260Y352000D02*
X139654Y352394D01*
X232653Y349346D02*
X235359Y346641D01*
X228000Y349346D02*
X232653D01*
X235359Y344142D02*
Y346641D01*
X228000Y337000D02*
Y342653D01*
X296252Y340888D02*
X297040Y340100D01*
X296136Y341004D02*
X296252Y340888D01*
X297040Y340100D02*
X304352D01*
X309600D02*
X312316D01*
X312029Y340388D02*
X312316Y340100D01*
X312816D01*
X312029Y340388D02*
Y351111D01*
X307041Y337541D02*
X309600Y340100D01*
X304352Y337541D02*
X307041D01*
X310541D02*
X312816D01*
X292251Y315000D02*
X304352Y327101D01*
Y334982D01*
X319500Y354847D02*
Y359000D01*
X308500Y328000D02*
X311500D01*
X312816Y329316D02*
Y334982D01*
X311500Y328000D02*
X312816Y329316D01*
Y334982D02*
X315982D01*
X319500Y338500D01*
Y348153D01*
X173000Y159300D02*
Y169244D01*
Y159300D02*
X178300Y154000D01*
X170500Y180719D02*
Y205000D01*
X173000Y174756D02*
Y178218D01*
X170500Y180719D02*
X173000Y178218D01*
X196500Y169500D02*
X198000Y168000D01*
X196500Y169500D02*
Y175000D01*
X193500Y178000D02*
X196500Y175000D01*
X176500Y178000D02*
X193500D01*
X172500Y182000D02*
X176500Y178000D01*
X172500Y201700D02*
X180000Y209200D01*
X172500Y182000D02*
Y201700D01*
X168500Y207878D02*
X170000Y209378D01*
X168500Y152044D02*
Y207878D01*
Y152044D02*
X169744Y150800D01*
X133165Y125835D02*
X154405Y104595D01*
X133165Y125835D02*
Y205335D01*
X137000Y129000D02*
X154405Y111594D01*
X137000Y129000D02*
Y196000D01*
X135181Y197819D02*
X137000Y196000D01*
X135181Y197819D02*
Y206746D01*
X137000Y199500D02*
Y207190D01*
X159500Y130500D02*
Y177000D01*
X137000Y199500D02*
X159500Y177000D01*
X164000Y134500D02*
X172906Y125594D01*
X139000Y203508D02*
X164000Y178508D01*
Y134500D02*
Y178508D01*
X159500Y130500D02*
X171405Y118595D01*
X172906Y125594D02*
X189044D01*
X171405Y118595D02*
X189044D01*
X154405Y111594D02*
X189044D01*
X154405Y104595D02*
X189044D01*
X134066Y210124D02*
X137000Y207190D01*
X129727Y209359D02*
X132569D01*
X135181Y206746D01*
X134000Y215000D02*
X134066Y214934D01*
Y210124D02*
Y214934D01*
X139000Y203508D02*
Y215000D01*
X169744Y146263D02*
Y150800D01*
X170000Y209378D02*
Y215000D01*
X175256Y146319D02*
X175937Y147000D01*
X175256Y146263D02*
Y146319D01*
X175937Y147000D02*
X177676D01*
Y147076D01*
X179600Y149000D01*
X182300D01*
X187300Y154000D01*
X178300Y201800D02*
X185000Y208500D01*
Y215000D01*
X178300Y194904D02*
Y201800D01*
Y183000D02*
Y189392D01*
X186986Y183314D02*
Y188666D01*
Y183314D02*
X187300Y183000D01*
X186986Y188666D02*
X191649Y193329D01*
X216537Y206165D02*
X216563Y206191D01*
X216537Y199756D02*
Y206165D01*
X191649Y193329D02*
X211474D01*
X212390Y194244D01*
X216537D01*
X205300Y184010D02*
X209405Y188114D01*
X221449D01*
X227932Y194597D01*
X204200Y190900D02*
X219467D01*
X222268Y193702D02*
Y197419D01*
X219467Y190900D02*
X222268Y193702D01*
X209600Y120435D02*
Y136600D01*
X214300Y141300D02*
Y154000D01*
X209600Y136600D02*
X214300Y141300D01*
X194556Y104595D02*
X201095D01*
X218800Y122300D01*
Y144000D01*
X200759Y111594D02*
X209600Y120435D01*
X194556Y111594D02*
X200759D01*
X194961Y119000D02*
X197432D01*
X200800Y122368D02*
Y137086D01*
X197432Y119000D02*
X200800Y122368D01*
X194556Y118595D02*
X194961Y119000D01*
X200800Y137086D02*
X205300Y141586D01*
Y154000D01*
X192000Y131350D02*
Y136789D01*
X194556Y125594D02*
Y128794D01*
X192000Y131350D02*
X194556Y128794D01*
X192000Y136789D02*
X196300Y141089D01*
Y154000D01*
X131000Y207500D02*
X133165Y205335D01*
X126000Y207500D02*
X131000D01*
X124000Y209500D02*
X126000Y207500D01*
X124000Y209500D02*
Y215000D01*
X215000Y207753D02*
Y215000D01*
Y207753D02*
X216563Y206191D01*
X220000Y207811D02*
Y215000D01*
Y207811D02*
X222268Y205543D01*
Y202930D02*
Y205543D01*
X225000Y208759D02*
Y215000D01*
Y208759D02*
X227932Y205827D01*
Y202930D02*
Y205827D01*
Y194597D02*
Y197419D01*
X230000Y211850D02*
X232323Y209528D01*
X230000Y211850D02*
Y215000D01*
X232323Y208092D02*
Y209528D01*
Y208092D02*
X233819Y206596D01*
Y202930D02*
Y206596D01*
Y194710D02*
Y197419D01*
X214300Y183000D02*
X222109D01*
X233819Y194710D01*
X205300Y183000D02*
Y184010D01*
X196300Y183000D02*
X204200Y190900D01*
X261964Y158036D02*
X309405Y110594D01*
X346524D01*
X266964Y158786D02*
X309156Y116595D01*
X346524D01*
X276964Y163036D02*
X285000Y155000D01*
X313353D01*
X271964Y161536D02*
X284500Y149000D01*
X311865D01*
X338270Y122594D01*
X346524D01*
X352036Y110594D02*
X361069D01*
X378800Y128326D01*
Y144000D01*
X357376Y116595D02*
X370000Y129218D01*
X352036Y116595D02*
X357376D01*
X370000Y129218D02*
Y137571D01*
X374300Y141871D01*
Y154000D01*
X361000Y127278D02*
Y137000D01*
X365300Y141300D02*
Y154000D01*
X361000Y137000D02*
X365300Y141300D01*
X356317Y122594D02*
X361000Y127278D01*
X352036Y122594D02*
X356317D01*
X320000Y160000D02*
Y181586D01*
Y160000D02*
X331000Y149000D01*
X308384Y193202D02*
X320000Y181586D01*
X331000Y149000D02*
X342300D01*
X318865Y149135D02*
X329000Y139000D01*
X318865Y149135D02*
Y155000D01*
X329000Y139000D02*
X354500D01*
X356300Y140800D02*
Y154000D01*
X354500Y139000D02*
X356300Y140800D01*
X308384Y193202D02*
Y199358D01*
X342300Y149000D02*
X347300Y154000D01*
X314211Y192743D02*
Y199544D01*
Y192743D02*
X323628Y183325D01*
Y162990D02*
Y183325D01*
Y162990D02*
X332618Y154000D01*
X338300D01*
X308831Y205317D02*
Y208092D01*
X308384Y204870D02*
X308831Y205317D01*
Y208092D02*
X310046Y209307D01*
Y215000D01*
X314365Y205056D02*
X315046Y205737D01*
Y215000D01*
X314211Y205056D02*
X314365D01*
X320046D02*
Y215000D01*
Y192186D02*
X327115Y185116D01*
X320046Y192186D02*
Y199544D01*
X327115Y179130D02*
Y185116D01*
Y179130D02*
X338246Y168000D01*
X373800D01*
X378800Y173000D01*
X326252Y190621D02*
X329336D01*
X325046Y191826D02*
Y215000D01*
Y191826D02*
X326252Y190621D01*
X329336D02*
X329488Y190468D01*
X335000Y186347D02*
X338300Y183047D01*
X335000Y186347D02*
Y190468D01*
X338300Y183000D02*
Y183047D01*
X355050Y190750D02*
Y202237D01*
X347300Y183000D02*
X355050Y190750D01*
X355542Y207749D02*
X356231Y208437D01*
X355050Y207749D02*
X355542D01*
X356231Y208437D02*
Y215000D01*
X342472Y198786D02*
Y204500D01*
Y209000D01*
X346231Y209296D02*
X347066Y208461D01*
X346231Y209296D02*
Y215000D01*
X347066Y208461D02*
X348280D01*
X349165Y207576D01*
X346231Y215000D02*
X346456Y214774D01*
X349165Y207576D02*
X351231Y209642D01*
Y215000D01*
X349165Y204500D02*
Y207576D01*
Y198786D02*
Y204500D01*
X344500Y189000D02*
X349165Y193665D01*
Y198786D01*
X356300Y183000D02*
X360396Y187096D01*
Y202114D01*
X360550Y207626D02*
X361231Y208307D01*
Y215000D01*
X360396Y207626D02*
X360550D01*
X365300Y183000D02*
Y192569D01*
X368231Y195500D01*
X371429D01*
X366231Y204993D02*
Y215000D01*
Y204993D02*
X371069Y200154D01*
X375573D01*
X376941Y198786D01*
Y195500D02*
Y198786D01*
X382782Y185517D02*
Y204500D01*
X380265Y183000D02*
X382782Y185517D01*
X374300Y183000D02*
X380265D01*
X380928Y206353D02*
X382782Y204500D01*
X376706Y206353D02*
X380928D01*
X371212Y206372D02*
Y214982D01*
X371231Y215000D01*
X371194Y206353D02*
X371212Y206372D01*
X418259Y188047D02*
X461423Y144883D01*
X484244D01*
X494117D02*
X500000Y139000D01*
X489756Y144883D02*
X494117D01*
X432272Y146652D02*
Y159306D01*
Y146652D02*
X470424Y108500D01*
X403259Y188319D02*
X432272Y159306D01*
X437500Y145300D02*
X468300Y114500D01*
X408259Y187200D02*
X437500Y157959D01*
Y145300D02*
Y157959D01*
X442417Y144883D02*
X466800Y120500D01*
X413259Y187646D02*
X442417Y158488D01*
Y144883D02*
Y158488D01*
X403259Y188319D02*
Y215000D01*
X413259Y187646D02*
Y215000D01*
X418259Y188047D02*
Y215000D01*
X500000Y139000D02*
X514500D01*
X516300Y140800D01*
Y154000D01*
X470424Y108500D02*
X498744D01*
X468300Y114500D02*
X498744D01*
X466800Y120500D02*
X498744D01*
X504256D02*
X512632D01*
X520600Y128469D02*
Y136563D01*
X512632Y120500D02*
X520600Y128469D01*
Y136563D02*
X525300Y141263D01*
Y154000D01*
X514041Y114500D02*
X529791Y130250D01*
X504256Y114500D02*
X514041D01*
X529791Y130250D02*
Y136728D01*
X534300Y141237D01*
Y154000D01*
X450790Y192062D02*
X452417Y190436D01*
Y158330D02*
X461547Y149200D01*
X452417Y158330D02*
Y190436D01*
X461547Y149200D02*
X502500D01*
X450790Y192062D02*
Y200331D01*
X502500Y149200D02*
X507300Y154000D01*
X456487Y162026D02*
Y200331D01*
Y162026D02*
X464512Y154000D01*
X498300D01*
X475282Y179000D02*
X488168D01*
X462392Y191890D02*
Y200331D01*
Y191890D02*
X475282Y179000D01*
X488168D02*
X499168Y168000D01*
X533800D01*
X538800Y173000D01*
X468298Y193118D02*
Y200331D01*
Y193118D02*
X478416Y183000D01*
X498300D01*
X450901Y205843D02*
X451582Y206524D01*
Y215000D01*
X450790Y205843D02*
X450901D01*
X456487D02*
X456582Y205939D01*
Y215000D01*
X461582Y206524D02*
X462263Y205843D01*
X461582Y206524D02*
Y215000D01*
X462263Y205843D02*
X462392D01*
X467763Y206378D02*
Y208108D01*
Y206378D02*
X468298Y205843D01*
X466582Y209289D02*
X467763Y208108D01*
X466582Y209289D02*
Y215000D01*
X480224Y201173D02*
Y206188D01*
X483036Y209000D02*
X485500D01*
X480224Y206188D02*
X483036Y209000D01*
X480224Y194502D02*
Y201173D01*
X486916Y194502D02*
Y201173D01*
X492500Y188000D02*
Y192468D01*
X490465Y194502D02*
X492500Y192468D01*
X486916Y194502D02*
X490465D01*
X492547Y203413D02*
X494787Y205654D01*
X490306Y201173D02*
X492547Y203413D01*
X489787Y206173D02*
X492547Y203413D01*
X489787Y206173D02*
Y215000D01*
X486916Y201173D02*
X490306D01*
X498605Y191694D02*
X507300Y183000D01*
X498605Y191694D02*
Y201083D01*
X499098Y206595D02*
X499787Y207284D01*
Y215000D01*
X498605Y206595D02*
X499098D01*
X504798Y194502D02*
X516300Y183000D01*
X504798Y194502D02*
Y201083D01*
X516300Y183000D02*
Y183000D01*
X504787Y206606D02*
X504798Y206595D01*
X504787Y206606D02*
Y215000D01*
X515856Y192869D02*
X525300Y183425D01*
X515856Y192869D02*
Y199500D01*
X509787Y200058D02*
Y215000D01*
Y200058D02*
X510344Y199500D01*
X536405Y205470D02*
X537586Y204289D01*
X536405Y205470D02*
Y215000D01*
X537566Y200130D02*
X537586Y200150D01*
Y204289D02*
X541405Y208108D01*
X537586Y200150D02*
Y204289D01*
X541405Y208108D02*
Y215000D01*
X537566Y194000D02*
Y200130D01*
X530873Y194000D02*
Y200130D01*
X531000Y200257D02*
Y209000D01*
X530873Y200130D02*
X531000Y200257D01*
X525300Y183000D02*
Y183425D01*
X523063Y192426D02*
Y200178D01*
X520356Y202885D02*
Y206073D01*
Y202885D02*
X523063Y200178D01*
Y192426D02*
X525422Y190066D01*
X531502D01*
X534300Y187268D01*
Y183000D02*
Y187268D01*
X514815Y206102D02*
Y214971D01*
X514787Y215000D02*
X514815Y214971D01*
Y206102D02*
X514844Y206073D01*
X629103Y110002D02*
X655562D01*
X676000Y116000D02*
X689700Y129700D01*
X661074Y116000D02*
X676000D01*
X661074Y121906D02*
X672363D01*
X694300Y183000D02*
Y192823D01*
X666856Y205437D02*
X681686D01*
X694300Y192823D01*
X656818Y208519D02*
X657837Y207500D01*
X656818Y208519D02*
Y215000D01*
X657837Y206100D02*
Y207500D01*
Y206100D02*
X658500Y205437D01*
X661344D01*
X672501Y192356D02*
X676300Y188558D01*
X647653Y196618D02*
X651916Y192356D01*
X672501D01*
X647098Y188657D02*
X661643D01*
X667300Y183000D01*
X641818Y193937D02*
X647098Y188657D01*
X641818Y193937D02*
Y199417D01*
X676300Y183000D02*
Y188558D01*
X647653Y196618D02*
Y199244D01*
X678412D02*
X685300Y192356D01*
X654718Y199244D02*
X678412D01*
X653600Y205437D02*
X654281Y204756D01*
X654718D01*
X653600Y205437D02*
Y207501D01*
X651818Y209283D02*
X653600Y207501D01*
X651818Y209283D02*
Y215000D01*
X646818Y205437D02*
X647499Y204756D01*
X646818Y205437D02*
Y215000D01*
X647499Y204756D02*
X647653D01*
X641818Y204929D02*
Y215000D01*
X604500Y194337D02*
Y199244D01*
X619037Y179800D02*
X647837D01*
X604500Y194337D02*
X619037Y179800D01*
X647837D02*
X659637Y168000D01*
X622425Y183000D02*
X658300D01*
X658211Y183089D02*
X658300Y183000D01*
X609500Y195925D02*
X622425Y183000D01*
X609500Y195925D02*
Y199244D01*
X604500Y204756D02*
Y215000D01*
X609500Y204756D02*
Y215000D01*
X634346Y188500D02*
Y195853D01*
X634329Y195870D02*
X634346Y195853D01*
X627636Y195870D02*
X627654Y195887D01*
Y202000D01*
X634329Y195870D02*
X634346Y195887D01*
Y202000D01*
X685300Y183000D02*
Y192356D01*
X659637Y168000D02*
X693800D01*
X698800Y173000D01*
X645409Y144500D02*
X652337D01*
X657837Y139000D01*
X674218D01*
X676300Y141082D01*
Y154000D01*
X623500Y144500D02*
X639897D01*
X634574Y149200D02*
X662500D01*
X667300Y154000D01*
X624800Y149200D02*
X629062D01*
X634543Y154681D02*
X635224Y154000D01*
X634543Y154681D02*
Y155000D01*
X635224Y154000D02*
X658300D01*
X599500Y180500D02*
X625000Y155000D01*
X629032D01*
X689700Y129700D02*
Y136500D01*
X694400Y141200D01*
Y153900D01*
X694300Y154000D02*
X694400Y153900D01*
X685300Y141100D02*
Y154000D01*
X680800Y136600D02*
X685300Y141100D01*
X680800Y130342D02*
Y136600D01*
X672363Y121906D02*
X680800Y130342D01*
X145774Y258994D02*
X149000D01*
X144000Y257220D02*
X145774Y258994D01*
X144000Y251693D02*
Y257220D01*
X149000Y251693D02*
Y258994D01*
X402896Y280370D02*
X403026Y280500D01*
X230335Y381500D02*
X234436D01*
X197281Y229226D02*
Y258731D01*
X195000Y226945D02*
X197281Y229226D01*
X197281Y258731D02*
X197281Y258731D01*
X134000Y251693D02*
Y258500D01*
Y251693D02*
X134000Y251693D01*
X167500Y237100D02*
Y242200D01*
X668232Y243716D02*
Y244647D01*
X387709Y633638D02*
X388000Y633929D01*
X139260Y390837D02*
X139423Y391000D01*
X345627Y287460D02*
X346024Y287063D01*
X381196Y280260D02*
X381258Y280198D01*
Y276906D02*
Y280198D01*
X379824Y275471D02*
X381258Y276906D01*
X358274Y275471D02*
X379824D01*
X358274D02*
Y280370D01*
X358274Y280370D02*
X358274Y280370D01*
X354107Y272747D02*
X383783D01*
X350631Y276223D02*
X354107Y272747D01*
X383783D02*
X391406Y280370D01*
X395490Y306690D02*
X400200Y311400D01*
X395490Y302329D02*
Y306690D01*
X312619Y441055D02*
X315092Y443528D01*
X650627Y235828D02*
X661818Y224637D01*
Y215000D02*
Y224637D01*
X312619Y436500D02*
Y441055D01*
X320250Y410998D02*
X326655D01*
X326694Y411037D01*
X319312Y431312D02*
Y436500D01*
X316379Y428379D02*
X319312Y431312D01*
X313466Y428379D02*
X316379D01*
X305238Y421037D02*
X313466D01*
X318466Y416037D01*
X326694D01*
X305238Y421037D02*
Y426037D01*
X305336Y426135D02*
Y434285D01*
X305238Y426037D02*
X305336Y426135D01*
Y434285D02*
X307551Y436500D01*
X312619D01*
X186986Y260537D02*
X190000Y257524D01*
X186986Y260537D02*
Y267976D01*
X194888Y251805D02*
Y257388D01*
X193888Y258388D02*
X194888Y257388D01*
X190864Y258388D02*
X193888D01*
X190000Y257524D02*
X190864Y258388D01*
X384748Y288975D02*
Y292369D01*
Y286258D02*
Y288975D01*
X390606Y287063D02*
X395490D01*
X388694Y288975D02*
X390606Y287063D01*
X384748Y288975D02*
X388694D01*
X395490Y287063D02*
Y294937D01*
X381306Y295811D02*
X384748Y292369D01*
X381306Y282816D02*
X384748Y286258D01*
X381306Y280370D02*
Y282816D01*
Y295811D02*
Y301630D01*
X344500Y276223D02*
X350631D01*
X391406Y280370D02*
X395490D01*
X138063Y486728D02*
X141835Y490500D01*
X133639Y486728D02*
X138063D01*
X631818Y208682D02*
X632999Y207501D01*
Y203347D02*
Y207501D01*
Y203347D02*
X634346Y202000D01*
X631818Y208682D02*
Y215000D01*
X441582Y209167D02*
X443439Y207309D01*
Y204407D02*
Y207309D01*
Y204407D02*
X444347Y203500D01*
X441582Y209167D02*
Y215000D01*
X393259Y209361D02*
X394527Y208092D01*
Y204078D02*
Y208092D01*
Y204078D02*
X395605Y203000D01*
X393259Y209361D02*
Y215000D01*
X300046Y209499D02*
X301659Y207885D01*
Y205033D02*
Y207885D01*
Y205033D02*
X302692Y204000D01*
X300046Y209499D02*
Y215000D01*
X251964Y209286D02*
X252931Y208318D01*
Y205056D02*
Y208318D01*
Y205056D02*
X253987Y204000D01*
X251964Y209286D02*
Y215000D01*
X205000Y209181D02*
X206436Y207746D01*
Y205411D02*
Y207746D01*
Y205411D02*
X207347Y204500D01*
X205000Y209181D02*
Y215000D01*
X165000Y207154D02*
Y215000D01*
X162346Y204500D02*
X165000Y207154D01*
X161500Y205346D02*
Y207786D01*
X160000Y209286D02*
X161500Y207786D01*
X160000Y209286D02*
Y215000D01*
X161500Y205346D02*
X162346Y204500D01*
X539605Y321204D02*
X539606Y321202D01*
X539605Y321204D02*
Y323334D01*
X537939Y325000D02*
X539605Y323334D01*
X533313Y325000D02*
X537939D01*
X516347Y495500D02*
X524223D01*
X461605Y366000D02*
Y370442D01*
X432500Y475000D02*
X437391D01*
X431748D02*
X432500D01*
X437391D02*
X437403Y474988D01*
X203030Y381310D02*
Y385387D01*
X200000Y378279D02*
X203030Y381310D01*
X270614Y315000D02*
X292251D01*
X395490Y294937D02*
X395778Y294648D01*
X298712Y286158D02*
X300881Y288327D01*
Y291666D01*
X296136Y341004D02*
Y345746D01*
X295231Y301630D02*
Y307611D01*
X295022Y301421D02*
X295231Y301630D01*
X312000Y351140D02*
Y356411D01*
Y351140D02*
X312029Y351111D01*
X305336D02*
Y356411D01*
X296136Y286158D02*
X298712D01*
X295231Y287063D02*
X296136Y286158D01*
X308384Y276077D02*
X309930Y274531D01*
X308384Y276077D02*
Y280260D01*
X308274Y280370D02*
X308384Y280260D01*
X295628Y295335D02*
X300881D01*
X295231Y294937D02*
X295628Y295335D01*
X309930Y274531D02*
X313865D01*
X230335Y381500D02*
X230335Y381500D01*
X227114Y259500D02*
X229548D01*
X225000Y257386D02*
X227114Y259500D01*
X225000Y251693D02*
Y257386D01*
X256057Y269592D02*
X260996Y274531D01*
X240492Y269592D02*
X256057D01*
X238500Y267600D02*
X240492Y269592D01*
X243819Y231500D02*
Y256673D01*
X238500Y261992D02*
X243819Y256673D01*
X238500Y261992D02*
Y267600D01*
X240000Y221185D02*
X247485Y228670D01*
Y258482D01*
X232133Y225000D02*
X235000Y222133D01*
X214167Y225000D02*
X232133D01*
X211500Y227667D02*
X214167Y225000D01*
X235000Y215000D02*
Y222133D01*
X211500Y227667D02*
Y236996D01*
X289964Y254400D02*
Y262567D01*
X278000Y274531D02*
X289964Y262567D01*
Y254400D02*
X293581Y250783D01*
Y232725D02*
Y250783D01*
X113977Y251715D02*
Y261000D01*
Y251715D02*
X114000Y251693D01*
X360500Y470000D02*
Y474500D01*
X360653Y474653D01*
X403156Y280370D02*
X405715D01*
X395490Y280370D02*
X402896D01*
X388000Y633929D02*
Y639000D01*
X387709Y633638D02*
X388000Y633347D01*
X374500D02*
Y639000D01*
X400492Y633347D02*
X400992Y633847D01*
X388000Y633347D02*
X400492D01*
X374500D02*
X388000D01*
X361000D02*
X374500D01*
X144000Y215000D02*
Y238825D01*
X139000Y243825D02*
X144000Y238825D01*
X139000Y243825D02*
Y251693D01*
X132175Y237000D02*
X139000Y243825D01*
X128900Y237000D02*
X132175D01*
X240000Y215000D02*
Y221185D01*
X566405Y215000D02*
Y223214D01*
X571500Y228309D01*
Y235526D01*
X581153Y227245D02*
Y237653D01*
X576500Y222591D02*
X581153Y227245D01*
Y237653D02*
X589500Y246000D01*
X576500Y219000D02*
Y222591D01*
Y228417D02*
Y256682D01*
X571405Y223322D02*
X576500Y228417D01*
X573528Y259654D02*
X576500Y256682D01*
X571405Y215000D02*
Y223322D01*
X561405Y245621D02*
X571500Y235526D01*
X561405Y245621D02*
Y251693D01*
X553481Y243300D02*
X559084D01*
X561405Y245621D01*
X568917Y243431D02*
X571349Y245862D01*
Y251637D01*
X571405Y251693D01*
X566486Y245862D02*
X568917Y243431D01*
X566486Y245862D02*
Y251612D01*
X566405Y251693D02*
X566486Y251612D01*
X589500Y246000D02*
X591784Y243716D01*
X597569D01*
X599500Y245647D01*
X601647Y243500D02*
X609500D01*
X599500Y245647D02*
X601647Y243500D01*
X599500Y245647D02*
Y251693D01*
X614500Y215000D02*
Y238500D01*
X609500Y243500D02*
X614500Y238500D01*
X609500Y243500D02*
Y251693D01*
X589500Y246000D02*
Y251693D01*
X488768Y227000D02*
X492268Y223500D01*
X487000Y228768D02*
X488768Y227000D01*
X485500Y223500D02*
X488768Y226768D01*
Y227000D01*
X551405Y245376D02*
X553481Y243300D01*
X549328D02*
X551405Y245376D01*
X543200Y243300D02*
X549328D01*
X541405Y245095D02*
X543200Y243300D01*
X551405Y245376D02*
Y251693D01*
X541405Y245095D02*
Y251693D01*
X504787Y245572D02*
X505858Y244500D01*
X513951D01*
X514787Y245335D01*
Y251693D01*
X494787Y244460D02*
X503675D01*
X504787Y245572D01*
Y251693D01*
X516769Y223500D02*
X519787Y220482D01*
Y215000D02*
Y220482D01*
X492268Y223500D02*
X516769D01*
X487000Y228768D02*
Y236673D01*
X494787Y244460D01*
Y251693D01*
X529791Y225566D02*
Y258786D01*
X524787Y220561D02*
X529791Y225566D01*
X524787Y215000D02*
Y220561D01*
X170500Y205000D02*
X175000Y209500D01*
Y215000D01*
X180000Y209200D02*
Y215000D01*
X627827Y202173D02*
Y207000D01*
X627654Y202000D02*
X627827Y202173D01*
X576500Y203000D02*
X581153D01*
Y194500D02*
Y203000D01*
X437500Y203654D02*
Y209000D01*
Y203654D02*
X437653Y203500D01*
Y194500D02*
Y203500D01*
X389000Y203087D02*
Y209500D01*
X388913Y203000D02*
X389000Y203087D01*
X388913Y194500D02*
Y203000D01*
X296000Y204001D02*
Y209000D01*
X295999Y204000D02*
X296000Y204001D01*
X295999Y196500D02*
Y204000D01*
X247294D02*
Y209378D01*
Y196000D02*
Y204000D01*
X200654Y204500D02*
Y209500D01*
Y196500D02*
Y204500D01*
X156000Y192500D02*
Y196153D01*
X155654Y196500D02*
X156000Y196153D01*
X155654Y196500D02*
Y204500D01*
X190000Y251693D02*
Y257524D01*
X194888Y251805D02*
X195000Y251693D01*
X235000Y258994D02*
Y262000D01*
Y251693D02*
Y258994D01*
X238500D01*
X239970Y257524D01*
Y251723D02*
Y257524D01*
Y251723D02*
X240000Y251693D01*
X335046Y243300D02*
Y251693D01*
Y233546D02*
Y243300D01*
X331306D02*
X335046D01*
X330046Y244560D02*
X331306Y243300D01*
X330046Y244560D02*
Y251693D01*
X333000Y231500D02*
X335046Y233546D01*
X376231Y235301D02*
X378807Y232725D01*
X376231Y235301D02*
Y251693D01*
X381231Y235149D02*
Y251693D01*
X378807Y232725D02*
X381231Y235149D01*
X423259Y235741D02*
X426000Y233000D01*
X423259Y235741D02*
Y251693D01*
X426000Y233000D02*
X428259Y235259D01*
Y251693D01*
X479748Y252643D02*
Y258500D01*
X478798Y251693D02*
X479748Y252643D01*
X476582Y251693D02*
X478798D01*
X479563Y258500D02*
X479748D01*
X476809Y261254D02*
X479563Y258500D01*
X474228Y261254D02*
X476809D01*
X471582Y258608D02*
X474228Y261254D01*
X471582Y251693D02*
Y258608D01*
X519787Y260063D02*
X523000D01*
X524787Y258276D01*
Y251693D02*
Y258276D01*
X518173Y261676D02*
Y262055D01*
Y261676D02*
X519787Y260063D01*
Y251693D02*
Y260063D01*
X667017Y242500D02*
X668232Y243716D01*
X663300Y242500D02*
X667017D01*
X661818Y243982D02*
X663300Y242500D01*
X661818Y243982D02*
Y251693D01*
X667017Y245862D02*
X668232Y244647D01*
X667017Y245862D02*
Y251494D01*
X666818Y251693D02*
X667017Y251494D01*
X619500Y251693D02*
Y257254D01*
X616837Y259917D02*
X619500Y257254D01*
X614500Y259917D02*
X616837D01*
X614500Y251693D02*
Y259917D01*
X119073Y236996D02*
X119077Y237000D01*
X119000Y237069D02*
Y251693D01*
Y237069D02*
X119073Y236996D01*
X307839Y242100D02*
X315046D01*
Y232771D02*
Y242100D01*
X315000Y232725D02*
X315046Y232771D01*
X360500Y481500D02*
Y486500D01*
X234000Y390233D02*
X234033Y390200D01*
X195584Y480042D02*
Y486228D01*
X182142Y480042D02*
Y486612D01*
X146700Y486815D02*
X147039Y487153D01*
X146700Y482900D02*
Y486815D01*
X227600Y243300D02*
X230000Y245700D01*
X330046Y215000D02*
Y239717D01*
X325046Y244717D02*
X330046Y239717D01*
X315046Y242100D02*
X322428D01*
X315046D02*
Y251693D01*
X305046Y244893D02*
X307839Y242100D01*
X305046Y244893D02*
Y251693D01*
X325046Y244717D02*
Y251693D01*
X322428Y242100D02*
X325046Y244717D01*
X185000Y244750D02*
X190000Y239750D01*
Y215000D02*
Y239750D01*
X174975Y242200D02*
X182450D01*
X167500D02*
X174975D01*
X175000Y242225D01*
Y251693D01*
X185000Y244750D02*
Y251693D01*
X182450Y242200D02*
X185000Y244750D01*
X165000Y244700D02*
X167500Y242200D01*
X165000Y244700D02*
Y251693D01*
X211500Y236996D02*
Y243300D01*
X219550D02*
X227600D01*
X211500D02*
X219550D01*
X220000Y243750D01*
Y251693D01*
X230000Y245700D02*
Y251693D01*
X210000Y244800D02*
X211500Y243300D01*
X210000Y244800D02*
Y251693D01*
X403026Y280500D02*
X403156Y280370D01*
X408274D02*
Y284352D01*
X405563Y287063D02*
X408274Y284352D01*
X395490Y287063D02*
X405563D01*
X396041Y301630D02*
X403156D01*
X418527Y228768D02*
X419629Y229871D01*
X416219Y228768D02*
X418527D01*
X415951Y228500D02*
X416219Y228768D01*
X357158Y228500D02*
X359300Y230642D01*
Y233500D01*
X419629Y229871D02*
X423259Y226241D01*
X416000Y233500D02*
X419629Y229871D01*
X447500Y226000D02*
X450790Y229290D01*
Y234500D01*
X643958Y235828D02*
X647041D01*
Y236080D01*
Y229037D02*
Y235828D01*
X646818Y236303D02*
X647041Y236080D01*
X650627Y235828D02*
X656818Y242020D01*
Y251693D01*
X647041Y235828D02*
X650627D01*
X646818Y236303D02*
Y251693D01*
X636818Y242969D02*
Y251693D01*
Y242969D02*
X643958Y235828D01*
X466582Y234500D02*
Y251693D01*
X456582Y234500D02*
X466582D01*
X456582D02*
Y251693D01*
X450790Y234500D02*
X456582D01*
X446582Y238708D02*
X450790Y234500D01*
X471582Y215000D02*
Y229631D01*
X466713Y234500D02*
X471582Y229631D01*
X446582Y238708D02*
Y251693D01*
X406398Y233500D02*
X412096D01*
X398259Y241639D02*
X406398Y233500D01*
X398259Y241639D02*
Y251693D01*
X412096Y233500D02*
X416000D01*
X412096D02*
Y237827D01*
X408259Y241664D02*
X412096Y237827D01*
X408259Y241664D02*
Y251693D01*
X416000Y233500D02*
X418259Y235759D01*
Y251693D01*
X423259Y215000D02*
Y226241D01*
X363620Y233500D02*
X367940D01*
X359300D02*
X363620D01*
Y239528D01*
X361231Y241917D02*
X363620Y239528D01*
X361231Y241917D02*
Y251693D01*
X367940Y233500D02*
X371231Y236790D01*
Y251693D01*
X376231Y215000D02*
Y225210D01*
X367940Y233500D02*
X376231Y225210D01*
X351231Y241569D02*
X359300Y233500D01*
X351231Y241569D02*
Y251693D01*
X119077Y237000D02*
X128900D01*
X129000Y237100D01*
Y251693D01*
X537000Y301734D02*
X541692D01*
X541797Y301630D01*
X537000Y280500D02*
X541667D01*
X541797Y280370D01*
X489000Y280500D02*
X489130Y280370D01*
X493231D01*
X489000Y301734D02*
X493126D01*
X493231Y301630D01*
X439134Y280500D02*
X444101D01*
X444231Y280370D01*
X439134Y301734D02*
X444126D01*
X444231Y301630D01*
X228500Y295000D02*
X234524D01*
X234587Y294937D01*
X341824Y301630D02*
X345231D01*
X340000Y299805D02*
X341824Y301630D01*
X340000Y292000D02*
Y299805D01*
X341909Y280591D02*
X345010D01*
X345231Y280370D01*
X340000Y282500D02*
X341909Y280591D01*
X295231Y275531D02*
Y280370D01*
X267638Y312024D02*
X270614Y315000D01*
X264587Y312024D02*
X267638D01*
X260000Y313327D02*
X265154Y318480D01*
X260000Y305500D02*
Y313327D01*
Y305500D02*
X260957Y304543D01*
X264587D01*
X265154Y318480D02*
Y325500D01*
X273815Y294937D02*
X274732Y295854D01*
Y303862D02*
X275413Y304543D01*
X274732Y295854D02*
Y303862D01*
X273815Y291815D02*
Y294937D01*
X272000Y290000D02*
X273815Y291815D01*
X260000Y290000D02*
X272000D01*
X255063Y294937D02*
X260000Y290000D01*
X245413Y294937D02*
X255063D01*
X308500Y335500D02*
X310541Y337541D01*
X308500Y333500D02*
Y335500D01*
X305141Y350917D02*
X305336Y351111D01*
X145500Y378500D02*
Y381500D01*
X143500Y383500D02*
X145500Y381500D01*
X139347Y383500D02*
X143500D01*
X139260Y390837D02*
X139347Y390750D01*
X139654Y372315D02*
Y383193D01*
X139347Y383500D02*
X139654Y383193D01*
X139347Y383500D02*
Y390750D01*
X655631Y272454D02*
X671800Y256285D01*
X578546Y272454D02*
X655631D01*
X671800Y233100D02*
Y256285D01*
X444347Y194500D02*
X448000Y190847D01*
Y190469D02*
Y190847D01*
X579581Y209419D02*
X584500D01*
X579500Y209500D02*
X579581Y209419D01*
X537566Y194000D02*
X541500Y190066D01*
Y185500D02*
Y190066D01*
X492316Y188183D02*
X492500Y188000D01*
X395500Y185413D02*
X395553Y185466D01*
Y194447D01*
X395605Y194500D01*
X302846Y191154D02*
X303000Y191000D01*
X302846Y191154D02*
Y196346D01*
X302692Y196500D02*
X302846Y196346D01*
X253987Y192029D02*
Y196000D01*
X252000Y190041D02*
X253987Y192029D01*
X252000Y189500D02*
Y190041D01*
X207347Y200500D02*
Y204500D01*
Y196500D02*
Y200500D01*
X211175D02*
X211500Y200174D01*
X207347Y200500D02*
X211175D01*
X162346Y189854D02*
Y196500D01*
Y189854D02*
X165000Y187200D01*
X634346Y202000D02*
X636818Y204472D01*
Y215000D01*
X587847Y206016D02*
Y206073D01*
Y194500D02*
Y203000D01*
X584500Y209419D02*
X587847Y206073D01*
X584500Y209419D02*
Y215000D01*
X587847Y206016D02*
X589500Y207669D01*
X587847Y203000D02*
Y206016D01*
X589500Y207669D02*
Y215000D01*
X494787Y205654D02*
Y215000D01*
X444347Y194500D02*
Y203500D01*
X446582Y205735D01*
Y215000D01*
X395605Y194500D02*
Y203000D01*
X398259Y205654D01*
Y215000D01*
X302692Y196500D02*
Y204000D01*
X305046Y206353D01*
Y215000D01*
X253987Y196000D02*
Y204000D01*
X256964Y206976D01*
Y215000D01*
X207347Y204500D02*
X210000Y207154D01*
Y215000D01*
X162346Y196500D02*
Y204500D01*
X261964Y158036D02*
Y215000D01*
X266964Y158786D02*
Y215000D01*
X271964Y161536D02*
Y215000D01*
X331306Y281235D02*
Y282732D01*
X331571Y281500D02*
X334500D01*
X331306Y281235D02*
X331571Y281500D01*
X331306Y280370D02*
Y281235D01*
Y282732D02*
X334000Y285427D01*
Y296573D01*
X331306Y299268D02*
X334000Y296573D01*
X331306Y299268D02*
Y301630D01*
X328747D02*
X331306D01*
X381196Y280260D02*
X381306Y280370D01*
X378747Y301630D02*
X381306D01*
X408259Y280385D02*
X408274Y280370D01*
X433895Y301630D02*
X434000Y301734D01*
X431306Y301630D02*
X433895D01*
X428747D02*
X431306D01*
Y280370D02*
Y301630D01*
X448500Y287063D02*
X455229D01*
X457272Y285020D01*
Y280372D02*
Y285020D01*
Y280372D02*
X457274Y280370D01*
X482895Y301630D02*
X483000Y301734D01*
X480305Y301630D02*
X482895D01*
X477746D02*
X480305D01*
Y280370D02*
Y301630D01*
X497500Y287063D02*
X504787D01*
X506274Y285576D01*
Y280370D02*
Y285576D01*
X529571Y302000D02*
X532000D01*
X529306Y301734D02*
X529571Y302000D01*
X529306Y301630D02*
Y301734D01*
X526747Y301630D02*
X529306D01*
Y280370D02*
Y301630D01*
X578137Y303000D02*
X581500D01*
X577872Y302734D02*
X578137Y303000D01*
X577872Y301630D02*
Y302734D01*
X575313Y301630D02*
X577872D01*
Y280370D02*
Y301630D01*
X541797Y291000D02*
X551405D01*
X554840Y287565D01*
Y280370D02*
Y287565D01*
X356000Y582500D02*
X360315D01*
X360653Y582161D01*
X303156Y280370D02*
X305715D01*
X303156Y280370D02*
X303156Y280370D01*
X295231Y280370D02*
X303156D01*
X303156Y301630D02*
X305715D01*
X295231D02*
X303156D01*
X541797Y291000D02*
Y294937D01*
Y287063D02*
Y291000D01*
X549722Y280370D02*
X552281D01*
X549722Y280370D02*
X549722Y280370D01*
X541797Y280370D02*
X549722D01*
X549722Y301630D02*
X552281D01*
X541797D02*
X549722D01*
X493231Y287063D02*
X497500D01*
X493294Y295000D02*
X497500D01*
X493231Y294937D02*
X493294Y295000D01*
X501156Y280370D02*
X503715D01*
X501156Y280370D02*
X501156Y280370D01*
X493231Y280370D02*
X501156D01*
X501156Y301630D02*
X503715D01*
X493231D02*
X501156D01*
X444231Y287063D02*
X448500D01*
X448437Y294937D02*
X448500Y295000D01*
X444231Y294937D02*
X448437D01*
X452156Y280370D02*
X454715D01*
X452156Y280370D02*
X452156Y280370D01*
X444231Y280370D02*
X452156D01*
X452156Y301630D02*
X454715D01*
X444231D02*
X452156D01*
X403156D02*
X405715D01*
X346024Y287063D02*
X349500D01*
X345231D02*
X345627Y287460D01*
X345294Y295000D02*
X349500D01*
X345231Y294937D02*
X345294Y295000D01*
X345231Y280370D02*
X345231Y280370D01*
X353156D01*
X355715D01*
X353156Y301630D02*
X355715D01*
X345231D02*
X353156D01*
X149000Y215000D02*
Y228000D01*
X195000Y215000D02*
Y226945D01*
X326187Y280370D02*
X326297Y280480D01*
X180000Y251693D02*
Y258500D01*
X170000Y251693D02*
Y258500D01*
X160000Y251693D02*
Y258500D01*
X124000Y251693D02*
Y258500D01*
X328747Y280370D02*
X328856Y280480D01*
X215000Y251693D02*
Y258500D01*
X205000Y251693D02*
Y258500D01*
X527220Y271813D02*
X543846D01*
X524297Y274736D02*
X527220Y271813D01*
X524297Y274736D02*
Y280260D01*
X526321Y269316D02*
X541797D01*
X521628Y274008D02*
X526321Y269316D01*
X521628Y274008D02*
Y280370D01*
X525368Y266583D02*
X531183D01*
X519069Y272882D02*
X525368Y266583D01*
X519069Y272882D02*
Y280370D01*
X516510Y272067D02*
X529791Y258786D01*
X516510Y272067D02*
Y280370D01*
X531183Y266583D02*
X536405Y261362D01*
X541797Y269316D02*
X546405Y264708D01*
X543846Y271813D02*
X556405Y259254D01*
X546394Y273664D02*
X560404Y259654D01*
X528346Y273664D02*
X546394D01*
X526747Y275265D02*
X528346Y273664D01*
X556405Y251693D02*
Y259254D01*
X560404Y259654D02*
X573528D01*
X475187Y271173D02*
Y280370D01*
X461582Y251693D02*
Y257567D01*
X508833Y275429D02*
Y280370D01*
X489787Y256382D02*
X508833Y275429D01*
X489787Y251693D02*
Y256382D01*
X511392Y270799D02*
Y280370D01*
X499787Y259194D02*
X511392Y270799D01*
X499787Y251693D02*
Y259194D01*
X513951Y263790D02*
Y280370D01*
X509787Y259626D02*
X513951Y263790D01*
X526747Y275265D02*
Y280370D01*
X569876Y264454D02*
X598253D01*
X562517Y271813D02*
X569876Y264454D01*
X562517Y271813D02*
Y280370D01*
X568917Y262854D02*
X589839D01*
X559958Y271813D02*
X568917Y262854D01*
X559958Y271813D02*
Y280370D01*
X567958Y261254D02*
X581246D01*
X557399Y271813D02*
X567958Y261254D01*
X557399Y271813D02*
Y280370D01*
X509787Y251693D02*
Y259626D01*
X536405Y251693D02*
Y261362D01*
X546405Y251693D02*
Y264708D01*
X524187Y280370D02*
X524297Y280260D01*
X581246Y261254D02*
X584500Y258000D01*
Y251693D02*
Y258000D01*
X589839Y262854D02*
X594500Y258193D01*
Y251693D02*
Y258193D01*
X598253Y264454D02*
X604500Y258207D01*
Y251693D02*
Y258207D01*
X570946Y266054D02*
X615731D01*
X565076Y271924D02*
X570946Y266054D01*
X615731D02*
X625500Y256285D01*
X572436Y267654D02*
X622346D01*
X567635Y272454D02*
X572436Y267654D01*
X622346D02*
X631818Y258182D01*
X574605Y269254D02*
X630246D01*
X570194Y273664D02*
X574605Y269254D01*
X630246D02*
X641818Y257682D01*
X576896Y270854D02*
X639146D01*
X572754Y274997D02*
X576896Y270854D01*
X639146D02*
X651818Y258182D01*
X565076Y271924D02*
Y280370D01*
X567635Y272454D02*
Y280370D01*
X570194Y273664D02*
Y280370D01*
X572754Y274997D02*
Y280370D01*
X575313Y275687D02*
X578546Y272454D01*
X575313Y275687D02*
Y280370D01*
X625500Y229500D02*
Y256285D01*
X619500Y223500D02*
X625500Y229500D01*
X619500Y215000D02*
Y223500D01*
X631818Y251693D02*
Y258182D01*
X641818Y251693D02*
Y257682D01*
X651818Y251693D02*
Y258182D01*
X666818Y228118D02*
X671800Y233100D01*
X666818Y215000D02*
Y228118D01*
X561405Y206595D02*
X623500Y144500D01*
X561405Y206595D02*
Y215000D01*
X594500Y179500D02*
X624800Y149200D01*
X594500Y179500D02*
Y215000D01*
X599500Y180500D02*
Y215000D01*
X408259Y187200D02*
Y215000D01*
X276964Y163036D02*
Y215000D01*
X129000Y210086D02*
X129727Y209359D01*
X129000Y210086D02*
Y215000D01*
X129347Y195500D02*
Y203500D01*
D16*
X231350Y603350D02*
X233000Y605000D01*
X231350Y593598D02*
Y603350D01*
X229252Y591500D02*
X231350Y593598D01*
X243000Y605000D02*
X243631Y604369D01*
Y592617D02*
X244748Y591500D01*
X243631Y592617D02*
Y604369D01*
X244748Y591500D02*
Y591750D01*
X246998Y594000D02*
X255252D01*
X244748Y591750D02*
X246998Y594000D01*
X444561Y682500D02*
X454819Y692758D01*
X604806Y682500D02*
X614625Y692319D01*
X733457Y359457D02*
X757043D01*
X757500Y349406D02*
X767413Y339493D01*
X740836Y106587D02*
X751750Y117500D01*
X577993Y107587D02*
X587906Y117500D01*
X420281Y107587D02*
X430194Y117500D01*
X260836Y106587D02*
X271750Y117500D01*
X312000Y690000D02*
X315587Y686413D01*
X322000D01*
X336000Y667413D02*
Y679000D01*
X322000Y686413D02*
X328587D01*
X336000Y679000D01*
X454819Y692758D02*
X468300D01*
X437500Y682500D02*
X444561D01*
X614625Y692319D02*
X628300D01*
X597500Y682500D02*
X604806D01*
X733000Y359913D02*
X733457Y359457D01*
X757043D02*
X757500Y359000D01*
Y349406D02*
Y359000D01*
X767413Y328000D02*
Y339493D01*
X751750Y117500D02*
X757500D01*
X727000Y106587D02*
X740836D01*
X567000Y107587D02*
X577993D01*
X587906Y117500D02*
X597500D01*
X406000Y107587D02*
X420281D01*
X430194Y117500D02*
X437500D01*
X247000Y106587D02*
X260836D01*
X271750Y117500D02*
X277500D01*
X107614Y492000D02*
X114678D01*
X356546Y447453D02*
X373796D01*
X417000Y394911D02*
X422346Y400258D01*
Y406390D01*
X152573Y493873D02*
X161400Y485046D01*
X147065Y493873D02*
X152573D01*
X161400Y473600D02*
Y485046D01*
X307484Y673516D02*
X307500Y673500D01*
X307484Y683594D02*
X307516Y683626D01*
X307484Y673516D02*
Y683594D01*
X688091Y598000D02*
X688493Y598402D01*
X688091Y581787D02*
Y598000D01*
X744500Y622500D02*
Y628500D01*
X740000Y618000D02*
X744500Y622500D01*
X723500Y618000D02*
X740000D01*
X690250Y609500D02*
X715000D01*
X723500Y618000D01*
X688493Y607743D02*
X690250Y609500D01*
X688493Y598402D02*
Y607743D01*
X687929Y581626D02*
X688091Y581787D01*
X751000Y620000D02*
Y628500D01*
X727500Y612000D02*
X743000D01*
X751000Y620000D01*
X717000Y601500D02*
X727500Y612000D01*
X705998Y601500D02*
X717000D01*
X703748Y599250D02*
X705998Y601500D01*
X703748Y598000D02*
Y599250D01*
Y587445D02*
Y598000D01*
X697929Y581626D02*
X703748Y587445D01*
X236000Y620000D02*
X242958D01*
X233000Y617000D02*
X236000Y620000D01*
X233000Y605000D02*
Y617000D01*
X237500Y574000D02*
X245252D01*
X233000Y562904D02*
Y569500D01*
X237500Y574000D01*
X227009Y562904D02*
X233000D01*
X225252Y561147D02*
X227009Y562904D01*
X225252Y548000D02*
Y561147D01*
X140500Y310500D02*
Y330500D01*
X148880Y338879D02*
X163500D01*
X140500Y330500D02*
X148880Y338879D01*
X137500Y307500D02*
X140500Y310500D01*
X130500Y307500D02*
X137500D01*
X122742Y315258D02*
X130500Y307500D01*
X116000Y315258D02*
X122742D01*
X321659Y658879D02*
X321829Y659049D01*
Y675416D02*
X322000Y675587D01*
X321829Y659049D02*
Y675416D01*
X564711Y367500D02*
X570000D01*
X570194Y347000D02*
X590330D01*
X590497Y346833D01*
X549711Y382500D02*
X564711Y367500D01*
X401000Y382500D02*
X549711D01*
X570000Y336500D02*
X570000Y336500D01*
X563000Y359000D02*
X570000D01*
X546500Y375500D02*
X563000Y359000D01*
X375913Y396087D02*
X396500Y375500D01*
X546500D01*
X394587Y388913D02*
X401000Y382500D01*
X375913Y396087D02*
Y407390D01*
X394587Y388913D02*
Y399000D01*
X422319Y406417D02*
Y418300D01*
Y406417D02*
X422346Y406390D01*
X422292Y418327D02*
X422319Y418300D01*
X373796Y447453D02*
X389547D01*
X393000Y423319D02*
Y444000D01*
X389547Y447453D02*
X393000Y444000D01*
X570000Y359000D02*
X583000D01*
X584833Y357167D01*
X590497D01*
X570000Y336500D02*
X570000Y336500D01*
X590497D01*
X590497Y367500D02*
X590497Y367500D01*
X570000Y367500D02*
X590497D01*
X339192Y645000D02*
X346400D01*
X336000Y648192D02*
X339192Y645000D01*
X336000Y648192D02*
Y656587D01*
X274257Y658879D02*
X321659D01*
X743213Y328213D02*
X756374D01*
X743000Y328425D02*
X743213Y328213D01*
X756374D02*
X756587Y328000D01*
X726850Y117563D02*
Y133850D01*
Y117563D02*
X727000Y117413D01*
X726700Y134000D02*
X726850Y133850D01*
X566850Y118563D02*
Y133850D01*
Y118563D02*
X567000Y118413D01*
X566700Y134000D02*
X566850Y133850D01*
X406350Y118763D02*
Y133650D01*
X406000Y118413D02*
X406350Y118763D01*
Y133650D02*
X406700Y134000D01*
X246850Y117563D02*
Y133850D01*
Y117563D02*
X247000Y117413D01*
X246700Y134000D02*
X246850Y133850D01*
X731173Y383000D02*
X733000Y381173D01*
Y370740D02*
Y381173D01*
X723500Y383000D02*
X731173D01*
X550769Y681931D02*
X566700Y666000D01*
X468300Y681931D02*
X550769D01*
X468300Y666000D02*
Y681931D01*
Y631354D02*
Y666000D01*
X628300Y681492D02*
X709890D01*
X725382Y666000D01*
X726700Y631354D02*
Y666000D01*
X725382D02*
X726700D01*
X628300D02*
Y681492D01*
Y631354D02*
Y666000D01*
X183800Y388200D02*
Y392620D01*
Y388200D02*
X204000Y368000D01*
X246500D01*
X744347Y589500D02*
X750000D01*
X744347Y596000D02*
X750000D01*
X737791Y581764D02*
X737929Y581626D01*
X737653Y589500D02*
X737791Y589362D01*
Y581764D02*
Y589362D01*
X737653Y589500D02*
Y596000D01*
X154326Y596326D02*
Y605100D01*
X151000Y593000D02*
X154326Y596326D01*
X161019Y605100D02*
X168826D01*
X175519D02*
X183441D01*
X190134D02*
X190184Y605050D01*
X200950D02*
X201000Y605000D01*
X190184Y605050D02*
X200950D01*
X110094Y596757D02*
Y619095D01*
X122000Y631000D02*
X136339D01*
X110094Y619095D02*
X122000Y631000D01*
X111852Y595000D02*
X121000D01*
X110094Y596757D02*
X111852Y595000D01*
X143650Y638311D02*
Y644236D01*
X144413Y645000D01*
X136339Y631000D02*
X143650Y638311D01*
X157391Y631000D02*
Y649724D01*
X152115Y655000D02*
X157391Y649724D01*
X144413Y655000D02*
X152115D01*
X133587Y645000D02*
Y655000D01*
X121000Y645000D02*
X133587D01*
X304837Y572890D02*
X309737D01*
X260748Y566252D02*
X263000Y564000D01*
X260748Y566252D02*
Y574000D01*
X290450Y572890D02*
X298144D01*
X273000Y562904D02*
Y569500D01*
X276390Y572890D01*
X283757D01*
X293005Y553005D02*
Y562900D01*
X293000Y562904D02*
X293005Y562900D01*
Y553005D02*
X293009Y553000D01*
X293000Y605000D02*
Y617533D01*
X258454Y620000D02*
X290533D01*
X293000Y617533D01*
X240748Y549750D02*
Y551000D01*
Y548000D02*
Y549750D01*
Y551000D02*
X243000Y553252D01*
Y562904D01*
X240748Y549750D02*
X242998Y552000D01*
X255252D01*
X270748Y594000D02*
X282970D01*
X282985Y594015D02*
Y604985D01*
X282970Y594000D02*
X282985Y594015D01*
Y604985D02*
X283000Y605000D01*
X289663Y600770D02*
X293000Y604107D01*
X289663Y594000D02*
Y600770D01*
X293000Y604107D02*
Y605000D01*
X278433Y553000D02*
X286316D01*
X278433Y557445D02*
X283000Y562012D01*
X278433Y553000D02*
Y557445D01*
X271748Y553000D02*
X278433D01*
X283000Y562012D02*
Y562904D01*
X270748Y552000D02*
X271748Y553000D01*
X201100Y226715D02*
Y262186D01*
Y226715D02*
X204501Y223314D01*
X201100Y262186D02*
X204914Y266000D01*
X211438D01*
X204501Y223314D02*
X208500D01*
X217064Y437600D02*
X225512Y446048D01*
X215811Y270373D02*
Y301421D01*
X211438Y266000D02*
X215811Y270373D01*
X246500Y368000D02*
X265154Y349346D01*
Y325500D02*
Y349346D01*
X183800Y392620D02*
Y473600D01*
Y392620D02*
X183970Y392450D01*
X209687Y503330D02*
X214552Y498465D01*
Y491500D02*
Y498465D01*
X225512Y446048D02*
Y460607D01*
X209687Y503330D02*
Y504142D01*
X211529Y481529D02*
X214552Y484552D01*
X203500Y481529D02*
X211529D01*
X214552Y484552D02*
Y491500D01*
X173541Y473791D02*
X173732Y473600D01*
X190300Y438300D02*
X216364D01*
X216430Y438233D01*
X217064Y437600D01*
X223173Y390233D02*
X223408Y389999D01*
X223152Y390255D02*
X223173Y390233D01*
X223408Y381734D02*
Y389999D01*
Y381734D02*
X223642Y381500D01*
X183970Y392450D02*
X202660D01*
X203030Y392080D01*
X234033Y390200D02*
X240800D01*
X223152Y390255D02*
Y403712D01*
X223130Y403733D02*
X223152Y403712D01*
X223130Y403733D02*
X229830D01*
X203030Y392080D02*
Y403733D01*
X209730D01*
X177347Y493347D02*
X182184D01*
X173541Y489541D02*
X177347Y493347D01*
X173541Y473791D02*
Y489541D01*
X182100Y480000D02*
X182142Y480042D01*
Y486612D02*
X182184Y486654D01*
X188884Y479900D02*
Y504500D01*
X195584Y492921D02*
X202961D01*
X203725Y492158D01*
Y491500D02*
Y492158D01*
X195584Y492921D02*
Y504500D01*
X202284D01*
X182184Y493347D02*
Y504500D01*
X175484D02*
X182184D01*
X133600Y512900D02*
X133619Y512881D01*
Y505019D02*
Y512881D01*
Y505019D02*
X133639Y505000D01*
X147039Y493847D02*
X147065Y493873D01*
X140339Y505000D02*
X147039D01*
Y493847D02*
Y505000D01*
X122653Y190000D02*
Y195500D01*
Y203500D01*
D20*
X172153Y304654D02*
X174000Y306500D01*
X172153Y301500D02*
Y304654D01*
X174000Y306500D02*
Y308500D01*
X176500Y311000D01*
X179232D01*
X642452Y640549D02*
X644060Y642156D01*
X641825Y642653D02*
X642860D01*
X640252Y640485D02*
X640317Y640549D01*
X642452D01*
X640252Y643684D02*
X640794D01*
X641825Y642653D01*
X644060Y642156D02*
Y647809D01*
X642860Y642653D02*
Y648306D01*
X646233Y651679D02*
X647490D01*
X644060Y647809D02*
X646730Y650479D01*
X642860Y648306D02*
X646233Y651679D01*
X646730Y650479D02*
X647490D01*
X582149Y651573D02*
X582500D01*
X581148Y650573D02*
X582149Y651573D01*
X534402Y660100D02*
X537616Y656885D01*
X530502Y660100D02*
X534402D01*
X537616Y656885D02*
X555615D01*
X527300Y656898D02*
X530502Y660100D01*
X524098Y656898D02*
X527300D01*
X561927Y650573D02*
X581148D01*
X555615Y656885D02*
X561927Y650573D01*
X523200Y656000D02*
X524098Y656898D01*
X582149Y648373D02*
X582500D01*
X536805Y656000D02*
X537119Y655686D01*
X555117D01*
X532200Y656000D02*
X536805D01*
X581148Y649373D02*
X582149Y648373D01*
X555117Y655686D02*
X561430Y649373D01*
X581148D01*
X562300Y655200D02*
X572149D01*
X555327Y662173D02*
X562300Y655200D01*
X538175Y662173D02*
X555327D01*
X535225Y660973D02*
X554830D01*
X561803Y654000D02*
X572149D01*
X554830Y660973D02*
X561803Y654000D01*
X536700Y666000D02*
X537810Y664890D01*
Y662538D02*
Y664890D01*
Y662538D02*
X538175Y662173D01*
X573148Y656200D02*
X573500D01*
X572149Y655200D02*
X573148Y656200D01*
Y653000D02*
X573500D01*
X572149Y654000D02*
X573148Y653000D01*
X684700Y614000D02*
X687700Y617000D01*
X682000Y614000D02*
X684700D01*
X687700Y617000D02*
X687700D01*
X671197Y601500D02*
X682197Y612500D01*
X689500D02*
X693051Y616051D01*
X682197Y612500D02*
X689500D01*
X670700Y602700D02*
X682000Y614000D01*
X611277Y601500D02*
X671197D01*
X611774Y602700D02*
X670700D01*
X693051Y616051D02*
X695751D01*
X696700Y617000D01*
X600737Y613737D02*
X611774Y602700D01*
X600240Y612537D02*
X611277Y601500D01*
X703753Y620352D02*
Y637092D01*
X704953Y620352D02*
Y637589D01*
X699745Y641100D02*
X703753Y637092D01*
X700242Y642300D02*
X704953Y637589D01*
X702705Y619000D02*
Y619304D01*
X703753Y620352D01*
X704953D02*
X706000Y619304D01*
Y619000D02*
Y619304D01*
X709515Y651163D02*
X709658Y651020D01*
X703300Y647500D02*
Y647852D01*
X713031Y651020D02*
X713382Y651371D01*
X704300Y648851D02*
Y650108D01*
X705500Y648851D02*
X706500Y647852D01*
X705500Y649611D02*
X705852Y649963D01*
X713528Y649820D02*
X714582Y650874D01*
X709018Y649963D02*
X709161Y649820D01*
X713382Y651371D02*
Y660675D01*
X714582Y650874D02*
Y661172D01*
X704300Y650108D02*
X705354Y651163D01*
X709515D01*
X709658Y651020D02*
X713031D01*
X705852Y649963D02*
X709018D01*
X709161Y649820D02*
X713528D01*
X705500Y648851D02*
Y649611D01*
X703300Y647852D02*
X704300Y648851D01*
X706500Y647500D02*
Y647852D01*
X295000Y410500D02*
X295268Y410768D01*
X304969D01*
X305238Y411037D01*
X249671Y397329D02*
Y423377D01*
Y397329D02*
X253500Y393500D01*
X183000Y374500D02*
Y378000D01*
X183500Y378500D01*
X182000Y373500D02*
X183000Y374500D01*
X173500Y373500D02*
X182000D01*
X171559Y371559D02*
X173500Y373500D01*
X171559Y368232D02*
Y371559D01*
X567957Y557457D02*
X578630D01*
X566000Y555500D02*
X567957Y557457D01*
X557370Y542102D02*
X557370Y542102D01*
X551000Y542461D02*
X551359Y542102D01*
X557370D01*
X564980Y551208D02*
X565324Y551551D01*
X573144D01*
X660931Y552339D02*
X665630D01*
X654096Y551551D02*
X660144D01*
X651980Y553126D02*
X652522D01*
X654096Y551551D01*
X660144D02*
X660931Y552339D01*
X653752Y549780D02*
X665630D01*
X651980Y548008D02*
X653752Y549780D01*
X665604Y547194D02*
X665630Y547221D01*
X657492Y547168D02*
X657518Y547194D01*
X665604D01*
X653730Y544661D02*
X665630D01*
X651958Y542890D02*
X653730Y544661D01*
X644370Y534425D02*
X650425D01*
X652000Y536000D02*
Y539500D01*
X650425Y534425D02*
X652000Y536000D01*
X651957Y539543D02*
X652000Y539500D01*
X649484Y536984D02*
X652000Y539500D01*
X644370Y536984D02*
X649484D01*
X644370Y539543D02*
X651957D01*
X657000Y537007D02*
X665608D01*
X657000Y537007D02*
Y541000D01*
Y537007D02*
X657000Y537007D01*
X657000Y536000D02*
Y537007D01*
X658575Y534425D02*
X665630D01*
X657000Y536000D02*
X658575Y534425D01*
X665608Y537007D02*
X665630Y536984D01*
X594000Y536500D02*
Y537000D01*
Y536500D02*
X596075Y534425D01*
X600870D01*
X616000Y536500D02*
X616016Y536516D01*
Y536984D01*
X616000Y535000D02*
Y536500D01*
X616575Y534425D02*
X622130D01*
X616000Y535000D02*
X616575Y534425D01*
X613000Y540000D02*
X615102Y542102D01*
X613000Y540000D02*
X613056Y539944D01*
X613270Y539730D02*
X616016Y536984D01*
X613056Y539944D02*
X613270Y539730D01*
X616016Y536984D02*
X622130D01*
X621943Y539730D02*
X622130Y539543D01*
X613270Y539730D02*
X621943D01*
X615102Y542102D02*
X622130D01*
X721331Y552169D02*
X721500Y552000D01*
X709130Y552339D02*
X709299Y552169D01*
X721331D01*
X709270Y549640D02*
X718360D01*
X718500Y549500D01*
X709130Y549780D02*
X709270Y549640D01*
X716339Y544661D02*
X718000Y543000D01*
X709130Y544661D02*
X716339D01*
X715390Y547110D02*
X715500Y547000D01*
X709240Y547110D02*
X715390D01*
X709130Y547221D02*
X709240Y547110D01*
X681636Y542102D02*
X687870D01*
X676681Y544661D02*
X687870D01*
X681636Y547221D02*
X687870D01*
X676681Y549780D02*
X687870D01*
X681636Y552339D02*
X687870D01*
X676681Y554898D02*
X687870D01*
X638136Y542102D02*
X644370D01*
X633181Y544661D02*
X644370D01*
X638136Y547221D02*
X644370D01*
X633181Y549780D02*
X644370D01*
X638136Y552339D02*
X644370D01*
X633181Y554898D02*
X644370D01*
X594636Y542102D02*
X600870D01*
X589681Y544661D02*
X600870D01*
X594636Y547221D02*
X600870D01*
X589681Y549780D02*
X600870D01*
X594636Y552339D02*
X600870D01*
X589681Y554898D02*
X600870D01*
X546181Y544661D02*
X557370D01*
X551136Y547221D02*
X557370D01*
X546181Y549780D02*
X557370D01*
X546181Y554898D02*
X557370D01*
X551136Y552339D02*
X557370D01*
X703301Y554898D02*
X709130D01*
X702514Y554110D02*
X703301Y554898D01*
X701972Y554110D02*
X702514D01*
X698937Y555800D02*
X700594Y557457D01*
X709130D01*
X659801Y554898D02*
X665630D01*
X659014Y554110D02*
X659801Y554898D01*
X658472Y554110D02*
X659014D01*
X655437Y555800D02*
X657094Y557457D01*
X665630D01*
X608458Y542890D02*
X610230Y544661D01*
X622130D01*
X614018Y547194D02*
X622104D01*
X622130Y547221D01*
X613992Y547168D02*
X614018Y547194D01*
X608480Y548008D02*
X610252Y549780D01*
X622130D01*
X616301Y554898D02*
X622130D01*
X615514Y554110D02*
X616301Y554898D01*
X614972Y554110D02*
X615514D01*
X610596Y551551D02*
X616644D01*
X609022Y553126D02*
X610596Y551551D01*
X616644D02*
X617431Y552339D01*
X622130D01*
X608480Y553126D02*
X609022D01*
X611937Y555800D02*
X613594Y557457D01*
X622130D01*
X701847Y536984D02*
X704405Y534425D01*
X709130D01*
X701849Y542102D02*
X704408Y539543D01*
X709130D01*
X701847Y536984D02*
X709130D01*
X701849Y542102D02*
X709130D01*
X687870Y534425D02*
X693632D01*
X622084Y534472D02*
X622130Y534425D01*
X572121Y536984D02*
X574680Y534425D01*
X578630D01*
X562039D02*
X564598Y536984D01*
X557370Y534425D02*
X562039D01*
X557370Y536984D02*
X564598D01*
X572121D02*
X578630D01*
X562039Y539543D02*
X564598Y536984D01*
X557370Y539543D02*
X562039D01*
X564958Y542890D02*
X566730Y544661D01*
X578630D01*
X570518Y547194D02*
X578604D01*
X578630Y547221D01*
X570492Y547168D02*
X570518Y547194D01*
X564980Y548008D02*
X566752Y549780D01*
X578630D01*
X572801Y554898D02*
X578630D01*
X572014Y554110D02*
X572801Y554898D01*
X571472Y554110D02*
X572014D01*
X573144Y551551D02*
X573931Y552339D01*
X578630D01*
X537581Y437919D02*
X539060Y439398D01*
X550500D01*
X554220Y443118D01*
Y468917D01*
X548150Y474988D02*
X554220Y468917D01*
X533848Y474988D02*
X548150D01*
X531000Y472140D02*
X533848Y474988D01*
X478413Y459617D02*
Y460000D01*
Y455509D02*
Y459617D01*
X476187Y435660D02*
Y438666D01*
Y435660D02*
X476346Y435500D01*
X463475Y439254D02*
X475599D01*
X476187Y438666D01*
X461095Y441634D02*
X463475Y439254D01*
X461095Y441634D02*
Y451651D01*
X463338Y453895D01*
X476799D01*
X478413Y455509D01*
X481597Y428500D02*
Y434969D01*
X476346Y428500D02*
X481597D01*
X485072D01*
X478413Y468051D02*
X485363Y475000D01*
X528139D02*
X531000Y472140D01*
X485363Y475000D02*
X528139D01*
X478413Y460000D02*
Y468051D01*
X526500Y457654D02*
X530000D01*
X531000Y458653D01*
Y472140D01*
X475187Y388911D02*
Y393511D01*
X542687Y388911D02*
Y393511D01*
X520187Y388911D02*
Y393511D01*
X497687Y388911D02*
Y393511D01*
X488726Y419220D02*
X491201D01*
X487000Y418000D02*
X487505D01*
X488726Y419220D01*
X494000Y416311D02*
X494055Y416366D01*
X494000Y414000D02*
Y416311D01*
X493500Y413500D02*
X494000Y414000D01*
X488000Y413500D02*
X493500D01*
X496024Y413024D02*
Y416366D01*
X494500Y411500D02*
X496024Y413024D01*
X493021Y411500D02*
X494500D01*
X492200Y410679D02*
X493021Y411500D01*
X490179Y410679D02*
X492200D01*
X490000Y410500D02*
X490179Y410679D01*
X501856Y416293D02*
X501929Y416366D01*
X501856Y409856D02*
Y416293D01*
X501500Y409500D02*
X501856Y409856D01*
X645000Y378900D02*
Y393728D01*
Y372272D02*
Y378900D01*
X639905D02*
X645000D01*
X650000Y460228D02*
Y462011D01*
Y454777D02*
Y460228D01*
Y426728D02*
Y432000D01*
X665000Y435500D02*
Y438772D01*
X664000Y434500D02*
X665000Y435500D01*
X648000Y434500D02*
X664000D01*
X646500Y433000D02*
X648000Y434500D01*
X638000Y433000D02*
X646500D01*
X633500Y437500D02*
X638000Y433000D01*
X633500Y437500D02*
Y448320D01*
X639000Y434500D02*
X644000D01*
X636000Y437500D02*
Y443761D01*
Y437500D02*
X639000Y434500D01*
X644000D02*
X644928Y435428D01*
Y438699D02*
X645000Y438772D01*
X644928Y435428D02*
Y438699D01*
X713652Y482348D02*
X716303Y485000D01*
X721000D01*
X721497Y483800D02*
X725000Y487303D01*
X714852Y481851D02*
X716800Y483800D01*
X721000Y485000D02*
X723800Y487800D01*
X716800Y483800D02*
X721497D01*
X713652Y469151D02*
Y482348D01*
X714852Y463649D02*
Y481851D01*
X709000Y464500D02*
X713652Y469151D01*
X714852Y463649D02*
X719000Y459500D01*
X725000Y487303D02*
Y493773D01*
X686668Y516500D02*
X702273D01*
X725000Y493773D01*
X675338Y505171D02*
X686668Y516500D01*
X669007Y505171D02*
X675338D01*
X667751Y506347D02*
X668040D01*
X668656Y505731D01*
X666181Y507917D02*
X667751Y506347D01*
X668656Y505522D02*
X669007Y505171D01*
X668656Y505522D02*
Y505731D01*
X664611Y506347D02*
X666181Y507917D01*
X663706Y505731D02*
X664323Y506347D01*
X664611D01*
X663355Y505171D02*
X663706Y505522D01*
Y505731D01*
X634800Y496616D02*
X643355Y505171D01*
X663355D01*
X634800Y486022D02*
Y496616D01*
X644400Y475878D02*
Y478301D01*
X642081Y473559D02*
X644400Y475878D01*
X640201Y482500D02*
X644400Y478301D01*
X640814Y473559D02*
X642081D01*
X638322Y482500D02*
X640201D01*
X634800Y486022D02*
X638322Y482500D01*
X640000Y471772D02*
Y472745D01*
X640814Y473559D01*
X687165Y515300D02*
X701776D01*
X723800Y493276D01*
X675836Y503971D02*
X687165Y515300D01*
X669007Y503971D02*
X675836D01*
X668656Y503619D02*
X669007Y503971D01*
X668656Y503411D02*
Y503619D01*
X668040Y502795D02*
X668656Y503411D01*
X667751Y502795D02*
X668040D01*
X666181Y501224D02*
X667751Y502795D01*
X723800Y487800D02*
Y493276D01*
X663706Y503411D02*
X664323Y502795D01*
X663706Y503411D02*
Y503619D01*
X664611Y502795D02*
X666181Y501224D01*
X664323Y502795D02*
X664611D01*
X643852Y503971D02*
X663355D01*
X636000Y496119D02*
X643852Y503971D01*
X663355D02*
X663706Y503619D01*
X636000Y486519D02*
Y496119D01*
X647919Y473559D02*
X649186D01*
X645600Y475878D02*
X647919Y473559D01*
X650000Y471772D02*
Y472745D01*
X649186Y473559D02*
X650000Y472745D01*
X638819Y483700D02*
X640698D01*
X636000Y486519D02*
X638819Y483700D01*
X645600Y475878D02*
Y478798D01*
X640698Y483700D02*
X645600Y478798D01*
X519646Y414092D02*
X521238Y412500D01*
X525000D01*
X519646Y414092D02*
Y416366D01*
X517677Y413823D02*
Y416366D01*
Y413823D02*
X522000Y409500D01*
X518000Y408400D02*
Y411000D01*
X515709Y413291D02*
X518000Y411000D01*
X515709Y413291D02*
Y416366D01*
X513740Y411760D02*
X515000Y410500D01*
X513740Y411760D02*
Y416366D01*
X507835Y412707D02*
Y416366D01*
Y412707D02*
X509000Y411541D01*
Y411000D02*
Y411541D01*
X503898Y411644D02*
X505000Y410541D01*
X503898Y411644D02*
Y416366D01*
X505000Y410000D02*
Y410541D01*
X537581Y435572D02*
X537653Y435500D01*
X537581Y435572D02*
Y437919D01*
X527108Y416098D02*
Y421811D01*
X525762Y423158D02*
X527108Y421811D01*
X522500Y423158D02*
X525762D01*
X476346Y435500D02*
X476799Y435953D01*
X480613D01*
X481597Y434969D01*
X530776Y431032D02*
X532437Y429370D01*
X522500Y431032D02*
X530776D01*
X525590Y436937D02*
X526866Y435661D01*
X522500Y436937D02*
X525590D01*
X526866Y435661D02*
X527407D01*
X522500Y438905D02*
X529088D01*
X532493Y435500D01*
X519646Y446244D02*
X521713Y448311D01*
X519646Y443728D02*
Y446244D01*
X513740Y443728D02*
Y446590D01*
X515638Y448487D01*
X501929Y447349D02*
X503039Y448459D01*
X501929Y443728D02*
Y447349D01*
X503039Y448459D02*
Y449000D01*
X505866Y448046D02*
Y449700D01*
X500500Y455066D02*
Y457654D01*
Y455066D02*
X505866Y449700D01*
X503898Y446078D02*
X505866Y448046D01*
X503898Y443728D02*
Y446078D01*
X496024Y446995D02*
X497500Y448471D01*
X496024Y443728D02*
Y446995D01*
X497500Y448471D02*
Y448630D01*
X484107Y439911D02*
X485113Y438905D01*
X491201D01*
X483566Y439911D02*
X484107D01*
X486488Y434311D02*
X487800Y433000D01*
X491201D01*
X486000Y434311D02*
X486488D01*
X537653Y407000D02*
Y409645D01*
X536697Y410602D02*
X537653Y409645D01*
X533895Y410602D02*
X536697D01*
X533347Y411151D02*
X533895Y410602D01*
X533347Y411151D02*
Y418019D01*
X529179Y422187D02*
X533347Y418019D01*
X529179Y422187D02*
Y425126D01*
X527210Y427095D02*
X529179Y425126D01*
X522500Y427095D02*
X527210D01*
X522507Y433007D02*
X530000D01*
X522500Y433000D02*
X522507Y433007D01*
X530000D02*
X532493Y435500D01*
X537653D01*
Y428500D02*
Y435500D01*
X520000Y457654D02*
X526500D01*
X519000Y452796D02*
X519994Y451802D01*
Y449978D02*
Y451802D01*
X517677Y447662D02*
X519994Y449978D01*
X517677Y443728D02*
Y447662D01*
X519000Y452796D02*
X520000Y453796D01*
Y457654D01*
X516294Y452796D02*
X519000D01*
X511772Y448273D02*
X516294Y452796D01*
X511772Y443728D02*
Y448273D01*
X509803Y449260D02*
X513500Y452957D01*
Y457654D01*
X509803Y443728D02*
Y449260D01*
X507000Y457654D02*
X507835Y456819D01*
Y443728D02*
Y456819D01*
X494055Y452024D02*
Y457598D01*
Y443728D02*
Y452024D01*
X497914D01*
X499961Y449978D01*
Y443728D02*
Y449978D01*
X494000Y457654D02*
X494055Y457598D01*
X487500Y457654D02*
X494000D01*
X478413Y459617D02*
X480377Y457654D01*
X487500D01*
X481597Y434969D02*
X483566Y436937D01*
X491201D01*
X485072Y428500D02*
X487603Y431032D01*
X491201D01*
X476346Y421500D02*
X481597D01*
X487192Y427095D01*
X491201D01*
X527700Y666000D02*
X528750Y664950D01*
X531249D01*
X535225Y660973D01*
X669700Y617000D02*
X673600Y613100D01*
X674800D02*
X678700Y617000D01*
X673600Y610999D02*
Y613100D01*
X668925Y604627D02*
X674800Y610502D01*
X668428Y605827D02*
X673600Y610999D01*
X613212Y604627D02*
X668925D01*
X674800Y610502D02*
Y613100D01*
X610920Y608615D02*
Y608615D01*
X613709Y605827D02*
X668428D01*
X601839Y616000D02*
X609223Y608615D01*
X602336Y617200D02*
X610920Y608615D01*
Y608615D02*
X613709Y605827D01*
X609223Y608615D02*
X613212Y604627D01*
X583503Y617200D02*
X602336D01*
X579972Y611972D02*
X584000Y616000D01*
X578772Y612469D02*
X583503Y617200D01*
X584000Y616000D02*
X601839D01*
X578772Y600601D02*
Y612469D01*
X579972Y601098D02*
Y611972D01*
X578772Y600601D02*
X582492Y596881D01*
X579972Y601098D02*
X582989Y598081D01*
X582492Y596881D02*
X587935D01*
X582989Y598081D02*
X587438D01*
X587935Y596881D02*
X590058Y599003D01*
X587438Y598081D02*
X588858Y599500D01*
X590058Y599003D02*
Y601393D01*
X588858Y599500D02*
Y600896D01*
X588155Y603296D02*
X590058Y601393D01*
X587657Y602096D02*
X588858Y600896D01*
X585541Y604296D02*
X586541Y603296D01*
X585189Y601096D02*
X585541D01*
X586541Y602096D02*
X587657D01*
X585189Y604296D02*
X585541D01*
X586541Y603296D02*
X588155D01*
X585541Y601096D02*
X586541Y602096D01*
X586082Y612537D02*
X600240D01*
X585000Y613737D02*
X600737D01*
X585572Y612028D02*
X586082Y612537D01*
X585572Y611198D02*
Y612028D01*
X585189Y610815D02*
X585572Y611198D01*
X582989Y609815D02*
X585189Y607615D01*
X582989Y611727D02*
X585000Y613737D01*
X582989Y609815D02*
Y611727D01*
X696391Y621700D02*
X698552Y623861D01*
X697352Y624358D02*
Y628853D01*
X691600Y634604D02*
X697352Y628853D01*
X692800Y635101D02*
X698552Y629350D01*
Y623861D02*
Y629350D01*
X695894Y622900D02*
X697352Y624358D01*
X653301Y622900D02*
X695894D01*
X691600Y634604D02*
Y635598D01*
X691249Y635950D02*
X691600Y635598D01*
X687700Y637000D02*
X688750Y635950D01*
X691249D01*
X695650D02*
X696700Y637000D01*
X693152Y635950D02*
X695650D01*
X692800Y635598D02*
X693152Y635950D01*
X692800Y635101D02*
Y635598D01*
X653798Y621700D02*
X696391D01*
X644635Y612537D02*
X653798Y621700D01*
X644138Y613737D02*
X653301Y622900D01*
X619617Y614737D02*
X620616Y613737D01*
X619617Y611537D02*
X620616Y612537D01*
X619265Y614737D02*
X619617D01*
X620616Y613737D02*
X644138D01*
X619265Y611537D02*
X619617D01*
X620616Y612537D02*
X644635D01*
X648490Y649479D02*
X648841D01*
X647490Y651679D02*
X648490Y652679D01*
X648841D01*
X647490Y650479D02*
X648490Y649479D01*
X698524Y675534D02*
X713382Y660675D01*
X699021Y676734D02*
X714582Y661172D01*
X678940Y676734D02*
X699021D01*
X669276Y631573D02*
X673850Y627000D01*
X674200D01*
X665200D02*
X668428Y630228D01*
X668295Y632554D02*
X669276Y631573D01*
X667798Y631354D02*
X668428Y630725D01*
X665200Y627000D02*
X665200D01*
X668428Y630228D02*
Y630725D01*
X654516Y631354D02*
X667798D01*
X642010Y618849D02*
X654516Y631354D01*
X641513Y620049D02*
X654019Y632554D01*
X668295D01*
X636351Y617848D02*
X637352Y618849D01*
Y620049D02*
X641513D01*
X636000Y621048D02*
X636351D01*
X637352Y618849D02*
X642010D01*
X636000Y617848D02*
X636351D01*
Y621048D02*
X637352Y620049D01*
X674600Y641900D02*
X678700Y646000D01*
X656967Y641900D02*
X674600D01*
X648421Y633354D02*
X656967Y641900D01*
X656199Y649171D02*
X657127Y650100D01*
X656199Y642829D02*
Y649171D01*
X647924Y634554D02*
X656199Y642829D01*
X665600Y650100D02*
X669700Y646000D01*
X657127Y650100D02*
X665600D01*
X642951Y632354D02*
X643952Y633354D01*
X642600Y635554D02*
X642951D01*
X643952Y634554D01*
X642600Y632354D02*
X642951D01*
X643952Y633354D02*
X648421D01*
X643952Y634554D02*
X647924D01*
X695802Y641100D02*
X699745D01*
X698301Y642300D02*
X700242D01*
X696700Y646000D02*
X697810Y644890D01*
Y642791D02*
Y644890D01*
X688598Y645102D02*
X691800D01*
X697810Y642791D02*
X698301Y642300D01*
X691800Y645102D02*
X695802Y641100D01*
X687700Y646000D02*
X688598Y645102D01*
X669700Y666000D02*
X673600Y669900D01*
X674800D02*
X678700Y666000D01*
X669700D02*
X669700D01*
X673600Y669900D02*
Y671394D01*
X678700Y666000D02*
X678700D01*
X674800Y669900D02*
Y670897D01*
X673600Y671394D02*
X678940Y676734D01*
X674800Y670897D02*
X679437Y675534D01*
X698524D01*
X548205Y642860D02*
X548557D01*
X544638Y643860D02*
X547205D01*
X548205Y646060D02*
X548557D01*
X534505Y651300D02*
X538895D01*
X532800Y647898D02*
X535002Y650100D01*
X538398D02*
X544638Y643860D01*
X535002Y650100D02*
X538398D01*
X538895Y651300D02*
X545135Y645060D01*
X531600Y648395D02*
X534505Y651300D01*
X547205Y645060D02*
X548205Y646060D01*
X547205Y643860D02*
X548205Y642860D01*
X545135Y645060D02*
X547205D01*
X532800Y647401D02*
X533151Y647050D01*
X531249D02*
X531600Y647401D01*
X528750Y647050D02*
X531249D01*
X527700Y646000D02*
X528750Y647050D01*
X531600Y647401D02*
Y648395D01*
X532800Y647401D02*
Y647898D01*
X533151Y647050D02*
X535650D01*
X536700Y646000D01*
X544478Y621888D02*
X545478Y622888D01*
X537798Y621700D02*
X538810Y620688D01*
X544478D01*
X545478Y619688D02*
X545829D01*
X545478Y622888D02*
X545829D01*
X544478Y620688D02*
X545478Y619688D01*
X539308Y621888D02*
X544478D01*
X528300Y625599D02*
X528652Y625950D01*
X528300Y625102D02*
Y625599D01*
Y625102D02*
X530502Y622900D01*
X538295D01*
X539308Y621888D01*
X523200Y627000D02*
X524250Y625950D01*
X527100Y624605D02*
X530005Y621700D01*
X528652Y625950D02*
X531150D01*
X526749D02*
X527100Y625599D01*
X530005Y621700D02*
X537798D01*
X527100Y624605D02*
Y625599D01*
X531150Y625950D02*
X532200Y627000D01*
X524250Y625950D02*
X526749D01*
X514600Y641900D02*
X518700Y646000D01*
X497127Y641900D02*
X514600D01*
X496600Y642427D02*
X497127Y641900D01*
X496600Y642427D02*
Y644449D01*
X496248Y644800D02*
X496600Y644449D01*
X493240Y644800D02*
X496248D01*
X505600Y650100D02*
X509700Y646000D01*
X496600Y649573D02*
X497127Y650100D01*
X496600Y646351D02*
Y649573D01*
X489011Y640571D02*
X493240Y644800D01*
X496248Y646000D02*
X496600Y646351D01*
X492743Y646000D02*
X496248D01*
X487811Y641068D02*
X492743Y646000D01*
X497127Y650100D02*
X505600D01*
X489011Y628239D02*
Y640571D01*
X491551Y617584D02*
X492551Y618584D01*
X487811Y627742D02*
X492551Y623002D01*
X494751Y617232D02*
Y617584D01*
X493751Y618584D02*
Y623499D01*
X491551Y617232D02*
Y617584D01*
X492551Y618584D02*
Y623002D01*
X487811Y627742D02*
Y641068D01*
X493751Y618584D02*
X494751Y617584D01*
X489011Y628239D02*
X493751Y623499D01*
X718639Y489861D02*
X719000Y489500D01*
X706889Y489861D02*
X718639D01*
X698203Y502007D02*
X699773Y500437D01*
X697299Y502623D02*
Y502832D01*
Y502623D02*
X697915Y502007D01*
X696947Y503184D02*
X697299Y502832D01*
X697915Y502007D02*
X698203D01*
X693917Y503184D02*
X696947D01*
X692224Y501490D02*
X693917Y503184D01*
X681871Y501490D02*
X692224D01*
X677000Y496619D02*
X681871Y501490D01*
X677000Y490845D02*
Y496619D01*
X665600Y479445D02*
X677000Y490845D01*
X670000Y471772D02*
Y472745D01*
X665600Y475878D02*
X667919Y473559D01*
X665600Y475878D02*
Y479445D01*
X669186Y473559D02*
X670000Y472745D01*
X667919Y473559D02*
X669186D01*
X707539Y494500D02*
X709000D01*
X706035Y492996D02*
X707539Y494500D01*
X704954Y492996D02*
X706035D01*
X698203Y505560D02*
X699773Y507130D01*
X697915Y505560D02*
X698203D01*
X697299Y504944D02*
X697915Y505560D01*
X697299Y504735D02*
Y504944D01*
X696947Y504384D02*
X697299Y504735D01*
X693420Y504384D02*
X696947D01*
X691727Y502690D02*
X693420Y504384D01*
X681374Y502690D02*
X691727D01*
X675800Y497116D02*
X681374Y502690D01*
X675800Y491342D02*
Y497116D01*
X664400Y479942D02*
X675800Y491342D01*
X664400Y475878D02*
Y479942D01*
X662081Y473559D02*
X664400Y475878D01*
X660000Y472745D02*
X660814Y473559D01*
X662081D01*
X660000Y471772D02*
Y472745D01*
X703632Y494318D02*
X704954Y492996D01*
X702432Y493821D02*
X704457Y491796D01*
X704954D01*
X703632Y494318D02*
Y495312D01*
X704954Y491796D02*
X706889Y489861D01*
X702432Y495809D02*
X704501Y497878D01*
X702432Y493821D02*
Y495809D01*
X703632Y495312D02*
X705701Y497381D01*
X704501Y497878D02*
Y502832D01*
X705701Y497381D02*
Y503329D01*
X704150Y503184D02*
X704501Y502832D01*
X704647Y504384D02*
X705701Y503329D01*
X702600Y503184D02*
X704150D01*
X702600Y504384D02*
X704647D01*
X702248Y502623D02*
Y502832D01*
X701343Y502007D02*
X701632D01*
X702248Y502832D02*
X702600Y503184D01*
X701632Y502007D02*
X702248Y502623D01*
X699773Y500437D02*
X701343Y502007D01*
X699773Y507130D02*
X701343Y505560D01*
X701632D01*
X702248Y504944D01*
Y504735D02*
Y504944D01*
Y504735D02*
X702600Y504384D01*
X645600Y445173D02*
X650111Y449684D01*
X649186Y440559D02*
X650000Y439745D01*
Y438772D02*
Y439745D01*
X645600Y442877D02*
X647919Y440559D01*
X645600Y442877D02*
Y445173D01*
X647919Y440559D02*
X649186D01*
X690332Y455332D02*
X694500Y459500D01*
X687847Y455332D02*
X690332D01*
X644400Y445670D02*
X649614Y450884D01*
X682922D01*
X644400Y442877D02*
Y445670D01*
X642081Y440559D02*
X644400Y442877D01*
X640814Y440559D02*
X642081D01*
X640000Y439745D02*
X640814Y440559D01*
X640000Y438772D02*
Y439745D01*
X683906Y463906D02*
X684500Y464500D01*
X683906Y460600D02*
Y463906D01*
X681153Y455332D02*
Y457848D01*
X683906Y460600D01*
X682922Y450884D02*
X683900Y451862D01*
X650111Y449684D02*
X683419D01*
X685100Y451365D01*
Y452505D01*
X683340Y452857D02*
X683548D01*
X683900Y451862D02*
Y452505D01*
X683548Y452857D02*
X683900Y452505D01*
X686276Y453761D02*
X687847Y455332D01*
X686276Y453473D02*
Y453761D01*
X681153Y455332D02*
X682724Y453761D01*
X685660Y452857D02*
X686276Y453473D01*
X682724D02*
Y453761D01*
X685452Y452857D02*
X685660D01*
X682724Y453473D02*
X683340Y452857D01*
X685100Y452505D02*
X685452Y452857D01*
X696363Y496937D02*
X696363D01*
X703049Y490251D01*
X696363Y496937D02*
X696363Y496937D01*
X686937Y496937D02*
X696363D01*
X684500Y494500D02*
X686937Y496937D01*
X708665Y451191D02*
X710235Y452761D01*
X708665Y450130D02*
Y451191D01*
X705820Y447284D02*
X708665Y450130D01*
X668208Y447284D02*
X705820D01*
X670000Y438772D02*
Y439745D01*
X669186Y440559D02*
X670000Y439745D01*
X665600Y442877D02*
Y444676D01*
X668208Y447284D01*
X667919Y440559D02*
X669186D01*
X665600Y442877D02*
X667919Y440559D01*
X695866Y495737D02*
X695866Y495737D01*
X695866D01*
X694400Y495737D02*
X695866D01*
X695866Y495737D02*
X701849Y489754D01*
X694049Y489952D02*
Y495385D01*
Y489952D02*
X694500Y489500D01*
X694049Y495385D02*
X694400Y495737D01*
X705113Y450546D02*
X706000Y449658D01*
Y449161D02*
Y449658D01*
X705323Y448484D02*
X706000Y449161D01*
X703543Y452761D02*
X705113Y451191D01*
Y450546D02*
Y451191D01*
X667711Y448484D02*
X705323D01*
X664400Y445173D02*
X667711Y448484D01*
X664400Y442877D02*
Y445173D01*
X662081Y440559D02*
X664400Y442877D01*
X660000Y439745D02*
X660814Y440559D01*
X662081D01*
X660000Y438772D02*
Y439745D01*
X701849Y460940D02*
X706289Y456500D01*
X701849Y460940D02*
Y489754D01*
X703049Y461438D02*
X707489Y456997D01*
X703049Y461438D02*
Y490251D01*
X703049D02*
X703049D01*
X706289Y455588D02*
Y456500D01*
X707489Y455588D02*
Y456997D01*
X705729Y455236D02*
X705937D01*
X708665Y454331D02*
X710235Y452761D01*
X705937Y455236D02*
X706289Y455588D01*
X708665Y454331D02*
Y454620D01*
X705113D02*
X705729Y455236D01*
X707489Y455588D02*
X707840Y455236D01*
X708049D02*
X708665Y454620D01*
X705113Y454331D02*
Y454620D01*
X707840Y455236D02*
X708049D01*
X703543Y452761D02*
X705113Y454331D01*
X704501Y428168D02*
X710800D01*
X699173Y431799D02*
Y436918D01*
Y431799D02*
X704004Y426968D01*
X700373Y432296D02*
Y436918D01*
X704004Y426968D02*
X718469D01*
X700373Y432296D02*
X704501Y428168D01*
X718469Y426968D02*
X719000Y427500D01*
X699173Y442571D02*
Y443514D01*
X698822Y442219D02*
X699173Y442571D01*
X698526Y444161D02*
X699173Y443514D01*
X698613Y442219D02*
X698822D01*
X697997Y441603D02*
X698613Y442219D01*
X697997Y441315D02*
Y441603D01*
X692567Y444161D02*
X698526D01*
X696427Y439745D02*
X697997Y441315D01*
X690435Y442029D02*
X692567Y444161D01*
X674952Y435748D02*
X681233Y442029D01*
X690435D01*
X674952Y421319D02*
Y435748D01*
X665600Y411967D02*
X674952Y421319D01*
X670000Y405272D02*
Y406245D01*
X665600Y409377D02*
X667919Y407059D01*
X665600Y409377D02*
Y411967D01*
X669186Y407059D02*
X670000Y406245D01*
X667919Y407059D02*
X669186D01*
X709000Y431287D02*
Y432500D01*
X710800Y428168D02*
X711152Y428520D01*
X709000Y431287D02*
X711152Y429136D01*
Y428520D02*
Y429136D01*
X701550Y441315D02*
Y441603D01*
X700725Y442219D02*
X700934D01*
X701550Y441603D01*
X700373Y442571D02*
X700725Y442219D01*
X701550Y441315D02*
X703120Y439745D01*
X692070Y445361D02*
X699023D01*
X700373Y444011D01*
X689938Y443229D02*
X692070Y445361D01*
X700373Y442571D02*
Y444011D01*
X680735Y443229D02*
X689938D01*
X673751Y436245D02*
X680735Y443229D01*
X673751Y421816D02*
Y436245D01*
X664400Y412465D02*
X673751Y421816D01*
X664400Y409377D02*
Y412465D01*
X662081Y407059D02*
X664400Y409377D01*
X660000Y406245D02*
X660814Y407059D01*
X662081D01*
X660000Y405272D02*
Y406245D01*
X701550Y437886D02*
Y438174D01*
X700934Y437270D02*
X701550Y437886D01*
X700725Y437270D02*
X700934D01*
X698822D02*
X699173Y436918D01*
X697997Y437886D02*
X698613Y437270D01*
X700373Y436918D02*
X700725Y437270D01*
X698613D02*
X698822D01*
X701550Y438174D02*
X703120Y439745D01*
X696427D02*
X697997Y438174D01*
Y437886D02*
Y438174D01*
X678864Y393695D02*
X679215Y394046D01*
X680415D02*
Y397126D01*
X678255Y399287D02*
X680415Y397126D01*
X677055Y398790D02*
Y435118D01*
X679215Y394046D02*
Y396629D01*
X677055Y398790D02*
X679215Y396629D01*
X678255Y399287D02*
Y434621D01*
X679215Y387429D02*
Y388394D01*
X678039Y393079D02*
X678655Y393695D01*
X678864D01*
X678039Y389361D02*
X678655Y388745D01*
X678039Y392790D02*
Y393079D01*
X676469Y391220D02*
X678039Y392790D01*
Y389361D02*
Y389650D01*
X676469Y391220D02*
X678039Y389650D01*
X678655Y388745D02*
X678864D01*
X679215Y388394D01*
X677148Y385362D02*
X679215Y387429D01*
X669397Y385362D02*
X677148D01*
X664400Y380365D02*
X669397Y385362D01*
X662081Y374059D02*
X664400Y376378D01*
Y380365D01*
X660000Y373245D02*
X660814Y374059D01*
X662081D01*
X660000Y372272D02*
Y373245D01*
X690995Y431502D02*
X691700Y432208D01*
X689327Y439368D02*
X691349Y437347D01*
X681305Y439368D02*
X689327D01*
X691700Y432208D02*
Y436995D01*
X691349Y437347D02*
X691700Y436995D01*
X690995Y431005D02*
Y431502D01*
Y431005D02*
X694500Y427500D01*
X681592Y392790D02*
Y393079D01*
Y392790D02*
X683162Y391220D01*
X681592Y389361D02*
Y389650D01*
X683162Y391220D01*
X680767Y393695D02*
X680976D01*
X681592Y393079D01*
X680976Y388745D02*
X681592Y389361D01*
X680767Y388745D02*
X680976D01*
X680415Y388394D02*
X680767Y388745D01*
X680415Y394046D02*
X680767Y393695D01*
X680415Y386932D02*
Y388394D01*
X677645Y384162D02*
X680415Y386932D01*
X669894Y384162D02*
X677645D01*
X670000Y372272D02*
Y373245D01*
X665600Y376378D02*
Y379868D01*
Y376378D02*
X667919Y374059D01*
X665600Y379868D02*
X669894Y384162D01*
X669186Y374059D02*
X670000Y373245D01*
X667919Y374059D02*
X669186D01*
X688830Y438168D02*
X690500Y436498D01*
Y432705D02*
Y436498D01*
X684500Y432500D02*
X684649Y432351D01*
X690146D02*
X690500Y432705D01*
X684649Y432351D02*
X690146D01*
X678255Y434621D02*
X681802Y438168D01*
X677055Y435118D02*
X681305Y439368D01*
X681802Y438168D02*
X688830D01*
X696837Y369888D02*
X697046D01*
X696221Y370504D02*
X696837Y369888D01*
X697397Y368087D02*
Y369537D01*
X697046Y369888D02*
X697397Y369537D01*
X694651Y372363D02*
X696221Y370793D01*
X650000Y371299D02*
Y372272D01*
X696221Y370504D02*
Y370793D01*
X649186Y370485D02*
X650000Y371299D01*
X693695Y364385D02*
X697397Y368087D01*
X647039Y364385D02*
X693695D01*
X647919Y370485D02*
X649186D01*
X645600Y368166D02*
X647919Y370485D01*
X645600Y365824D02*
X647039Y364385D01*
X645600Y365824D02*
Y368166D01*
X697500Y402039D02*
X700000Y399539D01*
Y387165D02*
Y399539D01*
X692563Y402039D02*
X697500D01*
X691510Y400490D02*
Y400987D01*
Y400490D02*
X694500Y397500D01*
X691510Y400987D02*
X692563Y402039D01*
X699773Y370793D02*
X701343Y372363D01*
X699157Y369888D02*
X699773Y370504D01*
Y370793D01*
X698597Y369537D02*
X698948Y369888D01*
X699157D01*
X698597Y367590D02*
Y369537D01*
X644400Y365327D02*
Y368166D01*
X694192Y363185D02*
X698597Y367590D01*
X642081Y370485D02*
X644400Y368166D01*
X646542Y363185D02*
X694192D01*
X644400Y365327D02*
X646542Y363185D01*
X640000Y371299D02*
Y372272D01*
X640814Y370485D02*
X642081D01*
X640000Y371299D02*
X640814Y370485D01*
X701200Y386667D02*
Y400036D01*
X692066Y403239D02*
X697997D01*
X701200Y400036D01*
X690662Y401835D02*
X692066Y403239D01*
X685165Y401835D02*
X690662D01*
X684500Y402500D02*
X685165Y401835D01*
X694651Y372363D02*
X696221Y373933D01*
Y374222D01*
X696837Y374838D01*
X697046D01*
X697397Y375189D01*
Y384562D01*
X699773Y373933D02*
X701343Y372363D01*
X699773Y373933D02*
Y374222D01*
X698597Y375189D02*
Y384065D01*
X698948Y374838D02*
X699157D01*
X698597Y375189D02*
X698948Y374838D01*
X699157D02*
X699773Y374222D01*
X698597Y384065D02*
X701200Y386667D01*
X697397Y384562D02*
X700000Y387165D01*
X643128Y359938D02*
X705693D01*
X643625Y361138D02*
X705196D01*
X649186Y407059D02*
X650000Y406245D01*
Y405272D02*
Y406245D01*
X638423Y413021D02*
X644227D01*
X645600Y411648D01*
X636505Y411103D02*
X638423Y413021D01*
X645600Y409377D02*
X647919Y407059D01*
X649186D01*
X645600Y409377D02*
Y411648D01*
X636505Y366561D02*
Y411103D01*
Y366561D02*
X643128Y359938D01*
X713817Y402851D02*
Y405620D01*
X713465Y402500D02*
X713817Y402851D01*
X713776Y373933D02*
X715346Y372363D01*
X712968Y406468D02*
X713817Y405620D01*
X712600Y375189D02*
Y380900D01*
X713160Y374838D02*
X713776Y374222D01*
Y373933D02*
Y374222D01*
X712952Y374838D02*
X713160D01*
X706879Y406945D02*
X712491D01*
X704436Y404502D02*
X706879Y406945D01*
X712491D02*
X712968Y406468D01*
X709000Y402500D02*
X713465D01*
X704436Y389064D02*
X712000Y381500D01*
X712600Y380900D01*
Y375189D02*
X712952Y374838D01*
X704436Y389064D02*
Y404502D01*
X643730Y411821D02*
X644400Y411151D01*
Y409377D02*
Y411151D01*
X638920Y411821D02*
X643730D01*
X642081Y407059D02*
X644400Y409377D01*
X640000Y406245D02*
X640814Y407059D01*
X637705Y410606D02*
X638920Y411821D01*
X640814Y407059D02*
X642081D01*
X640000Y405272D02*
Y406245D01*
X637705Y367058D02*
Y410606D01*
Y367058D02*
X643625Y361138D01*
X712989Y408145D02*
X715017Y406117D01*
Y401483D02*
X719000Y397500D01*
X715017Y401483D02*
Y406117D01*
X711400Y375189D02*
Y380403D01*
X711049Y374838D02*
X711400Y375189D01*
X710840Y374838D02*
X711049D01*
X710224Y373933D02*
Y374222D01*
X706382Y408145D02*
X712989D01*
X703236Y404999D02*
X706382Y408145D01*
X710224Y374222D02*
X710840Y374838D01*
X703236Y388567D02*
X711400Y380403D01*
X708653Y372363D02*
X710224Y373933D01*
X703236Y388567D02*
Y404999D01*
X705196Y361138D02*
X711400Y367342D01*
X705693Y359938D02*
X712600Y366845D01*
Y369537D01*
X713776Y370504D02*
Y370793D01*
X713160Y369888D02*
X713776Y370504D01*
X712952Y369888D02*
X713160D01*
X712600Y369537D02*
X712952Y369888D01*
X708653Y372363D02*
X710224Y370793D01*
Y370504D02*
Y370793D01*
Y370504D02*
X710840Y369888D01*
X711400Y367342D02*
Y369537D01*
X713776Y370793D02*
X715346Y372363D01*
X710840Y369888D02*
X711049D01*
X711400Y369537D01*
X583500Y402976D02*
X588187D01*
X578814D02*
X583500D01*
Y411151D02*
X588187D01*
X578814D02*
X583500D01*
X583489Y419325D02*
X588187D01*
X578814D02*
X583489D01*
X583500Y427500D02*
X588187D01*
X578814D02*
X583500D01*
Y435675D02*
X588187D01*
X578814D02*
X583500D01*
Y443850D02*
X588187D01*
X578814D02*
X583500D01*
Y452024D02*
X588187D01*
X578814D02*
X583500D01*
Y460199D02*
X588187D01*
X578814D02*
X583500D01*
X594994Y402861D02*
X600667D01*
X594879Y402976D02*
X594994Y402861D01*
X595040Y411311D02*
X601123D01*
X594879Y411151D02*
X595040Y411311D01*
X594915Y419361D02*
X601123D01*
X594879Y419325D02*
X594915Y419361D01*
X595090Y427711D02*
X601123D01*
X594879Y427500D02*
X595090Y427711D01*
X594952Y435748D02*
X601123D01*
X594879Y435675D02*
X594952Y435748D01*
X594918Y443811D02*
X601123D01*
X594879Y443850D02*
X594918Y443811D01*
X595116Y452261D02*
X601123D01*
X594879Y452024D02*
X595116Y452261D01*
X594909Y460228D02*
X601123D01*
X594879Y460199D02*
X594909Y460228D01*
X663250Y482585D02*
X665000Y484335D01*
X661500Y480835D02*
X663250Y482585D01*
Y482750D01*
X661500Y484500D02*
X663250Y482750D01*
X648714Y480400D02*
X652429Y476685D01*
X645000Y484114D02*
X648714Y480400D01*
X650815Y482500D02*
X650983D01*
X648714Y480400D02*
X650815Y482500D01*
X633500Y448320D02*
Y460510D01*
Y448320D02*
X636645D01*
X636654Y448311D01*
X641400Y449161D02*
X645000Y452761D01*
X636000Y443761D02*
X641400Y449161D01*
X638819Y451743D02*
X641400Y449161D01*
X638819Y451743D02*
Y452161D01*
X665000Y420284D02*
Y426728D01*
Y417803D02*
Y420284D01*
X668085D01*
X668208Y420161D01*
X649938Y412961D02*
X652429Y410471D01*
X645000Y417900D02*
X649938Y412961D01*
Y412747D02*
Y412961D01*
X648102Y410911D02*
X649938Y412747D01*
X661250Y381321D02*
X665000Y385071D01*
X657500Y377571D02*
X661250Y381321D01*
X662091Y378219D02*
Y380480D01*
X661250Y381321D02*
X662091Y380480D01*
X662840Y466563D02*
X665000Y464404D01*
Y460228D02*
Y464404D01*
X650722Y465332D02*
X651954Y466563D01*
X662840D01*
X656842Y464963D02*
X660000Y461805D01*
X652952Y464963D02*
X656842D01*
X650000Y462011D02*
X652952Y464963D01*
X650735Y467607D02*
X652429Y469301D01*
X647491Y467607D02*
X650735D01*
X633500Y460510D02*
X638322Y465332D01*
X650722D01*
X664904Y471675D02*
X665000Y471772D01*
X664318Y467817D02*
X664904Y468403D01*
X657300Y469572D02*
X659055Y467817D01*
X664904Y468403D02*
Y471675D01*
X659055Y467817D02*
X664318D01*
X660000Y460228D02*
Y461805D01*
X651334Y384334D02*
X652669Y383000D01*
X650000Y385669D02*
X651334Y384334D01*
X650834D02*
X651334D01*
X648000Y381500D02*
X650834Y384334D01*
X650000Y421528D02*
X652867Y418661D01*
X648819Y453596D02*
X650000Y454777D01*
X648819Y453163D02*
Y453596D01*
X645000Y484114D02*
Y493228D01*
X652429Y469301D02*
Y476685D01*
X645000Y470098D02*
X647491Y467607D01*
X645000Y470098D02*
Y471772D01*
X657300Y469572D02*
Y474203D01*
X661500Y478403D01*
Y480835D01*
X665000Y484335D02*
Y493228D01*
X645000Y417900D02*
Y426728D01*
X652429Y401389D02*
Y410471D01*
X650661Y399621D02*
X652429Y401389D01*
X646384Y399621D02*
X650661D01*
X645000Y401006D02*
X646384Y399621D01*
X645000Y401006D02*
Y405272D01*
X657300Y418661D02*
X660000Y421361D01*
X652867Y418661D02*
X657300D01*
X660110Y385522D02*
Y393618D01*
X652669Y383000D02*
X657589D01*
X660110Y385522D01*
X650000Y385669D02*
Y393728D01*
X660000D02*
X660110Y393618D01*
X660000Y421361D02*
Y426728D01*
X650000Y421528D02*
Y426728D01*
X659596Y400036D02*
X664046D01*
X657500Y402132D02*
Y410303D01*
Y402132D02*
X659596Y400036D01*
X665000Y400990D02*
Y405272D01*
X664046Y400036D02*
X665000Y400990D01*
X657500Y410303D02*
X665000Y417803D01*
X657500Y368120D02*
X659059Y366561D01*
X657500Y368120D02*
Y377571D01*
X659059Y366561D02*
X663301D01*
X665000Y368260D02*
Y372272D01*
X663301Y366561D02*
X665000Y368260D01*
Y385071D02*
Y393728D01*
X645000Y452761D02*
Y460228D01*
X658209Y482500D02*
Y485709D01*
X660000Y487500D02*
Y493228D01*
X658209Y485709D02*
X660000Y487500D01*
X651628Y485709D02*
X658209D01*
X650000Y487337D02*
X651628Y485709D01*
X650000Y487337D02*
Y493228D01*
X503600Y317500D02*
X506146Y314954D01*
X498890Y317500D02*
X503600D01*
X506146Y314954D02*
X512194D01*
X505088Y313500D02*
X510098D01*
X504088Y314500D02*
X505088Y313500D01*
X502000Y314500D02*
X504088D01*
X510098Y313500D02*
X516510Y307088D01*
Y301630D02*
Y307088D01*
X512194Y314954D02*
X519069Y308079D01*
Y301630D02*
Y308079D01*
X499601Y311400D02*
X508804D01*
X513951Y306252D01*
Y301630D02*
Y306252D01*
X493501Y317500D02*
X499601Y311400D01*
X323628Y280370D02*
Y289285D01*
X323659Y289317D01*
X326297Y287297D02*
X327420Y288420D01*
X326297Y280480D02*
Y287297D01*
X371500Y280801D02*
Y286500D01*
X371069Y280370D02*
X371500Y280801D01*
X368047Y286324D02*
X368510Y285861D01*
X365951Y280370D02*
Y285049D01*
X364530Y286470D02*
X365951Y285049D01*
X361231Y286281D02*
X363392Y284120D01*
X361231Y286281D02*
Y286282D01*
X357562Y286788D02*
X360833Y283517D01*
Y280370D02*
Y283517D01*
X264803Y308500D02*
X265020Y308283D01*
X348311Y271173D02*
X387251D01*
X348974Y269573D02*
X388518D01*
X340195Y260794D02*
X348974Y269573D01*
X388518D02*
X392539Y273594D01*
X339532Y262394D02*
X348311Y271173D01*
X387251D02*
X391272Y275194D01*
X378500Y286980D02*
Y286990D01*
X391369Y307000D02*
X399129Y314760D01*
X401500D01*
X387582Y310842D02*
X391500Y314760D01*
X372852Y310842D02*
X387582D01*
X384265Y312611D02*
X388654Y317000D01*
X372924Y312611D02*
X384265D01*
X368510Y308197D02*
X372924Y312611D01*
X368510Y301630D02*
Y308197D01*
X365951Y311137D02*
X369626Y314811D01*
X382354D01*
X365951Y301630D02*
Y311137D01*
X378339Y317661D02*
X379194D01*
X376000Y320000D02*
X378339Y317661D01*
X366313Y320000D02*
X376000D01*
X363392Y317079D02*
X366313Y320000D01*
X363392Y301630D02*
Y317079D01*
X270789Y416037D02*
X305238D01*
X266989Y412237D02*
X270789Y416037D01*
X256000Y412237D02*
X266989D01*
X268666Y431135D02*
X280384D01*
X261692Y424161D02*
X268666Y431135D01*
X261692Y420702D02*
Y424161D01*
X266636Y434210D02*
X278477D01*
X260411Y427985D02*
X266636Y434210D01*
X254280Y427985D02*
X260411D01*
X278477Y434210D02*
X292767Y448500D01*
X321927D02*
X331910Y438518D01*
X292767Y448500D02*
X321927D01*
X331910Y427485D02*
Y438518D01*
X319952Y446048D02*
X325021Y440979D01*
Y430681D02*
Y440979D01*
X321451Y427111D02*
X325021Y430681D01*
X321451Y422534D02*
Y427111D01*
Y422534D02*
X322949Y421037D01*
X326694D01*
X295298Y446048D02*
X319952D01*
X280384Y431135D02*
X295298Y446048D01*
X259512Y418522D02*
X261692Y420702D01*
X255492Y418522D02*
X259512D01*
X252470Y415500D02*
X255492Y418522D01*
X249671Y423377D02*
X254280Y427985D01*
X330462Y426037D02*
X331910Y427485D01*
X326694Y426037D02*
X330462D01*
X349637Y267973D02*
X389181D01*
X340857Y259194D02*
X349637Y267973D01*
X350088Y266162D02*
X389633D01*
X340113Y256186D02*
X350088Y266162D01*
X340113Y227022D02*
Y256186D01*
X389633Y266162D02*
X393864Y270394D01*
X321846Y259194D02*
X340857D01*
X389181Y267973D02*
X393202Y271994D01*
X311846Y260794D02*
X340195D01*
X303880Y262394D02*
X339532D01*
X310833Y280370D02*
Y283000D01*
X307572Y286261D02*
X310833Y283000D01*
X310500Y286894D02*
X313392Y284001D01*
Y280370D02*
Y284001D01*
X310500Y286894D02*
Y289351D01*
X376297Y284778D02*
X378500Y286980D01*
X374939Y286317D02*
Y286690D01*
X373628Y285006D02*
X374939Y286317D01*
X381684Y286885D02*
X381958D01*
X378747Y283948D02*
X381684Y286885D01*
X376297Y280480D02*
Y284778D01*
X378747Y280370D02*
Y283948D01*
X368510Y280370D02*
Y285861D01*
X363392Y280370D02*
Y284120D01*
X512693Y321000D02*
X524187Y309506D01*
X478475Y321000D02*
X512693D01*
X470413Y329061D02*
X478475Y321000D01*
X470413Y329061D02*
Y347661D01*
X524187Y301630D02*
Y309506D01*
X521628Y301630D02*
Y308796D01*
X512925Y317500D02*
X521628Y308796D01*
X508338Y317500D02*
X512925D01*
X377412Y307000D02*
X391369D01*
X376187Y305776D02*
X377412Y307000D01*
X390162Y309059D02*
X398102Y317000D01*
X375275Y309059D02*
X390162D01*
X373628Y307413D02*
X375275Y309059D01*
X376187Y301630D02*
Y305776D01*
X373628Y301630D02*
Y307413D01*
X371069Y309059D02*
X372852Y310842D01*
X371069Y301630D02*
Y309059D01*
X363282Y324139D02*
X373139D01*
X358274Y319131D02*
X363282Y324139D01*
X358274Y301630D02*
Y319131D01*
X383608Y339576D02*
X412104D01*
X379000Y334968D02*
X383608Y339576D01*
X379000Y330000D02*
Y334968D01*
X384406Y337323D02*
X412978D01*
X380749Y333665D02*
X384406Y337323D01*
X380749Y328978D02*
Y333665D01*
X417000Y344472D02*
Y351500D01*
X412104Y339576D02*
X417000Y344472D01*
X412978Y337323D02*
X420500Y344845D01*
Y347997D01*
X373834Y322063D02*
X380749Y328978D01*
X364570Y322063D02*
X373834D01*
X360833Y318326D02*
X364570Y322063D01*
X360833Y301630D02*
Y318326D01*
X373139Y324139D02*
X379000Y330000D01*
X407500Y308875D02*
Y317000D01*
Y308875D02*
X408274Y308101D01*
Y301630D02*
Y308101D01*
X410701Y313500D02*
X410767Y313434D01*
Y301696D02*
Y313434D01*
Y301696D02*
X410833Y301630D01*
X417000Y313555D02*
Y317000D01*
X413392Y309947D02*
X417000Y313555D01*
X413392Y301630D02*
Y309947D01*
X415951Y308951D02*
X420500Y313500D01*
X415951Y301630D02*
Y308951D01*
X418510Y306822D02*
X426500Y314811D01*
Y317000D01*
X418510Y301630D02*
Y306822D01*
X421069Y306839D02*
X427731Y313500D01*
X421069Y301630D02*
Y306839D01*
X427731Y313500D02*
X429599D01*
X427337Y309549D02*
X432806D01*
X423628Y305840D02*
X427337Y309549D01*
X435898Y312641D02*
Y317000D01*
X432806Y309549D02*
X435898Y312641D01*
X423628Y301630D02*
Y305840D01*
X436500Y307611D02*
X439047Y310159D01*
Y313642D01*
X428189Y307611D02*
X436500D01*
X426258Y305679D02*
X428189Y307611D01*
X426258Y301700D02*
Y305679D01*
X426187Y301630D02*
X426258Y301700D01*
X453517Y308284D02*
X455290D01*
X448500Y313301D02*
X453517Y308284D01*
X448500Y313301D02*
Y317000D01*
X455290Y308284D02*
X457274Y306300D01*
X457230Y310081D02*
X459833Y307479D01*
X455206Y310081D02*
X457230D01*
X451646Y313642D02*
X455206Y310081D01*
X459833Y301630D02*
Y307479D01*
X462392Y301630D02*
Y308284D01*
X457945Y312731D02*
X462392Y308284D01*
X457945Y312731D02*
Y317000D01*
X457274Y301630D02*
Y306300D01*
X461000Y313500D02*
X464951Y309549D01*
Y301630D02*
Y309549D01*
X467394Y317000D02*
X467452Y316942D01*
Y301688D02*
Y316942D01*
Y301688D02*
X467510Y301630D01*
X470241Y313328D02*
X470413Y313500D01*
X470241Y301802D02*
Y313328D01*
X470069Y301630D02*
X470241Y301802D01*
X475187Y301630D02*
Y317388D01*
X461000Y331575D02*
X475187Y317388D01*
X461000Y331575D02*
Y348245D01*
X458000Y331316D02*
Y351500D01*
Y331316D02*
X472628Y316688D01*
Y301630D02*
Y316688D01*
X489000Y317500D02*
X493501D01*
X511392Y301630D02*
Y305810D01*
X507121Y310081D02*
X511392Y305810D01*
X496009Y310081D02*
X507121D01*
X508833Y301630D02*
Y305530D01*
X505552Y308811D02*
X508833Y305530D01*
X492961Y308811D02*
X505552D01*
X484272Y317500D02*
X492961Y308811D01*
X504287Y307611D02*
X506218Y305679D01*
X488889Y307611D02*
X504287D01*
X483000Y313500D02*
X488889Y307611D01*
X492590Y313500D02*
X496009Y310081D01*
X506218Y301685D02*
Y305679D01*
Y301685D02*
X506274Y301630D01*
X479992Y317500D02*
X484272D01*
X356221Y348245D02*
X372906D01*
X326187Y318212D02*
X356221Y348245D01*
X326187Y301630D02*
Y318212D01*
X354353Y368143D02*
X390857D01*
X308274Y322063D02*
X354353Y368143D01*
X308274Y301630D02*
Y322063D01*
X390857Y368143D02*
X407500Y351500D01*
X310833Y301630D02*
Y321571D01*
X355262Y366000D01*
X389500D01*
X401500Y354000D01*
Y348245D02*
Y354000D01*
X386000Y364000D02*
X398500Y351500D01*
X356259Y364000D02*
X386000D01*
X313392Y321133D02*
X356259Y364000D01*
X313392Y301630D02*
Y321133D01*
X315951Y301630D02*
Y320329D01*
X357123Y361500D01*
X384018D01*
X391500Y354018D01*
Y348245D02*
Y354018D01*
X358443Y359500D02*
X380654D01*
X388654Y351500D01*
X318510Y319567D02*
X358443Y359500D01*
X318510Y301630D02*
Y319567D01*
X382354Y348245D02*
Y352489D01*
X377844Y357000D02*
X382354Y352489D01*
X359285Y357000D02*
X377844D01*
X321069Y318785D02*
X359285Y357000D01*
X321069Y301630D02*
Y318785D01*
X356546Y351500D02*
X379000D01*
X323628Y318583D02*
X356546Y351500D01*
X323628Y301630D02*
Y318583D01*
X508339Y347661D02*
X522133D01*
X554840Y314954D01*
X479748Y351500D02*
X492327Y364079D01*
X528340D01*
X572754Y319665D01*
Y301630D02*
Y319665D01*
X505189Y351058D02*
X522513D01*
X557399Y316172D01*
X502854Y356200D02*
X523443D01*
X498890Y352235D02*
X502854Y356200D01*
X523443D02*
X562517Y317126D01*
X522867Y354000D02*
X559958Y316909D01*
X504158Y354000D02*
X522867D01*
X502000Y351842D02*
X504158Y354000D01*
X502000Y347661D02*
Y351842D01*
X498890Y351058D02*
Y352235D01*
X483000Y347996D02*
Y350832D01*
X494279Y362110D01*
X527407D01*
X570194Y319323D01*
Y301630D02*
Y319323D01*
X567635Y301630D02*
Y318605D01*
X526240Y360000D02*
X567635Y318605D01*
X497501Y360000D02*
X526240D01*
X489000Y351500D02*
X497501Y360000D01*
X565076Y301630D02*
Y317546D01*
X524622Y358000D02*
X565076Y317546D01*
X500599Y358000D02*
X524622D01*
X492590Y349991D02*
X500599Y358000D01*
X492590Y347661D02*
Y349991D01*
X562517Y301630D02*
Y317126D01*
X559958Y301630D02*
Y316909D01*
X557399Y301630D02*
Y316172D01*
X554840Y301630D02*
Y314954D01*
X271945Y319272D02*
Y325402D01*
X271847Y325500D02*
X271945Y325402D01*
X483000Y227555D02*
Y265083D01*
X476582Y221137D02*
X483000Y227555D01*
X476582Y215000D02*
Y221137D01*
X335046Y221955D02*
X340113Y227022D01*
X335046Y215000D02*
Y221955D01*
X477746Y270337D02*
X483000Y265083D01*
X400992Y627153D02*
X405000Y623146D01*
Y609000D02*
Y623146D01*
X393339Y626653D02*
X400992Y619000D01*
X388000Y626653D02*
X393339D01*
X370654D02*
X374500D01*
X365000Y621000D02*
X370654Y626653D01*
X357000Y609000D02*
X358000D01*
X365000Y616000D01*
Y621000D01*
X361000Y619000D02*
Y626653D01*
X693800Y295285D02*
Y303200D01*
X690419Y306581D02*
X693800Y303200D01*
X685419Y306581D02*
X690419D01*
X682461Y309539D02*
X685419Y306581D01*
X682461Y309539D02*
Y315072D01*
X693800Y295285D02*
X698967Y290118D01*
X705205D01*
Y301024D02*
Y306581D01*
X696714Y315072D02*
X705205Y306581D01*
X689153Y315072D02*
X696714D01*
X689689Y277000D02*
X694300Y272389D01*
X684500Y277000D02*
X689689D01*
X682461Y279039D02*
X684500Y277000D01*
X694300Y264598D02*
Y272389D01*
X682461Y279039D02*
Y284928D01*
X694300Y264598D02*
X699062Y259835D01*
Y255769D02*
Y259835D01*
Y255769D02*
X701480Y253352D01*
X707352D01*
X710500Y256500D01*
Y289685D01*
X716386Y295571D01*
X694037Y284928D02*
X697330Y281635D01*
Y265276D02*
Y281635D01*
Y265276D02*
X705205Y257402D01*
X691707Y290393D02*
X700000Y282100D01*
Y273512D02*
Y282100D01*
Y273512D02*
X705205Y268307D01*
X699062Y250461D02*
X711429D01*
X696000Y253523D02*
X699062Y250461D01*
X696000Y253523D02*
Y259854D01*
X689153Y266701D02*
X696000Y259854D01*
X711429Y250461D02*
X721000Y260032D01*
X712476Y248000D02*
X723500Y259024D01*
X697993Y248000D02*
X712476D01*
X693800Y252193D02*
X697993Y248000D01*
X713681Y245500D02*
X726000Y257819D01*
X694274Y245500D02*
X713681D01*
X689153Y250621D02*
X694274Y245500D01*
X715000Y243000D02*
X727769Y255769D01*
X689828Y243000D02*
X715000D01*
X682414Y250414D02*
X689828Y243000D01*
X726000Y257819D02*
Y273394D01*
X727769Y259769D02*
X731819Y263819D01*
X727769Y255769D02*
Y259769D01*
X726000Y273394D02*
X731819Y279213D01*
X723500Y281799D02*
X731819Y290118D01*
X723500Y259024D02*
Y281799D01*
X721000Y297500D02*
X724524Y301024D01*
X721000Y260032D02*
Y297500D01*
X689153Y250621D02*
Y254785D01*
X731819Y256319D02*
Y257402D01*
X715213Y239713D02*
X731819Y256319D01*
X689153Y239713D02*
X715213D01*
X689153Y266701D02*
Y269857D01*
X724524Y301024D02*
X731819D01*
Y263819D02*
Y268307D01*
X693800Y252193D02*
Y257507D01*
X691390Y259917D02*
X693800Y257507D01*
X685000Y259917D02*
X691390D01*
X682414Y262503D02*
X685000Y259917D01*
X682414Y262503D02*
Y269810D01*
X682461Y269857D01*
X682414Y250414D02*
X682461Y250461D01*
Y254785D01*
X743000Y295571D02*
X751594Y286976D01*
Y254095D02*
Y286976D01*
X715000Y217500D02*
X751594Y254095D01*
X700000Y217500D02*
X715000D01*
X682461Y235039D02*
X700000Y217500D01*
X682461Y235039D02*
Y239713D01*
X705205Y279213D02*
Y280125D01*
X689153Y296177D02*
X705205Y280125D01*
X689153Y296177D02*
Y300000D01*
X686568Y290393D02*
X691707D01*
X682461Y294500D02*
Y300000D01*
Y294500D02*
X686568Y290393D01*
X689153Y284928D02*
X694037D01*
X373628Y280370D02*
Y285006D01*
X265020Y308283D02*
X270000D01*
X264587D02*
X264803Y308500D01*
X261964Y295000D02*
X267059D01*
X267122Y294937D01*
X296500Y330000D02*
Y333947D01*
X296252Y334195D02*
X296500Y333947D01*
X317331Y285710D02*
Y286261D01*
Y285710D02*
X318510Y284531D01*
X313693Y286788D02*
X315951Y284529D01*
X313693Y286788D02*
Y287063D01*
X315951Y280370D02*
Y284529D01*
X318510Y280370D02*
Y284531D01*
X331000Y286664D02*
Y288097D01*
X328856Y284521D02*
X331000Y286664D01*
X328856Y280480D02*
Y284521D01*
X321069Y280370D02*
Y286336D01*
X376187Y280370D02*
X376297Y280480D01*
X376187Y280370D02*
X376297Y280260D01*
X353208Y264562D02*
X390296D01*
X361831Y262962D02*
X390958D01*
X369800Y261362D02*
X391621D01*
X395853Y265594D01*
X346231Y257584D02*
X353208Y264562D01*
X366231Y257793D02*
X369800Y261362D01*
X356231Y257361D02*
X361831Y262962D01*
X390296Y264562D02*
X394527Y268794D01*
X390958Y262962D02*
X395190Y267194D01*
X300046Y258559D02*
X303880Y262394D01*
X310046Y258994D02*
X311846Y260794D01*
X320176Y257524D02*
X321846Y259194D01*
X391272Y275194D02*
X409804D01*
X392539Y273594D02*
X411514D01*
X393202Y271994D02*
X413939D01*
X410833Y276223D02*
Y280370D01*
X409804Y275194D02*
X410833Y276223D01*
X411514Y273594D02*
X413392Y275471D01*
Y280370D01*
X415951Y274006D02*
Y279698D01*
X413939Y271994D02*
X415951Y274006D01*
X418510Y271710D02*
Y280370D01*
X417194Y270394D02*
X418510Y271710D01*
X393864Y270394D02*
X417194D01*
X388913Y256391D02*
X396515Y263994D01*
X393259Y258474D02*
X397178Y262394D01*
X393259Y251693D02*
Y258474D01*
X388913Y232913D02*
Y256391D01*
X397178Y262394D02*
X432960D01*
X396515Y263994D02*
X421281D01*
X395853Y265594D02*
X420618D01*
X395190Y267194D02*
X419956D01*
X394527Y268794D02*
X419293D01*
X320176Y251823D02*
Y257524D01*
X320046Y251693D02*
X320176Y251823D01*
X310046Y251693D02*
Y258994D01*
X300046Y251693D02*
Y258559D01*
X423628Y270866D02*
Y280370D01*
X419956Y267194D02*
X423628Y270866D01*
X420618Y265594D02*
X426187Y271163D01*
X421281Y263994D02*
X428747Y271459D01*
X406100Y260794D02*
X434657D01*
X414845Y259194D02*
X435616D01*
X413259Y257608D02*
X414845Y259194D01*
X413259Y251693D02*
Y257608D01*
X421069Y270570D02*
Y280370D01*
X419293Y268794D02*
X421069Y270570D01*
X426187Y271163D02*
Y280370D01*
X432960Y262394D02*
X441739Y271173D01*
X403259Y257953D02*
X406100Y260794D01*
X434657D02*
X443180Y269316D01*
X403259Y251693D02*
Y257953D01*
X435616Y259194D02*
X443523Y267100D01*
X346231Y251693D02*
Y257584D01*
X356231Y251693D02*
Y257361D01*
X366231Y251693D02*
Y257793D01*
X428747Y271459D02*
Y280370D01*
X381231Y225231D02*
X388913Y232913D01*
X381231Y215000D02*
Y225231D01*
X441739Y271173D02*
X454673D01*
X459723Y276223D01*
X456794Y269316D02*
X462392Y274914D01*
X443180Y269316D02*
X456794D01*
X443523Y267100D02*
X457972D01*
X464951Y274079D01*
X460114Y265500D02*
X467515Y272900D01*
X445358Y265500D02*
X460114D01*
X436500Y256642D02*
X445358Y265500D01*
X464951Y274079D02*
Y280370D01*
X467515Y272900D02*
Y280366D01*
X470069Y272440D02*
Y280370D01*
X461129Y263500D02*
X470069Y272440D01*
X446612Y263500D02*
X461129D01*
X441582Y258470D02*
X446612Y263500D01*
X462008Y261362D02*
X472628Y271983D01*
X454944Y261362D02*
X462008D01*
X451582Y258000D02*
X454944Y261362D01*
X472628Y271983D02*
Y280370D01*
X461582Y257567D02*
X475187Y271173D01*
X441582Y251693D02*
Y258470D01*
X462392Y274914D02*
Y280370D01*
X459723Y276223D02*
Y280260D01*
X459833Y280370D01*
X467510D02*
X467515Y280366D01*
X436500Y233218D02*
Y256642D01*
X428259Y224977D02*
X436500Y233218D01*
X428259Y215000D02*
Y224977D01*
X451582Y251693D02*
Y258000D01*
X477746Y270337D02*
Y280370D01*
D21*
X242000Y692000D02*
X246500Y696500D01*
X326500D01*
X343500Y679500D01*
X216653Y106543D02*
X222957D01*
X214500Y104500D02*
X214610D01*
X216653Y106543D01*
X222957D02*
X223000Y106587D01*
X193846Y582000D02*
X193891Y581955D01*
X197545D02*
X199500Y580000D01*
X193891Y581955D02*
X197545D01*
X199500Y576500D02*
Y580000D01*
X187000Y574000D02*
X187153Y574154D01*
Y582000D01*
X211181Y296524D02*
Y304780D01*
X207416Y292759D02*
X211181Y296524D01*
X176577Y292759D02*
X207416D01*
X211181Y304780D02*
X213555Y307154D01*
X218530D01*
X220750Y304934D01*
Y290770D02*
Y304934D01*
Y290770D02*
X226989Y284531D01*
X156100Y272281D02*
X176577Y292759D01*
X156100Y246377D02*
Y272281D01*
Y246377D02*
X157815Y244662D01*
Y244500D02*
Y244662D01*
X242000Y680000D02*
Y692000D01*
Y680000D02*
X255951Y666049D01*
Y639920D02*
Y666049D01*
X367347Y582945D02*
Y595423D01*
Y582161D02*
Y582945D01*
X343500Y664000D02*
Y679500D01*
Y664000D02*
X353000Y654500D01*
Y619500D02*
Y654500D01*
X349000Y615500D02*
X353000Y619500D01*
X349000Y606973D02*
Y615500D01*
Y606973D02*
X353716Y602256D01*
X360514D01*
X367347Y595423D01*
X282799Y302446D02*
X287964Y307611D01*
X295231D01*
X282799Y289330D02*
Y302446D01*
X278000Y284531D02*
X282799Y289330D01*
X260996Y284531D02*
X278000D01*
X243992D02*
X260996D01*
X226989D02*
X243992D01*
X447250Y617000D02*
X454654D01*
X700600Y106587D02*
X707000D01*
X707000Y106587D01*
X718485Y146587D02*
X720174Y144898D01*
X707000Y146587D02*
X718485D01*
X720174Y144898D02*
X720336D01*
X536563Y104750D02*
X536563D01*
X540159Y108346D02*
X547000D01*
X536563Y104750D02*
X540159Y108346D01*
X547015Y146571D02*
X558285D01*
X547000Y146587D02*
X547015Y146571D01*
X558285D02*
X558300Y146556D01*
X398467Y146587D02*
X398469Y146588D01*
X387000Y146587D02*
X398467D01*
X378800Y105189D02*
X381197Y107587D01*
X387000D01*
X233354Y138980D02*
X237225Y142850D01*
X233354Y128587D02*
Y138980D01*
X424299Y541185D02*
X437685D01*
X453433Y556933D02*
X508748D01*
X437685Y541185D02*
X453433Y556933D01*
X405500Y540500D02*
X409338D01*
X409346Y540509D01*
X423623D02*
X424299Y541185D01*
X409346Y540509D02*
X423623D01*
X409346D02*
Y549500D01*
X453500Y606901D02*
Y612500D01*
X450776Y604177D02*
X453500Y606901D01*
X454654Y613654D02*
Y617000D01*
X453500Y612500D02*
X454654Y613654D01*
X380037Y565553D02*
X387447D01*
X379984Y565606D02*
X380037Y565553D01*
X379984Y574661D02*
X403016D01*
X387447Y565553D02*
X387500Y565500D01*
X394615Y543885D02*
X407500Y531000D01*
X419000D01*
X394615Y543885D02*
Y548385D01*
X394500Y548500D02*
X394615Y548385D01*
X402577Y549577D02*
Y553423D01*
X402500Y553500D02*
X402577Y553423D01*
Y549577D02*
X402654Y549500D01*
X490826Y495500D02*
X509654D01*
X479745Y506581D02*
X490826Y495500D01*
X423299Y519586D02*
Y526701D01*
X419000Y531000D02*
X423299Y526701D01*
X428005Y514880D02*
X434834D01*
X423299Y519586D02*
X428005Y514880D01*
X439000Y507661D02*
Y510714D01*
X434834Y514880D02*
X439000Y510714D01*
X698452Y122345D02*
X701694Y125587D01*
X707000D01*
X712828Y183000D02*
X714000Y181828D01*
X707324Y165263D02*
X712828D01*
X714000Y166434D02*
Y181828D01*
X712828Y165263D02*
X714000Y166434D01*
X710427Y183000D02*
X712828D01*
X707000Y165587D02*
X707324Y165263D01*
X707227Y186200D02*
X710427Y183000D01*
X703653Y186200D02*
X707227D01*
X701063Y183609D02*
X703653Y186200D01*
X701063Y179800D02*
Y183609D01*
X694600Y177800D02*
X699063D01*
X689800Y173000D02*
X694600Y177800D01*
X699063D02*
X701063Y179800D01*
X705205Y183000D02*
X707000Y181205D01*
Y176413D02*
Y181205D01*
X539500Y124466D02*
X541620Y126587D01*
X547000D01*
X547719Y166306D02*
X552134D01*
X554500Y168672D02*
Y181840D01*
X547000Y165587D02*
X547719Y166306D01*
X552134D02*
X554500Y168672D01*
X551840Y184500D02*
X554500Y181840D01*
X548065Y184500D02*
X551840D01*
X544302Y180737D02*
X548065Y184500D01*
X542000Y180737D02*
X544302D01*
X534600Y177800D02*
X539063D01*
X529800Y173000D02*
X534600Y177800D01*
X539063D02*
X542000Y180737D01*
X548065Y176413D02*
X549328Y177677D01*
X547000Y176413D02*
X548065D01*
X549328Y177677D02*
Y180737D01*
X381485Y126323D02*
X385736D01*
X380000Y125000D02*
X380162D01*
X385736Y126323D02*
X387000Y127587D01*
X380162Y125000D02*
X381485Y126323D01*
X388000Y176413D02*
Y180500D01*
X387000Y175413D02*
X388000Y176413D01*
X393605Y164587D02*
X395190Y166172D01*
Y179800D01*
X387000Y164587D02*
X393605D01*
X391360Y183630D02*
X395190Y179800D01*
X385133Y183630D02*
X391360D01*
X379303Y177800D02*
X385133Y183630D01*
X374600Y177800D02*
X379303D01*
X369800Y173000D02*
X374600Y177800D01*
X223000Y117413D02*
Y124466D01*
X226989Y158425D02*
Y163641D01*
Y158425D02*
X227000Y158413D01*
X209800Y173000D02*
X214800Y178000D01*
X230816D02*
X234165Y174651D01*
X214800Y178000D02*
X230816D01*
X234165Y149135D02*
Y174651D01*
X227000Y147587D02*
X232616D01*
X234165Y149135D01*
X238819Y106587D02*
X240000Y107768D01*
X233000Y106587D02*
X238819D01*
X240000Y107768D02*
Y121941D01*
X233354Y128587D02*
X240000Y121941D01*
X227000Y128587D02*
X233354D01*
X223000Y117413D02*
X233000D01*
X223000Y117413D02*
X223000Y117413D01*
X227000Y139413D02*
Y147587D01*
X387000Y118413D02*
Y127587D01*
Y138413D02*
Y146587D01*
Y157413D02*
Y164587D01*
X547000Y157413D02*
Y165587D01*
Y137413D02*
Y146587D01*
Y119173D02*
Y126587D01*
X707000Y117413D02*
Y125587D01*
Y136413D02*
Y146587D01*
Y157413D02*
Y165587D01*
X291882Y354544D02*
X293838Y356500D01*
X270511Y354544D02*
X291882D01*
X293838Y356500D02*
X294000D01*
X398059Y408094D02*
Y419941D01*
Y408094D02*
X398654Y407500D01*
X397944Y420056D02*
X398059Y419941D01*
X413296Y445807D02*
Y461634D01*
X413500Y461838D01*
Y462000D01*
X415577Y406467D02*
X415654Y406390D01*
X415577Y406467D02*
Y412423D01*
X415500Y412500D02*
X415577Y412423D01*
X392130Y414241D02*
Y415756D01*
X390194Y412306D02*
X392130Y414241D01*
X353668Y422668D02*
X356349D01*
X357000Y423319D01*
X350000Y419000D02*
X353668Y422668D01*
X381313Y418494D02*
X382792Y419973D01*
X377006Y418494D02*
X381313D01*
X556615Y500232D02*
Y503885D01*
Y500232D02*
X556847Y500000D01*
X556500Y504000D02*
X556615Y503885D01*
X550385Y488615D02*
Y492268D01*
X550153Y492500D02*
X550385Y492268D01*
Y488615D02*
X550500Y488500D01*
X550077Y500077D02*
Y503923D01*
Y500077D02*
X550153Y500000D01*
X550000Y504000D02*
X550077Y503923D01*
X571472Y492000D02*
X571488Y492016D01*
X557346Y492000D02*
X571472D01*
X556847Y500000D02*
X557346Y499500D01*
X571484D02*
X571488Y499496D01*
X557346Y499500D02*
X571484D01*
X571488Y492016D02*
X577323D01*
X578587Y493280D01*
Y493500D01*
Y504000D01*
X601324Y367500D02*
Y394824D01*
X610092Y403592D01*
X601324Y357167D02*
X606167D01*
X608000Y359000D02*
Y394000D01*
X606167Y357167D02*
X608000Y359000D01*
Y394000D02*
X617861Y403861D01*
X607333Y346833D02*
X615000Y354500D01*
Y392000D02*
X617894Y394894D01*
X615000Y354500D02*
Y392000D01*
X617894Y394894D02*
X621665D01*
Y352165D02*
Y370493D01*
X606000Y336500D02*
X621665Y352165D01*
X601324Y336500D02*
X606000D01*
X601324Y346833D02*
X607333D01*
X610092Y403592D02*
Y425066D01*
X617861Y403861D02*
X621712D01*
X610092Y425066D02*
X613335Y428310D01*
X621665D01*
X719000Y479500D02*
X727000Y471500D01*
Y425500D02*
Y471500D01*
X719000Y417500D02*
X727000Y425500D01*
X405380Y399033D02*
X405413Y399000D01*
X405380Y399033D02*
Y407467D01*
X405346Y407500D02*
X405380Y407467D01*
X404300Y418327D02*
X405346Y417281D01*
Y407500D02*
Y417281D01*
X437500Y390000D02*
X443977Y396477D01*
X430000Y390000D02*
X437500D01*
X443977Y396477D02*
Y474118D01*
X415560Y356063D02*
X438437D01*
X448437Y332661D02*
Y346063D01*
X438437Y356063D02*
X448437Y346063D01*
X442197Y332661D02*
X448437D01*
X444097Y474237D02*
Y498726D01*
X443977Y474118D02*
X444097Y474237D01*
X292127Y605000D02*
X293000D01*
X287167Y609961D02*
X292127Y605000D01*
X287167Y609961D02*
Y614000D01*
X273197D02*
X280474D01*
X266504Y606271D02*
X267676Y605100D01*
X266504Y606271D02*
Y614000D01*
X267676Y605100D02*
X272900D01*
X273000Y605000D01*
X361400Y670000D02*
X410600D01*
X351400Y680000D02*
X361400Y670000D01*
X362650Y416627D02*
X364800Y418776D01*
Y407677D02*
Y418776D01*
Y407677D02*
X365087Y407390D01*
X357000Y416627D02*
X362650D01*
X416000Y656382D02*
Y665793D01*
X409413Y649795D02*
X416000Y656382D01*
X412424Y347661D02*
Y352927D01*
X415560Y356063D01*
X407380Y342618D02*
X412424Y347661D01*
X376612Y342618D02*
X407380D01*
X366723Y332729D02*
X376612Y342618D01*
X246175Y348245D02*
X255783D01*
X218760Y320830D02*
X246175Y348245D01*
X211830Y320830D02*
X218760D01*
X205811Y314811D02*
X211830Y320830D01*
X205811Y301421D02*
Y314811D01*
X439000Y507661D02*
X448500D01*
X126355Y505000D02*
X126647Y504708D01*
X234545Y414342D02*
X246173Y402714D01*
Y380996D02*
Y402714D01*
X236677Y371500D02*
X246173Y380996D01*
X190300Y414342D02*
X234545D01*
X199360Y410959D02*
X215239D01*
X216430Y409768D01*
Y403733D02*
Y409768D01*
X195476Y407075D02*
X199360Y410959D01*
X228500Y371500D02*
X236677D01*
X275299Y405500D02*
X282154D01*
X272173Y408626D02*
X275299Y405500D01*
X272173Y408626D02*
Y412237D01*
X505189Y332662D02*
X512851Y325000D01*
X526620D01*
X477746Y332662D02*
Y346814D01*
X468298Y356263D02*
X477746Y346814D01*
X468298Y356263D02*
Y366000D01*
X439000Y503823D02*
X444097Y498726D01*
X439000Y503823D02*
Y507661D01*
X242886Y182659D02*
X254078D01*
X238500Y187046D02*
X242886Y182659D01*
X238500Y187046D02*
Y204500D01*
X254078Y182659D02*
X256964Y185546D01*
X238500Y204500D02*
X243992Y209992D01*
Y218466D01*
X248840Y223314D01*
X255063D01*
X396000Y598500D02*
X396076Y598576D01*
X403163D01*
X403500Y598913D01*
X409413Y603744D02*
Y649795D01*
X412255Y669538D02*
X416000Y665793D01*
X411062Y669538D02*
X412255D01*
X404583Y598913D02*
X409413Y603744D01*
X403500Y598913D02*
X404583D01*
X120239Y505000D02*
X126355D01*
X126647Y493421D02*
Y504708D01*
Y493421D02*
X133639D01*
X367347Y582161D02*
X367373Y582188D01*
X119000Y203500D02*
X122653D01*
X115716D02*
X119000D01*
X410600Y670000D02*
X411062Y669538D01*
X403500Y575146D02*
Y588087D01*
X403016Y574661D02*
X403500Y575146D01*
X114000Y205216D02*
X115716Y203500D01*
X114000Y205216D02*
Y215000D01*
X119000Y203500D02*
Y215000D01*
X372500Y573228D02*
X373933Y574661D01*
X372500Y569000D02*
Y573228D01*
X370661Y567161D02*
X372500Y569000D01*
X373933Y574661D02*
X379984D01*
X367347Y567161D02*
X370661D01*
X368130Y582945D02*
X379213D01*
X379984Y583716D01*
D27*
X187153Y582000D02*
D03*
X193846D02*
D03*
X160846Y301500D02*
D03*
X154154D02*
D03*
X178847D02*
D03*
X172153D02*
D03*
X351847Y596000D02*
D03*
X345153D02*
D03*
X556847Y492500D02*
D03*
X550153D02*
D03*
X556847Y500000D02*
D03*
X550153D02*
D03*
X710235Y452761D02*
D03*
X703543D02*
D03*
X681153Y455332D02*
D03*
X687847D02*
D03*
X696427Y439745D02*
D03*
X703120D02*
D03*
X683162Y391220D02*
D03*
X676469D02*
D03*
X701343Y372363D02*
D03*
X694651D02*
D03*
X708653D02*
D03*
X715346D02*
D03*
X537648Y414096D02*
D03*
X544341D02*
D03*
X537653Y421500D02*
D03*
X544347D02*
D03*
Y443000D02*
D03*
X537653D02*
D03*
Y450500D02*
D03*
X544347D02*
D03*
X537653Y428500D02*
D03*
X544347D02*
D03*
X537653Y407000D02*
D03*
X544347D02*
D03*
X537653Y435500D02*
D03*
X544347D02*
D03*
X594879Y402976D02*
D03*
X588187D02*
D03*
X594879Y411151D02*
D03*
X588187D02*
D03*
X594879Y419325D02*
D03*
X588187D02*
D03*
X594879Y427500D02*
D03*
X588187D02*
D03*
X594879Y435675D02*
D03*
X588187D02*
D03*
X594879Y443850D02*
D03*
X588187D02*
D03*
X594879Y452024D02*
D03*
X588187D02*
D03*
X594879Y460199D02*
D03*
X588187D02*
D03*
X572121Y402976D02*
D03*
X578814D02*
D03*
X572121Y411151D02*
D03*
X578814D02*
D03*
X572121Y419325D02*
D03*
X578814D02*
D03*
X572121Y427500D02*
D03*
X578814D02*
D03*
X572121Y435675D02*
D03*
X578814D02*
D03*
X572121Y443850D02*
D03*
X578814D02*
D03*
X572121Y452024D02*
D03*
X578814D02*
D03*
X572121Y460199D02*
D03*
X578814D02*
D03*
X498401Y405900D02*
D03*
X491709D02*
D03*
X506153Y406000D02*
D03*
X512847D02*
D03*
X469661Y406900D02*
D03*
X476354D02*
D03*
X469654Y414500D02*
D03*
X476346D02*
D03*
X469654Y421500D02*
D03*
X476346D02*
D03*
X469654Y428500D02*
D03*
X476346D02*
D03*
X469654Y435500D02*
D03*
X476346D02*
D03*
X469661Y442880D02*
D03*
X476354D02*
D03*
X469661Y450076D02*
D03*
X476354D02*
D03*
X164654Y353000D02*
D03*
X171346D02*
D03*
Y346000D02*
D03*
X164654D02*
D03*
X682461Y284928D02*
D03*
X689153D02*
D03*
X682461Y269857D02*
D03*
X689153D02*
D03*
X609154Y578000D02*
D03*
X615846D02*
D03*
X566468Y570500D02*
D03*
X573161D02*
D03*
X615846D02*
D03*
X609154D02*
D03*
X709048Y570205D02*
D03*
X702355D02*
D03*
X689032Y570076D02*
D03*
X695725D02*
D03*
X652853Y578000D02*
D03*
X659547D02*
D03*
X573161D02*
D03*
X566468D02*
D03*
X659547Y570500D02*
D03*
X652853D02*
D03*
X345153Y588000D02*
D03*
X351847D02*
D03*
X461346Y617000D02*
D03*
X454654D02*
D03*
X402654Y549500D02*
D03*
X409346D02*
D03*
X744347Y596000D02*
D03*
X737653D02*
D03*
X744347Y589500D02*
D03*
X737653D02*
D03*
X634329Y195870D02*
D03*
X627636D02*
D03*
X304837Y572890D02*
D03*
X298144D02*
D03*
X415654Y406390D02*
D03*
X422346D02*
D03*
X398654Y407500D02*
D03*
X405346D02*
D03*
X183441Y605100D02*
D03*
X190134D02*
D03*
X168826D02*
D03*
X175519D02*
D03*
X154326D02*
D03*
X161019D02*
D03*
X280474Y614000D02*
D03*
X287167D02*
D03*
X266504D02*
D03*
X273197D02*
D03*
X283757Y572890D02*
D03*
X290450D02*
D03*
X689153Y239713D02*
D03*
X682461D02*
D03*
X689153Y254785D02*
D03*
X682461D02*
D03*
X689153Y300000D02*
D03*
X682461D02*
D03*
X689153Y315072D02*
D03*
X682461D02*
D03*
X132653Y383500D02*
D03*
X139347D02*
D03*
X132567Y352000D02*
D03*
X139260D02*
D03*
X312619Y436500D02*
D03*
X319312D02*
D03*
X444097Y474988D02*
D03*
X437403D02*
D03*
X526620Y325000D02*
D03*
X533313D02*
D03*
X509654Y495500D02*
D03*
X516347D02*
D03*
X468298Y366000D02*
D03*
X461605D02*
D03*
X282154Y405500D02*
D03*
X288846D02*
D03*
X155654Y196500D02*
D03*
X162346D02*
D03*
X247294Y196000D02*
D03*
X253987D02*
D03*
X342472Y198786D02*
D03*
X349165D02*
D03*
X437653Y194500D02*
D03*
X444347D02*
D03*
X530873Y194000D02*
D03*
X537566D02*
D03*
X155654Y204500D02*
D03*
X162346D02*
D03*
X247294Y204000D02*
D03*
X253987D02*
D03*
X342472Y204500D02*
D03*
X349165D02*
D03*
X437653Y203500D02*
D03*
X444347D02*
D03*
X530873Y200130D02*
D03*
X537566D02*
D03*
X627654Y202000D02*
D03*
X634346D02*
D03*
X129347Y195500D02*
D03*
X122653D02*
D03*
X200654Y196500D02*
D03*
X207347D02*
D03*
X295999D02*
D03*
X302692D02*
D03*
X388913Y194500D02*
D03*
X395605D02*
D03*
X480224Y194502D02*
D03*
X486916D02*
D03*
X581153Y194500D02*
D03*
X587847D02*
D03*
X129347Y203500D02*
D03*
X122653D02*
D03*
X200654Y204500D02*
D03*
X207347D02*
D03*
X295999Y204000D02*
D03*
X302692D02*
D03*
X388913Y203000D02*
D03*
X395605D02*
D03*
X480224Y201173D02*
D03*
X486916D02*
D03*
X581153Y203000D02*
D03*
X587847D02*
D03*
X360653Y567161D02*
D03*
X367347D02*
D03*
X360653Y582161D02*
D03*
X367347D02*
D03*
X267122Y294937D02*
D03*
X273815D02*
D03*
X271847Y325500D02*
D03*
X265154D02*
D03*
X230335Y381500D02*
D03*
X223642D02*
D03*
X282970Y594000D02*
D03*
X289663D02*
D03*
X305336Y351111D02*
D03*
X312029D02*
D03*
X286316Y553000D02*
D03*
X293009D02*
D03*
X132653Y390750D02*
D03*
X139347D02*
D03*
D28*
X353000Y481347D02*
D03*
Y474653D02*
D03*
X262000Y669654D02*
D03*
Y676346D02*
D03*
X194000Y313846D02*
D03*
Y307154D02*
D03*
X187000Y313846D02*
D03*
Y307154D02*
D03*
X621665Y454950D02*
D03*
Y461643D02*
D03*
Y437742D02*
D03*
Y444434D02*
D03*
X699773Y500437D02*
D03*
Y507130D02*
D03*
X666181Y507917D02*
D03*
Y501224D02*
D03*
X621665Y377186D02*
D03*
Y370493D02*
D03*
Y394894D02*
D03*
Y388201D02*
D03*
Y410602D02*
D03*
Y403909D02*
D03*
Y428310D02*
D03*
Y421617D02*
D03*
Y477018D02*
D03*
Y470325D02*
D03*
Y494726D02*
D03*
Y488033D02*
D03*
X487500Y464347D02*
D03*
Y457654D02*
D03*
X494000Y464347D02*
D03*
Y457654D02*
D03*
X500500Y464347D02*
D03*
Y457654D02*
D03*
X507000Y464347D02*
D03*
Y457654D02*
D03*
X513500Y464347D02*
D03*
Y457654D02*
D03*
X520000Y464347D02*
D03*
Y457654D02*
D03*
X526500Y464347D02*
D03*
Y457654D02*
D03*
X228000Y342653D02*
D03*
Y349346D02*
D03*
X319500Y348153D02*
D03*
Y354847D02*
D03*
X393000Y423319D02*
D03*
Y416627D02*
D03*
X357000D02*
D03*
Y423319D02*
D03*
X295231Y301630D02*
D03*
Y294937D02*
D03*
X345231Y301630D02*
D03*
Y294937D02*
D03*
X395490Y301630D02*
D03*
Y294937D02*
D03*
X444231Y301630D02*
D03*
Y294937D02*
D03*
X493231Y301630D02*
D03*
Y294937D02*
D03*
X541797Y301630D02*
D03*
Y294937D02*
D03*
X295231Y287063D02*
D03*
Y280370D02*
D03*
X345231Y287063D02*
D03*
Y280370D02*
D03*
X395490Y287063D02*
D03*
Y280370D02*
D03*
X444231Y287063D02*
D03*
Y280370D02*
D03*
X493231Y287063D02*
D03*
Y280370D02*
D03*
X541797Y287063D02*
D03*
Y280370D02*
D03*
X133639Y486728D02*
D03*
Y493421D02*
D03*
X147039Y487153D02*
D03*
Y493847D02*
D03*
X195584Y486228D02*
D03*
Y492921D02*
D03*
X182184Y486654D02*
D03*
Y493347D02*
D03*
X203030Y385387D02*
D03*
Y392080D02*
D03*
X296252Y334195D02*
D03*
Y340888D02*
D03*
X374500Y626653D02*
D03*
Y633347D02*
D03*
X361000Y626653D02*
D03*
Y633347D02*
D03*
X388000Y626653D02*
D03*
Y633347D02*
D03*
X400992Y627153D02*
D03*
Y633847D02*
D03*
X360653Y481347D02*
D03*
Y474653D02*
D03*
D29*
X578630Y562575D02*
D03*
Y560016D02*
D03*
Y557457D02*
D03*
Y554898D02*
D03*
Y552339D02*
D03*
Y549780D02*
D03*
Y547221D02*
D03*
Y544661D02*
D03*
Y542102D02*
D03*
Y539543D02*
D03*
Y536984D02*
D03*
Y534425D02*
D03*
X557370Y562575D02*
D03*
Y560016D02*
D03*
Y557457D02*
D03*
Y554898D02*
D03*
Y552339D02*
D03*
Y549780D02*
D03*
Y547221D02*
D03*
Y544661D02*
D03*
Y542102D02*
D03*
Y539543D02*
D03*
Y536984D02*
D03*
Y534425D02*
D03*
X709130Y562575D02*
D03*
Y560016D02*
D03*
Y557457D02*
D03*
Y554898D02*
D03*
Y552339D02*
D03*
Y549780D02*
D03*
Y547221D02*
D03*
Y544661D02*
D03*
Y542102D02*
D03*
Y539543D02*
D03*
Y536984D02*
D03*
Y534425D02*
D03*
X687870Y562575D02*
D03*
Y560016D02*
D03*
Y557457D02*
D03*
Y554898D02*
D03*
Y552339D02*
D03*
Y549780D02*
D03*
Y547221D02*
D03*
Y544661D02*
D03*
Y542102D02*
D03*
Y539543D02*
D03*
Y536984D02*
D03*
Y534425D02*
D03*
X622130Y562575D02*
D03*
Y560016D02*
D03*
Y557457D02*
D03*
Y554898D02*
D03*
Y552339D02*
D03*
Y549780D02*
D03*
Y547221D02*
D03*
Y544661D02*
D03*
Y542102D02*
D03*
Y539543D02*
D03*
Y536984D02*
D03*
Y534425D02*
D03*
X600870Y562575D02*
D03*
Y560016D02*
D03*
Y557457D02*
D03*
Y554898D02*
D03*
Y552339D02*
D03*
Y549780D02*
D03*
Y547221D02*
D03*
Y544661D02*
D03*
Y542102D02*
D03*
Y539543D02*
D03*
Y536984D02*
D03*
Y534425D02*
D03*
X665630Y562575D02*
D03*
Y560016D02*
D03*
Y557457D02*
D03*
Y554898D02*
D03*
Y552339D02*
D03*
Y549780D02*
D03*
Y547221D02*
D03*
Y544661D02*
D03*
Y542102D02*
D03*
Y539543D02*
D03*
Y536984D02*
D03*
Y534425D02*
D03*
X644370Y562575D02*
D03*
Y560016D02*
D03*
Y557457D02*
D03*
Y554898D02*
D03*
Y552339D02*
D03*
Y549780D02*
D03*
Y547221D02*
D03*
Y544661D02*
D03*
Y542102D02*
D03*
Y539543D02*
D03*
Y536984D02*
D03*
Y534425D02*
D03*
D33*
X331306Y280370D02*
D03*
X328747D02*
D03*
X326187D02*
D03*
X323628D02*
D03*
X321069D02*
D03*
X318510D02*
D03*
X315951D02*
D03*
X313392D02*
D03*
X310833D02*
D03*
X308274D02*
D03*
X305715D02*
D03*
X303156D02*
D03*
X331306Y301630D02*
D03*
X328747D02*
D03*
X326187D02*
D03*
X323628D02*
D03*
X321069D02*
D03*
X318510D02*
D03*
X315951D02*
D03*
X313392D02*
D03*
X310833D02*
D03*
X308274D02*
D03*
X305715D02*
D03*
X303156D02*
D03*
X381306Y280370D02*
D03*
X378747D02*
D03*
X376187D02*
D03*
X373628D02*
D03*
X371069D02*
D03*
X368510D02*
D03*
X365951D02*
D03*
X363392D02*
D03*
X360833D02*
D03*
X358274D02*
D03*
X355715D02*
D03*
X353156D02*
D03*
X381306Y301630D02*
D03*
X378747D02*
D03*
X376187D02*
D03*
X373628D02*
D03*
X371069D02*
D03*
X368510D02*
D03*
X365951D02*
D03*
X363392D02*
D03*
X360833D02*
D03*
X358274D02*
D03*
X355715D02*
D03*
X353156D02*
D03*
X431306Y280370D02*
D03*
X428747D02*
D03*
X426187D02*
D03*
X423628D02*
D03*
X421069D02*
D03*
X418510D02*
D03*
X415951D02*
D03*
X413392D02*
D03*
X410833D02*
D03*
X408274D02*
D03*
X405715D02*
D03*
X403156D02*
D03*
X431306Y301630D02*
D03*
X428747D02*
D03*
X426187D02*
D03*
X423628D02*
D03*
X421069D02*
D03*
X418510D02*
D03*
X415951D02*
D03*
X413392D02*
D03*
X410833D02*
D03*
X408274D02*
D03*
X405715D02*
D03*
X403156D02*
D03*
X480305Y280370D02*
D03*
X477746D02*
D03*
X475187D02*
D03*
X472628D02*
D03*
X470069D02*
D03*
X467510D02*
D03*
X464951D02*
D03*
X462392D02*
D03*
X459833D02*
D03*
X457274D02*
D03*
X454715D02*
D03*
X452156D02*
D03*
X480305Y301630D02*
D03*
X477746D02*
D03*
X475187D02*
D03*
X472628D02*
D03*
X470069D02*
D03*
X467510D02*
D03*
X464951D02*
D03*
X462392D02*
D03*
X459833D02*
D03*
X457274D02*
D03*
X454715D02*
D03*
X452156D02*
D03*
X529306Y280370D02*
D03*
X526747D02*
D03*
X524187D02*
D03*
X521628D02*
D03*
X519069D02*
D03*
X516510D02*
D03*
X513951D02*
D03*
X511392D02*
D03*
X508833D02*
D03*
X506274D02*
D03*
X503715D02*
D03*
X501156D02*
D03*
X529306Y301630D02*
D03*
X526747D02*
D03*
X524187D02*
D03*
X521628D02*
D03*
X519069D02*
D03*
X516510D02*
D03*
X513951D02*
D03*
X511392D02*
D03*
X508833D02*
D03*
X506274D02*
D03*
X503715D02*
D03*
X501156D02*
D03*
X577872Y280370D02*
D03*
X575313D02*
D03*
X572754D02*
D03*
X570194D02*
D03*
X567635D02*
D03*
X565076D02*
D03*
X562517D02*
D03*
X559958D02*
D03*
X557399D02*
D03*
X554840D02*
D03*
X552281D02*
D03*
X549722D02*
D03*
X577872Y301630D02*
D03*
X575313D02*
D03*
X572754D02*
D03*
X570194D02*
D03*
X567635D02*
D03*
X565076D02*
D03*
X562517D02*
D03*
X559958D02*
D03*
X557399D02*
D03*
X554840D02*
D03*
X552281D02*
D03*
X549722D02*
D03*
D35*
X152768Y313559D02*
D03*
Y308441D02*
D03*
X161232D02*
D03*
Y311000D02*
D03*
Y313559D02*
D03*
X170768D02*
D03*
Y311000D02*
D03*
Y308441D02*
D03*
X179232D02*
D03*
Y311000D02*
D03*
Y313559D02*
D03*
X312816Y340100D02*
D03*
Y337541D02*
D03*
Y334982D02*
D03*
X304352D02*
D03*
Y337541D02*
D03*
Y340100D02*
D03*
D38*
X336000Y667413D02*
D03*
Y656587D02*
D03*
X322000Y686413D02*
D03*
Y675587D02*
D03*
X628300Y692319D02*
D03*
Y681492D02*
D03*
X468300Y692758D02*
D03*
Y681931D02*
D03*
X733000Y359913D02*
D03*
Y370740D02*
D03*
X223000Y117413D02*
D03*
Y106587D02*
D03*
X233000Y106587D02*
D03*
Y117413D02*
D03*
X227000Y147587D02*
D03*
Y158413D02*
D03*
X387000Y118413D02*
D03*
Y107587D02*
D03*
Y138413D02*
D03*
Y127587D02*
D03*
Y164587D02*
D03*
Y175413D02*
D03*
Y146587D02*
D03*
Y157413D02*
D03*
X547000Y146587D02*
D03*
Y157413D02*
D03*
Y137413D02*
D03*
Y126587D02*
D03*
Y119173D02*
D03*
Y108346D02*
D03*
Y165587D02*
D03*
Y176413D02*
D03*
X707000Y146587D02*
D03*
Y157413D02*
D03*
Y165587D02*
D03*
Y176413D02*
D03*
Y136413D02*
D03*
Y125587D02*
D03*
Y117413D02*
D03*
Y106587D02*
D03*
X227000Y128587D02*
D03*
Y139413D02*
D03*
X727000Y106587D02*
D03*
Y117413D02*
D03*
X567000Y107587D02*
D03*
Y118413D02*
D03*
X406000Y107587D02*
D03*
Y118413D02*
D03*
X247000Y106587D02*
D03*
Y117413D02*
D03*
X529306Y395087D02*
D03*
Y405913D02*
D03*
X403500Y598913D02*
D03*
Y588087D02*
D03*
D39*
X640000Y493228D02*
D03*
X645000D02*
D03*
X650000D02*
D03*
X655000D02*
D03*
X660000D02*
D03*
X665000D02*
D03*
X670000D02*
D03*
X640000Y471772D02*
D03*
X645000D02*
D03*
X650000D02*
D03*
X655000D02*
D03*
X660000D02*
D03*
X665000D02*
D03*
X670000D02*
D03*
X640000Y460228D02*
D03*
X645000D02*
D03*
X650000D02*
D03*
X655000D02*
D03*
X660000D02*
D03*
X665000D02*
D03*
X670000D02*
D03*
X640000Y438772D02*
D03*
X645000D02*
D03*
X650000D02*
D03*
X655000D02*
D03*
X660000D02*
D03*
X665000D02*
D03*
X670000D02*
D03*
X640000Y393728D02*
D03*
X645000D02*
D03*
X650000D02*
D03*
X655000D02*
D03*
X660000D02*
D03*
X665000D02*
D03*
X670000D02*
D03*
X640000Y372272D02*
D03*
X645000D02*
D03*
X650000D02*
D03*
X655000D02*
D03*
X660000D02*
D03*
X665000D02*
D03*
X670000D02*
D03*
X640000Y426728D02*
D03*
X645000D02*
D03*
X650000D02*
D03*
X655000D02*
D03*
X660000D02*
D03*
X665000D02*
D03*
X670000D02*
D03*
X640000Y405272D02*
D03*
X645000D02*
D03*
X650000D02*
D03*
X655000D02*
D03*
X660000D02*
D03*
X665000D02*
D03*
X670000D02*
D03*
D40*
X264587Y304543D02*
D03*
Y308283D02*
D03*
Y312024D02*
D03*
X275413D02*
D03*
Y304543D02*
D03*
D43*
X135000Y665000D02*
D03*
X117500Y140000D02*
D03*
X745000Y665000D02*
D03*
X587847Y290393D02*
D03*
X687500Y217000D02*
D03*
X754000Y175000D02*
D03*
D45*
X688252Y598000D02*
D03*
X703748D02*
D03*
X229252Y591500D02*
D03*
X244748D02*
D03*
X225252Y548000D02*
D03*
X240748D02*
D03*
D94*
X148500Y682500D02*
X160500Y670500D01*
X208000D01*
X220000Y658500D01*
X128750Y682500D02*
X148500D01*
X117500D02*
X128750D01*
X220000Y568000D02*
Y658500D01*
X216000Y564000D02*
X220000Y568000D01*
X216000Y537500D02*
Y564000D01*
Y537500D02*
X218500Y535000D01*
X757500Y531500D02*
X758405Y530594D01*
X757500Y359000D02*
X762500Y364000D01*
X757500Y198500D02*
X762500Y203500D01*
X757500Y192168D02*
X768000Y181668D01*
X757500Y128750D02*
Y155500D01*
Y117500D02*
Y128750D01*
X768000Y166000D02*
Y181668D01*
X757500Y192168D02*
Y198500D01*
Y155500D02*
X768000Y166000D01*
X161400Y473600D02*
X173732D01*
X256525Y639346D02*
X266852D01*
X255951Y639920D02*
X256525Y639346D01*
X266852D02*
X278982Y627216D01*
X298520D01*
X318724Y607012D01*
Y551425D02*
Y607012D01*
X303299Y536000D02*
X318724Y551425D01*
X234000Y536000D02*
X303299D01*
X225500Y527500D02*
X234000Y536000D01*
X192000Y574000D02*
X201000Y565000D01*
X172887Y574000D02*
X187000D01*
X192000D01*
X187000Y631000D02*
X201000Y645000D01*
X172887Y631000D02*
X187000D01*
X140339Y610496D02*
Y624339D01*
X147000Y631000D01*
X157391D01*
X121000Y583341D02*
X130341Y574000D01*
X121000Y583341D02*
Y595000D01*
X130341Y574000D02*
X157391D01*
X121000Y615000D02*
X121564D01*
X126068Y610496D02*
X140339D01*
X121564Y615000D02*
X126068Y610496D01*
X121000Y595000D02*
X140339D01*
X225500Y486620D02*
Y527500D01*
X212480Y473600D02*
X225500Y486620D01*
X183800Y473600D02*
X212480D01*
X173732D02*
X183800D01*
D95*
X174015Y654703D02*
X206485D01*
X201000Y565000D02*
X210000Y574000D01*
Y651188D01*
X206485Y654703D02*
X210000Y651188D01*
X178500Y563500D02*
X178639Y563361D01*
Y539500D02*
Y563361D01*
X173500Y563500D02*
X178500D01*
X169000D02*
X173500D01*
X178500D02*
X184000D01*
X188500D01*
X139000D02*
X143500D01*
X133500D02*
X139000D01*
X124000D02*
X128500D01*
X133500D01*
X133639Y539500D02*
Y563361D01*
X133500Y563500D02*
X133639Y563361D01*
X188384Y539500D02*
X188884Y539000D01*
X133639Y539500D02*
X188384D01*
X170500Y658218D02*
X174015Y654703D01*
X170500Y658218D02*
Y663000D01*
D98*
X116072Y413814D02*
Y448572D01*
X117500Y450000D01*
X116000Y413742D02*
X116072Y413814D01*
D99*
X757500Y209750D02*
D03*
X768750Y198500D02*
D03*
X757500Y187250D02*
D03*
X746250Y198500D02*
D03*
X747657Y204405D02*
D03*
X751594Y208343D02*
D03*
Y188657D02*
D03*
X767343Y192595D02*
D03*
X763406Y208343D02*
D03*
X747657Y192595D02*
D03*
X763406Y188657D02*
D03*
X767343Y204405D02*
D03*
X757500Y542750D02*
D03*
X768750Y531500D02*
D03*
X757500Y520250D02*
D03*
X746250Y531500D02*
D03*
X747657Y537405D02*
D03*
X751594Y541342D02*
D03*
Y521658D02*
D03*
X767343Y525595D02*
D03*
X763406Y541342D02*
D03*
X747657Y525595D02*
D03*
X763406Y521658D02*
D03*
X767343Y537405D02*
D03*
X757500Y370250D02*
D03*
X768750Y359000D02*
D03*
X757500Y347750D02*
D03*
X746250Y359000D02*
D03*
X747657Y364906D02*
D03*
X751594Y368843D02*
D03*
Y349158D02*
D03*
X767343Y353095D02*
D03*
X763406Y368843D02*
D03*
X747657Y353095D02*
D03*
X763406Y349158D02*
D03*
X767343Y364906D02*
D03*
X437500Y693750D02*
D03*
X448750Y682500D02*
D03*
X437500Y671250D02*
D03*
X426250Y682500D02*
D03*
X427658Y688406D02*
D03*
X431595Y692343D02*
D03*
Y672657D02*
D03*
X447342Y676594D02*
D03*
X443405Y692343D02*
D03*
X427658Y676594D02*
D03*
X443405Y672657D02*
D03*
X447342Y688406D02*
D03*
X117500Y693750D02*
D03*
X128750Y682500D02*
D03*
X117500Y671250D02*
D03*
X106250Y682500D02*
D03*
X107658Y688406D02*
D03*
X111594Y692343D02*
D03*
Y672657D02*
D03*
X127342Y676594D02*
D03*
X123406Y692343D02*
D03*
X107658Y676594D02*
D03*
X123406Y672657D02*
D03*
X127342Y688406D02*
D03*
X757500Y693750D02*
D03*
X768750Y682500D02*
D03*
X757500Y671250D02*
D03*
X746250Y682500D02*
D03*
X747657Y688406D02*
D03*
X751594Y692343D02*
D03*
Y672657D02*
D03*
X767343Y676594D02*
D03*
X763406Y692343D02*
D03*
X747657Y676594D02*
D03*
X763406Y672657D02*
D03*
X767343Y688406D02*
D03*
X597500Y693750D02*
D03*
X608750Y682500D02*
D03*
X597500Y671250D02*
D03*
X586250Y682500D02*
D03*
X587657Y688406D02*
D03*
X591595Y692343D02*
D03*
Y672657D02*
D03*
X607342Y676594D02*
D03*
X603406Y692343D02*
D03*
X587657Y676594D02*
D03*
X603406Y672657D02*
D03*
X607342Y688406D02*
D03*
X117500Y461250D02*
D03*
X128750Y450000D02*
D03*
X117500Y438750D02*
D03*
X106250Y450000D02*
D03*
X107658Y455905D02*
D03*
X111594Y459842D02*
D03*
Y440158D02*
D03*
X127342Y444095D02*
D03*
X123406Y459842D02*
D03*
X107658Y444095D02*
D03*
X123406Y440158D02*
D03*
X127342Y455905D02*
D03*
X757500Y128750D02*
D03*
X768750Y117500D02*
D03*
X757500Y106250D02*
D03*
X746250Y117500D02*
D03*
X747657Y123406D02*
D03*
X751594Y127342D02*
D03*
Y107658D02*
D03*
X767343Y111594D02*
D03*
X763406Y127342D02*
D03*
X747657Y111594D02*
D03*
X763406Y107658D02*
D03*
X767343Y123406D02*
D03*
X597500Y128750D02*
D03*
X608750Y117500D02*
D03*
X597500Y106250D02*
D03*
X586250Y117500D02*
D03*
X587657Y123406D02*
D03*
X591595Y127342D02*
D03*
Y107658D02*
D03*
X607342Y111594D02*
D03*
X603406Y127342D02*
D03*
X587657Y111594D02*
D03*
X603406Y107658D02*
D03*
X607342Y123406D02*
D03*
X437500Y128750D02*
D03*
X448750Y117500D02*
D03*
X437500Y106250D02*
D03*
X426250Y117500D02*
D03*
X427658Y123406D02*
D03*
X431595Y127342D02*
D03*
Y107658D02*
D03*
X447342Y111594D02*
D03*
X443405Y127342D02*
D03*
X427658Y111594D02*
D03*
X443405Y107658D02*
D03*
X447342Y123406D02*
D03*
X277500Y128750D02*
D03*
X288750Y117500D02*
D03*
X277500Y106250D02*
D03*
X266250Y117500D02*
D03*
X267657Y123406D02*
D03*
X271595Y127342D02*
D03*
Y107658D02*
D03*
X287343Y111594D02*
D03*
X283405Y127342D02*
D03*
X267657Y111594D02*
D03*
X283405Y107658D02*
D03*
X287343Y123406D02*
D03*
X117500Y128750D02*
D03*
X128750Y117500D02*
D03*
X117500Y106250D02*
D03*
X106250Y117500D02*
D03*
X107658Y123406D02*
D03*
X111594Y127342D02*
D03*
Y107658D02*
D03*
X127342Y111594D02*
D03*
X123406Y127342D02*
D03*
X107658Y111594D02*
D03*
X123406Y107658D02*
D03*
X127342Y123406D02*
D03*
X344173Y332661D02*
D03*
Y507661D02*
D03*
X272173Y333111D02*
D03*
X750000Y596000D02*
D03*
Y589500D02*
D03*
X151000Y593000D02*
D03*
X309737Y572890D02*
D03*
X263000Y564000D02*
D03*
D100*
X757500Y198500D02*
D03*
Y531500D02*
D03*
Y359000D02*
D03*
X437500Y682500D02*
D03*
X117500D02*
D03*
X757500D02*
D03*
X597500D02*
D03*
X117500Y450000D02*
D03*
X757500Y117500D02*
D03*
X597500D02*
D03*
X437500D02*
D03*
X277500D02*
D03*
X117500D02*
D03*
D101*
X180344Y677500D02*
D03*
X170344Y691988D02*
D03*
X163500Y338879D02*
D03*
X183500Y378500D02*
D03*
X180500Y663000D02*
D03*
X205811Y301421D02*
D03*
D102*
X170344Y677500D02*
D03*
X180344Y691988D02*
D03*
X684500Y484500D02*
D03*
Y474500D02*
D03*
Y464500D02*
D03*
X694500Y459500D02*
D03*
Y469500D02*
D03*
Y479500D02*
D03*
Y489500D02*
D03*
X719000D02*
D03*
Y479500D02*
D03*
Y469500D02*
D03*
X709000Y494500D02*
D03*
Y464500D02*
D03*
Y474500D02*
D03*
Y484500D02*
D03*
X684500Y422500D02*
D03*
Y412500D02*
D03*
Y402500D02*
D03*
X694500Y397500D02*
D03*
Y407500D02*
D03*
Y417500D02*
D03*
Y427500D02*
D03*
X719000D02*
D03*
Y417500D02*
D03*
Y407500D02*
D03*
X709000Y402500D02*
D03*
Y412500D02*
D03*
Y432500D02*
D03*
Y422500D02*
D03*
X173500Y338879D02*
D03*
X183500D02*
D03*
X173500Y378500D02*
D03*
X163500D02*
D03*
X247706Y689879D02*
D03*
X229989D02*
D03*
X170500Y663000D02*
D03*
X278000Y284531D02*
D03*
Y274531D02*
D03*
X260996Y284531D02*
D03*
Y274531D02*
D03*
X243992Y284531D02*
D03*
Y274531D02*
D03*
X226989Y284531D02*
D03*
Y274531D02*
D03*
X679176Y335263D02*
D03*
X656998Y334763D02*
D03*
X225811Y301421D02*
D03*
X215811D02*
D03*
X193000Y399000D02*
D03*
X203500Y481529D02*
D03*
X209687Y504142D02*
D03*
X122069Y159932D02*
D03*
X190300Y414342D02*
D03*
X203500Y467000D02*
D03*
X218500Y535000D02*
D03*
X120500Y176000D02*
D03*
D103*
X751500Y502000D02*
D03*
Y390000D02*
D03*
X400000Y645000D02*
D03*
X362000D02*
D03*
D104*
X690500Y383000D02*
D03*
X723500D02*
D03*
Y509000D02*
D03*
X690500D02*
D03*
D105*
X684500Y494500D02*
D03*
X719000Y459500D02*
D03*
X684500Y432500D02*
D03*
X719000Y397500D02*
D03*
X278000Y264531D02*
D03*
X260996D02*
D03*
X243992D02*
D03*
X226989D02*
D03*
X679176Y345263D02*
D03*
X656998Y344763D02*
D03*
D106*
X321659Y658879D02*
D03*
X274257D02*
D03*
D107*
X293037Y648209D02*
D03*
X302879D02*
D03*
Y640335D02*
D03*
X293037D02*
D03*
X707929Y581626D02*
D03*
X697929D02*
D03*
X727929D02*
D03*
X737929D02*
D03*
X747929D02*
D03*
X757929D02*
D03*
D108*
X662800Y173000D02*
D03*
X680800D02*
D03*
X671800D02*
D03*
X689800D02*
D03*
X698800D02*
D03*
X667300Y183000D02*
D03*
X676300D02*
D03*
X685300D02*
D03*
X658300D02*
D03*
Y163000D02*
D03*
X685300D02*
D03*
X694300D02*
D03*
X676300D02*
D03*
X667300D02*
D03*
Y134000D02*
D03*
X676300D02*
D03*
X694300D02*
D03*
X685300D02*
D03*
X658300D02*
D03*
Y154000D02*
D03*
X685300D02*
D03*
X676300D02*
D03*
X667300D02*
D03*
X698800Y144000D02*
D03*
X689800D02*
D03*
X671800D02*
D03*
X680800D02*
D03*
X662800D02*
D03*
X532200Y627000D02*
D03*
X514200D02*
D03*
X523200D02*
D03*
X505200D02*
D03*
X496200D02*
D03*
X527700Y617000D02*
D03*
X518700D02*
D03*
X509700D02*
D03*
X536700D02*
D03*
Y637000D02*
D03*
X509700D02*
D03*
X500700D02*
D03*
X518700D02*
D03*
X527700D02*
D03*
Y666000D02*
D03*
X518700D02*
D03*
X500700D02*
D03*
X509700D02*
D03*
X536700D02*
D03*
Y646000D02*
D03*
X509700D02*
D03*
X518700D02*
D03*
X527700D02*
D03*
X496200Y656000D02*
D03*
X505200D02*
D03*
X523200D02*
D03*
X514200D02*
D03*
X532200D02*
D03*
X692200D02*
D03*
X674200D02*
D03*
X683200D02*
D03*
X665200D02*
D03*
X656200D02*
D03*
X687700Y646000D02*
D03*
X678700D02*
D03*
X669700D02*
D03*
X696700D02*
D03*
Y666000D02*
D03*
X669700D02*
D03*
X660700D02*
D03*
X678700D02*
D03*
X687700D02*
D03*
Y637000D02*
D03*
X678700D02*
D03*
X660700D02*
D03*
X669700D02*
D03*
X696700D02*
D03*
Y617000D02*
D03*
X669700D02*
D03*
X678700D02*
D03*
X687700D02*
D03*
X656200Y627000D02*
D03*
X665200D02*
D03*
X683200D02*
D03*
X674200D02*
D03*
X692200D02*
D03*
X502800Y144000D02*
D03*
X520800D02*
D03*
X511800D02*
D03*
X529800D02*
D03*
X538800D02*
D03*
X507300Y154000D02*
D03*
X516300D02*
D03*
X525300D02*
D03*
X498300D02*
D03*
Y134000D02*
D03*
X525300D02*
D03*
X534300D02*
D03*
X516300D02*
D03*
X507300D02*
D03*
Y163000D02*
D03*
X516300D02*
D03*
X534300D02*
D03*
X525300D02*
D03*
X498300D02*
D03*
Y183000D02*
D03*
X525300D02*
D03*
X516300D02*
D03*
X507300D02*
D03*
X538800Y173000D02*
D03*
X529800D02*
D03*
X511800D02*
D03*
X520800D02*
D03*
X502800D02*
D03*
X342800Y144000D02*
D03*
X360800D02*
D03*
X351800D02*
D03*
X369800D02*
D03*
X378800D02*
D03*
X347300Y154000D02*
D03*
X356300D02*
D03*
X365300D02*
D03*
X338300D02*
D03*
Y134000D02*
D03*
X365300D02*
D03*
X374300D02*
D03*
X356300D02*
D03*
X347300D02*
D03*
Y163000D02*
D03*
X356300D02*
D03*
X374300D02*
D03*
X365300D02*
D03*
X338300D02*
D03*
Y183000D02*
D03*
X365300D02*
D03*
X356300D02*
D03*
X347300D02*
D03*
X378800Y173000D02*
D03*
X369800D02*
D03*
X351800D02*
D03*
X360800D02*
D03*
X342800D02*
D03*
X182800Y144000D02*
D03*
X200800D02*
D03*
X191800D02*
D03*
X209800D02*
D03*
X218800D02*
D03*
X187300Y154000D02*
D03*
X196300D02*
D03*
X205300D02*
D03*
X178300D02*
D03*
Y134000D02*
D03*
X205300D02*
D03*
X214300D02*
D03*
X196300D02*
D03*
X187300D02*
D03*
Y163000D02*
D03*
X196300D02*
D03*
X214300D02*
D03*
X205300D02*
D03*
X178300D02*
D03*
Y183000D02*
D03*
X205300D02*
D03*
X196300D02*
D03*
X187300D02*
D03*
X218800Y173000D02*
D03*
X209800D02*
D03*
X191800D02*
D03*
X200800D02*
D03*
X182800D02*
D03*
D109*
X694300Y183000D02*
D03*
Y154000D02*
D03*
X500700Y617000D02*
D03*
Y646000D02*
D03*
X660700D02*
D03*
Y617000D02*
D03*
X534300Y154000D02*
D03*
Y183000D02*
D03*
X374300Y154000D02*
D03*
Y183000D02*
D03*
X214300Y154000D02*
D03*
Y183000D02*
D03*
D110*
X628300Y168646D02*
D03*
Y134000D02*
D03*
X726700D02*
D03*
Y168646D02*
D03*
X566700Y631354D02*
D03*
Y666000D02*
D03*
X468300D02*
D03*
Y631354D02*
D03*
X628300D02*
D03*
Y666000D02*
D03*
X726700D02*
D03*
Y631354D02*
D03*
X566700Y168646D02*
D03*
Y134000D02*
D03*
X468300D02*
D03*
Y168646D02*
D03*
X406700D02*
D03*
Y134000D02*
D03*
X308300D02*
D03*
Y168646D02*
D03*
X246700D02*
D03*
Y134000D02*
D03*
X148300D02*
D03*
Y168646D02*
D03*
D111*
X687929Y581626D02*
D03*
D112*
X410600Y660000D02*
D03*
Y670000D02*
D03*
Y680000D02*
D03*
X351400Y670000D02*
D03*
Y680000D02*
D03*
D113*
X361000Y619000D02*
D03*
D114*
X368992D02*
D03*
X376992D02*
D03*
X400992D02*
D03*
X392992D02*
D03*
X385000D02*
D03*
X365000Y609000D02*
D03*
X373000D02*
D03*
X357000D02*
D03*
X389000D02*
D03*
X397000D02*
D03*
X405000D02*
D03*
D115*
X346400Y645000D02*
D03*
X415600D02*
D03*
D116*
X121000Y595000D02*
D03*
D117*
Y615000D02*
D03*
Y645000D02*
D03*
X201000D02*
D03*
Y605000D02*
D03*
Y565000D02*
D03*
D118*
X303000Y605000D02*
D03*
X293000D02*
D03*
X283000D02*
D03*
X273000D02*
D03*
X253000D02*
D03*
X243000D02*
D03*
X303000Y562904D02*
D03*
X293000D02*
D03*
X283000D02*
D03*
X273000D02*
D03*
X253000D02*
D03*
X243000D02*
D03*
X716386Y284665D02*
D03*
Y295571D02*
D03*
Y273760D02*
D03*
Y262854D02*
D03*
X705205Y257402D02*
D03*
Y268307D02*
D03*
Y290118D02*
D03*
Y279213D02*
D03*
X731819D02*
D03*
Y290118D02*
D03*
Y268307D02*
D03*
Y257402D02*
D03*
X743000Y262854D02*
D03*
Y273760D02*
D03*
Y295571D02*
D03*
Y284665D02*
D03*
X155300Y454500D02*
D03*
D119*
X233000Y605000D02*
D03*
Y562904D02*
D03*
X175000Y454500D02*
D03*
D120*
X252647Y680076D02*
D03*
X225048D02*
D03*
X116000Y295543D02*
D03*
Y374342D02*
D03*
Y413742D02*
D03*
Y334943D02*
D03*
D121*
X616173Y322611D02*
D03*
X246173Y517611D02*
D03*
Y322611D02*
D03*
X616173Y517611D02*
D03*
D122*
X518173Y332661D02*
D03*
Y507661D02*
D03*
X272173Y507111D02*
D03*
D123*
X705205Y301024D02*
D03*
X731819D02*
D03*
D124*
X711504Y230000D02*
D03*
Y328425D02*
D03*
X743000D02*
D03*
Y230000D02*
D03*
D125*
X116000Y275857D02*
D03*
Y354658D02*
D03*
Y394057D02*
D03*
Y315258D02*
D03*
D126*
X278500Y693000D02*
D03*
Y673500D02*
D03*
X129000Y189000D02*
D03*
X312000Y690000D02*
D03*
X214500Y104500D02*
D03*
X178500Y563500D02*
D03*
X173500D02*
D03*
X184000D02*
D03*
X169000D02*
D03*
X188500D02*
D03*
X199500Y576500D02*
D03*
X143500Y563500D02*
D03*
X124000D02*
D03*
X139000D02*
D03*
X128500D02*
D03*
X133500D02*
D03*
X152768Y258800D02*
D03*
X107614Y492000D02*
D03*
X643730Y348263D02*
D03*
X356546Y447453D02*
D03*
X417000Y394911D02*
D03*
X205300Y228500D02*
D03*
X447250Y617000D02*
D03*
X700600Y106587D02*
D03*
X720336Y144898D02*
D03*
X536563Y104750D02*
D03*
X558300Y146556D02*
D03*
X398469Y146588D02*
D03*
X378800Y105189D02*
D03*
X237225Y142850D02*
D03*
X744500Y628500D02*
D03*
X307516Y683626D02*
D03*
X307500Y673500D02*
D03*
X751000Y628500D02*
D03*
X640252Y640485D02*
D03*
Y643684D02*
D03*
X582500Y651573D02*
D03*
Y648373D02*
D03*
X573500Y656200D02*
D03*
Y653000D02*
D03*
X702705Y619000D02*
D03*
X706000D02*
D03*
X706500Y647500D02*
D03*
X703300D02*
D03*
X295000Y410500D02*
D03*
X300000Y413837D02*
D03*
X290500Y413300D02*
D03*
X249500Y359000D02*
D03*
X175500Y364000D02*
D03*
X149500Y320500D02*
D03*
X175000Y325000D02*
D03*
X171000Y322000D02*
D03*
X167350Y296650D02*
D03*
X148500Y308500D02*
D03*
X178500Y341000D02*
D03*
X161000Y363000D02*
D03*
X164500Y373000D02*
D03*
X169000Y372500D02*
D03*
X423000Y649500D02*
D03*
Y638000D02*
D03*
X461346Y612500D02*
D03*
X435102Y613100D02*
D03*
X505000Y534500D02*
D03*
X482000Y537000D02*
D03*
X501000Y536500D02*
D03*
X445500Y540000D02*
D03*
X405500Y540500D02*
D03*
X471000Y537000D02*
D03*
X478500Y536500D02*
D03*
X497000Y561500D02*
D03*
X427500Y527000D02*
D03*
X357000Y561000D02*
D03*
X387500Y565500D02*
D03*
X340500Y588000D02*
D03*
X339000Y579500D02*
D03*
X316000Y645500D02*
D03*
X321000Y622500D02*
D03*
X394500Y548500D02*
D03*
X365500Y558000D02*
D03*
X402500Y553500D02*
D03*
X441500Y558000D02*
D03*
X566000Y555500D02*
D03*
X563000Y557500D02*
D03*
X551000Y542461D02*
D03*
X443000Y530000D02*
D03*
Y526500D02*
D03*
X564980Y551208D02*
D03*
X594500Y513500D02*
D03*
X589500D02*
D03*
X584500D02*
D03*
X651980Y553126D02*
D03*
X484787Y534982D02*
D03*
X651980Y548008D02*
D03*
X489441Y535213D02*
D03*
X657492Y547168D02*
D03*
X494403Y535213D02*
D03*
X651958Y542890D02*
D03*
X652000Y539500D02*
D03*
X657000Y541000D02*
D03*
X594000Y537000D02*
D03*
X613056Y539944D02*
D03*
X612500Y494711D02*
D03*
X721500Y552000D02*
D03*
X718500Y549500D02*
D03*
X718000Y543000D02*
D03*
X715500Y547000D02*
D03*
X417000Y510096D02*
D03*
X418787Y506170D02*
D03*
X427623D02*
D03*
X426449Y510096D02*
D03*
X499018Y510018D02*
D03*
X637500Y562856D02*
D03*
X630500Y570000D02*
D03*
X492142Y570753D02*
D03*
X488056Y564944D02*
D03*
X472000Y568000D02*
D03*
X681636Y542102D02*
D03*
X676681Y544661D02*
D03*
X681636Y547221D02*
D03*
X676681Y549780D02*
D03*
X681636Y552339D02*
D03*
X676681Y554898D02*
D03*
X638136Y542102D02*
D03*
X633181Y544661D02*
D03*
X638136Y547221D02*
D03*
X633181Y549780D02*
D03*
X638136Y552339D02*
D03*
X633181Y554898D02*
D03*
X594636Y542102D02*
D03*
X589681Y544661D02*
D03*
X594636Y547221D02*
D03*
X589681Y549780D02*
D03*
X594636Y552339D02*
D03*
X589681Y554898D02*
D03*
X546181Y544661D02*
D03*
X551136Y547221D02*
D03*
X546181Y549780D02*
D03*
Y554898D02*
D03*
X551136Y552339D02*
D03*
X701972Y554110D02*
D03*
X698937Y555800D02*
D03*
X658472Y554110D02*
D03*
X655437Y555800D02*
D03*
X608458Y542890D02*
D03*
X613992Y547168D02*
D03*
X608480Y548008D02*
D03*
X614972Y554110D02*
D03*
X608480Y553126D02*
D03*
X611937Y555800D02*
D03*
X701847Y536984D02*
D03*
X701849Y542102D02*
D03*
X693632Y534425D02*
D03*
X572121Y536984D02*
D03*
X564598D02*
D03*
X564958Y542890D02*
D03*
X570492Y547168D02*
D03*
X564980Y548008D02*
D03*
X571472Y554110D02*
D03*
X481942Y488321D02*
D03*
X481442Y479959D02*
D03*
X494984Y506170D02*
D03*
X505000Y487500D02*
D03*
Y491126D02*
D03*
X474484Y534982D02*
D03*
X467394D02*
D03*
X457945Y509647D02*
D03*
X468394Y510123D02*
D03*
X467394Y506557D02*
D03*
X461094Y505800D02*
D03*
X451646D02*
D03*
X409399Y524288D02*
D03*
X435823Y508793D02*
D03*
X407766Y521536D02*
D03*
X472534Y578339D02*
D03*
X472346Y573438D02*
D03*
X493405Y576818D02*
D03*
X504854Y581153D02*
D03*
X519510Y569142D02*
D03*
X540500Y563250D02*
D03*
X526726Y579140D02*
D03*
X541764Y578398D02*
D03*
X540723Y574038D02*
D03*
X562000Y569617D02*
D03*
X560847Y577209D02*
D03*
X584838Y587982D02*
D03*
X588159Y569492D02*
D03*
X595329Y565516D02*
D03*
X597200Y582669D02*
D03*
X610683Y584539D02*
D03*
X622622Y579548D02*
D03*
X631173Y577901D02*
D03*
X645000Y566000D02*
D03*
X656651Y584539D02*
D03*
X677379Y565516D02*
D03*
X677400Y580898D02*
D03*
X676463Y594738D02*
D03*
X676437Y588654D02*
D03*
X641431Y591549D02*
D03*
X605084Y590524D02*
D03*
X557500Y592000D02*
D03*
X539600Y595871D02*
D03*
X489700Y595890D02*
D03*
X535252Y468811D02*
D03*
X475187Y393511D02*
D03*
X536437Y393411D02*
D03*
X542687Y393511D02*
D03*
X520187D02*
D03*
X497687D02*
D03*
X714770Y562629D02*
D03*
X682379Y562537D02*
D03*
X670835D02*
D03*
X621545Y572579D02*
D03*
X610032Y561461D02*
D03*
X562500Y566000D02*
D03*
X584500Y562500D02*
D03*
X702248Y565778D02*
D03*
X695841D02*
D03*
X695400Y558500D02*
D03*
X652212D02*
D03*
X612716Y588952D02*
D03*
X609154Y566580D02*
D03*
X607673Y557501D02*
D03*
X567378Y561787D02*
D03*
X487000Y418000D02*
D03*
X488000Y413500D02*
D03*
X401252Y525331D02*
D03*
X490000Y410500D02*
D03*
X398102Y522550D02*
D03*
X501500Y409500D02*
D03*
X502227Y402861D02*
D03*
X391803Y525331D02*
D03*
X382354D02*
D03*
X388654Y522550D02*
D03*
X379205D02*
D03*
X372906D02*
D03*
X366606D02*
D03*
X369756Y525331D02*
D03*
X698452Y122345D02*
D03*
X705205Y183000D02*
D03*
X539500Y124466D02*
D03*
X549328Y180737D02*
D03*
X380000Y125000D02*
D03*
X388000Y180500D02*
D03*
X223000Y124466D02*
D03*
X226989Y163641D02*
D03*
X570194Y347000D02*
D03*
X468500Y371500D02*
D03*
X546500Y469000D02*
D03*
X548553Y407000D02*
D03*
X548548Y414096D02*
D03*
X548553Y421500D02*
D03*
Y428500D02*
D03*
Y435500D02*
D03*
Y443000D02*
D03*
Y450500D02*
D03*
X526500Y468553D02*
D03*
X520000D02*
D03*
X513274Y468610D02*
D03*
X507000Y468553D02*
D03*
X500500D02*
D03*
X494000D02*
D03*
X487500D02*
D03*
X465454Y450076D02*
D03*
Y442880D02*
D03*
X465447Y435500D02*
D03*
Y428500D02*
D03*
Y421500D02*
D03*
Y414500D02*
D03*
X465454Y406900D02*
D03*
X744482Y485000D02*
D03*
Y480000D02*
D03*
X744500Y488500D02*
D03*
X753000D02*
D03*
X636000Y476500D02*
D03*
X631000Y457000D02*
D03*
X628000Y433000D02*
D03*
X632500Y389000D02*
D03*
X639905Y378900D02*
D03*
X294000Y356500D02*
D03*
X397944Y420056D02*
D03*
X413500Y462000D02*
D03*
X415500Y412500D02*
D03*
X390194Y412306D02*
D03*
X350000Y419000D02*
D03*
X377006Y418494D02*
D03*
X627500Y373500D02*
D03*
Y480000D02*
D03*
Y474500D02*
D03*
X650000Y432000D02*
D03*
X556500Y504000D02*
D03*
X550500Y488500D02*
D03*
X550000Y504000D02*
D03*
X567500Y496000D02*
D03*
X655500Y413000D02*
D03*
X655000Y399000D02*
D03*
X627416Y461500D02*
D03*
Y444500D02*
D03*
Y455400D02*
D03*
Y438000D02*
D03*
X570000Y359000D02*
D03*
Y336500D02*
D03*
Y367500D02*
D03*
X744488Y461167D02*
D03*
X744482Y466167D02*
D03*
X525000Y412500D02*
D03*
X522000Y409500D02*
D03*
X518000Y408400D02*
D03*
X515000Y410500D02*
D03*
X509000Y411000D02*
D03*
X505000Y410000D02*
D03*
X533895Y424775D02*
D03*
X527108Y416098D02*
D03*
X481597Y406900D02*
D03*
Y450076D02*
D03*
X532437Y429370D02*
D03*
X527407Y435661D02*
D03*
X521713Y448311D02*
D03*
X515638Y448487D02*
D03*
X503039Y449000D02*
D03*
X497500Y448630D02*
D03*
X483566Y439911D02*
D03*
X486000Y434311D02*
D03*
X501034Y425211D02*
D03*
X506850Y425126D02*
D03*
X512666Y425211D02*
D03*
X506850Y434969D02*
D03*
X501120Y434937D02*
D03*
X512666Y435053D02*
D03*
X506850Y430047D02*
D03*
X585189Y610815D02*
D03*
Y607615D02*
D03*
X619265Y611537D02*
D03*
Y614737D02*
D03*
X648841Y652679D02*
D03*
Y649479D02*
D03*
X636000Y621048D02*
D03*
Y617848D02*
D03*
X642600Y635554D02*
D03*
Y632354D02*
D03*
X656199Y574008D02*
D03*
X656199Y565542D02*
D03*
X585189Y604296D02*
D03*
Y601096D02*
D03*
X548557Y642860D02*
D03*
Y646060D02*
D03*
X601193Y601550D02*
D03*
X568000Y599000D02*
D03*
X545829Y622888D02*
D03*
Y619688D02*
D03*
X527023Y575953D02*
D03*
X494751Y617232D02*
D03*
X491551D02*
D03*
X666500Y573220D02*
D03*
X631431D02*
D03*
X621545Y565778D02*
D03*
Y575779D02*
D03*
X596439Y573220D02*
D03*
X586830Y565516D02*
D03*
X586597Y575779D02*
D03*
X560831Y573220D02*
D03*
X552644Y565516D02*
D03*
Y575779D02*
D03*
X518130Y565516D02*
D03*
X518173Y575750D02*
D03*
X484142Y575779D02*
D03*
X641431Y595346D02*
D03*
X524500Y592250D02*
D03*
X478362Y591500D02*
D03*
X583500Y402976D02*
D03*
Y411151D02*
D03*
X583489Y419325D02*
D03*
X583500Y427500D02*
D03*
Y435675D02*
D03*
Y443850D02*
D03*
Y452024D02*
D03*
Y460199D02*
D03*
X566461Y402976D02*
D03*
Y411151D02*
D03*
Y419325D02*
D03*
Y427500D02*
D03*
Y435675D02*
D03*
Y443850D02*
D03*
Y452024D02*
D03*
X566423Y460161D02*
D03*
X600667Y402861D02*
D03*
X601123Y411311D02*
D03*
Y419361D02*
D03*
Y427711D02*
D03*
Y435748D02*
D03*
Y443811D02*
D03*
Y452261D02*
D03*
Y460228D02*
D03*
X661500Y484500D02*
D03*
X650983Y482500D02*
D03*
X636654Y448311D02*
D03*
X638819Y452161D02*
D03*
X668208Y420161D02*
D03*
X648102Y410911D02*
D03*
X662091Y378219D02*
D03*
X648000Y381500D02*
D03*
X648819Y453163D02*
D03*
X658209Y453084D02*
D03*
X655072Y421061D02*
D03*
X655000Y379466D02*
D03*
X744571Y442333D02*
D03*
Y418321D02*
D03*
Y427500D02*
D03*
X655000Y445061D02*
D03*
X658209Y482500D02*
D03*
X654998Y499158D02*
D03*
X655000Y478500D02*
D03*
X627416Y377311D02*
D03*
X627237Y387760D02*
D03*
Y394811D02*
D03*
Y403861D02*
D03*
Y410711D02*
D03*
Y421611D02*
D03*
Y428511D02*
D03*
X627401Y470461D02*
D03*
Y487986D02*
D03*
X627416Y494711D02*
D03*
X744571Y451167D02*
D03*
X744482Y456167D02*
D03*
Y403500D02*
D03*
Y408346D02*
D03*
Y475000D02*
D03*
X744571Y437333D02*
D03*
Y432333D02*
D03*
Y413679D02*
D03*
X753000Y418500D02*
D03*
Y485000D02*
D03*
Y480000D02*
D03*
Y475000D02*
D03*
Y466167D02*
D03*
Y461167D02*
D03*
Y456167D02*
D03*
Y451167D02*
D03*
Y442333D02*
D03*
Y437333D02*
D03*
Y432333D02*
D03*
Y427333D02*
D03*
Y413500D02*
D03*
Y408500D02*
D03*
Y403500D02*
D03*
X293000Y258500D02*
D03*
X270192Y261362D02*
D03*
X258992Y236996D02*
D03*
X286678Y260978D02*
D03*
X252000Y258500D02*
D03*
X261964Y258482D02*
D03*
X501034Y430132D02*
D03*
X512666D02*
D03*
X132500Y357500D02*
D03*
X235359Y344142D02*
D03*
X228000Y337000D02*
D03*
X326000Y274000D02*
D03*
X319500Y359000D02*
D03*
X235963Y643547D02*
D03*
X251251Y631047D02*
D03*
X237345Y636047D02*
D03*
X251963Y655047D02*
D03*
X250463Y643642D02*
D03*
X149000Y258994D02*
D03*
X502000Y314500D02*
D03*
X181793Y231284D02*
D03*
X187321Y231710D02*
D03*
X145057Y274500D02*
D03*
X291581Y475160D02*
D03*
X291577Y465780D02*
D03*
X234436Y381500D02*
D03*
X210500Y340181D02*
D03*
X197281Y258731D02*
D03*
X140000Y260523D02*
D03*
X134000Y258500D02*
D03*
X289982Y230400D02*
D03*
X221900Y232800D02*
D03*
X219550Y230295D02*
D03*
X214300Y230063D02*
D03*
X216900Y234582D02*
D03*
X176787Y234208D02*
D03*
X171632Y232800D02*
D03*
X174095Y230295D02*
D03*
X167500Y237100D02*
D03*
X169073Y230000D02*
D03*
X323659Y289317D02*
D03*
X327420Y288420D02*
D03*
X371500Y286500D02*
D03*
X368047Y286324D02*
D03*
X364530Y286470D02*
D03*
X361231Y286282D02*
D03*
X357562Y286788D02*
D03*
X354353Y289317D02*
D03*
X358274Y275471D02*
D03*
X378500Y286990D02*
D03*
X400200Y311400D02*
D03*
X401500Y314760D02*
D03*
X391500D02*
D03*
X382354Y314811D02*
D03*
X379194Y317661D02*
D03*
X372852Y317051D02*
D03*
X292906Y424500D02*
D03*
X295500Y421686D02*
D03*
Y431000D02*
D03*
X315092Y443528D02*
D03*
X256000Y421686D02*
D03*
X256134Y425000D02*
D03*
X256217Y431135D02*
D03*
X256218Y434500D02*
D03*
X271969Y395031D02*
D03*
X652084Y226813D02*
D03*
X655637Y227033D02*
D03*
X656847Y234159D02*
D03*
X329000Y197000D02*
D03*
X145000Y208500D02*
D03*
X129309Y230391D02*
D03*
X320250Y410998D02*
D03*
X313466Y428379D02*
D03*
X253500Y393500D02*
D03*
X252470Y415500D02*
D03*
X256000Y412237D02*
D03*
X295638Y434285D02*
D03*
X186986Y267976D02*
D03*
X344500Y276223D02*
D03*
X396500Y234000D02*
D03*
X353695Y286158D02*
D03*
X141835Y490500D02*
D03*
X157815Y244500D02*
D03*
X205000Y233740D02*
D03*
X255000D02*
D03*
X310500Y289351D02*
D03*
X374939Y286690D02*
D03*
X381958Y286885D02*
D03*
X539606Y321202D02*
D03*
X524223Y495500D02*
D03*
X477746Y332662D02*
D03*
X473693Y332662D02*
D03*
X432500Y475000D02*
D03*
X454158Y290672D02*
D03*
X473693Y293654D02*
D03*
X357717Y294648D02*
D03*
X209000Y364000D02*
D03*
X200000Y378279D02*
D03*
X653221Y307379D02*
D03*
X655780Y310311D02*
D03*
X660898Y310037D02*
D03*
X658500Y307000D02*
D03*
X650661Y310037D02*
D03*
X648000Y307000D02*
D03*
X461095Y487014D02*
D03*
X457945Y490548D02*
D03*
X451646Y487014D02*
D03*
X448496Y490299D02*
D03*
X439061Y487000D02*
D03*
X435898Y490102D02*
D03*
X388654Y317000D02*
D03*
X398102D02*
D03*
X407500D02*
D03*
X410701Y313500D02*
D03*
X417000Y317000D02*
D03*
X420500Y313500D02*
D03*
X426500Y317000D02*
D03*
X429599Y313500D02*
D03*
X435898Y317000D02*
D03*
X439047Y313642D02*
D03*
X448500Y317000D02*
D03*
X451646Y313642D02*
D03*
X457945Y317000D02*
D03*
X461000Y313500D02*
D03*
X467394Y317000D02*
D03*
X470413Y313500D02*
D03*
X479992Y317500D02*
D03*
X483000Y313500D02*
D03*
X489000Y317500D02*
D03*
X492590Y313500D02*
D03*
X498890Y317500D02*
D03*
X508338D02*
D03*
X508339Y347661D02*
D03*
X505189Y351058D02*
D03*
X502000Y347661D02*
D03*
X498890Y351058D02*
D03*
X492590Y347661D02*
D03*
X489000Y351500D02*
D03*
X483000Y347996D02*
D03*
X479748Y351500D02*
D03*
X470413Y347661D02*
D03*
X461000Y348245D02*
D03*
X458000Y351500D02*
D03*
X420500Y347997D02*
D03*
X417000Y351500D02*
D03*
X407500D02*
D03*
X401500Y348245D02*
D03*
X398500Y351500D02*
D03*
X391500Y348245D02*
D03*
X388654Y351500D02*
D03*
X382354Y348245D02*
D03*
X379000Y351500D02*
D03*
X372906Y348245D02*
D03*
X308500Y328000D02*
D03*
X300881Y291666D02*
D03*
X296136Y345746D02*
D03*
X295231Y307611D02*
D03*
X312000Y356411D02*
D03*
X305336D02*
D03*
X300881Y295335D02*
D03*
X272174Y462631D02*
D03*
X272173Y472080D02*
D03*
X271967Y384891D02*
D03*
X272173Y368143D02*
D03*
Y358694D02*
D03*
X271945Y319272D02*
D03*
X272173Y481529D02*
D03*
Y453182D02*
D03*
Y443733D02*
D03*
Y437434D02*
D03*
Y427985D02*
D03*
Y418537D02*
D03*
X272173Y412237D02*
D03*
Y377592D02*
D03*
X272173Y349245D02*
D03*
X313865Y274531D02*
D03*
X306000Y271896D02*
D03*
X308300Y268551D02*
D03*
X310833Y271420D02*
D03*
X316000Y270905D02*
D03*
Y265500D02*
D03*
X296000Y469000D02*
D03*
Y478379D02*
D03*
X291000Y484678D02*
D03*
X296000Y488000D02*
D03*
X291000Y494000D02*
D03*
X296000Y497500D02*
D03*
X254673Y459500D02*
D03*
X250500Y465780D02*
D03*
X254673Y469000D02*
D03*
X250500Y475229D02*
D03*
X254673Y478379D02*
D03*
X250500Y484678D02*
D03*
X254673Y488000D02*
D03*
X250500Y494000D02*
D03*
X271000Y497500D02*
D03*
X235000Y351395D02*
D03*
X429598Y486596D02*
D03*
X426449Y490000D02*
D03*
X420150Y486596D02*
D03*
X417000Y490000D02*
D03*
X410701Y486500D02*
D03*
X407551Y490000D02*
D03*
X401500Y486500D02*
D03*
X398102Y490102D02*
D03*
X392000Y486500D02*
D03*
X388500Y490000D02*
D03*
X382000Y486500D02*
D03*
X379000Y490000D02*
D03*
X373000Y486500D02*
D03*
X369500Y490000D02*
D03*
X366500Y486500D02*
D03*
X211500Y274658D02*
D03*
X208500Y272000D02*
D03*
X205300Y274658D02*
D03*
X229548Y259500D02*
D03*
X202811Y277531D02*
D03*
X200000Y280500D02*
D03*
X197500Y283500D02*
D03*
X194776Y286652D02*
D03*
X192104Y288777D02*
D03*
X301936Y272000D02*
D03*
X298000D02*
D03*
X293581D02*
D03*
X289545D02*
D03*
X285500D02*
D03*
X143500Y278594D02*
D03*
Y282410D02*
D03*
Y286652D02*
D03*
Y290406D02*
D03*
Y294342D02*
D03*
Y298421D02*
D03*
Y302000D02*
D03*
X134000Y312000D02*
D03*
Y316500D02*
D03*
Y320500D02*
D03*
Y324500D02*
D03*
Y329000D02*
D03*
Y333111D02*
D03*
Y337126D02*
D03*
Y342000D02*
D03*
X247485Y258482D02*
D03*
X243819Y231500D02*
D03*
X293581Y232725D02*
D03*
X113977Y261000D02*
D03*
X664954Y310000D02*
D03*
X479745Y506581D02*
D03*
X448500Y507661D02*
D03*
X439000D02*
D03*
X473669Y507830D02*
D03*
X360500Y470000D02*
D03*
X325872Y265689D02*
D03*
X629848Y276500D02*
D03*
X388000Y639000D02*
D03*
X374500D02*
D03*
X263955Y230000D02*
D03*
X113977Y237061D02*
D03*
X139545Y231426D02*
D03*
X164000Y229538D02*
D03*
X187000Y228500D02*
D03*
X238758Y230400D02*
D03*
X646830Y166191D02*
D03*
X566405Y223214D02*
D03*
X561500Y229037D02*
D03*
X719152Y188500D02*
D03*
X715000D02*
D03*
X710000Y188657D02*
D03*
X639915Y158000D02*
D03*
X643500Y162585D02*
D03*
X519500Y200346D02*
D03*
Y195653D02*
D03*
X525620D02*
D03*
X573528Y238500D02*
D03*
X566700Y235828D02*
D03*
X553481Y235362D02*
D03*
X549328D02*
D03*
X543846D02*
D03*
X533800Y235259D02*
D03*
X525368Y235362D02*
D03*
X519787D02*
D03*
X491524Y235259D02*
D03*
X496962Y235362D02*
D03*
X508338Y235259D02*
D03*
X502500D02*
D03*
X485500Y223500D02*
D03*
X208500Y223314D02*
D03*
X189545Y262000D02*
D03*
X179254Y228723D02*
D03*
X302000Y186000D02*
D03*
X299130Y183630D02*
D03*
X309557Y186960D02*
D03*
X131800Y232800D02*
D03*
X332154Y200154D02*
D03*
X335000Y197000D02*
D03*
X185173Y197673D02*
D03*
Y201500D02*
D03*
X181719Y201346D02*
D03*
X147500Y205000D02*
D03*
X142500D02*
D03*
X627827Y207000D02*
D03*
X576500Y203000D02*
D03*
X531000Y209000D02*
D03*
X485500D02*
D03*
X437500D02*
D03*
X389000Y209500D02*
D03*
X342472Y209000D02*
D03*
X296000D02*
D03*
X247294Y209378D02*
D03*
X200654Y209500D02*
D03*
X156000Y192500D02*
D03*
X235000Y262000D02*
D03*
X333000Y231500D02*
D03*
X378807Y232725D02*
D03*
X426000Y233000D02*
D03*
X479748Y258500D02*
D03*
X518173Y262055D02*
D03*
X568917Y243431D02*
D03*
X668500Y244000D02*
D03*
X614500Y259917D02*
D03*
X119073Y230600D02*
D03*
X124200D02*
D03*
X121500Y232800D02*
D03*
X576500Y219000D02*
D03*
X119073Y236996D02*
D03*
X315000Y232725D02*
D03*
X360500Y486500D02*
D03*
X195584Y480042D02*
D03*
X182100Y480000D02*
D03*
X146700Y482900D02*
D03*
X284427Y230295D02*
D03*
X281964Y232900D02*
D03*
X279300Y230063D02*
D03*
X276964Y232900D02*
D03*
X274191Y230000D02*
D03*
X271632Y232725D02*
D03*
X269073Y230295D02*
D03*
X266514Y232900D02*
D03*
X234900Y230400D02*
D03*
X229548D02*
D03*
X224200D02*
D03*
X232100Y232775D02*
D03*
X226989Y232725D02*
D03*
X166514Y232775D02*
D03*
X116514Y232668D02*
D03*
X134538Y229538D02*
D03*
X126800Y232800D02*
D03*
X306000Y233740D02*
D03*
X305000Y229500D02*
D03*
X255063Y230063D02*
D03*
X155000Y230000D02*
D03*
X305046Y223314D02*
D03*
X255063D02*
D03*
X155000Y223046D02*
D03*
X211500Y236996D02*
D03*
X415951Y228500D02*
D03*
X357158D02*
D03*
X447500Y226000D02*
D03*
X647041Y229037D02*
D03*
X537000Y301734D02*
D03*
Y280500D02*
D03*
X489000D02*
D03*
Y301734D02*
D03*
X439134Y280500D02*
D03*
Y301734D02*
D03*
X228500Y295000D02*
D03*
X340000Y292000D02*
D03*
Y282500D02*
D03*
X295231Y275531D02*
D03*
X270000Y308283D02*
D03*
X261964Y295000D02*
D03*
X361231Y332500D02*
D03*
X296500Y330000D02*
D03*
X308500Y333500D02*
D03*
X505189Y332662D02*
D03*
X448437Y332661D02*
D03*
X442197D02*
D03*
X366723Y332729D02*
D03*
X256000Y415500D02*
D03*
X376055Y507661D02*
D03*
X385504Y507661D02*
D03*
X394953Y507661D02*
D03*
X404402Y507661D02*
D03*
X413851Y507661D02*
D03*
X423299Y507661D02*
D03*
X432748Y507661D02*
D03*
X454795Y507661D02*
D03*
X464244Y507661D02*
D03*
X505189Y507662D02*
D03*
X502039D02*
D03*
X486292Y507661D02*
D03*
X508339Y507662D02*
D03*
X376055Y332662D02*
D03*
X385504Y332662D02*
D03*
X394953Y332662D02*
D03*
X404402D02*
D03*
X413850Y332662D02*
D03*
X423299Y332662D02*
D03*
X432748D02*
D03*
X454795D02*
D03*
X464244D02*
D03*
X486292D02*
D03*
X495740D02*
D03*
X272173Y490977D02*
D03*
X145500Y378500D02*
D03*
X228500Y371500D02*
D03*
X221000Y344000D02*
D03*
X727032Y295285D02*
D03*
X645500Y310000D02*
D03*
X658500Y289000D02*
D03*
X654718D02*
D03*
X651000D02*
D03*
X652084Y303000D02*
D03*
X648000D02*
D03*
X644057D02*
D03*
X668575Y290118D02*
D03*
X663457D02*
D03*
X666016Y303000D02*
D03*
X660898D02*
D03*
X666016Y322611D02*
D03*
X668500Y310000D02*
D03*
X697330Y295285D02*
D03*
X701785D02*
D03*
X663792Y269664D02*
D03*
X653600Y259917D02*
D03*
X662800Y261035D02*
D03*
X659500Y261000D02*
D03*
X660000Y232000D02*
D03*
X724500Y242500D02*
D03*
X634600Y275205D02*
D03*
X627873Y281000D02*
D03*
X634600D02*
D03*
Y239872D02*
D03*
X642886Y233100D02*
D03*
X654718Y268376D02*
D03*
X663457Y227608D02*
D03*
X490027Y268551D02*
D03*
X486292Y265594D02*
D03*
X432748Y268551D02*
D03*
X437000Y271500D02*
D03*
X345000Y273191D02*
D03*
X336000Y266500D02*
D03*
Y272000D02*
D03*
X334500Y281500D02*
D03*
X434000Y301734D02*
D03*
X483000D02*
D03*
X532000Y302000D02*
D03*
X581500Y303000D02*
D03*
X356000Y582500D02*
D03*
X541797Y291000D02*
D03*
X497500Y287063D02*
D03*
Y295000D02*
D03*
X448500Y287063D02*
D03*
Y295000D02*
D03*
X349500Y287063D02*
D03*
Y295000D02*
D03*
X307572Y286261D02*
D03*
X317331D02*
D03*
X313693Y287063D02*
D03*
X331000Y288097D02*
D03*
X321069Y286336D02*
D03*
X180000Y258500D02*
D03*
X170000D02*
D03*
X160000D02*
D03*
X124000D02*
D03*
X215000D02*
D03*
X205000D02*
D03*
D127*
X749157Y135326D02*
D03*
X430077Y355986D02*
D03*
X575000Y199000D02*
D03*
X584000Y168000D02*
D03*
X430000Y390000D02*
D03*
X634346Y188500D02*
D03*
X270511Y354544D02*
D03*
X255783Y348245D02*
D03*
X195476Y407075D02*
D03*
X125842Y134658D02*
D03*
X225512Y460607D02*
D03*
X344500Y189000D02*
D03*
X396000Y598500D02*
D03*
X581882Y140205D02*
D03*
X448750Y150413D02*
D03*
X420000Y139500D02*
D03*
X190300Y438300D02*
D03*
X240800Y390200D02*
D03*
X188884Y479900D02*
D03*
X133600Y512900D02*
D03*
X768643Y152413D02*
D03*
X607342Y151413D02*
D03*
Y185500D02*
D03*
X447957Y185282D02*
D03*
X448000Y190469D02*
D03*
X287343Y160500D02*
D03*
X286986Y185546D02*
D03*
X579500Y209500D02*
D03*
X541500Y185500D02*
D03*
X492500Y188000D02*
D03*
X395500Y185413D02*
D03*
X303000Y191000D02*
D03*
X252000Y189500D02*
D03*
X211500Y200174D02*
D03*
X165000Y187200D02*
D03*
X122653Y190000D02*
D03*
X741000Y161500D02*
D03*
X578000Y144500D02*
D03*
X414000Y147500D02*
D03*
X419500Y165000D02*
D03*
X428594Y192500D02*
D03*
X254000Y147000D02*
D03*
Y157500D02*
D03*
X256964Y185546D02*
D03*
X109693Y157000D02*
D03*
X768750Y141800D02*
D03*
X613000Y144000D02*
D03*
X610000Y178500D02*
D03*
X448000Y174500D02*
D03*
X453000Y143000D02*
D03*
X292500Y144000D02*
D03*
X259000Y141000D02*
D03*
X105000Y134000D02*
D03*
D128*
X255951Y639920D02*
D03*
D130*
X106500Y265158D02*
X116000Y274658D01*
X106500Y175500D02*
Y265158D01*
Y175500D02*
X122069Y159932D01*
D131*
X282240Y678185D02*
D03*
X278500D02*
D03*
X274760D02*
D03*
X282240Y688815D02*
D03*
X278500D02*
D03*
X274760D02*
D03*
X326740Y629185D02*
D03*
X323000D02*
D03*
X319260D02*
D03*
X326740Y639815D02*
D03*
X323000D02*
D03*
X319260D02*
D03*
X143394Y361685D02*
D03*
X139654D02*
D03*
X135913D02*
D03*
X143394Y372315D02*
D03*
X139654D02*
D03*
X135913D02*
D03*
D132*
X379984Y565606D02*
D03*
Y574661D02*
D03*
Y583716D02*
D03*
D133*
X403016Y574661D02*
D03*
D134*
X475187Y388911D02*
D03*
X520187D02*
D03*
X497687D02*
D03*
X542687D02*
D03*
D135*
X563024Y495756D02*
D03*
X571488Y492016D02*
D03*
Y499496D02*
D03*
D136*
X756587Y328000D02*
D03*
X767413D02*
D03*
X535587Y460000D02*
D03*
X546413D02*
D03*
X601324Y336500D02*
D03*
X590497D02*
D03*
X601324Y346833D02*
D03*
X590497D02*
D03*
X601324Y357167D02*
D03*
X590497D02*
D03*
X601324Y367500D02*
D03*
X590497D02*
D03*
X578587Y504000D02*
D03*
X589413D02*
D03*
X578587Y493500D02*
D03*
X589413D02*
D03*
X467587Y460000D02*
D03*
X478413D02*
D03*
X405413Y399000D02*
D03*
X394587D02*
D03*
X365087Y407390D02*
D03*
X375913D02*
D03*
X144413Y645000D02*
D03*
X133587D02*
D03*
X144413Y655000D02*
D03*
X133587D02*
D03*
X114678Y492000D02*
D03*
X125505D02*
D03*
X214552Y491500D02*
D03*
X203725D02*
D03*
X245413Y294937D02*
D03*
X234587D02*
D03*
X234000Y390233D02*
D03*
X223173D02*
D03*
D137*
X251964Y251693D02*
D03*
X256964D02*
D03*
X261964D02*
D03*
X266964D02*
D03*
X271964D02*
D03*
X276964D02*
D03*
X281964D02*
D03*
X286964D02*
D03*
X251964Y215000D02*
D03*
X256964D02*
D03*
X261964D02*
D03*
X266964D02*
D03*
X271964D02*
D03*
X276964D02*
D03*
X281964D02*
D03*
X286964D02*
D03*
X195000D02*
D03*
X190000D02*
D03*
X185000D02*
D03*
X180000D02*
D03*
X175000D02*
D03*
X170000D02*
D03*
X165000D02*
D03*
X160000D02*
D03*
X195000Y251693D02*
D03*
X190000D02*
D03*
X185000D02*
D03*
X180000D02*
D03*
X175000D02*
D03*
X170000D02*
D03*
X165000D02*
D03*
X160000D02*
D03*
X381231Y215000D02*
D03*
X376231D02*
D03*
X371231D02*
D03*
X366231D02*
D03*
X361231D02*
D03*
X356231D02*
D03*
X351231D02*
D03*
X346231D02*
D03*
X381231Y251693D02*
D03*
X376231D02*
D03*
X371231D02*
D03*
X366231D02*
D03*
X361231D02*
D03*
X356231D02*
D03*
X351231D02*
D03*
X346231D02*
D03*
X476582Y215000D02*
D03*
X471582D02*
D03*
X466582D02*
D03*
X461582D02*
D03*
X456582D02*
D03*
X451582D02*
D03*
X446582D02*
D03*
X441582D02*
D03*
X476582Y251693D02*
D03*
X471582D02*
D03*
X466582D02*
D03*
X461582D02*
D03*
X456582D02*
D03*
X451582D02*
D03*
X446582D02*
D03*
X441582D02*
D03*
X571405Y215000D02*
D03*
X566405D02*
D03*
X561405D02*
D03*
X556405D02*
D03*
X551405D02*
D03*
X546405D02*
D03*
X541405D02*
D03*
X536405D02*
D03*
X571405Y251693D02*
D03*
X566405D02*
D03*
X561405D02*
D03*
X556405D02*
D03*
X551405D02*
D03*
X546405D02*
D03*
X541405D02*
D03*
X536405D02*
D03*
X666818Y215000D02*
D03*
X661818D02*
D03*
X656818D02*
D03*
X651818D02*
D03*
X646818D02*
D03*
X641818D02*
D03*
X636818D02*
D03*
X631818D02*
D03*
X666818Y251693D02*
D03*
X661818D02*
D03*
X656818D02*
D03*
X651818D02*
D03*
X646818D02*
D03*
X641818D02*
D03*
X636818D02*
D03*
X631818D02*
D03*
X149000Y215000D02*
D03*
X144000D02*
D03*
X139000D02*
D03*
X134000D02*
D03*
X129000D02*
D03*
X124000D02*
D03*
X119000D02*
D03*
X114000D02*
D03*
X149000Y251693D02*
D03*
X144000D02*
D03*
X139000D02*
D03*
X134000D02*
D03*
X129000D02*
D03*
X124000D02*
D03*
X119000D02*
D03*
X114000D02*
D03*
X240000Y215000D02*
D03*
X235000D02*
D03*
X230000D02*
D03*
X225000D02*
D03*
X220000D02*
D03*
X215000D02*
D03*
X210000D02*
D03*
X205000D02*
D03*
X240000Y251693D02*
D03*
X235000D02*
D03*
X230000D02*
D03*
X225000D02*
D03*
X220000D02*
D03*
X215000D02*
D03*
X210000D02*
D03*
X205000D02*
D03*
X335046Y215000D02*
D03*
X330046D02*
D03*
X325046D02*
D03*
X320046D02*
D03*
X315046D02*
D03*
X310046D02*
D03*
X305046D02*
D03*
X300046D02*
D03*
X335046Y251693D02*
D03*
X330046D02*
D03*
X325046D02*
D03*
X320046D02*
D03*
X315046D02*
D03*
X310046D02*
D03*
X305046D02*
D03*
X300046D02*
D03*
X428259Y215000D02*
D03*
X423259D02*
D03*
X418259D02*
D03*
X413259D02*
D03*
X408259D02*
D03*
X403259D02*
D03*
X398259D02*
D03*
X393259D02*
D03*
X428259Y251693D02*
D03*
X423259D02*
D03*
X418259D02*
D03*
X413259D02*
D03*
X408259D02*
D03*
X403259D02*
D03*
X398259D02*
D03*
X393259D02*
D03*
X524787Y215000D02*
D03*
X519787D02*
D03*
X514787D02*
D03*
X509787D02*
D03*
X504787D02*
D03*
X499787D02*
D03*
X494787D02*
D03*
X489787D02*
D03*
X524787Y251693D02*
D03*
X519787D02*
D03*
X514787D02*
D03*
X509787D02*
D03*
X504787D02*
D03*
X499787D02*
D03*
X494787D02*
D03*
X489787D02*
D03*
X619500Y215000D02*
D03*
X614500D02*
D03*
X609500D02*
D03*
X604500D02*
D03*
X599500D02*
D03*
X594500D02*
D03*
X589500D02*
D03*
X584500D02*
D03*
X619500Y251693D02*
D03*
X614500D02*
D03*
X609500D02*
D03*
X604500D02*
D03*
X599500D02*
D03*
X594500D02*
D03*
X589500D02*
D03*
X584500D02*
D03*
D138*
X494055Y443728D02*
D03*
X496024D02*
D03*
X497992D02*
D03*
X499961D02*
D03*
X501929D02*
D03*
X503898D02*
D03*
X505866D02*
D03*
X507835D02*
D03*
X509803D02*
D03*
X511772D02*
D03*
X513740D02*
D03*
X515709D02*
D03*
X517677D02*
D03*
X519646D02*
D03*
Y416366D02*
D03*
X517677D02*
D03*
X515709D02*
D03*
X513740D02*
D03*
X511772D02*
D03*
X509803D02*
D03*
X507835D02*
D03*
X505866D02*
D03*
X503898D02*
D03*
X501929D02*
D03*
X499961D02*
D03*
X497992D02*
D03*
X496024D02*
D03*
X494055D02*
D03*
D139*
X522500Y440874D02*
D03*
Y438905D02*
D03*
Y436937D02*
D03*
Y434969D02*
D03*
Y433000D02*
D03*
Y431032D02*
D03*
Y429063D02*
D03*
Y427095D02*
D03*
Y425126D02*
D03*
Y423158D02*
D03*
Y421189D02*
D03*
Y419220D02*
D03*
X491201D02*
D03*
Y421189D02*
D03*
Y423158D02*
D03*
Y425126D02*
D03*
Y427095D02*
D03*
Y429063D02*
D03*
Y431032D02*
D03*
Y433000D02*
D03*
Y434969D02*
D03*
Y436937D02*
D03*
Y438905D02*
D03*
Y440874D02*
D03*
D140*
X506850Y430047D02*
D03*
D141*
X166441Y359768D02*
D03*
X169000D02*
D03*
X171559D02*
D03*
Y368232D02*
D03*
X169000D02*
D03*
X166441D02*
D03*
D142*
X532000Y602500D02*
D03*
Y553000D02*
D03*
Y569500D02*
D03*
Y586000D02*
D03*
X433000Y649500D02*
D03*
Y632500D02*
D03*
D143*
X484244Y144883D02*
D03*
X489756D02*
D03*
X629032Y155000D02*
D03*
X634543D02*
D03*
X639897Y144500D02*
D03*
X645409D02*
D03*
X629062Y149200D02*
D03*
X634574D02*
D03*
X371194Y206353D02*
D03*
X376706D02*
D03*
X346524Y122594D02*
D03*
X352036D02*
D03*
X376941Y195500D02*
D03*
X371429D02*
D03*
X498744Y108500D02*
D03*
X504256D02*
D03*
X346524Y116595D02*
D03*
X352036D02*
D03*
X655562Y110002D02*
D03*
X661074D02*
D03*
X189044Y111594D02*
D03*
X194556D02*
D03*
X189044Y118595D02*
D03*
X194556D02*
D03*
X189044Y125594D02*
D03*
X194556D02*
D03*
X169744Y146263D02*
D03*
X175256D02*
D03*
X313353Y155000D02*
D03*
X318865D02*
D03*
X189044Y104595D02*
D03*
X194556D02*
D03*
X346524Y110594D02*
D03*
X352036D02*
D03*
X329488Y190468D02*
D03*
X335000D02*
D03*
X498744Y114500D02*
D03*
X504256D02*
D03*
X514844Y206073D02*
D03*
X520356D02*
D03*
X510344Y199500D02*
D03*
X515856D02*
D03*
X498744Y120500D02*
D03*
X504256D02*
D03*
X661344Y205437D02*
D03*
X666856D02*
D03*
X655562Y121906D02*
D03*
X661074D02*
D03*
X655562Y116000D02*
D03*
X661074D02*
D03*
D144*
X641818Y204929D02*
D03*
Y199417D02*
D03*
X498605Y206595D02*
D03*
Y201083D02*
D03*
X456487Y205843D02*
D03*
Y200331D02*
D03*
X450790Y205843D02*
D03*
Y200331D02*
D03*
X504798Y206595D02*
D03*
Y201083D02*
D03*
X647653Y204756D02*
D03*
Y199244D02*
D03*
X468298Y205843D02*
D03*
Y200331D02*
D03*
X462392Y205843D02*
D03*
Y200331D02*
D03*
X609500Y204756D02*
D03*
Y199244D02*
D03*
X233819Y202930D02*
D03*
Y197419D02*
D03*
X227932Y202930D02*
D03*
Y197419D02*
D03*
X222268Y202930D02*
D03*
Y197419D02*
D03*
X360396Y207626D02*
D03*
Y202114D02*
D03*
X604500Y204756D02*
D03*
Y199244D02*
D03*
X216537Y199756D02*
D03*
Y194244D02*
D03*
X308384Y204870D02*
D03*
Y199358D02*
D03*
X173000Y174756D02*
D03*
Y169244D02*
D03*
X178300Y194904D02*
D03*
Y189392D02*
D03*
X227000Y169244D02*
D03*
Y174756D02*
D03*
X355050Y207749D02*
D03*
Y202237D02*
D03*
X320046Y205056D02*
D03*
Y199544D02*
D03*
X314211Y205056D02*
D03*
Y199544D02*
D03*
X654718Y204756D02*
D03*
Y199244D02*
D03*
D145*
X424299Y588429D02*
D03*
Y572681D02*
D03*
Y556933D02*
D03*
Y541185D02*
D03*
X508748D02*
D03*
Y556933D02*
D03*
Y572681D02*
D03*
Y588429D02*
D03*
D146*
X435028Y524650D02*
D03*
X450776D02*
D03*
X466524D02*
D03*
X482272D02*
D03*
X498020D02*
D03*
Y604177D02*
D03*
X482272D02*
D03*
X466524D02*
D03*
X450776D02*
D03*
X435028D02*
D03*
D147*
X255252Y552000D02*
D03*
X270748D02*
D03*
X157391Y574000D02*
D03*
X172887D02*
D03*
X157391Y631000D02*
D03*
X172887D02*
D03*
X258454Y620000D02*
D03*
X242958D02*
D03*
X270748Y594000D02*
D03*
X255252D02*
D03*
X260748Y574000D02*
D03*
X245252D02*
D03*
D148*
X422292Y418327D02*
D03*
X404300D02*
D03*
X382792Y419973D02*
D03*
X364800D02*
D03*
D149*
X413296Y445807D02*
D03*
X373796Y447453D02*
D03*
D150*
X140339Y595000D02*
D03*
Y610496D02*
D03*
D151*
X759386Y466167D02*
D03*
Y461167D02*
D03*
Y456167D02*
D03*
Y451167D02*
D03*
X737929Y466167D02*
D03*
Y461167D02*
D03*
Y456167D02*
D03*
Y451167D02*
D03*
X759386Y442333D02*
D03*
Y437333D02*
D03*
Y432333D02*
D03*
Y427333D02*
D03*
X737929Y442333D02*
D03*
Y437333D02*
D03*
Y432333D02*
D03*
Y427333D02*
D03*
X759386Y490000D02*
D03*
Y485000D02*
D03*
Y480000D02*
D03*
Y475000D02*
D03*
X737929Y490000D02*
D03*
Y485000D02*
D03*
Y480000D02*
D03*
Y475000D02*
D03*
X759386Y418500D02*
D03*
Y413500D02*
D03*
Y408500D02*
D03*
Y403500D02*
D03*
X737929Y418500D02*
D03*
Y413500D02*
D03*
Y408500D02*
D03*
Y403500D02*
D03*
X305238Y411037D02*
D03*
Y416037D02*
D03*
Y421037D02*
D03*
Y426037D02*
D03*
X326694Y411037D02*
D03*
Y416037D02*
D03*
Y421037D02*
D03*
Y426037D02*
D03*
D152*
X133639Y539500D02*
D03*
X188884Y539000D02*
D03*
X216430Y438233D02*
D03*
D153*
X147039Y505000D02*
D03*
X140339D02*
D03*
X120239D02*
D03*
X126939D02*
D03*
X133639D02*
D03*
X202284Y504500D02*
D03*
X195584D02*
D03*
X175484D02*
D03*
X182184D02*
D03*
X188884D02*
D03*
X229830Y403733D02*
D03*
X223130D02*
D03*
X203030D02*
D03*
X209730D02*
D03*
X216430D02*
D03*
M02*
