G04*
G04 #@! TF.GenerationSoftware,Altium Limited,Altium Designer,22.2.1 (43)*
G04*
G04 Layer_Color=8388736*
%FSLAX25Y25*%
%MOIN*%
G70*
G04*
G04 #@! TF.SameCoordinates,D1B78C00-2002-4AC7-9003-249537FE4B0F*
G04*
G04*
G04 #@! TF.FilePolarity,Negative*
G04*
G01*
G75*
%ADD17R,0.04540X0.04540*%
%ADD18R,0.04540X0.04540*%
%ADD19O,0.07690X0.03162*%
%ADD20R,0.05328X0.07493*%
%ADD21R,0.07493X0.05328*%
%ADD22C,0.06737*%
%ADD23C,0.16808*%
%ADD24R,0.06737X0.06737*%
%ADD25R,0.06800X0.06800*%
%ADD26C,0.06800*%
%ADD27C,0.30328*%
%ADD28C,0.20485*%
%ADD29C,0.05800*%
%ADD30R,0.05800X0.05800*%
%ADD31R,0.12611X0.12611*%
D17*
X110827Y244094D02*
D03*
X117520D02*
D03*
Y228346D02*
D03*
X110827D02*
D03*
X121457Y291339D02*
D03*
X114764D02*
D03*
X66339Y307087D02*
D03*
X59646D02*
D03*
X119882Y274606D02*
D03*
X113189D02*
D03*
D18*
X129921Y245276D02*
D03*
Y251969D02*
D03*
X208661Y266535D02*
D03*
Y259842D02*
D03*
X39370Y199409D02*
D03*
Y206102D02*
D03*
X59055Y199409D02*
D03*
Y206102D02*
D03*
X129921Y268307D02*
D03*
Y275000D02*
D03*
D19*
X159153Y279311D02*
D03*
Y274311D02*
D03*
Y269311D02*
D03*
Y264311D02*
D03*
Y259311D02*
D03*
Y254311D02*
D03*
Y249311D02*
D03*
Y244311D02*
D03*
X187303Y279311D02*
D03*
Y274311D02*
D03*
Y269311D02*
D03*
Y264311D02*
D03*
Y259311D02*
D03*
Y254311D02*
D03*
Y249311D02*
D03*
Y244311D02*
D03*
D20*
X80216Y118110D02*
D03*
X69390D02*
D03*
D21*
X267717Y282480D02*
D03*
Y271654D02*
D03*
D22*
X168386Y114173D02*
D03*
X146575D02*
D03*
X157480D02*
D03*
X162933Y125354D02*
D03*
X141122D02*
D03*
X135669Y114173D02*
D03*
X130217Y125354D02*
D03*
X152027D02*
D03*
D23*
X201220Y119764D02*
D03*
X102835D02*
D03*
D24*
X173839Y125354D02*
D03*
D25*
X246220Y129921D02*
D03*
D26*
X236221D02*
D03*
X226220D02*
D03*
X94488Y250000D02*
D03*
Y259842D02*
D03*
Y269685D02*
D03*
X37402Y250000D02*
D03*
Y269685D02*
D03*
D27*
X29528Y108268D02*
D03*
X285433D02*
D03*
Y324803D02*
D03*
X29528D02*
D03*
D28*
X269528Y139606D02*
D03*
Y237992D02*
D03*
D29*
Y210315D02*
D03*
Y201339D02*
D03*
Y192362D02*
D03*
Y183386D02*
D03*
Y174409D02*
D03*
X259528Y169921D02*
D03*
Y178898D02*
D03*
Y187874D02*
D03*
Y196850D02*
D03*
X279528Y169921D02*
D03*
Y178898D02*
D03*
Y187874D02*
D03*
Y196850D02*
D03*
Y205827D02*
D03*
X220472Y259842D02*
D03*
X199213Y201575D02*
D03*
X59055Y118110D02*
D03*
X216535Y240158D02*
D03*
X147638Y259842D02*
D03*
X159449Y234252D02*
D03*
X255906Y283465D02*
D03*
X49213Y199409D02*
D03*
X149902Y274311D02*
D03*
X142342Y254311D02*
D03*
X142106Y269311D02*
D03*
D30*
X259685Y205748D02*
D03*
D31*
X64961Y233858D02*
D03*
Y285827D02*
D03*
M02*
