G04*
G04 #@! TF.GenerationSoftware,Altium Limited,Altium Designer,21.3.1 (25)*
G04*
G04 Layer_Physical_Order=2*
G04 Layer_Color=16711680*
%FSLAX44Y44*%
%MOMM*%
G71*
G04*
G04 #@! TF.SameCoordinates,1E41339B-4A2A-438D-B01A-713DCCC2BB0F*
G04*
G04*
G04 #@! TF.FilePolarity,Positive*
G04*
G01*
G75*
%ADD10C,0.2000*%
%ADD13C,0.2540*%
%ADD14C,0.1270*%
%ADD17C,1.2000*%
%ADD18C,0.1000*%
%ADD19C,0.0500*%
%ADD40C,1.5240*%
%ADD41R,1.5240X1.5240*%
%ADD42C,1.2700*%
%ADD43R,1.2700X1.2700*%
%ADD44C,5.0000*%
%ADD45R,3.0000X3.0000*%
%ADD46C,1.5080*%
%ADD47C,4.0660*%
%ADD48R,1.5080X1.5080*%
%ADD49C,7.5000*%
G36*
X775000Y225000D02*
X25000D01*
Y875000D01*
X775000D01*
Y225000D01*
D02*
G37*
%LPC*%
G36*
X728077Y864100D02*
X721923D01*
X715844Y863137D01*
X709991Y861235D01*
X704507Y858441D01*
X699528Y854824D01*
X695176Y850472D01*
X691559Y845493D01*
X688765Y840009D01*
X686863Y834156D01*
X685900Y828077D01*
Y821923D01*
X686863Y815844D01*
X688765Y809991D01*
X691559Y804507D01*
X695176Y799528D01*
X699528Y795176D01*
X704507Y791559D01*
X709991Y788765D01*
X715844Y786863D01*
X721923Y785900D01*
X728077D01*
X734156Y786863D01*
X740009Y788765D01*
X745493Y791559D01*
X750472Y795176D01*
X754824Y799528D01*
X758441Y804507D01*
X761235Y809991D01*
X763137Y815844D01*
X764100Y821923D01*
Y828077D01*
X763137Y834156D01*
X761235Y840009D01*
X758441Y845493D01*
X754824Y850472D01*
X750472Y854824D01*
X745493Y858441D01*
X740009Y861235D01*
X734156Y863137D01*
X728077Y864100D01*
D02*
G37*
G36*
X78077D02*
X71923D01*
X65844Y863137D01*
X59991Y861235D01*
X54507Y858441D01*
X49528Y854824D01*
X45176Y850472D01*
X41559Y845493D01*
X38765Y840009D01*
X36863Y834156D01*
X35900Y828077D01*
Y821923D01*
X36863Y815844D01*
X38765Y809991D01*
X41559Y804507D01*
X45176Y799528D01*
X49528Y795176D01*
X54507Y791559D01*
X59991Y788765D01*
X65844Y786863D01*
X71923Y785900D01*
X78077D01*
X84156Y786863D01*
X90009Y788765D01*
X95493Y791559D01*
X100472Y795176D01*
X104824Y799528D01*
X108441Y804507D01*
X111235Y809991D01*
X113137Y815844D01*
X114100Y821923D01*
Y828077D01*
X113137Y834156D01*
X111235Y840009D01*
X108441Y845493D01*
X104824Y850472D01*
X100472Y854824D01*
X95493Y858441D01*
X90009Y861235D01*
X84156Y863137D01*
X78077Y864100D01*
D02*
G37*
G36*
X651270Y728863D02*
Y721270D01*
X658863D01*
X658284Y723431D01*
X657114Y725459D01*
X655459Y727114D01*
X653431Y728284D01*
X651270Y728863D01*
D02*
G37*
G36*
X648730D02*
X646569Y728284D01*
X644541Y727114D01*
X642886Y725459D01*
X641716Y723431D01*
X641137Y721270D01*
X648730D01*
Y728863D01*
D02*
G37*
G36*
X658863Y718730D02*
X651270D01*
Y711137D01*
X653431Y711716D01*
X655459Y712886D01*
X657114Y714541D01*
X658284Y716569D01*
X658863Y718730D01*
D02*
G37*
G36*
X648730D02*
X641137D01*
X641716Y716569D01*
X642886Y714541D01*
X644541Y712886D01*
X646569Y711716D01*
X648730Y711137D01*
Y718730D01*
D02*
G37*
G36*
X181600Y742600D02*
X148400D01*
Y709400D01*
X181600D01*
Y742600D01*
D02*
G37*
G36*
X241214Y694220D02*
X238786D01*
X236441Y693592D01*
X234339Y692378D01*
X232622Y690661D01*
X231408Y688559D01*
X230780Y686214D01*
Y683786D01*
X231408Y681441D01*
X232622Y679339D01*
X234339Y677622D01*
X236441Y676408D01*
X238786Y675780D01*
X241214D01*
X243559Y676408D01*
X245661Y677622D01*
X247378Y679339D01*
X248592Y681441D01*
X249220Y683786D01*
Y686214D01*
X248592Y688559D01*
X247378Y690661D01*
X245661Y692378D01*
X243559Y693592D01*
X241214Y694220D01*
D02*
G37*
G36*
X96214D02*
X93786D01*
X91441Y693592D01*
X89339Y692378D01*
X87622Y690661D01*
X86408Y688559D01*
X85780Y686214D01*
Y683786D01*
X86408Y681441D01*
X87622Y679339D01*
X89339Y677622D01*
X91441Y676408D01*
X93786Y675780D01*
X96214D01*
X98559Y676408D01*
X100661Y677622D01*
X102378Y679339D01*
X103592Y681441D01*
X104220Y683786D01*
Y686214D01*
X103592Y688559D01*
X102378Y690661D01*
X100661Y692378D01*
X98559Y693592D01*
X96214Y694220D01*
D02*
G37*
G36*
X241338Y670160D02*
X241270D01*
Y661270D01*
X250160D01*
Y661338D01*
X249468Y663922D01*
X248130Y666238D01*
X246238Y668130D01*
X243922Y669468D01*
X241338Y670160D01*
D02*
G37*
G36*
X238730D02*
X238662D01*
X236078Y669468D01*
X233762Y668130D01*
X231870Y666238D01*
X230532Y663922D01*
X229840Y661338D01*
Y661270D01*
X238730D01*
Y670160D01*
D02*
G37*
G36*
X561270Y668863D02*
Y661270D01*
X568863D01*
X568284Y663431D01*
X567114Y665459D01*
X565459Y667114D01*
X563431Y668284D01*
X561270Y668863D01*
D02*
G37*
G36*
X558730D02*
X556569Y668284D01*
X554541Y667114D01*
X552886Y665459D01*
X551716Y663431D01*
X551137Y661270D01*
X558730D01*
Y668863D01*
D02*
G37*
G36*
X568863Y658730D02*
X561270D01*
Y651137D01*
X563431Y651716D01*
X565459Y652886D01*
X567114Y654541D01*
X568284Y656569D01*
X568863Y658730D01*
D02*
G37*
G36*
X558730D02*
X551137D01*
X551716Y656569D01*
X552886Y654541D01*
X554541Y652886D01*
X556569Y651716D01*
X558730Y651137D01*
Y658730D01*
D02*
G37*
G36*
X250160Y658730D02*
X241270D01*
Y649840D01*
X241338D01*
X243922Y650532D01*
X246238Y651870D01*
X248130Y653762D01*
X249468Y656078D01*
X250160Y658662D01*
Y658730D01*
D02*
G37*
G36*
X238730D02*
X229840D01*
Y658662D01*
X230532Y656078D01*
X231870Y653762D01*
X233762Y651870D01*
X236078Y650532D01*
X238662Y649840D01*
X238730D01*
Y658730D01*
D02*
G37*
G36*
X241214Y644220D02*
X238786D01*
X236441Y643592D01*
X234339Y642378D01*
X232622Y640661D01*
X231408Y638559D01*
X230780Y636214D01*
Y633786D01*
X231408Y631441D01*
X232622Y629339D01*
X234339Y627622D01*
X236441Y626408D01*
X238786Y625780D01*
X241214D01*
X243559Y626408D01*
X245661Y627622D01*
X247378Y629339D01*
X248592Y631441D01*
X249220Y633786D01*
Y636214D01*
X248592Y638559D01*
X247378Y640661D01*
X245661Y642378D01*
X243559Y643592D01*
X241214Y644220D01*
D02*
G37*
G36*
X96214D02*
X93786D01*
X91441Y643592D01*
X89339Y642378D01*
X87622Y640661D01*
X86408Y638559D01*
X85780Y636214D01*
Y633786D01*
X86408Y631441D01*
X87622Y629339D01*
X89339Y627622D01*
X91441Y626408D01*
X93786Y625780D01*
X96214D01*
X98559Y626408D01*
X100661Y627622D01*
X102378Y629339D01*
X103592Y631441D01*
X104220Y633786D01*
Y636214D01*
X103592Y638559D01*
X102378Y640661D01*
X100661Y642378D01*
X98559Y643592D01*
X96214Y644220D01*
D02*
G37*
G36*
X361997Y692000D02*
X359903D01*
X357881Y691458D01*
X356069Y690412D01*
X354588Y688931D01*
X353542Y687119D01*
X353000Y685097D01*
Y683003D01*
X353542Y680981D01*
X354588Y679168D01*
X356069Y677688D01*
X357881Y676642D01*
X359903Y676100D01*
X361997D01*
X364019Y676642D01*
X365831Y677688D01*
X367312Y679168D01*
X368358Y680981D01*
X368396Y681124D01*
X574738D01*
X587074Y668788D01*
Y651212D01*
X553196Y617335D01*
X553069Y617408D01*
X551047Y617950D01*
X548953D01*
X546931Y617408D01*
X545119Y616362D01*
X543638Y614881D01*
X542592Y613069D01*
X542050Y611047D01*
Y608953D01*
X542592Y606931D01*
X542665Y606804D01*
X467931Y532069D01*
X467296Y531120D01*
X467074Y530000D01*
Y451212D01*
X411781Y395919D01*
X411147Y394970D01*
X410924Y393850D01*
Y327078D01*
X410322Y326917D01*
X408238Y325714D01*
X406536Y324012D01*
X405333Y321928D01*
X404710Y319603D01*
Y317197D01*
X405333Y314872D01*
X406536Y312788D01*
X408238Y311086D01*
X410322Y309883D01*
X412647Y309260D01*
X415053D01*
X417378Y309883D01*
X419462Y311086D01*
X421164Y312788D01*
X422367Y314872D01*
X422990Y317197D01*
Y319603D01*
X422367Y321928D01*
X421164Y324012D01*
X419462Y325714D01*
X417378Y326917D01*
X416776Y327078D01*
Y392638D01*
X472069Y447931D01*
X472704Y448880D01*
X472926Y450000D01*
Y528788D01*
X546804Y602665D01*
X546931Y602592D01*
X548953Y602050D01*
X551047D01*
X553069Y602592D01*
X554881Y603638D01*
X556362Y605119D01*
X557408Y606931D01*
X557950Y608953D01*
Y611047D01*
X557408Y613069D01*
X557335Y613196D01*
X592069Y647931D01*
X592704Y648880D01*
X592926Y650000D01*
Y670000D01*
X592704Y671120D01*
X592069Y672069D01*
X578019Y686119D01*
X577070Y686753D01*
X575950Y686976D01*
X368396D01*
X368358Y687119D01*
X367312Y688931D01*
X365831Y690412D01*
X364019Y691458D01*
X361997Y692000D01*
D02*
G37*
G36*
X406270Y603863D02*
Y596270D01*
X413863D01*
X413284Y598431D01*
X412114Y600459D01*
X410459Y602114D01*
X408431Y603284D01*
X406270Y603863D01*
D02*
G37*
G36*
X403730D02*
X401569Y603284D01*
X399541Y602114D01*
X397886Y600459D01*
X396716Y598431D01*
X396137Y596270D01*
X403730D01*
Y603863D01*
D02*
G37*
G36*
X413863Y593730D02*
X406270D01*
Y586137D01*
X408431Y586716D01*
X410459Y587886D01*
X412114Y589541D01*
X413284Y591569D01*
X413863Y593730D01*
D02*
G37*
G36*
X403730D02*
X396137D01*
X396716Y591569D01*
X397886Y589541D01*
X399541Y587886D01*
X401569Y586716D01*
X403730Y586137D01*
Y593730D01*
D02*
G37*
G36*
X686693Y631100D02*
X682506D01*
X678371Y630445D01*
X674389Y629151D01*
X670659Y627250D01*
X667271Y624789D01*
X664311Y621829D01*
X661850Y618441D01*
X659949Y614711D01*
X658655Y610729D01*
X658000Y606594D01*
Y602407D01*
X658655Y598271D01*
X659949Y594289D01*
X661850Y590559D01*
X664311Y587171D01*
X667271Y584211D01*
X670659Y581750D01*
X674389Y579849D01*
X678371Y578555D01*
X682506Y577900D01*
X686693D01*
X690829Y578555D01*
X694811Y579849D01*
X698541Y581750D01*
X701929Y584211D01*
X704889Y587171D01*
X707350Y590559D01*
X709251Y594289D01*
X710545Y598271D01*
X711200Y602407D01*
Y606594D01*
X710545Y610729D01*
X709251Y614711D01*
X707350Y618441D01*
X704889Y621829D01*
X701929Y624789D01*
X698541Y627250D01*
X694811Y629151D01*
X690829Y630445D01*
X686693Y631100D01*
D02*
G37*
G36*
X181600Y610600D02*
X148400D01*
Y577400D01*
X181600D01*
Y610600D01*
D02*
G37*
G36*
X685647Y542150D02*
X683553D01*
X681531Y541608D01*
X679719Y540562D01*
X678238Y539081D01*
X677192Y537269D01*
X676650Y535247D01*
Y533153D01*
X677192Y531131D01*
X678238Y529319D01*
X679719Y527838D01*
X681531Y526792D01*
X683553Y526250D01*
X685647D01*
X687669Y526792D01*
X689481Y527838D01*
X690962Y529319D01*
X692008Y531131D01*
X692550Y533153D01*
Y535247D01*
X692008Y537269D01*
X690962Y539081D01*
X689481Y540562D01*
X687669Y541608D01*
X685647Y542150D01*
D02*
G37*
G36*
X711270Y531663D02*
Y524070D01*
X718863D01*
X718284Y526231D01*
X717114Y528259D01*
X715459Y529914D01*
X713431Y531084D01*
X711270Y531663D01*
D02*
G37*
G36*
X708730D02*
X706569Y531084D01*
X704541Y529914D01*
X702886Y528259D01*
X701716Y526231D01*
X701137Y524070D01*
X708730D01*
Y531663D01*
D02*
G37*
G36*
X667550Y530550D02*
X651650D01*
Y514650D01*
X667550D01*
Y530550D01*
D02*
G37*
G36*
X708730Y521530D02*
X701137D01*
X701716Y519369D01*
X702886Y517341D01*
X704541Y515686D01*
X706569Y514516D01*
X708730Y513937D01*
Y521530D01*
D02*
G37*
G36*
X718863D02*
X711270D01*
Y513937D01*
X713431Y514516D01*
X715459Y515686D01*
X717114Y517341D01*
X718284Y519369D01*
X718863Y521530D01*
D02*
G37*
G36*
X126270Y515363D02*
Y507770D01*
X133863D01*
X133284Y509931D01*
X132114Y511959D01*
X130459Y513614D01*
X128431Y514784D01*
X126270Y515363D01*
D02*
G37*
G36*
X123730D02*
X121569Y514784D01*
X119541Y513614D01*
X117886Y511959D01*
X116716Y509931D01*
X116137Y507770D01*
X123730D01*
Y515363D01*
D02*
G37*
G36*
X133863Y505230D02*
X126270D01*
Y497637D01*
X128431Y498216D01*
X130459Y499386D01*
X132114Y501041D01*
X133284Y503069D01*
X133863Y505230D01*
D02*
G37*
G36*
X123730D02*
X116137D01*
X116716Y503069D01*
X117886Y501041D01*
X119541Y499386D01*
X121569Y498216D01*
X123730Y497637D01*
Y505230D01*
D02*
G37*
G36*
X381797Y704700D02*
X379703D01*
X377681Y704158D01*
X375869Y703111D01*
X374388Y701631D01*
X373342Y699818D01*
X372800Y697797D01*
Y695703D01*
X373342Y693681D01*
X374388Y691869D01*
X375869Y690388D01*
X377681Y689342D01*
X379703Y688800D01*
X381797D01*
X383819Y689342D01*
X385631Y690388D01*
X387112Y691869D01*
X388158Y693681D01*
X388196Y693824D01*
X582038D01*
X607074Y668788D01*
Y651212D01*
X485431Y529569D01*
X484796Y528620D01*
X484574Y527500D01*
Y445612D01*
X439481Y400519D01*
X438847Y399570D01*
X438624Y398450D01*
Y327540D01*
X432410D01*
Y309260D01*
X449294D01*
X449820Y307990D01*
X436832Y295002D01*
X435245Y295211D01*
X435014Y295612D01*
X433312Y297314D01*
X431228Y298517D01*
X428903Y299140D01*
X426497D01*
X424172Y298517D01*
X422088Y297314D01*
X420386Y295612D01*
X419183Y293528D01*
X418560Y291203D01*
Y288797D01*
X419183Y286472D01*
X420386Y284388D01*
X422088Y282686D01*
X424172Y281483D01*
X426497Y280860D01*
X428903D01*
X431228Y281483D01*
X433312Y282686D01*
X435014Y284388D01*
X436217Y286472D01*
X436740Y288425D01*
X437320D01*
X438440Y288648D01*
X439389Y289282D01*
X455088Y304981D01*
X455088Y304981D01*
X525537Y375430D01*
X634325D01*
X635444Y375653D01*
X636394Y376287D01*
X696829Y436722D01*
X697464Y437672D01*
X697686Y438792D01*
Y475240D01*
X697464Y476360D01*
X696829Y477309D01*
X692737Y481401D01*
X692703Y481571D01*
X692069Y482520D01*
X690916Y483673D01*
X690962Y483719D01*
X692008Y485531D01*
X692550Y487553D01*
Y489647D01*
X692008Y491669D01*
X690962Y493481D01*
X689481Y494962D01*
X687669Y496008D01*
X685647Y496550D01*
X683553D01*
X681531Y496008D01*
X679719Y494962D01*
X678238Y493481D01*
X677192Y491669D01*
X676650Y489647D01*
Y487553D01*
X677192Y485531D01*
X678238Y483719D01*
X679719Y482238D01*
X681531Y481192D01*
X683553Y480650D01*
X685647D01*
X685659Y480653D01*
X687263Y479050D01*
X687297Y478880D01*
X687931Y477931D01*
X691834Y474028D01*
Y471605D01*
X690564Y471079D01*
X689481Y472162D01*
X687669Y473208D01*
X685647Y473750D01*
X683553D01*
X681531Y473208D01*
X679719Y472162D01*
X678238Y470681D01*
X677192Y468869D01*
X676650Y466847D01*
Y464753D01*
X677192Y462731D01*
X678238Y460919D01*
X679719Y459438D01*
X681531Y458392D01*
X683553Y457850D01*
X685647D01*
X687669Y458392D01*
X689481Y459438D01*
X690564Y460521D01*
X691834Y459995D01*
Y448805D01*
X690564Y448279D01*
X689481Y449362D01*
X687669Y450408D01*
X685647Y450950D01*
X683553D01*
X681531Y450408D01*
X679719Y449362D01*
X678238Y447881D01*
X677192Y446069D01*
X676650Y444047D01*
Y441953D01*
X677192Y439931D01*
X678238Y438119D01*
X679719Y436638D01*
X681531Y435592D01*
X683553Y435050D01*
X685084D01*
X685610Y433780D01*
X633112Y381282D01*
X524325D01*
X523205Y381060D01*
X522255Y380425D01*
X451960Y310130D01*
X450690Y310656D01*
Y327540D01*
X444476D01*
Y397238D01*
X489569Y442331D01*
X490204Y443280D01*
X490426Y444400D01*
Y526288D01*
X605900Y641762D01*
X607074Y641276D01*
Y539200D01*
X607296Y538080D01*
X607931Y537131D01*
X646971Y498091D01*
X647920Y497457D01*
X649040Y497234D01*
X651711D01*
X651792Y496931D01*
X652838Y495119D01*
X653921Y494036D01*
X653395Y492766D01*
X529372D01*
X513335Y508804D01*
X513408Y508931D01*
X513950Y510953D01*
Y513047D01*
X513408Y515069D01*
X512362Y516881D01*
X510881Y518362D01*
X509069Y519408D01*
X507047Y519950D01*
X504953D01*
X502931Y519408D01*
X501119Y518362D01*
X499638Y516881D01*
X498592Y515069D01*
X498050Y513047D01*
Y510953D01*
X498592Y508931D01*
X499638Y507119D01*
X501119Y505638D01*
X502931Y504592D01*
X504953Y504050D01*
X507047D01*
X509069Y504592D01*
X509196Y504665D01*
X526091Y487771D01*
X527040Y487136D01*
X528160Y486914D01*
X663408D01*
X664528Y487136D01*
X665478Y487771D01*
X681663Y503956D01*
X683553Y503450D01*
X685647D01*
X687669Y503992D01*
X689481Y505038D01*
X690962Y506519D01*
X692008Y508331D01*
X692550Y510353D01*
Y512447D01*
X692008Y514469D01*
X690962Y516281D01*
X689481Y517762D01*
X687669Y518808D01*
X685647Y519350D01*
X683553D01*
X681531Y518808D01*
X679719Y517762D01*
X678238Y516281D01*
X677192Y514469D01*
X676650Y512447D01*
Y510353D01*
X677192Y508331D01*
X677400Y507970D01*
X668420Y498990D01*
X667150Y499516D01*
Y501047D01*
X666608Y503069D01*
X665562Y504881D01*
X664081Y506362D01*
X662269Y507408D01*
X660247Y507950D01*
X658153D01*
X656131Y507408D01*
X654319Y506362D01*
X652838Y504881D01*
X651802Y503086D01*
X650252D01*
X612926Y540412D01*
Y650000D01*
Y670000D01*
X612704Y671120D01*
X612069Y672069D01*
X585319Y698819D01*
X584370Y699453D01*
X583250Y699676D01*
X388196D01*
X388158Y699818D01*
X387112Y701631D01*
X385631Y703111D01*
X383819Y704158D01*
X381797Y704700D01*
D02*
G37*
G36*
X711047Y507950D02*
X708953D01*
X706931Y507408D01*
X705119Y506362D01*
X703638Y504881D01*
X702592Y503069D01*
X702050Y501047D01*
Y498953D01*
X702592Y496931D01*
X703638Y495119D01*
X705119Y493638D01*
X706931Y492592D01*
X708953Y492050D01*
X711047D01*
X713069Y492592D01*
X714881Y493638D01*
X716362Y495119D01*
X717408Y496931D01*
X717950Y498953D01*
Y501047D01*
X717408Y503069D01*
X716362Y504881D01*
X714881Y506362D01*
X713069Y507408D01*
X711047Y507950D01*
D02*
G37*
G36*
Y485150D02*
X708953D01*
X706931Y484608D01*
X705119Y483562D01*
X703638Y482081D01*
X702592Y480269D01*
X702050Y478247D01*
Y476153D01*
X702592Y474131D01*
X703638Y472319D01*
X705119Y470838D01*
X706931Y469792D01*
X708953Y469250D01*
X711047D01*
X713069Y469792D01*
X714881Y470838D01*
X716362Y472319D01*
X717408Y474131D01*
X717950Y476153D01*
Y478247D01*
X717408Y480269D01*
X716362Y482081D01*
X714881Y483562D01*
X713069Y484608D01*
X711047Y485150D01*
D02*
G37*
G36*
X660247D02*
X658153D01*
X656131Y484608D01*
X654319Y483562D01*
X652838Y482081D01*
X651792Y480269D01*
X651250Y478247D01*
Y476153D01*
X651792Y474131D01*
X652838Y472319D01*
X654319Y470838D01*
X656131Y469792D01*
X658153Y469250D01*
X660247D01*
X662269Y469792D01*
X664081Y470838D01*
X665562Y472319D01*
X666608Y474131D01*
X667150Y476153D01*
Y478247D01*
X666608Y480269D01*
X665562Y482081D01*
X664081Y483562D01*
X662269Y484608D01*
X660247Y485150D01*
D02*
G37*
G36*
X711047Y462350D02*
X708953D01*
X706931Y461808D01*
X705119Y460762D01*
X703638Y459281D01*
X702592Y457469D01*
X702050Y455447D01*
Y453353D01*
X702592Y451331D01*
X703638Y449519D01*
X705119Y448038D01*
X706931Y446992D01*
X708953Y446450D01*
X711047D01*
X713069Y446992D01*
X714881Y448038D01*
X716362Y449519D01*
X717408Y451331D01*
X717950Y453353D01*
Y455447D01*
X717408Y457469D01*
X716362Y459281D01*
X714881Y460762D01*
X713069Y461808D01*
X711047Y462350D01*
D02*
G37*
G36*
X660247D02*
X658153D01*
X656131Y461808D01*
X654319Y460762D01*
X652838Y459281D01*
X651792Y457469D01*
X651250Y455447D01*
Y453353D01*
X651792Y451331D01*
X652838Y449519D01*
X654319Y448038D01*
X656131Y446992D01*
X658153Y446450D01*
X660247D01*
X662269Y446992D01*
X664081Y448038D01*
X665562Y449519D01*
X666608Y451331D01*
X667150Y453353D01*
Y455447D01*
X666608Y457469D01*
X665562Y459281D01*
X664081Y460762D01*
X662269Y461808D01*
X660247Y462350D01*
D02*
G37*
G36*
X711047Y439550D02*
X708953D01*
X706931Y439008D01*
X705119Y437962D01*
X703638Y436481D01*
X702592Y434669D01*
X702050Y432647D01*
Y430553D01*
X702592Y428531D01*
X703638Y426719D01*
X705119Y425238D01*
X706931Y424192D01*
X708953Y423650D01*
X711047D01*
X713069Y424192D01*
X714881Y425238D01*
X716362Y426719D01*
X717408Y428531D01*
X717950Y430553D01*
Y432647D01*
X717408Y434669D01*
X716362Y436481D01*
X714881Y437962D01*
X713069Y439008D01*
X711047Y439550D01*
D02*
G37*
G36*
X660247D02*
X658153D01*
X656131Y439008D01*
X654319Y437962D01*
X652838Y436481D01*
X651792Y434669D01*
X651250Y432647D01*
Y430553D01*
X651792Y428531D01*
X652838Y426719D01*
X654319Y425238D01*
X656131Y424192D01*
X658153Y423650D01*
X660247D01*
X662269Y424192D01*
X664081Y425238D01*
X665562Y426719D01*
X666608Y428531D01*
X667150Y430553D01*
Y432647D01*
X666608Y434669D01*
X665562Y436481D01*
X664081Y437962D01*
X662269Y439008D01*
X660247Y439550D01*
D02*
G37*
G36*
X686693Y381200D02*
X682506D01*
X678371Y380545D01*
X674389Y379251D01*
X670659Y377350D01*
X667271Y374889D01*
X664311Y371929D01*
X661850Y368541D01*
X659949Y364811D01*
X658655Y360829D01*
X658000Y356693D01*
Y352506D01*
X658655Y348371D01*
X659949Y344389D01*
X661850Y340659D01*
X664311Y337271D01*
X667271Y334311D01*
X670659Y331850D01*
X674389Y329949D01*
X678371Y328655D01*
X682506Y328000D01*
X686693D01*
X690829Y328655D01*
X694811Y329949D01*
X698541Y331850D01*
X701929Y334311D01*
X704889Y337271D01*
X707350Y340659D01*
X709251Y344389D01*
X710545Y348371D01*
X711200Y352506D01*
Y356693D01*
X710545Y360829D01*
X709251Y364811D01*
X707350Y368541D01*
X704889Y371929D01*
X701929Y374889D01*
X698541Y377350D01*
X694811Y379251D01*
X690829Y380545D01*
X686693Y381200D01*
D02*
G37*
G36*
X634620Y339220D02*
X616180D01*
Y320780D01*
X634620D01*
Y339220D01*
D02*
G37*
G36*
X601214D02*
X598786D01*
X596441Y338592D01*
X594339Y337378D01*
X592622Y335661D01*
X591408Y333559D01*
X590780Y331214D01*
Y328786D01*
X591408Y326441D01*
X592622Y324339D01*
X594339Y322622D01*
X596441Y321408D01*
X598786Y320780D01*
X601214D01*
X603559Y321408D01*
X605661Y322622D01*
X607378Y324339D01*
X608592Y326441D01*
X609220Y328786D01*
Y331214D01*
X608592Y333559D01*
X607378Y335661D01*
X605661Y337378D01*
X603559Y338592D01*
X601214Y339220D01*
D02*
G37*
G36*
X575814D02*
X573386D01*
X571041Y338592D01*
X568939Y337378D01*
X567222Y335661D01*
X566008Y333559D01*
X565380Y331214D01*
Y328786D01*
X566008Y326441D01*
X567222Y324339D01*
X568939Y322622D01*
X571041Y321408D01*
X573386Y320780D01*
X575814D01*
X578159Y321408D01*
X580261Y322622D01*
X581978Y324339D01*
X583192Y326441D01*
X583820Y328786D01*
Y331214D01*
X583192Y333559D01*
X581978Y335661D01*
X580261Y337378D01*
X578159Y338592D01*
X575814Y339220D01*
D02*
G37*
G36*
X362597Y653900D02*
X360503D01*
X358481Y653358D01*
X356669Y652311D01*
X355188Y650831D01*
X354142Y649018D01*
X353600Y646997D01*
Y644903D01*
X354142Y642881D01*
X355188Y641068D01*
X356669Y639588D01*
X358481Y638542D01*
X358624Y638504D01*
Y528450D01*
X358847Y527330D01*
X359481Y526381D01*
X383224Y502638D01*
Y327078D01*
X382622Y326917D01*
X380538Y325714D01*
X378836Y324012D01*
X377633Y321928D01*
X377010Y319603D01*
Y317197D01*
X377633Y314872D01*
X378836Y312788D01*
X380538Y311086D01*
X382622Y309883D01*
X384947Y309260D01*
X387353D01*
X389678Y309883D01*
X391762Y311086D01*
X393464Y312788D01*
X394667Y314872D01*
X395290Y317197D01*
Y319603D01*
X394667Y321928D01*
X393464Y324012D01*
X391762Y325714D01*
X389678Y326917D01*
X389076Y327078D01*
Y503850D01*
X388853Y504970D01*
X388219Y505919D01*
X364476Y529662D01*
Y638504D01*
X364619Y638542D01*
X366431Y639588D01*
X367912Y641068D01*
X368958Y642881D01*
X369500Y644903D01*
Y646997D01*
X368958Y649018D01*
X367912Y650831D01*
X366431Y652311D01*
X364619Y653358D01*
X362597Y653900D01*
D02*
G37*
G36*
X331953Y327540D02*
X329547D01*
X327222Y326917D01*
X325138Y325714D01*
X323436Y324012D01*
X322233Y321928D01*
X321610Y319603D01*
Y317197D01*
X322233Y314872D01*
X323436Y312788D01*
X325138Y311086D01*
X327222Y309883D01*
X329547Y309260D01*
X331953D01*
X334278Y309883D01*
X336362Y311086D01*
X338064Y312788D01*
X339267Y314872D01*
X339890Y317197D01*
Y319603D01*
X339267Y321928D01*
X338064Y324012D01*
X336362Y325714D01*
X334278Y326917D01*
X331953Y327540D01*
D02*
G37*
G36*
X376047Y667950D02*
X373953D01*
X371931Y667408D01*
X370119Y666362D01*
X368638Y664881D01*
X367592Y663068D01*
X367050Y661047D01*
Y658953D01*
X367592Y656931D01*
X368638Y655119D01*
X370119Y653638D01*
X371931Y652592D01*
X372074Y652554D01*
Y540000D01*
X372296Y538880D01*
X372931Y537931D01*
X397074Y513788D01*
Y311212D01*
X388788Y302926D01*
X379563D01*
X367104Y315385D01*
X367590Y317197D01*
Y319603D01*
X366967Y321928D01*
X365764Y324012D01*
X364062Y325714D01*
X361978Y326917D01*
X359653Y327540D01*
X357247D01*
X354922Y326917D01*
X352838Y325714D01*
X351136Y324012D01*
X349933Y321928D01*
X349310Y319603D01*
Y317197D01*
X349933Y314872D01*
X351136Y312788D01*
X352838Y311086D01*
X354922Y309883D01*
X357247Y309260D01*
X359653D01*
X361978Y309883D01*
X363469Y310744D01*
X372863Y301350D01*
X372337Y300080D01*
X370973D01*
X368409Y299393D01*
X366111Y298066D01*
X364234Y296189D01*
X362907Y293891D01*
X362220Y291327D01*
Y291270D01*
X382380D01*
Y291327D01*
X381693Y293891D01*
X380588Y295804D01*
X381141Y297074D01*
X390000D01*
X391120Y297297D01*
X392069Y297931D01*
X402069Y307931D01*
X402704Y308880D01*
X402926Y310000D01*
Y515000D01*
X402704Y516120D01*
X402069Y517069D01*
X377926Y541212D01*
Y652554D01*
X378069Y652592D01*
X379881Y653638D01*
X381362Y655119D01*
X382408Y656931D01*
X382950Y658953D01*
Y661047D01*
X382408Y663068D01*
X381362Y664881D01*
X379881Y666362D01*
X378069Y667408D01*
X376047Y667950D01*
D02*
G37*
G36*
X151270Y308863D02*
Y301270D01*
X158863D01*
X158284Y303431D01*
X157114Y305459D01*
X155459Y307114D01*
X153431Y308284D01*
X151270Y308863D01*
D02*
G37*
G36*
X148730D02*
X146569Y308284D01*
X144541Y307114D01*
X142886Y305459D01*
X141716Y303431D01*
X141137Y301270D01*
X148730D01*
Y308863D01*
D02*
G37*
G36*
X345927Y300080D02*
X345870D01*
Y291270D01*
X354680D01*
Y291327D01*
X353993Y293891D01*
X352666Y296189D01*
X350789Y298066D01*
X348491Y299393D01*
X345927Y300080D01*
D02*
G37*
G36*
X343330D02*
X343273D01*
X340709Y299393D01*
X338411Y298066D01*
X336534Y296189D01*
X335207Y293891D01*
X334520Y291327D01*
Y291270D01*
X343330D01*
Y300080D01*
D02*
G37*
G36*
X158863Y298730D02*
X151270D01*
Y291137D01*
X153431Y291716D01*
X155459Y292886D01*
X157114Y294541D01*
X158284Y296569D01*
X158863Y298730D01*
D02*
G37*
G36*
X148730D02*
X141137D01*
X141716Y296569D01*
X142886Y294541D01*
X144541Y292886D01*
X146569Y291716D01*
X148730Y291137D01*
Y298730D01*
D02*
G37*
G36*
X513260Y326130D02*
X508940D01*
X504703Y325287D01*
X500712Y323634D01*
X497120Y321234D01*
X494066Y318180D01*
X491666Y314588D01*
X490013Y310597D01*
X489170Y306360D01*
Y302040D01*
X490013Y297803D01*
X491666Y293812D01*
X494066Y290221D01*
X497120Y287166D01*
X500712Y284766D01*
X504703Y283113D01*
X508940Y282270D01*
X513260D01*
X517497Y283113D01*
X521488Y284766D01*
X525079Y287166D01*
X528134Y290221D01*
X530534Y293812D01*
X532187Y297803D01*
X533030Y302040D01*
Y306360D01*
X532187Y310597D01*
X530534Y314588D01*
X528134Y318180D01*
X525079Y321234D01*
X521488Y323634D01*
X517497Y325287D01*
X513260Y326130D01*
D02*
G37*
G36*
X263360D02*
X259040D01*
X254803Y325287D01*
X250812Y323634D01*
X247220Y321234D01*
X244166Y318180D01*
X241766Y314588D01*
X240113Y310597D01*
X239270Y306360D01*
Y302040D01*
X240113Y297803D01*
X241766Y293812D01*
X244166Y290221D01*
X247220Y287166D01*
X250812Y284766D01*
X254803Y283113D01*
X259040Y282270D01*
X263360D01*
X267597Y283113D01*
X271588Y284766D01*
X275180Y287166D01*
X278234Y290221D01*
X280634Y293812D01*
X282287Y297803D01*
X283130Y302040D01*
Y306360D01*
X282287Y310597D01*
X280634Y314588D01*
X278234Y318180D01*
X275180Y321234D01*
X271588Y323634D01*
X267597Y325287D01*
X263360Y326130D01*
D02*
G37*
G36*
X401203Y299140D02*
X398797D01*
X396472Y298517D01*
X394388Y297314D01*
X392686Y295612D01*
X391483Y293528D01*
X390860Y291203D01*
Y288797D01*
X391483Y286472D01*
X392686Y284388D01*
X394388Y282686D01*
X396472Y281483D01*
X398797Y280860D01*
X401203D01*
X403528Y281483D01*
X405612Y282686D01*
X407314Y284388D01*
X408517Y286472D01*
X409140Y288797D01*
Y291203D01*
X408517Y293528D01*
X407314Y295612D01*
X405612Y297314D01*
X403528Y298517D01*
X401203Y299140D01*
D02*
G37*
G36*
X382380Y288730D02*
X373570D01*
Y279920D01*
X373627D01*
X376191Y280607D01*
X378489Y281934D01*
X380366Y283811D01*
X381693Y286109D01*
X382380Y288673D01*
Y288730D01*
D02*
G37*
G36*
X371030D02*
X362220D01*
Y288673D01*
X362907Y286109D01*
X364234Y283811D01*
X366111Y281934D01*
X368409Y280607D01*
X370973Y279920D01*
X371030D01*
Y288730D01*
D02*
G37*
G36*
X354680D02*
X345870D01*
Y279920D01*
X345927D01*
X348491Y280607D01*
X350789Y281934D01*
X352666Y283811D01*
X353993Y286109D01*
X354680Y288673D01*
Y288730D01*
D02*
G37*
G36*
X343330D02*
X334520D01*
Y288673D01*
X335207Y286109D01*
X336534Y283811D01*
X338411Y281934D01*
X340709Y280607D01*
X343273Y279920D01*
X343330D01*
Y288730D01*
D02*
G37*
G36*
X728077Y314100D02*
X721923D01*
X715844Y313137D01*
X709991Y311235D01*
X704507Y308441D01*
X699528Y304824D01*
X695176Y300472D01*
X691559Y295493D01*
X688765Y290009D01*
X686863Y284156D01*
X685900Y278077D01*
Y271923D01*
X686863Y265844D01*
X688765Y259991D01*
X691559Y254507D01*
X695176Y249528D01*
X699528Y245176D01*
X704507Y241559D01*
X709991Y238765D01*
X715844Y236863D01*
X721923Y235900D01*
X728077D01*
X734156Y236863D01*
X740009Y238765D01*
X745493Y241559D01*
X750472Y245176D01*
X754824Y249528D01*
X758441Y254507D01*
X761235Y259991D01*
X763137Y265844D01*
X764100Y271923D01*
Y278077D01*
X763137Y284156D01*
X761235Y290009D01*
X758441Y295493D01*
X754824Y300472D01*
X750472Y304824D01*
X745493Y308441D01*
X740009Y311235D01*
X734156Y313137D01*
X728077Y314100D01*
D02*
G37*
G36*
X78077D02*
X71923D01*
X65844Y313137D01*
X59991Y311235D01*
X54507Y308441D01*
X49528Y304824D01*
X45176Y300472D01*
X41559Y295493D01*
X38765Y290009D01*
X36863Y284156D01*
X35900Y278077D01*
Y271923D01*
X36863Y265844D01*
X38765Y259991D01*
X41559Y254507D01*
X45176Y249528D01*
X49528Y245176D01*
X54507Y241559D01*
X59991Y238765D01*
X65844Y236863D01*
X71923Y235900D01*
X78077D01*
X84156Y236863D01*
X90009Y238765D01*
X95493Y241559D01*
X100472Y245176D01*
X104824Y249528D01*
X108441Y254507D01*
X111235Y259991D01*
X113137Y265844D01*
X114100Y271923D01*
Y278077D01*
X113137Y284156D01*
X111235Y290009D01*
X108441Y295493D01*
X104824Y300472D01*
X100472Y304824D01*
X95493Y308441D01*
X90009Y311235D01*
X84156Y313137D01*
X78077Y314100D01*
D02*
G37*
%LPD*%
D10*
X446350Y346200D02*
G03*
X446350Y346200I-1000J0D01*
G01*
D13*
X506000Y512000D02*
X528160Y489840D01*
X663408D01*
X441550Y398450D02*
X487500Y444400D01*
X386150Y318400D02*
Y503850D01*
X413850Y393850D02*
X470000Y450000D01*
X400000Y310000D02*
Y515000D01*
X470000Y450000D02*
Y530000D01*
X487500Y444400D02*
Y527500D01*
X361550Y528450D02*
X386150Y503850D01*
X413850Y318400D02*
Y393850D01*
X453018Y307050D02*
X524325Y378356D01*
X634325D01*
X441550Y318400D02*
Y398450D01*
X361550Y528450D02*
Y645950D01*
X375000Y540000D02*
X400000Y515000D01*
X375000Y540000D02*
Y660000D01*
X550000Y610000D02*
X590000Y650000D01*
X470000Y530000D02*
X550000Y610000D01*
X437320Y291352D02*
X453018Y307050D01*
X427700Y290000D02*
X429051Y291352D01*
X453018Y307050D02*
X453018D01*
X429051Y291352D02*
X437320D01*
X358450Y318400D02*
X359951D01*
X390000Y300000D02*
X400000Y310000D01*
X359951Y318400D02*
X378351Y300000D01*
X390000D01*
X634325Y378356D02*
X694760Y438792D01*
Y475240D01*
X684600Y485851D02*
Y488600D01*
Y485851D02*
X690000Y480451D01*
Y480000D02*
Y480451D01*
Y480000D02*
X694760Y475240D01*
X649040Y500160D02*
X659040D01*
X659200Y500000D01*
X610000Y539200D02*
X649040Y500160D01*
X663408Y489840D02*
X684600Y511032D01*
Y511400D01*
X610000Y539200D02*
Y650000D01*
X590000D02*
Y670000D01*
X487500Y527500D02*
X610000Y650000D01*
X360950Y684050D02*
X575950D01*
X590000Y670000D01*
X583250Y696750D02*
X610000Y670000D01*
X380750Y696750D02*
X583250D01*
X610000Y650000D02*
Y670000D01*
D14*
X232100Y334200D02*
X540200D01*
X232100Y148200D02*
Y334200D01*
X540200Y148200D02*
Y334200D01*
X232100Y148200D02*
X540200D01*
X232100Y209200D02*
X540200D01*
D17*
X25400Y900000D02*
G03*
X0Y874600I0J-25400D01*
G01*
X800000D02*
G03*
X774600Y900000I-25400J0D01*
G01*
Y200000D02*
G03*
X800000Y225400I0J25400D01*
G01*
X0D02*
G03*
X25400Y200000I25400J0D01*
G01*
X0Y225400D02*
Y874600D01*
X25400Y900000D02*
X774600D01*
X800000Y225400D02*
Y874600D01*
X25400Y200000D02*
X774600D01*
D18*
X427000Y708000D02*
G03*
X427000Y708000I-5000J0D01*
G01*
X413000Y613000D02*
X467000D01*
X413000Y717000D02*
X467000D01*
Y613000D02*
Y717000D01*
X413000Y613000D02*
Y717000D01*
X174000Y308500D02*
X206000D01*
X174000Y291500D02*
X206000D01*
X174000D02*
Y308500D01*
X206000Y291500D02*
Y308500D01*
X671500Y719750D02*
X688500D01*
X671500Y687750D02*
Y719750D01*
X688500Y687750D02*
Y719750D01*
X671500Y687750D02*
X688500D01*
X440000Y660000D02*
Y670000D01*
X435000Y665000D02*
X445000D01*
X190000Y295000D02*
Y305000D01*
X185000Y300000D02*
X195000D01*
X680000Y698750D02*
Y708750D01*
X675000Y703750D02*
X685000D01*
D19*
X229600Y336700D02*
X542700D01*
X229600Y145700D02*
Y336700D01*
X542700Y145700D02*
Y336700D01*
X229600Y145700D02*
X542700D01*
X393000Y610500D02*
X487000D01*
X393000Y719500D02*
X487000D01*
Y610500D02*
Y719500D01*
X393000Y610500D02*
Y719500D01*
X168000Y311000D02*
X212000D01*
X168000Y289000D02*
X212000D01*
X168000D02*
Y311000D01*
X212000Y289000D02*
Y311000D01*
X669000Y681750D02*
X691000D01*
X669000Y725750D02*
X691000D01*
X669000Y681750D02*
Y725750D01*
X691000Y681750D02*
Y725750D01*
D40*
X574600Y330000D02*
D03*
X600000D02*
D03*
X95000Y685000D02*
D03*
Y635000D02*
D03*
X240000Y685000D02*
D03*
Y660000D02*
D03*
Y635000D02*
D03*
D41*
X625400Y330000D02*
D03*
D42*
X710000Y522800D02*
D03*
Y500000D02*
D03*
Y477200D02*
D03*
Y454400D02*
D03*
Y431600D02*
D03*
X659200Y500000D02*
D03*
Y477200D02*
D03*
Y454400D02*
D03*
Y431600D02*
D03*
X684600Y443000D02*
D03*
Y465800D02*
D03*
Y488600D02*
D03*
Y511400D02*
D03*
Y534200D02*
D03*
X560000Y660000D02*
D03*
X506000Y512000D02*
D03*
X150000Y300000D02*
D03*
X550000Y610000D02*
D03*
X375000Y660000D02*
D03*
X405000Y595000D02*
D03*
X650000Y720000D02*
D03*
X125000Y506500D02*
D03*
X380750Y696750D02*
D03*
X361550Y645950D02*
D03*
X360950Y684050D02*
D03*
D43*
X659600Y522600D02*
D03*
D44*
X684600Y604500D02*
D03*
Y354600D02*
D03*
D45*
X165000Y726000D02*
D03*
Y594000D02*
D03*
D46*
X386150Y318400D02*
D03*
X330750D02*
D03*
X344600Y290000D02*
D03*
X358450Y318400D02*
D03*
X413850D02*
D03*
X400000Y290000D02*
D03*
X372300D02*
D03*
X427700D02*
D03*
D47*
X261200Y304200D02*
D03*
X511100D02*
D03*
D48*
X441550Y318400D02*
D03*
D49*
X75000Y275000D02*
D03*
X725000D02*
D03*
Y825000D02*
D03*
X75000D02*
D03*
M02*
