<svg id="Layer_1" data-name="Layer 1" xmlns="http://www.w3.org/2000/svg" xmlns:xlink="http://www.w3.org/1999/xlink" viewBox="0 0 287.25 179.3"><defs><style>.cls-1{fill:#fff;stroke-linecap:round;}.cls-1,.cls-13,.cls-14,.cls-2,.cls-3,.cls-6,.cls-7,.cls-8{stroke:#000;}.cls-1,.cls-3{stroke-linejoin:round;}.cls-1,.cls-2,.cls-3{stroke-width:1.42px;}.cls-2,.cls-3,.cls-6,.cls-7,.cls-8{fill:none;}.cls-14,.cls-2,.cls-6,.cls-8{stroke-miterlimit:11.34;}.cls-10,.cls-15,.cls-4,.cls-5,.cls-9{isolation:isolate;}.cls-5{font-size:16px;}.cls-10,.cls-15,.cls-5,.cls-9{font-family:CambriaMath, Cambria Math;}.cls-6{stroke-width:1.25px;}.cls-8{stroke-width:1.42px;}.cls-9{font-size:14px;}.cls-10{font-size:10.4px;}.cls-11{letter-spacing:-0.03em;}.cls-12{letter-spacing:-0.02em;}.cls-13{stroke-miterlimit:2.27;stroke-width:0.57px;}.cls-13,.cls-14{fill-rule:evenodd;}.cls-14{stroke-width:2.83px;}.cls-15{font-size:10px;}.cls-16{letter-spacing:-0.01em;}</style><symbol id="Resistor" data-name="Resistor" viewBox="0 0 39.72 13.53"><path id="path4463" class="cls-1" d="M.71,7.45H7.63L9.42,1l3.3,11.79L16,.75l3.14,12L22.25.79l3.14,11.93,3.05-12,3,12.11,1.53-6.23H39"/></symbol><symbol id="gnd" data-name="gnd" viewBox="0 0 17.14 25.38"><path id="path4485" class="cls-2" d="M8,.71h.79v10"/><path id="path4487" class="cls-3" d="M.71,10.93H16.43L8.84,24.67Z"/></symbol><symbol id="op_amp" data-name="op_amp" viewBox="0 0 68.26 92.95"><g id="text4434" class="cls-4"><text class="cls-5" transform="matrix(1, 0, 0, -1, 3.47, 39.42)">+</text></g><path id="path4436" class="cls-6" d="M7.08,73.2h7.21"/><polygon class="cls-7" points="67.16 58.26 0.5 24.36 0.5 92.14 67.16 58.26"/></symbol></defs><path id="path4440" class="cls-8" d="M164.24,59.2H22.75" transform="translate(-22.75 -16)"/><path id="path4451" class="cls-1" d="M74.29,142.64h6.92l1.8-6.47L86.3,148l3.26-12,3.14,11.95L95.84,136,99,147.91l3-12L105,148l1.53-6.23h6.08" transform="translate(-22.75 -16)"/><path id="path4453" class="cls-2" d="M310,74.26H230.9" transform="translate(-22.75 -16)"/><use width="39.72" height="13.53" transform="translate(154.21 118.48)" xlink:href="#Resistor"/><path id="path4469" class="cls-1" d="M112.6,89.41h-6.92l-1.8,6.48-3.29-11.8-3.26,12-3.15-12L91.05,96.07,87.91,84.15l-3,12L81.89,84l-1.53,6.24H74.29" transform="translate(-22.75 -16)"/><use width="17.14" height="25.38" transform="translate(29.83 73.43)" xlink:href="#gnd"/><g id="text4495" class="cls-4"><text class="cls-9" transform="translate(5.28 144.81)">(2.5V)</text></g><g id="text4505" class="cls-4"><text class="cls-5" transform="translate(3.11 113.9)">V</text><text class="cls-10" transform="translate(12.77 119.9)">REF</text></g><g id="text4515" class="cls-4"><text class="cls-5" transform="translate(227.23 46.02)">V</text><text class="cls-10" transform="translate(236.89 52.02)">out </text></g><g id="text4527" class="cls-4"><text class="cls-5" transform="translate(3.11 30.76)">V</text><text class="cls-10" transform="translate(12.77 36.76)"><tspan class="cls-11">D</tspan><tspan class="cls-12" x="6.58" y="0">A</tspan><tspan x="12.89" y="0">C</tspan></text><text class="cls-4" x="-22.75" y="-16"/></g><g id="text4539" class="cls-4"><text class="cls-9" transform="translate(55.63 115.77)">7.5kΩ</text></g><g id="text4547" class="cls-4"><text class="cls-9" transform="translate(156.42 115.77)">30kΩ</text></g><g id="text4551" class="cls-4"><text class="cls-9" transform="translate(55.63 63.7)">10kΩ</text></g><path id="path4152" class="cls-13" d="M270.9,74.26,266,77.1V71.43Z" transform="translate(-22.75 -16)"/><path id="path2590" class="cls-14" d="M267.62,74.26" transform="translate(-22.75 -16)"/><path id="path2624" class="cls-13" d="M49.09,59.2,44.19,62V56.37Z" transform="translate(-22.75 -16)"/><path id="path4519" class="cls-2" d="M61.49,142.56H22.75" transform="translate(-22.75 -16)"/><path id="path2624-2" data-name="path2624" class="cls-13" d="M49.09,142.63l-4.9,2.84V139.8Z" transform="translate(-22.75 -16)"/><path id="path2622" class="cls-14" d="M83.82,60.14" transform="translate(-22.75 -16)"/><path id="path3408" class="cls-14" d="M83.82,90.1" transform="translate(-22.75 -16)"/><use width="68.26" height="92.95" transform="translate(140.99 0)" xlink:href="#op_amp"/><line class="cls-2" x1="89.85" y1="73.41" x2="141.49" y2="73.2"/><line class="cls-2" x1="115.05" y1="125.96" x2="115.05" y2="73.31"/><line class="cls-2" x1="89.85" y1="125.78" x2="115.05" y2="125.96"/><line class="cls-2" x1="154.92" y1="125.96" x2="115.05" y2="125.96"/><polyline class="cls-2" points="193.42 125.04 230.15 125.04 230.15 57.84"/><line class="cls-2" x1="51.54" y1="74.27" x2="38" y2="74.1"/><line class="cls-2" x1="38" y1="126.62" x2="51.54" y2="126.64"/><g id="text5334" class="cls-4"><text class="cls-15" transform="translate(239.43 72.48)">(<tspan class="cls-16" x="4.15" y="0">t</tspan><tspan x="7.45" y="0">o LPF)</tspan></text></g></svg>