<svg id="svg8" xmlns="http://www.w3.org/2000/svg" viewBox="0 0 209.05 88.75"><defs><style>.cls-1,.cls-12,.cls-13,.cls-9{fill:none;}.cls-1,.cls-12,.cls-14,.cls-15,.cls-2,.cls-9{stroke:#000;}.cls-1,.cls-15,.cls-9{stroke-miterlimit:11.34;}.cls-1,.cls-12,.cls-2{stroke-width:1.42px;}.cls-2{fill:#fff;stroke-linecap:round;}.cls-12,.cls-2{stroke-linejoin:round;}.cls-3,.cls-4,.cls-5,.cls-6,.cls-7{isolation:isolate;}.cls-4{font-size:16px;}.cls-4,.cls-5,.cls-6,.cls-7{font-family:CambriaMath, Cambria Math;}.cls-5{font-size:10.4px;}.cls-6{font-size:14px;}.cls-7{font-size:10px;}.cls-8{letter-spacing:-0.01em;}.cls-9{stroke-width:1.42px;}.cls-10{letter-spacing:-0.01em;}.cls-11{letter-spacing:-0.01em;}.cls-14{stroke-miterlimit:2.27;stroke-width:0.57px;}.cls-14,.cls-15{fill-rule:evenodd;}.cls-15{stroke-width:2.83px;}</style></defs><g id="layer1"><path id="path4440" class="cls-1" d="M139.48,23H97.22" transform="translate(-1.79 -1.38)"/><path id="path4463" class="cls-2" d="M65,23.88h6.92l1.8-6.47L77,29.21l3.26-12,3.14,12,3.14-11.91,3.13,11.93,3-12,3,12.12L97.22,23h6.08" transform="translate(-1.79 -1.38)"/><g id="text4515" class="cls-3"><text class="cls-4" transform="translate(16.09 15.05)">V</text><text class="cls-5" transform="translate(23.92 21.05)">out</text></g><path id="path4519" class="cls-1" d="M65,23.88H20.18" transform="translate(-1.79 -1.38)"/><g id="text4543" class="cls-3"><text class="cls-6" transform="translate(66.2 11.67)">120Ω</text></g><g id="text5334" class="cls-3"><text class="cls-7" transform="translate(0 35.72)">(f<tspan class="cls-8" x="7.18" y="0">r</tspan><tspan x="11.17" y="0">om op amp)</tspan></text></g><path id="path5358" class="cls-1" d="M153.34,46.76H124.23" transform="translate(-1.79 -1.38)"/><path id="path5360" class="cls-1" d="M153.34,51.26H124.23" transform="translate(-1.79 -1.38)"/><g id="text5364" class="cls-3"><text class="cls-6" transform="translate(155.32 52.56)">10nF</text></g><path id="path5366" class="cls-1" d="M138.78,47.27v-25" transform="translate(-1.79 -1.38)"/><path id="path5368" class="cls-1" d="M138.78,76.38v-25" transform="translate(-1.79 -1.38)"/><path id="path5370" class="cls-9" d="M186.4,23H139.22" transform="translate(-1.79 -1.38)"/><g id="text5374" class="cls-3"><text class="cls-6" transform="translate(143.13 14.21)">AN<tspan class="cls-10" x="18.25" y="0">L</tspan><tspan x="25.66" y="0">G_OUT</tspan></text></g><g id="text5378" class="cls-3"><text class="cls-7" transform="translate(162.84 34.78)">(<tspan class="cls-11" x="4.15" y="0">t</tspan><tspan x="7.45" y="0">o BNC)</tspan></text></g><path id="path4487" class="cls-12" d="M130.88,75.68H146.6L139,89.42Z" transform="translate(-1.79 -1.38)"/><path class="cls-13" transform="translate(-1.79 -1.38)"/><path id="path4152" class="cls-14" d="M49.22,23.92l-4.9,2.83V21.08Z" transform="translate(-1.79 -1.38)"/><path id="path7378" class="cls-15" d="M46,23.92" transform="translate(-1.79 -1.38)"/><path class="cls-13" transform="translate(-1.79 -1.38)"/><path id="path7490" class="cls-14" d="M175.94,23,171,25.83V20.16Z" transform="translate(-1.79 -1.38)"/><path id="path7488" class="cls-15" d="M172.67,23" transform="translate(-1.79 -1.38)"/></g></svg>