G04*
G04 #@! TF.GenerationSoftware,Altium Limited,Altium Designer,24.9.1 (31)*
G04*
G04 Layer_Physical_Order=2*
G04 Layer_Color=16711680*
%FSLAX25Y25*%
%MOIN*%
G70*
G04*
G04 #@! TF.SameCoordinates,59699F77-247D-42C6-972D-823977B7F44A*
G04*
G04*
G04 #@! TF.FilePolarity,Positive*
G04*
G01*
G75*
%ADD11C,0.01000*%
%ADD15C,0.00800*%
%ADD16C,0.00600*%
%ADD43R,0.03150X0.03150*%
%ADD46R,0.03740X0.03740*%
%ADD48R,0.03740X0.03740*%
%ADD51C,0.09000*%
%ADD52C,0.13000*%
%ADD53C,0.05906*%
%ADD54C,0.19685*%
%ADD55C,0.06000*%
%ADD56R,0.06000X0.06000*%
%ADD57C,0.30000*%
%ADD58C,0.03000*%
%ADD59C,0.06299*%
%ADD60C,0.07874*%
%ADD61R,0.07874X0.07874*%
%ADD62R,0.06299X0.06299*%
%ADD63C,0.02800*%
%ADD64R,0.06299X0.11811*%
%ADD65R,0.22835X0.24410*%
%ADD66O,0.07480X0.02362*%
%ADD67O,0.05709X0.02362*%
G36*
X674910Y493199D02*
X673195Y492787D01*
X670941Y491853D01*
X668861Y490579D01*
X667006Y488994D01*
X665421Y487139D01*
X664147Y485059D01*
X663213Y482805D01*
X662643Y480432D01*
X662472Y478250D01*
X678000D01*
Y478000D01*
X678250D01*
Y462472D01*
X680432Y462643D01*
X682805Y463213D01*
X685059Y464147D01*
X687139Y465421D01*
X688994Y467006D01*
X690579Y468861D01*
X691853Y470941D01*
X692787Y473195D01*
X693000Y474083D01*
X693500Y474024D01*
Y123976D01*
X693000Y123917D01*
X692787Y124805D01*
X691853Y127059D01*
X690579Y129139D01*
X688994Y130994D01*
X687139Y132579D01*
X685059Y133853D01*
X682805Y134787D01*
X680432Y135356D01*
X678250Y135528D01*
Y120000D01*
X678000D01*
Y119750D01*
X662472D01*
X662643Y117568D01*
X663213Y115195D01*
X664147Y112941D01*
X665421Y110861D01*
X667006Y109006D01*
X668861Y107422D01*
X670941Y106147D01*
X673195Y105213D01*
X674910Y104801D01*
X674851Y104301D01*
X323149D01*
X323090Y104801D01*
X324805Y105213D01*
X327059Y106147D01*
X329139Y107422D01*
X330994Y109006D01*
X332578Y110861D01*
X333853Y112941D01*
X334787Y115195D01*
X335356Y117568D01*
X335528Y119750D01*
X320000D01*
Y120000D01*
X319750D01*
Y135528D01*
X317568Y135356D01*
X315195Y134787D01*
X312941Y133853D01*
X310861Y132579D01*
X309006Y130994D01*
X307421Y129139D01*
X306147Y127059D01*
X305213Y124805D01*
X304801Y123090D01*
X304301Y123149D01*
Y474851D01*
X304801Y474910D01*
X305213Y473195D01*
X306147Y470941D01*
X307421Y468861D01*
X309006Y467006D01*
X310861Y465421D01*
X312941Y464147D01*
X315195Y463213D01*
X317568Y462643D01*
X319750Y462472D01*
Y478000D01*
X320000D01*
Y478250D01*
X335528D01*
X335356Y480432D01*
X334787Y482805D01*
X333853Y485059D01*
X332578Y487139D01*
X330994Y488994D01*
X329139Y490579D01*
X327059Y491853D01*
X324805Y492787D01*
X323090Y493199D01*
X323149Y493699D01*
X674851D01*
X674910Y493199D01*
D02*
G37*
%LPC*%
G36*
X590000Y482530D02*
X589086Y482410D01*
X588235Y482057D01*
X587504Y481496D01*
X586943Y480765D01*
X586590Y479914D01*
X586470Y479000D01*
X586590Y478086D01*
X586943Y477235D01*
X587504Y476504D01*
X588235Y475943D01*
X589086Y475590D01*
X590000Y475470D01*
X590914Y475590D01*
X591765Y475943D01*
X592496Y476504D01*
X593057Y477235D01*
X593410Y478086D01*
X593530Y479000D01*
X593410Y479914D01*
X593057Y480765D01*
X592496Y481496D01*
X591765Y482057D01*
X590914Y482410D01*
X590000Y482530D01*
D02*
G37*
G36*
X414370Y467717D02*
X409630D01*
Y466264D01*
X406370D01*
Y467717D01*
X401630D01*
Y466264D01*
X396346D01*
X395995Y466194D01*
X395698Y465995D01*
X390253Y460551D01*
X389824Y460808D01*
X389892Y461030D01*
X389938Y461500D01*
X383500D01*
Y455062D01*
X383970Y455108D01*
X384192Y455176D01*
X384449Y454747D01*
X379620Y449918D01*
X373922D01*
X373871Y450305D01*
X373368Y451522D01*
X372566Y452566D01*
X371522Y453368D01*
X370305Y453871D01*
X369000Y454043D01*
X367695Y453871D01*
X366478Y453368D01*
X365434Y452566D01*
X364633Y451522D01*
X364129Y450305D01*
X364078Y449918D01*
X325437D01*
Y453437D01*
X316563D01*
Y444563D01*
X325437D01*
Y448082D01*
X364078D01*
X364129Y447695D01*
X364633Y446478D01*
X365434Y445434D01*
X366478Y444632D01*
X367695Y444129D01*
X369000Y443957D01*
X370305Y444129D01*
X371522Y444632D01*
X372566Y445434D01*
X373368Y446478D01*
X373871Y447695D01*
X373922Y448082D01*
X380000D01*
X380351Y448152D01*
X380649Y448351D01*
X396727Y464429D01*
X401630D01*
Y462976D01*
X401758D01*
X401884Y462787D01*
Y461213D01*
X401758Y461024D01*
X401630D01*
Y456284D01*
X403082D01*
Y453717D01*
X401630D01*
Y448976D01*
X401758D01*
X401884Y448787D01*
Y447213D01*
X401758Y447024D01*
X401630D01*
Y442283D01*
X403082D01*
Y439716D01*
X401630D01*
Y434976D01*
X401758D01*
X401884Y434787D01*
Y433213D01*
X401758Y433024D01*
X401630D01*
Y428284D01*
X403082D01*
Y425672D01*
X402630Y425370D01*
X402210Y424741D01*
X402063Y424000D01*
X402210Y423259D01*
X402630Y422630D01*
X403259Y422210D01*
X404000Y422063D01*
X404741Y422210D01*
X405370Y422630D01*
X405790Y423259D01*
X405937Y424000D01*
X405790Y424741D01*
X405370Y425370D01*
X404918Y425672D01*
Y428284D01*
X406370D01*
Y429736D01*
X409630D01*
Y428284D01*
X414370D01*
Y433024D01*
X414242D01*
X414116Y433213D01*
Y434787D01*
X414242Y434976D01*
X414370D01*
Y437097D01*
X412000D01*
X409630D01*
Y434976D01*
X409758D01*
X409884Y434787D01*
Y433213D01*
X409758Y433024D01*
X409630D01*
Y431571D01*
X406370D01*
Y433024D01*
X406242D01*
X406116Y433213D01*
Y434787D01*
X406242Y434976D01*
X406370D01*
Y439716D01*
X404918D01*
Y442283D01*
X406370D01*
Y443736D01*
X409630D01*
Y442283D01*
X414370D01*
Y443736D01*
X416966D01*
X418082Y442620D01*
Y412000D01*
X418152Y411649D01*
X418351Y411351D01*
X421351Y408351D01*
X421649Y408152D01*
X422000Y408082D01*
X425190D01*
X425386Y407788D01*
X425943Y407416D01*
X426598Y407286D01*
X429945D01*
X430601Y407416D01*
X431157Y407788D01*
X431528Y408344D01*
X431659Y409000D01*
X431528Y409656D01*
X431157Y410212D01*
X430601Y410584D01*
X429945Y410714D01*
X426598D01*
X425943Y410584D01*
X425386Y410212D01*
X425190Y409918D01*
X422380D01*
X419918Y412380D01*
Y443000D01*
X419848Y443351D01*
X419649Y443649D01*
X417995Y445302D01*
X417698Y445501D01*
X417346Y445571D01*
X414370D01*
Y447024D01*
X414242D01*
X414116Y447213D01*
Y448787D01*
X414242Y448976D01*
X414370D01*
Y451096D01*
X412000D01*
X409630D01*
Y448976D01*
X409758D01*
X409884Y448787D01*
Y447213D01*
X409758Y447024D01*
X409630D01*
Y445571D01*
X406370D01*
Y447024D01*
X406242D01*
X406116Y447213D01*
Y448787D01*
X406242Y448976D01*
X406370D01*
Y453717D01*
X404918D01*
Y456284D01*
X405419D01*
X407351Y454351D01*
X407649Y454152D01*
X408000Y454082D01*
X409306D01*
X409630Y453717D01*
Y451596D01*
X412000D01*
X414370D01*
Y453717D01*
X414694Y454082D01*
X418620D01*
X421082Y451620D01*
Y416000D01*
X421152Y415649D01*
X421351Y415351D01*
X423351Y413351D01*
X423649Y413152D01*
X424000Y413082D01*
X425190D01*
X425386Y412788D01*
X425943Y412416D01*
X426598Y412286D01*
X429945D01*
X430601Y412416D01*
X431157Y412788D01*
X431528Y413344D01*
X431659Y414000D01*
X431528Y414656D01*
X431157Y415212D01*
X430601Y415584D01*
X429945Y415714D01*
X426598D01*
X425943Y415584D01*
X425386Y415212D01*
X425190Y414918D01*
X424380D01*
X422918Y416380D01*
Y452000D01*
X422848Y452351D01*
X422649Y452649D01*
X419649Y455649D01*
X419351Y455848D01*
X419000Y455918D01*
X414694D01*
X414370Y456284D01*
Y458403D01*
X412000D01*
X409630D01*
Y456284D01*
X409306Y455918D01*
X408380D01*
X406370Y457928D01*
Y461024D01*
X406242D01*
X406116Y461213D01*
Y462787D01*
X406242Y462976D01*
X406370D01*
Y464429D01*
X409630D01*
Y462976D01*
X409758D01*
X409884Y462787D01*
Y461213D01*
X409758Y461024D01*
X409630D01*
Y458904D01*
X412000D01*
X414370D01*
Y461024D01*
X414242D01*
X414116Y461213D01*
Y462495D01*
X414616Y462723D01*
X417398Y460307D01*
X417526Y460234D01*
X417649Y460152D01*
X417681Y460146D01*
X417709Y460130D01*
X417856Y460111D01*
X418000Y460082D01*
X433620D01*
X438082Y455620D01*
Y422672D01*
X437630Y422370D01*
X437210Y421741D01*
X437063Y421000D01*
X437210Y420259D01*
X437630Y419630D01*
X438259Y419210D01*
X439000Y419063D01*
X439741Y419210D01*
X440370Y419630D01*
X440790Y420259D01*
X440937Y421000D01*
X440790Y421741D01*
X440370Y422370D01*
X439918Y422672D01*
Y456000D01*
X439848Y456351D01*
X439649Y456649D01*
X434649Y461649D01*
X434351Y461848D01*
X434000Y461918D01*
X418343D01*
X414370Y465367D01*
Y467717D01*
D02*
G37*
G36*
X496500Y469938D02*
Y463500D01*
X502938D01*
X502891Y463970D01*
X502463Y465384D01*
X501766Y466687D01*
X500829Y467829D01*
X499687Y468766D01*
X498384Y469463D01*
X496970Y469892D01*
X496500Y469938D01*
D02*
G37*
G36*
X523500D02*
Y463500D01*
X529938D01*
X529891Y463970D01*
X529463Y465384D01*
X528766Y466687D01*
X527829Y467829D01*
X526687Y468766D01*
X525384Y469463D01*
X523970Y469892D01*
X523500Y469938D01*
D02*
G37*
G36*
X494500D02*
X494030Y469892D01*
X492616Y469463D01*
X491313Y468766D01*
X490171Y467829D01*
X489234Y466687D01*
X488537Y465384D01*
X488108Y463970D01*
X488062Y463500D01*
X494500D01*
Y469938D01*
D02*
G37*
G36*
X521500D02*
X521030Y469892D01*
X519616Y469463D01*
X518313Y468766D01*
X517171Y467829D01*
X516234Y466687D01*
X515537Y465384D01*
X515108Y463970D01*
X515062Y463500D01*
X521500D01*
Y469938D01*
D02*
G37*
G36*
X335528Y477750D02*
X320250D01*
Y462472D01*
X322432Y462643D01*
X324805Y463213D01*
X327059Y464147D01*
X329139Y465421D01*
X330994Y467006D01*
X332578Y468861D01*
X333853Y470941D01*
X334787Y473195D01*
X335356Y475568D01*
X335528Y477750D01*
D02*
G37*
G36*
X677750D02*
X662472D01*
X662643Y475568D01*
X663213Y473195D01*
X664147Y470941D01*
X665421Y468861D01*
X667006Y467006D01*
X668861Y465421D01*
X670941Y464147D01*
X673195Y463213D01*
X675568Y462643D01*
X677750Y462472D01*
Y477750D01*
D02*
G37*
G36*
X590000Y468530D02*
X589086Y468410D01*
X588235Y468057D01*
X587504Y467496D01*
X586943Y466765D01*
X586590Y465914D01*
X586470Y465000D01*
X586590Y464086D01*
X586943Y463235D01*
X587504Y462504D01*
X588235Y461943D01*
X589086Y461590D01*
X590000Y461470D01*
X590914Y461590D01*
X591765Y461943D01*
X592496Y462504D01*
X593057Y463235D01*
X593410Y464086D01*
X593530Y465000D01*
X593410Y465914D01*
X593057Y466765D01*
X592496Y467496D01*
X591765Y468057D01*
X590914Y468410D01*
X590000Y468530D01*
D02*
G37*
G36*
X529938Y461500D02*
X523500D01*
Y455062D01*
X523970Y455108D01*
X525384Y455537D01*
X526687Y456234D01*
X527829Y457171D01*
X528766Y458313D01*
X529463Y459616D01*
X529891Y461030D01*
X529938Y461500D01*
D02*
G37*
G36*
X502938D02*
X496500D01*
Y455062D01*
X496970Y455108D01*
X498384Y455537D01*
X499687Y456234D01*
X500829Y457171D01*
X501766Y458313D01*
X502463Y459616D01*
X502891Y461030D01*
X502938Y461500D01*
D02*
G37*
G36*
X381500D02*
X375062D01*
X375109Y461030D01*
X375537Y459616D01*
X376234Y458313D01*
X377171Y457171D01*
X378313Y456234D01*
X379616Y455537D01*
X381030Y455108D01*
X381500Y455062D01*
Y461500D01*
D02*
G37*
G36*
X362938D02*
X356500D01*
Y455062D01*
X356970Y455108D01*
X358384Y455537D01*
X359687Y456234D01*
X360829Y457171D01*
X361766Y458313D01*
X362463Y459616D01*
X362892Y461030D01*
X362938Y461500D01*
D02*
G37*
G36*
X354500D02*
X348062D01*
X348109Y461030D01*
X348537Y459616D01*
X349234Y458313D01*
X350171Y457171D01*
X351313Y456234D01*
X352616Y455537D01*
X354030Y455108D01*
X354500Y455062D01*
Y461500D01*
D02*
G37*
G36*
X521500D02*
X515062D01*
X515108Y461030D01*
X515537Y459616D01*
X516234Y458313D01*
X517171Y457171D01*
X518313Y456234D01*
X519616Y455537D01*
X521030Y455108D01*
X521500Y455062D01*
Y461500D01*
D02*
G37*
G36*
X418000Y470918D02*
X345000Y470918D01*
X344649Y470848D01*
X344351Y470649D01*
X334620Y460918D01*
X320000D01*
X319649Y460848D01*
X319351Y460649D01*
X314351Y455649D01*
X314152Y455351D01*
X314082Y455000D01*
Y435315D01*
X314152Y434964D01*
X314351Y434666D01*
X317272Y431745D01*
X317124Y431553D01*
X316677Y430473D01*
X316525Y429315D01*
X316677Y428157D01*
X317124Y427077D01*
X317835Y426151D01*
X318762Y425439D01*
X319842Y424992D01*
X321000Y424840D01*
X322158Y424992D01*
X323238Y425439D01*
X324165Y426151D01*
X324876Y427077D01*
X325323Y428157D01*
X325475Y429315D01*
X325323Y430473D01*
X324876Y431553D01*
X324165Y432479D01*
X323238Y433191D01*
X322158Y433638D01*
X321000Y433790D01*
X319842Y433638D01*
X318762Y433191D01*
X318570Y433043D01*
X315918Y435695D01*
Y454620D01*
X320380Y459082D01*
X335000D01*
X335351Y459152D01*
X335649Y459351D01*
X345380Y469082D01*
X350910D01*
X351089Y468582D01*
X350171Y467829D01*
X349234Y466687D01*
X348537Y465384D01*
X348109Y463970D01*
X348062Y463500D01*
X362938D01*
X362892Y463970D01*
X362463Y465384D01*
X361766Y466687D01*
X360829Y467829D01*
X359911Y468582D01*
X360090Y469082D01*
X377910D01*
X378089Y468582D01*
X377171Y467829D01*
X376234Y466687D01*
X375537Y465384D01*
X375109Y463970D01*
X375062Y463500D01*
X389938D01*
X389892Y463970D01*
X389463Y465384D01*
X388766Y466687D01*
X387829Y467829D01*
X386911Y468582D01*
X387090Y469082D01*
X417620D01*
X422005Y464698D01*
X422302Y464499D01*
X422653Y464429D01*
X463630D01*
Y462976D01*
X463758D01*
X463884Y462787D01*
Y461213D01*
X463758Y461024D01*
X463630D01*
Y458904D01*
X466000D01*
X468370D01*
Y461024D01*
X468242D01*
X468116Y461213D01*
Y462787D01*
X468242Y462976D01*
X468370D01*
Y464429D01*
X471630D01*
Y462976D01*
X471758D01*
X471884Y462787D01*
Y461213D01*
X471758Y461024D01*
X471630D01*
Y457928D01*
X469620Y455918D01*
X468694D01*
X468370Y456284D01*
Y458403D01*
X466000D01*
X463630D01*
Y456284D01*
X463306Y455918D01*
X458000D01*
X457649Y455848D01*
X457351Y455649D01*
X454351Y452649D01*
X454152Y452351D01*
X454082Y452000D01*
Y416380D01*
X452887Y415185D01*
X452614Y415212D01*
X452058Y415584D01*
X451402Y415714D01*
X448055D01*
X447399Y415584D01*
X446843Y415212D01*
X446472Y414656D01*
X446341Y414000D01*
X446472Y413344D01*
X446843Y412788D01*
X447399Y412416D01*
X448055Y412286D01*
X451402D01*
X452058Y412416D01*
X452614Y412788D01*
X452859Y413155D01*
X453072D01*
X453424Y413225D01*
X453721Y413423D01*
X455649Y415351D01*
X455848Y415649D01*
X455918Y416000D01*
Y451620D01*
X458380Y454082D01*
X463306D01*
X463630Y453717D01*
Y451596D01*
X466000D01*
X468370D01*
Y453717D01*
X468694Y454082D01*
X470000D01*
X470351Y454152D01*
X470649Y454351D01*
X472581Y456284D01*
X473082D01*
Y453717D01*
X471630D01*
Y448976D01*
X471758D01*
X471884Y448787D01*
Y447213D01*
X471758Y447024D01*
X471630D01*
Y445571D01*
X468370D01*
Y447024D01*
X468242D01*
X468116Y447213D01*
Y448787D01*
X468242Y448976D01*
X468370D01*
Y451096D01*
X466000D01*
X463630D01*
Y448976D01*
X463758D01*
X463884Y448787D01*
Y447213D01*
X463758Y447024D01*
X463630D01*
Y445918D01*
X460000D01*
X459649Y445848D01*
X459351Y445649D01*
X457351Y443649D01*
X457152Y443351D01*
X457082Y443000D01*
Y412380D01*
X454620Y409918D01*
X452810D01*
X452614Y410212D01*
X452058Y410584D01*
X451402Y410714D01*
X448055D01*
X447399Y410584D01*
X446843Y410212D01*
X446472Y409656D01*
X446341Y409000D01*
X446472Y408344D01*
X446843Y407788D01*
X447399Y407416D01*
X448055Y407286D01*
X451402D01*
X452058Y407416D01*
X452614Y407788D01*
X452810Y408082D01*
X455000D01*
X455351Y408152D01*
X455649Y408351D01*
X458649Y411351D01*
X458848Y411649D01*
X458918Y412000D01*
Y442620D01*
X460380Y444082D01*
X463630D01*
Y442283D01*
X468370D01*
Y443736D01*
X471630D01*
Y442283D01*
X473082D01*
Y439716D01*
X471630D01*
Y434976D01*
X471758D01*
X471884Y434787D01*
Y433213D01*
X471758Y433024D01*
X471630D01*
Y431571D01*
X468370D01*
Y433024D01*
X468242D01*
X468116Y433213D01*
Y434787D01*
X468242Y434976D01*
X468370D01*
Y437097D01*
X466000D01*
X463630D01*
Y434976D01*
X463758D01*
X463884Y434787D01*
Y433213D01*
X463758Y433024D01*
X463630D01*
Y428284D01*
X468370D01*
Y429736D01*
X471630D01*
Y428284D01*
X473082D01*
Y425672D01*
X472630Y425370D01*
X472210Y424741D01*
X472063Y424000D01*
X472210Y423259D01*
X472429Y422932D01*
X472068Y422571D01*
X471741Y422790D01*
X471000Y422937D01*
X470259Y422790D01*
X469630Y422370D01*
X469210Y421741D01*
X469063Y421000D01*
X469210Y420259D01*
X469429Y419932D01*
X469068Y419571D01*
X468741Y419790D01*
X468000Y419937D01*
X467259Y419790D01*
X466630Y419370D01*
X466210Y418741D01*
X466063Y418000D01*
X466210Y417259D01*
X466630Y416630D01*
X467184Y416260D01*
Y409338D01*
X461348Y403501D01*
X460887Y403748D01*
X460937Y404000D01*
X460790Y404741D01*
X460370Y405370D01*
X459741Y405790D01*
X459000Y405937D01*
X458259Y405790D01*
X457630Y405370D01*
X457328Y404918D01*
X452810D01*
X452614Y405212D01*
X452058Y405584D01*
X451402Y405714D01*
X448055D01*
X447399Y405584D01*
X446843Y405212D01*
X446472Y404656D01*
X446341Y404000D01*
X446472Y403344D01*
X446843Y402788D01*
X447399Y402416D01*
X448055Y402286D01*
X451402D01*
X452058Y402416D01*
X452614Y402788D01*
X452810Y403082D01*
X457328D01*
X457630Y402630D01*
X458259Y402210D01*
X459000Y402063D01*
X459060Y402075D01*
X459522Y401657D01*
X459496Y401389D01*
X459472Y401370D01*
X458284D01*
Y399918D01*
X452810D01*
X452614Y400212D01*
X452058Y400584D01*
X451402Y400714D01*
X448055D01*
X447399Y400584D01*
X446843Y400212D01*
X446472Y399656D01*
X446341Y399000D01*
X446472Y398344D01*
X446843Y397788D01*
X447399Y397416D01*
X448055Y397286D01*
X451402D01*
X452058Y397416D01*
X452614Y397788D01*
X452810Y398082D01*
X458284D01*
Y396630D01*
X463024D01*
Y396758D01*
X463213Y396884D01*
X464787D01*
X464976Y396758D01*
Y396630D01*
X467097D01*
Y399000D01*
Y401370D01*
X464976D01*
Y401242D01*
X464787Y401116D01*
X463213D01*
X463024Y401242D01*
Y401370D01*
X462177D01*
X461986Y401832D01*
X468577Y408423D01*
X468577Y408423D01*
X468754Y408688D01*
X468816Y409000D01*
Y416260D01*
X469370Y416630D01*
X469790Y417259D01*
X469937Y418000D01*
X469790Y418741D01*
X469571Y419068D01*
X469932Y419429D01*
X470259Y419210D01*
X471000Y419063D01*
X471533Y419169D01*
X489851Y400851D01*
X490149Y400652D01*
X490500Y400582D01*
X506190D01*
X506386Y400288D01*
X506943Y399916D01*
X507598Y399786D01*
X510945D01*
X511601Y399916D01*
X512157Y400288D01*
X512528Y400844D01*
X512659Y401500D01*
X512528Y402156D01*
X512157Y402712D01*
X511601Y403084D01*
X510945Y403214D01*
X507598D01*
X506943Y403084D01*
X506386Y402712D01*
X506190Y402418D01*
X490880D01*
X472831Y420467D01*
X472937Y421000D01*
X472790Y421741D01*
X472571Y422068D01*
X472932Y422429D01*
X473259Y422210D01*
X474000Y422063D01*
X474741Y422210D01*
X475370Y422630D01*
X475790Y423259D01*
X475937Y424000D01*
X475790Y424741D01*
X475370Y425370D01*
X474918Y425672D01*
Y428284D01*
X476370D01*
Y433024D01*
X476242D01*
X476116Y433213D01*
Y434787D01*
X476242Y434976D01*
X476370D01*
Y439716D01*
X474918D01*
Y442283D01*
X476370D01*
Y447024D01*
X476242D01*
X476116Y447213D01*
Y448787D01*
X476242Y448976D01*
X476370D01*
Y453717D01*
X474918D01*
Y456284D01*
X476370D01*
Y461024D01*
X476242D01*
X476116Y461213D01*
Y462787D01*
X476242Y462976D01*
X476370D01*
Y464082D01*
X480620D01*
X496351Y448351D01*
X496649Y448152D01*
X497000Y448082D01*
X504078D01*
X504129Y447695D01*
X504633Y446478D01*
X505434Y445434D01*
X506478Y444632D01*
X507695Y444129D01*
X508354Y444042D01*
Y408214D01*
X507598D01*
X506943Y408084D01*
X506386Y407712D01*
X506015Y407156D01*
X505884Y406500D01*
X506015Y405844D01*
X506386Y405288D01*
X506943Y404916D01*
X507598Y404786D01*
X510945D01*
X511601Y404916D01*
X512157Y405288D01*
X512528Y405844D01*
X512659Y406500D01*
X512528Y407156D01*
X512157Y407712D01*
X511601Y408084D01*
X510945Y408214D01*
X510189D01*
Y444113D01*
X510305Y444129D01*
X511522Y444632D01*
X512566Y445434D01*
X513368Y446478D01*
X513871Y447695D01*
X514043Y449000D01*
X513871Y450305D01*
X513368Y451522D01*
X512566Y452566D01*
X511522Y453368D01*
X510305Y453871D01*
X509000Y454043D01*
X507695Y453871D01*
X506478Y453368D01*
X505434Y452566D01*
X504633Y451522D01*
X504129Y450305D01*
X504078Y449918D01*
X497380D01*
X491996Y455302D01*
X492297Y455708D01*
X492616Y455537D01*
X494030Y455108D01*
X494500Y455062D01*
Y461500D01*
X488062D01*
X488108Y461030D01*
X488537Y459616D01*
X488708Y459297D01*
X488302Y458996D01*
X481649Y465649D01*
X481351Y465848D01*
X481000Y465918D01*
X476370D01*
Y467717D01*
X471630D01*
Y466264D01*
X468370D01*
Y467717D01*
X463630D01*
Y466264D01*
X423034D01*
X418649Y470649D01*
X418351Y470848D01*
X418000Y470918D01*
D02*
G37*
G36*
X644858Y453214D02*
X639740D01*
X639084Y453084D01*
X638528Y452712D01*
X638332Y452418D01*
X635298D01*
X634741Y452790D01*
X634000Y452937D01*
X633259Y452790D01*
X632630Y452370D01*
X632210Y451741D01*
X632063Y451000D01*
X632210Y450259D01*
X632630Y449630D01*
X633259Y449210D01*
X634000Y449063D01*
X634741Y449210D01*
X635370Y449630D01*
X635790Y450259D01*
X635854Y450582D01*
X638332D01*
X638528Y450288D01*
X639084Y449916D01*
X639740Y449786D01*
X644858D01*
X645514Y449916D01*
X646070Y450288D01*
X646442Y450844D01*
X646572Y451500D01*
X646442Y452156D01*
X646070Y452712D01*
X645514Y453084D01*
X644858Y453214D01*
D02*
G37*
G36*
X682260D02*
X679951D01*
Y451750D01*
X683924D01*
X683843Y452156D01*
X683472Y452712D01*
X682916Y453084D01*
X682260Y453214D01*
D02*
G37*
G36*
X679451D02*
X677142D01*
X676486Y453084D01*
X675930Y452712D01*
X675558Y452156D01*
X675477Y451750D01*
X679451D01*
Y453214D01*
D02*
G37*
G36*
X683924Y451250D02*
X679951D01*
Y449786D01*
X682260D01*
X682916Y449916D01*
X683472Y450288D01*
X683843Y450844D01*
X683924Y451250D01*
D02*
G37*
G36*
X679451D02*
X675477D01*
X675558Y450844D01*
X675930Y450288D01*
X676486Y449916D01*
X677142Y449786D01*
X679451D01*
Y451250D01*
D02*
G37*
G36*
X590000Y454530D02*
X589086Y454410D01*
X588235Y454057D01*
X587504Y453496D01*
X586943Y452765D01*
X586590Y451914D01*
X586470Y451000D01*
X586590Y450086D01*
X586943Y449235D01*
X587504Y448504D01*
X588235Y447943D01*
X589086Y447590D01*
X590000Y447470D01*
X590914Y447590D01*
X591765Y447943D01*
X592496Y448504D01*
X593057Y449235D01*
X593410Y450086D01*
X593530Y451000D01*
X593410Y451914D01*
X593057Y452765D01*
X592496Y453496D01*
X591765Y454057D01*
X590914Y454410D01*
X590000Y454530D01*
D02*
G37*
G36*
X682260Y448214D02*
X677142D01*
X676486Y448084D01*
X675930Y447712D01*
X675558Y447156D01*
X675428Y446500D01*
X675558Y445844D01*
X675930Y445288D01*
X676486Y444916D01*
X677142Y444786D01*
X682260D01*
X682916Y444916D01*
X683472Y445288D01*
X683843Y445844D01*
X683974Y446500D01*
X683843Y447156D01*
X683472Y447712D01*
X682916Y448084D01*
X682260Y448214D01*
D02*
G37*
G36*
X644858D02*
X639740D01*
X639084Y448084D01*
X638528Y447712D01*
X638157Y447156D01*
X638026Y446500D01*
X638157Y445844D01*
X638528Y445288D01*
X639084Y444916D01*
X639740Y444786D01*
X644858D01*
X645514Y444916D01*
X646070Y445288D01*
X646442Y445844D01*
X646572Y446500D01*
X646442Y447156D01*
X646070Y447712D01*
X645514Y448084D01*
X644858Y448214D01*
D02*
G37*
G36*
X682260Y443214D02*
X677142D01*
X676486Y443084D01*
X675930Y442712D01*
X675558Y442156D01*
X675428Y441500D01*
X675558Y440844D01*
X675930Y440288D01*
X676486Y439916D01*
X677142Y439786D01*
X682260D01*
X682916Y439916D01*
X683472Y440288D01*
X683843Y440844D01*
X683974Y441500D01*
X683843Y442156D01*
X683472Y442712D01*
X682916Y443084D01*
X682260Y443214D01*
D02*
G37*
G36*
X468370Y439716D02*
X466250D01*
Y437597D01*
X468370D01*
Y439716D01*
D02*
G37*
G36*
X414370D02*
X412250D01*
Y437597D01*
X414370D01*
Y439716D01*
D02*
G37*
G36*
X411750D02*
X409630D01*
Y437597D01*
X411750D01*
Y439716D01*
D02*
G37*
G36*
X465750D02*
X463630D01*
Y437597D01*
X465750D01*
Y439716D01*
D02*
G37*
G36*
X600000Y482530D02*
X599086Y482410D01*
X598235Y482057D01*
X597504Y481496D01*
X596943Y480765D01*
X596590Y479914D01*
X596470Y479000D01*
X596590Y478086D01*
X596943Y477235D01*
X597504Y476504D01*
X598235Y475943D01*
X599086Y475590D01*
X599184Y475577D01*
Y475000D01*
X599184Y475000D01*
X599246Y474688D01*
X599423Y474423D01*
X635423Y438423D01*
X635423Y438423D01*
X635688Y438246D01*
X636000Y438184D01*
X636000Y438184D01*
X638335D01*
X638478Y437836D01*
X638510Y437684D01*
X638157Y437156D01*
X638101Y436878D01*
X635672D01*
X635370Y437331D01*
X634741Y437751D01*
X634000Y437898D01*
X633259Y437751D01*
X632630Y437331D01*
X632210Y436702D01*
X632063Y435961D01*
X632210Y435219D01*
X632373Y434976D01*
X632105Y434477D01*
X627677D01*
X601030Y461124D01*
X601027Y461135D01*
X601164Y461694D01*
X601765Y461943D01*
X602496Y462504D01*
X603057Y463235D01*
X603410Y464086D01*
X603530Y465000D01*
X603410Y465914D01*
X603057Y466765D01*
X602496Y467496D01*
X601765Y468057D01*
X600914Y468410D01*
X600000Y468530D01*
X599086Y468410D01*
X598235Y468057D01*
X597504Y467496D01*
X596943Y466765D01*
X596590Y465914D01*
X596470Y465000D01*
X596590Y464086D01*
X596943Y463235D01*
X597504Y462504D01*
X598235Y461943D01*
X599086Y461590D01*
X599184Y461577D01*
Y461000D01*
X599184Y461000D01*
X599246Y460688D01*
X599423Y460423D01*
X626762Y433084D01*
X627027Y432907D01*
X627339Y432845D01*
X627339Y432845D01*
X632442D01*
X632585Y432484D01*
X632614Y432345D01*
X632210Y431741D01*
X632063Y431000D01*
X632210Y430259D01*
X632373Y430016D01*
X632105Y429516D01*
X622638D01*
X602997Y449157D01*
X603057Y449235D01*
X603410Y450086D01*
X603530Y451000D01*
X603410Y451914D01*
X603057Y452765D01*
X602496Y453496D01*
X601765Y454057D01*
X600914Y454410D01*
X600000Y454530D01*
X599086Y454410D01*
X598235Y454057D01*
X597504Y453496D01*
X596943Y452765D01*
X596590Y451914D01*
X596470Y451000D01*
X596590Y450086D01*
X596943Y449235D01*
X597504Y448504D01*
X598235Y447943D01*
X599086Y447590D01*
X600000Y447470D01*
X600914Y447590D01*
X601765Y447943D01*
X601844Y448003D01*
X621723Y428123D01*
X621723Y428123D01*
X621988Y427946D01*
X622300Y427884D01*
X632500D01*
X632652Y427384D01*
X632630Y427370D01*
X632210Y426741D01*
X632063Y426000D01*
X632210Y425259D01*
X632630Y424630D01*
X633259Y424210D01*
X634000Y424063D01*
X634741Y424210D01*
X635370Y424630D01*
X635672Y425082D01*
X638836D01*
X639084Y424916D01*
X639740Y424786D01*
X644858D01*
X645514Y424916D01*
X646070Y425288D01*
X646442Y425844D01*
X646572Y426500D01*
X646442Y427156D01*
X646289Y427384D01*
X646557Y427884D01*
X669962D01*
X672423Y425423D01*
X672423Y425423D01*
X672688Y425246D01*
X673000Y425184D01*
X673000Y425184D01*
X676085D01*
X676486Y424916D01*
X677142Y424786D01*
X682260D01*
X682916Y424916D01*
X683472Y425288D01*
X683843Y425844D01*
X683974Y426500D01*
X683843Y427156D01*
X683472Y427712D01*
X682916Y428084D01*
X682260Y428214D01*
X677142D01*
X676486Y428084D01*
X675930Y427712D01*
X675558Y427156D01*
X675491Y426816D01*
X673338D01*
X670877Y429277D01*
X670612Y429454D01*
X670300Y429516D01*
X670300Y429516D01*
X645814D01*
X645663Y430016D01*
X646070Y430288D01*
X646442Y430844D01*
X646572Y431500D01*
X646442Y432156D01*
X646315Y432345D01*
X646583Y432845D01*
X670001D01*
X672423Y430423D01*
X672423Y430423D01*
X672688Y430246D01*
X673000Y430184D01*
X673000Y430184D01*
X676085D01*
X676486Y429916D01*
X677142Y429786D01*
X682260D01*
X682916Y429916D01*
X683472Y430288D01*
X683843Y430844D01*
X683974Y431500D01*
X683843Y432156D01*
X683472Y432712D01*
X682916Y433084D01*
X682260Y433214D01*
X677142D01*
X676486Y433084D01*
X675930Y432712D01*
X675558Y432156D01*
X675491Y431816D01*
X673338D01*
X670916Y434238D01*
X670651Y434414D01*
X670339Y434477D01*
X670339Y434477D01*
X645687D01*
X645662Y434542D01*
X645604Y434976D01*
X646070Y435288D01*
X646442Y435844D01*
X646572Y436500D01*
X646442Y437156D01*
X646089Y437684D01*
X646121Y437836D01*
X646263Y438184D01*
X669662D01*
X672423Y435423D01*
X672688Y435246D01*
X673000Y435184D01*
X673000Y435184D01*
X676085D01*
X676486Y434916D01*
X677142Y434786D01*
X682260D01*
X682916Y434916D01*
X683472Y435288D01*
X683843Y435844D01*
X683974Y436500D01*
X683843Y437156D01*
X683472Y437712D01*
X682916Y438084D01*
X682260Y438214D01*
X677142D01*
X676486Y438084D01*
X675930Y437712D01*
X675558Y437156D01*
X675491Y436816D01*
X673338D01*
X670577Y439577D01*
X670312Y439754D01*
X670000Y439816D01*
X670000Y439816D01*
X646263D01*
X646121Y440164D01*
X646089Y440316D01*
X646442Y440844D01*
X646572Y441500D01*
X646442Y442156D01*
X646070Y442712D01*
X645514Y443084D01*
X644858Y443214D01*
X639740D01*
X639084Y443084D01*
X638528Y442712D01*
X638157Y442156D01*
X638026Y441500D01*
X638157Y440844D01*
X638510Y440316D01*
X638478Y440164D01*
X638335Y439816D01*
X636338D01*
X601030Y475124D01*
X601027Y475135D01*
X601164Y475694D01*
X601765Y475943D01*
X602496Y476504D01*
X603057Y477235D01*
X603410Y478086D01*
X603530Y479000D01*
X603410Y479914D01*
X603057Y480765D01*
X602496Y481496D01*
X601765Y482057D01*
X600914Y482410D01*
X600000Y482530D01*
D02*
G37*
G36*
X496500Y442938D02*
Y436500D01*
X502938D01*
X502891Y436970D01*
X502463Y438384D01*
X501766Y439687D01*
X500829Y440829D01*
X499687Y441766D01*
X498384Y442463D01*
X496970Y442892D01*
X496500Y442938D01*
D02*
G37*
G36*
X523500D02*
Y436500D01*
X529938D01*
X529891Y436970D01*
X529463Y438384D01*
X528766Y439687D01*
X527829Y440829D01*
X526687Y441766D01*
X525384Y442463D01*
X523970Y442892D01*
X523500Y442938D01*
D02*
G37*
G36*
X383500D02*
Y436500D01*
X389938D01*
X389892Y436970D01*
X389463Y438384D01*
X388766Y439687D01*
X387829Y440829D01*
X386687Y441766D01*
X385384Y442463D01*
X383970Y442892D01*
X383500Y442938D01*
D02*
G37*
G36*
X381500D02*
X381030Y442892D01*
X379616Y442463D01*
X378313Y441766D01*
X377171Y440829D01*
X376234Y439687D01*
X375537Y438384D01*
X375109Y436970D01*
X375062Y436500D01*
X381500D01*
Y442938D01*
D02*
G37*
G36*
X356500D02*
Y436500D01*
X362938D01*
X362892Y436970D01*
X362463Y438384D01*
X361766Y439687D01*
X360829Y440829D01*
X359687Y441766D01*
X358384Y442463D01*
X356970Y442892D01*
X356500Y442938D01*
D02*
G37*
G36*
X354500D02*
X354030Y442892D01*
X352616Y442463D01*
X351313Y441766D01*
X350171Y440829D01*
X349234Y439687D01*
X348537Y438384D01*
X348109Y436970D01*
X348062Y436500D01*
X354500D01*
Y442938D01*
D02*
G37*
G36*
X494500D02*
X494030Y442892D01*
X492616Y442463D01*
X491313Y441766D01*
X490171Y440829D01*
X489234Y439687D01*
X488537Y438384D01*
X488108Y436970D01*
X488062Y436500D01*
X494500D01*
Y442938D01*
D02*
G37*
G36*
X521500D02*
X521030Y442892D01*
X519616Y442463D01*
X518313Y441766D01*
X517171Y440829D01*
X516234Y439687D01*
X515537Y438384D01*
X515108Y436970D01*
X515062Y436500D01*
X521500D01*
Y442938D01*
D02*
G37*
G36*
X583500Y440500D02*
X576500D01*
Y433500D01*
X583500D01*
Y440500D01*
D02*
G37*
G36*
X590000Y440530D02*
X589086Y440410D01*
X588235Y440057D01*
X587504Y439496D01*
X586943Y438765D01*
X586590Y437914D01*
X586470Y437000D01*
X586590Y436086D01*
X586943Y435235D01*
X587504Y434504D01*
X588235Y433943D01*
X589086Y433590D01*
X590000Y433470D01*
X590914Y433590D01*
X591765Y433943D01*
X592496Y434504D01*
X593057Y435235D01*
X593410Y436086D01*
X593530Y437000D01*
X593410Y437914D01*
X593057Y438765D01*
X592496Y439496D01*
X591765Y440057D01*
X590914Y440410D01*
X590000Y440530D01*
D02*
G37*
G36*
X529938Y434500D02*
X523500D01*
Y428062D01*
X523970Y428109D01*
X525384Y428537D01*
X526687Y429234D01*
X527829Y430171D01*
X528766Y431313D01*
X529463Y432616D01*
X529891Y434030D01*
X529938Y434500D01*
D02*
G37*
G36*
X502938D02*
X496500D01*
Y428062D01*
X496970Y428109D01*
X498384Y428537D01*
X499687Y429234D01*
X500829Y430171D01*
X501766Y431313D01*
X502463Y432616D01*
X502891Y434030D01*
X502938Y434500D01*
D02*
G37*
G36*
X389938D02*
X383500D01*
Y428062D01*
X383970Y428109D01*
X385384Y428537D01*
X386687Y429234D01*
X387829Y430171D01*
X388766Y431313D01*
X389463Y432616D01*
X389892Y434030D01*
X389938Y434500D01*
D02*
G37*
G36*
X381500D02*
X375062D01*
X375109Y434030D01*
X375537Y432616D01*
X376234Y431313D01*
X377171Y430171D01*
X378313Y429234D01*
X379616Y428537D01*
X381030Y428109D01*
X381500Y428062D01*
Y434500D01*
D02*
G37*
G36*
X362938D02*
X356500D01*
Y428062D01*
X356970Y428109D01*
X358384Y428537D01*
X359687Y429234D01*
X360829Y430171D01*
X361766Y431313D01*
X362463Y432616D01*
X362892Y434030D01*
X362938Y434500D01*
D02*
G37*
G36*
X354500D02*
X348062D01*
X348109Y434030D01*
X348537Y432616D01*
X349234Y431313D01*
X350171Y430171D01*
X351313Y429234D01*
X352616Y428537D01*
X354030Y428109D01*
X354500Y428062D01*
Y434500D01*
D02*
G37*
G36*
X521500D02*
X515062D01*
X515108Y434030D01*
X515537Y432616D01*
X516234Y431313D01*
X517171Y430171D01*
X518313Y429234D01*
X519616Y428537D01*
X521030Y428109D01*
X521500Y428062D01*
Y434500D01*
D02*
G37*
G36*
X494500D02*
X488062D01*
X488108Y434030D01*
X488537Y432616D01*
X489234Y431313D01*
X490171Y430171D01*
X491313Y429234D01*
X492616Y428537D01*
X494030Y428109D01*
X494500Y428062D01*
Y434500D01*
D02*
G37*
G36*
X644858Y423214D02*
X639740D01*
X639084Y423084D01*
X638528Y422712D01*
X638332Y422418D01*
X635370D01*
Y422717D01*
X630630D01*
Y421264D01*
X630346D01*
X629995Y421194D01*
X629698Y420995D01*
X628351Y419649D01*
X628152Y419351D01*
X628082Y419000D01*
Y409672D01*
X627630Y409370D01*
X627210Y408741D01*
X627063Y408000D01*
X627210Y407259D01*
X627630Y406630D01*
X628259Y406210D01*
X629000Y406063D01*
X629741Y406210D01*
X630370Y406630D01*
X630790Y407259D01*
X630937Y408000D01*
X630790Y408741D01*
X630370Y409370D01*
X629918Y409672D01*
Y418467D01*
X630130Y418632D01*
X630630Y418386D01*
Y417976D01*
X630758D01*
X630884Y417787D01*
Y416213D01*
X630758Y416024D01*
X630630D01*
Y411283D01*
X635370D01*
Y413736D01*
X636654D01*
X637005Y413806D01*
X637302Y414005D01*
X638563Y415265D01*
X639084Y414916D01*
X639740Y414786D01*
X644858D01*
X645514Y414916D01*
X646070Y415288D01*
X646267Y415582D01*
X651702D01*
X652259Y415210D01*
X653000Y415063D01*
X653741Y415210D01*
X654370Y415630D01*
X654790Y416259D01*
X654937Y417000D01*
X654790Y417741D01*
X654370Y418370D01*
X653741Y418790D01*
X653000Y418937D01*
X652259Y418790D01*
X651630Y418370D01*
X651210Y417741D01*
X651146Y417418D01*
X646267D01*
X646070Y417712D01*
X645514Y418084D01*
X644858Y418214D01*
X639740D01*
X639084Y418084D01*
X638528Y417712D01*
X638306Y417379D01*
X638149Y417348D01*
X637851Y417149D01*
X636273Y415571D01*
X635370D01*
Y416024D01*
X635242D01*
X635116Y416213D01*
Y417787D01*
X635242Y417976D01*
X635370D01*
Y420582D01*
X638332D01*
X638528Y420288D01*
X639084Y419916D01*
X639740Y419786D01*
X644858D01*
X645514Y419916D01*
X645762Y420082D01*
X648328D01*
X648630Y419630D01*
X649259Y419210D01*
X650000Y419063D01*
X650741Y419210D01*
X651370Y419630D01*
X651790Y420259D01*
X651937Y421000D01*
X651790Y421741D01*
X651370Y422370D01*
X650741Y422790D01*
X650000Y422937D01*
X649259Y422790D01*
X648630Y422370D01*
X648328Y421918D01*
X646489D01*
X646442Y422156D01*
X646070Y422712D01*
X645514Y423084D01*
X644858Y423214D01*
D02*
G37*
G36*
X682260D02*
X679951D01*
Y421750D01*
X683924D01*
X683843Y422156D01*
X683472Y422712D01*
X682916Y423084D01*
X682260Y423214D01*
D02*
G37*
G36*
X679451D02*
X677142D01*
X676486Y423084D01*
X675930Y422712D01*
X675558Y422156D01*
X675477Y421750D01*
X679451D01*
Y423214D01*
D02*
G37*
G36*
X690370Y423716D02*
X688250D01*
Y421596D01*
X690370D01*
Y423716D01*
D02*
G37*
G36*
X687750D02*
X685630D01*
Y421596D01*
X687750D01*
Y423716D01*
D02*
G37*
G36*
X683924Y421250D02*
X679951D01*
Y419786D01*
X682260D01*
X682916Y419916D01*
X683472Y420288D01*
X683843Y420844D01*
X683924Y421250D01*
D02*
G37*
G36*
X679451D02*
X675477D01*
X675558Y420844D01*
X675930Y420288D01*
X676486Y419916D01*
X677142Y419786D01*
X679451D01*
Y421250D01*
D02*
G37*
G36*
X583500Y426500D02*
X576500D01*
Y419500D01*
X583500D01*
Y426500D01*
D02*
G37*
G36*
X590000Y426530D02*
X589086Y426410D01*
X588235Y426057D01*
X587504Y425496D01*
X586943Y424765D01*
X586590Y423914D01*
X586470Y423000D01*
X586590Y422086D01*
X586943Y421235D01*
X587504Y420504D01*
X588235Y419943D01*
X589086Y419590D01*
X590000Y419470D01*
X590914Y419590D01*
X591765Y419943D01*
X592496Y420504D01*
X593057Y421235D01*
X593410Y422086D01*
X593530Y423000D01*
X593410Y423914D01*
X593057Y424765D01*
X592496Y425496D01*
X591765Y426057D01*
X590914Y426410D01*
X590000Y426530D01*
D02*
G37*
G36*
X410000Y418937D02*
X409259Y418790D01*
X408630Y418370D01*
X408328Y417918D01*
X398672D01*
X398370Y418370D01*
X397741Y418790D01*
X397000Y418937D01*
X396259Y418790D01*
X395630Y418370D01*
X395210Y417741D01*
X395063Y417000D01*
X395210Y416259D01*
X395630Y415630D01*
X396259Y415210D01*
X397000Y415063D01*
X397741Y415210D01*
X398370Y415630D01*
X398672Y416082D01*
X408328D01*
X408630Y415630D01*
X409259Y415210D01*
X410000Y415063D01*
X410741Y415210D01*
X411370Y415630D01*
X411790Y416259D01*
X411937Y417000D01*
X411790Y417741D01*
X411370Y418370D01*
X410741Y418790D01*
X410000Y418937D01*
D02*
G37*
G36*
X583500Y468500D02*
X576500D01*
Y462798D01*
X568351Y454649D01*
X568152Y454351D01*
X568082Y454000D01*
Y420672D01*
X567630Y420370D01*
X567210Y419741D01*
X567063Y419000D01*
X567210Y418259D01*
X567630Y417630D01*
X568259Y417210D01*
X569000Y417063D01*
X569741Y417210D01*
X570370Y417630D01*
X570790Y418259D01*
X570937Y419000D01*
X570790Y419741D01*
X570370Y420370D01*
X569918Y420672D01*
Y453620D01*
X577798Y461500D01*
X583500D01*
Y468500D01*
D02*
G37*
G36*
X690370Y421097D02*
X688000D01*
X685630D01*
Y418976D01*
X685758D01*
X685884Y418787D01*
Y417213D01*
X685758Y417024D01*
X685630D01*
Y416375D01*
X685130Y416168D01*
X684149Y417149D01*
X683851Y417348D01*
X683694Y417379D01*
X683472Y417712D01*
X682916Y418084D01*
X682260Y418214D01*
X677142D01*
X676486Y418084D01*
X675930Y417712D01*
X675558Y417156D01*
X675428Y416500D01*
X675558Y415844D01*
X675930Y415288D01*
X676486Y414916D01*
X677142Y414786D01*
X682260D01*
X682916Y414916D01*
X683437Y415265D01*
X684351Y414351D01*
X684649Y414152D01*
X685000Y414082D01*
X685630D01*
Y412284D01*
X687082D01*
Y411000D01*
X687152Y410649D01*
X687351Y410351D01*
X688169Y409533D01*
X688063Y409000D01*
X688210Y408259D01*
X688630Y407630D01*
X689259Y407210D01*
X690000Y407063D01*
X690741Y407210D01*
X691370Y407630D01*
X691790Y408259D01*
X691937Y409000D01*
X691790Y409741D01*
X691370Y410370D01*
X690741Y410790D01*
X690000Y410937D01*
X689467Y410831D01*
X688918Y411380D01*
Y412284D01*
X690370D01*
Y417024D01*
X690242D01*
X690116Y417213D01*
Y418787D01*
X690242Y418976D01*
X690370D01*
Y421097D01*
D02*
G37*
G36*
X583500Y482500D02*
X576500D01*
Y476723D01*
X576452Y476651D01*
X576382Y476300D01*
Y474680D01*
X564351Y462649D01*
X564152Y462351D01*
X564082Y462000D01*
Y417000D01*
X564152Y416649D01*
X564351Y416351D01*
X571082Y409620D01*
Y408203D01*
X570582Y408052D01*
X570370Y408370D01*
X569741Y408790D01*
X569000Y408937D01*
X568259Y408790D01*
X567630Y408370D01*
X567210Y407741D01*
X567063Y407000D01*
X567210Y406259D01*
X567630Y405630D01*
X568082Y405328D01*
Y399000D01*
X568152Y398649D01*
X568351Y398351D01*
X580582Y386120D01*
Y375500D01*
X580652Y375149D01*
X580851Y374851D01*
X590351Y365351D01*
X590649Y365152D01*
X591000Y365082D01*
X595434D01*
X595631Y364788D01*
X596187Y364416D01*
X596842Y364286D01*
X601961D01*
X602617Y364416D01*
X603173Y364788D01*
X603544Y365344D01*
X603675Y366000D01*
X603544Y366656D01*
X603173Y367212D01*
X602617Y367584D01*
X601961Y367714D01*
X596842D01*
X596187Y367584D01*
X595631Y367212D01*
X595434Y366918D01*
X591380D01*
X582418Y375880D01*
Y386500D01*
X582348Y386851D01*
X582149Y387149D01*
X569918Y399380D01*
Y405328D01*
X570370Y405630D01*
X570582Y405948D01*
X571082Y405797D01*
Y400000D01*
X571152Y399649D01*
X571351Y399351D01*
X584082Y386620D01*
Y377000D01*
X584152Y376649D01*
X584351Y376351D01*
X590351Y370351D01*
X590649Y370152D01*
X591000Y370082D01*
X595434D01*
X595631Y369788D01*
X596187Y369416D01*
X596842Y369286D01*
X601961D01*
X602617Y369416D01*
X603173Y369788D01*
X603544Y370344D01*
X603675Y371000D01*
X603544Y371656D01*
X603173Y372212D01*
X602617Y372584D01*
X601961Y372714D01*
X596842D01*
X596187Y372584D01*
X595631Y372212D01*
X595434Y371918D01*
X591380D01*
X585918Y377380D01*
Y387000D01*
X585848Y387351D01*
X585649Y387649D01*
X572918Y400380D01*
Y410000D01*
X572848Y410351D01*
X572649Y410649D01*
X565918Y417380D01*
Y461620D01*
X577949Y473651D01*
X578148Y473949D01*
X578218Y474300D01*
Y475500D01*
X583500D01*
Y482500D01*
D02*
G37*
G36*
X532402Y408214D02*
X530978D01*
Y406750D01*
X534066D01*
X533985Y407156D01*
X533614Y407712D01*
X533057Y408084D01*
X532402Y408214D01*
D02*
G37*
G36*
X530478D02*
X529055D01*
X528399Y408084D01*
X527843Y407712D01*
X527472Y407156D01*
X527391Y406750D01*
X530478D01*
Y408214D01*
D02*
G37*
G36*
X583500Y412500D02*
X576500D01*
Y405500D01*
X583500D01*
Y412500D01*
D02*
G37*
G36*
X590000Y412530D02*
X589086Y412410D01*
X588235Y412057D01*
X587504Y411496D01*
X586943Y410765D01*
X586590Y409914D01*
X586470Y409000D01*
X586590Y408086D01*
X586943Y407235D01*
X587504Y406504D01*
X588235Y405943D01*
X589086Y405590D01*
X590000Y405470D01*
X590914Y405590D01*
X591765Y405943D01*
X592496Y406504D01*
X593057Y407235D01*
X593410Y408086D01*
X593530Y409000D01*
X593410Y409914D01*
X593057Y410765D01*
X592496Y411496D01*
X591765Y412057D01*
X590914Y412410D01*
X590000Y412530D01*
D02*
G37*
G36*
X534066Y406250D02*
X530978D01*
Y404786D01*
X532402D01*
X533057Y404916D01*
X533614Y405288D01*
X533985Y405844D01*
X534066Y406250D01*
D02*
G37*
G36*
X530478D02*
X527391D01*
X527472Y405844D01*
X527843Y405288D01*
X528399Y404916D01*
X529055Y404786D01*
X530478D01*
Y406250D01*
D02*
G37*
G36*
X419000Y405937D02*
X418259Y405790D01*
X417630Y405370D01*
X417210Y404741D01*
X417063Y404000D01*
X417210Y403259D01*
X417630Y402630D01*
X418259Y402210D01*
X419000Y402063D01*
X419741Y402210D01*
X420370Y402630D01*
X420672Y403082D01*
X425190D01*
X425386Y402788D01*
X425943Y402416D01*
X426598Y402286D01*
X429945D01*
X430601Y402416D01*
X431157Y402788D01*
X431528Y403344D01*
X431659Y404000D01*
X431528Y404656D01*
X431157Y405212D01*
X430601Y405584D01*
X429945Y405714D01*
X426598D01*
X425943Y405584D01*
X425386Y405212D01*
X425190Y404918D01*
X420672D01*
X420370Y405370D01*
X419741Y405790D01*
X419000Y405937D01*
D02*
G37*
G36*
X532402Y403214D02*
X530978D01*
Y401750D01*
X534066D01*
X533985Y402156D01*
X533614Y402712D01*
X533057Y403084D01*
X532402Y403214D01*
D02*
G37*
G36*
X530478D02*
X529055D01*
X528399Y403084D01*
X527843Y402712D01*
X527472Y402156D01*
X527391Y401750D01*
X530478D01*
Y403214D01*
D02*
G37*
G36*
X419717Y401370D02*
X414976D01*
Y401242D01*
X414787Y401116D01*
X413213D01*
X413024Y401242D01*
Y401370D01*
X410904D01*
Y399000D01*
Y396630D01*
X413024D01*
Y396758D01*
X413213Y396884D01*
X414582D01*
X414976Y396630D01*
X414976Y396130D01*
X411662Y392816D01*
X399740D01*
X399370Y393370D01*
X398741Y393790D01*
X398000Y393937D01*
X397259Y393790D01*
X396630Y393370D01*
X396210Y392741D01*
X396063Y392000D01*
X396210Y391259D01*
X396630Y390630D01*
X397259Y390210D01*
X398000Y390063D01*
X398741Y390210D01*
X399370Y390630D01*
X399740Y391184D01*
X412000D01*
X412000Y391184D01*
X412312Y391246D01*
X412577Y391423D01*
X416577Y395423D01*
X416577Y395423D01*
X416754Y395688D01*
X416816Y396000D01*
Y396630D01*
X419717D01*
Y398082D01*
X425190D01*
X425386Y397788D01*
X425943Y397416D01*
X426598Y397286D01*
X429945D01*
X430601Y397416D01*
X431157Y397788D01*
X431528Y398344D01*
X431659Y399000D01*
X431528Y399656D01*
X431157Y400212D01*
X430601Y400584D01*
X429945Y400714D01*
X426598D01*
X425943Y400584D01*
X425386Y400212D01*
X425190Y399918D01*
X419717D01*
Y401370D01*
D02*
G37*
G36*
X600000Y440530D02*
X599086Y440410D01*
X598235Y440057D01*
X597504Y439496D01*
X596943Y438765D01*
X596590Y437914D01*
X596470Y437000D01*
X596590Y436086D01*
X596943Y435235D01*
X597504Y434504D01*
X598235Y433943D01*
X599082Y433592D01*
Y431000D01*
X599152Y430649D01*
X599351Y430351D01*
X627169Y402533D01*
X627063Y402000D01*
X627210Y401259D01*
X627630Y400630D01*
X628259Y400210D01*
X629000Y400063D01*
X629741Y400210D01*
X630370Y400630D01*
X630790Y401259D01*
X630937Y402000D01*
X630790Y402741D01*
X630370Y403370D01*
X629741Y403790D01*
X629000Y403937D01*
X628467Y403831D01*
X600918Y431380D01*
Y433592D01*
X601765Y433943D01*
X602496Y434504D01*
X603057Y435235D01*
X603410Y436086D01*
X603530Y437000D01*
X603410Y437914D01*
X603057Y438765D01*
X602496Y439496D01*
X601765Y440057D01*
X600914Y440410D01*
X600000Y440530D01*
D02*
G37*
G36*
X534066Y401250D02*
X530978D01*
Y399786D01*
X532402D01*
X533057Y399916D01*
X533614Y400288D01*
X533985Y400844D01*
X534066Y401250D01*
D02*
G37*
G36*
X530478D02*
X527391D01*
X527472Y400844D01*
X527843Y400288D01*
X528399Y399916D01*
X529055Y399786D01*
X530478D01*
Y401250D01*
D02*
G37*
G36*
X469717Y401370D02*
X467596D01*
Y399250D01*
X469717D01*
Y401370D01*
D02*
G37*
G36*
X410403D02*
X408284D01*
Y399250D01*
X410403D01*
Y401370D01*
D02*
G37*
G36*
X532402Y398214D02*
X530978D01*
Y396750D01*
X534066D01*
X533985Y397156D01*
X533614Y397712D01*
X533057Y398084D01*
X532402Y398214D01*
D02*
G37*
G36*
X530478D02*
X529055D01*
X528399Y398084D01*
X527843Y397712D01*
X527472Y397156D01*
X527391Y396750D01*
X530478D01*
Y398214D01*
D02*
G37*
G36*
X469717Y398750D02*
X467596D01*
Y396630D01*
X469717D01*
Y398750D01*
D02*
G37*
G36*
X410403D02*
X408284D01*
Y396630D01*
X410403D01*
Y398750D01*
D02*
G37*
G36*
X534066Y396250D02*
X530978D01*
Y394786D01*
X532402D01*
X533057Y394916D01*
X533614Y395288D01*
X533985Y395844D01*
X534066Y396250D01*
D02*
G37*
G36*
X530478D02*
X527391D01*
X527472Y395844D01*
X527843Y395288D01*
X528399Y394916D01*
X529055Y394786D01*
X530478D01*
Y396250D01*
D02*
G37*
G36*
X321000Y414105D02*
X319842Y413953D01*
X318762Y413506D01*
X317835Y412794D01*
X317124Y411868D01*
X316677Y410788D01*
X316525Y409630D01*
X316677Y408472D01*
X317124Y407392D01*
X317835Y406465D01*
X318762Y405754D01*
X319842Y405307D01*
X321000Y405155D01*
X322158Y405307D01*
X323238Y405754D01*
X324165Y406465D01*
X324876Y407392D01*
X325323Y408472D01*
X325355Y408712D01*
X327990D01*
X332082Y404620D01*
Y353082D01*
X332152Y352731D01*
X332351Y352433D01*
X336434Y348351D01*
X336731Y348152D01*
X337082Y348082D01*
X364078D01*
X364129Y347695D01*
X364633Y346478D01*
X365434Y345434D01*
X366478Y344633D01*
X367695Y344129D01*
X369000Y343957D01*
X370305Y344129D01*
X371522Y344633D01*
X372566Y345434D01*
X373368Y346478D01*
X373871Y347695D01*
X373922Y348082D01*
X381260D01*
X386060Y342669D01*
X385745Y342270D01*
X385384Y342463D01*
X383970Y342892D01*
X383500Y342938D01*
Y336500D01*
X389938D01*
X389892Y336970D01*
X389605Y337916D01*
X390051Y338166D01*
X395310Y332233D01*
X395333Y332216D01*
X395348Y332193D01*
X395537Y332005D01*
X395834Y331806D01*
X396185Y331736D01*
X401630D01*
Y330283D01*
X406370D01*
Y331736D01*
X409630D01*
Y330283D01*
X414370D01*
Y331736D01*
X415654D01*
X416005Y331806D01*
X416302Y332005D01*
X438649Y354351D01*
X438848Y354649D01*
X438918Y355000D01*
Y386620D01*
X442585Y390287D01*
X446292D01*
X446559Y389787D01*
X446472Y389656D01*
X446341Y389000D01*
X446472Y388344D01*
X446843Y387788D01*
X447399Y387416D01*
X448055Y387286D01*
X451402D01*
X452058Y387416D01*
X452614Y387788D01*
X452810Y388082D01*
X455620D01*
X458082Y385620D01*
Y355000D01*
X458152Y354649D01*
X458351Y354351D01*
X460351Y352351D01*
X460649Y352152D01*
X461000Y352082D01*
X463630D01*
Y350976D01*
X463758D01*
X463884Y350787D01*
Y349213D01*
X463758Y349024D01*
X463630D01*
Y346903D01*
X466000D01*
X468370D01*
Y349024D01*
X468242D01*
X468116Y349213D01*
Y350787D01*
X468242Y350976D01*
X468370D01*
Y352429D01*
X471630D01*
Y350976D01*
X471758D01*
X471884Y350787D01*
Y349213D01*
X471758Y349024D01*
X471630D01*
Y344284D01*
X473082D01*
Y341717D01*
X472581D01*
X470649Y343649D01*
X470351Y343848D01*
X470000Y343918D01*
X468694D01*
X468370Y344284D01*
Y346404D01*
X466000D01*
X463630D01*
Y344284D01*
X463306Y343918D01*
X459380D01*
X456918Y346380D01*
Y382000D01*
X456848Y382351D01*
X456649Y382649D01*
X454649Y384649D01*
X454351Y384848D01*
X454000Y384918D01*
X452810D01*
X452614Y385212D01*
X452058Y385584D01*
X451402Y385714D01*
X448055D01*
X447399Y385584D01*
X446843Y385212D01*
X446472Y384656D01*
X446341Y384000D01*
X446472Y383344D01*
X446843Y382788D01*
X447399Y382416D01*
X448055Y382286D01*
X451402D01*
X452058Y382416D01*
X452614Y382788D01*
X452810Y383082D01*
X453620D01*
X455082Y381620D01*
Y346000D01*
X455152Y345649D01*
X455351Y345351D01*
X458351Y342351D01*
X458649Y342152D01*
X459000Y342082D01*
X463306D01*
X463630Y341717D01*
Y339597D01*
X466000D01*
X468370D01*
Y341717D01*
X468694Y342082D01*
X469620D01*
X471630Y340072D01*
Y336976D01*
X471758D01*
X471884Y336787D01*
Y335213D01*
X471758Y335024D01*
X471630D01*
Y333571D01*
X468370D01*
Y335024D01*
X468242D01*
X468116Y335213D01*
Y336787D01*
X468242Y336976D01*
X468370D01*
Y339096D01*
X466000D01*
X463630D01*
Y336976D01*
X463758D01*
X463884Y336787D01*
Y335213D01*
X463758Y335024D01*
X463630D01*
Y333571D01*
X420653D01*
X420302Y333501D01*
X420005Y333302D01*
X414620Y327918D01*
X385063D01*
X384989Y328418D01*
X385384Y328537D01*
X386687Y329234D01*
X387829Y330171D01*
X388766Y331313D01*
X389463Y332616D01*
X389892Y334030D01*
X389938Y334500D01*
X375062D01*
X375109Y334030D01*
X375537Y332616D01*
X376234Y331313D01*
X377171Y330171D01*
X378313Y329234D01*
X379616Y328537D01*
X380011Y328418D01*
X379937Y327918D01*
X358063D01*
X357989Y328418D01*
X358384Y328537D01*
X359687Y329234D01*
X360829Y330171D01*
X361766Y331313D01*
X362463Y332616D01*
X362892Y334030D01*
X362938Y334500D01*
X348062D01*
X348109Y334030D01*
X348537Y332616D01*
X349234Y331313D01*
X350171Y330171D01*
X351313Y329234D01*
X352616Y328537D01*
X353011Y328418D01*
X352937Y327918D01*
X316380D01*
X312918Y331380D01*
Y383620D01*
X316722Y387424D01*
X317379Y387375D01*
X317835Y386780D01*
X318762Y386069D01*
X319842Y385622D01*
X321000Y385470D01*
X322158Y385622D01*
X323238Y386069D01*
X324165Y386780D01*
X324876Y387707D01*
X325323Y388787D01*
X325475Y389945D01*
X325323Y391103D01*
X324876Y392182D01*
X324165Y393109D01*
X323238Y393821D01*
X322158Y394268D01*
X321000Y394420D01*
X319842Y394268D01*
X318762Y393821D01*
X317835Y393109D01*
X317124Y392182D01*
X316677Y391103D01*
X316525Y389945D01*
X316576Y389555D01*
X316301Y389500D01*
X316003Y389301D01*
X311351Y384649D01*
X311152Y384351D01*
X311082Y384000D01*
Y331000D01*
X311152Y330649D01*
X311351Y330351D01*
X315351Y326351D01*
X315649Y326152D01*
X316000Y326082D01*
X415000D01*
X415351Y326152D01*
X415649Y326351D01*
X421034Y331736D01*
X463630D01*
Y330283D01*
X468370D01*
Y331736D01*
X471630D01*
Y330283D01*
X476370D01*
Y331736D01*
X480653D01*
X481005Y331806D01*
X481302Y332005D01*
X488302Y339004D01*
X488708Y338703D01*
X488537Y338384D01*
X488108Y336970D01*
X488062Y336500D01*
X494500D01*
Y342938D01*
X494030Y342892D01*
X492616Y342463D01*
X492297Y342292D01*
X491996Y342698D01*
X497380Y348082D01*
X504078D01*
X504129Y347695D01*
X504633Y346478D01*
X505434Y345434D01*
X506478Y344633D01*
X507695Y344129D01*
X509000Y343957D01*
X510305Y344129D01*
X511522Y344633D01*
X512566Y345434D01*
X513368Y346478D01*
X513871Y347695D01*
X514043Y349000D01*
X513871Y350305D01*
X513368Y351522D01*
X512566Y352566D01*
X511522Y353367D01*
X510305Y353871D01*
X510189Y353887D01*
Y389786D01*
X510945D01*
X511601Y389916D01*
X512157Y390288D01*
X512528Y390844D01*
X512659Y391500D01*
X512528Y392156D01*
X512157Y392712D01*
X511601Y393084D01*
X510945Y393214D01*
X507598D01*
X506943Y393084D01*
X506386Y392712D01*
X506015Y392156D01*
X505884Y391500D01*
X506015Y390844D01*
X506386Y390288D01*
X506943Y389916D01*
X507598Y389786D01*
X508354D01*
Y353958D01*
X507695Y353871D01*
X506478Y353367D01*
X505434Y352566D01*
X504633Y351522D01*
X504129Y350305D01*
X504078Y349918D01*
X497000D01*
X496649Y349848D01*
X496351Y349649D01*
X480273Y333571D01*
X476370D01*
Y335024D01*
X476242D01*
X476116Y335213D01*
Y336787D01*
X476242Y336976D01*
X476370D01*
Y341717D01*
X474918D01*
Y344284D01*
X476370D01*
Y349024D01*
X476242D01*
X476116Y349213D01*
Y350787D01*
X476242Y350976D01*
X476370D01*
Y355716D01*
X474918D01*
Y358283D01*
X476370D01*
Y363024D01*
X476242D01*
X476116Y363213D01*
Y364787D01*
X476242Y364976D01*
X476370D01*
Y369717D01*
X474918D01*
Y372328D01*
X475370Y372630D01*
X475790Y373259D01*
X475937Y374000D01*
X475790Y374741D01*
X475370Y375370D01*
X474741Y375790D01*
X474000Y375937D01*
X473259Y375790D01*
X472630Y375370D01*
X472210Y374741D01*
X472063Y374000D01*
X472210Y373259D01*
X472630Y372630D01*
X473082Y372328D01*
Y369717D01*
X471630D01*
Y368264D01*
X468370D01*
Y369717D01*
X463630D01*
Y364976D01*
X463758D01*
X463884Y364787D01*
Y363213D01*
X463758Y363024D01*
X463630D01*
Y360904D01*
X466000D01*
X468370D01*
Y363024D01*
X468242D01*
X468116Y363213D01*
Y364787D01*
X468242Y364976D01*
X468370D01*
Y366429D01*
X471630D01*
Y364976D01*
X471758D01*
X471884Y364787D01*
Y363213D01*
X471758Y363024D01*
X471630D01*
Y358283D01*
X473082D01*
Y355716D01*
X471630D01*
Y354264D01*
X468370D01*
Y355716D01*
X463630D01*
Y353918D01*
X461380D01*
X459918Y355380D01*
Y386000D01*
X459848Y386351D01*
X459649Y386649D01*
X456649Y389649D01*
X456442Y389787D01*
X456502Y390229D01*
X456525Y390287D01*
X485704D01*
X485752Y390255D01*
X486103Y390185D01*
X486454Y390255D01*
X486752Y390454D01*
X491880Y395582D01*
X506190D01*
X506386Y395288D01*
X506943Y394916D01*
X507598Y394786D01*
X510945D01*
X511601Y394916D01*
X512157Y395288D01*
X512528Y395844D01*
X512659Y396500D01*
X512528Y397156D01*
X512157Y397712D01*
X511601Y398084D01*
X510945Y398214D01*
X507598D01*
X506943Y398084D01*
X506386Y397712D01*
X506190Y397418D01*
X491500D01*
X491149Y397348D01*
X490851Y397149D01*
X485621Y391919D01*
X460205D01*
X460053Y392419D01*
X460370Y392630D01*
X460790Y393259D01*
X460937Y394000D01*
X460790Y394741D01*
X460370Y395370D01*
X459741Y395790D01*
X459000Y395937D01*
X458259Y395790D01*
X457630Y395370D01*
X457328Y394918D01*
X452810D01*
X452614Y395212D01*
X452058Y395584D01*
X451402Y395714D01*
X448055D01*
X447399Y395584D01*
X446843Y395212D01*
X446472Y394656D01*
X446341Y394000D01*
X446472Y393344D01*
X446843Y392788D01*
X447399Y392416D01*
X447339Y391919D01*
X442502D01*
X442454Y391951D01*
X442103Y392021D01*
X441752Y391951D01*
X441454Y391752D01*
X437351Y387649D01*
X437152Y387351D01*
X437082Y387000D01*
Y355380D01*
X415273Y333571D01*
X414370D01*
Y335024D01*
X414242D01*
X414116Y335213D01*
Y336787D01*
X414242Y336976D01*
X414370D01*
Y339096D01*
X412000D01*
X409630D01*
Y336976D01*
X409758D01*
X409884Y336787D01*
Y335213D01*
X409758Y335024D01*
X409630D01*
Y333571D01*
X406370D01*
Y335024D01*
X406242D01*
X406116Y335213D01*
Y336787D01*
X406242Y336976D01*
X406370D01*
Y340072D01*
X408380Y342082D01*
X409306D01*
X409630Y341717D01*
Y339597D01*
X412000D01*
X414370D01*
Y341717D01*
X414694Y342082D01*
X419000D01*
X419351Y342152D01*
X419649Y342351D01*
X422649Y345351D01*
X422848Y345649D01*
X422918Y346000D01*
Y381620D01*
X424380Y383082D01*
X425190D01*
X425386Y382788D01*
X425943Y382416D01*
X426598Y382286D01*
X429945D01*
X430601Y382416D01*
X431157Y382788D01*
X431528Y383344D01*
X431659Y384000D01*
X431528Y384656D01*
X431157Y385212D01*
X430601Y385584D01*
X429945Y385714D01*
X426598D01*
X425943Y385584D01*
X425386Y385212D01*
X425190Y384918D01*
X424000D01*
X423649Y384848D01*
X423351Y384649D01*
X421351Y382649D01*
X421152Y382351D01*
X421082Y382000D01*
Y346380D01*
X418620Y343918D01*
X414694D01*
X414370Y344284D01*
Y346404D01*
X412000D01*
X409630D01*
Y344284D01*
X409306Y343918D01*
X408000D01*
X407649Y343848D01*
X407351Y343649D01*
X405419Y341717D01*
X404918D01*
Y344284D01*
X406370D01*
Y349024D01*
X406242D01*
X406116Y349213D01*
Y350787D01*
X406242Y350976D01*
X406370D01*
Y352429D01*
X409630D01*
Y350976D01*
X409758D01*
X409884Y350787D01*
Y349213D01*
X409758Y349024D01*
X409630D01*
Y346903D01*
X412000D01*
X414370D01*
Y349024D01*
X414242D01*
X414116Y349213D01*
Y350787D01*
X414242Y350976D01*
X414370D01*
Y353082D01*
X417000D01*
X417351Y353152D01*
X417649Y353351D01*
X419649Y355351D01*
X419848Y355649D01*
X419918Y356000D01*
Y385620D01*
X422380Y388082D01*
X425190D01*
X425386Y387788D01*
X425943Y387416D01*
X426598Y387286D01*
X429945D01*
X430601Y387416D01*
X431157Y387788D01*
X431528Y388344D01*
X431659Y389000D01*
X431528Y389656D01*
X431157Y390212D01*
X430601Y390584D01*
X429945Y390714D01*
X426598D01*
X425943Y390584D01*
X425386Y390212D01*
X425190Y389918D01*
X422000D01*
X421649Y389848D01*
X421351Y389649D01*
X418351Y386649D01*
X418152Y386351D01*
X418082Y386000D01*
Y356380D01*
X416620Y354918D01*
X414370D01*
Y355716D01*
X409630D01*
Y354264D01*
X406370D01*
Y355716D01*
X404918D01*
Y358283D01*
X406370D01*
Y363024D01*
X406242D01*
X406116Y363213D01*
Y364787D01*
X406242Y364976D01*
X406370D01*
Y366429D01*
X409630D01*
Y364976D01*
X409758D01*
X409884Y364787D01*
Y363213D01*
X409758Y363024D01*
X409630D01*
Y360904D01*
X412000D01*
X414370D01*
Y363024D01*
X414242D01*
X414116Y363213D01*
Y364787D01*
X414242Y364976D01*
X414370D01*
Y369717D01*
X409630D01*
Y368264D01*
X406370D01*
Y369717D01*
X404918D01*
Y372328D01*
X405370Y372630D01*
X405790Y373259D01*
X405937Y374000D01*
X405790Y374741D01*
X405370Y375370D01*
X404741Y375790D01*
X404000Y375937D01*
X403259Y375790D01*
X402630Y375370D01*
X402210Y374741D01*
X402063Y374000D01*
X402210Y373259D01*
X402630Y372630D01*
X403082Y372328D01*
Y369717D01*
X401630D01*
Y364976D01*
X401758D01*
X401884Y364787D01*
Y363213D01*
X401758Y363024D01*
X401630D01*
Y358283D01*
X403082D01*
Y355716D01*
X401630D01*
Y350976D01*
X401758D01*
X401884Y350787D01*
Y349213D01*
X401758Y349024D01*
X401630D01*
Y344284D01*
X403082D01*
Y341717D01*
X401630D01*
Y336976D01*
X401758D01*
X401884Y336787D01*
Y335213D01*
X401758Y335024D01*
X401630D01*
Y333571D01*
X396577D01*
X382360Y349609D01*
X382337Y349626D01*
X382322Y349649D01*
X382196Y349733D01*
X382074Y349825D01*
X382047Y349832D01*
X382024Y349848D01*
X381875Y349877D01*
X381728Y349916D01*
X381700Y349912D01*
X381673Y349918D01*
X373922D01*
X373871Y350305D01*
X373368Y351522D01*
X372566Y352566D01*
X371522Y353367D01*
X370305Y353871D01*
X369000Y354043D01*
X367695Y353871D01*
X366478Y353367D01*
X365434Y352566D01*
X364633Y351522D01*
X364129Y350305D01*
X364078Y349918D01*
X337462D01*
X333918Y353463D01*
Y405000D01*
X333848Y405351D01*
X333649Y405649D01*
X329019Y410279D01*
X328721Y410478D01*
X328370Y410547D01*
X325355D01*
X325323Y410788D01*
X324876Y411868D01*
X324165Y412794D01*
X323238Y413506D01*
X322158Y413953D01*
X321000Y414105D01*
D02*
G37*
G36*
X419000Y395937D02*
X418259Y395790D01*
X417630Y395370D01*
X417210Y394741D01*
X417063Y394000D01*
X417210Y393259D01*
X417630Y392630D01*
X418259Y392210D01*
X419000Y392063D01*
X419741Y392210D01*
X420370Y392630D01*
X420672Y393082D01*
X425190D01*
X425386Y392788D01*
X425943Y392416D01*
X426598Y392286D01*
X429945D01*
X430601Y392416D01*
X431157Y392788D01*
X431528Y393344D01*
X431659Y394000D01*
X431528Y394656D01*
X431157Y395212D01*
X430601Y395584D01*
X429945Y395714D01*
X426598D01*
X425943Y395584D01*
X425386Y395212D01*
X425190Y394918D01*
X420672D01*
X420370Y395370D01*
X419741Y395790D01*
X419000Y395937D01*
D02*
G37*
G36*
X532402Y393214D02*
X530978D01*
Y391750D01*
X534066D01*
X533985Y392156D01*
X533614Y392712D01*
X533057Y393084D01*
X532402Y393214D01*
D02*
G37*
G36*
X530478D02*
X529055D01*
X528399Y393084D01*
X527843Y392712D01*
X527472Y392156D01*
X527391Y391750D01*
X530478D01*
Y393214D01*
D02*
G37*
G36*
X534066Y391250D02*
X530978D01*
Y389786D01*
X532402D01*
X533057Y389916D01*
X533614Y390288D01*
X533985Y390844D01*
X534066Y391250D01*
D02*
G37*
G36*
X530478D02*
X527391D01*
X527472Y390844D01*
X527843Y390288D01*
X528399Y389916D01*
X529055Y389786D01*
X530478D01*
Y391250D01*
D02*
G37*
G36*
X601961Y387714D02*
X599652D01*
Y386250D01*
X603625D01*
X603544Y386656D01*
X603173Y387212D01*
X602617Y387584D01*
X601961Y387714D01*
D02*
G37*
G36*
X599152D02*
X596842D01*
X596187Y387584D01*
X595631Y387212D01*
X595259Y386656D01*
X595178Y386250D01*
X599152D01*
Y387714D01*
D02*
G37*
G36*
X603625Y385750D02*
X599652D01*
Y384286D01*
X601961D01*
X602617Y384416D01*
X603173Y384788D01*
X603544Y385344D01*
X603625Y385750D01*
D02*
G37*
G36*
X599152D02*
X595178D01*
X595259Y385344D01*
X595631Y384788D01*
X596187Y384416D01*
X596842Y384286D01*
X599152D01*
Y385750D01*
D02*
G37*
G36*
X564559Y387714D02*
X559441D01*
X558785Y387584D01*
X558229Y387212D01*
X557857Y386656D01*
X557727Y386000D01*
X557857Y385344D01*
X558229Y384788D01*
X558785Y384416D01*
X559441Y384286D01*
X564559D01*
X565215Y384416D01*
X565771Y384788D01*
X565968Y385082D01*
X568620D01*
X569169Y384533D01*
X569063Y384000D01*
X569210Y383259D01*
X569630Y382630D01*
X570259Y382210D01*
X571000Y382063D01*
X571741Y382210D01*
X572370Y382630D01*
X572790Y383259D01*
X572937Y384000D01*
X572831Y384533D01*
X573380Y385082D01*
X576620D01*
X578029Y383673D01*
X577988Y383344D01*
X577475Y383213D01*
X577370Y383370D01*
X576741Y383790D01*
X576000Y383937D01*
X575259Y383790D01*
X574630Y383370D01*
X574210Y382741D01*
X574063Y382000D01*
X574210Y381259D01*
X574630Y380630D01*
X575082Y380328D01*
Y379380D01*
X567620Y371918D01*
X565968D01*
X565771Y372212D01*
X565215Y372584D01*
X564559Y372714D01*
X559441D01*
X558785Y372584D01*
X558229Y372212D01*
X557857Y371656D01*
X557727Y371000D01*
X557857Y370344D01*
X558229Y369788D01*
X558785Y369416D01*
X559441Y369286D01*
X564559D01*
X565215Y369416D01*
X565771Y369788D01*
X565968Y370082D01*
X568000D01*
X568351Y370152D01*
X568649Y370351D01*
X576649Y378351D01*
X576848Y378649D01*
X576918Y379000D01*
Y380328D01*
X577370Y380630D01*
X577582Y380948D01*
X578082Y380797D01*
Y359380D01*
X575771Y357069D01*
X565867D01*
X565771Y357212D01*
X565215Y357584D01*
X564559Y357714D01*
X559441D01*
X558785Y357584D01*
X558229Y357212D01*
X558032Y356918D01*
X555370D01*
Y357370D01*
X550630D01*
Y352630D01*
X550758D01*
X550884Y352441D01*
Y350866D01*
X550758Y350677D01*
X550630D01*
Y349225D01*
X550073D01*
X549918Y349380D01*
Y369328D01*
X550370Y369630D01*
X550790Y370259D01*
X550937Y371000D01*
X550790Y371741D01*
X550370Y372370D01*
X549741Y372790D01*
X549000Y372937D01*
X548259Y372790D01*
X547630Y372370D01*
X547210Y371741D01*
X547063Y371000D01*
X547210Y370259D01*
X547630Y369630D01*
X548082Y369328D01*
Y349000D01*
X548152Y348649D01*
X548351Y348351D01*
X549044Y347658D01*
X549342Y347459D01*
X549693Y347389D01*
X550630D01*
Y345937D01*
X555370D01*
Y347389D01*
X556748D01*
X557099Y347459D01*
X557397Y347658D01*
X559094Y349355D01*
X559441Y349286D01*
X564559D01*
X565215Y349416D01*
X565771Y349788D01*
X566143Y350344D01*
X566273Y351000D01*
X566143Y351656D01*
X565771Y352212D01*
X565215Y352584D01*
X564559Y352714D01*
X559441D01*
X558785Y352584D01*
X558229Y352212D01*
X557857Y351656D01*
X557727Y351000D01*
X557796Y350653D01*
X556368Y349225D01*
X555370D01*
Y350677D01*
X555242D01*
X555116Y350866D01*
Y352441D01*
X555242Y352630D01*
X555370D01*
Y355082D01*
X558032D01*
X558229Y354788D01*
X558785Y354416D01*
X559441Y354286D01*
X564559D01*
X565215Y354416D01*
X565771Y354788D01*
X566069Y355233D01*
X576151D01*
X576502Y355303D01*
X576800Y355502D01*
X579649Y358351D01*
X579848Y358649D01*
X579918Y359000D01*
Y384000D01*
X579848Y384351D01*
X579649Y384649D01*
X577649Y386649D01*
X577351Y386848D01*
X577000Y386918D01*
X573000D01*
X572649Y386848D01*
X572351Y386649D01*
X571533Y385831D01*
X571000Y385937D01*
X570467Y385831D01*
X569649Y386649D01*
X569351Y386848D01*
X569000Y386918D01*
X565968D01*
X565771Y387212D01*
X565215Y387584D01*
X564559Y387714D01*
D02*
G37*
G36*
X601961Y382714D02*
X596842D01*
X596187Y382584D01*
X595631Y382212D01*
X595259Y381656D01*
X595128Y381000D01*
X595259Y380344D01*
X595631Y379788D01*
X596187Y379416D01*
X596842Y379286D01*
X601961D01*
X602617Y379416D01*
X603173Y379788D01*
X603544Y380344D01*
X603675Y381000D01*
X603544Y381656D01*
X603173Y382212D01*
X602617Y382584D01*
X601961Y382714D01*
D02*
G37*
G36*
X564559D02*
X559441D01*
X558785Y382584D01*
X558229Y382212D01*
X557857Y381656D01*
X557727Y381000D01*
X557857Y380344D01*
X558229Y379788D01*
X558785Y379416D01*
X559441Y379286D01*
X564559D01*
X565215Y379416D01*
X565771Y379788D01*
X566143Y380344D01*
X566273Y381000D01*
X566143Y381656D01*
X565771Y382212D01*
X565215Y382584D01*
X564559Y382714D01*
D02*
G37*
G36*
X601961Y377714D02*
X596842D01*
X596187Y377584D01*
X595631Y377212D01*
X595259Y376656D01*
X595128Y376000D01*
X595259Y375344D01*
X595631Y374788D01*
X596187Y374416D01*
X596842Y374286D01*
X601961D01*
X602617Y374416D01*
X603173Y374788D01*
X603544Y375344D01*
X603675Y376000D01*
X603544Y376656D01*
X603173Y377212D01*
X602617Y377584D01*
X601961Y377714D01*
D02*
G37*
G36*
X564559D02*
X559441D01*
X558785Y377584D01*
X558229Y377212D01*
X557857Y376656D01*
X557727Y376000D01*
X557857Y375344D01*
X558229Y374788D01*
X558785Y374416D01*
X559441Y374286D01*
X564559D01*
X565215Y374416D01*
X565771Y374788D01*
X566143Y375344D01*
X566273Y376000D01*
X566143Y376656D01*
X565771Y377212D01*
X565215Y377584D01*
X564559Y377714D01*
D02*
G37*
G36*
X321250Y374702D02*
Y370510D01*
X325442D01*
X325323Y371418D01*
X324876Y372498D01*
X324165Y373424D01*
X323238Y374136D01*
X322158Y374583D01*
X321250Y374702D01*
D02*
G37*
G36*
X320750D02*
X319842Y374583D01*
X318762Y374136D01*
X317835Y373424D01*
X317124Y372498D01*
X316677Y371418D01*
X316558Y370510D01*
X320750D01*
Y374702D01*
D02*
G37*
G36*
X325442Y370010D02*
X321250D01*
Y365817D01*
X322158Y365937D01*
X323238Y366384D01*
X324165Y367095D01*
X324876Y368022D01*
X325323Y369102D01*
X325442Y370010D01*
D02*
G37*
G36*
X320750D02*
X316558D01*
X316677Y369102D01*
X317124Y368022D01*
X317835Y367095D01*
X318762Y366384D01*
X319842Y365937D01*
X320750Y365817D01*
Y370010D01*
D02*
G37*
G36*
X555000Y375937D02*
X554259Y375790D01*
X553630Y375370D01*
X553210Y374741D01*
X553063Y374000D01*
X553210Y373259D01*
X553630Y372630D01*
X554082Y372328D01*
Y368000D01*
X554152Y367649D01*
X554351Y367351D01*
X556351Y365351D01*
X556649Y365152D01*
X557000Y365082D01*
X558032D01*
X558229Y364788D01*
X558785Y364416D01*
X559441Y364286D01*
X564559D01*
X565215Y364416D01*
X565771Y364788D01*
X566143Y365344D01*
X566273Y366000D01*
X566143Y366656D01*
X565771Y367212D01*
X565215Y367584D01*
X564559Y367714D01*
X559441D01*
X558785Y367584D01*
X558229Y367212D01*
X558032Y366918D01*
X557380D01*
X555918Y368380D01*
Y372328D01*
X556370Y372630D01*
X556790Y373259D01*
X556937Y374000D01*
X556790Y374741D01*
X556370Y375370D01*
X555741Y375790D01*
X555000Y375937D01*
D02*
G37*
G36*
X496500Y369938D02*
Y363500D01*
X502938D01*
X502891Y363970D01*
X502463Y365384D01*
X501766Y366687D01*
X500829Y367829D01*
X499687Y368766D01*
X498384Y369463D01*
X496970Y369892D01*
X496500Y369938D01*
D02*
G37*
G36*
X523500D02*
Y363500D01*
X529938D01*
X529891Y363970D01*
X529463Y365384D01*
X528766Y366687D01*
X527829Y367829D01*
X526687Y368766D01*
X525384Y369463D01*
X523970Y369892D01*
X523500Y369938D01*
D02*
G37*
G36*
X383500D02*
Y363500D01*
X389938D01*
X389892Y363970D01*
X389463Y365384D01*
X388766Y366687D01*
X387829Y367829D01*
X386687Y368766D01*
X385384Y369463D01*
X383970Y369892D01*
X383500Y369938D01*
D02*
G37*
G36*
X381500D02*
X381030Y369892D01*
X379616Y369463D01*
X378313Y368766D01*
X377171Y367829D01*
X376234Y366687D01*
X375537Y365384D01*
X375109Y363970D01*
X375062Y363500D01*
X381500D01*
Y369938D01*
D02*
G37*
G36*
X356500D02*
Y363500D01*
X362938D01*
X362892Y363970D01*
X362463Y365384D01*
X361766Y366687D01*
X360829Y367829D01*
X359687Y368766D01*
X358384Y369463D01*
X356970Y369892D01*
X356500Y369938D01*
D02*
G37*
G36*
X354500D02*
X354030Y369892D01*
X352616Y369463D01*
X351313Y368766D01*
X350171Y367829D01*
X349234Y366687D01*
X348537Y365384D01*
X348109Y363970D01*
X348062Y363500D01*
X354500D01*
Y369938D01*
D02*
G37*
G36*
X494500D02*
X494030Y369892D01*
X492616Y369463D01*
X491313Y368766D01*
X490171Y367829D01*
X489234Y366687D01*
X488537Y365384D01*
X488108Y363970D01*
X488062Y363500D01*
X494500D01*
Y369938D01*
D02*
G37*
G36*
X521500D02*
X521030Y369892D01*
X519616Y369463D01*
X518313Y368766D01*
X517171Y367829D01*
X516234Y366687D01*
X515537Y365384D01*
X515108Y363970D01*
X515062Y363500D01*
X521500D01*
Y369938D01*
D02*
G37*
G36*
X649000Y368971D02*
X648099Y368852D01*
X647259Y368504D01*
X646537Y367951D01*
X645984Y367230D01*
X645636Y366389D01*
X645517Y365488D01*
X645636Y364587D01*
X645984Y363747D01*
X646537Y363026D01*
X647259Y362472D01*
X648099Y362124D01*
X649000Y362006D01*
X649901Y362124D01*
X650741Y362472D01*
X651463Y363026D01*
X652016Y363747D01*
X652364Y364587D01*
X652483Y365488D01*
X652364Y366389D01*
X652016Y367230D01*
X651463Y367951D01*
X650741Y368504D01*
X649901Y368852D01*
X649000Y368971D01*
D02*
G37*
G36*
X583500Y454500D02*
X576500D01*
Y448798D01*
X574351Y446649D01*
X574152Y446351D01*
X574082Y446000D01*
Y402000D01*
X574152Y401649D01*
X574351Y401351D01*
X585351Y390351D01*
X585649Y390152D01*
X586000Y390082D01*
X603620D01*
X606082Y387620D01*
Y363380D01*
X604620Y361918D01*
X603369D01*
X603173Y362212D01*
X602617Y362584D01*
X601961Y362714D01*
X596842D01*
X596187Y362584D01*
X595631Y362212D01*
X595259Y361656D01*
X595128Y361000D01*
X595259Y360344D01*
X595631Y359788D01*
X596187Y359416D01*
X596842Y359286D01*
X601961D01*
X602617Y359416D01*
X603173Y359788D01*
X603369Y360082D01*
X605000D01*
X605351Y360152D01*
X605649Y360351D01*
X607649Y362351D01*
X607848Y362649D01*
X607918Y363000D01*
Y388000D01*
X607848Y388351D01*
X607649Y388649D01*
X604649Y391649D01*
X604351Y391848D01*
X604000Y391918D01*
X586380D01*
X575918Y402380D01*
Y445620D01*
X577798Y447500D01*
X583500D01*
Y454500D01*
D02*
G37*
G36*
X553000Y365937D02*
X552259Y365790D01*
X551630Y365370D01*
X551210Y364741D01*
X551063Y364000D01*
X551210Y363259D01*
X551630Y362630D01*
X552259Y362210D01*
X553000Y362063D01*
X553533Y362169D01*
X555351Y360351D01*
X555649Y360152D01*
X556000Y360082D01*
X558032D01*
X558229Y359788D01*
X558785Y359416D01*
X559441Y359286D01*
X564559D01*
X565215Y359416D01*
X565771Y359788D01*
X566143Y360344D01*
X566273Y361000D01*
X566143Y361656D01*
X565771Y362212D01*
X565215Y362584D01*
X564559Y362714D01*
X559441D01*
X558785Y362584D01*
X558229Y362212D01*
X558032Y361918D01*
X556380D01*
X554831Y363467D01*
X554937Y364000D01*
X554790Y364741D01*
X554370Y365370D01*
X553741Y365790D01*
X553000Y365937D01*
D02*
G37*
G36*
X468370Y360403D02*
X466250D01*
Y358283D01*
X468370D01*
Y360403D01*
D02*
G37*
G36*
X465750D02*
X463630D01*
Y358283D01*
X465750D01*
Y360403D01*
D02*
G37*
G36*
X414370D02*
X412250D01*
Y358283D01*
X414370D01*
Y360403D01*
D02*
G37*
G36*
X411750D02*
X409630D01*
Y358283D01*
X411750D01*
Y360403D01*
D02*
G37*
G36*
X659000Y364482D02*
X658099Y364364D01*
X657259Y364016D01*
X656537Y363462D01*
X655984Y362741D01*
X655636Y361901D01*
X655517Y361000D01*
X655636Y360099D01*
X655984Y359259D01*
X656537Y358538D01*
X657259Y357984D01*
X658099Y357636D01*
X659000Y357518D01*
X659901Y357636D01*
X660741Y357984D01*
X661462Y358538D01*
X662016Y359259D01*
X662364Y360099D01*
X662483Y361000D01*
X662364Y361901D01*
X662016Y362741D01*
X661462Y363462D01*
X660741Y364016D01*
X659901Y364364D01*
X659000Y364482D01*
D02*
G37*
G36*
X639000D02*
X638099Y364364D01*
X637259Y364016D01*
X636538Y363462D01*
X635984Y362741D01*
X635636Y361901D01*
X635518Y361000D01*
X635636Y360099D01*
X635984Y359259D01*
X636538Y358538D01*
X637259Y357984D01*
X638099Y357636D01*
X639000Y357518D01*
X639901Y357636D01*
X640741Y357984D01*
X641463Y358538D01*
X642016Y359259D01*
X642364Y360099D01*
X642483Y361000D01*
X642364Y361901D01*
X642016Y362741D01*
X641463Y363462D01*
X640741Y364016D01*
X639901Y364364D01*
X639000Y364482D01*
D02*
G37*
G36*
X608750Y358063D02*
X606630D01*
Y356918D01*
X603369D01*
X603173Y357212D01*
X602617Y357584D01*
X601961Y357714D01*
X599652D01*
Y356000D01*
Y354286D01*
X601961D01*
X602617Y354416D01*
X603173Y354788D01*
X603369Y355082D01*
X606630D01*
Y353323D01*
X606758D01*
X606884Y353134D01*
Y351559D01*
X606758Y351370D01*
X606630D01*
Y349918D01*
X604341D01*
X603606Y350653D01*
X603675Y351000D01*
X603544Y351656D01*
X603173Y352212D01*
X602617Y352584D01*
X601961Y352714D01*
X596842D01*
X596187Y352584D01*
X595631Y352212D01*
X595259Y351656D01*
X595128Y351000D01*
X595259Y350344D01*
X595631Y349788D01*
X596187Y349416D01*
X596842Y349286D01*
X601961D01*
X602308Y349355D01*
X602683Y348980D01*
X599533Y345831D01*
X599000Y345937D01*
X598259Y345790D01*
X597630Y345370D01*
X597210Y344741D01*
X597063Y344000D01*
X597210Y343259D01*
X597630Y342630D01*
X598259Y342210D01*
X599000Y342063D01*
X599741Y342210D01*
X600370Y342630D01*
X600790Y343259D01*
X600937Y344000D01*
X600831Y344533D01*
X604380Y348082D01*
X606630D01*
Y346630D01*
X611370D01*
Y351370D01*
X611242D01*
X611116Y351559D01*
Y353134D01*
X611242Y353323D01*
X611370D01*
Y355443D01*
X609000D01*
Y355693D01*
X608750D01*
Y358063D01*
D02*
G37*
G36*
X599152Y357714D02*
X596842D01*
X596187Y357584D01*
X595631Y357212D01*
X595259Y356656D01*
X595178Y356250D01*
X599152D01*
Y357714D01*
D02*
G37*
G36*
X611370Y358063D02*
X609250D01*
Y355943D01*
X611370D01*
Y358063D01*
D02*
G37*
G36*
X529938Y361500D02*
X523500D01*
Y355062D01*
X523970Y355108D01*
X525384Y355537D01*
X526687Y356234D01*
X527829Y357171D01*
X528766Y358313D01*
X529463Y359616D01*
X529891Y361030D01*
X529938Y361500D01*
D02*
G37*
G36*
X502938D02*
X496500D01*
Y355062D01*
X496970Y355108D01*
X498384Y355537D01*
X499687Y356234D01*
X500829Y357171D01*
X501766Y358313D01*
X502463Y359616D01*
X502891Y361030D01*
X502938Y361500D01*
D02*
G37*
G36*
X389938D02*
X383500D01*
Y355062D01*
X383970Y355108D01*
X385384Y355537D01*
X386687Y356234D01*
X387829Y357171D01*
X388766Y358313D01*
X389463Y359616D01*
X389892Y361030D01*
X389938Y361500D01*
D02*
G37*
G36*
X381500D02*
X375062D01*
X375109Y361030D01*
X375537Y359616D01*
X376234Y358313D01*
X377171Y357171D01*
X378313Y356234D01*
X379616Y355537D01*
X381030Y355108D01*
X381500Y355062D01*
Y361500D01*
D02*
G37*
G36*
X362938D02*
X356500D01*
Y355062D01*
X356970Y355108D01*
X358384Y355537D01*
X359687Y356234D01*
X360829Y357171D01*
X361766Y358313D01*
X362463Y359616D01*
X362892Y361030D01*
X362938Y361500D01*
D02*
G37*
G36*
X354500D02*
X348062D01*
X348109Y361030D01*
X348537Y359616D01*
X349234Y358313D01*
X350171Y357171D01*
X351313Y356234D01*
X352616Y355537D01*
X354030Y355108D01*
X354500Y355062D01*
Y361500D01*
D02*
G37*
G36*
X521500D02*
X515062D01*
X515108Y361030D01*
X515537Y359616D01*
X516234Y358313D01*
X517171Y357171D01*
X518313Y356234D01*
X519616Y355537D01*
X521030Y355108D01*
X521500Y355062D01*
Y361500D01*
D02*
G37*
G36*
X494500D02*
X488062D01*
X488108Y361030D01*
X488537Y359616D01*
X489234Y358313D01*
X490171Y357171D01*
X491313Y356234D01*
X492616Y355537D01*
X494030Y355108D01*
X494500Y355062D01*
Y361500D01*
D02*
G37*
G36*
X599152Y355750D02*
X595178D01*
X595259Y355344D01*
X595631Y354788D01*
X596187Y354416D01*
X596842Y354286D01*
X599152D01*
Y355750D01*
D02*
G37*
G36*
X649000Y359994D02*
X648099Y359876D01*
X647259Y359528D01*
X646537Y358974D01*
X645984Y358253D01*
X645636Y357413D01*
X645517Y356512D01*
X645636Y355610D01*
X645984Y354770D01*
X646537Y354049D01*
X647259Y353496D01*
X648099Y353148D01*
X649000Y353029D01*
X649901Y353148D01*
X650741Y353496D01*
X651463Y354049D01*
X652016Y354770D01*
X652364Y355610D01*
X652483Y356512D01*
X652364Y357413D01*
X652016Y358253D01*
X651463Y358974D01*
X650741Y359528D01*
X649901Y359876D01*
X649000Y359994D01*
D02*
G37*
G36*
X321250Y355017D02*
Y350825D01*
X325442D01*
X325323Y351733D01*
X324876Y352812D01*
X324165Y353739D01*
X323238Y354450D01*
X322158Y354898D01*
X321250Y355017D01*
D02*
G37*
G36*
X320750D02*
X319842Y354898D01*
X318762Y354450D01*
X317835Y353739D01*
X317124Y352812D01*
X316677Y351733D01*
X316558Y350825D01*
X320750D01*
Y355017D01*
D02*
G37*
G36*
X639000Y355506D02*
X638099Y355387D01*
X637259Y355040D01*
X636538Y354486D01*
X635984Y353765D01*
X635636Y352925D01*
X635518Y352024D01*
X635636Y351122D01*
X635984Y350282D01*
X636538Y349561D01*
X637259Y349008D01*
X638099Y348660D01*
X639000Y348541D01*
X639901Y348660D01*
X640741Y349008D01*
X641463Y349561D01*
X642016Y350282D01*
X642364Y351122D01*
X642483Y352024D01*
X642364Y352925D01*
X642016Y353765D01*
X641463Y354486D01*
X640741Y355040D01*
X639901Y355387D01*
X639000Y355506D01*
D02*
G37*
G36*
X325442Y350325D02*
X321250D01*
Y346132D01*
X322158Y346252D01*
X323238Y346699D01*
X324165Y347410D01*
X324876Y348337D01*
X325323Y349416D01*
X325442Y350325D01*
D02*
G37*
G36*
X320750D02*
X316558D01*
X316677Y349416D01*
X317124Y348337D01*
X317835Y347410D01*
X318762Y346699D01*
X319842Y346252D01*
X320750Y346132D01*
Y350325D01*
D02*
G37*
G36*
X600000Y412530D02*
X599086Y412410D01*
X598235Y412057D01*
X597504Y411496D01*
X596943Y410765D01*
X596590Y409914D01*
X596470Y409000D01*
X596590Y408086D01*
X596943Y407235D01*
X597504Y406504D01*
X598235Y405943D01*
X599086Y405590D01*
X600000Y405470D01*
X600914Y405590D01*
X601765Y405943D01*
X602496Y406504D01*
X603057Y407235D01*
X603410Y408086D01*
X603423Y408184D01*
X604662D01*
X643184Y369662D01*
Y352536D01*
X643184Y352535D01*
X643246Y352223D01*
X643423Y351959D01*
X646037Y349345D01*
X645984Y349277D01*
X645636Y348437D01*
X645517Y347535D01*
X645636Y346634D01*
X645984Y345794D01*
X646537Y345073D01*
X647259Y344519D01*
X648099Y344172D01*
X649000Y344053D01*
X649901Y344172D01*
X650741Y344519D01*
X651463Y345073D01*
X652016Y345794D01*
X652364Y346634D01*
X652483Y347535D01*
X652364Y348437D01*
X652016Y349277D01*
X651463Y349998D01*
X650741Y350551D01*
X649901Y350899D01*
X649000Y351018D01*
X648099Y350899D01*
X647259Y350551D01*
X647190Y350499D01*
X644816Y352873D01*
Y370000D01*
X644816Y370000D01*
X644754Y370312D01*
X644577Y370577D01*
X605577Y409577D01*
X605312Y409754D01*
X605000Y409816D01*
X605000Y409816D01*
X603423D01*
X603410Y409914D01*
X603057Y410765D01*
X602496Y411496D01*
X601765Y412057D01*
X600914Y412410D01*
X600000Y412530D01*
D02*
G37*
G36*
Y426530D02*
X599086Y426410D01*
X598235Y426057D01*
X597504Y425496D01*
X596943Y424765D01*
X596590Y423914D01*
X596470Y423000D01*
X596590Y422086D01*
X596943Y421235D01*
X597504Y420504D01*
X598235Y419943D01*
X599086Y419590D01*
X600000Y419470D01*
X600914Y419590D01*
X601765Y419943D01*
X601844Y420003D01*
X653184Y368662D01*
Y342338D01*
X651843Y340997D01*
X651463Y341022D01*
X650741Y341575D01*
X649901Y341923D01*
X649000Y342042D01*
X648099Y341923D01*
X647259Y341575D01*
X646537Y341022D01*
X645984Y340300D01*
X645636Y339460D01*
X645517Y338559D01*
X645636Y337658D01*
X645984Y336818D01*
X646537Y336097D01*
X647259Y335543D01*
X648099Y335195D01*
X649000Y335076D01*
X649901Y335195D01*
X650741Y335543D01*
X651463Y336097D01*
X652016Y336818D01*
X652364Y337658D01*
X652483Y338559D01*
X652393Y339239D01*
X654577Y341423D01*
X654577Y341423D01*
X654754Y341688D01*
X654816Y342000D01*
Y369000D01*
X654754Y369312D01*
X654577Y369577D01*
X654577Y369577D01*
X602997Y421157D01*
X603057Y421235D01*
X603410Y422086D01*
X603530Y423000D01*
X603410Y423914D01*
X603057Y424765D01*
X602496Y425496D01*
X601765Y426057D01*
X600914Y426410D01*
X600000Y426530D01*
D02*
G37*
G36*
X523500Y342938D02*
Y336500D01*
X529938D01*
X529891Y336970D01*
X529463Y338384D01*
X528766Y339687D01*
X527829Y340829D01*
X526687Y341766D01*
X525384Y342463D01*
X523970Y342892D01*
X523500Y342938D01*
D02*
G37*
G36*
X496500D02*
Y336500D01*
X502938D01*
X502891Y336970D01*
X502463Y338384D01*
X501766Y339687D01*
X500829Y340829D01*
X499687Y341766D01*
X498384Y342463D01*
X496970Y342892D01*
X496500Y342938D01*
D02*
G37*
G36*
X381500D02*
X381030Y342892D01*
X379616Y342463D01*
X378313Y341766D01*
X377171Y340829D01*
X376234Y339687D01*
X375537Y338384D01*
X375109Y336970D01*
X375062Y336500D01*
X381500D01*
Y342938D01*
D02*
G37*
G36*
X356500D02*
Y336500D01*
X362938D01*
X362892Y336970D01*
X362463Y338384D01*
X361766Y339687D01*
X360829Y340829D01*
X359687Y341766D01*
X358384Y342463D01*
X356970Y342892D01*
X356500Y342938D01*
D02*
G37*
G36*
X354500D02*
X354030Y342892D01*
X352616Y342463D01*
X351313Y341766D01*
X350171Y340829D01*
X349234Y339687D01*
X348537Y338384D01*
X348109Y336970D01*
X348062Y336500D01*
X354500D01*
Y342938D01*
D02*
G37*
G36*
X521500D02*
X521030Y342892D01*
X519616Y342463D01*
X518313Y341766D01*
X517171Y340829D01*
X516234Y339687D01*
X515537Y338384D01*
X515108Y336970D01*
X515062Y336500D01*
X521500D01*
Y342938D01*
D02*
G37*
G36*
X529938Y334500D02*
X523500D01*
Y328062D01*
X523970Y328109D01*
X525384Y328537D01*
X526687Y329234D01*
X527829Y330171D01*
X528766Y331313D01*
X529463Y332616D01*
X529891Y334030D01*
X529938Y334500D01*
D02*
G37*
G36*
X502938D02*
X496500D01*
Y328062D01*
X496970Y328109D01*
X498384Y328537D01*
X499687Y329234D01*
X500829Y330171D01*
X501766Y331313D01*
X502463Y332616D01*
X502891Y334030D01*
X502938Y334500D01*
D02*
G37*
G36*
X521500D02*
X515062D01*
X515108Y334030D01*
X515537Y332616D01*
X516234Y331313D01*
X517171Y330171D01*
X518313Y329234D01*
X519616Y328537D01*
X521030Y328109D01*
X521500Y328062D01*
Y334500D01*
D02*
G37*
G36*
X494500D02*
X488062D01*
X488108Y334030D01*
X488537Y332616D01*
X489234Y331313D01*
X490171Y330171D01*
X491313Y329234D01*
X492616Y328537D01*
X494030Y328109D01*
X494500Y328062D01*
Y334500D01*
D02*
G37*
G36*
X629000Y349937D02*
X628259Y349790D01*
X627630Y349370D01*
X627210Y348741D01*
X627063Y348000D01*
X627210Y347259D01*
X627630Y346630D01*
X628184Y346260D01*
Y344000D01*
X628184Y344000D01*
X628246Y343688D01*
X628423Y343423D01*
X633923Y337923D01*
X633923Y337923D01*
X634188Y337746D01*
X634500Y337684D01*
X637395D01*
X637494Y337184D01*
X637259Y337087D01*
X636538Y336533D01*
X635984Y335812D01*
X635636Y334972D01*
X635518Y334071D01*
X635636Y333170D01*
X635984Y332330D01*
X636538Y331608D01*
X637259Y331055D01*
X638099Y330707D01*
X639000Y330588D01*
X639901Y330707D01*
X640741Y331055D01*
X641463Y331608D01*
X642016Y332330D01*
X642364Y333170D01*
X642483Y334071D01*
X642364Y334972D01*
X642016Y335812D01*
X641463Y336533D01*
X640741Y337087D01*
X640506Y337184D01*
X640605Y337684D01*
X641162D01*
X646554Y332293D01*
X646537Y332045D01*
X645984Y331324D01*
X645636Y330484D01*
X645517Y329583D01*
X645636Y328681D01*
X645984Y327841D01*
X646537Y327120D01*
X647259Y326567D01*
X648099Y326219D01*
X649000Y326100D01*
X649901Y326219D01*
X650741Y326567D01*
X651463Y327120D01*
X652016Y327841D01*
X652364Y328681D01*
X652483Y329583D01*
X652364Y330484D01*
X652016Y331324D01*
X651463Y332045D01*
X650741Y332599D01*
X649901Y332947D01*
X649000Y333065D01*
X648194Y332959D01*
X642077Y339077D01*
X641812Y339254D01*
X641500Y339316D01*
X641500Y339316D01*
X640320D01*
X640221Y339816D01*
X640741Y340031D01*
X641463Y340585D01*
X642016Y341306D01*
X642364Y342146D01*
X642483Y343047D01*
X642364Y343949D01*
X642016Y344789D01*
X641463Y345510D01*
X640741Y346063D01*
X639901Y346411D01*
X639000Y346530D01*
X638099Y346411D01*
X637259Y346063D01*
X636538Y345510D01*
X635984Y344789D01*
X635636Y343949D01*
X635518Y343047D01*
X635636Y342146D01*
X635984Y341306D01*
X636538Y340585D01*
X637259Y340031D01*
X637779Y339816D01*
X637680Y339316D01*
X634838D01*
X629816Y344338D01*
Y346260D01*
X630370Y346630D01*
X630790Y347259D01*
X630937Y348000D01*
X630790Y348741D01*
X630370Y349370D01*
X629741Y349790D01*
X629000Y349937D01*
D02*
G37*
G36*
X659000Y328577D02*
X658099Y328458D01*
X657259Y328111D01*
X656537Y327557D01*
X655984Y326836D01*
X655636Y325996D01*
X655517Y325095D01*
X655636Y324193D01*
X655984Y323353D01*
X656537Y322632D01*
X657259Y322078D01*
X658099Y321731D01*
X659000Y321612D01*
X659901Y321731D01*
X660741Y322078D01*
X661462Y322632D01*
X662016Y323353D01*
X662364Y324193D01*
X662483Y325095D01*
X662364Y325996D01*
X662016Y326836D01*
X661462Y327557D01*
X660741Y328111D01*
X659901Y328458D01*
X659000Y328577D01*
D02*
G37*
G36*
X639000D02*
X638099Y328458D01*
X637259Y328111D01*
X636538Y327557D01*
X635984Y326836D01*
X635636Y325996D01*
X635518Y325095D01*
X635636Y324193D01*
X635984Y323353D01*
X636538Y322632D01*
X637259Y322078D01*
X638099Y321731D01*
X639000Y321612D01*
X639901Y321731D01*
X640741Y322078D01*
X641463Y322632D01*
X642016Y323353D01*
X642364Y324193D01*
X642483Y325095D01*
X642364Y325996D01*
X642016Y326836D01*
X641463Y327557D01*
X640741Y328111D01*
X639901Y328458D01*
X639000Y328577D01*
D02*
G37*
G36*
X659000Y337553D02*
X658099Y337435D01*
X657259Y337087D01*
X656537Y336533D01*
X655984Y335812D01*
X655636Y334972D01*
X655517Y334071D01*
X655636Y333170D01*
X655984Y332330D01*
X656537Y331608D01*
X657259Y331055D01*
X658099Y330707D01*
X659000Y330588D01*
X659901Y330707D01*
X660725Y331048D01*
X663082Y328691D01*
Y319380D01*
X661620Y317918D01*
X628672D01*
X628370Y318370D01*
X627741Y318790D01*
X627000Y318937D01*
X626259Y318790D01*
X625630Y318370D01*
X625210Y317741D01*
X625063Y317000D01*
X625210Y316259D01*
X625630Y315630D01*
X626259Y315210D01*
X627000Y315063D01*
X627741Y315210D01*
X628370Y315630D01*
X628672Y316082D01*
X662000D01*
X662351Y316152D01*
X662649Y316351D01*
X664649Y318351D01*
X664848Y318649D01*
X664918Y319000D01*
Y329071D01*
X664848Y329422D01*
X664649Y329720D01*
X662023Y332346D01*
X662364Y333170D01*
X662483Y334071D01*
X662364Y334972D01*
X662016Y335812D01*
X661462Y336533D01*
X660741Y337087D01*
X659901Y337435D01*
X659000Y337553D01*
D02*
G37*
G36*
X466000Y326937D02*
X465259Y326790D01*
X464630Y326370D01*
X464210Y325741D01*
X464063Y325000D01*
X464210Y324259D01*
X464630Y323630D01*
X465082Y323328D01*
Y320672D01*
X464630Y320370D01*
X464210Y319741D01*
X464063Y319000D01*
X464210Y318259D01*
X464630Y317630D01*
X465259Y317210D01*
X466000Y317063D01*
X466741Y317210D01*
X467370Y317630D01*
X467790Y318259D01*
X467937Y319000D01*
X467790Y319741D01*
X467370Y320370D01*
X466918Y320672D01*
Y323328D01*
X467370Y323630D01*
X467790Y324259D01*
X467937Y325000D01*
X467790Y325741D01*
X467370Y326370D01*
X466741Y326790D01*
X466000Y326937D01*
D02*
G37*
G36*
X419000D02*
X418259Y326790D01*
X417630Y326370D01*
X417210Y325741D01*
X417063Y325000D01*
X417210Y324259D01*
X417630Y323630D01*
X418082Y323328D01*
Y317672D01*
X417630Y317370D01*
X417210Y316741D01*
X417063Y316000D01*
X417210Y315259D01*
X417630Y314630D01*
X418259Y314210D01*
X419000Y314063D01*
X419741Y314210D01*
X420370Y314630D01*
X420790Y315259D01*
X420937Y316000D01*
X420790Y316741D01*
X420370Y317370D01*
X419918Y317672D01*
Y323328D01*
X420370Y323630D01*
X420790Y324259D01*
X420937Y325000D01*
X420790Y325741D01*
X420370Y326370D01*
X419741Y326790D01*
X419000Y326937D01*
D02*
G37*
G36*
X459000D02*
X458259Y326790D01*
X457630Y326370D01*
X457210Y325741D01*
X457063Y325000D01*
X457210Y324259D01*
X457630Y323630D01*
X458082Y323328D01*
Y314672D01*
X457630Y314370D01*
X457210Y313741D01*
X457063Y313000D01*
X457210Y312259D01*
X457630Y311630D01*
X458259Y311210D01*
X459000Y311063D01*
X459741Y311210D01*
X460370Y311630D01*
X460790Y312259D01*
X460937Y313000D01*
X460790Y313741D01*
X460370Y314370D01*
X459918Y314672D01*
Y323328D01*
X460370Y323630D01*
X460790Y324259D01*
X460937Y325000D01*
X460790Y325741D01*
X460370Y326370D01*
X459741Y326790D01*
X459000Y326937D01*
D02*
G37*
G36*
X659000Y346530D02*
X658099Y346411D01*
X657259Y346063D01*
X656537Y345510D01*
X655984Y344789D01*
X655636Y343949D01*
X655517Y343047D01*
X655636Y342146D01*
X655984Y341306D01*
X656537Y340585D01*
X657259Y340031D01*
X658099Y339683D01*
X659000Y339565D01*
X659901Y339683D01*
X660725Y340024D01*
X666082Y334667D01*
Y314380D01*
X663620Y311918D01*
X642000D01*
X641649Y311848D01*
X641351Y311649D01*
X637620Y307918D01*
X628672D01*
X628370Y308370D01*
X627741Y308790D01*
X627000Y308937D01*
X626259Y308790D01*
X625630Y308370D01*
X625210Y307741D01*
X625063Y307000D01*
X625210Y306259D01*
X625630Y305630D01*
X626259Y305210D01*
X627000Y305063D01*
X627741Y305210D01*
X628370Y305630D01*
X628672Y306082D01*
X638000D01*
X638351Y306152D01*
X638649Y306351D01*
X642380Y310082D01*
X664000D01*
X664351Y310152D01*
X664649Y310351D01*
X667649Y313351D01*
X667848Y313649D01*
X667918Y314000D01*
Y335047D01*
X667848Y335398D01*
X667649Y335696D01*
X662023Y341322D01*
X662364Y342146D01*
X662483Y343047D01*
X662364Y343949D01*
X662016Y344789D01*
X661462Y345510D01*
X660741Y346063D01*
X659901Y346411D01*
X659000Y346530D01*
D02*
G37*
G36*
X559000Y319361D02*
X558259Y319214D01*
X557630Y318794D01*
X557210Y318166D01*
X557063Y317424D01*
X557210Y316683D01*
X557630Y316055D01*
X558259Y315634D01*
X559000Y315487D01*
X559356Y315558D01*
X567204Y307710D01*
X567063Y307000D01*
X567210Y306259D01*
X567630Y305630D01*
X568259Y305210D01*
X569000Y305063D01*
X569741Y305210D01*
X570370Y305630D01*
X570790Y306259D01*
X570937Y307000D01*
X570790Y307741D01*
X570370Y308370D01*
X569741Y308790D01*
X569000Y308937D01*
X568644Y308866D01*
X560796Y316714D01*
X560937Y317424D01*
X560790Y318166D01*
X560370Y318794D01*
X559741Y319214D01*
X559000Y319361D01*
D02*
G37*
G36*
X659000Y355506D02*
X658099Y355387D01*
X657259Y355040D01*
X656537Y354486D01*
X655984Y353765D01*
X655636Y352925D01*
X655517Y352024D01*
X655636Y351122D01*
X655984Y350282D01*
X656537Y349561D01*
X657259Y349008D01*
X658099Y348660D01*
X659000Y348541D01*
X659901Y348660D01*
X660725Y349001D01*
X670082Y339644D01*
Y312380D01*
X665620Y307918D01*
X643000D01*
X642649Y307848D01*
X642351Y307649D01*
X632620Y297918D01*
X628672D01*
X628370Y298370D01*
X627741Y298790D01*
X627000Y298937D01*
X626259Y298790D01*
X625630Y298370D01*
X625210Y297741D01*
X625063Y297000D01*
X625210Y296259D01*
X625630Y295630D01*
X626259Y295210D01*
X627000Y295063D01*
X627741Y295210D01*
X628370Y295630D01*
X628672Y296082D01*
X633000D01*
X633351Y296152D01*
X633649Y296351D01*
X643380Y306082D01*
X666000D01*
X666351Y306152D01*
X666649Y306351D01*
X671649Y311351D01*
X671848Y311649D01*
X671918Y312000D01*
Y340024D01*
X671848Y340375D01*
X671649Y340672D01*
X662023Y350299D01*
X662364Y351122D01*
X662483Y352024D01*
X662364Y352925D01*
X662016Y353765D01*
X661462Y354486D01*
X660741Y355040D01*
X659901Y355387D01*
X659000Y355506D01*
D02*
G37*
G36*
X689000Y394937D02*
X688259Y394790D01*
X687630Y394370D01*
X687210Y393741D01*
X687063Y393000D01*
X687210Y392259D01*
X687630Y391630D01*
X688082Y391328D01*
Y296672D01*
X687630Y296370D01*
X687210Y295741D01*
X687063Y295000D01*
X687210Y294259D01*
X687630Y293630D01*
X688259Y293210D01*
X689000Y293063D01*
X689741Y293210D01*
X690370Y293630D01*
X690790Y294259D01*
X690937Y295000D01*
X690790Y295741D01*
X690370Y296370D01*
X689918Y296672D01*
Y391328D01*
X690370Y391630D01*
X690790Y392259D01*
X690937Y393000D01*
X690790Y393741D01*
X690370Y394370D01*
X689741Y394790D01*
X689000Y394937D01*
D02*
G37*
G36*
X459000Y283937D02*
X458259Y283790D01*
X457630Y283370D01*
X457210Y282741D01*
X457063Y282000D01*
X457210Y281259D01*
X457630Y280630D01*
X458082Y280328D01*
Y277672D01*
X457630Y277370D01*
X457210Y276741D01*
X457063Y276000D01*
X457210Y275259D01*
X457630Y274630D01*
X458259Y274210D01*
X459000Y274063D01*
X459741Y274210D01*
X460370Y274630D01*
X460790Y275259D01*
X460937Y276000D01*
X460790Y276741D01*
X460370Y277370D01*
X459918Y277672D01*
Y280328D01*
X460370Y280630D01*
X460790Y281259D01*
X460937Y282000D01*
X460790Y282741D01*
X460370Y283370D01*
X459741Y283790D01*
X459000Y283937D01*
D02*
G37*
G36*
X419000D02*
X418259Y283790D01*
X417630Y283370D01*
X417210Y282741D01*
X417063Y282000D01*
X417210Y281259D01*
X417630Y280630D01*
X418082Y280328D01*
Y277672D01*
X417630Y277370D01*
X417210Y276741D01*
X417063Y276000D01*
X417210Y275259D01*
X417630Y274630D01*
X418259Y274210D01*
X419000Y274063D01*
X419741Y274210D01*
X420370Y274630D01*
X420790Y275259D01*
X420937Y276000D01*
X420790Y276741D01*
X420370Y277370D01*
X419918Y277672D01*
Y280328D01*
X420370Y280630D01*
X420790Y281259D01*
X420937Y282000D01*
X420790Y282741D01*
X420370Y283370D01*
X419741Y283790D01*
X419000Y283937D01*
D02*
G37*
G36*
X496500Y269938D02*
Y263500D01*
X502938D01*
X502891Y263970D01*
X502463Y265384D01*
X501766Y266687D01*
X500829Y267829D01*
X499687Y268766D01*
X498384Y269463D01*
X496970Y269892D01*
X496500Y269938D01*
D02*
G37*
G36*
X523500D02*
Y263500D01*
X529938D01*
X529891Y263970D01*
X529463Y265384D01*
X528766Y266687D01*
X527829Y267829D01*
X526687Y268766D01*
X525384Y269463D01*
X523970Y269892D01*
X523500Y269938D01*
D02*
G37*
G36*
X494500D02*
X494030Y269892D01*
X492616Y269463D01*
X491313Y268766D01*
X490171Y267829D01*
X489234Y266687D01*
X488537Y265384D01*
X488108Y263970D01*
X488062Y263500D01*
X494500D01*
Y269938D01*
D02*
G37*
G36*
X521500D02*
X521030Y269892D01*
X519616Y269463D01*
X518313Y268766D01*
X517171Y267829D01*
X516234Y266687D01*
X515537Y265384D01*
X515108Y263970D01*
X515062Y263500D01*
X521500D01*
Y269938D01*
D02*
G37*
G36*
X676734Y412671D02*
X675992Y412523D01*
X675364Y412104D01*
X674944Y411475D01*
X674796Y410734D01*
X674944Y409992D01*
X675364Y409364D01*
X675992Y408944D01*
X676734Y408796D01*
X677475Y408944D01*
X678103Y409364D01*
X678406Y409816D01*
X681398D01*
X681533Y409557D01*
X681594Y409316D01*
X681210Y408741D01*
X681063Y408000D01*
X681210Y407259D01*
X681630Y406630D01*
X682082Y406328D01*
Y394203D01*
X681582Y394052D01*
X681370Y394370D01*
X680741Y394790D01*
X680000Y394937D01*
X679259Y394790D01*
X678630Y394370D01*
X678491Y394162D01*
X659302D01*
X659247Y394867D01*
X658867Y396450D01*
X658244Y397954D01*
X657393Y399342D01*
X656336Y400580D01*
X655098Y401637D01*
X653710Y402488D01*
X652206Y403111D01*
X650623Y403491D01*
X649000Y403619D01*
X647377Y403491D01*
X645794Y403111D01*
X644290Y402488D01*
X642902Y401637D01*
X641664Y400580D01*
X640607Y399342D01*
X639756Y397954D01*
X639133Y396450D01*
X638753Y394867D01*
X638625Y393244D01*
X638753Y391621D01*
X639133Y390038D01*
X639756Y388534D01*
X640607Y387146D01*
X641664Y385908D01*
X642902Y384851D01*
X644290Y384000D01*
X645794Y383377D01*
X647377Y382997D01*
X649000Y382870D01*
X650623Y382997D01*
X652206Y383377D01*
X653710Y384000D01*
X655098Y384851D01*
X656336Y385908D01*
X657393Y387146D01*
X658244Y388534D01*
X658867Y390038D01*
X659247Y391621D01*
X659302Y392326D01*
X678197D01*
X678210Y392259D01*
X678630Y391630D01*
X679259Y391210D01*
X680000Y391063D01*
X680741Y391210D01*
X681370Y391630D01*
X681582Y391948D01*
X682082Y391797D01*
Y296829D01*
X681582Y296562D01*
X681241Y296790D01*
X680500Y296937D01*
X679759Y296790D01*
X679130Y296370D01*
X678828Y295918D01*
X659291D01*
X659247Y296481D01*
X658867Y298064D01*
X658244Y299568D01*
X657393Y300956D01*
X656336Y302194D01*
X655098Y303251D01*
X653710Y304102D01*
X652206Y304725D01*
X650623Y305105D01*
X649000Y305233D01*
X647377Y305105D01*
X645794Y304725D01*
X644290Y304102D01*
X642902Y303251D01*
X641664Y302194D01*
X640607Y300956D01*
X639756Y299568D01*
X639133Y298064D01*
X638753Y296481D01*
X638625Y294858D01*
X638753Y293235D01*
X639133Y291652D01*
X639756Y290148D01*
X640607Y288760D01*
X641664Y287522D01*
X642902Y286465D01*
X644290Y285614D01*
X645794Y284992D01*
X647377Y284612D01*
X649000Y284484D01*
X650623Y284612D01*
X652206Y284992D01*
X653710Y285614D01*
X655098Y286465D01*
X655636Y286925D01*
X663517Y279044D01*
X663814Y278845D01*
X664165Y278775D01*
X666630D01*
Y277323D01*
X666758D01*
X666884Y277134D01*
Y275559D01*
X666758Y275370D01*
X666630D01*
Y271928D01*
X662351Y267649D01*
X662152Y267351D01*
X662082Y267000D01*
Y266408D01*
X661235Y266057D01*
X660504Y265496D01*
X659943Y264765D01*
X659590Y263914D01*
X659470Y263000D01*
X659590Y262086D01*
X659943Y261235D01*
X660504Y260504D01*
X661235Y259943D01*
X662086Y259590D01*
X663000Y259470D01*
X663914Y259590D01*
X664765Y259943D01*
X665496Y260504D01*
X666057Y261235D01*
X666410Y262086D01*
X666530Y263000D01*
X666410Y263914D01*
X666059Y264761D01*
X669380Y268082D01*
X680000D01*
X680351Y268152D01*
X680649Y268351D01*
X683649Y271351D01*
X683848Y271649D01*
X683918Y272000D01*
Y405959D01*
X684082Y406058D01*
X684582Y405775D01*
Y268324D01*
X676962Y260704D01*
X676500Y260895D01*
Y266500D01*
X669500D01*
Y259500D01*
X675105D01*
X675296Y259038D01*
X673175Y256918D01*
X670000D01*
X669649Y256848D01*
X669351Y256649D01*
X664761Y252059D01*
X663914Y252410D01*
X663000Y252530D01*
X662086Y252410D01*
X661235Y252057D01*
X660504Y251496D01*
X659943Y250765D01*
X659590Y249914D01*
X659470Y249000D01*
X659590Y248086D01*
X659943Y247235D01*
X660504Y246504D01*
X661235Y245943D01*
X662082Y245592D01*
Y223275D01*
X662152Y222923D01*
X662351Y222626D01*
X670607Y214370D01*
Y212935D01*
X652018D01*
X651666Y212865D01*
X651369Y212667D01*
X641620Y202918D01*
X631560D01*
X631556Y202953D01*
X631188Y203840D01*
X630603Y204603D01*
X629841Y205188D01*
X628953Y205556D01*
X628000Y205681D01*
X627047Y205556D01*
X626159Y205188D01*
X625397Y204603D01*
X624812Y203840D01*
X624444Y202953D01*
X624319Y202000D01*
X624444Y201047D01*
X624812Y200160D01*
X625397Y199397D01*
X626159Y198812D01*
X627047Y198444D01*
X628000Y198319D01*
X628953Y198444D01*
X629841Y198812D01*
X630603Y199397D01*
X631188Y200160D01*
X631556Y201047D01*
X631560Y201082D01*
X642000D01*
X642351Y201152D01*
X642649Y201351D01*
X652398Y211100D01*
X670607D01*
Y208368D01*
X677907D01*
Y215667D01*
X671905D01*
X663918Y223655D01*
Y245592D01*
X664765Y245943D01*
X665496Y246504D01*
X666057Y247235D01*
X666410Y248086D01*
X666530Y249000D01*
X666410Y249914D01*
X666059Y250761D01*
X670380Y255082D01*
X673556D01*
X673907Y255152D01*
X674204Y255351D01*
X686149Y267296D01*
X686348Y267593D01*
X686418Y267944D01*
Y409035D01*
X686348Y409387D01*
X686149Y409684D01*
X684451Y411382D01*
X684153Y411581D01*
X683802Y411651D01*
X678406D01*
X678103Y412104D01*
X677475Y412523D01*
X676734Y412671D01*
D02*
G37*
G36*
X653000Y266530D02*
X652086Y266410D01*
X651235Y266057D01*
X650504Y265496D01*
X649943Y264765D01*
X649590Y263914D01*
X649470Y263000D01*
X649590Y262086D01*
X649943Y261235D01*
X650504Y260504D01*
X651235Y259943D01*
X652086Y259590D01*
X653000Y259470D01*
X653914Y259590D01*
X654765Y259943D01*
X655496Y260504D01*
X656057Y261235D01*
X656410Y262086D01*
X656530Y263000D01*
X656410Y263914D01*
X656057Y264765D01*
X655496Y265496D01*
X654765Y266057D01*
X653914Y266410D01*
X653000Y266530D01*
D02*
G37*
G36*
X596917Y270839D02*
X585250D01*
Y258384D01*
X596917D01*
Y270839D01*
D02*
G37*
G36*
X584750D02*
X573083D01*
Y258384D01*
X584750D01*
Y270839D01*
D02*
G37*
G36*
X417000Y270918D02*
X326000D01*
X325649Y270848D01*
X325351Y270649D01*
X314351Y259649D01*
X314152Y259351D01*
X314082Y259000D01*
Y235315D01*
X314152Y234964D01*
X314351Y234666D01*
X317272Y231745D01*
X317124Y231553D01*
X316677Y230473D01*
X316525Y229315D01*
X316677Y228157D01*
X317124Y227077D01*
X317835Y226150D01*
X318762Y225439D01*
X319842Y224992D01*
X321000Y224840D01*
X322158Y224992D01*
X323238Y225439D01*
X324165Y226150D01*
X324876Y227077D01*
X325323Y228157D01*
X325475Y229315D01*
X325323Y230473D01*
X324876Y231553D01*
X324165Y232480D01*
X323238Y233191D01*
X322158Y233638D01*
X321000Y233790D01*
X319842Y233638D01*
X318762Y233191D01*
X318570Y233043D01*
X315918Y235695D01*
Y258620D01*
X326380Y269082D01*
X350910D01*
X351089Y268582D01*
X350171Y267829D01*
X349234Y266687D01*
X348537Y265384D01*
X348109Y263970D01*
X348062Y263500D01*
X362938D01*
X362892Y263970D01*
X362463Y265384D01*
X361766Y266687D01*
X360829Y267829D01*
X359911Y268582D01*
X360090Y269082D01*
X377910D01*
X378089Y268582D01*
X377171Y267829D01*
X376234Y266687D01*
X375537Y265384D01*
X375109Y263970D01*
X375062Y263500D01*
X389938D01*
X389892Y263970D01*
X389463Y265384D01*
X388766Y266687D01*
X387829Y267829D01*
X386911Y268582D01*
X387090Y269082D01*
X416620D01*
X421005Y264698D01*
X421302Y264499D01*
X421654Y264429D01*
X463630D01*
Y262976D01*
X463758D01*
X463884Y262787D01*
Y261213D01*
X463758Y261024D01*
X463630D01*
Y258904D01*
X466000D01*
X468370D01*
Y261024D01*
X468242D01*
X468116Y261213D01*
Y262787D01*
X468242Y262976D01*
X468370D01*
Y264429D01*
X471630D01*
Y262976D01*
X471758D01*
X471884Y262787D01*
Y261213D01*
X471758Y261024D01*
X471630D01*
Y257928D01*
X469620Y255918D01*
X468694D01*
X468370Y256283D01*
Y258403D01*
X466000D01*
X463630D01*
Y256283D01*
X463306Y255918D01*
X458000D01*
X457649Y255848D01*
X457351Y255649D01*
X454351Y252649D01*
X454152Y252351D01*
X454082Y252000D01*
Y216380D01*
X452887Y215185D01*
X452614Y215212D01*
X452058Y215584D01*
X451402Y215714D01*
X448055D01*
X447399Y215584D01*
X446843Y215212D01*
X446472Y214656D01*
X446341Y214000D01*
X446472Y213344D01*
X446843Y212788D01*
X447399Y212416D01*
X448055Y212286D01*
X451402D01*
X452058Y212416D01*
X452614Y212788D01*
X452859Y213155D01*
X453072D01*
X453424Y213225D01*
X453721Y213423D01*
X455649Y215351D01*
X455848Y215649D01*
X455918Y216000D01*
Y251620D01*
X458380Y254082D01*
X463306D01*
X463630Y253716D01*
Y251596D01*
X466000D01*
X468370D01*
Y253716D01*
X468694Y254082D01*
X470000D01*
X470351Y254152D01*
X470649Y254351D01*
X472581Y256283D01*
X473082D01*
Y253716D01*
X471630D01*
Y248976D01*
X471758D01*
X471884Y248787D01*
Y247213D01*
X471758Y247024D01*
X471630D01*
Y245571D01*
X468370D01*
Y247024D01*
X468242D01*
X468116Y247213D01*
Y248787D01*
X468242Y248976D01*
X468370D01*
Y251097D01*
X466000D01*
X463630D01*
Y248976D01*
X463758D01*
X463884Y248787D01*
Y247213D01*
X463758Y247024D01*
X463630D01*
Y245918D01*
X460000D01*
X459649Y245848D01*
X459351Y245649D01*
X457351Y243649D01*
X457152Y243351D01*
X457082Y243000D01*
Y212380D01*
X454620Y209918D01*
X452810D01*
X452614Y210212D01*
X452058Y210584D01*
X451402Y210714D01*
X448055D01*
X447399Y210584D01*
X446843Y210212D01*
X446472Y209656D01*
X446341Y209000D01*
X446472Y208344D01*
X446560Y208212D01*
X446293Y207711D01*
X442337Y207692D01*
X437918Y212111D01*
Y255000D01*
X437848Y255351D01*
X437649Y255649D01*
X432649Y260649D01*
X432351Y260848D01*
X432000Y260918D01*
X422380D01*
X417649Y265649D01*
X417351Y265848D01*
X417000Y265918D01*
X414370D01*
Y267717D01*
X409630D01*
Y266264D01*
X406370D01*
Y267717D01*
X401630D01*
Y266264D01*
X396346D01*
X395995Y266194D01*
X395698Y265995D01*
X390253Y260551D01*
X389824Y260808D01*
X389892Y261030D01*
X389938Y261500D01*
X383500D01*
Y255062D01*
X383970Y255108D01*
X384192Y255176D01*
X384449Y254747D01*
X379620Y249918D01*
X373922D01*
X373871Y250305D01*
X373368Y251522D01*
X372566Y252566D01*
X371522Y253367D01*
X370305Y253871D01*
X369000Y254043D01*
X367695Y253871D01*
X366478Y253367D01*
X365434Y252566D01*
X364633Y251522D01*
X364129Y250305D01*
X364078Y249918D01*
X325437D01*
Y253437D01*
X316563D01*
Y244563D01*
X325437D01*
Y248082D01*
X364078D01*
X364129Y247695D01*
X364633Y246478D01*
X365434Y245434D01*
X366478Y244633D01*
X367695Y244129D01*
X369000Y243957D01*
X370305Y244129D01*
X371522Y244633D01*
X372566Y245434D01*
X373368Y246478D01*
X373871Y247695D01*
X373922Y248082D01*
X380000D01*
X380351Y248152D01*
X380649Y248351D01*
X396727Y264429D01*
X401630D01*
Y262976D01*
X401758D01*
X401884Y262787D01*
Y261213D01*
X401758Y261024D01*
X401630D01*
Y256283D01*
X403082D01*
Y253716D01*
X401630D01*
Y248976D01*
X401758D01*
X401884Y248787D01*
Y247213D01*
X401758Y247024D01*
X401630D01*
Y242284D01*
X403082D01*
Y239717D01*
X401630D01*
Y234976D01*
X401758D01*
X401884Y234787D01*
Y233213D01*
X401758Y233024D01*
X401630D01*
Y228284D01*
X403082D01*
Y225672D01*
X402630Y225370D01*
X402210Y224741D01*
X402063Y224000D01*
X402210Y223259D01*
X402630Y222630D01*
X403259Y222210D01*
X404000Y222063D01*
X404741Y222210D01*
X405370Y222630D01*
X405790Y223259D01*
X405937Y224000D01*
X405790Y224741D01*
X405370Y225370D01*
X404918Y225672D01*
Y228284D01*
X406370D01*
Y229736D01*
X409630D01*
Y228284D01*
X414370D01*
Y233024D01*
X414242D01*
X414116Y233213D01*
Y234787D01*
X414242Y234976D01*
X414370D01*
Y237097D01*
X412000D01*
X409630D01*
Y234976D01*
X409758D01*
X409884Y234787D01*
Y233213D01*
X409758Y233024D01*
X409630D01*
Y231571D01*
X406370D01*
Y233024D01*
X406242D01*
X406116Y233213D01*
Y234787D01*
X406242Y234976D01*
X406370D01*
Y239717D01*
X404918D01*
Y242284D01*
X406370D01*
Y243736D01*
X409630D01*
Y242284D01*
X414370D01*
Y243736D01*
X416966D01*
X418082Y242620D01*
Y212000D01*
X418152Y211649D01*
X418351Y211351D01*
X421351Y208351D01*
X421649Y208152D01*
X422000Y208082D01*
X425190D01*
X425386Y207788D01*
X425943Y207416D01*
X426598Y207286D01*
X429945D01*
X430601Y207416D01*
X431157Y207788D01*
X431528Y208344D01*
X431659Y209000D01*
X431528Y209656D01*
X431157Y210212D01*
X430601Y210584D01*
X429945Y210714D01*
X426598D01*
X425943Y210584D01*
X425386Y210212D01*
X425190Y209918D01*
X422380D01*
X419918Y212380D01*
Y243000D01*
X419848Y243351D01*
X419649Y243649D01*
X417995Y245302D01*
X417698Y245501D01*
X417346Y245571D01*
X414370D01*
Y247024D01*
X414242D01*
X414116Y247213D01*
Y248787D01*
X414242Y248976D01*
X414370D01*
Y251097D01*
X412000D01*
X409630D01*
Y248976D01*
X409758D01*
X409884Y248787D01*
Y247213D01*
X409758Y247024D01*
X409630D01*
Y245571D01*
X406370D01*
Y247024D01*
X406242D01*
X406116Y247213D01*
Y248787D01*
X406242Y248976D01*
X406370D01*
Y253716D01*
X404918D01*
Y256283D01*
X405419D01*
X407351Y254351D01*
X407649Y254152D01*
X408000Y254082D01*
X409306D01*
X409630Y253716D01*
Y251596D01*
X412000D01*
X414370D01*
Y253716D01*
X414694Y254082D01*
X418620D01*
X421082Y251620D01*
Y216000D01*
X421152Y215649D01*
X421351Y215351D01*
X423351Y213351D01*
X423649Y213152D01*
X424000Y213082D01*
X425190D01*
X425386Y212788D01*
X425943Y212416D01*
X426598Y212286D01*
X429945D01*
X430601Y212416D01*
X431157Y212788D01*
X431528Y213344D01*
X431659Y214000D01*
X431528Y214656D01*
X431157Y215212D01*
X430601Y215584D01*
X429945Y215714D01*
X426598D01*
X425943Y215584D01*
X425386Y215212D01*
X425190Y214918D01*
X424380D01*
X422918Y216380D01*
Y252000D01*
X422848Y252351D01*
X422649Y252649D01*
X419649Y255649D01*
X419351Y255848D01*
X419000Y255918D01*
X414694D01*
X414370Y256283D01*
Y258403D01*
X412000D01*
X409630D01*
Y256283D01*
X409306Y255918D01*
X408380D01*
X406370Y257928D01*
Y261024D01*
X406242D01*
X406116Y261213D01*
Y262787D01*
X406242Y262976D01*
X406370D01*
Y264429D01*
X409630D01*
Y262976D01*
X409758D01*
X409884Y262787D01*
Y261213D01*
X409758Y261024D01*
X409630D01*
Y258904D01*
X412000D01*
X414370D01*
Y261024D01*
X414242D01*
X414116Y261213D01*
Y262787D01*
X414242Y262976D01*
X414370D01*
Y264082D01*
X416620D01*
X421351Y259351D01*
X421649Y259152D01*
X422000Y259082D01*
X431620D01*
X436082Y254620D01*
Y212000D01*
X436152Y211649D01*
X436351Y211351D01*
X436418Y211306D01*
X436423Y211299D01*
X441424Y206298D01*
X441425Y206297D01*
X441427Y206295D01*
X441558Y206208D01*
X441688Y206121D01*
X441690Y206121D01*
X441692Y206120D01*
X441845Y206090D01*
X442001Y206059D01*
X442002Y206060D01*
X442004Y206059D01*
X447354Y206084D01*
X447404Y205585D01*
X447399Y205584D01*
X446843Y205212D01*
X446472Y204656D01*
X446341Y204000D01*
X446472Y203344D01*
X446843Y202788D01*
X447399Y202416D01*
X448055Y202286D01*
X451402D01*
X452058Y202416D01*
X452614Y202788D01*
X452810Y203082D01*
X457328D01*
X457630Y202630D01*
X458259Y202210D01*
X459000Y202063D01*
X459741Y202210D01*
X460370Y202630D01*
X460790Y203259D01*
X460937Y204000D01*
X460790Y204741D01*
X460370Y205370D01*
X459961Y205643D01*
X460111Y206144D01*
X468355Y206183D01*
X468400Y206152D01*
X468751Y206082D01*
X468764D01*
X473641Y201205D01*
X473652Y201149D01*
X473851Y200851D01*
X474149Y200652D01*
X474500Y200582D01*
X506190D01*
X506386Y200288D01*
X506943Y199916D01*
X507598Y199786D01*
X510945D01*
X511601Y199916D01*
X512157Y200288D01*
X512528Y200844D01*
X512659Y201500D01*
X512528Y202156D01*
X512157Y202712D01*
X511601Y203084D01*
X510945Y203214D01*
X507598D01*
X506943Y203084D01*
X506386Y202712D01*
X506190Y202418D01*
X474736D01*
X469859Y207295D01*
X469848Y207351D01*
X469649Y207649D01*
X469351Y207848D01*
X469000Y207918D01*
X468751D01*
X468400Y207848D01*
X468349Y207814D01*
X455656Y207754D01*
X455503Y208254D01*
X455649Y208351D01*
X458649Y211351D01*
X458848Y211649D01*
X458918Y212000D01*
Y242620D01*
X460380Y244082D01*
X463630D01*
Y242284D01*
X468370D01*
Y243736D01*
X471630D01*
Y242284D01*
X473082D01*
Y239717D01*
X471630D01*
Y234976D01*
X471758D01*
X471884Y234787D01*
Y233213D01*
X471758Y233024D01*
X471630D01*
Y231571D01*
X468370D01*
Y233024D01*
X468242D01*
X468116Y233213D01*
Y234787D01*
X468242Y234976D01*
X468370D01*
Y237097D01*
X466000D01*
X463630D01*
Y234976D01*
X463758D01*
X463884Y234787D01*
Y233213D01*
X463758Y233024D01*
X463630D01*
Y228284D01*
X468370D01*
Y229736D01*
X471630D01*
Y228284D01*
X473082D01*
Y225672D01*
X472630Y225370D01*
X472210Y224741D01*
X472063Y224000D01*
X472210Y223259D01*
X472630Y222630D01*
X473259Y222210D01*
X474000Y222063D01*
X474741Y222210D01*
X475370Y222630D01*
X475790Y223259D01*
X475937Y224000D01*
X475790Y224741D01*
X475370Y225370D01*
X474918Y225672D01*
Y228284D01*
X476370D01*
Y233024D01*
X476242D01*
X476116Y233213D01*
Y234787D01*
X476242Y234976D01*
X476370D01*
Y239717D01*
X474918D01*
Y242284D01*
X476370D01*
Y247024D01*
X476242D01*
X476116Y247213D01*
Y248787D01*
X476242Y248976D01*
X476370D01*
Y253716D01*
X474918D01*
Y256283D01*
X476370D01*
Y261024D01*
X476242D01*
X476116Y261213D01*
Y262787D01*
X476242Y262976D01*
X476370D01*
Y264082D01*
X480620D01*
X496351Y248351D01*
X496649Y248152D01*
X497000Y248082D01*
X504078D01*
X504129Y247695D01*
X504633Y246478D01*
X505434Y245434D01*
X506478Y244633D01*
X507695Y244129D01*
X508082Y244078D01*
Y208214D01*
X507598D01*
X506943Y208084D01*
X506386Y207712D01*
X506015Y207156D01*
X505884Y206500D01*
X506015Y205844D01*
X506386Y205288D01*
X506943Y204916D01*
X507598Y204786D01*
X510945D01*
X511601Y204916D01*
X512157Y205288D01*
X512528Y205844D01*
X512659Y206500D01*
X512528Y207156D01*
X512157Y207712D01*
X511601Y208084D01*
X510945Y208214D01*
X509918D01*
Y244078D01*
X510305Y244129D01*
X511522Y244633D01*
X512566Y245434D01*
X513368Y246478D01*
X513871Y247695D01*
X514043Y249000D01*
X513871Y250305D01*
X513368Y251522D01*
X512566Y252566D01*
X511522Y253367D01*
X510305Y253871D01*
X509000Y254043D01*
X507695Y253871D01*
X506478Y253367D01*
X505434Y252566D01*
X504633Y251522D01*
X504129Y250305D01*
X504078Y249918D01*
X497380D01*
X491996Y255302D01*
X492297Y255708D01*
X492616Y255537D01*
X494030Y255108D01*
X494500Y255062D01*
Y261500D01*
X488062D01*
X488108Y261030D01*
X488537Y259616D01*
X488708Y259297D01*
X488302Y258996D01*
X481649Y265649D01*
X481351Y265848D01*
X481000Y265918D01*
X476370D01*
Y267717D01*
X471630D01*
Y266264D01*
X468370D01*
Y267717D01*
X463630D01*
Y266264D01*
X422034D01*
X417649Y270649D01*
X417351Y270848D01*
X417000Y270918D01*
D02*
G37*
G36*
X529938Y261500D02*
X523500D01*
Y255062D01*
X523970Y255108D01*
X525384Y255537D01*
X526687Y256234D01*
X527829Y257171D01*
X528766Y258313D01*
X529463Y259616D01*
X529891Y261030D01*
X529938Y261500D01*
D02*
G37*
G36*
X502938D02*
X496500D01*
Y255062D01*
X496970Y255108D01*
X498384Y255537D01*
X499687Y256234D01*
X500829Y257171D01*
X501766Y258313D01*
X502463Y259616D01*
X502891Y261030D01*
X502938Y261500D01*
D02*
G37*
G36*
X381500D02*
X375062D01*
X375109Y261030D01*
X375537Y259616D01*
X376234Y258313D01*
X377171Y257171D01*
X378313Y256234D01*
X379616Y255537D01*
X381030Y255108D01*
X381500Y255062D01*
Y261500D01*
D02*
G37*
G36*
X362938D02*
X356500D01*
Y255062D01*
X356970Y255108D01*
X358384Y255537D01*
X359687Y256234D01*
X360829Y257171D01*
X361766Y258313D01*
X362463Y259616D01*
X362892Y261030D01*
X362938Y261500D01*
D02*
G37*
G36*
X354500D02*
X348062D01*
X348109Y261030D01*
X348537Y259616D01*
X349234Y258313D01*
X350171Y257171D01*
X351313Y256234D01*
X352616Y255537D01*
X354030Y255108D01*
X354500Y255062D01*
Y261500D01*
D02*
G37*
G36*
X521500D02*
X515062D01*
X515108Y261030D01*
X515537Y259616D01*
X516234Y258313D01*
X517171Y257171D01*
X518313Y256234D01*
X519616Y255537D01*
X521030Y255108D01*
X521500Y255062D01*
Y261500D01*
D02*
G37*
G36*
X676500Y252500D02*
X669500D01*
Y245500D01*
X676500D01*
Y252500D01*
D02*
G37*
G36*
X653000Y252530D02*
X652086Y252410D01*
X651235Y252057D01*
X650504Y251496D01*
X649943Y250765D01*
X649590Y249914D01*
X649470Y249000D01*
X649590Y248086D01*
X649943Y247235D01*
X650504Y246504D01*
X651235Y245943D01*
X652086Y245590D01*
X653000Y245470D01*
X653914Y245590D01*
X654765Y245943D01*
X655496Y246504D01*
X656057Y247235D01*
X656410Y248086D01*
X656530Y249000D01*
X656410Y249914D01*
X656057Y250765D01*
X655496Y251496D01*
X654765Y252057D01*
X653914Y252410D01*
X653000Y252530D01*
D02*
G37*
G36*
X596917Y257884D02*
X585250D01*
Y245429D01*
X596917D01*
Y257884D01*
D02*
G37*
G36*
X584750D02*
X573083D01*
Y245429D01*
X584750D01*
Y257884D01*
D02*
G37*
G36*
X468370Y239717D02*
X466250D01*
Y237597D01*
X468370D01*
Y239717D01*
D02*
G37*
G36*
X414370D02*
X412250D01*
Y237597D01*
X414370D01*
Y239717D01*
D02*
G37*
G36*
X465750D02*
X463630D01*
Y237597D01*
X465750D01*
Y239717D01*
D02*
G37*
G36*
X411750D02*
X409630D01*
Y237597D01*
X411750D01*
Y239717D01*
D02*
G37*
G36*
X496500Y242938D02*
Y236500D01*
X502938D01*
X502891Y236970D01*
X502463Y238384D01*
X501766Y239687D01*
X500829Y240829D01*
X499687Y241766D01*
X498384Y242463D01*
X496970Y242892D01*
X496500Y242938D01*
D02*
G37*
G36*
X523500D02*
Y236500D01*
X529938D01*
X529891Y236970D01*
X529463Y238384D01*
X528766Y239687D01*
X527829Y240829D01*
X526687Y241766D01*
X525384Y242463D01*
X523970Y242892D01*
X523500Y242938D01*
D02*
G37*
G36*
X383500D02*
Y236500D01*
X389938D01*
X389892Y236970D01*
X389463Y238384D01*
X388766Y239687D01*
X387829Y240829D01*
X386687Y241766D01*
X385384Y242463D01*
X383970Y242892D01*
X383500Y242938D01*
D02*
G37*
G36*
X381500D02*
X381030Y242892D01*
X379616Y242463D01*
X378313Y241766D01*
X377171Y240829D01*
X376234Y239687D01*
X375537Y238384D01*
X375109Y236970D01*
X375062Y236500D01*
X381500D01*
Y242938D01*
D02*
G37*
G36*
X356500D02*
Y236500D01*
X362938D01*
X362892Y236970D01*
X362463Y238384D01*
X361766Y239687D01*
X360829Y240829D01*
X359687Y241766D01*
X358384Y242463D01*
X356970Y242892D01*
X356500Y242938D01*
D02*
G37*
G36*
X354500D02*
X354030Y242892D01*
X352616Y242463D01*
X351313Y241766D01*
X350171Y240829D01*
X349234Y239687D01*
X348537Y238384D01*
X348109Y236970D01*
X348062Y236500D01*
X354500D01*
Y242938D01*
D02*
G37*
G36*
X494500D02*
X494030Y242892D01*
X492616Y242463D01*
X491313Y241766D01*
X490171Y240829D01*
X489234Y239687D01*
X488537Y238384D01*
X488108Y236970D01*
X488062Y236500D01*
X494500D01*
Y242938D01*
D02*
G37*
G36*
X521500D02*
X521030Y242892D01*
X519616Y242463D01*
X518313Y241766D01*
X517171Y240829D01*
X516234Y239687D01*
X515537Y238384D01*
X515108Y236970D01*
X515062Y236500D01*
X521500D01*
Y242938D01*
D02*
G37*
G36*
X606370Y235717D02*
X604250D01*
Y233596D01*
X606370D01*
Y235717D01*
D02*
G37*
G36*
X568370D02*
X566250D01*
Y233596D01*
X568370D01*
Y235717D01*
D02*
G37*
G36*
X565750D02*
X563630D01*
Y233596D01*
X565750D01*
Y235717D01*
D02*
G37*
G36*
X586075Y232075D02*
X584250D01*
Y230250D01*
X586075D01*
Y232075D01*
D02*
G37*
G36*
X583750D02*
X581925D01*
Y230250D01*
X583750D01*
Y232075D01*
D02*
G37*
G36*
X529938Y234500D02*
X523500D01*
Y228062D01*
X523970Y228109D01*
X525384Y228537D01*
X526687Y229234D01*
X527829Y230171D01*
X528766Y231313D01*
X529463Y232616D01*
X529891Y234030D01*
X529938Y234500D01*
D02*
G37*
G36*
X502938D02*
X496500D01*
Y228062D01*
X496970Y228109D01*
X498384Y228537D01*
X499687Y229234D01*
X500829Y230171D01*
X501766Y231313D01*
X502463Y232616D01*
X502891Y234030D01*
X502938Y234500D01*
D02*
G37*
G36*
X389938D02*
X383500D01*
Y228062D01*
X383970Y228109D01*
X385384Y228537D01*
X386687Y229234D01*
X387829Y230171D01*
X388766Y231313D01*
X389463Y232616D01*
X389892Y234030D01*
X389938Y234500D01*
D02*
G37*
G36*
X381500D02*
X375062D01*
X375109Y234030D01*
X375537Y232616D01*
X376234Y231313D01*
X377171Y230171D01*
X378313Y229234D01*
X379616Y228537D01*
X381030Y228109D01*
X381500Y228062D01*
Y234500D01*
D02*
G37*
G36*
X362938D02*
X356500D01*
Y228062D01*
X356970Y228109D01*
X358384Y228537D01*
X359687Y229234D01*
X360829Y230171D01*
X361766Y231313D01*
X362463Y232616D01*
X362892Y234030D01*
X362938Y234500D01*
D02*
G37*
G36*
X354500D02*
X348062D01*
X348109Y234030D01*
X348537Y232616D01*
X349234Y231313D01*
X350171Y230171D01*
X351313Y229234D01*
X352616Y228537D01*
X354030Y228109D01*
X354500Y228062D01*
Y234500D01*
D02*
G37*
G36*
X521500D02*
X515062D01*
X515108Y234030D01*
X515537Y232616D01*
X516234Y231313D01*
X517171Y230171D01*
X518313Y229234D01*
X519616Y228537D01*
X521030Y228109D01*
X521500Y228062D01*
Y234500D01*
D02*
G37*
G36*
X494500D02*
X488062D01*
X488108Y234030D01*
X488537Y232616D01*
X489234Y231313D01*
X490171Y230171D01*
X491313Y229234D01*
X492616Y228537D01*
X494030Y228109D01*
X494500Y228062D01*
Y234500D01*
D02*
G37*
G36*
X586075Y229750D02*
X584250D01*
Y227925D01*
X586075D01*
Y229750D01*
D02*
G37*
G36*
X583750D02*
X581925D01*
Y227925D01*
X583750D01*
Y229750D01*
D02*
G37*
G36*
X579634Y236272D02*
X572335D01*
Y227571D01*
X568370D01*
Y229024D01*
X568242D01*
X568116Y229213D01*
Y230787D01*
X568242Y230976D01*
X568370D01*
Y233097D01*
X566000D01*
X563630D01*
Y230976D01*
X563758D01*
X563884Y230787D01*
Y229213D01*
X563758Y229024D01*
X563630D01*
Y224284D01*
X568370D01*
Y225736D01*
X572335D01*
Y223461D01*
X579202D01*
X585312Y217351D01*
X585609Y217152D01*
X585961Y217082D01*
X586328D01*
X586630Y216630D01*
X587259Y216210D01*
X588000Y216063D01*
X588741Y216210D01*
X589370Y216630D01*
X589790Y217259D01*
X589937Y218000D01*
X589790Y218741D01*
X589370Y219370D01*
X588741Y219790D01*
X588000Y219937D01*
X587259Y219790D01*
X586630Y219370D01*
X586552Y219253D01*
X586055Y219204D01*
X579634Y225624D01*
Y236272D01*
D02*
G37*
G36*
X607000Y238418D02*
X602000D01*
X601649Y238348D01*
X601351Y238149D01*
X598851Y235649D01*
X598652Y235351D01*
X598582Y235000D01*
Y233605D01*
X598230Y233370D01*
X598165Y233273D01*
X597665Y233424D01*
Y236272D01*
X590366D01*
Y223461D01*
X597665D01*
Y225634D01*
X601630D01*
Y224284D01*
X602980D01*
Y220604D01*
X602630Y220370D01*
X602210Y219741D01*
X602063Y219000D01*
X602210Y218259D01*
X602630Y217630D01*
X603259Y217210D01*
X604000Y217063D01*
X604741Y217210D01*
X605370Y217630D01*
X605790Y218259D01*
X605937Y219000D01*
X605790Y219741D01*
X605370Y220370D01*
X605020Y220604D01*
Y224284D01*
X606370D01*
Y229024D01*
X606242D01*
X606116Y229213D01*
Y230787D01*
X606242Y230976D01*
X606370D01*
Y233097D01*
X604000D01*
Y233347D01*
X603750D01*
Y235717D01*
X602221D01*
X602014Y236216D01*
X602380Y236582D01*
X606620D01*
X610082Y233120D01*
Y218380D01*
X602620Y210918D01*
X600672D01*
X600370Y211370D01*
X599741Y211790D01*
X599000Y211937D01*
X598259Y211790D01*
X597630Y211370D01*
X597417Y211051D01*
X596917Y211203D01*
Y214839D01*
X573083D01*
Y189429D01*
X595475D01*
X602980Y181924D01*
Y178816D01*
X601630D01*
Y174076D01*
X601758D01*
X601884Y173887D01*
Y172313D01*
X601758Y172124D01*
X601630D01*
Y170003D01*
X604000D01*
X606370D01*
Y172124D01*
X606242D01*
X606116Y172313D01*
Y173887D01*
X606242Y174076D01*
X606370D01*
Y175427D01*
X668686D01*
X669076Y175505D01*
X669407Y175725D01*
X672483Y178802D01*
X673304Y178462D01*
X674257Y178337D01*
X675210Y178462D01*
X676097Y178830D01*
X676860Y179415D01*
X677445Y180177D01*
X677813Y181065D01*
X677938Y182018D01*
X677813Y182970D01*
X677445Y183858D01*
X676860Y184620D01*
X676097Y185205D01*
X675210Y185573D01*
X674257Y185699D01*
X673304Y185573D01*
X672416Y185205D01*
X671654Y184620D01*
X671069Y183858D01*
X670701Y182970D01*
X670576Y182018D01*
X670701Y181065D01*
X671041Y180244D01*
X668263Y177466D01*
X606370D01*
Y178816D01*
X605020D01*
Y182346D01*
X604942Y182737D01*
X604721Y183067D01*
X596917Y190871D01*
Y208797D01*
X597417Y208949D01*
X597630Y208630D01*
X598259Y208210D01*
X599000Y208063D01*
X599741Y208210D01*
X600370Y208630D01*
X600672Y209082D01*
X603000D01*
X603351Y209152D01*
X603649Y209351D01*
X611649Y217351D01*
X611848Y217649D01*
X611918Y218000D01*
Y233500D01*
X611848Y233851D01*
X611649Y234149D01*
X607649Y238149D01*
X607351Y238348D01*
X607000Y238418D01*
D02*
G37*
G36*
X631650Y215650D02*
X624350D01*
Y208350D01*
X631650D01*
Y215650D01*
D02*
G37*
G36*
X532402Y208214D02*
X530978D01*
Y206750D01*
X534066D01*
X533985Y207156D01*
X533614Y207712D01*
X533057Y208084D01*
X532402Y208214D01*
D02*
G37*
G36*
X530478D02*
X529055D01*
X528399Y208084D01*
X527843Y207712D01*
X527472Y207156D01*
X527391Y206750D01*
X530478D01*
Y208214D01*
D02*
G37*
G36*
X534066Y206250D02*
X530978D01*
Y204786D01*
X532402D01*
X533057Y204916D01*
X533614Y205288D01*
X533985Y205844D01*
X534066Y206250D01*
D02*
G37*
G36*
X530478D02*
X527391D01*
X527472Y205844D01*
X527843Y205288D01*
X528399Y204916D01*
X529055Y204786D01*
X530478D01*
Y206250D01*
D02*
G37*
G36*
X419000Y205937D02*
X418259Y205790D01*
X417630Y205370D01*
X417210Y204741D01*
X417063Y204000D01*
X417210Y203259D01*
X417630Y202630D01*
X418259Y202210D01*
X419000Y202063D01*
X419741Y202210D01*
X420370Y202630D01*
X420672Y203082D01*
X425190D01*
X425386Y202788D01*
X425943Y202416D01*
X426598Y202286D01*
X429945D01*
X430601Y202416D01*
X431157Y202788D01*
X431528Y203344D01*
X431659Y204000D01*
X431528Y204656D01*
X431157Y205212D01*
X430601Y205584D01*
X429945Y205714D01*
X426598D01*
X425943Y205584D01*
X425386Y205212D01*
X425190Y204918D01*
X420672D01*
X420370Y205370D01*
X419741Y205790D01*
X419000Y205937D01*
D02*
G37*
G36*
X532402Y203214D02*
X530978D01*
Y201750D01*
X534066D01*
X533985Y202156D01*
X533614Y202712D01*
X533057Y203084D01*
X532402Y203214D01*
D02*
G37*
G36*
X530478D02*
X529055D01*
X528399Y203084D01*
X527843Y202712D01*
X527472Y202156D01*
X527391Y201750D01*
X530478D01*
Y203214D01*
D02*
G37*
G36*
X467097Y201370D02*
X464976D01*
Y201242D01*
X464787Y201116D01*
X463213D01*
X463024Y201242D01*
Y201370D01*
X458284D01*
Y199918D01*
X452810D01*
X452614Y200212D01*
X452058Y200584D01*
X451402Y200714D01*
X448055D01*
X447399Y200584D01*
X446843Y200212D01*
X446472Y199656D01*
X446341Y199000D01*
X446472Y198344D01*
X446843Y197788D01*
X447399Y197416D01*
X448055Y197286D01*
X451402D01*
X452058Y197416D01*
X452614Y197788D01*
X452810Y198082D01*
X458284D01*
Y196630D01*
X459370D01*
X459506Y196311D01*
X459150Y195907D01*
X459000Y195937D01*
X458259Y195790D01*
X457630Y195370D01*
X457328Y194918D01*
X452810D01*
X452614Y195212D01*
X452058Y195584D01*
X451402Y195714D01*
X448055D01*
X447399Y195584D01*
X446843Y195212D01*
X446472Y194656D01*
X446341Y194000D01*
X446472Y193344D01*
X446843Y192788D01*
X447399Y192416D01*
X448055Y192286D01*
X451402D01*
X452058Y192416D01*
X452614Y192788D01*
X452810Y193082D01*
X457328D01*
X457630Y192630D01*
X458259Y192210D01*
X459000Y192063D01*
X459741Y192210D01*
X460370Y192630D01*
X460790Y193259D01*
X460937Y194000D01*
X460923Y194072D01*
X461384Y194319D01*
X477351Y178351D01*
X477649Y178152D01*
X478000Y178082D01*
X479328D01*
X479630Y177630D01*
X479948Y177418D01*
X479797Y176918D01*
X476380D01*
X472831Y180467D01*
X472937Y181000D01*
X472790Y181741D01*
X472370Y182370D01*
X471741Y182790D01*
X471000Y182937D01*
X470259Y182790D01*
X469630Y182370D01*
X469210Y181741D01*
X469063Y181000D01*
X469210Y180259D01*
X469630Y179630D01*
X470259Y179210D01*
X471000Y179063D01*
X471533Y179169D01*
X474319Y176384D01*
X474072Y175923D01*
X474000Y175937D01*
X473259Y175790D01*
X472630Y175370D01*
X472210Y174741D01*
X472063Y174000D01*
X472210Y173259D01*
X472630Y172630D01*
X473082Y172328D01*
Y169717D01*
X471630D01*
Y168264D01*
X468370D01*
Y169717D01*
X463630D01*
Y164976D01*
X463758D01*
X463884Y164787D01*
Y163213D01*
X463758Y163024D01*
X463630D01*
Y160904D01*
X466000D01*
X468370D01*
Y163024D01*
X468242D01*
X468116Y163213D01*
Y164787D01*
X468242Y164976D01*
X468370D01*
Y166429D01*
X471630D01*
Y164976D01*
X471758D01*
X471884Y164787D01*
Y163213D01*
X471758Y163024D01*
X471630D01*
Y158283D01*
X473082D01*
Y155717D01*
X471630D01*
Y154264D01*
X468370D01*
Y155717D01*
X463630D01*
Y153918D01*
X461380D01*
X459918Y155380D01*
Y186000D01*
X459848Y186351D01*
X459649Y186649D01*
X456649Y189649D01*
X456351Y189848D01*
X456000Y189918D01*
X452810D01*
X452614Y190212D01*
X452058Y190584D01*
X451402Y190714D01*
X448055D01*
X447399Y190584D01*
X446843Y190212D01*
X446472Y189656D01*
X446341Y189000D01*
X446472Y188344D01*
X446843Y187788D01*
X447399Y187416D01*
X448055Y187286D01*
X451402D01*
X452058Y187416D01*
X452614Y187788D01*
X452810Y188082D01*
X455620D01*
X458082Y185620D01*
Y155000D01*
X458152Y154649D01*
X458351Y154351D01*
X460351Y152351D01*
X460649Y152152D01*
X461000Y152082D01*
X463630D01*
Y150976D01*
X463758D01*
X463884Y150787D01*
Y149213D01*
X463758Y149024D01*
X463630D01*
Y146904D01*
X466000D01*
X468370D01*
Y149024D01*
X468242D01*
X468116Y149213D01*
Y150787D01*
X468242Y150976D01*
X468370D01*
Y152429D01*
X471630D01*
Y150976D01*
X471758D01*
X471884Y150787D01*
Y149213D01*
X471758Y149024D01*
X471630D01*
Y144283D01*
X473082D01*
Y141717D01*
X472581D01*
X470649Y143649D01*
X470351Y143848D01*
X470000Y143918D01*
X468694D01*
X468370Y144283D01*
Y146404D01*
X466000D01*
X463630D01*
Y144283D01*
X463306Y143918D01*
X459380D01*
X456918Y146380D01*
Y182000D01*
X456848Y182351D01*
X456649Y182649D01*
X454649Y184649D01*
X454351Y184848D01*
X454000Y184918D01*
X452810D01*
X452614Y185212D01*
X452058Y185584D01*
X451402Y185714D01*
X448055D01*
X447399Y185584D01*
X446843Y185212D01*
X446472Y184656D01*
X446341Y184000D01*
X446472Y183344D01*
X446843Y182788D01*
X447399Y182416D01*
X448055Y182286D01*
X451402D01*
X452058Y182416D01*
X452614Y182788D01*
X452810Y183082D01*
X453620D01*
X455082Y181620D01*
Y146000D01*
X455152Y145649D01*
X455351Y145351D01*
X458351Y142351D01*
X458649Y142152D01*
X459000Y142082D01*
X463306D01*
X463630Y141717D01*
Y139596D01*
X466000D01*
X468370D01*
Y141717D01*
X468694Y142082D01*
X469620D01*
X471630Y140072D01*
Y136976D01*
X471758D01*
X471884Y136787D01*
Y135213D01*
X471758Y135024D01*
X471630D01*
Y133571D01*
X468370D01*
Y135024D01*
X468242D01*
X468116Y135213D01*
Y136787D01*
X468242Y136976D01*
X468370D01*
Y139096D01*
X466000D01*
X463630D01*
Y136976D01*
X463758D01*
X463884Y136787D01*
Y135213D01*
X463758Y135024D01*
X463630D01*
Y133571D01*
X422653D01*
X422302Y133501D01*
X422005Y133302D01*
X414620Y125918D01*
X350380D01*
X335649Y140649D01*
X335351Y140848D01*
X335000Y140918D01*
X315380D01*
X310918Y145380D01*
Y184620D01*
X315325Y189027D01*
X316646D01*
X316677Y188787D01*
X317124Y187707D01*
X317835Y186780D01*
X318762Y186069D01*
X319842Y185622D01*
X321000Y185470D01*
X322158Y185622D01*
X323238Y186069D01*
X324165Y186780D01*
X324876Y187707D01*
X325323Y188787D01*
X325475Y189945D01*
X325323Y191103D01*
X324876Y192183D01*
X324165Y193109D01*
X323238Y193821D01*
X322158Y194268D01*
X321000Y194420D01*
X319842Y194268D01*
X318762Y193821D01*
X317835Y193109D01*
X317124Y192183D01*
X316677Y191103D01*
X316646Y190863D01*
X314945D01*
X314594Y190793D01*
X314296Y190594D01*
X309351Y185649D01*
X309152Y185351D01*
X309082Y185000D01*
Y145000D01*
X309152Y144649D01*
X309351Y144351D01*
X314351Y139351D01*
X314649Y139152D01*
X315000Y139082D01*
X334620D01*
X349351Y124351D01*
X349649Y124152D01*
X350000Y124082D01*
X415000D01*
X415351Y124152D01*
X415649Y124351D01*
X423034Y131736D01*
X463630D01*
Y130283D01*
X468370D01*
Y131736D01*
X471630D01*
Y130283D01*
X476370D01*
Y131736D01*
X480653D01*
X481005Y131806D01*
X481302Y132005D01*
X488302Y139004D01*
X488708Y138703D01*
X488537Y138384D01*
X488108Y136970D01*
X488062Y136500D01*
X494500D01*
Y142938D01*
X494030Y142892D01*
X492616Y142463D01*
X492297Y142292D01*
X491996Y142698D01*
X497380Y148082D01*
X504078D01*
X504129Y147695D01*
X504633Y146478D01*
X505434Y145434D01*
X506478Y144632D01*
X507695Y144129D01*
X509000Y143957D01*
X510305Y144129D01*
X511522Y144632D01*
X512566Y145434D01*
X513368Y146478D01*
X513871Y147695D01*
X514043Y149000D01*
X513871Y150305D01*
X513368Y151522D01*
X512566Y152566D01*
X511522Y153367D01*
X510305Y153871D01*
X510189Y153887D01*
Y189786D01*
X510945D01*
X511601Y189916D01*
X512157Y190288D01*
X512528Y190844D01*
X512659Y191500D01*
X512528Y192156D01*
X512157Y192712D01*
X511601Y193084D01*
X510945Y193214D01*
X507598D01*
X506943Y193084D01*
X506386Y192712D01*
X506015Y192156D01*
X505884Y191500D01*
X506015Y190844D01*
X506386Y190288D01*
X506943Y189916D01*
X507598Y189786D01*
X508354D01*
Y153958D01*
X507695Y153871D01*
X506478Y153367D01*
X505434Y152566D01*
X504633Y151522D01*
X504129Y150305D01*
X504078Y149918D01*
X497000D01*
X496649Y149848D01*
X496351Y149649D01*
X480273Y133571D01*
X476370D01*
Y135024D01*
X476242D01*
X476116Y135213D01*
Y136787D01*
X476242Y136976D01*
X476370D01*
Y141717D01*
X474918D01*
Y144283D01*
X476370D01*
Y149024D01*
X476242D01*
X476116Y149213D01*
Y150787D01*
X476242Y150976D01*
X476370D01*
Y155717D01*
X474918D01*
Y158283D01*
X476370D01*
Y163024D01*
X476242D01*
X476116Y163213D01*
Y164787D01*
X476242Y164976D01*
X476370D01*
Y169717D01*
X474918D01*
Y172328D01*
X475370Y172630D01*
X475790Y173259D01*
X475937Y174000D01*
X475816Y174609D01*
X475872Y174752D01*
X476020Y174952D01*
X476163Y175082D01*
X491000D01*
X491351Y175152D01*
X491649Y175351D01*
X495649Y179351D01*
X495848Y179649D01*
X495918Y180000D01*
Y192620D01*
X498380Y195082D01*
X506366D01*
X506619Y195133D01*
X506943Y194916D01*
X507598Y194786D01*
X510945D01*
X511601Y194916D01*
X512157Y195288D01*
X512528Y195844D01*
X512659Y196500D01*
X512528Y197156D01*
X512157Y197712D01*
X511601Y198084D01*
X510945Y198214D01*
X507598D01*
X506943Y198084D01*
X506386Y197712D01*
X506015Y197156D01*
X505968Y196918D01*
X498000D01*
X497649Y196848D01*
X497351Y196649D01*
X494351Y193649D01*
X494152Y193351D01*
X494082Y193000D01*
Y180380D01*
X490620Y176918D01*
X482203D01*
X482052Y177418D01*
X482370Y177630D01*
X482790Y178259D01*
X482937Y179000D01*
X482790Y179741D01*
X482370Y180370D01*
X481741Y180790D01*
X481000Y180937D01*
X480259Y180790D01*
X479630Y180370D01*
X479328Y179918D01*
X478380D01*
X462130Y196168D01*
X462321Y196630D01*
X463024D01*
Y196758D01*
X463213Y196884D01*
X464787D01*
X464976Y196758D01*
Y196630D01*
X467097D01*
Y199000D01*
Y201370D01*
D02*
G37*
G36*
X419717D02*
X414976D01*
Y201242D01*
X414787Y201116D01*
X413213D01*
X413024Y201242D01*
Y201370D01*
X410904D01*
Y199000D01*
Y196630D01*
X413024D01*
Y196758D01*
X413213Y196884D01*
X414582D01*
X414976Y196630D01*
X414976Y196130D01*
X411662Y192816D01*
X399740D01*
X399370Y193370D01*
X398741Y193790D01*
X398000Y193937D01*
X397259Y193790D01*
X396630Y193370D01*
X396210Y192741D01*
X396063Y192000D01*
X396210Y191259D01*
X396630Y190630D01*
X397259Y190210D01*
X398000Y190063D01*
X398741Y190210D01*
X399370Y190630D01*
X399740Y191184D01*
X412000D01*
X412000Y191184D01*
X412312Y191246D01*
X412577Y191423D01*
X416577Y195423D01*
X416577Y195423D01*
X416754Y195688D01*
X416816Y196000D01*
Y196630D01*
X419717D01*
Y198082D01*
X425190D01*
X425386Y197788D01*
X425943Y197416D01*
X426598Y197286D01*
X429945D01*
X430601Y197416D01*
X431157Y197788D01*
X431528Y198344D01*
X431659Y199000D01*
X431528Y199656D01*
X431157Y200212D01*
X430601Y200584D01*
X429945Y200714D01*
X426598D01*
X425943Y200584D01*
X425386Y200212D01*
X425190Y199918D01*
X419717D01*
Y201370D01*
D02*
G37*
G36*
X534066Y201250D02*
X530978D01*
Y199786D01*
X532402D01*
X533057Y199916D01*
X533614Y200288D01*
X533985Y200844D01*
X534066Y201250D01*
D02*
G37*
G36*
X530478D02*
X527391D01*
X527472Y200844D01*
X527843Y200288D01*
X528399Y199916D01*
X529055Y199786D01*
X530478D01*
Y201250D01*
D02*
G37*
G36*
X469717Y201370D02*
X467596D01*
Y199250D01*
X469717D01*
Y201370D01*
D02*
G37*
G36*
X410403D02*
X408284D01*
Y199250D01*
X410403D01*
Y201370D01*
D02*
G37*
G36*
X674257Y205699D02*
X673304Y205573D01*
X672416Y205205D01*
X671654Y204621D01*
X671069Y203858D01*
X670701Y202970D01*
X670576Y202018D01*
X670701Y201065D01*
X671069Y200177D01*
X671654Y199415D01*
X672416Y198830D01*
X673304Y198462D01*
X674257Y198337D01*
X675210Y198462D01*
X676097Y198830D01*
X676860Y199415D01*
X677445Y200177D01*
X677813Y201065D01*
X677938Y202018D01*
X677813Y202970D01*
X677445Y203858D01*
X676860Y204621D01*
X676097Y205205D01*
X675210Y205573D01*
X674257Y205699D01*
D02*
G37*
G36*
X532402Y198214D02*
X530978D01*
Y196750D01*
X534066D01*
X533985Y197156D01*
X533614Y197712D01*
X533057Y198084D01*
X532402Y198214D01*
D02*
G37*
G36*
X530478D02*
X529055D01*
X528399Y198084D01*
X527843Y197712D01*
X527472Y197156D01*
X527391Y196750D01*
X530478D01*
Y198214D01*
D02*
G37*
G36*
X469717Y198750D02*
X467596D01*
Y196630D01*
X469717D01*
Y198750D01*
D02*
G37*
G36*
X410403D02*
X408284D01*
Y196630D01*
X410403D01*
Y198750D01*
D02*
G37*
G36*
X534066Y196250D02*
X530978D01*
Y194786D01*
X532402D01*
X533057Y194916D01*
X533614Y195288D01*
X533985Y195844D01*
X534066Y196250D01*
D02*
G37*
G36*
X530478D02*
X527391D01*
X527472Y195844D01*
X527843Y195288D01*
X528399Y194916D01*
X529055Y194786D01*
X530478D01*
Y196250D01*
D02*
G37*
G36*
X419000Y195937D02*
X418259Y195790D01*
X417630Y195370D01*
X417210Y194741D01*
X417063Y194000D01*
X417210Y193259D01*
X417630Y192630D01*
X418259Y192210D01*
X419000Y192063D01*
X419741Y192210D01*
X420370Y192630D01*
X420672Y193082D01*
X425190D01*
X425386Y192788D01*
X425943Y192416D01*
X426598Y192286D01*
X429945D01*
X430601Y192416D01*
X431157Y192788D01*
X431528Y193344D01*
X431659Y194000D01*
X431528Y194656D01*
X431157Y195212D01*
X430601Y195584D01*
X429945Y195714D01*
X426598D01*
X425943Y195584D01*
X425386Y195212D01*
X425190Y194918D01*
X420672D01*
X420370Y195370D01*
X419741Y195790D01*
X419000Y195937D01*
D02*
G37*
G36*
X628250Y195648D02*
Y192250D01*
X631648D01*
X631556Y192953D01*
X631188Y193841D01*
X630603Y194603D01*
X629841Y195188D01*
X628953Y195556D01*
X628250Y195648D01*
D02*
G37*
G36*
X627750D02*
X627047Y195556D01*
X626159Y195188D01*
X625397Y194603D01*
X624812Y193841D01*
X624444Y192953D01*
X624352Y192250D01*
X627750D01*
Y195648D01*
D02*
G37*
G36*
X532402Y193214D02*
X530978D01*
Y191750D01*
X534066D01*
X533985Y192156D01*
X533614Y192712D01*
X533057Y193084D01*
X532402Y193214D01*
D02*
G37*
G36*
X530478D02*
X529055D01*
X528399Y193084D01*
X527843Y192712D01*
X527472Y192156D01*
X527391Y191750D01*
X530478D01*
Y193214D01*
D02*
G37*
G36*
X534066Y191250D02*
X530978D01*
Y189786D01*
X532402D01*
X533057Y189916D01*
X533614Y190288D01*
X533985Y190844D01*
X534066Y191250D01*
D02*
G37*
G36*
X530478D02*
X527391D01*
X527472Y190844D01*
X527843Y190288D01*
X528399Y189916D01*
X529055Y189786D01*
X530478D01*
Y191250D01*
D02*
G37*
G36*
X631648Y191750D02*
X628250D01*
Y188352D01*
X628953Y188444D01*
X629841Y188812D01*
X630603Y189397D01*
X631188Y190159D01*
X631556Y191047D01*
X631648Y191750D01*
D02*
G37*
G36*
X627750D02*
X624352D01*
X624444Y191047D01*
X624812Y190159D01*
X625397Y189397D01*
X626159Y188812D01*
X627047Y188444D01*
X627750Y188352D01*
Y191750D01*
D02*
G37*
G36*
X321000Y214105D02*
X319842Y213953D01*
X318762Y213506D01*
X317835Y212794D01*
X317124Y211868D01*
X316677Y210788D01*
X316525Y209630D01*
X316677Y208472D01*
X317124Y207392D01*
X317835Y206465D01*
X318762Y205754D01*
X319842Y205307D01*
X321000Y205155D01*
X322158Y205307D01*
X323238Y205754D01*
X324165Y206465D01*
X324876Y207392D01*
X325323Y208472D01*
X325403Y209082D01*
X327620D01*
X331165Y205538D01*
Y153000D01*
X331235Y152649D01*
X331434Y152351D01*
X335181Y148603D01*
X335479Y148404D01*
X335830Y148334D01*
X364044D01*
X364129Y147695D01*
X364633Y146478D01*
X365434Y145434D01*
X366478Y144632D01*
X367695Y144129D01*
X369000Y143957D01*
X370305Y144129D01*
X371522Y144632D01*
X372566Y145434D01*
X373368Y146478D01*
X373871Y147695D01*
X373922Y148082D01*
X381260D01*
X386060Y142668D01*
X385745Y142270D01*
X385384Y142463D01*
X383970Y142892D01*
X383500Y142938D01*
Y136500D01*
X389938D01*
X389892Y136970D01*
X389605Y137916D01*
X390051Y138166D01*
X395310Y132233D01*
X395333Y132217D01*
X395348Y132193D01*
X395537Y132005D01*
X395834Y131806D01*
X396185Y131736D01*
X401630D01*
Y130283D01*
X406370D01*
Y131736D01*
X409630D01*
Y130283D01*
X414370D01*
Y131736D01*
X416653D01*
X417005Y131806D01*
X417302Y132005D01*
X421380Y136082D01*
X435000D01*
X435351Y136152D01*
X435649Y136351D01*
X439649Y140351D01*
X439848Y140649D01*
X439918Y141000D01*
Y175328D01*
X440370Y175630D01*
X440790Y176259D01*
X440937Y177000D01*
X440790Y177741D01*
X440370Y178370D01*
X439741Y178790D01*
X439000Y178937D01*
X438259Y178790D01*
X437630Y178370D01*
X437210Y177741D01*
X437063Y177000D01*
X437210Y176259D01*
X437630Y175630D01*
X438082Y175328D01*
Y141380D01*
X434620Y137918D01*
X421000D01*
X420649Y137848D01*
X420351Y137649D01*
X416273Y133571D01*
X414370D01*
Y135024D01*
X414242D01*
X414116Y135213D01*
Y136787D01*
X414242Y136976D01*
X414370D01*
Y139096D01*
X412000D01*
X409630D01*
Y136976D01*
X409758D01*
X409884Y136787D01*
Y135213D01*
X409758Y135024D01*
X409630D01*
Y133571D01*
X406370D01*
Y135024D01*
X406242D01*
X406116Y135213D01*
Y136787D01*
X406242Y136976D01*
X406370D01*
Y140072D01*
X408380Y142082D01*
X409306D01*
X409630Y141717D01*
Y139596D01*
X412000D01*
X414370D01*
Y141717D01*
X414694Y142082D01*
X419000D01*
X419351Y142152D01*
X419649Y142351D01*
X422649Y145351D01*
X422848Y145649D01*
X422918Y146000D01*
Y181620D01*
X424380Y183082D01*
X425190D01*
X425386Y182788D01*
X425943Y182416D01*
X426598Y182286D01*
X429945D01*
X430601Y182416D01*
X431157Y182788D01*
X431528Y183344D01*
X431659Y184000D01*
X431528Y184656D01*
X431157Y185212D01*
X430601Y185584D01*
X429945Y185714D01*
X426598D01*
X425943Y185584D01*
X425386Y185212D01*
X425190Y184918D01*
X424000D01*
X423649Y184848D01*
X423351Y184649D01*
X421351Y182649D01*
X421152Y182351D01*
X421082Y182000D01*
Y146380D01*
X418620Y143918D01*
X414694D01*
X414370Y144283D01*
Y146404D01*
X412000D01*
X409630D01*
Y144283D01*
X409306Y143918D01*
X408000D01*
X407649Y143848D01*
X407351Y143649D01*
X405419Y141717D01*
X404918D01*
Y144283D01*
X406370D01*
Y149024D01*
X406242D01*
X406116Y149213D01*
Y150787D01*
X406242Y150976D01*
X406370D01*
Y152429D01*
X409630D01*
Y150976D01*
X409758D01*
X409884Y150787D01*
Y149213D01*
X409758Y149024D01*
X409630D01*
Y146904D01*
X412000D01*
X414370D01*
Y149024D01*
X414242D01*
X414116Y149213D01*
Y150787D01*
X414242Y150976D01*
X414370D01*
Y153082D01*
X417000D01*
X417351Y153152D01*
X417649Y153351D01*
X419649Y155351D01*
X419848Y155649D01*
X419918Y156000D01*
Y185620D01*
X422380Y188082D01*
X425190D01*
X425386Y187788D01*
X425943Y187416D01*
X426598Y187286D01*
X429945D01*
X430601Y187416D01*
X431157Y187788D01*
X431528Y188344D01*
X431659Y189000D01*
X431528Y189656D01*
X431157Y190212D01*
X430601Y190584D01*
X429945Y190714D01*
X426598D01*
X425943Y190584D01*
X425386Y190212D01*
X425190Y189918D01*
X422000D01*
X421649Y189848D01*
X421351Y189649D01*
X418351Y186649D01*
X418152Y186351D01*
X418082Y186000D01*
Y156380D01*
X416620Y154918D01*
X414370D01*
Y155717D01*
X409630D01*
Y154264D01*
X406370D01*
Y155717D01*
X404918D01*
Y158283D01*
X406370D01*
Y163024D01*
X406242D01*
X406116Y163213D01*
Y164787D01*
X406242Y164976D01*
X406370D01*
Y166429D01*
X409630D01*
Y164976D01*
X409758D01*
X409884Y164787D01*
Y163213D01*
X409758Y163024D01*
X409630D01*
Y160904D01*
X412000D01*
X414370D01*
Y163024D01*
X414242D01*
X414116Y163213D01*
Y164787D01*
X414242Y164976D01*
X414370D01*
Y169717D01*
X409630D01*
Y168264D01*
X406370D01*
Y169717D01*
X404918D01*
Y172328D01*
X405370Y172630D01*
X405790Y173259D01*
X405937Y174000D01*
X405790Y174741D01*
X405370Y175370D01*
X404741Y175790D01*
X404000Y175937D01*
X403259Y175790D01*
X402630Y175370D01*
X402210Y174741D01*
X402063Y174000D01*
X402210Y173259D01*
X402630Y172630D01*
X403082Y172328D01*
Y169717D01*
X401630D01*
Y164976D01*
X401758D01*
X401884Y164787D01*
Y163213D01*
X401758Y163024D01*
X401630D01*
Y158283D01*
X403082D01*
Y155717D01*
X401630D01*
Y150976D01*
X401758D01*
X401884Y150787D01*
Y149213D01*
X401758Y149024D01*
X401630D01*
Y144283D01*
X403082D01*
Y141717D01*
X401630D01*
Y136976D01*
X401758D01*
X401884Y136787D01*
Y135213D01*
X401758Y135024D01*
X401630D01*
Y133571D01*
X396577D01*
X382360Y149609D01*
X382337Y149626D01*
X382322Y149649D01*
X382196Y149733D01*
X382074Y149825D01*
X382047Y149832D01*
X382024Y149848D01*
X381875Y149877D01*
X381728Y149916D01*
X381700Y149912D01*
X381673Y149918D01*
X373922D01*
X373871Y150305D01*
X373368Y151522D01*
X372566Y152566D01*
X371522Y153367D01*
X370305Y153871D01*
X369000Y154043D01*
X367695Y153871D01*
X366478Y153367D01*
X365434Y152566D01*
X364633Y151522D01*
X364129Y150305D01*
X364111Y150170D01*
X336210D01*
X333000Y153380D01*
Y205918D01*
X332930Y206269D01*
X332731Y206567D01*
X328649Y210649D01*
X328351Y210848D01*
X328000Y210918D01*
X325269D01*
X324876Y211868D01*
X324165Y212794D01*
X323238Y213506D01*
X322158Y213953D01*
X321000Y214105D01*
D02*
G37*
G36*
X628000Y185681D02*
X627047Y185556D01*
X626159Y185188D01*
X625397Y184603D01*
X624812Y183841D01*
X624444Y182953D01*
X624319Y182000D01*
X624444Y181047D01*
X624812Y180159D01*
X625397Y179397D01*
X626159Y178812D01*
X627047Y178444D01*
X628000Y178319D01*
X628953Y178444D01*
X629841Y178812D01*
X630603Y179397D01*
X631188Y180159D01*
X631556Y181047D01*
X631681Y182000D01*
X631556Y182953D01*
X631188Y183841D01*
X630603Y184603D01*
X629841Y185188D01*
X628953Y185556D01*
X628000Y185681D01*
D02*
G37*
G36*
X568370Y178816D02*
X566250D01*
Y176697D01*
X568370D01*
Y178816D01*
D02*
G37*
G36*
X565750D02*
X563630D01*
Y176697D01*
X565750D01*
Y178816D01*
D02*
G37*
G36*
X597665Y180272D02*
X594266D01*
Y174116D01*
X597665D01*
Y180272D01*
D02*
G37*
G36*
X593766D02*
X590366D01*
Y174116D01*
X593766D01*
Y180272D01*
D02*
G37*
G36*
X674507Y175666D02*
Y172268D01*
X677905D01*
X677813Y172970D01*
X677445Y173858D01*
X676860Y174620D01*
X676097Y175206D01*
X675210Y175573D01*
X674507Y175666D01*
D02*
G37*
G36*
X674007D02*
X673304Y175573D01*
X672416Y175206D01*
X671654Y174620D01*
X671069Y173858D01*
X670701Y172970D01*
X670609Y172268D01*
X674007D01*
Y175666D01*
D02*
G37*
G36*
X579634Y180272D02*
X572335D01*
Y171580D01*
X571425Y170671D01*
X568370D01*
Y172124D01*
X568242D01*
X568116Y172313D01*
Y173887D01*
X568242Y174076D01*
X568370D01*
Y176197D01*
X566000D01*
X563630D01*
Y174076D01*
X563758D01*
X563884Y173887D01*
Y172313D01*
X563758Y172124D01*
X563630D01*
Y170671D01*
X556804D01*
X556790Y170741D01*
X556370Y171370D01*
X555741Y171790D01*
X555000Y171937D01*
X554259Y171790D01*
X553630Y171370D01*
X553210Y170741D01*
X553063Y170000D01*
X553210Y169259D01*
X553630Y168630D01*
X554259Y168210D01*
X555000Y168063D01*
X555741Y168210D01*
X556370Y168630D01*
X556507Y168836D01*
X563630D01*
Y167384D01*
X568370D01*
Y168836D01*
X571805D01*
X571835Y168842D01*
X572335Y168469D01*
Y167461D01*
X579634D01*
Y180272D01*
D02*
G37*
G36*
X321250Y174702D02*
Y170510D01*
X325442D01*
X325323Y171418D01*
X324876Y172497D01*
X324165Y173424D01*
X323238Y174136D01*
X322158Y174583D01*
X321250Y174702D01*
D02*
G37*
G36*
X320750D02*
X319842Y174583D01*
X318762Y174136D01*
X317835Y173424D01*
X317124Y172497D01*
X316677Y171418D01*
X316558Y170510D01*
X320750D01*
Y174702D01*
D02*
G37*
G36*
X677905Y171768D02*
X674507D01*
Y168369D01*
X675210Y168462D01*
X676097Y168830D01*
X676860Y169415D01*
X677445Y170177D01*
X677813Y171065D01*
X677905Y171768D01*
D02*
G37*
G36*
X674007D02*
X670609D01*
X670701Y171065D01*
X671069Y170177D01*
X671654Y169415D01*
X672416Y168830D01*
X673304Y168462D01*
X674007Y168369D01*
Y171768D01*
D02*
G37*
G36*
X597665Y173616D02*
X594266D01*
Y167461D01*
X597665D01*
Y173616D01*
D02*
G37*
G36*
X593766D02*
X590366D01*
Y167461D01*
X593766D01*
Y173616D01*
D02*
G37*
G36*
X606370Y169503D02*
X604250D01*
Y167384D01*
X606370D01*
Y169503D01*
D02*
G37*
G36*
X603750D02*
X601630D01*
Y167384D01*
X603750D01*
Y169503D01*
D02*
G37*
G36*
X325442Y170010D02*
X321250D01*
Y165817D01*
X322158Y165937D01*
X323238Y166384D01*
X324165Y167095D01*
X324876Y168022D01*
X325323Y169102D01*
X325442Y170010D01*
D02*
G37*
G36*
X320750D02*
X316558D01*
X316677Y169102D01*
X317124Y168022D01*
X317835Y167095D01*
X318762Y166384D01*
X319842Y165937D01*
X320750Y165817D01*
Y170010D01*
D02*
G37*
G36*
X523500Y169938D02*
Y163500D01*
X529938D01*
X529891Y163970D01*
X529463Y165384D01*
X528766Y166687D01*
X527829Y167829D01*
X526687Y168766D01*
X525384Y169463D01*
X523970Y169892D01*
X523500Y169938D01*
D02*
G37*
G36*
X496500D02*
Y163500D01*
X502938D01*
X502891Y163970D01*
X502463Y165384D01*
X501766Y166687D01*
X500829Y167829D01*
X499687Y168766D01*
X498384Y169463D01*
X496970Y169892D01*
X496500Y169938D01*
D02*
G37*
G36*
X383500D02*
Y163500D01*
X389938D01*
X389892Y163970D01*
X389463Y165384D01*
X388766Y166687D01*
X387829Y167829D01*
X386687Y168766D01*
X385384Y169463D01*
X383970Y169892D01*
X383500Y169938D01*
D02*
G37*
G36*
X381500D02*
X381030Y169892D01*
X379616Y169463D01*
X378313Y168766D01*
X377171Y167829D01*
X376234Y166687D01*
X375537Y165384D01*
X375109Y163970D01*
X375062Y163500D01*
X381500D01*
Y169938D01*
D02*
G37*
G36*
X356500D02*
Y163500D01*
X362938D01*
X362892Y163970D01*
X362463Y165384D01*
X361766Y166687D01*
X360829Y167829D01*
X359687Y168766D01*
X358384Y169463D01*
X356970Y169892D01*
X356500Y169938D01*
D02*
G37*
G36*
X354500D02*
X354030Y169892D01*
X352616Y169463D01*
X351313Y168766D01*
X350171Y167829D01*
X349234Y166687D01*
X348537Y165384D01*
X348109Y163970D01*
X348062Y163500D01*
X354500D01*
Y169938D01*
D02*
G37*
G36*
X521500D02*
X521030Y169892D01*
X519616Y169463D01*
X518313Y168766D01*
X517171Y167829D01*
X516234Y166687D01*
X515537Y165384D01*
X515108Y163970D01*
X515062Y163500D01*
X521500D01*
Y169938D01*
D02*
G37*
G36*
X494500D02*
X494030Y169892D01*
X492616Y169463D01*
X491313Y168766D01*
X490171Y167829D01*
X489234Y166687D01*
X488537Y165384D01*
X488108Y163970D01*
X488062Y163500D01*
X494500D01*
Y169938D01*
D02*
G37*
G36*
X674000Y165681D02*
X673047Y165556D01*
X672159Y165188D01*
X671397Y164603D01*
X670812Y163840D01*
X670444Y162953D01*
X670319Y162000D01*
X670444Y161047D01*
X670784Y160226D01*
X623831Y113273D01*
X606370D01*
Y115024D01*
X606242D01*
X606116Y115213D01*
Y116787D01*
X606242Y116976D01*
X606370D01*
Y119097D01*
X604000D01*
X601630D01*
Y116976D01*
X601758D01*
X601884Y116787D01*
Y115213D01*
X601758Y115024D01*
X601630D01*
Y113273D01*
X597665D01*
Y122272D01*
X590366D01*
Y109461D01*
X597665D01*
Y111234D01*
X601630D01*
Y110284D01*
X606370D01*
Y111234D01*
X624254D01*
X624644Y111312D01*
X624974Y111533D01*
X672226Y158784D01*
X673047Y158444D01*
X674000Y158319D01*
X674953Y158444D01*
X675841Y158812D01*
X676603Y159397D01*
X677188Y160160D01*
X677556Y161047D01*
X677681Y162000D01*
X677556Y162953D01*
X677188Y163840D01*
X676603Y164603D01*
X675841Y165188D01*
X674953Y165556D01*
X674000Y165681D01*
D02*
G37*
G36*
X468370Y160404D02*
X466250D01*
Y158283D01*
X468370D01*
Y160404D01*
D02*
G37*
G36*
X465750D02*
X463630D01*
Y158283D01*
X465750D01*
Y160404D01*
D02*
G37*
G36*
X414370D02*
X412250D01*
Y158283D01*
X414370D01*
Y160404D01*
D02*
G37*
G36*
X411750D02*
X409630D01*
Y158283D01*
X411750D01*
Y160404D01*
D02*
G37*
G36*
X529938Y161500D02*
X523500D01*
Y155062D01*
X523970Y155108D01*
X525384Y155537D01*
X526687Y156234D01*
X527829Y157171D01*
X528766Y158313D01*
X529463Y159616D01*
X529891Y161030D01*
X529938Y161500D01*
D02*
G37*
G36*
X502938D02*
X496500D01*
Y155062D01*
X496970Y155108D01*
X498384Y155537D01*
X499687Y156234D01*
X500829Y157171D01*
X501766Y158313D01*
X502463Y159616D01*
X502891Y161030D01*
X502938Y161500D01*
D02*
G37*
G36*
X389938D02*
X383500D01*
Y155062D01*
X383970Y155108D01*
X385384Y155537D01*
X386687Y156234D01*
X387829Y157171D01*
X388766Y158313D01*
X389463Y159616D01*
X389892Y161030D01*
X389938Y161500D01*
D02*
G37*
G36*
X381500D02*
X375062D01*
X375109Y161030D01*
X375537Y159616D01*
X376234Y158313D01*
X377171Y157171D01*
X378313Y156234D01*
X379616Y155537D01*
X381030Y155108D01*
X381500Y155062D01*
Y161500D01*
D02*
G37*
G36*
X362938D02*
X356500D01*
Y155062D01*
X356970Y155108D01*
X358384Y155537D01*
X359687Y156234D01*
X360829Y157171D01*
X361766Y158313D01*
X362463Y159616D01*
X362892Y161030D01*
X362938Y161500D01*
D02*
G37*
G36*
X354500D02*
X348062D01*
X348109Y161030D01*
X348537Y159616D01*
X349234Y158313D01*
X350171Y157171D01*
X351313Y156234D01*
X352616Y155537D01*
X354030Y155108D01*
X354500Y155062D01*
Y161500D01*
D02*
G37*
G36*
X521500D02*
X515062D01*
X515108Y161030D01*
X515537Y159616D01*
X516234Y158313D01*
X517171Y157171D01*
X518313Y156234D01*
X519616Y155537D01*
X521030Y155108D01*
X521500Y155062D01*
Y161500D01*
D02*
G37*
G36*
X494500D02*
X488062D01*
X488108Y161030D01*
X488537Y159616D01*
X489234Y158313D01*
X490171Y157171D01*
X491313Y156234D01*
X492616Y155537D01*
X494030Y155108D01*
X494500Y155062D01*
Y161500D01*
D02*
G37*
G36*
X321250Y155017D02*
Y150825D01*
X325442D01*
X325323Y151733D01*
X324876Y152812D01*
X324165Y153739D01*
X323238Y154451D01*
X322158Y154898D01*
X321250Y155017D01*
D02*
G37*
G36*
X320750D02*
X319842Y154898D01*
X318762Y154451D01*
X317835Y153739D01*
X317124Y152812D01*
X316677Y151733D01*
X316558Y150825D01*
X320750D01*
Y155017D01*
D02*
G37*
G36*
X325442Y150325D02*
X321250D01*
Y146132D01*
X322158Y146252D01*
X323238Y146699D01*
X324165Y147410D01*
X324876Y148337D01*
X325323Y149416D01*
X325442Y150325D01*
D02*
G37*
G36*
X320750D02*
X316558D01*
X316677Y149416D01*
X317124Y148337D01*
X317835Y147410D01*
X318762Y146699D01*
X319842Y146252D01*
X320750Y146132D01*
Y150325D01*
D02*
G37*
G36*
X596917Y156839D02*
X585250D01*
Y144384D01*
X596917D01*
Y156839D01*
D02*
G37*
G36*
X584750D02*
X573083D01*
Y144384D01*
X584750D01*
Y156839D01*
D02*
G37*
G36*
X523500Y142938D02*
Y136500D01*
X529938D01*
X529891Y136970D01*
X529463Y138384D01*
X528766Y139687D01*
X527829Y140829D01*
X526687Y141766D01*
X525384Y142463D01*
X523970Y142892D01*
X523500Y142938D01*
D02*
G37*
G36*
X496500D02*
Y136500D01*
X502938D01*
X502891Y136970D01*
X502463Y138384D01*
X501766Y139687D01*
X500829Y140829D01*
X499687Y141766D01*
X498384Y142463D01*
X496970Y142892D01*
X496500Y142938D01*
D02*
G37*
G36*
X381500D02*
X381030Y142892D01*
X379616Y142463D01*
X378313Y141766D01*
X377171Y140829D01*
X376234Y139687D01*
X375537Y138384D01*
X375109Y136970D01*
X375062Y136500D01*
X381500D01*
Y142938D01*
D02*
G37*
G36*
X356500D02*
Y136500D01*
X362938D01*
X362892Y136970D01*
X362463Y138384D01*
X361766Y139687D01*
X360829Y140829D01*
X359687Y141766D01*
X358384Y142463D01*
X356970Y142892D01*
X356500Y142938D01*
D02*
G37*
G36*
X354500D02*
X354030Y142892D01*
X352616Y142463D01*
X351313Y141766D01*
X350171Y140829D01*
X349234Y139687D01*
X348537Y138384D01*
X348109Y136970D01*
X348062Y136500D01*
X354500D01*
Y142938D01*
D02*
G37*
G36*
X521500D02*
X521030Y142892D01*
X519616Y142463D01*
X518313Y141766D01*
X517171Y140829D01*
X516234Y139687D01*
X515537Y138384D01*
X515108Y136970D01*
X515062Y136500D01*
X521500D01*
Y142938D01*
D02*
G37*
G36*
X596917Y143884D02*
X585250D01*
Y131429D01*
X596917D01*
Y143884D01*
D02*
G37*
G36*
X584750D02*
X573083D01*
Y131429D01*
X584750D01*
Y143884D01*
D02*
G37*
G36*
X529938Y134500D02*
X523500D01*
Y128062D01*
X523970Y128109D01*
X525384Y128537D01*
X526687Y129234D01*
X527829Y130171D01*
X528766Y131313D01*
X529463Y132616D01*
X529891Y134030D01*
X529938Y134500D01*
D02*
G37*
G36*
X502938D02*
X496500D01*
Y128062D01*
X496970Y128109D01*
X498384Y128537D01*
X499687Y129234D01*
X500829Y130171D01*
X501766Y131313D01*
X502463Y132616D01*
X502891Y134030D01*
X502938Y134500D01*
D02*
G37*
G36*
X389938D02*
X383500D01*
Y128062D01*
X383970Y128109D01*
X385384Y128537D01*
X386687Y129234D01*
X387829Y130171D01*
X388766Y131313D01*
X389463Y132616D01*
X389892Y134030D01*
X389938Y134500D01*
D02*
G37*
G36*
X381500D02*
X375062D01*
X375109Y134030D01*
X375537Y132616D01*
X376234Y131313D01*
X377171Y130171D01*
X378313Y129234D01*
X379616Y128537D01*
X381030Y128109D01*
X381500Y128062D01*
Y134500D01*
D02*
G37*
G36*
X362938D02*
X356500D01*
Y128062D01*
X356970Y128109D01*
X358384Y128537D01*
X359687Y129234D01*
X360829Y130171D01*
X361766Y131313D01*
X362463Y132616D01*
X362892Y134030D01*
X362938Y134500D01*
D02*
G37*
G36*
X354500D02*
X348062D01*
X348109Y134030D01*
X348537Y132616D01*
X349234Y131313D01*
X350171Y130171D01*
X351313Y129234D01*
X352616Y128537D01*
X354030Y128109D01*
X354500Y128062D01*
Y134500D01*
D02*
G37*
G36*
X521500D02*
X515062D01*
X515108Y134030D01*
X515537Y132616D01*
X516234Y131313D01*
X517171Y130171D01*
X518313Y129234D01*
X519616Y128537D01*
X521030Y128109D01*
X521500Y128062D01*
Y134500D01*
D02*
G37*
G36*
X494500D02*
X488062D01*
X488108Y134030D01*
X488537Y132616D01*
X489234Y131313D01*
X490171Y130171D01*
X491313Y129234D01*
X492616Y128537D01*
X494030Y128109D01*
X494500Y128062D01*
Y134500D01*
D02*
G37*
G36*
X320250Y135528D02*
Y120250D01*
X335528D01*
X335356Y122432D01*
X334787Y124805D01*
X333853Y127059D01*
X332578Y129139D01*
X330994Y130994D01*
X329139Y132579D01*
X327059Y133853D01*
X324805Y134787D01*
X322432Y135356D01*
X320250Y135528D01*
D02*
G37*
G36*
X677750D02*
X675568Y135356D01*
X673195Y134787D01*
X670941Y133853D01*
X668861Y132579D01*
X667006Y130994D01*
X665421Y129139D01*
X664147Y127059D01*
X663213Y124805D01*
X662643Y122432D01*
X662472Y120250D01*
X677750D01*
Y135528D01*
D02*
G37*
G36*
X606370Y121716D02*
X604250D01*
Y119597D01*
X606370D01*
Y121716D01*
D02*
G37*
G36*
X568370D02*
X566250D01*
Y119597D01*
X568370D01*
Y121716D01*
D02*
G37*
G36*
X565750D02*
X563630D01*
Y119597D01*
X565750D01*
Y121716D01*
D02*
G37*
G36*
X603750D02*
X601630D01*
Y119597D01*
X603750D01*
Y121716D01*
D02*
G37*
G36*
X579634Y122272D02*
X572335D01*
Y113571D01*
X568370D01*
Y115024D01*
X568242D01*
X568116Y115213D01*
Y116787D01*
X568242Y116976D01*
X568370D01*
Y119097D01*
X566000D01*
X563630D01*
Y116976D01*
X563758D01*
X563884Y116787D01*
Y115213D01*
X563758Y115024D01*
X563630D01*
Y112918D01*
X555672D01*
X555370Y113370D01*
X554741Y113790D01*
X554000Y113937D01*
X553259Y113790D01*
X552630Y113370D01*
X552210Y112741D01*
X552063Y112000D01*
X552210Y111259D01*
X552630Y110630D01*
X553259Y110210D01*
X554000Y110063D01*
X554741Y110210D01*
X555370Y110630D01*
X555672Y111082D01*
X563630D01*
Y110284D01*
X568370D01*
Y111736D01*
X572335D01*
Y109461D01*
X579634D01*
Y122272D01*
D02*
G37*
%LPD*%
D11*
X594000Y112253D02*
X604000D01*
X624254D01*
X604000Y219000D02*
Y226654D01*
X596665D02*
X604000D01*
X594016Y229303D02*
X596665Y226654D01*
X594016Y229303D02*
Y229866D01*
X585000Y201346D02*
X604000Y182346D01*
Y176446D02*
Y182346D01*
X585000Y201346D02*
Y202134D01*
X668686Y176446D02*
X674257Y182018D01*
X604000Y176446D02*
X668686D01*
X624254Y112253D02*
X674000Y162000D01*
D15*
X611000Y218000D02*
Y233500D01*
X607000Y237500D02*
X611000Y233500D01*
X599500Y235000D02*
X602000Y237500D01*
X607000D01*
X603000Y210000D02*
X611000Y218000D01*
X599000Y210000D02*
X603000D01*
X599500Y232000D02*
Y235000D01*
X585961Y218000D02*
X588000D01*
X575984Y227976D02*
Y229503D01*
Y230732D01*
Y227976D02*
X585961Y218000D01*
X573135Y226654D02*
X575984Y229503D01*
X566000Y226654D02*
X573135D01*
X566000Y112654D02*
X573235D01*
X554000Y112000D02*
X565547D01*
X565800Y112253D01*
X573235Y112654D02*
X575784Y115203D01*
Y116332D01*
X468751Y207000D02*
X469000D01*
X634000Y431000D02*
X640799D01*
X629000Y408000D02*
Y419000D01*
X630346Y420346D01*
X633000D01*
X632000Y421500D02*
X642299D01*
X627000Y317000D02*
X662000D01*
X664000Y319000D01*
Y329071D01*
X659000Y334071D02*
X664000Y329071D01*
X638000Y307000D02*
X642000Y311000D01*
X664000D02*
X667000Y314000D01*
X642000Y311000D02*
X664000D01*
X627000Y307000D02*
X638000D01*
X667000Y314000D02*
Y335047D01*
X659000Y343047D02*
X667000Y335047D01*
X627000Y297000D02*
X633000D01*
X643000Y307000D01*
X666000D01*
X671000Y312000D01*
X659000Y352024D02*
X671000Y340024D01*
Y312000D02*
Y340024D01*
X603961Y348961D02*
Y349000D01*
X599000Y344000D02*
X603961Y348961D01*
X575000Y446000D02*
X580000Y451000D01*
X575000Y402000D02*
X586000Y391000D01*
X575000Y402000D02*
Y446000D01*
X565000Y417000D02*
X572000Y410000D01*
Y400000D02*
Y410000D01*
X565000Y417000D02*
Y462000D01*
X591000Y371000D02*
X599402D01*
X585000Y377000D02*
X591000Y371000D01*
X585000Y377000D02*
Y387000D01*
X572000Y400000D02*
X585000Y387000D01*
X586000Y391000D02*
X604000D01*
X569000Y454000D02*
X580000Y465000D01*
X569000Y419000D02*
Y454000D01*
Y399000D02*
Y407000D01*
Y399000D02*
X581500Y386500D01*
X565000Y462000D02*
X577300Y474300D01*
Y476300D01*
X580000Y479000D01*
X581500Y375500D02*
X591000Y366000D01*
X581500Y375500D02*
Y386500D01*
X579000Y359000D02*
Y384000D01*
X577000Y386000D02*
X579000Y384000D01*
X576151Y356151D02*
X579000Y359000D01*
X591000Y366000D02*
X599402D01*
X604000Y391000D02*
X607000Y388000D01*
Y363000D02*
Y388000D01*
X605000Y361000D02*
X607000Y363000D01*
X599402Y361000D02*
X605000D01*
X549000Y349000D02*
Y371000D01*
Y349000D02*
X549693Y348307D01*
X553000D01*
X608693Y356000D02*
X609000Y355693D01*
X599402Y356000D02*
X608693D01*
X601961Y351000D02*
X603961Y349000D01*
X599402Y351000D02*
X601961D01*
X603961Y349000D02*
X609000D01*
X559441Y351000D02*
X562000D01*
X556748Y348307D02*
X559441Y351000D01*
X553000Y348307D02*
X556748D01*
X554000Y356000D02*
X562000D01*
X553000Y355000D02*
X554000Y356000D01*
X553000Y364000D02*
X556000Y361000D01*
X562000D01*
X557000Y366000D02*
X562000D01*
X555000Y368000D02*
Y374000D01*
Y368000D02*
X557000Y366000D01*
X573000Y386000D02*
X577000D01*
X571000Y384000D02*
X573000Y386000D01*
X569000D02*
X571000Y384000D01*
X562000Y386000D02*
X569000D01*
X576000Y379000D02*
Y382000D01*
X568000Y371000D02*
X576000Y379000D01*
X562000Y371000D02*
X568000D01*
X562151Y356151D02*
X576151D01*
X562000Y356000D02*
X562151Y356151D01*
X559000Y317212D02*
X569000Y307212D01*
Y307000D02*
Y307212D01*
X559000Y317212D02*
Y317424D01*
X649000Y338559D02*
X650559D01*
X600000Y409000D02*
X601000Y408000D01*
X600000Y431000D02*
X629000Y402000D01*
X600000Y431000D02*
Y437000D01*
X404000Y139347D02*
X404347D01*
X412000Y153347D02*
X412653Y154000D01*
X435000Y137000D02*
X439000Y141000D01*
X459000Y155000D02*
X461000Y153000D01*
X465654D02*
X466000Y153347D01*
X473654Y139347D02*
X474000D01*
X404000D02*
Y146653D01*
X416653Y132653D02*
X421000Y137000D01*
X419000Y143000D02*
X422000Y146000D01*
X474000Y139347D02*
Y146653D01*
X412000Y132653D02*
X416653D01*
X404000D02*
X412000D01*
X408000Y143000D02*
X419000D01*
X404347Y139347D02*
X408000Y143000D01*
X404000Y153347D02*
X412000D01*
X412653Y154000D02*
X417000D01*
X421000Y137000D02*
X435000D01*
X466000Y132653D02*
X474000D01*
X470000Y143000D02*
X473654Y139347D01*
X459000Y143000D02*
X470000D01*
X466000Y153347D02*
X474000D01*
X461000Y153000D02*
X465654D01*
X456000Y146000D02*
X459000Y143000D01*
X422653Y132653D02*
X466000D01*
X415000Y125000D02*
X422653Y132653D01*
X689000Y295000D02*
Y393000D01*
X679756Y393244D02*
X680000Y393000D01*
X649000Y393244D02*
X679756D01*
X640799Y431000D02*
X641799Y432000D01*
X310000Y185000D02*
X314945Y189945D01*
X321000D01*
X332082Y153000D02*
Y205918D01*
X321370Y210000D02*
X328000D01*
X332082Y205918D01*
X321000Y209630D02*
X321370Y210000D01*
X459000Y313000D02*
Y325000D01*
X419000Y212000D02*
X422000Y209000D01*
X417346Y244654D02*
X419000Y243000D01*
Y255000D02*
X422000Y252000D01*
X417000Y270000D02*
X421654Y265347D01*
X449728Y209000D02*
X455000D01*
X449728Y214000D02*
X449801Y214072D01*
X453072D01*
X458000Y243000D02*
X460000Y245000D01*
X465654D02*
X466000Y244654D01*
X419000Y276000D02*
Y282000D01*
X453072Y214072D02*
X455000Y216000D01*
X459000Y276000D02*
Y282000D01*
X417000Y265000D02*
X422000Y260000D01*
Y216000D02*
Y252000D01*
X419000Y212000D02*
Y243000D01*
X437000Y212000D02*
Y255000D01*
X455000Y216000D02*
Y252000D01*
X458000Y212000D02*
Y243000D01*
X424000Y214000D02*
X428272D01*
X422000Y209000D02*
X428272D01*
X422000Y260000D02*
X432000D01*
X455000Y209000D02*
X458000Y212000D01*
X460000Y245000D02*
X465654D01*
X455000Y252000D02*
X458000Y255000D01*
X422000Y216000D02*
X424000Y214000D01*
X432000Y260000D02*
X437000Y255000D01*
X449728Y204000D02*
X459000D01*
X419000D02*
X428272D01*
X421654Y265347D02*
X466000D01*
X495000Y180000D02*
Y193000D01*
X498000Y196000D01*
X508934Y196163D02*
X509272Y196500D01*
X506529Y196163D02*
X508934D01*
X498000Y196000D02*
X506366D01*
X506529Y196163D01*
X491000Y176000D02*
X495000Y180000D01*
X476000Y176000D02*
X491000D01*
X478000Y179000D02*
X481000D01*
X471000Y181000D02*
X476000Y176000D01*
X439000Y141000D02*
Y177000D01*
X460653Y196346D02*
X478000Y179000D01*
X460653Y196346D02*
Y199000D01*
X412000Y265347D02*
X412347Y265000D01*
X417000D01*
X474500Y201500D02*
X509272D01*
X438000Y387000D02*
X442103Y391103D01*
X438000Y355000D02*
Y387000D01*
X415654Y332653D02*
X438000Y355000D01*
X486103Y391103D02*
X491500Y396500D01*
X420653Y332653D02*
X466000D01*
X415000Y327000D02*
X420653Y332653D01*
X470000Y343000D02*
X473654Y339347D01*
X456000Y346000D02*
X459000Y343000D01*
X456000Y346000D02*
Y382000D01*
X459000Y343000D02*
X470000D01*
X459000Y355000D02*
X461000Y353000D01*
X459000Y355000D02*
Y386000D01*
X456000Y389000D02*
X459000Y386000D01*
X412000Y332653D02*
X415654D01*
X454000Y384000D02*
X456000Y382000D01*
X491500Y396500D02*
X509272D01*
X434000Y461000D02*
X439000Y456000D01*
X412919Y465411D02*
X418000Y461000D01*
X412000Y465346D02*
X412671Y465394D01*
X418000Y461000D02*
X434000D01*
X412671Y465394D02*
X412919Y465411D01*
X345000Y470000D02*
X418000Y470000D01*
X422653Y465346D02*
X466000D01*
X418000Y470000D02*
X422653Y465346D01*
X404000Y465346D02*
X412000D01*
X439000Y421000D02*
Y456000D01*
X471000Y421000D02*
X490500Y401500D01*
X509272D01*
X404000Y437347D02*
Y444654D01*
X412000D01*
X449728Y199000D02*
X460653D01*
X404000Y237347D02*
Y244654D01*
X412000D01*
X474000Y167347D02*
Y174000D01*
X555000Y170000D02*
X555246Y169754D01*
X565900D01*
X397000Y417000D02*
X410000D01*
X404000Y167347D02*
X412000D01*
X404000D02*
Y174000D01*
Y224000D02*
Y230654D01*
X474000Y224000D02*
Y230654D01*
X404000Y367347D02*
Y374000D01*
Y424000D02*
Y430653D01*
X474000Y424000D02*
Y430653D01*
Y367347D02*
Y374000D01*
X328370Y409630D02*
X333000Y405000D01*
Y353082D02*
X337082Y349000D01*
X333000Y353082D02*
Y405000D01*
X321000Y409630D02*
X328370D01*
X369000Y349000D02*
X381673D01*
X337082D02*
X369000D01*
X396185Y332653D02*
X404000D01*
X412000D01*
X335830Y149252D02*
X368748D01*
X332082Y153000D02*
X335830Y149252D01*
X368748D02*
X369000Y149000D01*
X381673D01*
X310000Y145000D02*
Y185000D01*
Y145000D02*
X315000Y140000D01*
X335000D01*
X350000Y125000D01*
X415000D01*
X312000Y331000D02*
Y384000D01*
X319707Y388652D02*
X321000Y389945D01*
X316652Y388652D02*
X319707D01*
X312000Y384000D02*
X316652Y388652D01*
X312000Y331000D02*
X316000Y327000D01*
X415000D01*
X315000Y259000D02*
X326000Y270000D01*
X315000Y235315D02*
Y259000D01*
X326000Y270000D02*
X417000D01*
X315000Y235315D02*
X321000Y229315D01*
Y249000D02*
X369000D01*
X380000D01*
X315000Y435315D02*
X321000Y429315D01*
X315000Y435315D02*
Y455000D01*
X320000Y460000D01*
X335000D01*
X345000Y470000D01*
X321000Y449000D02*
X369000D01*
X449728Y194000D02*
X459000D01*
X466000Y319000D02*
Y325000D01*
X449728Y394000D02*
X459000D01*
X449728Y404000D02*
X459000D01*
X419000Y316000D02*
Y325000D01*
X404347Y339347D02*
X408000Y343000D01*
X422000Y382000D02*
X424000Y384000D01*
X408000Y343000D02*
X419000D01*
X422000Y346000D01*
Y382000D01*
X419000Y194000D02*
X428272D01*
X419000Y394000D02*
X428272D01*
X419000Y404000D02*
X428272D01*
X509000Y149000D02*
X509272Y149272D01*
Y191500D01*
X417346Y399000D02*
X428272D01*
X449728D02*
X460653D01*
X417346Y199000D02*
X428272D01*
X456000Y189000D02*
X459000Y186000D01*
X456000Y146000D02*
Y182000D01*
X459000Y155000D02*
Y186000D01*
X454000Y184000D02*
X456000Y182000D01*
X466000Y167347D02*
X474000D01*
X404000Y230654D02*
X412000D01*
X466000D02*
X474000D01*
X404000Y367347D02*
X412000D01*
X466000D02*
X474000D01*
X404000Y430653D02*
X412000D01*
X466000D02*
X474000D01*
X396185Y132653D02*
X404000D01*
X509000Y206772D02*
X509272Y206500D01*
X509000Y206772D02*
Y249000D01*
Y349000D02*
X509272Y349272D01*
Y391500D01*
X509000Y449000D02*
X509272Y448728D01*
Y406500D02*
Y448728D01*
X497000Y249000D02*
X509000D01*
X481000Y265000D02*
X497000Y249000D01*
X474346Y265000D02*
X481000D01*
X474000Y265347D02*
X474346Y265000D01*
X466000Y265347D02*
X474000D01*
Y251346D02*
Y258653D01*
Y237347D02*
Y244654D01*
X466000D02*
X474000D01*
X473654Y258653D02*
X474000D01*
X470000Y255000D02*
X473654Y258653D01*
X458000Y255000D02*
X470000D01*
X404000Y265347D02*
X412000D01*
X404000Y251346D02*
Y258653D01*
X404347D01*
X408000Y255000D01*
X419000D01*
X412000Y244654D02*
X417346D01*
X380000Y249000D02*
X396346Y265347D01*
X404000D01*
X474000Y153347D02*
Y160653D01*
X449728Y189000D02*
X456000D01*
X449728Y184000D02*
X454000D01*
X404000Y153347D02*
Y160653D01*
X480653Y132653D02*
X497000Y149000D01*
X474000Y132653D02*
X480653D01*
X497000Y149000D02*
X509000D01*
X395997Y132842D02*
X396185Y132653D01*
X381673Y149000D02*
X395997Y132842D01*
X422000Y189000D02*
X428272D01*
X424000Y184000D02*
X428272D01*
X422000Y182000D02*
X424000Y184000D01*
X419000Y186000D02*
X422000Y189000D01*
Y146000D02*
Y182000D01*
X419000Y156000D02*
Y186000D01*
X417000Y154000D02*
X419000Y156000D01*
X412000Y353346D02*
X412653Y354000D01*
X417000D02*
X419000Y356000D01*
Y386000D01*
X412653Y354000D02*
X417000D01*
X404000Y339347D02*
X404347D01*
X419000Y386000D02*
X422000Y389000D01*
X424000Y384000D02*
X428272D01*
X422000Y389000D02*
X428272D01*
X381673Y349000D02*
X395997Y332842D01*
X396185Y332653D01*
X497000Y349000D02*
X509000D01*
X474000Y332653D02*
X480653D01*
X497000Y349000D01*
X404000Y353346D02*
Y360653D01*
Y353346D02*
X412000D01*
X404000Y339347D02*
Y346654D01*
X466000Y332653D02*
X474000D01*
X465654Y353000D02*
X466000Y353346D01*
X461000Y353000D02*
X465654D01*
X449728Y384000D02*
X454000D01*
X449728Y389000D02*
X456000D01*
X466000Y353346D02*
X474000D01*
X473654Y339347D02*
X474000D01*
Y346654D01*
Y353346D02*
Y360653D01*
X369000Y449000D02*
X380000D01*
X396346Y465346D02*
X404000D01*
X380000Y449000D02*
X396346Y465346D01*
X419000Y412000D02*
Y443000D01*
X412000Y444654D02*
X417346D01*
X419000Y443000D01*
Y412000D02*
X422000Y409000D01*
X428272D01*
X424000Y414000D02*
X428272D01*
X422000Y416000D02*
Y452000D01*
Y416000D02*
X424000Y414000D01*
X419000Y455000D02*
X422000Y452000D01*
X408000Y455000D02*
X419000D01*
X404347Y458653D02*
X408000Y455000D01*
X404000Y458653D02*
X404347D01*
X404000Y451346D02*
Y458653D01*
X455000Y416000D02*
Y452000D01*
X449728Y414000D02*
X449801Y414072D01*
X453072D01*
X455000Y416000D01*
Y452000D02*
X458000Y455000D01*
X465654Y445000D02*
X466000Y444654D01*
X458000Y443000D02*
X460000Y445000D01*
X465654D01*
X458000Y412000D02*
Y443000D01*
X455000Y409000D02*
X458000Y412000D01*
X449728Y409000D02*
X455000D01*
X458000Y455000D02*
X470000D01*
X473654Y458653D01*
X474000D01*
X466000Y444654D02*
X474000D01*
Y437347D02*
Y444654D01*
Y451346D02*
Y458653D01*
X466000Y465346D02*
X474000D01*
X474346Y465000D01*
X481000D01*
X497000Y449000D01*
X509000D01*
X688000Y411000D02*
X690000Y409000D01*
X688000Y411000D02*
Y414653D01*
X638500Y416500D02*
X642299D01*
X636654Y414653D02*
X638500Y416500D01*
X633000Y414653D02*
X636654D01*
X687653Y415000D02*
X688000Y414653D01*
X685000Y415000D02*
X687653D01*
X683500Y416500D02*
X685000Y415000D01*
X679701Y416500D02*
X683500D01*
X634000Y435961D02*
X641760D01*
X641799Y436000D01*
X634000Y426000D02*
X641799D01*
X634500Y451500D02*
X642299D01*
X634000Y451000D02*
X634500Y451500D01*
X641799Y436000D02*
X642299Y436500D01*
X641799Y432000D02*
X642299Y431500D01*
X641799Y426000D02*
X642299Y426500D01*
X642799Y421000D02*
X650000D01*
X642299Y421500D02*
X642799Y421000D01*
X642299Y416500D02*
X652500D01*
X653000Y417000D01*
X683000Y272000D02*
Y408000D01*
X670000Y256000D02*
X673556D01*
X685500Y267944D01*
Y409035D01*
X683802Y410734D02*
X685500Y409035D01*
X676734Y410734D02*
X683802D01*
X571805Y169754D02*
X575884Y173832D01*
X565900Y169754D02*
X571805D01*
X669000Y269000D02*
X680000D01*
X683000Y272000D01*
X663000Y249000D02*
X670000Y256000D01*
X663000Y263000D02*
X669000Y269000D01*
X649000Y294858D02*
X649142Y295000D01*
X680500D01*
X649000Y294858D02*
X664165Y279693D01*
X663000Y263000D02*
Y267000D01*
X669000Y273000D01*
X664165Y279693D02*
X669000D01*
X663000Y223275D02*
X674257Y212018D01*
X663000Y223275D02*
Y249000D01*
X628000Y202000D02*
X642000D01*
X652018Y212018D01*
X674257D01*
D16*
X468751Y207000D02*
G03*
X468747Y207000I0J-600D01*
G01*
X412000Y392000D02*
X416000Y396000D01*
X398000Y392000D02*
X412000D01*
X416000Y396000D02*
Y397654D01*
X417346Y399000D01*
X398000Y192000D02*
X412000D01*
X416000Y196000D01*
Y197653D01*
X417346Y199000D01*
X468000Y409000D02*
Y418000D01*
X460653Y401653D02*
X468000Y409000D01*
X460653Y399000D02*
Y401653D01*
X437000Y211876D02*
Y212000D01*
Y211876D02*
X442001Y206875D01*
X670300Y428700D02*
X673000Y426000D01*
X622300Y428700D02*
X670300D01*
X600000Y451000D02*
X622300Y428700D01*
X629000Y344000D02*
Y348000D01*
Y344000D02*
X634500Y338500D01*
X641500D01*
X649000Y331000D01*
Y329583D02*
Y331000D01*
X600000Y409000D02*
X605000D01*
X644000Y370000D01*
Y352535D02*
Y370000D01*
Y352535D02*
X649000Y347535D01*
X650559Y338559D02*
X654000Y342000D01*
Y369000D01*
X600000Y423000D02*
X654000Y369000D01*
X627339Y433661D02*
X670339D01*
X600000Y461000D02*
Y465000D01*
Y461000D02*
X627339Y433661D01*
X636000Y439000D02*
X670000D01*
X600000Y475000D02*
Y479000D01*
Y475000D02*
X636000Y439000D01*
X442001Y206875D02*
X468747Y207000D01*
X469000Y207000D02*
X474500Y201500D01*
X442103Y391103D02*
X486103D01*
X673000Y436000D02*
X679000D01*
X670000Y439000D02*
X673000Y436000D01*
X670339Y433661D02*
X673000Y431000D01*
X679201D02*
X679701Y431500D01*
X673000Y431000D02*
X679201D01*
Y426000D02*
X679701Y426500D01*
X673000Y426000D02*
X679201D01*
D43*
X584000Y230000D02*
D03*
D46*
X410653Y399000D02*
D03*
X467346D02*
D03*
Y199000D02*
D03*
X410653D02*
D03*
X417346D02*
D03*
X460653D02*
D03*
Y399000D02*
D03*
X417346D02*
D03*
D48*
X553000Y348307D02*
D03*
Y355000D02*
D03*
X609000Y355693D02*
D03*
Y349000D02*
D03*
X604000Y169754D02*
D03*
Y119346D02*
D03*
Y233347D02*
D03*
X566000Y176446D02*
D03*
Y119346D02*
D03*
Y233347D02*
D03*
X688000Y421347D02*
D03*
X412000Y458653D02*
D03*
Y437347D02*
D03*
Y451346D02*
D03*
X466000Y458653D02*
D03*
Y437347D02*
D03*
Y451346D02*
D03*
Y339347D02*
D03*
Y360653D02*
D03*
Y346654D02*
D03*
X412000Y360653D02*
D03*
Y339347D02*
D03*
Y346654D02*
D03*
X466000Y160653D02*
D03*
X412000D02*
D03*
Y237347D02*
D03*
Y258653D02*
D03*
Y251346D02*
D03*
X466000Y258653D02*
D03*
Y237347D02*
D03*
Y251346D02*
D03*
Y139347D02*
D03*
Y146653D02*
D03*
X412000Y139347D02*
D03*
Y146653D02*
D03*
Y153347D02*
D03*
X404000Y146653D02*
D03*
Y153347D02*
D03*
Y132653D02*
D03*
Y139347D02*
D03*
X412000Y132653D02*
D03*
X466000Y153347D02*
D03*
Y132653D02*
D03*
X474000Y146653D02*
D03*
Y153347D02*
D03*
Y132653D02*
D03*
Y139347D02*
D03*
X466000Y244654D02*
D03*
Y230654D02*
D03*
Y265347D02*
D03*
X669000Y273000D02*
D03*
Y279693D02*
D03*
X474000Y258653D02*
D03*
Y265347D02*
D03*
Y244654D02*
D03*
Y251346D02*
D03*
X412000Y244654D02*
D03*
Y265347D02*
D03*
Y230654D02*
D03*
X404000Y258653D02*
D03*
Y265347D02*
D03*
Y244654D02*
D03*
Y251346D02*
D03*
X412000Y167347D02*
D03*
X404000D02*
D03*
Y160653D02*
D03*
X466000Y167347D02*
D03*
X404000Y230654D02*
D03*
Y237347D02*
D03*
X474000Y167347D02*
D03*
Y160653D02*
D03*
Y230654D02*
D03*
Y237347D02*
D03*
X412000Y353346D02*
D03*
Y332653D02*
D03*
X404000Y339347D02*
D03*
Y332653D02*
D03*
Y353346D02*
D03*
Y346654D02*
D03*
X412000Y367347D02*
D03*
X404000D02*
D03*
Y360653D02*
D03*
X466000Y353346D02*
D03*
Y367347D02*
D03*
X474000D02*
D03*
Y360653D02*
D03*
Y353346D02*
D03*
Y346654D02*
D03*
X466000Y332653D02*
D03*
X474000Y339347D02*
D03*
Y332653D02*
D03*
X466000Y444654D02*
D03*
Y430653D02*
D03*
X474000D02*
D03*
Y437347D02*
D03*
Y444654D02*
D03*
Y451346D02*
D03*
Y458653D02*
D03*
Y465346D02*
D03*
X466000D02*
D03*
X412000Y444654D02*
D03*
Y430653D02*
D03*
X404000Y444654D02*
D03*
Y451346D02*
D03*
Y430653D02*
D03*
Y437347D02*
D03*
Y458653D02*
D03*
Y465346D02*
D03*
X412000D02*
D03*
X688000Y414653D02*
D03*
X633000Y420346D02*
D03*
Y413654D02*
D03*
X566000Y226654D02*
D03*
Y112654D02*
D03*
Y169754D02*
D03*
X604000Y226654D02*
D03*
Y112654D02*
D03*
Y176446D02*
D03*
D51*
X509000Y149000D02*
D03*
X369000D02*
D03*
X509000Y249000D02*
D03*
X369000D02*
D03*
X509000Y349000D02*
D03*
X369000D02*
D03*
X509000Y449000D02*
D03*
X369000D02*
D03*
D52*
X495500Y162500D02*
D03*
Y135500D02*
D03*
X522500D02*
D03*
Y162500D02*
D03*
X382500Y135500D02*
D03*
Y162500D02*
D03*
X355500D02*
D03*
Y135500D02*
D03*
X495500Y262500D02*
D03*
Y235500D02*
D03*
X522500D02*
D03*
Y262500D02*
D03*
X382500Y235500D02*
D03*
Y262500D02*
D03*
X355500D02*
D03*
Y235500D02*
D03*
X495500Y362500D02*
D03*
Y335500D02*
D03*
X522500D02*
D03*
Y362500D02*
D03*
X382500Y335500D02*
D03*
Y362500D02*
D03*
X355500D02*
D03*
Y335500D02*
D03*
X495500Y462500D02*
D03*
Y435500D02*
D03*
X522500D02*
D03*
Y462500D02*
D03*
X382500Y435500D02*
D03*
Y462500D02*
D03*
X355500D02*
D03*
Y435500D02*
D03*
D53*
X649000Y356512D02*
D03*
X659000Y325095D02*
D03*
X639000Y361000D02*
D03*
X649000Y365488D02*
D03*
Y347535D02*
D03*
Y338559D02*
D03*
Y329583D02*
D03*
X659000Y361000D02*
D03*
Y334071D02*
D03*
Y343047D02*
D03*
Y352024D02*
D03*
X639000D02*
D03*
Y343047D02*
D03*
Y334071D02*
D03*
Y325095D02*
D03*
D54*
X649000Y393244D02*
D03*
Y294858D02*
D03*
D55*
X653000Y263000D02*
D03*
X600000Y409000D02*
D03*
Y423000D02*
D03*
Y437000D02*
D03*
X653000Y249000D02*
D03*
X590000Y437000D02*
D03*
Y423000D02*
D03*
Y409000D02*
D03*
X663000Y263000D02*
D03*
Y249000D02*
D03*
X600000Y479000D02*
D03*
X590000D02*
D03*
X600000Y465000D02*
D03*
X590000D02*
D03*
X600000Y451000D02*
D03*
X590000D02*
D03*
D56*
X673000Y249000D02*
D03*
Y263000D02*
D03*
X580000Y479000D02*
D03*
Y465000D02*
D03*
Y437000D02*
D03*
Y423000D02*
D03*
Y409000D02*
D03*
Y451000D02*
D03*
D57*
X678000Y120000D02*
D03*
X320000D02*
D03*
X678000Y478000D02*
D03*
X320000D02*
D03*
D58*
X678000Y108750D02*
D03*
X668157Y114094D02*
D03*
Y125906D02*
D03*
X678000Y131250D02*
D03*
X687843Y114094D02*
D03*
Y125906D02*
D03*
X666750Y120000D02*
D03*
X672094Y110158D02*
D03*
Y129842D02*
D03*
X683906Y110158D02*
D03*
Y129842D02*
D03*
X689250Y120000D02*
D03*
X320000Y108750D02*
D03*
X310157Y114094D02*
D03*
Y125906D02*
D03*
X320000Y131250D02*
D03*
X329842Y114094D02*
D03*
Y125906D02*
D03*
X308750Y120000D02*
D03*
X314094Y110158D02*
D03*
Y129842D02*
D03*
X325905Y110158D02*
D03*
Y129842D02*
D03*
X331250Y120000D02*
D03*
X678000Y466750D02*
D03*
X668157Y472094D02*
D03*
Y483906D02*
D03*
X678000Y489250D02*
D03*
X687843Y472094D02*
D03*
Y483906D02*
D03*
X666750Y478000D02*
D03*
X672094Y468157D02*
D03*
Y487843D02*
D03*
X683906Y468157D02*
D03*
Y487843D02*
D03*
X689250Y478000D02*
D03*
X320000Y466750D02*
D03*
X310157Y472094D02*
D03*
Y483906D02*
D03*
X320000Y489250D02*
D03*
X329842Y472094D02*
D03*
Y483906D02*
D03*
X308750Y478000D02*
D03*
X314094Y468157D02*
D03*
Y487843D02*
D03*
X325905Y468157D02*
D03*
Y487843D02*
D03*
X331250Y478000D02*
D03*
D59*
X674257Y172018D02*
D03*
X628000Y192000D02*
D03*
Y182000D02*
D03*
Y202000D02*
D03*
X674000Y162000D02*
D03*
X674257Y202018D02*
D03*
Y182018D02*
D03*
D60*
X321000Y370260D02*
D03*
Y350575D02*
D03*
Y170260D02*
D03*
Y150575D02*
D03*
Y189945D02*
D03*
Y209630D02*
D03*
Y229315D02*
D03*
Y389945D02*
D03*
Y409630D02*
D03*
Y429315D02*
D03*
D61*
Y249000D02*
D03*
Y449000D02*
D03*
D62*
X628000Y212000D02*
D03*
X674257Y212018D02*
D03*
D63*
X599600Y232000D02*
D03*
X604000Y219000D02*
D03*
X599000Y210000D02*
D03*
Y201242D02*
D03*
X564000D02*
D03*
X588000Y218000D02*
D03*
X554000Y112000D02*
D03*
X446000Y261000D02*
D03*
Y269000D02*
D03*
X634000Y431000D02*
D03*
X629000Y408000D02*
D03*
X627000Y317000D02*
D03*
Y307000D02*
D03*
Y297000D02*
D03*
X629000Y348000D02*
D03*
X599000Y344000D02*
D03*
X569000Y419000D02*
D03*
Y407000D02*
D03*
X549000Y371000D02*
D03*
X553000Y364000D02*
D03*
X555000Y374000D02*
D03*
X571000Y384000D02*
D03*
X576000Y382000D02*
D03*
X569000Y307000D02*
D03*
X559000Y317424D02*
D03*
X596000Y244000D02*
D03*
X583000Y185000D02*
D03*
X629000Y402000D02*
D03*
X556575Y257000D02*
D03*
X680000Y393000D02*
D03*
X689000Y295000D02*
D03*
X459000Y313000D02*
D03*
X419000Y204000D02*
D03*
Y276000D02*
D03*
Y282000D02*
D03*
X459000Y204000D02*
D03*
Y276000D02*
D03*
Y282000D02*
D03*
X481000Y179000D02*
D03*
X439000Y177000D02*
D03*
X471000Y181000D02*
D03*
X439000Y421000D02*
D03*
X471000D02*
D03*
X468000Y418000D02*
D03*
X474000Y174000D02*
D03*
X555000Y170000D02*
D03*
X397000Y417000D02*
D03*
X410000D02*
D03*
X398000Y192000D02*
D03*
Y392000D02*
D03*
X404000Y174000D02*
D03*
Y224000D02*
D03*
X474000D02*
D03*
X404000Y374000D02*
D03*
Y424000D02*
D03*
X474000D02*
D03*
Y374000D02*
D03*
X459000Y194000D02*
D03*
Y325000D02*
D03*
X466000Y319000D02*
D03*
Y325000D02*
D03*
X459000Y394000D02*
D03*
Y404000D02*
D03*
X419000Y325000D02*
D03*
Y316000D02*
D03*
Y194000D02*
D03*
Y394000D02*
D03*
Y404000D02*
D03*
X690000Y409000D02*
D03*
X634000Y435961D02*
D03*
Y426000D02*
D03*
Y451000D02*
D03*
X650000Y421000D02*
D03*
X653000Y417000D02*
D03*
X683000Y408000D02*
D03*
X676734Y410734D02*
D03*
X689000Y393000D02*
D03*
X680500Y295000D02*
D03*
D64*
X575984Y173866D02*
D03*
X594016D02*
D03*
X575984Y229866D02*
D03*
X594016D02*
D03*
Y115866D02*
D03*
X575984D02*
D03*
D65*
X585000Y202134D02*
D03*
Y258134D02*
D03*
Y144134D02*
D03*
D66*
X562000Y351000D02*
D03*
Y356000D02*
D03*
Y361000D02*
D03*
Y366000D02*
D03*
Y371000D02*
D03*
Y376000D02*
D03*
Y381000D02*
D03*
Y386000D02*
D03*
X599402Y351000D02*
D03*
Y356000D02*
D03*
Y361000D02*
D03*
Y366000D02*
D03*
Y371000D02*
D03*
Y376000D02*
D03*
Y381000D02*
D03*
Y386000D02*
D03*
X679701Y451500D02*
D03*
Y421500D02*
D03*
X642299Y416500D02*
D03*
Y421500D02*
D03*
Y426500D02*
D03*
Y431500D02*
D03*
Y436500D02*
D03*
Y441500D02*
D03*
Y446500D02*
D03*
Y451500D02*
D03*
X679701Y416500D02*
D03*
Y426500D02*
D03*
Y431500D02*
D03*
Y436500D02*
D03*
Y441500D02*
D03*
Y446500D02*
D03*
D67*
X530728Y191500D02*
D03*
Y196500D02*
D03*
Y201500D02*
D03*
Y206500D02*
D03*
Y391500D02*
D03*
Y396500D02*
D03*
Y401500D02*
D03*
Y406500D02*
D03*
X509272D02*
D03*
Y401500D02*
D03*
Y396500D02*
D03*
Y391500D02*
D03*
Y206500D02*
D03*
Y201500D02*
D03*
Y196500D02*
D03*
Y191500D02*
D03*
X428272Y184000D02*
D03*
Y189000D02*
D03*
Y194000D02*
D03*
Y199000D02*
D03*
Y204000D02*
D03*
Y209000D02*
D03*
Y214000D02*
D03*
X449728Y184000D02*
D03*
Y189000D02*
D03*
Y194000D02*
D03*
Y199000D02*
D03*
Y204000D02*
D03*
Y209000D02*
D03*
Y214000D02*
D03*
Y414000D02*
D03*
Y409000D02*
D03*
Y404000D02*
D03*
Y399000D02*
D03*
Y394000D02*
D03*
Y389000D02*
D03*
Y384000D02*
D03*
X428272Y414000D02*
D03*
Y409000D02*
D03*
Y404000D02*
D03*
Y399000D02*
D03*
Y394000D02*
D03*
Y389000D02*
D03*
Y384000D02*
D03*
M02*
