<svg id="Layer_1" data-name="Layer 1" xmlns="http://www.w3.org/2000/svg" viewBox="0 0 1008 545"><defs><style>.cls-1{fill:#fff;}.cls-14,.cls-19,.cls-2,.cls-25,.cls-26,.cls-3,.cls-36,.cls-37,.cls-5{fill:none;}.cls-2{stroke:#ed1c24;stroke-dasharray:6;}.cls-14,.cls-15,.cls-17,.cls-19,.cls-2,.cls-25,.cls-26,.cls-3,.cls-30,.cls-33,.cls-35,.cls-36,.cls-37,.cls-39{stroke-miterlimit:11.34;}.cls-2,.cls-3,.cls-4,.cls-9{stroke-width:1.5px;}.cls-3{stroke:blue;}.cls-4{fill:#b7ebbf;}.cls-15,.cls-17,.cls-26,.cls-32,.cls-33,.cls-37,.cls-39,.cls-4,.cls-9{stroke:#000;}.cls-4,.cls-5,.cls-9{stroke-miterlimit:10;}.cls-19,.cls-25,.cls-30,.cls-34,.cls-35,.cls-36,.cls-5{stroke:gray;}.cls-25,.cls-26,.cls-5{stroke-width:2.5px;}.cls-20,.cls-21,.cls-22,.cls-23,.cls-24,.cls-29,.cls-30,.cls-34,.cls-35,.cls-6{fill:gray;}.cls-10,.cls-11,.cls-12,.cls-13,.cls-16,.cls-18,.cls-20,.cls-21,.cls-22,.cls-23,.cls-24,.cls-27,.cls-28,.cls-29,.cls-31,.cls-38,.cls-7,.cls-8{isolation:isolate;}.cls-11,.cls-12,.cls-16,.cls-18,.cls-29,.cls-38,.cls-7,.cls-8{font-size:16px;}.cls-11,.cls-12,.cls-13,.cls-16,.cls-18,.cls-20,.cls-21,.cls-22,.cls-23,.cls-24,.cls-27,.cls-28,.cls-29,.cls-31,.cls-38,.cls-7,.cls-8{font-family:CambriaMath, Cambria Math;}.cls-8{letter-spacing:-0.01em;}.cls-9{fill:#acc2e8;}.cls-11{letter-spacing:-0.04em;}.cls-12{letter-spacing:-0.02em;}.cls-13,.cls-20,.cls-21,.cls-22,.cls-23,.cls-24{font-size:20px;}.cls-14{stroke:#e6e6e6;stroke-linecap:round;}.cls-14,.cls-30,.cls-33,.cls-35,.cls-39{stroke-width:2.83px;}.cls-15{fill:#fff6d5;}.cls-15,.cls-17,.cls-19{stroke-width:1.42px;}.cls-16{letter-spacing:-0.08em;}.cls-17{fill:#ffddd5;}.cls-18{letter-spacing:-0.07em;}.cls-20{letter-spacing:-0.03em;}.cls-22{letter-spacing:-0.01em;}.cls-23{letter-spacing:-0.02em;}.cls-24{letter-spacing:-0.04em;}.cls-27{font-size:11.81px;}.cls-27,.cls-28{fill:#ed1c24;}.cls-28{font-size:12px;}.cls-31{font-size:14px;fill:blue;}.cls-32,.cls-34{stroke-miterlimit:4.54;stroke-width:1.13px;}.cls-32,.cls-33,.cls-34,.cls-35{fill-rule:evenodd;}.cls-36,.cls-37{stroke-width:2.8px;}.cls-38{letter-spacing:-0.1em;}</style></defs><rect class="cls-1" width="1008" height="545"/><rect class="cls-2" x="7.75" y="83.2" width="499.99" height="219.65"/><rect class="cls-2" x="536.95" y="83.2" width="459.99" height="221.65"/><rect class="cls-3" x="473.13" y="67.54" width="219.81" height="250.96"/><rect class="cls-4" x="144.98" y="93.02" width="60" height="200"/><path class="cls-5" d="M14.67,163.91C28.62,174.27,31.41,209,50.1,209c22,0,22-48,43.94-48,18.69,0,21.48,34.76,35.43,45.12" transform="translate(7 8)"/><polygon class="cls-6" points="20.92 178.79 13.17 169.03 25.5 167.21 20.92 178.79"/><polygon class="cls-6" points="132.65 218.85 144.98 217.03 137.23 207.26 132.65 218.85"/><path class="cls-5" d="M14.67,206.16C28.62,195.8,31.41,161,50.1,161c22,0,22,48,43.94,48,18.69,0,21.48-34.76,35.43-45.12" transform="translate(7 8)"/><polygon class="cls-6" points="25.5 218.85 13.17 217.03 20.92 207.26 25.5 218.85"/><polygon class="cls-6" points="137.23 178.79 144.98 169.03 132.65 167.19 137.23 178.79"/><text class="cls-7" transform="translate(181.95 255.3) rotate(-90)">DB - 15 Connec</text><text class="cls-8" transform="translate(181.95 151.13) rotate(-90)">t</text><text class="cls-7" transform="translate(181.95 145.85) rotate(-90)">or</text><rect class="cls-4" x="783.04" y="93.02" width="60" height="200"/><rect class="cls-9" x="338.08" y="93.02" width="116.61" height="72.78"/><text class="cls-7" transform="translate(349.01 115.16)">Dif</text><text class="cls-8" transform="translate(368.89 115.16)">f</text><text class="cls-7" transform="translate(373.53 115.16)">e</text><text class="cls-8" transform="translate(381.34 115.16)">r</text><text class="cls-7" transform="translate(387.72 115.16)">ential</text><text class="cls-8" transform="translate(429.99 115.16)">t</text><text class="cls-7" transform="translate(435.27 115.16)">o</text><text class="cls-7" transform="translate(351.26 134.36)">Sin</text><text class="cls-8" transform="translate(372.57 134.36)">g</text><text class="cls-7" transform="translate(380.37 134.36)">le-Ended</text><text class="cls-7" transform="translate(362.4 153.56)">Co</text><g class="cls-10"><text class="cls-11" transform="translate(379.89 153.56)">n</text><text class="cls-12" transform="translate(388.19 153.56)">v</text></g><text class="cls-7" transform="translate(396.26 153.56)">er</text><text class="cls-8" transform="translate(410.68 153.56)">t</text><text class="cls-7" transform="translate(415.95 153.56)">er</text><rect class="cls-9" x="338.08" y="220.24" width="116.61" height="72.78"/><text class="cls-7" transform="translate(349.01 242.38)">Dif</text><text class="cls-8" transform="translate(368.89 242.38)">f</text><text class="cls-7" transform="translate(373.53 242.38)">e</text><text class="cls-8" transform="translate(381.34 242.38)">r</text><text class="cls-7" transform="translate(387.72 242.38)">ential</text><text class="cls-8" transform="translate(429.99 242.38)">t</text><text class="cls-7" transform="translate(435.27 242.38)">o</text><text class="cls-7" transform="translate(351.26 261.58)">Sin</text><text class="cls-8" transform="translate(372.57 261.58)">g</text><text class="cls-7" transform="translate(380.37 261.58)">le-Ended</text><text class="cls-7" transform="translate(362.4 280.78)">Co</text><g class="cls-10"><text class="cls-11" transform="translate(379.89 280.78)">n</text><text class="cls-12" transform="translate(388.19 280.78)">v</text></g><text class="cls-7" transform="translate(396.26 280.78)">er</text><text class="cls-8" transform="translate(410.68 280.78)">t</text><text class="cls-7" transform="translate(415.95 280.78)">er</text><g id="text17741"><text class="cls-13" transform="translate(22.04 375.58)">Legend:</text></g><rect id="rect17743" class="cls-14" x="13.17" y="353.63" width="378.77" height="157.67"/><rect id="rect11473" class="cls-15" x="23.94" y="384.53" width="70.83" height="26.1"/><g id="text11477"><text class="cls-16" transform="translate(45.16 402.89)">L</text><text class="cls-7" transform="translate(52.42 402.89)">VL</text></g><rect id="rect11473-2" class="cls-15" x="501.13" y="116.36" width="42.4" height="26.1"/><rect id="rect11473-2-2" class="cls-17" x="588.94" y="116.36" width="78" height="26.1"/><rect id="rect11473-2-3" class="cls-17" x="588.94" y="246.36" width="78" height="26.1"/><g id="text11477-2"><text class="cls-16" transform="translate(508.92 134.72)">L</text><text class="cls-7" transform="translate(516.18 134.72)">VL</text></g><rect id="rect11473-3" class="cls-15" x="501.13" y="247.37" width="42.4" height="26.1"/><g id="text11477-3"><text class="cls-16" transform="translate(508.92 265.73)">L</text><text class="cls-7" transform="translate(516.18 265.73)">VL</text></g><text class="cls-18" transform="translate(116.57 403.55)">V</text><text class="cls-7" transform="translate(125.13 403.55)">oltage L</text><text class="cls-8" transform="translate(179.02 403.55)">e</text><text class="cls-12" transform="translate(186.66 403.55)">v</text><text class="cls-7" transform="translate(194.41 403.55)">el Shif</text><text class="cls-8" transform="translate(236.14 403.55)">t</text><text class="cls-7" transform="translate(241.41 403.55)">er</text><path id="path12203-2" class="cls-19" d="M144.53,35.15V22.85H563.94v12.3" transform="translate(7 8)"/><path id="path12203-2-2" class="cls-19" d="M775.94,35.15V22.85h214v12.3" transform="translate(7 8)"/><g id="text12213-2"><text class="cls-20" transform="translate(13.17 25.68)">T</text><text class="cls-21" transform="translate(24.44 25.68)">wis</text><text class="cls-22" transform="translate(54.08 25.68)">t</text><text class="cls-21" transform="translate(60.67 25.68)">ed Cable</text></g><g id="text12213-2-2"><text class="cls-23" transform="translate(834.18 24.66)">Kaman</text><text class="cls-21" transform="translate(900.59 24.66)">I/O</text></g><path id="path12164" class="cls-19" d="M.75,35.15V22.85H137.31v12.3" transform="translate(7 8)"/><text class="cls-21" transform="translate(195.06 26.74)">Dif</text><text class="cls-22" transform="translate(219.9 26.74)">f</text><text class="cls-21" transform="translate(225.71 26.74)">e</text><text class="cls-22" transform="translate(235.47 26.74)">r</text><text class="cls-21" transform="translate(243.45 26.74)">ential-</text><text class="cls-22" transform="translate(298.53 26.74)">t</text><text class="cls-21" transform="translate(305.12 26.74)">o</text><text class="cls-20" transform="translate(315.73 26.74)">-</text><text class="cls-21" transform="translate(321.79 26.74)">Sin</text><text class="cls-22" transform="translate(348.43 26.74)">g</text><text class="cls-21" transform="translate(358.18 26.74)">le-Ended Co</text><g class="cls-10"><text class="cls-24" transform="translate(460.88 26.74)">n</text><text class="cls-23" transform="translate(471.27 26.74)">v</text></g><text class="cls-21" transform="translate(481.34 26.74)">ersion</text><line class="cls-25" x1="213.95" y1="130.72" x2="338.08" y2="130.72"/><polygon class="cls-6" points="215.77 136.97 204.98 130.72 215.77 124.5 215.77 136.97"/><line class="cls-26" x1="455.05" y1="260.42" x2="492.16" y2="260.42"/><polygon points="490.34 266.67 501.13 260.44 490.34 254.19 490.34 266.67"/><line class="cls-26" x1="543.05" y1="260.42" x2="580.16" y2="260.42"/><polygon points="578.34 266.67 589.13 260.44 578.34 254.19 578.34 266.67"/><line class="cls-26" x1="666.94" y1="260.42" x2="772.94" y2="260.42"/><polygon points="772.94 266.67 783.73 260.44 772.94 254.19 772.94 266.67"/><line class="cls-26" x1="676.94" y1="129.41" x2="783.04" y2="129.41"/><polygon points="677.33 135.66 666.53 129.42 677.33 123.19 677.33 135.66"/><line class="cls-26" x1="464.02" y1="129.41" x2="501.13" y2="129.41"/><polygon points="465.84 135.66 455.05 129.42 465.84 123.19 465.84 135.66"/><line class="cls-26" x1="552.02" y1="129.41" x2="589.13" y2="129.41"/><polygon points="553.84 135.66 543.05 129.42 553.84 123.19 553.84 135.66"/><line class="cls-25" x1="204.98" y1="256.63" x2="329.23" y2="256.63"/><polygon class="cls-6" points="327.41 262.88 338.2 256.63 327.41 250.41 327.41 262.88"/><text class="cls-27" transform="translate(271.59 76.21) scale(1.02 1)">5V</text><text class="cls-28" transform="translate(801.55 76.2)">3.3V</text><line class="cls-26" x1="852.58" y1="113.41" x2="949.94" y2="113.41"/><polygon points="854.41 119.66 843.61 113.42 854.41 107.19 854.41 119.66"/><line class="cls-26" x1="852.58" y1="143.41" x2="949.94" y2="143.41"/><polygon points="854.41 149.66 843.61 143.41 854.41 137.19 854.41 149.66"/><line class="cls-26" x1="843.61" y1="249.41" x2="949.94" y2="249.41"/><polygon points="947.94 255.66 958.73 249.41 947.94 243.19 947.94 255.66"/><line class="cls-26" x1="843.61" y1="279.41" x2="949.94" y2="279.41"/><polygon points="947.94 285.65 958.73 279.42 947.94 273.19 947.94 285.65"/><text class="cls-29" transform="translate(235.08 124.62)">GP_IN (2x)</text><text class="cls-7" transform="translate(710.61 125.62)">MISO_IN</text><text class="cls-7" transform="translate(867.53 108.45)">X_MISO</text><text class="cls-7" transform="translate(867.53 138.23)">Y_MISO</text><text class="cls-7" transform="translate(851.09 243.58)">SPI_X_OUT</text><text class="cls-7" transform="translate(851.09 273.47)">SPI_Y_OUT</text><text class="cls-7" transform="translate(709.01 255.39)">SPI_OUT</text><text class="cls-29" transform="translate(234.28 249.88)">GP_OUT (2x)</text><text class="cls-29" transform="translate(47.83 154.85)">GP_IO(4x)</text><path id="path10776" class="cls-30" d="M211.81,132.18l12.4-17.1" transform="translate(7 8)"/><g id="text11530"><text class="cls-29" transform="translate(225.01 145.2)">4</text></g><path id="path10776-2" class="cls-30" d="M211.81,256l12.4-17.1" transform="translate(7 8)"/><g id="text11530-2"><text class="cls-29" transform="translate(223.9 271.01)">4</text></g><g id="text819-5-8-91-5-0-8-0-3-5-7-9-7-9"><text class="cls-31" transform="translate(522.33 61.26)">2x copies on PCB</text></g><path id="path5299" class="cls-32" d="M75.66,463.48l-9.8,5.7v-11.3Z" transform="translate(7 8)"/><path id="path5297" class="cls-33" d="M69.16,463.48" transform="translate(7 8)"/><g id="text7955"><text class="cls-7" transform="translate(117.98 472.67)">Sin</text><text class="cls-8" transform="translate(139.29 472.67)">g</text><text class="cls-7" transform="translate(147.09 472.67)">le-Ended signal</text></g><path id="path7969" class="cls-34" d="M75.66,485.08l-9.8,5.7v-11.4Z" transform="translate(7 8)"/><path id="path7963" class="cls-35" d="M49.16,485.08" transform="translate(7 8)"/><g id="text7967"><text class="cls-7" transform="translate(116.98 496.18)">Dif</text><text class="cls-8" transform="translate(136.86 496.18)">f</text><text class="cls-7" transform="translate(141.5 496.18)">e</text><text class="cls-8" transform="translate(149.31 496.18)">r</text><text class="cls-7" transform="translate(155.69 496.18)">ential signal</text></g><line class="cls-36" x1="73.94" y1="493.46" x2="32.27" y2="493.46"/><line class="cls-37" x1="73.94" y1="471.46" x2="32.27" y2="471.46"/><g id="text11471"><text class="cls-29" transform="translate(16.43 116.36)">f</text><text class="cls-29" transform="translate(21.27 116.36)">r</text><text class="cls-29" transform="translate(27.66 116.36)">om AMDC</text></g><g class="cls-10"><text class="cls-7" transform="translate(818.23 270.99) rotate(-90)">Mic</text><text class="cls-8" transform="translate(818.23 246.44) rotate(-90)">r</text><text class="cls-7" transform="translate(818.23 240.06) rotate(-90)">o DB-9 Connec</text><text class="cls-8" transform="translate(818.23 139.77) rotate(-90)">t</text><text class="cls-7" transform="translate(818.23 134.5) rotate(-90)">or</text></g><g class="cls-10"><text class="cls-7" transform="translate(601.99 135.01)">FI</text><text class="cls-38" transform="translate(615.76 135.01)">L</text><text class="cls-7" transform="translate(622.71 135.01)">TER</text></g><g class="cls-10"><text class="cls-7" transform="translate(602.77 264.83)">FI</text><text class="cls-38" transform="translate(616.54 264.83)">L</text><text class="cls-7" transform="translate(623.49 264.83)">TER</text></g><rect id="rect11473-2-4" class="cls-17" x="24.12" y="422.13" width="70.83" height="26.1"/><g class="cls-10"><text class="cls-7" transform="translate(33.94 440.6)">FI</text><text class="cls-38" transform="translate(47.71 440.6)">L</text><text class="cls-7" transform="translate(54.66 440.6)">TER</text></g><g class="cls-10"><text class="cls-7" transform="translate(116.33 440.27)">Gli</text><text class="cls-8" transform="translate(134.89 440.27)">t</text><text class="cls-7" transform="translate(140.17 440.27)">ch Fil</text><text class="cls-8" transform="translate(176.95 440.27)">t</text><text class="cls-7" transform="translate(182.22 440.27)">er</text></g><path id="path10776-2-2" class="cls-39" d="M919.94,112.65l12.4-17.1" transform="translate(7 8)"/><g id="text11530-2-2"><text class="cls-7" transform="translate(933.14 127.68)">2</text></g><path id="path10776-3" class="cls-39" d="M920.31,141.46l12.4-17.1" transform="translate(7 8)"/><g id="text11530-3"><text class="cls-7" transform="translate(933.52 158.49)">2</text></g><path id="path10776-4" class="cls-39" d="M921.31,247.46l12.4-17.1" transform="translate(7 8)"/><g id="text11530-4"><text class="cls-7" transform="translate(934.52 262.49)">2</text></g><path id="path10776-5" class="cls-39" d="M920.31,277.46l12.4-17.1" transform="translate(7 8)"/><g id="text11530-5"><text class="cls-7" transform="translate(933.52 293.49)">2</text></g><path id="path12203-2-2-2" class="cls-19" d="M570.94,35.6V23.31h200v12.3" transform="translate(7 8)"/><g class="cls-10"><text class="cls-21" transform="translate(614.77 25.18)">Signal Fil</text><text class="cls-22" transform="translate(692.61 25.18)">t</text><text class="cls-21" transform="translate(699.2 25.18)">ering</text></g></svg>