<svg id="Layer_1" data-name="Layer 1" xmlns="http://www.w3.org/2000/svg" viewBox="0 0 990.69 527.61"><defs><style>.cls-1,.cls-13,.cls-19,.cls-2,.cls-26,.cls-27,.cls-37,.cls-38,.cls-4{fill:none;}.cls-1{stroke:#ed1c24;stroke-dasharray:6;}.cls-1,.cls-13,.cls-14,.cls-16,.cls-19,.cls-2,.cls-26,.cls-27,.cls-31,.cls-34,.cls-36,.cls-37,.cls-38,.cls-43{stroke-miterlimit:11.34;}.cls-1,.cls-2,.cls-3,.cls-9{stroke-width:1.5px;}.cls-2{stroke:blue;}.cls-3{fill:#b7ebbf;}.cls-14,.cls-16,.cls-27,.cls-3,.cls-33,.cls-34,.cls-38,.cls-43,.cls-9{stroke:#000;}.cls-3,.cls-4,.cls-9{stroke-miterlimit:10;}.cls-19,.cls-26,.cls-31,.cls-35,.cls-36,.cls-37,.cls-4{stroke:gray;}.cls-26,.cls-27,.cls-4{stroke-width:2.5px;}.cls-20,.cls-21,.cls-22,.cls-23,.cls-24,.cls-30,.cls-31,.cls-35,.cls-36,.cls-44,.cls-5{fill:gray;}.cls-10,.cls-12,.cls-15,.cls-17,.cls-18,.cls-20,.cls-21,.cls-22,.cls-23,.cls-24,.cls-28,.cls-29,.cls-30,.cls-32,.cls-6,.cls-7,.cls-8{isolation:isolate;}.cls-10,.cls-15,.cls-17,.cls-18,.cls-30,.cls-39,.cls-7,.cls-8{font-size:16px;}.cls-10,.cls-12,.cls-15,.cls-17,.cls-18,.cls-20,.cls-21,.cls-22,.cls-23,.cls-24,.cls-28,.cls-29,.cls-30,.cls-32,.cls-39,.cls-44,.cls-7,.cls-8{font-family:CambriaMath, Cambria Math;}.cls-8{letter-spacing:-0.01em;}.cls-9{fill:#acc2e8;}.cls-10{letter-spacing:-0.04em;}.cls-11{letter-spacing:-0.02em;}.cls-12,.cls-20,.cls-21,.cls-22,.cls-23,.cls-24,.cls-44{font-size:20px;}.cls-13{stroke:#e6e6e6;stroke-linecap:round;}.cls-13,.cls-31,.cls-34,.cls-36,.cls-43{stroke-width:2.83px;}.cls-14{fill:#fff6d5;}.cls-14,.cls-16,.cls-19{stroke-width:1.42px;}.cls-15{letter-spacing:-0.08em;}.cls-16{fill:#ffddd5;}.cls-17{letter-spacing:-0.07em;}.cls-18{letter-spacing:-0.02em;}.cls-20{letter-spacing:-0.03em;}.cls-22{letter-spacing:-0.01em;}.cls-23,.cls-25{letter-spacing:-0.02em;}.cls-24{letter-spacing:-0.04em;}.cls-28{font-size:11.81px;}.cls-28,.cls-29{fill:#ed1c24;}.cls-29{font-size:12px;}.cls-32{font-size:14px;fill:blue;}.cls-33,.cls-35{stroke-miterlimit:4.54;stroke-width:1.13px;}.cls-33,.cls-34,.cls-35,.cls-36{fill-rule:evenodd;}.cls-37,.cls-38{stroke-width:2.8px;}.cls-40{letter-spacing:-0.01em;}.cls-41{letter-spacing:-0.01em;}.cls-42{letter-spacing:-0.1em;}</style></defs><rect class="cls-1" x="0.75" y="75.2" width="499.99" height="219.65"/><rect class="cls-1" x="529.95" y="75.2" width="459.99" height="221.65"/><rect class="cls-2" x="466.13" y="59.54" width="219.81" height="250.96"/><rect class="cls-3" x="137.98" y="85.02" width="60" height="200"/><path class="cls-4" d="M549.73,460.6c13.95,10.36,16.74,45.13,35.43,45.13,22,0,22-48,43.94-48,18.69,0,21.48,34.76,35.43,45.12" transform="translate(-535.06 -296.69)"/><polygon class="cls-5" points="13.92 170.79 6.17 161.03 18.5 159.21 13.92 170.79"/><polygon class="cls-5" points="125.65 210.85 137.98 209.03 130.23 199.26 125.65 210.85"/><path class="cls-4" d="M549.73,502.85c13.95-10.36,16.74-45.12,35.43-45.12,22,0,22,48,43.94,48,18.69,0,21.48-34.76,35.43-45.12" transform="translate(-535.06 -296.69)"/><polygon class="cls-5" points="18.5 210.85 6.17 209.03 13.92 199.26 18.5 210.85"/><polygon class="cls-5" points="130.23 170.79 137.98 161.03 125.65 159.19 130.23 170.79"/><g class="cls-6"><text class="cls-7" transform="translate(174.95 247.3) rotate(-90)">DB - 15 Connec</text><text class="cls-8" transform="translate(174.95 143.13) rotate(-90)">t</text><text class="cls-7" transform="translate(174.95 137.85) rotate(-90)">or</text></g><rect class="cls-3" x="776.04" y="85.02" width="60" height="200"/><rect class="cls-9" x="331.08" y="85.02" width="116.61" height="72.78"/><g class="cls-6"><text class="cls-7" transform="translate(342.01 107.16)">Dif</text><text class="cls-8" transform="translate(361.89 107.16)">f</text><text class="cls-7" transform="translate(366.53 107.16)">e</text><text class="cls-8" transform="translate(374.34 107.16)">r</text><text class="cls-7" transform="translate(380.72 107.16)">ential </text><text class="cls-8" transform="translate(422.99 107.16)">t</text><text class="cls-7" transform="translate(428.27 107.16)">o </text><text class="cls-7" transform="translate(344.26 126.36)">Sin</text><text class="cls-8" transform="translate(365.57 126.36)">g</text><text class="cls-7" transform="translate(373.37 126.36)">le-Ended </text><text class="cls-7" transform="translate(355.4 145.56)">Co</text><text class="cls-10" transform="translate(372.89 145.56)">n<tspan class="cls-11" x="8.3" y="0">v</tspan></text><text class="cls-7" transform="translate(389.26 145.56)">er</text><text class="cls-8" transform="translate(403.68 145.56)">t</text><text class="cls-7" transform="translate(408.95 145.56)">er</text></g><rect class="cls-9" x="331.08" y="212.24" width="116.61" height="72.78"/><g class="cls-6"><text class="cls-7" transform="translate(342.01 234.38)">Dif</text><text class="cls-8" transform="translate(361.89 234.38)">f</text><text class="cls-7" transform="translate(366.53 234.38)">e</text><text class="cls-8" transform="translate(374.34 234.38)">r</text><text class="cls-7" transform="translate(380.72 234.38)">ential </text><text class="cls-8" transform="translate(422.99 234.38)">t</text><text class="cls-7" transform="translate(428.27 234.38)">o </text><text class="cls-7" transform="translate(344.26 253.58)">Sin</text><text class="cls-8" transform="translate(365.57 253.58)">g</text><text class="cls-7" transform="translate(373.37 253.58)">le-Ended </text><text class="cls-7" transform="translate(355.4 272.78)">Co</text><text class="cls-10" transform="translate(372.89 272.78)">n<tspan class="cls-11" x="8.3" y="0">v</tspan></text><text class="cls-7" transform="translate(389.26 272.78)">er</text><text class="cls-8" transform="translate(403.68 272.78)">t</text><text class="cls-7" transform="translate(408.95 272.78)">er</text></g><g id="text17741"><text class="cls-12" transform="translate(15.04 367.58)">Legend:</text></g><rect id="rect17743" class="cls-13" x="6.17" y="345.63" width="378.77" height="157.67"/><rect id="rect11473" class="cls-14" x="16.94" y="376.53" width="70.83" height="26.1"/><g id="text11477"><g class="cls-6"><text class="cls-15" transform="translate(38.16 394.89)">L</text><text class="cls-7" transform="translate(45.42 394.89)">VL</text></g></g><rect id="rect11473-2" class="cls-14" x="494.13" y="108.36" width="42.4" height="26.1"/><rect id="rect11473-2-2" data-name="rect11473-2" class="cls-16" x="581.94" y="108.36" width="78" height="26.1"/><rect id="rect11473-2-3" data-name="rect11473-2" class="cls-16" x="581.94" y="238.36" width="78" height="26.1"/><g id="text11477-2"><g class="cls-6"><text class="cls-15" transform="translate(501.92 126.72)">L</text><text class="cls-7" transform="translate(509.18 126.72)">VL</text></g></g><rect id="rect11473-3" class="cls-14" x="494.13" y="239.37" width="42.4" height="26.1"/><g id="text11477-3"><g class="cls-6"><text class="cls-15" transform="translate(501.92 257.73)">L</text><text class="cls-7" transform="translate(509.18 257.73)">VL</text></g></g><g class="cls-6"><text class="cls-17" transform="translate(109.57 395.55)">V</text><text class="cls-7" transform="translate(118.13 395.55)">oltage L</text><text class="cls-8" transform="translate(172.02 395.55)">e</text><text class="cls-18" transform="translate(179.66 395.55)">v</text><text class="cls-7" transform="translate(187.41 395.55)">el Shif</text><text class="cls-8" transform="translate(229.14 395.55)">t</text><text class="cls-7" transform="translate(234.41 395.55)">er</text></g><path id="path12203-2" class="cls-19" d="M679.59,331.84v-12.3H1099v12.3" transform="translate(-535.06 -296.69)"/><path id="path12203-2-2" class="cls-19" d="M1311,331.84v-12.3h214v12.3" transform="translate(-535.06 -296.69)"/><g id="text12213-2"><g class="cls-6"><text class="cls-20" transform="translate(6.17 17.68)">T</text><text class="cls-21" transform="translate(17.44 17.68)">wis</text><text class="cls-22" transform="translate(47.08 17.68)">t</text><text class="cls-21" transform="translate(53.67 17.68)">ed Cable</text></g></g><g id="text12213-2-2"><g class="cls-6"><text class="cls-23" transform="translate(827.18 16.66)">Kaman</text><text class="cls-6" x="-535.06" y="-296.69"/><text class="cls-21" transform="translate(893.59 16.66)">I/O</text></g></g><path id="path12164" class="cls-19" d="M535.81,331.84v-12.3H672.37v12.3" transform="translate(-535.06 -296.69)"/><g class="cls-6"><text class="cls-21" transform="translate(188.06 18.74)">Dif</text><text class="cls-22" transform="translate(212.9 18.74)">f</text><text class="cls-21" transform="translate(218.71 18.74)">e</text><text class="cls-22" transform="translate(228.47 18.74)">r</text><text class="cls-21" transform="translate(236.45 18.74)">ential-</text><text class="cls-22" transform="translate(291.53 18.74)">t</text><text class="cls-21" transform="translate(298.12 18.74)">o</text><text class="cls-20" transform="translate(308.73 18.74)">-</text><text class="cls-21" transform="translate(314.79 18.74)">Sin</text><text class="cls-22" transform="translate(341.43 18.74)">g</text><text class="cls-21" transform="translate(351.18 18.74)">le-Ended Co</text><text class="cls-24" transform="translate(453.88 18.74)">n<tspan class="cls-25" x="10.39" y="0">v</tspan></text><text class="cls-21" transform="translate(474.34 18.74)">ersion</text></g><line class="cls-26" x1="206.95" y1="122.72" x2="331.08" y2="122.72"/><polygon class="cls-5" points="208.77 128.97 197.98 122.72 208.77 116.5 208.77 128.97"/><line class="cls-27" x1="448.05" y1="252.42" x2="485.16" y2="252.42"/><polygon points="483.34 258.67 494.13 252.44 483.34 246.19 483.34 258.67"/><line class="cls-27" x1="536.05" y1="252.42" x2="573.16" y2="252.42"/><polygon points="571.34 258.67 582.13 252.44 571.34 246.19 571.34 258.67"/><line class="cls-27" x1="659.94" y1="252.42" x2="765.94" y2="252.42"/><polygon points="765.94 258.67 776.73 252.44 765.94 246.19 765.94 258.67"/><line class="cls-27" x1="669.94" y1="121.41" x2="776.04" y2="121.41"/><polygon points="670.33 127.66 659.53 121.42 670.33 115.19 670.33 127.66"/><line class="cls-27" x1="457.02" y1="121.41" x2="494.13" y2="121.41"/><polygon points="458.84 127.66 448.05 121.42 458.84 115.19 458.84 127.66"/><line class="cls-27" x1="545.02" y1="121.41" x2="582.13" y2="121.41"/><polygon points="546.84 127.66 536.05 121.42 546.84 115.19 546.84 127.66"/><line class="cls-26" x1="197.98" y1="248.63" x2="322.23" y2="248.63"/><polygon class="cls-5" points="320.41 254.88 331.2 248.63 320.41 242.41 320.41 254.88"/><text class="cls-28" transform="translate(264.59 68.21) scale(1.02 1)">5V</text><text class="cls-29" transform="translate(794.55 68.2)">3.3V</text><line class="cls-27" x1="845.58" y1="105.41" x2="942.94" y2="105.41"/><polygon points="847.41 111.66 836.61 105.42 847.41 99.19 847.41 111.66"/><line class="cls-27" x1="845.58" y1="135.41" x2="942.94" y2="135.41"/><polygon points="847.41 141.66 836.61 135.41 847.41 129.19 847.41 141.66"/><line class="cls-27" x1="836.61" y1="241.41" x2="942.94" y2="241.41"/><polygon points="940.94 247.66 951.73 241.41 940.94 235.19 940.94 247.66"/><line class="cls-27" x1="836.61" y1="271.41" x2="942.94" y2="271.41"/><polygon points="940.94 277.65 951.73 271.42 940.94 265.19 940.94 277.65"/><text class="cls-30" transform="translate(228.08 116.62)">GP_IN (2x)</text><text class="cls-7" transform="translate(703.61 117.62)">MISO_IN</text><text class="cls-7" transform="translate(860.53 100.45)">X_MISO</text><text class="cls-7" transform="translate(860.53 130.23)">Y_MISO</text><text class="cls-7" transform="translate(844.09 235.58)">SPI_X_OUT</text><text class="cls-7" transform="translate(844.09 265.47)">SPI_Y_OUT</text><text class="cls-7" transform="translate(702.01 247.39)">SPI_OUT</text><text class="cls-30" transform="translate(227.28 241.88)">GP_OUT (2x)</text><text class="cls-30" transform="translate(40.83 146.85)">GP_IO(4x)</text><path id="path10776" class="cls-31" d="M746.87,428.87l12.4-17.1" transform="translate(-535.06 -296.69)"/><g id="text11530"><text class="cls-30" transform="translate(218.01 137.2)">4</text></g><path id="path10776-2" class="cls-31" d="M746.87,552.64l12.4-17.1" transform="translate(-535.06 -296.69)"/><g id="text11530-2"><text class="cls-30" transform="translate(216.9 263.01)">4</text></g><g id="text819-5-8-91-5-0-8-0-3-5-7-9-7-9"><text class="cls-32" transform="translate(515.33 53.26)">2x copies on PCB</text></g><path id="path5299" class="cls-33" d="M610.72,760.17l-9.8,5.7v-11.3Z" transform="translate(-535.06 -296.69)"/><path id="path5297" class="cls-34" d="M604.22,760.17" transform="translate(-535.06 -296.69)"/><g id="text7955"><g class="cls-6"><text class="cls-7" transform="translate(110.98 464.67)">Sin</text><text class="cls-8" transform="translate(132.29 464.67)">g</text><text class="cls-7" transform="translate(140.09 464.67)">le-Ended signal</text></g></g><path id="path7969" class="cls-35" d="M610.72,781.77l-9.8,5.7v-11.4Z" transform="translate(-535.06 -296.69)"/><path id="path7963" class="cls-36" d="M584.22,781.77" transform="translate(-535.06 -296.69)"/><g id="text7967"><g class="cls-6"><text class="cls-7" transform="translate(109.98 488.18)">Dif</text><text class="cls-8" transform="translate(129.86 488.18)">f</text><text class="cls-7" transform="translate(134.5 488.18)">e</text><text class="cls-8" transform="translate(142.31 488.18)">r</text><text class="cls-7" transform="translate(148.69 488.18)">ential signal</text></g></g><line class="cls-37" x1="66.94" y1="485.46" x2="25.27" y2="485.46"/><line class="cls-38" x1="66.94" y1="463.46" x2="25.27" y2="463.46"/><g id="text11471"><text class="cls-30" transform="translate(9.43 108.36)">f</text><text class="cls-30" transform="translate(14.27 108.36)">r</text><text class="cls-30" transform="translate(20.66 108.36)">om AMDC</text></g><text class="cls-39" transform="translate(811.23 262.99) rotate(-90)">Mic<tspan class="cls-40" x="24.55" y="0">r</tspan><tspan x="30.93" y="0">o DB-9 Connec</tspan><tspan class="cls-41" x="131.22" y="0">t</tspan><tspan x="136.49" y="0">or</tspan></text><text class="cls-39" transform="translate(594.99 127.01)">FI<tspan class="cls-42" x="13.77" y="0">L</tspan><tspan x="20.72" y="0">TER</tspan></text><text class="cls-39" transform="translate(595.77 256.83)">FI<tspan class="cls-42" x="13.77" y="0">L</tspan><tspan x="20.72" y="0">TER</tspan></text><rect id="rect11473-2-4" data-name="rect11473-2" class="cls-16" x="17.12" y="414.13" width="70.83" height="26.1"/><text class="cls-39" transform="translate(26.94 432.6)">FI<tspan class="cls-42" x="13.77" y="0">L</tspan><tspan x="20.72" y="0">TER</tspan></text><text class="cls-39" transform="translate(109.33 432.27)">Gli<tspan class="cls-41" x="18.56" y="0">t</tspan><tspan x="23.84" y="0">ch Fil</tspan><tspan class="cls-41" x="60.62" y="0">t</tspan><tspan x="65.89" y="0">er</tspan></text><path id="path10776-2-2" data-name="path10776" class="cls-43" d="M1455,409.34l12.4-17.1" transform="translate(-535.06 -296.69)"/><g id="text11530-2-2" data-name="text11530"><text class="cls-7" transform="translate(926.14 119.68)">2</text></g><path id="path10776-3" data-name="path10776" class="cls-43" d="M1455.37,438.15l12.4-17.1" transform="translate(-535.06 -296.69)"/><g id="text11530-3" data-name="text11530"><text class="cls-7" transform="translate(926.52 150.49)">2</text></g><path id="path10776-4" data-name="path10776" class="cls-43" d="M1456.37,544.15l12.4-17.1" transform="translate(-535.06 -296.69)"/><g id="text11530-4" data-name="text11530"><text class="cls-7" transform="translate(927.52 254.49)">2</text></g><path id="path10776-5" data-name="path10776" class="cls-43" d="M1455.37,574.15l12.4-17.1" transform="translate(-535.06 -296.69)"/><g id="text11530-5" data-name="text11530"><text class="cls-7" transform="translate(926.52 285.49)">2</text></g><path id="path12203-2-2-2" data-name="path12203-2" class="cls-19" d="M1106,332.29V320h200v12.3" transform="translate(-535.06 -296.69)"/><text class="cls-44" transform="translate(607.77 17.18)">Signal Fil<tspan class="cls-41" x="77.84" y="0">t</tspan><tspan x="84.43" y="0">ering</tspan></text></svg>