G04*
G04 #@! TF.GenerationSoftware,Altium Limited,Altium Designer,20.1.8 (145)*
G04*
G04 Layer_Color=65535*
%FSLAX25Y25*%
%MOIN*%
G70*
G04*
G04 #@! TF.SameCoordinates,B2AC8D30-3016-4A67-80AC-21C0F90DA472*
G04*
G04*
G04 #@! TF.FilePolarity,Positive*
G04*
G01*
G75*
%ADD10C,0.01200*%
%ADD11C,0.00787*%
%ADD12C,0.00984*%
%ADD13C,0.02362*%
%ADD14C,0.01000*%
%ADD15C,0.00500*%
%ADD16C,0.01378*%
%ADD17C,0.00600*%
%ADD18C,0.01968*%
G36*
X407700Y442700D02*
X397613D01*
Y442700D01*
X388200D01*
Y469788D01*
X397613D01*
Y469788D01*
X407700D01*
Y442700D01*
D02*
G37*
G36*
X249700Y214955D02*
X246164D01*
Y218491D01*
X249700D01*
Y214955D01*
D02*
G37*
%LPC*%
G36*
X394391Y468338D02*
X394380D01*
X394331Y468332D01*
X394298Y468316D01*
X394276Y468300D01*
X394271Y468294D01*
X394249Y468267D01*
X394227Y468234D01*
X394211Y468163D01*
X394205Y468130D01*
X394200Y468103D01*
Y467486D01*
X394205Y467415D01*
X394222Y467360D01*
X394238Y467328D01*
X394244Y467322D01*
Y467317D01*
X394282Y467284D01*
X394326Y467268D01*
X394358Y467262D01*
X394369D01*
X394375D01*
X394413Y467268D01*
X394446Y467273D01*
X394468Y467279D01*
X394473Y467284D01*
X394500Y467311D01*
X394522Y467339D01*
X394539Y467366D01*
X394544Y467377D01*
X394571Y467426D01*
X394599Y467464D01*
X394626Y467497D01*
X394648Y467519D01*
X394675Y467541D01*
X394691Y467552D01*
X394702Y467562D01*
X394708D01*
X394746Y467579D01*
X394790Y467595D01*
X394883Y467612D01*
X394921Y467617D01*
X394953D01*
X394975D01*
X394986D01*
X395658D01*
X396122Y467972D01*
X394986D01*
X394926D01*
X394877Y467977D01*
X394828Y467988D01*
X394790Y467994D01*
X394757Y468005D01*
X394735Y468010D01*
X394719Y468016D01*
X394713D01*
X394681Y468038D01*
X394653Y468059D01*
X394604Y468114D01*
X394588Y468136D01*
X394577Y468158D01*
X394566Y468168D01*
Y468174D01*
X394549Y468207D01*
X394533Y468234D01*
X394506Y468278D01*
X394489Y468300D01*
X394484Y468305D01*
X394451Y468327D01*
X394419Y468332D01*
X394391Y468338D01*
D02*
G37*
G36*
X397547D02*
Y467972D01*
X396439D01*
X394200Y466678D01*
Y465253D01*
Y465542D01*
X394205Y465488D01*
Y465449D01*
X394211Y465417D01*
X394216Y465395D01*
Y465379D01*
X394222Y465368D01*
X394244Y465335D01*
X394266Y465313D01*
X394282Y465297D01*
X394293Y465291D01*
X394326Y465275D01*
X394358Y465269D01*
X394380Y465264D01*
X394391D01*
X394429Y465269D01*
X394462Y465280D01*
X394484Y465286D01*
X394489Y465291D01*
X394517Y465318D01*
X394533Y465346D01*
X394544Y465368D01*
X394549Y465373D01*
X394577Y465444D01*
X394593Y465482D01*
X394610Y465510D01*
X394620Y465526D01*
X394626Y465531D01*
X394637Y465542D01*
X394653Y465553D01*
X394691Y465581D01*
X394724Y465602D01*
X394735Y465608D01*
X394741D01*
X397547Y467235D01*
Y466236D01*
Y467235D01*
Y468338D01*
D02*
G37*
G36*
X397389Y466323D02*
X397383D01*
X397378D01*
X397345Y466318D01*
X397312Y466307D01*
X397269Y466279D01*
X397241Y466247D01*
X397230Y466236D01*
Y466230D01*
X397192Y466159D01*
X397143Y466094D01*
X397094Y466045D01*
X397072Y466028D01*
X397056Y466017D01*
X397045Y466006D01*
X397039D01*
X397001Y465990D01*
X396957Y465979D01*
X396876Y465963D01*
X396837D01*
X396810Y465957D01*
X396788D01*
X396783D01*
X395499D01*
X395041Y465602D01*
X396783D01*
X396886Y465597D01*
X396974Y465575D01*
X397045Y465548D01*
X397099Y465520D01*
X397143Y465488D01*
X397170Y465460D01*
X397187Y465439D01*
X397192Y465433D01*
X397214Y465395D01*
X397230Y465357D01*
X397247Y465335D01*
X397258Y465313D01*
X397269Y465297D01*
X397280Y465286D01*
X397285Y465280D01*
X397312Y465264D01*
X397345Y465258D01*
X397367Y465253D01*
X397547D01*
X397378D01*
X397405Y465258D01*
X397432Y465264D01*
X397476Y465297D01*
X397503Y465335D01*
X397525Y465384D01*
X397536Y465433D01*
X397542Y465477D01*
X397547Y465504D01*
Y466116D01*
X397542Y466154D01*
X397536Y466187D01*
X397525Y466208D01*
X397520Y466230D01*
X397514Y466241D01*
X397509Y466252D01*
X397487Y466274D01*
X397465Y466296D01*
X397422Y466312D01*
X397389Y466323D01*
D02*
G37*
G36*
X395920Y464996D02*
X395882D01*
X395723Y464991D01*
X395576Y464974D01*
X395434Y464947D01*
X395308Y464920D01*
X395183Y464876D01*
X395074Y464838D01*
X394970Y464789D01*
X394883Y464745D01*
X394801Y464696D01*
X394730Y464647D01*
X394670Y464609D01*
X394615Y464570D01*
X394577Y464538D01*
X394549Y464510D01*
X394533Y464494D01*
X394528Y464489D01*
X394462Y464418D01*
X394408Y464347D01*
X394358Y464276D01*
X394320Y464216D01*
X394287Y464161D01*
X394266Y464117D01*
X394255Y464090D01*
X394249Y464079D01*
X394216Y463992D01*
X394189Y463899D01*
X394173Y463811D01*
X394156Y463724D01*
X394151Y463653D01*
X394145Y463593D01*
X394140Y463571D01*
Y464996D01*
D01*
Y461993D01*
D01*
Y463446D01*
X394145Y463331D01*
X394162Y463222D01*
X394178Y463129D01*
X394200Y463053D01*
X394216Y462987D01*
X394233Y462938D01*
X394244Y462911D01*
X394249Y462900D01*
X394287Y462818D01*
X394331Y462741D01*
X394380Y462676D01*
X394424Y462616D01*
X394462Y462561D01*
X394495Y462523D01*
X394517Y462501D01*
X394528Y462490D01*
X394626Y462403D01*
X394724Y462326D01*
X394823Y462261D01*
X394915Y462206D01*
X394997Y462168D01*
X395030Y462152D01*
X395057Y462135D01*
X395085Y462124D01*
X395101Y462119D01*
X395112Y462113D01*
X395117D01*
X395248Y462075D01*
X395379Y462042D01*
X395511Y462021D01*
X395625Y462010D01*
X395680Y462004D01*
X395729Y461999D01*
X395773D01*
X395811Y461993D01*
X394140D01*
X397607D01*
X395882D01*
X396035Y461999D01*
X396182Y462015D01*
X396319Y462037D01*
X396444Y462070D01*
X396564Y462103D01*
X396673Y462146D01*
X396772Y462184D01*
X396859Y462233D01*
X396941Y462277D01*
X397007Y462321D01*
X397067Y462359D01*
X397116Y462392D01*
X397154Y462425D01*
X397181Y462446D01*
X397198Y462463D01*
X397203Y462468D01*
X397269Y462539D01*
X397323Y462616D01*
X397372Y462698D01*
X397416Y462780D01*
X397454Y462861D01*
X397487Y462943D01*
X397542Y463096D01*
X397558Y463167D01*
X397574Y463233D01*
X397585Y463293D01*
X397596Y463347D01*
X397602Y463386D01*
Y463418D01*
X397607Y463440D01*
Y463446D01*
X397269D01*
X397252Y463397D01*
X397236Y463358D01*
X397219Y463331D01*
X397203Y463309D01*
X397192Y463293D01*
X397181Y463282D01*
X397170Y463271D01*
X397138Y463254D01*
X397099Y463244D01*
X397012Y463233D01*
X396974Y463227D01*
X396941D01*
X396919D01*
X396908D01*
X394779D01*
X394735D01*
X394691Y463233D01*
X394659Y463238D01*
X394631Y463249D01*
X394615Y463254D01*
X394599Y463260D01*
X394588Y463266D01*
X394566Y463282D01*
X394544Y463309D01*
X394511Y463369D01*
X394495Y463397D01*
X394489Y463424D01*
X394479Y463440D01*
Y463446D01*
X394140D01*
Y463539D01*
X394479D01*
X394489Y463571D01*
X394506Y463598D01*
X394522Y463642D01*
X394533Y463664D01*
X394539Y463669D01*
X394560Y463691D01*
X394577Y463708D01*
X394599Y463719D01*
X394604Y463724D01*
X394659Y463746D01*
X394713Y463757D01*
X394741Y463762D01*
X394762D01*
X394773D01*
X394779D01*
X396908D01*
X396974D01*
X397028Y463751D01*
X397072Y463746D01*
X397110Y463735D01*
X397138Y463724D01*
X397159Y463713D01*
X397170Y463708D01*
X397176Y463702D01*
X397198Y463686D01*
X397214Y463669D01*
X397219Y463659D01*
X397225Y463653D01*
X397230Y463642D01*
X397236Y463626D01*
X397252Y463588D01*
X397258Y463555D01*
X397263Y463544D01*
Y463539D01*
X397607D01*
D01*
X397596Y463648D01*
X397580Y463757D01*
X397558Y463855D01*
X397525Y463948D01*
X397498Y464035D01*
X397460Y464112D01*
X397427Y464188D01*
X397389Y464254D01*
X397356Y464308D01*
X397323Y464363D01*
X397290Y464407D01*
X397263Y464445D01*
X397236Y464472D01*
X397219Y464494D01*
X397208Y464505D01*
X397203Y464510D01*
X397110Y464598D01*
X397007Y464669D01*
X396903Y464734D01*
X396794Y464789D01*
X396684Y464838D01*
X396575Y464876D01*
X396466Y464909D01*
X396362Y464936D01*
X396264Y464958D01*
X396171Y464969D01*
X396089Y464980D01*
X396018Y464991D01*
X395964D01*
X395920Y464996D01*
D02*
G37*
G36*
X399440Y464303D02*
X399374D01*
X399254Y464297D01*
X399139Y464276D01*
X399041Y464248D01*
X398959Y464216D01*
X398888Y464183D01*
X398839Y464155D01*
X398806Y464134D01*
X398795Y464128D01*
X398713Y464063D01*
X398642Y463992D01*
X398582Y463915D01*
X398533Y463844D01*
X398495Y463779D01*
X398468Y463730D01*
X398457Y463708D01*
X398451Y463691D01*
X398446Y463686D01*
Y463680D01*
X398429Y463631D01*
X398413Y463577D01*
X398391Y463451D01*
X398369Y463320D01*
X398358Y463189D01*
X398353Y463069D01*
Y463020D01*
X398347Y462976D01*
D01*
Y462883D01*
X398702D01*
X398708Y462932D01*
X398719Y462971D01*
X398730Y463009D01*
X398741Y463031D01*
X398751Y463053D01*
X398762Y463063D01*
X398768Y463074D01*
X398801Y463107D01*
X398828Y463124D01*
X398850Y463134D01*
X398861Y463140D01*
X398877Y463145D01*
X398904Y463151D01*
X398948Y463156D01*
X398975D01*
X398992D01*
X399003D01*
X399008D01*
X399767D01*
X399816D01*
X399865Y463151D01*
X399904Y463145D01*
X399936Y463134D01*
X399958Y463129D01*
X399975Y463118D01*
X399986Y463113D01*
X399991D01*
X400024Y463091D01*
X400046Y463074D01*
X400057Y463058D01*
X400062Y463053D01*
X400067Y463036D01*
X400078Y463014D01*
X400095Y462960D01*
X400100Y462938D01*
X400106Y462916D01*
X400111Y462900D01*
Y462894D01*
X400455D01*
Y462987D01*
X400450Y463069D01*
X400444Y463151D01*
X400439Y463216D01*
X400433Y463282D01*
X400428Y463336D01*
X400417Y463386D01*
X400411Y463429D01*
X400400Y463468D01*
X400395Y463500D01*
X400389Y463527D01*
X400379Y463549D01*
X400373Y463571D01*
X400368Y463582D01*
X400319Y463713D01*
X400258Y463828D01*
X400198Y463921D01*
X400138Y463997D01*
X400084Y464057D01*
X400040Y464095D01*
X400013Y464123D01*
X400002Y464128D01*
X399904Y464188D01*
X399800Y464232D01*
X399696Y464259D01*
X399598Y464281D01*
X399505Y464292D01*
X399472Y464297D01*
X399440Y464303D01*
D02*
G37*
G36*
X398347Y462883D02*
D01*
Y462796D01*
Y462883D01*
D02*
G37*
G36*
X401536Y463091D02*
X401525D01*
X401520D01*
X401471Y463085D01*
X401432Y463063D01*
X401400Y463036D01*
X401378Y463003D01*
X401361Y462965D01*
X401345Y462938D01*
X401340Y462916D01*
Y462911D01*
X401329Y462872D01*
X401323Y462851D01*
X401318Y462845D01*
Y462840D01*
X401312Y462829D01*
X401301Y462818D01*
X401290Y462812D01*
X401285Y462807D01*
X401279Y462801D01*
X401269D01*
X401236Y462796D01*
X401208D01*
X401203D01*
X401198D01*
X398347D01*
Y461393D01*
Y461617D01*
X398353Y461546D01*
X398369Y461496D01*
X398391Y461464D01*
X398397Y461458D01*
Y461453D01*
X398413Y461431D01*
X398435Y461420D01*
X398473Y461398D01*
X398506Y461393D01*
X398347D01*
X401694D01*
D01*
X401525D01*
X401558Y461398D01*
X401580Y461404D01*
X401623Y461425D01*
X401645Y461442D01*
X401656Y461453D01*
X401678Y461502D01*
X401689Y461556D01*
X401694Y461578D01*
Y462867D01*
D01*
X401689Y462900D01*
X401684Y462932D01*
X401678Y462954D01*
X401673Y462976D01*
X401667Y462987D01*
X401662Y462998D01*
X401640Y463031D01*
X401618Y463053D01*
X401591Y463069D01*
X401569Y463080D01*
X401536Y463091D01*
D02*
G37*
G36*
X395221Y461649D02*
X395205D01*
X395194D01*
X395188D01*
X394402D01*
X394326Y461644D01*
X394271Y461627D01*
X394249Y461622D01*
X394233Y461611D01*
X394227Y461606D01*
X394222D01*
X394200Y461589D01*
X394184Y461567D01*
X394162Y461524D01*
X394156Y461485D01*
Y461469D01*
X394162Y461442D01*
X394167Y461414D01*
X394195Y461371D01*
X394227Y461343D01*
X394233Y461333D01*
X394238D01*
X394315Y461278D01*
Y461240D01*
X394309Y461218D01*
X394304Y461202D01*
Y461196D01*
X394276Y461131D01*
X394255Y461070D01*
X394233Y461016D01*
X394216Y460972D01*
X394205Y460940D01*
X394200Y460912D01*
X394195Y460896D01*
Y460890D01*
X394184Y460847D01*
X394173Y460798D01*
X394162Y460699D01*
X394156Y460650D01*
X394151Y460617D01*
Y460585D01*
X394500D01*
X394528Y460683D01*
X394555Y460770D01*
X394588Y460841D01*
X394615Y460907D01*
X394642Y460950D01*
X394659Y460989D01*
X394675Y461011D01*
X394681Y461016D01*
X394741Y461049D01*
X394795Y461082D01*
X394844Y461103D01*
X394883Y461125D01*
X394915Y461147D01*
X394943Y461158D01*
X394959Y461169D01*
X394965D01*
X395052Y461207D01*
X395123Y461234D01*
X395156Y461245D01*
X395177Y461251D01*
X395194Y461256D01*
X395199D01*
X395237Y461267D01*
X395270Y461273D01*
X395292Y461283D01*
X395298D01*
X395319Y461300D01*
X395336Y461311D01*
X395347Y461322D01*
X395352Y461327D01*
X395379Y461371D01*
X395390Y461414D01*
X395396Y461442D01*
Y461453D01*
X395390Y461485D01*
X395385Y461513D01*
X395363Y461556D01*
X395347Y461584D01*
X395336Y461595D01*
X395287Y461627D01*
X395237Y461644D01*
X395221Y461649D01*
D02*
G37*
G36*
X396493Y461759D02*
X396439D01*
X396362Y461753D01*
X396286Y461742D01*
X396209Y461726D01*
X396144Y461704D01*
X396013Y461649D01*
X395904Y461589D01*
X395854Y461556D01*
X395816Y461529D01*
X395778Y461496D01*
X395745Y461475D01*
X395723Y461453D01*
X395707Y461436D01*
X395696Y461425D01*
X395691Y461420D01*
X395652Y461393D01*
X395620Y461365D01*
X395560Y461300D01*
X395538Y461273D01*
X395521Y461251D01*
X395516Y461234D01*
X395511Y461229D01*
X395483Y461180D01*
X395450Y461125D01*
X395423Y461070D01*
X395396Y461016D01*
X395369Y460967D01*
X395352Y460929D01*
X395341Y460901D01*
X395336Y460890D01*
X395308Y460830D01*
X395287Y460770D01*
X395243Y460677D01*
X395205Y460596D01*
X395177Y460535D01*
X395156Y460492D01*
X395139Y460464D01*
X395128Y460448D01*
Y460443D01*
X395101Y460399D01*
X395074Y460361D01*
X395052Y460328D01*
X395030Y460301D01*
X395008Y460279D01*
X394992Y460268D01*
X394986Y460262D01*
X394981Y460257D01*
X394915Y460224D01*
X394855Y460208D01*
X394833D01*
X394812Y460202D01*
X394801D01*
X394795D01*
X394757Y460208D01*
X394724Y460213D01*
X394670Y460235D01*
X394648Y460246D01*
X394631Y460257D01*
X394626Y460268D01*
X394620D01*
X394593Y460295D01*
X394571Y460333D01*
X394533Y460410D01*
X394517Y460448D01*
X394506Y460475D01*
X394500Y460497D01*
Y460503D01*
X394140D01*
X394156Y460328D01*
X394184Y460175D01*
X394222Y460044D01*
X394238Y459984D01*
X394260Y459935D01*
X394282Y459886D01*
X394298Y459842D01*
X394315Y459809D01*
X394331Y459782D01*
X394348Y459760D01*
X394353Y459738D01*
X394364Y459733D01*
Y459727D01*
X394424Y459651D01*
X394484Y459585D01*
X394549Y459531D01*
X394615Y459482D01*
X394670Y459449D01*
X394713Y459422D01*
X394741Y459405D01*
X394746Y459400D01*
X394752D01*
X394844Y459362D01*
X394937Y459334D01*
X395024Y459312D01*
X395101Y459302D01*
X395172Y459291D01*
X395227Y459285D01*
X394140D01*
X396028D01*
X395276D01*
X395379Y459291D01*
X395472Y459307D01*
X395565Y459329D01*
X395652Y459356D01*
X395729Y459394D01*
X395805Y459433D01*
X395871Y459476D01*
X395931Y459520D01*
X395986Y459564D01*
X396035Y459607D01*
X396073Y459646D01*
X396111Y459684D01*
X396138Y459711D01*
X396155Y459733D01*
X396166Y459749D01*
X396171Y459755D01*
X396220Y459826D01*
X396258Y459891D01*
X396275Y459918D01*
X396286Y459940D01*
X396297Y459951D01*
Y459957D01*
X396319Y460006D01*
X396346Y460066D01*
X396379Y460137D01*
X396411Y460202D01*
X396439Y460268D01*
X396461Y460317D01*
X396471Y460339D01*
X396477Y460355D01*
X396482Y460361D01*
Y460366D01*
X396526Y460454D01*
X396559Y460530D01*
X396592Y460590D01*
X396619Y460639D01*
X396641Y460672D01*
X396657Y460699D01*
X396668Y460710D01*
X396673Y460716D01*
X396712Y460759D01*
X396755Y460787D01*
X396794Y460809D01*
X396832Y460825D01*
X396865Y460836D01*
X396892Y460841D01*
X396908D01*
X396914D01*
X396957Y460836D01*
X397001Y460830D01*
X397039Y460814D01*
X397067Y460803D01*
X397088Y460787D01*
X397105Y460770D01*
X397116Y460765D01*
X397121Y460759D01*
X397148Y460727D01*
X397176Y460677D01*
X397219Y460579D01*
X397236Y460530D01*
X397247Y460492D01*
X397252Y460464D01*
X397258Y460454D01*
X397607D01*
Y460530D01*
X397602Y460596D01*
X397591Y460661D01*
X397585Y460716D01*
X397574Y460765D01*
X397569Y460798D01*
X397563Y460825D01*
Y460830D01*
X397547Y460896D01*
X397525Y460956D01*
X397503Y461016D01*
X397487Y461060D01*
X397471Y461103D01*
X397454Y461131D01*
X397449Y461152D01*
X397443Y461158D01*
X397383Y461256D01*
X397312Y461343D01*
X397241Y461420D01*
X397176Y461480D01*
X397116Y461529D01*
X397067Y461567D01*
X397034Y461589D01*
X397028Y461595D01*
X397023D01*
X396919Y461649D01*
X396821Y461688D01*
X396723Y461720D01*
X396630Y461737D01*
X396553Y461748D01*
X396493Y461759D01*
D02*
G37*
G36*
X398528Y461065D02*
X398347D01*
Y457980D01*
Y458204D01*
X398353Y458139D01*
X398369Y458084D01*
X398391Y458051D01*
X398397Y458046D01*
Y458040D01*
X398413Y458018D01*
X398435Y458007D01*
X398479Y457986D01*
X398511Y457980D01*
X398347D01*
X401755D01*
X398528D01*
X398571Y457986D01*
X398610Y458002D01*
X398637Y458018D01*
X398659Y458046D01*
X398675Y458068D01*
X398686Y458084D01*
X398697Y458100D01*
Y458106D01*
X398708Y458128D01*
X398713Y458149D01*
X398724Y458171D01*
X398730Y458182D01*
X398735Y458193D01*
X398741Y458199D01*
X398768Y458210D01*
X398795Y458220D01*
X398822D01*
X398828D01*
X398833D01*
X400701D01*
X400815Y458226D01*
X400919Y458231D01*
X401007Y458248D01*
X401078Y458264D01*
X401132Y458275D01*
X401176Y458291D01*
X401198Y458297D01*
X401208Y458302D01*
X401269Y458335D01*
X401323Y458379D01*
X401378Y458422D01*
X401421Y458472D01*
X401454Y458510D01*
X401487Y458543D01*
X401503Y458564D01*
X401509Y458575D01*
X401552Y458652D01*
X401596Y458723D01*
X401629Y458799D01*
X401651Y458865D01*
X401673Y458925D01*
X401689Y458968D01*
X401694Y459001D01*
X401700Y459012D01*
X401716Y459094D01*
X401733Y459187D01*
X401744Y459274D01*
X401749Y459356D01*
Y459433D01*
X401755Y459487D01*
Y459651D01*
X401367D01*
X401350Y459607D01*
X401340Y459569D01*
X401329Y459536D01*
X401318Y459514D01*
X401312Y459498D01*
Y459487D01*
X401307Y459482D01*
X401285Y459460D01*
X401258Y459444D01*
X401241Y459433D01*
X401230Y459427D01*
X401192Y459411D01*
X401154Y459400D01*
X401121Y459389D01*
X401116D01*
X401110D01*
X401078D01*
X401034Y459383D01*
X400941D01*
X400897D01*
X400859D01*
X400837D01*
X400826D01*
X398833D01*
X398790Y459389D01*
X398762Y459394D01*
X398746Y459400D01*
X398741D01*
X398730Y459405D01*
Y459411D01*
X398724Y459416D01*
Y459427D01*
X398713Y459449D01*
X398702Y459476D01*
X398697Y459482D01*
Y459487D01*
X398675Y459531D01*
X398653Y459564D01*
X398626Y459591D01*
X398593Y459607D01*
X398571Y459618D01*
X398550Y459624D01*
X398533D01*
X398528D01*
X398484Y459618D01*
X398451Y459607D01*
X398429Y459591D01*
X398424Y459585D01*
X398397Y459553D01*
X398375Y459520D01*
X398369Y459498D01*
X398364Y459493D01*
Y459487D01*
X398347Y459389D01*
Y460213D01*
X398353Y460137D01*
X398364Y460082D01*
X398375Y460060D01*
X398380Y460044D01*
X398386Y460039D01*
Y460033D01*
X398402Y460011D01*
X398424Y460000D01*
X398462Y459978D01*
X398495Y459973D01*
X398506D01*
X398511D01*
X398560Y459978D01*
X398593Y459990D01*
X398615Y459995D01*
X398621Y460000D01*
X398648Y460033D01*
X398675Y460071D01*
X398697Y460104D01*
X398702Y460110D01*
Y460115D01*
X398751Y460191D01*
X398817Y460246D01*
X398883Y460290D01*
X398948Y460317D01*
X399014Y460333D01*
X399063Y460339D01*
X399085Y460344D01*
X399101D01*
X399106D01*
X399112D01*
X400668D01*
X400788Y460339D01*
X400897Y460317D01*
X400996Y460284D01*
X401083Y460252D01*
X401154Y460219D01*
X401208Y460186D01*
X401225Y460175D01*
X401241Y460164D01*
X401247Y460159D01*
X401252D01*
X401279Y460104D01*
X401296Y460044D01*
X401318Y459978D01*
X401329Y459913D01*
X401340Y459853D01*
X401350Y459809D01*
X401356Y459776D01*
Y459766D01*
X401755D01*
X401744Y459847D01*
X401733Y459918D01*
X401716Y459978D01*
X401705Y460028D01*
X401689Y460071D01*
X401684Y460099D01*
X401673Y460115D01*
Y460120D01*
X401623Y460213D01*
X401569Y460290D01*
X401509Y460361D01*
X401449Y460415D01*
X401400Y460459D01*
X401356Y460492D01*
X401329Y460514D01*
X401318Y460519D01*
X401225Y460579D01*
X401116Y460623D01*
X401007Y460656D01*
X400903Y460677D01*
X400810Y460688D01*
X400772Y460694D01*
X400739Y460699D01*
X400706D01*
X400684D01*
X400673D01*
X400668D01*
X399112D01*
X399019Y460705D01*
X398975Y460716D01*
X398943Y460727D01*
X398910Y460732D01*
X398888Y460743D01*
X398877Y460748D01*
X398872D01*
X398833Y460770D01*
X398801Y460798D01*
X398751Y460847D01*
X398735Y460869D01*
X398724Y460885D01*
X398713Y460896D01*
Y460901D01*
X398697Y460934D01*
X398680Y460956D01*
X398664Y460978D01*
X398659Y460989D01*
X398648Y461000D01*
X398642Y461005D01*
X398621Y461027D01*
X398599Y461038D01*
X398560Y461060D01*
X398528Y461065D01*
D02*
G37*
G36*
X397607Y460415D02*
Y460377D01*
X397252D01*
X397236Y460301D01*
X397219Y460235D01*
X397198Y460181D01*
X397176Y460131D01*
X397159Y460099D01*
X397143Y460071D01*
X397138Y460055D01*
X397132Y460049D01*
X397072Y459995D01*
X397017Y459946D01*
X396963Y459908D01*
X396908Y459869D01*
X396870Y459837D01*
X396832Y459815D01*
X396810Y459804D01*
X396804Y459798D01*
X396673Y459733D01*
X396608Y459711D01*
X396548Y459689D01*
X396499Y459673D01*
X396461Y459662D01*
X396439Y459651D01*
X396428D01*
X396368Y459629D01*
X396329Y459607D01*
X396302Y459585D01*
X396297Y459580D01*
X396269Y459547D01*
X396258Y459504D01*
X396253Y459471D01*
Y459433D01*
X396264Y459411D01*
X396286Y459367D01*
X396308Y459345D01*
X396313Y459334D01*
X396319D01*
X396368Y459307D01*
X396417Y459291D01*
X396433D01*
X396450Y459285D01*
X397607D01*
Y460415D01*
D02*
G37*
G36*
X397613Y459067D02*
X394200D01*
X397028D01*
X397007Y459056D01*
X396968Y459039D01*
X396941Y459018D01*
X396930Y459012D01*
Y459007D01*
X396908Y458985D01*
X396897Y458963D01*
X396876Y458925D01*
X396870Y458897D01*
Y458886D01*
X396876Y458854D01*
X396886Y458826D01*
X396925Y458772D01*
X396947Y458750D01*
X396963Y458734D01*
X396974Y458728D01*
X396979Y458723D01*
X396996Y458706D01*
X396990D01*
X396985D01*
X396979D01*
X396482D01*
X396439D01*
X396395Y458695D01*
X396357Y458690D01*
X396324Y458679D01*
X396291Y458668D01*
X396269Y458657D01*
X396258Y458652D01*
X396253Y458646D01*
X396171Y458592D01*
X396111Y458537D01*
X396084Y458510D01*
X396067Y458488D01*
X396057Y458477D01*
X396051Y458472D01*
X396002Y458395D01*
X395969Y458324D01*
X395953Y458291D01*
X395942Y458270D01*
X395936Y458253D01*
Y458248D01*
X395909Y458149D01*
X395904Y458100D01*
X395898Y458051D01*
X395893Y458007D01*
Y457947D01*
X395887Y458018D01*
X395876Y458084D01*
X395865Y458139D01*
X395854Y458188D01*
X395844Y458226D01*
X395833Y458253D01*
X395822Y458270D01*
Y458275D01*
X395773Y458362D01*
X395745Y458401D01*
X395723Y458433D01*
X395702Y458455D01*
X395685Y458477D01*
X395674Y458488D01*
X395669Y458493D01*
X395576Y458570D01*
X395483Y458625D01*
X395385Y458668D01*
X395292Y458695D01*
X395210Y458712D01*
X395172Y458717D01*
X395145D01*
X395117Y458723D01*
X395101D01*
X395090D01*
X395085D01*
X395003Y458717D01*
X394932Y458706D01*
X394861Y458690D01*
X394795Y458668D01*
X394681Y458613D01*
X394582Y458554D01*
X394511Y458493D01*
X394457Y458439D01*
X394435Y458417D01*
X394424Y458401D01*
X394413Y458390D01*
Y458384D01*
X394358Y458297D01*
X394315Y458210D01*
X394282Y458122D01*
X394255Y458040D01*
X394238Y457969D01*
X394227Y457915D01*
Y457893D01*
X394222Y457876D01*
Y457865D01*
X394216Y457789D01*
X394211Y457713D01*
X394205Y457636D01*
X394200Y457565D01*
Y457571D01*
Y455818D01*
Y456042D01*
X394205Y455971D01*
X394222Y455922D01*
X394244Y455889D01*
X394249Y455884D01*
Y455878D01*
X394266Y455856D01*
X394287Y455845D01*
X394326Y455824D01*
X394358Y455818D01*
X394200D01*
X397278D01*
X394375D01*
X394424Y455824D01*
X394462Y455840D01*
X394489Y455856D01*
X394511Y455884D01*
X394528Y455905D01*
X394539Y455922D01*
X394549Y455938D01*
Y455944D01*
X394560Y455965D01*
X394566Y455987D01*
X394577Y456009D01*
X394582Y456020D01*
X394588Y456031D01*
X394593Y456036D01*
X394620Y456047D01*
X394648Y456058D01*
X394675D01*
X394681D01*
X394686D01*
X397067D01*
X397110Y456053D01*
X397138Y456047D01*
X397154Y456042D01*
X397159Y456036D01*
X397170Y456026D01*
X397176Y456020D01*
Y456015D01*
X397181Y456004D01*
X397187Y455982D01*
X397198Y455955D01*
X397203Y455949D01*
Y455944D01*
X397225Y455900D01*
X397247Y455873D01*
X397280Y455851D01*
X397307Y455834D01*
X397334Y455824D01*
X397356Y455818D01*
X397378D01*
X397411Y455824D01*
X397432Y455829D01*
X397476Y455851D01*
X397498Y455867D01*
X397509Y455878D01*
X397531Y455927D01*
X397542Y455982D01*
X397547Y456004D01*
Y457292D01*
X397542Y457325D01*
X397536Y457358D01*
X397531Y457380D01*
X397525Y457401D01*
X397520Y457412D01*
X397514Y457423D01*
X397493Y457456D01*
X397471Y457478D01*
X397443Y457494D01*
X397422Y457505D01*
X397389Y457516D01*
X397378D01*
X397372D01*
X397323Y457511D01*
X397285Y457489D01*
X397252Y457462D01*
X397230Y457429D01*
X397214Y457390D01*
X397198Y457363D01*
X397192Y457341D01*
Y457336D01*
X397181Y457298D01*
X397176Y457276D01*
X397170Y457270D01*
Y457265D01*
X397165Y457254D01*
X397154Y457243D01*
X397143Y457238D01*
X397138Y457232D01*
X397132Y457227D01*
X397121D01*
X397088Y457221D01*
X397061D01*
X397056D01*
X397050D01*
X394200D01*
Y457298D01*
X394555D01*
X394571Y457358D01*
X394593Y457407D01*
X394610Y457445D01*
X394626Y457478D01*
X394642Y457494D01*
X394653Y457511D01*
X394659Y457521D01*
X394664D01*
X394691Y457538D01*
X394719Y457549D01*
X394784Y457565D01*
X394812Y457571D01*
X394833D01*
X394850D01*
X394855D01*
X395489D01*
X395554D01*
X395598Y457565D01*
X395620Y457560D01*
X395631Y457554D01*
X395663Y457538D01*
X395696Y457516D01*
X395718Y457494D01*
X395729Y457489D01*
X395734Y457472D01*
X395745Y457451D01*
X395756Y457390D01*
X395762Y457358D01*
X395767Y457330D01*
X395773Y457314D01*
Y457309D01*
X396111D01*
X396116Y457358D01*
X396133Y457401D01*
X396144Y457434D01*
X396160Y457462D01*
X396171Y457483D01*
X396182Y457494D01*
X396187Y457505D01*
X396193D01*
X396242Y457538D01*
X396291Y457554D01*
X396308Y457560D01*
X396324Y457565D01*
X396335D01*
X396340D01*
X396351D01*
X396368Y457571D01*
X396417D01*
X396444D01*
X396461D01*
X396477D01*
X396482D01*
X396886D01*
X397007Y457576D01*
X397110Y457598D01*
X397203Y457631D01*
X397280Y457663D01*
X397340Y457696D01*
X397383Y457729D01*
X397411Y457751D01*
X397422Y457756D01*
X397487Y457833D01*
X397531Y457920D01*
X397563Y458007D01*
X397591Y458095D01*
X397602Y458171D01*
X397607Y458231D01*
X397613Y458253D01*
Y457483D01*
Y458346D01*
X397607Y458401D01*
X397602Y458450D01*
X397591Y458488D01*
X397585Y458521D01*
X397580Y458548D01*
X397574Y458564D01*
Y458570D01*
X397542Y458657D01*
X397525Y458695D01*
X397503Y458734D01*
X397487Y458761D01*
X397471Y458783D01*
X397465Y458794D01*
X397460Y458799D01*
X397389Y458876D01*
X397323Y458936D01*
X397296Y458957D01*
X397274Y458979D01*
X397258Y458985D01*
X397252Y458990D01*
X397208Y459018D01*
X397170Y459034D01*
X397110Y459056D01*
X397083Y459061D01*
X397067Y459067D01*
X397613D01*
D02*
G37*
G36*
X401755Y457762D02*
Y456304D01*
X401744Y456413D01*
X401727Y456522D01*
X401705Y456621D01*
X401673Y456713D01*
X401645Y456801D01*
X401607Y456877D01*
X401574Y456954D01*
X401536Y457019D01*
X401503Y457074D01*
X401471Y457128D01*
X401438Y457172D01*
X401411Y457210D01*
X401383Y457238D01*
X401367Y457260D01*
X401356Y457270D01*
X401350Y457276D01*
X401258Y457363D01*
X401154Y457434D01*
X401050Y457500D01*
X400941Y457554D01*
X400832Y457603D01*
X400723Y457642D01*
X400613Y457674D01*
X400510Y457702D01*
X400411Y457724D01*
X400319Y457734D01*
X400237Y457745D01*
X400166Y457756D01*
X400111D01*
X400067Y457762D01*
X400029D01*
X399871Y457756D01*
X399723Y457740D01*
X399581Y457713D01*
X399456Y457685D01*
X399330Y457642D01*
X399221Y457603D01*
X399117Y457554D01*
X399030Y457511D01*
X398948Y457462D01*
X398877Y457412D01*
X398817Y457374D01*
X398762Y457336D01*
X398724Y457303D01*
X398697Y457276D01*
X398680Y457260D01*
X398675Y457254D01*
X398610Y457183D01*
X398555Y457112D01*
X398506Y457041D01*
X398468Y456981D01*
X398435Y456926D01*
X398413Y456883D01*
X398402Y456855D01*
X398397Y456845D01*
X398364Y456757D01*
X398337Y456664D01*
X398320Y456577D01*
X398304Y456490D01*
X398298Y456419D01*
X398293Y456359D01*
X398287Y456337D01*
Y456419D01*
Y456304D01*
X398626D01*
X398637Y456337D01*
X398653Y456364D01*
X398670Y456408D01*
X398680Y456429D01*
X398686Y456435D01*
X398708Y456457D01*
X398724Y456473D01*
X398746Y456484D01*
X398751Y456490D01*
X398806Y456511D01*
X398861Y456522D01*
X398888Y456528D01*
X398910D01*
X398921D01*
X398926D01*
X401056D01*
X401121D01*
X401176Y456517D01*
X401220Y456511D01*
X401258Y456500D01*
X401285Y456490D01*
X401307Y456479D01*
X401318Y456473D01*
X401323Y456468D01*
X401345Y456451D01*
X401361Y456435D01*
X401367Y456424D01*
X401372Y456419D01*
X401378Y456408D01*
X401383Y456391D01*
X401400Y456353D01*
X401405Y456320D01*
X401411Y456309D01*
Y456304D01*
X401755D01*
Y456211D01*
X401416D01*
X401400Y456162D01*
X401383Y456124D01*
X401367Y456097D01*
X401350Y456075D01*
X401340Y456058D01*
X401329Y456047D01*
X401318Y456036D01*
X401285Y456020D01*
X401247Y456009D01*
X401159Y455998D01*
X401121Y455993D01*
X401088D01*
X401067D01*
X401056D01*
X398926D01*
X398883D01*
X398839Y455998D01*
X398806Y456004D01*
X398779Y456015D01*
X398762Y456020D01*
X398746Y456026D01*
X398735Y456031D01*
X398713Y456047D01*
X398692Y456075D01*
X398659Y456135D01*
X398642Y456162D01*
X398637Y456189D01*
X398626Y456206D01*
Y456211D01*
X398287D01*
Y456304D01*
D01*
Y456211D01*
X398293Y456097D01*
X398309Y455987D01*
X398326Y455895D01*
X398347Y455818D01*
X398364Y455753D01*
X398380Y455703D01*
X398391Y455676D01*
X398397Y455665D01*
X398435Y455583D01*
X398479Y455507D01*
X398528Y455441D01*
X398571Y455381D01*
X398610Y455327D01*
X398642Y455288D01*
X398664Y455267D01*
X398675Y455256D01*
X398773Y455168D01*
X398872Y455092D01*
X398970Y455026D01*
X399063Y454972D01*
X399145Y454934D01*
X399177Y454917D01*
X399205Y454901D01*
X399232Y454890D01*
X399248Y454884D01*
X399259Y454879D01*
X399265D01*
X399396Y454841D01*
X399527Y454808D01*
X399658Y454786D01*
X399773Y454775D01*
X399827Y454770D01*
X399876Y454764D01*
X399920D01*
X399958Y454759D01*
X398287D01*
D01*
X401755D01*
Y457762D01*
D02*
G37*
G36*
X396346Y455054D02*
X396324D01*
X396308D01*
X396302D01*
X395396D01*
X395352D01*
X395319Y455048D01*
X395292Y455043D01*
X395270D01*
X395254Y455037D01*
X395243Y455032D01*
X395232Y455026D01*
X395199Y455010D01*
X395177Y454988D01*
X395161Y454961D01*
X395150Y454934D01*
X395145Y454912D01*
X395139Y454890D01*
Y454873D01*
X395145Y454824D01*
X395161Y454786D01*
X395183Y454764D01*
X395188Y454753D01*
X395232Y454726D01*
X395281Y454704D01*
X395303Y454699D01*
X395319Y454693D01*
X395330Y454688D01*
X395336D01*
X395379Y454677D01*
X395418Y454661D01*
X395450Y454650D01*
X395483Y454633D01*
X395505Y454622D01*
X395521Y454611D01*
X395527Y454606D01*
X395532Y454600D01*
X395560Y454573D01*
X395587Y454540D01*
X395631Y454469D01*
X395652Y454437D01*
X395669Y454415D01*
X395674Y454393D01*
X395680Y454388D01*
X396024D01*
X396040Y454437D01*
X396057Y454475D01*
X396073Y454513D01*
X396095Y454540D01*
X396111Y454562D01*
X396127Y454579D01*
X396133Y454584D01*
X396138Y454590D01*
X396171Y454611D01*
X396204Y454633D01*
X396280Y454666D01*
X396313Y454677D01*
X396340Y454688D01*
X396362Y454693D01*
X396368D01*
X396428Y454715D01*
X396471Y454737D01*
X396493Y454753D01*
X396504Y454759D01*
X396532Y454797D01*
X396542Y454835D01*
X396548Y454868D01*
Y454879D01*
X396542Y454912D01*
X396537Y454944D01*
X396515Y454983D01*
X396499Y455010D01*
X396488Y455015D01*
X396461Y455026D01*
X396433Y455037D01*
X396373Y455048D01*
X396346Y455054D01*
D02*
G37*
G36*
X397547Y455496D02*
X396662D01*
X396592Y455490D01*
X396537Y455474D01*
X396504Y455458D01*
X396493Y455452D01*
X396471Y455436D01*
X396461Y455414D01*
X396439Y455370D01*
X396433Y455337D01*
Y455321D01*
X396439Y455272D01*
X396450Y455239D01*
X396466Y455212D01*
X396471Y455206D01*
X396510Y455179D01*
X396553Y455157D01*
X396586Y455146D01*
X396597Y455141D01*
X396603D01*
X396657Y455119D01*
X396701Y455103D01*
X396739Y455081D01*
X396777Y455064D01*
X396799Y455048D01*
X396821Y455037D01*
X396832Y455032D01*
X396837Y455026D01*
X396903Y454983D01*
X396957Y454934D01*
X396979Y454912D01*
X396996Y454895D01*
X397007Y454884D01*
X397012Y454879D01*
X397067Y454808D01*
X397105Y454748D01*
X397116Y454721D01*
X397127Y454704D01*
X397132Y454693D01*
Y454688D01*
X397148Y454650D01*
X397159Y454606D01*
X397181Y454513D01*
X397192Y454469D01*
X397198Y454437D01*
X397203Y454415D01*
Y454404D01*
X397547D01*
Y454295D01*
X394200D01*
Y454398D01*
X394577D01*
X394593Y454508D01*
X394615Y454600D01*
X394642Y454682D01*
X394675Y454748D01*
X394702Y454803D01*
X394724Y454835D01*
X394741Y454862D01*
X394746Y454868D01*
X394801Y454928D01*
X394861Y454977D01*
X394926Y455021D01*
X394992Y455054D01*
X395052Y455081D01*
X395095Y455103D01*
X395128Y455114D01*
X395134Y455119D01*
X395139D01*
X395194Y455141D01*
X395227Y455157D01*
X395248Y455174D01*
X395254Y455179D01*
X395270Y455212D01*
X395276Y455250D01*
X395281Y455277D01*
Y455288D01*
X395276Y455348D01*
X395254Y455387D01*
X395237Y455414D01*
X395232Y455419D01*
X395188Y455447D01*
X395145Y455458D01*
X395112Y455463D01*
X395101D01*
X395095D01*
X394200D01*
Y452891D01*
Y453115D01*
X394205Y453044D01*
X394222Y452995D01*
X394244Y452962D01*
X394249Y452957D01*
Y452951D01*
X394266Y452930D01*
X394287Y452919D01*
X394326Y452897D01*
X394358Y452891D01*
X394200D01*
X397547D01*
X397378D01*
X397411Y452897D01*
X397432Y452902D01*
X397476Y452924D01*
X397498Y452941D01*
X397509Y452951D01*
X397531Y453001D01*
X397542Y453055D01*
X397547Y453077D01*
Y455496D01*
D02*
G37*
G36*
X401214Y454622D02*
X401176D01*
X401154Y454611D01*
X401116Y454595D01*
X401088Y454573D01*
X401078Y454568D01*
Y454562D01*
X401056Y454540D01*
X401045Y454519D01*
X401023Y454480D01*
X401017Y454453D01*
Y454442D01*
X401023Y454409D01*
X401034Y454382D01*
X401072Y454327D01*
X401094Y454306D01*
X401110Y454289D01*
X401121Y454284D01*
X401127Y454278D01*
X401143Y454262D01*
X401138D01*
X401132D01*
X401127D01*
X400630D01*
X400586D01*
X400542Y454251D01*
X400504Y454246D01*
X400471Y454235D01*
X400439Y454224D01*
X400417Y454213D01*
X400406Y454207D01*
X400400Y454202D01*
X400319Y454147D01*
X400258Y454093D01*
X400231Y454065D01*
X400215Y454043D01*
X400204Y454033D01*
X400198Y454027D01*
X400149Y453951D01*
X400116Y453880D01*
X400100Y453847D01*
X400089Y453825D01*
X400084Y453809D01*
Y453803D01*
X400057Y453705D01*
X400051Y453656D01*
X400046Y453607D01*
X400040Y453563D01*
Y453503D01*
X400035Y453574D01*
X400024Y453640D01*
X400013Y453694D01*
X400002Y453743D01*
X399991Y453781D01*
X399980Y453809D01*
X399969Y453825D01*
Y453831D01*
X399920Y453918D01*
X399893Y453956D01*
X399871Y453989D01*
X399849Y454011D01*
X399833Y454033D01*
X399822Y454043D01*
X399816Y454049D01*
X399723Y454125D01*
X399631Y454180D01*
X399532Y454224D01*
X399440Y454251D01*
X399358Y454267D01*
X399319Y454273D01*
X399292D01*
X399265Y454278D01*
X399248D01*
X399237D01*
X399232D01*
X399150Y454273D01*
X399079Y454262D01*
X399008Y454246D01*
X398943Y454224D01*
X398828Y454169D01*
X398730Y454109D01*
X398659Y454049D01*
X398604Y453994D01*
X398582Y453972D01*
X398571Y453956D01*
X398560Y453945D01*
Y453940D01*
X398506Y453852D01*
X398462Y453765D01*
X398429Y453678D01*
X398402Y453596D01*
X398386Y453525D01*
X398375Y453470D01*
Y453448D01*
X398369Y453432D01*
Y453421D01*
X398364Y453345D01*
X398358Y453268D01*
X398353Y453192D01*
X398347Y453121D01*
Y454622D01*
D01*
Y451374D01*
Y451597D01*
X398353Y451526D01*
X398369Y451477D01*
X398391Y451445D01*
X398397Y451439D01*
Y451434D01*
X398413Y451412D01*
X398435Y451401D01*
X398473Y451379D01*
X398506Y451374D01*
X398347D01*
X401760D01*
D01*
X401525D01*
X401558Y451379D01*
X401580Y451384D01*
X401623Y451406D01*
X401645Y451423D01*
X401656Y451434D01*
X401678Y451483D01*
X401689Y451537D01*
X401694Y451559D01*
Y452848D01*
X401689Y452880D01*
X401684Y452913D01*
X401678Y452935D01*
X401673Y452957D01*
X401667Y452968D01*
X401662Y452979D01*
X401640Y453012D01*
X401618Y453033D01*
X401591Y453050D01*
X401569Y453061D01*
X401536Y453072D01*
X401525D01*
X401520D01*
X401471Y453066D01*
X401432Y453044D01*
X401400Y453017D01*
X401378Y452984D01*
X401361Y452946D01*
X401345Y452919D01*
X401340Y452897D01*
Y452891D01*
X401329Y452853D01*
X401323Y452831D01*
X401318Y452826D01*
Y452820D01*
X401312Y452810D01*
X401301Y452799D01*
X401290Y452793D01*
X401285Y452788D01*
X401279Y452782D01*
X401269D01*
X401236Y452777D01*
X401208D01*
X401203D01*
X401198D01*
X398347D01*
Y452853D01*
X398702D01*
X398719Y452913D01*
X398741Y452962D01*
X398757Y453001D01*
X398773Y453033D01*
X398790Y453050D01*
X398801Y453066D01*
X398806Y453077D01*
X398812D01*
X398839Y453093D01*
X398866Y453104D01*
X398932Y453121D01*
X398959Y453126D01*
X398981D01*
X398997D01*
X399003D01*
X399636D01*
X399702D01*
X399745Y453121D01*
X399767Y453115D01*
X399778Y453110D01*
X399811Y453093D01*
X399844Y453072D01*
X399865Y453050D01*
X399876Y453044D01*
X399882Y453028D01*
X399893Y453006D01*
X399904Y452946D01*
X399909Y452913D01*
X399915Y452886D01*
X399920Y452870D01*
Y452864D01*
X400258D01*
X400264Y452913D01*
X400280Y452957D01*
X400291Y452990D01*
X400308Y453017D01*
X400319Y453039D01*
X400329Y453050D01*
X400335Y453061D01*
X400340D01*
X400389Y453093D01*
X400439Y453110D01*
X400455Y453115D01*
X400471Y453121D01*
X400482D01*
X400488D01*
X400499D01*
X400515Y453126D01*
X400564D01*
X400592D01*
X400608D01*
X400624D01*
X400630D01*
X401034D01*
X401154Y453132D01*
X401258Y453154D01*
X401350Y453186D01*
X401427Y453219D01*
X401487Y453252D01*
X401531Y453285D01*
X401558Y453306D01*
X401569Y453312D01*
X401634Y453388D01*
X401678Y453476D01*
X401711Y453563D01*
X401738Y453650D01*
X401749Y453727D01*
X401755Y453787D01*
X401760Y453809D01*
Y453902D01*
X401755Y453956D01*
X401749Y454005D01*
X401738Y454043D01*
X401733Y454076D01*
X401727Y454104D01*
X401722Y454120D01*
Y454125D01*
X401689Y454213D01*
X401673Y454251D01*
X401651Y454289D01*
X401634Y454317D01*
X401618Y454338D01*
X401613Y454349D01*
X401607Y454355D01*
X401536Y454431D01*
X401471Y454491D01*
X401443Y454513D01*
X401421Y454535D01*
X401405Y454540D01*
X401400Y454546D01*
X401356Y454573D01*
X401318Y454590D01*
X401258Y454611D01*
X401230Y454617D01*
X401214Y454622D01*
D02*
G37*
G36*
X397547Y452700D02*
X394375D01*
X394342Y452695D01*
X394315Y452689D01*
X394271Y452657D01*
X394244Y452629D01*
X394233Y452619D01*
Y452613D01*
X394222Y452591D01*
X394211Y452569D01*
X394205Y452515D01*
X394200Y452487D01*
Y451860D01*
X394205Y451783D01*
X394222Y451728D01*
X394233Y451707D01*
X394244Y451690D01*
X394249Y451685D01*
Y451679D01*
X394266Y451657D01*
X394287Y451641D01*
X394331Y451625D01*
X394369Y451614D01*
X394380D01*
X394386D01*
X394429Y451619D01*
X394462Y451630D01*
X394495Y451652D01*
X394517Y451674D01*
X394533Y451690D01*
X394544Y451712D01*
X394549Y451723D01*
Y451728D01*
X394577Y451805D01*
X394604Y451849D01*
X394631Y451881D01*
X394653Y451903D01*
X394659Y451909D01*
X394664D01*
X394702Y451920D01*
X394730Y451931D01*
X394752D01*
X394757D01*
X394768D01*
X394779Y451925D01*
X394817Y451914D01*
X394850Y451909D01*
X394861Y451903D01*
X394866D01*
X395882Y451625D01*
X396379Y451799D01*
X394986Y452220D01*
X394926Y452242D01*
X394872Y452258D01*
X394828Y452280D01*
X394790Y452296D01*
X394762Y452313D01*
X394741Y452324D01*
X394730Y452329D01*
X394724Y452334D01*
X394691Y452356D01*
X394664Y452384D01*
X394642Y452406D01*
X394626Y452422D01*
X394604Y452449D01*
X394599Y452460D01*
X394544Y452564D01*
X394517Y452613D01*
X394495Y452651D01*
X394479Y452668D01*
X394473Y452673D01*
X394440Y452689D01*
X394408Y452695D01*
X394386Y452700D01*
X397547D01*
D02*
G37*
G36*
X396668Y451761D02*
X394730Y451210D01*
X394708Y451204D01*
X394686D01*
X394670D01*
X394664D01*
X394637D01*
X394615Y451210D01*
X394604Y451215D01*
X394599D01*
X394582Y451232D01*
X394566Y451254D01*
X394560Y451275D01*
X394555Y451281D01*
X394533Y451319D01*
X394506Y451346D01*
X394473Y451368D01*
X394446Y451379D01*
X394419Y451390D01*
X394402Y451395D01*
X394386D01*
X394380D01*
X394353Y451390D01*
X394326Y451384D01*
X394309Y451374D01*
X394304Y451368D01*
X394276Y451352D01*
X394255Y451335D01*
X394244Y451319D01*
X394238Y451313D01*
X394222Y451286D01*
X394216Y451259D01*
X394211Y451237D01*
Y451232D01*
X394205Y451215D01*
Y451188D01*
X394200Y451144D01*
Y449752D01*
Y449981D01*
X394205Y449943D01*
X394211Y449910D01*
X394222Y449883D01*
X394227Y449861D01*
X394238Y449845D01*
X394244Y449839D01*
Y449834D01*
X394266Y449807D01*
X394293Y449785D01*
X394315Y449774D01*
X394342Y449763D01*
X394364Y449757D01*
X394380Y449752D01*
X394200D01*
X397547D01*
X394397D01*
X394446Y449757D01*
X394479Y449768D01*
X394500Y449779D01*
X394506Y449785D01*
X394528Y449818D01*
X394549Y449856D01*
X394566Y449889D01*
X394571Y449894D01*
Y449899D01*
X394582Y449916D01*
X394593Y449927D01*
X394599Y449932D01*
X394604D01*
X394620Y449943D01*
X394642Y449954D01*
X394659Y449959D01*
X394670Y449965D01*
X397547Y450817D01*
Y451526D01*
X396668Y451761D01*
D02*
G37*
G36*
X399434Y450942D02*
X399423D01*
X398495D01*
X398429Y450937D01*
X398380Y450920D01*
X398353Y450904D01*
X398342Y450899D01*
X398320Y450882D01*
X398309Y450860D01*
X398287Y450817D01*
Y450795D01*
X398282Y450778D01*
Y448185D01*
X401755D01*
Y449599D01*
Y449583D01*
X401411D01*
X401394Y449544D01*
X401378Y449512D01*
X401367Y449490D01*
X401350Y449473D01*
X401334Y449452D01*
X401329Y449446D01*
X401301Y449435D01*
X401274Y449430D01*
X401214Y449424D01*
X401192Y449419D01*
X401170D01*
X401154D01*
X401149D01*
X398932D01*
X398850Y449430D01*
X398784Y449452D01*
X398730Y449484D01*
X398692Y449523D01*
X398664Y449561D01*
X398648Y449594D01*
X398637Y449615D01*
Y449626D01*
X398287D01*
Y449561D01*
X398293Y449501D01*
Y449452D01*
X398298Y449413D01*
X398304Y449381D01*
Y449359D01*
X398309Y449342D01*
Y449337D01*
X398337Y449255D01*
X398364Y449173D01*
X398397Y449102D01*
X398429Y449037D01*
X398457Y448982D01*
X398484Y448938D01*
X398500Y448917D01*
X398506Y448906D01*
X398599Y448780D01*
X398702Y448676D01*
X398806Y448584D01*
X398910Y448507D01*
X398997Y448447D01*
X399041Y448425D01*
X399074Y448403D01*
X399101Y448392D01*
X399123Y448382D01*
X399134Y448371D01*
X399139D01*
X399292Y448311D01*
X399456Y448261D01*
X399609Y448229D01*
X399751Y448207D01*
X399816Y448201D01*
X399876Y448196D01*
X399931Y448190D01*
X399975D01*
X400013Y448185D01*
X398282D01*
Y450762D01*
X398287Y450729D01*
X398293Y450702D01*
X398320Y450658D01*
X398353Y450626D01*
X398358Y450620D01*
X398364Y450615D01*
X398391Y450598D01*
X398413Y450582D01*
X398440Y450560D01*
X398451Y450555D01*
X398457Y450549D01*
X398462Y450527D01*
Y450516D01*
X398457Y450494D01*
X398451Y450467D01*
X398446Y450451D01*
X398440Y450440D01*
X398402Y450331D01*
X398369Y450211D01*
X398342Y450091D01*
X398320Y449976D01*
X398304Y449878D01*
X398298Y449834D01*
X398293Y449796D01*
Y449763D01*
X398287Y449741D01*
Y449719D01*
X398642D01*
X398648Y449796D01*
X398659Y449861D01*
X398670Y449916D01*
X398680Y449959D01*
X398692Y449998D01*
X398697Y450020D01*
X398708Y450036D01*
Y450041D01*
X398730Y450085D01*
X398757Y450129D01*
X398812Y450200D01*
X398839Y450232D01*
X398861Y450254D01*
X398877Y450271D01*
X398883Y450276D01*
X398921Y450298D01*
X398959Y450320D01*
X399041Y450369D01*
X399079Y450385D01*
X399112Y450402D01*
X399134Y450413D01*
X399139Y450418D01*
X399199Y450451D01*
X399259Y450478D01*
X399308Y450500D01*
X399352Y450516D01*
X399390Y450527D01*
X399418Y450538D01*
X399434Y450544D01*
X399440D01*
X399478Y450555D01*
X399516Y450571D01*
X399543Y450582D01*
X399565Y450593D01*
X399592Y450615D01*
X399603Y450620D01*
X399631Y450658D01*
X399641Y450702D01*
X399647Y450735D01*
Y450751D01*
X399636Y450817D01*
X399614Y450860D01*
X399576Y450893D01*
X399532Y450920D01*
X399494Y450931D01*
X399456Y450937D01*
X399434Y450942D01*
D02*
G37*
G36*
X400144Y451051D02*
X400100D01*
X400067Y451041D01*
X400024Y451019D01*
X399996Y450997D01*
X399991Y450991D01*
Y450986D01*
X399975Y450959D01*
X399964Y450931D01*
X399953Y450871D01*
X399947Y450844D01*
Y449850D01*
X399953Y449768D01*
X399964Y449736D01*
X399969Y449708D01*
X399980Y449686D01*
X399991Y449670D01*
X399996Y449665D01*
Y449659D01*
X400013Y449637D01*
X400035Y449621D01*
X400078Y449599D01*
X400111Y449588D01*
X400122D01*
X400127D01*
X400177Y449594D01*
X400215Y449610D01*
X400248Y449632D01*
X400269Y449659D01*
X400286Y449686D01*
X400297Y449708D01*
X400308Y449725D01*
Y449730D01*
X400313Y449763D01*
X400319Y449790D01*
X400324Y449807D01*
X400329Y449818D01*
X400335Y449834D01*
X400340Y449850D01*
X400346Y449856D01*
X400373Y449872D01*
X400411Y449878D01*
X400439Y449883D01*
X400444D01*
X400450D01*
X401149D01*
X401214Y449878D01*
X401269Y449867D01*
X401301Y449850D01*
X401307Y449845D01*
X401312D01*
X401334Y449834D01*
X401350Y449818D01*
X401361Y449807D01*
X401367Y449801D01*
X401372Y449790D01*
X401378Y449768D01*
X401394Y449730D01*
X401400Y449692D01*
X401405Y449681D01*
Y449676D01*
X401755D01*
X401749Y449801D01*
X401744Y449861D01*
X401738Y449910D01*
X401733Y449954D01*
X401727Y449987D01*
X401722Y450009D01*
Y450014D01*
X401700Y450134D01*
X401684Y450183D01*
X401673Y450232D01*
X401656Y450271D01*
X401651Y450298D01*
X401640Y450320D01*
Y450325D01*
X401591Y450423D01*
X401569Y450473D01*
X401542Y450516D01*
X401520Y450555D01*
X401503Y450587D01*
X401493Y450609D01*
X401487Y450615D01*
X401449Y450675D01*
X401411Y450729D01*
X401372Y450778D01*
X401340Y450822D01*
X401312Y450855D01*
X401290Y450877D01*
X401274Y450893D01*
X401269Y450899D01*
X400439D01*
X400395D01*
X400368Y450904D01*
X400357D01*
X400351D01*
X400340Y450915D01*
X400324Y450926D01*
X400319Y450937D01*
X400313Y450942D01*
X400280Y450981D01*
X400253Y451008D01*
X400237Y451019D01*
X400231Y451024D01*
X400198Y451041D01*
X400166Y451046D01*
X400144Y451051D01*
D02*
G37*
G36*
X396346Y449119D02*
X396324D01*
X396308D01*
X396302D01*
X395396D01*
X395352D01*
X395319Y449113D01*
X395292Y449108D01*
X395270D01*
X395254Y449102D01*
X395243Y449097D01*
X395232Y449091D01*
X395199Y449075D01*
X395177Y449053D01*
X395161Y449026D01*
X395150Y448998D01*
X395145Y448977D01*
X395139Y448955D01*
Y448938D01*
X395145Y448889D01*
X395161Y448851D01*
X395183Y448829D01*
X395188Y448818D01*
X395232Y448791D01*
X395281Y448769D01*
X395303Y448764D01*
X395319Y448758D01*
X395330Y448753D01*
X395336D01*
X395379Y448742D01*
X395418Y448726D01*
X395450Y448715D01*
X395483Y448698D01*
X395505Y448687D01*
X395521Y448676D01*
X395527Y448671D01*
X395532Y448665D01*
X395560Y448638D01*
X395587Y448605D01*
X395631Y448534D01*
X395652Y448502D01*
X395669Y448480D01*
X395674Y448458D01*
X395680Y448453D01*
X396024D01*
X396040Y448502D01*
X396057Y448540D01*
X396073Y448578D01*
X396095Y448605D01*
X396111Y448627D01*
X396127Y448644D01*
X396133Y448649D01*
X396138Y448655D01*
X396171Y448676D01*
X396204Y448698D01*
X396280Y448731D01*
X396313Y448742D01*
X396340Y448753D01*
X396362Y448758D01*
X396368D01*
X396428Y448780D01*
X396471Y448802D01*
X396493Y448818D01*
X396504Y448824D01*
X396532Y448862D01*
X396542Y448900D01*
X396548Y448933D01*
Y448944D01*
X396542Y448977D01*
X396537Y449009D01*
X396515Y449048D01*
X396499Y449075D01*
X396488Y449080D01*
X396461Y449091D01*
X396433Y449102D01*
X396373Y449113D01*
X396346Y449119D01*
D02*
G37*
G36*
X397547Y449561D02*
X396662D01*
X396592Y449555D01*
X396537Y449539D01*
X396504Y449523D01*
X396493Y449517D01*
X396471Y449501D01*
X396461Y449479D01*
X396439Y449435D01*
X396433Y449403D01*
Y449386D01*
X396439Y449337D01*
X396450Y449304D01*
X396466Y449277D01*
X396471Y449271D01*
X396510Y449244D01*
X396553Y449222D01*
X396586Y449211D01*
X396597Y449206D01*
X396603D01*
X396657Y449184D01*
X396701Y449168D01*
X396739Y449146D01*
X396777Y449129D01*
X396799Y449113D01*
X396821Y449102D01*
X396832Y449097D01*
X396837Y449091D01*
X396903Y449048D01*
X396957Y448998D01*
X396979Y448977D01*
X396996Y448960D01*
X397007Y448949D01*
X397012Y448944D01*
X397067Y448873D01*
X397105Y448813D01*
X397116Y448785D01*
X397127Y448769D01*
X397132Y448758D01*
Y448753D01*
X397148Y448715D01*
X397159Y448671D01*
X397181Y448578D01*
X397192Y448534D01*
X397198Y448502D01*
X397203Y448480D01*
Y448469D01*
X397547D01*
Y448360D01*
X394200D01*
Y448463D01*
X394577D01*
X394593Y448573D01*
X394615Y448665D01*
X394642Y448747D01*
X394675Y448813D01*
X394702Y448867D01*
X394724Y448900D01*
X394741Y448927D01*
X394746Y448933D01*
X394801Y448993D01*
X394861Y449042D01*
X394926Y449086D01*
X394992Y449119D01*
X395052Y449146D01*
X395095Y449168D01*
X395128Y449179D01*
X395134Y449184D01*
X395139D01*
X395194Y449206D01*
X395227Y449222D01*
X395248Y449239D01*
X395254Y449244D01*
X395270Y449277D01*
X395276Y449315D01*
X395281Y449342D01*
Y449353D01*
X395276Y449413D01*
X395254Y449452D01*
X395237Y449479D01*
X395232Y449484D01*
X395188Y449512D01*
X395145Y449523D01*
X395112Y449528D01*
X395101D01*
X395095D01*
X394200D01*
Y446956D01*
Y447180D01*
X394205Y447109D01*
X394222Y447060D01*
X394244Y447027D01*
X394249Y447022D01*
Y447016D01*
X394266Y446995D01*
X394287Y446984D01*
X394326Y446962D01*
X394358Y446956D01*
X394200D01*
X397547D01*
Y449561D01*
D02*
G37*
G36*
X395221Y446514D02*
X395205D01*
X395194D01*
X395188D01*
X394402D01*
X394326Y446509D01*
X394271Y446492D01*
X394249Y446487D01*
X394233Y446476D01*
X394227Y446470D01*
X394222D01*
X394200Y446454D01*
X394184Y446432D01*
X394162Y446389D01*
X394156Y446350D01*
Y446334D01*
X394162Y446307D01*
X394167Y446279D01*
X394195Y446236D01*
X394227Y446208D01*
X394233Y446198D01*
X394238D01*
X394315Y446143D01*
Y446105D01*
X394309Y446083D01*
X394304Y446067D01*
Y446061D01*
X394276Y445996D01*
X394255Y445935D01*
X394233Y445881D01*
X394216Y445837D01*
X394205Y445804D01*
X394200Y445777D01*
X394195Y445761D01*
Y445755D01*
X394184Y445712D01*
X394173Y445662D01*
X394162Y445564D01*
X394156Y445515D01*
X394151Y445482D01*
Y445449D01*
X394500D01*
X394528Y445548D01*
X394555Y445635D01*
X394588Y445706D01*
X394615Y445772D01*
X394642Y445815D01*
X394659Y445854D01*
X394675Y445875D01*
X394681Y445881D01*
X394741Y445914D01*
X394795Y445946D01*
X394844Y445968D01*
X394883Y445990D01*
X394915Y446012D01*
X394943Y446023D01*
X394959Y446034D01*
X394965D01*
X395052Y446072D01*
X395123Y446099D01*
X395156Y446110D01*
X395177Y446116D01*
X395194Y446121D01*
X395199D01*
X395237Y446132D01*
X395270Y446137D01*
X395292Y446148D01*
X395298D01*
X395319Y446165D01*
X395336Y446176D01*
X395347Y446187D01*
X395352Y446192D01*
X395379Y446236D01*
X395390Y446279D01*
X395396Y446307D01*
Y446318D01*
X395390Y446350D01*
X395385Y446378D01*
X395363Y446421D01*
X395347Y446449D01*
X395336Y446460D01*
X395287Y446492D01*
X395237Y446509D01*
X395221Y446514D01*
D02*
G37*
G36*
X396493Y446623D02*
X396439D01*
X396362Y446618D01*
X396286Y446607D01*
X396209Y446591D01*
X396144Y446569D01*
X396013Y446514D01*
X395904Y446454D01*
X395854Y446421D01*
X395816Y446394D01*
X395778Y446361D01*
X395745Y446340D01*
X395723Y446318D01*
X395707Y446301D01*
X395696Y446290D01*
X395691Y446285D01*
X395652Y446258D01*
X395620Y446230D01*
X395560Y446165D01*
X395538Y446137D01*
X395521Y446116D01*
X395516Y446099D01*
X395511Y446094D01*
X395483Y446045D01*
X395450Y445990D01*
X395423Y445935D01*
X395396Y445881D01*
X395369Y445832D01*
X395352Y445793D01*
X395341Y445766D01*
X395336Y445755D01*
X395308Y445695D01*
X395287Y445635D01*
X395243Y445542D01*
X395205Y445460D01*
X395177Y445400D01*
X395156Y445357D01*
X395139Y445329D01*
X395128Y445313D01*
Y445307D01*
X395101Y445264D01*
X395074Y445226D01*
X395052Y445193D01*
X395030Y445166D01*
X395008Y445144D01*
X394992Y445133D01*
X394986Y445127D01*
X394981Y445122D01*
X394915Y445089D01*
X394855Y445073D01*
X394833D01*
X394812Y445067D01*
X394801D01*
X394795D01*
X394757Y445073D01*
X394724Y445078D01*
X394670Y445100D01*
X394648Y445111D01*
X394631Y445122D01*
X394626Y445133D01*
X394620D01*
X394593Y445160D01*
X394571Y445198D01*
X394533Y445275D01*
X394517Y445313D01*
X394506Y445340D01*
X394500Y445362D01*
Y445368D01*
X394140D01*
Y446623D01*
D01*
Y444150D01*
Y445368D01*
X394156Y445193D01*
X394184Y445040D01*
X394222Y444909D01*
X394238Y444849D01*
X394260Y444800D01*
X394282Y444751D01*
X394298Y444707D01*
X394315Y444674D01*
X394331Y444647D01*
X394348Y444625D01*
X394353Y444603D01*
X394364Y444598D01*
Y444592D01*
X394424Y444516D01*
X394484Y444450D01*
X394549Y444396D01*
X394615Y444347D01*
X394670Y444314D01*
X394713Y444286D01*
X394741Y444270D01*
X394746Y444265D01*
X394752D01*
X394844Y444226D01*
X394937Y444199D01*
X395024Y444177D01*
X395101Y444166D01*
X395172Y444156D01*
X395227Y444150D01*
X394140D01*
X396028D01*
X395276D01*
X395379Y444156D01*
X395472Y444172D01*
X395565Y444194D01*
X395652Y444221D01*
X395729Y444259D01*
X395805Y444297D01*
X395871Y444341D01*
X395931Y444385D01*
X395986Y444428D01*
X396035Y444472D01*
X396073Y444510D01*
X396111Y444549D01*
X396138Y444576D01*
X396155Y444598D01*
X396166Y444614D01*
X396171Y444620D01*
X396220Y444691D01*
X396258Y444756D01*
X396275Y444783D01*
X396286Y444805D01*
X396297Y444816D01*
Y444822D01*
X396319Y444871D01*
X396346Y444931D01*
X396379Y445002D01*
X396411Y445067D01*
X396439Y445133D01*
X396461Y445182D01*
X396471Y445204D01*
X396477Y445220D01*
X396482Y445226D01*
Y445231D01*
X396526Y445318D01*
X396559Y445395D01*
X396592Y445455D01*
X396619Y445504D01*
X396641Y445537D01*
X396657Y445564D01*
X396668Y445575D01*
X396673Y445580D01*
X396712Y445624D01*
X396755Y445651D01*
X396794Y445673D01*
X396832Y445690D01*
X396865Y445701D01*
X396892Y445706D01*
X396908D01*
X396914D01*
X396957Y445701D01*
X397001Y445695D01*
X397039Y445679D01*
X397067Y445668D01*
X397088Y445651D01*
X397105Y445635D01*
X397116Y445630D01*
X397121Y445624D01*
X397148Y445591D01*
X397176Y445542D01*
X397219Y445444D01*
X397236Y445395D01*
X397247Y445357D01*
X397252Y445329D01*
X397258Y445318D01*
X397607D01*
Y445395D01*
X397602Y445460D01*
X397591Y445526D01*
X397585Y445580D01*
X397574Y445630D01*
X397569Y445662D01*
X397563Y445690D01*
Y445695D01*
X397547Y445761D01*
X397525Y445821D01*
X397503Y445881D01*
X397487Y445925D01*
X397471Y445968D01*
X397454Y445996D01*
X397449Y446017D01*
X397443Y446023D01*
X397383Y446121D01*
X397312Y446208D01*
X397241Y446285D01*
X397176Y446345D01*
X397116Y446394D01*
X397067Y446432D01*
X397034Y446454D01*
X397028Y446460D01*
X397023D01*
X396919Y446514D01*
X396821Y446552D01*
X396723Y446585D01*
X396630Y446601D01*
X396553Y446613D01*
X396493Y446623D01*
D02*
G37*
G36*
X397607Y445242D02*
X397252D01*
X397236Y445166D01*
X397219Y445100D01*
X397198Y445045D01*
X397176Y444996D01*
X397159Y444964D01*
X397143Y444936D01*
X397138Y444920D01*
X397132Y444914D01*
X397072Y444860D01*
X397017Y444811D01*
X396963Y444772D01*
X396908Y444734D01*
X396870Y444701D01*
X396832Y444680D01*
X396810Y444669D01*
X396804Y444663D01*
X396673Y444598D01*
X396608Y444576D01*
X396548Y444554D01*
X396499Y444538D01*
X396461Y444527D01*
X396439Y444516D01*
X396428D01*
X396368Y444494D01*
X396329Y444472D01*
X396302Y444450D01*
X396297Y444445D01*
X396269Y444412D01*
X396258Y444368D01*
X396253Y444336D01*
Y444297D01*
X396264Y444276D01*
X396286Y444232D01*
X396308Y444210D01*
X396313Y444199D01*
X396319D01*
X396368Y444172D01*
X396417Y444156D01*
X396433D01*
X396450Y444150D01*
X397607D01*
X397372D01*
X397411Y444156D01*
X397476Y444177D01*
X397520Y444205D01*
X397547Y444243D01*
X397569Y444276D01*
X397574Y444303D01*
X397580Y444325D01*
Y444330D01*
X397574Y444357D01*
X397569Y444385D01*
X397547Y444423D01*
X397525Y444450D01*
X397514Y444461D01*
X397476Y444494D01*
X397454Y444510D01*
X397443Y444521D01*
X397438Y444538D01*
X397432Y444554D01*
Y444587D01*
X397438Y444603D01*
X397443Y444614D01*
X397449Y444620D01*
X397460Y444652D01*
X397476Y444691D01*
X397493Y444723D01*
X397498Y444729D01*
Y444734D01*
X397536Y444827D01*
X397563Y444920D01*
X397580Y445002D01*
X397591Y445078D01*
X397602Y445144D01*
X397607Y445198D01*
Y445242D01*
D02*
G37*
%LPD*%
G36*
X401258Y461627D02*
X401285Y461622D01*
X401301Y461617D01*
X401307Y461611D01*
X401318Y461600D01*
X401323Y461595D01*
Y461589D01*
X401329Y461578D01*
X401334Y461556D01*
X401345Y461529D01*
X401350Y461524D01*
Y461518D01*
X401372Y461475D01*
X401394Y461447D01*
X401427Y461425D01*
X401454Y461409D01*
X401481Y461398D01*
X401503Y461393D01*
X398522D01*
X398571Y461398D01*
X398610Y461414D01*
X398637Y461431D01*
X398659Y461458D01*
X398675Y461480D01*
X398686Y461496D01*
X398697Y461513D01*
Y461518D01*
X398708Y461540D01*
X398713Y461562D01*
X398724Y461584D01*
X398730Y461595D01*
X398735Y461606D01*
X398741Y461611D01*
X398768Y461622D01*
X398795Y461633D01*
X398822D01*
X398828D01*
X398833D01*
X401214D01*
X401258Y461627D01*
D02*
G37*
G36*
X398484Y461060D02*
X398457Y461049D01*
X398413Y461021D01*
X398391Y460989D01*
X398380Y460978D01*
Y460972D01*
X398364Y460950D01*
X398358Y460929D01*
X398353Y460912D01*
Y460907D01*
X398347Y460874D01*
Y461065D01*
X398517D01*
X398484Y461060D01*
D02*
G37*
G36*
X397607Y459285D02*
X397372D01*
X397411Y459291D01*
X397476Y459312D01*
X397520Y459340D01*
X397547Y459378D01*
X397569Y459411D01*
X397574Y459438D01*
X397580Y459460D01*
Y459465D01*
X397574Y459493D01*
X397569Y459520D01*
X397547Y459558D01*
X397525Y459585D01*
X397514Y459596D01*
X397476Y459629D01*
X397454Y459646D01*
X397443Y459656D01*
X397438Y459673D01*
X397432Y459689D01*
Y459722D01*
X397438Y459738D01*
X397443Y459749D01*
X397449Y459755D01*
X397460Y459787D01*
X397476Y459826D01*
X397493Y459858D01*
X397498Y459864D01*
Y459869D01*
X397536Y459962D01*
X397563Y460055D01*
X397580Y460137D01*
X397591Y460213D01*
X397602Y460279D01*
X397607Y460333D01*
Y459285D01*
D02*
G37*
G36*
X401755Y454759D02*
X400029D01*
X400182Y454764D01*
X400329Y454781D01*
X400466Y454803D01*
X400592Y454835D01*
X400712Y454868D01*
X400821Y454912D01*
X400919Y454950D01*
X401007Y454999D01*
X401088Y455043D01*
X401154Y455086D01*
X401214Y455125D01*
X401263Y455157D01*
X401301Y455190D01*
X401329Y455212D01*
X401345Y455228D01*
X401350Y455234D01*
X401416Y455305D01*
X401471Y455381D01*
X401520Y455463D01*
X401563Y455545D01*
X401602Y455627D01*
X401634Y455709D01*
X401689Y455862D01*
X401705Y455933D01*
X401722Y455998D01*
X401733Y456058D01*
X401744Y456113D01*
X401749Y456151D01*
Y456184D01*
X401755Y456206D01*
Y454759D01*
D02*
G37*
G36*
X397110Y453126D02*
X397138Y453121D01*
X397154Y453115D01*
X397159Y453110D01*
X397170Y453099D01*
X397176Y453093D01*
Y453088D01*
X397181Y453077D01*
X397187Y453055D01*
X397198Y453028D01*
X397203Y453022D01*
Y453017D01*
X397225Y452973D01*
X397247Y452946D01*
X397280Y452924D01*
X397307Y452908D01*
X397334Y452897D01*
X397356Y452891D01*
X394375D01*
X394424Y452897D01*
X394462Y452913D01*
X394489Y452930D01*
X394511Y452957D01*
X394528Y452979D01*
X394539Y452995D01*
X394549Y453012D01*
Y453017D01*
X394560Y453039D01*
X394566Y453061D01*
X394577Y453083D01*
X394582Y453093D01*
X394588Y453104D01*
X394593Y453110D01*
X394620Y453121D01*
X394648Y453132D01*
X394675D01*
X394681D01*
X394686D01*
X397067D01*
X397110Y453126D01*
D02*
G37*
G36*
X401258Y451608D02*
X401285Y451603D01*
X401301Y451597D01*
X401307Y451592D01*
X401318Y451581D01*
X401323Y451576D01*
Y451570D01*
X401329Y451559D01*
X401334Y451537D01*
X401345Y451510D01*
X401350Y451505D01*
Y451499D01*
X401372Y451455D01*
X401394Y451428D01*
X401427Y451406D01*
X401454Y451390D01*
X401481Y451379D01*
X401503Y451374D01*
X398522D01*
X398571Y451379D01*
X398610Y451395D01*
X398637Y451412D01*
X398659Y451439D01*
X398675Y451461D01*
X398686Y451477D01*
X398697Y451494D01*
Y451499D01*
X398708Y451521D01*
X398713Y451543D01*
X398724Y451565D01*
X398730Y451576D01*
X398735Y451586D01*
X398741Y451592D01*
X398768Y451603D01*
X398795Y451614D01*
X398822D01*
X398828D01*
X398833D01*
X401214D01*
X401258Y451608D01*
D02*
G37*
G36*
X401755Y448185D02*
X400062D01*
X400160Y448190D01*
X400258Y448196D01*
X400439Y448223D01*
X400597Y448261D01*
X400673Y448283D01*
X400739Y448305D01*
X400799Y448327D01*
X400854Y448349D01*
X400903Y448371D01*
X400941Y448387D01*
X400974Y448403D01*
X400996Y448414D01*
X401012Y448425D01*
X401017D01*
X401099Y448469D01*
X401181Y448513D01*
X401247Y448567D01*
X401312Y448616D01*
X401361Y448660D01*
X401400Y448698D01*
X401421Y448720D01*
X401432Y448731D01*
X401498Y448813D01*
X401547Y448895D01*
X401596Y448971D01*
X401629Y449048D01*
X401656Y449108D01*
X401678Y449157D01*
X401689Y449190D01*
X401694Y449195D01*
Y449200D01*
X401716Y449271D01*
X401733Y449332D01*
X401738Y449348D01*
X401744Y449364D01*
Y449375D01*
X401749Y449403D01*
Y449435D01*
X401755Y449506D01*
Y448185D01*
D02*
G37*
G36*
X397547Y446956D02*
X397378D01*
X397411Y446962D01*
X397432Y446967D01*
X397476Y446989D01*
X397498Y447006D01*
X397509Y447016D01*
X397531Y447066D01*
X397542Y447120D01*
X397547Y447142D01*
Y446956D01*
D02*
G37*
G36*
X397110Y447191D02*
X397138Y447186D01*
X397154Y447180D01*
X397159Y447175D01*
X397170Y447164D01*
X397176Y447158D01*
Y447153D01*
X397181Y447142D01*
X397187Y447120D01*
X397198Y447093D01*
X397203Y447087D01*
Y447082D01*
X397225Y447038D01*
X397247Y447011D01*
X397280Y446989D01*
X397307Y446973D01*
X397334Y446962D01*
X397356Y446956D01*
X394375D01*
X394424Y446962D01*
X394462Y446978D01*
X394489Y446995D01*
X394511Y447022D01*
X394528Y447044D01*
X394539Y447060D01*
X394549Y447077D01*
Y447082D01*
X394560Y447104D01*
X394566Y447126D01*
X394577Y447148D01*
X394582Y447158D01*
X394588Y447169D01*
X394593Y447175D01*
X394620Y447186D01*
X394648Y447197D01*
X394675D01*
X394681D01*
X394686D01*
X397067D01*
X397110Y447191D01*
D02*
G37*
D10*
X403743Y377042D02*
G03*
X403743Y377042I-600J0D01*
G01*
X403643Y413642D02*
G03*
X403643Y413642I-600J0D01*
G01*
X404343Y300242D02*
G03*
X404343Y300242I-600J0D01*
G01*
X403943Y339042D02*
G03*
X403943Y339042I-600J0D01*
G01*
X124600Y388400D02*
Y391400D01*
X374300Y348905D02*
X377300D01*
X394238Y347405D02*
Y350405D01*
X374300Y414802D02*
X377300D01*
X374300Y402100D02*
X377300D01*
X374300Y389211D02*
X377300D01*
X262300Y391179D02*
X265300D01*
X374300Y375431D02*
X377300D01*
X465900Y253900D02*
Y256900D01*
X200300Y413000D02*
Y416000D01*
X214469Y413325D02*
Y416325D01*
X157987Y364975D02*
Y366475D01*
Y363475D02*
Y364975D01*
X144902Y307900D02*
Y310900D01*
X149500Y265400D02*
Y268400D01*
X361800Y480000D02*
Y483000D01*
X400592Y479454D02*
Y482453D01*
X157987Y370475D02*
Y373475D01*
X158500Y391175D02*
Y392675D01*
Y394175D01*
Y398175D02*
Y401175D01*
X394138Y383705D02*
Y386705D01*
X394438Y309005D02*
Y312005D01*
X394838Y270505D02*
Y273505D01*
X134100Y446600D02*
X137100D01*
X177500Y422179D02*
Y425179D01*
Y427773D02*
Y430773D01*
Y448300D02*
Y451300D01*
Y454400D02*
Y457400D01*
X188209Y466936D02*
X191209D01*
X222450D02*
X225450D01*
X229300Y467013D02*
X232300D01*
X240934Y422300D02*
Y425300D01*
Y428900D02*
Y431900D01*
Y447458D02*
Y450458D01*
X240800Y453400D02*
Y456400D01*
X177500Y441553D02*
Y444553D01*
Y434800D02*
Y437800D01*
X177300Y460800D02*
Y463800D01*
X240934Y441553D02*
Y444553D01*
Y435647D02*
Y438647D01*
X240687Y459700D02*
Y462700D01*
X195100Y466936D02*
X198100D01*
X201879D02*
X204879D01*
X208600Y467013D02*
X211600D01*
X215658D02*
X218658D01*
X276500Y340300D02*
X279500D01*
X327500Y438900D02*
Y441900D01*
X262300Y408100D02*
X265300D01*
X374300Y362500D02*
X377300D01*
X254200Y284200D02*
Y287200D01*
X250600Y273900D02*
X252100D01*
X249100D02*
X250600D01*
X295825Y474400D02*
X298825D01*
X303800D02*
X305300D01*
X302300D02*
X303800D01*
X336488Y474900D02*
X337988D01*
X334988D02*
X336488D01*
X313300Y474400D02*
X316300D01*
X308503Y438714D02*
Y441714D01*
X290996Y438714D02*
Y441714D01*
X344500Y440000D02*
Y443000D01*
X374300Y426945D02*
X377300D01*
X269500Y254117D02*
X272500D01*
X358300Y228200D02*
Y231200D01*
X262600Y267897D02*
X265600D01*
X326000Y227900D02*
Y230900D01*
X263700Y286053D02*
X266700D01*
X303747Y227900D02*
Y230900D01*
X265576Y310675D02*
X268576D01*
X269500Y239700D02*
X272500D01*
X276600Y324624D02*
X279600D01*
X342200Y227909D02*
Y230909D01*
X265305Y324624D02*
X268305D01*
X373500Y328000D02*
X376500D01*
X373500Y311700D02*
X376500D01*
X374500Y266400D02*
X377500D01*
X157700Y335875D02*
Y337375D01*
Y338875D01*
X479000Y580300D02*
X482000D01*
X477100Y279200D02*
Y282200D01*
X243800Y140800D02*
X246800D01*
X249900D02*
X252900D01*
X372370Y447600D02*
X375370D01*
X380800Y435800D02*
Y438800D01*
X329887Y474900D02*
X332887D01*
X443753Y435524D02*
Y438524D01*
X429187Y435494D02*
Y438494D01*
X443284Y487298D02*
Y490298D01*
X428717Y487298D02*
Y490298D01*
X443884Y384184D02*
Y387183D01*
X429317Y384184D02*
Y387183D01*
X442584Y329800D02*
Y332800D01*
X428000Y329800D02*
Y332800D01*
X157800Y342975D02*
Y345975D01*
X255900Y140800D02*
X258900D01*
X268000D02*
X271000D01*
X262000D02*
X265000D01*
X306000Y544700D02*
X309000D01*
X284800Y551400D02*
X287800D01*
D11*
X355321Y329275D02*
G03*
X355321Y329275I-394J0D01*
G01*
X184863Y262800D02*
G03*
X184863Y262800I-394J0D01*
G01*
X183846Y137083D02*
G03*
X183846Y137083I-394J0D01*
G01*
X287453Y337676D02*
G03*
X287453Y337676I-394J0D01*
G01*
X494625Y441266D02*
X497775D01*
X494625Y435361D02*
X497775D01*
X196225Y265153D02*
X199375D01*
X196225Y259247D02*
X199375D01*
X249247Y319325D02*
Y322475D01*
X255153Y319325D02*
Y322475D01*
X497253Y272900D02*
Y276050D01*
X491347Y272900D02*
Y276050D01*
X507253Y272900D02*
Y276050D01*
X501347Y272900D02*
Y276050D01*
X516353Y431325D02*
Y434475D01*
X510447Y431325D02*
Y434475D01*
X503347Y573725D02*
Y576875D01*
X509253Y573725D02*
Y576875D01*
X478847Y415225D02*
Y418375D01*
X484753Y415225D02*
Y418375D01*
X492647Y573725D02*
Y576875D01*
X498553Y573725D02*
Y576875D01*
X488502Y415225D02*
Y418375D01*
X494407Y415225D02*
Y418375D01*
X428717Y451949D02*
X443284D01*
X428717Y483051D02*
X443284D01*
Y451949D02*
Y483051D01*
X428717Y451949D02*
Y483051D01*
X273758Y146699D02*
X293443D01*
X273758Y134101D02*
X293443D01*
Y146699D01*
X273758Y134101D02*
Y146699D01*
X129025Y530053D02*
X132175D01*
X129025Y524147D02*
X132175D01*
X129025Y515153D02*
X132175D01*
X129025Y509247D02*
X132175D01*
X129025Y561653D02*
X132175D01*
X129025Y555747D02*
X132175D01*
X129025Y545253D02*
X132175D01*
X129025Y539347D02*
X132175D01*
X223162Y454667D02*
X224835D01*
Y452994D02*
Y454667D01*
Y425533D02*
Y427206D01*
X223162Y425533D02*
X224835D01*
X191765D02*
X193438D01*
X191765D02*
Y427206D01*
Y454667D02*
X193438D01*
X191765Y452994D02*
Y454667D01*
X161302Y290128D02*
Y293672D01*
X149098Y290128D02*
Y293672D01*
X161302D01*
X149098Y290128D02*
X161302D01*
X411983Y484861D02*
Y504939D01*
X397416Y484861D02*
Y504939D01*
Y484861D02*
X411983D01*
X397416Y504939D02*
X411983D01*
X375584Y484961D02*
Y505039D01*
X361017Y484961D02*
Y505039D01*
Y484961D02*
X375584D01*
X361017Y505039D02*
X375584D01*
X226091Y141275D02*
X237509D01*
X226091Y138125D02*
X237509D01*
Y141275D01*
X226091Y138125D02*
Y141275D01*
X230625Y407547D02*
X233775D01*
X230625Y413453D02*
X233775D01*
X173825Y471547D02*
X176975D01*
X173825Y477453D02*
X176975D01*
X247025Y471447D02*
X250175D01*
X247025Y477353D02*
X250175D01*
X388079Y420842D02*
Y425567D01*
X388670Y426945D02*
X400087D01*
Y429307D01*
X388670D02*
X400087D01*
X388670Y426945D02*
Y429307D01*
X310498Y456294D02*
Y460231D01*
X313844D01*
X322702Y456294D02*
Y460231D01*
X319356D02*
X322702D01*
X428017Y294449D02*
Y325551D01*
X442584Y294449D02*
Y325551D01*
X428017D02*
X442584D01*
X428017Y294449D02*
X442584D01*
X429317Y348449D02*
Y379551D01*
X443884Y348449D02*
Y379551D01*
X429317D02*
X443884D01*
X429317Y348449D02*
X443884D01*
X429187Y399333D02*
Y430435D01*
X443753Y399333D02*
Y430435D01*
X429187D02*
X443753D01*
X429187Y399333D02*
X443753D01*
X141353Y488325D02*
Y491475D01*
X135447Y488325D02*
Y491475D01*
X130353Y488325D02*
Y491475D01*
X124447Y488325D02*
Y491475D01*
X144800Y480100D02*
Y483250D01*
X148737D01*
X144800Y471439D02*
Y474588D01*
Y471439D02*
X148737D01*
X454043Y513296D02*
X453387Y513952D01*
Y515264D01*
X454043Y515919D01*
X454699D01*
X455355Y515264D01*
Y514608D01*
Y515264D01*
X456011Y515919D01*
X456667D01*
X457323Y515264D01*
Y513952D01*
X456667Y513296D01*
X454699Y517231D02*
Y517887D01*
X455355D01*
Y517231D01*
X454699D01*
X456667D02*
Y517887D01*
X457323D01*
Y517231D01*
X456667D01*
X454043Y521167D02*
X454699D01*
Y520511D01*
Y521823D01*
Y521167D01*
X456667D01*
X457323Y521823D01*
Y524447D02*
Y525759D01*
X456667Y526415D01*
X455355D01*
X454699Y525759D01*
Y524447D01*
X455355Y523791D01*
X456667D01*
X457323Y524447D01*
X458635Y527727D02*
X454699D01*
Y529695D01*
X455355Y530350D01*
X456667D01*
X457323Y529695D01*
Y527727D01*
Y537566D02*
X453387D01*
X455355Y535598D01*
Y538222D01*
X454699Y539534D02*
Y540190D01*
X455355D01*
Y539534D01*
X454699D01*
X456667D02*
Y540190D01*
X457323D01*
Y539534D01*
X456667D01*
X453387Y542814D02*
X457323D01*
Y544782D01*
X456667Y545437D01*
X456011D01*
X455355D01*
X454699Y544782D01*
Y542814D01*
X457323Y547405D02*
Y548717D01*
X456667Y549373D01*
X455355D01*
X454699Y548717D01*
Y547405D01*
X455355Y546749D01*
X456667D01*
X457323Y547405D01*
X454043Y551341D02*
X454699D01*
Y550685D01*
Y551997D01*
Y551341D01*
X456667D01*
X457323Y551997D01*
X454043Y554621D02*
X454699D01*
Y553965D01*
Y555277D01*
Y554621D01*
X456667D01*
X457323Y555277D01*
Y557901D02*
Y559213D01*
X456667Y559869D01*
X455355D01*
X454699Y559213D01*
Y557901D01*
X455355Y557245D01*
X456667D01*
X457323Y557901D01*
Y561180D02*
X454699D01*
Y561836D01*
X455355Y562492D01*
X457323D01*
X455355D01*
X454699Y563148D01*
X455355Y563804D01*
X457323D01*
X131213Y322511D02*
Y319887D01*
X128589Y322511D01*
X127933D01*
X127277Y321855D01*
Y320543D01*
X127933Y319887D01*
X131213Y323823D02*
X130557D01*
Y324479D01*
X131213D01*
Y323823D01*
X127277Y327103D02*
Y329727D01*
Y328415D01*
X131213D01*
X127277Y331039D02*
X131213Y333663D01*
X127277D02*
X131213Y331039D01*
X458123Y355724D02*
Y357036D01*
Y356380D01*
X454187D01*
X454843Y355724D01*
X455499Y359003D02*
Y359659D01*
X456155D01*
Y359003D01*
X455499D01*
X457467D02*
Y359659D01*
X458123D01*
Y359003D01*
X457467D01*
X454843Y362939D02*
X455499D01*
Y362283D01*
Y363595D01*
Y362939D01*
X457467D01*
X458123Y363595D01*
Y366219D02*
Y367531D01*
X457467Y368187D01*
X456155D01*
X455499Y367531D01*
Y366219D01*
X456155Y365563D01*
X457467D01*
X458123Y366219D01*
X459435Y369499D02*
X455499D01*
Y371467D01*
X456155Y372123D01*
X457467D01*
X458123Y371467D01*
Y369499D01*
Y379994D02*
Y377370D01*
X455499Y379994D01*
X454843D01*
X454187Y379338D01*
Y378026D01*
X454843Y377370D01*
X455499Y381306D02*
Y381962D01*
X456155D01*
Y381306D01*
X455499D01*
X457467D02*
Y381962D01*
X458123D01*
Y381306D01*
X457467D01*
X454187Y384586D02*
X458123D01*
Y386554D01*
X457467Y387210D01*
X456811D01*
X456155D01*
X455499Y386554D01*
Y384586D01*
X458123Y389177D02*
Y390489D01*
X457467Y391145D01*
X456155D01*
X455499Y390489D01*
Y389177D01*
X456155Y388522D01*
X457467D01*
X458123Y389177D01*
X454843Y393113D02*
X455499D01*
Y392457D01*
Y393769D01*
Y393113D01*
X457467D01*
X458123Y393769D01*
X454843Y396393D02*
X455499D01*
Y395737D01*
Y397049D01*
Y396393D01*
X457467D01*
X458123Y397049D01*
Y399673D02*
Y400985D01*
X457467Y401641D01*
X456155D01*
X455499Y400985D01*
Y399673D01*
X456155Y399017D01*
X457467D01*
X458123Y399673D01*
Y402952D02*
X455499D01*
Y403609D01*
X456155Y404264D01*
X458123D01*
X456155D01*
X455499Y404920D01*
X456155Y405576D01*
X458123D01*
X260089Y116777D02*
X262713D01*
Y118745D01*
X261401Y118089D01*
X260745D01*
X260089Y118745D01*
Y120057D01*
X260745Y120713D01*
X262057D01*
X262713Y120057D01*
X258777Y120713D02*
Y120057D01*
X258121D01*
Y120713D01*
X258777D01*
X252873Y116777D02*
X255497D01*
Y118745D01*
X254185Y118089D01*
X253529D01*
X252873Y118745D01*
Y120057D01*
X253529Y120713D01*
X254841D01*
X255497Y120057D01*
X251561Y116777D02*
Y119401D01*
X250249Y120713D01*
X248938Y119401D01*
Y116777D01*
X363576Y516323D02*
X362264D01*
X362920D01*
Y512387D01*
X363576Y513043D01*
X360297Y513699D02*
X359641D01*
Y514355D01*
X360297D01*
Y513699D01*
Y515667D02*
X359641D01*
Y516323D01*
X360297D01*
Y515667D01*
X356361Y513043D02*
Y513699D01*
X357017D01*
X355705D01*
X356361D01*
Y515667D01*
X355705Y516323D01*
X353081D02*
X351769D01*
X351113Y515667D01*
Y514355D01*
X351769Y513699D01*
X353081D01*
X353737Y514355D01*
Y515667D01*
X353081Y516323D01*
X349801Y517635D02*
Y513699D01*
X347833D01*
X347177Y514355D01*
Y515667D01*
X347833Y516323D01*
X349801D01*
X339306D02*
X341930D01*
X339306Y513699D01*
Y513043D01*
X339962Y512387D01*
X341274D01*
X341930Y513043D01*
X337994Y513699D02*
X337338D01*
Y514355D01*
X337994D01*
Y513699D01*
Y515667D02*
X337338D01*
Y516323D01*
X337994D01*
Y515667D01*
X334714Y512387D02*
Y516323D01*
X332746D01*
X332090Y515667D01*
Y515011D01*
Y514355D01*
X332746Y513699D01*
X334714D01*
X330123Y516323D02*
X328811D01*
X328155Y515667D01*
Y514355D01*
X328811Y513699D01*
X330123D01*
X330779Y514355D01*
Y515667D01*
X330123Y516323D01*
X326187Y513043D02*
Y513699D01*
X326843D01*
X325531D01*
X326187D01*
Y515667D01*
X325531Y516323D01*
X322907Y513043D02*
Y513699D01*
X323563D01*
X322251D01*
X322907D01*
Y515667D01*
X322251Y516323D01*
X319627D02*
X318315D01*
X317659Y515667D01*
Y514355D01*
X318315Y513699D01*
X319627D01*
X320283Y514355D01*
Y515667D01*
X319627Y516323D01*
X316348D02*
Y513699D01*
X315691D01*
X315036Y514355D01*
Y516323D01*
Y514355D01*
X314380Y513699D01*
X313724Y514355D01*
Y516323D01*
X348166Y501093D02*
Y503716D01*
X346854Y505028D01*
X345542Y503716D01*
Y501093D01*
X341607D02*
X344230D01*
Y505028D01*
X341607D01*
X344230Y503060D02*
X342918D01*
X340295Y505028D02*
Y501093D01*
X337671Y505028D01*
Y501093D01*
X333735Y501749D02*
X334391Y501093D01*
X335703D01*
X336359Y501749D01*
Y504372D01*
X335703Y505028D01*
X334391D01*
X333735Y504372D01*
X329799Y505028D02*
X332423D01*
X329799Y502404D01*
Y501749D01*
X330455Y501093D01*
X331767D01*
X332423Y501749D01*
X148313Y321855D02*
X144377D01*
X146345Y319887D01*
Y322511D01*
X148313Y323823D02*
X147657D01*
Y324479D01*
X148313D01*
Y323823D01*
X145033Y329727D02*
X144377Y329071D01*
Y327759D01*
X145033Y327103D01*
X145689D01*
X146345Y327759D01*
Y329071D01*
X147001Y329727D01*
X147657D01*
X148313Y329071D01*
Y327759D01*
X147657Y327103D01*
X144377Y331039D02*
X147657D01*
X148313Y331695D01*
Y333007D01*
X147657Y333663D01*
X144377D01*
X145033Y337598D02*
X144377Y336942D01*
Y335630D01*
X145033Y334974D01*
X145689D01*
X146345Y335630D01*
Y336942D01*
X147001Y337598D01*
X147657D01*
X148313Y336942D01*
Y335630D01*
X147657Y334974D01*
X263313Y94845D02*
X260689D01*
X259377Y96813D02*
X258065D01*
X258721D01*
Y92877D01*
X259377Y93533D01*
X253473Y92877D02*
X256097D01*
Y94845D01*
X254785Y94189D01*
X254129D01*
X253473Y94845D01*
Y96157D01*
X254129Y96813D01*
X255441D01*
X256097Y96157D01*
X252161Y92877D02*
Y95501D01*
X250849Y96813D01*
X249537Y95501D01*
Y92877D01*
X151213Y435187D02*
X147277D01*
Y437155D01*
X147933Y437811D01*
X149245D01*
X149901Y437155D01*
Y435187D01*
Y436499D02*
X151213Y437811D01*
X147277Y441747D02*
Y439123D01*
X151213D01*
Y441747D01*
X149245Y439123D02*
Y440435D01*
X147933Y445683D02*
X147277Y445027D01*
Y443715D01*
X147933Y443059D01*
X148589D01*
X149245Y443715D01*
Y445027D01*
X149901Y445683D01*
X150557D01*
X151213Y445027D01*
Y443715D01*
X150557Y443059D01*
X147277Y449618D02*
Y446995D01*
X151213D01*
Y449618D01*
X149245Y446995D02*
Y448307D01*
X147277Y450930D02*
Y453554D01*
Y452242D01*
X151213D01*
X346352Y491567D02*
Y494190D01*
X345040Y495502D01*
X343728Y494190D01*
Y491567D01*
X339792D02*
X342416D01*
Y495502D01*
X339792D01*
X342416Y493535D02*
X341104D01*
X338480Y495502D02*
Y491567D01*
X335856Y495502D01*
Y491567D01*
X331921Y492223D02*
X332577Y491567D01*
X333889D01*
X334544Y492223D01*
Y494846D01*
X333889Y495502D01*
X332577D01*
X331921Y494846D01*
X330609Y495502D02*
X329297D01*
X329953D01*
Y491567D01*
X330609Y492223D01*
X325454Y450909D02*
X324798Y451565D01*
Y452877D01*
X325454Y453533D01*
X326110D01*
X326766Y452877D01*
Y452221D01*
Y452877D01*
X327422Y453533D01*
X328078D01*
X328734Y452877D01*
Y451565D01*
X328078Y450909D01*
X328734Y454844D02*
X328078D01*
Y455500D01*
X328734D01*
Y454844D01*
X325454Y458124D02*
X324798Y458780D01*
Y460092D01*
X325454Y460748D01*
X326110D01*
X326766Y460092D01*
Y459436D01*
Y460092D01*
X327422Y460748D01*
X328078D01*
X328734Y460092D01*
Y458780D01*
X328078Y458124D01*
X324798Y462060D02*
X327422D01*
X328734Y463372D01*
X327422Y464684D01*
X324798D01*
X335347Y450909D02*
X331411D01*
Y452877D01*
X332067Y453533D01*
X333379D01*
X334035Y452877D01*
Y450909D01*
X331411Y454844D02*
X335347D01*
X334035Y456156D01*
X335347Y457468D01*
X331411D01*
X335347Y458780D02*
X331411D01*
Y460748D01*
X332067Y461404D01*
X333379D01*
X334035Y460748D01*
Y458780D01*
Y460092D02*
X335347Y461404D01*
X136233Y320087D02*
X135577Y320743D01*
Y322055D01*
X136233Y322711D01*
X136889D01*
X137545Y322055D01*
Y321399D01*
Y322055D01*
X138201Y322711D01*
X138857D01*
X139513Y322055D01*
Y320743D01*
X138857Y320087D01*
X139513Y324023D02*
X138857D01*
Y324679D01*
X139513D01*
Y324023D01*
Y327303D02*
X135577D01*
Y329271D01*
X136233Y329927D01*
X137545D01*
X138201Y329271D01*
Y327303D01*
Y328615D02*
X139513Y329927D01*
X135577Y331239D02*
X139513Y333862D01*
X135577D02*
X139513Y331239D01*
X262713Y105745D02*
X260089D01*
X261401Y104433D02*
Y107057D01*
X258777Y107713D02*
X257465D01*
X258121D01*
Y103777D01*
X258777Y104433D01*
X252873Y103777D02*
X255497D01*
Y105745D01*
X254185Y105089D01*
X253529D01*
X252873Y105745D01*
Y107057D01*
X253529Y107713D01*
X254841D01*
X255497Y107057D01*
X251561Y103777D02*
Y106401D01*
X250249Y107713D01*
X248938Y106401D01*
Y103777D01*
X289364Y453911D02*
Y451287D01*
X291332D01*
Y452599D01*
Y451287D01*
X293300D01*
Y455223D02*
X289364D01*
Y457191D01*
X290020Y457847D01*
X291332D01*
X291988Y457191D01*
Y455223D01*
X290020Y461783D02*
X289364Y461127D01*
Y459815D01*
X290020Y459159D01*
X292644D01*
X293300Y459815D01*
Y461127D01*
X292644Y461783D01*
X291332D01*
Y460471D01*
X293300Y463095D02*
X290676D01*
X289364Y464406D01*
X290676Y465718D01*
X293300D01*
X291332D01*
Y463095D01*
X295977Y451287D02*
X299913D01*
Y453255D01*
X299257Y453911D01*
X296633D01*
X295977Y453255D01*
Y451287D01*
Y457191D02*
Y455879D01*
X296633Y455223D01*
X299257D01*
X299913Y455879D01*
Y457191D01*
X299257Y457847D01*
X296633D01*
X295977Y457191D01*
X299913Y459159D02*
X295977D01*
X299913Y461783D01*
X295977D01*
Y465718D02*
Y463095D01*
X299913D01*
Y465718D01*
X297945Y463095D02*
Y464406D01*
D12*
X418592Y251600D02*
G03*
X418592Y251600I-492J0D01*
G01*
X425862Y484528D02*
G03*
X425862Y484528I-492J0D01*
G01*
X294939Y151128D02*
G03*
X294939Y151128I-492J0D01*
G01*
X415822Y482991D02*
G03*
X415822Y482991I-492J0D01*
G01*
X379422Y483090D02*
G03*
X379422Y483090I-492J0D01*
G01*
X239280Y144916D02*
G03*
X239280Y144916I-492J0D01*
G01*
X224737Y457226D02*
G03*
X224737Y457226I-492J0D01*
G01*
X418592Y200400D02*
G03*
X418592Y200400I-492J0D01*
G01*
X310005Y452751D02*
G03*
X310005Y452751I-492J0D01*
G01*
X425162Y327028D02*
G03*
X425162Y327028I-492J0D01*
G01*
X426462Y381028D02*
G03*
X426462Y381028I-492J0D01*
G01*
X426332Y431912D02*
G03*
X426332Y431912I-492J0D01*
G01*
X148606Y286585D02*
G03*
X148606Y286585I-492J0D01*
G01*
X142733Y473998D02*
G03*
X142733Y473998I-492J0D01*
G01*
X300900Y208900D02*
X391700D01*
X300900Y157800D02*
Y208900D01*
Y157800D02*
X391700D01*
Y208900D01*
X296972Y152800D02*
X309772D01*
X296972Y146100D02*
Y152800D01*
Y121248D02*
Y146100D01*
X154100Y413200D02*
X169300D01*
Y317100D02*
Y413200D01*
X117200Y467800D02*
X154100D01*
Y413200D02*
Y467800D01*
X151100Y413200D02*
X154100D01*
X287000Y448600D02*
X347587D01*
Y486200D01*
X287000D02*
X347587D01*
X287000Y448600D02*
Y486200D01*
X117500Y317100D02*
X169300D01*
X309772Y152800D02*
X455027Y152800D01*
X336558Y121248D02*
Y152600D01*
X375927Y121248D02*
Y152600D01*
X415527Y121248D02*
Y152600D01*
X455027Y121448D02*
Y152800D01*
X313583Y168093D02*
X315157D01*
X315944Y168880D01*
Y172029D01*
X315157Y172816D01*
X313583D01*
X312796Y172029D01*
Y168880D01*
X313583Y168093D01*
X311221D02*
Y172029D01*
X310434Y172816D01*
X308860D01*
X308073Y172029D01*
Y168093D01*
X306499D02*
X303350D01*
X304924D01*
Y172816D01*
X313844Y179493D02*
X312270D01*
X313057D01*
Y184216D01*
X313844D01*
X312270D01*
X309909D02*
Y179493D01*
X306760Y184216D01*
Y179493D01*
X355916Y188317D02*
Y193316D01*
X353417D01*
X352584Y192483D01*
Y191650D01*
X353417Y190817D01*
X355916D01*
X353417D01*
X352584Y189983D01*
Y189150D01*
X353417Y188317D01*
X355916D01*
X324316Y187717D02*
Y192716D01*
X321817D01*
X320984Y191883D01*
Y188550D01*
X321817Y187717D01*
X324316D01*
X372116Y192516D02*
Y189183D01*
X370450Y187517D01*
X368783Y189183D01*
Y192516D01*
Y190017D01*
X372116D01*
X336883Y188750D02*
X337717Y187917D01*
X339383D01*
X340216Y188750D01*
Y192083D01*
X339383Y192916D01*
X337717D01*
X336883Y192083D01*
D13*
X427919Y245348D02*
G03*
X427919Y245348I-1181J0D01*
G01*
X433835Y479114D02*
G03*
X433835Y479114I-1181J0D01*
G01*
X290687Y142762D02*
G03*
X290687Y142762I-1181J0D01*
G01*
X409228Y488798D02*
G03*
X409228Y488798I-1181J0D01*
G01*
X372828Y488898D02*
G03*
X372828Y488898I-1181J0D01*
G01*
X427919Y194148D02*
G03*
X427919Y194148I-1181J0D01*
G01*
X433135Y321614D02*
G03*
X433135Y321614I-1181J0D01*
G01*
X434435Y375614D02*
G03*
X434435Y375614I-1181J0D01*
G01*
X434305Y426498D02*
G03*
X434305Y426498I-1181J0D01*
G01*
D14*
X217426Y170000D02*
G03*
X217426Y170000I-17126J0D01*
G01*
X435243Y89652D02*
Y93589D01*
X415557Y121148D02*
X454927D01*
X415557Y89652D02*
Y121148D01*
X454927Y89652D02*
Y121148D01*
X415557Y89652D02*
X454927D01*
X179016Y92600D02*
X205000D01*
X179100D02*
Y118584D01*
X205000Y92800D02*
Y118784D01*
X179116Y118800D02*
X205100D01*
X188100Y122216D02*
Y148200D01*
X188116Y148100D02*
X214100D01*
X188316Y122200D02*
X214300D01*
Y122116D02*
Y148100D01*
X376073Y89652D02*
X415443D01*
Y121148D01*
X376073Y89652D02*
Y121148D01*
X415443D01*
X395758Y89652D02*
Y93589D01*
X381096Y356963D02*
Y376648D01*
X400781Y356963D02*
Y376648D01*
X361772Y159963D02*
Y186100D01*
X346068Y160063D02*
Y186200D01*
X330000Y160200D02*
Y186337D01*
X304972Y176100D02*
X315029D01*
X548500Y406200D02*
X548500Y285200D01*
X460500D02*
X460500Y406200D01*
X460500Y285200D02*
X548500D01*
X460500Y406200D02*
X548500D01*
X422100Y209600D02*
Y249600D01*
X444100Y209600D02*
Y249600D01*
X422100Y209600D02*
X444100D01*
X422100Y249600D02*
X444100D01*
X119000Y194500D02*
Y256500D01*
X203000Y194500D02*
Y256500D01*
X119000Y194500D02*
X166000D01*
X180000D02*
X203000D01*
X180000Y256500D02*
X203000D01*
X119000D02*
X166000D01*
X547500Y246500D02*
X547500Y125500D01*
X459500D02*
X459500Y246500D01*
X459500Y125500D02*
X547500D01*
X459500Y246500D02*
X547500D01*
X150500Y523000D02*
Y541000D01*
Y555000D02*
Y568000D01*
Y599000D02*
X276500D01*
X150500Y583000D02*
Y599000D01*
X276500Y583000D02*
Y599000D01*
Y555000D02*
Y568000D01*
Y523000D02*
Y541000D01*
Y486000D02*
Y508000D01*
X150500Y486000D02*
X276500D01*
X150500D02*
Y508000D01*
X151487Y363475D02*
Y364975D01*
Y366475D01*
X118691Y344587D02*
Y383958D01*
X312835Y596811D02*
X434882D01*
X312835Y519330D02*
X434882D01*
X312835D02*
Y596811D01*
X434882Y519330D02*
Y596811D01*
X152000Y392675D02*
Y394175D01*
Y391175D02*
Y392675D01*
X400681Y393563D02*
Y413248D01*
X380996Y393563D02*
Y413248D01*
X401381Y280163D02*
Y299848D01*
X381696Y280163D02*
Y299848D01*
X400981Y318963D02*
Y338648D01*
X381296Y318963D02*
Y338648D01*
X341987Y451800D02*
Y465550D01*
X336134Y451800D02*
X341987D01*
X340487Y464050D02*
X341987Y465550D01*
X343487Y464050D01*
X249100Y267400D02*
X250600D01*
X252100D01*
X302300Y480900D02*
X303800D01*
X305300D01*
X334988Y481400D02*
X336488D01*
X337988D01*
X422100Y198400D02*
X444100D01*
X422100Y158400D02*
X444100D01*
Y198400D01*
X422100Y158400D02*
Y198400D01*
X151200Y337375D02*
Y338875D01*
Y335875D02*
Y337375D01*
X336558Y89652D02*
X375927D01*
Y121148D01*
X336558Y89652D02*
Y121148D01*
X375927D01*
X356242Y89652D02*
Y93589D01*
X485000Y89100D02*
X495000D01*
X465000Y93100D02*
Y115100D01*
X515000Y93100D02*
Y115100D01*
X465000D02*
X476000D01*
X504000Y93100D02*
X515000D01*
X465000D02*
X476000D01*
X504000Y115100D02*
X515000D01*
X548500Y565200D02*
X548500Y444200D01*
X460500D02*
X460500Y565200D01*
X460500Y444200D02*
X548500D01*
X460500Y565200D02*
X548500D01*
X122800Y439600D02*
Y453600D01*
X119800Y439600D02*
X122800D01*
X119800D02*
Y453600D01*
X122800D01*
X223700Y202600D02*
Y208200D01*
X235700Y202600D02*
Y208200D01*
X253700Y219990D02*
Y256490D01*
X212200D02*
X253700D01*
X212200Y219990D02*
Y256490D01*
Y219990D02*
X253700D01*
X206200Y202600D02*
Y208200D01*
X218200Y202600D02*
Y208200D01*
X316657Y89652D02*
Y93589D01*
X296972Y121148D02*
X336343D01*
X296972Y89652D02*
Y121148D01*
X336343Y89652D02*
Y121148D01*
X296972Y89652D02*
X336343D01*
X117646Y271213D02*
Y310583D01*
X439000Y266500D02*
Y262501D01*
X437001D01*
X436334Y263168D01*
Y264501D01*
X437001Y265167D01*
X439000D01*
X432336Y263168D02*
X433002Y262501D01*
X434335D01*
X435001Y263168D01*
Y263834D01*
X434335Y264501D01*
X433002D01*
X432336Y265167D01*
Y265834D01*
X433002Y266500D01*
X434335D01*
X435001Y265834D01*
X431003Y262501D02*
Y265167D01*
X429670Y266500D01*
X428337Y265167D01*
Y262501D01*
X427004D02*
Y266500D01*
X425004D01*
X424338Y265834D01*
Y263168D01*
X425004Y262501D01*
X427004D01*
X423005D02*
Y266500D01*
X421006D01*
X420339Y265834D01*
Y263168D01*
X421006Y262501D01*
X423005D01*
X446134Y269201D02*
X448800D01*
Y271201D01*
X447467Y270534D01*
X446801D01*
X446134Y271201D01*
Y272534D01*
X446801Y273200D01*
X448134D01*
X448800Y272534D01*
X444801Y269201D02*
Y271867D01*
X443468Y273200D01*
X442135Y271867D01*
Y269201D01*
X470900Y270068D02*
X470234Y269401D01*
X468901D01*
X468234Y270068D01*
Y270734D01*
X468901Y271401D01*
X469567D01*
X468901D01*
X468234Y272067D01*
Y272734D01*
X468901Y273400D01*
X470234D01*
X470900Y272734D01*
X466901Y269401D02*
Y272067D01*
X465568Y273400D01*
X464235Y272067D01*
Y269401D01*
X462903Y270068D02*
X462236Y269401D01*
X460903D01*
X460237Y270068D01*
Y270734D01*
X460903Y271401D01*
X461570D01*
X460903D01*
X460237Y272067D01*
Y272734D01*
X460903Y273400D01*
X462236D01*
X462903Y272734D01*
X358885Y199701D02*
Y195703D01*
X356886D01*
X356219Y196369D01*
Y197702D01*
X356886Y198369D01*
X358885D01*
X354220Y199701D02*
X352887D01*
X352221Y199035D01*
Y197702D01*
X352887Y197036D01*
X354220D01*
X354887Y197702D01*
Y199035D01*
X354220Y199701D01*
X350888Y197036D02*
Y199035D01*
X350221Y199701D01*
X349555Y199035D01*
X348888Y199701D01*
X348222Y199035D01*
Y197036D01*
X344890Y199701D02*
X346223D01*
X346889Y199035D01*
Y197702D01*
X346223Y197036D01*
X344890D01*
X344223Y197702D01*
Y198369D01*
X346889D01*
X342890Y197036D02*
Y199701D01*
Y198369D01*
X342224Y197702D01*
X341558Y197036D01*
X340891D01*
X332227Y196369D02*
X332894Y195703D01*
X334226D01*
X334893Y196369D01*
Y197036D01*
X334226Y197702D01*
X332894D01*
X332227Y198369D01*
Y199035D01*
X332894Y199701D01*
X334226D01*
X334893Y199035D01*
X330228Y196369D02*
Y197036D01*
X330894D01*
X329561D01*
X330228D01*
Y199035D01*
X329561Y199701D01*
X326896Y197036D02*
X325563D01*
X324896Y197702D01*
Y199701D01*
X326896D01*
X327562Y199035D01*
X326896Y198369D01*
X324896D01*
X320898Y197036D02*
X322897D01*
X323563Y197702D01*
Y199035D01*
X322897Y199701D01*
X320898D01*
X319565D02*
Y195703D01*
Y198369D02*
X317565Y197036D01*
X319565Y198369D02*
X317565Y199701D01*
X374214Y203568D02*
X374880Y202901D01*
X376213D01*
X376879Y203568D01*
Y204234D01*
X376213Y204901D01*
X374880D01*
X374214Y205567D01*
Y206234D01*
X374880Y206900D01*
X376213D01*
X376879Y206234D01*
X372214Y203568D02*
Y204234D01*
X372881D01*
X371548D01*
X372214D01*
Y206234D01*
X371548Y206900D01*
X368882Y204234D02*
X367549D01*
X366883Y204901D01*
Y206900D01*
X368882D01*
X369549Y206234D01*
X368882Y205567D01*
X366883D01*
X364883Y203568D02*
Y204234D01*
X365550D01*
X364217D01*
X364883D01*
Y206234D01*
X364217Y206900D01*
X362217Y204234D02*
Y206234D01*
X361551Y206900D01*
X359552D01*
Y204234D01*
X358219Y206900D02*
X356219D01*
X355553Y206234D01*
X356219Y205567D01*
X357552D01*
X358219Y204901D01*
X357552Y204234D01*
X355553D01*
X350221Y202901D02*
Y206900D01*
X348222D01*
X347556Y206234D01*
Y203568D01*
X348222Y202901D01*
X350221D01*
X346223Y206900D02*
X344890D01*
X345556D01*
Y204234D01*
X346223D01*
X342890D02*
Y206900D01*
Y205567D01*
X342224Y204901D01*
X341558Y204234D01*
X340891D01*
X336892Y206900D02*
X338225D01*
X338892Y206234D01*
Y204901D01*
X338225Y204234D01*
X336892D01*
X336226Y204901D01*
Y205567D01*
X338892D01*
X332227Y204234D02*
X334226D01*
X334893Y204901D01*
Y206234D01*
X334226Y206900D01*
X332227D01*
X330228Y203568D02*
Y204234D01*
X330894D01*
X329561D01*
X330228D01*
Y206234D01*
X329561Y206900D01*
X327562D02*
X326229D01*
X326896D01*
Y204234D01*
X327562D01*
X323563Y206900D02*
X322230D01*
X321564Y206234D01*
Y204901D01*
X322230Y204234D01*
X323563D01*
X324230Y204901D01*
Y206234D01*
X323563Y206900D01*
X320231D02*
Y204234D01*
X318232D01*
X317565Y204901D01*
Y206900D01*
X143232Y391999D02*
Y388001D01*
X141232D01*
X140566Y388667D01*
Y390000D01*
X141232Y390666D01*
X143232D01*
X141899D02*
X140566Y391999D01*
X136567Y388001D02*
X139233D01*
Y390000D01*
X137900Y389334D01*
X137233D01*
X136567Y390000D01*
Y391333D01*
X137233Y391999D01*
X138566D01*
X139233Y391333D01*
X132568Y391999D02*
X135234D01*
X132568Y389334D01*
Y388667D01*
X133235Y388001D01*
X134568D01*
X135234Y388667D01*
X368867Y346240D02*
X368201Y345573D01*
Y344240D01*
X368867Y343574D01*
X371533D01*
X372199Y344240D01*
Y345573D01*
X371533Y346240D01*
X372199Y349572D02*
X368201D01*
X370200Y347572D01*
Y350238D01*
X368201Y354237D02*
X368867Y352904D01*
X370200Y351571D01*
X371533D01*
X372199Y352238D01*
Y353571D01*
X371533Y354237D01*
X370866D01*
X370200Y353571D01*
Y351571D01*
X170367Y95501D02*
X169701Y94835D01*
Y93502D01*
X170367Y92835D01*
X173033D01*
X173699Y93502D01*
Y94835D01*
X173033Y95501D01*
X173699Y96834D02*
Y98167D01*
Y97501D01*
X169701D01*
X170367Y96834D01*
X173699Y100166D02*
Y101499D01*
Y100833D01*
X169701D01*
X170367Y100166D01*
X169701Y106165D02*
X170367Y104832D01*
X171700Y103499D01*
X173033D01*
X173699Y104165D01*
Y105498D01*
X173033Y106165D01*
X172366D01*
X171700Y105498D01*
Y103499D01*
X217892Y130385D02*
X217225Y129719D01*
Y128386D01*
X217892Y127719D01*
X220557D01*
X221224Y128386D01*
Y129719D01*
X220557Y130385D01*
X221224Y131718D02*
Y133051D01*
Y132385D01*
X217225D01*
X217892Y131718D01*
X221224Y135050D02*
Y136383D01*
Y135717D01*
X217225D01*
X217892Y135050D01*
X217225Y138383D02*
Y141049D01*
X217892D01*
X220557Y138383D01*
X221224D01*
X400265Y124967D02*
X400932Y124301D01*
X402264D01*
X402931Y124967D01*
Y127633D01*
X402264Y128299D01*
X400932D01*
X400265Y127633D01*
X396933Y124301D02*
X398266D01*
X398932Y124967D01*
Y127633D01*
X398266Y128299D01*
X396933D01*
X396266Y127633D01*
Y124967D01*
X396933Y124301D01*
X394934Y128299D02*
Y124301D01*
X392268Y128299D01*
Y124301D01*
X388269Y128299D02*
X390935D01*
X388269Y125634D01*
Y124967D01*
X388935Y124301D01*
X390268D01*
X390935Y124967D01*
X413000Y397000D02*
X409064D01*
Y398968D01*
X409720Y399624D01*
X411032D01*
X411688Y398968D01*
Y397000D01*
Y398312D02*
X413000Y399624D01*
X409720Y403560D02*
X409064Y402904D01*
Y401592D01*
X409720Y400936D01*
X412344D01*
X413000Y401592D01*
Y402904D01*
X412344Y403560D01*
X411032D01*
Y402248D01*
X409064Y404872D02*
X413000D01*
Y406839D01*
X412344Y407495D01*
X411688D01*
X411032Y406839D01*
Y404872D01*
Y406839D01*
X410376Y407495D01*
X409720D01*
X409064Y406839D01*
Y404872D01*
X413000Y408807D02*
Y410119D01*
Y409463D01*
X409064D01*
X409720Y408807D01*
X413000Y358602D02*
X409064D01*
Y360570D01*
X409720Y361226D01*
X411032D01*
X411688Y360570D01*
Y358602D01*
Y359914D02*
X413000Y361226D01*
X409720Y365162D02*
X409064Y364506D01*
Y363194D01*
X409720Y362538D01*
X412344D01*
X413000Y363194D01*
Y364506D01*
X412344Y365162D01*
X411032D01*
Y363850D01*
X409064Y366474D02*
X413000D01*
Y368442D01*
X412344Y369098D01*
X411688D01*
X411032Y368442D01*
Y366474D01*
Y368442D01*
X410376Y369098D01*
X409720D01*
X409064Y368442D01*
Y366474D01*
X413000Y373033D02*
Y370410D01*
X410376Y373033D01*
X409720D01*
X409064Y372377D01*
Y371065D01*
X409720Y370410D01*
X413200Y319419D02*
X409264D01*
Y321387D01*
X409920Y322043D01*
X411232D01*
X411888Y321387D01*
Y319419D01*
Y320731D02*
X413200Y322043D01*
X409920Y325978D02*
X409264Y325322D01*
Y324010D01*
X409920Y323355D01*
X412544D01*
X413200Y324010D01*
Y325322D01*
X412544Y325978D01*
X411232D01*
Y324667D01*
X409264Y327290D02*
X413200D01*
Y329258D01*
X412544Y329914D01*
X411888D01*
X411232Y329258D01*
Y327290D01*
Y329258D01*
X410576Y329914D01*
X409920D01*
X409264Y329258D01*
Y327290D01*
X409920Y331226D02*
X409264Y331882D01*
Y333194D01*
X409920Y333850D01*
X410576D01*
X411232Y333194D01*
Y332538D01*
Y333194D01*
X411888Y333850D01*
X412544D01*
X413200Y333194D01*
Y331882D01*
X412544Y331226D01*
X413500Y283500D02*
X409564D01*
Y285468D01*
X410220Y286124D01*
X411532D01*
X412188Y285468D01*
Y283500D01*
Y284812D02*
X413500Y286124D01*
X410220Y290060D02*
X409564Y289404D01*
Y288092D01*
X410220Y287436D01*
X412844D01*
X413500Y288092D01*
Y289404D01*
X412844Y290060D01*
X411532D01*
Y288748D01*
X409564Y291371D02*
X413500D01*
Y293339D01*
X412844Y293995D01*
X412188D01*
X411532Y293339D01*
Y291371D01*
Y293339D01*
X410876Y293995D01*
X410220D01*
X409564Y293339D01*
Y291371D01*
X413500Y297275D02*
X409564D01*
X411532Y295307D01*
Y297931D01*
X323600Y132632D02*
X320976D01*
X322288Y131320D02*
Y133944D01*
X315728Y132632D02*
X313105D01*
X322800Y136964D02*
Y139588D01*
X321488Y140900D01*
X320176Y139588D01*
Y136964D01*
X318864D02*
X317552D01*
X318208D01*
Y140900D01*
X318864D01*
X317552D01*
X315584D02*
Y136964D01*
X312961Y140900D01*
Y136964D01*
X321464Y150800D02*
X325400D01*
X321464Y146864D01*
Y145880D01*
X322448Y144896D01*
X324416D01*
X325400Y145880D01*
X316545Y150800D02*
Y144896D01*
X319496Y147848D01*
X315561D01*
X313593Y144896D02*
Y148832D01*
X311625Y150800D01*
X309657Y148832D01*
Y144896D01*
X364864Y137696D02*
X368800D01*
Y143600D01*
X364864D01*
X368800Y140648D02*
X366832D01*
X358961Y138680D02*
X359945Y137696D01*
X361912D01*
X362896Y138680D01*
Y139664D01*
X361912Y140648D01*
X359945D01*
X358961Y141632D01*
Y142616D01*
X359945Y143600D01*
X361912D01*
X362896Y142616D01*
X356993Y137696D02*
X353057D01*
X355025D01*
Y143600D01*
X348137Y137696D02*
X350105D01*
X351089Y138680D01*
Y142616D01*
X350105Y143600D01*
X348137D01*
X347153Y142616D01*
Y138680D01*
X348137Y137696D01*
X345186Y143600D02*
Y137696D01*
X342234D01*
X341250Y138680D01*
Y140648D01*
X342234Y141632D01*
X345186D01*
X401100Y132532D02*
X398476D01*
X399788Y131220D02*
Y133844D01*
X393229Y132532D02*
X390605D01*
X441168Y131775D02*
X438544D01*
X439856Y130463D02*
Y133087D01*
X433296Y131775D02*
X430673D01*
X405600Y137364D02*
Y139988D01*
X404288Y141300D01*
X402976Y139988D01*
Y137364D01*
X401664D02*
Y141300D01*
X399696D01*
X399040Y140644D01*
Y138020D01*
X399696Y137364D01*
X401664D01*
X397728Y141300D02*
Y137364D01*
X395761D01*
X395105Y138020D01*
Y139332D01*
X395761Y139988D01*
X397728D01*
X396417D02*
X395105Y141300D01*
X393793Y137364D02*
X392481D01*
X393137D01*
Y141300D01*
X393793D01*
X392481D01*
X390513Y137364D02*
Y139988D01*
X389201Y141300D01*
X387889Y139988D01*
Y137364D01*
X383953D02*
X386577D01*
Y141300D01*
X383953D01*
X386577Y139332D02*
X385265D01*
X406676Y145264D02*
X409300D01*
Y147232D01*
X407988Y146576D01*
X407332D01*
X406676Y147232D01*
Y148544D01*
X407332Y149200D01*
X408644D01*
X409300Y148544D01*
X405364Y145264D02*
Y147888D01*
X404052Y149200D01*
X402740Y147888D01*
Y145264D01*
X397493Y147232D02*
X394869D01*
X389621Y149200D02*
X388309D01*
X388965D01*
Y145264D01*
X389621Y145920D01*
X386342D02*
X385686Y145264D01*
X384374D01*
X383718Y145920D01*
Y146576D01*
X384374Y147232D01*
X383718Y147888D01*
Y148544D01*
X384374Y149200D01*
X385686D01*
X386342Y148544D01*
Y147888D01*
X385686Y147232D01*
X386342Y146576D01*
Y145920D01*
X385686Y147232D02*
X384374D01*
X382406Y145264D02*
Y147888D01*
X381094Y149200D01*
X379782Y147888D01*
Y145264D01*
X444400Y137064D02*
Y139688D01*
X443088Y141000D01*
X441776Y139688D01*
Y137064D01*
X440464D02*
X439152D01*
X439808D01*
Y141000D01*
X440464D01*
X439152D01*
X437184D02*
Y137064D01*
X434561Y141000D01*
Y137064D01*
X433249Y141000D02*
Y137064D01*
X431281D01*
X430625Y137720D01*
Y139032D01*
X431281Y139688D01*
X433249D01*
X426689Y137720D02*
X427345Y137064D01*
X428657D01*
X429313Y137720D01*
Y138376D01*
X428657Y139032D01*
X427345D01*
X426689Y139688D01*
Y140344D01*
X427345Y141000D01*
X428657D01*
X429313Y140344D01*
X447100Y148800D02*
Y144864D01*
X445788Y146176D01*
X444476Y144864D01*
Y148800D01*
X443164D02*
Y146176D01*
X441852Y144864D01*
X440540Y146176D01*
Y148800D01*
Y146832D01*
X443164D01*
X439228Y144864D02*
X436605Y148800D01*
Y144864D02*
X439228Y148800D01*
X428733D02*
X431357D01*
X428733Y146176D01*
Y145520D01*
X429389Y144864D01*
X430701D01*
X431357Y145520D01*
X427421Y148800D02*
Y146176D01*
X426109Y144864D01*
X424797Y146176D01*
Y148800D01*
Y146832D01*
X427421D01*
X423486Y147488D02*
Y144208D01*
Y148144D02*
Y148800D01*
X382689Y444700D02*
X385247D01*
X386100Y445553D01*
Y448111D01*
X382689D01*
X386100Y449817D02*
X382689D01*
X380983Y451522D01*
X382689Y453227D01*
X386100D01*
X383542D01*
Y449817D01*
X386100Y454933D02*
X380983D01*
X382689Y456638D01*
X380983Y458344D01*
X386100D01*
X380983Y460049D02*
X386100D01*
Y462608D01*
X385247Y463460D01*
X381836D01*
X380983Y462608D01*
Y460049D01*
X381836Y468577D02*
X380983Y467724D01*
Y466019D01*
X381836Y465166D01*
X385247D01*
X386100Y466019D01*
Y467724D01*
X385247Y468577D01*
X269728Y268663D02*
X268941Y267876D01*
Y266302D01*
X269728Y265515D01*
X270515D01*
X271302Y266302D01*
Y267876D01*
X272090Y268663D01*
X272877D01*
X273664Y267876D01*
Y266302D01*
X272877Y265515D01*
X268941Y270237D02*
Y273386D01*
Y271812D01*
X273664D01*
Y274960D02*
X268941D01*
X270515Y276535D01*
X268941Y278109D01*
X273664D01*
X268941Y284406D02*
X273664D01*
Y286768D01*
X272877Y287555D01*
X269728D01*
X268941Y286768D01*
Y284406D01*
X269728Y292278D02*
X268941Y291491D01*
Y289916D01*
X269728Y289129D01*
X270515D01*
X271302Y289916D01*
Y291491D01*
X272090Y292278D01*
X272877D01*
X273664Y291491D01*
Y289916D01*
X272877Y289129D01*
X273664Y293852D02*
X268941D01*
Y296213D01*
X269728Y297001D01*
X271302D01*
X272090Y296213D01*
Y293852D01*
X269177Y355500D02*
X273900D01*
Y358649D01*
X270751Y361010D02*
Y362584D01*
X271539Y363371D01*
X273900D01*
Y361010D01*
X273113Y360223D01*
X272326Y361010D01*
Y363371D01*
X269964Y365733D02*
X270751D01*
Y364946D01*
Y366520D01*
Y365733D01*
X273113D01*
X273900Y366520D01*
X269964Y369669D02*
X270751D01*
Y368882D01*
Y370456D01*
Y369669D01*
X273113D01*
X273900Y370456D01*
Y372817D02*
Y374392D01*
Y373604D01*
X270751D01*
Y372817D01*
Y379902D02*
Y377540D01*
X271539Y376753D01*
X273113D01*
X273900Y377540D01*
Y379902D01*
Y383837D02*
Y382263D01*
X273113Y381476D01*
X271539D01*
X270751Y382263D01*
Y383837D01*
X271539Y384624D01*
X272326D01*
Y381476D01*
X269177Y394070D02*
Y390922D01*
X271539D01*
Y392496D01*
Y390922D01*
X273900D01*
Y395644D02*
X269177D01*
Y398006D01*
X269964Y398793D01*
X271539D01*
X272326Y398006D01*
Y395644D01*
X269964Y403516D02*
X269177Y402729D01*
Y401155D01*
X269964Y400367D01*
X273113D01*
X273900Y401155D01*
Y402729D01*
X273113Y403516D01*
X271539D01*
Y401942D01*
X273900Y405090D02*
X270751D01*
X269177Y406665D01*
X270751Y408239D01*
X273900D01*
X271539D01*
Y405090D01*
X496551Y249464D02*
X497339Y248677D01*
X498913D01*
X499700Y249464D01*
Y252613D01*
X498913Y253400D01*
X497339D01*
X496551Y252613D01*
Y251039D01*
X498126D01*
X494977Y253400D02*
Y248677D01*
X492616D01*
X491828Y249464D01*
Y251039D01*
X492616Y251826D01*
X494977D01*
X490254Y248677D02*
X488680D01*
X489467D01*
Y253400D01*
X490254D01*
X488680D01*
X483957Y248677D02*
X485531D01*
X486318Y249464D01*
Y252613D01*
X485531Y253400D01*
X483957D01*
X483170Y252613D01*
Y249464D01*
X483957Y248677D01*
X155743Y186283D02*
X159075D01*
Y191281D01*
X155743D01*
X159075Y188782D02*
X157409D01*
X153244Y187116D02*
Y187949D01*
X154077D01*
X152411D01*
X153244D01*
Y190448D01*
X152411Y191281D01*
X149912Y186283D02*
Y191281D01*
Y188782D01*
X149079Y187949D01*
X147413D01*
X146580Y188782D01*
Y191281D01*
X142414D02*
X144080D01*
X144913Y190448D01*
Y188782D01*
X144080Y187949D01*
X142414D01*
X141581Y188782D01*
Y189615D01*
X144913D01*
X139915Y187949D02*
Y191281D01*
Y189615D01*
X139082Y188782D01*
X138249Y187949D01*
X137416D01*
X134917Y191281D02*
Y187949D01*
X132417D01*
X131584Y188782D01*
Y191281D01*
X127419D02*
X129085D01*
X129918Y190448D01*
Y188782D01*
X129085Y187949D01*
X127419D01*
X126586Y188782D01*
Y189615D01*
X129918D01*
X124087Y187116D02*
Y187949D01*
X124920D01*
X123254D01*
X124087D01*
Y190448D01*
X123254Y191281D01*
X431651Y512377D02*
X434800D01*
Y517100D01*
X431651D01*
X434800Y514739D02*
X433226D01*
X430077Y517100D02*
Y513951D01*
X427716D01*
X426929Y514739D01*
Y517100D01*
X422206Y513951D02*
X424567D01*
X425354Y514739D01*
Y516313D01*
X424567Y517100D01*
X422206D01*
X419844D02*
X418270D01*
X417483Y516313D01*
Y514739D01*
X418270Y513951D01*
X419844D01*
X420631Y514739D01*
Y516313D01*
X419844Y517100D01*
X412760Y512377D02*
Y517100D01*
X415121D01*
X415908Y516313D01*
Y514739D01*
X415121Y513951D01*
X412760D01*
X408824Y517100D02*
X410398D01*
X411186Y516313D01*
Y514739D01*
X410398Y513951D01*
X408824D01*
X408037Y514739D01*
Y515526D01*
X411186D01*
X406463Y513951D02*
Y517100D01*
Y515526D01*
X405676Y514739D01*
X404888Y513951D01*
X404101D01*
X133900Y263596D02*
Y268516D01*
X132916Y269500D01*
X130948D01*
X129964Y268516D01*
Y263596D01*
X124061Y264580D02*
X125045Y263596D01*
X127013D01*
X127996Y264580D01*
Y265564D01*
X127013Y266548D01*
X125045D01*
X124061Y267532D01*
Y268516D01*
X125045Y269500D01*
X127013D01*
X127996Y268516D01*
X122093Y263596D02*
Y269500D01*
X119141D01*
X118157Y268516D01*
Y267532D01*
X119141Y266548D01*
X122093D01*
X119141D01*
X118157Y265564D01*
Y264580D01*
X119141Y263596D01*
X122093D01*
X140300Y337396D02*
Y342316D01*
X139316Y343300D01*
X137348D01*
X136364Y342316D01*
Y337396D01*
X134396Y343300D02*
Y339364D01*
X132429Y337396D01*
X130461Y339364D01*
Y343300D01*
Y340348D01*
X134396D01*
X128493Y343300D02*
Y337396D01*
X125541D01*
X124557Y338380D01*
Y340348D01*
X125541Y341332D01*
X128493D01*
X126525D02*
X124557Y343300D01*
X122589Y337396D02*
X118654D01*
X120621D01*
Y343300D01*
X287126Y484400D02*
X283977D01*
X282403Y485974D01*
X283977Y487549D01*
X287126D01*
X284764D01*
Y484400D01*
X287126Y489123D02*
X283977D01*
Y491484D01*
X284764Y492272D01*
X287126D01*
X283977Y494633D02*
Y496207D01*
X284764Y496994D01*
X287126D01*
Y494633D01*
X286339Y493846D01*
X285551Y494633D01*
Y496994D01*
X287126Y498569D02*
Y500143D01*
Y499356D01*
X282403D01*
Y498569D01*
X287126Y503292D02*
Y504866D01*
X286339Y505653D01*
X284764D01*
X283977Y504866D01*
Y503292D01*
X284764Y502504D01*
X286339D01*
X287126Y503292D01*
X288700Y508802D02*
Y509589D01*
X287913Y510376D01*
X283977D01*
Y508014D01*
X284764Y507227D01*
X286339D01*
X287126Y508014D01*
Y510376D01*
X282403Y516673D02*
Y518247D01*
Y517460D01*
X287126D01*
Y516673D01*
Y518247D01*
Y520609D02*
X283977D01*
Y522970D01*
X284764Y523757D01*
X287126D01*
X288700Y525332D02*
X283977D01*
Y527693D01*
X284764Y528480D01*
X286339D01*
X287126Y527693D01*
Y525332D01*
X283977Y530055D02*
X286339D01*
X287126Y530842D01*
Y533203D01*
X283977D01*
X283190Y535565D02*
X283977D01*
Y534777D01*
Y536352D01*
Y535565D01*
X286339D01*
X287126Y536352D01*
Y538713D02*
Y541075D01*
X286339Y541862D01*
X285551Y541075D01*
Y539500D01*
X284764Y538713D01*
X283977Y539500D01*
Y541862D01*
X507376Y118608D02*
X508032Y117952D01*
X509344D01*
X510000Y118608D01*
Y119264D01*
X509344Y119920D01*
X508032D01*
X507376Y120576D01*
Y121232D01*
X508032Y121888D01*
X509344D01*
X510000Y121232D01*
X506064Y117952D02*
Y121888D01*
X504752Y120576D01*
X503440Y121888D01*
Y117952D01*
X502129D02*
Y121888D01*
X500161D01*
X499505Y121232D01*
Y118608D01*
X500161Y117952D01*
X502129D01*
X494257D02*
Y121888D01*
X492289D01*
X491633Y121232D01*
Y118608D01*
X492289Y117952D01*
X494257D01*
X488353Y121888D02*
X489665D01*
X490321Y121232D01*
Y119920D01*
X489665Y119264D01*
X488353D01*
X487698Y119920D01*
Y120576D01*
X490321D01*
X486386Y117952D02*
Y121888D01*
X484418D01*
X483762Y121232D01*
Y120576D01*
Y119920D01*
X484418Y119264D01*
X486386D01*
X482450D02*
Y121232D01*
X481794Y121888D01*
X479826D01*
Y119264D01*
X477202Y123200D02*
X476546D01*
X475890Y122544D01*
Y119264D01*
X477858D01*
X478514Y119920D01*
Y121232D01*
X477858Y121888D01*
X475890D01*
X457500Y289500D02*
X452777D01*
Y291861D01*
X453564Y292649D01*
X455139D01*
X455926Y291861D01*
Y289500D01*
X457500Y295010D02*
Y296584D01*
X456713Y297372D01*
X455139D01*
X454351Y296584D01*
Y295010D01*
X455139Y294223D01*
X456713D01*
X457500Y295010D01*
X454351Y298946D02*
X456713D01*
X457500Y299733D01*
X456713Y300520D01*
X457500Y301307D01*
X456713Y302094D01*
X454351D01*
X457500Y306030D02*
Y304456D01*
X456713Y303669D01*
X455139D01*
X454351Y304456D01*
Y306030D01*
X455139Y306817D01*
X455926D01*
Y303669D01*
X454351Y308391D02*
X457500D01*
X455926D01*
X455139Y309179D01*
X454351Y309966D01*
Y310753D01*
X453564Y320986D02*
X452777Y320199D01*
Y318624D01*
X453564Y317837D01*
X454351D01*
X455139Y318624D01*
Y320199D01*
X455926Y320986D01*
X456713D01*
X457500Y320199D01*
Y318624D01*
X456713Y317837D01*
X453564Y323347D02*
X454351D01*
Y322560D01*
Y324134D01*
Y323347D01*
X456713D01*
X457500Y324134D01*
X454351Y327283D02*
Y328857D01*
X455139Y329644D01*
X457500D01*
Y327283D01*
X456713Y326496D01*
X455926Y327283D01*
Y329644D01*
X454351Y334367D02*
Y332006D01*
X455139Y331219D01*
X456713D01*
X457500Y332006D01*
Y334367D01*
Y335942D02*
X452777D01*
X455926D02*
X454351Y338303D01*
X455926Y335942D02*
X457500Y338303D01*
X458500Y449900D02*
X453777D01*
Y452261D01*
X454564Y453049D01*
X456139D01*
X456926Y452261D01*
Y449900D01*
X458500Y455410D02*
Y456984D01*
X457713Y457771D01*
X456139D01*
X455351Y456984D01*
Y455410D01*
X456139Y454623D01*
X457713D01*
X458500Y455410D01*
X455351Y459346D02*
X457713D01*
X458500Y460133D01*
X457713Y460920D01*
X458500Y461707D01*
X457713Y462494D01*
X455351D01*
X458500Y466430D02*
Y464856D01*
X457713Y464069D01*
X456139D01*
X455351Y464856D01*
Y466430D01*
X456139Y467217D01*
X456926D01*
Y464069D01*
X455351Y468791D02*
X458500D01*
X456926D01*
X456139Y469579D01*
X455351Y470366D01*
Y471153D01*
X454564Y481386D02*
X453777Y480599D01*
Y479024D01*
X454564Y478237D01*
X455351D01*
X456139Y479024D01*
Y480599D01*
X456926Y481386D01*
X457713D01*
X458500Y480599D01*
Y479024D01*
X457713Y478237D01*
X454564Y483747D02*
X455351D01*
Y482960D01*
Y484535D01*
Y483747D01*
X457713D01*
X458500Y484535D01*
X455351Y487683D02*
Y489257D01*
X456139Y490044D01*
X458500D01*
Y487683D01*
X457713Y486896D01*
X456926Y487683D01*
Y490044D01*
X455351Y494767D02*
Y492406D01*
X456139Y491619D01*
X457713D01*
X458500Y492406D01*
Y494767D01*
Y496342D02*
X453777D01*
X456926D02*
X455351Y498703D01*
X456926Y496342D02*
X458500Y498703D01*
X279109Y228133D02*
X282442D01*
X283108Y228799D01*
Y230132D01*
X282442Y230799D01*
X279109D01*
X283108Y232132D02*
Y233465D01*
Y232798D01*
X279109D01*
X279776Y232132D01*
X279109Y235464D02*
Y238130D01*
X279776D01*
X282442Y235464D01*
X283108D01*
X466900Y117201D02*
X468233D01*
X467566D01*
Y120533D01*
X468233Y121199D01*
X468899D01*
X469566Y120533D01*
X465567Y121199D02*
X464234D01*
X464901D01*
Y117201D01*
X465567Y117867D01*
X133226Y121001D02*
Y124333D01*
X132560Y124999D01*
X131227D01*
X130560Y124333D01*
Y121001D01*
X126562Y124999D02*
X129227D01*
X126562Y122334D01*
Y121667D01*
X127228Y121001D01*
X128561D01*
X129227Y121667D01*
X125229Y124333D02*
X124562Y124999D01*
X123229D01*
X122563Y124333D01*
Y121667D01*
X123229Y121001D01*
X124562D01*
X125229Y121667D01*
Y122334D01*
X124562Y123000D01*
X122563D01*
X497482Y585717D02*
X493483D01*
Y587716D01*
X494149Y588383D01*
X495482D01*
X496149Y587716D01*
Y585717D01*
Y587050D02*
X497482Y588383D01*
X493483Y592382D02*
X494149Y591049D01*
X495482Y589716D01*
X496815D01*
X497482Y590382D01*
Y591715D01*
X496815Y592382D01*
X496149D01*
X495482Y591715D01*
Y589716D01*
X508182Y585717D02*
X504183D01*
Y587716D01*
X504849Y588383D01*
X506182D01*
X506849Y587716D01*
Y585717D01*
Y587050D02*
X508182Y588383D01*
X504183Y589716D02*
Y592382D01*
X504849D01*
X507515Y589716D01*
X508182D01*
X511518Y422483D02*
X515517D01*
Y420484D01*
X514851Y419817D01*
X513518D01*
X512851Y420484D01*
Y422483D01*
Y421150D02*
X511518Y419817D01*
X514851Y418484D02*
X515517Y417818D01*
Y416485D01*
X514851Y415818D01*
X514184D01*
X513518Y416485D01*
X512851Y415818D01*
X512185D01*
X511518Y416485D01*
Y417818D01*
X512185Y418484D01*
X512851D01*
X513518Y417818D01*
X514184Y418484D01*
X514851D01*
X513518Y417818D02*
Y416485D01*
X485783Y440195D02*
Y436196D01*
X483784D01*
X483117Y436863D01*
Y438196D01*
X483784Y438862D01*
X485783D01*
X484450D02*
X483117Y440195D01*
X481784Y439529D02*
X481118Y440195D01*
X479785D01*
X479118Y439529D01*
Y436863D01*
X479785Y436196D01*
X481118D01*
X481784Y436863D01*
Y437529D01*
X481118Y438196D01*
X479118D01*
X477299Y415568D02*
X473301D01*
Y417567D01*
X473967Y418234D01*
X475300D01*
X475966Y417567D01*
Y415568D01*
Y416901D02*
X477299Y418234D01*
Y422232D02*
Y419566D01*
X474634Y422232D01*
X473967D01*
X473301Y421566D01*
Y420233D01*
X473967Y419566D01*
X501199Y415368D02*
X497201D01*
Y417367D01*
X497867Y418034D01*
X499200D01*
X499866Y417367D01*
Y415368D01*
Y416701D02*
X501199Y418034D01*
X497867Y419367D02*
X497201Y420033D01*
Y421366D01*
X497867Y422032D01*
X498534D01*
X499200Y421366D01*
Y420699D01*
Y421366D01*
X499866Y422032D01*
X500533D01*
X501199Y421366D01*
Y420033D01*
X500533Y419367D01*
X506417Y257393D02*
X502418D01*
Y259393D01*
X503085Y260059D01*
X504418D01*
X505084Y259393D01*
Y257393D01*
Y258726D02*
X506417Y260059D01*
Y263391D02*
X502418D01*
X504418Y261392D01*
Y264058D01*
X496417Y257393D02*
X492418D01*
Y259393D01*
X493085Y260059D01*
X494418D01*
X495084Y259393D01*
Y257393D01*
Y258726D02*
X496417Y260059D01*
X492418Y264058D02*
Y261392D01*
X494418D01*
X493751Y262725D01*
Y263391D01*
X494418Y264058D01*
X495751D01*
X496417Y263391D01*
Y262058D01*
X495751Y261392D01*
X271965Y481167D02*
X272632Y480501D01*
X273965D01*
X274631Y481167D01*
Y483833D01*
X273965Y484499D01*
X272632D01*
X271965Y483833D01*
X268633Y480501D02*
X269966D01*
X270632Y481167D01*
Y483833D01*
X269966Y484499D01*
X268633D01*
X267966Y483833D01*
Y481167D01*
X268633Y480501D01*
X266634Y484499D02*
Y480501D01*
X263968Y484499D01*
Y480501D01*
X259969D02*
X262635D01*
Y482500D01*
X261302Y481834D01*
X260635D01*
X259969Y482500D01*
Y483833D01*
X260635Y484499D01*
X261968D01*
X262635Y483833D01*
X135598Y521999D02*
Y518001D01*
X133599D01*
X132933Y518667D01*
Y520000D01*
X133599Y520666D01*
X135598D01*
X134265D02*
X132933Y521999D01*
X131600D02*
X130267D01*
X130933D01*
Y518001D01*
X131600Y518667D01*
X128267Y521333D02*
X127601Y521999D01*
X126268D01*
X125602Y521333D01*
Y518667D01*
X126268Y518001D01*
X127601D01*
X128267Y518667D01*
Y519334D01*
X127601Y520000D01*
X125602D01*
X135932Y506499D02*
Y502501D01*
X133932D01*
X133266Y503167D01*
Y504500D01*
X133932Y505166D01*
X135932D01*
X134599D02*
X133266Y506499D01*
X129267D02*
X131933D01*
X129267Y503834D01*
Y503167D01*
X129934Y502501D01*
X131266D01*
X131933Y503167D01*
X127934D02*
X127268Y502501D01*
X125935D01*
X125268Y503167D01*
Y505833D01*
X125935Y506499D01*
X127268D01*
X127934Y505833D01*
Y503167D01*
X147999Y486535D02*
X144001D01*
Y488534D01*
X144667Y489201D01*
X146000D01*
X146666Y488534D01*
Y486535D01*
Y487868D02*
X147999Y489201D01*
Y493199D02*
Y490534D01*
X145334Y493199D01*
X144667D01*
X144001Y492533D01*
Y491200D01*
X144667Y490534D01*
X147999Y494532D02*
Y495865D01*
Y495199D01*
X144001D01*
X144667Y494532D01*
X135932Y552999D02*
Y549001D01*
X133932D01*
X133266Y549667D01*
Y551000D01*
X133932Y551666D01*
X135932D01*
X134599D02*
X133266Y552999D01*
X129267D02*
X131933D01*
X129267Y550334D01*
Y549667D01*
X129934Y549001D01*
X131266D01*
X131933Y549667D01*
X125268Y552999D02*
X127934D01*
X125268Y550334D01*
Y549667D01*
X125935Y549001D01*
X127268D01*
X127934Y549667D01*
X135932Y536999D02*
Y533001D01*
X133932D01*
X133266Y533667D01*
Y535000D01*
X133932Y535666D01*
X135932D01*
X134599D02*
X133266Y536999D01*
X129267D02*
X131933D01*
X129267Y534334D01*
Y533667D01*
X129934Y533001D01*
X131266D01*
X131933Y533667D01*
X127934D02*
X127268Y533001D01*
X125935D01*
X125268Y533667D01*
Y534334D01*
X125935Y535000D01*
X126601D01*
X125935D01*
X125268Y535666D01*
Y536333D01*
X125935Y536999D01*
X127268D01*
X127934Y536333D01*
X121999Y484568D02*
X118001D01*
Y486568D01*
X118667Y487234D01*
X120000D01*
X120667Y486568D01*
Y484568D01*
Y485901D02*
X121999Y487234D01*
Y491233D02*
Y488567D01*
X119334Y491233D01*
X118667D01*
X118001Y490566D01*
Y489234D01*
X118667Y488567D01*
X121999Y494565D02*
X118001D01*
X120000Y492566D01*
Y495232D01*
X294599Y545868D02*
X290601D01*
Y547868D01*
X291267Y548534D01*
X292600D01*
X293266Y547868D01*
Y545868D01*
Y547201D02*
X294599Y548534D01*
X291267Y549867D02*
X290601Y550534D01*
Y551866D01*
X291267Y552533D01*
X291933D01*
X292600Y551866D01*
Y551200D01*
Y551866D01*
X293266Y552533D01*
X293933D01*
X294599Y551866D01*
Y550534D01*
X293933Y549867D01*
X291267Y553866D02*
X290601Y554532D01*
Y555865D01*
X291267Y556532D01*
X291933D01*
X292600Y555865D01*
Y555199D01*
Y555865D01*
X293266Y556532D01*
X293933D01*
X294599Y555865D01*
Y554532D01*
X293933Y553866D01*
X155501Y472346D02*
X158833D01*
X159499Y473012D01*
Y474345D01*
X158833Y475011D01*
X155501D01*
X159499Y476344D02*
Y477677D01*
Y477011D01*
X155501D01*
X156167Y476344D01*
Y479677D02*
X155501Y480343D01*
Y481676D01*
X156167Y482342D01*
X156834D01*
X157500Y481676D01*
Y481010D01*
Y481676D01*
X158167Y482342D01*
X158833D01*
X159499Y481676D01*
Y480343D01*
X158833Y479677D01*
X255766Y435814D02*
X256433Y435148D01*
X257766D01*
X258432Y435814D01*
Y438480D01*
X257766Y439147D01*
X256433D01*
X255766Y438480D01*
X254433Y439147D02*
X253101D01*
X253767D01*
Y435148D01*
X254433Y435814D01*
X251101D02*
X250435Y435148D01*
X249102D01*
X248435Y435814D01*
Y436481D01*
X249102Y437147D01*
X249768D01*
X249102D01*
X248435Y437814D01*
Y438480D01*
X249102Y439147D01*
X250435D01*
X251101Y438480D01*
X215867Y476667D02*
X215201Y476001D01*
Y474668D01*
X215867Y474002D01*
X218533D01*
X219199Y474668D01*
Y476001D01*
X218533Y476667D01*
X219199Y478000D02*
Y479333D01*
Y478667D01*
X215201D01*
X215867Y478000D01*
X219199Y483332D02*
X215201D01*
X217200Y481333D01*
Y483998D01*
X202046Y476667D02*
X201379Y476001D01*
Y474668D01*
X202046Y474002D01*
X204712D01*
X205378Y474668D01*
Y476001D01*
X204712Y476667D01*
X205378Y478000D02*
Y479333D01*
Y478667D01*
X201379D01*
X202046Y478000D01*
X201379Y483998D02*
Y481333D01*
X203379D01*
X202712Y482665D01*
Y483332D01*
X203379Y483998D01*
X204712D01*
X205378Y483332D01*
Y481999D01*
X204712Y481333D01*
X166486Y422346D02*
X167153Y421679D01*
X168485D01*
X169152Y422346D01*
Y425012D01*
X168485Y425678D01*
X167153D01*
X166486Y425012D01*
X165153Y425678D02*
X163820D01*
X164487D01*
Y421679D01*
X165153Y422346D01*
X159155Y421679D02*
X160488Y422346D01*
X161821Y423679D01*
Y425012D01*
X161154Y425678D01*
X159822D01*
X159155Y425012D01*
Y424345D01*
X159822Y423679D01*
X161821D01*
X208767Y476667D02*
X208101Y476001D01*
Y474668D01*
X208767Y474002D01*
X211433D01*
X212099Y474668D01*
Y476001D01*
X211433Y476667D01*
X212099Y478000D02*
Y479333D01*
Y478667D01*
X208101D01*
X208767Y478000D01*
X208101Y481333D02*
Y483998D01*
X208767D01*
X211433Y481333D01*
X212099D01*
X188376Y476667D02*
X187709Y476001D01*
Y474668D01*
X188376Y474002D01*
X191042D01*
X191708Y474668D01*
Y476001D01*
X191042Y476667D01*
X191708Y478000D02*
Y479333D01*
Y478667D01*
X187709D01*
X188376Y478000D01*
Y481333D02*
X187709Y481999D01*
Y483332D01*
X188376Y483998D01*
X189042D01*
X189709Y483332D01*
X190375Y483998D01*
X191042D01*
X191708Y483332D01*
Y481999D01*
X191042Y481333D01*
X190375D01*
X189709Y481999D01*
X189042Y481333D01*
X188376D01*
X189709Y481999D02*
Y483332D01*
X195267Y476667D02*
X194601Y476001D01*
Y474668D01*
X195267Y474002D01*
X197933D01*
X198599Y474668D01*
Y476001D01*
X197933Y476667D01*
X198599Y478000D02*
Y479333D01*
Y478667D01*
X194601D01*
X195267Y478000D01*
X197933Y481333D02*
X198599Y481999D01*
Y483332D01*
X197933Y483998D01*
X195267D01*
X194601Y483332D01*
Y481999D01*
X195267Y481333D01*
X195933D01*
X196600Y481999D01*
Y483998D01*
X166819Y427940D02*
X167486Y427274D01*
X168819D01*
X169485Y427940D01*
Y430606D01*
X168819Y431273D01*
X167486D01*
X166819Y430606D01*
X162821Y431273D02*
X165486D01*
X162821Y428607D01*
Y427940D01*
X163487Y427274D01*
X164820D01*
X165486Y427940D01*
X161488D02*
X160821Y427274D01*
X159488D01*
X158822Y427940D01*
Y430606D01*
X159488Y431273D01*
X160821D01*
X161488Y430606D01*
Y427940D01*
X166653Y434967D02*
X167319Y434301D01*
X168652D01*
X169319Y434967D01*
Y437633D01*
X168652Y438299D01*
X167319D01*
X166653Y437633D01*
X162654Y438299D02*
X165320D01*
X162654Y435634D01*
Y434967D01*
X163321Y434301D01*
X164654D01*
X165320Y434967D01*
X161321Y438299D02*
X159988D01*
X160655D01*
Y434301D01*
X161321Y434967D01*
X203366Y407567D02*
X204032Y406901D01*
X205365D01*
X206032Y407567D01*
Y410233D01*
X205365Y410899D01*
X204032D01*
X203366Y410233D01*
X199367Y410899D02*
X202033D01*
X199367Y408234D01*
Y407567D01*
X200033Y406901D01*
X201366D01*
X202033Y407567D01*
X195368Y410899D02*
X198034D01*
X195368Y408234D01*
Y407567D01*
X196035Y406901D01*
X197368D01*
X198034Y407567D01*
X222540Y476547D02*
X221873Y475880D01*
Y474547D01*
X222540Y473881D01*
X225206D01*
X225872Y474547D01*
Y475880D01*
X225206Y476547D01*
X225872Y480546D02*
Y477880D01*
X223206Y480546D01*
X222540D01*
X221873Y479879D01*
Y478546D01*
X222540Y477880D01*
Y481878D02*
X221873Y482545D01*
Y483878D01*
X222540Y484544D01*
X223206D01*
X223873Y483878D01*
Y483211D01*
Y483878D01*
X224539Y484544D01*
X225206D01*
X225872Y483878D01*
Y482545D01*
X225206Y481878D01*
X256612Y448225D02*
X257279Y447559D01*
X258612D01*
X259278Y448225D01*
Y450891D01*
X258612Y451558D01*
X257279D01*
X256612Y450891D01*
X252613Y451558D02*
X255279D01*
X252613Y448892D01*
Y448225D01*
X253280Y447559D01*
X254613D01*
X255279Y448225D01*
X249281Y451558D02*
Y447559D01*
X251281Y449558D01*
X248615D01*
X167266Y454667D02*
X167932Y454001D01*
X169265D01*
X169932Y454667D01*
Y457333D01*
X169265Y457999D01*
X167932D01*
X167266Y457333D01*
X163267Y457999D02*
X165933D01*
X163267Y455334D01*
Y454667D01*
X163934Y454001D01*
X165266D01*
X165933Y454667D01*
X159268Y454001D02*
X161934D01*
Y456000D01*
X160601Y455334D01*
X159935D01*
X159268Y456000D01*
Y457333D01*
X159935Y457999D01*
X161268D01*
X161934Y457333D01*
X167066Y461067D02*
X167732Y460401D01*
X169065D01*
X169732Y461067D01*
Y463733D01*
X169065Y464399D01*
X167732D01*
X167066Y463733D01*
X163067Y464399D02*
X165733D01*
X163067Y461734D01*
Y461067D01*
X163733Y460401D01*
X165066D01*
X165733Y461067D01*
X159068Y460401D02*
X160401Y461067D01*
X161734Y462400D01*
Y463733D01*
X161068Y464399D01*
X159735D01*
X159068Y463733D01*
Y463066D01*
X159735Y462400D01*
X161734D01*
X216535Y406792D02*
X217201Y406126D01*
X218534D01*
X219201Y406792D01*
Y409458D01*
X218534Y410124D01*
X217201D01*
X216535Y409458D01*
X212536Y410124D02*
X215202D01*
X212536Y407459D01*
Y406792D01*
X213203Y406126D01*
X214536D01*
X215202Y406792D01*
X211204Y406126D02*
X208538D01*
Y406792D01*
X211204Y409458D01*
Y410124D01*
X256600Y442220D02*
X257266Y441553D01*
X258599D01*
X259265Y442220D01*
Y444886D01*
X258599Y445552D01*
X257266D01*
X256600Y444886D01*
X252601Y445552D02*
X255267D01*
X252601Y442886D01*
Y442220D01*
X253267Y441553D01*
X254600D01*
X255267Y442220D01*
X251268D02*
X250602Y441553D01*
X249269D01*
X248602Y442220D01*
Y442886D01*
X249269Y443553D01*
X248602Y444219D01*
Y444886D01*
X249269Y445552D01*
X250602D01*
X251268Y444886D01*
Y444219D01*
X250602Y443553D01*
X251268Y442886D01*
Y442220D01*
X250602Y443553D02*
X249269D01*
X229367Y476547D02*
X228701Y475880D01*
Y474547D01*
X229367Y473881D01*
X232033D01*
X232699Y474547D01*
Y475880D01*
X232033Y476547D01*
X232699Y480546D02*
Y477880D01*
X230033Y480546D01*
X229367D01*
X228701Y479879D01*
Y478546D01*
X229367Y477880D01*
X232033Y481878D02*
X232699Y482545D01*
Y483878D01*
X232033Y484544D01*
X229367D01*
X228701Y483878D01*
Y482545D01*
X229367Y481878D01*
X230033D01*
X230700Y482545D01*
Y484544D01*
X256600Y422467D02*
X257266Y421801D01*
X258599D01*
X259265Y422467D01*
Y425133D01*
X258599Y425799D01*
X257266D01*
X256600Y425133D01*
X255267Y422467D02*
X254600Y421801D01*
X253267D01*
X252601Y422467D01*
Y423134D01*
X253267Y423800D01*
X253934D01*
X253267D01*
X252601Y424466D01*
Y425133D01*
X253267Y425799D01*
X254600D01*
X255267Y425133D01*
X251268Y422467D02*
X250602Y421801D01*
X249269D01*
X248602Y422467D01*
Y425133D01*
X249269Y425799D01*
X250602D01*
X251268Y425133D01*
Y422467D01*
X255433Y429067D02*
X256100Y428401D01*
X257433D01*
X258099Y429067D01*
Y431733D01*
X257433Y432399D01*
X256100D01*
X255433Y431733D01*
X254100Y429067D02*
X253434Y428401D01*
X252101D01*
X251434Y429067D01*
Y429734D01*
X252101Y430400D01*
X252767D01*
X252101D01*
X251434Y431066D01*
Y431733D01*
X252101Y432399D01*
X253434D01*
X254100Y431733D01*
X250102Y432399D02*
X248769D01*
X249435D01*
Y428401D01*
X250102Y429067D01*
X167019Y448167D02*
X167686Y447501D01*
X169019D01*
X169685Y448167D01*
Y450833D01*
X169019Y451499D01*
X167686D01*
X167019Y450833D01*
X165686Y448167D02*
X165020Y447501D01*
X163687D01*
X163021Y448167D01*
Y448834D01*
X163687Y449500D01*
X164354D01*
X163687D01*
X163021Y450166D01*
Y450833D01*
X163687Y451499D01*
X165020D01*
X165686Y450833D01*
X159022Y451499D02*
X161688D01*
X159022Y448834D01*
Y448167D01*
X159688Y447501D01*
X161021D01*
X161688Y448167D01*
X166819Y441720D02*
X167486Y441053D01*
X168819D01*
X169485Y441720D01*
Y444386D01*
X168819Y445052D01*
X167486D01*
X166819Y444386D01*
X165486Y441720D02*
X164820Y441053D01*
X163487D01*
X162821Y441720D01*
Y442386D01*
X163487Y443053D01*
X164154D01*
X163487D01*
X162821Y443719D01*
Y444386D01*
X163487Y445052D01*
X164820D01*
X165486Y444386D01*
X161488Y441720D02*
X160821Y441053D01*
X159488D01*
X158822Y441720D01*
Y442386D01*
X159488Y443053D01*
X160155D01*
X159488D01*
X158822Y443719D01*
Y444386D01*
X159488Y445052D01*
X160821D01*
X161488Y444386D01*
X256466Y454067D02*
X257132Y453401D01*
X258465D01*
X259132Y454067D01*
Y456733D01*
X258465Y457399D01*
X257132D01*
X256466Y456733D01*
X255133Y454067D02*
X254466Y453401D01*
X253134D01*
X252467Y454067D01*
Y454734D01*
X253134Y455400D01*
X253800D01*
X253134D01*
X252467Y456066D01*
Y456733D01*
X253134Y457399D01*
X254466D01*
X255133Y456733D01*
X249135Y457399D02*
Y453401D01*
X251134Y455400D01*
X248468D01*
X256253Y460167D02*
X256920Y459501D01*
X258253D01*
X258919Y460167D01*
Y462833D01*
X258253Y463499D01*
X256920D01*
X256253Y462833D01*
X254920Y460167D02*
X254254Y459501D01*
X252921D01*
X252255Y460167D01*
Y460834D01*
X252921Y461500D01*
X253587D01*
X252921D01*
X252255Y462166D01*
Y462833D01*
X252921Y463499D01*
X254254D01*
X254920Y462833D01*
X248256Y459501D02*
X250922D01*
Y461500D01*
X249589Y460834D01*
X248922D01*
X248256Y461500D01*
Y462833D01*
X248922Y463499D01*
X250255D01*
X250922Y462833D01*
X180398Y483999D02*
Y480001D01*
X178399D01*
X177733Y480667D01*
Y482000D01*
X178399Y482666D01*
X180398D01*
X179066D02*
X177733Y483999D01*
X176400D02*
X175067D01*
X175733D01*
Y480001D01*
X176400Y480667D01*
X173067Y480001D02*
X170402D01*
Y480667D01*
X173067Y483333D01*
Y483999D01*
X252498Y412499D02*
Y408501D01*
X250499D01*
X249833Y409167D01*
Y410500D01*
X250499Y411166D01*
X252498D01*
X251166D02*
X249833Y412499D01*
X248500D02*
X247167D01*
X247833D01*
Y408501D01*
X248500Y409167D01*
X245167D02*
X244501Y408501D01*
X243168D01*
X242502Y409167D01*
Y409834D01*
X243168Y410500D01*
X242502Y411166D01*
Y411833D01*
X243168Y412499D01*
X244501D01*
X245167Y411833D01*
Y411166D01*
X244501Y410500D01*
X245167Y409834D01*
Y409167D01*
X244501Y410500D02*
X243168D01*
X268832Y475999D02*
Y472001D01*
X266832D01*
X266166Y472667D01*
Y474000D01*
X266832Y474666D01*
X268832D01*
X267499D02*
X266166Y475999D01*
X264833Y472667D02*
X264166Y472001D01*
X262833D01*
X262167Y472667D01*
Y473334D01*
X262833Y474000D01*
X263500D01*
X262833D01*
X262167Y474666D01*
Y475333D01*
X262833Y475999D01*
X264166D01*
X264833Y475333D01*
X258835Y475999D02*
Y472001D01*
X260834Y474000D01*
X258168D01*
X262965Y344501D02*
X260299D01*
X261632D01*
Y348499D01*
X258966D02*
Y344501D01*
X256967D01*
X256300Y345167D01*
Y346500D01*
X256967Y347166D01*
X258966D01*
X254967Y348499D02*
X253635D01*
X254301D01*
Y344501D01*
X254967Y345167D01*
X263663Y371501D02*
X260997D01*
X262330D01*
Y375499D01*
X259664D02*
Y371501D01*
X257665D01*
X256999Y372167D01*
Y373500D01*
X257665Y374166D01*
X259664D01*
X253000Y375499D02*
X255666D01*
X253000Y372834D01*
Y372167D01*
X253666Y371501D01*
X254999D01*
X255666Y372167D01*
X263832Y356501D02*
X261166D01*
X262499D01*
Y360499D01*
X259833D02*
Y356501D01*
X257834D01*
X257167Y357167D01*
Y358500D01*
X257834Y359166D01*
X259833D01*
X255834Y357167D02*
X255168Y356501D01*
X253835D01*
X253168Y357167D01*
Y357834D01*
X253835Y358500D01*
X254501D01*
X253835D01*
X253168Y359166D01*
Y359833D01*
X253835Y360499D01*
X255168D01*
X255834Y359833D01*
X263598Y332351D02*
X260933D01*
X262266D01*
Y336350D01*
X259600D02*
Y332351D01*
X257600D01*
X256934Y333017D01*
Y334350D01*
X257600Y335017D01*
X259600D01*
X253602Y336350D02*
Y332351D01*
X255601Y334350D01*
X252935D01*
X225432Y419501D02*
Y422833D01*
X224766Y423499D01*
X223433D01*
X222766Y422833D01*
Y419501D01*
X221433Y420167D02*
X220767Y419501D01*
X219434D01*
X218768Y420167D01*
Y420834D01*
X219434Y421500D01*
X218768Y422166D01*
Y422833D01*
X219434Y423499D01*
X220767D01*
X221433Y422833D01*
Y422166D01*
X220767Y421500D01*
X221433Y420834D01*
Y420167D01*
X220767Y421500D02*
X219434D01*
X520665Y248667D02*
X521332Y248001D01*
X522664D01*
X523331Y248667D01*
Y251333D01*
X522664Y251999D01*
X521332D01*
X520665Y251333D01*
X517333Y248001D02*
X518666D01*
X519332Y248667D01*
Y251333D01*
X518666Y251999D01*
X517333D01*
X516666Y251333D01*
Y248667D01*
X517333Y248001D01*
X515334Y251999D02*
Y248001D01*
X512668Y251999D01*
Y248001D01*
X511335Y251333D02*
X510668Y251999D01*
X509336D01*
X508669Y251333D01*
Y248667D01*
X509336Y248001D01*
X510668D01*
X511335Y248667D01*
Y249334D01*
X510668Y250000D01*
X508669D01*
X142902Y288313D02*
X146235D01*
X146901Y288979D01*
Y290312D01*
X146235Y290979D01*
X142902D01*
X146901Y294311D02*
X142902D01*
X144902Y292312D01*
Y294977D01*
X146901Y296310D02*
Y297643D01*
Y296977D01*
X142902D01*
X143569Y296310D01*
X237478Y150401D02*
Y153733D01*
X236811Y154399D01*
X235478D01*
X234812Y153733D01*
Y150401D01*
X231480Y154399D02*
Y150401D01*
X233479Y152400D01*
X230813D01*
X229480Y151067D02*
X228814Y150401D01*
X227481D01*
X226815Y151067D01*
Y153733D01*
X227481Y154399D01*
X228814D01*
X229480Y153733D01*
Y151067D01*
X187832Y407001D02*
Y410333D01*
X187165Y410999D01*
X185832D01*
X185166Y410333D01*
Y407001D01*
X183833Y407667D02*
X183166Y407001D01*
X181834D01*
X181167Y407667D01*
Y408334D01*
X181834Y409000D01*
X182500D01*
X181834D01*
X181167Y409666D01*
Y410333D01*
X181834Y410999D01*
X183166D01*
X183833Y410333D01*
X177168Y410999D02*
X179834D01*
X177168Y408334D01*
Y407667D01*
X177835Y407001D01*
X179168D01*
X179834Y407667D01*
X403539Y283874D02*
X406871D01*
X407538Y284540D01*
Y285873D01*
X406871Y286540D01*
X403539D01*
X407538Y290538D02*
Y287873D01*
X404872Y290538D01*
X404205D01*
X403539Y289872D01*
Y288539D01*
X404205Y287873D01*
Y291871D02*
X403539Y292538D01*
Y293871D01*
X404205Y294537D01*
X404872D01*
X405538Y293871D01*
X406205Y294537D01*
X406871D01*
X407538Y293871D01*
Y292538D01*
X406871Y291871D01*
X406205D01*
X405538Y292538D01*
X404872Y291871D01*
X404205D01*
X405538Y292538D02*
Y293871D01*
X402839Y321959D02*
X406171D01*
X406838Y322625D01*
Y323958D01*
X406171Y324625D01*
X402839D01*
X406838Y328623D02*
Y325958D01*
X404172Y328623D01*
X403505D01*
X402839Y327957D01*
Y326624D01*
X403505Y325958D01*
X402839Y329956D02*
Y332622D01*
X403505D01*
X406171Y329956D01*
X406838D01*
X402939Y360574D02*
X406271D01*
X406938Y361240D01*
Y362573D01*
X406271Y363240D01*
X402939D01*
X406938Y367238D02*
Y364573D01*
X404272Y367238D01*
X403605D01*
X402939Y366572D01*
Y365239D01*
X403605Y364573D01*
X402939Y371237D02*
X403605Y369904D01*
X404938Y368571D01*
X406271D01*
X406938Y369238D01*
Y370571D01*
X406271Y371237D01*
X405605D01*
X404938Y370571D01*
Y368571D01*
X403001Y397868D02*
X406333D01*
X406999Y398535D01*
Y399868D01*
X406333Y400534D01*
X403001D01*
X406999Y404533D02*
Y401867D01*
X404334Y404533D01*
X403667D01*
X403001Y403866D01*
Y402534D01*
X403667Y401867D01*
X403001Y408532D02*
Y405866D01*
X405000D01*
X404334Y407199D01*
Y407865D01*
X405000Y408532D01*
X406333D01*
X406999Y407865D01*
Y406532D01*
X406333Y405866D01*
X402267Y422794D02*
X405599D01*
X406265Y423461D01*
Y424794D01*
X405599Y425460D01*
X402267D01*
X406265Y429459D02*
Y426793D01*
X403599Y429459D01*
X402933D01*
X402267Y428792D01*
Y427459D01*
X402933Y426793D01*
X406265Y432791D02*
X402267D01*
X404266Y430792D01*
Y433457D01*
X283806Y427559D02*
Y430891D01*
X283140Y431558D01*
X281807D01*
X281140Y430891D01*
Y427559D01*
X279807Y431558D02*
X278475D01*
X279141D01*
Y427559D01*
X279807Y428225D01*
X273810Y427559D02*
X275142Y428225D01*
X276475Y429558D01*
Y430891D01*
X275809Y431558D01*
X274476D01*
X273810Y430891D01*
Y430225D01*
X274476Y429558D01*
X276475D01*
X399002Y507101D02*
Y510433D01*
X398335Y511099D01*
X397002D01*
X396336Y510433D01*
Y507101D01*
X395003D02*
X392337D01*
Y507767D01*
X395003Y510433D01*
Y511099D01*
X361432Y506901D02*
Y510233D01*
X360766Y510899D01*
X359433D01*
X358766Y510233D01*
Y506901D01*
X354768D02*
X357434D01*
Y508900D01*
X356101Y508234D01*
X355434D01*
X354768Y508900D01*
Y510233D01*
X355434Y510899D01*
X356767D01*
X357434Y510233D01*
X416499Y450653D02*
X419831D01*
X420497Y451319D01*
Y452652D01*
X419831Y453318D01*
X416499D01*
X420497Y456651D02*
X416499D01*
X418498Y454651D01*
Y457317D01*
X416499Y461316D02*
Y458650D01*
X418498D01*
Y459983D01*
Y458650D01*
X420497D01*
X452185Y418009D02*
X455517D01*
X456184Y418676D01*
Y420009D01*
X455517Y420675D01*
X452185D01*
X456184Y424007D02*
X452185D01*
X454184Y422008D01*
Y424674D01*
X452185Y428673D02*
Y426007D01*
X456184D01*
Y428673D01*
X454184Y426007D02*
Y427340D01*
X444532Y342701D02*
Y346033D01*
X443865Y346699D01*
X442532D01*
X441866Y346033D01*
Y342701D01*
X438533Y346699D02*
Y342701D01*
X440533Y344700D01*
X437867D01*
X436534Y342701D02*
Y346699D01*
X434535D01*
X433868Y346033D01*
Y343367D01*
X434535Y342701D01*
X436534D01*
X443232Y288501D02*
Y291833D01*
X442565Y292499D01*
X441232D01*
X440566Y291833D01*
Y288501D01*
X437233Y292499D02*
Y288501D01*
X439233Y290500D01*
X436567D01*
X432568Y289167D02*
X433235Y288501D01*
X434568D01*
X435234Y289167D01*
Y291833D01*
X434568Y292499D01*
X433235D01*
X432568Y291833D01*
X454132Y251001D02*
X451466D01*
X452799D01*
Y254999D01*
X447468D02*
X450134D01*
X447468Y252334D01*
Y251667D01*
X448134Y251001D01*
X449467D01*
X450134Y251667D01*
X453266Y200801D02*
X450600D01*
X451933D01*
Y204799D01*
X449267D02*
X447934D01*
X448601D01*
Y200801D01*
X449267Y201467D01*
X124799Y461567D02*
X125466Y460901D01*
X126799D01*
X127465Y461567D01*
Y462234D01*
X126799Y462900D01*
X125466D01*
X124799Y463566D01*
Y464233D01*
X125466Y464899D01*
X126799D01*
X127465Y464233D01*
X123467Y460901D02*
Y464899D01*
X122134Y463566D01*
X120801Y464899D01*
Y460901D01*
X119468Y464899D02*
X118135D01*
X118801D01*
Y460901D01*
X119468Y461567D01*
X473685Y252199D02*
Y248201D01*
X471686D01*
X471019Y248867D01*
Y250200D01*
X471686Y250866D01*
X473685D01*
X472352D02*
X471019Y252199D01*
X469686D02*
X468354D01*
X469020D01*
Y248201D01*
X469686Y248867D01*
X466354D02*
X465688Y248201D01*
X464355D01*
X463688Y248867D01*
Y251533D01*
X464355Y252199D01*
X465688D01*
X466354Y251533D01*
Y248867D01*
X462356Y248201D02*
X459690D01*
Y248867D01*
X462356Y251533D01*
Y252199D01*
X154832Y274499D02*
Y270501D01*
X152832D01*
X152166Y271167D01*
Y272500D01*
X152832Y273166D01*
X154832D01*
X153499D02*
X152166Y274499D01*
X150833Y271167D02*
X150166Y270501D01*
X148834D01*
X148167Y271167D01*
Y271834D01*
X148834Y272500D01*
X148167Y273166D01*
Y273833D01*
X148834Y274499D01*
X150166D01*
X150833Y273833D01*
Y273166D01*
X150166Y272500D01*
X150833Y271834D01*
Y271167D01*
X150166Y272500D02*
X148834D01*
X146834Y271167D02*
X146168Y270501D01*
X144835D01*
X144168Y271167D01*
Y271834D01*
X144835Y272500D01*
X145501D01*
X144835D01*
X144168Y273166D01*
Y273833D01*
X144835Y274499D01*
X146168D01*
X146834Y273833D01*
X247299Y123268D02*
X243301D01*
Y125268D01*
X243967Y125934D01*
X245300D01*
X245966Y125268D01*
Y123268D01*
Y124601D02*
X247299Y125934D01*
X243967Y127267D02*
X243301Y127934D01*
Y129267D01*
X243967Y129933D01*
X244634D01*
X245300Y129267D01*
X245966Y129933D01*
X246633D01*
X247299Y129267D01*
Y127934D01*
X246633Y127267D01*
X245966D01*
X245300Y127934D01*
X244634Y127267D01*
X243967D01*
X245300Y127934D02*
Y129267D01*
X247299Y133932D02*
Y131266D01*
X244634Y133932D01*
X243967D01*
X243301Y133265D01*
Y131932D01*
X243967Y131266D01*
X253399Y124435D02*
X249401D01*
Y126434D01*
X250067Y127101D01*
X251400D01*
X252066Y126434D01*
Y124435D01*
Y125768D02*
X253399Y127101D01*
X250067Y128434D02*
X249401Y129100D01*
Y130433D01*
X250067Y131099D01*
X250734D01*
X251400Y130433D01*
X252066Y131099D01*
X252733D01*
X253399Y130433D01*
Y129100D01*
X252733Y128434D01*
X252066D01*
X251400Y129100D01*
X250734Y128434D01*
X250067D01*
X251400Y129100D02*
Y130433D01*
X253399Y132432D02*
Y133765D01*
Y133099D01*
X249401D01*
X250067Y132432D01*
X259399Y123268D02*
X255401D01*
Y125268D01*
X256067Y125934D01*
X257400D01*
X258066Y125268D01*
Y123268D01*
Y124601D02*
X259399Y125934D01*
X256067Y127267D02*
X255401Y127934D01*
Y129267D01*
X256067Y129933D01*
X256733D01*
X257400Y129267D01*
X258066Y129933D01*
X258733D01*
X259399Y129267D01*
Y127934D01*
X258733Y127267D01*
X258066D01*
X257400Y127934D01*
X256733Y127267D01*
X256067D01*
X257400Y127934D02*
Y129267D01*
X256067Y131266D02*
X255401Y131932D01*
Y133265D01*
X256067Y133932D01*
X258733D01*
X259399Y133265D01*
Y131932D01*
X258733Y131266D01*
X256067D01*
X271899Y123368D02*
X267901D01*
Y125368D01*
X268567Y126034D01*
X269900D01*
X270566Y125368D01*
Y123368D01*
Y124701D02*
X271899Y126034D01*
X267901Y127367D02*
Y130033D01*
X268567D01*
X271233Y127367D01*
X271899D01*
X271233Y131366D02*
X271899Y132032D01*
Y133365D01*
X271233Y134032D01*
X268567D01*
X267901Y133365D01*
Y132032D01*
X268567Y131366D01*
X269233D01*
X269900Y132032D01*
Y134032D01*
X265799Y123368D02*
X261801D01*
Y125368D01*
X262467Y126034D01*
X263800D01*
X264466Y125368D01*
Y123368D01*
Y124701D02*
X265799Y126034D01*
X261801Y127367D02*
Y130033D01*
X262467D01*
X265133Y127367D01*
X265799D01*
X262467Y131366D02*
X261801Y132032D01*
Y133365D01*
X262467Y134032D01*
X263134D01*
X263800Y133365D01*
X264466Y134032D01*
X265133D01*
X265799Y133365D01*
Y132032D01*
X265133Y131366D01*
X264466D01*
X263800Y132032D01*
X263134Y131366D01*
X262467D01*
X263800Y132032D02*
Y133365D01*
X253999Y300168D02*
X250001D01*
Y302168D01*
X250667Y302834D01*
X252000D01*
X252666Y302168D01*
Y300168D01*
Y301501D02*
X253999Y302834D01*
X250001Y304167D02*
Y306833D01*
X250667D01*
X253333Y304167D01*
X253999D01*
Y310832D02*
Y308166D01*
X251333Y310832D01*
X250667D01*
X250001Y310165D01*
Y308832D01*
X250667Y308166D01*
X216865Y264199D02*
Y260201D01*
X214866D01*
X214199Y260867D01*
Y262200D01*
X214866Y262866D01*
X216865D01*
X215532D02*
X214199Y264199D01*
X212866Y260201D02*
X210201D01*
Y260867D01*
X212866Y263533D01*
Y264199D01*
X208868D02*
X207535D01*
X208201D01*
Y260201D01*
X208868Y260867D01*
X293499Y469168D02*
X289501D01*
Y471168D01*
X290167Y471834D01*
X291500D01*
X292166Y471168D01*
Y469168D01*
Y470501D02*
X293499Y471834D01*
X289501Y475833D02*
Y473167D01*
X291500D01*
X290833Y474500D01*
Y475167D01*
X291500Y475833D01*
X292833D01*
X293499Y475167D01*
Y473834D01*
X292833Y473167D01*
Y477166D02*
X293499Y477832D01*
Y479165D01*
X292833Y479832D01*
X290167D01*
X289501Y479165D01*
Y477832D01*
X290167Y477166D01*
X290833D01*
X291500Y477832D01*
Y479832D01*
X327999Y469568D02*
X324001D01*
Y471567D01*
X324667Y472234D01*
X326000D01*
X326666Y471567D01*
Y469568D01*
Y470901D02*
X327999Y472234D01*
X324001Y476232D02*
Y473566D01*
X326000D01*
X325333Y474899D01*
Y475566D01*
X326000Y476232D01*
X327333D01*
X327999Y475566D01*
Y474233D01*
X327333Y473566D01*
X324667Y477565D02*
X324001Y478232D01*
Y479565D01*
X324667Y480231D01*
X325333D01*
X326000Y479565D01*
X326666Y480231D01*
X327333D01*
X327999Y479565D01*
Y478232D01*
X327333Y477565D01*
X326666D01*
X326000Y478232D01*
X325333Y477565D01*
X324667D01*
X326000Y478232D02*
Y479565D01*
X321999Y469068D02*
X318001D01*
Y471067D01*
X318667Y471734D01*
X320000D01*
X320666Y471067D01*
Y469068D01*
Y470401D02*
X321999Y471734D01*
X318001Y475733D02*
Y473067D01*
X320000D01*
X319334Y474400D01*
Y475066D01*
X320000Y475733D01*
X321333D01*
X321999Y475066D01*
Y473733D01*
X321333Y473067D01*
X318001Y477066D02*
Y479731D01*
X318667D01*
X321333Y477066D01*
X321999D01*
X162732Y352874D02*
Y348875D01*
X160732D01*
X160066Y349542D01*
Y350875D01*
X160732Y351541D01*
X162732D01*
X161399D02*
X160066Y352874D01*
X156067Y348875D02*
X158733D01*
Y350875D01*
X157400Y350208D01*
X156734D01*
X156067Y350875D01*
Y352208D01*
X156734Y352874D01*
X158066D01*
X158733Y352208D01*
X152735Y352874D02*
Y348875D01*
X154734Y350875D01*
X152068D01*
X163632Y407574D02*
Y403575D01*
X161632D01*
X160966Y404242D01*
Y405575D01*
X161632Y406241D01*
X163632D01*
X162299D02*
X160966Y407574D01*
X156967Y403575D02*
X159633D01*
Y405575D01*
X158300Y404908D01*
X157633D01*
X156967Y405575D01*
Y406908D01*
X157633Y407574D01*
X158966D01*
X159633Y406908D01*
X155634Y404242D02*
X154968Y403575D01*
X153635D01*
X152968Y404242D01*
Y404908D01*
X153635Y405575D01*
X154301D01*
X153635D01*
X152968Y406241D01*
Y406908D01*
X153635Y407574D01*
X154968D01*
X155634Y406908D01*
X162353Y379874D02*
Y375875D01*
X160353D01*
X159687Y376542D01*
Y377875D01*
X160353Y378541D01*
X162353D01*
X161020D02*
X159687Y379874D01*
X155688Y375875D02*
X158354D01*
Y377875D01*
X157021Y377208D01*
X156354D01*
X155688Y377875D01*
Y379208D01*
X156354Y379874D01*
X157687D01*
X158354Y379208D01*
X154355Y379874D02*
X153022D01*
X153689D01*
Y375875D01*
X154355Y376542D01*
X163633Y310999D02*
Y307001D01*
X161634D01*
X160967Y307667D01*
Y309000D01*
X161634Y309666D01*
X163633D01*
X162300D02*
X160967Y310999D01*
X157635D02*
Y307001D01*
X159634Y309000D01*
X156969D01*
X152970Y307001D02*
X154303Y307667D01*
X155636Y309000D01*
Y310333D01*
X154969Y310999D01*
X153636D01*
X152970Y310333D01*
Y309666D01*
X153636Y309000D01*
X155636D01*
X259532Y294099D02*
Y290101D01*
X257532D01*
X256866Y290767D01*
Y292100D01*
X257532Y292766D01*
X259532D01*
X258199D02*
X256866Y294099D01*
X253534D02*
Y290101D01*
X255533Y292100D01*
X252867D01*
X248868Y294099D02*
X251534D01*
X248868Y291434D01*
Y290767D01*
X249535Y290101D01*
X250868D01*
X251534Y290767D01*
X371662Y398222D02*
X367663D01*
Y400222D01*
X368329Y400888D01*
X369662D01*
X370329Y400222D01*
Y398222D01*
Y399555D02*
X371662Y400888D01*
Y404220D02*
X367663D01*
X369662Y402221D01*
Y404887D01*
X371662Y406220D02*
Y407553D01*
Y406886D01*
X367663D01*
X368329Y406220D01*
X371962Y409470D02*
X367963D01*
Y411469D01*
X368630Y412136D01*
X369962D01*
X370629Y411469D01*
Y409470D01*
Y410803D02*
X371962Y412136D01*
Y415468D02*
X367963D01*
X369962Y413469D01*
Y416135D01*
X368630Y417467D02*
X367963Y418134D01*
Y419467D01*
X368630Y420133D01*
X371295D01*
X371962Y419467D01*
Y418134D01*
X371295Y417467D01*
X368630D01*
X372019Y384667D02*
X368020D01*
Y386666D01*
X368687Y387333D01*
X370020D01*
X370686Y386666D01*
Y384667D01*
Y386000D02*
X372019Y387333D01*
X368687Y388666D02*
X368020Y389332D01*
Y390665D01*
X368687Y391331D01*
X369353D01*
X370020Y390665D01*
Y389998D01*
Y390665D01*
X370686Y391331D01*
X371353D01*
X372019Y390665D01*
Y389332D01*
X371353Y388666D01*
Y392664D02*
X372019Y393331D01*
Y394664D01*
X371353Y395330D01*
X368687D01*
X368020Y394664D01*
Y393331D01*
X368687Y392664D01*
X369353D01*
X370020Y393331D01*
Y395330D01*
X303399Y534602D02*
X299401D01*
Y536601D01*
X300067Y537267D01*
X301400D01*
X302066Y536601D01*
Y534602D01*
Y535934D02*
X303399Y537267D01*
Y538600D02*
Y539933D01*
Y539267D01*
X299401D01*
X300067Y538600D01*
X299401Y544598D02*
X300067Y543265D01*
X301400Y541933D01*
X302733D01*
X303399Y542599D01*
Y543932D01*
X302733Y544598D01*
X302066D01*
X301400Y543932D01*
Y541933D01*
X482699Y587502D02*
X478701D01*
Y589501D01*
X479367Y590167D01*
X480700D01*
X481366Y589501D01*
Y587502D01*
Y588834D02*
X482699Y590167D01*
Y591500D02*
Y592833D01*
Y592167D01*
X478701D01*
X479367Y591500D01*
X478701Y594833D02*
X482699D01*
Y596832D01*
X482033Y597498D01*
X481366D01*
X480700Y596832D01*
Y594833D01*
Y596832D01*
X480034Y597498D01*
X479367D01*
X478701Y596832D01*
Y594833D01*
X469298Y282699D02*
Y278701D01*
X467299D01*
X466633Y279367D01*
Y280700D01*
X467299Y281366D01*
X469298D01*
X467966D02*
X466633Y282699D01*
X465300D02*
X463967D01*
X464633D01*
Y278701D01*
X465300Y279367D01*
X461967Y282699D02*
Y280034D01*
X460635Y278701D01*
X459302Y280034D01*
Y282699D01*
Y280700D01*
X461967D01*
X288166Y160833D02*
Y158167D01*
X288833Y157501D01*
X290166D01*
X290832Y158167D01*
Y160833D01*
X290166Y161499D01*
X288833D01*
X289499Y160167D02*
X288166Y161499D01*
X288833D02*
X288166Y160833D01*
X284168Y161499D02*
X286834D01*
X284168Y158834D01*
Y158167D01*
X284834Y157501D01*
X286167D01*
X286834Y158167D01*
X307733Y458686D02*
X305067D01*
X304401Y458019D01*
Y456686D01*
X305067Y456020D01*
X307733D01*
X308399Y456686D01*
Y458019D01*
X307066Y457353D02*
X308399Y458686D01*
Y458019D02*
X307733Y458686D01*
X308399Y460019D02*
Y461352D01*
Y460685D01*
X304401D01*
X305067Y460019D01*
X340310Y467569D02*
X344309D01*
Y470234D01*
X340310Y474233D02*
Y471567D01*
X344309D01*
Y474233D01*
X342310Y471567D02*
Y472900D01*
X340310Y475566D02*
X344309D01*
Y477565D01*
X343642Y478232D01*
X340977D01*
X340310Y477565D01*
Y475566D01*
Y482231D02*
X340977Y480898D01*
X342310Y479565D01*
X343642D01*
X344309Y480231D01*
Y481564D01*
X343642Y482231D01*
X342976D01*
X342310Y481564D01*
Y479565D01*
X307601Y467769D02*
X311599D01*
Y470435D01*
X307601Y474434D02*
Y471768D01*
X311599D01*
Y474434D01*
X309600Y471768D02*
Y473101D01*
X307601Y475767D02*
X311599D01*
Y477766D01*
X310933Y478432D01*
X308267D01*
X307601Y477766D01*
Y475767D01*
Y482431D02*
Y479765D01*
X309600D01*
X308934Y481098D01*
Y481765D01*
X309600Y482431D01*
X310933D01*
X311599Y481765D01*
Y480432D01*
X310933Y479765D01*
X166131Y329075D02*
Y333074D01*
X163465D01*
X159467Y329075D02*
X162132D01*
Y333074D01*
X159467D01*
X162132Y331075D02*
X160799D01*
X158133Y329075D02*
Y333074D01*
X156134D01*
X155468Y332408D01*
Y329742D01*
X156134Y329075D01*
X158133D01*
X152136Y333074D02*
Y329075D01*
X154135Y331075D01*
X151469D01*
X166831Y384175D02*
Y388174D01*
X164165D01*
X160167Y384175D02*
X162832D01*
Y388174D01*
X160167D01*
X162832Y386175D02*
X161499D01*
X158834Y384175D02*
Y388174D01*
X156834D01*
X156168Y387508D01*
Y384842D01*
X156834Y384175D01*
X158834D01*
X154835Y384842D02*
X154168Y384175D01*
X152836D01*
X152169Y384842D01*
Y385508D01*
X152836Y386175D01*
X153502D01*
X152836D01*
X152169Y386841D01*
Y387508D01*
X152836Y388174D01*
X154168D01*
X154835Y387508D01*
X166818Y356575D02*
Y360574D01*
X164153D01*
X160154Y356575D02*
X162820D01*
Y360574D01*
X160154D01*
X162820Y358575D02*
X161487D01*
X158821Y356575D02*
Y360574D01*
X156822D01*
X156155Y359908D01*
Y357242D01*
X156822Y356575D01*
X158821D01*
X152156Y360574D02*
X154822D01*
X152156Y357908D01*
Y357242D01*
X152823Y356575D01*
X154156D01*
X154822Y357242D01*
X252264Y261001D02*
Y264999D01*
X249599D01*
X245600Y261001D02*
X248266D01*
Y264999D01*
X245600D01*
X248266Y263000D02*
X246933D01*
X244267Y261001D02*
Y264999D01*
X242268D01*
X241601Y264333D01*
Y261667D01*
X242268Y261001D01*
X244267D01*
X240268Y264999D02*
X238935D01*
X239602D01*
Y261001D01*
X240268Y261667D01*
X255601Y232068D02*
X259599D01*
Y234734D01*
Y238732D02*
Y236067D01*
X256934Y238732D01*
X256267D01*
X255601Y238066D01*
Y236733D01*
X256267Y236067D01*
X224666Y166501D02*
Y170499D01*
X222000D01*
X220667D02*
X219334D01*
X220001D01*
Y166501D01*
X220667Y167167D01*
X226932Y116501D02*
X228265D01*
X227598D01*
Y119833D01*
X228265Y120499D01*
X228931D01*
X229598Y119833D01*
X225599Y120499D02*
Y116501D01*
X223600D01*
X222933Y117167D01*
Y118500D01*
X223600Y119167D01*
X225599D01*
X221600Y120499D02*
X220267D01*
X220934D01*
Y116501D01*
X221600Y117167D01*
X218268D02*
X217602Y116501D01*
X216269D01*
X215602Y117167D01*
Y119833D01*
X216269Y120499D01*
X217602D01*
X218268Y119833D01*
Y117167D01*
X225266Y92701D02*
X226599D01*
X225932D01*
Y96033D01*
X226599Y96699D01*
X227265D01*
X227932Y96033D01*
X223933Y96699D02*
Y92701D01*
X221934D01*
X221267Y93367D01*
Y94700D01*
X221934Y95366D01*
X223933D01*
X219934Y96033D02*
X219268Y96699D01*
X217935D01*
X217268Y96033D01*
Y93367D01*
X217935Y92701D01*
X219268D01*
X219934Y93367D01*
Y94034D01*
X219268Y94700D01*
X217268D01*
X225966Y104301D02*
X227299D01*
X226632D01*
Y107633D01*
X227299Y108299D01*
X227965D01*
X228632Y107633D01*
X224633Y108299D02*
Y104301D01*
X222634D01*
X221967Y104967D01*
Y106300D01*
X222634Y106966D01*
X224633D01*
X220634Y104967D02*
X219968Y104301D01*
X218635D01*
X217968Y104967D01*
Y105633D01*
X218635Y106300D01*
X217968Y106966D01*
Y107633D01*
X218635Y108299D01*
X219968D01*
X220634Y107633D01*
Y106966D01*
X219968Y106300D01*
X220634Y105633D01*
Y104967D01*
X219968Y106300D02*
X218635D01*
X324066Y501301D02*
X325399D01*
X324732D01*
Y504633D01*
X325399Y505299D01*
X326065D01*
X326732Y504633D01*
X322733Y505299D02*
Y501301D01*
X320733D01*
X320067Y501967D01*
Y503300D01*
X320733Y503966D01*
X322733D01*
X318734Y501301D02*
X316068D01*
Y501967D01*
X318734Y504633D01*
Y505299D01*
X323866Y491801D02*
X325199D01*
X324532D01*
Y495133D01*
X325199Y495799D01*
X325865D01*
X326532Y495133D01*
X322533Y495799D02*
Y491801D01*
X320533D01*
X319867Y492467D01*
Y493800D01*
X320533Y494466D01*
X322533D01*
X315868Y491801D02*
X317201Y492467D01*
X318534Y493800D01*
Y495133D01*
X317868Y495799D01*
X316535D01*
X315868Y495133D01*
Y494466D01*
X316535Y493800D01*
X318534D01*
X386266Y186162D02*
X387599D01*
X386932D01*
Y189494D01*
X387599Y190161D01*
X388265D01*
X388932Y189494D01*
X384933Y190161D02*
Y186162D01*
X382933D01*
X382267Y186828D01*
Y188161D01*
X382933Y188828D01*
X384933D01*
X378268Y186162D02*
X380934D01*
Y188161D01*
X379601Y187495D01*
X378935D01*
X378268Y188161D01*
Y189494D01*
X378935Y190161D01*
X380268D01*
X380934Y189494D01*
X386166Y177401D02*
X387499D01*
X386832D01*
Y180733D01*
X387499Y181399D01*
X388165D01*
X388832Y180733D01*
X384833Y181399D02*
Y177401D01*
X382834D01*
X382167Y178067D01*
Y179400D01*
X382834Y180067D01*
X384833D01*
X378835Y181399D02*
Y177401D01*
X380834Y179400D01*
X378168D01*
X385666Y169201D02*
X386999D01*
X386332D01*
Y172533D01*
X386999Y173199D01*
X387665D01*
X388332Y172533D01*
X384333Y173199D02*
Y169201D01*
X382333D01*
X381667Y169867D01*
Y171200D01*
X382333Y171867D01*
X384333D01*
X380334Y169867D02*
X379668Y169201D01*
X378335D01*
X377668Y169867D01*
Y170534D01*
X378335Y171200D01*
X379001D01*
X378335D01*
X377668Y171867D01*
Y172533D01*
X378335Y173199D01*
X379668D01*
X380334Y172533D01*
X385266Y160501D02*
X386599D01*
X385932D01*
Y163833D01*
X386599Y164499D01*
X387265D01*
X387932Y163833D01*
X383933Y164499D02*
Y160501D01*
X381933D01*
X381267Y161167D01*
Y162500D01*
X381933Y163166D01*
X383933D01*
X377268Y164499D02*
X379934D01*
X377268Y161834D01*
Y161167D01*
X377935Y160501D01*
X379268D01*
X379934Y161167D01*
X477799Y262056D02*
X479132D01*
X478466D01*
Y265388D01*
X479132Y266054D01*
X479799D01*
X480465Y265388D01*
X476466Y266054D02*
Y262056D01*
X474467D01*
X473801Y262722D01*
Y264055D01*
X474467Y264721D01*
X476466D01*
X472468Y266054D02*
X471135D01*
X471801D01*
Y262056D01*
X472468Y262722D01*
X184167Y188001D02*
X185499D01*
X184833D01*
Y191333D01*
X185499Y191999D01*
X186166D01*
X186832Y191333D01*
X180168Y191999D02*
X182834D01*
X180168Y189333D01*
Y188667D01*
X180834Y188001D01*
X182167D01*
X182834Y188667D01*
X323831Y124567D02*
X324498Y123901D01*
X325831D01*
X326497Y124567D01*
Y127233D01*
X325831Y127899D01*
X324498D01*
X323831Y127233D01*
X320499Y123901D02*
X321832D01*
X322498Y124567D01*
Y127233D01*
X321832Y127899D01*
X320499D01*
X319833Y127233D01*
Y124567D01*
X320499Y123901D01*
X318500Y127899D02*
Y123901D01*
X315834Y127899D01*
Y123901D01*
X314501Y127899D02*
X313168D01*
X313835D01*
Y123901D01*
X314501Y124567D01*
X311169D02*
X310502Y123901D01*
X309169D01*
X308503Y124567D01*
Y127233D01*
X309169Y127899D01*
X310502D01*
X311169Y127233D01*
Y124567D01*
X130215Y312564D02*
X130881Y311898D01*
X132214D01*
X132880Y312564D01*
Y315230D01*
X132214Y315896D01*
X130881D01*
X130215Y315230D01*
X126882Y311898D02*
X128215D01*
X128882Y312564D01*
Y315230D01*
X128215Y315896D01*
X126882D01*
X126216Y315230D01*
Y312564D01*
X126882Y311898D01*
X124883Y315896D02*
Y311898D01*
X122217Y315896D01*
Y311898D01*
X120884Y312564D02*
X120218Y311898D01*
X118885D01*
X118219Y312564D01*
Y313231D01*
X118885Y313897D01*
X118219Y314563D01*
Y315230D01*
X118885Y315896D01*
X120218D01*
X120884Y315230D01*
Y314563D01*
X120218Y313897D01*
X120884Y313231D01*
Y312564D01*
X120218Y313897D02*
X118885D01*
X359908Y124567D02*
X360574Y123901D01*
X361907D01*
X362574Y124567D01*
Y127233D01*
X361907Y127899D01*
X360574D01*
X359908Y127233D01*
X356575Y123901D02*
X357908D01*
X358575Y124567D01*
Y127233D01*
X357908Y127899D01*
X356575D01*
X355909Y127233D01*
Y124567D01*
X356575Y123901D01*
X354576Y127899D02*
Y123901D01*
X351910Y127899D01*
Y123901D01*
X350577D02*
X347912D01*
Y124567D01*
X350577Y127233D01*
Y127899D01*
X119867Y323035D02*
X119201Y322368D01*
Y321036D01*
X119867Y320369D01*
X122533D01*
X123199Y321036D01*
Y322368D01*
X122533Y323035D01*
X119201Y326367D02*
Y325034D01*
X119867Y324368D01*
X122533D01*
X123199Y325034D01*
Y326367D01*
X122533Y327034D01*
X119867D01*
X119201Y326367D01*
X123199Y328366D02*
X119201D01*
X123199Y331032D01*
X119201D01*
Y335031D02*
X119867Y333698D01*
X121200Y332365D01*
X122533D01*
X123199Y333032D01*
Y334365D01*
X122533Y335031D01*
X121867D01*
X121200Y334365D01*
Y332365D01*
X307067Y523035D02*
X306401Y522368D01*
Y521035D01*
X307067Y520369D01*
X309733D01*
X310399Y521035D01*
Y522368D01*
X309733Y523035D01*
X306401Y526367D02*
Y525034D01*
X307067Y524368D01*
X309733D01*
X310399Y525034D01*
Y526367D01*
X309733Y527034D01*
X307067D01*
X306401Y526367D01*
X310399Y528367D02*
X306401D01*
X310399Y531032D01*
X306401D01*
X310399Y534365D02*
X306401D01*
X308400Y532365D01*
Y535031D01*
X485765Y568967D02*
X486431Y568301D01*
X487764D01*
X488430Y568967D01*
Y571633D01*
X487764Y572299D01*
X486431D01*
X485765Y571633D01*
X482432Y568301D02*
X483765D01*
X484432Y568967D01*
Y571633D01*
X483765Y572299D01*
X482432D01*
X481766Y571633D01*
Y568967D01*
X482432Y568301D01*
X480433Y572299D02*
Y568301D01*
X477767Y572299D01*
Y568301D01*
X476434Y568967D02*
X475768Y568301D01*
X474435D01*
X473768Y568967D01*
Y569634D01*
X474435Y570300D01*
X475101D01*
X474435D01*
X473768Y570966D01*
Y571633D01*
X474435Y572299D01*
X475768D01*
X476434Y571633D01*
X472436Y568301D02*
Y572299D01*
X470436D01*
X469770Y571633D01*
Y570966D01*
X470436Y570300D01*
X472436D01*
X470436D01*
X469770Y569634D01*
Y568967D01*
X470436Y568301D01*
X472436D01*
X474264Y408567D02*
X474931Y407901D01*
X476264D01*
X476930Y408567D01*
Y411233D01*
X476264Y411899D01*
X474931D01*
X474264Y411233D01*
X470932Y407901D02*
X472265D01*
X472932Y408567D01*
Y411233D01*
X472265Y411899D01*
X470932D01*
X470266Y411233D01*
Y408567D01*
X470932Y407901D01*
X468933Y411899D02*
Y407901D01*
X466267Y411899D01*
Y407901D01*
X464934Y408567D02*
X464268Y407901D01*
X462935D01*
X462268Y408567D01*
Y409234D01*
X462935Y409900D01*
X463601D01*
X462935D01*
X462268Y410566D01*
Y411233D01*
X462935Y411899D01*
X464268D01*
X464934Y411233D01*
X460935Y411899D02*
Y409234D01*
X459603Y407901D01*
X458270Y409234D01*
Y411899D01*
Y409900D01*
X460935D01*
X439299Y124567D02*
X439965Y123901D01*
X441298D01*
X441964Y124567D01*
Y127233D01*
X441298Y127899D01*
X439965D01*
X439299Y127233D01*
X435966Y123901D02*
X437299D01*
X437966Y124567D01*
Y127233D01*
X437299Y127899D01*
X435966D01*
X435300Y127233D01*
Y124567D01*
X435966Y123901D01*
X433967Y127899D02*
Y123901D01*
X431301Y127899D01*
Y123901D01*
X429968Y127899D02*
X428636D01*
X429302D01*
Y123901D01*
X429968Y124567D01*
X275167Y192668D02*
X274501Y192002D01*
Y190669D01*
X275167Y190002D01*
X277833D01*
X278499Y190669D01*
Y192002D01*
X277833Y192668D01*
X278499Y194001D02*
Y195334D01*
Y194667D01*
X274501D01*
X275167Y194001D01*
X278499Y199333D02*
X274501D01*
X276500Y197333D01*
Y199999D01*
X275167Y201332D02*
X274501Y201998D01*
Y203331D01*
X275167Y203998D01*
X275834D01*
X276500Y203331D01*
Y202665D01*
Y203331D01*
X277166Y203998D01*
X277833D01*
X278499Y203331D01*
Y201998D01*
X277833Y201332D01*
X274767Y163668D02*
X274101Y163002D01*
Y161669D01*
X274767Y161002D01*
X277433D01*
X278099Y161669D01*
Y163002D01*
X277433Y163668D01*
X278099Y165001D02*
Y166334D01*
Y165667D01*
X274101D01*
X274767Y165001D01*
X278099Y170333D02*
X274101D01*
X276100Y168333D01*
Y170999D01*
X278099Y174998D02*
Y172332D01*
X275434Y174998D01*
X274767D01*
X274101Y174331D01*
Y172998D01*
X274767Y172332D01*
X164867Y292883D02*
X164201Y292217D01*
Y290884D01*
X164867Y290217D01*
X167533D01*
X168199Y290884D01*
Y292217D01*
X167533Y292883D01*
X168199Y294216D02*
Y295549D01*
Y294882D01*
X164201D01*
X164867Y294216D01*
X168199Y300214D02*
Y297548D01*
X165533Y300214D01*
X164867D01*
X164201Y299548D01*
Y298215D01*
X164867Y297548D01*
X164201Y304213D02*
X164867Y302880D01*
X166200Y301547D01*
X167533D01*
X168199Y302213D01*
Y303546D01*
X167533Y304213D01*
X166866D01*
X166200Y303546D01*
Y301547D01*
X216199Y188667D02*
X216865Y188001D01*
X218198D01*
X218864Y188667D01*
Y191333D01*
X218198Y191999D01*
X216865D01*
X216199Y191333D01*
X214866Y191999D02*
X213533D01*
X214199D01*
Y188001D01*
X214866Y188667D01*
X211533Y191999D02*
X210201D01*
X210867D01*
Y188001D01*
X211533Y188667D01*
X208201D02*
X207535Y188001D01*
X206202D01*
X205536Y188667D01*
Y189333D01*
X206202Y190000D01*
X206868D01*
X206202D01*
X205536Y190666D01*
Y191333D01*
X206202Y191999D01*
X207535D01*
X208201Y191333D01*
X233723Y188667D02*
X234389Y188001D01*
X235722D01*
X236388Y188667D01*
Y191333D01*
X235722Y191999D01*
X234389D01*
X233723Y191333D01*
X232390Y191999D02*
X231057D01*
X231723D01*
Y188001D01*
X232390Y188667D01*
X229058Y191999D02*
X227725D01*
X228391D01*
Y188001D01*
X229058Y188667D01*
X223060Y191999D02*
X225725D01*
X223060Y189333D01*
Y188667D01*
X223726Y188001D01*
X225059D01*
X225725Y188667D01*
X369732Y435967D02*
X370399Y435301D01*
X371731D01*
X372398Y435967D01*
Y438633D01*
X371731Y439299D01*
X370399D01*
X369732Y438633D01*
X368399Y439299D02*
X367066D01*
X367733D01*
Y435301D01*
X368399Y435967D01*
X365067Y439299D02*
X363734D01*
X364401D01*
Y435301D01*
X365067Y435967D01*
X361735Y439299D02*
X360402D01*
X361068D01*
Y435301D01*
X361735Y435967D01*
X413099Y270823D02*
X413765Y270157D01*
X415098D01*
X415765Y270823D01*
Y273489D01*
X415098Y274155D01*
X413765D01*
X413099Y273489D01*
X411766Y274155D02*
X410433D01*
X411099D01*
Y270157D01*
X411766Y270823D01*
X408433Y274155D02*
X407101D01*
X407767D01*
Y270157D01*
X408433Y270823D01*
X405101D02*
X404435Y270157D01*
X403102D01*
X402435Y270823D01*
Y273489D01*
X403102Y274155D01*
X404435D01*
X405101Y273489D01*
Y270823D01*
X413332Y308867D02*
X413998Y308201D01*
X415331D01*
X415998Y308867D01*
Y311533D01*
X415331Y312199D01*
X413998D01*
X413332Y311533D01*
X411999Y312199D02*
X410666D01*
X411333D01*
Y308201D01*
X411999Y308867D01*
X408667D02*
X408000Y308201D01*
X406667D01*
X406001Y308867D01*
Y311533D01*
X406667Y312199D01*
X408000D01*
X408667Y311533D01*
Y308867D01*
X404668Y311533D02*
X404002Y312199D01*
X402669D01*
X402002Y311533D01*
Y308867D01*
X402669Y308201D01*
X404002D01*
X404668Y308867D01*
Y309534D01*
X404002Y310200D01*
X402002D01*
X413132Y347467D02*
X413798Y346801D01*
X415131D01*
X415798Y347467D01*
Y350133D01*
X415131Y350799D01*
X413798D01*
X413132Y350133D01*
X411799Y350799D02*
X410466D01*
X411133D01*
Y346801D01*
X411799Y347467D01*
X408467D02*
X407800Y346801D01*
X406467D01*
X405801Y347467D01*
Y350133D01*
X406467Y350799D01*
X407800D01*
X408467Y350133D01*
Y347467D01*
X404468D02*
X403802Y346801D01*
X402469D01*
X401802Y347467D01*
Y348134D01*
X402469Y348800D01*
X401802Y349466D01*
Y350133D01*
X402469Y350799D01*
X403802D01*
X404468Y350133D01*
Y349466D01*
X403802Y348800D01*
X404468Y348134D01*
Y347467D01*
X403802Y348800D02*
X402469D01*
X412832Y383919D02*
X413498Y383253D01*
X414831D01*
X415498Y383919D01*
Y386585D01*
X414831Y387251D01*
X413498D01*
X412832Y386585D01*
X411499Y387251D02*
X410166D01*
X410833D01*
Y383253D01*
X411499Y383919D01*
X408167D02*
X407500Y383253D01*
X406167D01*
X405501Y383919D01*
Y386585D01*
X406167Y387251D01*
X407500D01*
X408167Y386585D01*
Y383919D01*
X404168Y383253D02*
X401502D01*
Y383919D01*
X404168Y386585D01*
Y387251D01*
X372537Y458393D02*
X371871Y457727D01*
Y456394D01*
X372537Y455727D01*
X375203D01*
X375869Y456394D01*
Y457727D01*
X375203Y458393D01*
X375869Y459726D02*
Y461059D01*
Y460393D01*
X371871D01*
X372537Y459726D01*
Y463058D02*
X371871Y463725D01*
Y465058D01*
X372537Y465724D01*
X375203D01*
X375869Y465058D01*
Y463725D01*
X375203Y463058D01*
X372537D01*
X371871Y469723D02*
X372537Y468390D01*
X373870Y467057D01*
X375203D01*
X375869Y467724D01*
Y469057D01*
X375203Y469723D01*
X374536D01*
X373870Y469057D01*
Y467057D01*
X140267Y442268D02*
X139601Y441602D01*
Y440269D01*
X140267Y439602D01*
X142933D01*
X143599Y440269D01*
Y441602D01*
X142933Y442268D01*
X143599Y443601D02*
Y444934D01*
Y444267D01*
X139601D01*
X140267Y443601D01*
Y446933D02*
X139601Y447600D01*
Y448933D01*
X140267Y449599D01*
X142933D01*
X143599Y448933D01*
Y447600D01*
X142933Y446933D01*
X140267D01*
X143599Y452931D02*
X139601D01*
X141600Y450932D01*
Y453598D01*
X368167Y325334D02*
X367501Y324668D01*
Y323335D01*
X368167Y322668D01*
X370833D01*
X371499Y323335D01*
Y324668D01*
X370833Y325334D01*
X368167Y326667D02*
X367501Y327334D01*
Y328666D01*
X368167Y329333D01*
X368833D01*
X369500Y328666D01*
X370166Y329333D01*
X370833D01*
X371499Y328666D01*
Y327334D01*
X370833Y326667D01*
X370166D01*
X369500Y327334D01*
X368833Y326667D01*
X368167D01*
X369500Y327334D02*
Y328666D01*
X368167Y330666D02*
X367501Y331332D01*
Y332665D01*
X368167Y333332D01*
X368833D01*
X369500Y332665D01*
Y331999D01*
Y332665D01*
X370166Y333332D01*
X370833D01*
X371499Y332665D01*
Y331332D01*
X370833Y330666D01*
X367667Y309034D02*
X367001Y308368D01*
Y307035D01*
X367667Y306368D01*
X370333D01*
X370999Y307035D01*
Y308368D01*
X370333Y309034D01*
X367667Y310367D02*
X367001Y311034D01*
Y312366D01*
X367667Y313033D01*
X368334D01*
X369000Y312366D01*
X369666Y313033D01*
X370333D01*
X370999Y312366D01*
Y311034D01*
X370333Y310367D01*
X369666D01*
X369000Y311034D01*
X368334Y310367D01*
X367667D01*
X369000Y311034D02*
Y312366D01*
X370999Y317032D02*
Y314366D01*
X368334Y317032D01*
X367667D01*
X367001Y316365D01*
Y315032D01*
X367667Y314366D01*
X368767Y264401D02*
X368101Y263734D01*
Y262401D01*
X368767Y261735D01*
X371433D01*
X372099Y262401D01*
Y263734D01*
X371433Y264401D01*
X368767Y265734D02*
X368101Y266400D01*
Y267733D01*
X368767Y268399D01*
X369433D01*
X370100Y267733D01*
X370766Y268399D01*
X371433D01*
X372099Y267733D01*
Y266400D01*
X371433Y265734D01*
X370766D01*
X370100Y266400D01*
X369433Y265734D01*
X368767D01*
X370100Y266400D02*
Y267733D01*
X372099Y269732D02*
Y271065D01*
Y270399D01*
X368101D01*
X368767Y269732D01*
X360966Y222667D02*
X361632Y222001D01*
X362965D01*
X363632Y222667D01*
Y225333D01*
X362965Y225999D01*
X361632D01*
X360966Y225333D01*
X359633Y222667D02*
X358966Y222001D01*
X357633D01*
X356967Y222667D01*
Y223334D01*
X357633Y224000D01*
X356967Y224666D01*
Y225333D01*
X357633Y225999D01*
X358966D01*
X359633Y225333D01*
Y224666D01*
X358966Y224000D01*
X359633Y223334D01*
Y222667D01*
X358966Y224000D02*
X357633D01*
X355634Y222667D02*
X354968Y222001D01*
X353635D01*
X352968Y222667D01*
Y225333D01*
X353635Y225999D01*
X354968D01*
X355634Y225333D01*
Y222667D01*
X328666D02*
X329332Y222001D01*
X330665D01*
X331332Y222667D01*
Y225333D01*
X330665Y225999D01*
X329332D01*
X328666Y225333D01*
X327333Y222001D02*
X324667D01*
Y222667D01*
X327333Y225333D01*
Y225999D01*
X323334Y225333D02*
X322668Y225999D01*
X321335D01*
X320668Y225333D01*
Y222667D01*
X321335Y222001D01*
X322668D01*
X323334Y222667D01*
Y223334D01*
X322668Y224000D01*
X320668D01*
X306412Y222667D02*
X307079Y222001D01*
X308412D01*
X309078Y222667D01*
Y225333D01*
X308412Y225999D01*
X307079D01*
X306412Y225333D01*
X305079Y222001D02*
X302414D01*
Y222667D01*
X305079Y225333D01*
Y225999D01*
X301081Y222667D02*
X300414Y222001D01*
X299081D01*
X298415Y222667D01*
Y223334D01*
X299081Y224000D01*
X298415Y224666D01*
Y225333D01*
X299081Y225999D01*
X300414D01*
X301081Y225333D01*
Y224666D01*
X300414Y224000D01*
X301081Y223334D01*
Y222667D01*
X300414Y224000D02*
X299081D01*
X264167Y237034D02*
X263501Y236368D01*
Y235035D01*
X264167Y234368D01*
X266833D01*
X267499Y235035D01*
Y236368D01*
X266833Y237034D01*
X263501Y238367D02*
Y241033D01*
X264167D01*
X266833Y238367D01*
X267499D01*
X263501Y242366D02*
Y245032D01*
X264167D01*
X266833Y242366D01*
X267499D01*
X256867Y265531D02*
X256201Y264865D01*
Y263532D01*
X256867Y262865D01*
X259533D01*
X260199Y263532D01*
Y264865D01*
X259533Y265531D01*
X256201Y266864D02*
Y269530D01*
X256867D01*
X259533Y266864D01*
X260199D01*
X256201Y273529D02*
X256867Y272196D01*
X258200Y270863D01*
X259533D01*
X260199Y271529D01*
Y272862D01*
X259533Y273529D01*
X258866D01*
X258200Y272862D01*
Y270863D01*
X263867Y295534D02*
X263201Y294868D01*
Y293535D01*
X263867Y292868D01*
X266533D01*
X267199Y293535D01*
Y294868D01*
X266533Y295534D01*
X263201Y296867D02*
Y299533D01*
X263867D01*
X266533Y296867D01*
X267199D01*
X263201Y303532D02*
Y300866D01*
X265200D01*
X264534Y302199D01*
Y302865D01*
X265200Y303532D01*
X266533D01*
X267199Y302865D01*
Y301532D01*
X266533Y300866D01*
X259418Y307796D02*
X258751Y307130D01*
Y305797D01*
X259418Y305131D01*
X262083D01*
X262750Y305797D01*
Y307130D01*
X262083Y307796D01*
X258751Y309129D02*
Y311795D01*
X259418D01*
X262083Y309129D01*
X262750D01*
Y315127D02*
X258751D01*
X260750Y313128D01*
Y315794D01*
X271067Y321634D02*
X270401Y320968D01*
Y319635D01*
X271067Y318968D01*
X273733D01*
X274399Y319635D01*
Y320968D01*
X273733Y321634D01*
X270401Y322967D02*
Y325633D01*
X271067D01*
X273733Y322967D01*
X274399D01*
X271067Y326966D02*
X270401Y327632D01*
Y328965D01*
X271067Y329632D01*
X271734D01*
X272400Y328965D01*
Y328299D01*
Y328965D01*
X273066Y329632D01*
X273733D01*
X274399Y328965D01*
Y327632D01*
X273733Y326966D01*
X259172Y321958D02*
X258505Y321292D01*
Y319959D01*
X259172Y319293D01*
X261838D01*
X262504Y319959D01*
Y321292D01*
X261838Y321958D01*
X258505Y323291D02*
Y325957D01*
X259172D01*
X261838Y323291D01*
X262504D01*
X259172Y327290D02*
X258505Y327956D01*
Y329289D01*
X259172Y329956D01*
X261838D01*
X262504Y329289D01*
Y327956D01*
X261838Y327290D01*
X259172D01*
X344866Y222167D02*
X345532Y221501D01*
X346865D01*
X347532Y222167D01*
Y224833D01*
X346865Y225499D01*
X345532D01*
X344866Y224833D01*
X340867Y221501D02*
X342200Y222167D01*
X343533Y223500D01*
Y224833D01*
X342866Y225499D01*
X341533D01*
X340867Y224833D01*
Y224166D01*
X341533Y223500D01*
X343533D01*
X339534Y224833D02*
X338868Y225499D01*
X337535D01*
X336868Y224833D01*
Y222167D01*
X337535Y221501D01*
X338868D01*
X339534Y222167D01*
Y222834D01*
X338868Y223500D01*
X336868D01*
X264267Y250664D02*
X263601Y249998D01*
Y248665D01*
X264267Y247998D01*
X266933D01*
X267599Y248665D01*
Y249998D01*
X266933Y250664D01*
X263601Y254663D02*
X264267Y253330D01*
X265600Y251997D01*
X266933D01*
X267599Y252663D01*
Y253996D01*
X266933Y254663D01*
X266266D01*
X265600Y253996D01*
Y251997D01*
X264267Y255996D02*
X263601Y256662D01*
Y257995D01*
X264267Y258662D01*
X264934D01*
X265600Y257995D01*
X266266Y258662D01*
X266933D01*
X267599Y257995D01*
Y256662D01*
X266933Y255996D01*
X266266D01*
X265600Y256662D01*
X264934Y255996D01*
X264267D01*
X265600Y256662D02*
Y257995D01*
X368636Y372766D02*
X367969Y372099D01*
Y370766D01*
X368636Y370100D01*
X371301D01*
X371968Y370766D01*
Y372099D01*
X371301Y372766D01*
X367969Y376764D02*
X368636Y375431D01*
X369969Y374099D01*
X371301D01*
X371968Y374765D01*
Y376098D01*
X371301Y376764D01*
X370635D01*
X369969Y376098D01*
Y374099D01*
X368636Y378097D02*
X367969Y378764D01*
Y380097D01*
X368636Y380763D01*
X369302D01*
X369969Y380097D01*
Y379430D01*
Y380097D01*
X370635Y380763D01*
X371301D01*
X371968Y380097D01*
Y378764D01*
X371301Y378097D01*
X256567Y388145D02*
X255901Y387479D01*
Y386146D01*
X256567Y385479D01*
X259233D01*
X259899Y386146D01*
Y387479D01*
X259233Y388145D01*
X255901Y392144D02*
X256567Y390811D01*
X257900Y389478D01*
X259233D01*
X259899Y390145D01*
Y391477D01*
X259233Y392144D01*
X258566D01*
X257900Y391477D01*
Y389478D01*
X259899Y396143D02*
Y393477D01*
X257234Y396143D01*
X256567D01*
X255901Y395476D01*
Y394143D01*
X256567Y393477D01*
X293766Y433367D02*
X294432Y432701D01*
X295765D01*
X296432Y433367D01*
Y436033D01*
X295765Y436699D01*
X294432D01*
X293766Y436033D01*
X289767Y432701D02*
X292433D01*
Y434700D01*
X291100Y434034D01*
X290434D01*
X289767Y434700D01*
Y436033D01*
X290434Y436699D01*
X291766D01*
X292433Y436033D01*
X288434D02*
X287768Y436699D01*
X286435D01*
X285768Y436033D01*
Y433367D01*
X286435Y432701D01*
X287768D01*
X288434Y433367D01*
Y434034D01*
X287768Y434700D01*
X285768D01*
X368567Y424651D02*
X367901Y423984D01*
Y422651D01*
X368567Y421985D01*
X371233D01*
X371899Y422651D01*
Y423984D01*
X371233Y424651D01*
X367901Y428649D02*
Y425983D01*
X369900D01*
X369233Y427316D01*
Y427983D01*
X369900Y428649D01*
X371233D01*
X371899Y427983D01*
Y426650D01*
X371233Y425983D01*
X368567Y429982D02*
X367901Y430649D01*
Y431982D01*
X368567Y432648D01*
X369233D01*
X369900Y431982D01*
X370566Y432648D01*
X371233D01*
X371899Y431982D01*
Y430649D01*
X371233Y429982D01*
X370566D01*
X369900Y430649D01*
X369233Y429982D01*
X368567D01*
X369900Y430649D02*
Y431982D01*
X347166Y434167D02*
X347832Y433501D01*
X349165D01*
X349832Y434167D01*
Y436833D01*
X349165Y437499D01*
X347832D01*
X347166Y436833D01*
X343167Y433501D02*
X345833D01*
Y435500D01*
X344500Y434834D01*
X343833D01*
X343167Y435500D01*
Y436833D01*
X343833Y437499D01*
X345166D01*
X345833Y436833D01*
X339835Y437499D02*
Y433501D01*
X341834Y435500D01*
X339168D01*
X311366Y433267D02*
X312032Y432601D01*
X313365D01*
X314032Y433267D01*
Y435933D01*
X313365Y436599D01*
X312032D01*
X311366Y435933D01*
X307367Y432601D02*
X310033D01*
Y434600D01*
X308700Y433934D01*
X308033D01*
X307367Y434600D01*
Y435933D01*
X308033Y436599D01*
X309366D01*
X310033Y435933D01*
X306034Y433267D02*
X305368Y432601D01*
X304035D01*
X303368Y433267D01*
Y433934D01*
X304035Y434600D01*
X304701D01*
X304035D01*
X303368Y435266D01*
Y435933D01*
X304035Y436599D01*
X305368D01*
X306034Y435933D01*
X270567Y337834D02*
X269901Y337168D01*
Y335835D01*
X270567Y335168D01*
X273233D01*
X273899Y335835D01*
Y337168D01*
X273233Y337834D01*
X269901Y341833D02*
Y339167D01*
X271900D01*
X271234Y340500D01*
Y341166D01*
X271900Y341833D01*
X273233D01*
X273899Y341166D01*
Y339834D01*
X273233Y339167D01*
X273899Y345832D02*
Y343166D01*
X271234Y345832D01*
X270567D01*
X269901Y345165D01*
Y343832D01*
X270567Y343166D01*
X368701Y360000D02*
X368035Y359333D01*
Y358001D01*
X368701Y357334D01*
X371367D01*
X372034Y358001D01*
Y359333D01*
X371367Y360000D01*
X372034Y363332D02*
X368035D01*
X370034Y361333D01*
Y363999D01*
X371367Y365332D02*
X372034Y365998D01*
Y367331D01*
X371367Y367997D01*
X368701D01*
X368035Y367331D01*
Y365998D01*
X368701Y365332D01*
X369368D01*
X370034Y365998D01*
Y367997D01*
X330166Y433667D02*
X330832Y433001D01*
X332165D01*
X332832Y433667D01*
Y436333D01*
X332165Y436999D01*
X330832D01*
X330166Y436333D01*
X326834Y436999D02*
Y433001D01*
X328833Y435000D01*
X326167D01*
X324834Y433667D02*
X324168Y433001D01*
X322835D01*
X322168Y433667D01*
Y434334D01*
X322835Y435000D01*
X322168Y435666D01*
Y436333D01*
X322835Y436999D01*
X324168D01*
X324834Y436333D01*
Y435666D01*
X324168Y435000D01*
X324834Y434334D01*
Y433667D01*
X324168Y435000D02*
X322835D01*
X256967Y404934D02*
X256301Y404268D01*
Y402935D01*
X256967Y402268D01*
X259633D01*
X260299Y402935D01*
Y404268D01*
X259633Y404934D01*
X260299Y408266D02*
X256301D01*
X258300Y406267D01*
Y408933D01*
X256301Y412932D02*
Y410266D01*
X258300D01*
X257633Y411599D01*
Y412265D01*
X258300Y412932D01*
X259633D01*
X260299Y412265D01*
Y410932D01*
X259633Y410266D01*
X403325Y473921D02*
X403991Y473254D01*
X405324D01*
X405991Y473921D01*
Y476586D01*
X405324Y477253D01*
X403991D01*
X403325Y476586D01*
X401992Y477253D02*
X400659D01*
X401325D01*
Y473254D01*
X401992Y473921D01*
X398659D02*
X397993Y473254D01*
X396660D01*
X395994Y473921D01*
Y476586D01*
X396660Y477253D01*
X397993D01*
X398659Y476586D01*
Y473921D01*
X362466Y474167D02*
X363133Y473501D01*
X364466D01*
X365132Y474167D01*
Y476833D01*
X364466Y477499D01*
X363133D01*
X362466Y476833D01*
X361134D02*
X360467Y477499D01*
X359134D01*
X358468Y476833D01*
Y474167D01*
X359134Y473501D01*
X360467D01*
X361134Y474167D01*
Y474834D01*
X360467Y475500D01*
X358468D01*
X431266Y493662D02*
X431932Y492996D01*
X433265D01*
X433932Y493662D01*
Y496328D01*
X433265Y496995D01*
X431932D01*
X431266Y496328D01*
X429933Y493662D02*
X429266Y492996D01*
X427934D01*
X427267Y493662D01*
Y494329D01*
X427934Y494995D01*
X427267Y495662D01*
Y496328D01*
X427934Y496995D01*
X429266D01*
X429933Y496328D01*
Y495662D01*
X429266Y494995D01*
X429933Y494329D01*
Y493662D01*
X429266Y494995D02*
X427934D01*
X423268Y492996D02*
X425934D01*
Y494995D01*
X424601D01*
X425934D01*
Y496995D01*
X431852Y441167D02*
X432519Y440501D01*
X433852D01*
X434518Y441167D01*
Y443833D01*
X433852Y444499D01*
X432519D01*
X431852Y443833D01*
X430519Y441167D02*
X429853Y440501D01*
X428520D01*
X427854Y441167D01*
Y441834D01*
X428520Y442500D01*
X427854Y443166D01*
Y443833D01*
X428520Y444499D01*
X429853D01*
X430519Y443833D01*
Y443166D01*
X429853Y442500D01*
X430519Y441834D01*
Y441167D01*
X429853Y442500D02*
X428520D01*
X423855Y440501D02*
X426521D01*
Y444499D01*
X423855D01*
X426521Y442500D02*
X425188D01*
X431766Y389967D02*
X432432Y389301D01*
X433765D01*
X434432Y389967D01*
Y392633D01*
X433765Y393299D01*
X432432D01*
X431766Y392633D01*
X430433Y389967D02*
X429766Y389301D01*
X428434D01*
X427767Y389967D01*
Y390634D01*
X428434Y391300D01*
X427767Y391966D01*
Y392633D01*
X428434Y393299D01*
X429766D01*
X430433Y392633D01*
Y391966D01*
X429766Y391300D01*
X430433Y390634D01*
Y389967D01*
X429766Y391300D02*
X428434D01*
X426434Y389301D02*
Y393299D01*
X424435D01*
X423768Y392633D01*
Y389967D01*
X424435Y389301D01*
X426434D01*
X430966Y336367D02*
X431632Y335701D01*
X432965D01*
X433632Y336367D01*
Y339033D01*
X432965Y339699D01*
X431632D01*
X430966Y339033D01*
X429633Y336367D02*
X428966Y335701D01*
X427633D01*
X426967Y336367D01*
Y337034D01*
X427633Y337700D01*
X426967Y338366D01*
Y339033D01*
X427633Y339699D01*
X428966D01*
X429633Y339033D01*
Y338366D01*
X428966Y337700D01*
X429633Y337034D01*
Y336367D01*
X428966Y337700D02*
X427633D01*
X422968Y336367D02*
X423635Y335701D01*
X424968D01*
X425634Y336367D01*
Y339033D01*
X424968Y339699D01*
X423635D01*
X422968Y339033D01*
X445949Y493465D02*
X446616Y492798D01*
X447949D01*
X448615Y493465D01*
Y496131D01*
X447949Y496797D01*
X446616D01*
X445949Y496131D01*
X444616Y492798D02*
X441951D01*
Y493465D01*
X444616Y496131D01*
Y496797D01*
X437952Y492798D02*
X440618D01*
Y494798D01*
X439285D01*
X440618D01*
Y496797D01*
X446419Y441491D02*
X447086Y440824D01*
X448419D01*
X449085Y441491D01*
Y444157D01*
X448419Y444823D01*
X447086D01*
X446419Y444157D01*
X445086Y440824D02*
X442421D01*
Y441491D01*
X445086Y444157D01*
Y444823D01*
X438422Y440824D02*
X441088D01*
Y444823D01*
X438422D01*
X441088Y442824D02*
X439755D01*
X446403Y389951D02*
X447069Y389284D01*
X448402D01*
X449069Y389951D01*
Y392616D01*
X448402Y393283D01*
X447069D01*
X446403Y392616D01*
X445070Y389284D02*
X442404D01*
Y389951D01*
X445070Y392616D01*
Y393283D01*
X441071Y389284D02*
Y393283D01*
X439072D01*
X438405Y392616D01*
Y389951D01*
X439072Y389284D01*
X441071D01*
X445249Y336467D02*
X445916Y335801D01*
X447249D01*
X447915Y336467D01*
Y339133D01*
X447249Y339799D01*
X445916D01*
X445249Y339133D01*
X443916Y335801D02*
X441251D01*
Y336467D01*
X443916Y339133D01*
Y339799D01*
X437252Y336467D02*
X437918Y335801D01*
X439251D01*
X439918Y336467D01*
Y339133D01*
X439251Y339799D01*
X437918D01*
X437252Y339133D01*
D15*
X282138Y346888D02*
X285248D01*
X357768D02*
X360878D01*
X282138Y425628D02*
X285248D01*
X357768D02*
X360878D01*
X282138Y346888D02*
Y349998D01*
X360878Y346888D02*
Y349998D01*
X282138Y422518D02*
Y425628D01*
X360878Y422518D02*
Y425628D01*
X356739Y320062D02*
X359849D01*
X281109D02*
X284219D01*
X356739Y241322D02*
X359849D01*
X281109D02*
X284219D01*
X359849Y316952D02*
Y320062D01*
X281109Y316952D02*
Y320062D01*
X359849Y241322D02*
Y244432D01*
X281109Y241322D02*
Y244432D01*
X171871Y270627D02*
Y398973D01*
X247068Y270627D02*
Y329603D01*
Y339997D02*
Y398973D01*
X171871Y270627D02*
X180454D01*
X188485D02*
X220454D01*
X238485D02*
X247068D01*
X171871Y398973D02*
X180454D01*
X238485D02*
X247068D01*
X218485D02*
X230453D01*
X188485D02*
X210454D01*
X121641Y127241D02*
X176759D01*
X121641Y182359D02*
X176759D01*
Y127241D02*
Y136493D01*
Y173107D02*
Y182359D01*
X121641Y127241D02*
Y136493D01*
Y173107D02*
Y182359D01*
D16*
X410384Y441200D02*
Y471400D01*
X377900Y441200D02*
X410384D01*
X377900Y471400D02*
X410384D01*
X377900Y441200D02*
Y471400D01*
D17*
X268700Y203360D02*
Y210692D01*
X242600D02*
X268700D01*
X242500Y184708D02*
Y192040D01*
Y203360D02*
Y210692D01*
X242716Y184708D02*
X268700D01*
Y192040D01*
X268600Y175560D02*
Y182892D01*
X242500D02*
X268600D01*
X242400Y156908D02*
Y164240D01*
Y175560D02*
Y182892D01*
X242616Y156908D02*
X268600D01*
Y164240D01*
D18*
X271700Y192400D02*
X271800D01*
X271600Y164600D02*
X271700D01*
M02*
