M48
;Layer_Color=9474304
;FILE_FORMAT=2:5
INCH,LZ
;TYPE=PLATED
T1F00S00C0.00787
T2F00S00C0.01400
T3F00S00C0.02000
T4F00S00C0.03000
T5F00S00C0.03500
T6F00S00C0.03902
T7F00S00C0.04000
T8F00S00C0.04016
T9F00S00C0.04331
T10F00S00C0.04400
T11F00S00C0.05098
T12F00S00C0.05118
T13F00S00C0.06200
T14F00S00C0.06300
T15F00S00C0.12598
T16F00S00C0.12600
T17F00S00C0.12800
T18F00S00C0.15000
%
T01
X0239035Y0297735
Y0302065
X0243365
Y0297735
T02
X0123958Y0098194
X012255Y01041
X0123958Y0110005
X0127894Y0113943
X01338Y011535
X0139706Y0113943
X0143642Y0110005
X014505Y01041
X0143642Y0098194
X0139706Y0094257
X01338Y009285
X0127894Y0094257
X01571Y01088
X01732Y01166
X0179787Y013137
X01688Y013577
X0173Y0144
X0174Y01465
Y014948
X01654Y0151055
X02285Y0149
X02453Y0148015
X02686Y01494
X02861Y0138221
X0296583Y0146906
X03044Y01549
X0307415Y01408
X0310427Y014264
X0303415Y01245
X0284606Y0114743
X02787Y011615
X0272795Y0114743
X0268858Y0110805
X026745Y01049
X0268858Y0098994
X0272795Y0095057
X02787Y009365
X0284606Y0095057
X0288543Y0098994
X028995Y01049
X0288543Y0110805
X02486Y01234
X0227829Y0126003
X0219224Y0137489
X03185Y01342
X0324521Y0144968
X0333Y01461
X0341Y01434
X0345853Y0134869
X0352514Y0128997
X0335302Y01305
X0333Y01282
X0331246Y01232
X03552Y01054
X03576Y01434
X0364848Y0147737
X0375355Y0145843
X03788Y0143643
X038Y0136065
X0373101Y0134902
X0366441Y0134869
X03769Y0153611
X03948Y01427
X03945Y0125844
X0411577Y0138525
X04171Y01349
X0424864Y01399
X0427864
X0432982
X0420637Y0150898
X0459695Y0130383
X0461389Y0125577
X04611Y0121448
X04576Y0119
X04669Y0125577
X04716Y00981
X0476Y00995
X0524157Y0098295
X052275Y01042
X0524157Y0110106
X0528094Y0114042
X0534Y011545
X0539906Y0114042
X0543843Y0110106
X054525Y01042
X0543843Y0098295
X0539906Y0094358
X0534Y009295
X0528094Y0094358
Y0254358
X0534Y025295
X0539906Y0254358
X0543843Y0258295
X054525Y02642
X0543843Y0270106
X0539906Y0274043
X0534Y027545
X0528094Y0274043
X0524157Y0270106
X052275Y02642
X0524157Y0258295
X04758Y02729
X0458125Y0272116
X04579Y0280271
X04599Y02904
X04592Y02939
X04681Y02869
X04571Y02554
X0405753Y0254445
X0407Y02415
X0402545Y0235544
X0397274Y0238113
X038618Y0232323
X03894Y0225051
X0402565Y0222559
X0405564Y0223674
X04092Y0226261
X04116Y02077
X0415302Y020313
X04198
X0430921Y01969
X0441Y0196
X0442Y0214
X0438047Y0175988
X0434847Y0175988
X043013Y01763
X04582Y0173508
X0400852Y0177925
Y0181671
X0391953Y0180386
X0392083Y0190252
X03756Y019
X03763Y01863
X0373495Y0192507
X03716Y0195197
X0361157Y0207634
X0351748Y0224744
X03673Y02289
X03757Y02282
X03713Y02484
X0368651Y0246572
X03681Y0250987
X03716Y02528
X0369281Y0255371
X0372979Y0259415
X03702Y02623
X0368035Y0264893
X03675Y0272265
X0368068Y0275771
X03576Y0276002
X0357408Y0279476
X0351808Y0274286
X0351315Y0288087
Y0291512
X0352959Y0295456
X0357408Y0297193
Y0301593
X0357308Y0305005
X035263Y0306865
X0347054Y0311273
X0343116Y0309235
X0344279Y0297593
X03467Y0287996
X03435Y0281676
X03385Y02767
X0336Y0274286
X0331353Y0272864
X03312Y02696
X0324959Y0263959
X03227Y02737
X0317678Y0274
X0317099Y0277676
X03133Y02777
X0319495Y030333
X0321463Y0308899
X03254Y0310389
X03675Y02994
X03667Y02935
X03872Y03107
X0407974Y0306161
X041585Y031128
X0436493Y03124
X04401Y0312
X04301Y0298397
X04211Y02889
X04001Y02655
X0391492Y02664
X0387915Y0267354
Y0246536
X0357869Y0241168
X0354968Y0253134
X0351315Y0255826
X0348594Y0258241
X0346394Y0255117
X0343116Y0257
X03396Y0253
X03392Y02498
X0337643Y0247005
X0345Y0250094
X0332682Y02338
X03216Y02207
Y0212765
Y02045
X0315035Y017658
X03897Y01692
X0400852Y0166675
X0395699Y0206075
X03894Y02089
X031162Y0212765
Y02207
Y02294
Y0233564
X029981
X0293464
X02932Y02294
Y0212765
Y02045
X031162
X0302521Y0181149
X0298751Y0168534
X02946Y0172413
X0292447Y0164133
X03102
X0310427Y01588
X0272628Y0173324
X02635Y01765
X02483Y0163013
X0232205Y0178404
X0220618Y01828
X0203Y01992
X01996Y02046
X01985Y0223289
X01996Y0232691
X02122Y023654
X02225Y0238509
X0226Y022906
X0229673Y0226327
Y0223
Y021999
X02404Y02275
X0238728Y0210288
X02558Y0201175
X025637Y02233
X0257365Y0241553
X0262Y02391
X0277Y0241563
X0285847Y02475
X0285177Y0251282
X0287998Y0253
X0290656Y0249895
X0293464Y0247695
X0289184Y02453
X0299
X0294309Y0256086
X02945Y026
X02944Y02641
X0291739Y0261991
X0288456Y0270297
X02852Y0275695
X0284087Y0280161
X0285101Y0283196
X0283242Y02908
X028325Y0308438
X028603Y0306
X03043Y0305298
X03041Y0308899
X0304781Y0301681
X0304598Y0297917
X0302963Y0283196
X03073Y02768
X03109Y0273475
X0304Y02634
X02732Y0272547
X027215Y02829
X0272704Y02997
X027125Y0310952
X0257515Y02997
X0257124Y0273247
X024245Y0269752
X0207913Y026955
X0214354Y02582
X0227232Y0291337
X0199Y02945
X02005Y03068
X01774Y02856
X0171546Y0287346
X01669Y0290302
X01567Y03094
X01628Y02266
X0169067Y0185055
X0173Y0176
X0171Y0165445
X0145031Y01574
X0147316Y01918
X01268Y02169
X0152879Y0263247
X01491Y0278813
Y0282013
X0155053Y02827
X0139279Y0285927
X01499Y03017
X0131Y03175
X0150546Y0344475
X0154761Y03515
X014438Y0359745
Y0363475
X01407Y0359188
X0139678Y0370725
X01438Y0371785
X014218Y0375252
X0146058Y0383267
X014625Y03874
Y03909
X0148003Y0399675
X0140905Y0401657
X0135Y040025
X0129095Y0401657
X0125157Y0405594
X012375Y04115
X0125157Y0417406
X0129095Y0421343
X0135Y042275
X0140905Y0421343
X0144843Y0417406
X014625Y04115
X0144843Y0405594
X01486Y0423679
X0147Y04513
Y04663
X012682Y0395779
X012362Y0397
X0121623Y0385931
X01317Y03858
X0136638Y0385931
Y0381995
X0160417Y0379
X0173775Y0376775
X01775Y03868
X01795Y0394
X01775Y0404
X0192577
X0191689Y0412925
X019317Y0416898
X01942Y04206
X01977Y04184
X02003Y0421187
X02062Y0421675
X0209923
X0213682
X0220598Y042069
X02252Y0421187
X0226414Y0426475
X02326Y04242
X0250317Y04238
X0262225Y0416651
X02575Y0404753
X0258331Y0395087
X02535Y03965
X02517Y03794
Y0363644
Y035181
X02679Y0343647
X02828Y03403
X0285304Y03381
X0284105Y0335134
X0289786
X02982Y03356
X0301778
X0306513Y0338239
X030894Y0334667
X0302807Y0327971
X0304Y03165
X0300658Y0317303
X02973Y0317879
X029029
X0273109Y0325503
X0272711Y0329968
X0284608Y034686
X02856Y0356083
X0285726Y0362084
X0285248Y0365357
X0286Y03698
X0290996Y0367558
X0290776Y0373463
X0290011Y0362084
X0290996Y03587
X02962Y03538
X0304776Y0350114
X0296902Y0338685
X03105Y03723
X02985Y0394985
X0293721Y0397085
X02896Y03993
X02864Y04012
X0288166Y040383
X02899Y04065
X02936Y04062
X0294093Y0409427
X0291123Y04129
X0288367Y0414413
X0286511Y041677
X028523Y0419625
X0294933Y0420707
X0296486Y04234
X03056Y04223
X0308713Y0418875
X031185Y0445
X03Y0440214
X0292965Y0434
X028765Y0444477
X0291783Y04531
X0276254Y04466
X026519
X0269Y04355
X0278Y043
X02734Y04059
X027
X0274209Y0382478
X02732Y03765
X0285258Y03863
X02876Y03889
X02348Y03892
X0217446
X02276Y04049
X0241721
X024428Y04105
X02496Y0446512
X02508Y046025
X02554Y04633
X02666Y04666
X02775Y04687
X0241099Y04665
X0231871Y0456899
X02292Y04544
X0229268Y0448527
X0233286Y044895
X0233695Y0445605
X0229793Y0443284
X0218183Y0443173
X0217527Y0434588
X0205347Y0431783
X0198015Y0432794
X0197938Y0436643
X0198015Y0441932
Y0445021
X0204879Y0448
X0203306Y0438525
X0184853Y04402
X0185001Y0445253
X0184853Y04489
X0185353Y04585
X01845Y04631
X01785Y04665
X0168647Y04635
X01685Y04561
X017005Y04463
X0156601
X017005Y0430848
X0185254Y0429273
X0189673Y0426884
X0188513Y041958
X0185468Y0420925
X02078Y04184
X02062Y0404
X0161846
X0163536Y036106
X01775Y0356166
X01816Y0347
X0189634Y03636
X0216068Y0356166
X02111Y03206
X0214583Y045886
X0219607Y0458363
X02002Y04572
X03236Y0452751
X0324153Y0445833
X03451Y04474
X03483Y0445583
X0344Y04525
X034231Y0455639
X0347093Y0455985
X03451Y046
X03475Y04625
X0348Y0466
X0350051Y0436
X03508Y04236
X0348083Y0421219
X03445Y0419403
X03424Y0416816
X0340209Y0420272
X0336403Y04216
X0331387Y0420272
X0326429
X0320192Y0421302
X03156Y04234
X03297Y0415776
X0334303Y04167
X03433Y0411698
X03429Y04066
X0342936Y0401461
X03425Y03963
X03471Y0399054
Y0404
X0347253Y0408896
Y0413798
X0357916Y041984
X0369969Y0420851
X0368803Y0423831
X0370085Y0416051
X0370152Y0412852
X03705Y04055
X0368879Y0402253
X0369334Y0399054
X0369995Y03957
X03705Y03925
X0369841Y03893
X037203Y0386963
X0369632Y0378924
X037Y03675
X03695Y0363
X037Y03585
X0368321Y0352727
X03695Y034477
X035937Y0349034
X03591Y03558
X03592Y03617
X0358936Y0364688
X0357221Y0374321
X03538Y03736
X03504Y0375
X0353293Y0378797
X03476Y03659
X0348083Y0360725
X0346217Y0358376
X0348084Y0355747
X0346065Y0353319
X0348084Y03511
X0349151Y0338651
X0348581Y0335455
X0350051Y03324
X035414
X035231Y03276
X0349022
X0346822Y0316372
X0355321Y0314172
X03577Y03217
X03663Y03186
X0369814Y03127
X0378711Y032
X03781Y0335975
X036477Y033253
X0346Y03395
X03394Y0339113
X0340009Y033559
X0334072Y0335455
X0335809Y0331906
X0322535Y0327436
X0320022Y0334539
X0316485Y0333341
X031485Y0336092
X0313081Y0339119
X031265Y03509
X03235Y0353534
X0334771Y0353878
X0344146Y036362
X0347833Y0392358
X03355Y0393784
X03805Y0389
X0383396Y0382929
X0390938Y0365609
X0394Y03615
X0417828Y0368066
X04206Y0370398
X0420607Y0365287
X04206Y0375516
X04176Y0372957
X04157Y03765
X042597Y03895
X0431Y03905
X0430563Y0403369
X04193Y04099
X04198Y0416164
Y0421282
Y04264
X04167Y0423841
Y0418723
X0408642Y04304
X03946Y04279
X0386657Y0426157
X0383Y0428725
X0379858Y0426325
X0382257Y0423873
X0386657Y0419375
X03932Y04077
X0394091Y0440215
X0369969Y0439049
X03645Y04385
X03657Y04455
X0369403Y044614
X0362053Y0446813
X0429187Y0447346
X043Y0455984
X042Y04574
X042581Y044124
X0458Y0440666
X04609Y04472
X0465Y04442
X04621Y04254
X0458Y0421282
X0457089Y04095
X0458Y0398654
X04525Y0390454
X04674Y0390889
Y03812
X04642Y03812
X04685Y0413605
X0453689Y0351178
X04505Y03386
X0430237Y0341
X0424653Y0336301
X0419Y0331
X04176Y0321516
X0414552Y0319852
X04142Y0314811
X04176Y0316757
X0394238Y0328787
X04101Y0346
X04365Y0354526
X04411Y03546
X0458Y03187
X045742Y0314235
X0323878Y0316042
X0320408Y0315857
X0317Y0316
X0475169Y0324404
X0486Y03769
X04724Y04156
X0469977Y0417777
X04818Y04267
X0491454Y0431325
X0524157Y0430105
X052275Y04242
X0524157Y0418294
X0528094Y0414358
X0534Y041295
X0539906Y0414358
X0543843Y0418294
X054525Y04242
X0543843Y0430105
X0539906Y0434043
X0534Y043545
X0528094Y0434043
X0499874Y0469518
X0502478Y0472122
X0504928Y0474572
X0476Y04745
X04733Y0471835
X04703Y04785
X04805Y0589906
X05063Y05962
X0528189Y0594
X0534094Y0595407
X054Y0594
X0543937Y0590063
X0545344Y0584158
X0543937Y0578252
X054Y0574315
X0534094Y0572907
X0528189Y0574315
X0524252Y0578252
X0522845Y0584158
X0524252Y0590063
X0462843Y0589906
X046425Y0584
X0462843Y0578094
X0458906Y0574157
X0453Y057275
X0447094Y0574157
X0443157Y0578094
X044175Y0584
X0443157Y0589906
X0447094Y0593843
X0453Y059525
X0458906Y0593843
X04597Y04893
X0458Y0485706
X0455375Y04712
X0452225Y0473898
X0437263Y0481001
X0419513Y04804
X042Y0473898
X04167Y04752
X0415924Y0469391
X042Y046878
X0405905Y0473898
X04115Y04805
X0413558Y0483256
X042537Y0494595
X04217Y04993
X044663Y04975
X03874Y0492911
X03873Y04884
X0384227Y0489861
X0371658Y05004
X03693Y05038
X0363846Y0498839
X034723Y04999
Y05029
X0346429Y0497
X0346544Y049372
X0349253Y049074
X035222Y0488343
X0348943Y0477625
X0341987Y0478246
X0322844Y0477746
X03693Y04815
X0380447Y0512163
X0378743Y0522955
X0389069Y051978
X03929Y05205
X03924Y05143
X0355646Y05205
X03455Y05157
X03075Y05528
X0286273Y05595
X0287094Y0574157
X0293Y057275
X0298905Y0574157
X0302842Y0578094
X030425Y0584
X0302842Y0589906
X0298905Y0593843
X0293Y059525
X0287094Y0593843
X0283157Y0589906
X028175Y0584
X0283157Y0578094
X02487Y05891
X02243Y05892
X02009Y05891
X01779
X01736Y04951
X01696
X0165463Y0494663
X01617Y04951
X01773Y0482
X0180366Y0484
X01868Y0480887
X01964Y04951
X02007
X02042
X02086
X0214Y0496452
X02326Y04955
X02361
X02396Y049618
X0244
X0251Y04915
X0270143Y04931
X0274116Y0493073
X0278119Y0493124
X0281825Y0493081
X0297325Y0484
X0237162Y0481917
X02205Y0480887
X02086Y04757
X01536Y04951
X01274Y04995
X0128837Y05055
X01255
X0132175
X0139371Y05122
X0140971Y05273
X0141625Y05423
Y05587
X0139906Y0574157
X0134Y057275
X0128094Y0574157
X0124158Y0578094
X012275Y0584
X0124158Y0589906
X0128094Y0593843
X0134Y059525
X0139906Y0593843
X0143842Y0589906
X014525Y0584
X0143842Y0578094
X01203Y05587
X01219Y05423
X0121Y05271
X012Y05175
X012Y0514
X012185Y05122
X012Y0509247
X0135447Y0477344
X01356Y0473604
T03
X05043Y0251
X05005Y04119
X04953Y05891
T04
X01905Y01698
X02098Y01701
T05
X0186Y0213
Y0223
Y0233
Y0243
X0196Y0238
Y0228
Y0218
Y0208
X0195Y0509
X0185
X0175
X0165
X017Y0519
X018
X019
X02
X0195Y05335
X0185
X0175
X0165
X017Y05435
X018
X019
X02
X0232
X0242
X0252
X0262
X0257Y05335
X0247
X0237
X0227
X0232Y0519
X0242
X0252
X0262
X0257Y0509
X0247
X0237
X0227
T06
X01288Y0437742
Y0455458
T07
X01477Y02006
X01417Y02106
X01477Y02404
X01417Y02504
T08
X02349Y00948
X02449
X02444Y01059
X02344
X02345Y01182
X02445
X0323Y01623
Y01723
Y01823
X03382Y01827
Y01727
Y01627
X03545Y01633
Y01733
Y01833
X03702
Y01733
Y01633
X04445Y02639
X04545
X04645
X03089Y04936
X02989
X02988Y05037
X03088
T09
X0352047Y0527205
X0362953
X0373858
X0384764
X0395669
X0390216Y0538386
X0379311
X0368406
X03575
X0352047Y0553819
X0362953
X0373858
X0384764
X0395669
X0390216Y0565
X0379311
X0368406
X03575
T10
X0475Y01713
Y01803
Y01893
Y01983
Y02073
X0485Y02028
X0494
Y01938
Y01848
Y01758
Y01668
X0485
Y01758
Y01848
Y01938
X0504Y01893
Y01803
Y01713
X0514Y01668
Y01758
Y01848
Y01938
Y02028
X0504Y01983
Y02073
X0465Y02028
Y01938
Y01848
Y01758
Y01668
X0466Y03265
Y03355
Y03445
Y03535
Y03625
X0476Y0367
Y0358
Y0349
Y034
Y0331
X0486Y03355
X0495
Y03445
Y03535
Y03625
X0486
Y03535
Y03445
Y03265
X0495
X0505Y0331
Y034
Y0349
Y0358
Y0367
X0515Y03625
Y03535
Y03445
Y03355
Y03265
Y04855
Y04945
Y05035
Y05125
Y05215
X0505Y0517
Y0508
Y0499
Y049
X0495Y04945
Y05035
Y05125
Y05215
X0486
Y05125
Y05035
Y04945
Y04855
X0495
X0476Y049
Y0499
Y0508
Y0517
Y0526
X0505
X0466Y05215
Y05125
Y05035
Y04945
Y04855
T11
X0138603Y0432801
Y0460399
T12
X0306815Y01054
X03265
X03464
X0366085
X0385915
X04056
X04254
X0445085
T13
X02765Y0515
Y0548
X01505
Y0515
T14
X0173Y01945
Y02565
T15
X0324646Y0533504
Y0565
X0423071
Y0533504
T16
X0479354Y01368
X0514
Y02352
X0479354
X0480354Y02965
X0515
X0161Y0248
Y0203
X0480354Y03949
X0515
Y04555
X0480354
Y05539
X0515
T17
X01575Y0576
X02695
T18
X01338Y01041
X02787Y01049
X0534Y01042
Y02642
X0135Y04115
X0534Y04242
X0534094Y0584158
X0453Y0584
X0293
X0134
M30
