G04*
G04 #@! TF.GenerationSoftware,Altium Limited,Altium Designer,20.1.8 (145)*
G04*
G04 Layer_Color=16711935*
%FSLAX25Y25*%
%MOIN*%
G70*
G04*
G04 #@! TF.SameCoordinates,B2AC8D30-3016-4A67-80AC-21C0F90DA472*
G04*
G04*
G04 #@! TF.FilePolarity,Negative*
G04*
G01*
G75*
%ADD19R,0.04940X0.04940*%
%ADD20R,0.04940X0.04940*%
%ADD27R,0.05728X0.07893*%
%ADD30R,0.07893X0.05728*%
%ADD31O,0.07499X0.02775*%
%ADD32O,0.03562X0.06909*%
%ADD40O,0.03562X0.05137*%
%ADD52C,0.09074*%
%ADD53R,0.09074X0.09074*%
%ADD54C,0.17735*%
%ADD55C,0.07200*%
%ADD56R,0.07200X0.07200*%
%ADD57R,0.07200X0.07200*%
%ADD58C,0.07600*%
%ADD59R,0.07600X0.07600*%
%ADD60C,0.19200*%
%ADD61C,0.07700*%
%ADD62C,0.13800*%
%ADD63C,0.11200*%
%ADD64C,0.13995*%
%ADD65C,0.10058*%
%ADD66C,0.07499*%
%ADD67R,0.07499X0.07499*%
%ADD68C,0.04200*%
%ADD69C,0.31200*%
%ADD70C,0.03100*%
%ADD71C,0.03600*%
%ADD72C,0.02900*%
%ADD73C,0.03169*%
%ADD158R,0.06712X0.08365*%
%ADD159R,0.08700X0.10200*%
%ADD160R,0.08956X0.03562*%
%ADD161O,0.02184X0.04547*%
%ADD162O,0.03747X0.01384*%
%ADD163O,0.04547X0.02184*%
%ADD164R,0.11043X0.11043*%
%ADD165R,0.05924X0.03562*%
G04:AMPARAMS|DCode=166|XSize=62.79mil|YSize=31.69mil|CornerRadius=10.92mil|HoleSize=0mil|Usage=FLASHONLY|Rotation=90.000|XOffset=0mil|YOffset=0mil|HoleType=Round|Shape=RoundedRectangle|*
%AMROUNDEDRECTD166*
21,1,0.06279,0.00984,0,0,90.0*
21,1,0.04095,0.03169,0,0,90.0*
1,1,0.02184,0.00492,0.02047*
1,1,0.02184,0.00492,-0.02047*
1,1,0.02184,-0.00492,-0.02047*
1,1,0.02184,-0.00492,0.02047*
%
%ADD166ROUNDEDRECTD166*%
%ADD167R,0.05900X0.05500*%
%ADD168R,0.07499X0.03916*%
%ADD169R,0.02381X0.04350*%
%ADD170R,0.10200X0.05400*%
%ADD171R,0.36200X0.43200*%
%ADD172R,0.04743X0.09665*%
%ADD173R,0.13798X0.09665*%
%ADD174O,0.01400X0.05715*%
%ADD175O,0.05715X0.01400*%
%ADD176O,0.06909X0.03562*%
%ADD177O,0.03740X0.01575*%
%ADD178O,0.01575X0.03740*%
%ADD179R,0.10236X0.10236*%
%ADD180R,0.09665X0.13798*%
%ADD181R,0.09665X0.04743*%
%ADD182R,0.23247X0.09468*%
%ADD183R,0.03300X0.06800*%
%ADD184O,0.09861X0.03562*%
%ADD185O,0.02775X0.07499*%
D19*
X252853Y565600D02*
D03*
X259546D02*
D03*
X240854D02*
D03*
X247547D02*
D03*
X244847Y382500D02*
D03*
X238154D02*
D03*
X224920D02*
D03*
X231613D02*
D03*
X217446D02*
D03*
X210753D02*
D03*
X182941Y386800D02*
D03*
X189634D02*
D03*
X182941Y369595D02*
D03*
X189634D02*
D03*
Y380695D02*
D03*
X182941D02*
D03*
X212047Y291000D02*
D03*
X205353D02*
D03*
X212834Y297232D02*
D03*
X206141D02*
D03*
X212047Y306800D02*
D03*
X205353D02*
D03*
X268146Y316075D02*
D03*
X261454D02*
D03*
X268146Y321675D02*
D03*
X261454D02*
D03*
X268259Y305000D02*
D03*
X261566D02*
D03*
X268146Y288600D02*
D03*
X261454D02*
D03*
X268146Y282900D02*
D03*
X261454D02*
D03*
X268146Y277200D02*
D03*
X261454D02*
D03*
Y271500D02*
D03*
X268146D02*
D03*
Y294200D02*
D03*
X261454D02*
D03*
X268146Y310700D02*
D03*
X261454D02*
D03*
X239347Y232800D02*
D03*
X232653D02*
D03*
X268146Y299700D02*
D03*
X261454D02*
D03*
X147653Y221300D02*
D03*
X154347D02*
D03*
X147653Y231800D02*
D03*
X154347D02*
D03*
X133647Y221200D02*
D03*
X126953D02*
D03*
X339347Y293500D02*
D03*
X332653D02*
D03*
X328753Y372300D02*
D03*
X335447D02*
D03*
X241247Y125800D02*
D03*
X234554D02*
D03*
X265107Y199600D02*
D03*
X271800D02*
D03*
X156933Y185055D02*
D03*
X163626D02*
D03*
X345853Y143400D02*
D03*
X352547D02*
D03*
X373134Y141084D02*
D03*
X366441D02*
D03*
X324553Y132900D02*
D03*
X331246D02*
D03*
X324553Y139975D02*
D03*
X331246D02*
D03*
X373134Y128963D02*
D03*
X366441D02*
D03*
Y122384D02*
D03*
X373134D02*
D03*
X189634Y375200D02*
D03*
X182941D02*
D03*
X222446Y565600D02*
D03*
X215754D02*
D03*
X256997Y435500D02*
D03*
X263690D02*
D03*
X164118Y166945D02*
D03*
X157425D02*
D03*
X373753Y515500D02*
D03*
X380447D02*
D03*
X355646Y515700D02*
D03*
X348954D02*
D03*
X160067Y151055D02*
D03*
X153374D02*
D03*
X163709Y132945D02*
D03*
X157016D02*
D03*
X173641Y298800D02*
D03*
X180334D02*
D03*
X173641Y310900D02*
D03*
X180334D02*
D03*
X173641Y292500D02*
D03*
X180334D02*
D03*
X173641Y317200D02*
D03*
X180334D02*
D03*
Y305000D02*
D03*
X173641D02*
D03*
X128559Y334500D02*
D03*
X121866D02*
D03*
X128559Y346700D02*
D03*
X121866D02*
D03*
X128572Y357722D02*
D03*
X121879D02*
D03*
X121054Y298400D02*
D03*
X127746D02*
D03*
X121254Y311300D02*
D03*
X127946D02*
D03*
X121066Y304700D02*
D03*
X127759D02*
D03*
X204546Y137600D02*
D03*
X197854D02*
D03*
X369337Y434275D02*
D03*
X376030D02*
D03*
X356353Y432800D02*
D03*
X363047D02*
D03*
X332341Y348775D02*
D03*
X339034D02*
D03*
X362359Y383400D02*
D03*
X355666D02*
D03*
X375859D02*
D03*
X369166D02*
D03*
X360833Y335975D02*
D03*
X354140D02*
D03*
X375400D02*
D03*
X368707D02*
D03*
X168553Y435200D02*
D03*
X175247D02*
D03*
X204453Y434721D02*
D03*
X211146D02*
D03*
X150753Y433100D02*
D03*
X157447D02*
D03*
X186225Y434721D02*
D03*
X192918D02*
D03*
X230133Y434700D02*
D03*
X223440D02*
D03*
X247547D02*
D03*
X240854D02*
D03*
X282946Y435500D02*
D03*
X276254D02*
D03*
X171247Y565600D02*
D03*
X164553D02*
D03*
X202554D02*
D03*
X209246D02*
D03*
X228554D02*
D03*
X235246D02*
D03*
X190053D02*
D03*
X196747D02*
D03*
X177053D02*
D03*
X183747D02*
D03*
D20*
X405800Y125854D02*
D03*
Y132546D02*
D03*
X250900Y336454D02*
D03*
Y343146D02*
D03*
X246800Y274254D02*
D03*
Y280946D02*
D03*
X240863D02*
D03*
Y274254D02*
D03*
X212047Y273604D02*
D03*
Y280296D02*
D03*
X219800Y310053D02*
D03*
Y316746D02*
D03*
X206654Y212195D02*
D03*
Y218888D02*
D03*
X356200Y290724D02*
D03*
Y284032D02*
D03*
X226100Y137554D02*
D03*
Y144246D02*
D03*
X262000Y234146D02*
D03*
Y227453D02*
D03*
X254800Y160453D02*
D03*
Y167147D02*
D03*
X272628Y161241D02*
D03*
Y167934D02*
D03*
X220618Y205859D02*
D03*
Y199166D02*
D03*
X388935Y242247D02*
D03*
Y235554D02*
D03*
X366568Y242547D02*
D03*
Y235854D02*
D03*
X310200Y153847D02*
D03*
Y147153D02*
D03*
X195875Y394066D02*
D03*
Y400759D02*
D03*
X201875Y394066D02*
D03*
Y400759D02*
D03*
X195875Y407566D02*
D03*
Y414259D02*
D03*
X201875D02*
D03*
Y407566D02*
D03*
X267400Y416434D02*
D03*
Y409741D02*
D03*
X274900Y416434D02*
D03*
Y409741D02*
D03*
Y401780D02*
D03*
Y395087D02*
D03*
X267400D02*
D03*
Y401780D02*
D03*
X238300Y395041D02*
D03*
Y401734D02*
D03*
X231000Y395041D02*
D03*
Y401734D02*
D03*
X173775Y394141D02*
D03*
Y400834D02*
D03*
X166275Y414546D02*
D03*
Y407854D02*
D03*
Y394141D02*
D03*
Y400834D02*
D03*
X173775Y414546D02*
D03*
Y407854D02*
D03*
X231100Y414834D02*
D03*
Y408141D02*
D03*
X238200Y414934D02*
D03*
Y408241D02*
D03*
X338500Y537147D02*
D03*
Y530453D02*
D03*
X177900Y343146D02*
D03*
Y336454D02*
D03*
X243365Y316869D02*
D03*
Y323562D02*
D03*
X249468Y316869D02*
D03*
Y323562D02*
D03*
X166275Y381207D02*
D03*
Y387900D02*
D03*
X166800Y371659D02*
D03*
Y364966D02*
D03*
X173800Y371659D02*
D03*
Y364966D02*
D03*
X218100Y100054D02*
D03*
Y106746D02*
D03*
Y125446D02*
D03*
Y118754D02*
D03*
X173400Y93353D02*
D03*
Y100047D02*
D03*
X376200Y267354D02*
D03*
Y274046D02*
D03*
X382200Y267354D02*
D03*
Y274046D02*
D03*
X445900Y482553D02*
D03*
Y489247D02*
D03*
X451800Y314253D02*
D03*
Y320947D02*
D03*
X445100Y314253D02*
D03*
Y320947D02*
D03*
X453800Y482553D02*
D03*
Y489247D02*
D03*
X466900Y116446D02*
D03*
Y109754D02*
D03*
X355200Y99946D02*
D03*
Y93253D02*
D03*
X460300Y100347D02*
D03*
Y93654D02*
D03*
X453600Y447346D02*
D03*
Y440654D02*
D03*
X445300Y363146D02*
D03*
Y356453D02*
D03*
Y278900D02*
D03*
Y272207D02*
D03*
X451400Y363246D02*
D03*
Y356554D02*
D03*
X452000Y279034D02*
D03*
Y272341D02*
D03*
X446200Y405346D02*
D03*
Y398654D02*
D03*
X453700Y405346D02*
D03*
Y398654D02*
D03*
X446600Y447359D02*
D03*
Y440666D02*
D03*
X418125Y177138D02*
D03*
Y183831D02*
D03*
X377500Y179147D02*
D03*
Y172453D02*
D03*
X384570Y131759D02*
D03*
Y125066D02*
D03*
X417100Y145259D02*
D03*
Y138566D02*
D03*
X446000Y203153D02*
D03*
Y209846D02*
D03*
X302521Y169853D02*
D03*
Y176547D02*
D03*
X291700Y127041D02*
D03*
Y133734D02*
D03*
X298584D02*
D03*
Y127041D02*
D03*
X396207Y258753D02*
D03*
Y265446D02*
D03*
X361190Y219634D02*
D03*
Y212941D02*
D03*
X389400Y220159D02*
D03*
Y213466D02*
D03*
X362200Y258166D02*
D03*
Y264859D02*
D03*
X311312Y133734D02*
D03*
Y127041D02*
D03*
X310200Y169853D02*
D03*
Y176547D02*
D03*
X397274Y220159D02*
D03*
Y213466D02*
D03*
X356294Y258166D02*
D03*
Y264859D02*
D03*
X415700Y265446D02*
D03*
Y258753D02*
D03*
X341200Y212941D02*
D03*
Y219634D02*
D03*
X403784Y258753D02*
D03*
Y265446D02*
D03*
X353616Y219634D02*
D03*
Y212941D02*
D03*
X238728Y199166D02*
D03*
Y205859D02*
D03*
X385100Y577654D02*
D03*
Y584346D02*
D03*
X370200Y584146D02*
D03*
Y577454D02*
D03*
X355800Y584446D02*
D03*
Y577753D02*
D03*
X403346Y527654D02*
D03*
Y534346D02*
D03*
X403600Y549647D02*
D03*
Y542953D02*
D03*
D27*
X167760Y176000D02*
D03*
X156933D02*
D03*
X164201Y142000D02*
D03*
X153374D02*
D03*
X190613Y137600D02*
D03*
X179787D02*
D03*
D30*
X261000Y218413D02*
D03*
Y207587D02*
D03*
X263573Y171580D02*
D03*
Y160753D02*
D03*
X164800Y93387D02*
D03*
Y104213D02*
D03*
X229673Y210288D02*
D03*
Y199461D02*
D03*
D31*
X378930Y508375D02*
D03*
Y505816D02*
D03*
Y503257D02*
D03*
Y500698D02*
D03*
Y498139D02*
D03*
Y495579D02*
D03*
Y493020D02*
D03*
Y490461D02*
D03*
Y487902D02*
D03*
Y485343D02*
D03*
Y482784D02*
D03*
Y480225D02*
D03*
X357670Y508375D02*
D03*
Y505816D02*
D03*
Y503257D02*
D03*
Y500698D02*
D03*
Y498139D02*
D03*
Y495579D02*
D03*
Y493020D02*
D03*
Y490461D02*
D03*
Y487902D02*
D03*
Y485343D02*
D03*
Y482784D02*
D03*
Y480225D02*
D03*
X376030Y468675D02*
D03*
Y466116D02*
D03*
Y463557D02*
D03*
Y460998D02*
D03*
Y458439D02*
D03*
Y455879D02*
D03*
Y453321D02*
D03*
Y450761D02*
D03*
Y448202D02*
D03*
Y445643D02*
D03*
Y443084D02*
D03*
Y440525D02*
D03*
X354770Y468675D02*
D03*
Y466116D02*
D03*
Y463557D02*
D03*
Y460998D02*
D03*
Y458439D02*
D03*
Y455879D02*
D03*
Y453321D02*
D03*
Y450761D02*
D03*
Y448202D02*
D03*
Y445643D02*
D03*
Y443084D02*
D03*
Y440525D02*
D03*
X354570Y391225D02*
D03*
Y393784D02*
D03*
Y396343D02*
D03*
Y398902D02*
D03*
Y401461D02*
D03*
Y404021D02*
D03*
Y406579D02*
D03*
Y409139D02*
D03*
Y411698D02*
D03*
Y414257D02*
D03*
Y416816D02*
D03*
Y419375D02*
D03*
X375830Y391225D02*
D03*
Y393784D02*
D03*
Y396343D02*
D03*
Y398902D02*
D03*
Y401461D02*
D03*
Y404021D02*
D03*
Y406579D02*
D03*
Y409139D02*
D03*
Y411698D02*
D03*
Y414257D02*
D03*
Y416816D02*
D03*
Y419375D02*
D03*
X354140Y342810D02*
D03*
Y345369D02*
D03*
Y347928D02*
D03*
Y350487D02*
D03*
Y353046D02*
D03*
Y355605D02*
D03*
Y358164D02*
D03*
Y360723D02*
D03*
Y363282D02*
D03*
Y365841D02*
D03*
Y368400D02*
D03*
Y370959D02*
D03*
X375400Y342810D02*
D03*
Y345369D02*
D03*
Y347928D02*
D03*
Y350487D02*
D03*
Y353046D02*
D03*
Y355605D02*
D03*
Y358164D02*
D03*
Y360723D02*
D03*
Y363282D02*
D03*
Y365841D02*
D03*
Y368400D02*
D03*
Y370959D02*
D03*
X384670Y177925D02*
D03*
Y180484D02*
D03*
Y183043D02*
D03*
Y185602D02*
D03*
Y188161D02*
D03*
Y190720D02*
D03*
Y193280D02*
D03*
Y195839D02*
D03*
Y198398D02*
D03*
Y200957D02*
D03*
Y203516D02*
D03*
Y206075D02*
D03*
X405930Y177925D02*
D03*
Y180484D02*
D03*
Y183043D02*
D03*
Y185602D02*
D03*
Y188161D02*
D03*
Y190720D02*
D03*
Y193280D02*
D03*
Y195839D02*
D03*
Y198398D02*
D03*
Y200957D02*
D03*
Y203516D02*
D03*
Y206075D02*
D03*
X384570Y138525D02*
D03*
Y141084D02*
D03*
Y143643D02*
D03*
Y146202D02*
D03*
Y148761D02*
D03*
Y151321D02*
D03*
Y153879D02*
D03*
Y156439D02*
D03*
Y158998D02*
D03*
Y161557D02*
D03*
Y164116D02*
D03*
Y166675D02*
D03*
X405830Y138525D02*
D03*
Y141084D02*
D03*
Y143643D02*
D03*
Y146202D02*
D03*
Y148761D02*
D03*
Y151321D02*
D03*
Y153879D02*
D03*
Y156439D02*
D03*
Y158998D02*
D03*
Y161557D02*
D03*
Y164116D02*
D03*
Y166675D02*
D03*
D32*
X170400Y595728D02*
D03*
X175400D02*
D03*
X180400D02*
D03*
X185400D02*
D03*
X170400Y574272D02*
D03*
X175400D02*
D03*
X180400D02*
D03*
X185400D02*
D03*
X256200Y574072D02*
D03*
X251200D02*
D03*
X246200D02*
D03*
X241200D02*
D03*
X256200Y595528D02*
D03*
X251200D02*
D03*
X246200D02*
D03*
X241200D02*
D03*
X193400D02*
D03*
X198400D02*
D03*
X203400D02*
D03*
X208400D02*
D03*
X193400Y574072D02*
D03*
X198400D02*
D03*
X203400D02*
D03*
X208400D02*
D03*
X216900Y595528D02*
D03*
X221900D02*
D03*
X226900D02*
D03*
X231900D02*
D03*
X216900Y574072D02*
D03*
X221900D02*
D03*
X226900D02*
D03*
X231900D02*
D03*
D40*
X158501Y358958D02*
D03*
X154761D02*
D03*
X151021D02*
D03*
X158501Y369587D02*
D03*
X154761D02*
D03*
X151021D02*
D03*
X490640Y95385D02*
D03*
X486900D02*
D03*
X483160D02*
D03*
X490640Y106015D02*
D03*
X486900D02*
D03*
X483160D02*
D03*
D52*
X425400Y105400D02*
D03*
X385915D02*
D03*
X346400D02*
D03*
X138603Y460399D02*
D03*
Y432801D02*
D03*
X306815Y105400D02*
D03*
D53*
X445085D02*
D03*
X405600D02*
D03*
X366085D02*
D03*
X326500D02*
D03*
D54*
X324646Y565000D02*
D03*
X423071Y533504D02*
D03*
X324646D02*
D03*
X423071Y565000D02*
D03*
D55*
X338200Y162700D02*
D03*
Y172700D02*
D03*
X323000Y162300D02*
D03*
Y172300D02*
D03*
X354500Y163300D02*
D03*
Y173300D02*
D03*
X370200Y163300D02*
D03*
Y173300D02*
D03*
X444500Y263900D02*
D03*
X454500D02*
D03*
X244500Y118200D02*
D03*
X186000Y243000D02*
D03*
Y233000D02*
D03*
Y223000D02*
D03*
Y213000D02*
D03*
X196000Y208000D02*
D03*
Y218000D02*
D03*
Y228000D02*
D03*
Y238000D02*
D03*
X234400Y105900D02*
D03*
X175000Y509000D02*
D03*
X185000D02*
D03*
X195000D02*
D03*
X200000Y519000D02*
D03*
X190000D02*
D03*
X180000D02*
D03*
X170000D02*
D03*
Y543500D02*
D03*
X180000D02*
D03*
X190000D02*
D03*
X165000Y533500D02*
D03*
X195000D02*
D03*
X185000D02*
D03*
X175000D02*
D03*
X237000Y509000D02*
D03*
X247000D02*
D03*
X257000D02*
D03*
X262000Y519000D02*
D03*
X252000D02*
D03*
X242000D02*
D03*
X232000D02*
D03*
Y543500D02*
D03*
X242000D02*
D03*
X252000D02*
D03*
X257000Y533500D02*
D03*
X247000D02*
D03*
X227000D02*
D03*
X237000D02*
D03*
X209800Y170100D02*
D03*
X190500Y169800D02*
D03*
X128800Y455458D02*
D03*
Y437742D02*
D03*
X244900Y94800D02*
D03*
X308800Y503700D02*
D03*
X308900Y493600D02*
D03*
D56*
X338200Y182700D02*
D03*
X323000Y182300D02*
D03*
X354500Y183300D02*
D03*
X370200D02*
D03*
D57*
X464500Y263900D02*
D03*
X234500Y118200D02*
D03*
X244400Y105900D02*
D03*
X165000Y509000D02*
D03*
X200000Y543500D02*
D03*
X227000Y509000D02*
D03*
X262000Y543500D02*
D03*
X234900Y94800D02*
D03*
X298800Y503700D02*
D03*
X298900Y493600D02*
D03*
D58*
X505000Y331000D02*
D03*
Y349000D02*
D03*
Y340000D02*
D03*
Y358000D02*
D03*
Y367000D02*
D03*
X495000Y335500D02*
D03*
Y344500D02*
D03*
Y353500D02*
D03*
Y326500D02*
D03*
X515000D02*
D03*
Y353500D02*
D03*
Y362500D02*
D03*
Y344500D02*
D03*
Y335500D02*
D03*
X486000D02*
D03*
Y344500D02*
D03*
Y362500D02*
D03*
Y353500D02*
D03*
Y326500D02*
D03*
X466000D02*
D03*
Y353500D02*
D03*
Y344500D02*
D03*
Y335500D02*
D03*
X476000Y367000D02*
D03*
Y358000D02*
D03*
Y340000D02*
D03*
Y349000D02*
D03*
Y331000D02*
D03*
X504000Y171300D02*
D03*
Y189300D02*
D03*
Y180300D02*
D03*
Y198300D02*
D03*
Y207300D02*
D03*
X494000Y175800D02*
D03*
Y184800D02*
D03*
Y193800D02*
D03*
Y166800D02*
D03*
X514000D02*
D03*
Y193800D02*
D03*
Y202800D02*
D03*
Y184800D02*
D03*
Y175800D02*
D03*
X485000D02*
D03*
Y184800D02*
D03*
Y202800D02*
D03*
Y193800D02*
D03*
Y166800D02*
D03*
X465000D02*
D03*
Y193800D02*
D03*
Y184800D02*
D03*
Y175800D02*
D03*
X475000Y207300D02*
D03*
Y198300D02*
D03*
Y180300D02*
D03*
Y189300D02*
D03*
Y171300D02*
D03*
X505000Y490000D02*
D03*
Y508000D02*
D03*
Y499000D02*
D03*
Y517000D02*
D03*
Y526000D02*
D03*
X495000Y494500D02*
D03*
Y503500D02*
D03*
Y512500D02*
D03*
Y485500D02*
D03*
X515000D02*
D03*
Y512500D02*
D03*
Y521500D02*
D03*
Y503500D02*
D03*
Y494500D02*
D03*
X486000D02*
D03*
Y503500D02*
D03*
Y521500D02*
D03*
Y512500D02*
D03*
Y485500D02*
D03*
X466000D02*
D03*
Y512500D02*
D03*
Y503500D02*
D03*
Y494500D02*
D03*
X476000Y526000D02*
D03*
Y517000D02*
D03*
Y499000D02*
D03*
Y508000D02*
D03*
Y490000D02*
D03*
D59*
X495000Y362500D02*
D03*
X466000D02*
D03*
X494000Y202800D02*
D03*
X465000D02*
D03*
X495000Y521500D02*
D03*
X466000D02*
D03*
D60*
X480354Y394900D02*
D03*
X515000D02*
D03*
Y296500D02*
D03*
X480354D02*
D03*
X479354Y235200D02*
D03*
X514000D02*
D03*
Y136800D02*
D03*
X479354D02*
D03*
X480354Y553900D02*
D03*
X515000D02*
D03*
Y455500D02*
D03*
X480354D02*
D03*
D61*
X147700Y240400D02*
D03*
X141700Y250400D02*
D03*
X147700Y200600D02*
D03*
X141700Y210600D02*
D03*
D62*
X161000Y203000D02*
D03*
Y248000D02*
D03*
D63*
X173000Y256500D02*
D03*
Y194500D02*
D03*
D64*
X157500Y576000D02*
D03*
X269500D02*
D03*
D65*
X276500Y515000D02*
D03*
Y548000D02*
D03*
X150500D02*
D03*
Y515000D02*
D03*
D66*
X368406Y538386D02*
D03*
X357500D02*
D03*
X379311D02*
D03*
X390216D02*
D03*
X395669Y527205D02*
D03*
X384764D02*
D03*
X362953D02*
D03*
X373858D02*
D03*
Y553819D02*
D03*
X362953D02*
D03*
X384764D02*
D03*
X395669D02*
D03*
X390216Y565000D02*
D03*
X379311D02*
D03*
X357500D02*
D03*
X368406D02*
D03*
D67*
X352047Y527205D02*
D03*
Y553819D02*
D03*
D68*
X143642Y110005D02*
D03*
X139706Y94257D02*
D03*
X123958Y98194D02*
D03*
X139706Y113943D02*
D03*
X143642Y98194D02*
D03*
X127894Y94257D02*
D03*
Y113943D02*
D03*
X123958Y110005D02*
D03*
X122550Y104100D02*
D03*
X133800Y92850D02*
D03*
X145050Y104100D02*
D03*
X133800Y115350D02*
D03*
X543843Y270106D02*
D03*
X539906Y254358D02*
D03*
X524157Y258295D02*
D03*
X539906Y274043D02*
D03*
X543843Y258295D02*
D03*
X528094Y254358D02*
D03*
Y274043D02*
D03*
X524157Y270106D02*
D03*
X522750Y264200D02*
D03*
X534000Y252950D02*
D03*
X545250Y264200D02*
D03*
X534000Y275450D02*
D03*
X293000Y595250D02*
D03*
X304250Y584000D02*
D03*
X293000Y572750D02*
D03*
X281750Y584000D02*
D03*
X283157Y589906D02*
D03*
X287094Y593843D02*
D03*
Y574157D02*
D03*
X302842Y578094D02*
D03*
X298905Y593843D02*
D03*
X283157Y578094D02*
D03*
X298905Y574157D02*
D03*
X302842Y589906D02*
D03*
X278700Y116150D02*
D03*
X289950Y104900D02*
D03*
X278700Y93650D02*
D03*
X267450Y104900D02*
D03*
X268858Y110805D02*
D03*
X272795Y114743D02*
D03*
Y95057D02*
D03*
X288543Y98994D02*
D03*
X284606Y114743D02*
D03*
X268858Y98994D02*
D03*
X284606Y95057D02*
D03*
X288543Y110805D02*
D03*
X534000Y115450D02*
D03*
X545250Y104200D02*
D03*
X534000Y92950D02*
D03*
X522750Y104200D02*
D03*
X524157Y110106D02*
D03*
X528094Y114042D02*
D03*
Y94358D02*
D03*
X543843Y98295D02*
D03*
X539906Y114042D02*
D03*
X524157Y98295D02*
D03*
X539906Y94358D02*
D03*
X543843Y110106D02*
D03*
X144843Y417406D02*
D03*
X140905Y401657D02*
D03*
X125157Y405594D02*
D03*
X140905Y421343D02*
D03*
X144843Y405594D02*
D03*
X129095Y401657D02*
D03*
Y421343D02*
D03*
X125157Y417406D02*
D03*
X123750Y411500D02*
D03*
X135000Y400250D02*
D03*
X146250Y411500D02*
D03*
X135000Y422750D02*
D03*
X143842Y589906D02*
D03*
X139906Y574157D02*
D03*
X124158Y578094D02*
D03*
X139906Y593843D02*
D03*
X143842Y578094D02*
D03*
X128094Y574157D02*
D03*
Y593843D02*
D03*
X124158Y589906D02*
D03*
X122750Y584000D02*
D03*
X134000Y572750D02*
D03*
X145250Y584000D02*
D03*
X134000Y595250D02*
D03*
X462843Y589906D02*
D03*
X458906Y574157D02*
D03*
X443157Y578094D02*
D03*
X458906Y593843D02*
D03*
X462843Y578094D02*
D03*
X447094Y574157D02*
D03*
Y593843D02*
D03*
X443157Y589906D02*
D03*
X441750Y584000D02*
D03*
X453000Y572750D02*
D03*
X464250Y584000D02*
D03*
X453000Y595250D02*
D03*
X543843Y430105D02*
D03*
X539906Y414358D02*
D03*
X524157Y418294D02*
D03*
X539906Y434043D02*
D03*
X543843Y418294D02*
D03*
X528094Y414358D02*
D03*
Y434043D02*
D03*
X524157Y430105D02*
D03*
X522750Y424200D02*
D03*
X534000Y412950D02*
D03*
X545250Y424200D02*
D03*
X534000Y435450D02*
D03*
X543937Y590063D02*
D03*
X540000Y574315D02*
D03*
X524252Y578252D02*
D03*
X540000Y594000D02*
D03*
X543937Y578252D02*
D03*
X528189Y574315D02*
D03*
Y594000D02*
D03*
X524252Y590063D02*
D03*
X522845Y584158D02*
D03*
X534094Y572907D02*
D03*
X545344Y584158D02*
D03*
X534094Y595407D02*
D03*
D69*
X133800Y104100D02*
D03*
X534000Y264200D02*
D03*
X293000Y584000D02*
D03*
X278700Y104900D02*
D03*
X534000Y104200D02*
D03*
X135000Y411500D02*
D03*
X134000Y584000D02*
D03*
X453000D02*
D03*
X534000Y424200D02*
D03*
X534094Y584158D02*
D03*
D70*
X214354Y258200D02*
D03*
X198500Y223289D02*
D03*
X348300Y445583D02*
D03*
X344000Y452500D02*
D03*
X345100Y447400D02*
D03*
X461389Y125577D02*
D03*
X459695Y130383D02*
D03*
X120000Y509247D02*
D03*
Y514000D02*
D03*
X120000Y517500D02*
D03*
X127400Y499500D02*
D03*
X383396Y382929D02*
D03*
X277500Y468700D02*
D03*
X294309Y256086D02*
D03*
X287998Y253000D02*
D03*
X294500Y260000D02*
D03*
X291739Y261991D02*
D03*
X294400Y264100D02*
D03*
X288456Y270297D02*
D03*
X378100Y335975D02*
D03*
X382257Y423873D02*
D03*
X379858Y426325D02*
D03*
X121623Y385931D02*
D03*
X149100Y282013D02*
D03*
Y278813D02*
D03*
X268600Y149400D02*
D03*
X257515Y299700D02*
D03*
X255800Y201175D02*
D03*
X226000Y229060D02*
D03*
X222500Y238509D02*
D03*
X306513Y338239D02*
D03*
X308940Y334667D02*
D03*
X313081Y339119D02*
D03*
X316485Y333341D02*
D03*
X302807Y327971D02*
D03*
X304000Y316500D02*
D03*
X317000Y316000D02*
D03*
X320408Y315857D02*
D03*
X322535Y327436D02*
D03*
X300658Y317303D02*
D03*
X349151Y338651D02*
D03*
X346000Y339500D02*
D03*
X339400Y339113D02*
D03*
X340009Y335590D02*
D03*
X348581Y335455D02*
D03*
X355321Y314172D02*
D03*
X346822Y316372D02*
D03*
X324153Y445833D02*
D03*
X311850Y445000D02*
D03*
X229793Y443284D02*
D03*
X233695Y445605D02*
D03*
X229200Y454400D02*
D03*
X337643Y247005D02*
D03*
X339200Y249800D02*
D03*
X345000Y250094D02*
D03*
X343116Y257000D02*
D03*
X346394Y255117D02*
D03*
X204200Y495100D02*
D03*
X208600D02*
D03*
X214000Y496452D02*
D03*
X178500Y466500D02*
D03*
X165463Y494663D02*
D03*
X491454Y431325D02*
D03*
X343116Y309235D02*
D03*
X347054Y311273D02*
D03*
X357408Y279476D02*
D03*
X357600Y276002D02*
D03*
X368651Y246572D02*
D03*
X380000Y136065D02*
D03*
X287650Y444477D02*
D03*
X349022Y327600D02*
D03*
X350051Y332400D02*
D03*
X471600Y98100D02*
D03*
X378711Y320000D02*
D03*
X277000Y241563D02*
D03*
X310200Y164133D02*
D03*
X389400Y225051D02*
D03*
X126820Y395779D02*
D03*
X173775Y376775D02*
D03*
X150546Y344475D02*
D03*
X148003Y399675D02*
D03*
X390938Y365609D02*
D03*
X156601Y446300D02*
D03*
X146250Y390900D02*
D03*
X135600Y473604D02*
D03*
X375700Y228200D02*
D03*
X407000Y241500D02*
D03*
X383000Y428725D02*
D03*
X307415Y140800D02*
D03*
X411577Y138525D02*
D03*
X420637Y150898D02*
D03*
X331353Y272864D02*
D03*
X336000Y274286D02*
D03*
X338500Y276700D02*
D03*
X233286Y448950D02*
D03*
X319495Y303330D02*
D03*
X321463Y308899D02*
D03*
X285600Y356083D02*
D03*
X320022Y334539D02*
D03*
X290996Y358700D02*
D03*
X304776Y350114D02*
D03*
X314850Y336092D02*
D03*
X335809Y331906D02*
D03*
X285248Y365357D02*
D03*
X296200Y353800D02*
D03*
X285726Y362084D02*
D03*
X286000Y369800D02*
D03*
X298200Y335600D02*
D03*
X296902Y338685D02*
D03*
X290776Y373463D02*
D03*
X290996Y367558D02*
D03*
X284105Y335134D02*
D03*
X289786D02*
D03*
X301778Y335600D02*
D03*
X282800Y340300D02*
D03*
X285304Y338100D02*
D03*
X334072Y335455D02*
D03*
X193170Y416898D02*
D03*
X387300Y488400D02*
D03*
X310427Y142640D02*
D03*
X220500Y480887D02*
D03*
X147000Y466300D02*
D03*
X121000Y527100D02*
D03*
X121900Y542300D02*
D03*
X121850Y512200D02*
D03*
X157100Y108800D02*
D03*
X232600Y424200D02*
D03*
X213682Y421675D02*
D03*
X332682Y233800D02*
D03*
X375600Y190000D02*
D03*
X371600Y195197D02*
D03*
X373495Y192507D02*
D03*
X386180Y232323D02*
D03*
X415302Y203130D02*
D03*
X411600Y207700D02*
D03*
X331246Y123200D02*
D03*
X333000Y128200D02*
D03*
X419800Y203130D02*
D03*
X376300Y186300D02*
D03*
X302521Y181149D02*
D03*
X177400Y285600D02*
D03*
X203000Y199200D02*
D03*
X324959Y263959D02*
D03*
X216068Y356166D02*
D03*
X257365Y241553D02*
D03*
X227829Y126003D02*
D03*
X217446Y389200D02*
D03*
X177500Y356166D02*
D03*
Y386800D02*
D03*
X290656Y249895D02*
D03*
X285177Y251282D02*
D03*
X289184Y245300D02*
D03*
X285847Y247500D02*
D03*
X371300Y248400D02*
D03*
X371600Y252800D02*
D03*
X352630Y306865D02*
D03*
X251700Y351810D02*
D03*
X143800Y371785D02*
D03*
X139678Y370725D02*
D03*
X461100Y121448D02*
D03*
X387200Y310700D02*
D03*
X231871Y456899D02*
D03*
X219607Y458363D02*
D03*
X214583Y458860D02*
D03*
X200200Y457200D02*
D03*
X237162Y481917D02*
D03*
X227600Y404900D02*
D03*
X251700Y363644D02*
D03*
X229268Y448527D02*
D03*
X184500Y463100D02*
D03*
X194200Y420600D02*
D03*
X197700Y418400D02*
D03*
X241099Y466500D02*
D03*
X276254Y446600D02*
D03*
X265190D02*
D03*
X266600Y466600D02*
D03*
X139371Y512200D02*
D03*
X140971Y527300D02*
D03*
X141625Y542300D02*
D03*
X153600Y495100D02*
D03*
X184853Y448900D02*
D03*
X185353Y458500D02*
D03*
X169600Y495100D02*
D03*
X173600D02*
D03*
X141625Y558700D02*
D03*
X464200Y381200D02*
D03*
X458000Y421282D02*
D03*
X462100Y425400D02*
D03*
X468100Y286900D02*
D03*
X302963Y283196D02*
D03*
X285101D02*
D03*
X284087Y280161D02*
D03*
X343500Y281676D02*
D03*
X285200Y275695D02*
D03*
X420000Y468780D02*
D03*
X419800Y421282D02*
D03*
X416700Y418723D02*
D03*
X419800Y426400D02*
D03*
Y416164D02*
D03*
X416700Y423841D02*
D03*
X417828Y368066D02*
D03*
X420607Y365287D02*
D03*
X420600Y370398D02*
D03*
X417600Y372957D02*
D03*
X436493Y312400D02*
D03*
X440100Y312000D02*
D03*
X476000Y474500D02*
D03*
X470300Y478500D02*
D03*
X473300Y471835D02*
D03*
X486000Y376900D02*
D03*
X467400Y381200D02*
D03*
X499874Y469518D02*
D03*
X469977Y417777D02*
D03*
X472400Y415600D02*
D03*
X467400Y390889D02*
D03*
X468500Y413605D02*
D03*
X481800Y426700D02*
D03*
X504928Y474572D02*
D03*
X502478Y472122D02*
D03*
X457900Y280271D02*
D03*
X459900Y290400D02*
D03*
X475169Y324404D02*
D03*
X307300Y276800D02*
D03*
X304598Y297917D02*
D03*
X286030Y306000D02*
D03*
X290290Y317879D02*
D03*
X304781Y301681D02*
D03*
X304100Y308899D02*
D03*
X304300Y305298D02*
D03*
X310900Y273475D02*
D03*
X459200Y293900D02*
D03*
X371658Y500400D02*
D03*
X363846Y498839D02*
D03*
X251700Y379400D02*
D03*
X317099Y277676D02*
D03*
X313300Y277700D02*
D03*
X317678Y274000D02*
D03*
X331200Y269600D02*
D03*
X299000Y245300D02*
D03*
X292447Y164133D02*
D03*
X293464Y247695D02*
D03*
X322700Y273700D02*
D03*
X367500Y272265D02*
D03*
Y299400D02*
D03*
X357408Y301593D02*
D03*
Y297193D02*
D03*
X366700Y293500D02*
D03*
X352959Y295456D02*
D03*
X367300Y228900D02*
D03*
X339600Y253000D02*
D03*
X457600Y119000D02*
D03*
X357600Y143400D02*
D03*
X351808Y274286D02*
D03*
X368068Y275771D02*
D03*
X387915Y246536D02*
D03*
X378800Y143643D02*
D03*
X368100Y250987D02*
D03*
X142180Y375252D02*
D03*
X414200Y314811D02*
D03*
X414552Y319852D02*
D03*
X417600Y321516D02*
D03*
X420600Y375516D02*
D03*
X415700Y376500D02*
D03*
X415924Y469391D02*
D03*
X232205Y178404D02*
D03*
X286100Y138221D02*
D03*
X245300Y148015D02*
D03*
X420000Y473898D02*
D03*
X416700Y475200D02*
D03*
X417600Y316757D02*
D03*
X421100Y288900D02*
D03*
X419000Y331000D02*
D03*
X419300Y409900D02*
D03*
X387400Y492911D02*
D03*
X384227Y489861D02*
D03*
X335302Y130500D02*
D03*
X354968Y253134D02*
D03*
X409200Y226261D02*
D03*
X341000Y143400D02*
D03*
X200300Y421187D02*
D03*
X200700Y495100D02*
D03*
X185001Y445253D02*
D03*
X184853Y440200D02*
D03*
X161700Y495100D02*
D03*
X196400D02*
D03*
X120300Y558700D02*
D03*
X149900Y301700D02*
D03*
X369300Y503800D02*
D03*
D71*
X359370Y349034D02*
D03*
X357308Y305005D02*
D03*
X348084Y351100D02*
D03*
X346065Y353319D02*
D03*
X353800Y373600D02*
D03*
X296486Y423400D02*
D03*
X315600D02*
D03*
X293600Y406200D02*
D03*
X286400Y401200D02*
D03*
X336403Y421600D02*
D03*
X305600Y422300D02*
D03*
X326429Y420272D02*
D03*
X359100Y355800D02*
D03*
X291123Y412900D02*
D03*
X288367Y414413D02*
D03*
X308713Y418875D02*
D03*
X289600Y399300D02*
D03*
X287600Y388900D02*
D03*
X342400Y416816D02*
D03*
X294933Y420707D02*
D03*
X285230Y419625D02*
D03*
X329700Y415776D02*
D03*
X359200Y361700D02*
D03*
X288166Y403830D02*
D03*
X320192Y421302D02*
D03*
X348083Y421219D02*
D03*
X331387Y420272D02*
D03*
X294093Y409427D02*
D03*
X289900Y406500D02*
D03*
X293721Y397085D02*
D03*
X334303Y416700D02*
D03*
X298500Y394985D02*
D03*
X344500Y419403D02*
D03*
X358936Y364688D02*
D03*
X350800Y423600D02*
D03*
X340209Y420272D02*
D03*
X357221Y374321D02*
D03*
X286511Y416770D02*
D03*
X285258Y386300D02*
D03*
X342500Y396300D02*
D03*
X334771Y353878D02*
D03*
X346217Y358376D02*
D03*
X348084Y355747D02*
D03*
X344146Y363620D02*
D03*
X348083Y360725D02*
D03*
X347600Y365900D02*
D03*
X343300Y411698D02*
D03*
X347100Y399054D02*
D03*
X342936Y401461D02*
D03*
X347100Y404000D02*
D03*
X342900Y406600D02*
D03*
X347253Y408896D02*
D03*
Y413798D02*
D03*
D72*
X352220Y488343D02*
D03*
X349253Y490740D02*
D03*
X347230Y499900D02*
D03*
X346429Y497000D02*
D03*
D73*
X239035Y302065D02*
D03*
Y297735D02*
D03*
X243365Y302065D02*
D03*
Y297735D02*
D03*
D158*
X214354Y252500D02*
D03*
X203646D02*
D03*
D159*
X205048Y186000D02*
D03*
X189552D02*
D03*
X185511Y356166D02*
D03*
X201007D02*
D03*
D160*
X207624Y93400D02*
D03*
Y98400D02*
D03*
Y103400D02*
D03*
Y108400D02*
D03*
X188176D02*
D03*
Y103400D02*
D03*
Y98400D02*
D03*
Y93400D02*
D03*
X188776Y115300D02*
D03*
Y120300D02*
D03*
Y125300D02*
D03*
Y130300D02*
D03*
X208224D02*
D03*
Y125300D02*
D03*
Y120300D02*
D03*
Y115300D02*
D03*
D161*
X236279Y307380D02*
D03*
X238247D02*
D03*
X240216D02*
D03*
X242184D02*
D03*
X244153D02*
D03*
X246121D02*
D03*
Y292420D02*
D03*
X244153D02*
D03*
X242184D02*
D03*
X240216D02*
D03*
X238247D02*
D03*
X236279D02*
D03*
D162*
X248680Y304821D02*
D03*
Y302853D02*
D03*
Y300884D02*
D03*
Y298916D02*
D03*
Y296947D02*
D03*
Y294979D02*
D03*
D163*
X233720D02*
D03*
Y296947D02*
D03*
Y298916D02*
D03*
Y300884D02*
D03*
Y302853D02*
D03*
Y304821D02*
D03*
D164*
X241200Y299900D02*
D03*
D165*
X217321Y229060D02*
D03*
Y232800D02*
D03*
Y236540D02*
D03*
X207479D02*
D03*
Y232800D02*
D03*
Y229060D02*
D03*
D166*
X332002Y303224D02*
D03*
X326884D02*
D03*
X329443Y310389D02*
D03*
D167*
X335500Y387800D02*
D03*
X345500D02*
D03*
Y378800D02*
D03*
X335500D02*
D03*
D168*
X235500Y141700D02*
D03*
D169*
X232547Y145421D02*
D03*
X234516D02*
D03*
X236484D02*
D03*
X238453D02*
D03*
X232547Y137979D02*
D03*
X234516D02*
D03*
X236484D02*
D03*
X238453D02*
D03*
D170*
X271800Y220700D02*
D03*
Y227400D02*
D03*
Y234100D02*
D03*
Y214000D02*
D03*
Y207300D02*
D03*
D171*
X306300Y220700D02*
D03*
D172*
X254518Y151879D02*
D03*
X263573D02*
D03*
X272628D02*
D03*
X220618Y190279D02*
D03*
X229673D02*
D03*
X238728D02*
D03*
D173*
X263573Y128847D02*
D03*
X229673Y167247D02*
D03*
D174*
X395910Y248287D02*
D03*
X397879D02*
D03*
X399847D02*
D03*
X401816D02*
D03*
X403784D02*
D03*
X405753D02*
D03*
X407721D02*
D03*
X409690D02*
D03*
X395910Y230768D02*
D03*
X397879D02*
D03*
X399847D02*
D03*
X401816D02*
D03*
X403784D02*
D03*
X405753D02*
D03*
X407721D02*
D03*
X409690D02*
D03*
X304490Y142640D02*
D03*
X302521D02*
D03*
X300553D02*
D03*
X298584D02*
D03*
X296616D02*
D03*
X294647D02*
D03*
X292679D02*
D03*
X290710D02*
D03*
X304490Y160160D02*
D03*
X302521D02*
D03*
X300553D02*
D03*
X298584D02*
D03*
X296616D02*
D03*
X294647D02*
D03*
X292679D02*
D03*
X290710D02*
D03*
X361190Y230440D02*
D03*
X359221D02*
D03*
X357253D02*
D03*
X355284D02*
D03*
X353316D02*
D03*
X351347D02*
D03*
X349379D02*
D03*
X347410D02*
D03*
X361190Y247960D02*
D03*
X359221D02*
D03*
X357253D02*
D03*
X355284D02*
D03*
X353316D02*
D03*
X351347D02*
D03*
X349379D02*
D03*
X347410D02*
D03*
D175*
X340080Y123057D02*
D03*
Y125026D02*
D03*
Y126995D02*
D03*
Y128963D02*
D03*
Y130931D02*
D03*
Y132900D02*
D03*
Y134869D02*
D03*
Y136837D02*
D03*
X357600Y123057D02*
D03*
Y125026D02*
D03*
Y126995D02*
D03*
Y128963D02*
D03*
Y130931D02*
D03*
Y132900D02*
D03*
Y134869D02*
D03*
Y136837D02*
D03*
D176*
X281800Y471600D02*
D03*
Y466600D02*
D03*
Y461600D02*
D03*
Y456600D02*
D03*
Y451600D02*
D03*
Y446600D02*
D03*
Y441600D02*
D03*
X260343Y471600D02*
D03*
Y466600D02*
D03*
Y461600D02*
D03*
Y456600D02*
D03*
Y451600D02*
D03*
Y446600D02*
D03*
Y441600D02*
D03*
X245528Y471500D02*
D03*
Y466500D02*
D03*
Y461500D02*
D03*
Y456500D02*
D03*
Y451500D02*
D03*
Y446500D02*
D03*
Y441500D02*
D03*
X224072Y471500D02*
D03*
Y466500D02*
D03*
Y461500D02*
D03*
Y456500D02*
D03*
Y451500D02*
D03*
Y446500D02*
D03*
Y441500D02*
D03*
X189572Y441300D02*
D03*
Y446300D02*
D03*
Y451300D02*
D03*
Y456300D02*
D03*
Y461300D02*
D03*
Y466300D02*
D03*
Y471300D02*
D03*
X211028Y441300D02*
D03*
Y446300D02*
D03*
Y451300D02*
D03*
Y456300D02*
D03*
Y461300D02*
D03*
Y466300D02*
D03*
Y471300D02*
D03*
X152172Y441300D02*
D03*
Y446300D02*
D03*
Y451300D02*
D03*
Y456300D02*
D03*
Y461300D02*
D03*
Y466300D02*
D03*
Y471300D02*
D03*
X173628Y441300D02*
D03*
Y446300D02*
D03*
Y451300D02*
D03*
Y456300D02*
D03*
Y461300D02*
D03*
Y466300D02*
D03*
Y471300D02*
D03*
D177*
X126137Y378058D02*
D03*
Y380026D02*
D03*
Y381995D02*
D03*
Y383963D02*
D03*
Y385931D02*
D03*
Y387900D02*
D03*
X141295D02*
D03*
Y385931D02*
D03*
Y383963D02*
D03*
Y381995D02*
D03*
Y380026D02*
D03*
Y378058D02*
D03*
D178*
X128795Y390558D02*
D03*
X130763D02*
D03*
X132731D02*
D03*
X134700D02*
D03*
X136669D02*
D03*
X138637D02*
D03*
Y375400D02*
D03*
X136669D02*
D03*
X134700D02*
D03*
X132731D02*
D03*
X130763D02*
D03*
X128795D02*
D03*
D179*
X133716Y382979D02*
D03*
D180*
X124284Y176000D02*
D03*
X122000Y142000D02*
D03*
D181*
X147316Y166945D02*
D03*
Y176000D02*
D03*
Y185055D02*
D03*
X145031Y132945D02*
D03*
Y142000D02*
D03*
Y151055D02*
D03*
D182*
X196999Y336300D02*
D03*
X234401D02*
D03*
D183*
X362500Y283600D02*
D03*
X367500D02*
D03*
X372500D02*
D03*
X377500D02*
D03*
Y305600D02*
D03*
X372500D02*
D03*
X367500D02*
D03*
X362500D02*
D03*
D184*
X436693Y477400D02*
D03*
Y472400D02*
D03*
Y467400D02*
D03*
Y462400D02*
D03*
Y457400D02*
D03*
Y452400D02*
D03*
Y447400D02*
D03*
Y442400D02*
D03*
X400000Y477400D02*
D03*
Y472400D02*
D03*
Y467400D02*
D03*
Y462400D02*
D03*
Y457400D02*
D03*
Y452400D02*
D03*
Y447400D02*
D03*
Y442400D02*
D03*
X436793Y519300D02*
D03*
Y514300D02*
D03*
Y509300D02*
D03*
Y504300D02*
D03*
Y499300D02*
D03*
Y494300D02*
D03*
Y489300D02*
D03*
Y484300D02*
D03*
X400100Y519300D02*
D03*
Y514300D02*
D03*
Y509300D02*
D03*
Y504300D02*
D03*
Y499300D02*
D03*
Y494300D02*
D03*
Y489300D02*
D03*
Y484300D02*
D03*
X399700Y400400D02*
D03*
Y405400D02*
D03*
Y410400D02*
D03*
Y415400D02*
D03*
Y420400D02*
D03*
Y425400D02*
D03*
Y430400D02*
D03*
Y435400D02*
D03*
X436393Y400400D02*
D03*
Y405400D02*
D03*
Y410400D02*
D03*
Y415400D02*
D03*
Y420400D02*
D03*
Y425400D02*
D03*
Y430400D02*
D03*
Y435400D02*
D03*
X399800Y358300D02*
D03*
Y363300D02*
D03*
Y368300D02*
D03*
Y373300D02*
D03*
Y378300D02*
D03*
Y383300D02*
D03*
Y388300D02*
D03*
Y393300D02*
D03*
X436493Y358300D02*
D03*
Y363300D02*
D03*
Y368300D02*
D03*
Y373300D02*
D03*
Y378300D02*
D03*
Y383300D02*
D03*
Y388300D02*
D03*
Y393300D02*
D03*
X399800Y316000D02*
D03*
Y321000D02*
D03*
Y326000D02*
D03*
Y331000D02*
D03*
Y336000D02*
D03*
Y341000D02*
D03*
Y346000D02*
D03*
Y351000D02*
D03*
X436493Y316000D02*
D03*
Y321000D02*
D03*
Y326000D02*
D03*
Y331000D02*
D03*
Y336000D02*
D03*
Y341000D02*
D03*
Y346000D02*
D03*
Y351000D02*
D03*
X399807Y273900D02*
D03*
Y278900D02*
D03*
Y283900D02*
D03*
Y288900D02*
D03*
Y293900D02*
D03*
Y298900D02*
D03*
Y303900D02*
D03*
Y308900D02*
D03*
X436500Y273900D02*
D03*
Y278900D02*
D03*
Y283900D02*
D03*
Y288900D02*
D03*
Y293900D02*
D03*
Y298900D02*
D03*
Y303900D02*
D03*
Y308900D02*
D03*
D185*
X440659Y145399D02*
D03*
X438100D02*
D03*
X435541D02*
D03*
X432982D02*
D03*
X430423D02*
D03*
X427864D02*
D03*
X425305D02*
D03*
X422746D02*
D03*
X440659Y166658D02*
D03*
X438100D02*
D03*
X435541D02*
D03*
X432982D02*
D03*
X430423D02*
D03*
X427864D02*
D03*
X425305D02*
D03*
X422746D02*
D03*
X423243Y203130D02*
D03*
X425802D02*
D03*
X428361D02*
D03*
X430921D02*
D03*
X433479D02*
D03*
X436039D02*
D03*
X438598D02*
D03*
X441157D02*
D03*
X423243Y181870D02*
D03*
X425802D02*
D03*
X428361D02*
D03*
X430921D02*
D03*
X433479D02*
D03*
X436039D02*
D03*
X438598D02*
D03*
X441157D02*
D03*
M02*
