G04*
G04 #@! TF.GenerationSoftware,Altium Limited,Altium Designer,20.1.14 (287)*
G04*
G04 Layer_Color=65535*
%FSLAX25Y25*%
%MOIN*%
G70*
G04*
G04 #@! TF.SameCoordinates,11A2ED7B-9C87-42D8-8BA9-A02E898DC9DF*
G04*
G04*
G04 #@! TF.FilePolarity,Positive*
G04*
G01*
G75*
%ADD10C,0.01000*%
%ADD11C,0.00984*%
%ADD12C,0.02362*%
%ADD13C,0.01200*%
%ADD14C,0.00787*%
G36*
X519000Y236965D02*
X452500D01*
Y246000D01*
X519000D01*
Y236965D01*
D02*
G37*
G36*
Y226500D02*
X452500D01*
Y236965D01*
X519000D01*
Y226500D01*
D02*
G37*
%LPC*%
G36*
X462703Y244323D02*
D01*
X462332Y244289D01*
X462008Y244231D01*
X461731Y244150D01*
X461603Y244115D01*
X461499Y244069D01*
X461395Y244023D01*
X461303Y243988D01*
X461233Y243953D01*
X461175Y243919D01*
X461129Y243884D01*
X461083Y243872D01*
X461071Y243849D01*
X461060D01*
X460898Y243722D01*
X460759Y243595D01*
X460643Y243456D01*
X460539Y243317D01*
X460469Y243201D01*
X460412Y243109D01*
X460377Y243051D01*
X460365Y243039D01*
Y243028D01*
X460284Y242831D01*
X460227Y242634D01*
X460180Y242449D01*
X460157Y242287D01*
X460134Y242137D01*
X460122Y242021D01*
D01*
Y241917D01*
X460134Y241697D01*
X460169Y241500D01*
X460215Y241304D01*
X460273Y241119D01*
X460354Y240957D01*
X460435Y240795D01*
X460527Y240656D01*
X460620Y240529D01*
X460712Y240413D01*
X460805Y240309D01*
X460886Y240228D01*
X460967Y240147D01*
X461025Y240089D01*
X461071Y240054D01*
X461106Y240031D01*
X461118Y240019D01*
X461268Y239915D01*
X461407Y239834D01*
X461465Y239800D01*
X461511Y239776D01*
X461534Y239753D01*
X461546D01*
X461650Y239707D01*
X461777Y239649D01*
X461927Y239580D01*
X462066Y239510D01*
X462205Y239453D01*
X462309Y239406D01*
X462356Y239383D01*
X462390Y239372D01*
X462402Y239360D01*
X462413D01*
X462598Y239267D01*
X462760Y239198D01*
X462888Y239129D01*
X462992Y239071D01*
X463061Y239024D01*
X463119Y238990D01*
X463142Y238967D01*
X463154Y238955D01*
X463246Y238874D01*
X463304Y238781D01*
X463350Y238701D01*
X463385Y238619D01*
X463408Y238550D01*
X463420Y238492D01*
Y238458D01*
Y238446D01*
X463408Y238353D01*
X463397Y238261D01*
X463362Y238180D01*
X463339Y238122D01*
X463304Y238076D01*
X463270Y238041D01*
X463258Y238018D01*
X463246Y238006D01*
X463177Y237948D01*
X463073Y237891D01*
X462864Y237798D01*
X462760Y237763D01*
X462679Y237740D01*
X462622Y237729D01*
X462598Y237717D01*
Y236977D01*
X462436D01*
Y237729D01*
X462275Y237763D01*
X462136Y237798D01*
X462020Y237844D01*
X461916Y237891D01*
X461846Y237925D01*
X461789Y237960D01*
X461754Y237972D01*
X461742Y237983D01*
X461627Y238110D01*
X461522Y238226D01*
X461441Y238342D01*
X461360Y238458D01*
X461291Y238539D01*
X461245Y238619D01*
X461222Y238666D01*
X461210Y238677D01*
X461071Y238955D01*
X461025Y239094D01*
X460979Y239221D01*
X460944Y239325D01*
X460921Y239406D01*
X460898Y239453D01*
Y239476D01*
X460851Y239603D01*
X460805Y239684D01*
X460759Y239742D01*
X460747Y239753D01*
X460678Y239811D01*
X460585Y239834D01*
X460516Y239846D01*
X460435D01*
X460389Y239823D01*
X460296Y239776D01*
X460250Y239730D01*
X460227Y239719D01*
Y239707D01*
X460169Y239603D01*
X460134Y239499D01*
Y239464D01*
X460122Y239429D01*
D01*
Y236977D01*
X465364D01*
Y239453D01*
X465352Y239615D01*
X465329Y239776D01*
X465294Y239938D01*
X465248Y240077D01*
X465132Y240355D01*
X465005Y240586D01*
X464936Y240691D01*
X464878Y240772D01*
X464808Y240853D01*
X464762Y240922D01*
X464716Y240968D01*
X464681Y241003D01*
X464658Y241026D01*
X464646Y241038D01*
X464588Y241119D01*
X464531Y241188D01*
X464392Y241315D01*
X464334Y241362D01*
X464288Y241396D01*
X464253Y241408D01*
X464241Y241420D01*
X464137Y241477D01*
X464021Y241547D01*
X463906Y241605D01*
X463790Y241662D01*
X463686Y241720D01*
X463605Y241755D01*
X463547Y241778D01*
X463524Y241790D01*
X463397Y241848D01*
X463270Y241894D01*
X463073Y241986D01*
X462899Y242067D01*
X462772Y242125D01*
X462679Y242172D01*
X462622Y242206D01*
X462587Y242229D01*
X462575D01*
X462483Y242287D01*
X462402Y242345D01*
X462332Y242391D01*
X462275Y242438D01*
X462228Y242484D01*
X462205Y242519D01*
X462193Y242530D01*
X462182Y242542D01*
X462113Y242681D01*
X462078Y242808D01*
Y242854D01*
X462066Y242900D01*
Y242924D01*
Y242935D01*
X462078Y243016D01*
X462089Y243086D01*
X462136Y243201D01*
X462159Y243248D01*
X462182Y243282D01*
X462205Y243294D01*
Y243305D01*
X462263Y243363D01*
X462344Y243409D01*
X462506Y243491D01*
X462587Y243525D01*
X462645Y243548D01*
X462691Y243560D01*
X462703D01*
Y244323D01*
D02*
G37*
G36*
X484095Y244196D02*
X481717D01*
X481839D01*
Y243398D01*
X482071Y243363D01*
X482267Y243317D01*
X482441Y243259D01*
X482580Y243190D01*
X482695Y243132D01*
X482765Y243086D01*
X482823Y243051D01*
X482834Y243039D01*
X482962Y242924D01*
X483066Y242796D01*
X483158Y242657D01*
X483228Y242519D01*
X483286Y242391D01*
X483332Y242299D01*
X483355Y242229D01*
X483367Y242218D01*
Y242206D01*
X483413Y242091D01*
X483448Y242021D01*
X483482Y241975D01*
X483494Y241963D01*
X483563Y241929D01*
X483644Y241917D01*
X483702Y241905D01*
X483725D01*
X483852Y241917D01*
X483933Y241963D01*
X483991Y241998D01*
X484003Y242010D01*
X484061Y242102D01*
X484084Y242195D01*
X484095Y242264D01*
Y242287D01*
Y242299D01*
Y244196D01*
D02*
G37*
G36*
X471519Y244196D02*
X469140D01*
X469263D01*
Y243398D01*
X469494Y243363D01*
X469691Y243317D01*
X469864Y243259D01*
X470003Y243190D01*
X470119Y243132D01*
X470188Y243086D01*
X470246Y243051D01*
X470258Y243039D01*
X470385Y242924D01*
X470489Y242796D01*
X470582Y242657D01*
X470651Y242519D01*
X470709Y242391D01*
X470755Y242299D01*
X470778Y242229D01*
X470790Y242218D01*
Y242206D01*
X470836Y242091D01*
X470871Y242021D01*
X470906Y241975D01*
X470917Y241963D01*
X470987Y241929D01*
X471068Y241917D01*
X471126Y241905D01*
X471149D01*
X471276Y241917D01*
X471357Y241963D01*
X471415Y241998D01*
X471426Y242009D01*
X471484Y242102D01*
X471507Y242195D01*
X471519Y242264D01*
Y242287D01*
Y242299D01*
Y244196D01*
D02*
G37*
G36*
X495018Y244300D02*
X494948D01*
Y243560D01*
X495156Y243502D01*
X495341Y243444D01*
X495492Y243375D01*
X495631Y243317D01*
X495723Y243259D01*
X495804Y243224D01*
X495851Y243190D01*
X495862Y243178D01*
X495932Y243051D01*
X496001Y242935D01*
X496047Y242831D01*
X496094Y242750D01*
X496140Y242681D01*
X496163Y242623D01*
X496186Y242588D01*
Y242577D01*
X496267Y242391D01*
X496325Y242241D01*
X496348Y242172D01*
X496360Y242125D01*
X496371Y242091D01*
Y242079D01*
X496394Y241998D01*
X496406Y241929D01*
X496429Y241882D01*
Y241871D01*
X496464Y241824D01*
X496487Y241790D01*
X496510Y241767D01*
X496522Y241755D01*
X496614Y241697D01*
X496707Y241674D01*
X496765Y241663D01*
X496788D01*
X496857Y241674D01*
X496915Y241686D01*
X497008Y241732D01*
X497065Y241767D01*
X497089Y241790D01*
X497158Y241894D01*
X497193Y241998D01*
X497204Y242033D01*
Y242067D01*
Y242091D01*
Y242102D01*
Y243768D01*
X497193Y243930D01*
X497158Y244046D01*
X497147Y244092D01*
X497123Y244127D01*
X497112Y244138D01*
Y244150D01*
X497077Y244196D01*
X497031Y244231D01*
X496938Y244277D01*
X496857Y244289D01*
X496823D01*
X496765Y244277D01*
X496707Y244266D01*
X496614Y244208D01*
X496556Y244138D01*
X496533Y244127D01*
Y244115D01*
X496418Y243953D01*
X496337D01*
X496290Y243965D01*
X496256Y243976D01*
X496244D01*
X496105Y244034D01*
X495978Y244081D01*
X495862Y244127D01*
X495770Y244162D01*
X495700Y244185D01*
X495642Y244196D01*
X495608Y244208D01*
X495596D01*
X495504Y244231D01*
X495399Y244254D01*
X495191Y244277D01*
X495087Y244289D01*
X495018Y244300D01*
D02*
G37*
G36*
X462946Y244300D02*
X462876D01*
Y243560D01*
X463084Y243502D01*
X463270Y243444D01*
X463420Y243375D01*
X463559Y243317D01*
X463651Y243259D01*
X463732Y243224D01*
X463779Y243190D01*
X463790Y243178D01*
X463860Y243051D01*
X463929Y242935D01*
X463975Y242831D01*
X464021Y242750D01*
X464068Y242681D01*
X464091Y242623D01*
X464114Y242588D01*
Y242577D01*
X464195Y242391D01*
X464253Y242241D01*
X464276Y242172D01*
X464288Y242125D01*
X464299Y242091D01*
Y242079D01*
X464322Y241998D01*
X464334Y241929D01*
X464357Y241882D01*
Y241871D01*
X464392Y241824D01*
X464415Y241790D01*
X464438Y241767D01*
X464450Y241755D01*
X464542Y241697D01*
X464635Y241674D01*
X464693Y241662D01*
X464716D01*
X464785Y241674D01*
X464843Y241686D01*
X464936Y241732D01*
X464993Y241767D01*
X465017Y241790D01*
X465086Y241894D01*
X465121Y241998D01*
X465132Y242033D01*
Y242067D01*
Y242091D01*
Y242102D01*
Y243768D01*
X465121Y243930D01*
X465086Y244046D01*
X465074Y244092D01*
X465051Y244127D01*
X465040Y244138D01*
Y244150D01*
X465005Y244196D01*
X464959Y244231D01*
X464866Y244277D01*
X464785Y244289D01*
X464750D01*
X464693Y244277D01*
X464635Y244266D01*
X464542Y244208D01*
X464484Y244138D01*
X464461Y244127D01*
Y244115D01*
X464346Y243953D01*
X464264D01*
X464218Y243965D01*
X464184Y243976D01*
X464172D01*
X464033Y244034D01*
X463906Y244081D01*
X463790Y244127D01*
X463698Y244162D01*
X463628Y244185D01*
X463570Y244196D01*
X463536Y244208D01*
X463524D01*
X463432Y244231D01*
X463327Y244254D01*
X463119Y244277D01*
X463015Y244289D01*
X462946Y244300D01*
D02*
G37*
G36*
X492588Y239846D02*
X492507D01*
X492461Y239823D01*
X492368Y239776D01*
X492322Y239730D01*
X492299Y239719D01*
Y239707D01*
X492241Y239603D01*
X492206Y239499D01*
Y239464D01*
X492195Y239429D01*
D01*
D01*
Y236977D01*
Y237474D01*
X492206Y237393D01*
X492252Y237254D01*
X492310Y237162D01*
X492391Y237104D01*
X492461Y237058D01*
X492519Y237046D01*
X492565Y237035D01*
X492576D01*
X492634Y237046D01*
X492692Y237058D01*
X492773Y237104D01*
X492831Y237150D01*
X492854Y237173D01*
X492923Y237254D01*
X492958Y237301D01*
X492981Y237324D01*
X493016Y237335D01*
X493051Y237347D01*
X493120D01*
X493155Y237335D01*
X493178Y237324D01*
X493189Y237312D01*
X493259Y237289D01*
X493340Y237254D01*
X493409Y237220D01*
X493421Y237208D01*
X493433D01*
X493629Y237127D01*
X493826Y237069D01*
X493999Y237035D01*
X494161Y237011D01*
X494300Y236988D01*
X494416Y236977D01*
X494509D01*
Y237729D01*
X494347Y237763D01*
X494208Y237798D01*
X494092Y237844D01*
X493988Y237891D01*
X493918Y237925D01*
X493861Y237960D01*
X493826Y237972D01*
X493814Y237983D01*
X493699Y238110D01*
X493595Y238226D01*
X493513Y238342D01*
X493433Y238458D01*
X493363Y238539D01*
X493317Y238619D01*
X493294Y238666D01*
X493282Y238677D01*
X493143Y238955D01*
X493097Y239094D01*
X493051Y239221D01*
X493016Y239325D01*
X492993Y239406D01*
X492970Y239453D01*
Y239476D01*
X492923Y239603D01*
X492877Y239684D01*
X492831Y239742D01*
X492819Y239753D01*
X492750Y239811D01*
X492657Y239834D01*
X492588Y239846D01*
D02*
G37*
G36*
X482881Y242206D02*
X482846D01*
X482742Y242195D01*
X482661Y242160D01*
X482615Y242114D01*
X482591Y242102D01*
X482534Y242010D01*
X482487Y241905D01*
X482476Y241859D01*
X482464Y241824D01*
X482452Y241801D01*
Y241790D01*
X482429Y241697D01*
X482395Y241616D01*
X482372Y241547D01*
X482337Y241477D01*
X482314Y241431D01*
X482291Y241396D01*
X482279Y241385D01*
X482267Y241373D01*
X482210Y241315D01*
X482140Y241258D01*
X481990Y241165D01*
X481920Y241119D01*
X481874Y241084D01*
X481828Y241072D01*
X481816Y241061D01*
Y240332D01*
X481920Y240297D01*
X482001Y240263D01*
X482082Y240228D01*
X482140Y240181D01*
X482186Y240147D01*
X482221Y240112D01*
X482233Y240101D01*
X482244Y240089D01*
X482291Y240019D01*
X482337Y239950D01*
X482406Y239788D01*
X482429Y239719D01*
X482452Y239661D01*
X482464Y239615D01*
Y239603D01*
X482510Y239476D01*
X482557Y239383D01*
X482591Y239337D01*
X482603Y239314D01*
X482684Y239256D01*
X482765Y239233D01*
X482834Y239221D01*
X482858D01*
X482927Y239233D01*
X482996Y239244D01*
X483077Y239291D01*
X483135Y239325D01*
X483147Y239349D01*
X483170Y239406D01*
X483193Y239464D01*
X483216Y239591D01*
X483228Y239649D01*
Y239696D01*
Y239730D01*
Y239742D01*
Y241663D01*
Y241755D01*
X483216Y241824D01*
X483205Y241882D01*
Y241929D01*
X483193Y241963D01*
X483181Y241986D01*
X483170Y242010D01*
X483135Y242079D01*
X483089Y242125D01*
X483031Y242160D01*
X482973Y242183D01*
X482927Y242195D01*
X482881Y242206D01*
D02*
G37*
G36*
X470304Y242206D02*
X470269D01*
X470165Y242195D01*
X470084Y242160D01*
X470038Y242114D01*
X470015Y242102D01*
X469957Y242009D01*
X469911Y241905D01*
X469899Y241859D01*
X469887Y241824D01*
X469876Y241801D01*
Y241790D01*
X469853Y241697D01*
X469818Y241616D01*
X469795Y241547D01*
X469760Y241477D01*
X469737Y241431D01*
X469714Y241396D01*
X469702Y241385D01*
X469691Y241373D01*
X469633Y241315D01*
X469564Y241258D01*
X469413Y241165D01*
X469344Y241119D01*
X469298Y241084D01*
X469251Y241072D01*
X469240Y241061D01*
Y240332D01*
X469344Y240297D01*
X469425Y240263D01*
X469506Y240228D01*
X469564Y240181D01*
X469610Y240147D01*
X469645Y240112D01*
X469656Y240101D01*
X469668Y240089D01*
X469714Y240019D01*
X469760Y239950D01*
X469830Y239788D01*
X469853Y239719D01*
X469876Y239661D01*
X469887Y239615D01*
Y239603D01*
X469934Y239476D01*
X469980Y239383D01*
X470015Y239337D01*
X470026Y239314D01*
X470107Y239256D01*
X470188Y239233D01*
X470258Y239221D01*
X470281D01*
X470350Y239233D01*
X470420Y239244D01*
X470501Y239291D01*
X470559Y239325D01*
X470570Y239349D01*
X470593Y239406D01*
X470616Y239464D01*
X470640Y239591D01*
X470651Y239649D01*
Y239696D01*
Y239730D01*
Y239742D01*
Y241662D01*
Y241755D01*
X470640Y241824D01*
X470628Y241882D01*
Y241929D01*
X470616Y241963D01*
X470605Y241986D01*
X470593Y242009D01*
X470559Y242079D01*
X470512Y242125D01*
X470455Y242160D01*
X470397Y242183D01*
X470350Y242195D01*
X470304Y242206D01*
D02*
G37*
G36*
X497436Y244324D02*
X492195D01*
X494775D01*
X494404Y244289D01*
X494080Y244231D01*
X493803Y244150D01*
X493676Y244115D01*
X493571Y244069D01*
X493467Y244023D01*
X493375Y243988D01*
X493305Y243953D01*
X493247Y243919D01*
X493201Y243884D01*
X493155Y243872D01*
X493143Y243849D01*
X493132D01*
X492970Y243722D01*
X492831Y243595D01*
X492715Y243456D01*
X492611Y243317D01*
X492542Y243201D01*
X492484Y243109D01*
X492449Y243051D01*
X492438Y243039D01*
Y243028D01*
X492356Y242831D01*
X492299Y242634D01*
X492252Y242449D01*
X492229Y242287D01*
X492206Y242137D01*
X492195Y242021D01*
Y241177D01*
Y241917D01*
X492206Y241697D01*
X492241Y241500D01*
X492287Y241304D01*
X492345Y241119D01*
X492426Y240957D01*
X492507Y240795D01*
X492599Y240656D01*
X492692Y240529D01*
X492785Y240413D01*
X492877Y240309D01*
X492958Y240228D01*
X493039Y240147D01*
X493097Y240089D01*
X493143Y240054D01*
X493178Y240031D01*
X493189Y240019D01*
X493340Y239915D01*
X493479Y239834D01*
X493537Y239800D01*
X493583Y239776D01*
X493606Y239753D01*
X493618D01*
X493722Y239707D01*
X493849Y239649D01*
X493999Y239580D01*
X494138Y239510D01*
X494277Y239453D01*
X494381Y239406D01*
X494427Y239383D01*
X494462Y239372D01*
X494474Y239360D01*
X494485D01*
X494670Y239267D01*
X494832Y239198D01*
X494960Y239129D01*
X495064Y239071D01*
X495133Y239024D01*
X495191Y238990D01*
X495214Y238967D01*
X495226Y238955D01*
X495318Y238874D01*
X495376Y238781D01*
X495423Y238701D01*
X495457Y238619D01*
X495480Y238550D01*
X495492Y238492D01*
Y238458D01*
Y238446D01*
X495480Y238353D01*
X495469Y238261D01*
X495434Y238180D01*
X495411Y238122D01*
X495376Y238076D01*
X495341Y238041D01*
X495330Y238018D01*
X495318Y238006D01*
X495249Y237948D01*
X495145Y237891D01*
X494937Y237798D01*
X494832Y237763D01*
X494752Y237740D01*
X494694Y237729D01*
X494670Y237717D01*
Y236977D01*
X494832D01*
X494971Y236988D01*
X495110Y237011D01*
X495226Y237023D01*
X495330Y237046D01*
X495399Y237058D01*
X495457Y237069D01*
X495469D01*
X495608Y237104D01*
X495735Y237150D01*
X495862Y237196D01*
X495955Y237231D01*
X496047Y237266D01*
X496105Y237301D01*
X496151Y237312D01*
X496163Y237324D01*
X496371Y237451D01*
X496556Y237601D01*
X496718Y237752D01*
X496846Y237891D01*
X496950Y238018D01*
X497031Y238122D01*
X497077Y238192D01*
X497089Y238203D01*
Y238215D01*
X497204Y238434D01*
X497285Y238643D01*
X497355Y238851D01*
X497389Y239048D01*
X497413Y239210D01*
X497436Y239337D01*
Y237844D01*
Y239453D01*
X497424Y239615D01*
X497401Y239776D01*
X497366Y239938D01*
X497320Y240077D01*
X497204Y240355D01*
X497077Y240586D01*
X497008Y240691D01*
X496950Y240772D01*
X496880Y240853D01*
X496834Y240922D01*
X496788Y240968D01*
X496753Y241003D01*
X496730Y241026D01*
X496718Y241038D01*
X496661Y241119D01*
X496603Y241188D01*
X496464Y241315D01*
X496406Y241362D01*
X496360Y241396D01*
X496325Y241408D01*
X496313Y241420D01*
X496209Y241477D01*
X496094Y241547D01*
X495978Y241605D01*
X495862Y241663D01*
X495758Y241720D01*
X495677Y241755D01*
X495619Y241778D01*
X495596Y241790D01*
X495469Y241848D01*
X495341Y241894D01*
X495145Y241986D01*
X494971Y242067D01*
X494844Y242125D01*
X494752Y242172D01*
X494694Y242206D01*
X494659Y242229D01*
X494647D01*
X494555Y242287D01*
X494474Y242345D01*
X494404Y242391D01*
X494347Y242438D01*
X494300Y242484D01*
X494277Y242519D01*
X494266Y242530D01*
X494254Y242542D01*
X494184Y242681D01*
X494150Y242808D01*
Y242854D01*
X494138Y242900D01*
Y242924D01*
Y242935D01*
X494150Y243016D01*
X494161Y243086D01*
X494208Y243201D01*
X494231Y243248D01*
X494254Y243282D01*
X494277Y243294D01*
Y243305D01*
X494335Y243363D01*
X494416Y243409D01*
X494578Y243491D01*
X494659Y243525D01*
X494717Y243548D01*
X494763Y243560D01*
X494775D01*
Y244324D01*
X497436D01*
D01*
D02*
G37*
G36*
X478241Y244196D02*
X475000D01*
X476459D01*
X476297Y244185D01*
X476182Y244150D01*
X476135Y244127D01*
X476101Y244104D01*
X476089Y244092D01*
X476078D01*
X476031Y244057D01*
X475996Y244011D01*
X475962Y243919D01*
X475939Y243838D01*
Y243814D01*
Y243803D01*
X475950Y243710D01*
X475973Y243641D01*
X476020Y243571D01*
X476066Y243525D01*
X476101Y243491D01*
X476147Y243467D01*
X476170Y243456D01*
X476182D01*
X476344Y243398D01*
X476436Y243340D01*
X476506Y243282D01*
X476552Y243236D01*
X476563Y243224D01*
Y243213D01*
X476587Y243132D01*
X476610Y243074D01*
Y243028D01*
Y243016D01*
Y242993D01*
X476598Y242970D01*
X476575Y242889D01*
X476563Y242819D01*
X476552Y242796D01*
Y242785D01*
X475962Y240633D01*
X476332Y239580D01*
X477223Y242530D01*
X477269Y242657D01*
X477304Y242773D01*
X477350Y242866D01*
X477385Y242947D01*
X477420Y243005D01*
X477443Y243051D01*
X477454Y243074D01*
X477466Y243086D01*
X477512Y243155D01*
X477570Y243213D01*
X477616Y243259D01*
X477651Y243294D01*
X477709Y243340D01*
X477732Y243352D01*
X477952Y243467D01*
X478056Y243525D01*
X478137Y243571D01*
X478172Y243606D01*
X478183Y243618D01*
X478218Y243687D01*
X478230Y243757D01*
X478241Y243803D01*
Y237740D01*
Y243826D01*
X478230Y243896D01*
X478218Y243953D01*
X478149Y244046D01*
X478091Y244104D01*
X478067Y244127D01*
X478056D01*
X478010Y244150D01*
X477963Y244173D01*
X477848Y244185D01*
X477790Y244196D01*
X478241D01*
D01*
D02*
G37*
G36*
X510880Y244196D02*
X509573D01*
X509422Y244185D01*
X509306Y244150D01*
X509237Y244115D01*
X509226Y244104D01*
X509214D01*
X509144Y244023D01*
X509110Y243930D01*
X509098Y243861D01*
Y243838D01*
Y243826D01*
X509110Y243745D01*
X509121Y243676D01*
X509133Y243629D01*
X509144Y243618D01*
X509202Y243560D01*
X509260Y243514D01*
X509318Y243479D01*
X509341Y243467D01*
X509445Y243409D01*
X509526Y243352D01*
X509596Y243294D01*
X509642Y243248D01*
X509688Y243190D01*
X509712Y243155D01*
X509735Y243132D01*
Y243120D01*
X509769Y243039D01*
X509804Y242947D01*
X509839Y242750D01*
X509850Y242669D01*
Y242600D01*
Y242553D01*
Y242530D01*
Y241107D01*
X510602Y240124D01*
Y242530D01*
Y242657D01*
X510614Y242762D01*
X510637Y242866D01*
X510649Y242947D01*
X510672Y243016D01*
X510683Y243062D01*
X510695Y243097D01*
Y243109D01*
X510741Y243178D01*
X510787Y243236D01*
X510903Y243340D01*
X510950Y243375D01*
X510996Y243398D01*
X511019Y243421D01*
X511030D01*
X511100Y243456D01*
X511158Y243491D01*
X511250Y243548D01*
X511297Y243583D01*
X511308Y243595D01*
X511354Y243664D01*
X511366Y243734D01*
X511377Y243791D01*
Y237370D01*
Y243814D01*
X511366Y243919D01*
X511331Y243988D01*
X511297Y244034D01*
X511285Y244046D01*
X511227Y244092D01*
X511158Y244138D01*
X511007Y244173D01*
X510938Y244185D01*
X510880Y244196D01*
D02*
G37*
G36*
X504297Y244324D02*
X497933D01*
X501011D01*
X500768Y244312D01*
X500536Y244277D01*
X500340Y244243D01*
X500178Y244196D01*
X500039Y244162D01*
X499935Y244127D01*
X499877Y244104D01*
X499854Y244092D01*
X499680Y244011D01*
X499518Y243919D01*
X499379Y243814D01*
X499252Y243722D01*
X499136Y243641D01*
X499055Y243571D01*
X499009Y243525D01*
X498986Y243502D01*
X498801Y243294D01*
X498639Y243086D01*
X498500Y242877D01*
X498384Y242681D01*
X498303Y242507D01*
X498269Y242438D01*
X498234Y242380D01*
X498211Y242322D01*
X498199Y242287D01*
X498188Y242264D01*
Y242252D01*
X498107Y241975D01*
X498037Y241697D01*
X497991Y241420D01*
X497968Y241177D01*
X497956Y241061D01*
X497945Y240957D01*
Y240864D01*
X497933Y240783D01*
Y240795D01*
Y240633D01*
X497945Y240309D01*
X497979Y239996D01*
X498026Y239707D01*
X498095Y239441D01*
X498165Y239187D01*
X498257Y238955D01*
X498338Y238747D01*
X498442Y238562D01*
X498535Y238388D01*
X498627Y238249D01*
X498708Y238122D01*
X498778Y238018D01*
X498847Y237937D01*
X498893Y237879D01*
X498928Y237844D01*
X498940Y237833D01*
X499090Y237694D01*
X499252Y237578D01*
X499426Y237474D01*
X499599Y237382D01*
X499773Y237301D01*
X499946Y237231D01*
X500270Y237116D01*
X500421Y237081D01*
X500560Y237046D01*
X500687Y237023D01*
X500803Y237000D01*
X500884Y236988D01*
X500953D01*
X500999Y236977D01*
X497933D01*
X501011D01*
Y237694D01*
X500907Y237729D01*
X500826Y237763D01*
X500768Y237798D01*
X500722Y237833D01*
X500687Y237856D01*
X500664Y237879D01*
X500641Y237902D01*
X500606Y237972D01*
X500583Y238053D01*
X500560Y238238D01*
X500548Y238319D01*
Y238388D01*
Y238434D01*
Y238458D01*
Y242970D01*
Y243062D01*
X500560Y243155D01*
X500571Y243224D01*
X500594Y243282D01*
X500606Y243317D01*
X500618Y243352D01*
X500629Y243375D01*
X500664Y243421D01*
X500722Y243467D01*
X500849Y243537D01*
X500907Y243571D01*
X500964Y243583D01*
X500999Y243606D01*
X501011D01*
Y244324D01*
X501207D01*
Y243606D01*
X501277Y243583D01*
X501335Y243548D01*
X501427Y243514D01*
X501474Y243491D01*
X501485Y243479D01*
X501532Y243433D01*
X501566Y243398D01*
X501589Y243352D01*
X501601Y243340D01*
X501647Y243224D01*
X501670Y243109D01*
X501682Y243051D01*
Y243005D01*
Y242981D01*
Y242970D01*
Y238458D01*
Y238319D01*
X501659Y238203D01*
X501647Y238110D01*
X501624Y238030D01*
X501601Y237972D01*
X501578Y237925D01*
X501566Y237902D01*
X501555Y237891D01*
X501520Y237844D01*
X501485Y237810D01*
X501462Y237798D01*
X501450Y237787D01*
X501427Y237775D01*
X501393Y237763D01*
X501312Y237729D01*
X501242Y237717D01*
X501219Y237705D01*
X501207D01*
Y236977D01*
X501439Y237000D01*
X501670Y237035D01*
X501879Y237081D01*
X502075Y237150D01*
X502260Y237208D01*
X502422Y237289D01*
X502584Y237358D01*
X502723Y237439D01*
X502839Y237509D01*
X502955Y237578D01*
X503047Y237648D01*
X503128Y237705D01*
X503186Y237763D01*
X503232Y237798D01*
X503255Y237821D01*
X503267Y237833D01*
X503452Y238030D01*
X503603Y238249D01*
X503741Y238469D01*
X503857Y238701D01*
X503961Y238932D01*
X504042Y239163D01*
X504112Y239395D01*
X504169Y239615D01*
X504216Y239823D01*
X504239Y240019D01*
X504262Y240193D01*
X504285Y240343D01*
Y240459D01*
X504297Y240552D01*
Y237254D01*
Y240633D01*
X504285Y240968D01*
X504250Y241281D01*
X504193Y241582D01*
X504135Y241848D01*
X504042Y242114D01*
X503961Y242345D01*
X503857Y242565D01*
X503764Y242750D01*
X503660Y242924D01*
X503556Y243074D01*
X503475Y243201D01*
X503394Y243317D01*
X503325Y243398D01*
X503267Y243456D01*
X503232Y243491D01*
X503221Y243502D01*
X503070Y243641D01*
X502920Y243757D01*
X502770Y243861D01*
X502642Y243942D01*
X502527Y244011D01*
X502434Y244057D01*
X502376Y244081D01*
X502353Y244092D01*
X502168Y244162D01*
X501971Y244219D01*
X501786Y244254D01*
X501601Y244289D01*
X501450Y244300D01*
X501323Y244312D01*
X501277Y244324D01*
X504297D01*
D02*
G37*
G36*
X507860Y244196D02*
X505454D01*
X505338Y244185D01*
X505257D01*
X505188Y244173D01*
X505141Y244162D01*
X505107D01*
X505084Y244150D01*
X505014Y244104D01*
X504968Y244057D01*
X504933Y244023D01*
X504921Y244000D01*
X504887Y243930D01*
X504875Y243861D01*
X504864Y243814D01*
Y243791D01*
X504875Y243710D01*
X504898Y243641D01*
X504910Y243595D01*
X504921Y243583D01*
X504979Y243525D01*
X505037Y243491D01*
X505084Y243467D01*
X505095Y243456D01*
X505245Y243398D01*
X505326Y243363D01*
X505384Y243328D01*
X505419Y243305D01*
X505431Y243294D01*
X505454Y243271D01*
X505477Y243236D01*
X505535Y243155D01*
X505581Y243086D01*
X505593Y243062D01*
Y243051D01*
X509040Y237104D01*
X507710D01*
X510602D01*
Y239453D01*
X507860Y244196D01*
D02*
G37*
G36*
X505581Y242414D02*
Y238724D01*
X505569Y238504D01*
X505523Y238319D01*
X505465Y238168D01*
X505407Y238053D01*
X505338Y237960D01*
X505280Y237902D01*
X505234Y237867D01*
X505222Y237856D01*
X505141Y237810D01*
X505060Y237775D01*
X505014Y237740D01*
X504968Y237717D01*
X504933Y237694D01*
X504910Y237671D01*
X504898Y237659D01*
X504864Y237601D01*
X504852Y237532D01*
X504841Y237486D01*
Y237104D01*
Y237463D01*
X504852Y237405D01*
X504864Y237347D01*
X504933Y237254D01*
X505014Y237196D01*
X505118Y237150D01*
X505222Y237127D01*
X505315Y237116D01*
X505373Y237104D01*
X506669D01*
X506749Y237116D01*
X506819Y237127D01*
X506865Y237150D01*
X506912Y237162D01*
X506935Y237173D01*
X506958Y237185D01*
X507004Y237231D01*
X507050Y237277D01*
X507085Y237370D01*
X507108Y237439D01*
Y237451D01*
Y237463D01*
X507097Y237532D01*
X507073Y237601D01*
X507016Y237694D01*
X506946Y237752D01*
X506923Y237775D01*
X506912D01*
X506761Y237856D01*
X506622Y237960D01*
X506518Y238064D01*
X506483Y238110D01*
X506460Y238145D01*
X506437Y238168D01*
Y238180D01*
X506402Y238261D01*
X506379Y238353D01*
X506345Y238527D01*
Y238608D01*
X506333Y238666D01*
Y238712D01*
Y238724D01*
Y241443D01*
X505581Y242414D01*
D02*
G37*
G36*
X487821Y244196D02*
X485322D01*
X485172Y244185D01*
X485067Y244150D01*
X484998Y244104D01*
X484986Y244092D01*
X484975D01*
X484929Y244057D01*
X484905Y244011D01*
X484859Y243930D01*
X484847Y243861D01*
Y243826D01*
X484859Y243722D01*
X484894Y243641D01*
X484929Y243583D01*
X484986Y243537D01*
X485033Y243502D01*
X485067Y243479D01*
X485102Y243456D01*
X485114D01*
X485160Y243433D01*
X485206Y243421D01*
X485253Y243398D01*
X485276Y243386D01*
X485299Y243375D01*
X485310Y243363D01*
X485333Y243305D01*
X485357Y243248D01*
Y243190D01*
Y243178D01*
Y243167D01*
Y238122D01*
X485345Y238030D01*
X485333Y237972D01*
X485322Y237937D01*
X485310Y237925D01*
X485287Y237902D01*
X485276Y237891D01*
X485264D01*
X485241Y237879D01*
X485195Y237867D01*
X485137Y237844D01*
X485125Y237833D01*
X485114D01*
X485021Y237787D01*
X484963Y237740D01*
X484917Y237671D01*
X484882Y237613D01*
X484859Y237555D01*
X484847Y237509D01*
Y236965D01*
Y237463D01*
X484859Y237393D01*
X484871Y237347D01*
X484917Y237254D01*
X484952Y237208D01*
X484975Y237185D01*
X485079Y237139D01*
X485195Y237116D01*
X485241Y237104D01*
X487971D01*
X488041Y237116D01*
X488110Y237127D01*
X488157Y237139D01*
X488203Y237150D01*
X488226Y237162D01*
X488249Y237173D01*
X488318Y237220D01*
X488365Y237266D01*
X488400Y237324D01*
X488423Y237370D01*
X488446Y237439D01*
Y237463D01*
Y237474D01*
X488434Y237578D01*
X488388Y237659D01*
X488330Y237729D01*
X488261Y237775D01*
X488180Y237810D01*
X488122Y237844D01*
X488076Y237856D01*
X488064D01*
X487983Y237879D01*
X487937Y237891D01*
X487925Y237902D01*
X487914D01*
X487890Y237914D01*
X487867Y237937D01*
X487856Y237960D01*
X487844Y237972D01*
X487833Y237983D01*
Y238006D01*
X487821Y238076D01*
Y238134D01*
Y238145D01*
Y238157D01*
Y244196D01*
D02*
G37*
G36*
X481620D02*
X479120Y244196D01*
X478970Y244185D01*
X478866Y244150D01*
X478796Y244104D01*
X478785Y244092D01*
X478773D01*
X478727Y244057D01*
X478704Y244011D01*
X478658Y243930D01*
X478646Y243861D01*
Y243826D01*
X478658Y243722D01*
X478692Y243641D01*
X478727Y243583D01*
X478785Y243537D01*
X478831Y243502D01*
X478866Y243479D01*
X478901Y243456D01*
X478912D01*
X478958Y243433D01*
X479005Y243421D01*
X479051Y243398D01*
X479074Y243386D01*
X479097Y243375D01*
X479109Y243363D01*
X479132Y243305D01*
X479155Y243248D01*
Y243190D01*
Y243178D01*
Y243167D01*
Y238122D01*
X479143Y238030D01*
X479132Y237972D01*
X479120Y237937D01*
X479109Y237925D01*
X479086Y237902D01*
X479074Y237891D01*
X479063D01*
X479039Y237879D01*
X478993Y237867D01*
X478935Y237844D01*
X478924Y237833D01*
X478912D01*
X478820Y237787D01*
X478762Y237740D01*
X478715Y237671D01*
X478681Y237613D01*
X478658Y237555D01*
X478646Y237509D01*
Y237104D01*
Y237462D01*
X478658Y237393D01*
X478669Y237347D01*
X478715Y237254D01*
X478750Y237208D01*
X478773Y237185D01*
X478877Y237139D01*
X478993Y237115D01*
X479039Y237104D01*
X484165Y237104D01*
Y238978D01*
X484153Y239129D01*
X484119Y239244D01*
X484084Y239314D01*
X484072Y239337D01*
X484038Y239383D01*
X483991Y239406D01*
X483899Y239453D01*
X483829Y239464D01*
X483795D01*
X483691Y239453D01*
X483621Y239429D01*
X483563Y239395D01*
X483552Y239383D01*
X483494Y239302D01*
X483448Y239210D01*
X483424Y239140D01*
X483413Y239117D01*
Y239106D01*
X483367Y238990D01*
X483332Y238897D01*
X483286Y238816D01*
X483251Y238735D01*
X483216Y238689D01*
X483193Y238643D01*
X483181Y238619D01*
X483170Y238608D01*
X483077Y238469D01*
X482973Y238353D01*
X482927Y238307D01*
X482892Y238272D01*
X482869Y238249D01*
X482858Y238238D01*
X482707Y238122D01*
X482580Y238041D01*
X482522Y238018D01*
X482487Y237995D01*
X482464Y237983D01*
X482452D01*
X482372Y237948D01*
X482279Y237925D01*
X482082Y237879D01*
X481990Y237856D01*
X481920Y237844D01*
X481874Y237833D01*
X481851D01*
Y237104D01*
X481620D01*
Y244196D01*
D02*
G37*
G36*
X474944Y244196D02*
X471993D01*
X472479D01*
X472398Y244185D01*
X472329Y244173D01*
X472271Y244150D01*
X472225Y244138D01*
X472190Y244115D01*
X472178Y244104D01*
X472167D01*
X472109Y244057D01*
X472063Y244000D01*
X472040Y243953D01*
X472016Y243896D01*
X472005Y243849D01*
X471993Y243814D01*
Y243780D01*
X472005Y243676D01*
X472028Y243606D01*
X472051Y243560D01*
X472063Y243548D01*
X472132Y243502D01*
X472213Y243456D01*
X472283Y243421D01*
X472294Y243409D01*
X472306D01*
X472340Y243386D01*
X472364Y243363D01*
X472375Y243352D01*
Y243340D01*
X472398Y243305D01*
X472421Y243259D01*
X472433Y243224D01*
X472444Y243201D01*
X474249Y237104D01*
X471993D01*
X475753D01*
X476251Y238967D01*
X475082Y243074D01*
X475071Y243120D01*
Y243167D01*
Y243201D01*
Y243213D01*
Y243271D01*
X475082Y243317D01*
X475094Y243340D01*
Y243352D01*
X475129Y243386D01*
X475175Y243421D01*
X475221Y243433D01*
X475233Y243444D01*
X475314Y243491D01*
X475372Y243548D01*
X475418Y243618D01*
X475441Y243676D01*
X475464Y243734D01*
X475476Y243768D01*
Y243803D01*
Y243814D01*
X475464Y243872D01*
X475453Y243930D01*
X475430Y243965D01*
X475418Y243976D01*
X475383Y244034D01*
X475349Y244081D01*
X475314Y244104D01*
X475302Y244115D01*
X475244Y244150D01*
X475187Y244162D01*
X475140Y244173D01*
X475129D01*
X475094Y244185D01*
X475036D01*
X474944Y244196D01*
D02*
G37*
G36*
X469043D02*
X466544D01*
X466393Y244185D01*
X466289Y244150D01*
X466220Y244104D01*
X466208Y244092D01*
X466197D01*
X466150Y244057D01*
X466127Y244011D01*
X466081Y243930D01*
X466069Y243861D01*
Y243826D01*
X466081Y243722D01*
X466116Y243641D01*
X466150Y243583D01*
X466208Y243537D01*
X466255Y243502D01*
X466289Y243479D01*
X466324Y243456D01*
X466335D01*
X466382Y243433D01*
X466428Y243421D01*
X466474Y243398D01*
X466498Y243386D01*
X466521Y243375D01*
X466532Y243363D01*
X466555Y243305D01*
X466578Y243248D01*
Y243190D01*
Y243178D01*
Y243167D01*
Y238122D01*
X466567Y238030D01*
X466555Y237972D01*
X466544Y237937D01*
X466532Y237925D01*
X466509Y237902D01*
X466498Y237891D01*
X466486D01*
X466463Y237879D01*
X466417Y237867D01*
X466359Y237844D01*
X466347Y237833D01*
X466335D01*
X466243Y237787D01*
X466185Y237740D01*
X466139Y237671D01*
X466104Y237613D01*
X466081Y237555D01*
X466069Y237509D01*
Y237104D01*
Y237462D01*
X466081Y237393D01*
X466093Y237347D01*
X466139Y237254D01*
X466174Y237208D01*
X466197Y237185D01*
X466301Y237139D01*
X466417Y237115D01*
X466463Y237104D01*
X471588D01*
Y238978D01*
X471577Y239129D01*
X471542Y239244D01*
X471507Y239314D01*
X471496Y239337D01*
X471461Y239383D01*
X471415Y239406D01*
X471322Y239453D01*
X471253Y239464D01*
X471218D01*
X471114Y239453D01*
X471044Y239429D01*
X470987Y239395D01*
X470975Y239383D01*
X470917Y239302D01*
X470871Y239210D01*
X470848Y239140D01*
X470836Y239117D01*
Y239106D01*
X470790Y238990D01*
X470755Y238897D01*
X470709Y238816D01*
X470674Y238735D01*
X470640Y238689D01*
X470616Y238643D01*
X470605Y238619D01*
X470593Y238608D01*
X470501Y238469D01*
X470397Y238353D01*
X470350Y238307D01*
X470316Y238272D01*
X470293Y238249D01*
X470281Y238238D01*
X470130Y238122D01*
X470003Y238041D01*
X469945Y238018D01*
X469911Y237995D01*
X469887Y237983D01*
X469876D01*
X469795Y237948D01*
X469702Y237925D01*
X469506Y237879D01*
X469413Y237856D01*
X469344Y237844D01*
X469298Y237833D01*
X469274D01*
Y237104D01*
X469043D01*
Y244196D01*
D02*
G37*
G36*
X491732Y244196D02*
X487983D01*
Y243444D01*
X488110Y243409D01*
X488214Y243363D01*
X488295Y243328D01*
X488365Y243294D01*
X488400Y243259D01*
X488434Y243236D01*
X488457Y243224D01*
Y243213D01*
X488492Y243155D01*
X488515Y243097D01*
X488550Y242958D01*
X488561Y242900D01*
Y242854D01*
Y242819D01*
Y242808D01*
Y241466D01*
Y241327D01*
X488550Y241234D01*
X488538Y241188D01*
X488527Y241165D01*
X488492Y241095D01*
X488446Y241026D01*
X488400Y240980D01*
X488388Y240957D01*
X488353Y240945D01*
X488307Y240922D01*
X488180Y240899D01*
X488110Y240887D01*
X488052Y240876D01*
X488018Y240864D01*
X488006D01*
Y240147D01*
X488110Y240135D01*
X488203Y240101D01*
X488272Y240077D01*
X488330Y240043D01*
X488376Y240019D01*
X488400Y239996D01*
X488423Y239985D01*
Y239973D01*
X488492Y239869D01*
X488527Y239765D01*
X488538Y239730D01*
X488550Y239696D01*
Y239672D01*
Y239661D01*
Y239638D01*
X488561Y239603D01*
Y239499D01*
Y239441D01*
Y239406D01*
Y239372D01*
Y239360D01*
Y238504D01*
X488573Y238249D01*
X488619Y238030D01*
X488689Y237833D01*
X488758Y237671D01*
X488828Y237544D01*
X488897Y237451D01*
X488943Y237393D01*
X488955Y237370D01*
X489117Y237231D01*
X489302Y237139D01*
X489487Y237069D01*
X489672Y237011D01*
X489834Y236988D01*
X489961Y236977D01*
X490008Y236965D01*
X491732D01*
X490204D01*
X490320Y236977D01*
X490424Y236988D01*
X490505Y237011D01*
X490575Y237023D01*
X490632Y237035D01*
X490667Y237046D01*
X490679D01*
X490864Y237116D01*
X490945Y237150D01*
X491026Y237196D01*
X491084Y237231D01*
X491130Y237266D01*
X491153Y237277D01*
X491165Y237289D01*
X491327Y237439D01*
X491454Y237578D01*
X491500Y237636D01*
X491547Y237682D01*
X491558Y237717D01*
X491570Y237729D01*
X491628Y237821D01*
X491662Y237902D01*
X491709Y238030D01*
X491720Y238087D01*
X491732Y238122D01*
Y238203D01*
X491709Y238249D01*
X491674Y238330D01*
X491628Y238388D01*
X491616Y238411D01*
X491604D01*
X491558Y238458D01*
X491512Y238481D01*
X491431Y238527D01*
X491373Y238539D01*
X491350D01*
X491281Y238527D01*
X491223Y238504D01*
X491107Y238423D01*
X491061Y238377D01*
X491026Y238342D01*
X491014Y238319D01*
X491003Y238307D01*
X490968Y238272D01*
Y238284D01*
Y238296D01*
Y238307D01*
Y239360D01*
Y239453D01*
X490945Y239545D01*
X490933Y239626D01*
X490910Y239696D01*
X490887Y239765D01*
X490864Y239811D01*
X490852Y239834D01*
X490841Y239846D01*
X490725Y240019D01*
X490609Y240147D01*
X490552Y240205D01*
X490505Y240239D01*
X490482Y240263D01*
X490471Y240274D01*
X490309Y240378D01*
X490158Y240448D01*
X490089Y240482D01*
X490042Y240506D01*
X490008Y240517D01*
X489996D01*
X489788Y240575D01*
X489684Y240586D01*
X489580Y240598D01*
X489487Y240610D01*
X489360D01*
X489510Y240621D01*
X489649Y240644D01*
X489765Y240667D01*
X489869Y240691D01*
X489950Y240714D01*
X490008Y240737D01*
X490042Y240760D01*
X490054D01*
X490239Y240864D01*
X490320Y240922D01*
X490390Y240968D01*
X490436Y241015D01*
X490482Y241049D01*
X490505Y241072D01*
X490517Y241084D01*
X490679Y241281D01*
X490795Y241477D01*
X490887Y241686D01*
X490945Y241882D01*
X490980Y242056D01*
X490991Y242137D01*
Y242195D01*
X491003Y242252D01*
Y242287D01*
Y242310D01*
Y242322D01*
X490991Y242495D01*
X490968Y242646D01*
X490933Y242796D01*
X490887Y242935D01*
X490771Y243178D01*
X490644Y243386D01*
X490517Y243537D01*
X490401Y243653D01*
X490355Y243699D01*
X490320Y243722D01*
X490297Y243745D01*
X490285D01*
X490100Y243861D01*
X489915Y243953D01*
X489730Y244023D01*
X489557Y244081D01*
X489406Y244115D01*
X489290Y244138D01*
X489244D01*
X489209Y244150D01*
X489186D01*
X489024Y244162D01*
X488862Y244173D01*
X488700Y244185D01*
X488550Y244196D01*
X491732D01*
D02*
G37*
%LPD*%
G36*
X465364Y236977D02*
X462760D01*
X462899Y236988D01*
X463038Y237011D01*
X463154Y237023D01*
X463258Y237046D01*
X463327Y237058D01*
X463385Y237069D01*
X463397D01*
X463536Y237104D01*
X463663Y237150D01*
X463790Y237196D01*
X463883Y237231D01*
X463975Y237266D01*
X464033Y237301D01*
X464079Y237312D01*
X464091Y237324D01*
X464299Y237451D01*
X464484Y237601D01*
X464646Y237752D01*
X464774Y237891D01*
X464878Y238018D01*
X464959Y238122D01*
X465005Y238191D01*
X465017Y238203D01*
Y238215D01*
X465132Y238434D01*
X465213Y238643D01*
X465283Y238851D01*
X465317Y239048D01*
X465341Y239210D01*
X465364Y239337D01*
Y236977D01*
D02*
G37*
G36*
X460134Y237393D02*
X460180Y237254D01*
X460238Y237162D01*
X460319Y237104D01*
X460389Y237058D01*
X460446Y237046D01*
X460493Y237035D01*
X460504D01*
X460562Y237046D01*
X460620Y237058D01*
X460701Y237104D01*
X460759Y237150D01*
X460782Y237173D01*
X460851Y237254D01*
X460886Y237301D01*
X460909Y237324D01*
X460944Y237335D01*
X460979Y237347D01*
X461048D01*
X461083Y237335D01*
X461106Y237324D01*
X461118Y237312D01*
X461187Y237289D01*
X461268Y237254D01*
X461337Y237220D01*
X461349Y237208D01*
X461360D01*
X461557Y237127D01*
X461754Y237069D01*
X461927Y237035D01*
X462089Y237011D01*
X462228Y236988D01*
X462344Y236977D01*
X460122D01*
Y237474D01*
X460134Y237393D01*
D02*
G37*
%LPC*%
G36*
X474168Y235546D02*
X468673D01*
Y228188D01*
Y231775D01*
X468684Y231567D01*
X468696Y231358D01*
X468754Y230976D01*
X468835Y230641D01*
X468881Y230479D01*
X468927Y230340D01*
X468973Y230213D01*
X469020Y230097D01*
X469066Y229993D01*
X469101Y229912D01*
X469136Y229842D01*
X469159Y229796D01*
X469182Y229762D01*
Y229750D01*
X469274Y229576D01*
X469367Y229403D01*
X469483Y229264D01*
X469587Y229125D01*
X469679Y229021D01*
X469760Y228940D01*
X469806Y228894D01*
X469830Y228871D01*
X470003Y228732D01*
X470177Y228628D01*
X470339Y228524D01*
X470501Y228454D01*
X470628Y228396D01*
X470732Y228350D01*
X470802Y228327D01*
X470813Y228315D01*
X470825D01*
X470975Y228269D01*
X471102Y228234D01*
X471137Y228223D01*
X471172Y228211D01*
X471195D01*
X471253Y228200D01*
X471322D01*
X471473Y228188D01*
X471635D01*
Y228917D01*
X471554Y228952D01*
X471484Y228986D01*
X471438Y229010D01*
X471403Y229044D01*
X471357Y229079D01*
X471345Y229090D01*
X471322Y229148D01*
X471311Y229206D01*
X471299Y229333D01*
X471287Y229380D01*
Y229426D01*
Y229461D01*
Y229472D01*
Y234170D01*
X471311Y234343D01*
X471357Y234482D01*
X471426Y234598D01*
X471507Y234679D01*
X471588Y234737D01*
X471658Y234771D01*
X471704Y234794D01*
X471727D01*
Y235535D01*
X471588D01*
X471461Y235523D01*
X471357D01*
X471276Y235512D01*
X471207Y235500D01*
X471160D01*
X471126Y235489D01*
X471114D01*
X470940Y235431D01*
X470767Y235373D01*
X470616Y235304D01*
X470478Y235234D01*
X470362Y235176D01*
X470269Y235119D01*
X470223Y235084D01*
X470200Y235072D01*
X469934Y234875D01*
X469714Y234656D01*
X469517Y234436D01*
X469355Y234216D01*
X469228Y234031D01*
X469182Y233938D01*
X469136Y233869D01*
X469112Y233811D01*
X469089Y233765D01*
X469066Y233742D01*
Y233730D01*
X468939Y233406D01*
X468835Y233059D01*
X468765Y232735D01*
X468719Y232434D01*
X468707Y232295D01*
X468696Y232168D01*
X468684Y232052D01*
Y231960D01*
X468673Y231879D01*
Y235546D01*
X474134D01*
X474064Y235535D01*
X474007Y235523D01*
X473914Y235466D01*
X473844Y235396D01*
X473833Y235385D01*
X473821Y235373D01*
X473787Y235315D01*
X473752Y235269D01*
X473706Y235211D01*
X473694Y235188D01*
X473682Y235176D01*
X473636Y235165D01*
X473613D01*
X473567Y235176D01*
X473509Y235188D01*
X473474Y235199D01*
X473451Y235211D01*
X473220Y235292D01*
X472965Y235361D01*
X472711Y235419D01*
X472468Y235466D01*
X472259Y235500D01*
X472167Y235512D01*
X472086Y235523D01*
X472016D01*
X471970Y235535D01*
X471924D01*
Y234783D01*
X472086Y234771D01*
X472225Y234748D01*
X472340Y234725D01*
X472433Y234702D01*
X472514Y234679D01*
X472560Y234667D01*
X472595Y234644D01*
X472607D01*
X472699Y234598D01*
X472792Y234540D01*
X472942Y234424D01*
X473011Y234366D01*
X473058Y234320D01*
X473092Y234285D01*
X473104Y234274D01*
X473150Y234193D01*
X473197Y234112D01*
X473301Y233938D01*
X473335Y233857D01*
X473370Y233788D01*
X473393Y233742D01*
X473405Y233730D01*
X473474Y233603D01*
X473532Y233475D01*
X473578Y233371D01*
X473613Y233279D01*
X473636Y233198D01*
X473659Y233140D01*
X473671Y233105D01*
Y233094D01*
X473694Y233013D01*
X473729Y232932D01*
X473752Y232874D01*
X473775Y232828D01*
X473821Y232770D01*
X473833Y232747D01*
X473914Y232689D01*
X474007Y232666D01*
X474076Y232654D01*
X474111D01*
X474249Y232677D01*
X474342Y232723D01*
X474411Y232804D01*
X474469Y232897D01*
X474492Y232978D01*
X474504Y233059D01*
X474515Y233105D01*
Y233128D01*
Y235095D01*
X474504Y235234D01*
X474469Y235338D01*
X474435Y235396D01*
X474423Y235419D01*
X474388Y235466D01*
X474342Y235489D01*
X474249Y235535D01*
X474203D01*
X474168Y235546D01*
D02*
G37*
G36*
X499634Y235408D02*
X497135D01*
X496984Y235396D01*
X496880Y235361D01*
X496811Y235315D01*
X496799Y235304D01*
X496788D01*
X496741Y235269D01*
X496718Y235223D01*
X496672Y235142D01*
X496661Y235072D01*
Y235408D01*
D01*
D01*
Y228315D01*
D01*
Y228674D01*
X496672Y228605D01*
X496684Y228558D01*
X496730Y228466D01*
X496765Y228419D01*
X496788Y228396D01*
X496892Y228350D01*
X497008Y228327D01*
X497054Y228315D01*
X499784D01*
X499854Y228327D01*
X499923Y228339D01*
X499969Y228350D01*
X500016Y228362D01*
X500039Y228373D01*
X500062Y228385D01*
X500132Y228431D01*
X500178Y228477D01*
X500212Y228535D01*
X500236Y228581D01*
X500259Y228651D01*
Y228674D01*
Y228686D01*
X500247Y228790D01*
X500201Y228871D01*
X500143Y228940D01*
X500074Y228986D01*
X499993Y229021D01*
X499935Y229056D01*
X499889Y229067D01*
X499877D01*
X499796Y229090D01*
X499750Y229102D01*
X499738Y229114D01*
X499727D01*
X499703Y229125D01*
X499680Y229148D01*
X499669Y229171D01*
X499657Y229183D01*
X499646Y229195D01*
Y229218D01*
X499634Y229287D01*
Y229345D01*
Y229357D01*
Y229368D01*
Y235408D01*
D02*
G37*
G36*
X478403Y235408D02*
X475904D01*
X475753Y235396D01*
X475649Y235361D01*
X475580Y235315D01*
X475568Y235304D01*
X475557D01*
X475511Y235269D01*
X475487Y235223D01*
X475441Y235142D01*
X475430Y235072D01*
Y235408D01*
D01*
D01*
Y228176D01*
D01*
Y228674D01*
X475441Y228605D01*
X475453Y228558D01*
X475499Y228466D01*
X475534Y228419D01*
X475557Y228396D01*
X475661Y228350D01*
X475777Y228327D01*
X475823Y228315D01*
X478553D01*
X478623Y228327D01*
X478692Y228338D01*
X478739Y228350D01*
X478785Y228362D01*
X478808Y228373D01*
X478831Y228385D01*
X478901Y228431D01*
X478947Y228477D01*
X478981Y228535D01*
X479005Y228581D01*
X479028Y228651D01*
Y228674D01*
Y228685D01*
X479016Y228790D01*
X478970Y228871D01*
X478912Y228940D01*
X478843Y228986D01*
X478762Y229021D01*
X478704Y229056D01*
X478658Y229067D01*
X478646D01*
X478565Y229090D01*
X478519Y229102D01*
X478507Y229114D01*
X478496D01*
X478473Y229125D01*
X478449Y229148D01*
X478438Y229171D01*
X478426Y229183D01*
X478415Y229195D01*
Y229218D01*
X478403Y229287D01*
Y229345D01*
Y229357D01*
Y229368D01*
Y235408D01*
D02*
G37*
G36*
X502827Y235408D02*
X499819D01*
Y234656D01*
X499923Y234644D01*
X500004Y234621D01*
X500085Y234598D01*
X500132Y234575D01*
X500178Y234552D01*
X500201Y234528D01*
X500224Y234517D01*
X500293Y234447D01*
X500328Y234390D01*
X500351Y234343D01*
X500363Y234320D01*
X500375Y234285D01*
X500386Y234228D01*
X500398Y234135D01*
Y234077D01*
Y234043D01*
Y234019D01*
Y234008D01*
Y232400D01*
Y232295D01*
X500386Y232191D01*
X500375Y232110D01*
X500351Y232041D01*
X500340Y231995D01*
X500317Y231960D01*
X500305Y231937D01*
Y231925D01*
X500259Y231856D01*
X500224Y231809D01*
X500189Y231786D01*
X500178Y231775D01*
X500143Y231763D01*
X500097Y231740D01*
X499981Y231705D01*
X499935Y231694D01*
X499889Y231682D01*
X499854Y231671D01*
X499842D01*
Y230942D01*
X500039D01*
X500212Y230953D01*
X500386Y230965D01*
X500525Y230976D01*
X500664Y230988D01*
X500779Y230999D01*
X500884Y231023D01*
X500976Y231034D01*
X501057Y231057D01*
X501126Y231069D01*
X501184Y231081D01*
X501231Y231104D01*
X501277Y231115D01*
X501300Y231127D01*
X501578Y231231D01*
X501821Y231358D01*
X502017Y231486D01*
X502179Y231613D01*
X502307Y231729D01*
X502388Y231821D01*
X502446Y231879D01*
X502457Y231902D01*
X502584Y232110D01*
X502677Y232330D01*
X502735Y232550D01*
X502781Y232758D01*
X502804Y232955D01*
X502816Y233024D01*
X502827Y233094D01*
Y233233D01*
X502816Y233487D01*
X502770Y233730D01*
X502712Y233938D01*
X502642Y234112D01*
X502573Y234262D01*
X502515Y234366D01*
X502469Y234436D01*
X502457Y234459D01*
X502318Y234632D01*
X502168Y234783D01*
X502006Y234910D01*
X501855Y235014D01*
X501717Y235095D01*
X501613Y235153D01*
X501566Y235176D01*
X501532Y235188D01*
X501520Y235199D01*
X501508D01*
X501404Y235234D01*
X501289Y235269D01*
X501022Y235315D01*
X500745Y235361D01*
X500467Y235385D01*
X500212Y235396D01*
X500108D01*
X500016Y235408D01*
X502827D01*
D02*
G37*
G36*
X495966D02*
X489429D01*
Y228188D01*
Y235026D01*
X489441Y234933D01*
X489475Y234852D01*
X489510Y234794D01*
X489568Y234748D01*
X489614Y234714D01*
X489649Y234690D01*
X489684Y234667D01*
X489695D01*
X489742Y234644D01*
X489788Y234632D01*
X489834Y234609D01*
X489857Y234598D01*
X489881Y234586D01*
X489892Y234575D01*
X489915Y234517D01*
X489938Y234459D01*
Y234401D01*
Y234390D01*
Y234378D01*
Y230421D01*
X489950Y230178D01*
X489961Y229958D01*
X489996Y229773D01*
X490031Y229623D01*
X490054Y229507D01*
X490089Y229415D01*
X490100Y229368D01*
X490112Y229345D01*
X490181Y229218D01*
X490274Y229102D01*
X490366Y228986D01*
X490471Y228894D01*
X490552Y228824D01*
X490621Y228755D01*
X490667Y228720D01*
X490690Y228709D01*
X490852Y228616D01*
X491003Y228524D01*
X491165Y228454D01*
X491304Y228408D01*
X491431Y228362D01*
X491523Y228327D01*
X491593Y228315D01*
X491616Y228304D01*
X491789Y228269D01*
X491986Y228234D01*
X492171Y228211D01*
X492345Y228200D01*
X492507D01*
X492623Y228188D01*
X492970D01*
Y229010D01*
X492877Y229044D01*
X492796Y229067D01*
X492727Y229090D01*
X492680Y229114D01*
X492646Y229125D01*
X492623D01*
X492611Y229137D01*
X492565Y229183D01*
X492530Y229241D01*
X492507Y229276D01*
X492495Y229299D01*
X492461Y229380D01*
X492438Y229461D01*
X492414Y229530D01*
Y229542D01*
Y229553D01*
Y229623D01*
X492403Y229715D01*
Y229912D01*
Y230005D01*
Y230085D01*
Y230132D01*
Y230155D01*
Y234378D01*
X492414Y234471D01*
X492426Y234528D01*
X492438Y234563D01*
Y234575D01*
X492449Y234598D01*
X492461D01*
X492472Y234609D01*
X492495D01*
X492542Y234632D01*
X492599Y234656D01*
X492611Y234667D01*
X492623D01*
X492715Y234714D01*
X492785Y234760D01*
X492842Y234818D01*
X492877Y234887D01*
X492900Y234933D01*
X492912Y234980D01*
Y235014D01*
Y235026D01*
X492900Y235119D01*
X492877Y235188D01*
X492842Y235234D01*
X492831Y235246D01*
X492761Y235304D01*
X492692Y235350D01*
X492646Y235361D01*
X492634Y235373D01*
X492623D01*
X492414Y235408D01*
X494161D01*
X493999Y235396D01*
X493884Y235373D01*
X493837Y235350D01*
X493803Y235338D01*
X493791Y235327D01*
X493780D01*
X493733Y235292D01*
X493710Y235246D01*
X493664Y235165D01*
X493652Y235095D01*
Y235072D01*
Y235061D01*
X493664Y234957D01*
X493687Y234887D01*
X493699Y234841D01*
X493710Y234829D01*
X493780Y234771D01*
X493861Y234714D01*
X493930Y234667D01*
X493942Y234656D01*
X493953D01*
X494115Y234552D01*
X494231Y234413D01*
X494323Y234274D01*
X494381Y234135D01*
X494416Y233996D01*
X494427Y233892D01*
X494439Y233846D01*
Y233811D01*
Y233800D01*
Y233788D01*
Y230490D01*
X494427Y230236D01*
X494381Y230005D01*
X494312Y229796D01*
X494242Y229611D01*
X494173Y229461D01*
X494103Y229345D01*
X494080Y229310D01*
X494057Y229276D01*
X494046Y229264D01*
Y229253D01*
X493930Y229195D01*
X493803Y229160D01*
X493664Y229114D01*
X493525Y229090D01*
X493398Y229067D01*
X493305Y229044D01*
X493236Y229033D01*
X493213D01*
Y228188D01*
D01*
X493386Y228211D01*
X493537Y228234D01*
X493664Y228269D01*
X493768Y228292D01*
X493861Y228327D01*
X493918Y228339D01*
X493953Y228362D01*
X493965D01*
X494161Y228466D01*
X494323Y228581D01*
X494474Y228709D01*
X494590Y228836D01*
X494682Y228940D01*
X494752Y229033D01*
X494798Y229090D01*
X494809Y229114D01*
X494937Y229310D01*
X495029Y229542D01*
X495099Y229773D01*
X495145Y229993D01*
X495168Y230190D01*
X495180Y230271D01*
X495191Y230340D01*
Y230410D01*
Y230456D01*
Y230479D01*
Y230490D01*
Y233788D01*
X495203Y233985D01*
X495226Y234077D01*
X495249Y234147D01*
X495260Y234216D01*
X495284Y234262D01*
X495295Y234285D01*
Y234297D01*
X495341Y234378D01*
X495399Y234447D01*
X495504Y234552D01*
X495550Y234586D01*
X495584Y234609D01*
X495608Y234632D01*
X495619D01*
X495689Y234667D01*
X495735Y234702D01*
X495781Y234737D01*
X495804Y234748D01*
X495827Y234771D01*
X495839Y234783D01*
X495885Y234829D01*
X495908Y234875D01*
X495955Y234957D01*
X495966Y235026D01*
Y235049D01*
X495955Y235119D01*
X495932Y235176D01*
X495874Y235269D01*
X495804Y235315D01*
X495781Y235338D01*
X495770D01*
X495723Y235373D01*
X495677Y235385D01*
X495642Y235396D01*
X495631D01*
X495561Y235408D01*
X495966D01*
D02*
G37*
G36*
X488967Y235535D02*
X482603D01*
Y228188D01*
Y231844D01*
X482615Y231520D01*
X482649Y231208D01*
X482695Y230919D01*
X482765Y230652D01*
X482834Y230398D01*
X482927Y230167D01*
X483008Y229958D01*
X483112Y229773D01*
X483205Y229600D01*
X483297Y229461D01*
X483378Y229333D01*
X483448Y229229D01*
X483517Y229148D01*
X483563Y229090D01*
X483598Y229056D01*
X483610Y229044D01*
X483760Y228905D01*
X483922Y228790D01*
X484095Y228686D01*
X484269Y228593D01*
X484443Y228512D01*
X484616Y228443D01*
X484940Y228327D01*
X485090Y228292D01*
X485229Y228257D01*
X485357Y228234D01*
X485472Y228211D01*
X485553Y228200D01*
X485623D01*
X485669Y228188D01*
X485681D01*
Y228905D01*
X485576Y228940D01*
X485496Y228975D01*
X485438Y229010D01*
X485391Y229044D01*
X485357Y229067D01*
X485333Y229090D01*
X485310Y229114D01*
X485276Y229183D01*
X485253Y229264D01*
X485229Y229449D01*
X485218Y229530D01*
Y229600D01*
Y229646D01*
Y229669D01*
Y234181D01*
Y234274D01*
X485229Y234366D01*
X485241Y234436D01*
X485264Y234494D01*
X485276Y234528D01*
X485287Y234563D01*
X485299Y234586D01*
X485333Y234632D01*
X485391Y234679D01*
X485519Y234748D01*
X485576Y234783D01*
X485634Y234794D01*
X485669Y234818D01*
X485681D01*
Y235535D01*
X485877D01*
Y234818D01*
X485947Y234794D01*
X486004Y234760D01*
X486097Y234725D01*
X486143Y234702D01*
X486155Y234690D01*
X486201Y234644D01*
X486236Y234609D01*
X486259Y234563D01*
X486271Y234552D01*
X486317Y234436D01*
X486340Y234320D01*
X486352Y234262D01*
Y234216D01*
Y234193D01*
Y234181D01*
Y229669D01*
Y229530D01*
X486329Y229415D01*
X486317Y229322D01*
X486294Y229241D01*
X486271Y229183D01*
X486247Y229137D01*
X486236Y229114D01*
X486224Y229102D01*
X486190Y229056D01*
X486155Y229021D01*
X486132Y229010D01*
X486120Y228998D01*
X486097Y228986D01*
X486062Y228975D01*
X485981Y228940D01*
X485912Y228928D01*
X485889Y228917D01*
X485877D01*
Y228188D01*
D01*
X486109Y228211D01*
X486340Y228246D01*
X486548Y228292D01*
X486745Y228362D01*
X486930Y228419D01*
X487092Y228500D01*
X487254Y228570D01*
X487393Y228651D01*
X487509Y228720D01*
X487624Y228790D01*
X487717Y228859D01*
X487798Y228917D01*
X487856Y228975D01*
X487902Y229010D01*
X487925Y229033D01*
X487937Y229044D01*
X488122Y229241D01*
X488272Y229461D01*
X488411Y229681D01*
X488527Y229912D01*
X488631Y230143D01*
X488712Y230375D01*
X488781Y230606D01*
X488839Y230826D01*
X488885Y231034D01*
X488909Y231231D01*
X488932Y231404D01*
X488955Y231555D01*
Y231671D01*
X488967Y231763D01*
Y231844D01*
X488955Y232180D01*
X488920Y232492D01*
X488862Y232793D01*
X488804Y233059D01*
X488712Y233325D01*
X488631Y233557D01*
X488527Y233776D01*
X488434Y233962D01*
X488330Y234135D01*
X488226Y234285D01*
X488145Y234413D01*
X488064Y234528D01*
X487995Y234609D01*
X487937Y234667D01*
X487902Y234702D01*
X487890Y234714D01*
X487740Y234852D01*
X487590Y234968D01*
X487439Y235072D01*
X487312Y235153D01*
X487196Y235223D01*
X487104Y235269D01*
X487046Y235292D01*
X487023Y235304D01*
X486838Y235373D01*
X486641Y235431D01*
X486456Y235466D01*
X486271Y235500D01*
X486120Y235512D01*
X485993Y235523D01*
X485947Y235535D01*
X488967D01*
D01*
D02*
G37*
G36*
X474307Y232018D02*
X472201D01*
X472028Y232006D01*
X471959Y231983D01*
X471901Y231971D01*
X471854Y231948D01*
X471820Y231925D01*
X471808Y231914D01*
X471797D01*
X471750Y231879D01*
X471716Y231833D01*
X471669Y231740D01*
X471646Y231671D01*
Y231647D01*
Y231636D01*
X471658Y231532D01*
X471693Y231451D01*
X471739Y231381D01*
X471797Y231335D01*
X471854Y231300D01*
X471901Y231277D01*
X471935Y231254D01*
X471947D01*
X472016Y231242D01*
X472074Y231231D01*
X472109Y231219D01*
X472132Y231208D01*
X472167Y231196D01*
X472201Y231185D01*
X472213Y231173D01*
X472248Y231115D01*
X472259Y231034D01*
X472271Y230976D01*
Y230965D01*
Y230953D01*
Y229472D01*
X472259Y229333D01*
X472236Y229218D01*
X472201Y229148D01*
X472190Y229137D01*
Y229125D01*
X472167Y229079D01*
X472132Y229044D01*
X472109Y229021D01*
X472097Y229010D01*
X472074Y228998D01*
X472028Y228986D01*
X471947Y228952D01*
X471866Y228940D01*
X471843Y228928D01*
X471831D01*
Y228188D01*
X471734D01*
X474747D01*
X471831D01*
X472097Y228200D01*
X472225Y228211D01*
X472329Y228223D01*
X472421Y228234D01*
X472491Y228246D01*
X472537Y228257D01*
X472549D01*
X472803Y228304D01*
X472907Y228338D01*
X473011Y228362D01*
X473092Y228396D01*
X473150Y228408D01*
X473197Y228431D01*
X473208D01*
X473416Y228535D01*
X473521Y228581D01*
X473613Y228639D01*
X473694Y228685D01*
X473764Y228720D01*
X473810Y228743D01*
X473821Y228755D01*
X473949Y228836D01*
X474064Y228917D01*
X474168Y228998D01*
X474261Y229067D01*
X474330Y229125D01*
X474377Y229171D01*
X474411Y229206D01*
X474423Y229218D01*
Y230976D01*
Y231069D01*
X474435Y231127D01*
Y231150D01*
Y231161D01*
X474458Y231185D01*
X474481Y231219D01*
X474504Y231231D01*
X474515Y231242D01*
X474597Y231312D01*
X474654Y231370D01*
X474678Y231404D01*
X474689Y231416D01*
X474724Y231486D01*
X474735Y231555D01*
X474747Y231601D01*
Y231694D01*
X474724Y231763D01*
X474678Y231856D01*
X474631Y231914D01*
X474620Y231925D01*
X474608D01*
X474550Y231960D01*
X474492Y231983D01*
X474365Y232006D01*
X474307Y232018D01*
D02*
G37*
G36*
X482314Y235408D02*
X478565Y235408D01*
Y234656D01*
X478692Y234621D01*
X478796Y234575D01*
X478877Y234540D01*
X478947Y234505D01*
X478981Y234471D01*
X479016Y234447D01*
X479039Y234436D01*
Y234424D01*
X479074Y234366D01*
X479097Y234309D01*
X479132Y234170D01*
X479143Y234112D01*
Y234066D01*
Y234031D01*
Y234019D01*
Y232677D01*
Y232538D01*
X479132Y232446D01*
X479120Y232400D01*
X479109Y232376D01*
X479074Y232307D01*
X479028Y232238D01*
X478981Y232191D01*
X478970Y232168D01*
X478935Y232156D01*
X478889Y232133D01*
X478762Y232110D01*
X478692Y232099D01*
X478635Y232087D01*
X478600Y232076D01*
X478588D01*
Y231358D01*
X478692Y231347D01*
X478785Y231312D01*
X478854Y231289D01*
X478912Y231254D01*
X478958Y231231D01*
X478981Y231208D01*
X479005Y231196D01*
Y231185D01*
X479074Y231081D01*
X479109Y230976D01*
X479120Y230942D01*
X479132Y230907D01*
Y230884D01*
Y230872D01*
Y230849D01*
X479143Y230814D01*
Y230710D01*
Y230652D01*
Y230618D01*
Y230583D01*
Y230572D01*
Y229715D01*
X479155Y229461D01*
X479201Y229241D01*
X479271Y229044D01*
X479340Y228882D01*
X479410Y228755D01*
X479479Y228662D01*
X479525Y228605D01*
X479537Y228581D01*
X479699Y228443D01*
X479884Y228350D01*
X480069Y228281D01*
X480254Y228223D01*
X480416Y228200D01*
X480544Y228188D01*
X480590Y228176D01*
X482314Y228176D01*
X480787Y228176D01*
X480902Y228188D01*
X481006Y228200D01*
X481087Y228223D01*
X481157Y228234D01*
X481215Y228246D01*
X481249Y228257D01*
X481261D01*
X481446Y228327D01*
X481527Y228362D01*
X481608Y228408D01*
X481666Y228443D01*
X481712Y228477D01*
X481735Y228489D01*
X481747Y228500D01*
X481909Y228651D01*
X482036Y228790D01*
X482082Y228848D01*
X482129Y228894D01*
X482140Y228928D01*
X482152Y228940D01*
X482210Y229033D01*
X482244Y229114D01*
X482291Y229241D01*
X482302Y229299D01*
X482314Y229333D01*
Y229415D01*
X482291Y229461D01*
X482256Y229542D01*
X482210Y229600D01*
X482198Y229623D01*
X482186D01*
X482140Y229669D01*
X482094Y229692D01*
X482013Y229738D01*
X481955Y229750D01*
X481932D01*
X481862Y229738D01*
X481805Y229715D01*
X481689Y229634D01*
X481643Y229588D01*
X481608Y229553D01*
X481596Y229530D01*
X481585Y229519D01*
X481550Y229484D01*
Y229495D01*
Y229507D01*
Y229519D01*
Y230572D01*
Y230664D01*
X481527Y230757D01*
X481515Y230838D01*
X481492Y230907D01*
X481469Y230976D01*
X481446Y231023D01*
X481434Y231046D01*
X481423Y231057D01*
X481307Y231231D01*
X481191Y231358D01*
X481134Y231416D01*
X481087Y231451D01*
X481064Y231474D01*
X481053Y231486D01*
X480891Y231590D01*
X480740Y231659D01*
X480671Y231694D01*
X480624Y231717D01*
X480590Y231729D01*
X480578D01*
X480370Y231786D01*
X480266Y231798D01*
X480162Y231809D01*
X480069Y231821D01*
X479942D01*
X480092Y231833D01*
X480231Y231856D01*
X480347Y231879D01*
X480451Y231902D01*
X480532Y231925D01*
X480590Y231948D01*
X480624Y231971D01*
X480636D01*
X480821Y232076D01*
X480902Y232133D01*
X480972Y232180D01*
X481018Y232226D01*
X481064Y232261D01*
X481087Y232284D01*
X481099Y232295D01*
X481261Y232492D01*
X481377Y232689D01*
X481469Y232897D01*
X481527Y233094D01*
X481562Y233267D01*
X481573Y233348D01*
Y233406D01*
X481585Y233464D01*
Y233499D01*
Y233522D01*
Y233533D01*
X481573Y233707D01*
X481550Y233857D01*
X481515Y234008D01*
X481469Y234147D01*
X481353Y234390D01*
X481226Y234598D01*
X481099Y234748D01*
X480983Y234864D01*
X480937Y234910D01*
X480902Y234933D01*
X480879Y234957D01*
X480867D01*
X480682Y235072D01*
X480497Y235165D01*
X480312Y235234D01*
X480139Y235292D01*
X479988Y235327D01*
X479872Y235350D01*
X479826D01*
X479791Y235361D01*
X479768D01*
X479606Y235373D01*
X479444Y235385D01*
X479282Y235396D01*
X479132Y235408D01*
X482314Y235408D01*
D02*
G37*
%LPD*%
G36*
X496672Y234933D02*
X496707Y234852D01*
X496741Y234794D01*
X496799Y234748D01*
X496846Y234714D01*
X496880Y234690D01*
X496915Y234667D01*
X496927D01*
X496973Y234644D01*
X497019Y234632D01*
X497065Y234609D01*
X497089Y234598D01*
X497112Y234586D01*
X497123Y234575D01*
X497147Y234517D01*
X497170Y234459D01*
Y234401D01*
Y234390D01*
Y234378D01*
Y229333D01*
X497158Y229241D01*
X497147Y229183D01*
X497135Y229148D01*
X497123Y229137D01*
X497100Y229114D01*
X497089Y229102D01*
X497077D01*
X497054Y229090D01*
X497008Y229079D01*
X496950Y229056D01*
X496938Y229044D01*
X496927D01*
X496834Y228998D01*
X496776Y228952D01*
X496730Y228882D01*
X496695Y228824D01*
X496672Y228766D01*
X496661Y228720D01*
Y235037D01*
X496672Y234933D01*
D02*
G37*
G36*
X475441Y234933D02*
X475476Y234852D01*
X475511Y234794D01*
X475568Y234748D01*
X475615Y234714D01*
X475649Y234690D01*
X475684Y234667D01*
X475696D01*
X475742Y234644D01*
X475788Y234632D01*
X475835Y234609D01*
X475858Y234598D01*
X475881Y234586D01*
X475892Y234575D01*
X475915Y234517D01*
X475939Y234459D01*
Y234401D01*
Y234390D01*
Y234378D01*
Y229333D01*
X475927Y229241D01*
X475915Y229183D01*
X475904Y229148D01*
X475892Y229137D01*
X475869Y229114D01*
X475858Y229102D01*
X475846D01*
X475823Y229090D01*
X475777Y229079D01*
X475719Y229056D01*
X475707Y229044D01*
X475696D01*
X475603Y228998D01*
X475545Y228952D01*
X475499Y228882D01*
X475464Y228824D01*
X475441Y228766D01*
X475430Y228720D01*
Y235037D01*
X475441Y234933D01*
D02*
G37*
G36*
X489765Y235396D02*
X489649Y235361D01*
X489580Y235315D01*
X489568Y235304D01*
X489557D01*
X489510Y235269D01*
X489487Y235223D01*
X489441Y235130D01*
X489429Y235061D01*
Y235408D01*
X489904D01*
X489765Y235396D01*
D02*
G37*
G36*
X485438Y235523D02*
X485206Y235489D01*
X485009Y235454D01*
X484847Y235408D01*
X484709Y235373D01*
X484605Y235338D01*
X484547Y235315D01*
X484524Y235304D01*
X484350Y235223D01*
X484188Y235130D01*
X484049Y235026D01*
X483922Y234933D01*
X483806Y234852D01*
X483725Y234783D01*
X483679Y234737D01*
X483656Y234714D01*
X483471Y234505D01*
X483309Y234297D01*
X483170Y234089D01*
X483054Y233892D01*
X482973Y233718D01*
X482938Y233649D01*
X482904Y233591D01*
X482881Y233533D01*
X482869Y233499D01*
X482858Y233475D01*
Y233464D01*
X482776Y233186D01*
X482707Y232909D01*
X482661Y232631D01*
X482638Y232388D01*
X482626Y232272D01*
X482615Y232168D01*
Y232076D01*
X482603Y231995D01*
Y235535D01*
X485681D01*
X485438Y235523D01*
D02*
G37*
D10*
X553000Y161000D02*
G03*
X553241Y160900I241J241D01*
G01*
X571800D01*
X553000Y220200D02*
X571700D01*
X553000Y180700D02*
X571700D01*
X553000Y141300D02*
X571800D01*
X553000D02*
Y259400D01*
X571700D01*
X355512Y138976D02*
X415748D01*
X355512D02*
Y261024D01*
X415748D01*
Y138976D02*
Y261024D01*
X571752Y259398D02*
X603248D01*
X571752Y141287D02*
Y259398D01*
Y141287D02*
X603248D01*
Y259398D01*
X599311Y239713D02*
X603248D01*
X599311Y220028D02*
X603248D01*
X599311Y200342D02*
X603248D01*
X599311Y180657D02*
X603248D01*
X599311Y160972D02*
X603248D01*
X557400Y152499D02*
X558400D01*
X557900D01*
Y149500D01*
X557400D01*
X558400D01*
X559899D02*
Y152499D01*
X561899Y149500D01*
Y152499D01*
X565897Y149500D02*
X566897D01*
X566397D01*
Y152499D01*
X565897Y151999D01*
X556700Y172099D02*
X557700D01*
X557200D01*
Y169100D01*
X556700D01*
X557700D01*
X559199D02*
Y172099D01*
X561199Y169100D01*
Y172099D01*
X567197Y169100D02*
X565197D01*
X567197Y171099D01*
Y171599D01*
X566697Y172099D01*
X565697D01*
X565197Y171599D01*
X557300Y202099D02*
X556300D01*
X555800Y201599D01*
Y199600D01*
X556300Y199100D01*
X557300D01*
X557799Y199600D01*
Y201599D01*
X557300Y202099D01*
X558799D02*
Y199600D01*
X559299Y199100D01*
X560298D01*
X560798Y199600D01*
Y202099D01*
X561798D02*
X563797D01*
X562798D01*
Y199100D01*
X567796D02*
X568796D01*
X568296D01*
Y202099D01*
X567796Y201599D01*
X556800Y241099D02*
X555800D01*
X555300Y240599D01*
Y238600D01*
X555800Y238100D01*
X556800D01*
X557299Y238600D01*
Y240599D01*
X556800Y241099D01*
X558299D02*
Y238600D01*
X558799Y238100D01*
X559798D01*
X560298Y238600D01*
Y241099D01*
X561298D02*
X563297D01*
X562298D01*
Y238100D01*
X569296D02*
X567296D01*
X569296Y240099D01*
Y240599D01*
X568796Y241099D01*
X567796D01*
X567296Y240599D01*
X480667Y154333D02*
X480001Y153667D01*
Y152334D01*
X480667Y151668D01*
X483333D01*
X483999Y152334D01*
Y153667D01*
X483333Y154333D01*
X480667Y155666D02*
X480001Y156333D01*
Y157666D01*
X480667Y158332D01*
X481334D01*
X482000Y157666D01*
Y156999D01*
Y157666D01*
X482666Y158332D01*
X483333D01*
X483999Y157666D01*
Y156333D01*
X483333Y155666D01*
X489667Y188334D02*
X489001Y187667D01*
Y186335D01*
X489667Y185668D01*
X492333D01*
X492999Y186335D01*
Y187667D01*
X492333Y188334D01*
X492999Y189667D02*
Y191000D01*
Y190333D01*
X489001D01*
X489667Y189667D01*
X492999Y192999D02*
Y194332D01*
Y193666D01*
X489001D01*
X489667Y192999D01*
X535667Y166333D02*
X535001Y165667D01*
Y164334D01*
X535667Y163668D01*
X538333D01*
X538999Y164334D01*
Y165667D01*
X538333Y166333D01*
X538999Y169666D02*
X535001D01*
X537000Y167666D01*
Y170332D01*
X535667Y144000D02*
X535001Y143333D01*
Y142001D01*
X535667Y141334D01*
X538333D01*
X538999Y142001D01*
Y143333D01*
X538333Y144000D01*
X538999Y145333D02*
Y146666D01*
Y145999D01*
X535001D01*
X535667Y145333D01*
X505667Y166333D02*
X505001Y165667D01*
Y164334D01*
X505667Y163668D01*
X508333D01*
X508999Y164334D01*
Y165667D01*
X508333Y166333D01*
X505001Y170332D02*
Y167666D01*
X507000D01*
X506334Y168999D01*
Y169666D01*
X507000Y170332D01*
X508333D01*
X508999Y169666D01*
Y168333D01*
X508333Y167666D01*
X505667Y142333D02*
X505001Y141667D01*
Y140334D01*
X505667Y139668D01*
X508333D01*
X508999Y140334D01*
Y141667D01*
X508333Y142333D01*
X508999Y146332D02*
Y143667D01*
X506334Y146332D01*
X505667D01*
X505001Y145666D01*
Y144333D01*
X505667Y143667D01*
X459667Y186667D02*
X459001Y186001D01*
Y184668D01*
X459667Y184002D01*
X462333D01*
X462999Y184668D01*
Y186001D01*
X462333Y186667D01*
X462999Y188000D02*
Y189333D01*
Y188667D01*
X459001D01*
X459667Y188000D01*
X462999Y193998D02*
Y191333D01*
X460334Y193998D01*
X459667D01*
X459001Y193332D01*
Y191999D01*
X459667Y191333D01*
X514600Y166099D02*
Y162767D01*
X515266Y162100D01*
X516599D01*
X517266Y162767D01*
Y166099D01*
X521265Y162100D02*
X518599D01*
X521265Y164766D01*
Y165432D01*
X520598Y166099D01*
X519265D01*
X518599Y165432D01*
X445500Y179999D02*
Y176666D01*
X446166Y176000D01*
X447499D01*
X448166Y176666D01*
Y179999D01*
X449499Y176000D02*
X450832D01*
X450165D01*
Y179999D01*
X449499Y179332D01*
X514600Y190099D02*
Y186767D01*
X515266Y186100D01*
X516599D01*
X517266Y186767D01*
Y190099D01*
X518599Y189432D02*
X519265Y190099D01*
X520598D01*
X521265Y189432D01*
Y188766D01*
X520598Y188099D01*
X519932D01*
X520598D01*
X521265Y187433D01*
Y186767D01*
X520598Y186100D01*
X519265D01*
X518599Y186767D01*
X420500Y254600D02*
Y258599D01*
X422499D01*
X423166Y257932D01*
Y256599D01*
X422499Y255933D01*
X420500D01*
X421833D02*
X423166Y254600D01*
X424499D02*
X425832D01*
X425165D01*
Y258599D01*
X424499Y257932D01*
X468600Y216099D02*
Y212766D01*
X469266Y212100D01*
X470599D01*
X471266Y212766D01*
Y216099D01*
X472599D02*
X475265D01*
Y215432D01*
X472599Y212766D01*
Y212100D01*
X355000Y138000D02*
Y262000D01*
Y138000D02*
X604000D01*
Y262000D01*
X355000D02*
X604000D01*
D11*
X517374Y158087D02*
G03*
X517374Y158087I-492J0D01*
G01*
X449075Y172008D02*
G03*
X449075Y172008I-492J0D01*
G01*
X517374Y182087D02*
G03*
X517374Y182087I-492J0D01*
G01*
X471374Y208087D02*
G03*
X471374Y208087I-492J0D01*
G01*
D12*
X457835Y166102D02*
G03*
X457835Y166102I-1181J0D01*
G01*
D13*
X480500Y165000D02*
X483500D01*
X489500Y201000D02*
X492500D01*
X535500Y177000D02*
X538500D01*
X535500Y153000D02*
X538500D01*
X505500Y177000D02*
X508500D01*
X505500Y153000D02*
X508500D01*
X459500Y201000D02*
X462500D01*
X425000Y248000D02*
Y251000D01*
D14*
X523969Y144898D02*
Y157102D01*
X520031Y144898D02*
Y157102D01*
Y144898D02*
X523969D01*
X520031Y157102D02*
X523969D01*
X452716Y149961D02*
X467283D01*
X452716Y170039D02*
X467283D01*
Y149961D02*
Y170039D01*
X452716Y149961D02*
Y170039D01*
X523969Y168898D02*
Y181102D01*
X520031Y168898D02*
Y181102D01*
Y168898D02*
X523969D01*
X520031Y181102D02*
X523969D01*
X474031Y207102D02*
X477969D01*
X474031Y194898D02*
X477969D01*
X474031D02*
Y207102D01*
X477969Y194898D02*
Y207102D01*
M02*
