G04*
G04 #@! TF.GenerationSoftware,Altium Limited,Altium Designer,24.9.1 (31)*
G04*
G04 Layer_Color=16711935*
%FSLAX25Y25*%
%MOIN*%
G70*
G04*
G04 #@! TF.SameCoordinates,59699F77-247D-42C6-972D-823977B7F44A*
G04*
G04*
G04 #@! TF.FilePolarity,Negative*
G04*
G01*
G75*
%ADD23R,0.04140X0.04140*%
%ADD25R,0.04140X0.04140*%
%ADD28R,0.03950X0.03950*%
%ADD29C,0.09400*%
%ADD30C,0.13400*%
%ADD31C,0.06306*%
%ADD32C,0.20085*%
%ADD33C,0.06400*%
%ADD34R,0.06400X0.06400*%
%ADD35C,0.30400*%
%ADD36C,0.03400*%
%ADD37C,0.06699*%
%ADD38C,0.08274*%
%ADD39R,0.08274X0.08274*%
%ADD40R,0.06699X0.06699*%
%ADD68R,0.06699X0.12211*%
%ADD69R,0.23235X0.24810*%
%ADD70O,0.07880X0.02762*%
%ADD71O,0.06109X0.02762*%
D23*
X410653Y399000D02*
D03*
X467346D02*
D03*
Y199000D02*
D03*
X410653D02*
D03*
X417346D02*
D03*
X460653D02*
D03*
Y399000D02*
D03*
X417346D02*
D03*
D25*
X553000Y348307D02*
D03*
Y355000D02*
D03*
X609000Y355693D02*
D03*
Y349000D02*
D03*
X604000Y169754D02*
D03*
Y119346D02*
D03*
Y233347D02*
D03*
X566000Y176446D02*
D03*
Y119346D02*
D03*
Y233347D02*
D03*
X688000Y421347D02*
D03*
X412000Y458653D02*
D03*
Y437347D02*
D03*
Y451346D02*
D03*
X466000Y458653D02*
D03*
Y437347D02*
D03*
Y451346D02*
D03*
Y339347D02*
D03*
Y360653D02*
D03*
Y346654D02*
D03*
X412000Y360653D02*
D03*
Y339347D02*
D03*
Y346654D02*
D03*
X466000Y160653D02*
D03*
X412000D02*
D03*
Y237347D02*
D03*
Y258653D02*
D03*
Y251346D02*
D03*
X466000Y258653D02*
D03*
Y237347D02*
D03*
Y251346D02*
D03*
Y139347D02*
D03*
Y146653D02*
D03*
X412000Y139347D02*
D03*
Y146653D02*
D03*
Y153347D02*
D03*
X404000Y146653D02*
D03*
Y153347D02*
D03*
Y132653D02*
D03*
Y139347D02*
D03*
X412000Y132653D02*
D03*
X466000Y153347D02*
D03*
Y132653D02*
D03*
X474000Y146653D02*
D03*
Y153347D02*
D03*
Y132653D02*
D03*
Y139347D02*
D03*
X466000Y244654D02*
D03*
Y230654D02*
D03*
Y265347D02*
D03*
X669000Y273000D02*
D03*
Y279693D02*
D03*
X474000Y258653D02*
D03*
Y265347D02*
D03*
Y244654D02*
D03*
Y251346D02*
D03*
X412000Y244654D02*
D03*
Y265347D02*
D03*
Y230654D02*
D03*
X404000Y258653D02*
D03*
Y265347D02*
D03*
Y244654D02*
D03*
Y251346D02*
D03*
X412000Y167347D02*
D03*
X404000D02*
D03*
Y160653D02*
D03*
X466000Y167347D02*
D03*
X404000Y230654D02*
D03*
Y237347D02*
D03*
X474000Y167347D02*
D03*
Y160653D02*
D03*
Y230654D02*
D03*
Y237347D02*
D03*
X412000Y353346D02*
D03*
Y332653D02*
D03*
X404000Y339347D02*
D03*
Y332653D02*
D03*
Y353346D02*
D03*
Y346654D02*
D03*
X412000Y367347D02*
D03*
X404000D02*
D03*
Y360653D02*
D03*
X466000Y353346D02*
D03*
Y367347D02*
D03*
X474000D02*
D03*
Y360653D02*
D03*
Y353346D02*
D03*
Y346654D02*
D03*
X466000Y332653D02*
D03*
X474000Y339347D02*
D03*
Y332653D02*
D03*
X466000Y444654D02*
D03*
Y430653D02*
D03*
X474000D02*
D03*
Y437347D02*
D03*
Y444654D02*
D03*
Y451346D02*
D03*
Y458653D02*
D03*
Y465346D02*
D03*
X466000D02*
D03*
X412000Y444654D02*
D03*
Y430653D02*
D03*
X404000Y444654D02*
D03*
Y451346D02*
D03*
Y430653D02*
D03*
Y437347D02*
D03*
Y458653D02*
D03*
Y465346D02*
D03*
X412000D02*
D03*
X688000Y414653D02*
D03*
X633000Y420346D02*
D03*
Y413654D02*
D03*
X566000Y226654D02*
D03*
Y112654D02*
D03*
Y169754D02*
D03*
X604000Y226654D02*
D03*
Y112654D02*
D03*
Y176446D02*
D03*
D28*
X584000Y230000D02*
D03*
D29*
X509000Y149000D02*
D03*
X369000D02*
D03*
X509000Y249000D02*
D03*
X369000D02*
D03*
X509000Y349000D02*
D03*
X369000D02*
D03*
X509000Y449000D02*
D03*
X369000D02*
D03*
D30*
X495500Y162500D02*
D03*
Y135500D02*
D03*
X522500D02*
D03*
Y162500D02*
D03*
X382500Y135500D02*
D03*
Y162500D02*
D03*
X355500D02*
D03*
Y135500D02*
D03*
X495500Y262500D02*
D03*
Y235500D02*
D03*
X522500D02*
D03*
Y262500D02*
D03*
X382500Y235500D02*
D03*
Y262500D02*
D03*
X355500D02*
D03*
Y235500D02*
D03*
X495500Y362500D02*
D03*
Y335500D02*
D03*
X522500D02*
D03*
Y362500D02*
D03*
X382500Y335500D02*
D03*
Y362500D02*
D03*
X355500D02*
D03*
Y335500D02*
D03*
X495500Y462500D02*
D03*
Y435500D02*
D03*
X522500D02*
D03*
Y462500D02*
D03*
X382500Y435500D02*
D03*
Y462500D02*
D03*
X355500D02*
D03*
Y435500D02*
D03*
D31*
X649000Y356512D02*
D03*
X659000Y325095D02*
D03*
X639000Y361000D02*
D03*
X649000Y365488D02*
D03*
Y347535D02*
D03*
Y338559D02*
D03*
Y329583D02*
D03*
X659000Y361000D02*
D03*
Y334071D02*
D03*
Y343047D02*
D03*
Y352024D02*
D03*
X639000D02*
D03*
Y343047D02*
D03*
Y334071D02*
D03*
Y325095D02*
D03*
D32*
X649000Y393244D02*
D03*
Y294858D02*
D03*
D33*
X653000Y263000D02*
D03*
X600000Y409000D02*
D03*
Y423000D02*
D03*
Y437000D02*
D03*
X653000Y249000D02*
D03*
X590000Y437000D02*
D03*
Y423000D02*
D03*
Y409000D02*
D03*
X663000Y263000D02*
D03*
Y249000D02*
D03*
X600000Y479000D02*
D03*
X590000D02*
D03*
X600000Y465000D02*
D03*
X590000D02*
D03*
X600000Y451000D02*
D03*
X590000D02*
D03*
D34*
X673000Y249000D02*
D03*
Y263000D02*
D03*
X580000Y479000D02*
D03*
Y465000D02*
D03*
Y437000D02*
D03*
Y423000D02*
D03*
Y409000D02*
D03*
Y451000D02*
D03*
D35*
X678000Y120000D02*
D03*
X320000D02*
D03*
X678000Y478000D02*
D03*
X320000D02*
D03*
D36*
X678000Y108750D02*
D03*
X668157Y114094D02*
D03*
Y125906D02*
D03*
X678000Y131250D02*
D03*
X687843Y114094D02*
D03*
Y125906D02*
D03*
X666750Y120000D02*
D03*
X672094Y110158D02*
D03*
Y129842D02*
D03*
X683906Y110158D02*
D03*
Y129842D02*
D03*
X689250Y120000D02*
D03*
X320000Y108750D02*
D03*
X310157Y114094D02*
D03*
Y125906D02*
D03*
X320000Y131250D02*
D03*
X329842Y114094D02*
D03*
Y125906D02*
D03*
X308750Y120000D02*
D03*
X314094Y110158D02*
D03*
Y129842D02*
D03*
X325905Y110158D02*
D03*
Y129842D02*
D03*
X331250Y120000D02*
D03*
X678000Y466750D02*
D03*
X668157Y472094D02*
D03*
Y483906D02*
D03*
X678000Y489250D02*
D03*
X687843Y472094D02*
D03*
Y483906D02*
D03*
X666750Y478000D02*
D03*
X672094Y468157D02*
D03*
Y487843D02*
D03*
X683906Y468157D02*
D03*
Y487843D02*
D03*
X689250Y478000D02*
D03*
X320000Y466750D02*
D03*
X310157Y472094D02*
D03*
Y483906D02*
D03*
X320000Y489250D02*
D03*
X329842Y472094D02*
D03*
Y483906D02*
D03*
X308750Y478000D02*
D03*
X314094Y468157D02*
D03*
Y487843D02*
D03*
X325905Y468157D02*
D03*
Y487843D02*
D03*
X331250Y478000D02*
D03*
D37*
X674257Y172018D02*
D03*
X628000Y192000D02*
D03*
Y182000D02*
D03*
Y202000D02*
D03*
X674000Y162000D02*
D03*
X674257Y202018D02*
D03*
Y182018D02*
D03*
D38*
X321000Y370260D02*
D03*
Y350575D02*
D03*
Y170260D02*
D03*
Y150575D02*
D03*
Y189945D02*
D03*
Y209630D02*
D03*
Y229315D02*
D03*
Y389945D02*
D03*
Y409630D02*
D03*
Y429315D02*
D03*
D39*
Y249000D02*
D03*
Y449000D02*
D03*
D40*
X628000Y212000D02*
D03*
X674257Y212018D02*
D03*
D68*
X575984Y173866D02*
D03*
X594016D02*
D03*
X575984Y229866D02*
D03*
X594016D02*
D03*
Y115866D02*
D03*
X575984D02*
D03*
D69*
X585000Y202134D02*
D03*
Y258134D02*
D03*
Y144134D02*
D03*
D70*
X562000Y351000D02*
D03*
Y356000D02*
D03*
Y361000D02*
D03*
Y366000D02*
D03*
Y371000D02*
D03*
Y376000D02*
D03*
Y381000D02*
D03*
Y386000D02*
D03*
X599402Y351000D02*
D03*
Y356000D02*
D03*
Y361000D02*
D03*
Y366000D02*
D03*
Y371000D02*
D03*
Y376000D02*
D03*
Y381000D02*
D03*
Y386000D02*
D03*
X679701Y451500D02*
D03*
Y421500D02*
D03*
X642299Y416500D02*
D03*
Y421500D02*
D03*
Y426500D02*
D03*
Y431500D02*
D03*
Y436500D02*
D03*
Y441500D02*
D03*
Y446500D02*
D03*
Y451500D02*
D03*
X679701Y416500D02*
D03*
Y426500D02*
D03*
Y431500D02*
D03*
Y436500D02*
D03*
Y441500D02*
D03*
Y446500D02*
D03*
D71*
X530728Y191500D02*
D03*
Y196500D02*
D03*
Y201500D02*
D03*
Y206500D02*
D03*
Y391500D02*
D03*
Y396500D02*
D03*
Y401500D02*
D03*
Y406500D02*
D03*
X509272D02*
D03*
Y401500D02*
D03*
Y396500D02*
D03*
Y391500D02*
D03*
Y206500D02*
D03*
Y201500D02*
D03*
Y196500D02*
D03*
Y191500D02*
D03*
X428272Y184000D02*
D03*
Y189000D02*
D03*
Y194000D02*
D03*
Y199000D02*
D03*
Y204000D02*
D03*
Y209000D02*
D03*
Y214000D02*
D03*
X449728Y184000D02*
D03*
Y189000D02*
D03*
Y194000D02*
D03*
Y199000D02*
D03*
Y204000D02*
D03*
Y209000D02*
D03*
Y214000D02*
D03*
Y414000D02*
D03*
Y409000D02*
D03*
Y404000D02*
D03*
Y399000D02*
D03*
Y394000D02*
D03*
Y389000D02*
D03*
Y384000D02*
D03*
X428272Y414000D02*
D03*
Y409000D02*
D03*
Y404000D02*
D03*
Y399000D02*
D03*
Y394000D02*
D03*
Y389000D02*
D03*
Y384000D02*
D03*
M02*
