M48
;Layer_Color=9474304
;FILE_FORMAT=2:5
INCH,LZ
;TYPE=PLATED
T1F00S00C0.01500
T2F00S00C0.02000
T3F00S00C0.02362
T4F00S00C0.02800
T5F00S00C0.03000
T6F00S00C0.03504
T7F00S00C0.03902
T8F00S00C0.03937
T9F00S00C0.04016
T10F00S00C0.04700
T11F00S00C0.04724
T12F00S00C0.05000
T13F00S00C0.05098
T14F00S00C0.05118
T15F00S00C0.06181
T16F00S00C0.06200
T17F00S00C0.12000
T18F00S00C0.12008
T19F00S00C0.12500
T20F00S00C0.12795
T21F00S00C0.15000
;TYPE=NON_PLATED
T22F00S00C0.03201
T23F00S00C0.04799
%
T01
X0004Y011226
X0019Y0101284
X0037Y0103667
X0047846Y00915
X0028Y00895
X0028323Y0126532
X0041153Y0133587
X0042331Y014376
X0024231
X0061823Y0144
X0066636Y0150789
X0088731Y014376
X01085Y0144706
X0121331Y0130331
X0128024Y0127024
X0138384Y014376
X0132Y0101284
X0134Y009
X0098847Y0091285
X0087Y0103667
X0073831Y0096169
X00695Y0116479
X0074654Y0129347
X0079323Y01255
X009176Y0124
X0098847Y0123346
X0047846Y01225
X0156331Y014376
X0176711Y0149
X018962Y01305
X0190823Y0125823
X0203Y0125
X0210347Y0124
X0199571Y0131892
X0202884Y014376
X0225323Y0147
X0238154Y01305
X0244865
X0252577Y0123614
X025927Y0123653
X0252538Y014376
X0270331
X0292Y0101284
X0288Y0091
X0312Y0093
X025927Y00895
X0247Y0102
X02325Y0097211
X0223Y0090303
X0210347Y0089569
X0188Y0097211
X0179Y0101284
X017Y009
X0156331Y0089
X0234Y0113787
X0317038Y014376
X0334831
X0366691
X0384384Y0144206
X0386554Y0137
X0379224Y0136776
X0364054Y0123653
X0373909Y0105331
X0364054Y0090788
X034Y0097
Y0101284
X0332517Y0091
X0392667Y0096877
X0404715Y0101
X040685Y0106
X0398748Y01255
X0424Y0122653
X04365Y01235
X04454Y0125
X0449331Y014376
X0431191
X0434374Y014
X0425876Y0138
X0420935Y0142131
X0398748Y01555
X0424061Y009039
X0433421Y0084592
X0457Y009
X0466438Y0076153
X04795Y00859
X0496
X0504Y00975
X0517Y0101284
X0521321Y0089569
X0508491Y0109991
X05195Y01215
X0525459Y012
X0529972Y0129087
X05366Y013
X0545345Y014376
X0562831
X0570279Y0124049
X05765Y01295
X05851Y01296
X0594998Y014376
X0612331
X057Y010524
X0553
X0566153Y0090847
X057Y00859
X0525Y0149714
X0517141Y0145455
X0498331Y014376
X0480845
X0475117Y0107653
X047476Y0101284
X0635
X06325Y01078
X0630969Y00935
X0659498Y014376
X0677331
X07105Y0098
X0710536Y0094036
X0721Y0063163
X0701508Y00594
X06853Y0063059
X0741Y0058903
X07675Y00615
X0768Y008
X0752Y0086197
Y00915
Y0095702
X07435Y0112
X07645Y01165
X0768997Y01115
X07655Y01365
X0756Y01415
X0763Y00395
X07695Y0039
X07725Y0035
X0775046Y0037546
X0778Y00405
X0780439Y0023415
X0796Y0035
X07965Y0049
X08075Y00395
X08165Y00365
X0820619Y0036
X08145Y0033
X08235Y00235
X0824Y0042
Y0055
X0825Y0067
X0821
X0817
X0806746Y0078663
X08085Y0082
X0818941Y0090788
X0829Y00915
X0837Y00925
X08345Y00955
X08335Y0104
X0817Y0109
X0803Y0104
X0794Y0107
Y0126
X0805Y01225
X07845Y01375
Y01415
X079Y0083
X07845Y0070341
X0845Y00675
Y0083
X0870228Y009148
X0887099Y010185
X0892Y0111667
X0886926Y007848
X08765Y0067042
X0886926Y005498
X0881Y0042
X09065Y00495
X09145
X09225
X0911465Y0058
X0910235Y008
Y0086347
X0923Y0097
X09275Y00775
X0931Y0026
X09365
Y00115
X0931
X09015Y0004413
X0859Y0027014
X08365Y00335
X0972Y00525
X09915Y0057
X10015
X10115
X10965Y01445
X1139Y01305
Y0124
Y01145
X1161Y0115
Y01225
X116Y01365
X1190266Y0135525
X1186Y01225
X11865Y01175
X11825Y01145
X12015Y0119
X1203Y01035
X1208
Y0135
X12155
Y01465
Y0155
X1220163
X1238Y01465
Y0135
X1229677Y0122653
X1221921
X12445Y01195
X1246Y01035
X11605Y0100425
Y0091298
X1251Y01035
X1275
X1274177Y0122653
X12665
X126Y0135
X1251
X126Y01465
X12935Y01345
X1287Y01195
X13255Y0101
X1335394Y00955
X13305Y0081
X13265Y0085
X1316Y00875
X1312087Y0066616
X1349Y007882
X1363Y0105
X1367786
X1372571
X1377357
X1382143
X1386928
X1391714
X13965
X1405Y0122
Y01385
Y0149
X1379
Y01385
X13746Y0126894
X1361Y01385
Y0149
X1356Y01445
X1335
Y0149
Y01385
X1384Y0054303
X1443Y00698
X1443663Y01455
X1451163
Y0151
X1449663Y01555
X1443663Y0155
X1428663Y0148
X14135Y01445
X14095
Y0129
X14135
X1418163Y01365
X1464163Y01445
X1475663Y01365
X1509163
X1521163Y01445
X1534663Y01455
X1542163
Y0151
X1540663Y01555
X1534663Y0155
X1555163Y01445
X1566663Y01365
X16045Y01465
X16095Y0146551
X16145Y01465
X16195
X16245
X16295Y0146551
X16345Y01465
X16635
X16685Y0146551
X16735Y01465
X16785
X16835
X16885Y0146551
X16935Y01465
X16835Y0128
X1682631Y0120653
X1692693Y0115
X16145Y0121
Y01275
X1563Y0045
X1565831Y0159807
X1566663Y0194
Y02175
Y02515
Y0275
Y0309
X16145Y0308
Y03005
Y0294
Y0287
X1614Y0273
Y0266
X16145Y02475
X16195
X16245
X16295Y0247551
X16345Y02475
X16095Y0247551
X16045Y02475
X16Y0257
X16145Y02285
Y0222
X16225Y0215
X16145Y0207
Y01995
Y0193
Y0186
X16225Y0178
X161175Y016725
X1596Y0193
X1646Y019
X1652
Y0203
X1646
X1684Y02
Y0193
Y01865
X1678346Y0177
X1688Y0165154
X1684Y0207
X16835Y0222
X1675Y02285
X16755Y0215
X16735Y02475
X16785
X16835
X16885Y0247551
X16935Y02475
X1697Y0231
X16685Y0247551
X16635Y02475
X1668Y0266975
X167763Y027881
X1684Y02875
Y0294
Y0301
Y0308
X1697Y0287
X1652Y0291
X1646
Y0304
X1652
X16225Y0279
X1560163Y0275
X1545163Y02745
X1540663Y02705
X1542163Y0266
X1541817Y0261
X1534663Y0261041
Y027
X1515663Y02745
X1509163
X15105Y02945
X1509163Y0309
X1475663
X1482516Y02945
X14605Y0293
X1455663Y0286
X1454163Y02745
X1449663Y02705
X1451163Y0266
Y02605
X1443663
Y027
X1424663Y02745
X1418163
X1418Y0293
X1418163Y0309
X14085Y0303
X1418163Y02515
X1430163Y02595
X1464163
X1475663Y02515
Y0275
X1469163
Y02255
Y02175
X1475663
X14645Y0222
X14575
X1455663Y02285
X1454163Y0217
X1449663Y0213
X1451163Y02085
Y0203
X1443663
Y02125
X1424663Y0217
X1418163
Y0194
X14215Y01785
X1428
X1424663Y01595
X1418163
X1454163
X1455663Y0171
X14575Y01785
X14755
X1475663Y0194
X1464163Y0202
X1430163
X1469163Y016
X1475663
X1509163Y01595
X1515663
X1545163
X1546663Y0171
X1560163Y016
X1555163Y0202
X1542163Y0203
Y02085
X1540663Y0213
X1534663Y02125
Y0203
X1521163Y0202
X1509163Y0194
Y0217
X1515663
X1545163
X1546663Y02285
X1560163Y02175
X1555163Y02595
X1521163
X1509163Y02515
X1546663Y0286
X14045Y02745
X1403Y02655
X1398
X13875Y02745
X13735Y02793
X13605Y02745
X1359Y0266
X13435Y02745
X13425Y0296
X13865
X13835Y0303
X13865Y0247
X13795
X13735Y02303
X13605Y02255
X1359Y0217
X13435Y02255
X13425Y0247
Y0198
X13435Y01765
X13605
X1361Y01655
X1379
X13875Y01765
X14045
X1405Y01655
X14035Y01895
X13865Y0198
X13825
X13735Y01813
X1335Y01655
X13875Y02255
X14045
X1403Y02165
X1251Y0253
X1247Y02495
X12005Y01887
X1196Y019
X1069591Y0304591
X1072137Y0307137
X1067046Y0302046
X10645Y02995
X0957Y0306871
X0954454Y0309417
X0951909Y0311962
X09335Y03065
Y03029
Y02993
Y02957
X0922Y0306
X0914397Y03015
X0907873
X0902024Y0301275
X0898424
X0893311Y03015
X0889426
X0885826
X0879977Y0301275
X0876377
X0870528
X0866928
X08625Y0303
X085793Y0301275
X085433
X0848481Y03015
X0844881
X0839032
X0835432
X0829583
X0825984
X0820135
X0816535
X0810686
X0807086
X0801237
X0797637
X0791563
X07875
X07885Y0286
X0785264Y0283154
X0782Y02865
X0794713Y02845
X0804161
X081361
X0823059
X0832508
X0841957Y0284339
X0851406Y0284339
X0873453Y02845
X0882902
X0904949
X0906Y02685
X0914397
X0923846
X0897Y0243
X0894334Y0240575
X08845Y02425
X0881894Y0240015
X0875Y02445
X0872Y0242
X08625Y02445
X08655Y02475
X0853Y02465
X0850262Y0244147
X08435Y0249
X0840822Y0246587
X0834Y02515
X0831382Y0249026
X08245Y0254
X0821894Y0251515
X08125Y0254
X0815Y0257
X0806Y02595
X0803234Y0257175
X0796Y02615
X0793294Y0259115
X0791563Y0267
X0862706Y0186
X0867153
X0870528Y0188
X0875531
X0873207Y0195091
X0878Y0195
X0898Y0204
X0859Y0181
X08625Y01765
X077Y0264536
X0766Y0265
X0762Y0266
X0758Y02685
X0771765Y0284339
X0775365
X0778965
X0690831Y0310371
X0649498Y01865
X0652Y0180526
X0642
X065Y016465
X0615831Y0167996
X0609331
Y0186496
X0615831
X05851Y0162
X0576Y0161535
X0536665Y0160558
X0529806Y0170835
X051638Y0177
X05054Y0185
X0498331Y019026
X0491831Y019076
Y017276
X0498331Y0172774
X0469345Y0181
X0414126Y0176
X0403567Y01595
X0388Y0174
X0378038
X0391Y0185
X0384Y0197
X0391094Y0205405
X04035Y0217
X0357Y0213712
X03555Y0272
X035
X03368Y02655
X03301Y0274565
X03234Y0293
X03679
X03746Y0274565
X03816Y02655
X03945Y0272
X031
X03045Y0272
X0284741Y0275
X0278Y02655
X02645Y0271346
X0291441Y0293
X0270331Y019026
X0263831
Y017326
X0270331
X0303831Y017626
Y017005
X0244847Y0161153
X0238Y0165
X0197Y016216
X01855Y0160458
X0185626Y0176
X0156Y0168202
X0149424Y0171424
X0128024Y0161976
X01206
X0081Y0161
X00732Y0172
X0058Y0176
X0035831Y017326
X0035331Y019076
X0042331
X0007Y0378214
X0104
X0152Y0375074
Y0381853
X0181328Y0374698
Y0389054
X0308808Y0390489
X0346806Y0398648
X06645Y0404859
X06705Y0404859
X06755
Y0401
Y0397321
Y03935
X0690831Y0395411
X0690831Y04005
X0690831Y0404859
X0693Y0407784
Y0411384
X0690831Y0414308
X0693Y0417232
Y0420832
X0690831Y0423757
X0693Y0426681
Y0430281
X0690831Y0433206
X0693Y043613
Y043973
X0690831Y0442654
X0693Y0445579
Y0449179
X06705Y0442654
X06645
Y0433206
X06705Y0433
Y0423757
X06645
Y0414309
X06705Y0414308
X0690831Y0379663
X0690831Y0370214
X0689Y0360815
X0690831Y035739
X0690831Y0348166
X0690831Y0329269
X0690831Y031982
X0716409Y0330591
X0713863Y0333137
X0718954Y0328046
X07215Y03255
X0715Y0355035
X0717Y03895
X0713
X07205Y03869
X0764954Y0330954
X07675Y03335
X0762409Y0328409
X0759863Y0325863
X07743Y04364
X07755Y044
X0773215Y0456777
X0778965Y04575
X0779Y04615
X0794713Y0459339
X0804161Y0459339
X081361Y04595
X0823059Y0459339
X0832508Y0459339
X0841957Y0459339
X0851406Y0459339
X085433Y0443237
X085793
X0867153
X0848481
X0844881
X0839032
X0835432
X0829583
X0825983
X0820135
X0816535
X0811
X0807311
X0801237
X0797637
X0792013Y04435
X0788413
X0784813
X0873452Y0459339
X0882902Y0459339
X0904949Y04595
X0920697Y0459338
X0926996Y0459339
X0894Y0444
X0883302Y0377067
X0890002Y0358653
X0896702Y036
X0897002Y0347
X09095Y0352
X0922Y03425
X0918Y0372307
X0936811Y0368653
X0926Y0393653
X0883302Y0351
X08715Y0355847
X08625Y03435
X0959Y0351
X0971688Y035
Y036
X0978388Y0358653
X09985Y0351
X1046591Y0327591
X1049137Y0330137
X1044046Y0325046
X10415Y03225
X0949363Y0314508
X0938811Y0372153
X0951842Y0381889
X094873Y0413
X094513
X094153
Y0428
X094513
X094873
X1303Y03955
X1317
Y0403
X134484Y0372
X1359Y0364
X13425Y0345
X13435Y03235
X13605
X1359Y0315
X13735Y03283
X13875Y03235
X14045
X1403Y03145
X13865Y0345
X1403Y03635
X1345Y0457
X14565Y0448654
Y0438654
X14725Y0436
Y0448
X148825Y0450279
Y0445653
Y0441028
Y0436404
X14945
Y0441028
Y0445653
Y0450279
Y0454904
X150075
Y0450279
Y0445653
Y0441028
Y0436404
X1512643Y0434827
X1514Y0440732
X1513Y04535
Y04595
X1509Y04685
X150139Y0467
X14955
X1481Y04685
X148825Y0454904
X1485642Y0425342
X1494Y04225
X14985Y04245
X1504
X150139Y04215
X1516Y0417
X1522Y04155
X1526847
X1517Y0410307
X1520106Y0373
Y0363
Y0353
X1509163Y0363
X1507Y0373
X15Y0372307
X14921Y0365
X14906Y0358
X14799Y0357436
Y035
Y0364871
Y0372307
X14725Y0395
Y0404859
X14645Y0410307
Y0417
X1443293Y0370214
X1455663Y03435
X1454163Y0332
X1449663Y0328
X1451163Y03235
Y0318
X1443663
Y03275
X1424663Y0332
X1418163
X1430163Y0317
X1464163
X1469163Y03325
X1475663
X14692Y03401
X1509163Y0332
X1515663
X1521163Y0317
X1534663Y0318
X1542163
Y03235
X1540663Y0328
X1534663Y03275
X1545163Y0332
X1546663Y03435
X1560163Y03325
X1555163Y0317
X1526847Y0467433
X1520154
X1413Y035739
X15835Y0351
Y03435
X1566663Y03325
X1608Y0361077
X1617
X1626
X1635
X16361Y03765
X16397
X16433
X16469
X16505
X16541
X16577
X16613
X1661894Y0361077
X1672263
X1682631
X1693
X16765Y04035
X1679847Y0414308
X1673153
X1668Y0417
X1669Y0410307
X16515Y04215
X1654358Y0425
X1648453
X1645Y0420832
X1636Y0424
X163925Y0436404
Y0441028
Y0445653
Y0450279
Y0454904
X16455
Y0450279
Y0445653
Y0441028
Y0436404
X165175
Y0441028
Y0445653
Y0450279
Y0454904
X165239Y0466051
X16465
X16355Y04685
X166Y0468
X1664Y04585
Y0452543
Y0440732
Y0434827
X1673153Y0466051
X1679847Y0466
X16195Y0455
X16115Y0454904
X1615154Y0432927
X1621847
X1616Y0417
Y0410307
X1611
X1636Y04035
X16225Y0316
X16755
X15655Y04495
X1566Y0456193
X1576Y05015
X1623Y048
X1676
Y0473307
X1562Y0484949
X1552Y04835
X15245Y048
Y0473307
X1472516Y048
X0803612Y04741
X0794163
Y04835
X0780091Y0483091
X0777546Y0480546
X0775Y0478
X0540524Y0486145
X05184Y0482433
X05054Y0471
X0385908Y0500012
X0383742Y0513489
T02
X14085Y03955
Y0403
T03
X09915Y0006
X10015
X10115
Y0036
X10015
X09915
T04
X10425Y0016
Y0036
X11435Y0017
X0364Y0513304
X0347921Y0516508
X0318Y0516598
X0205683Y0472208
T05
X04445Y00439
X0483014Y0048
X0503Y0269
X03816Y0310805
X03676Y0310305
X03371Y0310805
X03231Y0310305
X0291741Y031124
X0277741Y031074
X0284741Y03185
X0291741Y032574
X0277741
X03231Y0325305
X03371
X03301Y0318065
X03746Y0318065
X03816Y0325305
X03676
X0534Y0457
X0883002Y0409394
X0897002
X0890002Y0402153
X0897002Y0394894
X0883002Y0394394
X0971388
X0985388Y0394894
X0978388Y0402153
X0985388Y0409394
X0971388
T06
X0693508Y0080303
X0701508
X07095
X0717508
X0725508
X07335
X07375Y0090303
X07295
X07215
X07055
X06975
X06895
X1479016Y0090284
X1489016
X1499016
X1509016
X1504016Y0100284
X1494016
X1484016
Y00743
X1494016
X1504016
X1514016
X1509016Y00643
X1499016
X1489016
X1479016
X1534016
X1544016
X1554016
X1549016Y00743
X1539016
X1559016
X1554016Y0090284
X1544016
X1534016
X1539016Y0100284
X1549016
X1559016
X1514016
X1569016
X1564016Y0090284
X1569016Y00743
X1564016Y00643
X1589016
X1599016
X1609016
X1619016
X1624016Y00743
X1614016
X1604016
X1594016
X1589016Y0090284
X1599016
X1609016
X1619016
X1614016Y0100284
X1604016
X1594016
X1624016
X1649016
X1659016
X1669016
X1679016
X1674016Y0090284
X1664016
X1654016
X1644016
X1649016Y00743
X1659016
X1669016
X1679016
X1674016Y00643
X1664016
X1654016
X1644016
T07
X0874776Y00125
X0892492
X0956783Y001276
X09745
T08
X1354642Y0031909
X1365547
X1376453
X1387358
X1381905Y0043091
X1371
X1360095
X1349189
X1392811
X0136Y0358381
Y0368381
Y0378381
Y0388381
Y0408381
Y0418381
Y0428381
X0055
Y0418381
Y0408381
Y0388381
Y0378381
Y0368381
Y0358381
X0385767Y0401607
Y0421307
X0441881
Y0401607
X0497996Y0401607
Y0421307
T09
X0757Y0046
X0767
X0793Y0044
Y0054
Y0064
X10625Y011
Y012
X10725
X10825
X10925
Y011
X10825
X10725
X11025
Y012
X11125
X11225
Y011
X11125
X11315Y0130289
Y0140289
X14175Y0068
Y0058
X13105Y01875
Y01975
Y02075
Y02175
X13005
Y02075
Y01975
Y01875
Y0233
X13105
Y0243
Y0253
Y0263
X13005
Y0253
Y0243
Y0278
X13105
Y0288
Y0298
Y0308
X13005
Y0298
Y0288
X12585Y01715
Y01585
X12485
X12385
Y01715
X12485
X121
X12
X119
Y01585
X12
X121
X0567Y0172
X0557
X0547
X0546983Y0185
X0556983
X0566983
X04615Y0191499
X04515
X04415
X04515Y0201499
Y0174
Y0164
X04415
X04615
X0459Y0295917
Y0305917
X0449
Y0295917
X0136Y0333853
X0126
X0055
X0045
X019877Y0313137
X020877
X0449Y0315917
X0459
X12285Y0456777
X12385
Y0466777
X12285
Y0476777
X12385
T10
X004595Y00327
X005685
X006775
X007865
X008955
X010045
X011135
X01059Y00439
X01168
X011135Y00593
X010045
X008955
X007865
X006775
X005685
X004595
X00514Y00705
X00623
X00732
X00841
X0095
X01059
X01168
X0095Y00439
X00841
X00732
X00623
X00514
X00405
Y00705
X0200233
X0211133
X0222033
X0232933
X0243833
X0254733
X0265633
X0276533
X0271083Y00593
X0260183
X0249283
X0238383
X0227483
X0216583
X0205683
X0200233Y00439
X0211133
X0222033
X0232933
X0243833
X0254733
X0265633
X0276533
X0271083Y00327
X0260183
X0249283
X0238383
X0227483
X0216583
X0205683
X0365417
X0376317
X0387217
X0398117
X0409017
X0419917
X0430817
X0425367Y00439
X0436267
X0430817Y00593
X0419917
X0409017
X0398117
X0387217
X0376317
X0365417
X0370867Y00705
X0381767
X0392667
X0403567
X0414467
X0425367
X0436267
X0414467Y00439
X0403567
X0392667
X0381767
X0370867
X0359967
Y00705
X05197
X05306
X05415
X05524
X05633
X05742
X05851
X0596
X059055Y00593
X057965
X056875
X055785
X054695
X053605
X052515
X05197Y00439
X05306
X05415
X05524
X05633
X05742
X05851
X0596
X059055Y00327
X057965
X056875
X055785
X054695
X053605
X052515
X119425Y00328
X120515
X121605
X122695
X123785
X124875
X12433Y0044
X12324
X12215
X12106
X11997
X11888
X119425Y00594
X120515
X121605
X122695
X123785
X124875
X12433Y00706
X12324
X12215
X12106
X11997
X11888
X12542
X12651
X125965Y00594
X12542Y0044
X12651
X125965Y00328
T11
X0199101Y0345717
X0239101
X0279101
Y0425717
X0249101
X0229101
T12
X06839Y0019303
Y0029303
Y0039303
X07431Y0029303
Y0019303
T13
X0869835Y0022303
X0897433
X0951842Y0022563
X0979441
T14
X0473158Y0509
X0492842
X0516
X0535685
X0449843
X0430158
T15
X1462933Y0021308
X1466024Y0075284
X1462933Y0100284
X1524016Y0107292
X1579016
X1634016
X1695Y00843
X1691909Y0062292
X1695Y0021308
T16
X06789Y0054303
X07481
T17
X001305Y00327
Y00642
X014425
Y00327
X0172783
Y00642
X0303983
Y00327
X0332517
Y00642
X0463717
Y00327
X049225
Y00642
X062345
Y00327
X116135Y00328
Y00643
X129255
Y00328
T18
X1321807Y00375
X1420193
T19
X1034831Y0274289
X0664831
X1034831Y0469289
X0664831
T20
X06945Y0054303
X07325
X1474016Y00393
X1684016
T21
X0656Y0022
X0954454Y01455
X1587Y0169
X11695Y02215
X0017Y0201499
X0615Y043
X1681Y0506
X1135
X0023
T22
X0690831Y0284789
X0762831Y0284339
Y0459339
T23
X0936831Y0284339
X0690831Y0458789
X0936831Y0459339
M30
