<svg id="Layer_1" data-name="Layer 1" xmlns="http://www.w3.org/2000/svg" viewBox="0 0 849.33 487.6"><defs><style>.cls-1,.cls-15,.cls-2,.cls-22,.cls-28,.cls-29,.cls-4,.cls-40,.cls-41{fill:none;}.cls-1{stroke:#ed1c24;stroke-dasharray:6;}.cls-1,.cls-15,.cls-17,.cls-2,.cls-22,.cls-28,.cls-29,.cls-33,.cls-37,.cls-39,.cls-40,.cls-41{stroke-miterlimit:11.34;}.cls-1,.cls-10,.cls-2,.cls-3{stroke-width:1.5px;}.cls-2{stroke:blue;}.cls-3{fill:#b7ebbf;}.cls-10,.cls-17,.cls-29,.cls-3,.cls-36,.cls-37,.cls-41{stroke:#000;}.cls-10,.cls-3,.cls-4{stroke-miterlimit:10;}.cls-22,.cls-28,.cls-33,.cls-38,.cls-39,.cls-4,.cls-40{stroke:gray;}.cls-28,.cls-29,.cls-4{stroke-width:2.5px;}.cls-23,.cls-27,.cls-32,.cls-33,.cls-34,.cls-38,.cls-39,.cls-5{fill:gray;}.cls-18,.cls-32,.cls-34,.cls-6{font-size:16px;}.cls-14,.cls-18,.cls-23,.cls-27,.cls-30,.cls-31,.cls-32,.cls-34,.cls-35,.cls-6{font-family:CambriaMath, Cambria Math;}.cls-7{letter-spacing:-0.01em;}.cls-8{letter-spacing:-0.01em;}.cls-9{letter-spacing:-0.08em;}.cls-10{fill:#acc2e8;}.cls-11{letter-spacing:-0.01em;}.cls-12{letter-spacing:-0.01em;}.cls-13{letter-spacing:-0.02em;}.cls-14,.cls-16,.cls-18,.cls-23,.cls-34,.cls-35{isolation:isolate;}.cls-14,.cls-23,.cls-27{font-size:20px;}.cls-15{stroke:#e6e6e6;stroke-linecap:round;}.cls-15,.cls-33,.cls-37,.cls-39{stroke-width:2.83px;}.cls-17{fill:#fff6d5;}.cls-17,.cls-22{stroke-width:1.42px;}.cls-19{letter-spacing:-0.08em;}.cls-20{letter-spacing:-0.07em;}.cls-21{letter-spacing:-0.01em;}.cls-24{letter-spacing:-0.03em;}.cls-25{letter-spacing:-0.02em;}.cls-26{letter-spacing:-0.02em;}.cls-30{font-size:11.81px;}.cls-30,.cls-31{fill:#ed1c24;}.cls-31{font-size:12px;}.cls-35{font-size:14px;fill:blue;}.cls-36,.cls-38{stroke-miterlimit:4.54;stroke-width:1.13px;}.cls-36,.cls-37,.cls-38,.cls-39{fill-rule:evenodd;}.cls-40,.cls-41{stroke-width:2.8px;}</style></defs><rect class="cls-1" x="0.75" y="75.2" width="499.99" height="219.65"/><rect class="cls-1" x="529.95" y="75.2" width="318.63" height="221.65"/><rect class="cls-2" x="466.13" y="59.54" width="148.4" height="250.96"/><rect class="cls-3" x="137.98" y="85.02" width="60" height="200"/><path class="cls-4" d="M1088.14,2460.83c13.95,10.36,16.74,45.13,35.43,45.13,22,0,22-48,43.94-48,18.69,0,21.48,34.76,35.43,45.12" transform="translate(-1073.47 -2296.93)"/><polygon class="cls-5" points="13.92 170.79 6.17 161.02 18.5 159.2 13.92 170.79"/><polygon class="cls-5" points="125.65 210.85 137.98 209.02 130.23 199.26 125.65 210.85"/><path class="cls-4" d="M1088.14,2503.08c13.95-10.36,16.74-45.12,35.43-45.12,22,0,22,48,43.94,48,18.69,0,21.48-34.76,35.43-45.12" transform="translate(-1073.47 -2296.93)"/><polygon class="cls-5" points="18.5 210.85 6.17 209.02 13.92 199.26 18.5 210.85"/><polygon class="cls-5" points="130.23 170.79 137.98 161.02 125.65 159.19 130.23 170.79"/><text class="cls-6" transform="translate(174.95 247.3) rotate(-90)">DB - 15 Connec<tspan class="cls-7" x="104.18" y="0">t</tspan><tspan x="109.45" y="0">or</tspan></text><rect class="cls-3" x="636.04" y="85.02" width="60" height="200"/><text class="cls-6" transform="translate(673.02 238.3) rotate(-90)">Sc<tspan class="cls-8" x="14.99" y="0">r</tspan><tspan x="21.38" y="0">ew </tspan><tspan class="cls-9" x="45.09" y="0">T</tspan><tspan x="53.28" y="0">erminal</tspan></text><rect class="cls-10" x="331.08" y="85.02" width="116.61" height="72.78"/><text class="cls-6" transform="translate(342.01 107.16)">Dif<tspan class="cls-11" x="19.88" y="0">f</tspan><tspan x="24.52" y="0">e</tspan><tspan class="cls-8" x="32.33" y="0">r</tspan><tspan x="38.71" y="0">ential </tspan><tspan class="cls-7" x="80.98" y="0">t</tspan><tspan x="86.26" y="0">o </tspan><tspan x="2.25" y="19.2">Sin</tspan><tspan class="cls-12" x="23.56" y="19.2">g</tspan><tspan x="31.36" y="19.2">le-Ended </tspan><tspan x="13.39" y="38.4">Co</tspan><tspan class="cls-13" x="30.88" y="38.4">nv</tspan><tspan x="47.25" y="38.4">er</tspan><tspan class="cls-7" x="61.67" y="38.4">t</tspan><tspan x="66.94" y="38.4">er</tspan></text><rect class="cls-10" x="331.08" y="212.24" width="116.61" height="72.78"/><text class="cls-6" transform="translate(342.01 234.38)">Dif<tspan class="cls-11" x="19.88" y="0">f</tspan><tspan x="24.52" y="0">e</tspan><tspan class="cls-8" x="32.33" y="0">r</tspan><tspan x="38.71" y="0">ential </tspan><tspan class="cls-7" x="80.98" y="0">t</tspan><tspan x="86.26" y="0">o </tspan><tspan x="2.25" y="19.2">Sin</tspan><tspan class="cls-12" x="23.56" y="19.2">g</tspan><tspan x="31.36" y="19.2">le-Ended </tspan><tspan x="13.39" y="38.4">Co</tspan><tspan class="cls-13" x="30.88" y="38.4">nv</tspan><tspan x="47.25" y="38.4">er</tspan><tspan class="cls-7" x="61.67" y="38.4">t</tspan><tspan x="66.94" y="38.4">er</tspan></text><g id="text17741"><text class="cls-14" transform="translate(15.04 367.58)">Legend:</text></g><rect id="rect17743" class="cls-15" x="6.17" y="345.63" width="224.69" height="119.48"/><g id="text17777"><text class="cls-16" x="-1073.47" y="-2296.93"/><text class="cls-16" x="-1073.47" y="-2296.93"/><text class="cls-16" x="-1073.47" y="-2296.93"/></g><rect id="rect11473" class="cls-17" x="18.37" y="375.53" width="42.4" height="26.1"/><g id="text11477"><text class="cls-18" transform="translate(26.16 393.89)"><tspan class="cls-19">L</tspan><tspan x="7.26" y="0">VL</tspan></text></g><rect id="rect11473-2" data-name="rect11473" class="cls-17" x="494.13" y="108.36" width="42.4" height="26.1"/><g id="text11477-2" data-name="text11477"><text class="cls-18" transform="translate(501.92 126.72)"><tspan class="cls-19">L</tspan><tspan x="7.26" y="0">VL</tspan></text></g><rect id="rect11473-3" data-name="rect11473" class="cls-17" x="494.13" y="239.37" width="42.4" height="26.1"/><g id="text11477-3" data-name="text11477"><text class="cls-18" transform="translate(501.92 257.73)"><tspan class="cls-19">L</tspan><tspan x="7.26" y="0">VL</tspan></text></g><text class="cls-6" transform="translate(69.57 392.55)"><tspan class="cls-20">V</tspan><tspan x="8.56" y="0">oltage L</tspan><tspan class="cls-21" x="62.45" y="0">e</tspan><tspan class="cls-13" x="70.09" y="0">v</tspan><tspan x="77.84" y="0">el Shif</tspan><tspan class="cls-7" x="119.57" y="0">t</tspan><tspan x="124.84" y="0">er</tspan></text><path id="path12203-2" class="cls-22" d="M1218,2332.07v-12.3h544.77v12.3" transform="translate(-1073.47 -2296.93)"/><path id="path12203-2-2" data-name="path12203-2" class="cls-22" d="M1769.51,2332.07v-12.3H1922v12.3" transform="translate(-1073.47 -2296.93)"/><g id="text12213-2"><text class="cls-23" transform="translate(6.17 17.68)"><tspan class="cls-24">T</tspan><tspan x="11.27" y="0">wis</tspan><tspan class="cls-7" x="40.91" y="0">t</tspan><tspan x="47.5" y="0">ed Cable</tspan></text></g><g id="text12213-2-2" data-name="text12213-2"><text class="cls-23" transform="translate(711.18 16.66)"><tspan class="cls-25">P</tspan><tspan x="10.99" y="0">eriphe</tspan><tspan class="cls-26" x="66.48" y="0">r</tspan><tspan x="74.41" y="0">al I/O</tspan></text></g><path id="path12164" class="cls-22" d="M1074.22,2332.07v-12.3h136.56v12.3" transform="translate(-1073.47 -2296.93)"/><text class="cls-27" transform="translate(238.06 18.74)">Dif<tspan class="cls-11" x="24.84" y="0">f</tspan><tspan x="30.65" y="0">e</tspan><tspan class="cls-8" x="40.41" y="0">r</tspan><tspan x="48.39" y="0">ential-</tspan><tspan class="cls-7" x="103.47" y="0">t</tspan><tspan x="110.06" y="0">o</tspan><tspan class="cls-24" x="120.67" y="0">-</tspan><tspan x="126.73" y="0">Sin</tspan><tspan class="cls-12" x="153.37" y="0">g</tspan><tspan x="163.12" y="0">le-Ended Co</tspan><tspan class="cls-13" x="265.82" y="0">nv</tspan><tspan x="286.28" y="0">ersion</tspan></text><line class="cls-28" x1="206.95" y1="122.72" x2="331.08" y2="122.72"/><polygon class="cls-5" points="208.77 128.96 197.98 122.72 208.77 116.49 208.77 128.96"/><line class="cls-29" x1="448.05" y1="252.42" x2="485.16" y2="252.42"/><polygon points="483.34 258.66 494.13 252.43 483.34 246.19 483.34 258.66"/><line class="cls-29" x1="536.53" y1="252.42" x2="627.07" y2="252.42"/><polygon points="625.25 258.66 636.04 252.43 625.25 246.19 625.25 258.66"/><line class="cls-29" x1="545.5" y1="121.41" x2="636.04" y2="121.41"/><polygon points="547.33 127.65 536.53 121.41 547.33 115.18 547.33 127.65"/><line class="cls-29" x1="457.02" y1="121.41" x2="494.13" y2="121.41"/><polygon points="458.84 127.65 448.05 121.41 458.84 115.18 458.84 127.65"/><line class="cls-28" x1="197.98" y1="248.63" x2="322.23" y2="248.63"/><polygon class="cls-5" points="320.41 254.87 331.2 248.63 320.41 242.4 320.41 254.87"/><text class="cls-30" transform="translate(264.59 68.2) scale(1.02 1)">5V</text><text class="cls-31" transform="translate(654.55 68.2)">3.3V</text><line class="cls-29" x1="705.58" y1="105.41" x2="827.18" y2="105.41"/><polygon points="707.41 111.65 696.61 105.41 707.41 99.18 707.41 111.65"/><line class="cls-29" x1="705.58" y1="135.41" x2="827.18" y2="135.41"/><polygon points="707.41 141.65 696.61 135.41 707.41 129.18 707.41 141.65"/><line class="cls-29" x1="696.61" y1="241.41" x2="818.21" y2="241.41"/><polygon points="816.39 247.65 827.18 241.41 816.39 235.18 816.39 247.65"/><line class="cls-29" x1="696.61" y1="271.41" x2="818.21" y2="271.41"/><polygon points="816.39 277.65 827.18 271.41 816.39 265.18 816.39 277.65"/><text class="cls-32" transform="translate(228.08 116.62)">GP_IN (2x)</text><text class="cls-6" transform="translate(560.61 117.62)">GP_IN</text><text class="cls-6" transform="translate(720.53 100.45)">GP1_IN</text><text class="cls-6" transform="translate(720.53 130.23)">GP2_IN</text><text class="cls-6" transform="translate(704.09 235.58)">GP1_OUT (2x)</text><text class="cls-6" transform="translate(704.09 265.47)">GP2_OUT (2x)</text><text class="cls-6" transform="translate(549.01 247.39)">GP_OUT</text><text class="cls-32" transform="translate(227.28 241.88)">GP_OUT (2x)</text><text class="cls-32" transform="translate(40.83 146.85)">GP_IO(4x)</text><path id="path10776" class="cls-33" d="M1285.28,2429.1l12.4-17.1" transform="translate(-1073.47 -2296.93)"/><g id="text11530"><text class="cls-34" transform="translate(218.01 137.2)">4</text></g><path id="path10776-2" data-name="path10776" class="cls-33" d="M1285.28,2552.87l12.4-17.1" transform="translate(-1073.47 -2296.93)"/><g id="text11530-2" data-name="text11530"><text class="cls-34" transform="translate(216.9 263.01)">4</text></g><g id="text819-5-8-91-5-0-8-0-3-5-7-9-7-9"><text class="cls-35" transform="translate(515.33 53.26)">2x copies on PCB</text></g><path id="path5299" class="cls-36" d="M1129.13,2720.4l-9.8,5.7v-11.3Z" transform="translate(-1073.47 -2296.93)"/><path id="path5297" class="cls-37" d="M1122.63,2720.4" transform="translate(-1073.47 -2296.93)"/><g id="text7955"><text class="cls-18" transform="translate(69.98 426.67)">Sin<tspan class="cls-12" x="21.31" y="0">g</tspan><tspan x="29.11" y="0">le-Ended signal</tspan></text></g><path id="path7969" class="cls-38" d="M1129.13,2742l-9.8,5.7v-11.4Z" transform="translate(-1073.47 -2296.93)"/><path id="path7963" class="cls-39" d="M1122.63,2742" transform="translate(-1073.47 -2296.93)"/><g id="text7967"><text class="cls-18" transform="translate(69.98 448.18)">Dif<tspan class="cls-11" x="19.88" y="0">f</tspan><tspan x="24.52" y="0">e</tspan><tspan class="cls-8" x="32.33" y="0">r</tspan><tspan x="38.71" y="0">ential signal</tspan></text></g><line class="cls-40" x1="49.16" y1="445.46" x2="25.27" y2="445.46"/><line class="cls-41" x1="49.16" y1="423.46" x2="25.27" y2="423.46"/><g id="text11471"><text class="cls-34" transform="translate(9.43 108.36)">f</text><text class="cls-34" transform="translate(14.27 108.36)">r</text><text class="cls-34" transform="translate(20.66 108.36)">om AMDC</text></g></svg>