G04*
G04 #@! TF.GenerationSoftware,Altium Limited,Altium Designer,21.2.2 (38)*
G04*
G04 Layer_Color=16711935*
%FSLAX25Y25*%
%MOIN*%
G70*
G04*
G04 #@! TF.SameCoordinates,68DB08F9-83E3-4C5C-B4D2-480D45E1357E*
G04*
G04*
G04 #@! TF.FilePolarity,Negative*
G04*
G01*
G75*
%ADD12C,0.01000*%
%ADD16R,0.04540X0.04540*%
%ADD23C,0.06706*%
%ADD24C,0.20485*%
%ADD25C,0.04540*%
%ADD26C,0.16548*%
%ADD27C,0.08674*%
%ADD28C,0.30800*%
%ADD29C,0.03800*%
D12*
X120000Y240000D02*
G03*
X100000Y220000I0J-20000D01*
G01*
X350000D02*
G03*
X330000Y240000I-20000J0D01*
G01*
Y0D02*
G03*
X350000Y20000I0J20000D01*
G01*
X100000D02*
G03*
X120000Y0I20000J0D01*
G01*
Y240000D02*
X330000D01*
X350000Y20000D02*
Y220000D01*
X120000Y0D02*
X330000D01*
X100000Y20000D02*
Y220000D01*
D16*
X199307Y80000D02*
D03*
X192614D02*
D03*
X199307Y87500D02*
D03*
X192614D02*
D03*
X184307D02*
D03*
X177614D02*
D03*
X184500Y105000D02*
D03*
X177807D02*
D03*
Y97500D02*
D03*
X184500D02*
D03*
X177614Y80000D02*
D03*
X184307D02*
D03*
X192807Y97500D02*
D03*
X199500D02*
D03*
Y105000D02*
D03*
X192807D02*
D03*
X178000Y152500D02*
D03*
X184693D02*
D03*
X199693Y160000D02*
D03*
X193000D02*
D03*
Y152500D02*
D03*
X199693D02*
D03*
X184693Y160000D02*
D03*
X178000D02*
D03*
X199193Y142500D02*
D03*
X192500D02*
D03*
X177500Y135000D02*
D03*
X184193D02*
D03*
Y142500D02*
D03*
X177500D02*
D03*
X192500Y135000D02*
D03*
X199193D02*
D03*
D23*
X315000Y136949D02*
D03*
Y127972D02*
D03*
Y118996D02*
D03*
Y110020D02*
D03*
Y101043D02*
D03*
X295000D02*
D03*
X305000Y114508D02*
D03*
X295000Y110020D02*
D03*
X305000Y123484D02*
D03*
X295000Y118996D02*
D03*
X305000Y132461D02*
D03*
X295000Y127972D02*
D03*
X305000Y105532D02*
D03*
Y141437D02*
D03*
X295000Y136949D02*
D03*
D24*
X305000Y169193D02*
D03*
Y70807D02*
D03*
D25*
X138000Y120000D02*
D03*
Y125000D02*
D03*
Y130000D02*
D03*
Y115000D02*
D03*
Y110000D02*
D03*
X128000Y122500D02*
D03*
Y127500D02*
D03*
Y112500D02*
D03*
Y117500D02*
D03*
D26*
X123000Y148248D02*
D03*
Y91752D02*
D03*
D27*
X274815Y40500D02*
D03*
X294500D02*
D03*
X314185D02*
D03*
X333870D02*
D03*
X274815Y20815D02*
D03*
X294500D02*
D03*
X314185D02*
D03*
X333870D02*
D03*
D28*
X120000Y20000D02*
D03*
Y220000D02*
D03*
D29*
X129842Y25905D02*
D03*
X125906Y10158D02*
D03*
X110158Y14095D02*
D03*
X125906Y29842D02*
D03*
X129842Y14095D02*
D03*
X114094Y10158D02*
D03*
Y29842D02*
D03*
X108750Y20000D02*
D03*
X120000Y8750D02*
D03*
X131250Y20000D02*
D03*
X120000Y31250D02*
D03*
X110158Y25905D02*
D03*
X129842Y225905D02*
D03*
X125906Y210157D02*
D03*
X110158Y214094D02*
D03*
X125906Y229842D02*
D03*
X129842Y214094D02*
D03*
X114094Y210157D02*
D03*
Y229842D02*
D03*
X108750Y220000D02*
D03*
X120000Y208750D02*
D03*
X131250Y220000D02*
D03*
X120000Y231250D02*
D03*
X110158Y225905D02*
D03*
M02*
